<?xml version="1.0" encoding="iso-8859-1"?>
<!-- Generator: Adobe Illustrator 19.0.0, SVG Export Plug-In . SVG Version: 6.00 Build 0)  -->
<svg version="1.1" id="Capa_1" xmlns="http://www.w3.org/2000/svg" xmlns:xlink="http://www.w3.org/1999/xlink" x="0px" y="0px"
	 viewBox="0 0 56.955 56.955" style="enable-background:new 0 0 56.955 56.955;" xml:space="preserve">
<g>
	<path d="M54.132,11.427l-6.318-4.86c-11.384-8.756-27.288-8.756-38.672,0l-6.318,4.86c-0.843,0.647-1.346,1.669-1.346,2.732v23.795
		c0,0.451,0.302,0.846,0.737,0.965l8.56,2.335c1.705,0.465,3.465,0.7,5.232,0.7h0.457l2.024,14.142
		c0.008,0.053,0.028,0.102,0.044,0.152c0.008,0.027,0.013,0.054,0.023,0.081c0.044,0.109,0.107,0.207,0.185,0.294
		c0.006,0.006,0.007,0.015,0.013,0.021c0.012,0.013,0.029,0.016,0.041,0.028c0.074,0.07,0.157,0.128,0.251,0.173
		c0.025,0.012,0.048,0.027,0.074,0.037c0.014,0.005,0.026,0.015,0.04,0.02c0.098,0.033,0.199,0.047,0.3,0.048
		c0.006,0,0.012,0.004,0.018,0.004c0.018,0,0.036-0.009,0.054-0.01c0.088-0.005,0.174-0.021,0.258-0.049
		c0.032-0.011,0.062-0.022,0.093-0.036c0.093-0.042,0.181-0.095,0.259-0.165c0.008-0.007,0.018-0.009,0.026-0.016l0.013-0.013
		l0.001-0.001l0.007-0.007l4.256-4.055l4.368,3.886c0.05,0.044,0.109,0.067,0.164,0.099c0.02,0.012,0.038,0.027,0.058,0.037
		c0.023,0.012,0.042,0.033,0.066,0.042c0.006,0.002,0.011,0.004,0.017,0.006c0.069,0.026,0.141,0.032,0.212,0.042
		c0.047,0.007,0.093,0.025,0.141,0.025c0.002,0,0.004,0.001,0.006,0.001l0,0l0,0c0.033,0,0.064-0.015,0.096-0.018
		c0.089-0.009,0.177-0.018,0.262-0.05c0.01-0.004,0.019-0.008,0.028-0.012c0.038-0.016,0.069-0.047,0.105-0.068
		c0.059-0.034,0.123-0.058,0.176-0.106l3.836-3.435l3.545,3.378l0.262,0.25c0.095,0.091,0.205,0.16,0.324,0.206
		c0.118,0.046,0.242,0.07,0.367,0.07c0.11,0,0.22-0.018,0.327-0.055c0.013-0.004,0.023-0.013,0.035-0.018
		c0.024-0.009,0.044-0.023,0.067-0.034c0.095-0.046,0.18-0.105,0.254-0.176c0.012-0.012,0.028-0.015,0.04-0.028
		c0.006-0.007,0.008-0.016,0.014-0.022c0.078-0.086,0.141-0.185,0.185-0.294c0.01-0.026,0.014-0.052,0.022-0.078
		c0.016-0.051,0.037-0.1,0.044-0.154l2.024-14.142h0.215c1.935,0,3.857-0.282,5.713-0.838l7.346-2.204
		c0.423-0.127,0.713-0.517,0.713-0.958V14.16C55.477,13.096,54.974,12.075,54.132,11.427z M39.477,28.991h-22V16.387
		c0-0.219,0.178-0.396,0.396-0.396H39.08c0.219,0,0.396,0.178,0.396,0.396L39.477,28.991L39.477,28.991z M41.477,30.991h1.5
		c0.827,0,1.5,0.656,1.5,1.464c0,0.833-0.687,1.536-1.5,1.536h-1.475c-0.001,0-0.002,0-0.003,0h-0.022h-25h-2.5
		c-0.813,0-1.5-0.703-1.5-1.536c0-0.808,0.673-1.464,1.5-1.464h1.5C15.478,30.991,41.477,30.991,41.477,30.991z M33.797,50.114
		l-3.371-3.212l4.739-4.516l3.384,3.077L33.797,50.114z M28.977,48.283l3.39,3.23l-2.902,2.839l-3.44-3.257L28.977,48.283z
		 M24.398,49.884l-4.982-4.432l3.372-3.066l4.739,4.516L24.398,49.884z M28.977,45.521l-4.705-4.483l4.705-4.277l4.705,4.277
		L28.977,45.521z M31.104,35.991h7.874l-3.845,3.664L31.104,35.991z M22.821,39.654l-3.845-3.664h7.874L22.821,39.654z
		 M17.878,37.706l3.46,3.297l-2.645,2.405l-0.369-2.579c-0.001-0.005,0.002-0.011,0.001-0.016L17.878,37.706z M22.858,51.19
		l-2.672,2.653l-0.825-5.765L22.858,51.19z M37.762,53.89l-2.513-2.399l3.321-3.25L37.762,53.89z M39.263,43.407l-2.645-2.405
		l3.46-3.297l-0.446,3.106c-0.001,0.005,0.002,0.01,0.001,0.016L39.263,43.407z M53.477,37.21l-6.633,1.99
		c-1.647,0.494-3.351,0.747-5.068,0.754l0.567-3.964h0.633c1.93,0,3.5-1.586,3.5-3.536c0-1.91-1.57-3.464-3.5-3.464h-1.5V16.387
		c0-1.321-1.075-2.396-2.396-2.396H17.874c-1.321,0-2.396,1.075-2.396,2.396v12.604h-1.5c-1.93,0-3.5,1.554-3.5,3.464
		c0,1.95,1.57,3.536,3.5,3.536h1.633l0.567,3.964h-0.171c-1.589,0-3.173-0.212-4.706-0.63l-7.823-2.134V14.16
		c0-0.446,0.211-0.875,0.565-1.146l6.318-4.86c10.667-8.206,25.567-8.206,36.234,0l6.318,4.86c0.354,0.271,0.564,0.7,0.564,1.146
		V37.21z"/>
</g>
<g>
</g>
<g>
</g>
<g>
</g>
<g>
</g>
<g>
</g>
<g>
</g>
<g>
</g>
<g>
</g>
<g>
</g>
<g>
</g>
<g>
</g>
<g>
</g>
<g>
</g>
<g>
</g>
<g>
</g>
</svg>
