<svg xmlns="http://www.w3.org/2000/svg" viewBox="0 0 56.955 56.955"><path d="M54.132 11.427l-6.318-4.86c-11.384-8.756-27.288-8.756-38.672 0l-6.318 4.86a3.465 3.465 0 0 0-1.346 2.732v23.795a1 1 0 0 0 .737.965l8.56 2.335c1.705.465 3.465.7 5.232.7h.457l2.024 14.142c.008.053.028.102.044.152.008.027.013.054.023.081a1 1 0 0 0 .185.294c.006.006.007.015.013.021.012.013.029.016.041.028.074.07.157.128.251.173.025.012.048.027.074.037.014.005.026.015.04.02a.965.965 0 0 0 .3.048c.006 0 .012.004.018.004.018 0 .036-.009.054-.01a.99.99 0 0 0 .351-.085.998.998 0 0 0 .259-.165c.008-.007.018-.009.026-.016l.013-.013.001-.001.007-.007 4.256-4.055 4.368 3.886c.05.044.109.067.164.099.02.012.038.027.058.037.023.012.042.033.066.042l.017.006c.069.026.141.032.212.042.047.007.093.025.141.025l.006.001c.033 0 .064-.015.096-.018a1.02 1.02 0 0 0 .262-.05l.028-.012c.038-.016.069-.047.105-.068.059-.034.123-.058.176-.106l3.836-3.435 3.545 3.378.262.25a1.01 1.01 0 0 0 1.018.221c.013-.004.023-.013.035-.018.024-.009.044-.023.067-.034a.985.985 0 0 0 .254-.176c.012-.012.028-.015.04-.028.006-.007.008-.016.014-.022a.988.988 0 0 0 .185-.294c.01-.026.014-.052.022-.078.016-.051.037-.1.044-.154l2.024-14.142h.215c1.935 0 3.857-.282 5.713-.838l7.346-2.204c.423-.127.713-.517.713-.958V14.16a3.465 3.465 0 0 0-1.344-2.733zM39.477 28.991h-22V16.387c0-.219.178-.396.396-.396H39.08c.219 0 .396.178.396.396l.001 12.604zm2 2h1.5c.827 0 1.5.656 1.5 1.464 0 .833-.687 1.536-1.5 1.536h-29c-.813 0-1.5-.703-1.5-1.536 0-.808.673-1.464 1.5-1.464h27.5zm-7.68 19.123l-3.371-3.212 4.739-4.516 3.384 3.077-4.752 4.651zm-4.82-1.831l3.39 3.23-2.902 2.839-3.44-3.257 2.952-2.812zm-4.579 1.601l-4.982-4.432 3.372-3.066 4.739 4.516-3.129 2.982zm4.579-4.363l-4.705-4.483 4.705-4.277 4.705 4.277-4.705 4.483zm2.127-9.53h7.874l-3.845 3.664-4.029-3.664zm-8.283 3.663l-3.845-3.664h7.874l-4.029 3.664zm-4.943-1.948l3.46 3.297-2.645 2.405-.369-2.579c-.001-.005.002-.011.001-.016l-.447-3.107zm4.98 13.484l-2.672 2.653-.825-5.765 3.497 3.112zm14.904 2.7l-2.513-2.399 3.321-3.25-.808 5.649zm1.501-10.483l-2.645-2.405 3.46-3.297-.446 3.106c-.001.005.002.01.001.016l-.37 2.58zm14.214-6.197l-6.633 1.99a17.879 17.879 0 0 1-5.068.754l.567-3.964h.633c1.93 0 3.5-1.586 3.5-3.536 0-1.91-1.57-3.464-3.5-3.464h-1.5V16.387a2.399 2.399 0 0 0-2.396-2.396H17.874a2.399 2.399 0 0 0-2.396 2.396v12.604h-1.5c-1.93 0-3.5 1.554-3.5 3.464 0 1.95 1.57 3.536 3.5 3.536h1.633l.567 3.964h-.171c-1.589 0-3.173-.212-4.706-.63l-7.823-2.134V14.16c0-.446.211-.875.565-1.146l6.318-4.86c10.667-8.206 25.567-8.206 36.234 0l6.318 4.86c.354.271.564.7.564 1.146v23.05z"/></svg>