<svg xmlns="http://www.w3.org/2000/svg" viewBox="0 0 511.999 511.999"><path fill="#e0e0e0" d="M466.579 397.526H306.351l-19.928-39.112L456.505 24.612 408.2 0 256 298.708 103.801 0 55.496 24.612l170.082 333.802-19.928 39.112H102.882v15.211h56.036v15.2h-56.036v15.211h56.036v53.641H45.422c-12.91 0-23.414-10.504-23.414-23.414v-37.226c0-12.909 10.504-23.412 23.414-23.412h37.177v-15.211H45.422c-21.298 0-38.625 17.326-38.625 38.623v37.226C6.797 494.673 24.124 512 45.422 512h139.079c14.737 0 28.385-8.574 34.797-21.849l36.701-72.031 36.702 72.032c6.412 13.275 20.06 21.848 34.797 21.848h139.079c21.298 0 38.625-17.327 38.625-38.625v-37.226c.002-21.297-17.325-38.623-38.623-38.623zM414.846 20.458l21.198 10.801-158.157 310.402-4.03-7.908-9.32-18.294L414.846 20.458zM205.707 483.322l-.08.162c-3.879 8.082-12.171 13.305-21.126 13.305h-10.373v-84.053h40.841l19.144-37.57 13.351 26.202-41.757 81.954zm132.164 13.467h-10.373c-8.953 0-17.245-5.223-21.124-13.305l-41.84-82.115.001-.002-30.421-59.705-.001.001L75.956 31.259l21.198-10.801 150.31 295.002 30.421 59.706v-.001l19.144 37.572h40.841v84.052zm152.123-23.414c0 12.911-10.504 23.414-23.414 23.414H353.083v-84.053H466.58c12.91 0 23.414 10.503 23.414 23.412v37.227z"/></svg>
