<svg id="Layer_1" data-name="Layer 1" xmlns="http://www.w3.org/2000/svg" viewBox="0 0 115.88 70.01"><defs><style>.cls-1{fill:#fff;}.cls-2{fill:#002b5c;}.cls-3{fill:#e31837;}.cls-4{fill:#b4975a;}.cls-5{fill:#1d4574;}.cls-6{fill:#006bb6;}.cls-7{fill:#ed174c;}</style></defs><title>AllStar_Logo</title><path class="cls-1" d="M117.6,126a16.12,16.12,0,0,0-8.41,2.36,6.2,6.2,0,0,0-1.36-.15A6.25,6.25,0,0,0,101.6,135a30.12,30.12,0,0,0-10,10.46,5,5,0,0,0-1-.11h0a6.1,6.1,0,0,0-2.26.43,9.66,9.66,0,0,0-3-.46,17.1,17.1,0,0,0-6.89,1.86,4.91,4.91,0,0,0-3.82-1.85,4.84,4.84,0,0,0-3.22,1.22,3.61,3.61,0,0,0-.93,1.26,6.94,6.94,0,0,0-4.26,2c-2.21,2.21-2.5,5.1-2.55,7.46a3.91,3.91,0,0,0-2.37,1.13,5.52,5.52,0,0,0-1.39,5.43l0,.14a8.37,8.37,0,0,1,0,5l0,.14a5.52,5.52,0,0,0,1.39,5.43,3.91,3.91,0,0,0,2.37,1.13c.05,2.35.34,5.25,2.55,7.46a6.93,6.93,0,0,0,4.1,2,3.87,3.87,0,0,0,.25,3.72,3.46,3.46,0,0,0,2.88,1.54,3.62,3.62,0,0,0,1.72-.44c.56-.3,1.12-.56,1.68-.8l.14.2a3.74,3.74,0,0,0,3,1.5,3.78,3.78,0,0,0,.73-.07,23.5,23.5,0,0,1,4.63-.44c5,0,10,1.31,15.31,2.7,5.48,1.43,11.16,2.91,17,2.92s11.48-1.49,17-2.92c5.32-1.39,10.35-2.7,15.31-2.7a23.5,23.5,0,0,1,4.63.44,3.78,3.78,0,0,0,.73.07,3.74,3.74,0,0,0,3-1.5l.14-.2c.57.24,1.13.5,1.69.8a3.61,3.61,0,0,0,1.71.43,3.46,3.46,0,0,0,2.88-1.54,3.86,3.86,0,0,0,.25-3.72,6.93,6.93,0,0,0,4.1-2c2.21-2.21,2.5-5.1,2.55-7.46a3.91,3.91,0,0,0,2.37-1.13,5.52,5.52,0,0,0,1.39-5.43l0-.14a8.37,8.37,0,0,1,0-5l0-.14a5.52,5.52,0,0,0-1.39-5.43,3.91,3.91,0,0,0-2.37-1.13c-.05-2.35-.34-5.25-2.55-7.46a6.94,6.94,0,0,0-4.26-2,3.61,3.61,0,0,0-.93-1.26,4.85,4.85,0,0,0-3.22-1.22,4.91,4.91,0,0,0-3.82,1.85,17.1,17.1,0,0,0-6.89-1.86,9.66,9.66,0,0,0-3,.46,6.15,6.15,0,0,0-2.28-.43,5,5,0,0,0-1,.11,30.12,30.12,0,0,0-10-10.46,6.25,6.25,0,0,0-7.59-6.62A16.12,16.12,0,0,0,117.6,126Z" transform="translate(-59.66 -125.99)"/><path class="cls-2" d="M174.22,169.34a9.48,9.48,0,0,1,0-5.7l0-.11a4.39,4.39,0,0,0-1.11-4.34,2.8,2.8,0,0,0-2-.83,2.84,2.84,0,0,0-.69.08v-.22c0-2.42,0-5.43-2.24-7.63a5.85,5.85,0,0,0-4.16-1.72h-.14a2.5,2.5,0,0,0-.83-1.5,3.76,3.76,0,0,0-5.88,1.19l-.8-.34a16.42,16.42,0,0,0-6.52-1.8,8.52,8.52,0,0,0-3,.54,5.06,5.06,0,0,0-2.23-.51,3.79,3.79,0,0,0-1.58.34,29,29,0,0,0-10.69-11.25s0-.08,0-.13a5.13,5.13,0,0,0-6.59-5.85,15,15,0,0,0-16.46,0,5.13,5.13,0,0,0-6.59,5.86s0,.08,0,.12a29,29,0,0,0-10.69,11.25,3.76,3.76,0,0,0-1.57-.33h0a5,5,0,0,0-2.22.51,8.52,8.52,0,0,0-3-.54,16.41,16.41,0,0,0-6.52,1.8l-.8.34a3.76,3.76,0,0,0-5.88-1.19,2.5,2.5,0,0,0-.83,1.5h-.15A5.85,5.85,0,0,0,67,150.6c-2.2,2.2-2.22,5.21-2.24,7.63v.22a2.85,2.85,0,0,0-.69-.08,2.81,2.81,0,0,0-2,.83A4.39,4.39,0,0,0,61,163.53l0,.11a9.48,9.48,0,0,1,0,5.7l0,.1a4.39,4.39,0,0,0,1.11,4.34,2.8,2.8,0,0,0,2,.83,2.85,2.85,0,0,0,.69-.08v.22c0,2.42,0,5.43,2.24,7.63a5.84,5.84,0,0,0,4.16,1.72A5.94,5.94,0,0,0,72,184l-.62,1.48a2.78,2.78,0,0,0,.12,2.73,2.35,2.35,0,0,0,2,1,2.52,2.52,0,0,0,1.19-.31,21.72,21.72,0,0,1,2.77-1.23,2.86,2.86,0,0,0,.47.95A2.63,2.63,0,0,0,80,189.77a2.66,2.66,0,0,0,.52-.05,24.6,24.6,0,0,1,4.84-.46c5.1,0,10.19,1.33,15.59,2.74s11,2.88,16.67,2.88,11.26-1.47,16.68-2.88,10.49-2.74,15.59-2.74a24.6,24.6,0,0,1,4.84.46,2.66,2.66,0,0,0,.52.05,2.63,2.63,0,0,0,2.11-1.06,2.86,2.86,0,0,0,.47-.95,21.77,21.77,0,0,1,2.78,1.23,2.51,2.51,0,0,0,1.19.3,2.35,2.35,0,0,0,2-1,2.77,2.77,0,0,0,.12-2.73l-.62-1.49a5.94,5.94,0,0,0,.82.06,5.84,5.84,0,0,0,4.16-1.72c2.2-2.2,2.22-5.21,2.24-7.63v-.22a2.84,2.84,0,0,0,.69.08,2.8,2.8,0,0,0,2-.83,4.39,4.39,0,0,0,1.11-4.34Z" transform="translate(-59.66 -125.99)"/><path class="cls-3" d="M141.37,148.36l0,.06a2.24,2.24,0,0,0-.16.36l-.95-.93a27.69,27.69,0,0,0-3.74-3.27,9.73,9.73,0,0,0-4.27-1.72,34.72,34.72,0,0,0-2-3.37l-.72-1.11a2.24,2.24,0,0,0,.39-.09,3.91,3.91,0,0,0,1.43-.82A26.79,26.79,0,0,1,141.37,148.36Zm-37.44-10.89a3.91,3.91,0,0,0,1.43.82,2.24,2.24,0,0,0,.39.09l-.72,1.11a34.72,34.72,0,0,0-2,3.37c-3.4.44-5.94,2.94-8,5l-.95.93a2.24,2.24,0,0,0-.16-.36l0-.06A26.79,26.79,0,0,1,103.93,137.47Z" transform="translate(-59.66 -125.99)"/><path class="cls-4" d="M172.09,170a11.71,11.71,0,0,1,0-7h0a2.17,2.17,0,0,0-.53-2.2.59.59,0,1,0-.1.92A1.31,1.31,0,0,1,169.3,163c-1.05-1.05-1.07-2.86-1.08-4.78,0-2.22,0-4.52-1.59-6.07a3.64,3.64,0,0,0-2.6-1.07h0a8.18,8.18,0,0,0-1.19.09,6.35,6.35,0,0,1-.9.07c-.58,0-1.92-.12-1.92-1.19a.82.82,0,0,1,.82-.82.84.84,0,0,1,.46.14.24.24,0,0,0,.36,0,.25.25,0,0,0,0-.35,1.53,1.53,0,0,0-2.56,1.14,1.91,1.91,0,0,0,.76,1.48c-3.75-.36-7.92-4.37-12.34-2.55a4.74,4.74,0,0,0-.79.43,2.85,2.85,0,0,0-2-.86,1.49,1.49,0,0,0-1.36.82c1.33,1,1.88-.53,2.67.1a2,2,0,0,1-1.31,3.59c-4.61,0-7.77-8.17-13.49-8.17l-.42,0c-1.52-4-5.63-7.5-4.95-10.94a2,2,0,0,1,3.78-.58c.47.9-1.18,1.13-.42,2.64a1.5,1.5,0,0,0,1.07-1.18,2.9,2.9,0,0,0-4.62-2.84,12.8,12.8,0,0,0-16,0A2.9,2.9,0,0,0,105,135a1.5,1.5,0,0,0,1.07,1.18c.76-1.51-.89-1.74-.42-2.64a2,2,0,0,1,3.78.58c.68,3.44-3.43,7-4.95,10.94l-.42,0c-5.72,0-8.88,8.17-13.49,8.17a2,2,0,0,1-1.31-3.59c.79-.63,1.34.94,2.67-.1a1.49,1.49,0,0,0-1.36-.82,2.85,2.85,0,0,0-2,.86,4.74,4.74,0,0,0-.79-.43c-4.42-1.81-8.59,2.19-12.34,2.55a1.91,1.91,0,0,0,.76-1.48,1.53,1.53,0,0,0-2.56-1.14.25.25,0,0,0,0,.35.24.24,0,0,0,.36,0,.84.84,0,0,1,.46-.14.82.82,0,0,1,.82.82c0,1.07-1.34,1.19-1.92,1.19a6.35,6.35,0,0,1-.9-.07,8.18,8.18,0,0,0-1.19-.09h0a3.64,3.64,0,0,0-2.6,1.07C67,153.73,67,156,67,158.24c0,1.92,0,3.73-1.08,4.78a1.31,1.31,0,0,1-2.16-1.34.59.59,0,1,0-.1-.92,2.17,2.17,0,0,0-.53,2.2h0a11.71,11.71,0,0,1,0,7h0a2.17,2.17,0,0,0,.53,2.2.59.59,0,1,0,.1-.92,1.31,1.31,0,0,1,2.16-1.34C67,171,67,172.81,67,174.73c0,2.22,0,4.52,1.59,6.07a3.68,3.68,0,0,0,4.38.6l.84-.45c.4.55.81,1.11,1.21,1.69q-.79,1.83-1.58,3.73c-.22.52-.14.81.16.65a23.68,23.68,0,0,1,5.94-2.19v2.09c0,.4.25.68.55.62,12.51-2.49,25,5.11,37.54,5.12s25-7.61,37.54-5.12c.3.06.55-.21.55-.62v-2.09a23.68,23.68,0,0,1,5.94,2.19c.3.16.37-.13.16-.65q-.79-1.9-1.58-3.73c.4-.58.81-1.14,1.21-1.69l.84.45a3.68,3.68,0,0,0,4.38-.6c1.55-1.55,1.57-3.85,1.59-6.07,0-1.92,0-3.73,1.08-4.78a1.31,1.31,0,0,1,2.16,1.34.59.59,0,1,0,.1.92,2.17,2.17,0,0,0,.53-2.2ZM170,164.5a2.2,2.2,0,0,0,.61-.09,12.83,12.83,0,0,0-.16,1.81h-5.37v-.16a5.86,5.86,0,0,1,.27-1.36l0-.1h.1a8.23,8.23,0,0,0,2.88-.84l.1.11A2.16,2.16,0,0,0,170,164.5Zm-2.79,7.22q0,.22-.07.45a5.81,5.81,0,0,1-1.79-.77,5.87,5.87,0,0,1-1.63-1.58l-.06-.09.07-.09a1.79,1.79,0,0,1,1.06-.72H165l0,.1A6.36,6.36,0,0,0,167.21,171.72Zm-1.64-2.83.28,0a8.5,8.5,0,0,1,2.17.7,4.87,4.87,0,0,0-.68,1.52,5.84,5.84,0,0,1-1.65-2Zm-1-2.14v.14a6.53,6.53,0,0,0,.22,1.34l0,.16-.16,0a2.19,2.19,0,0,0-1.16.68l-.15.16-.09-.19a5.8,5.8,0,0,1-.58-2.15v-.16Zm-1.89-.53v-.16a5.8,5.8,0,0,1,.58-2.15l.09-.19.15.16a2.13,2.13,0,0,0,1.16.68l.16,0,0,.16a6.53,6.53,0,0,0-.22,1.34v.14Zm2.34-2.16h-.23a1.79,1.79,0,0,1-1.06-.72l-.07-.09.06-.09a5.87,5.87,0,0,1,1.63-1.58,5.8,5.8,0,0,1,1.8-.77q0,.23.07.45A6.36,6.36,0,0,0,165,164Zm2.34-2.24a4.86,4.86,0,0,0,.68,1.51,8.56,8.56,0,0,1-2.15.7l-.29,0,.13-.26A6,6,0,0,1,167.34,161.83ZM68,171.72A6.36,6.36,0,0,0,70.16,169l0-.1h.23a1.79,1.79,0,0,1,1.06.72l.07.09-.06.09a5.87,5.87,0,0,1-1.63,1.58,5.81,5.81,0,0,1-1.79.77Q68,171.95,68,171.72Zm-.13-.57a4.87,4.87,0,0,0-.68-1.52,8.5,8.5,0,0,1,2.17-.7l.28,0-.13.25A5.84,5.84,0,0,1,67.86,171.16Zm2.68-2.74-.16,0,0-.16a6.53,6.53,0,0,0,.22-1.34v-.14h1.89v.16a5.8,5.8,0,0,1-.58,2.15l-.09.19-.15-.16A2.19,2.19,0,0,0,70.55,168.42Zm.11-2.2v-.14a6.53,6.53,0,0,0-.22-1.34l0-.16.16,0a2.13,2.13,0,0,0,1.16-.68l.15-.16.09.19a5.8,5.8,0,0,1,.58,2.15v.16Zm.84-2.9a1.79,1.79,0,0,1-1.06.72H70.2l0-.1A6.36,6.36,0,0,0,68,161.25q0-.22.07-.45a5.8,5.8,0,0,1,1.8.77,5.87,5.87,0,0,1,1.63,1.58l.06.09Zm-1.87.76-.29,0a8.56,8.56,0,0,1-2.15-.7,4.87,4.87,0,0,0,.68-1.51,6,6,0,0,1,1.63,2Zm-4.41.42a2.16,2.16,0,0,0,1.53-.63l.1-.11a8.23,8.23,0,0,0,2.88.84h.1l0,.1a5.86,5.86,0,0,1,.27,1.36v.16H64.76a12.82,12.82,0,0,0-.16-1.81A2.2,2.2,0,0,0,65.21,164.5Zm0,4a2.2,2.2,0,0,0-.61.09,12.83,12.83,0,0,0,.16-1.81h5.37v.16a6,6,0,0,1-.26,1.36l0,.1h-.11a8.2,8.2,0,0,0-2.89.84l-.1-.11A2.16,2.16,0,0,0,65.21,168.48Zm100.7,11.37a2.58,2.58,0,0,1-1.84.76,6,6,0,0,1-2.44-1h0a23.65,23.65,0,0,0-6.88-2.38c-.3-.06-.55.24-.55.64V180c-12.2-1.93-24.4,5.27-36.6,5.29S93.2,178.06,81,180V177.9c0-.4-.25-.69-.55-.64a23.65,23.65,0,0,0-6.88,2.38,6,6,0,0,1-2.44,1,2.58,2.58,0,0,1-1.84-.76c-1-1-1.05-2.89-1.08-4.85,0-.72,0-1.44-.07-2.15a6.52,6.52,0,0,0,0-12.71c.06-.7.07-1.43.07-2.14,0-2,0-3.82,1.08-4.85a2.58,2.58,0,0,1,1.84-.76h0A2.66,2.66,0,0,1,73.78,155a2.6,2.6,0,0,1-2.25,2.59,1.69,1.69,0,0,1-1.81-1.08c-.13-.37,0-.53.35-.81a1.46,1.46,0,0,0,.55-1.74l0-.11h-.12a1.46,1.46,0,0,0-.87.39,2.25,2.25,0,0,0-.72,1.64,2.54,2.54,0,0,0,.73,1.85,2.49,2.49,0,0,0,.74.51,1.21,1.21,0,0,0-.47,1.37l0,.12H70a1,1,0,0,0,1-.81c.08-.25.13-.4.44-.44h0l.24,0a3.65,3.65,0,0,0,3.16-3.64,3.69,3.69,0,0,0-.42-1.7c4.34-.37,9.18-4.28,12.57-2.89a3.76,3.76,0,0,1,.81.46,2.91,2.91,0,0,0-.14.9,2.88,2.88,0,0,0,2.87,2.9c5.3,0,8.78-8.17,13.26-8.17a3.92,3.92,0,0,1,0,7.84,3.85,3.85,0,0,1-2.34-.79,2.58,2.58,0,0,1-.79-3.13c.69-1.41,2.25.47,3.44-1.66a1.86,1.86,0,0,0-1.13-.43,3.25,3.25,0,0,0-3.26,3.29,3.3,3.3,0,0,0,.38,1.53,1.57,1.57,0,0,0-2,.71c1.38,1.08,1.71-.59,2.68.18h0l.26.22a4.93,4.93,0,0,0,3,1,5,5,0,0,0,1.69-9.75c1.56-3.58,5.72-7.47,4.93-11.47a2.84,2.84,0,0,0-.33-.87,11.68,11.68,0,0,1,14.54,0,2.84,2.84,0,0,0-.33.87c-.8,4,3.37,7.89,4.93,11.47a5,5,0,0,0,1.69,9.75,4.93,4.93,0,0,0,3-1l.26-.22h0c1-.77,1.3.9,2.68-.18a1.57,1.57,0,0,0-2-.71,3.3,3.3,0,0,0,.38-1.53,3.25,3.25,0,0,0-3.26-3.29,1.86,1.86,0,0,0-1.13.43c1.19,2.13,2.75.25,3.44,1.66a2.58,2.58,0,0,1-.79,3.13,3.85,3.85,0,0,1-2.34.79,3.92,3.92,0,0,1,0-7.84c4.48,0,8,8.17,13.26,8.17a2.88,2.88,0,0,0,2.87-2.9,2.91,2.91,0,0,0-.14-.9,3.76,3.76,0,0,1,.81-.46c3.39-1.39,8.23,2.52,12.57,2.89a3.69,3.69,0,0,0-.42,1.7,3.65,3.65,0,0,0,3.16,3.64l.24,0h0c.31,0,.36.19.44.44a1,1,0,0,0,1,.81h.12l0-.12a1.21,1.21,0,0,0-.47-1.37,2.49,2.49,0,0,0,.74-.51,2.54,2.54,0,0,0,.73-1.85,2.25,2.25,0,0,0-.72-1.64,1.46,1.46,0,0,0-.87-.39h-.12l0,.11a1.46,1.46,0,0,0,.55,1.74c.31.28.47.44.35.81a1.69,1.69,0,0,1-1.81,1.08,2.6,2.6,0,0,1-2.25-2.59,2.66,2.66,0,0,1,2.64-2.64h0a2.58,2.58,0,0,1,1.84.76c1,1,1.05,2.89,1.08,4.85,0,.72,0,1.44.07,2.14a6.52,6.52,0,0,0,0,12.71c-.06.7-.07,1.43-.07,2.15C167,177,166.94,178.81,165.91,179.84ZM170,168.48a2.16,2.16,0,0,0-1.53.63l-.1.11a8.2,8.2,0,0,0-2.89-.84h-.11l0-.1a6,6,0,0,1-.26-1.36v-.16h5.37a12.83,12.83,0,0,0,.16,1.81A2.2,2.2,0,0,0,170,168.48Z" transform="translate(-59.66 -125.99)"/><path class="cls-5" d="M147.29,159.37v-.28h-.16C147.18,159.18,147.24,159.27,147.29,159.37Z" transform="translate(-59.66 -125.99)"/><path class="cls-5" d="M161.31,169.92h0v.45h.62c-.09-.15-.17-.3-.24-.45Z" transform="translate(-59.66 -125.99)"/><path class="cls-5" d="M160.83,165.84a4.36,4.36,0,0,1,0,.51h.08A7.47,7.47,0,0,1,161,165l-.19,0Z" transform="translate(-59.66 -125.99)"/><path class="cls-5" d="M151.06,155.58c-.61-.07-.86.52-1,1h.42a.34.34,0,0,1,.23-.09.31.31,0,0,1,.24.09h.67A.73.73,0,0,0,151.06,155.58Z" transform="translate(-59.66 -125.99)"/><path class="cls-5" d="M109.26,165.84h1.4l.21-.18h0a2.56,2.56,0,0,0-1.51-.71,1.71,1.71,0,0,0-.37,0Z" transform="translate(-59.66 -125.99)"/><path class="cls-5" d="M148.89,154.69c0,.65.39,1.09.52,1.9h.4c.13-.81.52-1.25.52-1.9a2.57,2.57,0,0,0-.72-1.51A2.57,2.57,0,0,0,148.89,154.69Z" transform="translate(-59.66 -125.99)"/><path class="cls-5" d="M109.05,153.54a1.68,1.68,0,0,0,.3,0,2.57,2.57,0,0,0,1.51-.72,3,3,0,0,0-1.12-.66A6.15,6.15,0,0,1,109.05,153.54Z" transform="translate(-59.66 -125.99)"/><path class="cls-5" d="M124.33,152.85a2.57,2.57,0,0,0,1.51.72,1.68,1.68,0,0,0,.31,0,6.15,6.15,0,0,1-.7-1.35A2.94,2.94,0,0,0,124.33,152.85Z" transform="translate(-59.66 -125.99)"/><path class="cls-5" d="M110.57,160.39a.87.87,0,0,1,.4.54,5.44,5.44,0,0,1,.36-1.16.78.78,0,0,0-.14-.19.83.83,0,0,0-.23.54A.55.55,0,0,0,110.57,160.39Z" transform="translate(-59.66 -125.99)"/><path class="cls-5" d="M138.26,155.58c-.78-.09-1,.89-1,1.39l.32-.12a.42.42,0,0,1,.39-.34.29.29,0,0,1,.29.17,4.76,4.76,0,0,1,.62-.07A.73.73,0,0,0,138.26,155.58Z" transform="translate(-59.66 -125.99)"/><path class="cls-5" d="M125.46,155.58c-.61-.07-.86.52-1,1h.42a.34.34,0,0,1,.23-.09.31.31,0,0,1,.24.09h.67A.73.73,0,0,0,125.46,155.58Z" transform="translate(-59.66 -125.99)"/><path class="cls-5" d="M97.82,168.2a2,2,0,0,1,0-.4,1.9,1.9,0,0,1,.61-1.41V166a2.55,2.55,0,0,0-.71,1.51A2,2,0,0,0,97.82,168.2Z" transform="translate(-59.66 -125.99)"/><path class="cls-5" d="M161,168.38a.76.76,0,0,0,0,1.5s-.16-.57.3-.57a.34.34,0,0,1,.17,0,7.6,7.6,0,0,1-.32-1Z" transform="translate(-59.66 -125.99)"/><path class="cls-5" d="M93.47,162v1.25a.73.73,0,0,1,0,.1v.15A.75.75,0,0,0,93.47,162Z" transform="translate(-59.66 -125.99)"/><path class="cls-5" d="M93.83,168a1.83,1.83,0,0,1-.36.47v.86A.75.75,0,0,0,93.83,168Z" transform="translate(-59.66 -125.99)"/><path class="cls-5" d="M73.64,171.82a.32.32,0,1,0,0,.47.55.55,0,0,0,.28.39.84.84,0,0,1,.44-.37v-.51a.84.84,0,0,1-.44-.37A.55.55,0,0,0,73.64,171.82Z" transform="translate(-59.66 -125.99)"/><path class="cls-5" d="M81.4,164.07l.51,0v-.46A.74.74,0,0,0,81.4,164.07Z" transform="translate(-59.66 -125.99)"/><path class="cls-5" d="M96.25,172.44l.45.09v-.25a.93.93,0,0,1,.53.36l.09,0a.53.53,0,0,0,.22-.36.32.32,0,1,0,0-.47.55.55,0,0,0-.28-.39.88.88,0,0,1-.56.41V171h-.45v.39c-.21,0-.6-.11-.6-.45s.57-.3.57-.3a.76.76,0,0,0-1.5,0c-.1.86,1.12,1,1.53,1v.27c-1.17,0-1.64-.56-2.42-.56a1.48,1.48,0,0,0-.36,0V172c.75.11,1.38.22,2,.34a3.27,3.27,0,0,1,.74-.08Z" transform="translate(-59.66 -125.99)"/><path class="cls-5" d="M80.36,162.91c.44,0,.29.57.29.57a.76.76,0,0,0,.66-.77h-.95Z" transform="translate(-59.66 -125.99)"/><path class="cls-5" d="M126.14,173.16v-.39l.13,0v-.29h-.13v-.27h.13v-.32h-.13v-.27h.13v-.29l-.13,0V171h-.45v.88a.88.88,0,0,1-.56-.41.55.55,0,0,0-.28.39.83.83,0,0,0-.52.22v0a.84.84,0,0,0,.52.22.55.55,0,0,0,.28.39.87.87,0,0,1,.56-.41v.88h.45Z" transform="translate(-59.66 -125.99)"/><path class="cls-5" d="M133.61,167.73a2.14,2.14,0,0,1,.41-1c-.24-.52-1.13-.62-1.48-.64v-.27a4.17,4.17,0,0,1,1.65.4V165.1a4.18,4.18,0,0,1-1.65.4v-.27c.41,0,1.64-.17,1.53-1a.76.76,0,0,0-1.5,0s.57-.16.57.3-.39.43-.6.45v-.39h-.3v2.22h.3v-.39c.21,0,.6.11.6.45s-.57.3-.57.3A.77.77,0,0,0,133.61,167.73Z" transform="translate(-59.66 -125.99)"/><path class="cls-5" d="M125.46,175.73a.76.76,0,0,0,0-1.5s.16.57-.3.57-.43-.39-.45-.6h.41v-.45h-.78v.45h.1C124.45,174.62,124.6,175.84,125.46,175.73Z" transform="translate(-59.66 -125.99)"/><path class="cls-5" d="M134.2,171.57v-.38a.35.35,0,0,1-.14-.29.29.29,0,0,1,.14-.27V170a.73.73,0,0,0-1.07.58C133.05,171.23,133.69,171.48,134.2,171.57Z" transform="translate(-59.66 -125.99)"/><path class="cls-5" d="M126.27,173.53l-.09,0a.74.74,0,0,0,.09.28Z" transform="translate(-59.66 -125.99)"/><path class="cls-5" d="M162.41,171.74a.81.81,0,0,0,.21-.38,7.57,7.57,0,0,1-.54-.74.78.78,0,0,1-.3.3.55.55,0,0,0,.39.28A.83.83,0,0,0,162.41,171.74Z" transform="translate(-59.66 -125.99)"/><path class="cls-5" d="M130.06,156.09c-.06.18-.13.34-.19.5h1.07l-.16-.41A6,6,0,0,1,130.06,156.09Z" transform="translate(-59.66 -125.99)"/><path class="cls-5" d="M153.26,173.22v.4a.9.9,0,0,0,0-.1A.73.73,0,0,0,153.26,173.22Z" transform="translate(-59.66 -125.99)"/><path class="cls-5" d="M134.2,174.1v-.61a.29.29,0,0,1-.14-.27.35.35,0,0,1,.14-.29v-.38c-.51.1-1.14.34-1.07,1A.73.73,0,0,0,134.2,174.1Z" transform="translate(-59.66 -125.99)"/><path class="cls-5" d="M141.68,176.27V174.8A.75.75,0,0,0,141.68,176.27Z" transform="translate(-59.66 -125.99)"/><path class="cls-5" d="M163.54,172.69a.71.71,0,0,1,.2-.23,7.58,7.58,0,0,1-.67-.6.8.8,0,0,0-.35.2.83.83,0,0,0,.54.23A.55.55,0,0,0,163.54,172.69Z" transform="translate(-59.66 -125.99)"/><path class="cls-5" d="M141.68,172.74v-1.36a1.45,1.45,0,0,0-.32,0,3.36,3.36,0,0,0-1.19.33v.78a3.36,3.36,0,0,0,1.19.33A1.45,1.45,0,0,0,141.68,172.74Z" transform="translate(-59.66 -125.99)"/><path class="cls-5" d="M105.14,156.09a6,6,0,0,1-.72.09,7.36,7.36,0,0,0-.3.85,1.11,1.11,0,0,1,.24.68v.63a3.19,3.19,0,0,0,.43.59,2.57,2.57,0,0,0,.72-1.51A4,4,0,0,0,105.14,156.09Z" transform="translate(-59.66 -125.99)"/><path class="cls-5" d="M153.36,171.52l-.1,0v1a3.14,3.14,0,0,0,.63.19Z" transform="translate(-59.66 -125.99)"/><path class="cls-5" d="M158.8,157.56a5.48,5.48,0,0,1,.55.47,5.3,5.3,0,0,1,.65.77l.26,0v.27h-.08a4.62,4.62,0,0,1,.51,1.27h0v-.88a.88.88,0,0,1,.56.41.55.55,0,0,0,.28-.39.83.83,0,0,0,.54-.24.77.77,0,0,0-.17-.12l-.12-.06a.81.81,0,0,0-.25-.05.47.47,0,0,0,0-.1l-.31-.2a1,1,0,0,1-.5.33v-.74l-.11-.1,0-.05h-.29v.39c-.21,0-.6-.11-.6-.45s.57-.3.57-.3v0a4.74,4.74,0,0,1-.34-.5A.75.75,0,0,0,158.8,157.56Z" transform="translate(-59.66 -125.99)"/><path class="cls-5" d="M161.78,160.39a.88.88,0,0,1,.41.56h-.89v.45h.4c0,.21-.11.6-.45.6s-.3-.57-.3-.57l-.12,0v1.45l.12,0c.86.1,1-1.12,1-1.53h.27a3.26,3.26,0,0,1-.14.95,7.8,7.8,0,0,1,.47-.64c0-.1,0-.2,0-.3h.27c.14-.16.28-.31.43-.45h-.65a.88.88,0,0,1,.41-.56.55.55,0,0,0-.39-.28.32.32,0,1,0-.47,0A.55.55,0,0,0,161.78,160.39Z" transform="translate(-59.66 -125.99)"/><path class="cls-5" d="M159.22,154.92s0-.08,0-.12a4.8,4.8,0,0,1,.07-.8l-.55-.13a.36.36,0,0,1,0,.13c0,.46-.57.3-.57.3A.77.77,0,0,0,159.22,154.92Z" transform="translate(-59.66 -125.99)"/><path class="cls-5" d="M164.55,173.16V173l-.45-.29v.43h.45Z" transform="translate(-59.66 -125.99)"/><path class="cls-5" d="M163.81,156.5h.09a.55.55,0,0,0,.33-.11,2.81,2.81,0,0,1-.61-.81.85.85,0,0,0-.57.55A1.46,1.46,0,0,0,163.81,156.5Z" transform="translate(-59.66 -125.99)"/><path class="cls-5" d="M163.13,154.69A1.73,1.73,0,0,0,163,154a1.52,1.52,0,0,0-.42,1,1.48,1.48,0,0,0,.27.86A3.31,3.31,0,0,0,163.13,154.69Z" transform="translate(-59.66 -125.99)"/><path class="cls-5" d="M140.48,173.51a.69.69,0,0,0-.31-.68V174A.72.72,0,0,0,140.48,173.51Z" transform="translate(-59.66 -125.99)"/><path class="cls-5" d="M87.29,158.16V159a4.27,4.27,0,0,1,.22.4v-1.28h-.22Z" transform="translate(-59.66 -125.99)"/><path class="cls-5" d="M73.28,170.36h.62v-.45h-.37C73.45,170.07,73.36,170.22,73.28,170.36Z" transform="translate(-59.66 -125.99)"/><path class="cls-5" d="M73.11,170.62a7.57,7.57,0,0,1-.54.74.81.81,0,0,0,.21.38.83.83,0,0,0,.23-.54.55.55,0,0,0,.39-.28A.78.78,0,0,1,73.11,170.62Z" transform="translate(-59.66 -125.99)"/><path class="cls-5" d="M102.72,156.06a.74.74,0,0,0,1.31.14h0A6.1,6.1,0,0,1,102.72,156.06Z" transform="translate(-59.66 -125.99)"/><path class="cls-5" d="M134.2,171.87c-.84-.12-1.28-.52-1.95-.53v1.43c.67,0,1.11-.41,1.95-.53Z" transform="translate(-59.66 -125.99)"/><path class="cls-5" d="M81.9,172.57v-1a2.33,2.33,0,0,0-.87-.2,1.7,1.7,0,0,0-.67.16v1.12a1.7,1.7,0,0,0,.67.16A2.33,2.33,0,0,0,81.9,172.57Z" transform="translate(-59.66 -125.99)"/><path class="cls-5" d="M97.77,160.39a.88.88,0,0,1,.41.56h-.89v.45h.4c0,.21-.11.6-.45.6s-.3-.57-.3-.57a.76.76,0,0,0,0,1.5c.86.1,1-1.12,1-1.53h.27c0,1.17-.56,1.64-.56,2.42a2.55,2.55,0,0,0,.71,1.51v-5.74a.83.83,0,0,0-.23.53A.55.55,0,0,0,97.77,160.39Z" transform="translate(-59.66 -125.99)"/><path class="cls-5" d="M109.93,177.86v1.21a3.07,3.07,0,0,0,.94-.6A3.07,3.07,0,0,0,109.93,177.86Z" transform="translate(-59.66 -125.99)"/><path class="cls-5" d="M132.25,174.94v1.18A.78.78,0,0,0,132.25,174.94Z" transform="translate(-59.66 -125.99)"/><path class="cls-5" d="M126.27,179.12V177.8a1.74,1.74,0,0,0-.43-.06,2.57,2.57,0,0,0-1.51.72,2.57,2.57,0,0,0,1.51.72A1.74,1.74,0,0,0,126.27,179.12Z" transform="translate(-59.66 -125.99)"/><path class="cls-5" d="M124.33,175.26v1.33a6.13,6.13,0,0,1-.15,1.32,2.28,2.28,0,0,0,.53-1.29A4.26,4.26,0,0,0,124.33,175.26Z" transform="translate(-59.66 -125.99)"/><path class="cls-5" d="M110.87,176.56v-1.3a4.27,4.27,0,0,0-.39,1.36,2.3,2.3,0,0,0,.54,1.31A6.13,6.13,0,0,1,110.87,176.56Z" transform="translate(-59.66 -125.99)"/><path class="cls-5" d="M97.77,170.92a.55.55,0,0,0,.39.28.83.83,0,0,0,.23.53v-2.46a2.22,2.22,0,0,1-.34-.46,3.31,3.31,0,0,1,.19,1.1H98c0-.41-.17-1.64-1-1.53a.76.76,0,0,0,0,1.5s-.16-.57.3-.57.43.39.45.6h-.41v.45h.89A.88.88,0,0,1,97.77,170.92Z" transform="translate(-59.66 -125.99)"/><path class="cls-5" d="M131.86,156.53a.7.7,0,0,0,.62-.47,6.11,6.11,0,0,1-1.31.14h0A.7.7,0,0,0,131.86,156.53Z" transform="translate(-59.66 -125.99)"/><path class="cls-5" d="M74.24,169.88l.12,0v-.67a1.77,1.77,0,0,1-.37-.46c-.06.22-.13.43-.22.64a.34.34,0,0,1,.17,0C74.4,169.31,74.24,169.88,74.24,169.88Z" transform="translate(-59.66 -125.99)"/><path class="cls-5" d="M106.15,165.27a.74.74,0,0,1-.22-.24.55.55,0,0,0-.28.39.83.83,0,0,0-.54.24.79.79,0,0,0,.28.18H106Z" transform="translate(-59.66 -125.99)"/><path class="cls-5" d="M94.14,164.55h-.45v.88a1.1,1.1,0,0,1-.22-.09v.38l.14.16.07,0V166a2,2,0,0,1,.33.77h.12v-.39c.21,0,.6.11.6.45s-.57.3-.57.3a.76.76,0,0,0,1.5,0c.1-.86-1.12-1-1.53-1v-.27c1.17,0,1.64.56,2.42.56a2.57,2.57,0,0,0,1.51-.72,2.57,2.57,0,0,0-1.51-.72c-.78,0-1.25.56-2.42.56v-.27c.41,0,1.64-.17,1.53-1a.76.76,0,0,0-1.5,0s.57-.16.57.3-.39.43-.6.45v-.39Z" transform="translate(-59.66 -125.99)"/><path class="cls-5" d="M140.17,171.28a.69.69,0,0,0,.31-.68.77.77,0,0,0-.16-.4l-.15,0Z" transform="translate(-59.66 -125.99)"/><path class="cls-5" d="M104.8,172.39a3.19,3.19,0,0,0-.43.59v1.15l1.09.23a1.75,1.75,0,0,0,.06-.45A2.57,2.57,0,0,0,104.8,172.39Z" transform="translate(-59.66 -125.99)"/><path class="cls-5" d="M111.42,173.73a.87.87,0,0,1,.41-.54.55.55,0,0,0-.39-.28.83.83,0,0,0-.24-.54.83.83,0,0,0-.23.54.55.55,0,0,0-.39.28.88.88,0,0,1,.41.56h-.89v.45h.4c0,.21-.11.6-.45.6s-.3-.57-.3-.57a.76.76,0,0,0-.66.79,1.11,1.11,0,0,1,.78.71c.75,0,.88-1.14.9-1.54H111a1.06,1.06,0,0,1,.43-.47Z" transform="translate(-59.66 -125.99)"/><path class="cls-5" d="M124.63,170.92a.85.85,0,0,1-.37-.45,5.59,5.59,0,0,1,.07.71A.57.57,0,0,0,124.63,170.92Z" transform="translate(-59.66 -125.99)"/><path class="cls-5" d="M125.82,169.73a2.15,2.15,0,0,1-.14-.75,2.26,2.26,0,0,1,.06-.51.83.83,0,0,0-.29-.09c-.86-.1-1,1.12-1,1.53h-.27c0-1.17.56-1.64.56-2.42A2.57,2.57,0,0,0,124,166a2.57,2.57,0,0,0-.72,1.51,3.64,3.64,0,0,0,.35,1.25,5.05,5.05,0,0,1,.6,1.61h.87v-.45h-.4c0-.21.11-.6.45-.6s.3.57.3.57A.72.72,0,0,0,125.82,169.73Z" transform="translate(-59.66 -125.99)"/><path class="cls-5" d="M110.47,172a1.12,1.12,0,0,1-1.31,0l-.18-.13a7.89,7.89,0,0,1-2-.52l-.9.65a1.11,1.11,0,0,1-.66.21h-.09a2.29,2.29,0,0,0,1.3.54c.78,0,1.25-.56,2.42-.56v.27c-.41,0-1.64.17-1.53,1a.76.76,0,0,0,1.5,0s-.57.16-.57-.3.39-.43.6-.45v.39h.45v-.88a.88.88,0,0,1,.56.41.55.55,0,0,0,.28-.39.83.83,0,0,0,.54-.24.79.79,0,0,0-.26-.17A1.11,1.11,0,0,1,110.47,172Z" transform="translate(-59.66 -125.99)"/><path class="cls-5" d="M111.52,159.26l.06,0,.08-.16A.76.76,0,0,0,111.52,159.26Z" transform="translate(-59.66 -125.99)"/><path class="cls-5" d="M110.87,164.91v-2.45a4.27,4.27,0,0,0-.39,1.36A2.07,2.07,0,0,0,110.87,164.91Z" transform="translate(-59.66 -125.99)"/><path class="cls-5" d="M132.25,163.31a.8.8,0,0,0,.27-.61h-.27Z" transform="translate(-59.66 -125.99)"/><path class="cls-5" d="M161.28,172.69a.55.55,0,0,0,.28-.39.32.32,0,1,0,0-.47.55.55,0,0,0-.28-.39.87.87,0,0,1-.56.41V171h-.45v.39c-.21,0-.6-.11-.6-.45s.57-.3.57-.3a.78.78,0,0,0-1.25-.49l.61,1.42a3.53,3.53,0,0,0,.67.1v.27a3.31,3.31,0,0,1-.53,0l.16.38.36,0v.27l-.25,0,.12.27.13,0v.32l0,.09h.41v-.88A.88.88,0,0,1,161.28,172.69Z" transform="translate(-59.66 -125.99)"/><path class="cls-5" d="M93.83,158.54a1.48,1.48,0,0,0-.36,0v1.34a1.48,1.48,0,0,0,.36,0c.78,0,1.25-.56,2.42-.56v.27c-.41,0-1.64.17-1.53,1a.76.76,0,0,0,1.5,0s-.57.16-.57-.3.39-.43.6-.45v.39h.45v-.88a.88.88,0,0,1,.56.41.55.55,0,0,0,.28-.39.32.32,0,1,0,0-.47.55.55,0,0,0-.28-.39.88.88,0,0,1-.56.41v-.88h-.45v.39c-.21,0-.6-.11-.6-.45s.57-.3.57-.3a.76.76,0,0,0-1.5,0c-.1.86,1.12,1,1.53,1v.27C95.09,159.1,94.62,158.54,93.83,158.54Z" transform="translate(-59.66 -125.99)"/><path class="cls-5" d="M74.37,165l-.19,0a7.48,7.48,0,0,1,.15,1.33h0l0,0Z" transform="translate(-59.66 -125.99)"/><path class="cls-5" d="M84.44,156.51c.26,0,.38.25.42.45l.3.13c0-.43-.18-1.62-1-1.52a.73.73,0,0,0-.59,1.05,4.87,4.87,0,0,1,.59.1A.28.28,0,0,1,84.44,156.51Z" transform="translate(-59.66 -125.99)"/><path class="cls-5" d="M127.5,155a6.16,6.16,0,0,1-.78-.71s0,0,0,0A.71.71,0,0,0,127.5,155Z" transform="translate(-59.66 -125.99)"/><path class="cls-5" d="M163.87,175.73a.76.76,0,0,0,0-1.5s.16.57-.3.57-.43-.39-.45-.6h.41v-.45h-.89a.88.88,0,0,1,.41-.56.55.55,0,0,0-.39-.28.32.32,0,1,0-.47,0,.55.55,0,0,0-.39.28.88.88,0,0,1,.41.56h-.89v.45h.4c0,.21-.11.6-.45.6s-.3-.57-.3-.57l-.17,0,.37.85a1.11,1.11,0,0,1,.08.59c.62-.16.73-1.15.75-1.52h.27c0,1.17-.56,1.64-.56,2.42a2.57,2.57,0,0,0,.72,1.51,2.57,2.57,0,0,0,.72-1.51c0-.78-.56-1.25-.56-2.42h.27C162.86,174.62,163,175.84,163.87,175.73Z" transform="translate(-59.66 -125.99)"/><path class="cls-5" d="M74.24,175.73l.16,0a1.11,1.11,0,0,1,0-.3v-1.14l-.12,0s.16.57-.3.57-.43-.39-.45-.6h.41v-.45H73a.88.88,0,0,1,.41-.56.55.55,0,0,0-.39-.28.83.83,0,0,0-.24-.54.83.83,0,0,0-.23.54.55.55,0,0,0-.39.28.88.88,0,0,1,.41.56h-.89v.45h.4c0,.21-.11.6-.45.6s-.3-.57-.3-.57a.76.76,0,0,0,0,1.5c.86.1,1-1.12,1-1.53h.27c0,1.17-.56,1.64-.56,2.42a2.57,2.57,0,0,0,.72,1.51,2.57,2.57,0,0,0,.72-1.51c0-.78-.56-1.25-.56-2.42h.27C73.24,174.62,73.38,175.84,74.24,175.73Z" transform="translate(-59.66 -125.99)"/><path class="cls-5" d="M71.94,172.29a.83.83,0,0,0,.54-.24.81.81,0,0,0-.35-.2,7.58,7.58,0,0,1-.67.6.71.71,0,0,1,.2.23A.55.55,0,0,0,71.94,172.29Z" transform="translate(-59.66 -125.99)"/><path class="cls-5" d="M104.8,159.58a3.19,3.19,0,0,0-.43.59v2a3.52,3.52,0,0,1,.28,1.34h-.27V164h.22a1,1,0,0,1-.22.4v.36a.47.47,0,0,0,.2.07.83.83,0,0,0,.24.54.83.83,0,0,0,.23-.54.55.55,0,0,0,.39-.28A.88.88,0,0,1,105,164h.89v-.45h-.4c0-.21.11-.6.45-.6s.3.57.3.57a.76.76,0,0,0,0-1.5c-.86-.1-1,1.12-1,1.53H105c0-1.17.56-1.64.56-2.42A2.57,2.57,0,0,0,104.8,159.58Z" transform="translate(-59.66 -125.99)"/><path class="cls-5" d="M110.07,149.2a6.12,6.12,0,0,1,.06.86h0c.51-.25.61-1.13.63-1.47H111c0,1.17-.56,1.64-.56,2.42a2.57,2.57,0,0,0,.72,1.51,3,3,0,0,0,.27-.34v-2.73a3.25,3.25,0,0,1-.12-.86h.12v-.45h-.06a1.15,1.15,0,0,1,.06-.16v-.68h0a.83.83,0,0,0-.24-.54.83.83,0,0,0-.23.54.55.55,0,0,0-.39.28.87.87,0,0,1,.41.56h-.89v.45h.4C110.47,148.8,110.38,149.17,110.07,149.2Z" transform="translate(-59.66 -125.99)"/><path class="cls-5" d="M104.36,159.16v.19l.11-.09Z" transform="translate(-59.66 -125.99)"/><path class="cls-5" d="M109.74,162.93c.86.1,1-1.12,1-1.53h.14c0-.15,0-.3.07-.45h-.88v.45h.4c0,.21-.11.6-.45.6s-.3-.57-.3-.57A.76.76,0,0,0,109.74,162.93Z" transform="translate(-59.66 -125.99)"/><path class="cls-5" d="M110.57,158.12a.55.55,0,0,0,.39.28.83.83,0,0,0,.24.54.83.83,0,0,0,.23-.54.55.55,0,0,0,.39-.28.87.87,0,0,1-.41-.56h.89v-.45h-.4c0-.21.11-.6.45-.6s.3.57.3.57a.77.77,0,0,0,.64-1,3.48,3.48,0,0,1-.75-.55c-.76,0-.89,1.14-.91,1.54h-.27c0-1.13.53-1.61.56-2.35a3.45,3.45,0,0,1-.4-1.19,3.11,3.11,0,0,0-.31-.39,2.57,2.57,0,0,0-.72,1.51c0,.78.56,1.25.56,2.42h-.27c0-.41-.17-1.64-1-1.53a.76.76,0,0,0,0,1.5s-.16-.57.3-.57.43.39.45.6h-.41v.45H111A.88.88,0,0,1,110.57,158.12Z" transform="translate(-59.66 -125.99)"/><path class="cls-5" d="M124.63,147.59a.55.55,0,0,0-.39-.28.32.32,0,1,0-.47,0h0V148a1.16,1.16,0,0,1,.06.15h-.06v.45h.12a3.25,3.25,0,0,1-.12.86v2.74a3,3,0,0,0,.27.33,2.57,2.57,0,0,0,.72-1.51c0-.78-.56-1.25-.56-2.42h.27c0,.34.12,1.23.64,1.47h0a6.12,6.12,0,0,1,.06-.86c-.31,0-.4-.39-.42-.6h.41v-.45h-.89A.88.88,0,0,1,124.63,147.59Z" transform="translate(-59.66 -125.99)"/><path class="cls-5" d="M124.63,173.19a.57.57,0,0,0-.29-.26v.55A.76.76,0,0,1,124.63,173.19Z" transform="translate(-59.66 -125.99)"/><path class="cls-5" d="M122.66,155.58a3.49,3.49,0,0,1-.75.55.77.77,0,0,0,.64,1s-.16-.57.3-.57.43.39.45.6h-.41v.45h.34a1.11,1.11,0,0,1,.32-.65C123.5,156.43,123.31,155.59,122.66,155.58Z" transform="translate(-59.66 -125.99)"/><path class="cls-5" d="M117.79,175.83c.12-.83.52-1.27.52-1.93a1.56,1.56,0,0,0-.08-.49,1.87,1.87,0,0,1-1.26,0,1.56,1.56,0,0,0-.08.49c0,.66.4,1.1.52,1.93h.39Z" transform="translate(-59.66 -125.99)"/><path class="cls-5" d="M112.33,172.69a.87.87,0,0,1,.56-.41v.88h.45v-.39c.21,0,.6.11.6.45s-.57.3-.57.3a.74.74,0,0,0,.06.21l1.34.1a.82.82,0,0,0,.1-.31c.1-.86-1.12-1-1.53-1v-.27l.43,0a4.91,4.91,0,0,1-.88-.63v.23a.88.88,0,0,1-.56-.41.55.55,0,0,0-.28.39.32.32,0,1,0,0,.47A.55.55,0,0,0,112.33,172.69Z" transform="translate(-59.66 -125.99)"/><path class="cls-5" d="M153.26,163.57V164l.54,0A.74.74,0,0,0,153.26,163.57Z" transform="translate(-59.66 -125.99)"/><path class="cls-5" d="M126.27,170.45l0,0a.75.75,0,0,0-.05.2l.09,0Z" transform="translate(-59.66 -125.99)"/><path class="cls-5" d="M104.36,165.75l.12-.09-.12-.09Z" transform="translate(-59.66 -125.99)"/><path class="cls-5" d="M124,153.18a3.1,3.1,0,0,0-.31.39,3.44,3.44,0,0,1-.4,1.19c0,.65.43,1.1.53,2a1.1,1.1,0,0,1,.38-.12c.13-.82.52-1.26.52-1.92A2.57,2.57,0,0,0,124,153.18Z" transform="translate(-59.66 -125.99)"/><path class="cls-5" d="M141.68,163.47v-.76h-.59A.76.76,0,0,0,141.68,163.47Z" transform="translate(-59.66 -125.99)"/><path class="cls-5" d="M141,164.2a.76.76,0,0,0-.86-.65v.91l.3,0C140.53,164.07,141,164.2,141,164.2Z" transform="translate(-59.66 -125.99)"/><path class="cls-5" d="M154.55,163.48s-.16-.57.3-.57v-.2h-1A.76.76,0,0,0,154.55,163.48Z" transform="translate(-59.66 -125.99)"/><path class="cls-5" d="M118.37,175.82v-.72a1.91,1.91,0,0,0-.28.73Z" transform="translate(-59.66 -125.99)"/><path class="cls-5" d="M108.5,171.55l-.89-.64-.05,0A1.23,1.23,0,0,0,108.5,171.55Z" transform="translate(-59.66 -125.99)"/><path class="cls-5" d="M98.39,172.38a.82.82,0,0,0-.22.44l.22.07Z" transform="translate(-59.66 -125.99)"/><path class="cls-5" d="M116.83,175.1v.72h.28A1.92,1.92,0,0,0,116.83,175.1Z" transform="translate(-59.66 -125.99)"/><path class="cls-5" d="M111,171.2a.83.83,0,0,0,.24.54.83.83,0,0,0,.23-.54.55.55,0,0,0,.39-.28.87.87,0,0,1-.41-.56h.4c-.1-.15-.18-.3-.26-.45h-.2a3.38,3.38,0,0,1,0-.36,5.67,5.67,0,0,1-.37-1.11l-.23.16a3.47,3.47,0,0,1,.26,1.3h-.27a2.8,2.8,0,0,0-.27-1.1l-.22.16.45,1.39H111a1.06,1.06,0,0,1-.15.31l0,.11a1.11,1.11,0,0,1,0,.41Z" transform="translate(-59.66 -125.99)"/><path class="cls-5" d="M104.36,169.85v.93l.58-1.8-.07,0A1.93,1.93,0,0,1,104.36,169.85Z" transform="translate(-59.66 -125.99)"/><path class="cls-5" d="M104.36,172v.19l.11-.09Z" transform="translate(-59.66 -125.99)"/><path class="cls-5" d="M125.46,162.93a.74.74,0,0,0,.47-.23h-1.08A.68.68,0,0,0,125.46,162.93Z" transform="translate(-59.66 -125.99)"/><path class="cls-5" d="M122.16,164.94c-.78,0-1.25.56-2.42.56v-.27a2.62,2.62,0,0,0,1.19-.32h-1l-.23,0v0h-.26l-.19,0v.56a.88.88,0,0,1-.56-.41.55.55,0,0,0-.28.39.84.84,0,0,0-.5.21,2,2,0,0,1,.94.46,1,1,0,0,1,.4-.22v.37h.27a4.27,4.27,0,0,1,1.48.26,2.35,2.35,0,0,0-1.3-.41v-.27c1.17,0,1.64.56,2.42.56a2.57,2.57,0,0,0,1.51-.72A2.57,2.57,0,0,0,122.16,164.94Z" transform="translate(-59.66 -125.99)"/><path class="cls-5" d="M124.72,163.82a3,3,0,0,0-.3-1.11h-.09v1.08a1.11,1.11,0,0,1-.71,1,3.18,3.18,0,0,0,.38.5A2.57,2.57,0,0,0,124.72,163.82Z" transform="translate(-59.66 -125.99)"/><path class="cls-5" d="M158.15,153.95v-.24l-.45-.14v.38h.45Z" transform="translate(-59.66 -125.99)"/><path class="cls-5" d="M116.83,165.75a1.94,1.94,0,0,1,.42-.13.83.83,0,0,0-.42-.2Z" transform="translate(-59.66 -125.99)"/><path class="cls-5" d="M126.27,166.32V165a1.74,1.74,0,0,0-.43-.06,2.57,2.57,0,0,0-1.51.72,2.57,2.57,0,0,0,1.51.72A1.74,1.74,0,0,0,126.27,166.32Z" transform="translate(-59.66 -125.99)"/><path class="cls-5" d="M118.37,163.79v-.28h-.07a1.24,1.24,0,0,1,.07-.29v-.52h-.2a3.33,3.33,0,0,0-.14.81h-.27a3.25,3.25,0,0,1,.1-.81h-.52a3.25,3.25,0,0,1,.1.81h-.27a3.33,3.33,0,0,0-.14-.81h-.2v.52a1.23,1.23,0,0,1,.07.29h-.07V164h.55a.88.88,0,0,1-.41.56.55.55,0,0,0,.39.28.83.83,0,0,0,.24.54.83.83,0,0,0,.23-.54.55.55,0,0,0,.39-.28.88.88,0,0,1-.41-.56h.57A1.11,1.11,0,0,1,118.37,163.79Z" transform="translate(-59.66 -125.99)"/><path class="cls-5" d="M91.79,179.12l.42.07a.81.81,0,0,0-.22-.41A.8.8,0,0,0,91.79,179.12Z" transform="translate(-59.66 -125.99)"/><path class="cls-5" d="M90.86,177.83a.88.88,0,0,1-.56.41v-.88h-.45v.39c-.21,0-.6-.11-.6-.45a.34.34,0,0,1,0-.18l-.82-.12-.15,0v0c-.1.86,1.12,1,1.53,1v.27c-1.17,0-1.64-.56-2.42-.56a2.57,2.57,0,0,0-1.51.72l.11.1c1,0,2,.09,2.93.19a3.25,3.25,0,0,1,.89-.12v.22l.45.06v-.22a1,1,0,0,1,.47.29l.21,0a.5.5,0,0,0,.15-.3.32.32,0,1,0,0-.47A.55.55,0,0,0,90.86,177.83Z" transform="translate(-59.66 -125.99)"/><path class="cls-5" d="M96.55,179.18a2.15,2.15,0,0,0,1.18-.44h-.06c-.88-.21-1.74-.39-2.57-.57a3.26,3.26,0,0,1-1,.15V178l.24,0-.69-.14v.37a.88.88,0,0,1-.56-.41.55.55,0,0,0-.28.39.32.32,0,1,0,0,.47.55.55,0,0,0,.28.39.88.88,0,0,1,.56-.41v.78l.45.09v-.39c.21,0,.6.11.6.45a.37.37,0,0,1,0,.06l.94.2c.06-.82-1.13-1-1.53-1v-.27C95.3,178.62,95.77,179.18,96.55,179.18Z" transform="translate(-59.66 -125.99)"/><path class="cls-5" d="M82.11,177.9c.42-.13.82-.39.76-.89v-.07a1.07,1.07,0,0,1-.82-.58.8.8,0,0,0-.46.22,1.84,1.84,0,0,1,.53,1.32Z" transform="translate(-59.66 -125.99)"/><path class="cls-5" d="M82.11,178.21v.5h0a29.67,29.67,0,0,1,3-.17l.09-.09a2.57,2.57,0,0,0-1.51-.72A7.24,7.24,0,0,0,82.11,178.21Z" transform="translate(-59.66 -125.99)"/><path class="cls-5" d="M85.17,176.85H84.9a2.8,2.8,0,0,0,.69,1.28,2.82,2.82,0,0,0,.69-1.26Z" transform="translate(-59.66 -125.99)"/><path class="cls-5" d="M91.48,177.47a.49.49,0,0,0,.28.14.83.83,0,0,0,.24.54.83.83,0,0,0,.23-.54h0Z" transform="translate(-59.66 -125.99)"/><path class="cls-5" d="M97.68,180.3s0,0,0,0l1.38.35a1.72,1.72,0,0,0,0-.39,2.57,2.57,0,0,0-.72-1.51A2.57,2.57,0,0,0,97.68,180.3Z" transform="translate(-59.66 -125.99)"/><path class="cls-5" d="M112.89,183.77v.05l.45.06v-.11h-.45Z" transform="translate(-59.66 -125.99)"/><path class="cls-5" d="M112.65,181.19c-.86-.1-1,1.12-1,1.53h-.27c0-1.17.56-1.64.56-2.42a1.51,1.51,0,0,0-.06-.41,6.4,6.4,0,0,1-.48-.9c-.1-.13-.17-.2-.17-.2a2.57,2.57,0,0,0-.72,1.51c0,.78.56,1.25.56,2.42h-.27c0-.41-.17-1.64-1-1.53a.76.76,0,0,0,0,1.5s-.16-.57.3-.57.43.39.45.6h-.41v.45H111a1.05,1.05,0,0,1-.16.33l.88.15a1,1,0,0,1-.29-.48h.89v-.45h-.4c0-.21.11-.6.45-.6s.3.57.3.57A.76.76,0,0,0,112.65,181.19Z" transform="translate(-59.66 -125.99)"/><path class="cls-5" d="M106.27,180.89a.3.3,0,0,1-.32.32c-.29,0-.39-.29-.43-.5l-.29-.07c0,.44.18,1.6,1,1.5a.74.74,0,0,0,.56-1.12Z" transform="translate(-59.66 -125.99)"/><path class="cls-5" d="M102.43,179.94a.45.45,0,0,1-.25-.06l-1-.26a.73.73,0,0,0,0,.3.75.75,0,0,0,1.48.07Z" transform="translate(-59.66 -125.99)"/><path class="cls-5" d="M105.1,180.6l-1.41-.35v.35h.4c0,.21-.11.6-.45.6s-.3-.57-.3-.57a.77.77,0,0,0-.63,1l1.2.31a2.24,2.24,0,0,0,.45-1.34h.27a3.67,3.67,0,0,1-.32,1.45l1,.26a4.38,4.38,0,0,1-.42-1.71Z" transform="translate(-59.66 -125.99)"/><path class="cls-5" d="M107.81,182.89l1.13.24A.79.79,0,0,0,107.81,182.89Z" transform="translate(-59.66 -125.99)"/><path class="cls-5" d="M71.09,173.16v-.43l-.45.29v.14h.45Z" transform="translate(-59.66 -125.99)"/><path class="cls-5" d="M71.38,156.5a1.47,1.47,0,0,0,.77-.35.85.85,0,0,0-.57-.55,2.81,2.81,0,0,1-.61.81.55.55,0,0,0,.33.11Z" transform="translate(-59.66 -125.99)"/><path class="cls-5" d="M70.61,173.51s-.45.12-.55-.18a7.67,7.67,0,0,1-.76.33c0,.1,0,.2,0,.29A.77.77,0,0,0,70.61,173.51Z" transform="translate(-59.66 -125.99)"/><path class="cls-5" d="M72.67,155a1.52,1.52,0,0,0-.42-1,1.73,1.73,0,0,0-.18.72,3.32,3.32,0,0,0,.32,1.18A1.48,1.48,0,0,0,72.67,155Z" transform="translate(-59.66 -125.99)"/><path class="cls-5" d="M70.06,177a.7.7,0,0,0-.7-.66,9.51,9.51,0,0,0,.16,1.47A.77.77,0,0,0,70.06,177Z" transform="translate(-59.66 -125.99)"/><path class="cls-5" d="M72.16,160.39a.87.87,0,0,1,.41.56h-.65c.15.14.29.29.43.45h.27c0,.11,0,.21,0,.3a7.79,7.79,0,0,1,.47.64,3.26,3.26,0,0,1-.14-.94h.27c0,.41.17,1.64,1,1.53l.12,0v-1.45l-.12,0s.16.57-.3.57-.43-.39-.45-.6h.41v-.45H73a.88.88,0,0,1,.41-.56.55.55,0,0,0-.39-.28.83.83,0,0,0-.24-.54.83.83,0,0,0-.23.54A.55.55,0,0,0,72.16,160.39Z" transform="translate(-59.66 -125.99)"/><path class="cls-5" d="M69.59,178.13a2.28,2.28,0,0,0,.38.81,2,2,0,0,0,2.49-.47,2.57,2.57,0,0,0-1.51-.72A4.26,4.26,0,0,0,69.59,178.13Z" transform="translate(-59.66 -125.99)"/><path class="cls-5" d="M76.06,176.37l-.14.06-.05,0a.71.71,0,0,0-.35.56.68.68,0,0,0,.1.47l.85-.32c.09-.21.37-.18.49-.16l0,0A.77.77,0,0,0,76.06,176.37Z" transform="translate(-59.66 -125.99)"/><path class="cls-5" d="M79.53,175.25h0l-.6.15a3.26,3.26,0,0,1,.13.92h-.27a3.28,3.28,0,0,0-.15-.84c-.51.14-1,.27-1.42.44a.72.72,0,0,0,.55.36s-.16-.57.3-.57.43.39.45.6h-.41v.34q.68-.19,1.38-.34h-.11A3.3,3.3,0,0,1,79.53,175.25Z" transform="translate(-59.66 -125.99)"/><path class="cls-5" d="M72.76,178.82l0,0h0Z" transform="translate(-59.66 -125.99)"/><path class="cls-5" d="M80.65,174.78c-.84-.1-1,1.06-1,1.5l.28-.06c0-.22.14-.51.44-.51s.34.26.32.43l.26,0A.76.76,0,0,0,80.65,174.78Z" transform="translate(-59.66 -125.99)"/><path class="cls-5" d="M73.12,178.46l.11.1q.83-.43,1.67-.79l-.28,0A2.57,2.57,0,0,0,73.12,178.46Z" transform="translate(-59.66 -125.99)"/><path class="cls-5" d="M150,176.85l-1.1,0a2.82,2.82,0,0,0,.69,1.26,2.8,2.8,0,0,0,.7-1.28Z" transform="translate(-59.66 -125.99)"/><path class="cls-5" d="M154.83,174.8a.74.74,0,0,0-.27,0,.76.76,0,0,0-.28,1.41l.26,0c0-.17,0-.43.32-.43s.4.3.44.51l.28.06a2.57,2.57,0,0,0-.32-1.16A1.11,1.11,0,0,1,154.83,174.8Z" transform="translate(-59.66 -125.99)"/><path class="cls-5" d="M152.9,176.65a1.11,1.11,0,0,1-.56.28V177c-.06.5.34.76.76.89h0a1.87,1.87,0,0,1,.36-1.13,1.64,1.64,0,0,1,.18-.2.81.81,0,0,0-.49-.22A1.11,1.11,0,0,1,152.9,176.65Z" transform="translate(-59.66 -125.99)"/><path class="cls-5" d="M156.59,175.48a3.29,3.29,0,0,0-.15.83h-.27a3.26,3.26,0,0,1,.13-.91l-.62-.15a3.3,3.3,0,0,1,.18,1.07h-.11q.7.15,1.37.34v-.34h-.4c0-.21.11-.6.45-.6s.3.57.3.57a.72.72,0,0,0,.54-.35C157.52,175.76,157.06,175.61,156.59,175.48Z" transform="translate(-59.66 -125.99)"/><path class="cls-5" d="M73.92,159.88a.88.88,0,0,1,.56-.41v.88h0A4.64,4.64,0,0,1,75,159.1h-.07v-.27l.25,0a5.2,5.2,0,0,1,1.21-1.26.75.75,0,0,0-1.07-.29,4.74,4.74,0,0,1-.34.51v0s.57-.16.57.3-.39.43-.6.45v-.39h-.29l0,.05-.11.1V159a1,1,0,0,1-.5-.32l-.31.2a.47.47,0,0,0,0,.1.81.81,0,0,0-.24.05l-.13.06a.77.77,0,0,0-.16.12.83.83,0,0,0,.54.23A.55.55,0,0,0,73.92,159.88Z" transform="translate(-59.66 -125.99)"/><path class="cls-5" d="M159.36,176.46l-.22-.09a.77.77,0,0,0-.95.61l0,0c.12,0,.4,0,.49.16l.85.32a.68.68,0,0,0,.1-.47A.72.72,0,0,0,159.36,176.46Z" transform="translate(-59.66 -125.99)"/><path class="cls-5" d="M149.94,178.46l.1.09a29.7,29.7,0,0,1,3,.17h0v-.5a7.26,7.26,0,0,0-1.64-.47A2.57,2.57,0,0,0,149.94,178.46Z" transform="translate(-59.66 -125.99)"/><path class="cls-5" d="M160.29,177.77q.84.36,1.67.79l.11-.1a2.57,2.57,0,0,0-1.51-.72Z" transform="translate(-59.66 -125.99)"/><path class="cls-5" d="M165.13,177a.77.77,0,0,0,.55.82,9.5,9.5,0,0,0,.16-1.47A.7.7,0,0,0,165.13,177Z" transform="translate(-59.66 -125.99)"/><path class="cls-5" d="M165.14,173.33c-.1.3-.55.18-.55.18a.77.77,0,0,0,1.3.44c0-.1,0-.19,0-.29A7.67,7.67,0,0,1,165.14,173.33Z" transform="translate(-59.66 -125.99)"/><path class="cls-5" d="M162.74,178.46a2,2,0,0,0,2.49.47,2.28,2.28,0,0,0,.38-.8,4.27,4.27,0,0,0-1.36-.39A2.57,2.57,0,0,0,162.74,178.46Z" transform="translate(-59.66 -125.99)"/><path class="cls-5" d="M145.35,178.3V178c.41,0,1.64-.17,1.53-1v0l-.22,0-.76.08a.32.32,0,0,1,.07.21c0,.33-.39.43-.6.45v-.39h-.45v.88a.88.88,0,0,1-.56-.41.55.55,0,0,0-.28.39.32.32,0,1,0,0,.47.5.5,0,0,0,.15.3l.21,0a1,1,0,0,1,.47-.29v.22l.45-.06v-.22a3.25,3.25,0,0,1,.89.12c1-.1,2-.16,2.93-.19l.11-.09a2.57,2.57,0,0,0-1.51-.72C147,177.74,146.51,178.3,145.35,178.3Z" transform="translate(-59.66 -125.99)"/><path class="cls-5" d="M162.4,178.8l0,0,0,0Z" transform="translate(-59.66 -125.99)"/><path class="cls-5" d="M125.46,181.19c-.86-.1-1,1.12-1,1.53h-.27c0-1.17.56-1.64.56-2.42a2.57,2.57,0,0,0-.72-1.51l-.15.17a6.32,6.32,0,0,1-.52,1,1.48,1.48,0,0,0,0,.36c0,.78.56,1.25.56,2.42h-.27c0-.41-.17-1.64-1-1.53a.76.76,0,0,0,0,1.5s-.16-.57.3-.57.43.39.45.6h-.41v.45h.89a1,1,0,0,1-.29.48l.88-.15a1.05,1.05,0,0,1-.16-.33h.89v-.45h-.4c0-.21.11-.6.45-.6s.3.57.3.57A.76.76,0,0,0,125.46,181.19Z" transform="translate(-59.66 -125.99)"/><path class="cls-5" d="M121.86,183.77v.11l.45-.06v-.05h-.45Z" transform="translate(-59.66 -125.99)"/><path class="cls-5" d="M113.37,183.41s.57-.16.57.3a.34.34,0,0,1-.08.23l.79.08a.68.68,0,0,0,.22-.61A.76.76,0,0,0,113.37,183.41Z" transform="translate(-59.66 -125.99)"/><path class="cls-5" d="M126.27,183.13l1.13-.24A.79.79,0,0,0,126.27,183.13Z" transform="translate(-59.66 -125.99)"/><path class="cls-5" d="M117.66,182.48H117a1.84,1.84,0,0,0-.09.55,2.11,2.11,0,0,0,.41,1.13h.61a2.11,2.11,0,0,0,.41-1.13,1.84,1.84,0,0,0-.09-.54Z" transform="translate(-59.66 -125.99)"/><path class="cls-5" d="M120.32,183.41a.68.68,0,0,0,.22.61l.79-.08a.34.34,0,0,1-.08-.23c0-.46.57-.3.57-.3A.76.76,0,0,0,120.32,183.41Z" transform="translate(-59.66 -125.99)"/><path class="cls-5" d="M129.67,180.74c0,.21-.16.46-.43.46a.3.3,0,0,1-.32-.29l-.55.13a.73.73,0,0,0,.57,1.09c.82.1,1-1,1-1.46Z" transform="translate(-59.66 -125.99)"/><path class="cls-5" d="M136.67,178.94a2.35,2.35,0,0,0-.58,1.36,1.72,1.72,0,0,0,0,.39l1.38-.35s0,0,0,0a2.42,2.42,0,0,0-.63-1.42Z" transform="translate(-59.66 -125.99)"/><path class="cls-5" d="M142.07,177.83a.87.87,0,0,1-.56.41v-.88h-.45v.39c-.21,0-.61-.11-.61-.45s.57-.3.57-.3a.76.76,0,0,0-.86-.65v.86a1.11,1.11,0,0,1-.16.57,2.9,2.9,0,0,0,1.05.24v.27a3.44,3.44,0,0,1-1.28-.25,1.11,1.11,0,0,1-.48.25l-1.83.44a2.15,2.15,0,0,0,1.17.44c.78,0,1.25-.56,2.42-.56v.27c-.41,0-1.6.16-1.53,1l.94-.2a.36.36,0,0,1,0-.06c0-.33.39-.43.61-.45v.39l.45-.09v-.78a.88.88,0,0,1,.56.41.55.55,0,0,0,.28-.39.32.32,0,1,0,0-.47A.55.55,0,0,0,142.07,177.83Z" transform="translate(-59.66 -125.99)"/><path class="cls-5" d="M131.86,180.64s.16.57-.3.57-.43-.39-.45-.6h.41v-.33l-.11,0-1.16.29a4.38,4.38,0,0,1-.42,1.71l1-.26a3.67,3.67,0,0,1-.32-1.45h.27a2.24,2.24,0,0,0,.45,1.34l1.2-.31A.77.77,0,0,0,131.86,180.64Z" transform="translate(-59.66 -125.99)"/><path class="cls-5" d="M143,179.19l.42-.07a.8.8,0,0,0-.2-.34A.82.82,0,0,0,143,179.19Z" transform="translate(-59.66 -125.99)"/><path class="cls-5" d="M132.54,178.89v-.27c1.14,0,1.61.53,2.36.56a1.1,1.1,0,0,1-.71-1v-.23a4.18,4.18,0,0,1-1.65.4V178c.41,0,1.64-.17,1.53-1a.76.76,0,0,0-1.5,0s.57-.16.57.3-.39.43-.6.45v-.39h-.3v1.88a1.11,1.11,0,0,1-.05.34h.35v-.39c.21,0,.6.11.6.45s-.57.3-.57.3a.76.76,0,0,0,1.5,0C134.18,179.06,133,178.91,132.54,178.89Z" transform="translate(-59.66 -125.99)"/><path class="cls-5" d="M143.79,177.39l-.79.14-.2,0a.47.47,0,0,0,.17.06.32.32,0,1,0,.47,0A.52.52,0,0,0,143.79,177.39Z" transform="translate(-59.66 -125.99)"/><path class="cls-5" d="M135,157a.73.73,0,0,0,.31.11s-.16-.57.3-.57.43.39.45.6h-.41v.45h.56a4.78,4.78,0,0,1,.71-.45c0-1.14.54-1.62.56-2.37a2.38,2.38,0,0,1-1.31.42h-.06a5.85,5.85,0,0,1,.5,2h-.27c0-.41-.17-1.64-1-1.53a.75.75,0,0,0-.49,1.22A1.11,1.11,0,0,1,135,157Z" transform="translate(-59.66 -125.99)"/><path class="cls-5" d="M126.14,145.34h-.45v.88a.88.88,0,0,1-.56-.41.55.55,0,0,0-.28.39.32.32,0,1,0,0,.47.55.55,0,0,0,.28.39.87.87,0,0,1,.56-.41v.68a6.2,6.2,0,0,1,.66-1.06h-.21V146a3.75,3.75,0,0,0,.49-.06,6.13,6.13,0,0,1,1-.94s0,0,0,0a.76.76,0,0,0-1.5,0s.57-.16.57.3-.39.43-.6.45v-.39Z" transform="translate(-59.66 -125.99)"/><path class="cls-5" d="M130.59,147.55a2.75,2.75,0,0,0-.87.46,1.45,1.45,0,0,0,0,.28l.68-.56Z" transform="translate(-59.66 -125.99)"/><path class="cls-5" d="M128.95,156.53a.75.75,0,0,0,.79-.5,6,6,0,0,1-1.39-.53A.73.73,0,0,0,128.95,156.53Z" transform="translate(-59.66 -125.99)"/><path class="cls-5" d="M128.95,150.68s-.16-.57.3-.57.43.39.45.6h-.41v.45h.89a.88.88,0,0,1-.41.56.55.55,0,0,0,.39.28.32.32,0,1,0,.47,0,.55.55,0,0,0,.39-.28.87.87,0,0,1-.41-.56h.89v-.45h-.4a1.13,1.13,0,0,1,.1-.36,2.76,2.76,0,0,1-.29-.22,3.64,3.64,0,0,0-.08.58h-.27a3.25,3.25,0,0,1,.1-.82,3.94,3.94,0,0,1-.56-.77l-.42-.74c0,.73.55,1.21.56,2.34H130c0-.41-.17-1.64-1-1.53l-.13,0a2.75,2.75,0,0,0-.17,1.37A.73.73,0,0,0,128.95,150.68Z" transform="translate(-59.66 -125.99)"/><path class="cls-5" d="M131.26,152.62a.83.83,0,0,0-.54.24.78.78,0,0,0,.19.14,2.7,2.7,0,0,0,1.82-.3h-.18v-.27a3.5,3.5,0,0,0,.69-.11,1.46,1.46,0,0,0,.3-1.55h-.45a.73.73,0,0,0-.51.61s.57-.16.57.3-.39.43-.6.45v-.39h-.45v.88a.88.88,0,0,1-.56-.41A.55.55,0,0,0,131.26,152.62Z" transform="translate(-59.66 -125.99)"/><path class="cls-5" d="M131.86,150.65v0h0Z" transform="translate(-59.66 -125.99)"/><path class="cls-5" d="M157.14,153.48l.05-.08-.23-.08A.6.6,0,0,0,157.14,153.48Z" transform="translate(-59.66 -125.99)"/><path class="cls-5" d="M125.39,140.69c-.2-.33-.4-.67-.59-1a3.14,3.14,0,0,0-.47.37A3,3,0,0,0,125.39,140.69Z" transform="translate(-59.66 -125.99)"/><path class="cls-5" d="M124.43,144.31h-.27c0-1.17.56-1.64.56-2.42a2.57,2.57,0,0,0-.72-1.51,3,3,0,0,0-.27.33v2.74a3.25,3.25,0,0,1,.11.86h-.11v.45h.06a1.16,1.16,0,0,1-.06.15v.68h0a.32.32,0,1,0,.47,0,.55.55,0,0,0,.39-.28.87.87,0,0,1-.41-.56h.89v-.45h-.4c0-.21.11-.6.45-.6s.3.57.3.57a.76.76,0,0,0,0-1.5C124.6,142.67,124.45,143.9,124.43,144.31Z" transform="translate(-59.66 -125.99)"/><path class="cls-5" d="M123.73,139.39a3,3,0,0,0,.27.33,3.2,3.2,0,0,0,.48-.66,12.59,12.59,0,0,1-.75-1.81Z" transform="translate(-59.66 -125.99)"/><path class="cls-5" d="M144.66,156.53a.73.73,0,0,0,.61-1,4,4,0,0,1-.62.05h-.19l-.1,0a.35.35,0,0,1-.14,0l-.52-.06C143.8,156,144.05,156.6,144.66,156.53Z" transform="translate(-59.66 -125.99)"/><path class="cls-5" d="M146.2,157.93a4.89,4.89,0,0,1,.72.82l.36.06v-.29c-.2-.05-.43-.16-.43-.42s.26-.34.43-.32v-.06a1.12,1.12,0,0,1,0-.23.75.75,0,0,0-1.36.24Z" transform="translate(-59.66 -125.99)"/><path class="cls-5" d="M150.32,151.07l-.52,0a3.31,3.31,0,0,0-.9.12,2.71,2.71,0,0,0,.71,1.37A2.63,2.63,0,0,0,150.32,151.07Z" transform="translate(-59.66 -125.99)"/><path class="cls-5" d="M148.2,156.62a.3.3,0,0,1,.25-.11.34.34,0,0,1,.23.09h.42c-.1-.5-.35-1.09-1-1a.75.75,0,0,0-.45,1.27A1.1,1.1,0,0,1,148.2,156.62Z" transform="translate(-59.66 -125.99)"/><path class="cls-5" d="M148.56,152.35a4,4,0,0,1-.42,1.17,2.93,2.93,0,0,0,1.14-.66A3.19,3.19,0,0,0,148.56,152.35Z" transform="translate(-59.66 -125.99)"/><path class="cls-5" d="M155.38,154a.87.87,0,0,1,.41.56h-.89V155h.4c0,.21-.11.6-.45.6s-.3-.57-.3-.57a.76.76,0,0,0,0,1.5c.86.1,1-1.12,1-1.53h.27a4,4,0,0,1-.38,1.6h.47a5,5,0,0,1,.61,0,4.15,4.15,0,0,1-.39-1.64h.27c0,.41.17,1.64,1,1.53a.76.76,0,0,0,0-1.5s.16.57-.3.57-.43-.39-.45-.6h.41v-.45h-.89a.88.88,0,0,1,.41-.56.55.55,0,0,0-.39-.28.32.32,0,1,0-.47,0A.55.55,0,0,0,155.38,154Z" transform="translate(-59.66 -125.99)"/><path class="cls-5" d="M151.45,152.14a2.57,2.57,0,0,0-1.51.72,2.57,2.57,0,0,0,1.51.72c.78,0,1.25-.56,2.42-.56v.27c-.41,0-1.64.17-1.53,1a.76.76,0,0,0,1.5,0s-.57.16-.57-.3.39-.43.61-.45V154h.45v-.88a.88.88,0,0,1,.56.41.55.55,0,0,0,.28-.39.83.83,0,0,0,.54-.24l0,0-.83-.33-.13-.05a1,1,0,0,1-.38.2v-.36l-.45-.18v0a.77.77,0,0,1-.55-.26l-1-.35c0,.73,1.15.86,1.54.88v.27C152.7,152.69,152.23,152.14,151.45,152.14Z" transform="translate(-59.66 -125.99)"/><path class="cls-5" d="M136.57,151.86a2.53,2.53,0,0,1,.56.26,2.73,2.73,0,0,0,.26-.49l-.72-.7-.12-.12a4.41,4.41,0,0,1,0,.62Q136.59,151.65,136.57,151.86Z" transform="translate(-59.66 -125.99)"/><path class="cls-5" d="M141,154.51l-.37-.23-.05,0q-.4-.26-.79-.55a.68.68,0,0,0-.22.61A.76.76,0,0,0,141,154.51Z" transform="translate(-59.66 -125.99)"/><path class="cls-5" d="M111.47,139.39v-2.14a12.59,12.59,0,0,1-.75,1.81,3.2,3.2,0,0,0,.47.66A3,3,0,0,0,111.47,139.39Z" transform="translate(-59.66 -125.99)"/><path class="cls-5" d="M138.3,153.53a1.47,1.47,0,0,0,.34,0,2.1,2.1,0,0,0,.74-.16c-.46-.37-.9-.76-1.34-1.16a2.65,2.65,0,0,0-.45.23,2.87,2.87,0,0,1,.48.63Z" transform="translate(-59.66 -125.99)"/><path class="cls-5" d="M142.84,156.6a5,5,0,0,1,.93.09,5.5,5.5,0,0,1-.38-1.22l-.37-.09a4.64,4.64,0,0,1-.35,1.22Z" transform="translate(-59.66 -125.99)"/><path class="cls-5" d="M141.75,156.53c.7.08.92-.71,1-1.23l-.29-.09c-.05.19-.17.4-.41.4-.46,0-.3-.57-.3-.57A.76.76,0,0,0,141.75,156.53Z" transform="translate(-59.66 -125.99)"/><path class="cls-5" d="M92.36,156.6l.18,0a4.73,4.73,0,0,1-.36-1.24l-.37.09a4.9,4.9,0,0,1-.34,1.13Z" transform="translate(-59.66 -125.99)"/><path class="cls-5" d="M90.54,156.53c.61.07.86-.52,1-1l-.52.06a.35.35,0,0,1-.14,0l-.1,0h-.19a4,4,0,0,1-.63-.05A.73.73,0,0,0,90.54,156.53Z" transform="translate(-59.66 -125.99)"/><path class="cls-5" d="M86,157.11h-.27c0-1.17.56-1.64.56-2.42a2.57,2.57,0,0,0-.72-1.51,2.57,2.57,0,0,0-.72,1.51c0,.78.56,1.25.56,2.42H85.2a5.06,5.06,0,0,1,.72.45h.78v-.45h-.4c0-.21.11-.6.45-.6s.3.57.3.57a.76.76,0,0,0,0-1.5C86.19,155.48,86,156.7,86,157.11Z" transform="translate(-59.66 -125.99)"/><path class="cls-5" d="M76,154.92a.77.77,0,0,0,1-.61s-.57.16-.57-.3a.36.36,0,0,1,0-.13l-.55.13a4.8,4.8,0,0,1,.07.8S76,154.88,76,154.92Z" transform="translate(-59.66 -125.99)"/><path class="cls-5" d="M96.9,153.53l.22-.4a2.87,2.87,0,0,1,.48-.63,2.64,2.64,0,0,0-.45-.23c-.43.4-.88.79-1.34,1.16a2.09,2.09,0,0,0,.74.16A1.47,1.47,0,0,0,96.9,153.53Z" transform="translate(-59.66 -125.99)"/><path class="cls-5" d="M95.67,154.31a.68.68,0,0,0-.22-.61c-.26.19-.52.38-.79.55h0l-.41.25A.76.76,0,0,0,95.67,154.31Z" transform="translate(-59.66 -125.99)"/><path class="cls-5" d="M110.4,139.69c-.19.34-.38.68-.59,1a3,3,0,0,0,1.06-.64A3.14,3.14,0,0,0,110.4,139.69Z" transform="translate(-59.66 -125.99)"/><path class="cls-5" d="M87.06,153.52a4,4,0,0,1-.42-1.17,3.18,3.18,0,0,0-.72.5A2.93,2.93,0,0,0,87.06,153.52Z" transform="translate(-59.66 -125.99)"/><path class="cls-5" d="M77.73,156.53c.86.1,1-1.12,1-1.53H79a4.13,4.13,0,0,1-.39,1.64,5,5,0,0,1,.59,0h.5a4,4,0,0,1-.38-1.6h.27c0,.41.17,1.64,1,1.53a.76.76,0,0,0,0-1.5s.16.57-.3.57-.43-.39-.45-.6h.41v-.45h-.89a.88.88,0,0,1,.41-.56.55.55,0,0,0-.39-.28.83.83,0,0,0-.24-.54.83.83,0,0,0-.23.54.55.55,0,0,0-.39.28.87.87,0,0,1,.41.56h-.89V155h.4c0,.21-.11.6-.45.6s-.3-.57-.3-.57A.76.76,0,0,0,77.73,156.53Z" transform="translate(-59.66 -125.99)"/><path class="cls-5" d="M86.3,151.15a3.31,3.31,0,0,0-.9-.12l-.52,0a2.63,2.63,0,0,0,.71,1.46A2.71,2.71,0,0,0,86.3,151.15Z" transform="translate(-59.66 -125.99)"/><path class="cls-5" d="M77.5,154v-.38l-.45.14V154h.45Z" transform="translate(-59.66 -125.99)"/><path class="cls-5" d="M78.24,153.32l-.23.08.05.08A.6.6,0,0,0,78.24,153.32Z" transform="translate(-59.66 -125.99)"/><path class="cls-5" d="M80.32,153.48a.88.88,0,0,1,.56-.41v.88h.45v-.39c.21,0,.6.11.6.45s-.57.3-.57.3a.76.76,0,0,0,1.5,0c.1-.86-1.12-1-1.53-1V153c1.17,0,1.64.56,2.42.56a2.57,2.57,0,0,0,1.51-.72,2.57,2.57,0,0,0-1.51-.72c-.78,0-1.25.56-2.42.56v-.27c.39,0,1.5-.15,1.54-.88l-1,.35a.77.77,0,0,1-.55.25v0l-.45.18v.35a1,1,0,0,1-.38-.2l-.13.05-.83.33,0,0a.83.83,0,0,0,.54.23A.55.55,0,0,0,80.32,153.48Z" transform="translate(-59.66 -125.99)"/><path class="cls-5" d="M93.45,156.53a.76.76,0,0,0,0-1.5s.16.57-.3.57c-.24,0-.35-.2-.41-.4l-.29.09C92.52,155.82,92.75,156.61,93.45,156.53Z" transform="translate(-59.66 -125.99)"/><path class="cls-5" d="M98,157.11c0-.41-.17-1.64-1-1.53a.76.76,0,0,0,0,1.5s-.16-.57.3-.57.43.39.45.6h-.41v.45h.89a.88.88,0,0,1-.41.56.55.55,0,0,0,.39.28.83.83,0,0,0,.23.53v-1.22a1.11,1.11,0,0,1,.18-.6h0a5.85,5.85,0,0,1,.5-2H99a2.38,2.38,0,0,1-1.31-.42c0,.76.55,1.23.56,2.38Z" transform="translate(-59.66 -125.99)"/><path class="cls-5" d="M108.47,154.31s0,0,0,0a6.16,6.16,0,0,1-.78.7A.71.71,0,0,0,108.47,154.31Z" transform="translate(-59.66 -125.99)"/><path class="cls-5" d="M105.51,148.28a1.45,1.45,0,0,0,0-.28,2.75,2.75,0,0,0-.87-.45l.22.17Z" transform="translate(-59.66 -125.99)"/><path class="cls-5" d="M106.25,156.53a.73.73,0,0,0,.6-1,6,6,0,0,1-1.39.53A.75.75,0,0,0,106.25,156.53Z" transform="translate(-59.66 -125.99)"/><path class="cls-5" d="M108.57,146a3.75,3.75,0,0,0,.48.06v.27h-.21a6.19,6.19,0,0,1,.66,1.06v-.68a.88.88,0,0,1,.56.41.55.55,0,0,0,.28-.39.32.32,0,1,0,0-.47.55.55,0,0,0-.28-.39.88.88,0,0,1-.56.41v-.88h-.45v.39c-.21,0-.6-.11-.6-.45s.57-.3.57-.3a.76.76,0,0,0-1.5,0s0,0,0,0A6.13,6.13,0,0,1,108.57,146Z" transform="translate(-59.66 -125.99)"/><path class="cls-5" d="M109.74,144.28s-.16-.57.3-.57.43.39.45.6h-.41v.45H111a.88.88,0,0,1-.41.56.55.55,0,0,0,.39.28.83.83,0,0,0,.24.54.83.83,0,0,0,.23-.54h0v-.67a1.15,1.15,0,0,1-.06-.16h.06v-.45h-.12a3.25,3.25,0,0,1,.12-.86v-2.73a3,3,0,0,0-.27-.34,2.57,2.57,0,0,0-.72,1.51c0,.78.56,1.25.56,2.42h-.27c0-.41-.17-1.64-1-1.53A.76.76,0,0,0,109.74,144.28Z" transform="translate(-59.66 -125.99)"/><path class="cls-5" d="M109.06,158.83v.27c-1.17,0-1.64-.56-2.42-.56a2.57,2.57,0,0,0-1.51.72,2.57,2.57,0,0,0,1.51.72c.78,0,1.25-.56,2.42-.56v.27c-.41,0-1.64.17-1.53,1a.76.76,0,0,0,1.5,0s-.57.16-.57-.3.39-.43.6-.45v.39h.45v-.88a.88.88,0,0,1,.56.41.55.55,0,0,0,.28-.39.32.32,0,1,0,0-.47.55.55,0,0,0-.28-.39.88.88,0,0,1-.56.41v-.88h-.45v.39c-.21,0-.6-.11-.6-.45s.57-.3.57-.3a.76.76,0,0,0-1.5,0C107.42,158.66,108.64,158.8,109.06,158.83Z" transform="translate(-59.66 -125.99)"/><path class="cls-5" d="M98.63,151.86q0-.21,0-.43a4.46,4.46,0,0,1,0-.62l-.12.12-.72.7a2.74,2.74,0,0,0,.26.49A2.53,2.53,0,0,1,98.63,151.86Z" transform="translate(-59.66 -125.99)"/><path class="cls-5" d="M104.58,151.16a.88.88,0,0,1-.41.56.55.55,0,0,0,.39.28.83.83,0,0,0,.24.54A.83.83,0,0,0,105,152a.55.55,0,0,0,.39-.28.88.88,0,0,1-.41-.56h.89v-.45h-.4c0-.21.11-.6.45-.6s.3.57.3.57a.73.73,0,0,0,.3-.11,2.75,2.75,0,0,0-.17-1.37l-.13,0c-.86-.1-1,1.12-1,1.53H105c0-1.12.52-1.6.56-2.33l-.41.74a3.94,3.94,0,0,1-.56.78,3.25,3.25,0,0,1,.1.82h-.27a3.64,3.64,0,0,0-.08-.58,2.75,2.75,0,0,1-.29.22,1.12,1.12,0,0,1,.1.36h-.41v.45h.89Z" transform="translate(-59.66 -125.99)"/><path class="cls-5" d="M99.29,156.62a.35.35,0,0,1,.26-.11.31.31,0,0,1,.24.09h.67a.73.73,0,0,0-.61-1c-.7-.08-.92.71-1,1.23A1.11,1.11,0,0,1,99.29,156.62Z" transform="translate(-59.66 -125.99)"/><path class="cls-5" d="M102.65,152.42v.27h-.18a2.69,2.69,0,0,0,1.82.3.78.78,0,0,0,.19-.14.83.83,0,0,0-.54-.23.55.55,0,0,0-.28-.39.88.88,0,0,1-.56.41v-.88h-.45v.39c-.21,0-.6-.11-.6-.45s.57-.3.57-.3a.73.73,0,0,0-.51-.62h-.44a1.46,1.46,0,0,0,.3,1.55A3.5,3.5,0,0,0,102.65,152.42Z" transform="translate(-59.66 -125.99)"/><path class="cls-5" d="M103.34,150.65h0Z" transform="translate(-59.66 -125.99)"/><path class="cls-2" d="M85,185.77l-1-2.51v2.45a.21.21,0,0,1-.24.24h-.47a.2.2,0,0,1-.24-.23v-4.66a.21.21,0,0,1,.24-.24l.62,0a.21.21,0,0,1,.22.14l1,2.52V181a.21.21,0,0,1,.24-.24h.47A.2.2,0,0,1,86,181v4.66a.21.21,0,0,1-.23.24l-.62,0A.21.21,0,0,1,85,185.77Z" transform="translate(-59.66 -125.99)"/><path class="cls-2" d="M90.05,186.23l-1.33-.14a1,1,0,0,1-.9-1v-4q0-.24.23-.21l2,.21a.23.23,0,0,1,.23.26v.48q0,.23-.23.21l-1.26-.13v1.14l1.06.11a.23.23,0,0,1,.23.26v.48q0,.24-.23.21L88.77,184v1.14l1.28.14a.23.23,0,0,1,.23.26V186Q90.29,186.26,90.05,186.23Z" transform="translate(-59.66 -125.99)"/><path class="cls-2" d="M96.45,182.57l-.77,4.51a.17.17,0,0,1-.22.15l-.57-.12a.26.26,0,0,1-.22-.23l-.4-2.12-.4,1.95a.17.17,0,0,1-.22.14l-.57-.12a.27.27,0,0,1-.23-.24l-.76-4.83a.19.19,0,0,1,.05-.18.18.18,0,0,1,.18,0l.48.1a.27.27,0,0,1,.23.25l.35,2.5.47-2.34a.17.17,0,0,1,.23-.14l.39.08a.27.27,0,0,1,.22.24l.47,2.54.35-2.35q0-.19.23-.15l.49.1a.29.29,0,0,1,.18.12A.28.28,0,0,1,96.45,182.57Z" transform="translate(-59.66 -125.99)"/><path class="cls-2" d="M103,189.14l-1-.27a1.19,1.19,0,0,1-.64-.45,1.18,1.18,0,0,1-.28-.73v-3.25a.7.7,0,0,1,.28-.59.71.71,0,0,1,.64-.12l1,.27a1.21,1.21,0,0,1,.64.45,1.18,1.18,0,0,1,.28.74v3.24a.69.69,0,0,1-.28.59A.72.72,0,0,1,103,189.14Zm0-.95V185l-1-.27v3.24Z" transform="translate(-59.66 -125.99)"/><path class="cls-2" d="M108.34,190.42l-.5-.11a.28.28,0,0,1-.21-.2L106.9,188l-.27-.06v1.86q0,.24-.23.18l-.47-.11a.27.27,0,0,1-.23-.29v-4.66q0-.24.23-.18l1.63.37a1.17,1.17,0,0,1,.65.43,1.15,1.15,0,0,1,.28.73v1.14a.74.74,0,0,1-.63.75l.69,2a.21.21,0,0,1,0,.21A.18.18,0,0,1,108.34,190.42Zm-.78-3.22v-1.14l-.94-.21V187Z" transform="translate(-59.66 -125.99)"/><path class="cls-2" d="M112.45,191.17l-1.2-.19a1.1,1.1,0,0,1-.89-1v-4q0-.24.23-.2l.47.08a.25.25,0,0,1,.23.27v4l1.15.18a.25.25,0,0,1,.23.27V191Q112.68,191.2,112.45,191.17Z" transform="translate(-59.66 -125.99)"/><path class="cls-2" d="M116.7,191.55l-1.33-.08a1,1,0,0,1-.9-1v-4a.2.2,0,0,1,.23-.22l2,.12a.22.22,0,0,1,.23.25v.48q0,.23-.23.22l-1.27-.07v1.14l1.06.06a.22.22,0,0,1,.23.25v.48a.2.2,0,0,1-.23.22l-1.06-.06v1.14l1.29.08a.22.22,0,0,1,.23.25v.48A.2.2,0,0,1,116.7,191.55Z" transform="translate(-59.66 -125.99)"/><path class="cls-2" d="M121.07,191.18l-.19-.94-1,.08-.19,1a.24.24,0,0,1-.23.21l-.49,0a.21.21,0,0,1-.23-.26l.93-4.74a.23.23,0,0,1,.23-.21l.94-.08a.19.19,0,0,1,.23.17L122,191a.24.24,0,0,1,0,.2.25.25,0,0,1-.18.1l-.49,0A.19.19,0,0,1,121.07,191.18Zm-.38-1.87-.31-1.51-.31,1.56Z" transform="translate(-59.66 -125.99)"/><path class="cls-2" d="M125.71,190.5l-1-2.36v2.45a.26.26,0,0,1-.23.28L124,191q-.23,0-.23-.19v-4.66a.26.26,0,0,1,.23-.28l.61-.12a.18.18,0,0,1,.22.11l1,2.36v-2.46a.26.26,0,0,1,.23-.28l.46-.09q.23,0,.23.19v4.66a.25.25,0,0,1-.23.28l-.61.12A.17.17,0,0,1,125.71,190.5Z" transform="translate(-59.66 -125.99)"/><path class="cls-2" d="M130.37,189.6l-.93.23a.72.72,0,0,1-.65-.12.71.71,0,0,1-.28-.6v-.18a.27.27,0,0,1,.23-.29l.47-.12q.23-.06.23.18v.18l.93-.23V187.5l-.93.23a.72.72,0,0,1-.92-.72v-1.15a1.32,1.32,0,0,1,.92-1.18l.93-.23a.72.72,0,0,1,.92.72v.16a.27.27,0,0,1-.23.29l-.47.12q-.23.06-.23-.18v-.15l-.93.23v1.14l.93-.23a.72.72,0,0,1,.92.72v1.15a1.16,1.16,0,0,1-.28.73A1.18,1.18,0,0,1,130.37,189.6Z" transform="translate(-59.66 -125.99)"/><path class="cls-3" d="M133.35,186.24a.94.94,0,0,1,.68-.88.51.51,0,0,1,.68.52.94.94,0,0,1-.68.88A.51.51,0,0,1,133.35,186.24Z" transform="translate(-59.66 -125.99)"/><path class="cls-2" d="M138.65,185.39l-.94.23v1.14l1.64-.4q.23-.05.23.18V187a.27.27,0,0,1-.23.29l-2.34.56q-.23.05-.23-.18v-1.86a1.16,1.16,0,0,1,.28-.73,1.18,1.18,0,0,1,.65-.44l.94-.23v-1.14l-.94.23v.15a.27.27,0,0,1-.23.29l-.48.11q-.23.05-.23-.18v-.15a1.16,1.16,0,0,1,.28-.73,1.18,1.18,0,0,1,.65-.44l.94-.23a.72.72,0,0,1,.65.13.71.71,0,0,1,.28.6v1.14a1.17,1.17,0,0,1-.28.74A1.19,1.19,0,0,1,138.65,185.39Z" transform="translate(-59.66 -125.99)"/><path class="cls-2" d="M143.26,186.53l-1,.18a.77.77,0,0,1-.65-.16.75.75,0,0,1-.28-.61v-3.25a1.09,1.09,0,0,1,.28-.71,1.1,1.1,0,0,1,.66-.4l1-.18a.77.77,0,0,1,.65.17.75.75,0,0,1,.29.61v3.24a1.08,1.08,0,0,1-.28.72A1.11,1.11,0,0,1,143.26,186.53Zm0-.95v-3.24l-1,.18v3.24Z" transform="translate(-59.66 -125.99)"/><path class="cls-2" d="M147,186l-.48,0q-.23,0-.23-.21v-3.73h0q-.23,0-.23-.21v-.55a.25.25,0,0,1,.15-.24l.39-.18.08,0,.36,0q.23,0,.23.21v4.66A.23.23,0,0,1,147,186Z" transform="translate(-59.66 -125.99)"/><path class="cls-2" d="M152.12,181.49l-1.25,4.28a.21.21,0,0,1-.23.16h-.5a.23.23,0,0,1-.19-.1.22.22,0,0,1,0-.21l1.19-3.85-.93,0v.15a.2.2,0,0,1-.24.23h-.48a.21.21,0,0,1-.23-.24V181a.2.2,0,0,1,.23-.23l2.27.06a.23.23,0,0,1,.21.14l.18.36A.24.24,0,0,1,152.12,181.49Z" transform="translate(-59.66 -125.99)"/><path class="cls-1" d="M120.26,132.7h-5.32a2.35,2.35,0,0,0-2.35,2.35v18a2.36,2.36,0,0,0,2.35,2.36h5.32a2.36,2.36,0,0,0,2.36-2.36v-18a2.36,2.36,0,0,0-2.35-2.35" transform="translate(-59.66 -125.99)"/><path class="cls-6" d="M120,152.73c-.29-.26-.1-.37-.11-.47-.19-.79-.82-1.26-.49-1.52-.08-.26-.24-.59-.24-.59a9.8,9.8,0,0,1-1.94-1.6c-.17-.19-.46-.37-.52-.52a15.37,15.37,0,0,1-1.65-2.44l-.47-.07c-.21-.87-.92-1.59-.94-2.46a4.85,4.85,0,0,1,.21-1.17,1.56,1.56,0,0,1,.33-.38v-.23c-1,0-.72-.07-.9-.47s0-.33,0-.52a11.54,11.54,0,0,1,.78-1.82c.06-.2.25-.68.25-.68.76-1.54,1-1.43,1.94-1.52l0-.06c.9,0,.75-.11.88-1-.13.06-.17-.27-.17-.27-.07-.49.14-.4.24-.41,0-.81.1-1.07.69-1.29h-3a1.8,1.8,0,0,0-1.8,1.8v18a1.8,1.8,0,0,0,1.8,1.8h5.32c-.61-.33-.25-1-.23-2.15" transform="translate(-59.66 -125.99)"/><path class="cls-7" d="M118.94,136.87v.08c.16.09.24.17.41.28.43.27,1,.76.9,2.43.12.36.18,1.08.29,1.31a3.69,3.69,0,0,1,.44,1.16s.07.66.15.71c.45.1.32.15.38.22s.33.09.33.33a1.57,1.57,0,0,1,.21.38v-8.71a1.8,1.8,0,0,0-1.8-1.8h-1.72a.82.82,0,0,1,.52.4c.22,0,.49.52.07,1.25.18.12,0,.3-.09.51s-.08.19-.2.18c-.16.33-.34.65-.49.67a.23.23,0,0,0,0,.26,2.43,2.43,0,0,1,.59.34" transform="translate(-59.66 -125.99)"/><path class="cls-7" d="M122.06,144.94a1.6,1.6,0,1,1-1.87-2.15c-.18-.46-.57-1.21-.69-1.46s-.37-1.77-.43-2.07c0-.07-.69.39-.69.42s-.51,1.26-.53,1.33a1.9,1.9,0,0,0,0,.21s.23,0,.36.43.53,1.87.53,1.87a1,1,0,0,1-.11.11c.51,1.7.33,2.43.56,2.92.29.7.36.61.61,1.2.18.43.37,2.12.44,2.19a1.57,1.57,0,0,1,.42.81,4.13,4.13,0,0,0-.15,1.12c.05.2.08.65.17.73s.09.17,0,.24,0,.06,0,.1c.15.53.64,1.44-.15,1.92h0a1.79,1.79,0,0,0,1.51-1.78Z" transform="translate(-59.66 -125.99)"/><polygon class="cls-1" points="56.04 24.94 55.5 24.94 55.5 26.53 55.49 26.53 55.47 26.43 55.05 24.94 54.44 24.94 54.44 27.64 54.98 27.64 54.98 25.97 54.98 25.97 55 26.07 55.43 27.64 56.04 27.64 56.04 24.94"/><path class="cls-1" d="M116.74,153.17h-.18v-.73h.2c.19,0,.22.18.22.36s0,.37-.23.37m-.18-1.78h.19c.15,0,.19.11.19.3s0,.31-.21.31h-.17Zm.57.82h0c.3-.1.34-.35.34-.63,0-.46-.22-.64-.67-.64h-.88v2.69h.9c.55,0,.72-.35.72-.8s-.1-.56-.41-.62" transform="translate(-59.66 -125.99)"/><path class="cls-1" d="M118.29,152.62l.16-1.21v-.07h0v.07l.14,1.21Zm.57-1.68H118l-.5,2.7h.62l.07-.59h.43l.06.59h.65Z" transform="translate(-59.66 -125.99)"/><polygon class="cls-3" points="47.95 38.38 48.79 40.96 51.5 40.96 49.31 42.55 50.15 45.13 47.95 43.54 45.76 45.13 46.6 42.55 44.4 40.96 47.12 40.96 47.95 38.38"/><path class="cls-1" d="M92.36,172.92c2.23.32,3.34.54,5.57,1v3.73c-3.13-.73-6.12-1.31-9.31-1.73v-8.34a.87.87,0,0,1-.61-.79.78.78,0,0,1,.61-.74v-8.34h3.74v8.58a.94.94,0,0,1,.58.83.75.75,0,0,1-.58.72ZM86.76,166a.84.84,0,0,1,.58.76.79.79,0,0,1-.58.73v8.28a25.21,25.21,0,0,0-3.74.06v-7.41a34.47,34.47,0,0,0-3.77.34v5.41a19.63,19.63,0,0,0-3.76,1.23v-6.89a.67.67,0,0,1-.61-.7,1.15,1.15,0,0,1,.61-1v-5.39h0a3.63,3.63,0,0,1,1.13-2.62,3.57,3.57,0,0,1,2.62-1.11H83a3.78,3.78,0,0,1,2.61,1,3.14,3.14,0,0,1,1.16,2.35ZM83,161.59H79.24v3.76c1.5-.14,2.28-.18,3.77-.23Zm20.23,7.65a.81.81,0,0,0,.58-.81,1.1,1.1,0,0,0-.58-1v-9.77H99.51V167a.78.78,0,0,0-.61.77,1.07,1.07,0,0,0,.61.93V178c3.1.8,6.19,1.58,9.31,2.29V176.1c-2.23-.38-3.34-.61-5.57-1.08Zm21.08-7.65h3.06V168a1.13,1.13,0,0,0-.59,1,.87.87,0,0,0,.59.87v10.27c1.5-.33,2.25-.52,3.74-.9v-9.86a1.14,1.14,0,0,0,.6-1,.83.83,0,0,0-.6-.82v-6h3.08v-3.88h-9.88Zm11-.05a3.77,3.77,0,0,1,1.15-2.68,3.54,3.54,0,0,1,2.62-1.15h3.76a3.76,3.76,0,0,1,2.61,1,3.08,3.08,0,0,1,1.1,2.36v4.95a.77.77,0,0,1,.57.73.87.87,0,0,1-.57.78v8.35c-1.5.14-2.25.26-3.74.52v-7.65c-1.5.16-2.25.25-3.74.46v8c-1.5.35-2.25.54-3.74.93v-9.36a.77.77,0,0,1-.61-.78,1.06,1.06,0,0,1,.61-.94Zm7.49.05h-3.74v4.09c1.5-.14,2.25-.21,3.74-.32Zm-23.31-3.88h-3.76A3.39,3.39,0,0,0,113.1,159a4.47,4.47,0,0,0-1.12,3v5.15a4.63,4.63,0,0,0,1.13,3,3.53,3.53,0,0,0,2.62,1.43l1,0a.87.87,0,0,0,1.72,0l1,0v5.23a33.06,33.06,0,0,1-3.77,0V175c-1.49-.06-2.24-.13-3.73-.29v1.87a5.06,5.06,0,0,0,1.13,3.18,3.6,3.6,0,0,0,2.62,1.56,27,27,0,0,0,3.76,0,3.58,3.58,0,0,0,2.61-1.54,5,5,0,0,0,1.13-3.17v-5.19a4.07,4.07,0,0,0-1.12-2.88,3.35,3.35,0,0,0-2.61-1.18l-1,0a.88.88,0,0,0-1.7,0l-1,0v-5.76h3.77v2.2h3.73V162a4.45,4.45,0,0,0-1.12-3A3.38,3.38,0,0,0,119.49,157.71Zm40.64,17.86a24,24,0,0,0-4.43-1.46l-2.43-5.62-1.12-.06v7.41a25.29,25.29,0,0,0-3.75-.05V167.5a.79.79,0,0,1-.61-.74.85.85,0,0,1,.61-.77v-8.28h7.54a3.86,3.86,0,0,1,3.77,3.74v4.38a2.72,2.72,0,0,1-.74,1.94,3.15,3.15,0,0,1-1.81,1Zm-4.16-14h-3.82v3.53c1.54,0,2.31.09,3.82.23Z" transform="translate(-59.66 -125.99)"/></svg>