<svg id="Layer_1" data-name="Layer 1" xmlns="http://www.w3.org/2000/svg" viewBox="0 0 115.88 70.01"><defs><style>.cls-1{fill:#fff}.cls-2{fill:#002b5c}.cls-3{fill:#e31837}.cls-4{fill:#b4975a}.cls-5{fill:#1d4574}.cls-6{fill:#006bb6}.cls-7{fill:#ed174c}</style></defs><title>AllStar_Logo</title><path class="cls-1" d="M117.6 126a16.12 16.12 0 0 0-8.41 2.36 6.2 6.2 0 0 0-1.36-.15 6.25 6.25 0 0 0-6.23 6.79 30.12 30.12 0 0 0-10 10.46 5 5 0 0 0-1-.11 6.1 6.1 0 0 0-2.26.43 9.66 9.66 0 0 0-3-.46 17.1 17.1 0 0 0-6.89 1.86 4.91 4.91 0 0 0-3.82-1.85 4.84 4.84 0 0 0-3.22 1.22 3.61 3.61 0 0 0-.93 1.26 6.94 6.94 0 0 0-4.26 2c-2.21 2.21-2.5 5.1-2.55 7.46a3.91 3.91 0 0 0-2.37 1.13 5.52 5.52 0 0 0-1.39 5.43v.14a8.37 8.37 0 0 1 0 5v.14a5.52 5.52 0 0 0 1.39 5.43 3.91 3.91 0 0 0 2.37 1.13c.05 2.35.34 5.25 2.55 7.46a6.93 6.93 0 0 0 4.1 2 3.87 3.87 0 0 0 .25 3.72 3.46 3.46 0 0 0 2.88 1.54 3.62 3.62 0 0 0 1.72-.44c.56-.3 1.12-.56 1.68-.8l.14.2a3.74 3.74 0 0 0 3 1.5 3.78 3.78 0 0 0 .73-.07 23.5 23.5 0 0 1 4.63-.44c5 0 10 1.31 15.31 2.7 5.48 1.43 11.16 2.91 17 2.92s11.48-1.49 17-2.92c5.32-1.39 10.35-2.7 15.31-2.7a23.5 23.5 0 0 1 4.63.44 3.78 3.78 0 0 0 .73.07 3.74 3.74 0 0 0 3-1.5l.14-.2c.57.24 1.13.5 1.69.8a3.61 3.61 0 0 0 1.71.43 3.46 3.46 0 0 0 2.88-1.54 3.86 3.86 0 0 0 .25-3.72 6.93 6.93 0 0 0 4.1-2c2.21-2.21 2.5-5.1 2.55-7.46a3.91 3.91 0 0 0 2.37-1.13 5.52 5.52 0 0 0 1.39-5.43v-.14a8.37 8.37 0 0 1 0-5v-.14a5.52 5.52 0 0 0-1.39-5.43 3.91 3.91 0 0 0-2.37-1.13c-.05-2.35-.34-5.25-2.55-7.46a6.94 6.94 0 0 0-4.26-2 3.61 3.61 0 0 0-.93-1.26 4.85 4.85 0 0 0-3.22-1.22 4.91 4.91 0 0 0-3.82 1.85 17.1 17.1 0 0 0-6.89-1.86 9.66 9.66 0 0 0-3 .46 6.15 6.15 0 0 0-2.28-.43 5 5 0 0 0-1 .11 30.12 30.12 0 0 0-10-10.46 6.25 6.25 0 0 0-7.59-6.62 16.12 16.12 0 0 0-8.51-2.37z" transform="translate(-59.66 -125.99)"/><path class="cls-2" d="M174.22 169.34a9.48 9.48 0 0 1 0-5.7v-.11a4.39 4.39 0 0 0-1.11-4.34 2.8 2.8 0 0 0-2-.83 2.84 2.84 0 0 0-.69.08v-.22c0-2.42 0-5.43-2.24-7.63a5.85 5.85 0 0 0-4.16-1.72h-.14a2.5 2.5 0 0 0-.83-1.5 3.76 3.76 0 0 0-5.88 1.19l-.8-.34a16.42 16.42 0 0 0-6.52-1.8 8.52 8.52 0 0 0-3 .54 5.06 5.06 0 0 0-2.23-.51 3.79 3.79 0 0 0-1.58.34 29 29 0 0 0-10.69-11.25v-.13a5.13 5.13 0 0 0-6.59-5.85 15 15 0 0 0-16.46 0 5.13 5.13 0 0 0-6.59 5.86v.12a29 29 0 0 0-10.69 11.25 3.76 3.76 0 0 0-1.57-.33 5 5 0 0 0-2.22.51 8.52 8.52 0 0 0-3-.54 16.41 16.41 0 0 0-6.52 1.8l-.8.34a3.76 3.76 0 0 0-5.88-1.19 2.5 2.5 0 0 0-.83 1.5h-.15A5.85 5.85 0 0 0 67 150.6c-2.2 2.2-2.22 5.21-2.24 7.63v.22a2.85 2.85 0 0 0-.69-.08 2.81 2.81 0 0 0-2 .83 4.39 4.39 0 0 0-1.07 4.33v.11a9.48 9.48 0 0 1 0 5.7v.1a4.39 4.39 0 0 0 1.11 4.34 2.8 2.8 0 0 0 2 .83 2.85 2.85 0 0 0 .69-.08v.22c0 2.42 0 5.43 2.24 7.63a5.84 5.84 0 0 0 4.16 1.72 5.94 5.94 0 0 0 .8-.1l-.62 1.48a2.78 2.78 0 0 0 .12 2.73 2.35 2.35 0 0 0 2 1 2.52 2.52 0 0 0 1.19-.31 21.72 21.72 0 0 1 2.77-1.23 2.86 2.86 0 0 0 .47.95 2.63 2.63 0 0 0 2.07 1.15 2.66 2.66 0 0 0 .52-.05 24.6 24.6 0 0 1 4.84-.46c5.1 0 10.19 1.33 15.59 2.74s11 2.88 16.67 2.88 11.26-1.47 16.68-2.88 10.49-2.74 15.59-2.74a24.6 24.6 0 0 1 4.84.46 2.66 2.66 0 0 0 .52.05 2.63 2.63 0 0 0 2.11-1.06 2.86 2.86 0 0 0 .47-.95 21.77 21.77 0 0 1 2.78 1.23 2.51 2.51 0 0 0 1.19.3 2.35 2.35 0 0 0 2-1 2.77 2.77 0 0 0 .12-2.73l-.62-1.49a5.94 5.94 0 0 0 .82.06 5.84 5.84 0 0 0 4.16-1.72c2.2-2.2 2.22-5.21 2.24-7.63v-.22a2.84 2.84 0 0 0 .69.08 2.8 2.8 0 0 0 2-.83 4.39 4.39 0 0 0 1.11-4.34z" transform="translate(-59.66 -125.99)"/><path class="cls-3" d="M141.37 148.36v.06a2.24 2.24 0 0 0-.16.36l-.95-.93a27.69 27.69 0 0 0-3.74-3.27 9.73 9.73 0 0 0-4.27-1.72 34.72 34.72 0 0 0-2-3.37l-.72-1.11a2.24 2.24 0 0 0 .39-.09 3.91 3.91 0 0 0 1.43-.82 26.79 26.79 0 0 1 10.02 10.89zm-37.44-10.89a3.91 3.91 0 0 0 1.43.82 2.24 2.24 0 0 0 .39.09l-.72 1.11a34.72 34.72 0 0 0-2 3.37c-3.4.44-5.94 2.94-8 5l-.95.93a2.24 2.24 0 0 0-.16-.36v-.06a26.79 26.79 0 0 1 10.01-10.9z" transform="translate(-59.66 -125.99)"/><path class="cls-4" d="M172.09 170a11.71 11.71 0 0 1 0-7 2.17 2.17 0 0 0-.53-2.2.59.59 0 1 0-.1.92 1.31 1.31 0 0 1-2.16 1.28c-1.05-1.05-1.07-2.86-1.08-4.78 0-2.22 0-4.52-1.59-6.07a3.64 3.64 0 0 0-2.6-1.07 8.18 8.18 0 0 0-1.19.09 6.35 6.35 0 0 1-.9.07c-.58 0-1.92-.12-1.92-1.19a.82.82 0 0 1 .82-.82.84.84 0 0 1 .46.14.24.24 0 0 0 .36 0 .25.25 0 0 0 0-.35 1.53 1.53 0 0 0-2.56 1.14 1.91 1.91 0 0 0 .76 1.48c-3.75-.36-7.92-4.37-12.34-2.55a4.74 4.74 0 0 0-.79.43 2.85 2.85 0 0 0-2-.86 1.49 1.49 0 0 0-1.36.82c1.33 1 1.88-.53 2.67.1a2 2 0 0 1-1.31 3.59c-4.61 0-7.77-8.17-13.49-8.17h-.42c-1.52-4-5.63-7.5-4.95-10.94a2 2 0 0 1 3.78-.58c.47.9-1.18 1.13-.42 2.64a1.5 1.5 0 0 0 1.07-1.18 2.9 2.9 0 0 0-4.62-2.84 12.8 12.8 0 0 0-16 0A2.9 2.9 0 0 0 105 135a1.5 1.5 0 0 0 1.07 1.18c.76-1.51-.89-1.74-.42-2.64a2 2 0 0 1 3.78.58c.68 3.44-3.43 7-4.95 10.94h-.42c-5.72 0-8.88 8.17-13.49 8.17a2 2 0 0 1-1.31-3.59c.79-.63 1.34.94 2.67-.1a1.49 1.49 0 0 0-1.36-.82 2.85 2.85 0 0 0-2 .86 4.74 4.74 0 0 0-.79-.43c-4.42-1.81-8.59 2.19-12.34 2.55a1.91 1.91 0 0 0 .76-1.48 1.53 1.53 0 0 0-2.56-1.14.25.25 0 0 0 0 .35.24.24 0 0 0 .36 0 .84.84 0 0 1 .46-.14.82.82 0 0 1 .82.82c0 1.07-1.34 1.19-1.92 1.19a6.35 6.35 0 0 1-.9-.07 8.18 8.18 0 0 0-1.19-.09 3.64 3.64 0 0 0-2.6 1.07C67 153.73 67 156 67 158.24c0 1.92 0 3.73-1.08 4.78a1.31 1.31 0 0 1-2.16-1.34.59.59 0 1 0-.1-.92 2.17 2.17 0 0 0-.53 2.2 11.71 11.71 0 0 1 0 7 2.17 2.17 0 0 0 .53 2.2.59.59 0 1 0 .1-.92 1.31 1.31 0 0 1 2.16-1.34C67 171 67 172.81 67 174.73c0 2.22 0 4.52 1.59 6.07a3.68 3.68 0 0 0 4.38.6l.84-.45c.4.55.81 1.11 1.21 1.69q-.79 1.83-1.58 3.73c-.22.52-.14.81.16.65a23.68 23.68 0 0 1 5.94-2.19v2.09c0 .4.25.68.55.62 12.51-2.49 25 5.11 37.54 5.12s25-7.61 37.54-5.12c.3.06.55-.21.55-.62v-2.09a23.68 23.68 0 0 1 5.94 2.19c.3.16.37-.13.16-.65q-.79-1.9-1.58-3.73c.4-.58.81-1.14 1.21-1.69l.84.45a3.68 3.68 0 0 0 4.38-.6c1.55-1.55 1.57-3.85 1.59-6.07 0-1.92 0-3.73 1.08-4.78a1.31 1.31 0 0 1 2.16 1.34.59.59 0 1 0 .1.92 2.17 2.17 0 0 0 .53-2.2zm-2.09-5.5a2.2 2.2 0 0 0 .61-.09 12.83 12.83 0 0 0-.16 1.81h-5.37v-.16a5.86 5.86 0 0 1 .27-1.36v-.1h.1a8.23 8.23 0 0 0 2.88-.84l.1.11a2.16 2.16 0 0 0 1.57.63zm-2.79 7.22q0 .22-.07.45a5.81 5.81 0 0 1-1.79-.77 5.87 5.87 0 0 1-1.63-1.58l-.06-.09.07-.09a1.79 1.79 0 0 1 1.06-.72h.21v.1a6.36 6.36 0 0 0 2.21 2.7zm-1.64-2.83h.28a8.5 8.5 0 0 1 2.17.7 4.87 4.87 0 0 0-.68 1.52 5.84 5.84 0 0 1-1.65-2zm-1-2.14v.14a6.53 6.53 0 0 0 .22 1.34v.16h-.16a2.19 2.19 0 0 0-1.16.68l-.15.16-.09-.19a5.8 5.8 0 0 1-.58-2.15v-.16zm-1.89-.53v-.16a5.8 5.8 0 0 1 .58-2.15l.09-.19.15.16a2.13 2.13 0 0 0 1.16.68h.16v.16a6.53 6.53 0 0 0-.22 1.34v.14zm2.34-2.16h-.23a1.79 1.79 0 0 1-1.06-.72l-.07-.09.06-.09a5.87 5.87 0 0 1 1.63-1.58 5.8 5.8 0 0 1 1.8-.77q0 .23.07.45A6.36 6.36 0 0 0 165 164zm2.34-2.24a4.86 4.86 0 0 0 .68 1.51 8.56 8.56 0 0 1-2.15.7h-.29l.13-.26a6 6 0 0 1 1.61-1.94zM68 171.72a6.36 6.36 0 0 0 2.16-2.72v-.1h.23a1.79 1.79 0 0 1 1.06.72l.07.09-.06.09a5.87 5.87 0 0 1-1.63 1.58 5.81 5.81 0 0 1-1.79.77q-.04-.2-.04-.43zm-.13-.57a4.87 4.87 0 0 0-.68-1.52 8.5 8.5 0 0 1 2.17-.7h.28l-.13.25a5.84 5.84 0 0 1-1.65 1.98zm2.68-2.74h-.16v-.16a6.53 6.53 0 0 0 .22-1.34v-.14h1.89v.16a5.8 5.8 0 0 1-.58 2.15l-.09.19-.15-.16a2.19 2.19 0 0 0-1.13-.69zm.11-2.2v-.14a6.53 6.53 0 0 0-.22-1.34v-.16h.16a2.13 2.13 0 0 0 1.16-.68l.15-.16.09.19a5.8 5.8 0 0 1 .58 2.15v.16zm.84-2.9a1.79 1.79 0 0 1-1.06.72h-.24v-.1a6.36 6.36 0 0 0-2.2-2.68q0-.22.07-.45a5.8 5.8 0 0 1 1.8.77 5.87 5.87 0 0 1 1.63 1.58l.06.09zm-1.87.76h-.29a8.56 8.56 0 0 1-2.15-.7 4.87 4.87 0 0 0 .68-1.51 6 6 0 0 1 1.63 2zm-4.41.42a2.16 2.16 0 0 0 1.53-.63l.1-.11a8.23 8.23 0 0 0 2.88.84h.1v.1a5.86 5.86 0 0 1 .27 1.36v.16h-5.34a12.82 12.82 0 0 0-.16-1.81 2.2 2.2 0 0 0 .61.1zm0 4a2.2 2.2 0 0 0-.61.09 12.83 12.83 0 0 0 .16-1.81h5.37v.16a6 6 0 0 1-.26 1.36v.1h-.11a8.2 8.2 0 0 0-2.89.84l-.1-.11a2.16 2.16 0 0 0-1.57-.64zm100.7 11.37a2.58 2.58 0 0 1-1.84.76 6 6 0 0 1-2.44-1 23.65 23.65 0 0 0-6.88-2.38c-.3-.06-.55.24-.55.64V180c-12.2-1.93-24.4 5.27-36.6 5.29S93.2 178.06 81 180v-2.1c0-.4-.25-.69-.55-.64a23.65 23.65 0 0 0-6.88 2.38 6 6 0 0 1-2.44 1 2.58 2.58 0 0 1-1.84-.76c-1-1-1.05-2.89-1.08-4.85 0-.72 0-1.44-.07-2.15a6.52 6.52 0 0 0 0-12.71c.06-.7.07-1.43.07-2.14 0-2 0-3.82 1.08-4.85a2.58 2.58 0 0 1 1.84-.76 2.66 2.66 0 0 1 2.65 2.58 2.6 2.6 0 0 1-2.25 2.59 1.69 1.69 0 0 1-1.81-1.08c-.13-.37 0-.53.35-.81a1.46 1.46 0 0 0 .55-1.74v-.11h-.12a1.46 1.46 0 0 0-.87.39 2.25 2.25 0 0 0-.72 1.64 2.54 2.54 0 0 0 .73 1.85 2.49 2.49 0 0 0 .74.51 1.21 1.21 0 0 0-.47 1.37v.12H70a1 1 0 0 0 1-.81c.08-.25.13-.4.44-.44h.24a3.65 3.65 0 0 0 3.16-3.64 3.69 3.69 0 0 0-.42-1.7c4.34-.37 9.18-4.28 12.57-2.89a3.76 3.76 0 0 1 .81.46 2.91 2.91 0 0 0-.14.9 2.88 2.88 0 0 0 2.87 2.9c5.3 0 8.78-8.17 13.26-8.17a3.92 3.92 0 0 1 0 7.84 3.85 3.85 0 0 1-2.34-.79 2.58 2.58 0 0 1-.79-3.13c.69-1.41 2.25.47 3.44-1.66a1.86 1.86 0 0 0-1.13-.43 3.25 3.25 0 0 0-3.26 3.29 3.3 3.3 0 0 0 .38 1.53 1.57 1.57 0 0 0-2 .71c1.38 1.08 1.71-.59 2.68.18l.26.22a4.93 4.93 0 0 0 3 1 5 5 0 0 0 1.69-9.75c1.56-3.58 5.72-7.47 4.93-11.47a2.84 2.84 0 0 0-.33-.87 11.68 11.68 0 0 1 14.54 0 2.84 2.84 0 0 0-.33.87c-.8 4 3.37 7.89 4.93 11.47a5 5 0 0 0 1.69 9.75 4.93 4.93 0 0 0 3-1l.26-.22c1-.77 1.3.9 2.68-.18a1.57 1.57 0 0 0-2-.71 3.3 3.3 0 0 0 .38-1.53 3.25 3.25 0 0 0-3.26-3.29 1.86 1.86 0 0 0-1.13.43c1.19 2.13 2.75.25 3.44 1.66a2.58 2.58 0 0 1-.79 3.13 3.85 3.85 0 0 1-2.34.79 3.92 3.92 0 0 1 0-7.84c4.48 0 8 8.17 13.26 8.17a2.88 2.88 0 0 0 2.87-2.9 2.91 2.91 0 0 0-.14-.9 3.76 3.76 0 0 1 .81-.46c3.39-1.39 8.23 2.52 12.57 2.89a3.69 3.69 0 0 0-.42 1.7 3.65 3.65 0 0 0 3.16 3.64h.24c.31 0 .36.19.44.44a1 1 0 0 0 1 .81h.12v-.12a1.21 1.21 0 0 0-.47-1.37 2.49 2.49 0 0 0 .74-.51 2.54 2.54 0 0 0 .73-1.85 2.25 2.25 0 0 0-.72-1.64 1.46 1.46 0 0 0-.87-.39h-.12v.11a1.46 1.46 0 0 0 .55 1.74c.31.28.47.44.35.81a1.69 1.69 0 0 1-1.81 1.08 2.6 2.6 0 0 1-2.25-2.59 2.66 2.66 0 0 1 2.64-2.64 2.58 2.58 0 0 1 1.84.76c1 1 1.05 2.89 1.08 4.85 0 .72 0 1.44.07 2.14a6.52 6.52 0 0 0 0 12.71c-.06.7-.07 1.43-.07 2.15.01 2.03-.05 3.84-1.08 4.87zm4.08-11.38a2.16 2.16 0 0 0-1.53.63l-.1.11a8.2 8.2 0 0 0-2.89-.84h-.11v-.1a6 6 0 0 1-.26-1.36v-.16h5.37a12.83 12.83 0 0 0 .16 1.81 2.2 2.2 0 0 0-.64-.09z" transform="translate(-59.66 -125.99)"/><path class="cls-5" d="M147.29 159.37v-.28h-.16c.05.09.11.18.16.28zm14.02 10.55v.45h.62c-.09-.15-.17-.3-.24-.45zm-.48-4.08a4.36 4.36 0 0 1 0 .51h.08A7.47 7.47 0 0 1 161 165h-.19zm-9.77-10.26c-.61-.07-.86.52-1 1h.42a.34.34 0 0 1 .23-.09.31.31 0 0 1 .24.09h.67a.73.73 0 0 0-.56-1zm-41.8 10.26h1.4l.21-.18a2.56 2.56 0 0 0-1.51-.71 1.71 1.71 0 0 0-.37 0zm39.63-11.15c0 .65.39 1.09.52 1.9h.4c.13-.81.52-1.25.52-1.9a2.57 2.57 0 0 0-.72-1.51 2.57 2.57 0 0 0-.72 1.51zm-39.84-1.15a1.68 1.68 0 0 0 .3 0 2.57 2.57 0 0 0 1.51-.72 3 3 0 0 0-1.12-.66 6.15 6.15 0 0 1-.69 1.38zm15.28-.69a2.57 2.57 0 0 0 1.51.72 1.68 1.68 0 0 0 .31 0 6.15 6.15 0 0 1-.7-1.35 2.94 2.94 0 0 0-1.12.63zm-13.76 7.54a.87.87 0 0 1 .4.54 5.44 5.44 0 0 1 .36-1.16.78.78 0 0 0-.14-.19.83.83 0 0 0-.23.54.55.55 0 0 0-.39.27zm27.69-4.81c-.78-.09-1 .89-1 1.39l.32-.12a.42.42 0 0 1 .39-.34.29.29 0 0 1 .29.17 4.76 4.76 0 0 1 .62-.07.73.73 0 0 0-.62-1.03zm-12.8 0c-.61-.07-.86.52-1 1h.42a.34.34 0 0 1 .23-.09.31.31 0 0 1 .24.09h.67a.73.73 0 0 0-.56-1zM97.82 168.2a2 2 0 0 1 0-.4 1.9 1.9 0 0 1 .61-1.41V166a2.55 2.55 0 0 0-.71 1.51 2 2 0 0 0 .1.69zm63.18.18a.76.76 0 0 0 0 1.5s-.16-.57.3-.57a.34.34 0 0 1 .17 0 7.6 7.6 0 0 1-.32-1zM93.47 162v1.25a.73.73 0 0 1 0 .1v.15a.75.75 0 0 0 0-1.5zm.36 6a1.83 1.83 0 0 1-.36.47v.86a.75.75 0 0 0 .36-1.33zm-20.19 3.82a.32.32 0 1 0 0 .47.55.55 0 0 0 .28.39.84.84 0 0 1 .44-.37v-.51a.84.84 0 0 1-.44-.37.55.55 0 0 0-.28.39zm7.76-7.75h.51v-.46a.74.74 0 0 0-.51.46zm14.85 8.37l.45.09v-.25a.93.93 0 0 1 .53.36h.09a.53.53 0 0 0 .22-.36.32.32 0 1 0 0-.47.55.55 0 0 0-.28-.39.88.88 0 0 1-.56.41V171h-.45v.39c-.21 0-.6-.11-.6-.45s.57-.3.57-.3a.76.76 0 0 0-1.5 0c-.1.86 1.12 1 1.53 1v.27c-1.17 0-1.64-.56-2.42-.56a1.48 1.48 0 0 0-.36 0v.65c.75.11 1.38.22 2 .34a3.27 3.27 0 0 1 .74-.08zm-15.89-9.53c.44 0 .29.57.29.57a.76.76 0 0 0 .66-.77h-.95zm45.78 10.25v-.39h.13v-.29h-.13v-.27h.13v-.32h-.13v-.27h.13v-.29h-.13V171h-.45v.88a.88.88 0 0 1-.56-.41.55.55 0 0 0-.28.39.83.83 0 0 0-.52.22.84.84 0 0 0 .52.22.55.55 0 0 0 .28.39.87.87 0 0 1 .56-.41v.88h.45zm7.47-5.43a2.14 2.14 0 0 1 .41-1c-.24-.52-1.13-.62-1.48-.64v-.27a4.17 4.17 0 0 1 1.65.4v-1.12a4.18 4.18 0 0 1-1.65.4v-.27c.41 0 1.64-.17 1.53-1a.76.76 0 0 0-1.5 0s.57-.16.57.3-.39.43-.6.45v-.39h-.3v2.22h.3v-.39c.21 0 .6.11.6.45s-.57.3-.57.3a.77.77 0 0 0 1.04.56zm-8.15 8a.76.76 0 0 0 0-1.5s.16.57-.3.57-.43-.39-.45-.6h.41v-.45h-.78v.45h.1c.01.42.16 1.64 1.02 1.53zm8.74-4.16v-.38a.35.35 0 0 1-.14-.29.29.29 0 0 1 .14-.27V170a.73.73 0 0 0-1.07.58c-.08.65.56.9 1.07.99zm-7.93 1.96h-.09a.74.74 0 0 0 .09.28zm36.14-1.79a.81.81 0 0 0 .21-.38 7.57 7.57 0 0 1-.54-.74.78.78 0 0 1-.3.3.55.55 0 0 0 .39.28.83.83 0 0 0 .24.54zm-32.35-15.65c-.06.18-.13.34-.19.5h1.07l-.16-.41a6 6 0 0 1-.72-.09zm23.2 17.13v.4a.9.9 0 0 0 0-.1.73.73 0 0 0 0-.3zm-19.06.88v-.61a.29.29 0 0 1-.14-.27.35.35 0 0 1 .14-.29v-.38c-.51.1-1.14.34-1.07 1a.73.73 0 0 0 1.07.55zm7.48 2.17v-1.47a.75.75 0 0 0 0 1.47zm21.86-3.58a.71.71 0 0 1 .2-.23 7.58 7.58 0 0 1-.67-.6.8.8 0 0 0-.35.2.83.83 0 0 0 .54.23.55.55 0 0 0 .28.4zm-21.86.05v-1.36a1.45 1.45 0 0 0-.32 0 3.36 3.36 0 0 0-1.19.33v.78a3.36 3.36 0 0 0 1.19.33 1.45 1.45 0 0 0 .32-.08zm-36.54-16.65a6 6 0 0 1-.72.09 7.36 7.36 0 0 0-.3.85 1.11 1.11 0 0 1 .24.68v.63a3.19 3.19 0 0 0 .43.59 2.57 2.57 0 0 0 .72-1.51 4 4 0 0 0-.37-1.33zm48.22 15.43h-.1v1a3.14 3.14 0 0 0 .63.19zm5.44-13.96a5.48 5.48 0 0 1 .55.47 5.3 5.3 0 0 1 .65.77h.26v.27h-.08a4.62 4.62 0 0 1 .51 1.27v-.88a.88.88 0 0 1 .56.41.55.55 0 0 0 .28-.39.83.83 0 0 0 .54-.24.77.77 0 0 0-.17-.12l-.12-.06a.81.81 0 0 0-.25-.05.47.47 0 0 0 0-.1l-.31-.2a1 1 0 0 1-.5.33v-.74l-.11-.1v-.05h-.29v.39c-.21 0-.6-.11-.6-.45s.57-.3.57-.3a4.74 4.74 0 0 1-.34-.5.75.75 0 0 0-1.15.27zm2.98 2.83a.88.88 0 0 1 .41.56h-.89v.45h.4c0 .21-.11.6-.45.6s-.3-.57-.3-.57h-.12v1.45h.12c.86.1 1-1.12 1-1.53h.27a3.26 3.26 0 0 1-.14.95 7.8 7.8 0 0 1 .47-.64v-.3h.27c.14-.16.28-.31.43-.45h-.65a.88.88 0 0 1 .41-.56.55.55 0 0 0-.39-.28.32.32 0 1 0-.47 0 .55.55 0 0 0-.37.32zm-2.56-5.47v-.12a4.8 4.8 0 0 1 .07-.8l-.55-.13a.36.36 0 0 1 0 .13c0 .46-.57.3-.57.3a.77.77 0 0 0 1.05.62zm5.33 18.24V173l-.45-.29v.43h.45zm-.74-16.66h.09a.55.55 0 0 0 .33-.11 2.81 2.81 0 0 1-.61-.81.85.85 0 0 0-.57.55 1.46 1.46 0 0 0 .76.37zm-.68-1.81a1.73 1.73 0 0 0-.13-.69 1.52 1.52 0 0 0-.42 1 1.48 1.48 0 0 0 .27.86 3.31 3.31 0 0 0 .28-1.17zm-22.65 18.82a.69.69 0 0 0-.31-.68V174a.72.72 0 0 0 .31-.49zm-53.19-15.35v.84a4.27 4.27 0 0 1 .22.4v-1.28h-.22zm-14.01 12.2h.62v-.45h-.37c-.08.16-.17.31-.25.45zm-.17.26a7.57 7.57 0 0 1-.54.74.81.81 0 0 0 .21.38.83.83 0 0 0 .23-.54.55.55 0 0 0 .39-.28.78.78 0 0 1-.29-.3zm29.61-14.56a.74.74 0 0 0 1.31.14 6.1 6.1 0 0 1-1.31-.14zm31.48 15.81c-.84-.12-1.28-.52-1.95-.53v1.43c.67 0 1.11-.41 1.95-.53zm-52.3.7v-1a2.33 2.33 0 0 0-.87-.2 1.7 1.7 0 0 0-.67.16v1.12a1.7 1.7 0 0 0 .67.16 2.33 2.33 0 0 0 .87-.24zm15.87-12.18a.88.88 0 0 1 .41.56h-.89v.45h.4c0 .21-.11.6-.45.6s-.3-.57-.3-.57a.76.76 0 0 0 0 1.5c.86.1 1-1.12 1-1.53h.27c0 1.17-.56 1.64-.56 2.42a2.55 2.55 0 0 0 .71 1.51v-5.74a.83.83 0 0 0-.23.53.55.55 0 0 0-.36.27zm12.16 17.47v1.21a3.07 3.07 0 0 0 .94-.6 3.07 3.07 0 0 0-.94-.61zm22.32-2.92v1.18a.78.78 0 0 0 0-1.18zm-5.98 4.18v-1.32a1.74 1.74 0 0 0-.43-.06 2.57 2.57 0 0 0-1.51.72 2.57 2.57 0 0 0 1.51.72 1.74 1.74 0 0 0 .43-.06zm-1.94-3.86v1.33a6.13 6.13 0 0 1-.15 1.32 2.28 2.28 0 0 0 .53-1.29 4.26 4.26 0 0 0-.38-1.36zm-13.46 1.3v-1.3a4.27 4.27 0 0 0-.39 1.36 2.3 2.3 0 0 0 .54 1.31 6.13 6.13 0 0 1-.15-1.37zm-13.1-5.64a.55.55 0 0 0 .39.28.83.83 0 0 0 .23.53v-2.46a2.22 2.22 0 0 1-.34-.46 3.31 3.31 0 0 1 .19 1.1H98c0-.41-.17-1.64-1-1.53a.76.76 0 0 0 0 1.5s-.16-.57.3-.57.43.39.45.6h-.41v.45h.89a.88.88 0 0 1-.46.56zm34.09-14.39a.7.7 0 0 0 .62-.47 6.11 6.11 0 0 1-1.31.14.7.7 0 0 0 .69.33zm-57.62 13.35h.12v-.67a1.77 1.77 0 0 1-.37-.46c-.06.22-.13.43-.22.64a.34.34 0 0 1 .17 0c.46-.08.3.49.3.49zm31.91-4.61a.74.74 0 0 1-.22-.24.55.55 0 0 0-.28.39.83.83 0 0 0-.54.24.79.79 0 0 0 .28.18h.61zm-12.01-.72h-.45v.88a1.1 1.1 0 0 1-.22-.09v.38l.14.16h.07v.12a2 2 0 0 1 .33.77h.12v-.39c.21 0 .6.11.6.45s-.57.3-.57.3a.76.76 0 0 0 1.5 0c.1-.86-1.12-1-1.53-1v-.27c1.17 0 1.64.56 2.42.56a2.57 2.57 0 0 0 1.51-.72 2.57 2.57 0 0 0-1.51-.72c-.78 0-1.25.56-2.42.56v-.27c.41 0 1.64-.17 1.53-1a.76.76 0 0 0-1.5 0s.57-.16.57.3-.39.43-.6.45v-.39zm46.03 6.73a.69.69 0 0 0 .31-.68.77.77 0 0 0-.16-.4h-.15zm-35.37 1.11a3.19 3.19 0 0 0-.43.59v1.15l1.09.23a1.75 1.75 0 0 0 .06-.45 2.57 2.57 0 0 0-.72-1.52zm6.62 1.34a.87.87 0 0 1 .41-.54.55.55 0 0 0-.39-.28.83.83 0 0 0-.24-.54.83.83 0 0 0-.23.54.55.55 0 0 0-.39.28.88.88 0 0 1 .41.56h-.89v.45h.4c0 .21-.11.6-.45.6s-.3-.57-.3-.57a.76.76 0 0 0-.66.79 1.11 1.11 0 0 1 .78.71c.75 0 .88-1.14.9-1.54h.23a1.06 1.06 0 0 1 .43-.47zm13.21-2.81a.85.85 0 0 1-.37-.45 5.59 5.59 0 0 1 .07.71.57.57 0 0 0 .3-.26zm1.19-1.19a2.15 2.15 0 0 1-.14-.75 2.26 2.26 0 0 1 .06-.51.83.83 0 0 0-.29-.09c-.86-.1-1 1.12-1 1.53h-.27c0-1.17.56-1.64.56-2.42A2.57 2.57 0 0 0 124 166a2.57 2.57 0 0 0-.72 1.51 3.64 3.64 0 0 0 .35 1.25 5.05 5.05 0 0 1 .6 1.61h.87v-.45h-.4c0-.21.11-.6.45-.6s.3.57.3.57a.72.72 0 0 0 .37-.16zM110.47 172a1.12 1.12 0 0 1-1.31 0l-.18-.13a7.89 7.89 0 0 1-2-.52l-.9.65a1.11 1.11 0 0 1-.66.21h-.09a2.29 2.29 0 0 0 1.3.54c.78 0 1.25-.56 2.42-.56v.27c-.41 0-1.64.17-1.53 1a.76.76 0 0 0 1.5 0s-.57.16-.57-.3.39-.43.6-.45v.39h.45v-.88a.88.88 0 0 1 .56.41.55.55 0 0 0 .28-.39.83.83 0 0 0 .54-.24.79.79 0 0 0-.26-.17 1.11 1.11 0 0 1-.15.17zm1.05-12.74h.06l.08-.16a.76.76 0 0 0-.14.16zm-.65 5.65v-2.45a4.27 4.27 0 0 0-.39 1.36 2.07 2.07 0 0 0 .39 1.09zm21.38-1.6a.8.8 0 0 0 .27-.61h-.27zm29.03 9.38a.55.55 0 0 0 .28-.39.32.32 0 1 0 0-.47.55.55 0 0 0-.28-.39.87.87 0 0 1-.56.41V171h-.45v.39c-.21 0-.6-.11-.6-.45s.57-.3.57-.3a.78.78 0 0 0-1.25-.49l.61 1.42a3.53 3.53 0 0 0 .67.1v.27a3.31 3.31 0 0 1-.53 0l.16.38h.36v.27h-.25l.12.27h.13v.41h.41v-.88a.88.88 0 0 1 .61.3zm-67.45-14.15a1.48 1.48 0 0 0-.36 0v1.34a1.48 1.48 0 0 0 .36 0c.78 0 1.25-.56 2.42-.56v.27c-.41 0-1.64.17-1.53 1a.76.76 0 0 0 1.5 0s-.57.16-.57-.3.39-.43.6-.45v.39h.45v-.88a.88.88 0 0 1 .56.41.55.55 0 0 0 .28-.39.32.32 0 1 0 0-.47.55.55 0 0 0-.28-.39.88.88 0 0 1-.56.41v-.88h-.45v.39c-.21 0-.6-.11-.6-.45s.57-.3.57-.3a.76.76 0 0 0-1.5 0c-.1.86 1.12 1 1.53 1v.27c-1.16.15-1.63-.41-2.42-.41zM74.37 165h-.19a7.48 7.48 0 0 1 .15 1.33zm10.07-8.49c.26 0 .38.25.42.45l.3.13c0-.43-.18-1.62-1-1.52a.73.73 0 0 0-.59 1.05 4.87 4.87 0 0 1 .59.1.28.28 0 0 1 .28-.21zM127.5 155a6.16 6.16 0 0 1-.78-.71.71.71 0 0 0 .78.71zm36.37 20.73a.76.76 0 0 0 0-1.5s.16.57-.3.57-.43-.39-.45-.6h.41v-.45h-.89a.88.88 0 0 1 .41-.56.55.55 0 0 0-.39-.28.32.32 0 1 0-.47 0 .55.55 0 0 0-.39.28.88.88 0 0 1 .41.56h-.89v.45h.4c0 .21-.11.6-.45.6s-.3-.57-.3-.57h-.17l.37.85a1.11 1.11 0 0 1 .08.59c.62-.16.73-1.15.75-1.52h.27c0 1.17-.56 1.64-.56 2.42a2.57 2.57 0 0 0 .72 1.51 2.57 2.57 0 0 0 .72-1.51c0-.78-.56-1.25-.56-2.42h.27c0 .47.14 1.69 1.01 1.58zm-89.63 0h.16a1.11 1.11 0 0 1 0-.3v-1.14h-.12s.16.57-.3.57-.43-.39-.45-.6h.41v-.45H73a.88.88 0 0 1 .41-.56.55.55 0 0 0-.39-.28.83.83 0 0 0-.24-.54.83.83 0 0 0-.23.54.55.55 0 0 0-.39.28.88.88 0 0 1 .41.56h-.89v.45h.4c0 .21-.11.6-.45.6s-.3-.57-.3-.57a.76.76 0 0 0 0 1.5c.86.1 1-1.12 1-1.53h.27c0 1.17-.56 1.64-.56 2.42a2.57 2.57 0 0 0 .72 1.51 2.57 2.57 0 0 0 .72-1.51c0-.78-.56-1.25-.56-2.42h.27c.05.36.19 1.58 1.05 1.47zm-2.3-3.44a.83.83 0 0 0 .54-.24.81.81 0 0 0-.35-.2 7.58 7.58 0 0 1-.67.6.71.71 0 0 1 .2.23.55.55 0 0 0 .28-.39zm32.86-12.71a3.19 3.19 0 0 0-.43.59v2a3.52 3.52 0 0 1 .28 1.34h-.27v.49h.22a1 1 0 0 1-.22.4v.36a.47.47 0 0 0 .2.07.83.83 0 0 0 .24.54.83.83 0 0 0 .23-.54.55.55 0 0 0 .39-.28.88.88 0 0 1-.44-.55h.89v-.45h-.4c0-.21.11-.6.45-.6s.3.57.3.57a.76.76 0 0 0 0-1.5c-.86-.1-1 1.12-1 1.53H105c0-1.17.56-1.64.56-2.42a2.57 2.57 0 0 0-.76-1.55zm5.27-10.38a6.12 6.12 0 0 1 .06.86c.51-.25.61-1.13.63-1.47h.24c0 1.17-.56 1.64-.56 2.42a2.57 2.57 0 0 0 .72 1.51 3 3 0 0 0 .27-.34v-2.73a3.25 3.25 0 0 1-.12-.86h.12v-.45h-.06a1.15 1.15 0 0 1 .06-.16v-.68a.83.83 0 0 0-.24-.54.83.83 0 0 0-.23.54.55.55 0 0 0-.39.28.87.87 0 0 1 .41.56h-.89v.45h.4c-.02.21-.11.58-.42.61zm-5.71 9.96v.19l.11-.09zm5.38 3.77c.86.1 1-1.12 1-1.53h.14c0-.15 0-.3.07-.45h-.88v.45h.4c0 .21-.11.6-.45.6s-.3-.57-.3-.57a.76.76 0 0 0 .02 1.5zm.83-4.81a.55.55 0 0 0 .39.28.83.83 0 0 0 .24.54.83.83 0 0 0 .23-.54.55.55 0 0 0 .39-.28.87.87 0 0 1-.41-.56h.89v-.45h-.4c0-.21.11-.6.45-.6s.3.57.3.57a.77.77 0 0 0 .64-1 3.48 3.48 0 0 1-.75-.55c-.76 0-.89 1.14-.91 1.54h-.27c0-1.13.53-1.61.56-2.35a3.45 3.45 0 0 1-.4-1.19 3.11 3.11 0 0 0-.31-.39 2.57 2.57 0 0 0-.72 1.51c0 .78.56 1.25.56 2.42h-.27c0-.41-.17-1.64-1-1.53a.76.76 0 0 0 0 1.5s-.16-.57.3-.57.43.39.45.6h-.41v.45h.88a.88.88 0 0 1-.43.6zm14.06-10.53a.55.55 0 0 0-.39-.28.32.32 0 1 0-.47 0v.69a1.16 1.16 0 0 1 .06.15h-.06v.45h.12a3.25 3.25 0 0 1-.12.86v2.74a3 3 0 0 0 .27.33 2.57 2.57 0 0 0 .72-1.51c0-.78-.56-1.25-.56-2.42h.27c0 .34.12 1.23.64 1.47a6.12 6.12 0 0 1 .06-.86c-.31 0-.4-.39-.42-.6h.41v-.45h-.89a.88.88 0 0 1 .36-.57zm0 25.6a.57.57 0 0 0-.29-.26v.55a.76.76 0 0 1 .29-.29zm-1.97-17.61a3.49 3.49 0 0 1-.75.55.77.77 0 0 0 .64 1s-.16-.57.3-.57.43.39.45.6h-.41v.45h.34a1.11 1.11 0 0 1 .32-.65c-.05-.53-.24-1.37-.89-1.38zm-4.87 20.25c.12-.83.52-1.27.52-1.93a1.56 1.56 0 0 0-.08-.49 1.87 1.87 0 0 1-1.26 0 1.56 1.56 0 0 0-.08.49c0 .66.4 1.1.52 1.93h.39zm-5.46-3.14a.87.87 0 0 1 .56-.41v.88h.45v-.39c.21 0 .6.11.6.45s-.57.3-.57.3a.74.74 0 0 0 .06.21l1.34.1a.82.82 0 0 0 .1-.31c.1-.86-1.12-1-1.53-1v-.27h.43a4.91 4.91 0 0 1-.88-.63v.23a.88.88 0 0 1-.56-.41.55.55 0 0 0-.28.39.32.32 0 1 0 0 .47.55.55 0 0 0 .28.39zm40.93-9.12v.43h.54a.74.74 0 0 0-.54-.43zm-26.99 6.88a.75.75 0 0 0-.05.2h.09zm-21.91-4.7l.12-.09-.12-.09zM124 153.18a3.1 3.1 0 0 0-.31.39 3.44 3.44 0 0 1-.4 1.19c0 .65.43 1.1.53 2a1.1 1.1 0 0 1 .38-.12c.13-.82.52-1.26.52-1.92a2.57 2.57 0 0 0-.72-1.54zm17.68 10.29v-.76h-.59a.76.76 0 0 0 .59.76zm-.68.73a.76.76 0 0 0-.86-.65v.91h.3c.09-.39.56-.26.56-.26zm13.55-.72s-.16-.57.3-.57v-.2h-1a.76.76 0 0 0 .7.77zm-36.18 12.34v-.72a1.91 1.91 0 0 0-.28.73z" transform="translate(-59.66 -125.99)"/><path class="cls-5" d="M108.5 171.55l-.89-.64h-.05a1.23 1.23 0 0 0 .94.64zm-10.11.83a.82.82 0 0 0-.22.44l.22.07zm18.44 2.72v.72h.28a1.92 1.92 0 0 0-.28-.72zm-5.83-3.9a.83.83 0 0 0 .24.54.83.83 0 0 0 .23-.54.55.55 0 0 0 .39-.28.87.87 0 0 1-.41-.56h.4c-.1-.15-.18-.3-.26-.45h-.2a3.38 3.38 0 0 1 0-.36 5.67 5.67 0 0 1-.37-1.11l-.23.16a3.47 3.47 0 0 1 .26 1.3h-.27a2.8 2.8 0 0 0-.27-1.1l-.22.16.45 1.39h.26a1.06 1.06 0 0 1-.15.31v.11a1.11 1.11 0 0 1 0 .41zm-6.64-1.35v.93l.58-1.8h-.07a1.93 1.93 0 0 1-.51.87zm0 2.15v.19l.11-.09zm21.1-9.07a.74.74 0 0 0 .47-.23h-1.08a.68.68 0 0 0 .61.23zm-3.3 2.01c-.78 0-1.25.56-2.42.56v-.27a2.62 2.62 0 0 0 1.19-.32h-1.68v.56a.88.88 0 0 1-.56-.41.55.55 0 0 0-.28.39.84.84 0 0 0-.5.21 2 2 0 0 1 .94.46 1 1 0 0 1 .4-.22v.37h.27a4.27 4.27 0 0 1 1.48.26 2.35 2.35 0 0 0-1.3-.41v-.27c1.17 0 1.64.56 2.42.56a2.57 2.57 0 0 0 1.51-.72 2.57 2.57 0 0 0-1.47-.75zm2.56-1.12a3 3 0 0 0-.3-1.11h-.09v1.08a1.11 1.11 0 0 1-.71 1 3.18 3.18 0 0 0 .38.5 2.57 2.57 0 0 0 .72-1.47zm33.43-9.87v-.24l-.45-.14v.38h.45zm-41.32 11.8a1.94 1.94 0 0 1 .42-.13.83.83 0 0 0-.42-.2zm9.44.57V165a1.74 1.74 0 0 0-.43-.06 2.57 2.57 0 0 0-1.51.72 2.57 2.57 0 0 0 1.51.72 1.74 1.74 0 0 0 .43-.06zm-7.9-2.53v-.28h-.07a1.24 1.24 0 0 1 .07-.29v-.52h-.2a3.33 3.33 0 0 0-.14.81h-.27a3.25 3.25 0 0 1 .1-.81h-.52a3.25 3.25 0 0 1 .1.81h-.27a3.33 3.33 0 0 0-.14-.81h-.2v.52a1.23 1.23 0 0 1 .07.29h-.07v.49h.55a.88.88 0 0 1-.41.56.55.55 0 0 0 .39.28.83.83 0 0 0 .24.54.83.83 0 0 0 .23-.54.55.55 0 0 0 .39-.28.88.88 0 0 1-.41-.56h.57a1.11 1.11 0 0 1-.01-.21zm-26.58 15.33l.42.07a.81.81 0 0 0-.22-.41.8.8 0 0 0-.2.34zm-.93-1.29a.88.88 0 0 1-.56.41v-.88h-.45v.39c-.21 0-.6-.11-.6-.45a.34.34 0 0 1 0-.18l-.82-.12h-.15c-.1.86 1.12 1 1.53 1v.27c-1.17 0-1.64-.56-2.42-.56a2.57 2.57 0 0 0-1.51.72l.11.1c1 0 2 .09 2.93.19a3.25 3.25 0 0 1 .89-.12v.22l.45.06v-.22a1 1 0 0 1 .47.29h.21a.5.5 0 0 0 .15-.3.32.32 0 1 0 0-.47.55.55 0 0 0-.23-.35zm5.69 1.35a2.15 2.15 0 0 0 1.18-.44h-.06c-.88-.21-1.74-.39-2.57-.57a3.26 3.26 0 0 1-1 .15V178h.24l-.69-.14v.37a.88.88 0 0 1-.56-.41.55.55 0 0 0-.28.39.32.32 0 1 0 0 .47.55.55 0 0 0 .28.39.88.88 0 0 1 .56-.41v.78l.45.09v-.39c.21 0 .6.11.6.45a.37.37 0 0 1 0 .06l.94.2c.06-.82-1.13-1-1.53-1v-.27c1.19.04 1.66.6 2.44.6zm-14.44-1.28c.42-.13.82-.39.76-.89v-.07a1.07 1.07 0 0 1-.82-.58.8.8 0 0 0-.46.22 1.84 1.84 0 0 1 .53 1.32zm0 .31v.5a29.67 29.67 0 0 1 3-.17l.09-.09a2.57 2.57 0 0 0-1.51-.72 7.24 7.24 0 0 0-1.58.48zm3.06-1.36h-.27a2.8 2.8 0 0 0 .69 1.28 2.82 2.82 0 0 0 .69-1.26zm6.31.62a.49.49 0 0 0 .28.14.83.83 0 0 0 .24.54.83.83 0 0 0 .23-.54zm6.2 2.83l1.38.35a1.72 1.72 0 0 0 0-.39 2.57 2.57 0 0 0-.72-1.51 2.57 2.57 0 0 0-.66 1.55zm15.21 3.47v.05l.45.06v-.11h-.45zm-.24-2.58c-.86-.1-1 1.12-1 1.53h-.27c0-1.17.56-1.64.56-2.42a1.51 1.51 0 0 0-.06-.41 6.4 6.4 0 0 1-.48-.9c-.1-.13-.17-.2-.17-.2a2.57 2.57 0 0 0-.72 1.51c0 .78.56 1.25.56 2.42h-.27c0-.41-.17-1.64-1-1.53a.76.76 0 0 0 0 1.5s-.16-.57.3-.57.43.39.45.6h-.41v.45h.86a1.05 1.05 0 0 1-.16.33l.88.15a1 1 0 0 1-.29-.48h.89v-.45h-.4c0-.21.11-.6.45-.6s.3.57.3.57a.76.76 0 0 0-.02-1.5zm-6.38-.3a.3.3 0 0 1-.32.32c-.29 0-.39-.29-.43-.5l-.29-.07c0 .44.18 1.6 1 1.5a.74.74 0 0 0 .56-1.12zm-3.84-.95a.45.45 0 0 1-.25-.06l-1-.26a.73.73 0 0 0 0 .3.75.75 0 0 0 1.48.07zm2.67.66l-1.41-.35v.35h.4c0 .21-.11.6-.45.6s-.3-.57-.3-.57a.77.77 0 0 0-.63 1l1.2.31a2.24 2.24 0 0 0 .45-1.34h.27a3.67 3.67 0 0 1-.32 1.45l1 .26a4.38 4.38 0 0 1-.42-1.71zm2.71 2.29l1.13.24a.79.79 0 0 0-1.13-.24zm-36.72-9.73v-.43l-.45.29v.14h.45zm.29-16.66a1.47 1.47 0 0 0 .77-.35.85.85 0 0 0-.57-.55 2.81 2.81 0 0 1-.61.81.55.55 0 0 0 .33.11zm-.77 17.01s-.45.12-.55-.18a7.67 7.67 0 0 1-.76.33v.29a.77.77 0 0 0 1.31-.44zM72.67 155a1.52 1.52 0 0 0-.42-1 1.73 1.73 0 0 0-.18.72 3.32 3.32 0 0 0 .32 1.18 1.48 1.48 0 0 0 .28-.9zm-2.61 22a.7.7 0 0 0-.7-.66 9.51 9.51 0 0 0 .16 1.47.77.77 0 0 0 .54-.81zm2.1-16.61a.87.87 0 0 1 .41.56h-.65c.15.14.29.29.43.45h.27v.3a7.79 7.79 0 0 1 .47.64 3.26 3.26 0 0 1-.14-.94h.27c0 .41.17 1.64 1 1.53h.12v-1.45h-.12s.16.57-.3.57-.43-.39-.45-.6h.41V161H73a.88.88 0 0 1 .41-.56.55.55 0 0 0-.39-.28.83.83 0 0 0-.24-.54.83.83 0 0 0-.23.54.55.55 0 0 0-.39.23zm-2.57 17.74a2.28 2.28 0 0 0 .38.81 2 2 0 0 0 2.49-.47 2.57 2.57 0 0 0-1.51-.72 4.26 4.26 0 0 0-1.36.38zm6.47-1.76l-.14.06h-.05a.71.71 0 0 0-.35.56.68.68 0 0 0 .1.47l.85-.32c.09-.21.37-.18.49-.16a.77.77 0 0 0-.9-.61zm3.47-1.12l-.6.15a3.26 3.26 0 0 1 .13.92h-.27a3.28 3.28 0 0 0-.15-.84c-.51.14-1 .27-1.42.44a.72.72 0 0 0 .55.36s-.16-.57.3-.57.43.39.45.6h-.41v.34q.68-.19 1.38-.34h-.11a3.3 3.3 0 0 1 .15-1.06zm-6.77 3.57zm7.89-4.04c-.84-.1-1 1.06-1 1.5l.28-.06c0-.22.14-.51.44-.51s.34.26.32.43h.26a.76.76 0 0 0-.3-1.36zm-7.53 3.68l.11.1q.83-.43 1.67-.79h-.28a2.57 2.57 0 0 0-1.5.69zm76.88-1.61h-1.1a2.82 2.82 0 0 0 .69 1.26 2.8 2.8 0 0 0 .7-1.28zm4.83-2.05a.74.74 0 0 0-.27 0 .76.76 0 0 0-.28 1.41h.26c0-.17 0-.43.32-.43s.4.3.44.51l.28.06a2.57 2.57 0 0 0-.32-1.16 1.11 1.11 0 0 1-.43-.39zm-1.93 1.85a1.11 1.11 0 0 1-.56.28v.07c-.06.5.34.76.76.89a1.87 1.87 0 0 1 .36-1.13 1.64 1.64 0 0 1 .18-.2.81.81 0 0 0-.49-.22 1.11 1.11 0 0 1-.25.31zm3.69-1.17a3.29 3.29 0 0 0-.15.83h-.27a3.26 3.26 0 0 1 .13-.91l-.62-.15a3.3 3.3 0 0 1 .18 1.07h-.11q.7.15 1.37.34v-.34h-.4c0-.21.11-.6.45-.6s.3.57.3.57a.72.72 0 0 0 .54-.35c-.49-.18-.95-.33-1.42-.46zm-82.67-15.6a.88.88 0 0 1 .56-.41v.88a4.64 4.64 0 0 1 .52-1.25h-.07v-.27h.25a5.2 5.2 0 0 1 1.21-1.26.75.75 0 0 0-1.07-.29 4.74 4.74 0 0 1-.34.51s.57-.16.57.3-.39.43-.6.45v-.39h-.29v.05l-.11.1v.7a1 1 0 0 1-.5-.32l-.31.2a.47.47 0 0 0 0 .1.81.81 0 0 0-.24.05l-.13.06a.77.77 0 0 0-.16.12.83.83 0 0 0 .54.23.55.55 0 0 0 .17.44zm85.44 16.58l-.22-.09a.77.77 0 0 0-.95.61c.12 0 .4 0 .49.16l.85.32a.68.68 0 0 0 .1-.47.72.72 0 0 0-.27-.53zm-9.42 2l.1.09a29.7 29.7 0 0 1 3 .17v-.5a7.26 7.26 0 0 0-1.64-.47 2.57 2.57 0 0 0-1.46.71zm10.35-.69q.84.36 1.67.79l.11-.1a2.57 2.57 0 0 0-1.51-.72zm4.84-.77a.77.77 0 0 0 .55.82 9.5 9.5 0 0 0 .16-1.47.7.7 0 0 0-.71.65zm.01-3.67c-.1.3-.55.18-.55.18a.77.77 0 0 0 1.3.44v-.29a7.67 7.67 0 0 1-.75-.33zm-2.4 5.13a2 2 0 0 0 2.49.47 2.28 2.28 0 0 0 .38-.8 4.27 4.27 0 0 0-1.36-.39 2.57 2.57 0 0 0-1.51.72zm-17.39-.16v-.3c.41 0 1.64-.17 1.53-1h-.22l-.76.08a.32.32 0 0 1 .07.21c0 .33-.39.43-.6.45v-.39h-.45v.88a.88.88 0 0 1-.56-.41.55.55 0 0 0-.28.39.32.32 0 1 0 0 .47.5.5 0 0 0 .15.3h.21a1 1 0 0 1 .47-.29v.22l.45-.06v-.22a3.25 3.25 0 0 1 .89.12c1-.1 2-.16 2.93-.19l.11-.09a2.57 2.57 0 0 0-1.51-.72c-.78-.01-1.27.55-2.43.55zm17.05.5zm-36.94 2.39c-.86-.1-1 1.12-1 1.53h-.27c0-1.17.56-1.64.56-2.42a2.57 2.57 0 0 0-.72-1.51l-.15.17a6.32 6.32 0 0 1-.52 1 1.48 1.48 0 0 0 0 .36c0 .78.56 1.25.56 2.42h-.27c0-.41-.17-1.64-1-1.53a.76.76 0 0 0 0 1.5s-.16-.57.3-.57.43.39.45.6h-.41v.45h.89a1 1 0 0 1-.29.48l.88-.15a1.05 1.05 0 0 1-.16-.33h.89v-.45h-.4c0-.21.11-.6.45-.6s.3.57.3.57a.76.76 0 0 0-.09-1.52zm-3.6 2.58v.11l.45-.06v-.05h-.45zm-8.49-.36s.57-.16.57.3a.34.34 0 0 1-.08.23l.79.08a.68.68 0 0 0 .22-.61.76.76 0 0 0-1.5 0zm12.9-.28l1.13-.24a.79.79 0 0 0-1.13.24zm-8.61-.65H117a1.84 1.84 0 0 0-.09.55 2.11 2.11 0 0 0 .41 1.13h.61a2.11 2.11 0 0 0 .41-1.13 1.84 1.84 0 0 0-.09-.54zm2.66.93a.68.68 0 0 0 .22.61l.79-.08a.34.34 0 0 1-.08-.23c0-.46.57-.3.57-.3a.76.76 0 0 0-1.5 0zm9.35-2.67c0 .21-.16.46-.43.46a.3.3 0 0 1-.32-.29l-.55.13a.73.73 0 0 0 .57 1.09c.82.1 1-1 1-1.46zm7-1.8a2.35 2.35 0 0 0-.58 1.36 1.72 1.72 0 0 0 0 .39l1.38-.35a2.42 2.42 0 0 0-.63-1.42zm5.4-1.11a.87.87 0 0 1-.56.41v-.88h-.45v.39c-.21 0-.61-.11-.61-.45s.57-.3.57-.3a.76.76 0 0 0-.86-.65v.86a1.11 1.11 0 0 1-.16.57 2.9 2.9 0 0 0 1.05.24v.27a3.44 3.44 0 0 1-1.28-.25 1.11 1.11 0 0 1-.48.25l-1.83.44a2.15 2.15 0 0 0 1.17.44c.78 0 1.25-.56 2.42-.56v.27c-.41 0-1.6.16-1.53 1l.94-.2a.36.36 0 0 1 0-.06c0-.33.39-.43.61-.45v.39l.45-.09v-.78a.88.88 0 0 1 .56.41.55.55 0 0 0 .28-.39.32.32 0 1 0 0-.47.55.55 0 0 0-.29-.41zm-10.21 2.81s.16.57-.3.57-.43-.39-.45-.6h.41v-.33h-.11l-1.16.29a4.38 4.38 0 0 1-.42 1.71l1-.26a3.67 3.67 0 0 1-.32-1.45h.27a2.24 2.24 0 0 0 .45 1.34l1.2-.31a.77.77 0 0 0-.57-.96zm11.14-1.45l.42-.07a.8.8 0 0 0-.2-.34.82.82 0 0 0-.22.41zm-10.46-.3v-.27c1.14 0 1.61.53 2.36.56a1.1 1.1 0 0 1-.71-1v-.23a4.18 4.18 0 0 1-1.65.4V178c.41 0 1.64-.17 1.53-1a.76.76 0 0 0-1.5 0s.57-.16.57.3-.39.43-.6.45v-.39h-.3v1.88a1.11 1.11 0 0 1-.05.34h.35v-.39c.21 0 .6.11.6.45s-.57.3-.57.3a.76.76 0 0 0 1.5 0c.11-.88-1.07-1.03-1.53-1.05zm11.25-1.5l-.79.14h-.2a.47.47 0 0 0 .17.06.32.32 0 1 0 .47 0 .52.52 0 0 0 .35-.2zM135 157a.73.73 0 0 0 .31.11s-.16-.57.3-.57.43.39.45.6h-.41v.45h.56a4.78 4.78 0 0 1 .71-.45c0-1.14.54-1.62.56-2.37a2.38 2.38 0 0 1-1.31.42h-.06a5.85 5.85 0 0 1 .5 2h-.27c0-.41-.17-1.64-1-1.53a.75.75 0 0 0-.49 1.22 1.11 1.11 0 0 1 .15.12zm-8.86-11.66h-.45v.88a.88.88 0 0 1-.56-.41.55.55 0 0 0-.28.39.32.32 0 1 0 0 .47.55.55 0 0 0 .28.39.87.87 0 0 1 .56-.41v.68a6.2 6.2 0 0 1 .66-1.06h-.21V146a3.75 3.75 0 0 0 .49-.06 6.13 6.13 0 0 1 1-.94.76.76 0 0 0-1.5 0s.57-.16.57.3-.39.43-.6.45v-.39zm4.45 2.21a2.75 2.75 0 0 0-.87.46 1.45 1.45 0 0 0 0 .28l.68-.56zm-1.64 8.98a.75.75 0 0 0 .79-.5 6 6 0 0 1-1.39-.53.73.73 0 0 0 .6 1.03zm0-5.85s-.16-.57.3-.57.43.39.45.6h-.41v.45h.89a.88.88 0 0 1-.41.56.55.55 0 0 0 .39.28.32.32 0 1 0 .47 0 .55.55 0 0 0 .39-.28.87.87 0 0 1-.41-.56h.89v-.45h-.4a1.13 1.13 0 0 1 .1-.36 2.76 2.76 0 0 1-.29-.22 3.64 3.64 0 0 0-.08.58h-.27a3.25 3.25 0 0 1 .1-.82 3.94 3.94 0 0 1-.56-.77l-.42-.74c0 .73.55 1.21.56 2.34H130c0-.41-.17-1.64-1-1.53h-.13a2.75 2.75 0 0 0-.17 1.37.73.73 0 0 0 .25.12zm2.31 1.94a.83.83 0 0 0-.54.24.78.78 0 0 0 .19.14 2.7 2.7 0 0 0 1.82-.3h-.18v-.27a3.5 3.5 0 0 0 .69-.11 1.46 1.46 0 0 0 .3-1.55h-.45a.73.73 0 0 0-.51.61s.57-.16.57.3-.39.43-.6.45v-.39h-.45v.88a.88.88 0 0 1-.56-.41.55.55 0 0 0-.28.41zm.6-1.97zm25.28 2.83l.05-.08-.23-.08a.6.6 0 0 0 .18.16zm-31.75-12.79c-.2-.33-.4-.67-.59-1a3.14 3.14 0 0 0-.47.37 3 3 0 0 0 1.06.63zm-.96 3.62h-.27c0-1.17.56-1.64.56-2.42a2.57 2.57 0 0 0-.72-1.51 3 3 0 0 0-.27.33v2.74a3.25 3.25 0 0 1 .11.86h-.11v.45h.06a1.16 1.16 0 0 1-.06.15v.68a.32.32 0 1 0 .47 0 .55.55 0 0 0 .39-.28.87.87 0 0 1-.41-.56h.89v-.45h-.4c0-.21.11-.6.45-.6s.3.57.3.57a.76.76 0 0 0 0-1.5c-.82-.1-.97 1.13-.99 1.54zm-.7-4.92a3 3 0 0 0 .27.33 3.2 3.2 0 0 0 .48-.66 12.59 12.59 0 0 1-.75-1.81zm20.93 17.14a.73.73 0 0 0 .61-1 4 4 0 0 1-.62.05h-.29a.35.35 0 0 1-.14 0l-.52-.06c.1.48.35 1.08.96 1.01zm1.54 1.4a4.89 4.89 0 0 1 .72.82l.36.06v-.29c-.2-.05-.43-.16-.43-.42s.26-.34.43-.32v-.06a1.12 1.12 0 0 1 0-.23.75.75 0 0 0-1.36.24zm4.12-6.86h-.52a3.31 3.31 0 0 0-.9.12 2.71 2.71 0 0 0 .71 1.37 2.63 2.63 0 0 0 .71-1.49zm-2.12 5.55a.3.3 0 0 1 .25-.11.34.34 0 0 1 .23.09h.42c-.1-.5-.35-1.09-1-1a.75.75 0 0 0-.45 1.27 1.1 1.1 0 0 1 .55-.25zm.36-4.27a4 4 0 0 1-.42 1.17 2.93 2.93 0 0 0 1.14-.66 3.19 3.19 0 0 0-.72-.51zm6.82 1.65a.87.87 0 0 1 .41.56h-.89v.44h.4c0 .21-.11.6-.45.6s-.3-.57-.3-.57a.76.76 0 0 0 0 1.5c.86.1 1-1.12 1-1.53h.27a4 4 0 0 1-.38 1.6h.47a5 5 0 0 1 .61 0 4.15 4.15 0 0 1-.39-1.64h.27c0 .41.17 1.64 1 1.53a.76.76 0 0 0 0-1.5s.16.57-.3.57-.43-.39-.45-.6h.41v-.45h-.89a.88.88 0 0 1 .41-.56.55.55 0 0 0-.39-.28.32.32 0 1 0-.47 0 .55.55 0 0 0-.34.33zm-3.93-1.86a2.57 2.57 0 0 0-1.51.72 2.57 2.57 0 0 0 1.51.72c.78 0 1.25-.56 2.42-.56v.27c-.41 0-1.64.17-1.53 1a.76.76 0 0 0 1.5 0s-.57.16-.57-.3.39-.43.61-.45v.46h.45v-.88a.88.88 0 0 1 .56.41.55.55 0 0 0 .28-.39.83.83 0 0 0 .54-.24l-.83-.33-.13-.05a1 1 0 0 1-.38.2v-.36l-.45-.18a.77.77 0 0 1-.55-.26l-1-.35c0 .73 1.15.86 1.54.88v.27c-1.21-.03-1.68-.58-2.46-.58zm-14.88-.28a2.53 2.53 0 0 1 .56.26 2.73 2.73 0 0 0 .26-.49l-.72-.7-.12-.12a4.41 4.41 0 0 1 0 .62q.04.22.02.43zm4.43 2.65l-.37-.23h-.05q-.4-.26-.79-.55a.68.68 0 0 0-.22.61.76.76 0 0 0 1.43.17zm-29.53-15.12v-2.14a12.59 12.59 0 0 1-.75 1.81 3.2 3.2 0 0 0 .47.66 3 3 0 0 0 .28-.33zm26.83 14.14a1.47 1.47 0 0 0 .34 0 2.1 2.1 0 0 0 .74-.16c-.46-.37-.9-.76-1.34-1.16a2.65 2.65 0 0 0-.45.23 2.87 2.87 0 0 1 .48.63zm4.54 3.07a5 5 0 0 1 .93.09 5.5 5.5 0 0 1-.38-1.22l-.37-.09a4.64 4.64 0 0 1-.35 1.22zm-1.09-.07c.7.08.92-.71 1-1.23l-.29-.09c-.05.19-.17.4-.41.4-.46 0-.3-.57-.3-.57a.76.76 0 0 0 0 1.49zm-49.39.07h.18a4.73 4.73 0 0 1-.36-1.24l-.37.09a4.9 4.9 0 0 1-.34 1.13zm-1.82-.07c.61.07.86-.52 1-1l-.52.06a.35.35 0 0 1-.14 0h-.29a4 4 0 0 1-.63-.05.73.73 0 0 0 .58.99zm-4.54.58h-.27c0-1.17.56-1.64.56-2.42a2.57 2.57 0 0 0-.72-1.51 2.57 2.57 0 0 0-.72 1.51c0 .78.56 1.25.56 2.42h-.21a5.06 5.06 0 0 1 .72.45h.78v-.45h-.4c0-.21.11-.6.45-.6s.3.57.3.57a.76.76 0 0 0 0-1.5c-.86-.1-1.05 1.12-1.05 1.53zm-10-2.19a.77.77 0 0 0 1-.61s-.57.16-.57-.3a.36.36 0 0 1 0-.13l-.55.13a4.8 4.8 0 0 1 .07.8s.05.07.05.11zm20.9-1.39l.22-.4a2.87 2.87 0 0 1 .48-.63 2.64 2.64 0 0 0-.45-.23c-.43.4-.88.79-1.34 1.16a2.09 2.09 0 0 0 .74.16 1.47 1.47 0 0 0 .35-.06zm-1.23.78a.68.68 0 0 0-.22-.61c-.26.19-.52.38-.79.55l-.41.25a.76.76 0 0 0 1.42-.19zm14.73-14.62c-.19.34-.38.68-.59 1a3 3 0 0 0 1.06-.64 3.14 3.14 0 0 0-.47-.36zm-23.34 13.83a4 4 0 0 1-.42-1.17 3.18 3.18 0 0 0-.72.5 2.93 2.93 0 0 0 1.14.67zm-9.33 3.01c.86.1 1-1.12 1-1.53H79a4.13 4.13 0 0 1-.39 1.64 5 5 0 0 1 .59 0h.5a4 4 0 0 1-.38-1.6h.27c0 .41.17 1.64 1 1.53a.76.76 0 0 0 0-1.5s.16.57-.3.57-.43-.39-.45-.6h.41v-.45h-.89a.88.88 0 0 1 .41-.56.55.55 0 0 0-.39-.28.83.83 0 0 0-.24-.54.83.83 0 0 0-.23.54.55.55 0 0 0-.39.28.87.87 0 0 1 .41.56h-.89v.41h.4c0 .21-.11.6-.45.6s-.3-.57-.3-.57a.76.76 0 0 0 .04 1.5zm8.57-5.38a3.31 3.31 0 0 0-.9-.12h-.52a2.63 2.63 0 0 0 .71 1.46 2.71 2.71 0 0 0 .71-1.34zM77.5 154v-.38l-.45.14v.24h.45zm.74-.68l-.23.08.05.08a.6.6 0 0 0 .18-.16zm2.08.16a.88.88 0 0 1 .56-.41v.88h.45v-.39c.21 0 .6.11.6.45s-.57.3-.57.3a.76.76 0 0 0 1.5 0c.1-.86-1.12-1-1.53-1V153c1.17 0 1.64.56 2.42.56a2.57 2.57 0 0 0 1.51-.72 2.57 2.57 0 0 0-1.51-.72c-.78 0-1.25.56-2.42.56v-.27c.39 0 1.5-.15 1.54-.88l-1 .35a.77.77 0 0 1-.55.25l-.45.18v.35a1 1 0 0 1-.38-.2l-.13.05-.83.33a.83.83 0 0 0 .54.23.55.55 0 0 0 .25.41zm13.13 3.05a.76.76 0 0 0 0-1.5s.16.57-.3.57c-.24 0-.35-.2-.41-.4l-.29.09c.07.53.3 1.32 1 1.24zm4.55.58c0-.41-.17-1.64-1-1.53a.76.76 0 0 0 0 1.5s-.16-.57.3-.57.43.39.45.6h-.41v.45h.89a.88.88 0 0 1-.41.56.55.55 0 0 0 .39.28.83.83 0 0 0 .23.53v-1.22a1.11 1.11 0 0 1 .18-.6 5.85 5.85 0 0 1 .5-2H99a2.38 2.38 0 0 1-1.31-.42c0 .76.55 1.23.56 2.38zm10.47-2.8a6.16 6.16 0 0 1-.78.7.71.71 0 0 0 .78-.7zm-2.96-6.03a1.45 1.45 0 0 0 0-.28 2.75 2.75 0 0 0-.87-.45l.22.17zm.74 8.25a.73.73 0 0 0 .6-1 6 6 0 0 1-1.39.53.75.75 0 0 0 .79.47zm2.32-10.53a3.75 3.75 0 0 0 .48.06v.27h-.21a6.19 6.19 0 0 1 .66 1.06v-.68a.88.88 0 0 1 .56.41.55.55 0 0 0 .28-.39.32.32 0 1 0 0-.47.55.55 0 0 0-.28-.39.88.88 0 0 1-.56.41v-.88h-.45v.39c-.21 0-.6-.11-.6-.45s.57-.3.57-.3a.76.76 0 0 0-1.5 0 6.13 6.13 0 0 1 1.05.96zm1.17-1.72s-.16-.57.3-.57.43.39.45.6h-.41v.45h.92a.88.88 0 0 1-.41.56.55.55 0 0 0 .39.28.83.83 0 0 0 .24.54.83.83 0 0 0 .23-.54v-.67a1.15 1.15 0 0 1-.06-.16h.06v-.45h-.12a3.25 3.25 0 0 1 .12-.86v-2.73a3 3 0 0 0-.27-.34 2.57 2.57 0 0 0-.72 1.51c0 .78.56 1.25.56 2.42h-.27c0-.41-.17-1.64-1-1.53a.76.76 0 0 0-.01 1.49zm-.68 14.55v.27c-1.17 0-1.64-.56-2.42-.56a2.57 2.57 0 0 0-1.51.72 2.57 2.57 0 0 0 1.51.72c.78 0 1.25-.56 2.42-.56v.27c-.41 0-1.64.17-1.53 1a.76.76 0 0 0 1.5 0s-.57.16-.57-.3.39-.43.6-.45v.39h.45v-.88a.88.88 0 0 1 .56.41.55.55 0 0 0 .28-.39.32.32 0 1 0 0-.47.55.55 0 0 0-.28-.39.88.88 0 0 1-.56.41v-.88h-.45v.39c-.21 0-.6-.11-.6-.45s.57-.3.57-.3a.76.76 0 0 0-1.5 0c-.11.88 1.11 1.02 1.53 1.05zm-10.43-6.97v-.43a4.46 4.46 0 0 1 0-.62l-.12.12-.72.7a2.74 2.74 0 0 0 .26.49 2.53 2.53 0 0 1 .58-.26zm5.95-.7a.88.88 0 0 1-.41.56.55.55 0 0 0 .39.28.83.83 0 0 0 .24.54.83.83 0 0 0 .2-.54.55.55 0 0 0 .39-.28.88.88 0 0 1-.41-.56h.89v-.45h-.4c0-.21.11-.6.45-.6s.3.57.3.57a.73.73 0 0 0 .3-.11 2.75 2.75 0 0 0-.17-1.37h-.13c-.86-.1-1 1.12-1 1.53H105c0-1.12.52-1.6.56-2.33l-.41.74a3.94 3.94 0 0 1-.56.78 3.25 3.25 0 0 1 .1.82h-.27a3.64 3.64 0 0 0-.08-.58 2.75 2.75 0 0 1-.29.22 1.12 1.12 0 0 1 .1.36h-.41v.45h.89zm-5.29 5.46a.35.35 0 0 1 .26-.11.31.31 0 0 1 .24.09h.67a.73.73 0 0 0-.61-1c-.7-.08-.92.71-1 1.23a1.11 1.11 0 0 1 .44-.21zm3.36-4.2v.27h-.18a2.69 2.69 0 0 0 1.82.3.78.78 0 0 0 .19-.14.83.83 0 0 0-.54-.23.55.55 0 0 0-.28-.39.88.88 0 0 1-.56.41v-.88h-.45v.39c-.21 0-.6-.11-.6-.45s.57-.3.57-.3a.73.73 0 0 0-.51-.62h-.44a1.46 1.46 0 0 0 .3 1.55 3.5 3.5 0 0 0 .68.09zm.69-1.77z" transform="translate(-59.66 -125.99)"/><path class="cls-2" d="M85 185.77l-1-2.51v2.45a.21.21 0 0 1-.24.24h-.47a.2.2 0 0 1-.24-.23v-4.66a.21.21 0 0 1 .24-.24h.62a.21.21 0 0 1 .22.14l1 2.52V181a.21.21 0 0 1 .24-.24h.47a.2.2 0 0 1 .16.24v4.66a.21.21 0 0 1-.23.24h-.62a.21.21 0 0 1-.15-.13zm5.05.46l-1.33-.14a1 1 0 0 1-.9-1v-4q0-.24.23-.21l2 .21a.23.23 0 0 1 .23.26v.48q0 .23-.23.21l-1.26-.13v1.14l1.06.11a.23.23 0 0 1 .23.26v.48q0 .24-.23.21l-1.08-.11v1.14l1.28.14a.23.23 0 0 1 .23.26v.46q.01.26-.23.23zm6.4-3.66l-.77 4.51a.17.17 0 0 1-.22.15l-.57-.12a.26.26 0 0 1-.22-.23l-.4-2.12-.4 1.95a.17.17 0 0 1-.22.14l-.57-.12a.27.27 0 0 1-.23-.24l-.76-4.83a.19.19 0 0 1 .05-.18.18.18 0 0 1 .18 0l.48.1a.27.27 0 0 1 .23.25l.35 2.5.47-2.34a.17.17 0 0 1 .23-.14l.39.08a.27.27 0 0 1 .22.24l.47 2.54.35-2.35q0-.19.23-.15l.49.1a.29.29 0 0 1 .18.12.28.28 0 0 1 .04.14zm6.55 6.57l-1-.27a1.19 1.19 0 0 1-.64-.45 1.18 1.18 0 0 1-.28-.73v-3.25a.7.7 0 0 1 .28-.59.71.71 0 0 1 .64-.12l1 .27a1.21 1.21 0 0 1 .64.45 1.18 1.18 0 0 1 .28.74v3.24a.69.69 0 0 1-.28.59.72.72 0 0 1-.64.12zm0-.95V185l-1-.27v3.24zm5.34 2.23l-.5-.11a.28.28 0 0 1-.21-.2l-.73-2.11-.27-.06v1.86q0 .24-.23.18l-.47-.11a.27.27 0 0 1-.23-.29v-4.66q0-.24.23-.18l1.63.37a1.17 1.17 0 0 1 .65.43 1.15 1.15 0 0 1 .28.73v1.14a.74.74 0 0 1-.63.75l.69 2a.21.21 0 0 1 0 .21.18.18 0 0 1-.21.05zm-.78-3.22v-1.14l-.94-.21V187zm4.89 3.97l-1.2-.19a1.1 1.1 0 0 1-.89-1v-4q0-.24.23-.2l.47.08a.25.25 0 0 1 .23.27v4l1.15.18a.25.25 0 0 1 .23.27v.42q.01.2-.22.17zm4.25.38l-1.33-.08a1 1 0 0 1-.9-1v-4a.2.2 0 0 1 .23-.22l2 .12a.22.22 0 0 1 .23.25v.48q0 .23-.23.22l-1.27-.07v1.14l1.06.06a.22.22 0 0 1 .23.25v.48a.2.2 0 0 1-.23.22l-1.06-.06v1.14l1.29.08a.22.22 0 0 1 .23.25v.48a.2.2 0 0 1-.25.26zm4.37-.37l-.19-.94-1 .08-.19 1a.24.24 0 0 1-.23.21h-.49a.21.21 0 0 1-.23-.26l.93-4.74a.23.23 0 0 1 .23-.21l.94-.08a.19.19 0 0 1 .23.17L122 191a.24.24 0 0 1 0 .2.25.25 0 0 1-.18.1h-.49a.19.19 0 0 1-.26-.12zm-.38-1.87l-.31-1.51-.31 1.56zm5.02 1.19l-1-2.36v2.45a.26.26 0 0 1-.23.28l-.48.13q-.23 0-.23-.19v-4.66a.26.26 0 0 1 .23-.28l.61-.12a.18.18 0 0 1 .22.11l1 2.36v-2.46a.26.26 0 0 1 .23-.28l.46-.09q.23 0 .23.19v4.66a.25.25 0 0 1-.23.28l-.61.12a.17.17 0 0 1-.2-.14zm4.66-.9l-.93.23a.72.72 0 0 1-.65-.12.71.71 0 0 1-.28-.6v-.18a.27.27 0 0 1 .23-.29l.47-.12q.23-.06.23.18v.18l.93-.23v-1.15l-.93.23a.72.72 0 0 1-.92-.72v-1.15a1.32 1.32 0 0 1 .92-1.18l.93-.23a.72.72 0 0 1 .92.72v.16a.27.27 0 0 1-.23.29l-.47.12q-.23.06-.23-.18v-.15l-.93.23v1.14l.93-.23a.72.72 0 0 1 .92.72v1.15a1.16 1.16 0 0 1-.28.73 1.18 1.18 0 0 1-.63.45z" transform="translate(-59.66 -125.99)"/><path class="cls-3" d="M133.35 186.24a.94.94 0 0 1 .68-.88.51.51 0 0 1 .68.52.94.94 0 0 1-.68.88.51.51 0 0 1-.68-.52z" transform="translate(-59.66 -125.99)"/><path class="cls-2" d="M138.65 185.39l-.94.23v1.14l1.64-.4q.23-.05.23.18v.46a.27.27 0 0 1-.23.29l-2.34.56q-.23.05-.23-.18v-1.86a1.16 1.16 0 0 1 .28-.73 1.18 1.18 0 0 1 .65-.44l.94-.23v-1.14l-.94.23v.15a.27.27 0 0 1-.23.29l-.48.11q-.23.05-.23-.18v-.15a1.16 1.16 0 0 1 .28-.73 1.18 1.18 0 0 1 .65-.44l.94-.23a.72.72 0 0 1 .65.13.71.71 0 0 1 .28.6v1.14a1.17 1.17 0 0 1-.28.74 1.19 1.19 0 0 1-.64.46zm4.61 1.14l-1 .18a.77.77 0 0 1-.65-.16.75.75 0 0 1-.28-.61v-3.25a1.09 1.09 0 0 1 .28-.71 1.1 1.1 0 0 1 .66-.4l1-.18a.77.77 0 0 1 .65.17.75.75 0 0 1 .29.61v3.24a1.08 1.08 0 0 1-.28.72 1.11 1.11 0 0 1-.67.39zm0-.95v-3.24l-1 .18v3.24zm3.74.42h-.48q-.23 0-.23-.21v-3.73q-.23 0-.23-.21v-.55a.25.25 0 0 1 .15-.24l.39-.18h.44q.23 0 .23.21v4.66a.23.23 0 0 1-.27.25zm5.12-4.51l-1.25 4.28a.21.21 0 0 1-.23.16h-.5a.23.23 0 0 1-.19-.1.22.22 0 0 1 0-.21l1.19-3.85h-.93v.15a.2.2 0 0 1-.24.23h-.48a.21.21 0 0 1-.23-.24V181a.2.2 0 0 1 .23-.23l2.27.06a.23.23 0 0 1 .21.14l.18.36a.24.24 0 0 1-.03.16z" transform="translate(-59.66 -125.99)"/><path class="cls-1" d="M120.26 132.7h-5.32a2.35 2.35 0 0 0-2.35 2.35v18a2.36 2.36 0 0 0 2.35 2.36h5.32a2.36 2.36 0 0 0 2.36-2.36v-18a2.36 2.36 0 0 0-2.35-2.35" transform="translate(-59.66 -125.99)"/><path class="cls-6" d="M120 152.73c-.29-.26-.1-.37-.11-.47-.19-.79-.82-1.26-.49-1.52-.08-.26-.24-.59-.24-.59a9.8 9.8 0 0 1-1.94-1.6c-.17-.19-.46-.37-.52-.52a15.37 15.37 0 0 1-1.65-2.44l-.47-.07c-.21-.87-.92-1.59-.94-2.46a4.85 4.85 0 0 1 .21-1.17 1.56 1.56 0 0 1 .33-.38v-.23c-1 0-.72-.07-.9-.47s0-.33 0-.52a11.54 11.54 0 0 1 .78-1.82c.06-.2.25-.68.25-.68.76-1.54 1-1.43 1.94-1.52v-.06c.9 0 .75-.11.88-1-.13.06-.17-.27-.17-.27-.07-.49.14-.4.24-.41 0-.81.1-1.07.69-1.29h-3a1.8 1.8 0 0 0-1.8 1.8v18a1.8 1.8 0 0 0 1.8 1.8h5.32c-.61-.33-.25-1-.23-2.15" transform="translate(-59.66 -125.99)"/><path class="cls-7" d="M118.94 136.87v.08c.16.09.24.17.41.28.43.27 1 .76.9 2.43.12.36.18 1.08.29 1.31a3.69 3.69 0 0 1 .44 1.16s.07.66.15.71c.45.1.32.15.38.22s.33.09.33.33a1.57 1.57 0 0 1 .21.38v-8.71a1.8 1.8 0 0 0-1.8-1.8h-1.72a.82.82 0 0 1 .52.4c.22 0 .49.52.07 1.25.18.12 0 .3-.09.51s-.08.19-.2.18c-.16.33-.34.65-.49.67a.23.23 0 0 0 0 .26 2.43 2.43 0 0 1 .59.34m3.13 8.07a1.6 1.6 0 1 1-1.87-2.15c-.18-.46-.57-1.21-.69-1.46s-.37-1.77-.43-2.07c0-.07-.69.39-.69.42s-.51 1.26-.53 1.33a1.9 1.9 0 0 0 0 .21s.23 0 .36.43.53 1.87.53 1.87a1 1 0 0 1-.11.11c.51 1.7.33 2.43.56 2.92.29.7.36.61.61 1.2.18.43.37 2.12.44 2.19a1.57 1.57 0 0 1 .42.81 4.13 4.13 0 0 0-.15 1.12c.05.2.08.65.17.73s.09.17 0 .24 0 .06 0 .1c.15.53.64 1.44-.15 1.92a1.79 1.79 0 0 0 1.51-1.78z" transform="translate(-59.66 -125.99)"/><path class="cls-1" d="M56.04 24.94h-.54v1.59h-.01l-.02-.1-.42-1.49h-.61v2.7h.54v-1.67l.02.1.43 1.57h.61v-2.7z"/><path class="cls-1" d="M116.74 153.17h-.18v-.73h.2c.19 0 .22.18.22.36s0 .37-.23.37m-.18-1.78h.19c.15 0 .19.11.19.3s0 .31-.21.31h-.17zm.57.82c.3-.1.34-.35.34-.63 0-.46-.22-.64-.67-.64h-.88v2.69h.9c.55 0 .72-.35.72-.8s-.1-.56-.41-.62m1.15.41l.16-1.21v-.07.07l.14 1.21zm.57-1.68H118l-.5 2.7h.62l.07-.59h.43l.06.59h.65z" transform="translate(-59.66 -125.99)"/><path class="cls-3" d="M47.95 38.38l.84 2.58h2.71l-2.19 1.59.84 2.58-2.2-1.59-2.19 1.59.84-2.58-2.2-1.59h2.72l.83-2.58z"/><path class="cls-1" d="M92.36 172.92c2.23.32 3.34.54 5.57 1v3.73c-3.13-.73-6.12-1.31-9.31-1.73v-8.34a.87.87 0 0 1-.61-.79.78.78 0 0 1 .61-.74v-8.34h3.74v8.58a.94.94 0 0 1 .58.83.75.75 0 0 1-.58.72zm-5.6-6.92a.84.84 0 0 1 .58.76.79.79 0 0 1-.58.73v8.28a25.21 25.21 0 0 0-3.74.06v-7.41a34.47 34.47 0 0 0-3.77.34v5.41a19.63 19.63 0 0 0-3.76 1.23v-6.89a.67.67 0 0 1-.61-.7 1.15 1.15 0 0 1 .61-1v-5.39a3.63 3.63 0 0 1 1.13-2.62 3.57 3.57 0 0 1 2.62-1.11H83a3.78 3.78 0 0 1 2.61 1 3.14 3.14 0 0 1 1.16 2.35zM83 161.59h-3.76v3.76c1.5-.14 2.28-.18 3.77-.23zm20.23 7.65a.81.81 0 0 0 .58-.81 1.1 1.1 0 0 0-.58-1v-9.77h-3.72V167a.78.78 0 0 0-.61.77 1.07 1.07 0 0 0 .61.93v9.3c3.1.8 6.19 1.58 9.31 2.29v-4.19c-2.23-.38-3.34-.61-5.57-1.08zm21.08-7.65h3.06V168a1.13 1.13 0 0 0-.59 1 .87.87 0 0 0 .59.87v10.27c1.5-.33 2.25-.52 3.74-.9v-9.86a1.14 1.14 0 0 0 .6-1 .83.83 0 0 0-.6-.82v-6h3.08v-3.88h-9.88zm11-.05a3.77 3.77 0 0 1 1.15-2.68 3.54 3.54 0 0 1 2.62-1.15h3.76a3.76 3.76 0 0 1 2.61 1 3.08 3.08 0 0 1 1.1 2.36v4.95a.77.77 0 0 1 .57.73.87.87 0 0 1-.57.78v8.35c-1.5.14-2.25.26-3.74.52v-7.65c-1.5.16-2.25.25-3.74.46v8c-1.5.35-2.25.54-3.74.93v-9.36a.77.77 0 0 1-.61-.78 1.06 1.06 0 0 1 .61-.94zm7.49.05h-3.74v4.09c1.5-.14 2.25-.21 3.74-.32zm-23.31-3.88h-3.76a3.39 3.39 0 0 0-2.63 1.29 4.47 4.47 0 0 0-1.12 3v5.15a4.63 4.63 0 0 0 1.13 3 3.53 3.53 0 0 0 2.62 1.43h1a.87.87 0 0 0 1.72 0h1v5.23a33.06 33.06 0 0 1-3.77 0V175c-1.49-.06-2.24-.13-3.73-.29v1.87a5.06 5.06 0 0 0 1.13 3.18 3.6 3.6 0 0 0 2.62 1.56 27 27 0 0 0 3.76 0 3.58 3.58 0 0 0 2.61-1.54 5 5 0 0 0 1.13-3.17v-5.19a4.07 4.07 0 0 0-1.12-2.88 3.35 3.35 0 0 0-2.61-1.18h-1a.88.88 0 0 0-1.7 0h-1v-5.76h3.77v2.2h3.73V162a4.45 4.45 0 0 0-1.12-3 3.38 3.38 0 0 0-2.66-1.29zm40.64 17.86a24 24 0 0 0-4.43-1.46l-2.43-5.62-1.12-.06v7.41a25.29 25.29 0 0 0-3.75-.05v-8.29a.79.79 0 0 1-.61-.74.85.85 0 0 1 .61-.77v-8.28h7.54a3.86 3.86 0 0 1 3.77 3.74v4.38a2.72 2.72 0 0 1-.74 1.94 3.15 3.15 0 0 1-1.81 1zm-4.16-14h-3.82v3.53c1.54 0 2.31.09 3.82.23z" transform="translate(-59.66 -125.99)"/></svg>