<svg width="538pt" height="164pt" viewBox="0 0 538 164" xmlns="http://www.w3.org/2000/svg"><path d="M173.62 10.59c7.59-5.04 16.31-8.45 25.36-9.63 15.47-1.57 30.9 1.39 46.03 4.34 22.09 4.36 44.39 8.01 66.91 9.09 11.65.35 23.39.29 34.86-2.05-.04 3.1-3.71 4.06-5.85 5.55-13.87 6.78-29.71 7.99-44.92 7.86-22.46.35-44.46-4.77-66.64-7.45-14.25-1.68-28.75-3.48-43.04-1.22-7.11 1.25-14.52 3.4-19.82 8.57-6.4 6.53-9.06 16.58-6.54 25.4 1.74 5.39 6.8 8.96 11.93 10.82 1.32.63 3.23.8 3.48 2.65-8.4-.07-17.04-5.24-19.79-13.42-2.82-8.32-.83-17.59 3.3-25.13 3.3-6.43 8.76-11.45 14.73-15.38zM442.66 28.62c5.27-6.14 11.32-12.5 19.48-14.46 4.39-1.16 10.07.5 11.47 5.25 1.34 5.46-1.61 10.75-3.44 15.75-10.98 24.57-27.93 46.07-47.03 64.84-.65 4.15-2.27 8.84.11 12.75 2.03 3.02 6.45 2.37 9.16.66 5.18-3.36 9.28-8.06 13.66-12.35 12.4-13.07 23.87-26.98 35.38-40.81 1.11-1.81 4.58-1.81 4.42.81 2.03 11.97 5.75 23.82 5.12 36.08-.21 6.71-1.92 13.99-7.15 18.59-3.32 3.05-7.83 4.02-12.1 4.9 11.69 1.82 24.12.61 34.58-5.22 12.28-6.77 21.55-19.17 23.39-33.2 1.81-12.99-.95-27.59-10.45-37.18.33-.39.98-1.18 1.31-1.58 9.05 6.22 14.7 16.53 16.28 27.28 2.11 11.25-1.06 23.14-7.8 32.3-6.82 9.2-16.52 16.44-27.6 19.59-10.22 2.72-21.13 3.04-31.46.74-6.95-1.7-14.4-5.01-17.7-11.79-.81-1.94-2.06-4.9.15-6.36 1.66-.73 3.59.42 4.38 1.92.95 2.15.56 4.88 2.3 6.67 2.32 2.77 6.56 2.3 9.5.87 3.72-2.2 5.46-6.51 6.31-10.56 1.9-9.51.73-19.28-.71-28.76-12.39 14.53-24.31 29.78-39.59 41.44-5.39 4.07-13.11 6.1-19.4 2.97-3.36-1.56-5.09-4.97-6.65-8.12-3.79 3.61-7.74 7.43-12.95 8.78-5.51 1.75-12.16 1.56-16.76-2.28-2.56-2.12-3.55-5.41-4.29-8.52-4.72 5.83-11.21 10.64-18.76 11.84-5.51.93-11.78-.39-15.65-4.64-2.55-2.67-3.68-6.3-4.48-9.82-3.72 4.75-7.76 9.49-12.98 12.64-4.89 2.75-12.04 3.2-16.02-1.33-3.86-4.6-3.27-11.18-1.81-16.61 3.08-10.56 9.34-20.01 11.81-30.75.74-4.07-4.76-4.16-7.13-2.44-10.41 6.12-20.33 14.63-24.65 26.24-3.54 8.5-7.12 16.99-10.67 25.5h-15.81c1.29-3.05 2.56-6.11 3.89-9.14-4.32 4.21-9.17 8.29-15.02 10.11-5.45 1.72-11.95-.93-14.21-6.28-2.71-6.62-1.2-14.13 1.36-20.56 4.43-10.64 8.92-21.25 13.37-31.88h15.78c-5.84 14.2-11.83 28.35-17.61 42.57-1.04 3.21-2.58 7.17-.38 10.23 2.05 1.23 4.54-.15 6.35-1.27 5.49-3.8 9.98-8.84 14.61-13.59 5.66-12.51 10.68-25.32 16.08-37.95 5.25.02 10.5-.01 15.75.02-1.68 4.17-3.43 8.32-5.2 12.45 6.63-6.83 14.97-12.61 24.59-13.97 4.53-.74 10.05.33 12.68 4.46 2.33 4.02 1.81 9.02.36 13.25-3.22 9.44-7.43 18.5-11.68 27.51-1.12 2.81-2.56 5.71-2.36 8.81.49 2.39 3.2 1.36 4.61.53 6.04-3.92 10.22-9.96 14.19-15.83 1.66-12.71 9.07-24.19 18.9-32.2 6.99-5.54 16.01-9.76 25.11-7.89 4.28.82 7.66 3.91 9.72 7.64.82-1.93 1.66-3.85 2.51-5.77h15.77c-5.78 13.88-11.62 27.75-17.43 41.62-1.24 3.08-2.3 6.52-1.36 9.82.67 2.52 3.6 3.65 5.96 2.88 5.29-1.33 9.35-5.26 13.2-8.9-.21-5.04 1-9.97 2.16-14.84 5.82-23.28 17.6-44.79 32.53-63.46m24.82-8.25c-4.31 2.57-7.14 6.93-10.22 10.78-13.54 18.64-24.88 39.1-31.87 61.12 14.91-16.14 27.96-34.07 38.32-53.46 2.49-5.08 5.19-10.23 6.12-15.86.52-1.35-.88-3.52-2.35-2.58m-93.9 45.23c-5.34 2.8-9.17 7.65-12.5 12.54-5.09 7.77-9.11 16.39-10.77 25.57-.61 3.86-1.12 8.31 1.22 11.72 2.74 3.05 7.41 1.24 10.49-.36 10.28-5.82 14.81-17.27 19.31-27.54 2.19-5.87 5.58-12.14 3.85-18.55-1.47-4.77-7.7-5.85-11.6-3.38z"/><path d="M228.69 34.79c5.24-4.47 10.93-8.71 17.37-11.21l1.61.32c-4.84 5.79-8.82 12.22-12.98 18.46-4.69 1-9.42 2.1-14.22 2.35 1.67-4.07 5.13-6.95 8.22-9.92zM111.37 50.41c3.08-4.29 7.38-8.15 12.81-8.86 2.53-.37 5.81.04 6.97 2.68 1.34 2.89-.23 5.95-.72 8.83 6.96.74 13.96.8 20.94.42-.21 1.69-1.83 2.26-3.11 2.89-6.8 3.19-14.27 4.73-21.75 4.97-5.17 8.59-12.11 16.04-20.04 22.15-2.14 1.36-2.77 3.95-3.85 6.1 4.76-4.57 10.78-8.99 17.73-8.45 3.93.23 7.94 3.56 7.14 7.82-.96 6.03-4.29 11.33-6.68 16.87-1.13 2.82-3.25 5.63-2.81 8.79 4.92-.55 8.3-5.07 10.81-8.94 2.16-10.51 9.79-20.18 20.1-23.63 4.97-1.47 11.08-1.56 15.24 1.93 3.21 2.81 1.88 7.8-.37 10.8-5.63 7.65-15.45 10.39-24.41 11.72-.79 2.76-1.24 6.79 2.05 8.09 4.4 1.54 9.17-.17 13.16-2.12 2.72-1.24 4.59-4.12 7.78-4.22.3 2.9-2.55 4.28-4.53 5.72-6.13 4.05-14.15 6.39-21.27 3.72-3.34-1.16-5.55-4.06-7.03-7.13-3.79 4.09-8.45 8.75-14.52 8.18-4.78-.19-7.67-5.43-6.67-9.8 1.76-8.03 6.99-14.87 8.62-22.93-6.9.83-12.51 6.11-16.26 11.69-4.12 6.05-7.13 12.75-9.97 19.46-3.4.24-6.8.43-10.21.32 2.87-8.25 6.73-16.13 10.06-24.2-3.01 1.31-6.05 2.66-9.3 3.25-.31-.35-.93-1.06-1.24-1.41 3.64-3.3 8.68-4.52 12.78-7.2 4.48-9.46 8.48-19.14 13.31-28.43-15.97-2.43-31.87-6.62-48.14-5.93-7.21.19-14.45 4.3-17.3 11.1-1.59 3.26-1.38 6.98-.63 10.43 3.44-.37 6.95-.55 10.37.08l.56 1.72c-3.32.08-6.67.09-9.92.89 1.35 1.97 2.84 4 5.1 4.97 3.94 2.05 8.5 1.12 12.7.69-.11 3.15-4.33 2.89-6.64 3.23-5.95.69-11.41-2.81-14.28-7.87-5.06 2.73-10.08 6.36-12.39 11.81-2.83 6.17-3.4 13.74-.28 19.9 3.61 7.08 13.09 10.22 20.24 6.85 6.1-2.81 10.43-8.31 13.95-13.85 7.19-11.9 12.04-25.26 20.89-36.13 3.9-4.17 8.36-8.85 14.28-9.66-1.82 4.27-4.95 7.8-6.86 12.03-5.12 11-8.63 22.75-14.75 33.27-5.34 9.57-14.85 17.13-25.92 18.49-5.69.47-11.7.63-17.06-1.64-9.44-4.16-14.4-15.73-11.92-25.55 2.38-9.02 9.89-16.05 18.78-18.53-1.77-6.52-.54-13.8 3.52-19.23 5.13-6.81 13.23-11.27 21.75-11.89 16.62-1.62 32.98 2.73 49.19 5.74m9.12 1.45c1.99.26 3.98.51 5.97.75.91-2.4 1.65-4.9 1.5-7.49-3.93-.05-5.57 4-7.47 6.74m-12.28 25.25c5.32-4.62 10.22-9.8 13.94-15.83-2.12-.19-4.25-.36-6.37-.57-2.56 5.45-5.14 10.89-7.57 16.4m32.39 25.99c8.56-1.02 16.94-6.06 20.26-14.26 1.5-2.98-2.33-5.34-4.88-4-7.85 3.09-11.93 11.09-15.38 18.26z"/><path d="M210.61 61.08c5.16-1.38 10.58-3.05 15.94-2.21-9.99 22.39-19.98 45.58-37.13 63.57-16.38 16.67-36.86 29.55-59.42 35.89-31.37 9.17-66.34 6.27-95.26-9.21-12.26-6.25-23.91-15.08-30.22-27.61-4.58-9.28-5.91-21.12-.23-30.22 1.91-2.7 3.88-6.02 7.44-6.6-1.17 3.63-3.57 6.75-4.36 10.52-2.75 10.32.63 21.27 6.67 29.77 8.58 12.65 22.65 20.3 36.87 24.94 38.49 12.29 82.88 3.81 114.16-21.76 21-17.81 32.98-43.18 45.54-67.08z"/><g fill="#fa002c"><path d="M269.17 41.12c7.72-3.93 15.15-8.45 22.99-12.18-2.55 4.55-5.52 8.84-8.13 13.35 6.2.53 12.41.86 18.59 1.61-8.28 2.77-16.68 5.13-25.07 7.55-3.07 4.96-6.13 9.92-9.35 14.78-2.36-3.5-4.77-6.95-7.18-10.42-8.85 2.49-17.75 4.76-26.61 7.2 6.9-5.07 14.29-9.44 21.57-13.94a242.68 242.68 0 0 0-7.07-8.66c6.76.02 13.51.9 20.26.71z"/><path d="M194.91 56.82c15.75-7.62 32.97-13.16 50.66-12.6 1.55 1.85 3.11 3.69 4.65 5.54-2.78 1.69-5.34 3.77-8.29 5.16-5.92-.08-11.88-.12-17.75.81-18.67 2.69-35.87 10.89-52.98 18.39-8.85 3.94-19 5.92-28.52 3.37 6.19-.37 12.37-1.36 18.21-3.49 12.06-4.19 22.66-11.49 34.02-17.18z"/></g></svg>