<?xml version="1.0" encoding="UTF-8"?>
<svg width="150px" height="150px" viewBox="0 0 150 150" version="1.1" xmlns="http://www.w3.org/2000/svg" xmlns:xlink="http://www.w3.org/1999/xlink">
    <!-- Generator: Sketch 48.2 - http://www.bohemiancoding.com/sketch -->
    <title>LBN</title>
    <desc>Created with Sketch.</desc>
    <defs></defs>
    <g id="Page-1" stroke="none" stroke-width="1" fill="none" fill-rule="evenodd">
        <g id="LBN">
            <g id="Page-1" transform="translate(11.000000, 14.000000)">
                <polygon id="Fill-1" fill="#B2BBC1" points="128.2487 46.8113 79.3567 46.8113 64.2497 0.3133 49.1407 46.8113 0.2487 46.8113 39.8037 75.5493 24.6947 122.0473 64.2487 93.3103 103.8037 122.0483 88.6937 75.5493"></polygon>
                <polygon id="Stroke-2" stroke="#000000" stroke-width="0.812" points="128.2487 46.8113 79.3567 46.8113 64.2497 0.3133 49.1407 46.8113 0.2487 46.8113 39.8037 75.5493 24.6947 122.0473 64.2487 93.3103 103.8037 122.0483 88.6937 75.5493"></polygon>
                <polygon id="Fill-4" fill="#000000" points="52.9371 52.0378 64.2491 17.2268 64.2491 11.5888 51.6711 50.2958"></polygon>
                <polygon id="Fill-5" fill="#000000" points="76.8258 50.2956 64.2488 11.5886 64.2488 17.2276 75.5598 52.0376"></polygon>
                <polygon id="Fill-6" fill="#000000" points="117.525 50.2956 76.826 50.2956 75.56 52.0376 112.163 52.0376"></polygon>
                <polygon id="Fill-7" fill="#000000" points="84.5993 74.2185 117.5253 50.2955 112.1623 52.0375 82.5503 73.5535"></polygon>
                <polygon id="Fill-8" fill="#000000" points="97.1754 112.9265 84.5994 74.2185 82.5504 73.5535 93.8624 108.3645"></polygon>
                <polygon id="Fill-9" fill="#000000" points="93.862 108.365 64.249 86.849 64.249 89.004 97.175 112.927"></polygon>
                <polygon id="Fill-10" fill="#000000" points="31.3229 112.9265 64.2489 89.0035 64.2489 86.8495 34.6369 108.3645"></polygon>
                <polygon id="Fill-11" fill="#000000" points="34.6373 108.365 45.9473 73.553 43.8993 74.219 31.3233 112.927"></polygon>
                <polygon id="Fill-12" fill="#000000" points="45.9469 73.5535 16.3349 52.0375 10.9719 50.2955 43.8989 74.2185"></polygon>
                <polygon id="Fill-13" fill="#000000" points="51.6715 50.2956 10.9725 50.2956 16.3345 52.0376 52.9375 52.0376"></polygon>
                <polygon id="Fill-14" fill="#000000" points="49.2164 93.8249 36.7184 93.8249 36.7184 42.8339 43.5734 42.8339 43.5734 87.3969 49.2164 87.3969"></polygon>
                <polygon id="Stroke-15" stroke="#000000" stroke-width="8.116" points="49.2164 93.8249 36.7184 93.8249 36.7184 42.8339 43.5734 42.8339 43.5734 87.3969 49.2164 87.3969"></polygon>
                <g id="Group-30" transform="translate(36.000000, 42.111000)">
                    <path d="M22.2145,29.5743 L22.2145,45.2863 L23.3575,45.2863 C25.4995,45.2863 26.1425,44.1433 26.1425,41.7163 L26.1425,33.0023 C26.1425,30.5753 25.3575,29.5743 23.0705,29.5743 L22.2145,29.5743 Z M22.2145,7.1503 L22.2145,24.0053 L23.0705,24.0053 C25.4995,24.0053 26.1425,23.1473 26.1425,20.2913 L26.1425,10.5783 C26.1425,8.2203 25.4285,7.1503 23.3575,7.1503 L22.2145,7.1503 Z M23.8575,51.7143 L15.3595,51.7143 L15.3595,0.7223 L23.8575,0.7223 C29.4985,0.7223 32.9985,3.7943 32.9985,11.0073 L32.9985,18.4333 C32.9985,23.0763 31.5695,25.4323 29.5695,26.6473 C31.5695,27.9323 32.9985,30.2183 32.9985,34.1453 L32.9985,41.5723 C32.9985,48.5713 29.2845,51.7143 23.8575,51.7143 Z" id="Fill-16" fill="#000000"></path>
                    <path d="M22.2145,29.5743 L22.2145,45.2863 L23.3575,45.2863 C25.4995,45.2863 26.1425,44.1433 26.1425,41.7163 L26.1425,33.0023 C26.1425,30.5753 25.3575,29.5743 23.0705,29.5743 L22.2145,29.5743 Z M22.2145,7.1503 L22.2145,24.0053 L23.0705,24.0053 C25.4995,24.0053 26.1425,23.1473 26.1425,20.2913 L26.1425,10.5783 C26.1425,8.2203 25.4285,7.1503 23.3575,7.1503 L22.2145,7.1503 Z M23.8575,51.7143 L15.3595,51.7143 L15.3595,0.7223 L23.8575,0.7223 C29.4985,0.7223 32.9985,3.7943 32.9985,11.0073 L32.9985,18.4333 C32.9985,23.0763 31.5695,25.4323 29.5695,26.6473 C31.5695,27.9323 32.9985,30.2183 32.9985,34.1453 L32.9985,41.5723 C32.9985,48.5713 29.2845,51.7143 23.8575,51.7143 Z" id="Stroke-18" stroke="#000000" stroke-width="8.116"></path>
                    <path d="M42.4254,51.7139 L36.4274,51.7139 L36.4274,0.7229 L45.7104,0.7229 L51.9234,43.2149 C50.9954,33.2879 49.7814,16.7919 49.7814,8.1499 L49.7814,0.7229 L55.7794,0.7229 L55.7794,51.7139 L47.2814,51.7139 L41.5694,11.0069 C42.0684,20.1489 42.4254,30.9319 42.4254,37.0739 L42.4254,51.7139 Z" id="Fill-20" fill="#000000"></path>
                    <path d="M42.4254,51.7139 L36.4274,51.7139 L36.4274,0.7229 L45.7104,0.7229 L51.9234,43.2149 C50.9954,33.2879 49.7814,16.7919 49.7814,8.1499 L49.7814,0.7229 L55.7794,0.7229 L55.7794,51.7139 L47.2814,51.7139 L41.5694,11.0069 C42.0684,20.1489 42.4254,30.9319 42.4254,37.0739 L42.4254,51.7139 Z" id="Stroke-22" stroke="#000000" stroke-width="8.116"></path>
                    <polygon id="Fill-24" fill="#FFFFFF" points="13.2164 51.7139 0.7184 51.7139 0.7184 0.7229 7.5734 0.7229 7.5734 45.2859 13.2164 45.2859"></polygon>
                    <path d="M22.2145,29.5743 L22.2145,45.2863 L23.3575,45.2863 C25.4995,45.2863 26.1425,44.1433 26.1425,41.7163 L26.1425,33.0023 C26.1425,30.5753 25.3575,29.5743 23.0705,29.5743 L22.2145,29.5743 Z M22.2145,7.1503 L22.2145,24.0053 L23.0705,24.0053 C25.4995,24.0053 26.1425,23.1473 26.1425,20.2913 L26.1425,10.5783 C26.1425,8.2203 25.4285,7.1503 23.3575,7.1503 L22.2145,7.1503 Z M23.8575,51.7143 L15.3595,51.7143 L15.3595,0.7223 L23.8575,0.7223 C29.4985,0.7223 32.9985,3.7943 32.9985,11.0073 L32.9985,18.4333 C32.9985,23.0763 31.5695,25.4323 29.5695,26.6473 C31.5695,27.9323 32.9985,30.2183 32.9985,34.1453 L32.9985,41.5723 C32.9985,48.5713 29.2845,51.7143 23.8575,51.7143 Z" id="Fill-26" fill="#FFFFFF"></path>
                    <path d="M42.4254,51.7139 L36.4274,51.7139 L36.4274,0.7229 L45.7104,0.7229 L51.9234,43.2149 C50.9954,33.2879 49.7814,16.7919 49.7814,8.1499 L49.7814,0.7229 L55.7794,0.7229 L55.7794,51.7139 L47.2814,51.7139 L41.5694,11.0069 C42.0684,20.1489 42.4254,30.9319 42.4254,37.0739 L42.4254,51.7139 Z" id="Fill-28" fill="#FFFFFF"></path>
                </g>
            </g>
        </g>
    </g>
</svg>