<svg xmlns="http://www.w3.org/2000/svg" viewBox="0 0 97.5431 34.5881"><defs><style>.cls-1{fill:#002b5c;}.cls-2{fill:#fff;}.cls-3{fill:#b4975a;}.cls-4{fill:#006bb6;}.cls-5{fill:#ed174c;}</style></defs><title>nola</title><g id="Layer_2" data-name="Layer 2"><g id="Layer_1-2" data-name="Layer 1"><path class="cls-1" d="M97.4279,24.616a7.1528,7.1528,0,0,1,0-4.308l.015-.052a2.4467,2.4467,0,0,0-.427-2.213,1.7358,1.7358,0,0,0-1.034-.603,1.35,1.35,0,0,0-1.072.393,1.2557,1.2557,0,0,0-.086.094c-.025-.367-.028-.768-.031-1.178-.012-1.647-.026-3.514-1.374-4.862a3.4539,3.4539,0,0,0-2.458-1.015,3.4184,3.4184,0,0,0-1.812.496,3.6526,3.6526,0,0,0-1.147,1.119H64.3239L60.4789.654a.9463.9463,0,0,0-1.8,0l-3.844,11.833H9.5418a3.6089,3.6089,0,0,0-.928-.971,3.3517,3.3517,0,0,0-1.321-.574,3.48,3.48,0,0,0-3.168.945c-1.348,1.348-1.362,3.215-1.375,4.862-.003.41-.006.811-.03,1.178-.027-.032-.056-.064-.086-.094a1.3513,1.3513,0,0,0-1.072-.393,1.7252,1.7252,0,0,0-1.034.603,2.44,2.44,0,0,0-.427,2.213.505.505,0,0,0,.015.052,7.14,7.14,0,0,1,.331,2.154,7.1492,7.1492,0,0,1-.331,2.154c-.005.015-.01.03-.014.046a2.4455,2.4455,0,0,0,.425,2.217,1.7352,1.7352,0,0,0,1.035.603,1.3506,1.3506,0,0,0,1.072-.392c.03-.031.059-.062.086-.095.024.367.027.769.03,1.178.013,1.647.027,3.514,1.375,4.862a3.4812,3.4812,0,0,0,3.163.947,3.3833,3.3833,0,0,0,1.325-.574,3.6307,3.6307,0,0,0,.929-.972h38.811l-.296.909a.9462.9462,0,0,0,1.456,1.058l2.708-1.967h14.716l2.708,1.967a.9461.9461,0,0,0,1.456-1.058l-.295-.909h17.196a3.582,3.582,0,0,0,.929.971,3.3681,3.3681,0,0,0,1.324.575,3.4847,3.4847,0,0,0,3.164-.947c1.348-1.348,1.362-3.215,1.374-4.862.003-.409.006-.811.031-1.178a1.2685,1.2685,0,0,0,.086.095,1.3492,1.3492,0,0,0,1.072.392,1.7279,1.7279,0,0,0,1.034-.603,2.4425,2.4425,0,0,0,.425-2.217c-.004-.016-.008-.031-.0129-.046"/><path class="cls-2" d="M29.4792,29.4406v-6.386a.6284.6284,0,0,1,0-1.187v-6.386h2.586v6.393a.6311.6311,0,0,1,0,1.173v3.816h3.842v2.577ZM44.9341,18.05a2.6516,2.6516,0,0,0-2.577-2.568h-2.595a2.6583,2.6583,0,0,0-2.585,2.577v3.809a.6284.6284,0,0,0,0,1.187v6.386h2.585v-5.687h2.586v5.687h2.585v-6.393a.6311.6311,0,0,0,0-1.173Zm-5.172.009h2.585v3.11h-2.585Zm-11.368,4.403a.6313.6313,0,0,1-.422.593v3.818a2.4411,2.4411,0,0,1-.786,1.8,2.5038,2.5038,0,0,1-1.799.768h-2.942a2.4857,2.4857,0,0,1-1.803-.764,2.4406,2.4406,0,0,1-.773-1.795v-3.827a.6284.6284,0,0,1,0-1.187V18.05a2.65,2.65,0,0,1,2.576-2.568h2.933a2.507,2.507,0,0,1,1.808.773,2.4545,2.4545,0,0,1,.786,1.804v3.809a.6326.6326,0,0,1,.422.594m-3.007-4.403h-2.941v8.805h2.941Zm-7.025,3.809v-6.386h-2.559v7.322l-2.823-7.322h-2.766v6.386a.6284.6284,0,0,0,0,1.187v6.386h2.568v-7.313l2.813,7.313h2.767v-6.386a.6289.6289,0,0,0,0-1.187m68.524.592a.63.63,0,0,1-.629.63v-.002l-1.85,6.353h-2.708l1.965-6.426a.626.626,0,0,1,.35-1.147v.001l1.165-3.81h-2.541v1.048h-2.577v-3.625h7.191l.636,2.005-1.295,4.447a.6227.6227,0,0,1,.293.526m-8.332-.592v-6.386h-1.708l-1.606.585v2.587h.737v3.214a.6288.6288,0,0,0,0,1.187v6.386h2.577v-6.386a.6284.6284,0,0,0,0-1.187"/><path class="cls-3" d="M96.5245,24.9006h.001a8.099,8.099,0,0,1,0-4.878l-.002.001a1.5029,1.5029,0,0,0-.364-1.522.4108.4108,0,1,0-.072.638.9049.9049,0,0,1-1.493.928c-.728-.727-.738-1.983-.748-3.311-.011-1.537-.023-3.126-1.097-4.2a2.5663,2.5663,0,0,0-4.177.876H78.3755l-1.302.947h11.313a2.523,2.523,0,0,0,2.184,2.517c.056.007.113.012.169.014h.001c.216.025.25.13.306.304a.7065.7065,0,0,0,.686.563l.082.01.023-.08a.8391.8391,0,0,0-.325-.947,1.7161,1.7161,0,0,0,.511-.352,1.7536,1.7536,0,0,0,.508-1.28,1.5631,1.5631,0,0,0-.501-1.133,1.0094,1.0094,0,0,0-.6-.266l-.079-.008-.022.077a1.0134,1.0134,0,0,0,.38,1.205c.218.193.327.306.24.559a1.17,1.17,0,0,1-1.256.749,1.7965,1.7965,0,0,1-1.555-1.793,1.8386,1.8386,0,0,1,1.827-1.827h.009a1.792,1.792,0,0,1,1.274.526c.715.716.73,2,.745,3.359.005.497.012.999.051,1.484a4.5125,4.5125,0,0,0,0,8.8c-.039.486-.046.988-.051,1.485-.015,1.359-.03,2.644-.745,3.359a1.7878,1.7878,0,0,1-1.274.526h-.009a1.8369,1.8369,0,0,1-1.827-1.827,1.7943,1.7943,0,0,1,1.555-1.792,1.1678,1.1678,0,0,1,1.256.748c.087.254-.022.366-.24.56a1.0119,1.0119,0,0,0-.38,1.204l.022.077.079-.007a1.0165,1.0165,0,0,0,.6-.267,1.563,1.563,0,0,0,.501-1.133,1.7551,1.7551,0,0,0-.508-1.28,1.7155,1.7155,0,0,0-.511-.352.8391.8391,0,0,0,.325-.947l-.023-.08-.082.011a.7048.7048,0,0,0-.686.562c-.056.174-.09.279-.306.304H90.74a1.6021,1.6021,0,0,0-.169.015,2.523,2.523,0,0,0-2.184,2.517H70.1905l.307.946h18.075a2.5655,2.5655,0,0,0,4.177.877c1.074-1.074,1.086-2.663,1.097-4.2.01-1.329.02-2.584.748-3.312a.9051.9051,0,0,1,1.493.928.4107.4107,0,1,0,.072.638,1.504,1.504,0,0,0,.365-1.52m-2.817-4.621a5.9137,5.9137,0,0,1-1.491.486l-.198.029.091-.178a4.16,4.16,0,0,1,1.129-1.379,3.3688,3.3688,0,0,0,.469,1.042m-2.986-.133a4.0355,4.0355,0,0,1,2.373-1.622c.014.106.031.21.051.313a4.3967,4.3967,0,0,0-1.496,1.878l-.03.072-.078-.009-.025-.003c-.018-.002-.037-.004-.056-.007a1.2451,1.2451,0,0,1-.735-.499l-.048-.06Zm-.717,2.022a4.0388,4.0388,0,0,1,.403-1.491l.066-.133.1021.107a1.4757,1.4757,0,0,0,.804.472l.113.019-.03.11a4.4959,4.4959,0,0,0-.153.93l-.006.097h-1.307Zm.571,2.102-.1021.108-.066-.133a4.0334,4.0334,0,0,1-.403-1.491l-.008-.111h1.307l.006.098a4.4883,4.4883,0,0,0,.153.928l.03.11-.113.02a1.52,1.52,0,0,0-.804.471m2.519,2.128a4.0312,4.0312,0,0,1-2.373-1.622l-.044-.063.047-.06a1.2425,1.2425,0,0,1,.734-.499c.02-.004.04-.006.058-.008l.025-.002.078-.01.03.072a4.3985,4.3985,0,0,0,1.496,1.878c-.02.104-.037.208-.051.314m.141-.705a4.0364,4.0364,0,0,1-1.14-1.389l-.087-.176.194.027a5.9064,5.9064,0,0,1,1.505.487,3.4023,3.4023,0,0,0-.472,1.051m1.838-1.856a1.49,1.49,0,0,0-1.06.437c-.024.024-.045.05-.068.075a5.6719,5.6719,0,0,0-2-.584l-.073-.003-.022-.069a4.1526,4.1526,0,0,1-.177-.939l-.008-.111h3.717a9.0111,9.0111,0,0,0,.112,1.254,1.5033,1.5033,0,0,0-.421-.06m.309-1.558h-3.716l.008-.111a4.0785,4.0785,0,0,1,.183-.94l.022-.069.072-.003a5.6962,5.6962,0,0,0,1.994-.583c.023.025.044.051.068.074a1.4911,1.4911,0,0,0,1.06.438,1.5175,1.5175,0,0,0,.422-.061,8.8794,8.8794,0,0,0-.113,1.255"/><path class="cls-3" d="M9.1567,30.543a2.5251,2.5251,0,0,0-2.184-2.517,1.6048,1.6048,0,0,0-.17-.014h-.001c-.215-.025-.249-.13-.306-.304a.704.704,0,0,0-.685-.563l-.082-.01-.023.08a.8362.8362,0,0,0,.325.947,1.7155,1.7155,0,0,0-.511.352,1.7535,1.7535,0,0,0-.508,1.28,1.5551,1.5551,0,0,0,.501,1.133,1.0091,1.0091,0,0,0,.599.266l.08.008.022-.077a1.0133,1.0133,0,0,0-.38-1.205c-.218-.193-.327-.306-.24-.559a1.1695,1.1695,0,0,1,1.256-.749,1.7965,1.7965,0,0,1,1.555,1.793,1.84,1.84,0,0,1-1.827,1.827h-.009a1.792,1.792,0,0,1-1.274-.526c-.715-.716-.73-2-.745-3.359-.005-.498-.012-1-.051-1.486a4.5119,4.5119,0,0,0,0-8.799c.039-.485.046-.987.051-1.484.015-1.359.03-2.644.745-3.359a1.7878,1.7878,0,0,1,1.274-.526h.009a1.8387,1.8387,0,0,1,1.827,1.827A1.7965,1.7965,0,0,1,6.85,16.311a1.1678,1.1678,0,0,1-1.256-.748c-.087-.254.022-.366.24-.56a1.0119,1.0119,0,0,0,.38-1.204l-.022-.077-.08.007a1.0165,1.0165,0,0,0-.599.267,1.5551,1.5551,0,0,0-.501,1.133,1.7551,1.7551,0,0,0,.508,1.28,1.7161,1.7161,0,0,0,.511.352.8362.8362,0,0,0-.325.947l.023.079.082-.01a.7024.7024,0,0,0,.685-.562c.057-.174.091-.279.306-.304h.001c.057-.003.114-.007.17-.015a2.5251,2.5251,0,0,0,2.184-2.517h32.927l-1.302-.946H8.9707a2.5937,2.5937,0,0,0-.57-.861,2.5534,2.5534,0,0,0-3.607-.016c-1.074,1.074-1.086,2.663-1.098,4.2-.01,1.329-.019,2.584-.747,3.312a.9058.9058,0,0,1-1.494-.928.4109.4109,0,1,0-.071-.638,1.5054,1.5054,0,0,0-.365,1.522l-.001-.001a8.0982,8.0982,0,0,1,.376,2.439,8.0982,8.0982,0,0,1-.376,2.439h.001a1.5045,1.5045,0,0,0,.365,1.52.4108.4108,0,1,0,.071-.638.9056.9056,0,0,1,1.494-.928c.728.727.737,1.983.747,3.311.012,1.537.024,3.126,1.098,4.2a2.5534,2.5534,0,0,0,3.607-.016,2.6,2.6,0,0,0,.57-.86H48.66l.308-.947Zm-1.619-7.788a3.99,3.99,0,0,1-.403,1.49l-.065.134-.103-.108a1.507,1.507,0,0,0-.804-.472l-.112-.019.03-.11a4.4978,4.4978,0,0,0,.153-.929l.006-.097h1.306Zm-.468-2.21.065.133a3.9952,3.9952,0,0,1,.403,1.491l.008.111H6.24l-.006-.098a4.4864,4.4864,0,0,0-.153-.929l-.03-.11.112-.02a1.4726,1.4726,0,0,0,.805-.471Zm-2.621-2.02a4.042,4.042,0,0,1,1.243.53,4.0892,4.0892,0,0,1,1.13,1.091l.043.063-.047.061a1.2451,1.2451,0,0,1-.735.499c-.02.003-.038.005-.057.007l-.024.003-.078.009-.03-.072a4.4071,4.4071,0,0,0-1.496-1.879q.0285-.1545.051-.312m-.144.713a4.1668,4.1668,0,0,1,1.129,1.378l.09.178-.197-.028a5.9634,5.9634,0,0,1-1.492-.486,3.37,3.37,0,0,0,.47-1.042M2.47,21.085a1.4959,1.4959,0,0,0,1.06-.437c.024-.024.045-.05.067-.074a5.7055,5.7055,0,0,0,1.995.582l.072.004.022.068a4.0989,4.0989,0,0,1,.183.94l.008.112H2.1607a9.0266,9.0266,0,0,0-.113-1.255,1.5152,1.5152,0,0,0,.422.06m1.128,3.264c-.023-.024-.044-.05-.068-.074a1.4927,1.4927,0,0,0-1.06-.438,1.541,1.541,0,0,0-.421.06,8.9967,8.9967,0,0,0,.112-1.253h3.716l-.007.111a4.1988,4.1988,0,0,1-.177.938l-.022.07-.073.003a5.6906,5.6906,0,0,0-2,.583m.238.294a5.9087,5.9087,0,0,1,1.505-.488l.194-.027-.088.176a4.0374,4.0374,0,0,1-1.14,1.39,3.3569,3.3569,0,0,0-.471-1.051m.562,1.442a4.4042,4.4042,0,0,0,1.496-1.878l.03-.072.078.009.025.003c.018.002.037.004.058.007a1.2372,1.2372,0,0,1,.733.499l.048.061-.044.062A4.0769,4.0769,0,0,1,5.69,25.869a3.995,3.995,0,0,1-1.241.529c-.015-.105-.032-.21-.051-.313"/><polygon class="cls-3" points="54.826 30.543 53.524 31.489 65.635 31.489 64.333 30.543 54.826 30.543"/><path class="cls-3" d="M76.7666,13.4329h-13.13L59.5785.9459l-4.0569,12.487h-13.13l10.623,7.718-4.058,12.487L59.5785,25.92l10.623,7.718-4.058-12.487Zm-8.365,17.728-8.8231-6.41-8.822,6.41,3.37-10.372-8.823-6.41h10.905l3.37-10.371,3.37,10.371H73.8545l-8.823,6.41Z"/><polygon class="cls-2" points="59.579 4.008 59.579 4.008 56.209 14.38 45.304 14.38 54.126 20.789 50.756 31.161 59.579 24.751 68.402 31.161 65.032 20.789 73.854 14.38 62.949 14.38 59.579 4.008"/><path class="cls-4" d="M61.6541,24.1774c-.209-.186-.069-.265-.078-.339-.137-.568-.5891-.912-.355-1.1-.058-.188-.175-.424-.171-.423a7.01,7.01,0,0,1-1.405-1.158c-.124-.134-.334-.268-.374-.377a11.15,11.15,0,0,1-1.192-1.766l-.337-.048c-.153-.626-.664-1.15-.677-1.778a3.5393,3.5393,0,0,1,.149-.846,1.1313,1.1313,0,0,1,.237-.272v-.168c-.734.021-.523-.054-.65-.34-.089-.197-.025-.241.007-.378a8.3263,8.3263,0,0,1,.562-1.313c.041-.143.183-.488.183-.488.547-1.115.752-1.033,1.402-1.096l.032-.046c.652-.028.545-.077.637-.705-.095.041-.123-.197-.123-.197-.052-.357.098-.289.17-.296.015-.588.075-.773.499-.934a.5163.5163,0,0,1,.186-.033.795.795,0,0,1,.221.033.5906.5906,0,0,1,.378.287.1712.1712,0,0,1,.095.052l-1.471-4.527-2.94,9.049h-9.515l7.697,5.593-2.94,9.049,7.698-5.592,2.021,1.468a5.7936,5.7936,0,0,1,.054-1.311"/><path class="cls-5" d="M72.0343,14.9707h-9.515l-1.356-4.173a1.1,1.1,0,0,1-.154.503c.131.088.029.219-.066.371-.027.048-.057.135-.145.129-.113.238-.25.468-.352.482a.1651.1651,0,0,0-.007.189,1.7079,1.7079,0,0,1,.426.247l.004.055c.118.069.177.124.295.2.314.198.7.549.651,1.758.088.263.127.781.208.947a2.6387,2.6387,0,0,1,.32.84s.048.476.109.511c.324.073.23.105.278.16a.0539.0539,0,0,0,.016.014l.014.011c.071.043.207.063.207.212h-.002a1.1584,1.1584,0,1,1-1.198-.431l-.002-.001c-.133-.334-.415-.875-.499-1.053-.079-.177-.27-1.278-.311-1.496-.01-.048-.5.284-.501.305-.029.028-.368.914-.382.962a1.3276,1.3276,0,0,0-.008.148s.167.021.263.312.385,1.352.385,1.352a.7264.7264,0,0,1-.082.076c.366,1.225.238,1.752.402,2.111.207.506.262.44.439.866.127.31.269,1.529.316,1.583a1.1374,1.1374,0,0,1,.304.588,2.9788,2.9788,0,0,0-.106.807c.037.144.056.466.123.528,0,0,.062.121.031.174-.008.019-.026.047-.018.069.109.385.461,1.041-.109,1.385a.283.283,0,0,1-.07.026l5.335,3.875-2.941-9.049Z"/></g></g></svg>