<svg xmlns="http://www.w3.org/2000/svg" viewBox="0 0 97.5431 34.5881"><defs><style>.cls-1{fill:#002b5c}.cls-2{fill:#fff}.cls-3{fill:#b4975a}.cls-4{fill:#006bb6}.cls-5{fill:#ed174c}</style></defs><title>nola</title><g id="Layer_2" data-name="Layer 2"><g id="Layer_1-2" data-name="Layer 1"><path class="cls-1" d="M97.428 24.616a7.153 7.153 0 0 1 0-4.308l.015-.052a2.447 2.447 0 0 0-.427-2.213 1.736 1.736 0 0 0-1.034-.603 1.35 1.35 0 0 0-1.072.393 1.256 1.256 0 0 0-.086.094 20.007 20.007 0 0 1-.031-1.178c-.012-1.647-.026-3.514-1.374-4.862a3.454 3.454 0 0 0-2.458-1.015 3.418 3.418 0 0 0-1.812.496 3.653 3.653 0 0 0-1.147 1.119H64.324L60.479.654a.946.946 0 0 0-1.8 0l-3.844 11.833H9.542a3.609 3.609 0 0 0-.928-.971 3.352 3.352 0 0 0-1.321-.574 3.48 3.48 0 0 0-3.168.945c-1.348 1.348-1.362 3.215-1.375 4.862-.003.41-.006.811-.03 1.178a1.519 1.519 0 0 0-.086-.094 1.351 1.351 0 0 0-1.072-.393 1.725 1.725 0 0 0-1.034.603A2.44 2.44 0 0 0 .1 20.256a.505.505 0 0 0 .015.052 7.14 7.14 0 0 1 .33 2.154 7.15 7.15 0 0 1-.33 2.154l-.014.046a2.446 2.446 0 0 0 .425 2.217 1.735 1.735 0 0 0 1.035.603 1.35 1.35 0 0 0 1.072-.392c.03-.031.059-.062.086-.095.024.367.027.769.03 1.178.013 1.647.027 3.514 1.375 4.862a3.481 3.481 0 0 0 3.163.947 3.383 3.383 0 0 0 1.325-.574 3.63 3.63 0 0 0 .929-.972h38.81l-.295.909a.946.946 0 0 0 1.456 1.058l2.708-1.967h14.716l2.708 1.967a.946.946 0 0 0 1.456-1.058l-.295-.909h17.196a3.582 3.582 0 0 0 .929.971 3.368 3.368 0 0 0 1.324.575 3.485 3.485 0 0 0 3.164-.947c1.348-1.348 1.362-3.215 1.374-4.862.003-.409.006-.811.03-1.178a1.268 1.268 0 0 0 .087.095 1.35 1.35 0 0 0 1.072.392 1.728 1.728 0 0 0 1.034-.603 2.442 2.442 0 0 0 .425-2.217.67.67 0 0 0-.013-.046"/><path class="cls-2" d="M29.48 29.44v-6.385a.628.628 0 0 1 0-1.187v-6.386h2.585v6.393a.631.631 0 0 1 0 1.173v3.816h3.842v2.577zm15.454-11.39a2.652 2.652 0 0 0-2.577-2.568h-2.595a2.658 2.658 0 0 0-2.585 2.577v3.809a.628.628 0 0 0 0 1.187v6.386h2.585v-5.687h2.586v5.687h2.585v-6.393a.631.631 0 0 0 0-1.173zm-5.172.009h2.585v3.11h-2.585zm-11.368 4.403a.631.631 0 0 1-.422.593v3.818a2.441 2.441 0 0 1-.786 1.8 2.504 2.504 0 0 1-1.799.768h-2.942a2.486 2.486 0 0 1-1.803-.764 2.44 2.44 0 0 1-.773-1.795v-3.827a.628.628 0 0 1 0-1.187V18.05a2.65 2.65 0 0 1 2.576-2.568h2.933a2.507 2.507 0 0 1 1.808.773 2.454 2.454 0 0 1 .786 1.804v3.809a.633.633 0 0 1 .422.594m-3.007-4.403h-2.94v8.805h2.94zm-7.025 3.809v-6.386h-2.559v7.322l-2.823-7.322h-2.766v6.386a.628.628 0 0 0 0 1.187v6.386h2.568v-7.313l2.813 7.313h2.767v-6.386a.629.629 0 0 0 0-1.187m68.524.592a.63.63 0 0 1-.629.63v-.002l-1.85 6.353H81.7l1.965-6.426a.626.626 0 0 1 .35-1.147v.001l1.165-3.81h-2.54v1.048h-2.58v-3.625h7.191l.636 2.005-1.295 4.447a.623.623 0 0 1 .293.526m-8.332-.592v-6.386h-1.708l-1.606.585v2.587h.737v3.214a.629.629 0 0 0 0 1.187v6.386h2.577v-6.386a.628.628 0 0 0 0-1.187"/><path class="cls-3" d="M96.525 24.9a8.099 8.099 0 0 1 0-4.877h-.001a1.503 1.503 0 0 0-.364-1.521.41.41 0 1 0-.072.638.905.905 0 0 1-1.493.928c-.728-.727-.738-1.983-.748-3.311-.011-1.537-.023-3.126-1.097-4.2a2.566 2.566 0 0 0-4.177.876H78.376l-1.303.947h11.314a2.523 2.523 0 0 0 2.183 2.517c.057.007.114.012.17.014.217.025.25.13.307.304a.707.707 0 0 0 .685.563l.083.01.022-.08a.84.84 0 0 0-.325-.947 1.716 1.716 0 0 0 .511-.352 1.754 1.754 0 0 0 .508-1.28 1.563 1.563 0 0 0-.5-1.133 1.01 1.01 0 0 0-.6-.266l-.08-.008-.022.077a1.013 1.013 0 0 0 .38 1.205c.218.193.327.306.24.559a1.17 1.17 0 0 1-1.256.749 1.796 1.796 0 0 1-1.555-1.793 1.839 1.839 0 0 1 1.827-1.827h.01a1.792 1.792 0 0 1 1.273.526c.715.716.73 2 .745 3.359.005.497.012.999.051 1.484a4.513 4.513 0 0 0 0 8.8c-.039.486-.046.988-.05 1.485-.016 1.359-.03 2.644-.746 3.359a1.788 1.788 0 0 1-1.274.526h-.009a1.837 1.837 0 0 1-1.827-1.827 1.794 1.794 0 0 1 1.555-1.792 1.168 1.168 0 0 1 1.256.748c.087.254-.022.366-.24.56a1.012 1.012 0 0 0-.38 1.204l.022.077.08-.007a1.016 1.016 0 0 0 .6-.267 1.563 1.563 0 0 0 .5-1.133 1.755 1.755 0 0 0-.508-1.28 1.716 1.716 0 0 0-.51-.352.84.84 0 0 0 .324-.947l-.023-.08-.081.01a.705.705 0 0 0-.687.563c-.056.174-.09.279-.306.304a1.602 1.602 0 0 0-.169.015 2.523 2.523 0 0 0-2.184 2.517H70.19l.308.946h18.074a2.566 2.566 0 0 0 4.178.877c1.074-1.074 1.086-2.663 1.097-4.2.01-1.33.02-2.584.748-3.312a.905.905 0 0 1 1.493.928.41.41 0 1 0 .072.638 1.504 1.504 0 0 0 .365-1.52m-2.818-4.621a5.914 5.914 0 0 1-1.49.486l-.198.029.09-.178a4.16 4.16 0 0 1 1.13-1.38 3.369 3.369 0 0 0 .469 1.043m-2.986-.133a4.035 4.035 0 0 1 2.373-1.622c.014.106.03.21.05.313a4.397 4.397 0 0 0-1.495 1.878l-.03.072-.078-.01-.025-.002-.056-.007a1.245 1.245 0 0 1-.735-.5l-.048-.06zm-.717 2.022a4.039 4.039 0 0 1 .403-1.491l.066-.133.102.107a1.476 1.476 0 0 0 .804.472l.113.019-.03.11a4.496 4.496 0 0 0-.153.93l-.006.097h-1.307zm.57 2.102l-.102.108-.066-.133a4.033 4.033 0 0 1-.403-1.491l-.008-.111h1.307l.006.098a4.488 4.488 0 0 0 .153.928l.03.11-.113.02a1.52 1.52 0 0 0-.804.47m2.52 2.129a4.031 4.031 0 0 1-2.374-1.622l-.044-.063.047-.06a1.242 1.242 0 0 1 .734-.5l.058-.007.025-.002.078-.01.03.072a4.399 4.399 0 0 0 1.496 1.878c-.02.104-.037.208-.05.314m.14-.705a4.036 4.036 0 0 1-1.14-1.39l-.087-.175.194.027a5.906 5.906 0 0 1 1.505.487 3.402 3.402 0 0 0-.472 1.05m1.838-1.855a1.49 1.49 0 0 0-1.06.437c-.024.024-.045.05-.068.075a5.672 5.672 0 0 0-2-.584l-.073-.003-.022-.07a4.153 4.153 0 0 1-.177-.938l-.008-.111h3.717a9.011 9.011 0 0 0 .112 1.254 1.503 1.503 0 0 0-.42-.06m.308-1.558h-3.716l.008-.111a4.079 4.079 0 0 1 .183-.94l.022-.07.072-.002a5.696 5.696 0 0 0 1.994-.583c.023.025.044.05.068.074a1.491 1.491 0 0 0 1.06.438 1.518 1.518 0 0 0 .422-.061 8.88 8.88 0 0 0-.113 1.255M9.157 30.543a2.525 2.525 0 0 0-2.184-2.517 1.605 1.605 0 0 0-.17-.014h-.001c-.215-.025-.25-.13-.306-.304a.704.704 0 0 0-.685-.563l-.082-.01-.023.08a.836.836 0 0 0 .325.947 1.716 1.716 0 0 0-.511.352 1.754 1.754 0 0 0-.508 1.28 1.555 1.555 0 0 0 .5 1.133 1.01 1.01 0 0 0 .6.266l.08.008.022-.077a1.013 1.013 0 0 0-.38-1.205c-.218-.193-.327-.306-.24-.559a1.17 1.17 0 0 1 1.256-.749 1.796 1.796 0 0 1 1.555 1.793 1.84 1.84 0 0 1-1.827 1.827h-.01a1.792 1.792 0 0 1-1.273-.526c-.715-.716-.73-2-.745-3.359-.005-.498-.012-1-.051-1.486a4.512 4.512 0 0 0 0-8.799c.039-.485.046-.987.05-1.484.016-1.359.03-2.644.746-3.359a1.788 1.788 0 0 1 1.274-.526h.009a1.839 1.839 0 0 1 1.827 1.827 1.796 1.796 0 0 1-1.555 1.792 1.168 1.168 0 0 1-1.256-.748c-.087-.254.022-.366.24-.56a1.012 1.012 0 0 0 .38-1.204l-.022-.077-.08.007a1.016 1.016 0 0 0-.599.267 1.555 1.555 0 0 0-.501 1.133 1.755 1.755 0 0 0 .508 1.28 1.716 1.716 0 0 0 .511.352.836.836 0 0 0-.325.947l.023.079.082-.01a.702.702 0 0 0 .685-.562c.057-.174.091-.279.306-.304h.001c.057-.003.114-.007.17-.015a2.525 2.525 0 0 0 2.184-2.517h32.927l-1.302-.946H8.971a2.594 2.594 0 0 0-.57-.861 2.553 2.553 0 0 0-3.607-.016c-1.074 1.074-1.086 2.663-1.098 4.2-.01 1.329-.02 2.584-.747 3.312a.906.906 0 0 1-1.494-.928.41.41 0 1 0-.071-.638 1.505 1.505 0 0 0-.365 1.522l-.001-.001a8.098 8.098 0 0 1 .376 2.439 8.098 8.098 0 0 1-.376 2.439 1.504 1.504 0 0 0 .366 1.52.41.41 0 1 0 .07-.638.906.906 0 0 1 1.495-.928c.728.727.737 1.983.747 3.311.012 1.537.024 3.126 1.098 4.2A2.553 2.553 0 0 0 8.4 32.35a2.6 2.6 0 0 0 .57-.86h39.69l.308-.947zm-1.62-7.788a3.99 3.99 0 0 1-.402 1.49l-.065.134-.103-.108a1.507 1.507 0 0 0-.804-.472l-.112-.019.03-.11a4.498 4.498 0 0 0 .153-.929l.006-.097h1.306zm-.467-2.21l.065.133a3.995 3.995 0 0 1 .403 1.491l.008.111H6.24l-.006-.098a4.486 4.486 0 0 0-.153-.929l-.03-.11.112-.02a1.473 1.473 0 0 0 .805-.471zm-2.621-2.02a4.042 4.042 0 0 1 1.243.53 4.09 4.09 0 0 1 1.13 1.091l.043.063-.047.061a1.245 1.245 0 0 1-.735.499l-.057.007-.024.003-.078.009-.03-.072a4.407 4.407 0 0 0-1.496-1.879q.028-.154.05-.312m-.143.713a4.167 4.167 0 0 1 1.129 1.378l.09.178-.197-.028a5.963 5.963 0 0 1-1.492-.486 3.37 3.37 0 0 0 .47-1.042M2.47 21.085a1.496 1.496 0 0 0 1.06-.437c.024-.024.045-.05.067-.074a5.705 5.705 0 0 0 1.995.582l.072.004.022.068a4.099 4.099 0 0 1 .183.94l.008.112H2.161a9.027 9.027 0 0 0-.113-1.255 1.515 1.515 0 0 0 .422.06m1.128 3.264c-.023-.024-.044-.05-.068-.074a1.493 1.493 0 0 0-1.06-.438 1.541 1.541 0 0 0-.421.06 8.997 8.997 0 0 0 .112-1.253h3.716l-.007.111a4.199 4.199 0 0 1-.177.938l-.022.07-.073.003a5.69 5.69 0 0 0-2 .583m.238.294a5.909 5.909 0 0 1 1.505-.488l.194-.027-.088.176a4.037 4.037 0 0 1-1.14 1.39 3.357 3.357 0 0 0-.471-1.051m.562 1.442a4.404 4.404 0 0 0 1.496-1.878l.03-.072.078.009.025.003.058.007a1.237 1.237 0 0 1 .733.499l.048.061-.044.062a4.077 4.077 0 0 1-1.132 1.093 3.995 3.995 0 0 1-1.241.529 7.852 7.852 0 0 0-.051-.313m50.428 4.458l-1.302.946h12.111l-1.302-.946h-9.507z"/><path class="cls-3" d="M76.767 13.433h-13.13L59.578.946l-4.056 12.487h-13.13l10.623 7.718-4.058 12.487 10.621-7.718 10.623 7.718-4.057-12.487zM68.402 31.16l-8.823-6.41-8.822 6.41 3.37-10.372-8.824-6.41H56.21l3.37-10.371 3.37 10.37h10.906l-8.824 6.41z"/><path class="cls-2" d="M59.579 4.008l-3.37 10.372H45.304l8.822 6.409-3.37 10.372 8.823-6.41 8.823 6.41-3.37-10.372 8.822-6.409H62.949l-3.37-10.372z"/><path class="cls-4" d="M61.654 24.177c-.209-.186-.069-.265-.078-.339-.137-.568-.589-.912-.355-1.1-.058-.188-.175-.424-.17-.423a7.01 7.01 0 0 1-1.406-1.158c-.124-.134-.334-.268-.374-.377a11.15 11.15 0 0 1-1.192-1.766l-.337-.048c-.153-.626-.664-1.15-.677-1.778a3.54 3.54 0 0 1 .15-.846 1.131 1.131 0 0 1 .236-.272v-.168c-.734.021-.523-.054-.65-.34-.089-.197-.025-.24.007-.378a8.326 8.326 0 0 1 .562-1.313c.041-.143.183-.488.183-.488.547-1.115.752-1.033 1.402-1.096l.032-.046c.652-.028.545-.077.637-.705-.095.041-.123-.197-.123-.197-.052-.357.098-.289.17-.296.015-.588.075-.773.5-.934a.516.516 0 0 1 .185-.033.795.795 0 0 1 .221.033.59.59 0 0 1 .378.287.171.171 0 0 1 .095.052l-1.47-4.527-2.94 9.05h-9.516l7.697 5.592-2.94 9.05 7.698-5.593 2.021 1.468a5.794 5.794 0 0 1 .054-1.31"/><path class="cls-5" d="M72.034 14.97H62.52l-1.356-4.172a1.1 1.1 0 0 1-.154.503c.131.088.03.219-.066.37-.027.049-.057.136-.145.13-.113.238-.25.468-.352.482a.165.165 0 0 0-.007.189 1.708 1.708 0 0 1 .426.247l.004.055c.118.069.177.124.295.2.314.198.7.549.651 1.758.088.263.127.78.208.947a2.639 2.639 0 0 1 .32.84s.048.476.11.51c.323.074.23.106.277.16a.054.054 0 0 0 .016.015l.014.01c.071.044.207.064.207.213h-.002a1.158 1.158 0 1 1-1.198-.431l-.002-.001c-.133-.334-.415-.875-.499-1.053-.079-.177-.27-1.278-.31-1.496-.01-.048-.5.284-.502.305-.029.028-.368.914-.382.962a1.328 1.328 0 0 0-.008.148s.167.02.263.312.385 1.352.385 1.352a.726.726 0 0 1-.082.076c.366 1.225.238 1.752.402 2.11.207.507.262.44.44.867.126.31.268 1.529.315 1.583a1.137 1.137 0 0 1 .304.588 2.979 2.979 0 0 0-.106.807c.037.144.056.466.123.528 0 0 .062.12.031.174-.008.019-.026.047-.018.069.11.385.461 1.04-.109 1.385a.283.283 0 0 1-.07.026l5.335 3.875-2.94-9.05z"/></g></g></svg>