<svg xmlns="http://www.w3.org/2000/svg" height="119.058" width="318.218" viewBox="769 126 318.21796 119.05805" id="Layer_1"><style id="style10">.st0{fill:#ed174c}.st1{fill:#fff}.st2{fill:#006bb6}.st3{fill:#002d62}</style><g transform="translate(-15.9 -9.242)" id="g44"><path id="path12" d="M1093.2 144.5c1.6-1.9 1.5-4.4 1.2-6-4.6-3-10.2-4-15.4-2.7 5.4.6 10.6 3.9 14.2 8.7zm-14.4 1.4c7.1 2.1 10.5 1.5 12.7.1-4-5.4-10.1-9.4-15.3-9.3-2 .8-3.8 1.9-5.5 3.3-2.5 2.1-4.3 4.7-5.4 7.5 2.4-2 6.6-3.6 13.5-1.6zm23 2.1c-.9 1.5-2.2 3.3-4.5 5.1.5 1.8.7 3.6.8 5.4 1.6-.1 3.1.3 4.4 1.5 1-4 .8-8.2-.7-12zm-7.4-1.7c.9 1.5 1.7 3 2.3 4.7 2-1.4 3.5-3 4.5-4.7-.1-.1-.1-.2-.2-.3-.7-1.3-1.5-2.6-2.5-3.8-.8-.9-1.6-1.7-2.5-2.5.2 1.8.3 4.5-1.6 6.6zm3.6 14c-.2 3.8-1.3 7.6-3.3 10.7l1.5-1.2c2.8-2.4 4.7-5.3 5.8-8.5-.8-.5-2.2-1.2-4-1zm-9.1 7.3c-3.8 5-9 5.8-12.3 5.6 5 1.9 10.7 1.7 15.6-.7 2.5-3.3 3.8-7.4 4-11.8-2.3.9-4.5 3.2-7.3 6.9zm-24.1-6.8l1.8-.3c12.8-2.1 22.3-4.8 28.3-8.4 0-.1 0-.1-.1-.2-.5-1.5-1.2-2.9-2.1-4.3-2.6 1.7-6.1 2.6-13.1.8-13.7-3.6-15.6 5.5-15.8 6.7v.2c-26 6.3-75.1 9.2-91 9.9l-.1.5c23.8.8 68-1.2 92.1-4.9zm22.1 5.4c3.8-3.8 6-6.6 9.2-7.5-.1-1.5-.3-2.9-.6-4.4-5.1 3.4-13.9 6.9-29.5 9.4l-1.8.3c-6.4 1-14 1.7-22.9 2.3-18.8 1.5-38.4 2.4-58.6 2.4-68.1 0-129.7-9.3-174.2-24.3l-.2.7c44.1 17.3 110.6 28.3 185 28.3 26.9 0 52.8-1.4 76.9-4.1 0 .1 9.7 4 16.7-3.1z" class="st0" fill="#ed174c"/><path id="path14" d="M793.4 150.8c-4.7 0-8.5 3.8-8.5 8.5v62.8c0 4.7 3.8 8.5 8.5 8.5h18.5c4.7 0 8.5-3.8 8.5-8.5v-62.8c0-4.7-3.8-8.5-8.5-8.5h-18.5z" class="st1" fill="#fff"/><g id="g36"><path id="path16" d="M925.4 232.8l-.1.5c70.4 5.9 137.6 21 137.6 21l1.3-5.4c-27.4-4.7-81.1-12.9-138.8-16.1z" class="st2" fill="#006bb6"/><g id="g32"><path id="path18" d="M812.2 153.1h-18.5c-3.5 0-6.3 2.8-6.3 6.3v62.8c0 3.4 2.8 6.3 6.3 6.3h18.5c3.5 0 6.3-2.8 6.3-6.3v-62.8c0-3.5-2.8-6.3-6.3-6.3z" class="st1" fill="#fff"/><path id="path20" d="M811 219.3c-.7-2.7-2.8-4.4-1.7-5.3-.3-.9-.8-2.1-.8-2-3.4-2-6.3-5.1-6.8-5.6-.6-.6-1.6-1.3-1.8-1.8-.8-.7-4.8-6.4-5.7-8.5l-1.6-.2c-.7-3-3.2-5.6-3.3-8.6 0-1.2.5-3.6.7-4.1.2-.5 1.1-1.3 1.1-1.3v-.9c-3.5.1-2.5-.3-3.1-1.6-.4-1-.1-1.1 0-1.8.5-1.9 2-5 2.7-6.3.2-.7.9-2.3.9-2.3 2.6-5.4 3.6-5 6.8-5.3l.2-.2c3.1-.1 2.6-.4 3.1-3.4-.5.2-.6-1-.6-1-.3-1.7.5-1.4.8-1.4.1-2.8.4-3.7 2.4-4.5h-10.6c-3.5 0-6.3 2.8-6.3 6.3v62.8c0 3.4 2.8 6.3 6.3 6.3h18.5c-2.1-1.1-.9-3.3-.8-7.5-1-1-.3-1.4-.4-1.8" class="st2" fill="#006bb6"/><path id="path22" d="M807.6 165.9c.6.3.8.6 1.4 1 1.5 1 3.4 2.7 3.1 8.5.4 1.3.6 3.8 1 4.6.8 1.6 1.3 2.6 1.5 4.1 0 0 .2 2.3.5 2.5 1.6.4 1.1.5 1.3.8.2.3 1.2.3 1.2 1.1.3.4.5.9.7 1.3v-30.4c0-3.5-2.8-6.3-6.3-6.3h-6c.9.4 1.5.8 1.8 1.4.8.1 1.7 1.8.3 4.3.6.4.1 1.1-.3 1.8-.1.2-.3.7-.7.6-.6 1.1-1.2 2.3-1.7 2.3-.2.2-.3.7 0 .9.7.3 1.6.8 2.1 1.2z" class="st0" fill="#ed174c"/><path id="path24" d="M813.3 197.3c-3.1 0-5.6-2.5-5.6-5.6 0-2.6 1.8-4.8 4.3-5.4-.6-1.6-2-4.2-2.4-5.1-.4-.9-1.3-6.2-1.5-7.2 0-.2-2.4 1.4-2.4 1.5-.1.1-1.8 4.4-1.8 4.6l-.1.7s.8.1 1.3 1.5 1.9 6.5 1.9 6.5l-.4.3c1.8 5.9 1.2 8.5 1.9 10.2 1 2.4 1.3 2.1 2.1 4.2.6 1.5 1.3 7.4 1.5 7.7.9 1.2 1.5 2.1 1.5 2.8 0 .7-.8 2.7-.5 3.9.2.7.3 2.3.6 2.5 0 0 .3.6.2.9l-.1.3c.5 1.9 2.2 5-.5 6.7 3-.4 5.3-3 5.3-6.2v-28.4c-.9 2.2-3 3.6-5.3 3.6z" class="st0" fill="#ed174c"/><path id="polygon26" class="st1" fill="#fff" d="M792.8 214.7h-2.1v9.4h1.9v-5.8l.1.3 1.5 5.5h2.1v-9.4h-1.9v5.5l-.1-.3z"/><path id="path28" d="M801.3 219.1c1-.4 1.2-1.2 1.2-2.2 0-1.6-.8-2.2-2.4-2.2H797v9.4h3.1c1.9 0 2.5-1.2 2.5-2.8.1-1.2-.3-2-1.3-2.2zm-2-2.8h.7c.5 0 .7.4.7 1s-.1 1.1-.8 1.1h-.6zm.6 6.2h-.6V220h.7c.7 0 .8.6.8 1.3-.1.8-.2 1.2-.9 1.2z" class="st1" fill="#fff"/><path id="path30" d="M807.3 214.7h-2.9l-1.7 9.4h2.2l.2-2.1h1.5l.2 2.1h2.3zm-2 5.8l.5-4.2v-.2.2l.5 4.2z" class="st1" fill="#fff"/></g><path id="path34" d="M823.1 224.2c-.4 1.7-1.4 3.2-2.6 4.3h38.6c126.2 0 221.4 18 221.4 18l5.2-22.2z" class="st2" fill="#006bb6"/></g><g id="g42"><path id="path38" d="M860.8 178c-2.1-2.7-6.3-4.1-12.4-4.1h-17c.9.5 1.4 1.3 1 2.7l-9.6 39.6c-.3 1.3-1.3 2.2-2.4 2.7h13.5c-.7-.6-1.2-1.1-1.2-1.9 0-.3 0-.6.1-1l4.2-17.5.3.1c4.6 1.5 10.6.1 13.4-1 1.6-.6 9.4-4.2 11.2-11.7.2-.9.4-1.9.4-3 .1-1.5-.3-3.3-1.5-4.9zm-8.8 8.3c-2.1 8.7-8.9 9.4-11.8 9.4-.5 0-1.7-.1-2-.2l-.2-.1 4.4-18.1h2.8c2.7 0 4.7.8 5.9 2.3 1.2 1.7 1.6 4.1.9 6.7z" class="st3" fill="#002d62"/><path id="path40" d="M919.6 216c-.5-2.3-8.4-39.7-8.4-39.7s-17.4 25.7-24.4 35.8c-2.4 2.6-4.6 2.9-10.5 3.1-2.8.1-5.5 0-6.7-.2l8.3-34.4c.3-1.4 1.1-2.2 2.2-2.7h-13c.9.5 1.4 1.3 1 2.7l-8.6 35.6c-.3 1.3-1.3 2.2-2.4 2.7h32.5c-1.5-.7-1.5-1.7-.8-3.1.2-.4 2.3-3.7 4.8-7.4h14c.7 3.7 1.3 6.9 1.3 7.6 0 1.1-.4 2-2.3 3H922c-1.7-1.2-2-1.8-2.4-3zm-23.3-11.2c1.7-2.5 8.3-12.6 8.3-12.6s1.3 6.8 2.5 12.6zm45.1-4.5l14.1-18.2c1.1-1.4 3.3-3.6 5.3-4.1h-9.5c1.7.3 1.5 1.9.6 3.1l-11.6 15.3-4.7-14.7c-.9-2.8.2-3.1 1.8-3.7h-15.7c1.6.8 1.7 1.5 2.3 2.9l7.7 19.7-3.8 15.8c-.4 1.6-1.7 2.2-2.8 2.7h14.1c-.9-.5-1.9-1.4-1.5-2.7zm112.4-5.7h-9l3.2-13.2s9.3.3 11.7.4c2.7.1 3.6 1.3 3.9 2.8l1.2-6.7h-27.5c.9.5 1.5 1.3 1.2 2.7l-8.6 35.6c-.4 1.6-1.1 2-2.5 2.7h13.2c-.9-.7-1.5-1.1-1.1-2.7l4.5-18.1h8.9c.9 0 1.7.8 1.7 1.7l1.7-6.9c-.3.8-1.6 1.7-2.5 1.7zm26.7-13.7c5.9 0 8.3 4.8 8.6 8.3l2.1-10c-.9-.5-1.8-.8-2.8-1.1-1.1.3-2.2.5-3.4.6-2.9.3-5.7 0-8.3-.7-4.8 1.4-10.1 4.8-11.6 11.3-1.1 4.4 0 7.9 4.5 11 4.4 3.1 10.6 3.6 9.2 9.2-.7 3-3.6 6.5-9 6.5-6.3 0-8.7-5.9-8.7-10.2l-2.5 11.4c1.9.8 5.9 2.4 11.5 2.4 8.5 0 16.4-5.4 18.2-13 2.1-8.8-3.6-10.9-8.4-13.3-4.9-2.4-7.5-3.4-6.6-7.1.5-2.6 3.1-5.3 7.2-5.3zm-99.1-3.8c-14.8-.1-25.7 10.1-28.4 21-3.1 12.4 4.7 21.3 17.5 21.4 11.7.1 24.7-6.7 28.3-21.1 3.5-13.9-6.8-21.2-17.4-21.3zm6.9 21.7c-2.7 11.1-9.6 16.7-16.2 16.7-6.7 0-11.4-5.7-8.3-18.2 2.6-10.4 9.4-16.3 16.4-16.3 7.1 0 10.9 6.3 8.1 17.8zm35.3-4.2h-9l3.2-13.2s9.3.3 11.6.4c2.7.1 3.6 1.3 3.9 2.8l1.2-6.7H1007c.9.5 1.5 1.3 1.2 2.7l-8.6 35.6c-.4 1.6-1.2 2-2.5 2.7h13.2c-.9-.7-1.5-1.1-1.1-2.7l4.5-18.1h9c.9 0 1.7.8 1.7 1.7l1.7-6.9c-.3.8-1.6 1.7-2.5 1.7z" class="st3" fill="#002d62"/></g></g></svg>