<?xml version="1.0" encoding="UTF-8" standalone="no"?>
<svg
   xmlns:dc="http://purl.org/dc/elements/1.1/"
   xmlns:cc="http://creativecommons.org/ns#"
   xmlns:rdf="http://www.w3.org/1999/02/22-rdf-syntax-ns#"
   xmlns:svg="http://www.w3.org/2000/svg"
   xmlns="http://www.w3.org/2000/svg"
   height="119.05805"
   width="318.21796"
   xml:space="preserve"
   viewBox="769 126 318.21796 119.05805"
   y="0px"
   x="0px"
   id="Layer_1"
   version="1.1"><metadata
     id="metadata51"><rdf:RDF><cc:Work
         rdf:about=""><dc:format>image/svg+xml</dc:format><dc:type
           rdf:resource="http://purl.org/dc/dcmitype/StillImage" /><dc:title></dc:title></cc:Work></rdf:RDF></metadata><defs
     id="defs49" /><style
     id="style10"
     type="text/css">
	.st0{fill:#ED174C;}
	.st1{fill:#FFFFFF;}
	.st2{fill:#006BB6;}
	.st3{fill:#002D62;}
</style><g
     transform="translate(-15.9,-9.2419472)"
     id="g44"><path
       style="fill:#ed174c"
       id="path12"
       d="m 1093.2,144.5 c 1.6,-1.9 1.5,-4.4 1.2,-6 -4.6,-3 -10.2,-4 -15.4,-2.7 5.4,0.6 10.6,3.9 14.2,8.7 z m -14.4,1.4 c 7.1,2.1 10.5,1.5 12.7,0.1 -4,-5.4 -10.1,-9.4 -15.3,-9.3 -2,0.8 -3.8,1.9 -5.5,3.3 -2.5,2.1 -4.3,4.7 -5.4,7.5 2.4,-2 6.6,-3.6 13.5,-1.6 z m 23,2.1 c -0.9,1.5 -2.2,3.3 -4.5,5.1 0.5,1.8 0.7,3.6 0.8,5.4 1.6,-0.1 3.1,0.3 4.4,1.5 1,-4 0.8,-8.2 -0.7,-12 z m -7.4,-1.7 c 0.9,1.5 1.7,3 2.3,4.7 2,-1.4 3.5,-3 4.5,-4.7 -0.1,-0.1 -0.1,-0.2 -0.2,-0.3 0,0 0,0 0,0 -0.7,-1.3 -1.5,-2.6 -2.5,-3.8 -0.8,-0.9 -1.6,-1.7 -2.5,-2.5 0.2,1.8 0.3,4.5 -1.6,6.6 z m 3.6,14 c -0.2,3.8 -1.3,7.6 -3.3,10.7 0.5,-0.4 1,-0.8 1.5,-1.2 2.8,-2.4 4.7,-5.3 5.8,-8.5 -0.8,-0.5 -2.2,-1.2 -4,-1 z m -9.1,7.3 c -3.8,5 -9,5.8 -12.3,5.6 5,1.9 10.7,1.7 15.6,-0.7 2.5,-3.3 3.8,-7.4 4,-11.8 -2.3,0.9 -4.5,3.2 -7.3,6.9 z m -24.1,-6.8 v 0 c 0.6,-0.1 1.2,-0.2 1.8,-0.3 12.8,-2.1 22.3,-4.8 28.3,-8.4 0,-0.1 0,-0.1 -0.1,-0.2 -0.5,-1.5 -1.2,-2.9 -2.1,-4.3 -2.6,1.7 -6.1,2.6 -13.1,0.8 -13.7,-3.6 -15.6,5.5 -15.8,6.7 0,0.1 0,0.1 0,0.2 -26,6.3 -75.1,9.2 -91,9.9 l -0.1,0.5 c 23.8,0.8 68,-1.2 92.1,-4.9 z m 22.1,5.4 c 3.8,-3.8 6,-6.6 9.2,-7.5 -0.1,-1.5 -0.3,-2.9 -0.6,-4.4 -5.1,3.4 -13.9,6.9 -29.5,9.4 0,0 -1.2,0.2 -1.8,0.3 -6.4,1 -14,1.7 -22.9,2.3 -18.8,1.5 -38.4,2.4 -58.6,2.4 -68.1,0 -129.7,-9.3 -174.2,-24.3 l -0.2,0.7 c 44.1,17.3 110.6,28.3 185,28.3 26.9,0 52.8,-1.4 76.9,-4.1 0,0.1 9.7,4 16.7,-3.1 z"
       class="st0" /><path
       style="fill:#ffffff"
       id="path14"
       d="m 793.4,150.8 c -4.7,0 -8.5,3.8 -8.5,8.5 v 62.8 c 0,4.7 3.8,8.5 8.5,8.5 h 18.5 c 4.7,0 8.5,-3.8 8.5,-8.5 v -62.8 c 0,-4.7 -3.8,-8.5 -8.5,-8.5 0.1,0 -18.5,0 -18.5,0 z"
       class="st1" /><g
       id="g36"><path
         style="fill:#006bb6"
         id="path16"
         d="m 925.4,232.8 -0.1,0.5 c 70.4,5.9 137.6,21 137.6,21 l 1.3,-5.4 C 1036.8,244.2 983.1,236 925.4,232.8 Z"
         class="st2" /><g
         id="g32"><path
           style="fill:#ffffff"
           id="path18"
           d="m 812.2,153.1 h -18.5 c -3.5,0 -6.3,2.8 -6.3,6.3 v 62.8 c 0,3.4 2.8,6.3 6.3,6.3 h 18.5 c 3.5,0 6.3,-2.8 6.3,-6.3 v -62.8 c 0,-3.5 -2.8,-6.3 -6.3,-6.3 z"
           class="st1" /><path
           style="fill:#006bb6"
           id="path20"
           d="m 811,219.3 c -0.7,-2.7 -2.8,-4.4 -1.7,-5.3 -0.3,-0.9 -0.8,-2.1 -0.8,-2 -3.4,-2 -6.3,-5.1 -6.8,-5.6 -0.6,-0.6 -1.6,-1.3 -1.8,-1.8 -0.8,-0.7 -4.8,-6.4 -5.7,-8.5 l -1.6,-0.2 c -0.7,-3 -3.2,-5.6 -3.3,-8.6 0,-1.2 0.5,-3.6 0.7,-4.1 0.2,-0.5 1.1,-1.3 1.1,-1.3 V 181 c -3.5,0.1 -2.5,-0.3 -3.1,-1.6 -0.4,-1 -0.1,-1.1 0,-1.8 0.5,-1.9 2,-5 2.7,-6.3 0.2,-0.7 0.9,-2.3 0.9,-2.3 2.6,-5.4 3.6,-5 6.8,-5.3 l 0.2,-0.2 c 3.1,-0.1 2.6,-0.4 3.1,-3.4 -0.5,0.2 -0.6,-1 -0.6,-1 -0.3,-1.7 0.5,-1.4 0.8,-1.4 0.1,-2.8 0.4,-3.7 2.4,-4.5 h -10.6 c -3.5,0 -6.3,2.8 -6.3,6.3 v 62.8 c 0,3.4 2.8,6.3 6.3,6.3 h 18.5 c -2.1,-1.1 -0.9,-3.3 -0.8,-7.5 -1,-1 -0.3,-1.4 -0.4,-1.8"
           class="st2" /><path
           style="fill:#ed174c"
           id="path22"
           d="m 807.6,165.9 c 0.6,0.3 0.8,0.6 1.4,1 1.5,1 3.4,2.7 3.1,8.5 0.4,1.3 0.6,3.8 1,4.6 0.8,1.6 1.3,2.6 1.5,4.1 0,0 0.2,2.3 0.5,2.5 1.6,0.4 1.1,0.5 1.3,0.8 0.2,0.3 1.2,0.3 1.2,1.1 0.3,0.4 0.5,0.9 0.7,1.3 v -30.4 c 0,-3.5 -2.8,-6.3 -6.3,-6.3 h -6 c 0.9,0.4 1.5,0.8 1.8,1.4 0.8,0.1 1.7,1.8 0.3,4.3 0.6,0.4 0.1,1.1 -0.3,1.8 -0.1,0.2 -0.3,0.7 -0.7,0.6 -0.6,1.1 -1.2,2.3 -1.7,2.3 -0.2,0.2 -0.3,0.7 0,0.9 0.7,0.3 1.6,0.8 2.1,1.2 z"
           class="st0" /><path
           style="fill:#ed174c"
           id="path24"
           d="m 813.3,197.3 c -3.1,0 -5.6,-2.5 -5.6,-5.6 0,-2.6 1.8,-4.8 4.3,-5.4 -0.6,-1.6 -2,-4.2 -2.4,-5.1 -0.4,-0.9 -1.3,-6.2 -1.5,-7.2 0,-0.2 -2.4,1.4 -2.4,1.5 -0.1,0.1 -1.8,4.4 -1.8,4.6 l -0.1,0.7 c 0,0 0.8,0.1 1.3,1.5 0.5,1.4 1.9,6.5 1.9,6.5 l -0.4,0.3 c 1.8,5.9 1.2,8.5 1.9,10.2 1,2.4 1.3,2.1 2.1,4.2 0.6,1.5 1.3,7.4 1.5,7.7 0.9,1.2 1.5,2.1 1.5,2.8 0,0.7 -0.8,2.7 -0.5,3.9 0.2,0.7 0.3,2.3 0.6,2.5 0,0 0.3,0.6 0.2,0.9 l -0.1,0.3 c 0.5,1.9 2.2,5 -0.5,6.7 v 0 c 3,-0.4 5.3,-3 5.3,-6.2 v -28.4 c -0.9,2.2 -3,3.6 -5.3,3.6 z"
           class="st0" /><polygon
           style="fill:#ffffff"
           id="polygon26"
           points="792.8,214.7 790.7,214.7 790.7,224.1 792.6,224.1 792.6,218.3 792.6,218.3 792.7,218.6 794.2,224.1 796.3,224.1 796.3,214.7 794.4,214.7 794.4,220.2 794.3,219.9 "
           class="st1" /><path
           style="fill:#ffffff"
           id="path28"
           d="m 801.3,219.1 v 0 c 1,-0.4 1.2,-1.2 1.2,-2.2 0,-1.6 -0.8,-2.2 -2.4,-2.2 H 797 v 9.4 h 3.1 c 1.9,0 2.5,-1.2 2.5,-2.8 0.1,-1.2 -0.3,-2 -1.3,-2.2 z m -2,-2.8 h 0.7 c 0.5,0 0.7,0.4 0.7,1 0,0.6 -0.1,1.1 -0.8,1.1 h -0.6 z m 0.6,6.2 h -0.6 V 220 h 0.7 c 0.7,0 0.8,0.6 0.8,1.3 -0.1,0.8 -0.2,1.2 -0.9,1.2 z"
           class="st1" /><path
           style="fill:#ffffff"
           id="path30"
           d="m 807.3,214.7 h -2.9 l -1.7,9.4 h 2.2 l 0.2,-2.1 h 1.5 l 0.2,2.1 h 2.3 z m -2,5.8 0.5,-4.2 v -0.2 0 0.2 l 0.5,4.2 z"
           class="st1" /></g><path
         style="fill:#006bb6"
         id="path34"
         d="m 823.1,224.2 c -0.4,1.7 -1.4,3.2 -2.6,4.3 h 38.6 c 126.2,0 221.4,18 221.4,18 l 5.2,-22.2 z"
         class="st2" /></g><g
       id="g42"><path
         style="fill:#002d62"
         id="path38"
         d="m 860.8,178 c -2.1,-2.7 -6.3,-4.1 -12.4,-4.1 0,0 -6.5,0 -11.1,0 h -5.9 c 0.9,0.5 1.4,1.3 1,2.7 l -9.6,39.6 c -0.3,1.3 -1.3,2.2 -2.4,2.7 h 13.5 c -0.7,-0.6 -1.2,-1.1 -1.2,-1.9 0,-0.3 0,-0.6 0.1,-1 l 4.2,-17.5 0.3,0.1 c 4.6,1.5 10.6,0.1 13.4,-1 1.6,-0.6 9.4,-4.2 11.2,-11.7 0.2,-0.9 0.4,-1.9 0.4,-3 0.1,-1.5 -0.3,-3.3 -1.5,-4.9 z m -8.8,8.3 c -2.1,8.7 -8.9,9.4 -11.8,9.4 -0.5,0 -1.7,-0.1 -2,-0.2 l -0.2,-0.1 4.4,-18.1 h 2.8 c 2.7,0 4.7,0.8 5.9,2.3 1.2,1.7 1.6,4.1 0.9,6.7 z"
         class="st3" /><path
         style="fill:#002d62"
         id="path40"
         d="m 919.6,216 c -0.5,-2.3 -8.4,-39.7 -8.4,-39.7 0,0 -17.4,25.7 -24.4,35.8 -2.4,2.6 -4.6,2.9 -10.5,3.1 -2.8,0.1 -5.5,0 -6.7,-0.2 l 8.3,-34.4 c 0.3,-1.4 1.1,-2.2 2.2,-2.7 h -13 c 0.9,0.5 1.4,1.3 1,2.7 l -8.6,35.6 c -0.3,1.3 -1.3,2.2 -2.4,2.7 h 32.5 c -1.5,-0.7 -1.5,-1.7 -0.8,-3.1 0.2,-0.4 2.3,-3.7 4.8,-7.4 h 14 c 0.7,3.7 1.3,6.9 1.3,7.6 0,1.1 -0.4,2 -2.3,3 H 922 c -1.7,-1.2 -2,-1.8 -2.4,-3 z m -23.3,-11.2 c 1.7,-2.5 8.3,-12.6 8.3,-12.6 0,0 1.3,6.8 2.5,12.6 z m 45.1,-4.5 14.1,-18.2 c 1.1,-1.4 3.3,-3.6 5.3,-4.1 h -9.5 c 1.7,0.3 1.5,1.9 0.6,3.1 l -11.6,15.3 -4.7,-14.7 c -0.9,-2.8 0.2,-3.1 1.8,-3.7 h -15.7 c 1.6,0.8 1.7,1.5 2.3,2.9 l 7.7,19.7 -3.8,15.8 c -0.4,1.6 -1.7,2.2 -2.8,2.7 h 14.1 c -0.9,-0.5 -1.9,-1.4 -1.5,-2.7 z m 112.4,-5.7 h -9 l 3.2,-13.2 c 0,0 9.3,0.3 11.7,0.4 2.7,0.1 3.6,1.3 3.9,2.8 l 1.2,-6.7 h -27.5 c 0.9,0.5 1.5,1.3 1.2,2.7 l -8.6,35.6 c -0.4,1.6 -1.1,2 -2.5,2.7 h 13.2 c -0.9,-0.7 -1.5,-1.1 -1.1,-2.7 l 4.5,-18.1 h 8.9 c 0.9,0 1.7,0.8 1.7,1.7 l 1.7,-6.9 c -0.3,0.8 -1.6,1.7 -2.5,1.7 z m 26.7,-13.7 c 5.9,0 8.3,4.8 8.6,8.3 l 2.1,-10 c -0.9,-0.5 -1.8,-0.8 -2.8,-1.1 -1.1,0.3 -2.2,0.5 -3.4,0.6 -2.9,0.3 -5.7,0 -8.3,-0.7 -4.8,1.4 -10.1,4.8 -11.6,11.3 -1.1,4.4 0,7.9 4.5,11 4.4,3.1 10.6,3.6 9.2,9.2 -0.7,3 -3.6,6.5 -9,6.5 -6.3,0 -8.7,-5.9 -8.7,-10.2 l -2.5,11.4 c 1.9,0.8 5.9,2.4 11.5,2.4 8.5,0 16.4,-5.4 18.2,-13 2.1,-8.8 -3.6,-10.9 -8.4,-13.3 -4.9,-2.4 -7.5,-3.4 -6.6,-7.1 0.5,-2.6 3.1,-5.3 7.2,-5.3 z m -99.1,-3.8 c -14.8,-0.1 -25.7,10.1 -28.4,21 -3.1,12.4 4.7,21.3 17.5,21.4 11.7,0.1 24.7,-6.7 28.3,-21.1 3.5,-13.9 -6.8,-21.2 -17.4,-21.3 z m 6.9,21.7 c -2.7,11.1 -9.6,16.7 -16.2,16.7 -6.7,0 -11.4,-5.7 -8.3,-18.2 2.6,-10.4 9.4,-16.3 16.4,-16.3 7.1,0 10.9,6.3 8.1,17.8 z m 35.3,-4.2 h -9 l 3.2,-13.2 c 0,0 9.3,0.3 11.6,0.4 2.7,0.1 3.6,1.3 3.9,2.8 l 1.2,-6.7 H 1007 c 0.9,0.5 1.5,1.3 1.2,2.7 l -8.6,35.6 c -0.4,1.6 -1.2,2 -2.5,2.7 h 13.2 c -0.9,-0.7 -1.5,-1.1 -1.1,-2.7 l 4.5,-18.1 h 9 c 0.9,0 1.7,0.8 1.7,1.7 l 1.7,-6.9 c -0.3,0.8 -1.6,1.7 -2.5,1.7 z"
         class="st3" /></g></g></svg>