<svg width="512" height="512" viewBox="0 0 512 512" xmlns="http://www.w3.org/2000/svg"><title>boston-bruins</title><g fill="none" fill-rule="evenodd"><g fill="#FFF"><path d="M392.118 401.208a9.079 9.079 0 1 0 .066-18.158 9.079 9.079 0 0 0-.066 18.158zm0-16.194a7.104 7.104 0 1 1 .088 14.208 7.104 7.104 0 0 1-.088-14.208z"/><path d="M390.353 393.111h1.39l1.964 4.192h2.184l-2.074-4.39a3.089 3.089 0 0 0-1.015-5.98h-4.39v10.37h1.963l-.022-4.192zm0-4.214h2.45c.595 0 1.102.508 1.102 1.125a1.103 1.103 0 0 1-1.103 1.147h-2.449v-2.272z"/></g><path d="M256.5 433c97.478 0 176.5-79.022 176.5-176.5S353.978 80 256.5 80c-96.39 1.524-173.731 80.098-173.731 176.5S160.109 431.476 256.5 433z" fill="#FCB514"/><path d="M256.5 426.425A169.881 169.881 0 0 0 426.425 256.5c0-93.847-76.078-169.925-169.925-169.925-93.847 0-169.925 76.078-169.925 169.925 0 93.847 76.078 169.925 169.925 169.925z" fill="#111"/><path d="M365.378 161.212a140.207 140.207 0 0 0-13.568-13.524l-29.431 29.387 13.767 13.348 29.232-29.21zm-99.28-49.045a138.442 138.442 0 0 0-9.598-.375c-3.221 0-6.398.132-9.597.353v46.508h19.172v-46.486h.022zm-90.766 49.619l-14.142-14.12c-4.832 4.192-9.332 8.736-13.546 13.546l27.688 27.666v-27.092zm-14.098 203.57l14.12-14.12v-27.114l-27.666 27.688a142.738 142.738 0 0 0 13.546 13.546zm26.299-118.431h-75.366c-.22 3.155-.375 6.354-.375 9.575 0 3.221.154 6.42.375 9.597h75.366v-19.172zM327.74 256.5l9.862 9.597h63.253c.22-3.177.375-6.376.375-9.597 0-3.221-.154-6.42-.353-9.575h-63.253l-9.884 9.575zm-5.361 79.447l29.409 29.41a137.742 137.742 0 0 0 13.546-13.547l-29.21-29.21-13.745 13.347zm-75.476 64.886c3.194.235 6.395.36 9.597.375 3.221 0 6.42-.155 9.597-.375v-46.464h-19.172v46.464h-.022z" fill="#FCB514"/><path fill="#FCB514" d="M194.968 308.545l-12.223 11.87v26.497h117.726l29.784-28.968v-48.648l-13.15-12.796 13.15-12.818v-48.626l-29.784-28.99H182.745v26.519l12.223 11.87z"/><path d="M239.026 354.37h-55.641l-16.062 16.06a144.134 144.134 0 0 0 71.703 29.719v-45.78zm64.445 0h-29.475v45.757a144.112 144.112 0 0 0 71.703-29.718L316.73 341.44l-13.26 12.928zm-115.938-53.613v-26.783h-74.66a143.936 143.936 0 0 0 29.718 71.703l44.942-44.92zm0-88.492l-44.942-44.942a144.134 144.134 0 0 0-29.718 71.704h74.66v-26.762zm129.176-40.706l28.968-28.968a144.068 144.068 0 0 0-71.704-29.696v45.78h29.476l13.26 12.884zm20.959 102.437v38.962l32.74 32.719a144.178 144.178 0 0 0 29.74-71.681h-62.48zm-98.642-115.343v-45.758a143.914 143.914 0 0 0-71.703 29.696l16.084 16.084h55.62v-.022zm98.642 80.374h62.48a144.068 144.068 0 0 0-29.74-71.704l-32.74 32.741v38.963z" fill="#FFF"/><path fill="#111" d="M188.878 323.018v17.805H298l26.144-25.46V271.9l-15.82-15.4 15.798-15.378V197.66l-26.144-25.46h-109.1v17.783l12.223 11.87V311.15z"/><path d="M296.102 303.714v-22.835l-11.98-11.671h-56.899v46.133H284.1l12.002-11.627zm0-71.593v-22.813l-11.98-11.67h-56.899v46.132H284.1l12.002-11.65z" fill="#FCB514"/><path d="M289.99 211.912l-8.36-8.141h-48.274v33.866h48.273l8.362-8.12v-17.605zm0 71.57l-8.36-8.119h-48.274v33.844h48.273l8.362-8.097v-17.628z" fill="#111"/><path d="M282.556 226.407v-11.362l-3.95-3.84H240.77v19.019h37.838l3.949-3.817zm0 71.548v-11.362l-3.95-3.817H240.77v19.018h37.838l3.949-3.839z" fill="#FFF"/></g></svg>