<svg width="512" height="512" viewBox="0 0 512 512" xmlns="http://www.w3.org/2000/svg"><title>chicago-blackhawks</title><g fill="none" fill-rule="evenodd"><path d="M394.667 312.63a6.919 6.919 0 1 0 .041 13.839 6.919 6.919 0 0 0-.041-13.838zm0 12.405a5.444 5.444 0 0 1-5.444-5.485 5.444 5.444 0 1 1 10.887 0 5.464 5.464 0 0 1-5.443 5.485z" fill="#000"/><path d="M397.513 317.992a2.306 2.306 0 0 0-2.306-2.307h-3.325v7.916h1.455v-3.24h1.06l1.495 3.24h1.621l-1.579-3.366a2.473 2.473 0 0 0 1.58-2.243zm-2.327.893h-1.912v-1.745h1.912c.416 0 .81.415.81.852 0 .477-.353.893-.81.893z" fill="#000"/><path d="M433.417 303.904c0-13.069 12.82-61.605-80.389-135.012l15.667-3.49-8.083-26.596-15.541 10.368v-16.102h-30.523c-19.925-14.357-29.504-32.683-60.836-32.683-13.09 0-26.845 2.597-29.837 2.597-2.306 0-9.287-1.475-21.151-1.475-34.262 0-37.42 25.556-33.14 34.532-45.067 30.875-67.382 53.107-67.382 61.169 0 3.096 1.829 7.127 1.829 12.944 0 12.675-27.385 40.6-27.385 55.393 0 13.776 17.578 14.731 17.578 14.731.997 4.052-5.818 17.578.29 24.476-8.476 9.205 1.414 13.797 1.414 21.11 0 4.945-3.45 6.483-3.45 15.625 0 10.43 4.883 22.959 30.606 22.959 10.16 0 19.157-1.58 26.304-1.58 2.016 21.589 11.22 30.066 12.737 35.468 1.246 4.343 4.072 13.713 9.786 13.713 7.46 0 48.62-13.464 79.869-32.433 15.645 5.796 35.57 3.906 42.801 3.906 7.917 0 11.158 4.82 15.833 4.82 2.805 0 24.019-23.749 22.73-75.692 13.319 22.523 21.193 37.17 21.962 45.565 17.287-6.171 31.81-46.999 25.536-73.012 0 0 21.754 35.3 54.748 30.106a41.617 41.617 0 0 1-1.973-11.407z" fill="#000"/><path d="M226.099 336.172c7.978-12.259 3.428-33.348-11.76-27.51-8.768-14.315-18.7-33.721-18.7-57.678 0-25.535 5.215-32.226 5.215-54.79 0-38.439-17.786-46.043-29.192-53.772-27.177 18.388-63.226 43.59-63.226 56.992 0 3.948 1.745 7.667 1.745 11.553 0 13.879-27.01 40.827-27.01 53.876 0 4.903 3.905 8.996 10.18 8.996s22.253-2.264 28.258-2.97c6.004-.603 6.67-3.533 6.67-5.112 0-3.906-6.172-9.33-10.847-9.33-3.906 0-4.259 2.286-4.259 2.868 0 2.556 3.678 3.283 3.678 3.283 4.675-.623 4.695 3.47.249 3.47-3.657 0-7.75-2.701-7.75-7.355 0-4.675 3.74-5.839 6.524-5.839 11.677 0 18.388 10.555 16.456 17.287 14.482 7.189 14.066 17.723 11.677 17.723-5.008 0-1.538-13.318-20.383-13.318-5.277 0-16.331 1.579-18.949 1.87-2.556.29-3.345.665-3.657 2.846-.332 2.12-3.054 9.911-3.054 14.69 0 7.064 4.716 7.542 7.75 7.542 7.937 0 21.38-1.911 21.38-5.07 0-2.077-3.408-1.454-4.654-1.454-2.39 0-3.47-1.454-3.47-2.306 0-2.12 3.428-3.117 7.5-3.117 6.753 0 7.46 4.426 7.127 6.462-.748 4.55 6.566 3.449 6.566 13.11 0 1.102-.083 3.865-2.39 3.865-2.327 0-2.347-2.888-2.347-4.509 0-1.579-2.64-4.134-4.904-4.134-2.39 0-11.074 4.467-29.774 2.763-7.376 9.288 1.33 9.953 1.33 19.323 0 10.43-3.2 9.786-3.2 16.144 0 12.695 13.921 15.999 27.821 15.999 28.756 0 61.21-6.649 72.638-27.24-3.906 18.181-18.554 24.684-43.466 30.357 2.825 20.175 7.002 24.829 10.035 30.272 3.034 5.486 3.699 13.111 9.06 13.111 6.42 0 44.255-13.63 69.708-28.985l-18.575-39.913z" fill="#D18A00"/><path d="M190.154 296.279c-5.527-6.005-13.817-23.458 2.66-38.397-12.592-3.387-29.92 30.315-2.66 38.397zm-19.718-116.354a2.16 2.16 0 0 0 2.992.29c.665-.58 1.122-1.973.249-2.991a111.139 111.139 0 0 0-13.505-13.194l3.407-2.555c3.283 2.742 15.999 13.65 23.998 23.603a2.14 2.14 0 0 0 2.992.312 2.12 2.12 0 0 0 .333-2.95c-7.834-9.725-19.614-19.947-23.832-23.583 1.392-.998 2.597-1.933 3.22-2.369 8.581 6.233 13.443 12.217 13.506 12.28a2.078 2.078 0 0 0 2.95.332 2.12 2.12 0 0 0 .374-2.971 82.341 82.341 0 0 0-15.645-13.983 2.078 2.078 0 0 0-2.494.041l-13.463 10.077c-1.247.914-.998 2.556-.042 3.366 8.415 6.545 14.897 14.212 14.96 14.295zm-4.031 17.66c-12.82 0-17.038-13.754-33.14-13.754-8.644 0-13.09 3.387-13.09 6.254 0 2.868 3.345 5.382 3.345 5.382 1.62 3.532-9.599 7.396-3.698 9.765l7.251 2.826c-2.348 4.114-.831 11.739-.374 13.65-14.835.125-13.401 4.738-.54 4.925.041 2.12-1.475 7.791.831 7.791 2.431 0 5.548-2.846 6.732-8.248 10.804-1.33 22.98-5.05 22.98-5.05 2.16-.602 4.342-2.576.166-5.048l-19.863-11.698s-1.704-.997-.582-3.594l1.517-3.512c.436-1.06 1.517-1.205 2.036-1.205 5.651 0 14.15 8.457 25.37 8.457 4.861 0 10.284-2.847 10.284-5.59 0-2.742-6.67-1.35-9.225-1.35z" fill="#000"/><path d="M135.675 211.403a24.143 24.143 0 0 0-.062 10.077c12.736-.769 17.951-3.096 17.951-3.096l-17.889-6.981zm-19.614 105.861c-1.392.686 4.28 12.467 3.262 17.744.852 2.39 4.384 11.158 10.347 8.124 5.943-3.033.915-10.991-.52-13.11-4.903-2.307-11.697-13.506-13.089-12.758zm52.505-83.588c-4.924 1.31-9.433 6.192-18.347 8.582-3.303.851-9.08.02-10.804.02 1.35 1.829 4.903 5.008 4.903 5.008s-1.309 3.241-1.579 5.464c1.476-.872 5.797-3.49 9.1-4.342 8.935-2.348 15.252-.291 20.176-1.58 2.306-.644 6.545-1.807 4.841-8.352-1.704-6.503-6.005-5.444-8.29-4.8z" fill="#FFF"/><path d="M220.884 310.553c-5.444-1.579-11.906 4.135-14.42 12.737-2.493 8.602-.104 16.85 5.319 18.471 5.444 1.58 11.885-4.093 14.399-12.737 2.514-8.602.104-16.892-5.298-18.47zm-98.486 3.782c-2.66-3.699-4.093-.374-6.919 1.142-2.825 1.413-6.42.645-4.903 4.945 1.6 4.675-1.787 14.17-.312 17.038 1.205 2.306 3.782 3.2 5.88 2.16a6.233 6.233 0 0 0 3.18-4.632c1.017-5.278-2.037-12.57-.645-13.319 1.371-.727 5.548 6.046 10.43 8.311a6.296 6.296 0 0 0 5.59.125c2.098-1.101 2.867-3.782 1.703-6.088-1.496-2.867-11.157-5.672-14.004-9.682zm38.5-63.04c-1.454.396-3.677 1.642-7.334 2.619-3.636.976-8.207.997-8.934-1.808a1.309 1.309 0 0 1-.02-.748c.27-2.265 3.573-5.277 3.573-5.277s-4.363-.977-5.714-2.826a2.286 2.286 0 0 1-.353-.665c-.748-2.784 3.283-5.028 6.919-5.984 3.615-.977 6.192-.977 7.667-1.33 2.95-.79 5.423-2.742 4.82-5.07-1.184-4.342-6.815-3.282-9.931-2.472-15.584 4.114-19.033 10.513-17.89 14.96 1.164 4.425 6.213 5.568 6.213 5.568s-3.823 3.49-2.66 7.916c1.143 4.405 7.314 8.27 22.897 4.177 3.137-.831 8.581-2.68 7.459-7.002-.644-2.39-3.781-2.826-6.711-2.057zm159.593-86.122c-45.461 34.034-69.916 84.772-77.355 102.142 0 0-.976 2.036.166 4.26l14.4 28.05c.602 1.184 1.89 1.37 2.867.477l23.686-21.38c1.62-1.496 2.16-3.865 2.16-3.865 10.805-61.813 25.37-92.023 34.45-105.716a10.202 10.202 0 0 1-.457-3.075c.083-.311.083-.602.083-.893z" fill="#CF0A2C"/><path d="M358.223 147.055l-12.217 8.082 2.846 9.309 13.713-3.034-4.342-14.357zm-33.514 28.382a11.365 11.365 0 0 1-2.265-2.722c-14.565 23.354-33.16 81.78-33.16 131.792 0 51.175 15.665 78.352 21.296 78.352 4.342 0 19.676-27.385 19.676-62.707 0-9.661-8.082-48.328-8.082-120.945.02-15.542 1.184-19.698 2.535-23.77zm-77.978 93.395l12.903 27.883 23.478-21.754s11.324-66.03 31.499-102.433c-53.253 51.653-67.88 96.304-67.88 96.304zm86.247-112.22a9.495 9.495 0 1 0 0 18.991 9.495 9.495 0 0 0 0-18.99z" fill="#00833E"/><path d="M295.89 173.962c3.158 0 2.764-4.26-.207-4.26-45.503 0-71.579 5.777-75.589 6.732-2.535-22.294-15.355-29.42-15.355-43.84 0-5.61 3.699-6.732 6.732-6.732 10.638 0 18.617 12.466 33.369 12.466 13.713 0 16.664-9.723 24.497-9.723 11.718 0 6.565 31.207 27.343 31.207 6.566 0 10.866-2.618 10.866-2.618 2.847-1.558.167-4.903-2.223-3.656 0 0-4.176 2.14-8.27 2.14-17.577 0-9.91-31.312-28.153-31.312-8.747 0-11.677 9.64-24.289 9.64-14.107 0-19.697-12.611-33.68-12.611-7.937 0-10.783 5.298-10.783 10.638 0 15.978 15.77 28.133 15.77 50.032 0 22.294-7.605 41.888-7.605 72.846 0 36.09 34.283 46.729 34.283 80.367 0 19.033 7.314 30.751 15.458 30.751 4.488 0 8.665-2.639 10.66-9.62a8.56 8.56 0 0 0 3.158.727c6.383-.583 11.164-6.107 10.825-12.508 0-28.693-49.285-43.508-49.285-88.45 0-21.608 3.47-56.182 8.768-56.182 2.785 0 6.254 12.093 12.883 12.093 8.227 0 5.36-23.874 9.017-23.874 2.95 0 7.334 11.158 12.55 11.158 4.217 0 5.61-8.664 7.417-15.459.686-3.179-3.781-4.051-4.425-.852-1.143 5.05-3.533 11.74-3.533 11.74-2.722-2.68-7.022-10.867-12.258-10.867-8.353 0-7.127 23.832-9.018 23.832-3.49 0-5.693-12.384-13.318-12.384-9.807 0-12.695 34.117-12.695 60.962 0 47.227 49.326 63.06 49.326 87.805 0 6.213-4.55 8.353-6.38 8.353a7.937 7.937 0 0 1-2.222-.436c.249-1.704.374-3.616.374-5.714 0-14.565-8.02-17.329-11.283-17.329-3.24 0-5.09 2.847-5.09 7.543 0 6.295 5.568 13.276 10.991 17.286-.83 3.927-2.535 7.543-6.191 7.543-7.086 0-11.116-16.435-11.116-26.263 0-35.509-34.262-45.773-34.262-81.24 0-30.21 7.625-49.575 7.625-69.646a70.228 70.228 0 0 0-.083-3.636c4.695-1.04 34.054-7.605 75.401-6.65z" fill="#FFD100"/><path d="M259.426 333.492c-.644 0-1.288.935-1.288 3.365 0 2.764 3.095 8.478 6.96 12.26.125-1.954.104-3.575.104-4.426 0-3.2-1.808-11.2-5.776-11.2z" fill="#000"/><path d="M318.808 185.203s-25.93 54.582-25.93 118.182c0 42.116 13.069 74.3 16.684 74.3 2.846 0 16.144-20.05 16.144-61.896 0-16.871-9.121-81.074-6.898-130.586z" fill="#FFD100"/><path d="M306.445 265.32l-9.37 7.231c-1.102 9.06-1.829 18.43-1.953 28.05l10.305-7.023c.083-8.228.353-17.64 1.018-28.257zm6.94-42.718a753.433 753.433 0 0 0-3.782 41.597l10.472 7.729a957.364 957.364 0 0 1-3.532-49.118c-.083-2.348-2.68-4.55-3.158-.208zm-4.924 72.576l14.523 10.015c-.52-8.041-1.579-18.513-2.68-30.149l-10.867-8.082a560.064 560.064 0 0 0-.976 28.216zm1.745-72.472c.374-2.847-1.995-2.39-2.473-.727-3.926 13.297-7.833 29.525-10.264 47.31l9.122-7.023a800.68 800.68 0 0 1 3.615-39.56zm-12.82 111.263c.727 4.862 1.58 9.371 2.556 13.464 1.496 1.62 5.672 4.592 9.204-6.004 6.005 9.952 9.787 8.643 10.95 7.791.81-3.657 1.538-7.667 2.12-12.134l-14.4-9.578-10.43 6.461zm11.968-8.31l13.194 8.81a143.676 143.676 0 0 0 .685-26.201l-14.772-10.14c-.042 12.55.498 21.754.893 27.53zm-3.968-29.172l-10.264 7.023c0 10.056.727 19.447 1.911 27.883l9.246-5.755a363.46 363.46 0 0 1-.893-29.151z" fill="#00833E"/><g transform="translate(235.22 152.333)" fill="#CF0A2C"><path d="M29.005 86.518a243.575 243.575 0 0 0-13.65 26.47c-.894 2.182-1.268 3.408-1.268 3.408l11.075 23.894 20.403-18.991c.25-1.06 2.078-11.22 5.236-24.954 4.592-19.447 12.259-47.933 20.694-65.22a392.383 392.383 0 0 0-42.49 55.393z"/><ellipse cx="97.758" cy="13.755" rx="6.067" ry="6.067"/></g><path d="M291.839 205.585c-.52-.27-1.226-.062-1.455.478a439.891 439.891 0 0 0-11.074 23.686l-12.965 5.735c-.7 1.1-1.385 2.208-2.057 3.324L278 232.741c-3.574 8.395-6.462 16.02-8.893 22.648l-17.287 7.002c-.412.958-.813 1.921-1.205 2.888l17.495-7.106c-5.36 15.272-7.563 24.663-7.626 24.808-.124.561.229 1.226.832 1.289a1.101 1.101 0 0 0 1.309-.852c.041-.125 2.16-9.122 7.313-23.894l9.288 15.604 1.579-1.496.041-.042-9.952-16.747a401.687 401.687 0 0 1 7.958-20.57l7.189 12.363c.25-1.039.436-2.078.727-3.137l-6.815-11.781c3.49-8.228 7.542-17.204 12.383-26.678.27-.499.021-1.122-.498-1.455z" fill="#FFF"/><path d="M339.876 138.12h-20.008l12.778 13.839h7.23V138.12zm74.176 99.65c-21.796-35.031-59.86-64.473-68.587-70.997-.124 2.015-2.077 5.34-3.033 6.981-1.184 1.268-2.556 2.764-3.241 3.158 1.496 6.047 3.823 14.69 6.898 24.726 4.592 11.136 9.703 24.87 14.045 39.186 4.945 11.843 10.7 23.645 17.204 34.096 26.99 43.383 53.938 37.42 53.938 37.42-4.633-7.376 8.956-32.413-17.224-74.57z" fill="#FF671B"/><path d="M405.99 240.263c-17.203-27.697-53.855-60.629-62.166-67.963a11.573 11.573 0 0 1-1.87 2.535c5.236 14.876 25.64 70.726 44.443 100.937 18.347 29.545 36.278 28.09 36.278 28.09s6.025-26.99-16.685-63.6z" fill="#FFF"/><g fill="#FF671B"><path d="M344.717 176.123c2.93 8.145 8.685 23.832 15.833 41.18l1.911-10.513-9.329-15.001a1.101 1.101 0 0 1 .374-1.538c.561-.311 1.226-.166 1.496.374l8.976 14.337 13.838 3.428a527.603 527.603 0 0 0-33.099-32.267z"/><path d="M365.557 207.663l16.518 26.554 21.443 6.337c-6.047-9.537-14.358-19.697-23-29.193l-14.96-3.698zm-3.49 13.422c4.01 9.641 8.435 19.677 12.986 29.089l5.36-14.461-16.227-26.118-2.12 11.49zm58.738 80.513c.478-4.176 1.226-15.334-3.325-30.73l-14.212-2.597 8.353 13.464c.374.478.166 1.184-.374 1.496-.478.332-1.226.166-1.538-.374l-8.435-13.63-5.36 16.02c11.136 13.255 21.026 15.81 24.89 16.351zm-36.984-64.556l17.848 28.694 15.063 2.743a117.019 117.019 0 0 0-11.49-25.1l-21.421-6.337zm10.43 46.21l5.527-16.435-17.848-28.736-5.485 14.856c3.906 7.937 7.874 15.355 11.801 21.671 2.036 3.241 4.031 6.13 6.005 8.644z"/></g><g transform="translate(110.555 193.888)" fill="#D18A00"><path d="M23.292.79l-8.083 2.16c-1.704.437-1.787 1.413-.166 2.203l6.13 2.95a1.247 1.247 0 0 0 1.661-.602l2.099-4.82c.603-1.434-.145-2.286-1.641-1.891z"/><ellipse transform="rotate(-73.776 110.311 133.517)" cx="110.228" cy="128.842" rx="10.306" ry="5.714"/></g><path d="M360.134 240.845a445.677 445.677 0 0 0-14.045-39.187c-3.075-10.056-5.402-18.7-6.898-24.725a12.737 12.737 0 0 1-12.093.166c-3.865 89.593 5.028 105.093 6.649 130.69 22.606 35.634 23.416 46.023 23.416 46.023s26.408-18.513 20.341-73.449a220.304 220.304 0 0 1-12.903-22.855" fill="#FFD100"/><path d="M367.593 272.572a187.476 187.476 0 0 0-3.012-15.064 288.952 288.952 0 0 0-4.467-16.643 459.536 459.536 0 0 0-14.046-39.186c-4.509-10.929-8.394-19.344-10.264-23.395-1.79.404-3.645.425-5.444.062-.852 9.64-3.927 50.863 1.953 87.972 8.394 53.232 28.61 72.513 28.61 72.513s13.984-20.112 6.67-66.26z" fill="#001970"/><path d="M341.663 238.684l-6.981-44.132c-.333-1.994-2.971-1.745-3.075 1.143-.561 13.402-.81 32.288.81 51.57l9.246-8.581zm7.355 46.541l-3.449-21.816-9.703 9.64a209.918 209.918 0 0 0 5.32 21.796l7.832-9.62zm-16.372-35.03c.478 5.277 1.184 10.554 1.994 15.749.25 1.475.437 2.93.686 4.322l9.828-9.662-3.034-19.136-9.474 8.727zm4.342-55.996l7.065 44.734 15.583 8.768a445.885 445.885 0 0 0-19.801-54.77c-.644-1.724-3.242-1.35-2.847 1.268zm18.077 116.271l-5.444-22.315-7.625 9.33c2.763 8.56 5.713 15.624 8.518 21.213l4.55-8.228zm-10.555-68.607c1.018 6.337 2.036 12.632 2.93 18.43l17.452 9.952a223.503 223.503 0 0 0-4.342-19.365l-16.04-9.017zm3.366 21.338l3.449 21.63 15.998 8.643a173.492 173.492 0 0 0-1.953-20.3l-17.494-9.973zm17.411 56.64l-8.643-7.418-4.862 8.81c3.615 6.69 6.773 11.116 8.768 13.547 1.288-2.764 3.241-7.667 4.737-14.94zm2.057-23.687l-15.417-8.31c1.185 4.757 4.55 18.658 5.402 22.148l8.436 7.272c1.018-5.776 1.704-12.799 1.58-21.11z" fill="#FFD100"/></g></svg>