<svg width="512" height="512" viewBox="0 0 512 512" xmlns="http://www.w3.org/2000/svg"><title>colorado-avalanche</title><g fill="none" fill-rule="evenodd"><path d="M406.852 276.745c0 4.216 3.42 7.657 7.697 7.657a7.697 7.697 0 1 0 0-15.394 7.717 7.717 0 0 0-7.697 7.737zm13.723 0a6.046 6.046 0 1 1-12.073.673 6.046 6.046 0 0 1 12.073-.673z" fill="#000"/><path d="M411.367 281.14h1.65v-3.6h1.194l1.65 3.6h1.83l-1.73-3.739a2.546 2.546 0 0 0 1.73-2.486 2.605 2.605 0 0 0-2.605-2.605h-3.72v8.83zm1.67-7.14h2.069a.965.965 0 1 1 0 1.93h-2.069V274z" fill="#000"/><path d="M394.402 280.484c11.535-15.791 18.198-32.418 18.198-48.846 0-37.45-37.331-65.891-102.208-65.891-2.346 0-4.713.04-7.08.12-5.986-11.775-19.57-17.304-28.6-18.935l-16.865-26.67-38.246 62.45C151.284 207.85 95.994 257.016 95.994 304.43c0 17.044 7.776 32.26 22.334 43.715l-28.241 46.161s58.353-8.472 125.516-12.072l4.913-13.027a280.35 280.35 0 0 0 78.321-19.69 15.672 15.672 0 0 0 1.114 8.532l4.415 8.87c7.06 14.042 19.79 27.188 41.706 27.188 61.218 0 79.296-50.954 79.296-50.954-.02-28.5-13.086-49.145-30.966-62.669z" fill="#2A6190"/><g fill="#ADAFAA"><path d="M267.015 325.69c-31.085 0-51.889 15.574-80.19 15.574-39.4 0-51.492-27.805-51.492-47.057 0-59.288 69.889-95.027 69.889-95.027l1.392-2.248-1.73.855c-11.596 5.708-74.344 39.26-74.344 96.42a52.406 52.406 0 0 0 8.532 29.097l-39.737 64.897s49.005-7.001 112.887-10.521l14.817-39.2c12.968-3.82 25.617-7.678 41.925-7.678 34.587 0 56.802 18.556 56.802 18.556s-12.649-23.667-58.75-23.667z"/><path d="M269.402 147.35l-11.515-18.158-82.498 134.785c0 1.61.139 4.534.756 7.875 1.75 9.567 7.478 23.091 26.113 23.091 37.291 0 91.17-34.467 132.18-34.467a81.046 81.046 0 0 1 6.642.259L269.402 147.35z"/></g><path d="M257.966 138.161l-81.821 133.672c1.75 9.566 7.478 23.09 26.113 23.09 37.291 0 91.17-34.467 132.18-34.467.298 0 .576 0 .895.04l-77.367-122.335zm-115.83 189.22l-33.553 54.813s41.786-5.588 100.318-9.089l12.47-33.015c-11.118 3.182-22.872 5.927-37.709 5.927-16.646 0-31.702-6.862-41.527-18.636z" fill="#75263D"/><path d="M414.589 350.094c-.577-9.606-7.936-23.15-7.936-23.15a128.52 128.52 0 0 1-12.192 14.916l-.04 17.82-1.153.12-2.426.238-6.166-9.506c-44.53 31.264-77.983 12.032-77.983 12.032l10.024 15.414c17.88 22.892 76.293 14.638 101.193-27.765l-3.321-.119z" fill="#000"/><g fill="#FFF"><path d="M230.321 343.312l-3.978 10.501a238.583 238.583 0 0 0 69.411-13.265c-24.224-11.257-61.634 1.432-65.433 2.764zm-25.437-145.525c-52.447 20.366-93.079 56.862-93.079 93.556 0 15.871 7.06 28.182 18.278 37.59l6.264-10.223a52.546 52.546 0 0 1-5.807-24.503c0-57.18 62.729-90.731 74.344-96.42zm182.537 77.904c6.265-10.322 9.765-21.062 9.765-31.822 0-40.91-47.255-58.472-90.95-61.933a47.693 47.693 0 0 1-2.427 11.038l43.278 68.417c13.524 1.81 27.764 6.504 40.334 14.3zM286.904 175.095a18.675 18.675 0 0 1 13.743 11.097c3.56-13.564-.895-33.432-31.265-38.802a90.692 90.692 0 0 0-11.754-1.253l-2.347 11.296-7.915 2.427-4.873 17.7-6.384 5.152-9.368 15.234c20.585-14.518 39.996-23.428 54.177-23.448 2.147.02 4.116.179 5.986.597z"/><path d="M334.458 264.215c-44.929 0-94.272 35.024-133.015 35.024-11.516 0-14.976-4.276-14.976-4.276l-1.67 2.585s-47.495-22.792 17.362-93.357c0 0-55.827 29.117-60.282 88.027l3.38-2.824s-1.77 39.658 43.139 39.658c36.078 0 48.886-13.405 82.398-13.405 71.46 0 82.916 40.732 82.916 40.732s-46.838 13.783-49.94-12.053c0 0-7.14 30.29 52.883 15.076 0 0 3.799-5.947 3.341-13.683 0 0 5.55 5.548 6.484 9.785 0 0 4.555-5.191-2.744-19.173 0 0 6.225 5.688 10.302 13.982l2.506-2.108s.199-6.066-11.894-22.335l-8.194 5.15s-19.113-36.077-90.115-31.463c0 0 59.149-20.982 93.536 21.758l7.419-5.071s20.644 20.047 25.954 43.516l1.134-.1.06-17.8.079-21.26 5.947 7s2.903-5.27-.537-16.249c0 0 13.902 13.584 18.019 38.922l1.114-14.081c-.06-12.212-20.227-71.977-84.606-71.977z"/></g><g fill="#ADAFAA"><path d="M258.463 234.561l-16.806 44.69s-23.408 8.83-38.862 11.356c30.967 2.367 84.785-32.716 119.908-32.716-15.85-4.953-53.858 10.043-53.858 10.043l-10.382-33.373zm-21.36-47.175c37.928-21.182 53.46-15.494 59.268-10.402-18.059-18.934-56.106 5.569-56.106 5.569l-3.162 4.833zM362.66 373.622l2.744-4.534c-37.092 12.27-52.446-.418-52.446-.418 12.55 14.101 39.558 7.955 49.702 4.952z"/><path d="M318.567 376.228c10.7 13.066 43.217 11.714 68.655-3.52l1.91-5.032c-15.932 10.918-51.452 21.101-70.565 8.552z"/></g><g fill="#2A6190"><path d="M258.046 249.14l-10.303 27.327 16.687-6.862-6.384-20.465zm36.018-78.143c-12.828-12.211-43.119-2.227-43.119-2.227l-.835 3.242c30.51-11.396 43.954-1.015 43.954-1.015z"/><path d="M355.798 270.241s21.26 6.603 30.807 25.378l-4.117 7.22-.497 7.438-6.702-7.2-3.52 2.208s-18.298-25.835-63.624-25.835c-47.116 0-68.775 27.904-109.208 27.904-51.372 0-36.734-51.591-33.294-62.053 0 0-10.004 18.656-10.004 35.78 0 9.228 1.572 32.537 40.593 32.537 35.76 0 71.52-30.17 113.265-30.17 29.097 0 53.958 20.703 60.422 28.878l4.674-2.467 9.586 10.104 2.068-15.275 5.788-8.91c-.04.06-8.393-20.286-36.237-25.537zm44.67 57.34l-5.947-7.002-.08 21.261c1.89-2.008 8.294-8.97 12.192-14.916 0 0 7.359 13.544 7.936 23.15l3.341.16c-4.097-25.339-18.039-38.923-18.039-38.923 3.48 10.999.597 16.27.597 16.27z"/></g></g></svg>