<svg width="512" height="512" viewBox="0 0 512 512" xmlns="http://www.w3.org/2000/svg"><title>dallas-stars</title><g fill="none" fill-rule="evenodd"><g fill="#FFF"><path d="M335.235 410.146a8.246 8.246 0 0 0-16.491 0 8.257 8.257 0 1 0 16.491 0zm-14.72 0a6.486 6.486 0 1 1 12.949-.772 6.486 6.486 0 0 1-12.949.772z"/><path d="M330.382 414.838l-1.863-3.979a2.806 2.806 0 0 0-.92-5.451h-3.979v9.43h1.771v-3.818h1.265l1.794 3.818h1.932zm-2.783-5.589h-2.208v-2.047h2.208c.575 0 1.035.46 1.035 1.035a1.035 1.035 0 0 1-1.035 1.012z"/></g><path d="M93.252 358.35H56.544l50.002-83.72L26 209.747h119.324l12.788-21.436h37.835L266.189 72l11.799 116.909c19.78 2.001 35.926 9.131 47.104 20.838h148.787l-141.381 75.716a122.452 122.452 0 0 1-5.313 10.143c-9.338 16.123-20.7 28.658-34.546 38.272l9.936 98.624L210 357.936c-4.416.23-8.97.391-13.547.437L43.94 440l49.312-81.65z" fill="#FFF"/><path d="M106.914 350.599H70.16l46.46-77.763-68.724-55.384H149.74l12.788-21.413h37.789l60.536-100.234 10.097 100.326c22.333.966 39.767 8.28 50.715 21.321h121.44L326.518 279.92a118.186 118.186 0 0 1-6.095 11.845c-9.568 16.491-21.413 29.072-35.995 38.318l8.579 84.847-80.5-64.837c-5.842.345-11.891.506-18.055.506L65.077 419.898l41.837-69.299z" fill="#111"/><path d="M381.557 232.885h-67.988c-7.245-13.386-23.828-21.413-47.633-21.413h-8.947l-6.877-68.057-41.101 68.057h-37.72l-12.811 21.413H91.642l45.103 36.363-39.376 65.895h64.584l-33.028 8.947-21.551 35.65 83.214-44.574h3.45c8.395 0 16.146-.345 23.391-.897l56.488 45.494-4.945-47.426c-15.272 1.61-30.061.345-36.892.161 39.744-6.348 60.628-23.69 75.049-48.461 9.844-16.836 12.581-31.947 9.315-43.93 5.635 6.9 8.556 13.961 9.637 22.816l55.476-30.038z" fill="#FFF"/><path d="M268.972 332.268l4.945 47.426-24.633-46.575c6.049.046 12.834-.069 19.688-.851zm-18.86-188.876l-16.123 68.057h23l-6.877-68.057zm-102.12 107.042l-56.35-17.549 45.103 36.363 11.247-18.814zm34.477-5.819h55.936c16.123 0 25.737 2.99 28.152 11.247l23.368-11.408c-6.348-14.812-24.541-16.445-35.926-16.445h-67.045l-.138-.046-53.406 89.539 36.133-17.664 26.933-43.976-14.007-11.247zm131.1-11.73l-23.644 11.592c1.541 4.025 3.703 13.639-2.162 27.945-6.716 16.284-26.68 45.08-81.213 45.08h-73.14l-36.041 17.664h64.584l-8.303 2.254-46.276 42.297 83.214-44.574h3.45c8.395 0 16.146-.368 23.391-.897l14.651-1.794c39.744-6.348 60.628-23.69 75.049-48.461 9.844-16.836 12.581-31.947 9.315-43.93.023 0-1.15-3.818-2.875-7.176zm8.073 14.973c2.392 4.577 3.818 9.453 4.439 15.019l55.453-30.015-59.892 14.996z" fill="#8F8F8C"/><path d="M238.382 244.615h-55.913l14.007 11.27-26.933 43.953h37.053c12.351 0 26.611-.483 38.479-7.429 14.95-8.786 23.851-24.288 21.781-35.144-1.748-9.338-11.431-12.65-28.474-12.65z" fill="#111"/></g></svg>