<svg width="512" height="512" viewBox="0 0 512 512" xmlns="http://www.w3.org/2000/svg"><title>minnesota-wild</title><g fill="none" fill-rule="evenodd"><g fill="#024930"><path d="M311.101 376.411a7.526 7.526 0 1 0 1.347 14.992 7.526 7.526 0 0 0-1.347-14.992zm1.173 13.384a5.889 5.889 0 1 1-1.02-11.732 5.889 5.889 0 0 1 1.02 11.732z"/><path d="M314.686 381.887a2.542 2.542 0 0 0-2.76-2.303l-3.606.325.76 8.54 1.587-.131-.305-3.455 1.152-.108 1.934 3.324 1.781-.152-2.02-3.455a2.65 2.65 0 0 0 1.477-2.585zm-2.455 1.173l-2.02.174-.174-1.89 2.02-.174a.956.956 0 0 1 1.021.847.956.956 0 0 1-.847 1.043z"/></g><path d="M453.937 154.51c.173-.022 15.97-12.471 15.97-12.471s-63.292-17.187-138.817-12.69c0 0-10.733-35.958-61.466-36.327-37.762-.261-59.468 23.27-66.29 41.63-71.31 15.447-125.736 51.493-125.736 51.493l12.992 9.973c-33.612 17.577-68.267 45.714-68.267 45.714s3.26 17.013 23.661 44.194c0 0 13.688 10.624 49.886 24.595 0 0 6.975-1.695 10.408-3.411 4.975 1.695 10.103 3.129 15.144 4.085-.24 4.562-1.608 11.124 6.778 18.902l-6.148 3.238s7.43 18.816 49.125 28.962c15.97-3.737 88.56-16.947 113.265 28.854L411.438 268.08l-26.855-.174 99.967-104.943c0-.022-16.447-5.606-30.613-8.452z" fill="#E2D6B5"/><path d="M460.368 168.068c-15.318-5.932-35.763-10.342-35.763-10.342l12.819-9.756c-68.832-14.296-116.111-10.255-116.111-10.255s-9.19-35.915-55.1-36.22c-44.39-.326-57.969 39.24-57.969 39.24-60.88 11.537-118.305 46.084-118.305 46.084l13.862 10.603c-35.959 17.403-73.308 47.17-73.308 47.17 5.15 16.425 20.38 36.393 20.38 36.393C65.06 291 96.305 303.407 96.305 303.407c4.497-.999 9.408-3.693 9.408-3.693s15.513 6.3 32.134 6.41c6.062.043 12.841-.652 12.885-3.02.021-4.085-12.428-5.433-12.385-9.995.022-3.368 7.518-7.996 35.959-7.8 17.012.108 36.285 1.434 36.285 1.434-13.993-.087-41.565 3.28-41.608 9.799-.022 5.062 18.685 5.453 18.642 12.276-.087 9.864-14.731 13.145-31.787 13.036-15.275-.109-22.51-4.498-25.965-4.541-1.347 0-2.15.63-2.15 1.52-.044 3.542 6.713 10.734 12.167 12.777l-7.387 4.215c8.169 11.015 38.891 19.424 38.891 19.424 87.91-18.533 114.612 25.42 114.612 25.42l103.596-105.768-24.182-.174 94.948-106.66z" fill="#024930"/><path d="M306.951 149.665a40.174 40.174 0 0 1 .804 15.252 268.115 268.115 0 0 1 54.797 11.733c-20.098.522-40.609 2.282-60.424 4.672a42.76 42.76 0 0 1-64.943 10.255c-41.282 7.952-70.332 16.013-70.332 16.013 20.402 1.065 31.918 5.888 31.918 5.888-52.82 10.277-102.032 30.288-118.023 37.132 3.759 6.084 8.67 13.189 8.67 13.189l-7.931 9.69c14.057 2.672 31.526 1.304 31.526 1.304l26.29-15.84 20.489 6.301 6.258-8.43-6.736-.043 13.667-21.706 11.21 21.858h-5.083l3.39 7.517 14.209-2.411 6.083-7.648-5.41-.044 8.17-12.363-6.084-.043 12.928-21.51 10.755 22.4-4.845-.043 7.213 13.08-5.758-.065 11.668 21.597 11.928-16.47-8.104-.065 12.341-18.272-7.843-.044 17.816-30.07 15.057 30.679-6.344-.022 10.277 18.034-7.344-.044 9.93 22.38 17.273-27.79-9.43-.087 14.123-22.618-8.604-.087 18.946-37.827 19.337 39.891-6.91-.043 12.516 20.988-8.648-.065 9.517 20.771 15.991-23.9-8.495-.087 18.49-26.29-9.843-.065 29.658-40.326 15.253 27.985 33.2-40.26c-37.828-14.428-81-22.315-124.564-24.031zm-84.258 9.538c.021-1.76.152-3.498.369-5.236-39.718 5.801-76.806 16.904-106.985 32.982 0 0 46.474-15.904 106.985-21.945a46.192 46.192 0 0 1-.37-5.8z" fill="#AF1E24"/><path d="M306.951 149.665a460.837 460.837 0 0 0-83.867 4.302 46.398 46.398 0 0 0-.37 5.236c0 1.977.13 3.911.37 5.801 26.442-2.65 55.578-3.367 84.671-.108a42.064 42.064 0 0 0-.804-15.231zm-41.847 52.537a42.76 42.76 0 0 0 37.046-20.88 943.618 943.618 0 0 0-64.922 10.255 42.586 42.586 0 0 0 27.876 10.625zm.587-85.389c-21.545-.148-39.821 15.789-42.607 37.154 0 0 21.488-9.495 79.76-14.949a42.672 42.672 0 0 0-37.153-22.205z" fill="#EDAA00"/><path d="M270.21 174.956c-55.73 1.434-105.942 14.991-105.942 14.991l-1.13-7.409c-1.738 2.89-3.39 5.693-5.15 8.56-.021 0-25.268 9.061-41.955 17.687a581.488 581.488 0 0 1 38.718-11.602c-1.76 3.715-3.476 7.235-5.258 10.928l9.517-8.408c2.303 1.238 4.497 2.477 6.779 3.694l-.891-8.126s56.317-15.253 105.312-20.315z" fill="#FFF"/></g></svg>