<svg width="512" height="512" viewBox="0 0 512 512" xmlns="http://www.w3.org/2000/svg"><title>nashville-predators</title><g fill="none" fill-rule="evenodd"><g fill="#FCB514"><path d="M322.227 371.62a7.307 7.307 0 1 0-14.613-.02 7.307 7.307 0 0 0 14.613.02zm-13.05 0a5.733 5.733 0 1 1 11.467-.04 5.733 5.733 0 0 1-11.466.04z"/><path d="M317.918 375.79l-1.644-3.528a2.486 2.486 0 0 0-.842-4.83h-3.528v8.358h1.563v-3.388h1.123l1.584 3.388h1.744zm-2.486-4.951h-1.965v-1.824h1.965c.501 0 .922.4.922.902a.92.92 0 0 1-.922.922z"/></g><path d="M462.184 219.276a5.412 5.412 0 0 0-2.646-2.806l-22.912-11.065-7.076-5.432-10.283-12.75-3.388-15.214a5.372 5.372 0 0 0-2.586-3.508l-16.116-9.16-10.123-10.163a5.613 5.613 0 0 0-1.664-1.143l-63.062-27.422a5.593 5.593 0 0 0-3.188-.34l-85.894 17.158c-23.393-1.804-43.88 1.123-44.761 1.243-5.252.882-5.292 6.575-3.448 8.399L56.447 172.77a5.312 5.312 0 0 0-3.228 2.005l-13.59 17.88a5.392 5.392 0 0 0 3.567 8.58c.942.12 93.953 12.868 93.953 69.276 0 20.767-14.252 41.213-14.413 41.394-2.065 2.926-.822 7.637 3.428 8.399l52.539 9.481c3.989 3.187 17.359 12.589 36.803 12.589 23.032 0 29.547-8.72 31.03-15.856 11.426-4.851 25.778-16.377 25.778-25.658 0-5.793-5.211-9.662-10.062-9.662-.562 0-1.063.2-1.584.28 0 0-2.445-4.53-8.379-4.53-2.546 0-5.292 1.243-7.437 2.165 5.252-6.054 13.952-13.25 27.883-17.88 21.469-7.096 49.452-13.13 63.484-15.956-21.308 61.92-94.293 94.433-95.055 94.774-4.35 1.904-3.548 7.397-1.784 8.54l-7.958 3.587c-5.673 2.486-3.267 10.765 2.606 10.264 77.034-6.535 133.682-33.516 173.131-82.266h15.876a5.65 5.65 0 0 0 2.606-.662c15.515-8.68 25.939-8.319 26.06-8.319a5.452 5.452 0 0 0 5.09-2.966c7.698-15.636 15.977-23.935 16.057-23.995a5.332 5.332 0 0 0 1.223-5.853l-11.887-29.106z" fill="#FCB514"/><path d="M433.8 210.015l-7.998-6.154-11.486-14.232-3.669-16.437-16.738-9.522-10.644-10.684-63.042-27.422-86.576 17.3c-23.413-1.945-44.38 1.122-44.38 1.122l7.296 6.274L57.51 178.023l-13.611 17.9s98.643 12.73 98.643 74.589c0 22.832-15.395 44.52-15.395 44.52l53.902 9.723s13.41 12.227 34.478 12.227c24.495 0 26.079-10.283 26.079-14.272 10.764-3.488 25.377-15.335 25.377-21.87 0-2.625-2.746-4.31-4.69-4.31-1.624 0-3.829 1.284-5.633 2.086 1.042-2.286-.42-6.315-4.33-6.315-3.267 0-8.78 4.61-19.504 5.613 0 0 8.179-21.83 38.247-31.772 30.368-10.083 73.045-17.92 73.045-17.92-18.061 70.86-100.788 106.741-100.788 106.741l30.529-6.876c-14.152 7.477-40.251 18.963-40.251 18.963 76.914-6.534 132.92-33.014 172.21-83.729l2.665 1.443h14.573c17.36-9.682 28.926-8.96 28.926-8.96 8.258-16.798 17.118-25.478 17.118-25.478l-11.866-29.045-23.433-11.266z" fill="#002654"/><path d="M116.602 209.274a119.61 119.61 0 0 1 15.636 11.265 86.644 86.644 0 0 1 1.764-8.419c5.211-19.865 15.855-33.055 15.855-33.055a61.058 61.058 0 0 0-33.255 30.209z" fill="#FFF"/><path d="M328.902 144.146l-10.343-5.071-33.275 7.376s6.895 7.858 6.895 21.289c0 4.33-1.022 8.519-2.746 12.568l15.235 1.183c-.02-.521-.2-.902-.2-1.444 0-26.5 24.434-35.9 24.434-35.9zm-24.254 37.345l-15.215-1.163 15.215 1.163z"/><path d="M305.89 190.35a39.008 39.008 0 0 1-1.242-8.84c-.02-.52-.2-.901-.2-1.442 0-26.5 24.454-35.902 24.454-35.902l-10.343-5.091-33.275 7.376s6.895 7.858 6.895 21.289c0 4.33-1.022 8.519-2.746 12.568a44.34 44.34 0 0 1-5.472 9.461c-11.366 15.034-32.935 26.901-53.982 32.394-4.33 1.122-7.337 2.846-9.402 5.292a13.15 13.15 0 0 0-2.104 3.468l-8.76 20.426c-26.34 11.225-30.59 34.758-28.525 48.088.702-19.203 20.487-46.545 53.18-40.672 0 0 4.631-9.28 14.934-16.958-2.505-5.633-2.926-12.207-1.303-19.243.14 6.875 1.865 12.628 4.711 16.978a53.521 53.521 0 0 1 9.241-4.57c-.942-7.036.922-14.373 5.472-21.309-2.585 7.457-2.766 14.313-1.082 19.885a51.717 51.717 0 0 1 10.003-1.764c1.002-8.358 5.692-15.895 13.51-21.789-5.893 7.317-8.54 14.934-8.239 21.63 4.912.12 9.642.861 14.132 2.224l12.068-13.25 10.203-11.225a38.768 38.768 0 0 1-12.128-19.023z"/><path d="M422.735 230.983l12.027-4.23s14.252 9.02 20.606-2.546L433.6 213.964a48.91 48.91 0 0 1-17.58 6.174c-16.296 2.345-28.745-4.51-28.745-4.51-13.53 0-22.771 2.165-30.689 6.134-6.455 3.227-12.067 7.637-18.402 13.03l19.003-20.908 2.947-17.38s5.974 14.513 22.41 14.513c7.959 0 14.052-4.41 14.052-4.41 17.84 13.491 34.178 6.054 34.178 6.054l-6.094-5.091-5.833 3.107 3.628-5.453-2.225-2.525-7.898 4.069 4.931-7.497-1.724-1.985-6.655 2.927 3.809-6.495-2.666-4.109-2.526-13.21-15.976-7.737-10.965-10.243-61.379-24.817-60.436 13.41c14.232 3.429 26.019 10.865 26.019 10.865s4.53 10.424-1.363 22.01a52.72 52.72 0 0 0-30.149 10.825c-13.81 10.423-19.664 24.575-19.664 24.575l-9.361 2.165 10.804-25.317 3.909-9.14c-24.235 3.547-35.16-17.08-35.16-17.08l-1.864-6.294-140.638 31.471c15.175 1.043 31.892 5.874 47.147 13.651 3.628-12.147 12.648-21.548 12.648-21.548l77.255-17.28s3.047 9.943 16.237 17.901l-.24 2.425c-6.115 1.223-15.716 5.172-24.877 12.348a64.025 64.025 0 0 0-25.137 51.878c0 12.488 4.15 22.731 4.15 22.731s-5.172-7.036-8.219-18.963a70.119 70.119 0 0 1-2.185-17.46c0-12.247 3.528-23.913 7.517-33.174 5.152-11.967 11.065-19.925 11.065-19.925s-16.858 6.855-28.444 24.335c-3.608 5.432-6.695 11.907-8.62 19.504 8.36 8.86 14.573 19.003 17.38 30.068a53.346 53.346 0 0 1 1.643 13.09c0 21.388-8.94 34.858-8.94 34.858l29.948 6.094s11.325 16.477 35.64 16.477c7.698 0 17.8-.862 17.8-5.773 0-3.708-9.1-8.74-9.1-19.464 0-17.42 21.89-35.5 45.383-43.238 27.422-9.04 69.357-19.584 90.444-19.584 59.816 0 57.851 39.49 57.851 39.49l2.907-.14a72.524 72.524 0 0 1 28.544-9.162l1.023-.06s5.893-11.025 12.748-19.003c-.06 0-8.94-18.642-40.13-20.185z" fill="#FFF"/><path d="M228.776 304.87c1.944 8.72 7.778 11.185 8.339 14.432 0 0 15.114-3.107 25.177-18.06-19.585 9.822-33.516 3.628-33.516 3.628zm177.16-36.102c0-8.56-14.131-16.738-20.786-16.738-27.402 0-27.042 58.232-123.68 107.564 82.306-11.867 144.467-67.854 144.467-90.826zM208.15 163.911s8.82 15.014 24.536 15.014l16.317-1.123 13.43-14.031 18.322-2.827a86.796 86.796 0 0 0-22.25-9.18l-15.335 21.388 9.742-22.752a146.571 146.571 0 0 0-8.5-1.583l-13.17 18.421 8.159-19.083c-3.324-.405-6.66-.713-10.003-.922l-10.082 14.072 6.113-14.272c-14.252-.602-24.655.561-24.655.561l3.508 3.027 3.868 13.29z" fill="#FFF"/><path d="M165.593 203.62a529.553 529.553 0 0 0-17.38 4.39c-3.607 5.433-6.694 11.908-8.619 19.505 8.36 8.86 14.573 19.003 17.38 30.068a69.646 69.646 0 0 1 3.287-3.348 70.119 70.119 0 0 1-2.185-17.46c0-12.247 3.528-23.913 7.517-33.154zm-33.355 16.919a86.644 86.644 0 0 1 1.764-8.419 544.34 544.34 0 0 0-8.84 2.826 108.461 108.461 0 0 1 7.076 5.593zm302.524 6.214s-8.219-3.748-18.743-6.615c-16.296 2.345-28.745-4.51-28.745-4.51-13.53 0-22.771 2.165-30.689 6.134 87.277 7.677 98.222 27.041 92.45 48.49l1.021-.06s5.894-11.026 12.75-19.004c0 0-8.88-18.642-40.071-20.185l12.027-4.25zm-201.175-11.506l-9.341 2.205 10.804-25.317a523.281 523.281 0 0 0-45.563 6.474 63.905 63.905 0 0 0-25.157 51.858c0 12.488 4.15 22.731 4.15 22.731-3.388-14.473 4.51-28.645 4.51-28.645s18.201-11.626 47.567-17.098c2.065-2.466 5.052-4.17 9.402-5.292 21.067-5.473 42.616-17.36 53.982-32.394a491.25 491.25 0 0 0-30.67.902c-13.83 10.424-19.684 24.576-19.684 24.576zm126.566-18.742a423.377 423.377 0 0 0-54.263-6.174c3.468 12.328 12.108 19.063 12.108 19.063l-10.203 11.225c18.441-.34 37.685.421 37.685.421l-7.297 13.731 19.003-20.907 2.967-17.36z" fill="#FCB514"/><g fill="#002654"><path d="M328.902 144.146l-10.343-5.071-33.275 7.376s6.875 7.858 6.875 21.289c0 7.777-3.047 15.234-8.198 22.03-11.366 15.033-32.935 26.92-53.982 32.393-4.33 1.122-7.337 2.846-9.402 5.292a13.15 13.15 0 0 0-2.104 3.468l-8.76 20.426c-26.34 11.225-30.59 34.758-28.525 48.088.702-19.203 20.487-46.545 53.18-40.672 0 0 4.631-9.26 14.934-16.958-2.485-5.633-2.926-12.207-1.283-19.243.12 6.875 1.865 12.628 4.691 16.978a53.521 53.521 0 0 1 9.241-4.57c-.942-7.036.922-14.373 5.472-21.309-2.585 7.457-2.766 14.313-1.082 19.885 3.227-.882 6.575-1.503 10.003-1.764 1.002-8.358 5.692-15.895 13.51-21.789-5.893 7.317-8.54 14.934-8.239 21.63a53.79 53.79 0 0 1 14.132 2.224l12.068-13.25 10.203-11.225s-8.66-6.735-12.108-19.063a37.284 37.284 0 0 1-1.423-10.284c-.02-26.48 24.415-35.88 24.415-35.88m66.691 50.814c-.24-5.412.642-15.375-19.444-21.589l-23.974-7.396s18.542 16.577 18.542 20.326a11.867 11.867 0 0 0 18.181 10.082l.421 4.871c8.42.662 18.201-.661 20.707-11.646-3.428 7.938-11.045 6.836-14.433 5.352"/><path d="M400.705 193.418l2.987-11.546-23.453-11.206c15.314 9 20.466 14.012 20.466 22.752"/></g><path d="M384.248 194.52c2.485 0 4.35-1.182 4.35-1.182a59.655 59.655 0 0 0-.582-2.526 4.871 4.871 0 0 1-2.506.782 4.29 4.29 0 0 1-4.39-4.37 4.41 4.41 0 0 1 3.248-4.21 18.181 18.181 0 0 0-4.77-4.81s-4.17 2.325-4.17 7.476c0 5.152 4.31 8.84 8.82 8.84" fill="#FCB514"/></g></svg>