<svg width="512" height="512" viewBox="0 0 512 512" xmlns="http://www.w3.org/2000/svg"><title>vancouver-canucks</title><g fill="none" fill-rule="evenodd"><path d="M253.055 324.31l53.667-26.803c36.78 10.345 47.656 24.288 47.656 24.288l21.017-23.777c1.185-1.206 4.64-5.54 4.64-13.35 0-8.423-8.811-14.945-15.026-19.361-10.427-27.498-68.387-35.471-72.68-45.019-1.39-3.332-9.875-31.913-9.875-31.913-5.05-14.802-19.933-14.802-25.535-14.802-5.642 0-17.725 1.901-17.725 1.901 0 20.608-2.821 45.734-5.745 50.375 0 0-10.447 5.459-22.734 9.875l-29.297-19.77 7.708 26.66c-49.455 27.13-61.476 74.499-61.476 74.499s12.696 99.748 137.795 99.748c66.137 0 104.286-31.934 104.286-31.934l-21.323-47.635s-32.548 16.907-74.11 16.907c-38.334 0-53.279-17.868-58.799-28.274 32.445.94 37.556-1.616 37.556-1.616z" fill="#99999A"/><path d="M251.093 319.055l55.056-27.58c37.311 10.57 48.086 21.958 48.086 21.958l17.05-19.197s3.149-2.985 3.149-9.589c0-6.133-9.22-12.389-14.148-15.885-10.16-27.62-66.546-32.67-72.782-45.652-2.515-5.234-5.683-17.705-10.386-32.916-3.782-10.999-14.74-10.999-20.199-10.999-5.315 0-12.164 1.084-12.164 1.084 0 11.244-2.106 43.894-7.34 49.537-1.267 1.676-10.896 5.54-21.323 9.567l3.107 2.106-3.189 3.17-5.99 6.071-6.624 20.588-8.607-4.416 3.087 7.625-15.354 2.556 8.69 3.026-25.004 19.197 6.746.532-8.913 16.069c12.88-5.847 16.744-6.93 16.744-6.93l-3.68-3.804 25.923-10.487s-1.942 5.233-1.942 15.271c0 1.432.204 3.537.715 6.052 3.17 15.68 18.482 48.003 72.476 48.003 39.048 0 69.224-13.677 69.224-13.677l14.025 31.3s-36.657 25.392-92.081 25.392c-113.364 0-127.737-89.137-127.737-89.137 15.62-41.788 41.911-60.086 58.635-67.835l-5.214-.51-.47-1.575c-44.221 24.39-57.305 69.531-57.305 69.531s13.411 93.779 132.07 93.779c60.68 0 97.356-28.132 97.356-28.132l-17.152-38.374s-32.057 15.047-71.351 15.047c-58.512 0-67.16-39.928-67.16-39.928s33.345 2.004 43.976-.838zm-70.697-152.351l-10.488-34.92 23.736 30.933 7.564-2.29-17.316-57.653-8.382 2.535 10.242 34.183-23.51-30.196-7.524 2.29 17.296 57.632 8.382-2.514zm27.743-13.37c.49 3.516 2.597 5.212 6.031 4.742l18.605-2.535c3.496-.47 5.172-2.699 4.681-6.215l-1.942-14.74-8.975 1.206 1.758 12.573-11.55 1.574-6.093-44.323 11.55-1.574 1.636 11.796 8.873-1.247-1.901-13.963c-.49-3.517-2.72-5.193-6.215-4.723l-18.605 2.555c-3.393.45-5.008 2.658-4.518 6.195l6.665 48.678zm43.076 1.103l19.525.327c3.475.082 5.438-1.84 5.52-5.377l.879-49.148c.102-3.578-1.881-5.56-5.357-5.622l-19.524-.368c-3.435-.082-5.377 1.88-5.397 5.397l-.94 49.148c-.021 3.578 1.798 5.54 5.294 5.643zm4.539-52.42l12.41.205-.818 44.773-12.39-.245.798-44.732zm34.06 54.628l18.81 3.373c3.516.634 5.826-.96 6.46-4.456l9.588-53.81-8.852-1.574-9.22 51.642-11.94-2.106 9.2-51.662-8.812-1.595-9.588 53.81c-.675 3.495.879 5.744 4.354 6.378zm71.392 12.757l8.076-17.091 12.246 5.806 3.332-7.012-12.266-5.827 7.544-15.865 14.27 6.747 3.394-7.176-22.367-10.61-25.8 54.34 22.59 10.713 3.374-7.176-14.393-6.849zm69.613-20.178l-19.954-13.166-33.16 50.231 7.462 4.968 14.863-22.488 2.433 1.574-6.91 27.763 7.87 5.152.185-.245 6.501-27.948 2.637 1.697c2.903 1.82 5.5 1.288 7.442-1.656l12.103-18.318c1.942-2.923 1.452-5.602-1.472-7.564zm-17.705 20.383l-9.486-6.256 10.509-15.865 9.465 6.215-10.488 15.906zm-47.676-55.302l.061-.164-8.525-2.78-19.83 38.517 6.541-42.81-8.627-2.78-.02.122-7.626 60.638 8.586 2.78 29.44-53.523zm-224.254 56.488l10.14-4.907 6.542 9.445 8.035-3.843v-.041l-36.514-49.23-8.505 4.11 15.538 59.226.02.082 8.035-3.884-3.291-10.958zm-10.08-33.897l15.763 22.57-7.973 3.824-7.79-26.394zm-25.677-2.72l-7.544 4.867 17.296 39.702-29.031-32.159-7.606 4.928.102.122 42.218 44.221 7.564-4.886-22.918-56.672-.081-.122z" fill="#001F5B"/><g fill="#071C2C"><path d="M356.81 271.42c-9.424-27.007-61.108-28.909-72.781-45.898-3.21-4.702-8.567-34.96-13.943-39.11-5.909-4.559-21.079-2.474-21.079-2.474 0 4.191-1.022 41.298-8.75 48.944-5.131 4.396-13.861 6.297-24.267 11.756l-5.97 6.092-6.624 20.588-8.607-4.416 3.087 7.625-15.354 2.556 8.69 3.026-25.004 19.197 6.746.532-8.913 16.069c12.88-5.847 16.744-6.93 16.744-6.93l-3.68-3.804 25.923-10.487s-1.942 5.233-1.942 15.271c0 1.432.204 3.537.715 6.052 1.063-1.084 23.43-23.347 46.9-28.152l-36.248 28.07s29.828 1.268 37.188-.838c23.041-10.713 41.584-20.792 56.08-28.03 33.65 8.935 48.043 20.588 48.043 20.588l3.578-3.986c-1.697-1.268-14.066-9.793-38.394-17.828 7.237-2.862 16.008-6.215 18.338-6.215 5.377 0 16.397 7.012 28.295 14.72l2.658-3.005s.634-.552 1.186-1.718a8.116 8.116 0 0 0 .92-3.843c0-5.622-7.32-9.323-13.534-14.352zm21.733 101.895a5.806 5.806 0 1 0 .082 11.612 5.806 5.806 0 0 0-.082-11.612zm0 10.365c-2.494 0-4.539-2.085-4.539-4.6 0-2.515 2.045-4.518 4.539-4.518 2.535 0 4.62 2.003 4.62 4.518 0 2.515-2.085 4.6-4.62 4.6z"/><path d="M380.955 377.771a1.963 1.963 0 0 0-1.962-1.962h-2.78v6.603h1.267v-2.719h.859l1.267 2.72h1.37l-1.288-2.802a1.942 1.942 0 0 0 1.267-1.84zm-1.942.716h-1.533v-1.431h1.533c.389 0 .716.327.716.715 0 .348-.348.716-.716.716z"/></g><path d="M226.416 267.392l-13.984 7.81 27.887 3.782-13.903-11.592zm-18.072 21.978l2.392-17.378-32.384 21.876 29.992-4.498zm27.313-48.003l-23.429 13.043 6.092 14.618 17.337-27.661z" fill="#99999A"/><g fill="#001F5B"><path d="M186.223 290.842l19.913-3.148 2.064-11.776-21.977 14.924zm49.189-14.168l-10.693-6.236-7.564 4.028 18.257 2.208zm-17.623-12.41l12.798-17.398-14.843 8.382 2.045 9.016z"/><path d="M274.297 368.612c-62.13 0-77.77-42.606-77.77-58.614 0-3.598.265-6.542.531-8.995l-14.29 4.702 1.84 4.048-11.143 4.068-9.608 6.318 19.524 3.598-4.048 13.943 8.362-2.433 8.055 20.424 9.63-1.227 3.188 14.311s18.135 12.553 48.76 15.313c40.541 3.599 76.79-10.201 76.79-10.201s-43.261 16.928-82.555 12.757c-30.012-3.169-49.619-15.395-49.619-15.395l-.245-12.961-11.858.184-5.56-19.852-10.53 4.927 4.642-17.746-20.22-2.494 4.11-12.348 4.824-9.711-6.48.184 27.088-20.138-11.776-4.64 19.218-3.763-6.706-13.493 11.858 6.788 4.682-14.72c-14.21 4.947-44.855 20.69-62.56 66.914 2.126 10.61 20.649 84.129 122.993 84.129 44.12 0 76.36-16.724 86.316-22.57l-10.651-23.655a191.686 191.686 0 0 1-66.792 12.348zM186.04 223.008l8.177 24.042 14.496 3.557 5.826-7.912-28.5-19.687z"/></g><g fill="#FFF"><path d="M266.222 224.704c-2.127-2.657-4.662-29.583-4.662-29.583s-.43 27.437-2.065 29.89c-1.574 2.453-9.445 6.992-9.445 6.992s8.791-2.862 13.064-3.128c3.148-.143 13.146 1.901 13.146 1.901s-7.933-3.352-10.038-6.072zm.776 49.067c-43.73 2.576-64.113 40.173-65.197 42.279 1.063-1.084 23.43-23.348 46.9-28.152l18.297-14.127zm89.813-2.351c-24.534-2.74-31.199-8.628-31.199-12.39 0-1.471 1.268-1.88 2.433-1.88 5.561 0 12.9 4.007 17.092 8.484-2.494-6.399-17.153-13.963-26.741-13.963-1.8 0-4.437.531-4.437 3.455 0 6.01 9.118 13.657 32.445 15.578 12.533 2.944 25.535 9.936 23.02 18.932a8.116 8.116 0 0 0 .92-3.844c0-5.642-7.318-9.343-13.533-14.372zm-32.446 14.29l9.119 3.23a19.545 19.545 0 0 0 3.66-1.86c.122-.245.122-.43-.308-.777a102.365 102.365 0 0 0-6.848-2.698l-5.623 2.105zm7.667-2.862c2.412.961 5.786 2.31 6.072 2.33.452.093.918.093 1.37 0 .306-.04 2.27-1.083 3.782-1.84-1.452-.674-4.293-1.982-6.174-1.982-1.82.02-5.05 1.492-5.05 1.492zm8.996 3.128c-.062.164 0 .327.327.552.347.225 5.05 2.699 5.397 2.74.409.02.715.02 1.124-.041.225-.082 1.902-1.125 2.985-1.881l-6.297-3.414c-1.635.858-3.393 1.82-3.536 2.044zm4.456 4.968c.164-.204.225-.409.103-.613a38.435 38.435 0 0 0-5.48-2.842c-.531-.102-.838-.102-1.267.184a87.093 87.093 0 0 0-3.68 1.983l7.34 3.333c1.39-.88 2.882-1.84 2.984-2.045zm8.996 2.597a3.373 3.373 0 0 0 1.145-.287c.738-.474 1.442-1 2.106-1.574l-5.643-3.618c-1.35.879-2.821 1.84-2.944 2.044 0 .082.04.164.327.613l5.009 2.822zm2.33.572c-.143.327-.204.47-.102.532.143.204 3.108 2.167 5.132 3.455l2.228-2.229-5.172-3.414a18.931 18.931 0 0 0-2.085 1.656zm-3.23.961c.082-.164.041-.43-.163-.634-1.667-1-3.38-1.92-5.132-2.76a3.823 3.823 0 0 0-1.43.123 25.187 25.187 0 0 0-2.76 1.88l6.93 3.17c1.165-.757 2.433-1.615 2.555-1.779zm1.207.92c-.184.082-1.452 1.043-2.454 1.8l6.256 3.884 2.31-2.576c-1.584-1.123-3.2-2.2-4.845-3.23-.225-.103-.94 0-1.267.122z"/><path d="M305.72 287.06c33.652 8.934 48.044 20.587 48.044 20.587l3.578-3.986c-1.697-1.268-14.066-9.793-38.394-17.828 7.237-2.862 16.008-6.215 18.338-6.215 5.377 0 16.397 7.012 28.295 14.72l2.658-3.005c-10.386-7.176-22.51-15.64-31.28-15.64-7.135 0-17.357 4.416-31.239 11.367z"/></g></g></svg>