<svg width="512" height="512" viewBox="0 0 512 512" xmlns="http://www.w3.org/2000/svg"><title>washington-capitals</title><g fill="none" fill-rule="evenodd"><g fill="#FFF"><path d="M254.474 312.082c-5.81 13.976-4.995 31.981.921 41.499l33.846 54.209 26.194-38.005h42.891l23.407-28.808h-54.295l-16.376 20.17-32.624-27.137c-.707-.664-1.565-4.222-.214-7.502l14.833-35.84s3.13 15.284 22.956 15.284h117.85c5.595 0 22.635 0 29.173-15.862 5.98-14.447-2.936-22.357-2.936-22.357h9.388l10.696-25.829h-57.617c-7.267 0-14.019 1.844-19.313 5.016l27.201-65.677h-29.73l-29.86 72.129s-5.337-11.468-22.785-11.468h-34.853l56.631-136.734h-29.73l-56.589 136.734h-72.686c-18.948 0-36.482 7.974-48.807 21.37 0 0-.15-21.37-25.53-21.37H71.848c-25.872 0-52.515 15.433-60.66 35.132-5.767 13.89 2.336 28.937 20.77 28.937h25.207c10.482 0 21.628-6.987 26.43-10.374 0 0 5.359 10.374 20.877 10.374h35.475l-12.11 29.173h29.73l12.068-29.173h87.369l-2.53 6.11z"/><path d="M132.68 204.779l10.289-7.481 10.267 7.48-3.922-12.089 10.288-7.459h-12.69l-3.943-12.11-3.944 12.11h-12.69l10.289 7.46-3.944 12.089zm66.641 0l10.268-7.481 10.31 7.48-3.944-12.089 10.289-7.459h-12.711l-3.944-12.11-3.901 12.11h-12.733l10.289 7.46-3.923 12.089zm66.642 0l10.289-7.481 10.267 7.48-3.901-12.089 10.267-7.459h-12.71l-3.923-12.11-3.944 12.11h-12.711l10.288 7.46-3.922 12.089zm-158.598 15.99h.043l-.772 12.004h4.137l11.554-15.047h-3.365l-8.767 11.746h-.043l.814-11.746h-4.244l-8.788 11.746h-.064l.9-11.746h-3.623l-.857 15.047h4.073l9.002-12.004zm8.596 12.004h3.622l2.98-3.365h8.66l.342 3.365h4.009l-1.48-15.047h-4.243l-13.89 15.047zm15.068-5.852h-6.237l5.83-6.538.407 6.538zm24.95-4.716c1.158-3.022-.45-4.865-4.844-4.865-3.493 0-7.309 1.372-8.766 4.865-2.508 6.045 9.56 3.066 8.166 6.43-.45 1.094-1.972 2.294-4.758 2.294-2.68 0-3.537-1.093-2.98-2.872h-3.386c-1.33 3.215.6 5.102 4.972 5.102 5.102 0 8.532-1.844 9.818-4.93 2.743-6.624-9.71-2.723-8.081-6.624.557-1.35 2.379-2.058 3.772-2.058 2.337 0 3.387.708 2.701 2.658h3.387zm3.195 10.568l2.679-6.452h8.188l-2.68 6.452h3.366l6.238-15.047h-3.366l-2.55 6.13h-8.189l2.53-6.13h-3.366l-6.216 15.047h3.366zm19.505 0l6.238-15.047h-3.365l-6.238 15.047h3.365zm7.653 0l4.887-11.746h.043l3.88 11.746h4.522l6.238-15.047h-3.065l-4.78 11.532h-.043l-3.708-11.532h-4.759l-6.238 15.047h3.023zm38.347-10.203c1.458-3.516-1.222-5.23-5.766-5.23a13.075 13.075 0 0 0-12.368 7.866c-2.25 5.445.514 7.953 6.13 7.953 2.187 0 5.66-.429 8.167-1.33l2.915-7.008h-8.102l-.965 2.314h4.802l-1.18 2.873a15.755 15.755 0 0 1-4.415.686c-4.63 0-4.994-2.723-3.837-5.51a8.874 8.874 0 0 1 8.403-5.53c1.65 0 3.494.815 2.722 2.916h3.494zm4.137 10.203h3.387l5.187-12.582h5.744l1.03-2.465h-14.855l-1.008 2.465h5.724l-5.21 12.582zm19.656.386a12.218 12.218 0 0 0 12.046-7.931c2.208-5.252.065-7.888-5.487-7.888-5.552 0-9.86 2.636-12.047 7.888-2.207 5.294-.064 7.93 5.488 7.93zm-1.994-7.931c1.458-3.537 4.266-5.445 7.545-5.445 3.237 0 4.459 1.908 3.001 5.445-1.457 3.558-4.244 5.466-7.545 5.466-3.258 0-4.458-1.908-3-5.466zm29.366 4.03l-3.73-11.532h-4.737l-6.216 15.047h3.023l4.887-11.746h.021l3.859 11.746h4.544l6.216-15.047h-3.022l-4.802 11.532h-.043zm188.95 74.208a4.73 4.73 0 0 0 4.716 4.715 4.73 4.73 0 0 0 4.715-4.715 4.716 4.716 0 1 0-9.431 0zm8.38 0a3.665 3.665 0 0 1-3.686 3.686 3.687 3.687 0 1 1 3.687-3.686z"/><path d="M467.58 306.145h1.008v-2.186h.707l1.03 2.186h1.114l-1.05-2.272a1.586 1.586 0 0 0-.537-3.065h-2.25v5.337h-.022zm.986-4.351h1.265c.343 0 .579.257.579.578 0 .32-.26.58-.579.58h-1.265v-1.158z"/></g><path fill="#CF0A2C" d="M366.686 348.157h-35.84l-11.767 14.448h35.839z"/><g fill="#041E41"><path d="M67.646 260.574h18.799l4.758-11.51H71.847c-22.828 0-47.028 13.76-54.037 30.694-4.266 10.246 1.972 19.013 14.125 19.013h25.208c10.953 0 24.286-10.503 24.286-10.503l-11.768-4.994s-5.359 4.03-11.146 4.03H34.379c-3.022 0-4.287-2.937-2.68-6.774 4.545-11.039 20.643-19.956 35.947-19.956zm74.08 38.197l11.617-28.058c4.952-11.96-2.593-21.65-16.848-21.65h-36.89l-4.78 11.511h39.977c8.531 0 5.938 6.28 5.938 6.28h-28.788c-11.446 0-19.891 5.252-22.57 11.768-4.61 11.147 2.143 20.128 15.068 20.128h14.597a19.57 19.57 0 0 0 9.732-3.023l-1.265 3.044h14.212zm164.663-49.708l-4.78 11.511h44.778c8.531 0 5.916 6.28 5.916 6.28h-28.787c-11.447 0-19.892 5.252-22.593 11.768-4.608 11.147 2.144 20.128 15.07 20.128h14.596c5.252 0 9.753-3.023 9.753-3.023l-1.243 3.044h14.19l11.64-28.058c4.93-11.96-2.594-21.65-16.827-21.65h-41.713zm67.649 49.708l45.72-110.347h-14.21l-45.7 110.347h14.19zm-107.904-49.708h-14.19l-4.78 11.511h14.19l4.78-11.51zm-20.599 49.708l13.226-31.916h-14.19l-13.226 31.916h14.19zM400.04 260.51c-4.394 10.589 1.307 19.184 12.732 19.184h28.83c2.122 0 3.108 1.715 2.23 3.816-.88 2.1-3.28 3.815-5.38 3.815h-52.73l-4.78 11.468h52.922c9.839 0 18.756-2.23 22.571-11.425 4.373-10.568-1.329-19.163-12.732-19.163H414.85c-2.1 0-3.108-1.715-2.229-3.815a6.388 6.388 0 0 1 5.38-3.794h46.707l4.78-11.511h-46.9c-9.817-.022-19.57 4.223-22.55 11.425zm-170.837 25.357l15.24-36.804h-33.589c-24.035-.082-45.717 14.426-54.809 36.676l-17.47 42.205h14.212l16.505-39.805c6.302-15.218 20.17-27.543 42.141-27.543h14.061l-8.916 21.52c-1.18 2.851-4.459 5.188-7.31 5.188H176.45l-4.78 11.467h39.29c7.096 0 14.255-3.236 18.242-12.904z"/><path d="M261.097 314.805c-4.694 11.382-4.523 27.093.407 35.003l28.059 44.928 18.455-26.794-34.146-28.38c-3.6-2.98-4.63-10.096-2.25-15.733l87.562-211.457h-14.212l-56.631 136.734h-16.827l-4.78 11.51h16.848l-22.485 54.189z"/></g><path d="M319.722 278.365c-2.465 0-5.273 1.972-6.302 4.437-1.029 2.465.15 4.48 2.615 4.48h21.67c3.13 0 7.096-2.25 8.253-5.016l2.315-5.637s-4.051 1.736-8.595 1.736h-19.956zm-211.585 0c-2.465 0-5.295 1.972-6.302 4.437-1.007 2.465.15 4.48 2.615 4.48h21.67c3.13 0 7.096-2.25 8.253-5.016l2.337-5.637s-4.073 1.736-8.617 1.736h-19.956z" fill="#FFF"/></g></svg>