<svg xmlns="http://www.w3.org/2000/svg" viewBox="0 0 200.375 202.344"><title>American League logo</title><path d="M145.582 37.085c1.2-3.333 3.467-6.456 5.92-8.784v4.418c0 2.248.925 4.178 2.6 5.53-2.914-.586-5.72-.964-8.52-1.163zm54.202-12.773c-2.105-9.003-10.052-7.75-12.66-7.342-4.27.686-11.47 4.01-17.398 6.894l1.035-2.994 1.613-4.427s-.925-.07-4.198.17c-2.502 0-5.352.636-7.86 1.64.498-1.622.633-3.353.364-5.054-.717-4.657-4.194-8.168-9.526-9.68-8.646-2.438-23.757.168-34.118 5.67C110.69 4.72 94.946-.5 92.236.036l.66 3.482C88.103 1.966 73.157-.56 70.017.603l2.552 4.735.035.08c-10.194-.14-28.02.587-33.05 4.01l3.756 3.48C15.41 18.553 3.904 32.898 3.595 42.677l16.41-6.148-2.075 6.516 15.74-5.103-.607 5.85 11.112-3.58-1.308 5.432 11.63-1.8-1.155 6.018 9.918.348-1.338 6.417 7.014.398-1.65 4.576c-7.672 1.48-14.97 3.64-21.813 6.525C29.045 75.01 15.897 85.465 7.45 98.338l-1.228 1.86-.02.04-.02.03-2.615 4.208L0 110.244l6.73-.865c.084 0 7.282-.886 13.314.506.16 4.676.06 33.933.06 33.933s17.608-21.976 27.044-25.697c-2.736 6.735-4.895 14.465-4.467 18.434l.34 5.114s6.286-3.978 7.435-4.943l.428 3.124s6.536-4.237 8.137-5.73l.676 3.692s5.93-4.626 7.108-5.73l.7 3.114 2.066-1.194c-1.925 5.452-2.964 11.192-2.964 17.05 0 13.71 5.347 26.592 15.036 36.282 9.705 9.71 22.593 15.01 36.3 15.01 13.72 0 26.597-5.3 36.302-15.01 9.69-9.69 15.006-22.572 15.006-36.28 0-15.69-7.232-30.293-19.14-39.913 6.646.12 12.987-.258 19.613-1.51 18.4-3.433 26.19-13.38 26.815-34.223.174-5.83-2.188-13.69-6.964-16.753-.756-.497-1.387-1.064-1.865-1.97 7.83-.975 6.336-5.56 6.336-5.56 4.208-2.28 6.387-5.89 5.815-9.85.422-4.616.944-12.684-.076-16.962z" fill="#FFF"/><path d="M165.354 197.33h-1.114v-4.367h-.035l-1.582 4.368h-1.08l-1.526-4.367h-.02v4.368h-1.113v-5.47h1.93l1.262 3.56h.03l1.314-3.56h1.934v5.47zm-7.46-4.496h-1.657v4.498h-1.12v-4.498h-1.64v-.975h4.416v.974" fill="#008"/><g><path d="M167.702 19.835l-2.065 5.9c-3.243-.46-6.37 1.67-7.675 3.272 1.164 1.492 3.582 2.308 6.655.925 4.84-2.228 17.385-8.834 22.97-9.73 5.622-.894 8.01.678 9.01 4.866 1.283 5.48.377 15.947.377 15.947-1.213-3.293-2.512-5.74-9.242-5.233.582-3.104 3.11-6.735 6.65-8.645-1.97-2.885-5.366-1.74-8.843 0-6.195 3.084-14.615 6.616-20.052 8.844-5.437 2.19-10.76.876-10.76-3.252v-4.855c.145-3.54 7.815-8.784 12.974-8.038z" fill="#C00"/><g fill="#008"><path d="M134.047 106.802c-.702-.05-1.423-.12-2.16-.2-1.12-.108-2.268-.208-3.422-.327h.035l4.05 2.268.213.13 3.054 1.312c4.655 1.89 7.8 3.243 9.103 5.103.69 1.045 1.06 2.17 1.06 3.293 0 .44-.056.867-.135 1.274-.05.19-.13.408-.21.637-.014 0-.014 0-.024.02-.078.22-.187.45-.317.677v.01c8.142 7.44 13.286 18.116 13.286 30.043 0 22.413-18.192 40.618-40.635 40.618-22.453 0-40.634-18.205-40.634-40.618 0-11.28 4.578-21.468 11.963-28.84-.238-5.54 4.696-7.004 8.815-7.61.16-.527.25-1.253.25-2.07 0-1.044-.125-2.018-.36-2.546-2.328-.736-4.92-3.084-6.416-5.94h.014c-8.48.16-16.056.946-22.93 2.418-.086.02-.17.02-.25.04-1.64.348-3.232.746-4.8 1.174-.098.03-.203.05-.302.09-1.572.428-3.104.915-4.612 1.432-.024.01-.024.02-.05.02-1.512.527-2.98 1.084-4.412 1.69-.054.04-.09.04-.14.06-4.387 8.208-8.788 20.833-7.89 24.852 1.414-.617 5.215-4.08 6.523-6.04l.76 4.647c1.91-.865 7.507-6.874 7.507-6.874l.97 4.357c2.11-1.263 6.695-6.327 6.695-6.327l1.11 4.447c2.287-1.393 4.994-3.104 7.803-5.004-4.804 7.5-7.6 16.405-7.6 25.985 0 26.503 21.493 48.02 48.025 48.02 26.517 0 48.03-21.517 48.03-48.02 0-19.547-11.655-36.35-28.357-43.86-1.085-.1-2.203-.2-3.323-.31-.098.002-.187-.018-.286-.028z"/><path d="M99.333 107.807c2.074.11 2.193 9.053 0 9.232-1.12.098-7.442.596-7.452 4.645-.03 2.716 2.12 4.05 2.12 4.05-.87-2.717 1.408-2.995 1.408-2.995l7.556-.06.7 2 1.633 5.92s.517 1.76 1.463 1.56c0 0-.945 1.394-2.044 1.563 2.516 1.472 4.666 1.065 5.516-1.044.865-2.13-.15-7.522-.15-7.522l8.427 5.034s1.675.766 2.128-.07c0 0 .437 1.612-.16 2.557 2.746-.946 3.856-2.916 2.845-4.866-1.004-1.93-7.834-5.243-7.834-5.243h6.132s1.86-.03 1.9-.964c0 0 1.1 1.244.95 2.338 2.07-2.03 2.23-4.138.468-5.58-1.98-1.583-10.908-1.016-12.6-1.613-2.147-.725-5.063-3.332-4.804-5.47.09-.827-.402-2.26.085-3.91 1.066-.44 1.987-1.563 2.672-2.856-5.59-.358-10.853-.537-15.793-.517h-.01c1.435 2.15 3.534 3.76 4.843 3.81z"/><path d="M117.806 109.13c-1.88.25-2.984-.24-3.99 2.04-1.207 2.645 1.374 5.122 1.374 5.122-.512-2.805 1.418-3.114 2.497-2.756l9.188.408 11.545 5.71s1.77.497 2.084-.388c0 0 .686 1.522.25 2.527 2.565-1.363 3.32-3.363 2.028-5.233-1.463-2.08-10.038-4.745-11.486-5.76l-3.89-2.18c-1.38-.516-2.366-1.65-2.665-2.725-.61-.07-1.198-.14-1.82-.21l-4.162-.407h-.01c.397 1.295.407 3.663-.942 3.852z"/></g><path d="M184.742 61.19c1.313 1.542 2.025 2.616 2.472 3.61-.024-.05-.024-.108-.05-.158 1.936 2.925 1.39 7.59 1.368 8.754-.343 14.992-6.92 23.19-20.757 25.796-12.972 2.427-25.353 1.154-44.105-.766l-9.983-1.015c-36.71-3.6-64.643 3.045-83.17 19.828v-.04l-.09-15.648-7.104 5.78c.542 7.322-.507 22.145-.507 28.223 9.51-11.52 19.344-19.528 31.268-24.592.05-.02.085-.02.14-.06 1.432-.606 2.9-1.163 4.41-1.69.027 0 .027-.01.05-.02 1.51-.517 3.04-1.005 4.613-1.432.1-.04.204-.06.303-.09 1.567-.428 3.16-.826 4.8-1.174.08-.02.164-.02.248-.04 6.875-1.472 14.46-2.258 22.936-2.417.96-.03 1.936-.04 2.915-.04 4.94-.02 10.2.16 15.792.517.88.05 1.772.11 2.686.18l5.78.586 4.163.408c.622.07 1.21.14 1.806.21 1.26.108 2.467.238 3.676.377 1.194.1 2.342.22 3.487.328.735.08 1.456.15 2.158.2.1.01.188.03.288.03 1.12.108 2.238.208 3.323.307 11.803.995 21.317 1.144 31.455-.746 17.334-3.273 23.587-12.584 24.15-31.108.182-5.183-2.026-11.73-5.458-13.927-3.238-2.07-4.13-7.084-4.143-7.094-1.18 1.9-1.24 4.198 1.078 6.924z" fill="#C00"/><path d="M177.704 50.068c.95.308 2.034.756 3.07 1.144 1.113-1.224 2.36-2.19 3.297-2.845.02-.08.056-.15.09-.22 3.015-2.954 7.213-2.784 7.546.43 3.532-1.91 4.457-5.124 3.085-7.94-1.203-2.507-5.938-4.288-10.222-2.527-.7-1.433-3.536-2.407-5.018-2.278-1.463.15-12.012 2.636-13.48 2.776-1.487.15-2.566 1.244-3.546 2.666-1.025 1.492-3.606 1.413-6.526.706-5.05-1.214-9.665-1.77-14.43-1.8.79-7.263 6.42-13.82 10.912-16.794 7.093-4.646 7.143-14.087-2.183-16.703-8.406-2.358-23.856.617-33.432 6.387-6.013-4.606-13.18-7.94-20.533-8.973l.9 4.467c-5.3-2.2-14.653-5.163-21.736-4.696l2.652 4.934c-10.834-.24-25.02-.497-32.088 2.15l4.088 3.81c-17.13 2.208-34.76 9.908-41.474 22.652l16.584-6.267-2.184 6.864 14.45-4.665-.587 5.87 11.863-3.85-1.527 6.346 11.386-1.8-1.335 6.844 9.988.358-1.348 6.486 7.575.408-2.357 6.536s6.088 1.75 7.86 2.348l-.17.298c-11.356 1.144-22.175 3.76-32.02 7.89-15.826 6.615-28.456 16.642-36.544 28.988l-1.215 1.84-2.586 4.208s9.68-1.244 16.812 1.214l7.103-5.78s-5.87-1.91-10.107-2.616l-.01-.04c16.818-20.523 48.23-31.536 82.396-28.56l12.74 1.173c18.965 1.81 42.548 4.07 51.38 3.78.53-.02 1.056-.05 1.603-.06 4.322-.2 9.217-.687 12.694-1.482.32-.07.652-.15.956-.23.045-.01.095-.03.145-.05.474-.138.936-.288 1.378-.427.16-.06.32-.13.457-.18 3.676-1.63 4.23-5.31 3.16-8.057-.448-.996-1.16-2.07-2.473-3.612-2.318-2.726-2.257-5.024-1.08-6.924 2.472-.358 5.522-.796 6.944-3.034-2.402.826-3.91.667-4.75.418.582-.577 1.25-1.104 1.65-1.562.877-1.114-.108-1.89-1.222-1.005-.523.42-2.005 1.453-3.363 2.876l-.004.01-.02.01c-.452.478-.894 1.025-1.283 1.602 0 0-.02.02-.024.03-.275.388-.52.806-.718 1.234l-.004.01h.004c-.432.925-.7 1.93-.64 2.974.168 4.357 2.734 4.268 2.72 6.506 0 .28-.42.895-.42.895-.62.806-2.525 2.19-14.458 2.676 2.442-2.805 5.024-5.392 7.118-7.372 1.26-1.183 2.15-2.377 2.975-3.37 0-1.603.538-3.045 1.308-4.27-2.014.31-3.914.717-5.018 1.434-2.73 1.84-9.47 8.914-13.858 13.53-.92-.03-1.9-.08-2.926-.13-.283-.03-.567-.03-.84-.06-.78-.04-1.562-.09-2.398-.14-.358-.03-.696-.05-1.054-.07-.835-.06-1.7-.118-2.56-.178-.325-.03-.638-.05-.986-.08-1.21-.09-2.428-.18-3.69-.28l3.107-2.038-.074-.04.04-.03-12.083-6.825 6.993-2.19-.1-.05.045-.03s-.054-.02-.16-.05l-14.036-9.16c.506-.06 1.024-.12 1.545-.18 9.426-1.184 18.723-.557 26.095 1.234 3.7.905 7.37-.288 8.39-1.482 1.045-1.184 1.165-2.497 3.105-2.925 1.91-.468 7.232-1.482 8.536-1.93 1.328-.448 2.508-.448 3.244.736.742 1.194 2.368.726 3.408.16 1.02-.608 7.506-2.08 7.645 1.74-3.235-1.737-10.47-.125-14.143 6.212z" fill="#008"/><path d="M127.292 24.063c1.77 2.646 1.77 6.824.438 9.043-1.125 1.89-2.264 5.113-2.418 8.645 2.805-.477 5.432-.884 7.924-1.133.452-7.4 6.048-15.17 12.187-20.324 3.97-3.333 2.457-7.033-1.547-7.53-5.173-.608-15.936 1.83-20.97 5.79 1.64 1.74 3.118 3.59 4.386 5.51z" fill="#FFF"/><path d="M179.674 42.278c-1.19.458-5.95 1.562-7.72 1.562 1.338 1.104 5.635 1.373 7.292.806l.428-2.368z" fill="#008"/><g fill="#C00"><path d="M106.27 150.474l-.218-2.616-4.774-1.85-.195-2.427-5.824 2.478.208 2.616 5.218-2.208.16 1.92M101.526 154.086l.278-2.427-6.192 1.302-.294 2.566 5.537-1.113-.234 1.91 4.915 3.133.298-2.626M100.183 162.055l.75-2.338-6.33.06-.822 2.496 5.667-.04-.607 1.84 4.193 4.03.816-2.497M97.278 169.585l1.213-2.13-6.226-1.212-1.293 2.298 5.552 1.085-.94 1.682 3.298 4.764 1.303-2.277M92.94 176.4l1.602-1.84-5.85-2.418-1.725 1.98 5.223 2.158-1.26 1.473 2.314 5.342 1.717-2M105.222 141.54l-.747-2.525-5.028-.856-.687-2.37-5.212 3.593.72 2.516 4.672-3.174.52 1.84M102.422 132.956l-1.22-2.348-5.102.14-1.14-2.16-4.407 4.557 1.224 2.338 3.934-4.08.902 1.712M141.762 156.513l-.214-2.645-5.223 2.238-.145-1.93-5.437-2.08.224 2.607 4.766 1.84.193 2.448M136.156 148.157l.23-1.92-4.906-3.114-.293 2.616 4.287 2.745-.278 2.427 6.212-1.283.304-2.627M137.578 140.328l.597-1.8-4.183-4.05-.82 2.487 3.66 3.552-.75 2.327 6.34-.03.807-2.516M140.493 132.926l.936-1.7-3.304-4.776-1.294 2.278 2.9 4.218-1.188 2.18 6.222 1.193 1.283-2.29M143.463 163.2l-.742-2.54-4.644 3.205-.538-1.84-5.734-.995.73 2.526 5.044.866.677 2.368M146.462 169.406l-1.224-2.347-3.944 4.067-.88-1.7-5.82.158 1.223 2.348 5.11-.16 1.133 2.17M89.374 122.988l-2.99 4.646 1.647 2.04 2.503-3.89c-.532-.787-.96-1.742-1.16-2.796zM95.96 125.296c-.288.21-.84.627-1.432 1.035l-.26 1.274 5.07-.547-.08-1.77c-1.417.01-2.81.01-3.298.01zM144.82 126.22l1.245-1.45-1.273-2.995c-.433.577-1.03 1.154-1.84 1.71l1.128 2.617-1.6 1.84 5.848 2.437 1.727-2-5.234-2.16zM148.974 172.83l-3.07 4.764-1.212-1.473-5.65 1.305 1.65 2.038 4.964-1.153 1.09 1.343c1.07-1.035 2.024-2.148 2.954-3.313l.93-1.432-1.656-2.08z"/></g></g><g><g fill="#008"><path d="M48.418 98.466l2.607-14.276 4.362-1.532 6.755 10.983-4.268 1.513-.77-1.492-4.273 1.493-.223 1.83-4.19 1.483zm5.376-11.222l-.592 4.994 2.72-.955-2.128-4.04zM64.976 92.855L63.603 80.36l5.442-.955 3.278 7.382 1.55-8.217 5.443-.935L80.68 90.13l-4.04.706-.418-3.81-.16-1.96-.01-2.308-.044.01-1.622 8.466-3.128.527-3.373-7.58-.035.01.388 1.79.31 1.94.467 4.25-4.04.685zM84.445 89.71l-.413-12.713 11.19-.368.096 2.973-6.69.21.06 1.84 5.65-.19.11 2.965-5.666.19.06 1.98 6.964-.21.094 2.955-11.455.368zM103.456 85.274l-.13 4.427-4.5-.138.387-12.714 6.477.2c4.576.128 6.053 1.332 5.98 3.8-.05 1.47-.797 2.685-2.408 3.043 1.432.538 2.293.896 2.218 3.443-.05 1.66-.12 2.228.42 2.248l-.026.38-4.54-.13c-.115-.28-.2-1.114-.155-2.238.034-1.67-.265-2.208-2.354-2.288l-1.37-.03zm.08-2.805l1.776.06c1.398.05 2.148-.24 2.17-1.125.03-.905-.718-1.353-1.767-1.383l-2.1-.08-.08 2.527zM115.055 90.547l1.29-12.654 4.475.448-1.293 12.655-4.472-.448zM133.062 84.508c.005-1.333-.796-2.2-2.203-2.338-1.568-.18-2.663.955-2.92 3.402-.21 1.77.03 3.482 2.306 3.73 1.448.17 2.22-.705 2.527-1.89l4.307.488c-.76 3.223-3.496 4.904-7.112 4.497-4.507-.497-6.95-3.362-6.486-7.47.437-4.09 3.71-6.288 7.525-5.88 4.184.458 6.298 2.636 6.298 5.93l-4.243-.47zM138.2 93.143l5.675-12.405 4.576.28 4.14 12.99-4.472-.248-.433-1.72-4.476-.28-.618 1.66-4.392-.277zm7.69-8.436l-1.667 4.477 2.835.18-1.168-4.657zM164.363 87.84l-.293-2.864-.183-4.05 4.302-.208.59 12.714-4.207.19-5.232-6.676.305 2.885.188 4.02-4.307.2-.597-12.705 4.227-.22 5.206 6.716z"/></g></g></svg>