<svg xmlns="http://www.w3.org/2000/svg" viewBox="0 0 204.198 204.281"><title>National League logo</title><path d="M192.997 139.69c-.068 3.328-1.796 6.216-4.583 7.715-5.53 2.98-32.07 18.417-32.07 18.417-1.203 3.308-5.644 5.19-5.644 5.19-.823 1.472-3.587 3.465-6.032 4.17-.896.264-1.82.337-2.747.246-1.553 1.37-4.41 1.453-4.41 1.453l-9.555 5.604s-.973 3.427-4.144 5c-1.914.932-3.962 1.452-6.054 1.087l-15.652 15.712-23.927-23.928s-3.743 13.006-17.174 5.877c0 0-4.218 2.724-9.61.403-1.385-.62-2.628-1.57-3.61-2.705 0 0-7.38-.31-9.3-6.855 0 0-1.664-.438-2.994-1.955-2.14-2.368-2.25-4.982-2.25-4.982-3.426-3.09-4.445-9.14-.79-13.59 2.916-3.574 7.645-7.376 11.44-10.164L0 102.09l47.832-47.8C39.346 49.346 36.7 44.438 36.7 44.438c-1.252-.52-2.587-1.847-2.587-1.847-5.75-.868-8.34-5.18-9.817-8.353l-2.372-5.155s7.682.256 15.524-1.343c7.065-1.472 15.432-2.34 23.973 2.1 2.418 1.235 4.014 2.322 6.107 4.662L102.103 0l34.155 34.283s3.638-3.245 5.955-4.442c8.54-4.44 16.903-3.527 23.973-2.1 7.225 1.452 15.373 1.342 15.373 1.342l-2.314 5.33c-1.34 3.014-3.587 8.08-9.597 8.773 0 0-1.756 1.335-3.2 1.8l-1.16 1.737-5.462 4.862c-1.097.924-2.82 1.874-2.82 1.874v1.48l47.188 47.153-28.072 28.087s-.228.064 1.782-1.078c2.875-1.656 6.352-1.573 9.305.19 3.502 2.074 5.874 6.38 5.787 10.4" fill="#FFF"/><path d="M142.377 187.93h-1.07v-4.14h-.026l-1.508 4.14h-1.032l-1.453-4.14h-.022v4.14H136.2v-5.2h1.847l1.197 3.4h.036l1.262-3.4h1.836v5.2zm-7.124-4.27h-1.576v4.27h-1.056v-4.27h-1.57v-.93h4.203v.93" fill="#008"/><g><g fill="#C00"><path d="M102.52 115.297l1.608-3.73h-1.799c-.256.155-1.842 3.84-1.842 3.84l-.15.392h1.63l1.65 3.636 1.64.174h.412l-1.888-4.204-1.26-.11zM107.46 115.562l1.81-3.538-1.784-.173c-.25.13-2.08 3.657-2.08 3.657l-.173.347 1.63.174 1.404 3.81c.22.183 1.61.312 1.61.312l.424.055-1.59-4.388c-.154-.127-.82-.218-1.25-.255zM112.35 116.293l2.05-3.354-1.76-.32c-.287.118-2.34 3.436-2.34 3.436l-.19.347 1.613.3 1.146 3.95c.214.21 1.584.466 1.584.466l.426.064-1.312-4.506c-.126-.13-.798-.302-1.22-.385zM117.69 113.835c-.287.12-2.545 3.254-2.545 3.254l-.21.3 1.576.466.892 4.067c.182.183 1.554.566 1.554.566l.43.127-1.015-4.625c-.113-.137-.785-.365-1.21-.484l2.262-3.162-1.73-.51zM119.93 118.56l-.242.284 1.53.612.623 4.112c.156.22 1.496.76 1.496.76l.44.164-.714-4.725c-.1-.155-.764-.44-1.165-.612l2.467-2.925-1.71-.66c-.28.092-2.724 2.99-2.724 2.99zM97.61 115.425l1.326-3.83-.406.037-1.412.127c-.22.154-1.563 4.01-1.563 4.01l-.132.385 1.654-.146 1.883 3.5c.26.127 1.64 0 1.64 0l.412-.046-2.153-4.004c-.157-.08-.806-.053-1.25-.035zM92.69 116.055l1.088-3.93-.425.073-1.39.265c-.214.174-1.28 4.13-1.28 4.13l-.104.413 1.62-.33 2.095 3.32c.283.127 1.663-.147 1.663-.147l.388-.083L93.914 116c-.155-.08-.804 0-1.224.055zM87.836 117.162l.804-4.05-.425.12-1.366.384c-.183.22-1.006 4.258-1.006 4.258l-.073.42 1.614-.474 2.303 3.08c.297.11 1.644-.284 1.644-.284l.362-.12-2.62-3.536c-.198-.055-.802.083-1.236.202zM83.052 118.688l.534-4.123-.406.183-1.34.53c-.168.2-.73 4.305-.73 4.305l-.06.457 1.623-.63 2.467 2.85c.306.074 1.64-.438 1.64-.438l.362-.137-2.87-3.29c-.188-.046-.79.146-1.22.293z"/><path d="M79.117 120.424l.274-4.158-.41.21-1.303.64c-.152.228-.425 4.35-.425 4.35l-.033.458 1.535-.76 2.682 2.606c.298.036 1.604-.62 1.604-.62l.33-.147-3.072-2.98c-.19-.055-.78.2-1.18.4zM127.425 121.722c-.092-.155-.704-.485-1.12-.686l2.656-2.687-1.627-.824c-.32.046-2.938 2.742-2.938 2.742l-.26.256 1.49.76.36 4.157c.095.148.685.486 1.088.687.022.01.04.01.055.01.205-.166.384-.32.58-.495.008-.036.022-.073.036-.128l-.32-3.792z"/><path d="M77.623 125.67c.284.037 1.554-.73 1.554-.73l.315-.193-3.258-2.723c-.206 0-.777.293-1.165.52v-4.158l-.417.247-1.243.767-.078 2.86c0 .037.02.074.02.11.346.393.72.777 1.104 1.18l.315-.212 2.853 2.333zM128.522 122.38l-.284.256 1.453.86.006.292c1.023-1.033 1.993-2.12 2.897-3.263l-.96-.585c-.31.01-3.11 2.44-3.11 2.44zM101.596 76.472l-1.576 3.747h1.81c.24-.166 1.818-3.858 1.818-3.858l.164-.366h-1.654l-1.655-3.683-1.627-.155h-.402l1.874 4.204 1.248.11zM95.423 75.988c.164.1.818.192 1.248.256l-1.8 3.537 1.782.156c.256-.146 2.07-3.665 2.07-3.665l.174-.356-1.61-.155-1.402-3.83c-.21-.155-1.628-.293-1.628-.293l-.416-.027.146.384 1.437 3.994zM90.578 75.1c.124.147.8.302 1.216.402l-2.048 3.364 1.77.33c.278-.147 2.315-3.492 2.315-3.492l.207-.32-1.6-.292-1.155-3.967c-.228-.182-1.61-.447-1.61-.447l-.43-.1.12.43 1.216 4.092zM86.438 77.925c.306-.1 2.55-3.226 2.55-3.226l.214-.303-1.595-.447-.864-4.077c-.183-.192-1.554-.585-1.554-.585l-.445-.12.106.43.93 4.206c.122.146.762.347 1.187.484l-2.253 3.172 1.724.465zM84.217 73.21l.224-.285-1.51-.594-.632-4.12c-.16-.22-1.503-.723-1.503-.723l-.412-.165.068.447.623 4.277c.11.127.767.43 1.174.585l-2.462 2.925 1.68.658c.293-.08 2.752-3.006 2.752-3.006zM106.554 76.362l-1.352 3.83 1.8-.165c.24-.174 1.586-4.012 1.586-4.012l.137-.402-.41.046-1.235.118-1.883-3.482c-.265-.146-1.65 0-1.65 0l-.402.02 2.13 4.01c.173.073.84.054 1.28.036zM111.45 75.74l-1.075 3.94 1.82-.347c.195-.192 1.27-4.123 1.27-4.123l.104-.402-.407.064-1.234.238-2.075-3.318c-.284-.12-1.664.165-1.664.165l-.383.055 2.408 3.802c.174.063.81 0 1.234-.073zM116.302 74.634l-.804 4.05 1.787-.53c.183-.202.992-4.205.992-4.205l.09-.44-.424.11-1.18.34-2.302-3.1c-.29-.082-1.657.3-1.657.3l-.374.11 2.663 3.547c.194.064.802-.082 1.21-.183zM121.09 73.1l-.543 4.103 1.75-.704c.183-.22.727-4.305.727-4.305l.054-.457-.425.173-1.165.467-2.5-2.88c-.3-.063-1.622.458-1.622.458l-.347.147 2.837 3.28c.192.065.81-.146 1.234-.282z"/><path d="M125.373 70.622l-2.65-2.595c-.315-.055-1.628.585-1.628.585l-.328.173 3.08 3.007c.187.027.78-.228 1.192-.42l-.27 4.158 1.7-.868c.142-.21.426-4.36.426-4.36l.032-.466-.416.228-1.14.558zM75.626 69.398l.252-.23-.658-.446c-.992.96-1.938 1.983-2.83 3.034l.115.092c.305-.03 3.12-2.45 3.12-2.45zM77.838 70.75l-2.65 2.696 1.636.804c.3-.046 2.925-2.723 2.925-2.723l.264-.256-1.495-.758-.357-4.168c-.013-.036-.054-.082-.11-.11-.526.42-1.042.85-1.55 1.308l.215 2.522c.106.138.708.476 1.12.686z"/><path d="M124.655 67.04l3.267 2.696c.206.018.767-.274 1.147-.503v4.15l1.653-1.006.087-1.956c-1.408-1.534-2.93-2.96-4.565-4.24-.47.174-1.275.667-1.275.667l-.315.193z"/></g><path d="M184.91 132.223c-1.898-1.115-4.01-1.132-5.82-.09-5.26 2.997-19.275 12.072-33.2 21.093-1.434-.53-2.786-1.362-3.856-3.1.046-.045.206-.218.206-.218.713-.704 1.07-1.636 1.07-2.56 0-.84-.293-1.7-.892-2.385 0 0-.406-.475-.704-.805.096-.173.28-.548.28-.548.26-.52.392-1.088.392-1.636 0-1.29-.7-2.54-1.92-3.207 0 0-.57-.302-1.073-.577-.055-.603-.114-1.28-.114-1.28-.023-.392-.134-.757-.29-1.114l7.07-3.62v-9.468c3.168 1.645 7.075 2.02 11.07.695l2.887-.97-2.573-1.608c-1.704-1.06-2.796-3.354-2.796-5.85V50.873c.932-.485 1.805-1.088 2.668-1.79-.438 0-5.11-2.387-6.516-3.118 2.915 1.426 9.17 1.755 11.442-1.206-.114.01-5.027-2.495-6.704-3.336 5.177 1.627 10.625 1.06 12.544-1.508 4.77-.036 6.307-3.73 7.71-6.883-2.514 0-7.472-.776-10.538-1.397-7.417-1.526-14.418-1.956-21.487 1.755-6.412 3.327-10.405 10.694-12.53 15.894h-15.222c.425-.484.813-1.005 1.147-1.608.165-.293.22-.585.22-.887 0-.466-.312-.94-.553-1.408.69-1.097 1.104-2.23 1.26-2.962.05-.21.073-.43.073-.64 0-.95-.43-1.873-1.197-2.467-.544-.446-1.22-.648-1.896-.648 1.8-.796 3.473-1.517 5.063-2.203.073.064.11.145.173.19 1.147.66 2.606.55 3.606-.318 2.18-1.81 2.13-5.082 1.16-7.35-.442-1.07-1.448-2.52-3.714-3.353-2.756-1.025-6.458-.74-9.446 0-.192-.24-.31-.522-.517-.74-1.64-1.527-4.245-2.094-7-1.527l-7.66 2.54-5.913 2.003-.7.21c-1.758.52-4.437 1.307-7.105.2-.89-.373-1.924-.32-2.765.175-.84.476-1.426 1.335-1.558 2.295-.074.594-.128 1.15-.128 1.718 0 1.92.517 3.564 1.563 4.9.223.283.616.438.89.693v.055c.032.695.27 2.67 1.677 4.178l-.01.01c0 .29.037.565.115.85.548 2 1.55 3.28 2.8 4.176.037.356.088.722.257 1.06.19.32.356.593.533.858H72.377c-2.116-5.2-6.092-12.566-12.52-15.894-7.093-3.71-14.054-3.28-21.484-1.755-3.062.62-8.01 1.398-10.534 1.398 1.402 3.054 3.49 6.18 8.078 6.362 1.404 2.67 6.992 3.656 12.142 2.03-1.645.84-6.566 3.344-6.677 3.335 2.276 2.96 8.54 2.633 11.46 1.206-1.41.732-6.118 3.117-6.538 3.117 1.143.932 2.303 1.7 3.62 2.212v63.685c0 2.495-1.098 4.79-2.812 5.85l-2.563 1.626 2.87.95c3.97 1.326 7.82.95 10.98-.612v9.415l6.59 3.38c-.132.33-.223.687-.246 1.052 0 0-.06.805-.11 1.572-.512.254-1.065.557-1.065.557-.275.146-.517.338-.732.53-.073.064-.124.138-.192.21-.14.156-.27.312-.388.485-.05.082-.105.146-.146.238-.133.238-.242.485-.32.75v.01c-.63-.193-1.316-.184-1.937.126-4.694 2.23-18.668 11.352-24.084 17.97-2.128 2.604-1.31 6.022.71 7.86.41.373.84.64 1.31.84-.05.31-.073.62-.073.94.036 1.592.677 2.99 1.783 3.904.466.402 1.403 1.17 2.668 1.49.01.247.036.485.078.73.315 1.583 1.257 2.98 2.665 3.894 1.49 1.024 3.382 1.317 5.128 1.006.618 1.316 1.76 2.467 3.2 3.144 2.66 1.234 6.42.604 8.435-2.513 1.682 4.305 5.095 4.03 6.79 3.903l.353-.027c.124 0 .26-.036.38-.073 1.982-.41 4.025-1.097 5.03-4.286.38-1.243 3.167-11.397 4.296-17.402.987 1.042 2.344 1.828 4.26 2.075.26 2.12 2.37 4.634 5.66 5.036.274 2.486 3.994 5.794 6.604 5.008 1.193 2.76 4.648 3.31 6.626 3.31 2.623 0 5.69-1.454 6.347-3.702 1.325.045 2.695-.375 3.87-1.07-1.005 1.672-1.064 3.674-.132 5.393.032.064.525.95.525.95l2.404 3.693c1.75 2.083 4.73 2.622 7.056 1.27 1.26-.74 1.95-1.965 2.312-3.3 2.24-1.334 6.924-4.15 12.778-7.65.187 0 .37.01.562-.018 1.983-.374 3.354-1.042 4.36-1.882.722.347 1.535.484 2.343.246 2.235-.667 3.816-2.202 4.84-4.04.32.028.65.065.96-.064 2.307-.84 3.847-2.504 4.25-4.57 13.617-8.115 27.487-16.286 32.13-18.782 1.722-.942 2.737-2.668 2.787-4.753v-.137c.002-2.76-1.775-5.86-4.156-7.285zm-66.506 38.615c-.48-.173-.937-.457-1.467-.475-.95-.037-1.883.21-2.723.65.374-.585.617-1.206.676-1.81 1.975 0 5.142-2.386 5.397-4.9 1.883-.2 5.118-2.385 5.794-6.37.39-.064 1.134-.173 1.89-.274.337.283.766.65.808.685.082.1.187.402.187.758v.1c-.008.21-.018.44-.018.667 0 1.325.256 2.633.704 3.848-4.936 3.19-9.094 5.832-11.246 7.12zm-16.214-35.562c-21.373 0-38.77-17.393-38.77-38.76 0-21.35 17.396-38.744 38.77-38.744 21.368 0 38.76 17.393 38.76 38.743 0 21.368-17.39 38.76-38.76 38.76z" fill="#008"/><path d="M128.964 159.204v-.1c0-.358-.105-.66-.187-.76-.04-.035-.47-.4-.81-.685-.753.1-1.498.21-1.887.273-.676 3.985-3.91 6.17-5.794 6.37-.256 2.514-3.423 4.9-5.397 4.9-.06.604-.302 1.225-.677 1.81.84-.44 1.773-.686 2.723-.65.53.02.987.302 1.467.475 2.153-1.29 6.31-3.93 11.247-7.12-.448-1.215-.704-2.522-.704-3.847 0-.228.01-.456.018-.666zM154.647 58.09v56.887c0 2.495 1.092 4.79 2.796 5.85l2.573 1.607-2.888.97c-3.993 1.325-7.9.95-11.068-.695v9.468l-7.07 3.62c.155.356.266.72.288 1.114l.114 1.28c.503.273 1.073.576 1.073.576 1.22.667 1.92 1.92 1.92 3.207 0 .548-.132 1.116-.393 1.636 0 0-.182.376-.28.55.3.328.705.804.705.804.6.685.892 1.544.892 2.386 0 .923-.358 1.855-1.07 2.56 0 0-.16.172-.207.218 1.07 1.737 2.422 2.568 3.857 3.1 1.783-1.162 3.574-2.314 5.337-3.456l47.518-47.562-44.098-44.12zM125.07 28.983c.97 2.267 1.02 5.54-1.16 7.35-1 .867-2.46.976-3.606.318-.064-.046-.1-.127-.173-.192-1.59.686-3.262 1.408-5.062 2.203.676 0 1.352.202 1.896.65.767.594 1.197 1.517 1.197 2.468 0 .21-.02.43-.072.64-.155.73-.57 1.864-1.26 2.96.24.467.55.942.55 1.408 0 .302-.053.594-.218.887-.333.603-.722 1.124-1.147 1.608h15.22c1.162-2.813 2.885-6.27 5.215-9.366l-11.94-11.946c.248.356.43.694.563 1.014zM85.86 48.422c-.17-.338-.22-.704-.256-1.06-1.25-.895-2.253-2.175-2.8-4.176-.08-.284-.115-.558-.115-.85l.01-.01c-1.41-1.508-1.646-3.482-1.678-4.176v-.055c-.275-.256-.668-.41-.892-.694-1.046-1.334-1.563-2.978-1.563-4.898 0-.567.054-1.124.128-1.718.132-.96.717-1.82 1.558-2.294.842-.494 1.875-.548 2.766-.174 2.668 1.106 5.347.32 7.106-.2l.7-.21 5.912-2.003 7.66-2.54c2.754-.567 5.36 0 7 1.525.206.22.325.503.517.74 2.99-.74 6.69-1.024 9.447 0 .69.256 1.238.566 1.71.896l-20.95-20.958-34.69 34.676c2.203 3.016 3.844 6.315 4.95 9.04h14.015c-.178-.266-.342-.54-.534-.86zm26.427 131.072s-.493-.886-.525-.95c-.932-1.718-.873-3.72.132-5.393-1.175.695-2.545 1.116-3.87 1.07-.66 2.25-3.725 3.702-6.348 3.702-1.978 0-5.433-.548-6.626-3.31-2.61.787-6.33-2.52-6.603-5.007-3.29-.402-5.402-2.915-5.662-5.036-1.915-.248-3.272-1.034-4.26-2.076-.547 2.98-1.52 6.983-2.412 10.41l26.008 26.04 14.345-14.377c-.667-.338-1.27-.795-1.773-1.38l-2.405-3.693zM58.402 122.79c-3.162 1.564-7.01 1.94-10.98.614l-2.87-.95 2.562-1.628c1.714-1.06 2.81-3.354 2.81-5.85V57.745L5.453 102.21l44.743 44.774c3.99-2.723 7.664-4.917 9.66-5.868.622-.31 1.307-.32 1.938-.127v-.01c.078-.265.187-.512.32-.75.04-.092.095-.155.146-.238.118-.173.246-.328.387-.484.068-.073.12-.147.192-.21.214-.193.456-.385.73-.53 0 0 .553-.303 1.065-.56.05-.766.11-1.57.11-1.57.023-.366.114-.723.247-1.052l-6.59-3.38v-9.415z" fill="#C00"/><path d="M85.6 47.362c-1.25-.896-2.252-2.176-2.8-4.177-.078-.284-.114-.558-.114-.85l.01-.01c-1.01-1.087-1.418-2.403-1.586-3.317l-9.195 9.204c.147.357.315.722.462 1.07h14.015c-.178-.266-.343-.54-.534-.86-.17-.338-.22-.704-.257-1.06zm29.468-8.7c.676 0 1.352.2 1.896.648.767.594 1.197 1.517 1.197 2.468 0 .21-.02.43-.072.64-.155.73-.57 1.864-1.26 2.96.24.467.55.942.55 1.408 0 .302-.053.594-.218.887-.333.603-.722 1.124-1.147 1.608h15.22c.134-.31.29-.638.43-.968L119.907 36.56c-1.53.648-3.13 1.35-4.838 2.1zm39.58 32.637v43.678c0 2.495 1.09 4.79 2.795 5.85l2.573 1.607-2.888.97c-3.993 1.325-7.9.95-11.068-.695v9.47l-7.07 3.618c.155.357.266.722.288 1.115l.114 1.28c.503.273 1.073.576 1.073.576 1.22.666 1.92 1.918 1.92 3.206 0 .548-.132 1.116-.393 1.636 0 0-.182.375-.28.548.3.33.705.805.705.805.06.064.124.155.188.256l42.95-43.01-30.908-30.91zM58.4 122.79c-3.162 1.564-7.01 1.94-10.98.614l-2.87-.95 2.562-1.628c1.714-1.06 2.81-3.354 2.81-5.85V70.203l-32 32.007 39.903 39.976c.78-.44 1.47-.813 2.03-1.07.62-.31 1.305-.32 1.936-.127v-.01c.078-.265.187-.512.32-.75.04-.092.095-.155.146-.238.118-.173.246-.328.387-.484.068-.073.12-.147.192-.21.214-.193.456-.385.73-.53 0 0 .553-.303 1.065-.56.05-.766.11-1.57.11-1.57.023-.366.114-.723.247-1.052l-6.59-3.38v-9.415zm42.38-103.45l-7.846 7.84 3.798-1.278 7.66-2.54c.716-.147 1.424-.212 2.096-.212l-4.757-4.76-.95.95zM132.14 167.594c-.232-.2-.456-.457-.684-.704-7.66 4.936-13.098 8.336-13.22 8.135-1.2-2.322-4.374-.22-3.278 1.782.8 1.426 1.444 2.788 2.49 4.004 1.384 1.645 3.99.385 3.17-1.828 0 0 5.298-3.18 12.87-7.714-.197-.447-.324-.923-.324-1.408 0-.475.155-.913.324-1.352-.456-.265-.936-.512-1.347-.914zm48.784-32.31c-4.87 2.78-17.777 11.096-30.64 19.432.812.438 1.557 1.088 2.046 2.066 0 0 .01.65.023 1.06.42.484.758.986 1.07 1.517 13.275-7.89 26.56-15.704 31.13-18.162 2.48-1.352-.855-7.54-3.63-5.913zM110.197 178.826v8.38c-.288.275-7.335 7.323-8.002 7.99-.663-.667-7.723-7.715-8.007-7.99v-8.37l16.01-.01zM88.147 158.235c-.813-.685-1.275-1.636-1.58-2.687-.454-.09-.88-.182-1.29-.33-1.645 1.17-3.592 1.728-5.616 1.134-.2 2.86 1.084 5.53 4.557 5.63 1.38-.65 3.213-1.994 4.73-3.208-.32-.183-.608-.365-.8-.54zm35-1.947s-.35.138-.772.183c-1.622.247-3.144-.164-4.442-1.087-.178.045-.37.11-.566.146-.26 1.123-.723 2.147-1.563 2.868-.343.3-.796.585-1.335.786 1.11.914 2.494 1.993 3.765 2.796 3.336.073 4.79-2.14 4.913-4.734.068-.318 0-.958 0-.958zm-31.682 3.172c-.47-.027-.886-.1-1.28-.21-1.923 1.28-4.112 2.86-5.195 3.802-.01 1.663 1.618 3.473 4.328 3.473 1.056-.923 2.815-2.934 4.21-4.506-.898-.668-1.593-1.564-2.063-2.56zm21.286.11c-.483 1.04-1.22 1.955-2.188 2.604.85 1.216 2.016 2.96 3.007 4.35 2.695-.054 4.313-1.928 4.222-3.545-1.403-1.09-3.336-2.432-4.908-3.42-.04 0-.087.01-.133.01zm-.36 6.89c-.84-1.352-1.8-2.778-2.618-3.81-1.065.474-2.208.538-3.318.374-.228.283-.48.51-.75.767.333 2.14.987 5.576 1.412 7.816 3.308.447 6.297-2.65 5.25-5.164 0 .018 0 .018.024.018zm-14.555-3.445c-1.175.165-2.368.092-3.497-.485-.008-.018-.036-.027-.06-.036-1.438 1.536-3.084 3.574-4.057 4.88-.123 2.176 2.31 4.406 5.014 4.25.745-2.284 2.098-6.378 2.68-8.526-.03-.028-.06-.046-.08-.083zm4.323 2.22c-1.078.01-2.23-.383-3.272-1.188-.905 1.947-1.837 5.456-2.49 7.788.7 2.394 3.176 3.637 4.99 3.637 1.627 0 3.802-.97 4.743-2.925-.358-2.22-.81-5.813-1.44-8.024-.772.43-1.618.704-2.532.713zM50.52 164.824c-.33-.557-.567-1.178-.668-1.836-.046-.293-.073-.585-.073-.878 0-1.526.776-2.97 1.91-4.268.013-.412.013-1.06.013-1.06 1.01-2.02 3.075-2.577 4.738-3.044 2.035-.53 4.1-1.198 5.58-3.62-.04-.054-.21-.228-.21-.228-.694-.685-1.046-1.627-1.046-2.54 0-.786.256-1.563.754-2.203-.306-.33-.553-.566-.64-.65-4.753 2.414-17.58 10.886-22.415 16.8-.324.392-.46.84-.46 1.288 0 .677.31 1.325.822 1.79.402.375 1.248.86 2.19-.09l1.686-1.728c1.99-2.03 2.807-2.87 3.647-2.88l.818.33.297.19-.018.55c-.022.75-.896 1.543-3.034 3.37l-1.993 1.747c-.754.676-1.238 1.773-1.23 2.76.028.585.206 1.07.526 1.325 1.184.986 1.74 1.242 3.057.145l2.052-2.093c2.006-2.1 2.943-3.022 3.697-3.178zm5.547 4.388c-.357-.42-.677-.886-.96-1.398-.315.036-.64.064-.95-.065-1.02-.366-1.87-.897-2.56-1.555-.24.577-.937 1.206-2.22 2.34-1.116.997-2.386 2.094-3.026 3.034-.603.896-.844 1.8-.69 2.622.124.677.53 1.252 1.162 1.682 1.384.896 3.733.558 4.656-.73l1.934-2.835c1.302-1.992 1.92-2.888 2.655-3.098zm19.033-10.31c-.014.082-.032.138-.032.2v.074c.013.256.032.494.032.723 0 2.914-1.193 5.803-3.167 7.686-.44.41-.927.667-1.403.95.14.42.297.832.297 1.262 0 .777-.228 1.554-.7 2.175-.83 1.097-2.142 1.774-3.5 1.517-.693-.146-1.278-.3-1.83-.512-.266 2.313-.453 4.817.063 6.033.786 1.883 1.513 1.856 2.975 1.802 0 0 .63-.02.677-.02 1.275-.2 1.96-.53 2.4-1.928.56-1.81 4.23-15.427 4.588-19.54-.043-.047-.198-.202-.4-.422zm-15.154 12.95c-.996-.29-1.86-.794-2.62-1.388-.117.704-.784 1.636-2.087 3.454l-1.806 2.56c-.365.548-.466 1.096-.315 1.617.224.777.964 1.37 1.576 1.645 1.11.52 3.23.366 4.245-1.572l3.122-6.46c-.667.264-1.388.346-2.116.145zM132.333 151.846c0-.347.146-.658.43-.85.284-.2.648-.247.973-.137 0 0 1.878.74 2.952 1.15.402-.923.983-2.23.983-2.23.028-.064.066-.073.08-.127-.028-.092-.08-.165-.115-.266l2.038-2.037-2.308-2.642 1.376-2.733-2.82-1.517-.237-2.942-15.15 7.777v.12c.53 1.123 1.38 3.015 1.38 4.825v.064l1.765.63 1.604 3.428 3.36-.475c.218-.22.506-.374.844-.31 0 0 1.71.164 2.898.31l-.05-2.04zm16.675 7.587c1.23-3.82-6.105-.942-10.09-7.33l-.736 1.636c-.22.52-.804.766-1.32.556 0 0-1.28-.484-2.413-.923.03.813.053 1.655.053 1.655 0 .292-.114.557-.33.777-.22.192-.53.292-.812.265l-1.96-.21c.813.83 1.29 2.24 1.192 3.573-.214 3.49 2.22 6.71 4.273 6.47.512 1.28.512 2.962-.138 4.004 3.432-.64 3.848-2.083 4.2-4.762.054-.566-.11-2.166-.52-2.952 2.782.42 3.19 5.127 2.664 6.16 3.113-.905 4.598-6.544 2.436-8.463 1.888.265 3.386 2.906 3.14 4.45 2.84-1.033 2.31-3.373.362-4.907z" fill="#FFF"/><path d="M83.298 144.974l-14.957-7.678-.24 3.162-2.812 1.517 1.39 2.733-2.28 2.642 2.01 2.037c-.028.1-.078.174-.12.274.023.047.06.056.083.12 0 0 .59 1.307.978 2.23 1.084-.41 2.948-1.15 2.948-1.15.325-.11.694-.066.973.136.283.192.446.503.446.85 0 0-.036 1.08-.073 2.038 1.202-.146 2.912-.31 2.912-.31.42-.065.767.145.982.465l2.54.995 2.304-4.103 1.51-.52c-.005-.13-.033-.248-.033-.367 0-2.056.9-3.948 1.366-4.908l.075-.163zm-13.425 10.83c-.215-.22-.343-.485-.343-.768 0 0 .027-.85.06-1.663-1.125.44-2.41.923-2.41.923-.516.21-1.082-.036-1.32-.557l-.736-1.637c-3.995 6.388-11.324 3.51-10.1 7.33-1.955 1.535-2.454 3.875.385 4.908-.253-1.544 1.247-4.185 3.133-4.45-2.175 1.92-.67 7.558 2.43 8.463-.52-1.033-.118-5.74 2.66-6.16-.406.786-.575 2.386-.488 2.952.31 2.68.75 4.123 4.16 4.762-.627-1.042-.627-2.723-.125-4.003 2.083.238 4.496-2.98 4.268-6.47-.095-1.336.398-2.743 1.21-3.575l-1.973.21c-.3.026-.598-.074-.812-.266zM102.268 154.69l-16.136-8.28c-.667 1.424-1.723 3.874-.155 5.446.767.512 2.568.723 3.838.228-.753 2.504.133 5.42 4.465 3.373-.89 3.445 2.797 5.94 5.077 3.18 1.028 4.67 4.835 3.912 5.612 0 2.284 2.76 5.844.366 4.97-3.053 4.31 2.048 4.827-.996 4.05-3.5 1.276.494 3.08.284 3.84-.228 0 0 2.668-1.47-.16-5.082l-15.402 7.915z" fill="#FFF"/><path d="M151.782 51.85v63.127c0 1.91.59 4.23 1.95 6.14-3.147.44-6.1-.108-8.165-1.936l-2.354-2.074v13.325c-1.476.75-39.72 20.42-40.946 21.04-1.243-.62-39.565-20.262-41.05-21.02v-13.17l-2.327 1.993c-2.047 1.755-4.962 2.275-8.056 1.846 1.366-1.91 1.942-4.232 1.942-6.142v-63.01c1.335.12 2.825.074 4.625-.283l3.643 3.765v40.955h.046c0 .02-.01.037-.01.037 0 22.648 18.43 41.11 41.088 41.11 22.657 0 41.1-18.462 41.1-41.11 0-.055-.008-.12-.008-.174h.05V55.56l3.542-3.747c1.937.302 3.545.292 4.93.037z" fill="#FFF"/><path d="M148.985 58.704v52.133c0 .63-.525 1.115-1.124 1.115-.63 0-1.128-.484-1.128-1.115V58.704c0-.63.498-1.133 1.13-1.133.598 0 1.123.504 1.123 1.134z" fill="#008"/><path d="M122.174 30.207c-1.358-3.263-9.218-2.148-12.234-.622.407-2.897-2.344-3.683-4.894-3.153-1.316.256-11.616 4.012-13.417 4.516-1.816.484-5.704 1.992-9.826.265-.548 3.903 1.192 5.968 6.178 6.507-1.508.12-3.17.74-3.816.31.106 2.916 1.55 3.264 5.58 2.615-1.32 1.417-2.62 1.92-3.916 1.69.964 3.5 2.925 3.848 6.173 1.902-2.19 2.714-2.372 3.144-3.364 2.714.863 1.628 1.85 2.057 2.3 2.387.437.33 1.936.566 2.927-.1.97-.66 1.723-1.755 2.373-2.495-.434 1.617-.448 3.16-1.645 3.473 5.653 2.066 5.543 0 6.873-2.167.75 2.696 2.828 3.893 6.425 1.855-1.184-1.005-1.22-2.294-1.12-3.06.33.42.654.968 1.417 1.424 2.637 1.49 5.014.046 6.23-2.13-1.216.56-2.34-.584-4.072-1.67 3.802 1.388 4.342-1.162 4.67-2.707-1.847.878-4.328.2-4.894-1.882l1.65-3.227 7.476-3.225c-.466-.12-1.08-.146-2.03-.027-2.695.393-7.146 1.874-11.9 4.03l.088-1.48c4.94-2.24 8.76-3.483 11.63-3.858 1.878-.256 2.87-.073 3.92.704.567-.037 1.074.494.956 1.133.96-.805.685-2.75.26-3.72z" fill="#FFF"/><path d="M100.98 30.28c-1.596.09-3.145 1.398-4.67 1.773-.504.11-1.294.192-1.294.192 1.037 1.015 2.71.613 3.962.174.206 1.187 1.147 2.055 2.262 1.982 1.125-.082 2.01-1.19 2.066-2.403.046.017.11.026.133.053 1.64.978 2.435-.493 2.435-.493-1.976.073-1.285-1.48-4.896-1.28z" fill="#008"/><path d="M150.356 39.09c-.457 2.596-6.686 8.848-10.904 10.1h-4.286c2.975-9.177 10.676-16.36 21.917-15.985 4.172.146 11.776 1.974 14.36 1.974-.695 1.717-5.955 2.33-10.612 1.717-1.256 2.495-6.16 3.053-10.474 2.194zM53.27 39.09c.448 2.596 6.705 8.848 10.918 10.1h4.277c-2.97-9.177-10.69-16.36-21.912-15.985-4.172.146-11.786 1.974-14.386 1.974.722 1.717 5.973 2.33 10.638 1.717 1.253 2.495 6.156 3.053 10.466 2.194z" fill="#FFF"/><g fill="#C00"><path d="M65.664 115.28c-2.628-5.09-4.242-10.795-4.534-16.818l.087 18.82v13.17c.287.154 1.937.995 4.41 2.266h.036v-17.44zM75.68 127.837c-1.59-1.344-3.06-2.806-4.428-4.37v12.11c.014.01.033.038.05.047 1.372.704 2.834 1.453 4.343 2.22 0 0 .022.01.036.02v-10.027zM85.314 133.924c-1.54-.677-3.085-1.554-4.415-2.322V140.54c1.47.75 2.942 1.51 4.39 2.25h.014l.01-8.866zM94.957 136.912c-1.56-.265-2.902-.576-4.397-1.032v9.605c1.572.805 3.044 1.555 4.383 2.25h.014V136.91zM104.59 137.47c-.805.055-1.604.082-2.422.082-.663 0-1.312-.02-1.97-.036v12.896l.01.01c1.164.593 1.9.977 2.06 1.05.17-.073 1-.503 2.317-1.19h.005V137.47zM114.3 135.724c-1.448.447-2.925.804-4.428 1.097v10.74h.022c1.358-.694 2.834-1.453 4.405-2.275v-9.56zM123.942 131.29c-1.43.897-2.906 1.702-4.428 2.405l-.014 8.92c1.47-.76 2.948-1.526 4.442-2.285v-9.04zM133.6 122.892c-1.354 1.61-2.84 3.126-4.43 4.505v10.237c1.54-.777 3.03-1.545 4.415-2.257l.014-.01v-12.475zM143.26 96.707c-.047 6.59-1.646 12.796-4.447 18.298v17.676c.027 0 .04-.018.054-.018 2.446-1.27 4.063-2.093 4.346-2.23v-4.03-9.24-.055l.096-20.84s-.028.284-.05.44z"/></g><path d="M55.596 58.704v52.133c0 .63.503 1.115 1.12 1.115.61 0 1.123-.484 1.123-1.115V58.704c0-.63-.513-1.133-1.125-1.133-.616 0-1.12.504-1.12 1.134z" fill="#008"/></g><g><path d="M134.45 109.33l-1.25-.403-.858-.274-.827-.238-.498-.155c.722-4.927 1.097-19.12-.105-28.378l-.535.146-.525.165-.526.173-.498.165c.927 9.543.832 23.134-.48 30.747l1.45.484 1.49.44 1.35.503.98.347.83-3.72zM119.35 102.155l.9-6.417.942-6.6.91-6.77.598-.166.635-.146.607-.155.604-.137.717 6.928c.225 2.313.485 4.726.677 7.12l.75 7.412.644 7.614-.53-.174-.498-.173-.52-.14-.522-.126c0-.66-.114-1.335-.15-1.947l-.152-1.83c0-.61-.12-1.25-.155-1.845l-.15-1.837-.828-.138-.824-.1-.836-.138-.79-.1-.23 1.67-.214 1.656-.155 1.645-.186 1.664-.57-.138-.522-.1-.53-.138-.526-.11c.3-2.062.644-4.173.904-6.283zm3.28-10.557l-.337 3.29-.28 2.377c-.08 1.05-.22 1.453-.324 2.513l.666.028.685.064.673.036.635.073c-.037-1.106-.146-1.125-.256-2.222l-.297-3.363-.306-3.3c-.037-1.042.045.466-.033-.594l-.087-1.434-.138-1.188-.228 1.15-.095.705-.28 1.865zM115.022 107.775l.754.128.83.174.82.164.196-24.96-.534.11-.526.1c-.155.073-.38.092-.525.092l-.52.12-.065 15.847-3.373-15.383-.75.073-.786.1-.76.065-.186 22.657.493.027.486.072.493.027.53.09.11-12.868-.064-1.773 3.376 15.135zM103.05 90.063c.035-2.148.56-3.172 1.584-3.172 1.015-.072 1.545.915 1.504 3.127l-.036 2.852v2.94l-.04 2.916v2.916c-.042 1.91-.64 2.888-1.573 2.824-.915 0-1.545-.986-1.518-2.88V98.69l.04-2.88v-2.896l.037-2.85zm-2.295 11.35c-.032 3.428.823 5.475 3.692 5.44 3.048.164 3.834-2.514 3.866-5.676l.087-11.334c.036-3.5-.905-5.474-3.766-5.31-3.057-.018-3.765 2.66-3.802 5.76l-.077 11.12zM96.912 106.852l.526-.027.57-.037.563-.036h.563l.188-22.064-.562-.054-.566-.02h-.563l-.517-.036M88.705 86.452l.69.065.635.073.672.063.68.064-.233 20.783.575-.1.526-.063.567-.073.563-.074.187-20.263.64.037.68.027.636.038.676.028v-2.54l-1.88-.175-1.882-.173-1.842-.247-1.89-.264M78.23 81.325l.444.127.53.147.494.145.86.21c-1.235 7.184-2.09 19.34-.508 27.785l-.694.33-.79.218-.75.22c-2.734-5.996-4.712-14.15-5.083-19.413-.758 4.077-.758 13.09 1.577 20.674-.12.072-.48.182-.644.218l-.635.34-.447.172-.457.174c-3.537-8.92-3.258-23.288.8-32.903l.702.23.718.238.723.237c-.554 4.397-.083 14.268 1.762 18.737-.155-4.726.228-12.622 1.398-17.887zM84.235 82.806l.594.1.64.146.643.138.604.092 3.057 24.42-.58.073-.516.1-.53.11-.563.093c0-.512-.645-6.225-.645-6.225l-.86.1-.835.074-.823.1-.6.11-1.023 6.89-.53.1-.522.14-.53.172-.494.137 3.51-26.87zm2.458 15.985L85.56 88.363l-1.292 10.63 2.425-.2z" fill="#008"/></g></svg>