<?xml version="1.0" encoding="UTF-8"?>
<svg width="512px" height="512px" viewBox="0 0 512 512" version="1.1" xmlns="http://www.w3.org/2000/svg" xmlns:xlink="http://www.w3.org/1999/xlink">
    <!-- Generator: Sketch 42 (36781) - http://www.bohemiancoding.com/sketch -->
    <title>cleveland-cavaliers</title>
    <desc>Created with Sketch.</desc>
    <defs>
        <path d="M4.9,81.9 C5.3,81.1 5.6,80.3 5.7,79.4 C5.4,80.2 5.2,81.1 4.9,81.9 M4.5,83.3 C1,95.4 -0.5,108.2 0.3,121.4 C1.5,141.2 7.6,159.6 17.4,175.3 C11.9,152 11.6,124.2 21.4,100.2 C27.5,85.2 38.1,71.9 42.3,55.9 L42.4,55.4 C29.3,62.5 16.6,71.7 4.5,83.3 M51.1,51.2 C50.2,55.1 48.9,59.3 47.5,64.3 C43.6,77.8 31,95.9 26.6,109.2 C18.5,134.1 20.8,171.3 32.8,195 C55.1,217.7 86.7,231.1 121,229.1 C126.2,228.8 131.4,228.1 136.4,227.2 C72.7,181.3 62.4,97.5 69.4,44.3 C63.3,46.1 57.1,48.4 51.1,51.2 M77.4,42 C70.9,94 82.2,178 146,224.8 C169,218.2 189,204.6 203.5,186.6 C194,157.3 160.1,122.8 132.6,96.6 C107.5,73.9 97.6,54.5 96.2,38.8 C90,39.5 83.7,40.5 77.4,42 M105.3,38.3 C107,52.3 116.9,70.2 141.1,92.1 C168.1,117.8 200.2,149.2 210.1,177.7 C223.1,157.9 230.2,133.8 228.7,108.3 C228.5,104.7 228.1,101.1 227.6,97.6 C196.4,59.8 153.6,38.3 109.4,38.3 C108,38.3 106.6,38.3 105.3,38.3 M9.8,68.7 C21,59.3 32.4,51.8 44,45.9 C44.6,39.1 44.1,31.6 40.2,27.9 C27.2,39 16.8,52.9 9.8,68.7 M46.6,22.8 C50.6,30.5 52.1,36.4 52.1,42 C58.3,39.3 64.5,37.1 70.8,35.3 C73,23 76.2,12.8 79.7,5.9 C67.7,9.7 56.5,15.5 46.6,22.8 M105.3,30 C148.5,28.7 190.3,47.6 223.3,79.7 C209.9,38.2 173.5,7.5 129.9,1.6 C118.5,6.1 107.1,15.5 105.3,30 M107.9,0.7 C101.2,1.1 94.8,2 88.5,3.5 C84.5,9.8 81,20.2 78.7,33.3 C84.6,32 90.5,31.1 96.4,30.5 C98,16.7 106.6,6.5 116.2,0.5 L114.7,0.5 C112.4,0.5 110.2,0.5 107.9,0.7" id="path-1"></path>
        <path d="M15.7,88.4 C15.6,89.3 15.3,90.1 14.9,90.9 C15.2,90.1 15.4,89.2 15.7,88.4 M10.3,130.5 C9.5,117.3 11.1,104.4 14.5,92.4 C26.6,80.8 39.3,71.6 52.3,64.6 L52.2,65.1 C48,81.1 37.4,94.5 31.3,109.4 C21.5,133.4 21.8,161.1 27.3,184.5 C17.6,168.6 11.4,150.3 10.3,130.5 M42.8,204 C30.8,180.3 28.5,143 36.6,118.2 C40.9,104.9 53.6,86.8 57.5,73.3 C58.9,68.3 60.2,64.1 61.1,60.2 C67.2,57.4 73.3,55.1 79.5,53.2 C72.5,106.4 82.8,190.3 146.5,236.1 C141.5,237.1 136.4,237.7 131.1,238 C128.9,238.1 126.7,238.2 124.5,238.2 C92.7,238.3 63.7,225.2 42.8,204 M87.4,51 C93.7,49.5 100,48.5 106.3,47.8 C107.7,63.4 117.6,82.8 142.7,105.6 C170.2,131.7 204.1,166.3 213.6,195.6 C199.1,213.6 179.1,227.2 156.1,233.8 C92.2,187 80.9,103 87.4,51 M151.1,101.1 C126.9,79.2 117,61.3 115.3,47.3 C160.9,45.9 205.4,67.6 237.5,106.6 C238,110.1 238.4,113.7 238.6,117.3 C240.1,142.8 233.1,166.9 220,186.7 C210.2,158.2 178.1,126.8 151.1,101.1 M50.2,36.9 C54.1,40.6 54.6,48.1 54,54.9 C42.4,60.7 31,68.3 19.8,77.7 C26.8,61.9 37.2,48 50.2,36.9 M56.6,31.8 C66.5,24.5 77.7,18.7 89.7,14.9 C86.2,21.9 83,32 80.8,44.3 C74.6,46.1 68.3,48.3 62.1,51 C62.1,45.4 60.6,39.5 56.6,31.8 M139.9,10.5 C183.5,16.4 219.9,47.1 233.3,88.6 C200.3,56.5 158.5,37.6 115.3,38.9 C117.1,24.5 128.5,15.1 139.9,10.5 M98.5,12.5 C104.8,11 111.2,10.1 117.9,9.7 C120.7,9.5 123.4,9.5 126.2,9.5 C116.6,15.5 108,25.7 106.4,39.5 C100.5,40 94.6,41 88.7,42.3 C91,29.2 94.5,18.8 98.5,12.5 M117.4,0.3 C49.1,4.2 -3,62.7 0.9,131 C4.8,199.2 63.3,251.4 131.6,247.4 C199.8,243.5 252,185 248,116.8 C244.2,51 189.6,0.1 124.5,0.1 C122.2,0.1 119.8,0.2 117.4,0.3" id="path-3"></path>
        <path d="M27.9,3.5 C20.1,7.9 9.3,19.2 9.3,19.2 C9.3,19.2 8.6,20.9 10.2,23.6 C11,25.1 11.8,26 12.3,26.8 C12.4,25.7 12.8,24.4 13.7,23.3 C21,13.9 33.8,3.8 50.7,4.5 C34,7.4 22.7,18.2 15.6,27.9 C14.5,29.1 13.7,29.3 13.1,28.9 C12.9,30.9 11.6,33.4 9.9,33.7 C8,34 0.7,40 0.7,40 L0.7,43.6 L1.4,54.8 C1.4,54.8 2.8,62.8 5.3,66 C7.9,69.3 15.3,80 27.1,81.2 C27.1,81.2 28,52.6 31.5,44.1 C35.1,35.6 39.9,25.7 47.5,21.6 C55.2,17.5 66.9,13.4 73,10.2 C79.1,7 81.9,3.4 81.9,3.4 C81.9,3.4 69.3,2.9 59.1,1.2 C54.7,0.5 49.8,-5.68434189e-14 45.1,-5.68434189e-14 C38.7,0 32.4,0.9 27.9,3.5" id="path-5"></path>
        <path d="M83.2,104.6 C90.3,98.9 97.4,93.7 104.6,88.9 L139.2,98.4 C138.6,98.9 138.1,99.5 137.5,100.1 C60.6,180.4 111.2,193.8 167.2,162.9 C168.4,162.3 159.3,170.8 159.3,170.8 C97,231.9 29.1,185.9 112,98 C103.1,100.5 85.3,104.6 83.3,104.6 C83.2,104.7 83.2,104.6 83.2,104.6 L83.2,104.6 Z M131.5,73.3 C183.1,47.3 231.2,46 251.8,66.1 L251.8,66.1 L251.8,66.1 C251.1,65.8 211.1,89.4 207,92.5 C226.8,53.8 191.2,62.6 161.5,81.2 L131.5,73.3 Z M363.1,115.6 C407.9,108.9 455.8,97.8 438.8,72.2 C435.6,69.2 433.9,68.4 431.3,64.9 C420.2,50 439.2,33 460.5,34.4 C462,34.5 465.8,35.1 465.7,35.2 L460.5,48.5 C456.2,41.7 442.3,40.1 440.5,48.3 C439.1,54.5 448.9,56.7 454.7,67.6 C462.5,82.3 454.4,97.2 440.2,104.5 C434.7,107.3 429.1,109.7 423.3,111.8 C418.6,113 413.7,114.4 407.5,116.1 C401.9,117.7 400.2,118.7 378.7,122.1 C342.2,127.6 303.7,129.3 271.6,144.4 C285.5,130 322.4,121.8 363.1,115.6 L363.1,115.6 Z M252.9,46.7 C208.8,27.5 155.3,42.6 113.2,67.4 L80.8,59.2 C51.4,51.6 25.5,45.2 1.42108547e-14,51 C19.5,68.4 45.3,75.3 74.7,82.9 L86.1,85.9 C74.8,94.8 65.2,104.1 57.9,113 L50.6,121.9 L77.1,117.7 C15.8,214.5 116.6,250.5 184.5,165.9 L254.9,147.4 C245.1,160.4 245.1,179.7 245.1,179.7 L249.3,176.4 C270.6,158.5 295.2,149.5 314.3,145.6 L359.5,157.4 L359.4,158.2 C357.8,183.1 369.3,200 395,204.1 C396.5,204.4 397.6,204.6 399.5,204.9 C399.1,199.5 399,195.5 399.3,190.1 C418.7,204 440.1,201.5 457.8,186.1 L459.1,189.3 C478.1,194 487.6,161.9 486.1,154.7 C486.1,154.5 475.9,153 464.6,156.9 L416.8,144.1 C425.6,137.5 454.8,130.3 455.2,114.8 L455.2,114.1 C470.9,101.6 476.4,84.1 471,60.1 L491.1,9.9 C491.1,9.9 439.1,22.4 430.7,24.4 L438.5,0.9 L252.9,46.7 Z" id="path-7"></path>
        <path d="M9,19.9 C11.2,21.3 12.6,24.6 12.4,28.4 C12.1,33.1 9.4,36.7 6.2,36.8 L6.3,37.1 L6.3,37.1 C6.7,44.1 9.1,50.9 12.6,54.5 C13.9,42.4 20.4,25.8 38.7,15.6 C20.5,31.4 16.9,54.2 18.2,69.8 C9.7,68.1 2.6,53.8 0.1,46.2 C2,59.1 10.1,74.5 22.4,75.4 C19.9,50.6 29.5,24.9 45.7,16.4 C52.4,12.9 61.7,10.5 72,3.9 C61,3 57.5,2 53.6,1.3 C50.6,0.8 47.6,0.5 44.6,0.5 C30.9,0.5 18.4,6.6 9,19.9" id="path-9"></path>
        <path d="M191.5,44.7 C150.3,26 99.5,39 58.5,62 L138,82 C137.7,83 137.3,84.1 136.8,84.9 L101.7,95.6 C100,96.3 98.5,97 97.2,97.7 L30.5,80.2 C18.3,89.5 8,99.2 0.3,108.7 L24.1,105.6 C-44,214.8 66.2,228.6 118.4,155.2 L205,133.5 C197.1,141.3 192.4,152.6 189.9,162.4 C215.5,140.3 249,133.4 269,131.9 C281.2,131 294.6,129.7 305,128.5 L307.9,124.8 C317.4,111.8 331.2,105.4 345.8,104 C357.2,102.9 361.2,104.6 365.9,105.4 C368.1,106 376.1,108.1 384.2,108.5 C405.2,96.3 411.4,78.5 405.3,52.8 L421.6,9.4 C421.5,9.5 380.5,19.4 363,23.6 L370.8,0.1 L191.5,44.7 Z" id="path-11"></path>
        <path d="M191.5,44.7 C150.3,26 99.5,39 58.5,62 L138,82 C137.7,83 137.3,84.1 136.8,84.9 L101.7,95.6 C100,96.3 98.5,97 97.2,97.7 L30.5,80.2 C18.3,89.5 8,99.2 0.3,108.7 L24.1,105.6 C-44,214.8 66.2,228.6 118.4,155.2 L205,133.5 C197.1,141.3 192.4,152.6 189.9,162.4 C215.5,140.3 249,133.4 269,131.9 C281.2,131 294.6,129.7 305,128.5 L307.9,124.8 C317.4,111.8 331.2,105.4 345.8,104 C357.2,102.9 361.2,104.6 365.9,105.4 C368.1,106 376.1,108.1 384.2,108.5 C405.2,96.3 411.4,78.5 405.3,52.8 L421.6,9.4 C421.5,9.5 380.5,19.4 363,23.6 L370.8,0.1 L191.5,44.7 Z" id="path-13"></path>
    </defs>
    <g id="NBA" stroke="none" stroke-width="1" fill="none" fill-rule="evenodd">
        <g id="cleveland-cavaliers">
            <g id="Logos" transform="translate(10.000000, 125.000000)">
                <g id="Group">
                    <path d="M150.8,138.3 C146.7,66.7 201.4,5.3 273,1.2 C344.6,-2.9 406,51.8 410.1,123.4 C414.2,195 359.5,256.4 287.9,260.5 C216.3,264.7 155,209.9 150.8,138.3" id="Shape" fill="#FFB819"></path>
                    <path d="M404,123.8 C407.9,192 355.8,250.5 287.6,254.5 C219.4,258.4 160.9,206.3 156.9,138.1 C153,69.9 205.1,11.3 273.3,7.4 C341.6,3.4 400.1,55.5 404,123.8" id="Shape" fill="#041E41"></path>
                    <path d="M295.9,17.5 C339.5,23.4 375.9,54.1 389.3,95.6 C356.3,63.5 314.5,44.6 271.3,45.9 C273.1,31.5 284.5,22.1 295.9,17.5 M254.5,19.5 C260.8,18 267.3,17.1 273.9,16.7 C276.7,16.5 279.5,16.5 282.2,16.5 C272.6,22.5 264,32.7 262.4,46.5 C256.5,47 250.6,48 244.7,49.3 C247,36.2 250.5,25.8 254.5,19.5 M212.6,38.8 C222.5,31.5 233.7,25.7 245.7,21.9 C242.2,28.9 239,39 236.8,51.3 C230.6,53.1 224.3,55.3 218.1,58 C218.1,52.4 216.6,46.5 212.6,38.8 M175.8,84.7 C182.8,69 193.2,55 206.2,43.9 C210.1,47.6 210.6,55.1 210,61.9 C198.4,67.7 187,75.3 175.8,84.7 M170.9,97.9 C171.2,97.1 171.4,96.2 171.7,95.4 C171.6,96.3 171.4,97.1 170.9,97.9 M183.4,191.4 C173.6,175.7 167.4,157.3 166.3,137.5 C165.5,124.3 167.1,111.4 170.5,99.4 C182.6,87.8 195.3,78.6 208.3,71.6 L208.2,72.1 C204,88.1 193.4,101.5 187.3,116.5 C177.6,140.3 177.9,168 183.4,191.4 M302.4,243.1 C297.4,244.1 292.3,244.7 287,245 C252.7,246.9 221.1,233.6 198.8,210.9 C186.8,187.2 184.5,149.9 192.6,125.1 C196.9,111.8 209.6,93.7 213.5,80.2 C214.9,75.3 216.2,71 217.1,67.1 C223.2,64.3 229.3,62 235.5,60.1 C228.4,113.4 238.7,197.2 302.4,243.1 M369.6,202.6 C355.1,220.6 335.1,234.2 312.1,240.8 C248.2,194 236.9,110 243.4,58 C249.7,56.5 256,55.5 262.3,54.8 C263.7,70.4 273.6,89.8 298.7,112.6 C326.2,138.8 360.1,173.3 369.6,202.6 M394.7,124.3 C396.2,149.8 389.2,173.9 376.1,193.7 C366.2,165.3 334.1,133.8 307.1,108.1 C282.9,86.2 273,68.3 271.3,54.3 C316.9,52.9 361.3,74.6 393.5,113.5 C394.1,117.1 394.4,120.7 394.7,124.3" id="Shape" fill="#860038"></path>
                    <path d="M465.6,205 L417.8,192.2 C426.6,185.6 455.8,178.4 456.2,162.9 L456.2,162.2 C471.9,149.7 477.4,132.2 472,108.2 L492.1,58 C492.1,58 440.1,70.5 431.7,72.5 L439.5,49 L253.8,94.7 C209.7,75.5 156.2,90.6 114.1,115.4 L81.7,107.2 C52.3,99.6 26.4,93.2 0.9,99 C20.4,116.4 46.2,123.3 75.6,130.9 L87,133.9 C75.7,142.8 66.1,152.1 58.8,161 L51.5,169.9 L78,165.7 C16.7,262.5 117.5,298.5 185.4,213.9 L255.8,195.4 C246,208.4 246,227.7 246,227.7 L250.2,224.4 C271.5,206.5 296.1,197.5 315.2,193.6 L360.4,205.4 L360.3,206.2 C358.7,231.1 370.2,248 395.9,252.1 C397.4,252.4 398.5,252.6 400.4,252.9 C400,247.5 399.9,243.5 400.2,238.1 C419.6,252 441,249.5 458.7,234.1 L460,237.3 C479,242 488.5,209.9 487,202.7 C487,202.7 476.9,201.2 465.6,205" id="Shape" fill="#FFB819"></path>
                    <g id="Clipped" transform="translate(166.000000, 16.000000)">
                        <mask id="mask-2" fill="white">
                            <use xlink:href="#path-1"></use>
                        </mask>
                        <g id="SVGID_1_"></g>
                        <path d="M299.6,189 L251.8,176.2 C260.6,169.6 289.8,162.4 290.2,146.9 L290.2,146.2 C305.9,133.7 311.4,116.2 306,92.2 L326.1,42 C326.1,42 274.1,54.5 265.7,56.5 L273.5,33 L87.8,78.7 C43.7,59.5 -9.8,74.6 -51.9,99.4 L-84.3,91.2 C-113.7,83.6 -139.6,77.2 -165.1,83 C-145.6,100.4 -119.8,107.3 -90.4,114.9 L-79,117.9 C-90.3,126.8 -99.9,136.1 -107.2,145 L-114.5,153.9 L-88,149.7 C-149.3,246.5 -48.5,282.5 19.4,197.9 L89.8,179.4 C80,192.4 80,211.7 80,211.7 L84.2,208.4 C105.5,190.5 130.1,181.5 149.2,177.6 L194.4,189.4 L194.3,190.2 C192.7,215.1 204.2,232 229.9,236.1 C231.4,236.4 232.5,236.6 234.4,236.9 C234,231.5 233.9,227.5 234.2,222.1 C253.6,236 275,233.5 292.7,218.1 L294,221.3 C313,226 322.5,193.9 321,186.7 C321,186.7 310.9,185.2 299.6,189" id="Shape" fill="#FFB819" mask="url(#mask-2)"></path>
                    </g>
                    <g id="Clipped" transform="translate(156.000000, 7.000000)">
                        <mask id="mask-4" fill="white">
                            <use xlink:href="#path-3"></use>
                        </mask>
                        <g id="SVGID_3_"></g>
                        <path d="M309.6,198 L261.8,185.2 C270.6,178.6 299.8,171.4 300.2,155.9 L300.2,155.2 C315.9,142.7 321.4,125.2 316,101.2 L336.1,51 C336.1,51 284.1,63.5 275.7,65.5 L283.5,42 L97.8,87.7 C53.7,68.5 0.2,83.6 -41.9,108.4 L-74.3,100.2 C-103.7,92.6 -129.6,86.2 -155.1,92 C-135.6,109.4 -109.8,116.3 -80.4,123.9 L-69,126.9 C-80.3,135.8 -89.9,145.1 -97.2,154 L-104.5,162.9 L-78,158.7 C-139.3,255.5 -38.5,291.5 29.4,206.9 L99.8,188.4 C90,201.4 90,220.7 90,220.7 L94.2,217.4 C115.5,199.5 140.1,190.5 159.2,186.6 L204.4,198.4 L204.3,199.2 C202.7,224.1 214.2,241 239.9,245.1 C241.4,245.4 242.5,245.6 244.4,245.9 C244,240.5 243.9,236.5 244.2,231.1 C263.6,245 285,242.5 302.7,227.1 L304,230.3 C323,235 332.5,202.9 331,195.7 C331,195.7 320.9,194.2 309.6,198" id="Shape" fill="#FFB819" mask="url(#mask-4)"></path>
                    </g>
                    <path d="M483.9,206.8 C473.4,204.9 466.4,209.3 466.2,209.3 C466,209.3 429.6,199.5 416.2,195.9 L409.1,194 C413.6,187.8 422.4,185.2 431.2,181.3 C435,179.6 440.2,177.6 444.1,174.9 C451.1,170 452.1,166.7 452.2,166.7 C439.4,167.1 427.2,163.6 425.1,163.2 C419.4,162 413.8,161.8 408.4,162.4 L407.8,162.5 C393.2,164.3 380.1,172 372.3,183.4 L371,185 C370,186.1 368.5,187.9 368.5,187.9 L372.8,189 C375.7,189.5 374.1,195.9 370.2,194.9 L351.4,190 C344.1,190.6 336.4,191.2 331.2,191.6 C328.5,191.8 325.6,192.1 322.4,192.6 L364,203.6 C361,230.8 375.6,247.5 396.2,249.2 C396.1,246.4 396.1,240.6 396.2,230.2 C396.2,230.2 425.8,262 459.8,227.8 L462.7,234.3 C477.9,235.7 484.5,206.9 483.9,206.8" id="Shape" fill="#041E41" fill-rule="nonzero"></path>
                    <g id="Clipped" transform="translate(366.000000, 165.000000)">
                        <mask id="mask-6" fill="white">
                            <use xlink:href="#path-5"></use>
                        </mask>
                        <g id="SVGID_5_"></g>
                        <path d="M56.6,3.3 C39.3,0.2 23.4,5.7 12,21.9 C14.2,23.3 15.6,26.6 15.4,30.4 C15.1,35.1 12.4,38.7 9.2,38.8 L9.3,39.1 L9.3,39.1 C9.7,46.1 12.1,52.9 15.6,56.5 C16.9,44.4 23.4,27.8 41.7,17.6 C23.5,33.4 19.9,56.2 21.2,71.8 C12.7,70.1 5.6,55.8 3.1,48.2 C5,61.1 13.1,76.5 25.4,77.4 C22.9,52.6 32.5,26.9 48.7,18.4 C55.4,14.9 64.7,12.6 75.1,5.9 C64,5 60.6,4 56.6,3.3" id="Shape" fill="#FFB819" fill-rule="nonzero" mask="url(#mask-6)"></path>
                    </g>
                    <path d="M483.7,64.5 C483.6,64.6 442.6,74.5 425,78.7 L432.8,55.2 L253.4,99.7 C212.2,81 161.4,94 120.4,117 L199.9,137 C199.6,138 199.2,139.1 198.7,139.9 L78.1,109.6 C53.6,103.3 31.4,97.3 10.3,101.4 C26.8,115.3 49.1,120.6 73.6,127 L163.8,150.7 C162.2,151.4 160.6,152.1 159.3,152.8 L92.6,135.3 C80.5,144.6 70.1,154.3 62.4,163.8 L86.2,160.7 C18.1,269.9 128.3,283.7 180.5,210.3 L267.1,188.6 C259.2,196.4 254.5,207.7 252,217.5 C277.6,195.4 311.1,188.5 331.1,187 C343.3,186.1 356.7,184.8 367.1,183.6 L370,179.9 C379.5,166.9 393.3,160.5 407.9,159.1 C419.3,158 423.3,159.7 428,160.5 C430.2,161.1 438.2,163.2 446.3,163.6 C467.3,151.4 473.5,133.6 467.4,107.9 L483.7,64.5 Z M180.8,145.3 L91.2,121.9 C65.6,114.8 59,109.1 57.3,107.6 L109.4,121 L194,142.7 C190.1,143.7 184.3,144.7 180.8,145.3 L180.8,145.3 Z" id="Shape" fill="#041E41" fill-rule="nonzero"></path>
                    <g id="Clipped" transform="translate(1.000000, 48.000000)">
                        <mask id="mask-8" fill="white">
                            <use xlink:href="#path-7"></use>
                        </mask>
                        <g id="SVGID_7_"></g>
                        <path d="M482.7,16.5 C482.6,16.6 441.6,26.5 424,30.7 L431.8,7.2 L252.4,51.7 C211.2,33 160.4,46 119.4,69 L198.9,89 C198.6,90 198.2,91.1 197.7,91.9 L77.1,61.6 C52.6,55.3 30.4,49.3 9.3,53.4 C25.8,67.3 48.1,72.6 72.6,79 L162.8,102.7 C161.2,103.4 159.6,104.1 158.3,104.8 L91.6,87.3 C79.5,96.6 69.1,106.3 61.4,115.8 L85.2,112.7 C17.1,221.9 127.3,235.7 179.5,162.3 L266.1,140.6 C258.2,148.4 253.5,159.7 251,169.5 C276.6,147.4 310.1,140.5 330.1,139 C342.3,138.1 355.7,136.8 366.1,135.6 L369,131.9 C378.5,118.9 392.3,112.5 406.9,111.1 C418.3,110 422.3,111.7 427,112.5 C429.2,113.1 437.2,115.2 445.3,115.6 C466.3,103.4 472.5,85.6 466.4,59.9 L482.7,16.5 Z M179.8,97.3 L90.2,73.9 C64.6,66.8 58,61.1 56.3,59.6 L108.4,73 L193,94.7 C189.1,95.7 183.3,96.7 179.8,97.3 L179.8,97.3 Z" id="Shape" fill="#041E41" fill-rule="nonzero" mask="url(#mask-8)"></path>
                    </g>
                    <g transform="translate(397.000000, 197.000000)" id="Shape" fill="#FFB819">
                        <path d="M71.2,15.9 C74.8,14.1 78.9,13.4 82.9,12.8 C77.3,14.9 74.6,18.1 74.2,18 C73,21.1 73,24.3 65.9,27.8 C68.2,24.3 71.4,20.3 71.2,15.9"></path>
                        <path d="M1.2,21.8 C8.8,38.5 30.9,42.4 44.2,39.5 C38.3,44.7 9.3,43.6 0.5,26.6 L1.2,21.8 Z"></path>
                        <path d="M9.3,0.6 L66.6,15.4 C68.5,15.9 67.7,21.1 65.2,20.5 L6.3,5.5 C6.7,4.1 8.8,0.9 9.3,0.6" fill-rule="nonzero"></path>
                        <path d="M58.1,25.9 C37.4,46.3 5,32.3 5.1,15.7 C5.6,15.7 26.3,30.9 58.1,25.9" fill-rule="nonzero"></path>
                    </g>
                    <g id="Clipped" transform="translate(369.000000, 167.000000)">
                        <mask id="mask-10" fill="white">
                            <use xlink:href="#path-9"></use>
                        </mask>
                        <g id="SVGID_9_"></g>
                        <path d="M10.7,21.3 C8.1,24.4 9.4,29.4 12.5,26 C19.6,16.2 30.9,5.5 47.6,2.6 C30.8,1.8 18,11.9 10.7,21.3" id="Shape" fill="#FFFFFF" fill-rule="nonzero" mask="url(#mask-10)"></path>
                    </g>
                    <g transform="translate(128.000000, 68.000000)" id="Shape" fill="#FFFFFF">
                        <path d="M187.6,25.8 L191.4,25 L191.8,34.7 L199.4,23.2 L204.5,21.8 L189.6,41.8 L187.6,25.8 Z M286,2.8 L285.4,2.7 L282.4,3.4 L276.8,17.6 L279.2,17 C279.3,17 279.7,16.8 280.4,16.5 L281.3,16.1 L286.5,3 L286,2.8 Z M278.9,18.9 L271.3,20.8 L278.4,2.6 L286.1,0.7 C287.4,0.4 288.6,0.4 289.8,0.5 C291,0.6 291.7,0.9 291.4,1.5 L286.2,14.9 C286,15.5 284.9,16.3 283.3,17.1 C281.7,17.9 280.2,18.6 278.9,18.9 L278.9,18.9 Z M139.3,53.8 C138.1,54.1 136.9,54.2 135.6,54.2 C133.9,54.2 133,53.9 133.3,53.1 L138.7,39.4 C138.9,38.8 140.1,38.1 141.6,37.3 C143.2,36.5 144.6,35.9 145.9,35.6 L153.5,33.7 L152.2,36.9 L147.5,38 L148,36.8 L146.7,37.1 C145.4,37.4 144.5,37.7 143.9,38 C143.4,38.2 143.2,38.4 143.2,38.5 L138,51.9 C138,51.9 138,52.1 138.8,52 C139.4,52 139.8,51.9 140,51.9 C140.6,51.7 141.2,51.5 141.8,51.2 C142.4,50.8 142.7,50.5 142.8,50.3 L142.5,49.7 L147.6,48.5 L147,50 C146.7,50.7 145.4,51.6 143.5,52.4 C142.1,52.9 140.6,53.5 139.3,53.8 L139.3,53.8 Z M158.9,32.7 L163.6,31.6 L157.3,47.7 L165,45.8 L164.2,47.8 L151.8,50.8 L158.9,32.7 Z M174.9,28.6 L185.6,26 L184.8,27.9 L178.8,29.4 L176.6,34.9 L182.6,33.4 L181.8,35.4 L175.8,36.9 L173.2,43.6 L179.2,42.1 L178.4,44.1 L167.7,46.7 L174.9,28.6 Z M208.3,20.4 L219,17.8 L218.2,19.8 L212.2,21.3 L210,26.8 L216,25.3 L215.2,27.3 L209.2,28.8 L206.6,35.5 L212.6,34 L211.8,36 L201.1,38.6 L208.3,20.4 Z M223.4,16.5 L228.1,15.4 L221.8,31.5 L229.5,29.6 L228.7,31.6 L216.3,34.6 L223.4,16.5 Z M244.4,21.2 L240,22.3 L237.3,29.1 L232.5,30.3 L238.8,14.4 C239.1,13.6 240.4,12.8 242.2,11.9 C243.8,11.2 245.3,10.6 246.8,10.2 C248.2,9.9 249.5,9.7 250.8,9.8 C252.2,9.9 252.9,10.2 252.7,10.9 L246.4,26.9 L241.7,28.1 L244.4,21.2 Z M247.8,12.3 L247.2,12.2 C246.6,12.2 246.1,12.2 246,12.3 C245.7,12.4 245.2,12.6 244.3,13 L243.6,13.4 L240.7,20.4 L245.1,19.3 L247.8,12.3 L247.8,12.3 Z M263.1,17.7 L261.2,10.6 L256.5,24.6 L251.8,25.8 L258.9,7.7 L263.6,6.5 L265.1,12.8 L268,5.4 L272.7,4.3 L265.6,22.4 L260.9,23.6 L263.1,17.7 Z"></path>
                        <path d="M89.5,76.7 L96.9,81.2 C93.1,92 76.6,114.9 67.2,121.9 L83.7,78.1 L71.1,81.5 L50.4,134.3 L77,127.5 C77.6,127.3 100.9,108.8 114.2,70.6 L89.5,76.7 Z" fill-rule="nonzero"></path>
                        <path d="M12.4,123 C12.3,123 2.7,142.7 0.8,146.7 L13.9,143.3 L22.8,124.9 L33.4,121.8 L26.1,140.3 L40.1,136.7 L61.6,83.4 C54.4,85.8 28.8,86.2 12.4,123 L12.4,123 Z M36.9,114.5 L26.5,117.5 C26.5,117.5 35.2,100.5 44.1,97.8 L36.9,114.5 Z" fill-rule="nonzero"></path>
                        <path d="M278.2,56.7 C277.5,55.7 276.9,53.5 276.9,53.4 C277.3,53.2 277.8,53 278.2,52.7 C286.7,47.8 296.1,33.3 295.8,23.4 C283.8,26.6 263.7,31.8 263.6,32 L244.4,84.9 L256.9,81.7 L265.2,59 C266.2,61.1 271.7,74.2 282.4,75.3 C294.8,76.6 302,64.3 302,64.3 C298.7,67.1 283.9,68.1 278.2,56.7 M268.1,51.7 L274.2,34.8 L283.7,32.3 C282.3,35.9 279.8,45.7 268.1,51.7" fill-rule="nonzero"></path>
                        <path d="M107.3,99 C107.1,99 97.7,118.3 95.8,122.4 L109.1,119 L117.7,100.9 L128.3,97.8 L121,116.1 L134.9,112.6 L156.5,59.6 C150.1,61.2 123.7,62.2 107.3,99 L107.3,99 Z M131.9,90.4 L121.5,93.4 C121.5,93.4 130.2,76.4 139.1,73.8 L131.9,90.4 Z" fill-rule="nonzero"></path>
                        <polygon fill-rule="nonzero" points="204.4 46.7 183.7 99.8 196.8 96.5 217.5 43.4"></polygon>
                        <path d="M218.5,84.7 L225.1,69.2 L243.2,59.4 L228.7,60.5 L235,43.6 C242.9,41.1 246.9,43.5 250.3,48.5 L256.3,33.6 L224.4,41.7 L203.9,94.7 L236.4,86.2 L243.4,69.8 C236.2,77.9 228.1,83.1 218.5,84.7" fill-rule="nonzero"></path>
                        <path d="M160.1,99.6 L177.4,53.6 L163.6,57.1 L143.2,110.2 L178.2,101.2 L185.9,82.4 C176.6,93.5 171.7,97.7 160.1,99.6" fill-rule="nonzero"></path>
                    </g>
                    <g transform="translate(62.000000, 55.000000)" id="Clipped">
                        <g>
                            <mask id="mask-12" fill="white">
                                <use xlink:href="#path-11"></use>
                            </mask>
                            <g id="SVGID_11_"></g>
                            <path d="M404.7,28.3 L399.5,41.6 C395.2,34.8 381.3,33.2 379.5,41.4 C378.1,47.6 387.9,49.8 393.7,60.7 C401.5,75.4 393.4,90.3 379.2,97.6 C373.7,100.4 368.1,102.8 362.3,104.9 C357.6,106.1 352.7,107.5 346.5,109.2 C340.9,110.8 339.2,111.8 317.7,115.2 C281.2,120.7 242.7,122.4 210.6,137.5 C224.6,123.2 261.4,115 302.1,108.7 C346.9,102 394.8,90.9 377.8,65.3 C374.6,62.3 372.9,61.5 370.3,58 C359.2,43.1 378.2,26.1 399.5,27.5 C400.9,27.5 404.8,28.1 404.7,28.3" id="Shape" fill="#FFFFFF" fill-rule="nonzero" mask="url(#mask-12)"></path>
                        </g>
                        <g>
                            <mask id="mask-14" fill="white">
                                <use xlink:href="#path-13"></use>
                            </mask>
                            <g id="SVGID_11_"></g>
                            <path d="M190.8,59.1 C190.6,58.4 150.1,82.4 146,85.5 C171.9,34.9 102.9,65.6 76.5,93.1 C-0.4,173.4 50.2,186.8 106.2,155.9 C107.4,155.3 98.3,163.8 98.3,163.8 C36,224.9 -31.9,178.9 51,91 C41.6,93.7 22.2,98.1 22.1,97.6 C89.7,43.1 163.8,32.7 190.8,59.1" id="Shape" fill="#FFFFFF" fill-rule="nonzero" mask="url(#mask-14)"></path>
                        </g>
                    </g>
                </g>
            </g>
        </g>
    </g>
</svg>