<?xml version="1.0" encoding="UTF-8"?>
<svg width="475px" height="454px" viewBox="0 0 475 454" version="1.1" xmlns="http://www.w3.org/2000/svg" xmlns:xlink="http://www.w3.org/1999/xlink">
    <!-- Generator: Sketch 41.2 (35397) - http://www.bohemiancoding.com/sketch -->
    <title>EST</title>
    <desc>Created with Sketch.</desc>
    <defs>
        <polygon id="path-1" points="0 453 474.89 453 474.89 0.574 0 0.574"></polygon>
    </defs>
    <g id="Page-1" stroke="none" stroke-width="1" fill="none" fill-rule="evenodd">
        <g id="EST">
            <g id="Page-1">
                <path d="M50.934,213.1004 C46.95,216.2524 46.25,222.0224 49.37,225.9644 C55.878,234.1864 68.568,235.7604 82.004,237.4284 C86.582,237.9944 91.204,238.5764 95.696,239.4124 L56.742,211.1104 C54.69,211.0964 52.636,211.7544 50.934,213.1004" id="Fill-1" fill="#006BB6"></path>
                <path d="M144.5792,416.166 C146.3472,420.928 151.6172,423.378 156.3312,421.63 C166.1612,417.982 171.5792,406.398 177.3172,394.134 C179.2952,389.906 181.2972,385.64 183.5112,381.584 L144.5212,409.914 C143.8352,411.89 143.8092,414.092 144.5792,416.166" id="Fill-3" fill="#006BB6"></path>
                <path d="M129.2578,341.9668 C126.0918,345.3268 122.6618,348.5508 119.2598,351.7388 C109.3818,360.9988 100.0518,369.7428 99.6338,380.2208 C99.4338,385.2448 103.3978,389.4948 108.4738,389.6968 C110.6418,389.7828 112.6878,389.1048 114.3378,387.8868 L129.2578,341.9668 Z" id="Fill-5" fill="#006BB6"></path>
                <path d="M141.4688,304.3854 L149.8068,278.7274 L127.8788,262.7954 C130.2068,271.5614 127.7808,281.2154 121.0808,287.9154 C130.5168,289.3854 138.2208,295.8374 141.4688,304.3854" id="Fill-7" fill="#006BB6"></path>
                <path d="M191.6566,149.9228 C184.0386,154.8448 174.1066,155.5208 165.6646,151.2208 C167.1826,160.6488 163.4266,169.9688 156.3026,175.7008 L183.2806,175.7008 L191.6566,149.9228 Z" id="Fill-9" fill="#006BB6"></path>
                <path d="M68.5028,175.7 L116.7868,175.7 C112.6128,173.728 108.4868,171.462 104.4028,169.212 C92.5448,162.678 81.3448,156.508 71.2508,159.348 C66.4108,160.71 63.5928,165.792 64.9688,170.682 C65.5568,172.77 66.8348,174.508 68.5028,175.7" id="Fill-11" fill="#006BB6"></path>
                <path d="M318.5882,175.7 C311.4622,169.97 307.7082,160.65 309.2242,151.222 C300.7822,155.522 290.8522,154.846 283.2342,149.924 L291.6102,175.7 L318.5882,175.7 Z" id="Fill-13" fill="#006BB6"></path>
                <path d="M409.9204,170.683 C411.2964,165.793 408.4804,160.709 403.6384,159.347 C393.5464,156.507 382.3464,162.679 370.4884,169.211 C366.4044,171.461 362.2764,173.729 358.1044,175.701 L406.3864,175.701 C408.0564,174.507 409.3324,172.771 409.9204,170.683" id="Fill-15" fill="#006BB6"></path>
                <path d="M203.9494,112.0896 L218.8294,66.2956 C218.2074,64.3396 216.9474,62.5896 215.1414,61.3876 C210.9134,58.5736 205.2094,59.6896 202.4234,63.8756 C196.6154,72.6056 199.0394,85.1616 201.6074,98.4536 C202.4814,102.9836 203.3574,107.5596 203.9494,112.0896" id="Fill-17" fill="#006BB6"></path>
                <path d="M273.2834,98.454 C275.8494,85.162 278.2754,72.606 272.4654,63.876 C269.6814,59.69 263.9774,58.574 259.7474,61.388 C257.9414,62.59 256.6814,64.34 256.0614,66.296 L270.9414,112.09 C271.5334,107.558 272.4094,102.984 273.2834,98.454" id="Fill-19" fill="#006BB6"></path>
                <path d="M346.9366,262.8492 L325.0846,278.7252 L333.4606,304.5072 C336.7086,295.9992 344.3746,289.5732 353.7686,288.0832 C347.0166,281.3672 344.5726,271.6552 346.9366,262.8492" id="Fill-21" fill="#006BB6"></path>
                <path d="M418.07,211.168 L379.034,239.53 C383.534,238.684 388.166,238.096 392.756,237.52 C406.19,235.836 418.878,234.244 425.374,226.014 C428.49,222.068 427.78,216.298 423.794,213.152 C422.114,211.826 420.092,211.17 418.07,211.168" id="Fill-23" fill="#006BB6"></path>
                <path d="M237.4452,28.142 L187.5792,181.616 L26.2072,181.616 L146.1072,268.728 C146.1052,268.724 146.1052,268.722 146.1032,268.72 L156.7712,276.47 L154.8232,282.442 C154.8212,282.442 154.8192,282.44 154.8192,282.44 L153.7012,285.882 L152.4872,289.598 L152.4912,289.602 L106.8932,429.94 L221.4992,346.674 C221.4972,346.668 221.4952,346.662 221.4932,346.654 L237.4332,335.06 L265.0172,355.138 L265.0272,355.128 L367.9972,429.94 L320.9492,285.142 L318.1752,276.494 L328.7852,268.724 C328.7852,268.726 328.7852,268.726 328.7832,268.726 L448.6832,181.616 L287.3112,181.616 L237.4452,28.142 Z" id="Fill-25" fill="#006BB6"></path>
                <path d="M366.543,389.8422 C371.619,389.6322 375.577,385.3782 375.371,380.3542 C374.939,369.8782 365.597,361.1442 355.707,351.9002 C352.297,348.7122 348.857,345.4882 345.685,342.1282 L360.579,387.9662 C362.247,389.2302 364.333,389.9342 366.543,389.8422" id="Fill-27" fill="#006BB6"></path>
                <g id="Group-31" transform="translate(0.000000, 0.426000)">
                    <mask id="mask-2" fill="white">
                        <use xlink:href="#path-1"></use>
                    </mask>
                    <g id="Clip-30"></g>
                    <path d="M423.9992,206.434 C425.8712,206.976 427.6732,207.882 429.2952,209.164 C432.6612,211.82 434.6332,215.59 435.0972,219.528 C435.5552,223.42 434.5392,227.476 431.9352,230.774 C423.1352,241.922 407.2872,243.968 391.9612,245.946 C378.2232,247.72 365.2472,249.394 358.8592,257.486 C355.8292,261.328 354.4772,266.124 355.0532,271.004 C355.0552,271.032 355.0592,271.062 355.0632,271.09 C355.6652,276.004 358.1452,280.406 362.0492,283.488 C365.9532,286.57 370.8112,287.96 375.7292,287.404 C378.1692,287.128 380.4772,286.388 382.5552,285.24 C382.5992,285.214 382.6472,285.188 382.6932,285.162 C383.1012,284.932 383.4952,284.682 383.8852,284.42 C386.9992,281.892 385.8592,278.73 384.6452,274.51 C383.2072,269.506 381.2932,262.56 390.4612,255.188 C391.7332,256.086 392.7792,257.136 393.7072,258.244 C393.7252,258.23 393.7412,258.216 393.7592,258.202 C393.9672,258.442 394.1232,258.72 394.3172,258.968 C394.4712,259.176 394.6272,259.38 394.7712,259.592 C395.0392,259.968 395.3492,260.316 395.5872,260.712 C396.9052,262.608 398.0172,266.128 398.0212,268.338 L398.0212,268.348 C398.0672,268.926 398.0892,269.504 398.0772,270.08 C397.9752,275.75 396.0652,281.1 392.5532,285.548 C388.5212,290.658 382.8152,293.956 376.4032,294.98 C381.0092,299.574 383.7012,305.602 383.9712,312.116 C384.2052,317.78 382.6112,323.232 379.3672,327.882 C379.0412,328.356 378.6832,328.812 378.3072,329.254 L378.3012,329.262 C377.0012,331.048 374.0352,333.246 371.8552,334.008 C371.4312,334.19 370.9772,334.29 370.5392,334.436 C370.2972,334.524 370.0512,334.598 369.8032,334.676 C369.5012,334.762 369.2112,334.896 368.9032,334.968 C368.8972,334.946 368.8932,334.924 368.8852,334.904 C367.4832,335.256 366.0212,335.494 364.4632,335.474 C361.3652,324.126 366.9892,319.624 371.0912,316.414 C374.5492,313.708 377.3272,311.82 376.2892,307.944 C376.1272,307.504 375.9552,307.07 375.7592,306.644 C375.7392,306.596 375.7132,306.546 375.6952,306.498 C374.6832,304.35 373.2492,302.396 371.4352,300.742 C367.7792,297.408 363.0292,295.682 358.0592,295.888 C353.0912,296.092 348.4992,298.202 345.1292,301.828 C345.1092,301.85 345.0892,301.87 345.0692,301.892 C341.7412,305.506 340.0212,310.184 340.2212,315.072 C340.6472,325.372 350.1712,334.342 360.2552,343.838 C371.5072,354.432 383.1412,365.386 383.7252,379.578 C383.8992,383.776 382.3432,387.656 379.6872,390.54 C377.0012,393.456 373.1932,395.352 368.9092,395.53 C366.7832,395.616 364.7392,395.266 362.8612,394.568 L363.9232,397.836 L379.2492,445 L379.2472,445 L379.2472,445 L336.3612,413.84 C336.4232,415.788 336.1192,417.78 335.4012,419.72 C333.9152,423.742 330.9372,426.782 327.3352,428.44 C323.7752,430.078 319.6052,430.366 315.6652,428.908 C302.3412,423.984 295.4992,409.544 288.8812,395.578 C282.9512,383.062 277.3472,371.238 267.6772,367.664 C263.0872,365.968 258.1092,366.166 253.6452,368.22 C253.6192,368.232 253.5912,368.244 253.5652,368.256 C249.0792,370.348 245.6592,374.068 243.9352,378.732 C242.2092,383.398 242.3892,388.448 244.4372,392.954 C245.4532,395.188 246.8712,397.154 248.6032,398.778 C248.6412,398.81 248.6832,398.848 248.7212,398.884 C249.0652,399.2 249.4272,399.498 249.7952,399.788 C253.1632,401.968 255.8152,399.906 259.4552,397.448 C263.7712,394.534 269.7852,390.568 279.6292,397.008 C279.1692,398.496 278.4912,399.814 277.7252,401.04 C277.7432,401.054 277.7632,401.064 277.7812,401.078 C277.6192,401.348 277.4012,401.582 277.2252,401.844 C277.0752,402.056 276.9292,402.266 276.7712,402.468 C276.4972,402.84 276.2632,403.242 275.9592,403.59 C274.5632,405.43 271.5592,407.576 269.4592,408.262 L269.4492,408.266 C268.9132,408.488 268.3692,408.688 267.8192,408.852 C262.3952,410.508 256.7172,410.346 251.4012,408.38 C245.2952,406.124 240.3952,401.716 237.4412,395.936 C234.4952,401.736 229.5932,406.16 223.4812,408.428 C218.1672,410.4 212.4892,410.57 207.0632,408.922 C206.5132,408.758 205.9692,408.558 205.4332,408.338 L205.4232,408.334 C203.3232,407.65 200.3152,405.508 198.9172,403.67 C198.6132,403.322 198.3772,402.922 198.1032,402.55 C197.9452,402.348 197.7972,402.136 197.6492,401.926 C197.4712,401.664 197.2552,401.43 197.0912,401.16 C197.1092,401.148 197.1292,401.136 197.1472,401.122 C196.3792,399.898 195.7012,398.58 195.2392,397.092 C205.0732,390.638 211.0932,394.598 215.4132,397.506 C219.0552,399.96 221.7112,402.018 225.0752,399.834 C225.4432,399.544 225.8032,399.244 226.1472,398.928 C226.1872,398.892 226.2272,398.854 226.2672,398.82 C227.9972,397.194 229.4112,395.228 230.4252,392.992 C232.4672,388.484 232.6392,383.432 230.9092,378.77 C229.1772,374.108 225.7532,370.392 221.2632,368.308 C221.2372,368.296 221.2092,368.282 221.1832,368.27 C216.7172,366.222 211.7372,366.032 207.1512,367.732 C197.4852,371.32 191.8972,383.152 185.9832,395.676 C179.3852,409.65 172.5612,424.1 159.2452,429.042 C155.3072,430.504 151.1352,430.222 147.5732,428.588 C143.9692,426.936 140.9872,423.898 139.4972,419.88 C138.7552,417.884 138.4592,415.832 138.5432,413.83 L135.7632,415.85 L95.6412,445 L112.0632,394.458 C110.2152,395.134 108.2052,395.47 106.1152,395.388 C101.8312,395.216 98.0212,393.324 95.3312,390.412 C92.6712,387.532 91.1112,383.654 91.2772,379.456 C91.8432,365.264 103.4632,354.294 114.7012,343.684 C124.7712,334.176 134.2852,325.194 134.6972,314.892 C134.8912,310.002 133.1632,305.328 129.8312,301.718 C129.8112,301.698 129.7912,301.676 129.7712,301.654 C126.3972,298.034 121.8032,295.93 116.8332,295.73 C111.8632,295.532 107.1152,297.264 103.4632,300.604 C101.6512,302.26 100.2212,304.216 99.2112,306.366 C99.1932,306.412 99.1692,306.462 99.1472,306.51 C98.9532,306.936 98.7812,307.372 98.6192,307.812 C97.5852,311.688 100.3672,313.574 103.8292,316.276 C107.9332,319.48 113.5652,323.974 110.4812,335.326 C108.9292,335.348 107.4412,335.168 106.0412,334.82 L106.0412,334.826 C105.0312,334.594 104.0412,334.276 103.0872,333.87 C100.9072,333.112 97.9372,330.916 96.6352,329.132 L96.6292,329.124 C96.2532,328.682 95.8932,328.228 95.5672,327.754 C92.3172,323.108 90.7172,317.658 90.9432,311.994 C91.2032,305.49 93.8792,299.468 98.4652,294.87 C92.0392,293.862 86.3172,290.568 82.2712,285.456 C78.7532,281.012 76.8372,275.664 76.7272,269.994 C76.7132,269.42 76.7352,268.84 76.7792,268.262 L76.7792,268.252 C76.7812,266.044 77.8872,262.52 79.2052,260.624 C79.7352,259.734 80.3492,258.894 81.0272,258.112 C81.0292,258.112 81.0312,258.114 81.0332,258.116 C81.9592,257.01 83.0552,255.988 84.3232,255.092 C93.5012,262.452 91.5952,269.4 90.1632,274.406 C88.9552,278.63 87.8192,281.792 90.9372,284.316 C91.3252,284.576 91.7212,284.826 92.1272,285.054 C92.1732,285.082 92.2252,285.108 92.2692,285.136 C94.3492,286.278 96.6572,287.016 99.0972,287.288 C104.0152,287.838 108.8732,286.44 112.7732,283.354 C116.6712,280.268 119.1472,275.862 119.7412,270.948 C119.7452,270.92 119.7492,270.89 119.7512,270.862 C120.3192,265.98 118.9632,261.186 115.9272,257.348 C109.5292,249.264 96.5492,247.608 82.8112,245.852 C67.4812,243.894 51.6292,241.87 42.8152,230.734 C40.2072,227.44 39.1872,223.386 39.6392,219.492 C40.0992,215.554 42.0652,211.78 45.4272,209.12 C47.0692,207.818 48.8972,206.906 50.7952,206.364 L8.0032,175.274 L8.0032,175.274 L8.0032,175.274 L61.1452,175.274 C59.9312,173.724 58.9892,171.918 58.4232,169.904 C57.2632,165.778 57.8852,161.568 59.8232,158.11 C61.7412,154.69 64.9472,152.008 68.9912,150.87 C82.6632,147.022 96.6872,154.684 110.2492,162.092 C122.4052,168.732 133.8872,175.004 143.8112,172.212 C148.5212,170.886 152.4332,167.798 154.8372,163.514 C154.8512,163.488 154.8652,163.462 154.8792,163.438 C157.2812,159.11 157.8612,154.09 156.5152,149.302 C155.1672,144.514 152.0532,140.532 147.7472,138.092 C145.6132,136.882 143.3112,136.124 140.9552,135.83 C140.9052,135.824 140.8492,135.818 140.7972,135.812 C140.3332,135.758 139.8652,135.73 139.3972,135.712 C135.3912,135.928 134.4552,139.154 132.9572,143.282 C131.1772,148.176 128.6452,154.922 116.8952,155.496 C116.3952,154.026 116.1052,152.556 116.0032,151.118 L115.9972,151.118 C115.9072,150.086 115.9032,149.046 115.9952,148.014 C116.0412,145.706 117.2132,142.204 118.5072,140.414 L118.5132,140.406 C118.8152,139.912 119.1372,139.43 119.4872,138.972 C122.9012,134.446 127.5912,131.24 133.0472,129.704 C139.3132,127.942 145.8672,128.626 151.6572,131.566 C150.6292,125.144 151.9952,118.684 155.6072,113.256 C158.7452,108.536 163.2392,105.062 168.5972,103.206 C169.1392,103.014 169.6972,102.856 170.2612,102.72 L170.2712,102.716 C172.3732,102.036 176.0652,102 178.2752,102.666 C179.2872,102.896 180.2752,103.22 181.2272,103.624 C181.2272,103.626 181.2272,103.628 181.2252,103.63 C182.5632,104.168 183.8732,104.896 185.1172,105.824 C180.9532,116.828 173.7572,117.162 168.5532,117.348 C164.1652,117.504 160.8052,117.4 159.3672,121.146 C159.2412,121.596 159.1252,122.048 159.0332,122.506 C159.0232,122.558 159.0112,122.614 159.0012,122.666 C158.5572,124.998 158.5692,127.42 159.0632,129.824 C160.0592,134.672 162.8892,138.86 167.0312,141.614 C171.1712,144.37 176.1272,145.362 180.9832,144.41 C181.0112,144.404 181.0412,144.398 181.0692,144.392 C185.8852,143.424 190.0272,140.652 192.7372,136.58 C198.4492,127.996 196.0152,115.14 193.4392,101.53 C190.5632,86.346 187.5892,70.646 195.4572,58.822 C197.7852,55.324 201.3252,53.1 205.1672,52.328 C209.0552,51.546 213.2512,52.25 216.8212,54.626 C218.5652,55.786 219.9972,57.242 221.0992,58.88 L237.4452,8.574 L253.7912,58.88 C254.8932,57.242 256.3232,55.786 258.0692,54.626 C261.6392,52.25 265.8352,51.546 269.7212,52.328 C273.5652,53.1 277.1052,55.324 279.4312,58.822 C287.2992,70.646 284.3272,86.346 281.4512,101.53 C278.8752,115.14 276.4412,127.996 282.1512,136.58 C284.8632,140.652 289.0032,143.424 293.8212,144.392 C293.8492,144.398 293.8772,144.404 293.9072,144.41 C298.7632,145.362 303.7192,144.37 307.8592,141.614 C311.9992,138.86 314.8292,134.672 315.8272,129.824 C316.3212,127.42 316.3332,124.996 315.8892,122.664 C315.8772,122.614 315.8672,122.56 315.8572,122.508 C315.7652,122.05 315.6492,121.596 315.5212,121.146 C314.0832,117.4 310.7252,117.504 306.3352,117.348 C301.1332,117.162 293.9352,116.828 289.7712,105.824 C291.0172,104.896 292.3272,104.168 293.6632,103.63 C293.6632,103.628 293.6632,103.626 293.6612,103.624 C294.6152,103.22 295.6032,102.896 296.6132,102.666 C298.8252,102 302.5172,102.036 304.6192,102.716 L304.6292,102.72 C305.1912,102.856 305.7492,103.014 306.2912,103.206 C311.6512,105.062 316.1432,108.536 319.2832,113.256 C322.8952,118.684 324.2592,125.144 323.2332,131.566 C329.0212,128.626 335.5772,127.942 341.8432,129.704 C347.2992,131.24 351.9872,134.446 355.4032,138.972 C355.7512,139.43 356.0732,139.912 356.3772,140.406 L356.3832,140.414 C357.6772,142.204 358.8492,145.706 358.8952,148.014 C358.9872,149.046 358.9832,150.086 358.8912,151.118 L358.8852,151.118 C358.7852,152.556 358.4952,154.026 357.9952,155.496 C346.2452,154.922 343.7112,148.176 341.9332,143.282 C340.4332,139.154 339.4992,135.928 335.4932,135.712 C335.0252,135.73 334.5572,135.758 334.0912,135.812 C334.0412,135.818 333.9852,135.824 333.9352,135.83 C331.5792,136.124 329.2772,136.882 327.1412,138.092 C322.8352,140.532 319.7232,144.514 318.3752,149.302 C317.0292,154.09 317.6092,159.11 320.0112,163.438 C320.0252,163.462 320.0392,163.488 320.0532,163.514 C322.4572,167.798 326.3692,170.886 331.0772,172.212 C341.0032,175.004 352.4852,168.732 364.6412,162.092 C378.2032,154.684 392.2272,147.022 405.8992,150.87 C409.9432,152.008 413.1492,154.69 415.0672,158.11 C417.0052,161.568 417.6272,165.778 416.4652,169.904 C415.8992,171.918 414.9592,173.724 413.7432,175.274 L466.8872,175.274 L466.8872,175.274 L466.8872,175.274 L423.9992,206.434 Z M466.8952,167.274 L466.8852,167.274 L424.9992,167.274 C425.3132,162.754 424.3072,158.238 422.0412,154.196 C418.9952,148.764 414.0312,144.848 408.0632,143.168 C404.9352,142.288 401.6492,141.842 398.2972,141.842 C387.2572,141.84 376.8872,146.49 366.8612,151.796 C366.9852,150.378 366.9912,148.952 366.8832,147.554 C366.7312,143.8 365.1572,139.05 363.0532,135.994 C362.6252,135.312 362.2012,134.696 361.7592,134.118 C357.3092,128.218 351.1592,124.016 344.0072,122.004 C341.0352,121.168 337.9732,120.742 334.9072,120.742 C333.5832,120.742 332.2592,120.824 330.9392,120.984 C330.0992,116.674 328.4172,112.544 325.9412,108.824 C321.8252,102.638 315.9352,98.08 308.9092,95.646 C308.2612,95.418 307.5492,95.204 306.7692,95.008 C304.5112,94.332 302.1372,94.186 300.5132,94.186 C298.9892,94.186 296.7512,94.316 294.5892,94.922 C293.2232,95.25 291.8692,95.694 290.5592,96.25 C293.0352,82.074 294.4212,66.908 286.0892,54.39 C282.6552,49.228 277.4012,45.71 271.2952,44.484 C269.7712,44.178 268.2112,44.022 266.6572,44.022 C263.6412,44.022 260.6832,44.598 257.9192,45.708 L245.0512,6.102 C243.9812,2.806 240.9092,0.574 237.4432,0.574 C233.9772,0.574 230.9052,2.806 229.8352,6.102 L216.9652,45.708 C214.2012,44.598 211.2452,44.022 208.2292,44.022 C206.6752,44.022 205.1132,44.178 203.5892,44.484 C197.4832,45.71 192.2292,49.228 188.7952,54.39 C180.4652,66.908 181.8492,82.076 184.3272,96.25 C183.0172,95.694 181.6612,95.25 180.2972,94.922 C178.1332,94.316 175.8972,94.186 174.3732,94.186 C172.7472,94.186 170.3752,94.332 168.1172,95.008 C167.3372,95.204 166.6212,95.42 165.9332,95.662 C158.9492,98.08 153.0592,102.638 148.9432,108.824 C146.4672,112.544 144.7852,116.674 143.9452,120.984 C142.6272,120.824 141.3012,120.742 139.9772,120.742 C136.9132,120.742 133.8512,121.166 130.8772,122.004 C123.7252,124.016 117.5772,128.218 113.0972,134.154 C112.6812,134.7 112.2572,135.314 111.8292,135.998 C109.7272,139.054 108.1552,143.802 108.0032,147.554 C107.8932,148.952 107.8992,150.378 108.0252,151.796 C97.9972,146.49 87.6272,141.842 76.5892,141.842 C73.2372,141.842 69.9512,142.288 66.8212,143.168 C60.8552,144.848 55.8912,148.764 52.8432,154.196 C50.5772,158.238 49.5732,162.754 49.8852,167.274 L8.0012,167.274 C4.5352,167.274 1.4632,169.506 0.3912,172.802 C-0.6788,176.098 0.4952,179.71 3.2972,181.746 L36.9852,206.222 C34.0712,209.702 32.2272,213.956 31.6912,218.568 C30.9712,224.754 32.6932,230.838 36.5412,235.698 C45.8732,247.49 60.7252,250.86 74.9712,252.884 C74.0372,253.96 73.1952,255.11 72.4632,256.308 C70.3832,259.436 68.8712,264.204 68.7812,267.91 C68.7272,268.714 68.7092,269.462 68.7272,270.192 C68.8692,277.586 71.3832,284.596 75.9952,290.422 C78.7692,293.926 82.1792,296.802 86.0172,298.932 C84.1792,302.906 83.1252,307.224 82.9472,311.676 C82.6512,319.098 84.7472,326.244 89.0092,332.34 C89.3992,332.906 89.8532,333.498 90.3712,334.116 C92.6272,337.058 96.6552,340.022 100.1772,341.326 C101.4752,341.862 102.8332,342.296 104.2232,342.618 C93.9012,352.642 83.8812,364.112 83.2812,379.138 C83.0352,385.332 85.2252,391.262 89.4512,395.838 C92.5952,399.242 96.5792,401.594 100.9752,402.692 L88.0312,442.528 C86.9612,445.824 88.1332,449.434 90.9372,451.472 C92.3392,452.49 93.9892,453 95.6392,453 C97.2892,453 98.9392,452.49 100.3412,451.472 L134.0932,426.95 C136.5032,430.826 139.9932,433.914 144.2352,435.86 C147.2772,437.254 150.6412,437.992 153.9672,437.992 C156.7232,437.992 159.4332,437.504 162.0272,436.542 C176.1252,431.31 183.9192,418.226 190.2452,405.304 C190.5812,405.858 190.9112,406.282 191.0892,406.51 L191.0892,406.51 C191.0892,406.51 191.0512,406.456 191.0152,406.4 C191.0492,406.452 191.0852,406.502 191.1212,406.554 L191.1872,406.646 C191.3512,406.878 191.5152,407.108 191.6872,407.334 L191.7812,407.472 C191.9892,407.776 192.2892,408.216 192.6992,408.708 C195.0252,411.666 199.1132,414.598 202.6272,415.834 C203.3752,416.134 204.0812,416.382 204.7812,416.59 C207.9432,417.55 211.2452,418.044 214.5532,418.044 C218.5392,418.044 222.4812,417.332 226.2632,415.928 C230.4532,414.372 234.2432,412.02 237.4552,409.026 C240.6652,412.002 244.4472,414.34 248.6252,415.884 C252.3952,417.278 256.3212,417.984 260.2932,417.984 C263.6172,417.984 266.9332,417.486 270.1512,416.504 C270.8112,416.308 271.5152,416.06 272.2612,415.758 C275.7732,414.518 279.8572,411.58 282.1812,408.62 C282.5872,408.128 282.8872,407.688 283.0952,407.382 L283.1932,407.238 C283.3612,407.016 283.5232,406.79 283.6852,406.562 L283.7532,406.466 C283.7592,406.458 283.7632,406.45 283.7692,406.442 C283.9932,406.154 284.3072,405.742 284.6272,405.212 C290.9712,418.126 298.7832,431.2 312.8892,436.412 C315.4732,437.368 318.1752,437.852 320.9192,437.852 C324.2552,437.852 327.6292,437.11 330.6792,435.706 C334.8732,433.776 338.3312,430.728 340.7332,426.906 L374.5432,451.472 C375.9452,452.49 377.5952,453 379.2452,453 C380.8952,453 382.5452,452.49 383.9472,451.472 C386.7512,449.434 387.9252,445.824 386.8552,442.528 L373.9632,402.852 C378.3932,401.756 382.4092,399.392 385.5692,395.958 C389.7892,391.376 391.9732,385.442 391.7172,379.248 C391.0972,364.224 381.0632,352.768 370.7272,342.758 C371.3592,342.61 371.8632,342.428 372.1352,342.328 L372.1372,342.328 C372.1332,342.328 372.0712,342.346 372.0092,342.364 C372.0692,342.348 372.1292,342.33 372.1872,342.312 L372.2972,342.278 C372.5692,342.194 372.8372,342.108 373.1012,342.014 L373.2632,341.968 C373.6172,341.864 374.1292,341.714 374.7252,341.478 C378.2572,340.178 382.3072,337.194 384.5692,334.236 C385.0852,333.618 385.5392,333.022 385.9512,332.424 C390.1812,326.358 392.2692,319.21 391.9612,311.786 C391.7772,307.32 390.7112,302.99 388.8572,299.01 C392.6792,296.876 396.0712,294.002 398.8312,290.504 C403.4352,284.674 405.9392,277.66 406.0732,270.224 C406.0892,269.536 406.0712,268.792 406.0152,267.99 C405.9212,264.266 404.3892,259.474 402.2912,256.348 C401.9492,255.808 401.6212,255.386 401.3952,255.094 L401.2892,254.954 C401.1292,254.726 400.9632,254.5 400.7952,254.276 L400.7272,254.184 C400.7212,254.178 400.7172,254.17 400.7112,254.162 C400.5052,253.862 400.2112,253.434 399.8052,252.966 C414.0492,250.924 428.8952,247.534 438.2132,235.73 C442.0532,230.864 443.7672,224.778 443.0392,218.592 C442.4992,214.008 440.6692,209.778 437.7772,206.312 L471.4552,181.842 C473.5312,180.398 474.8912,177.994 474.8912,175.274 C474.8912,170.856 471.3132,167.274 466.8952,167.274 L466.8952,167.274 Z" id="Fill-29" fill="#006BB6" mask="url(#mask-2)"></path>
                </g>
                <path d="M291.3946,381.596 C293.5906,385.616 295.5806,389.84 297.5466,394.026 C303.3006,406.282 308.7326,417.858 318.5686,421.492 C323.2846,423.236 328.5526,420.778 330.3126,416.014 C331.0546,414.008 331.0546,411.882 330.4306,409.958 L291.3946,381.596 Z" id="Fill-32" fill="#006BB6"></path>
                <path d="M215.4442,358.3462 C224.5002,358.8242 232.9442,364.1002 237.2602,372.5322 C241.5602,364.0062 250.0662,358.6582 259.1982,358.1922 L237.3422,342.3742 L215.4442,358.3462 Z" id="Fill-34" fill="#006BB6"></path>
                <polygon id="Fill-36" fill="#FEFEFE" points="198.4368 311.6432 198.4368 200.4552 276.4548 200.4552 276.4548 227.2792 225.2608 227.2792 225.2608 243.6472 256.4108 243.6472 256.4108 270.4712 225.2608 270.4712 225.2608 284.6072 276.4548 284.6072 276.4548 311.6432"></polygon>
            </g>
        </g>
    </g>
</svg>