<svg width="512" height="512" viewBox="0 0 512 512" xmlns="http://www.w3.org/2000/svg"><title>houston-rockets</title><g fill="none" fill-rule="evenodd"><path d="M201.663 206.294c.25-5.4 1.06-8.728 2.504-14.34-.212.253-.649.699-1.348 1.391-1.445 5.619-2.267 8.96-2.491 14.34v9.566l1.348 1.831-.013-12.788zm-11.4 9.549l15.317 20.279 1.348-1.335-16.652-22.07zm-1.549 19.153l1.342-1.367-4.91 3.674-.026-40.518-1.33 1.373.014 40.518zm-21.026 1.09s8.827.882 8.827-8.645c0 7.361-7.472 7.262-7.472 7.262h-6.96s-7.471.1-7.471-7.262V203.97c0-7.269 7.472-7.269 7.472-7.269s-8.814-.257-8.814 8.652v23.465c0 7.368 7.46 7.269 7.46 7.269h6.958z" fill="#261C02"/><path d="M169.237 206.107v21.7c0 1.338-.334 2.51-.912 3.43a.831.831 0 0 0 .135-.08c.096-.072.173-.125.25-.191v-.02c.225-.152.405-.351.572-.55.077-.08.135-.152.212-.245.083-.092.134-.185.186-.278.051-.099.122-.192.167-.29.025-.04.058-.08.07-.147.045-.106.097-.198.154-.29 0-.014.007-.014.007-.014.038-.113.077-.205.115-.305 0-.013.007-.013.007-.026a.315.315 0 0 0 .038-.152h.013a.573.573 0 0 1 .052-.16c.006-.012.006-.026.006-.026.026-.04.026-.099.051-.139v-.033c.02-.04.026-.106.039-.165l.006-.014c.013-.046.026-.086.032-.152.007 0 .007-.013.007-.033.013-.112.045-.218.064-.324v-.04c.013-.06.013-.106.02-.152.018-.007.018-.007.018-.027v-.165c0-.02.013-.02.013-.047 0-.046 0-.086.007-.145V227c.006-.066.013-.126.013-.172v-.245c.012-.053.012-.126.012-.185v-21.68c0-3.37-2.022-5.654-5.122-5.654-.058 0-.122 0-.186.013h-.264c-.019 0-.064 0-.109.02h-.083c-.013.006-.052.006-.097.013h-.077c-.025 0-.07.013-.102.013-.026.013-.039.013-.07.013-.033 0-.065.02-.123.02-.006.007-.032.007-.064.007-.032.007-.077.007-.128.026-.02 0-.033.014-.058.014-.045.006-.09.02-.135.033-.026 0-.064 0-.077.026-.039 0-.07 0-.103.013-.019.014-.038.014-.07.02-.032.014-.052.014-.084.033a.167.167 0 0 0-.07.014c-.033.013-.065.013-.084.02-.045.02-.058.02-.09.046-.006 0-.051.013-.07.013-.039 0-.045.013-.09.027a.088.088 0 0 1-.058.02.234.234 0 0 1-.096.052c-.007 0-.026.014-.052.027-.064.02-.115.06-.173.08-.02 0-.032.013-.051.02-.032.019-.052.039-.077.052-.02.013-.039.013-.052.02-.038.02-.064.046-.09.053-.019.007-.032.04-.051.04-.032.006-.058.033-.083.046-.026.02-.039.02-.045.033-.032.02-.058.04-.097.053a.245.245 0 0 1-.038.046c-.039.02-.052.034-.077.053a.15.15 0 0 0-.045.047c-.026.02-.045.04-.077.066-.013 0-.032.013-.032.02-.097.08-.186.172-.276.258-.02.007-.032.02-.045.026l-.064.087c-.02.006-.026.026-.045.04-.02.02-.032.065-.052.085-.019.014-.032.02-.051.047a.234.234 0 0 0-.051.066.352.352 0 0 0-.052.06c-.02.026-.045.066-.058.085 0 .014 0 .047-.032.053-.025.02-.032.053-.051.073-.026.02-.026.033-.045.047-.006.046-.02.086-.038.099.828-.51 1.823-.742 2.933-.742 3.094 0 5.123 2.271 5.123 5.647m141.99-18.263c-.462.456-.873.835-1.341 1.348a50.64 50.64 0 0 0-2.003 7.524c.366-.084.732-.16 1.104-.218.462-2.863 1.239-5.74 2.24-8.654m12.396 30.987c.084-3.19-5.938-3.916-9.815-4.057l.019 1.412c3.762.27 8.525 1.162 8.435 4l.212 15.227 5.373 3.139 1.355-1.348-5.386-3.133-.193-15.24zm-15.937-18.758c-.05.407-.102.808-.134 1.21l-.193 37.595 5.681-3.216 1.335-1.374-5.674 3.209.218-37.589c.013-.408.077-.809.115-1.23-5.347-.059-10.001.408-10.001.408l-1.335 1.375s4.628-.454 9.988-.388m16.49 13.115c.95-.507 2.125-1.527 3.646-2.94-2.85 2.433-6.47 3.28-6.47 3.28s1.277-.295 2.824-.34m-9.961-12.395c4.95.584 9.193 1.926 9.572 4.846.282 2.311-.328 4.109-1.412 5.49.032-.033.064-.046.09-.065.102-.103.205-.2.327-.302.077-.045.154-.128.237-.205.097-.11.18-.193.283-.296.09-.09.147-.166.225-.243.09-.11.186-.219.256-.315.07-.09.142-.199.2-.302.076-.109.153-.205.23-.314.058-.116.122-.225.18-.334.058-.11.103-.218.167-.334a6.915 6.915 0 0 0 .276-.719c.058-.148.096-.314.135-.469.026-.102.064-.205.077-.314.051-.25.09-.54.128-.815v-.142c.02-.032.02-.083.02-.134v-.828c0-.02 0-.058-.02-.09v-.187c-.013-.038-.013-.064-.013-.102v-.045c-.012-.039-.012-.058-.025-.116v-.032c0-.045-.02-.083-.026-.141-.391-3.19-5.437-4.52-10.99-5 .039.327.064.648.077.969l.006.539zm35.858-1.306h-.45c-.038 0-.064.02-.115.02-.013 0-.039 0-.07.006-.046 0-.065 0-.116.007h-.064c-.032 0-.084.013-.103.013-.02.013-.051.013-.084.013-.025 0-.064.02-.096.02-.038.007-.038.007-.058.007-.05.006-.09.006-.128.026-.013 0-.064.013-.07.013-.052.007-.103.013-.148.027a.132.132 0 0 0-.07.026c-.046 0-.071 0-.097.013-.039.014-.051.014-.09.02-.013.013-.032.033-.064.033-.045.007-.058.007-.077.033-.045 0-.07.007-.097.007-.019.02-.044.02-.083.046-.013 0-.045.013-.051.013-.039.014-.065.027-.084.027-.038.013-.058.02-.07.02a.208.208 0 0 1-.103.046s-.026.013-.045.013c-.11.066-.212.12-.334.186-.013 0-.02 0-.045.006a.142.142 0 0 1-.083.053c-.013.013-.032.033-.045.033a.266.266 0 0 0-.077.06c-.013.006-.045.006-.045.02-.013.026-.07.046-.09.059-.013.02-.013.026-.045.046-.02.02-.058.047-.077.066-.032 0-.032 0-.045.007a.463.463 0 0 1-.103.086c-.134.12-.276.265-.417.403 0 .02-.013.02-.013.034-.019.013-.045.06-.077.092-.006.007-.013.007-.013.02-.045.04-.057.073-.077.1-.032.012-.032.026-.045.026a.188.188 0 0 1-.064.099c0 .013 0 .026-.013.026-.051.086-.102.172-.147.245.802-.51 1.81-.734 2.933-.734 3.095 0 5.123 2.268 5.123 5.628v21.661c0 1.323-.32 2.48-.905 3.406.064-.06.154-.099.218-.158.07-.053.135-.086.2-.133a7.9 7.9 0 0 0 .538-.516c.065-.092.122-.172.187-.258l.012-.02a1.17 1.17 0 0 0 .18-.264h.013c.013-.033.051-.086.064-.119.045-.066.052-.119.097-.159a.435.435 0 0 0 .064-.145c.006 0 .006 0 .013-.007.05-.099.083-.192.147-.284v-.02c.039-.1.07-.205.11-.304 0-.014.012-.027.012-.027.026-.046.032-.092.052-.152v-.006a.81.81 0 0 0 .057-.166l.013-.006.02-.153c.019 0 .019 0 .019-.02.013-.052.025-.099.038-.158.02 0 .02-.013.02-.013.006-.06.006-.1.019-.16v-.032c.038-.113.051-.225.064-.318.013-.02.013-.046.013-.053 0-.052.019-.099.019-.152v-.02c.006-.052.013-.119.02-.165v-.04c0-.052.012-.099.012-.138v-.047c.007-.066.007-.125.007-.178.006-.014.006-.027.006-.027v-22.024c0-3.367-2.003-5.635-5.097-5.635" fill="#261C02"/><path d="M353.947 234.068h-6.958s-7.46.093-7.46-7.268v-23.44c0-7.268 7.46-7.268 7.46-7.268s-8.808-.567-8.808 8.651v23.44c0 7.373 7.46 7.268 7.46 7.268h6.965s8.326.75 8.762-7.914c-.455 6.459-7.1 6.531-7.42 6.531m29.99-2.951c.084-.064.167-.115.238-.186h.013c.09-.07.167-.128.244-.212.025-.025.07-.064.109-.103a.433.433 0 0 0 .102-.121c.039-.026.065-.058.11-.103h.006c.083-.09.128-.154.193-.244.012 0 .012-.026.012-.026.077-.07.122-.154.18-.23 0-.02 0-.02.02-.02a.349.349 0 0 1 .07-.122l.006-.013c.007-.051.058-.096.077-.122l.007-.02a.344.344 0 0 0 .064-.128c.006-.012.006-.012.013-.019a2 2 0 0 1 .135-.27c0-.006 0-.025.013-.032.038-.09.077-.18.122-.276 0-.025.006-.032.006-.032a.336.336 0 0 1 .051-.128v-.032a.528.528 0 0 0 .045-.16v-.007a.674.674 0 0 0 .052-.148l.006-.019c.006-.045.026-.096.045-.154.006 0 .006-.013.006-.013 0-.058.013-.096.02-.141.019-.02.019-.032.019-.045 0-.051.02-.09.026-.16 0-.058.006-.103.012-.148v-.052a.3.3 0 0 0 .032-.14c0-.007.013-.02.013-.02 0-.058.013-.122.013-.167 0-.026.013-.038.013-.038 0-.045.013-.097.013-.135v-.244c0-.039 0-.09.013-.148v-2.227l-1.348 1.348v2.009c0 1.284-.34 2.433-.9 3.332a.694.694 0 0 1 .116-.071c0-.013.013-.013.013-.013m1.44-25.897c0-3.267-2.023-5.47-5.11-5.47h-.45c-.038 0-.064.02-.109.02-.02 0-.051 0-.083.006-.032 0-.052 0-.097.007h-.083c-.026 0-.064.013-.09.013-.02.013-.051.013-.083.013-.039 0-.071.019-.103.019-.02.006-.058.006-.084.006-.032.007-.05.007-.096.007a.331.331 0 0 1-.103.038c-.05 0-.07.013-.122.026-.025 0-.044.026-.09.026-.019 0-.057 0-.076.012-.026.013-.052.013-.077.02-.026.012-.052.032-.077.032-.039.006-.065.006-.103.025-.013 0-.039.007-.052.007-.044.02-.064.02-.096.045-.013 0-.026.013-.064.013-.02 0-.064.025-.096.038 0 0-.02.007-.052.007a.263.263 0 0 1-.09.05c-.012 0-.025.014-.025.014-.116.064-.257.109-.379.173l-.013.006a.457.457 0 0 1-.109.071c-.013 0-.026.02-.026.02-.038.006-.064.031-.096.064-.02 0-.026 0-.026.012-.045.02-.07.045-.102.052-.007.019-.026.025-.026.045a.21.21 0 0 0-.103.07c-.006 0-.006 0-.025.007a3.464 3.464 0 0 0-.54.488h-.006c-.026.032-.045.077-.07.115h-.02a.836.836 0 0 1-.096.116v.013c-.032.044-.058.083-.084.102v.026c-.057.077-.109.16-.167.237.822-.494 1.817-.719 2.934-.719 3.107 0 5.116 2.202 5.116 5.463v2.01h5.823l1.354-1.342h-5.828v-2.003z" fill="#261C02"/><path d="M391.244 228.506c-.013.06-.026.099-.026.125a.07.07 0 0 1-.006.026.335.335 0 0 1-.02.106s0 .026-.012.026c0 .04 0 .086-.013.105 0 .014 0 .02-.026.027 0 .046-.019.079-.019.098-.006.02-.006.027-.006.033-.007.046-.007.08-.026.1v.026l-.038.098v.033c-.013.027-.026.066-.039.092v.04c-.013.033-.026.053-.032.092 0 .013 0 .02-.006.02-.013.04-.033.066-.033.099-.025.013-.025.013-.025.026-.007.04-.02.06-.02.092l-.012.007c-.007.033-.032.072-.045.112v.013a.43.43 0 0 1-.039.092v.026a.24.24 0 0 0-.051.099h-.013c-.167.402-.392.75-.623 1.073-.019.033-.045.06-.07.092 0 0 0 .007-.007.007 0 .026-.032.053-.051.086a.555.555 0 0 0-.058.065v.014c-.026.02-.064.065-.083.072v.013c-.026.02-.039.046-.065.073 0 0 0 .013-.012.013-.013.026-.039.04-.065.066a.25.25 0 0 1-.07.072v.013c-.02.02-.045.053-.077.073-.36.368-.758.671-1.162.928-.032.02-.051.04-.077.053-.045.013-.064.04-.096.046-.026.033-.052.04-.058.052h-.032c-.02.027-.032.033-.077.053v.013c-.02.007-.052.013-.077.033a8.128 8.128 0 0 1-1.33.553c-.025.013-.038.02-.063.02-.032.007-.065.033-.077.04h-.007c-.026.013-.064.013-.083.026-.02 0-.039.006-.084.02h-.006c-.02.013-.032.013-.064.02-.026 0-.058 0-.084.02-.34.098-.642.157-.924.19h-.013c-.006 0-.026.013-.051.013-.013.027-.058.027-.071.027-.026.006-.039.006-.051.006h-.013c-.026 0-.045 0-.064.013-.013 0-.033 0-.052.013h-.128c-.007.007-.02.007-.058.007h-.058c-.006 0-.006.007-.045.007h-.032c-.115.026-.23.026-.32.026-.02.02-.033.02-.04.02h-.108c-.013 0-.013 0-.013.013h-7.158s-7.466.085-7.466-7.269v-23.44c0-7.268 7.466-7.268 7.466-7.268s-8.827-.5-8.827 8.652v23.439c0 7.367 7.492 7.269 7.492 7.269h6.933s8.172.83 8.775-7.651c-.032.257-.064.48-.109.71m109.121 2.6c.084-.053.18-.1.283-.166v-.013a2.54 2.54 0 0 0 .25-.191l.013-.02c.058-.053.128-.125.205-.225h.007c.058-.072.128-.145.186-.25 0 0 0-.007.006-.007l.187-.264v-.007c.05-.099.09-.198.121-.297 0 0 .02-.007.02-.02.045-.092.077-.185.135-.29v-.033c.032-.106.057-.212.09-.33v-.02c.038-.093.083-.231.102-.35v-.02c.013-.119.032-.25.07-.39 0 0 .007 0 .007-.006.013-.145.032-.277.045-.403v-.033c.02-.139.026-.277.051-.423v-.033c0-.158 0-.29.013-.449v-.033c.007-.151.007-.31.007-.468v-.04c0-.152 0-.317.013-.475v-5.791c0-4.886-3.377-5.025-8.866-5.025-7.164 0-7.376-1.684-7.376-6.88v-5.804c0-.086.02-.152.02-.231v-.073c0-.06 0-.105.012-.158 0-.033.007-.073.007-.086v-.139c0-.026.013-.059.013-.085.013-.04.013-.08.032-.126v-.092c.013-.047.013-.08.025-.113.007-.026.007-.052.013-.092 0-.033.013-.073.013-.106.013-.04.013-.072.02-.092.006-.04.012-.073.012-.086 0-.053.013-.086.032-.125.013-.027.013-.04.013-.08a.288.288 0 0 0 .039-.112c0-.007.013-.04.025-.046.039-.145.09-.29.122-.43.02-.006.02-.02.02-.026.045-.053.051-.086.07-.145 0 0 .007-.013.007-.026a.319.319 0 0 0 .051-.106c.02-.033.032-.04.045-.046a.358.358 0 0 1 .038-.126c.02-.006.02-.02.02-.033a.565.565 0 0 0 .064-.119c0-.02.02-.026.02-.04.018-.026.044-.065.076-.105v-.013c.231-.383.495-.693.79-.99.045-.033.07-.073.109-.1h.013a.839.839 0 0 1 .109-.099v-.013c.218-.171.45-.356.706-.515 0-.006.006-.006.013-.006a.254.254 0 0 1 .096-.06c.013-.013.026-.013.052-.02a.281.281 0 0 1 .083-.066.084.084 0 0 0 .051-.02c.013-.013.045-.032.065-.052.025 0 .057-.02.077-.033.012 0 .032-.027.057-.027l.084-.046c.019 0 .045-.007.051-.026.039-.014.07-.033.11-.053h.025c.237-.126.5-.218.732-.304.058-.02.102-.04.167-.066.244-.06.455-.139.648-.198.077-.007.128-.033.193-.04.154-.033.295-.072.455-.105.071-.007.148-.013.231-.04.142-.033.277-.04.418-.06.019-.013.064-.013.09-.013-2.1.238-7.575 1.44-7.575 7.39v5.823c0 5.183.205 6.88 7.376 6.88 5.482 0 8.865.125 8.865 5.005v5.494c0 1.829-.16 3.255-.623 4.258.039-.026.09-.04.148-.072l.006-.013z" fill="#261C02"/><path d="M501.914 205.22c-.013-2.927-.629-5.328-5.456-5.328h-.578c-.013.013-.032.013-.045.013h-.154c-.026.013-.045.013-.084.013h-.186c-.045.013-.064.013-.109.032h-.257c-.019 0-.038 0-.064.013-.013 0-.051 0-.058.019h-.179c-.02.02-.039.02-.077.02h-.045c-.026.012-.065.012-.084.018h-.038a.455.455 0 0 1-.097.007c-.006.013-.012.013-.045.013-.006.013-.05.013-.064.013-.013 0-.013.019-.038.019-.02 0-.045.006-.07.006-.014 0-.014 0-.033.007h-.064c-.026.019-.039.019-.039.019-.038.013-.045.013-.064.02h-.045c-.02.012-.045.012-.064.025h-.026c-.032.025-.07.025-.077.025-.025 0-.032.013-.038.013-.039.013-.058.013-.084.02 0 0-.019 0-.032.012-.013.02-.032.02-.051.02-.02 0-.032.006-.039.006-.025.007-.045.026-.051.026h-.045c-.02 0-.02 0-.051.019-.013 0-.026 0-.039.026 0 0-.032 0-.038.013h-.039c-.032 0-.045.012-.045.025-.013 0-.013 0-.032.013-.026.006-.051.006-.077.026 0 .006-.013.006-.026.025a.104.104 0 0 0-.057.02c-.02 0-.039 0-.039.013 0 .012-.013.012-.051.012-.007.007-.007.026-.026.026 0 .013-.032.013-.038.02-.007 0-.007 0-.026.012-.013.013-.032.013-.045.02-.013 0-.02.006-.026.025-.025 0-.038 0-.051.013 0 .006-.013.006-.032.02-.013 0-.02.012-.026.018-.006 0-.02.02-.032.02-.013.006-.038.032-.064.032-.013.006-.013.006-.013.019-.026.02-.026.02-.058.026 0 .019-.025.025-.025.025s-.02.013-.02.026c-.019.006-.025.006-.038.02 0 .019-.032.019-.032.019-.013.019-.032.019-.032.019 0 .013 0 .013-.013.032a.039.039 0 0 0-.032.026c-.013 0-.026.012-.039.019 0 0-.02.013-.032.026 0 0-.006.006-.013.025-.013 0-.038.007-.038.026-.013.006-.026.026-.045.038-.007 0-.007 0-.007.013-.006.013-.019.026-.032.039-.013.006-.032.019-.038.019 0 .006-.02.006-.02.02-.019.019-.019.031-.019.031-.02.013-.02.013-.025.032-.007.007-.02.007-.02.026-.019.007-.019.007-.032.032 0 0-.013.007-.026.02 0 0-.006.012-.006.025a.07.07 0 0 0-.032.026c-.006.02-.02.02-.02.045-.006 0-.006.013-.012.013-.032.019-.032.032-.051.057v.007c0 .006-.02.038-.026.038 0 .007-.026.02-.026.026-.006.013-.006.039-.032.039 0 .019-.006.032-.006.032 0 .006 0 .019-.02.032 0 .006-.012.006-.012.019-.013.02-.026.02-.026.032a.066.066 0 0 1-.007.026c-.019.025-.025.025-.025.045 0 .013 0 .025-.007.025-.012.007-.012.039-.019.039-.02.013-.02.02-.02.02 0 .025-.025.05-.025.07.803-.405 1.926-.63 3.557-.63 4.833 0 5.45 2.402 5.475 5.329l-.025 1.964 5.264-2.76 1.341-1.355-5.264 2.754.013-1.945zm-65.186-2.988c-.012.02-.012.032-.038.039v.025c-.064.07-.116.186-.18.315-.006.019-.032.038-.032.051a.727.727 0 0 1-.039.09c1.477-.835 3.152-.796 3.152-.796l9.893-.013c.828-.899 1.354-1.36 1.354-1.36l-9.898.025s-2.6-.116-4.212 1.624m6.863 31.833h-6.073s-7.909.08-7.876-7.33l.05-12.173-.05-10.734c0-1.927.507-3.372 1.264-4.434-1.45 1.109-2.632 2.896-2.632 5.82l.07 10.727-.05 12.167c-.039 7.429 7.876 7.35 7.876 7.35h6.073s8.165.356 8.775-4.837c-.674 4.17-7.427 3.444-7.427 3.444" fill="#261C02"/><path d="M435.29 217.173v1.341l.641.02c4.455-.29 8.576-.873 13.198-2.613.597-.584.739-.764 1.349-1.348-4.629 1.727-8.73 2.317-13.186 2.606l-2.003-.006zm34.86-14.941v1.361h.7c4.52-.244 7.415-.95 10.695-2.4.5-.482.86-.835 1.367-1.362-3.3 1.464-6.194 2.157-10.707 2.401h-2.055zm-6.085-1.094h-8.962v-4.916l-1.354 1.38v4.93h8.968l-.026 31.35 5.56 3.812 1.347-1.387-5.565-3.812zm-64.19-8.518l-1.335 1.37v43.965l5.68-3.751 1.349-1.365-5.694 3.746zm5.533 22.227v3.48l10.727 17.03h6.214l1.348-1.348h-6.22zm11.842-17.486l-1.373 1.342-10.034 14.315v.572zM52.147 234.067h-6.965s-7.465.1-7.465-7.273V203.3c0-3.44 1.681-5.245 3.428-6.207-2.356 1.094-4.88 3.275-4.777 7.584v23.494c0 7.379 7.473 7.267 7.473 7.267h6.965s8.28.58 8.788-7.8c.02-.278.02-.554.02-.844 0 7.372-7.467 7.273-7.467 7.273" fill="#261C02"/><path d="M49.269 198.49h-.25c-.039 0-.097 0-.129.02h-.186c-.02 0-.045 0-.083.02-.026 0-.065 0-.097.007-.032 0-.045 0-.07.006h-.11c-.019 0-.044.014-.09.014-.012.013-.044.013-.083.013-.025.02-.045.02-.077.026-.032 0-.058 0-.103.007-.044 0-.07.02-.121.026-.033.007-.065.007-.11.02-.019 0-.045.013-.09.027-.012.013-.057.013-.07.013-.039.013-.07.026-.09.026-.02.007-.045.007-.077.02-.02.02-.064.02-.09.033-.02.02-.051.02-.051.02-.052.007-.064.027-.11.027-.012.026-.025.026-.05.04a.182.182 0 0 0-.09.026c-.033 0-.046.013-.052.013a.484.484 0 0 0-.11.046c-.006 0-.012.007-.012.007-.18.08-.34.172-.507.258l-.032.013c-.026.027-.07.053-.103.08-.006 0-.006.006-.006.006-.052.033-.084.06-.116.073 0 0-.006.02-.026.02-.032.026-.077.046-.109.072 0 0-.019 0-.019.02-.212.185-.443.377-.635.622-.026.04-.065.08-.084.119-.103.126-.18.258-.257.39.816-.502 1.817-.74 2.934-.74 3.113 0 5.13 2.281 5.13 5.641v21.674c0 1.336-.341 2.527-.925 3.426.045-.026.096-.033.122-.06 0 0 .006-.02.019-.02.09-.052.167-.125.25-.178 0-.02 0-.02.02-.02.025-.026.07-.052.09-.086h.019a.548.548 0 0 1 .109-.112h.013a.368.368 0 0 1 .096-.106s.013 0 .013-.006a1.52 1.52 0 0 1 .103-.12v-.013c.044-.02.07-.053.109-.092 0-.014.013-.014.013-.02.064-.066.115-.159.192-.238 0 0 .007-.013.007-.027.032-.033.05-.066.096-.112 0-.007 0-.007.006-.007.026-.033.032-.086.077-.132v-.013c.032-.04.052-.08.077-.106.02-.007.02-.02.02-.033.038-.04.038-.086.077-.14v-.006a.5.5 0 0 0 .07-.132s0-.013.013-.026c.032-.086.09-.172.128-.265.007-.02.007-.026.026-.046l.045-.113c0-.013.006-.02.006-.02.013-.052.033-.099.045-.145 0-.013 0-.027.02-.04.025-.04.025-.086.038-.132.007 0 .007-.007.007-.033.019-.033.045-.1.064-.146 0-.013 0-.033.006-.033 0-.04.026-.086.026-.112.013-.013.013-.04.013-.04a.85.85 0 0 0 .045-.172v-.006c.013-.04.032-.1.032-.152v-.034c.019-.06.025-.105.038-.152v-.013c.013-.06.026-.106.026-.165 0-.007.02-.027.02-.053a.6.6 0 0 1 .018-.14v-.039c0-.026 0-.106.02-.158v-.047c0-.046 0-.08.006-.125v-.053c.02-.053.02-.12.02-.186.012-.006.012-.006.012-.013v-22.051c0-3.366-2.035-5.641-5.116-5.641m34.861 27.477l.039-11.923.026-14.531-1.349 1.403-.038 14.518-.026 11.91c0 1.575-.372 2.7-.847 3.515 1.104-.695 2.195-2.099 2.195-4.892m30.325-20.748c-.013-2.934-.636-5.334-5.47-5.334h-.507a.19.19 0 0 0-.077.012h-.135c-.012 0-.032.013-.07.013h-.231c-.02 0-.026.013-.045.013-.032 0-.077 0-.097.013h-.192c-.02.013-.045.013-.077.013-.007.02-.026.02-.045.02h-.122c-.026 0-.039 0-.058.012h-.064c-.006.02-.039.02-.064.02h-.045c-.02 0-.052 0-.064.012-.039 0-.084 0-.11.02h-.05c-.02.006-.04.006-.046.012h-.058c-.019 0-.045.013-.057.013-.013.013-.026.013-.052.013-.019 0-.045 0-.064.019-.013 0-.026.006-.038.006-.02 0-.045 0-.058.007h-.032c-.032 0-.052.02-.058.02-.02.012-.02.012-.039.018h-.083c0 .013-.006.013-.013.013-.045.013-.09.039-.135.039 0 0-.019 0-.019.013-.02 0-.038.012-.058.012-.013 0-.019.007-.032.007-.013.013-.045.013-.058.032H106c-.019.006-.032.013-.038.026h-.052c-.006.006-.025.006-.044.006-.007.02-.026.02-.026.02-.032 0-.045.025-.052.025-.012.013-.019.013-.025.013-.013 0-.039 0-.064.013-.071.032-.148.057-.212.096h-.007a.067.067 0 0 1-.057.026c-.013.006-.013.006-.013.025l-.052.02h-.019a.085.085 0 0 1-.051.019c-.007.013-.013.02-.02.02-.019.018-.032.018-.044.031-.007.007-.02.007-.02.007-.025.012-.032.025-.051.025-.058.052-.11.077-.167.122l-.013.007a.195.195 0 0 1-.045.032s-.013 0-.019.013c0 .012-.013.019-.038.019 0 .02-.013.02-.013.02-.013.012-.02.012-.032.031 0 .007-.02.007-.02.026-.025 0-.038.013-.038.02-.007 0-.007.012-.026.012-.006.013-.026.02-.026.038v.007a.643.643 0 0 0-.096.083l-.032.032c0 .013-.02.013-.02.013-.012.007-.018.02-.018.039l-.02.02-.038.031-.02.02c-.012.006-.012.032-.019.032-.019.006-.019.006-.025.019-.007.013-.007.025-.007.032-.02 0-.02.02-.02.032-.006.006-.025.013-.038.026 0 0-.012.019-.025.025 0 .013-.007.026-.02.052-.019.006-.019.013-.025.032-.007.013-.02.013-.02.019 0 .013-.019.02-.019.032-.013.026-.013.026-.025.026v.038c-.013.013-.013.026-.026.026s-.013.032-.02.039c0 0-.006.012-.006.025-.013.013-.02.026-.02.039-.012 0-.012.006-.031.019 0 .026-.007.032-.007.032l-.012.032c-.007.02-.013.045-.026.07.79-.416 1.92-.615 3.55-.615 4.84 0 5.456 2.381 5.488 5.321l-.032 1.952 5.264-2.754 1.355-1.342-5.264 2.741.013-1.945zm-2.545 25.884c.083-.073.173-.132.25-.205a3.87 3.87 0 0 1 .238-.224c.064-.093.122-.172.186-.258a4.27 4.27 0 0 1 .192-.278v-.006c.045-.1.084-.192.129-.304.051-.106.096-.212.135-.31v-.02c.045-.113.09-.225.102-.331v-.02c.026-.112.065-.231.09-.37v-.013c.032-.126.052-.245.064-.377v-.013c.045-.145.058-.264.065-.416v-.027c.019-.125.025-.27.032-.43v-.032c.006-.14.038-.291.045-.443V227c0-.165.006-.323.019-.475v-6.311c0-4.897-3.383-5.03-8.878-5.03-7.177 0-7.376-1.71-7.376-6.898v-5.829c0-2.643 1.354-4.136 2.863-4.976-2.1.992-4.218 2.862-4.218 6.35v5.836c0 5.187.212 6.906 7.396 6.906 5.488 0 8.858.125 8.858 5.022v5.498c0 1.85-.147 3.271-.622 4.262.147-.072.295-.152.43-.25m26.56-28.873v1.355h.667c4.442-.232 7.299-.918 10.528-2.363.712-.693.834-.834 1.348-1.341-3.23 1.425-6.08 2.124-10.522 2.349h-2.022zm-6.087-.094h-8.813v-4.827l-1.342 1.374v4.84h8.82l-.032 30.868 5.476 3.722 1.335-1.381-5.463-3.742zM24.811 217.835H12.704l.013 1.342h10.74l-.11 17.294 5.27 2.895 1.343-1.355-5.252-2.888zm-.443-14.055c.27-4.063.95-7.381 2.44-11.163-.572.604-.777.822-1.355 1.355-1.47 3.762-2.157 7.087-2.44 11.157l-.05 8.55h1.34l.065-9.898zm-16.933-.536c.206-3.697 1.117-7.533 2.433-11.4-.526.55-.79.766-1.348 1.383-1.316 3.855-2.227 7.69-2.44 11.394l-.192 34.74 5.245-2.956 1.36-1.377-5.263 2.944.205-34.728zm279.887 123.541v-.065c0-.033-.012-.072-.012-.104 0-.02 0-.052-.007-.065v-.183c-.013-.026-.013-.065-.02-.098v-.071c-.012-.033-.012-.072-.031-.085 0-.026-.007-.046-.007-.072v-.11c0-.013 0-.02-.019-.046a.696.696 0 0 0-.038-.156v-.026c-.007-.027-.007-.079-.026-.111v-.046c-.013-.032-.032-.058-.032-.085 0-.026 0-.045-.013-.065-.013-.02-.013-.052-.026-.078 0-.013-.006-.032-.006-.059-.026-.02-.039-.039-.039-.065-.006-.013-.006-.039-.019-.065-.006-.02-.006-.039-.026-.052-.006-.033-.006-.052-.019-.059a.147.147 0 0 1-.025-.084.04.04 0 0 1-.026-.033c-.013-.039-.02-.072-.052-.11 0-.02 0-.033-.012-.046-.013-.007-.026-.033-.032-.065-.013-.013-.013-.026-.02-.052-.013-.014-.013-.02-.025-.053-.032-.013-.032-.02-.045-.039 0-.013-.02-.039-.026-.052 0-.006-.006-.032-.026-.039-.013-.026-.025-.026-.038-.052 0-.013-.013-.026-.026-.052-.006-.007-.02-.02-.02-.033-.012-.02-.018-.032-.044-.045 0-.007-.013-.033-.026-.04-.051-.052-.096-.104-.141-.15-.013-.006-.013-.019-.013-.019-.02-.02-.038-.02-.038-.045-.032 0-.032-.02-.045-.033-.007-.007-.013-.02-.039-.033-.013 0-.013-.006-.025-.02-.007 0-.02-.025-.045-.032-.013 0-.02-.006-.02-.006l-.057-.04v-.012a2.541 2.541 0 0 0-.334-.163c-.02 0-.02-.007-.02-.007-.019 0-.032-.006-.044-.006h-.02c-.025-.013-.057-.013-.064-.02-.115-.013-.205-.013-.314-.013-.02 0-.052.013-.09.013-.065.007-.129.026-.219.046-.012.013-.057.026-.09.039-.083.045-.186.091-.275.163-.007.006-.02.013-.033.026-.083.058-.154.143-.237.234-.02.026-.064.059-.096.085-.052.091-.103.163-.16.254-.014.04-.052.078-.078.124-.058.13-.115.254-.18.41 0 0-.013.007-.013.02.99-.137 2.08.958 2.138 3.303l1.63 61.687 1.349-1.362-1.644-61.7v-.182zm-55.778-26.988v-.301c-.013-.013-.013-.04-.013-.053v-.091c-.006-.007-.006-.04-.006-.06-.006-.019-.006-.045-.006-.084-.007-.02-.007-.04-.007-.046 0-.04-.013-.066-.013-.098 0-.02-.019-.033-.019-.04-.013-.039-.013-.085-.02-.13-.012-.053-.019-.086-.038-.125 0-.026-.006-.026-.006-.04a.261.261 0 0 0-.02-.09v-.033c-.006-.04-.019-.053-.032-.092 0 0 0-.026-.012-.04-.013-.019-.013-.052-.026-.071 0-.007-.006-.02-.006-.033-.02-.033-.02-.066-.033-.072-.006-.02-.006-.02-.006-.046-.013-.006-.02-.052-.032-.072 0-.013-.013-.02-.013-.02a.197.197 0 0 1-.032-.098h-.006c-.013-.032-.039-.072-.058-.104 0 0-.007-.014-.007-.027a.136.136 0 0 1-.038-.065c-.007-.013-.013-.013-.013-.026-.02-.026-.032-.033-.045-.066 0-.013-.006-.02-.006-.026-.02-.013-.032-.02-.032-.052-.02-.013-.026-.026-.026-.033-.02-.007-.026-.02-.039-.033-.019-.032-.025-.032-.025-.039a.277.277 0 0 0-.032-.046c-.007 0-.02-.02-.02-.033-.019-.006-.025-.032-.025-.032-.026 0-.026-.02-.032-.026a.29.29 0 0 1-.071-.06c0-.019-.02-.026-.02-.026-.006-.013-.031-.013-.031-.032-.02-.013-.02-.026-.033-.026-.012 0-.032-.02-.038-.033-.006-.007-.02-.02-.026-.02 0-.006-.013-.026-.038-.04 0 0-.013-.006-.026-.006 0-.013-.026-.013-.038-.013l-.033-.032s-.006-.007-.025-.007l-.032-.033h-.026a1.905 1.905 0 0 0-.231-.091h-.006c0-.013-.033-.013-.058-.013h-.013c-.026 0-.032-.007-.045-.007-.11-.02-.205 0-.27.007-.038 0-.064.013-.083.013-.064.026-.122.039-.173.072-.039 0-.084.02-.097.045a.586.586 0 0 0-.212.125.175.175 0 0 1-.064.046 7.768 7.768 0 0 0-.192.222c-.013.033-.052.053-.071.098a.586.586 0 0 0-.135.223.39.39 0 0 0-.07.124c-.052.105-.122.242-.16.38 0 .013 0 .013-.014.026.835-.013 1.734 1.015 1.734 2.926l1.187 46.635 1.342-1.38-1.188-46.63v-.15zm6.972 7.966v-.426c-.012-.045-.012-.078-.012-.117 0-.02 0-.033-.013-.06v-.156a1.3 1.3 0 0 1-.013-.15c-.02-.027-.02-.033-.02-.046 0-.04-.006-.079-.006-.125 0-.013 0-.039-.013-.045a.222.222 0 0 0-.019-.099v-.058a.259.259 0 0 0-.038-.085v-.06c0-.032-.007-.071-.007-.104 0 0-.019-.02-.019-.033-.026-.085-.051-.183-.083-.261v-.033c-.007-.02-.033-.065-.039-.092-.006-.02-.006-.032-.006-.045-.02-.02-.02-.046-.032-.06 0-.032 0-.045-.02-.052-.006-.02-.013-.045-.032-.071-.013-.014-.02-.027-.02-.04 0-.026-.012-.052-.025-.085-.013-.013-.013-.02-.013-.02-.012-.032-.025-.071-.051-.104v-.013c-.032-.026-.045-.046-.045-.079-.006-.013-.026-.013-.038-.026 0-.032-.013-.039-.026-.052-.013-.033-.013-.033-.032-.046-.013-.006-.02-.02-.026-.046 0-.013-.006-.026-.02-.039-.012 0-.031-.02-.031-.033-.013-.006-.013-.039-.039-.039 0-.013-.013-.033-.032-.04-.013-.025-.013-.032-.032-.032-.026-.026-.038-.032-.051-.046 0-.02-.013-.026-.026-.058-.013 0-.026-.007-.039-.007 0-.006-.019-.02-.025-.04-.013-.006-.013-.006-.032-.025 0 0-.026-.02-.032-.033 0 0-.013 0-.026-.007-.032-.006-.032-.006-.039-.032-.012 0-.025 0-.025-.02-.058-.013-.11-.052-.174-.065-.012-.026-.038-.026-.05-.04h-.014c-.032 0-.032-.006-.051-.006l-.013-.013c-.02 0-.038-.013-.07-.013a.845.845 0 0 0-.257 0 .23.23 0 0 0-.09.013.594.594 0 0 0-.206.072c-.032.006-.051.006-.07.026a.923.923 0 0 0-.25.177c-.026.013-.052.052-.065.085a.506.506 0 0 0-.18.19c-.032.038-.05.071-.083.104a3.21 3.21 0 0 0-.199.36c-.013.045-.032.085-.032.124a.633.633 0 0 0-.103.222c.86.033 1.72 1.217 1.67 3.467l1.277 48.57 1.354-1.374-1.297-48.57v-.19zm19.293-22.746c-5.217 0-10.32-.072-15.306-.254l-.04 1.405c4.555.137 9.21.228 13.962.228 4.893 0 9.752-.091 14.485-.247l2.344 73.299 1.403-1.36-2.344-73.299c-4.753.156-9.585.228-14.504.228m21.545 34.258v-.235c0-.04-.02-.072-.02-.105v-.072c-.012-.02-.012-.065-.012-.098v-.058c-.013-.04-.013-.085-.013-.111 0-.026 0-.04-.006-.046 0-.046-.013-.111-.02-.157v-.02c-.032-.045-.032-.084-.044-.13v-.13c-.013-.033-.013-.04-.013-.066 0-.02-.013-.065-.02-.091 0-.007 0-.02-.025-.052v-.079c0-.026-.02-.032-.02-.045-.019-.026-.025-.072-.032-.098 0 0 0-.026-.012-.026-.013-.053-.013-.085-.033-.124-.006-.013-.006-.027-.006-.027a.526.526 0 0 1-.038-.09c0-.007-.007-.027-.007-.047a.15.15 0 0 0-.038-.058c0-.02-.013-.033-.013-.053-.007-.026-.026-.039-.032-.052a.158.158 0 0 1-.013-.059c0-.013-.013-.039-.032-.045 0-.02-.013-.026-.013-.053a.334.334 0 0 0-.032-.058c-.007-.013-.026-.026-.045-.052 0-.027-.013-.04-.02-.06-.006-.019-.038-.045-.038-.051-.013-.007-.013-.02-.026-.02-.006-.026-.025-.04-.038-.065 0-.013 0-.013-.007-.02-.012-.033-.012-.033-.038-.059-.006 0-.026 0-.026-.013-.019-.02-.019-.032-.032-.045-.006-.013-.006-.013-.02-.027a1.378 1.378 0 0 0-.314-.267c-.032-.026-.064-.04-.109-.065a.807.807 0 0 0-.244-.072c-.032-.007-.077-.02-.102-.02a.683.683 0 0 0-.244.02c-.039 0-.09 0-.122.032a.87.87 0 0 0-.328.183c-.032.026-.057.072-.096.098a1.24 1.24 0 0 0-.212.235.952.952 0 0 0-.122.19c-.038.078-.109.195-.154.313-.026.072-.064.137-.096.202-.007.04-.007.078-.026.078.803.079 1.611 1.202 1.605 3.304l1.945 54.014 1.355-1.383-1.952-53.996v-.17zm-55.563-153.236c-18.764-.266-35.213 1.209-35.213 1.209l-1.391 1.365s16.456-1.463 35.213-1.21c-2.084 21.066.06 41.124-.027 79.005h-.098c.487.02.989.02 1.49.045.138-38.835-2.084-59.069.026-80.414m67.522 116.872l-.032 1.169c32.618-2.793 57.439-9.232 63.848-16.633-8.215 6.94-32.553 12.845-63.816 15.387v.077zm-58.33-161.573c-.59.652-.79.817-1.348 1.371-4.442 14.175-7.08 25.442-8.627 35.932.41-.08.79-.139 1.174-.198 1.509-10.826 4.18-22.41 8.801-37.105m-75.125 141.817c-.065-1.47.534-2.88 1.648-4.207-2.026 1.697-3.094 3.57-3.029 5.566.326 9.141 27.548 17.554 65.803 20.747l1.628 51.858 1.36-1.36-1.627-51.85c-38.242-3.212-65.47-11.613-65.783-20.754m113.528-53.951c5.816-1.816 13.121-5.065 18.36-10.662.012-.013.025-.02.031-.039-8.043 7.569-19.771 10.355-24.547 11.208a66.654 66.654 0 0 1 6.156-.507m4.142-26.294c1.036 7.592-1.202 13.308-5.137 17.597h.006c.159-.159.317-.317.469-.476.257-.244.515-.47.76-.733.164-.185.316-.377.495-.562.198-.251.409-.483.62-.734.152-.198.31-.396.45-.614.204-.258.382-.51.554-.767.138-.218.29-.436.416-.64.165-.285.343-.57.508-.847.126-.224.218-.449.35-.66.139-.311.31-.622.43-.932.092-.218.19-.436.277-.648.171-.377.284-.733.396-1.103.06-.205.119-.384.185-.595.185-.575.323-1.157.449-1.771v-.013a1.4 1.4 0 0 0 .046-.265c0-.026.007-.04.007-.06.02-.085.052-.184.066-.257 0-.026.006-.066.006-.092.007-.086.033-.159.033-.245 0-.046.013-.066.013-.119.02-.06.027-.145.047-.218 0-.04.013-.086.013-.112.006-.08.013-.166.033-.232 0-.046.006-.086.006-.125 0-.08.014-.159.02-.231v-.133c.013-.079.027-.145.04-.218 0-.04 0-.092.013-.145 0-.073 0-.139.007-.225.026-.04.026-.079.026-.112v-.284c.007-.172.02-.357.02-.529v-.344c0-.072.013-.145.013-.198v-.37c0-.08-.013-.125-.013-.191v-.39c0-.073 0-.126-.013-.199 0-.066 0-.125-.007-.198v-.396c0-.066-.026-.126-.033-.199 0-.072 0-.132-.013-.178 0-.086-.013-.165-.013-.225-.014-.079-.027-.138-.027-.178 0-.086-.006-.172-.006-.251-.014-.046-.014-.1-.02-.159 0-.099-.02-.172-.033-.27 0-.054 0-.107-.013-.14-.02-.138-.047-.27-.06-.41-1.287-9.64-16.956-13.923-34.803-15.628.052.51.085 1.031.145 1.547 17.174 1.804 32.01 6.099 33.272 15.476m-32.016 30.283c0 .516-.013 1.011-.02 1.526 12.551 1.403 27.898 4.872 27.62 13.584l-.446 47.208 1.375-.045.471-48.526c.26-9.025-16.216-12.455-29-13.747m48.8 32.975l-.033 1.528c24.828 3.165 45.02 6.715 45.02 12.525 0 .924-.432 1.919-1.12 2.78.013 0 .026-.007.039-.007.223-.206.446-.379.642-.565.04-.051.092-.096.118-.129.184-.192.36-.359.512-.545.013-.026.032-.039.046-.058.15-.193.314-.398.445-.59.02-.045.06-.09.086-.135.111-.219.229-.418.314-.617v-.019c.013-.032.033-.07.04-.115 0 0 .013-.007.013-.013.013-.045.026-.07.039-.116.013-.006.013-.02.013-.032l.033-.096s0-.02.006-.026c0-.038.02-.064.033-.096v-.039c.013-.038.013-.07.027-.09 0-.025.013-.038.013-.038 0-.039.02-.07.02-.09 0-.013 0-.038.006-.038 0-.045.006-.065.006-.097 0-.019 0-.032.027-.045v-.083c0-.013 0-.039.006-.058v-.07c0-.026.013-.04.013-.052 0-.032 0-.058.013-.09v-.173c0-5.919-20.953-9.5-46.377-12.71" fill="#261C02"/><path d="M178.31 257.539c5.953-4.495 25.114-7.307 44.334-10.226a1019.54 1019.54 0 0 1-.374 24.8l.06 1.908h.02c.452.046.931.1 1.417.14l-.112-3.438c.243-9.042.354-17.267.374-24.8-21.13 3.212-42.207 6.284-45.718 11.616m323.05-23.434h-8.217s-6.85 0-6.85-5.655l-.012-4.032-1.342 1.361.007 4.019c0 5.655 6.862 5.655 6.862 5.655h8.179s7.37.559 7.786-7.89c-.417 6.395-6.162 6.542-6.413 6.542m-419.332-.037h-7.28s-6.984-.329-6.984-6.998l.019-12.912v-18.112c0 .032-1.335 1.376-1.335 1.376v18.112l-.026 12.931c0 6.65 6.978 6.993 6.978 6.993h7.267s8.692.586 8.993-7.954h-.019c-.32 6.196-7.389 6.564-7.613 6.564m37.296-5.386a.615.615 0 0 0-.019.141v.007a.345.345 0 0 0-.032.122v.012c0 .052-.02.084-.032.129a1.568 1.568 0 0 0-.039.128c-.006.039-.006.077-.025.129v.006c-.007.032-.007.07-.032.115a.776.776 0 0 1-.033.116v.02a.244.244 0 0 0-.032.096c-.019 0-.019 0-.019.006 0 .045-.013.077-.026.128-1.149 3.428-4.262 4.147-5.501 4.282h-.013s-.013.007-.02.007h-.134c-.02 0-.026.019-.026.019h-.07c-.007 0-.007.013-.02.013h-.179l-.007.006h-8.249s-6.862 0-6.862-5.662l-.006-4.031-1.361 1.36.025 4.02c0 5.655 6.85 5.655 6.85 5.655h8.197s7.421.597 7.794-7.948a9.14 9.14 0 0 1-.103.99c-.013.038-.013.102-.026.134" fill="#261C02"/><path d="M325.744 204.325c.007.06.027.099.027.145v.032c.013.06.013.079.026.118v.046c0 .04 0 .072.013.105v.19c.02.039.02.072.02.091v.844c0 .053 0 .106-.02.138v.146c-.04.281-.079.576-.132.831-.02.111-.06.216-.08.32-.039.158-.079.328-.138.479a3 3 0 0 1-.126.34 4.07 4.07 0 0 1-.159.393c-.072.118-.119.23-.172.34-.06.112-.125.223-.191.341-.073.112-.152.21-.232.321-.066.105-.132.216-.205.308-.073.098-.172.21-.264.32-.08.08-.146.158-.232.25-.106.104-.198.19-.29.307-.087.072-.173.157-.246.203a5.196 5.196 0 0 0-.337.308c-.026.02-.06.04-.1.065-1.798 1.415-4.173 2.246-6.302 2.75h-.014a7.312 7.312 0 0 1-.998.204c-.02.013-.02.013-.047.013-.324.065-.641.124-.959.163l-.079-13.672-.007-.55c-.013-.327-.04-.654-.079-.988 5.715.49 10.913 1.846 11.323 5.1m-16.535-5.33c-.04.413-.106.819-.119 1.218l-.225 37.434 5.847-3.195-.106-18.249-.02-1.434c4.002.138 10.2.878 10.12 4.138l.198 15.545 5.55 3.195-.16-19.84c0-.216-.006-.392-.02-.589 0-.052-.02-.105-.032-.164a1.58 1.58 0 0 0-.066-.36.719.719 0 0 0-.047-.17c-.04-.111-.066-.23-.106-.32-.013-.06-.046-.106-.066-.151a1.727 1.727 0 0 0-.172-.328c-.013-.026-.026-.059-.04-.078-.085-.125-.165-.256-.277-.36 0-.027-.013-.04-.04-.06-.066-.098-.172-.17-.258-.261-.026-.02-.053-.06-.099-.072-.073-.079-.159-.138-.251-.216a.374.374 0 0 1-.093-.06c-.106-.065-.205-.137-.337-.196-.013 0-.027-.026-.027-.026a6.315 6.315 0 0 0-1.375-.478c-.814-.177-1.66-.23-2.448-.216-1.593.04-2.91.34-2.91.34s3.73-.857 6.674-3.339a10.418 10.418 0 0 0 2.672-3.28c.006-.014.006-.027.013-.046.311-.622.523-1.297.688-2.017.007-.046.02-.098.026-.15.08-.341.126-.708.146-1.061v-.223c.033-.386.046-.76 0-1.172-.35-5.29-6.131-7.916-16.436-6.875-.463.065-.913.118-1.376.17-.43-2.757-1.124-5.323-2.248-8.12-1.039 2.973-1.839 5.907-2.309 8.827-.39.066-.76.138-1.144.223-5.589 1.087-9.431 2.416-9.431 2.416s4.795-.458 10.304-.4m45.734 27.467v.381s0 .014-.006.027c0 .053 0 .112-.006.178v.046c0 .04-.013.085-.013.132v.046c-.007.046-.013.112-.02.164v.02c0 .053-.019.099-.019.151 0 .007 0 .033-.013.053-.012.092-.025.204-.057.31v.039c-.02.06-.02.099-.026.158 0 0 0 .013-.02.013-.012.06-.025.106-.038.158 0 .02 0 .02-.019.02-.006.053-.013.099-.02.151l-.012.007a.803.803 0 0 1-.058.165v.006c-.02.06-.026.106-.051.152 0 0-.013.013-.013.026-.039.099-.07.204-.11.303v.02c-.063.092-.096.184-.147.283-.006.006-.006.006-.013.006a.273.273 0 0 1-.064.139c-.045.046-.051.098-.096.164-.013.033-.052.086-.064.119h-.013c-.052.105-.116.19-.18.263l-.013.02c-.064.085-.115.164-.186.257a7.986 7.986 0 0 1-.54.513c-.063.046-.128.08-.192.132-.07.059-.16.099-.224.158a5.096 5.096 0 0 1-1.99.764c-.052.006-.084.006-.135.006-.244.026-.488.066-.739.066-3.12 0-5.122-1.64-5.122-5.616V204.92c0-.343.025-.659.045-.942a1.59 1.59 0 0 1 .032-.204c.064-.599.186-1.12.385-1.593.006-.033.006-.053.02-.086.095-.243.224-.46.352-.678.045-.072.097-.158.154-.244.007 0 .007-.013.007-.026a.218.218 0 0 0 .064-.099c.013 0 .013-.013.045-.026.02-.026.032-.06.077-.099 0-.013.006-.013.013-.02.032-.032.064-.079.077-.092 0-.013.013-.013.013-.033.14-.138.282-.283.417-.401a.361.361 0 0 0 .103-.086c.012-.006.012-.006.045-.006.019-.02.057-.046.077-.066.032-.02.032-.027.044-.046.02-.013.078-.033.09-.06 0-.013.032-.013.045-.02a.266.266 0 0 1 .077-.059c.013 0 .032-.02.045-.033a.182.182 0 0 0 .09-.052c.02-.007.026-.007.039-.007.122-.066.23-.118.333-.184.02 0 .039-.013.039-.013.045-.007.077-.027.11-.046.018 0 .031-.007.07-.02.019 0 .045-.013.083-.026.007 0 .039-.014.052-.014.038-.026.064-.026.09-.046.019 0 .044-.006.09-.006.019-.027.031-.027.076-.033.032 0 .052-.02.065-.033.038-.007.05-.007.09-.02.025-.013.05-.013.096-.013a.133.133 0 0 1 .07-.026c.045-.014.097-.02.148-.027.006 0 .058-.013.07-.013.04-.02.078-.02.129-.026.02 0 .02 0 .058-.007.032 0 .07-.02.096-.02.032 0 .07 0 .083-.013.02 0 .071-.013.103-.013h.064c.052-.006.071-.006.116-.006.032-.007.058-.007.07-.007.052 0 .078-.02.116-.02h.449c3.095 0 5.097 2.258 5.097 5.61v21.543zm-1.624-29.806h-6.958s-7.46 0-7.46 7.262v23.446c0 7.354 7.46 7.262 7.46 7.262h6.958c.321 0 6.965-.072 7.421-6.531.032-.23.045-.481.045-.731v-23.446c0-7.262-7.466-7.262-7.466-7.262zm30.51-.617h-6.953s-7.465 0-7.465 7.274v23.455c0 7.359 7.465 7.273 7.465 7.273h7.152c0-.013 0-.013.012-.013h.116c.006 0 .02 0 .039-.02.083 0 .205 0 .314-.026h.032c.039 0 .039-.007.052-.007h.057c.039 0 .052 0 .058-.006h.122c.02-.013.045-.013.058-.013.02-.014.038-.014.064-.014h.013c.013 0 .026 0 .051-.006.013 0 .052 0 .064-.027.026 0 .052-.013.058-.013h.013c.282-.033.584-.099.924-.19.026-.02.052-.02.077-.02.033-.007.052-.007.071-.02h.007c.044-.013.064-.02.083-.02.02-.013.058-.013.077-.026h.006c.013-.007.045-.033.084-.04.026 0 .038-.007.064-.02a8.46 8.46 0 0 0 1.329-.56c.026-.02.058-.026.077-.033v-.006c.038-.02.051-.027.07-.053h.033c.012-.013.038-.02.064-.053.032-.006.051-.033.096-.046.026-.013.039-.033.07-.052.412-.257.803-.56 1.17-.93.031-.02.057-.052.076-.072v-.013a.17.17 0 0 0 .064-.073c.026-.026.052-.046.064-.072.02 0 .02-.007.02-.007.025-.026.038-.052.064-.072v-.013c.02-.007.058-.053.083-.073v-.013a1.83 1.83 0 0 1 .052-.072c.019-.033.051-.053.058-.08.006 0 .006-.006.006-.006.026-.033.051-.06.07-.092a5.91 5.91 0 0 0 .623-1.074h.013a.232.232 0 0 1 .045-.099v-.033a.775.775 0 0 0 .045-.086v-.013c.013-.04.038-.079.045-.112l.013-.006c0-.04.013-.06.019-.093 0-.013 0-.013.026-.026 0-.033.019-.06.032-.099.006 0 .006-.006.006-.02.007-.04.02-.059.032-.098v-.033a.525.525 0 0 1 .032-.093v-.032c.013-.033.026-.066.039-.106v-.026c.02-.013.026-.046.032-.092 0-.007 0-.014.006-.033 0-.02.02-.053.02-.1.025-.012.025-.019.025-.032.013-.02.013-.06.013-.099.013 0 .013-.026.013-.026a.335.335 0 0 0 .02-.106s.006-.013.006-.033c0-.026.013-.059.025-.118.045-.23.071-.462.103-.718.026-.29.045-.646.045-.995v-2.958h-5.829v2.293c-.013.052-.013.105-.013.144v.251c0 .04-.013.092-.013.138 0 0-.012.013-.012.04 0 .046-.013.111-.013.17 0 0-.013.014-.013.02a.298.298 0 0 1-.032.145v.053a1.11 1.11 0 0 0-.013.152c-.013.072-.032.112-.032.164 0 .014 0 .027-.02.047 0 .046-.012.085-.012.144 0 0 0 .014-.007.014-.019.059-.038.112-.045.164l-.006.014a.704.704 0 0 1-.051.151v.007a.502.502 0 0 1-.045.164v.033a.35.35 0 0 0-.052.132s-.012.013-.012.04c-.039.092-.077.184-.116.283-.013 0-.013.02-.013.026-.051.086-.096.185-.141.277-.006.007-.006.007-.013.02-.02.059-.026.092-.058.132l-.006.02c-.02.026-.07.072-.077.124l-.007.014a.36.36 0 0 0-.07.125c-.026 0-.026 0-.026.02-.051.079-.096.164-.173.237 0 0 0 .026-.013.026a3.269 3.269 0 0 1-.193.25h-.006c-.045.047-.07.086-.11.106a.588.588 0 0 1-.102.125c-.038.04-.083.08-.109.112-.077.08-.154.138-.244.21h-.013c-.07.08-.154.126-.237.192 0 0-.013 0-.013.013a.691.691 0 0 0-.116.073 4.899 4.899 0 0 1-1.996.737c-.045.007-.09.007-.116.007-.25.026-.5.066-.75.066-3.114 0-5.123-1.64-5.123-5.62V204.31c0-.336.025-.659.057-.942l.02-.211c.07-.593.192-1.113.366-1.588.025-.033.05-.053.05-.086.097-.243.213-.454.341-.672.058-.079.11-.164.16-.243v-.027c.033-.02.058-.059.09-.105v-.013a.635.635 0 0 0 .097-.125h.019c.026-.033.045-.08.064-.112h.013c.173-.191.347-.363.54-.501.019-.007.019-.007.025-.007a.21.21 0 0 1 .103-.072c0-.02.019-.027.025-.046.032-.007.058-.033.097-.06 0-.013.012-.013.032-.013.032-.026.058-.052.096-.06 0 0 .013-.019.026-.019a.321.321 0 0 0 .102-.072v-.007c.142-.066.276-.118.398-.178 0 0 .013-.013.026-.013a.262.262 0 0 0 .09-.053.237.237 0 0 0 .051-.006c.032-.013.077-.04.097-.04.038 0 .051-.013.064-.013.032-.026.051-.026.09-.046.019 0 .045-.007.057-.007a.311.311 0 0 1 .103-.033.18.18 0 0 0 .077-.026c.02-.007.052-.007.077-.02.02-.013.058-.013.077-.013.045 0 .064-.026.09-.026.045-.013.07-.027.122-.027a.314.314 0 0 0 .103-.04c.045 0 .064 0 .09-.006.032 0 .07 0 .09-.006.032 0 .064-.02.102-.02.032 0 .058 0 .084-.013.025 0 .064-.013.09-.013h.083c.045-.007.064-.007.096-.007.032-.007.065-.007.084-.007.045 0 .07-.02.109-.02h.449c3.082 0 5.11 2.26 5.11 5.614v2.049h5.829v-3.044c0-7.274-7.46-7.274-7.46-7.274m123.952 22.831c0-6.476-3.042-6.944-9.904-6.944-4.757 0-6.298-.171-6.298-4.309l-.026-3.735c0-.25.007-.5.026-.731v-.12c.02-.493.077-.948.193-1.363.057-.21.109-.408.199-.593 0-.02.025-.046.025-.072 0 0 0-.007.02-.02.006 0 .006-.033.019-.04.013 0 .013-.013.013-.026 0-.02.006-.02.025-.04 0 0 .007-.013.007-.026s.013-.013.025-.033c0-.02.013-.02.013-.026.013-.013.013-.026.013-.033 0 0 .007-.013.007-.033.025 0 .025-.026.032-.04 0-.006.025-.02.025-.026.007 0 .026-.033.026-.04v-.006c.02-.02.02-.033.051-.053.007 0 .007-.02.013-.02 0-.026.013-.026.026-.046 0 0 .013-.02.032-.026 0-.013.006-.026.006-.026.013-.013.026-.02.026-.02.013-.026.013-.026.026-.033 0-.02.013-.02.019-.026.006-.02.006-.02.026-.027 0 0 0-.013.019-.033 0-.013.02-.013.02-.02.006 0 .025-.013.038-.026a.165.165 0 0 0 .032-.04c0-.012 0-.012.006-.012.026-.014.039-.033.052-.04 0-.02.025-.026.038-.026a.073.073 0 0 1 .013-.027c.006-.013.026-.026.026-.026.012-.007.025-.02.038-.02.007-.013.026-.02.032-.02.013-.02.013-.02.013-.033 0 0 .02 0 .032-.02 0 0 .032-.006.039-.026.013-.013.019-.013.038-.02 0-.013.02-.026.02-.026s.025-.006.025-.026c.026-.007.026-.007.052-.026 0-.014 0-.014.012-.02.026 0 .052-.027.065-.033.012 0 .025-.02.032-.02a.048.048 0 0 1 .032-.013c.019-.013.032-.013.032-.02.013-.013.026-.013.051-.013 0-.02.007-.026.02-.026.012-.014.032-.014.044-.027.02-.013.02-.013.026-.013.006-.007.039-.007.039-.02.019 0 .019-.02.025-.026.045 0 .058 0 .058-.013s.02-.013.039-.013c.019-.014.032-.02.05-.02.014-.02.027-.02.027-.027.025-.02.05-.02.077-.026.019-.013.019-.013.032-.013.006-.013.019-.02.051-.02h.039c.006-.013.032-.013.032-.013.013-.026.025-.026.038-.026.032-.02.032-.02.052-.02.012-.007.032-.007.044-.007.013 0 .033-.02.058-.026.007 0 .02-.007.039-.007.013 0 .032 0 .045-.02.013-.013.032-.013.032-.013.025-.006.045-.006.083-.02.007 0 .013-.013.045-.013.007 0 .045 0 .077-.026h.02c.019-.013.044-.013.064-.026h.045c.019-.007.025-.007.07-.02 0 0 .013 0 .039-.02h.058c.019-.006.019-.006.032-.006h.07c.026 0 .026-.02.045-.02.013 0 .058 0 .064-.013.026 0 .032 0 .039-.014.032 0 .07 0 .096-.006h.039c.025-.007.064-.007.09-.026h.032c.045 0 .064 0 .083-.02h.18c.006-.02.045-.02.058-.02.025-.013.045-.013.064-.013h.257c.045-.02.07-.02.115-.033h.179c.046 0 .065 0 .09-.013h.148c.013 0 .033 0 .045-.013h.585c4.827 0 5.437 2.464 5.45 5.468l-.013 1.996 5.27-2.826v-.685c0-6.602-6.265-6.609-6.265-6.609h-8.172s-.045.007-.058.007h-.038c-.052 0-.103 0-.174.013h-.077c-.141.013-.36.027-.584.066-.141.013-.276.02-.417.053-.084.026-.16.033-.225.04-.167.032-.308.072-.462.105-.058.006-.116.04-.193.046-.192.053-.398.132-.648.19-.058.027-.11.047-.167.073-.231.08-.494.172-.732.303h-.025a.772.772 0 0 1-.11.047c-.006.02-.032.026-.051.026l-.083.046c-.026 0-.045.026-.058.026-.02.014-.052.033-.077.033-.02.02-.052.04-.058.053-.013.02-.045.026-.058.026a.458.458 0 0 0-.083.06c-.026.006-.039.006-.052.02a.196.196 0 0 0-.09.059c-.006 0-.012 0-.012.006a9.23 9.23 0 0 0-.713.514v.013c-.051.04-.064.06-.109.1h-.013c-.038.032-.064.072-.109.098a5.166 5.166 0 0 0-.79.988v.013c-.032.047-.057.086-.077.106 0 .013-.019.02-.019.04a.274.274 0 0 1-.064.118c0 .013 0 .026-.02.04-.019.04-.031.065-.038.118-.013.007-.025.013-.045.046a.318.318 0 0 1-.051.106c0 .02-.007.033-.007.033-.019.052-.025.085-.064.138 0 .007 0 .02-.019.026-.038.145-.09.284-.128.429-.013.006-.026.04-.026.046a.287.287 0 0 1-.039.112c0 .04 0 .059-.012.085a.216.216 0 0 0-.026.119c0 .013-.006.046-.013.086-.006.02-.006.059-.02.092 0 .033-.018.072-.018.105-.007.04-.007.066-.013.092-.013.04-.013.073-.026.112v.093c-.02.046-.02.092-.032.131 0 .02-.013.053-.013.08v.138c0 .02-.006.06-.006.086-.013.052-.013.098-.013.158v.079c0 .072-.02.138-.02.224v5.798c0 5.178.212 6.865 7.383 6.865 5.482 0 8.859.131 8.859 5.007v5.778c-.013.158-.013.323-.013.48v.034c0 .158 0 .316-.006.467v.04c-.007.152-.007.29-.007.441v.033c-.026.145-.032.284-.058.422v.033c-.012.125-.032.257-.045.402 0 .013-.006.013-.006.013a2.204 2.204 0 0 0-.07.382v.02a2.41 2.41 0 0 1-.097.35v.019c-.032.125-.064.224-.096.336v.033c-.058.099-.09.19-.135.29 0 .013-.02.013-.02.013a1.31 1.31 0 0 1-.121.296v.007c-.07.099-.122.178-.18.263-.006 0-.006.007-.006.007-.065.105-.135.178-.193.25h-.006c-.071.1-.148.172-.206.231l-.013.02a4.232 4.232 0 0 1-.25.184v.013c-.096.073-.199.112-.282.165l-.007.013c-.058.033-.103.046-.148.073-.558.283-1.264.474-2.163.547h-.07c-.29.02-.623.033-.963.033-4.995 0-5.605-2.484-5.605-6.846l-.012-2.708-5.264 2.3.012 4.137c0 5.805 6.85 5.805 6.85 5.805h8.217c.25 0 5.996-.152 6.413-6.714.013-.244.013-.494.013-.764v-8.157zm-72.048 7.585l-.045-7.689v-1.377l2.003.007c4.455-.297 8.557-.903 13.186-2.675-3.614-1.502-8.21-2.2-13.186-2.55h-2.003l.045-6.292a.988.988 0 0 1 0-.388c0-.047.013-.08.013-.119a.82.82 0 0 1 .052-.336c0-.046.012-.105.038-.145.013-.099.032-.21.058-.323.032-.066.038-.125.07-.184.007-.06.033-.119.052-.178.18-.527.404-1.035.603-1.43.013-.026.02-.04.039-.085 0-.014.019-.04.025-.06.065-.132.122-.244.187-.323v-.026c.025-.007.025-.02.038-.04 1.611-1.785 4.211-1.666 4.211-1.666l9.899-.027c-.757-4.065-7.42-3.36-7.42-3.36h-6.144c-.032 0-.174 0-.321.013h-.045a6.93 6.93 0 0 0-.642.086h-.013a8.967 8.967 0 0 0-.854.152h-.019a6.627 6.627 0 0 0-1.027.303h-.007c-1.258.421-2.644 1.199-3.614 2.576-.757 1.06-1.264 2.503-1.264 4.427l.051 10.72-.051 12.155c-.032 7.399 7.87 7.32 7.87 7.32h6.08s6.746.724 7.426-3.44l-10.046.053s-5.245.323-5.245-5.1m19.478-29.85v4.919h9.282l-.034 31.38 5.765 3.808.013-35.188h2.128c4.674-.25 7.666-.953 11.09-2.46-3.424-1.59-6.416-2.143-11.09-2.452l-17.154-.007zm-33.089.087h-5.398l-11.408 16.589V196.47l-5.694-3.767v43.986l5.694-3.754v-18.912l12.069 19.588h6.214l-12.903-20.92zM54.14 226.463v.375c0 .013 0 .013-.013.02 0 .06 0 .125-.02.178v.052c-.006.053-.006.08-.006.125v.046c-.02.053-.02.132-.02.165v.033a.594.594 0 0 0-.019.138c0 .027-.019.046-.019.053 0 .06-.013.105-.025.165v.013c-.013.046-.013.092-.033.151v.033c0 .053-.025.112-.038.151v.007a.744.744 0 0 1-.045.171s0 .027-.013.04c0 .026-.026.072-.026.118-.006 0-.006.02-.006.027-.02.046-.045.112-.064.144 0 .027 0 .033-.007.033-.012.046-.012.093-.038.132-.013.013-.013.026-.013.04-.013.046-.038.092-.051.144 0 0-.007.007-.007.027a2.326 2.326 0 0 0-.045.105c-.019.02-.019.026-.025.046-.039.092-.097.178-.129.264-.006.013-.006.026-.006.026a.412.412 0 0 1-.077.132v.006c-.039.053-.039.099-.077.138 0 .014 0 .027-.02.033-.025.027-.044.066-.076.106v.013c-.039.046-.052.099-.077.131-.007 0-.007 0-.007.007-.045.046-.064.08-.096.119 0 .006-.007.02-.007.02-.077.078-.122.17-.192.243 0 .007-.013.007-.013.013-.039.04-.064.073-.11.092v.013c-.038.04-.07.086-.102.119 0 .007-.013.007-.013.007a.478.478 0 0 0-.096.105h-.013a.416.416 0 0 0-.103.112h-.019c-.026.033-.07.06-.096.092-.02 0-.02 0-.02.013-.083.053-.16.125-.25.178-.013 0-.019.02-.019.02-.026.026-.077.04-.122.066a4.712 4.712 0 0 1-1.984.73.3.3 0 0 1-.115.027c-.25.04-.494.052-.745.052-3.113 0-5.122-1.626-5.122-5.61v-21.575c0-.33.019-.645.044-.935.007-.073.02-.138.033-.204.077-.593.186-1.14.378-1.587.013-.04.02-.079.026-.105.096-.237.218-.448.347-.665a3.67 3.67 0 0 1 .256-.389c.02-.04.058-.079.084-.118.192-.244.424-.435.642-.62 0-.012.013-.012.013-.012.032-.033.077-.053.109-.08.019 0 .025-.02.025-.02.033-.012.065-.039.122-.071v-.007c.033-.026.077-.053.103-.08l.032-.006c.167-.092.328-.184.507-.263 0 0 .007-.007.013-.007.032-.013.084-.04.11-.046.012 0 .025-.013.05-.013a.182.182 0 0 1 .09-.026c.026-.013.04-.013.052-.04.045 0 .058-.02.115-.026 0 0 .026 0 .045-.02.026-.013.071-.013.09-.033.032-.013.058-.013.077-.02.02 0 .052-.013.09-.026.013 0 .058 0 .07-.013a.366.366 0 0 1 .09-.02c.052-.013.078-.013.11-.02.051-.013.077-.032.122-.032.045-.007.07-.007.109-.007.026-.007.045-.007.07-.026.039 0 .071 0 .084-.013.045 0 .07-.014.096-.014h.103c.026-.006.038-.006.07-.006.033-.007.071-.007.103-.007.032-.02.058-.02.077-.02h.193c.026-.02.083-.02.122-.02h.25c3.088 0 5.117 2.266 5.117 5.617v21.576zm-1.644-29.846h-6.965s-2.073.013-4.038 1.067c-1.746.961-3.428 2.765-3.428 6.202v23.479c0 7.367 7.466 7.269 7.466 7.269h6.965s7.466.098 7.466-7.27v-23.478c0-7.269-7.466-7.269-7.466-7.269zm31.524 3.51l-.025 14.452-.038 11.857c0 2.779-1.092 4.175-2.196 4.866-1.13.691-2.221.691-2.221.691h-1.643s-4.18-.474-4.167-5.557v-11.969l.065-14.275-5.861-3.627v18.112l-.02 12.918c0 6.67 6.985 6.992 6.985 6.992h7.28c.224 0 7.292-.362 7.606-6.564.026-.145.026-.296.026-.454l.006-14.018s-.102-16.789-.102-16.98l-5.694 3.556zm105.69 32.883l.045-18.183.013-3.195 16.652 22.567-.051-28.342c-.289-5.958-1.188-9.797-2.414-14.135-1.444 5.539-2.253 8.82-2.503 14.135l.013 12.606-1.349-1.805-15.342-20.434.026 40.455 4.91-3.668zm-80.235-20.752c-4.732 0-6.304-.172-6.304-4.322l-.007-3.736c0-.25.007-.487.007-.725 0-.046.006-.098.006-.131.032-.494.084-.936.2-1.344v-.007c.05-.224.115-.408.204-.593.013-.026.02-.053.026-.072l.013-.033s.006-.007.006-.033c.02-.013.02-.02.033-.02 0-.013.012-.026.025-.04 0-.013.007-.026.007-.026.006-.006.006-.04.019-.04s.013-.013.02-.026v-.04c.012 0 .012 0 .025-.026 0-.013.02-.02.02-.033 0-.006.012-.006.018-.02.007-.02.007-.026.026-.032.013-.027.02-.04.02-.053a.092.092 0 0 0 .025-.026c.013-.014.032-.02.038-.027 0-.013 0-.033.02-.033 0-.006.006-.02.013-.033.006-.013.006-.013.025-.02.007 0 .007-.026.02-.032l.012-.02.039-.033.02-.02c0-.02.006-.033.018-.04 0 0 .02 0 .02-.012.012-.014.019-.02.032-.033a.434.434 0 0 1 .102-.086v-.007c0-.02.02-.026.026-.04.013 0 .013-.012.02-.012 0-.007.012-.02.038-.02 0-.02.02-.02.02-.026.012-.02.018-.02.031-.033 0 0 .013 0 .013-.02.026 0 .039-.007.039-.02.006-.013.019-.013.019-.013a.224.224 0 0 0 .051-.033l.013-.007c.051-.046.103-.072.16-.125.02 0 .026-.013.052-.026 0 0 .013 0 .026-.007.012-.013.025-.013.045-.033.006 0 .012-.006.019-.02a.084.084 0 0 0 .045-.02h.019c.02-.006.02-.006.051-.019 0-.02 0-.02.013-.026.032 0 .045-.014.058-.027h.006c.071-.04.142-.066.212-.099.026-.013.052-.013.064-.013.013 0 .02 0 .032-.013.007 0 .02-.026.045-.026 0 0 .02 0 .026-.02.02 0 .039 0 .045-.007h.051c.007-.013.02-.02.039-.026h.038c.013-.02.045-.02.058-.033.007 0 .013-.006.026-.006.02 0 .038-.014.058-.014 0-.013.019-.013.019-.013.045 0 .09-.026.141-.04.007 0 .013 0 .013-.013h.077c.02-.006.02-.006.039-.02.006 0 .025-.02.057-.02h.032c.02-.006.045-.006.065-.006.006 0 .019-.006.032-.006.019-.02.045-.02.064-.02.026 0 .038 0 .051-.013.013 0 .039-.013.058-.013h.064c.007-.007.02-.007.039-.014h.051c.026-.02.07-.02.11-.02.018-.012.05-.012.07-.012h.038c.026 0 .058 0 .065-.02h.064c.019-.013.032-.013.064-.013h.115c.02 0 .039 0 .045-.02.033 0 .058 0 .084-.013h.186c.02-.014.064-.014.103-.014.019 0 .025-.013.038-.013h.238c.032 0 .051-.013.064-.013h.135c.032-.013.064-.013.083-.013h.507c4.834 0 5.45 2.464 5.463 5.475l-.013 1.996 5.27-2.813v-.705c0-6.615-6.265-6.615-6.265-6.615h-8.19s-2.235.02-4.205 1.107c-1.51.837-2.864 2.32-2.864 4.961v5.804c0 5.179.2 6.879 7.376 6.879 5.495 0 8.878.138 8.878 5.014v6.292a5.82 5.82 0 0 0-.019.467v.033c-.006.158-.032.303-.038.448v.033c-.007.158-.02.297-.039.422v.033a1.48 1.48 0 0 1-.064.408v.013c-.013.139-.032.25-.064.382v.014c-.026.131-.064.257-.09.369v.02c-.007.098-.058.217-.103.322v.02c-.038.105-.083.21-.135.31-.038.118-.083.204-.128.303v.013c-.064.085-.135.178-.186.277-.07.085-.129.158-.193.25-.077.079-.16.151-.237.224-.077.079-.167.138-.25.21a3.511 3.511 0 0 1-.43.251c-.56.29-1.272.468-2.17.54h-.058c-.296.033-.617.033-.976.033-4.988 0-5.598-2.47-5.598-6.852l-.032-2.707-5.251 2.305.006 4.138c0 5.81 6.87 5.81 6.87 5.81h8.248l.007-.006h.173c.013 0 .013-.013.02-.013h.076s.007-.02.026-.02h.128c.007 0 .02-.006.02-.006h.012c1.24-.139 4.36-.876 5.502-4.395.013-.052.026-.085.026-.131 0-.007 0-.007.019-.007 0-.033.02-.066.032-.099v-.02c.013-.04.026-.079.032-.118.026-.046.026-.08.032-.112v-.013c.026-.053.026-.093.032-.132a.973.973 0 0 1 .039-.125c.013-.053.032-.086.032-.139v-.013a.44.44 0 0 1 .026-.118v-.007c0-.046.006-.099.019-.152.013-.032.013-.092.025-.131a9.39 9.39 0 0 0 .103-1.022 7.79 7.79 0 0 0 .032-.698v-8.163c0-6.49-3.055-6.957-9.943-6.957m14.054-15.222v4.833h8.814l-.02 30.899 5.463 3.74.013-34.639h2.022c4.436-.23 7.293-.942 10.522-2.41-3.23-1.573-6.086-2.12-10.515-2.403l-16.3-.02zm36.301 7.637c0-.336.019-.658.05-.942.014-.066.02-.138.026-.204.071-.6.2-1.146.386-1.594.019-.04.019-.053.025-.08.11-.25.212-.46.353-.678.02-.013.032-.053.039-.099.02-.013.02-.026.045-.046.013-.02.019-.06.045-.072.032-.007.032-.04.038-.053.013-.02.039-.06.058-.086a.375.375 0 0 1 .051-.06.27.27 0 0 1 .052-.065c.019-.026.032-.033.045-.046.019-.02.032-.066.057-.086.02-.013.026-.033.045-.04.026-.032.045-.059.065-.085a.103.103 0 0 1 .044-.026c.084-.086.18-.178.276-.257 0-.013.02-.02.033-.02a.707.707 0 0 1 .07-.066.37.37 0 0 1 .052-.046c.025-.02.038-.033.077-.053a.245.245 0 0 0 .038-.046c.039-.013.058-.033.09-.053.013-.013.026-.013.051-.032.026-.014.052-.04.084-.047.02 0 .032-.033.051-.04.026-.006.045-.032.084-.052.019-.006.038-.006.057-.02.026-.013.045-.033.077-.052.02-.007.033-.02.052-.02.051-.02.109-.06.173-.08.026-.012.045-.026.051-.026a.182.182 0 0 0 .09-.052.106.106 0 0 0 .065-.02c.044-.013.05-.026.09-.026.019 0 .064-.014.07-.014.026-.026.039-.026.09-.046.02-.006.051-.006.083-.026.013 0 .039-.007.07-.007.033-.02.046-.02.078-.033.032-.006.058-.006.077-.02.032-.012.064-.012.103-.012.013-.027.051-.027.07-.027.045-.013.097-.026.142-.033.025 0 .038-.013.057-.013.052-.02.09-.02.129-.026.032 0 .058 0 .064-.007.058 0 .09-.02.122-.02.026 0 .038 0 .064-.013.039 0 .084-.013.11-.013h.076c.039-.007.077-.007.097-.013h.083c.045-.02.09-.02.11-.02h.262c.058-.013.129-.013.186-.013 3.101 0 5.123 2.273 5.123 5.626v21.577c0 .06 0 .132-.013.185v.244c0 .046-.006.105-.012.17v.027c-.007.06-.007.099-.007.145 0 .027-.013.027-.013.046v.165c0 .02 0 .02-.019.026-.006.046-.006.093-.02.152v.04c-.019.105-.05.21-.063.322 0 .02 0 .033-.013.033-.007.066-.02.106-.032.152l-.007.013c-.013.06-.02.125-.032.165v.033c-.026.04-.026.098-.051.138 0 0 0 .013-.007.026-.025.046-.038.1-.051.152 0 0 0 .006-.013.006a.312.312 0 0 1-.038.152c0 .013-.007.013-.007.026a2.103 2.103 0 0 0-.115.303s-.007 0-.007.013a2.103 2.103 0 0 0-.154.29c-.02.066-.051.106-.077.145-.038.1-.109.191-.16.29-.058.092-.11.185-.187.277-.077.086-.14.165-.211.244a3.056 3.056 0 0 1-.572.547v.02c-.077.065-.16.118-.25.19a.832.832 0 0 1-.135.08 4.767 4.767 0 0 1-1.983.73c-.052.014-.065.014-.135.02a3.862 3.862 0 0 1-.739.053c-3.12 0-5.129-1.627-5.129-5.62v-21.577zm-5.823-.994v23.48c0 7.366 7.472 7.274 7.472 7.274h6.959s7.472.092 7.472-7.273v-23.481c0-7.28-7.472-7.28-7.472-7.28h-6.959s-7.472 0-7.472 7.28zM26.694 191.17c-1.483 3.864-2.17 7.255-2.44 11.407l-.064 10.114H12.044l-.057-10.114c-.264-4.152-.963-7.543-2.44-11.406-1.316 3.87-2.227 7.707-2.433 11.406L6.91 237.32l5.264-2.945-.09-16.293-.013-1.37h12.1l-.096 17.663 5.245 2.945-.192-34.743c-.219-3.7-1.117-7.536-2.433-11.406" fill="#D31145"/><path d="M338.72 259.138v.04c-.014.032-.014.058-.014.091 0 .013-.013.026-.013.052v.072c-.006.02-.006.046-.006.06v.084c-.027.013-.027.026-.027.046 0 .033-.006.052-.006.098-.013 0-.013.026-.013.04 0 .019-.02.052-.02.09 0 .007-.013.014-.013.04-.013.02-.013.052-.026.085v.046c-.007.033-.026.059-.026.098-.007.013-.007.02-.007.02a2.477 2.477 0 0 1-.033.104c0 .013 0 .026-.013.033-.013.046-.026.072-.039.118 0 .006-.013.013-.013.013-.007.046-.026.085-.04.117v.02c-.091.203-.202.406-.32.628-.026.046-.06.092-.079.137-.13.197-.295.406-.445.602-.013.02-.04.033-.053.059-.144.19-.32.36-.504.556a1.347 1.347 0 0 0-.118.13c-.203.19-.419.367-.641.576-.014 0-.027.007-.04.007-4.472 3.65-14.668 6.665-28.518 8.764-.177.02-.354.053-.537.066-.413.065-.825.124-1.238.202-.295.033-.596.072-.884.112-.373.052-.727.104-1.094.143-.412.066-.85.131-1.296.177-.269.04-.524.065-.773.092-.694.098-1.388.17-2.095.248-.243.046-.485.066-.74.098-.511.06-1.029.105-1.546.17-.255.033-.517.053-.805.085-.518.053-1.048.098-1.592.164-.235.02-.465.046-.713.059-.767.098-1.565.157-2.338.216l.32-26.189.033-1.557c25.395 3.27 46.324 6.92 46.324 12.95v.138zM272.192 275c-4.643.144-9.43.242-14.321.242-5.075 0-10.046-.098-14.839-.262l.19-5.997c-.02-.968-.046-1.93-.066-2.93 0-.491-.006-.988-.026-1.485 0-.517 0-1.02-.013-1.544v-1.543c-.02-.537-.02-1.047-.02-1.596v-1.42c.02-.595.02-1.196.02-1.818.013-.36.013-.739.013-1.099 0-.765.02-1.504.026-2.263 0-.196 0-.405.007-.608.177-11.76.668-24.88.877-38.602.007-.517.02-1.014.02-1.53 12.606 1.294 28.853 4.735 28.597 13.787L272.192 275zm-29.566-109.09c17.694 1.687 33.234 5.926 34.517 15.468.013.138.04.269.052.406.014.04.014.091.014.137.013.098.032.177.032.268.007.06.007.112.02.164 0 .072.013.157.013.242 0 .046.013.098.026.176 0 .06.013.144.013.223a.728.728 0 0 1 .013.183c.007.065.033.124.033.19v.399c.007.065.007.124.007.19.013.078.013.124.013.196v.392c0 .059.013.105.013.183v.373c0 .046-.013.118-.013.19v.346c0 .164-.013.347-.02.517v.28c0 .04 0 .079-.026.111-.007.085-.007.15-.007.23-.013.045-.013.097-.013.137-.013.078-.026.144-.039.215v.138a1.15 1.15 0 0 0-.026.222c0 .04-.007.085-.007.124-.02.066-.026.15-.032.236 0 .026-.014.065-.014.105-.013.072-.02.163-.039.215 0 .053-.013.072-.013.118 0 .092-.026.157-.033.242 0 .026-.006.066-.006.092-.013.072-.046.17-.066.255 0 .02-.006.04-.006.065a1.159 1.159 0 0 1-.053.262v.013a15.132 15.132 0 0 1-.438 1.746c-.066.21-.131.386-.184.589a9.12 9.12 0 0 1-.393 1.092c-.091.21-.183.425-.275.648-.124.307-.288.608-.425.915-.131.21-.23.439-.347.654-.17.275-.341.556-.505.838-.124.202-.275.418-.412.634-.17.262-.354.51-.55.765-.138.21-.302.406-.446.602-.21.255-.425.484-.615.726a9.734 9.734 0 0 0-.491.563c-.243.255-.498.477-.753.719-.158.157-.308.314-.472.47h-.006c-.42.406-.852.78-1.323 1.139a.686.686 0 0 1-.144.13 41.24 41.24 0 0 1-1.205.903c-.085.06-.157.112-.236.164-.393.294-.812.562-1.225.824a1.437 1.437 0 0 0-.222.137c-.478.288-.97.589-1.474.857l-.006.007a38.287 38.287 0 0 1-3.242 1.609 1.033 1.033 0 0 0-.17.085c-.484.202-.97.399-1.447.608-.118.04-.249.072-.347.13-.445.17-.89.328-1.336.498-.124.04-.242.091-.373.137-.452.164-.917.314-1.395.452-.079.045-.184.078-.301.117a89.975 89.975 0 0 1-3.445.994c-.026 0-.065 0-.078.014-.524.143-1.068.268-1.592.392a5.59 5.59 0 0 1-.412.092c-.413.091-.838.202-1.251.287-.164.033-.327.053-.498.092-.393.078-.792.15-1.178.242a3.397 3.397 0 0 0-.492.091c-.412.072-.799.138-1.198.216-.144.013-.288.04-.432.06-.511.084-1.054.17-1.565.248.15-14.16-.079-28.85-1.31-43.26-.059-.51-.092-1.026-.144-1.53zm-19.089 107.88a91.31 91.31 0 0 1-1.414-.13h-.02c-15.736-1.505-28.453-3.997-36.18-7.195-.007-.014-.027-.014-.027-.014-.386-.163-.779-.333-1.139-.49-.033-.02-.072-.033-.098-.059a17.78 17.78 0 0 1-1.002-.47c-.046-.02-.079-.04-.138-.066-.294-.15-.582-.301-.857-.458-.072-.02-.131-.079-.197-.118-.23-.124-.484-.281-.72-.431-.06-.033-.144-.079-.21-.144-.222-.118-.425-.269-.628-.406-.086-.052-.151-.111-.23-.17a6.254 6.254 0 0 1-.51-.399c-.086-.059-.158-.13-.236-.196a7.719 7.719 0 0 1-.42-.373c-.078-.078-.137-.15-.228-.229-.099-.124-.223-.242-.321-.36-.085-.078-.138-.176-.216-.274a5.931 5.931 0 0 1-.256-.314c-.072-.105-.118-.216-.177-.308-.059-.104-.124-.202-.183-.307-.065-.105-.105-.229-.15-.34-.04-.098-.086-.183-.112-.275-.033-.13-.059-.275-.111-.399-.007-.065-.026-.15-.04-.229a2.897 2.897 0 0 1-.058-.634c0-.164.013-.327.058-.497.014-.066.033-.131.04-.197.032-.085.059-.156.098-.242.079-.209.19-.425.314-.608l.007-.02c3.51-5.245 24.537-8.26 45.623-11.426-.02 7.41-.124 15.501-.367 24.403l.105 3.375zm68.857-27.941l.269-24.076a23.934 23.934 0 0 0-.059-1.223c-.02-.118-.02-.242-.046-.36a14.871 14.871 0 0 0-.105-.824 3.61 3.61 0 0 1-.059-.353c-.091-.295-.137-.576-.216-.857-.02-.065-.032-.144-.065-.216a6.758 6.758 0 0 0-.354-.981 4.896 4.896 0 0 1-.065-.19c-.118-.255-.243-.51-.36-.745a1.177 1.177 0 0 1-.144-.242c-.125-.23-.269-.432-.407-.648-.032-.065-.091-.137-.13-.203a9.683 9.683 0 0 0-1.29-1.49c-.027-.053-.092-.105-.164-.17-.184-.158-.367-.328-.557-.478-.072-.06-.157-.118-.223-.177-.21-.157-.432-.32-.641-.477a.517.517 0 0 1-.15-.092 10.81 10.81 0 0 0-.833-.504 1.76 1.76 0 0 0-.21-.124c-.215-.118-.425-.235-.667-.34-.111-.059-.223-.098-.32-.157a9.206 9.206 0 0 0-.616-.255c-.112-.046-.203-.098-.348-.15-.222-.085-.478-.164-.713-.262a11.2 11.2 0 0 0-.557-.17c-.19-.079-.38-.13-.55-.183-.19-.046-.38-.098-.57-.144a2.227 2.227 0 0 0-.386-.092c-.216-.059-.42-.124-.642-.163a1.374 1.374 0 0 0-.203-.04c-3.17-.667-6.529-.804-9.462-.732-2.522.085-4.741.32-6.28.517 4.872-.87 16.836-3.709 25.041-11.42.314-.294.609-.589.91-.896a.237.237 0 0 0 .04-.033 28.909 28.909 0 0 0 2.462-2.89c.072-.092.13-.19.21-.289.19-.28.392-.582.589-.87.098-.143.176-.287.275-.425.183-.28.347-.595.543-.876a9.93 9.93 0 0 1 .243-.471c.275-.49.517-1 .746-1.524.118-.235.23-.464.334-.713.111-.275.21-.523.308-.785.091-.268.196-.556.288-.824.085-.242.17-.49.255-.759.099-.32.177-.673.269-1 .065-.223.124-.445.17-.667.125-.55.236-1.1.334-1.688.026-.196.04-.399.072-.595.072-.412.118-.837.144-1.256.013-.235.04-.484.053-.726a21 21 0 0 0 .052-1.315c.013-.215.02-.425.02-.66a30.42 30.42 0 0 0-.072-2.028c-1.12-16.312-21.532-24.442-55.4-21.185-.57.06-1.12.131-1.677.177-1.604-12.06-4.06-23.742-7.819-34.515-4.715 14.573-7.439 26.071-8.978 36.81-.393.06-.78.118-1.198.197-20.34 3.486-34.635 8.143-34.635 8.143s16.338-1.478 34.975-1.21c-2.095 21.48.112 41.84-.026 80.92-.498-.026-.995-.026-1.48-.046-.046 0-.092-.006-.124-.006-5.54-.164-10.95-.105-16.13.098h-.052c-11.394.503-21.701 1.864-29.815 3.898h-.046c-8.12 2.047-14.099 4.774-16.83 8.005-1.112 1.335-1.715 2.76-1.65 4.232.308 9.203 27.694 17.653 66.14 20.884l1.637 52.155 2.705-35.378c0-.216.013-.4.04-.576.045-.477.137-.863.241-1.19.014-.013.014-.013.014-.026.039-.144.11-.275.163-.386a.231.231 0 0 1 .066-.118.721.721 0 0 1 .144-.229c.02-.04.059-.059.072-.091a1.64 1.64 0 0 1 .196-.223.187.187 0 0 0 .066-.046.565.565 0 0 1 .216-.13c.013-.027.059-.046.092-.046.052-.033.117-.046.183-.066.02 0 .046-.013.078-.013.073-.006.17-.026.276-.006.013 0 .02.006.045.006h.013c.033 0 .066 0 .066.013h.006c.086.02.158.053.236.085h.026l.033.033c.02 0 .026.007.026.007l.033.032c.013 0 .04 0 .04.02.006 0 .019.007.019.007.026.013.04.032.04.039.006 0 .019.013.026.02.013.013.032.032.045.032.013 0 .013.013.033.02 0 .02.026.02.033.032 0 0 .02.007.02.027.026.026.045.045.065.058.007.007.007.027.033.027 0 0 .006.032.026.039 0 .013.013.033.026.033a.277.277 0 0 1 .033.045c0 .007.006.007.026.033.013.013.02.026.04.033 0 .006.006.02.026.032 0 .033.013.04.032.053 0 .013.007.02.007.033.013.032.02.039.04.065 0 .013.006.013.012.026.007.02.02.04.04.059 0 .013.013.026.013.026.02.033.045.079.059.111h.006c0 .033.013.066.033.092 0 0 .013.006.013.02.013.02.02.065.033.071 0 .027 0 .027.006.053.013.006.013.039.033.072 0 .013.006.026.006.032.007.02.007.046.02.066.013.013.013.04.013.04.013.038.026.058.033.097v.033c.013.033.026.059.026.085 0 .013.007.013.007.04.02.038.026.071.039.13.007.046.007.085.02.124 0 .007.02.02.02.04 0 .032.012.065.012.104 0 .007 0 .026.007.046 0 .033 0 .059.007.078 0 .02 0 .053.006.06v.097c0 .013 0 .04.013.053v.45l1.205 46.595 2.868-37.916c-.006-.268.02-.503.033-.745.04-.68.17-1.204.32-1.649a.579.579 0 0 1 .106-.222c0-.04.02-.078.032-.124a4 4 0 0 1 .203-.366c.033-.033.053-.06.086-.099a.636.636 0 0 1 .183-.19.182.182 0 0 1 .065-.084 1.3 1.3 0 0 1 .256-.183c.02-.013.04-.013.072-.02a.665.665 0 0 1 .21-.072c.032-.013.065-.013.098-.013a.879.879 0 0 1 .262 0c.032 0 .052.013.065.013l.013.013c.02 0 .02.007.053.007h.013c.013.013.039.013.052.039.072.013.124.046.177.059 0 .026.013.026.026.026.007.026.007.026.04.033a.063.063 0 0 0 .025.006c.007.013.033.026.033.026.02.026.02.026.033.033.013.02.033.033.033.04.013 0 .026.006.039.006.007.033.02.04.02.059.013.013.026.013.052.039.02 0 .02.006.033.04.02.006.033.025.033.038.026 0 .026.033.039.04 0 .013.02.032.04.032.012.013.019.027.019.04.006.026.013.039.026.045.013.013.013.013.026.04.013.02.026.026.026.058.013.014.033.014.04.027 0 .032.013.052.045.078v.013c.027.033.04.072.053.098 0 0 0 .013.013.026.013.033.033.06.033.086 0 .013.006.026.02.039a.125.125 0 0 1 .026.072c.02.006.02.02.02.045.012.02.012.046.032.066 0 .013 0 .026.006.046.007.026.033.072.04.091v.033c.033.078.059.177.085.262 0 .013.02.026.02.026 0 .032.006.078.006.11.007.014.007.027.007.06.013.02.032.052.039.085v.059a.22.22 0 0 1 .02.098c.006.006.006.032.006.046 0 .045.007.085.007.124 0 .013 0 .02.02.046 0 .039.006.104.012.15v.157c.014.026.014.04.014.059 0 .04 0 .072.013.111v.622l1.322 48.57 2.305-70.998.046-1.406c4.931.183 9.974.255 15.134.255 4.865 0 9.646-.072 14.354-.23l2.312 73.7 1.984-38.57c0-.261.006-.49.033-.706a6.11 6.11 0 0 1 .307-1.55c.02-.007.02-.046.027-.085.026-.066.065-.125.091-.203.053-.118.125-.229.164-.314a.889.889 0 0 1 .118-.183c.072-.098.144-.177.216-.236.04-.026.065-.078.105-.104a.828.828 0 0 1 .334-.177c.032-.033.085-.033.118-.033a.74.74 0 0 1 .248-.02c.027 0 .072.014.112.02.085.007.163.04.249.072.045.02.078.033.11.06.112.078.23.163.322.267.013.013.013.013.02.027.006.013.006.026.026.045 0 .013.02.013.026.013.026.027.026.033.04.066.012.006.012.006.012.02.013.026.033.039.04.058.013 0 .013.013.026.02 0 .006.032.033.039.052.007.02.02.033.02.06.02.025.039.045.045.058.007.02.027.052.027.059 0 .02.013.026.013.046.02.006.033.032.033.045 0 .02.006.046.02.06.006.012.025.032.032.058 0 .02.013.033.013.052.013.014.026.027.04.053 0 .02.006.039.006.046a.45.45 0 0 0 .04.091c0 .007 0 .02.006.033.02.04.02.072.032.118.014 0 .014.026.014.026 0 .026.006.072.026.104 0 .013.02.02.02.046v.072c.026.033.026.046.026.052.006.027.026.072.026.099 0 .026 0 .032.013.065v.125c.013.045.013.09.046.137v.02c.006.038.02.104.02.15.006.006.006.02.006.045 0 .033 0 .079.013.112v.058c0 .033 0 .079.013.105v.072c0 .033.02.059.02.098v.412l1.984 54.09 2.036-46.719a5.801 5.801 0 0 1 .374-1.962c.059-.157.124-.281.183-.412.026-.039.066-.078.079-.118.052-.098.104-.17.163-.255a.673.673 0 0 0 .099-.091c.078-.092.157-.17.242-.236.013-.013.026-.02.033-.026.085-.072.196-.111.281-.157.026-.013.072-.026.085-.039.099-.026.164-.046.223-.052.04 0 .072-.013.098-.013.112 0 .197 0 .321.013.007.006.04.006.066.02h.02c.012 0 .025.006.039.006 0 0 0 .013.02.013.104.04.222.091.346.157v.013l.06.04s.006.006.019.006c.026.006.04.032.046.032.013.02.013.027.026.027.02.013.026.026.033.032.013.013.013.033.045.033 0 .026.02.026.04.04.006 0 .006.012.02.019.045.046.091.098.143.157.014.006.02.033.02.04.026.012.033.025.046.045 0 .006.013.02.02.026.013.026.032.04.032.052.013.027.027.027.04.053.02.006.026.039.026.045.006.014.026.04.026.053.013.02.013.026.046.04.013.025.013.032.026.045.007.026.007.04.013.052.007.033.02.059.033.072.013.013.013.026.013.046a.28.28 0 0 1 .059.105.04.04 0 0 0 .026.032c0 .04.013.066.026.085.013.013.013.033.02.066.02.013.02.032.026.045.013.027.013.053.02.066 0 .026.013.046.04.065v.066c.012.026.012.059.025.078.013.013.013.033.013.059 0 .026.02.052.033.085v.052c.02.033.02.079.033.105v.026c.02.053.033.111.04.164.019.026.019.032.019.045v.105c0 .026.006.046.006.079.02.013.02.052.033.085v.065c.007.033.007.072.02.098v.183a.201.201 0 0 1 .006.066c0 .039.013.078.013.11v.25l1.67 61.932 2.443-103.988.026-1.19v-.073c31.4-2.596 55.852-8.614 64.103-15.684.19-.15.36-.32.53-.484.08-.085.177-.15.256-.229.144-.17.295-.314.439-.47.065-.092.15-.177.216-.269.13-.157.249-.3.373-.445.124-.196.255-.38.367-.582.078-.144.15-.281.235-.418a5.57 5.57 0 0 0 .21-.458c.059-.105.079-.203.118-.301a3.51 3.51 0 0 0 .137-.51c.04-.085.053-.183.066-.269.052-.255.072-.51.072-.765-.465-10.098-30.87-17.895-66.664-16.207z" fill="#D31145"/></g></svg>