<svg width="512" height="512" viewBox="0 0 512 512" xmlns="http://www.w3.org/2000/svg"><title>los-angeles-clippers</title><g fill="none" fill-rule="evenodd"><path d="M52.114 234.477c-4.08 3.717-6.12 8.553-6.113 14.415V355.08c.004 5.98 2.038 10.863 6.114 14.583 4.066 3.73 9.092 5.28 15.04 4.78 9.512-.797 19.034-1.536 28.566-2.213v-20.07c-9.532.483-19.054 1.01-28.566 1.58V250.233c9.512.57 19.034 1.098 28.566 1.583v-20.072a2239.592 2239.592 0 0 1-28.566-2.213c-5.945-.502-10.966 1.11-15.04 4.947m69.085-1.068c-7.08-.422-14.16-.88-21.234-1.37v139.892a2273.229 2273.229 0 0 1 46.383-2.738V349.99c-8.388.296-16.773.62-25.15.978V233.41m29.408 135.58c7.216-.336 14.44-.642 21.663-.912V235.895c-7.224-.27-14.447-.576-21.663-.914v134.01M212.3 292.71c-4.822-.017-9.644-.03-14.463-.05v-37.303c4.82.09 9.638.17 14.462.24v37.112zm0-55.67c-11.93-.237-23.856-.568-35.77-.992v131.876c7.1-.252 14.203-.472 21.307-.66v-55.953l14.462-.047c5.887-.015 10.883-1.815 14.992-5.378 4.212-3.563 6.34-7.937 6.332-13.13v-36.928c0-5.093-2.12-9.434-6.332-13.05-4.106-3.706-9.11-5.62-14.993-5.737zm158.548 16.9c4.812-.17 9.623-.352 14.43-.54-.003 12.953-.003 25.913 0 38.87-4.807.037-9.618.073-14.43.106V253.94zm29.37 52.197c4.202-3.778 6.302-8.472 6.304-14.052v-39.603c.003-5.468-2.098-10.013-6.305-13.555-4.094-3.666-9.067-5.29-14.94-4.966-11.897.664-23.8 1.233-35.714 1.707v132.638c7.1.283 14.195.6 21.285.95V312.17a7451.564 7451.564 0 0 1 17.67 58.022c7.085.404 14.165.844 21.244 1.313a6392.823 6392.823 0 0 0-18.556-60.562c3.354-.84 6.383-2.38 9.01-4.806zm-126.526-13.371c-4.824.002-9.646.007-14.472.007V255.92c4.823-.003 9.648-.013 14.472-.038v36.884zm0-55.326c-11.936.08-23.868.07-35.803-.035v129.163c7.11-.063 14.218-.093 21.33-.09V311.2c4.823 0 9.648.004 14.472.01 5.885.002 10.884-1.765 14.995-5.324 4.225-3.556 6.33-7.945 6.33-13.153V255.71c0-5.11-2.113-9.42-6.33-12.93-4.114-3.613-9.107-5.38-14.995-5.337zm25.588 129.41c15.517.28 31.025.713 46.518 1.31v-18.91c-8.394-.23-16.794-.425-25.196-.59v-37.338c4.818.02 13.418.04 18.232.06.003-6.264.003-12.53 0-18.794-4.814.023-13.414.044-18.232.063v-37.337c8.405-.164 16.802-.36 25.196-.59v-18.91a2295.53 2295.53 0 0 1-46.517 1.31V366.85M470 270.13v-21.238c-.004-5.867-2.094-10.698-6.278-14.402-4.073-3.84-9.034-5.447-14.873-4.96-5.958.498-11.915.975-17.876 1.427-5.968.45-10.992 2.813-15.078 7.028-4.09 4.107-6.133 8.87-6.136 14.345v39.727c0 5.59 2.047 10.274 6.136 14.145 4.086 3.87 9.117 5.867 15.078 5.93 5.96.064 11.92.134 17.875.205v41.405c-5.958-.36-11.915-.697-17.876-1.02V332.43c-7.065-.23-14.138-.448-21.214-.65v19.862c0 5.59 2.047 10.395 6.136 14.504 4.086 4.113 9.117 6.418 15.078 6.87 5.96.452 11.92.926 17.875 1.428 5.846.49 10.803-1.068 14.872-4.796 4.182-3.71 6.277-8.588 6.277-14.57v-42.474c-.004-5.867-2.094-10.865-6.278-14.897-4.073-4.154-9.034-6.143-14.873-6.072-5.958.073-11.915.14-17.876.204V251.25c5.96-.325 11.92-.664 17.875-1.02v20.7c7.056-.255 14.104-.522 21.15-.802" fill="#061922"/><path d="M68.323 231.884c8.374.704 17.115 1.386 25.98 2.027v-.85a2252.56 2252.56 0 0 1-27.267-2.12 22.497 22.497 0 0 0-1.95-.085c-4.752 0-8.678 1.52-12 4.65-3.77 3.436-5.675 7.938-5.67 13.387v106.186c.003 4.49 1.238 8.32 3.687 11.43-1.82-2.885-2.74-6.295-2.742-10.17V250.15c-.006-5.54 1.934-10.12 5.77-13.618 3.384-3.184 7.38-4.734 12.216-4.734.642 0 1.307.03 1.977.086m51.459 3.724v-.865c-6.138-.37-12.33-.77-18.402-1.187v136.86l.946-.063V234.477l.17.013c5.58.382 11.394.757 17.287 1.118m51.071 2.542v-.894c-6.172-.234-12.504-.5-18.832-.792V367.51l.945-.04V237.39l.164.008c5.745.265 11.706.517 17.723.75m42.682 1.249c4.285.086 8.114 1.19 11.424 3.29-3.574-2.714-7.833-4.137-12.69-4.233a2280.764 2280.764 0 0 1-34.327-.942v128.95l.95-.034V238.446l.16.005c11.43.402 23.03.72 34.484.947m174.442-3.118c3.847 0 7.196.906 10.152 2.758-3.25-2.49-6.997-3.703-11.41-3.703-.45 0-.907.013-1.366.04a2301.627 2301.627 0 0 1-34.375 1.65v129.922l.946.04V237.982l.152-.005c11.64-.472 23.253-1.032 34.518-1.66.47-.026.935-.04 1.385-.04m-128.696 3.573c5.23 0 10.505-.016 15.673-.05h.19c4.375 0 8.153 1.018 11.458 3.105-3.585-2.723-7.76-4.05-12.716-4.05h-.19a2313.724 2313.724 0 0 1-34.395-.023V365.14l.945-.005v-125.36h.157c6.28.05 12.63.076 18.876.076m85.099-2.567c-14.444.545-29.142.957-43.686 1.23V365.46l.947.018V239.462l.154-.002c14.07-.263 28.398-.662 42.585-1.19v-.986m105.817-5.399c.636-.053 1.275-.08 1.897-.08 3.477 0 6.532.83 9.254 2.52-3.02-2.33-6.48-3.465-10.514-3.465-.606 0-1.236.025-1.87.078-5.928.497-11.945.98-17.883 1.43-5.56.417-10.326 2.638-14.17 6.6-3.86 3.875-5.736 8.243-5.736 13.364v39.723c0 4.17 1.198 7.758 3.65 10.886-1.818-2.833-2.705-6.01-2.705-9.625V253.59c0-5.206 1.908-9.65 5.825-13.584 3.9-4.016 8.734-6.27 14.37-6.693 5.917-.45 11.934-.93 17.882-1.428" fill="#707170"/><path d="M46 397.438c140.46-17.512 283.54-17.512 424 0v-7.354c-140.46-16.215-283.54-16.215-424 0v7.354" fill="#006BB6"/><path d="M97.163 417c106.182-27.474 215.498-27.474 321.675 0v-6.938c-106.182-26.726-215.493-26.732-321.675 0 .002 2.315.002 4.624 0 6.938" fill="#ED174C"/><path d="M215.896 216.63c-56.828-1.392-113.574-5.59-169.896-12.612v7.352c59.89 6.915 120.258 10.87 180.694 11.887a70.534 70.534 0 0 1-10.798-6.628m84.208.001a70.607 70.607 0 0 1-10.798 6.627C349.742 222.24 410.11 218.285 470 211.37v-7.352a1712.806 1712.806 0 0 1-169.896 12.61" fill="#006BB6"/><path d="M201.756 202.54c-35.052-3.116-69.988-9.133-104.593-18.084.003 2.316.003 4.625 0 6.94 36.58 9.207 73.528 15.24 110.597 18.103a70.669 70.669 0 0 1-6.004-6.96m112.487.004a70.637 70.637 0 0 1-6.003 6.955c37.066-2.862 74.02-8.896 110.597-18.102v-6.94c-34.604 8.953-69.543 14.97-104.594 18.087" fill="#ED174C"/><path d="M192.645 160.337c0-36.05 29.26-65.272 65.356-65.272 36.094 0 65.355 29.223 65.355 65.272 0 36.05-29.26 65.27-65.354 65.27-36.094 0-65.355-29.22-65.355-65.27" fill="#FFF"/><path d="M305.24 196.602c-7.486-9.7-11.74-21.232-12.32-33.404h24.626c-.58 12.184-4.827 23.715-12.305 33.404m-44.375 23.203V202.75h-5.728v17.055c-15.514-.736-29.9-7.382-40.584-18.743 8.73-10.888 13.655-23.966 14.26-37.864v-5.722c-.605-13.897-5.53-26.976-14.26-37.864 10.683-11.36 25.07-18.006 40.584-18.743v16.9h5.728v-16.9c15.513.736 29.9 7.378 40.584 18.742-8.732 10.888-13.657 23.967-14.26 37.864v5.722c.603 13.898 5.528 26.976 14.26 37.864-10.686 11.364-25.072 18.007-40.585 18.743m-50.106-23.203c-7.478-9.69-11.726-21.22-12.305-33.404h24.626c-.58 12.174-4.836 23.705-12.32 33.404m0-72.53c7.487 9.7 11.74 21.233 12.32 33.404h-24.625c.58-12.184 4.827-23.715 12.304-33.404m94.48 0c7.48 9.69 11.725 21.22 12.305 33.404H292.92c.58-12.17 4.834-23.705 12.32-33.404M258 95.067c-36.036 0-65.354 29.28-65.354 65.272 0 35.987 29.318 65.267 65.353 65.267 36.037 0 65.356-29.28 65.356-65.268 0-35.992-29.32-65.273-65.357-65.273" fill="#061922"/><path d="M243.44 133v54.454h29.132v-7.487h-21.335V133h-7.797" fill="#ED174C"/><path d="M282.476 151.243v-22.44c0-3.36-1.355-4.73-4.678-4.73h-39.654c-3.28 0-4.62 1.37-4.62 4.73v63.068c0 3.362 1.34 4.732 4.62 4.732h39.654c3.323 0 4.678-1.37 4.678-4.73v-22.466h-7.857v20.31h-33.297V130.96h33.296v20.283h7.856" fill="#006BB6"/><path d="M261.164 140.484h3.798v15.93h-3.798v-15.93zm11.394 37.374l.013-44.86h-18.926l-.185 44.86h7.58l.122-13.98h3.853l-.056 13.98h7.598z" fill="#ED174C"/></g></svg>