<svg width="512" height="512" viewBox="0 0 512 512" xmlns="http://www.w3.org/2000/svg"><title>memphis-grizzlies</title><g fill="none" fill-rule="evenodd"><path d="M164.896 324.224v56.608c3.193 0 36.26-.044 36.26-.044v-6.982l-29.182.068v-51.688h29.182v-7.326l-39.708.059 3.448 9.305zm82.098 0s-4.29-.03-9.652-.035v56.832h6.054V330.68l2.168-.053c1.264 0 2.273 1.37 2.273 3.041l-.015 47.421h6.475v-47.888c0-6.178-3.374-8.977-7.303-8.977zm-30.087 56.863h6.13v-50.41h5.06v50.343h6.324v-56.833c-7.604-.037-16.081-.061-17.514-.068v56.968zm-76.512-74.38s-4.819 0-10.811-.031v73.953h6.837v-66.627l2.409-.052c1.369 0 2.5 1.49 2.5 3.333l-.046 63.398h7.56v-63.919c0-6.582-3.93-10.056-8.449-10.056zm34.485 39.747h19.064v-6.694h-12.86v-7.876h20.072v-6.786H174.88v21.356zm73.122-31.285h-43.954l3.703 9.982v55.936h6.235v-59.885l33.008.09c5.497 0 10.24 4.092 10.24 11.908v47.887h5.872l-.06-51.935c-.001-8.81-7.47-13.983-15.044-13.983zm85.275 25.636h-7.785v-26.11l-6.038.016v31.142h20.555V314.68h-6.732v26.125zm-152.193 15.609h12.86v-7.058H174.88v21.599c2.35-.008 22-.052 26.276-.068v-6.244l-20.072-.022v-8.207zm-74.012 24.267h6.896v-66.679h5.601v66.627h7.093v-73.953c-8.523-.032-18.13-.046-19.59-.061v74.066zm34.439-83.793H93.053l4.08 11.005v72.788h7.017v-76.985l36.245.106c5.98 0 11.369 4.469 11.369 12.96v63.92h6.385l-.061-68.373c.002-9.704-8.22-15.42-16.577-15.42zm224.593 17.948v66.387h7.152l-.015-66.387h-7.137zm-10.075 10.826l.017 55.562h7.152v-66.386h-11.159l3.99 10.824zm40.418 20.853c6.204 0 5.254 3.949 5.254 8.018v6.905c0 1.65-1.114 2.98-2.47 2.98h-.993c-1.356 0-2.47-1.33-2.47-2.98v-8.124h-7.485v7.184c0 4.394 0 11.034 10.09 11.034 10.51 0 10.901-7.89 10.917-8.184v-15.091c0-7.139-3.734-7.787-9.803-8.228-1.823-.144-3.69-.286-5.346-.73-7.153-1.98-8.025-6.943-8.358-8.81-.226-1.233-.151-11.05-.12-14.188-.016-.33-.287-4.89 2.875-8.335 2.214-2.43 5.497-3.648 9.759-3.648 4.548 0 8.056 1.331 10.451 3.964 2.935 3.22 3.237 7.403 3.237 8.998 0 .316-.016.489-.016.6v6.266h7.696v-10.644c0-10.096-8.148-16.835-18.793-16.835h-3.464c-10.48 0-19.952 5.507-19.952 17.09v15.497c.002 11.423 10.603 17.26 18.99 17.26zM291.4 315.198h-25.885l3.583 9.9v56.131h5.872v-60.142h15.45c5.512 0 11.113 3.896 11.113 10.907v7.116c0 6.997-5.603 10.66-11.113 10.66h-12.526v31.46h6.7v-26.11l8.296-.157c9.202 0 14.17-8.147 14.17-15.85l.18-9.764c0-9.194-8.175-14.151-15.84-14.151zm112.183 15.58l-3.267-.168c-2.982 0-4.697-1.27-4.697-4.377v-8.786c0-1.656 1.099-2.98 2.438-2.98h.995c1.354 0 2.468 1.324 2.468 2.98v6.703h7.606v-6.425c.015-.044.286-4.469-2.485-7.501-1.839-2-4.639-3.024-8.344-3.024-3.433 0-6.01.918-7.665 2.71-2.35 2.558-2.122 6.139-2.122 6.19v.12c-.03 6.063-.03 12.93.076 13.75.301 1.641.917 5.048 6.309 6.538 1.37.377 3.041.504 4.788.632 5.255.376 12.452.917 12.452 11.117v15.128c0 .112-.436 11.02-13.762 11.02-12.936 0-12.936-9.741-12.936-13.909v-7.184h-7.815v10.606c0 12.638 9.637 17.452 18.491 17.452h4.534c11.099 0 19.199-6.846 19.199-17.86v-16.473c0-11.98-8.07-16.26-16.263-16.26zm-93.827-5.823v56.682h6.82V314.71l-10.48.015 3.66 10.229zm-11.143 14.157v-7.117c0-5.332-4.247-7.99-8.193-7.99h-12.526v22.855h12.526c3.946 0 8.193-2.422 8.193-7.748zm-14.02 1.73v-11.269h4.128c2.078 0 3.749 2.032 3.749 4.53v2.219c0 2.535-1.642 4.522-3.75 4.522h-4.126v-.002zm58.336 40.793h6.145V314.68h-6.145v66.956zm-23.475 0h6.038V355.24h7.785v26.395h6.732v-32.88h-20.555v32.88z" fill="#23375B"/><path d="M213.986 381.087v-59.885l33.008.09c5.488 0 10.24 4.092 10.24 11.908v47.887h-2.935V333.2c0-6.175-3.374-8.976-7.303-8.976 0 0-4.291-.03-9.652-.035v56.832h-2.922V324.19c-7.604-.038-16.08-.061-17.513-.068v56.968h-2.923v-.002zm-12.83-55.989H174.88v21.356h19.064v2.904H174.88v21.597c2.35-.008 22-.052 26.276-.068v2.92l-29.182.067v-51.688h29.182v2.912zm-97.006 55.583v-76.985l36.245.106c5.98 0 11.369 4.469 11.369 12.96v63.92h-2.922v-63.92c0-6.582-3.93-10.056-8.448-10.056 0 0-4.82 0-10.812-.03v73.953h-2.922v-73.953c-8.523-.032-18.129-.046-19.59-.061v74.066h-2.92zm259.048-65.845h2.908v66.387h-2.908v-66.387zm-88.228 66.393v-60.142h15.45c5.512 0 11.113 3.896 11.113 10.907v7.116c0 6.997-5.603 10.66-11.113 10.66h-12.526v31.46h-2.924zm113.314-27.915v7.184c0 4.394 0 11.034 10.09 11.034 10.511 0 10.902-7.89 10.917-8.184v-15.091c0-7.139-3.734-7.787-9.802-8.228-1.823-.144-3.69-.286-5.346-.73-7.154-1.98-8.025-6.943-8.359-8.81-.225-1.233-.15-11.05-.12-14.188-.015-.33-.286-4.89 2.876-8.335 2.214-2.43 5.496-3.648 9.759-3.648 4.548 0 8.056 1.331 10.45 3.964 2.936 3.22 3.237 7.403 3.237 8.998 0 .316-.015.489-.015.6v6.266h-2.845v-6.425c.015-.044.286-4.468-2.485-7.5-1.839-2.001-4.639-3.024-8.344-3.024-3.433 0-6.01.918-7.665 2.709-2.35 2.559-2.122 6.14-2.122 6.19v.12c-.03 6.063-.03 12.931.076 13.752.301 1.64.917 5.046 6.309 6.536 1.37.377 3.041.504 4.788.633 5.255.375 12.452.916 12.452 11.116v15.129c0 .111-.436 11.02-13.762 11.02-12.936 0-12.936-9.742-12.936-13.91v-7.184h2.847v.006zm-89.671-14.202v-7.117c0-5.332-4.247-7.99-8.193-7.99h-12.526v22.855h12.526c3.946 0 8.193-2.422 8.193-7.748zm17.965 42.523V314.71h2.876v31.143h20.555V314.68h2.922v66.956h-2.922v-32.88h-20.555v32.88h-2.876z" fill="#6189B9"/><path d="M372.835 113.163a116.11 116.11 0 0 0-3.162-4.58c26.442-43.321-35.958-76.538-58.56-39.772-27.828-5.114-51.08 5.044-54.211 6.508-3.118-1.456-26.11-11.483-53.653-6.609-27.3-38.36-83.603 1.287-58.772 39.377a142.057 142.057 0 0 0-3.538 5.078c-35.267 53.651-8.779 90.01-8.779 90.01l5.42-5.418s7.71 37.406 48.457 61.981l1.476-8.063c25.086 26.769 48.321 26.143 69.975 50.607 20.013-23.17 49.09-23.17 71.723-52.075v10.267c41.862-20.36 45.686-64.366 45.686-64.366l3.87 7.14c0 .001 29.363-36.434-5.932-90.085" fill="#23375B"/><path d="M284.098 151.167c1.972-.714 5.435 1.355 7.287 4.954 8.479-2.465 8.027-13.882 7.974-14.692-6.747 2.614-12.296 7.12-15.261 9.738" fill="#FDB827"/><path d="M257.232 206.39c2.334-.37 39.512-1.712 16.745 21.375 15.87-21.007-12.92-21.16-16.745-21.375m64.314-119.822s8.359-20.884 33.972-15.835c0 0-23.507-15.47-39.876 12.501 0 0-23.22-11.016-58.244 4.103 0 0-33.175-11.554-58.185-5.006 0 0-14.576-25.29-35.116-14.867-20.524 10.406-9.833 34.494-6.25 40.733 0 0-34.046 34.64-21.247 77.485l6.852-8.534s9.757 46.64 35.011 61.345l1.505-11.468s26.338 31.748 57.312 45.232c2.921 1.377 19.38 9.523 19.876 13.549v-22.218s-21.518 1.787-27.18-8.117c-3.855-6.74-28.535-50.76-16.339-96.874 0 0-11.881-1.764-14.124-21.8 0 0-8.87-4.303-19.876-3.412 0 0 19.695-6.161 38.171.956 18.446 7.15 23.385 25.32 35.9 17.286l3.69-51.194 3.523 51.194c12.514 8.033 17.453-10.137 35.9-17.286 18.476-7.117 38.157-.956 38.157-.956s-7.86-5.556-20.524-8.079c-10.587-2.117-26.128 4.676-26.128 4.676s2.153-14.53 9.215-22.285c6.057-6.652 19.758-8.118 24.005-21.13m-159.27 17.64c-.754-6.969 8.07-13.871 8.07-13.871-3.628-3.758-9.983-.499-9.983-.499 5.752-11.253 18.657-5.755 18.657-5.755-4.878-5.977-15.255-5.602-15.255-5.602 12.83-12.679 28.281 6.718 28.281 6.718-13.779 3.097-29.77 19.01-29.77 19.01m137.09 37.22a3.654 3.654 0 0 0 0 .001m-10.27 16.501c20.569 55.294-5.631 90.803-5.631 90.803 16.142-42.181 5.767-77.278-1.309-90.317-3.6.353-7.95.162-7.95.162s5.435-3.374 8.974-6.579c.271-.245.588-.53.95-.846 0 .007-.03.007-.03.016 1.971-.714 5.435 1.354 7.287 4.953 8.479-2.455 8.027-13.846 7.98-14.692 2.455-.962 5.106-1.655 7.816-1.933-.001-.001-1.945 18.178-18.087 18.433" fill="#6189B9"/><path d="M216.2 141.403c-.046.84-.49 12.262 7.981 14.714 1.822-3.535 5.09-5.578 7.078-4.975-4.564-3.515-10.226-7.437-15.06-9.739" fill="#FDB827"/><path d="M257.158 258.279c-25.93 0-22.451-5.701-22.451-5.701 2.815-1.746 20.96-2.108 22.422-2.108 1.445 0 19.65.362 22.466 2.108 0 0 3.492 5.7-22.437 5.7m-40.945-116.865s-.022-.006-.022-.015c0 .009.022.015.022.015m40.945 92.884v10.51l-7.152.376c-7.514.219-17.317 3.273-17.317 3.273-18.19-45.014-8.102-79.083-3.252-91.233-18.04 3.912-20.953-17.722-20.953-17.722 1.874-.38 4.616.428 7.71 1.899-.036.849-.473 12.265 7.989 14.722 1.821-3.536 5.075-5.586 7.047-4.99a135.489 135.489 0 0 1 3.704 2.978c12.241 10.316 21.773 8.214 21.773 8.214s.136 39.246.136 44.067c0 0-35.477-2.772-16.43 21.36 0 0 3.072-8.82 6.324-6.035 4.503 3.871 10.42 11.75 10.42 12.58" fill="#BBD1E4"/><path d="M177.725 421.077l-.406 1.143c-.467 1.318-1.731 2.025-2.86 1.61l-2.29-.842 2.11-5.801 2.32.835c1.096.398 1.609 1.776 1.126 3.055m2.981-9.968l-13.823-5.018.03 5.792-10.525 28.985 8.178 2.98 4.909-13.473 2.485.895c.723.262 1.009 1.211.677 2.13l-4.306 11.84 8.115 2.932 4.443-12.187c.693-1.91.466-3.685-.602-4.986 0 0 2.74-.473 4.201-4.522l1.928-5.01c1.73-4.752-1.628-8.875-5.71-10.358m169.195 3.715l-2.86-8.207-20.433 7.132 3.419 4.213 10.24 29.382c1.626-.572 18.762-6.537 18.762-6.537l-2.922-8.133-10.344 3.589c-.286-.843-1.686-4.837-1.686-4.837l6.625-2.3-2.86-8.298-6.641 2.294-1.642-4.702 10.342-3.596zm-57.297 33.964l-2.68-27.8-10.916 1.036 2.725 5.546 2.891 30.187 21.398-1.988-.784-8.205zm-95.258-26.703l-.738-6.2 10.466 2.229-7.363 35.489-8.554-1.835zm113.238 1.497l-3.19-5.365 10.494-2.18 7.604 35.416-8.538 1.79zm-71.693-1.233l-21.728-2.28-.963 10.065 6.082-1.52 3.509.363-12.408 27.087 21.73 2.16.752-8.201-9.366-.985zm30.161.48l-21.863-.113.046 10.118 5.887-2.129h3.57l-9.684 28.195h21.88l-.074-8.245-9.414-.03zm107.833-4.341l1.717 2.58c.406.624.332 1.375-.166 1.724l-1.099.722c-.512.33-1.249.12-1.657-.504l-2.017-3.048-6.777 4.5 2.62 3.972c3.134 4.723 7.936 4.137 11.25 1.94l2.394-1.595c4.188-2.754 5.481-7.311 2.756-11.42l-4.096-6.167c-2.966-4.469-7.047-4.076-10.104-2.045l-1.988 1.226c-1.113.737-2.078.683-2.832-.458l-2.183-3.295c-.422-.616-.33-1.383.167-1.728l1.114-.707c.496-.332 1.234-.12 1.642.488l1.67 2.503 6.792-4.49-2.681-3.964c-2.485-3.792-7.198-4.28-11.174-1.64l-2.002 1.339c-3.916 2.586-6.1 6.988-3.222 11.313l3.853 5.792c2.817 4.264 8.237 3.822 11.37 1.752 2.847-1.902 3.662-.31 4.653 1.21m-232.002 9.946c-2.935 4.362-8.147 4.588-11.7 2.204l-3.645-2.475c-3.555-2.37-5.286-7.282-2.365-11.652l11.897-17.777c2.937-4.37 8.16-4.619 11.7-2.241l3.66 2.444c3.553 2.37 5.33 7.282 2.409 11.666l-2.365 3.536-7.243-4.859 1.49-2.197c.543-.82.512-1.821-.074-2.212l-1.16-.776c-.586-.389-1.52-.03-2.078.792 0 0-.572.886-1.46 2.212-1.627 2.415-8.69 12.953-8.69 12.953-.541.827-.528 1.82.061 2.212l1.16.79c.572.384 1.52.037 2.079-.79l2.664-3.942-1.25-.85 3.36-5.026 8.507 5.673-6.957 10.315z" fill="#6189B9"/></g></svg>