<?xml version="1.0" encoding="UTF-8"?>
<svg width="512px" height="512px" viewBox="0 0 512 512" version="1.1" xmlns="http://www.w3.org/2000/svg" xmlns:xlink="http://www.w3.org/1999/xlink">
    <!-- Generator: Sketch 42 (36781) - http://www.bohemiancoding.com/sketch -->
    <title>memphis-grizzlies</title>
    <desc>Created with Sketch.</desc>
    <defs></defs>
    <g id="NBA" stroke="none" stroke-width="1" fill="none" fill-rule="evenodd">
        <g id="memphis-grizzlies">
            <g id="svg" transform="translate(92.000000, 53.000000)">
                <g id="Group">
                    <path d="M72.8961323,271.224066 L72.8961323,327.831894 C76.0886514,327.831894 109.156446,327.787921 109.156446,327.787921 L109.156446,320.806442 L79.9735037,320.874092 L79.9735037,269.18611 L109.156446,269.18611 L109.156446,261.859615 L69.4480086,261.918809 L72.8961323,271.224066 L72.8961323,271.224066 Z M154.994317,271.224066 C154.994317,271.224066 150.703206,271.193624 145.342279,271.18855 L145.342279,328.021314 L151.395539,328.021314 L151.395539,277.679567 L153.563947,277.627139 C154.828428,277.627139 155.837305,278.997051 155.837305,280.668006 L155.82207,328.088964 L162.296824,328.088964 L162.296824,280.201221 C162.296824,274.023085 158.923181,271.224066 154.994317,271.224066 L154.994317,271.224066 Z M124.907448,328.087273 L131.036882,328.087273 L131.036882,277.677876 L136.0965,277.677876 L136.0965,328.019623 L142.420599,328.019623 L142.420599,271.186859 C134.816784,271.149651 126.339512,271.125974 124.907448,271.119209 L124.907448,328.087273 L124.907448,328.087273 Z M48.3953255,253.706099 C48.3953255,253.706099 43.5760774,253.706099 37.5837563,253.675657 L37.5837563,327.628944 L44.4207577,327.628944 L44.4207577,261.002151 L46.8295354,260.949723 C48.198967,260.949723 49.3297214,262.439714 49.3297214,264.283176 L49.2840172,327.681373 L56.8438212,327.681373 L56.8438212,263.762271 C56.8438212,257.179926 52.9132648,253.706099 48.3953255,253.706099 L48.3953255,253.706099 Z M82.8799487,293.453856 L101.943655,293.453856 L101.943655,286.759888 L89.0838631,286.759888 L89.0838631,278.883737 L109.156446,278.883737 L109.156446,272.098442 L82.8799487,272.098442 L82.8799487,293.453856 L82.8799487,293.453856 Z M156.001501,262.169114 L112.047656,262.169114 L115.751385,272.150871 L115.751385,328.087273 L121.985769,328.087273 L121.985769,268.201803 L154.994317,268.291439 C160.490664,268.291439 165.233738,272.384264 165.233738,280.19953 L165.233738,328.087273 L171.105875,328.087273 L171.046628,276.152369 C171.044936,267.342648 163.57654,262.169114 156.001501,262.169114 L156.001501,262.169114 Z M241.276971,287.805081 L233.492031,287.805081 L233.492031,261.695564 L227.454006,261.710785 L227.454006,292.853462 L248.009022,292.853462 L248.009022,261.680343 L241.276971,261.680343 L241.276971,287.805081 L241.276971,287.805081 Z M89.0838631,303.413627 L101.943655,303.413627 L101.943655,296.356041 L82.8799487,296.356041 L82.8799487,317.954994 C85.2294803,317.946538 104.88057,317.902565 109.156446,317.887344 L109.156446,311.643249 L89.0838631,311.621263 L89.0838631,303.413627 L89.0838631,303.413627 Z M15.0719261,327.681373 L21.9681737,327.681373 L21.9681737,261.002151 L27.5694705,261.002151 L27.5694705,327.628944 L34.6620766,327.628944 L34.6620766,253.675657 C26.1391,253.643523 16.532766,253.629993 15.0719261,253.614772 L15.0719261,327.681373 L15.0719261,327.681373 Z M49.5108452,243.888393 L1.05260309,243.888393 L5.13381389,254.893357 L5.13381389,327.681373 L12.1502464,327.681373 L12.1502464,250.695674 L48.3953255,250.802223 C54.3741047,250.802223 59.7638082,255.270505 59.7638082,263.762271 L59.7638082,327.681373 L66.1488464,327.681373 L66.0879076,259.30921 C66.0896003,249.604818 57.8679326,243.888393 49.5108452,243.888393 L49.5108452,243.888393 Z M274.104395,261.835938 L274.104395,328.222573 L281.256248,328.222573 L281.241013,261.835938 L274.104395,261.835938 L274.104395,261.835938 Z M264.029171,272.661629 L264.046098,328.224264 L271.19795,328.224264 L271.19795,261.837629 L260.039368,261.837629 L264.029171,272.661629 L264.029171,272.661629 Z M304.446869,293.514741 C310.650783,293.514741 309.701153,297.463809 309.701153,301.532957 L309.701153,308.438331 C309.701153,310.087299 308.587326,311.418313 307.231436,311.418313 L306.237794,311.418313 C304.881905,311.418313 303.768078,310.087299 303.768078,308.438331 L303.768078,300.313566 L296.282755,300.313566 L296.282755,307.497996 C296.282755,311.891863 296.282755,318.53171 306.373214,318.53171 C316.883474,318.53171 317.274499,310.642029 317.289733,310.347752 L317.289733,295.256728 C317.289733,288.117962 313.555536,287.470213 307.487041,287.028797 C305.663953,286.885041 303.796854,286.742976 302.141349,286.298177 C294.987804,284.319415 294.11604,279.355596 293.782569,277.488456 C293.557433,276.255535 293.631914,266.43952 293.662384,263.30056 C293.647149,262.970766 293.37631,258.411156 296.538359,254.96608 C298.752471,252.535754 302.034706,251.318054 306.29704,251.318054 C310.845449,251.318054 314.352819,252.649068 316.748055,255.282344 C319.683276,258.502484 319.984585,262.684945 319.984585,264.279794 C319.984585,264.596058 319.969351,264.768565 319.969351,264.880188 L319.969351,271.146269 L327.664574,271.146269 L327.664574,260.501541 C327.664574,250.40647 319.517387,243.666839 308.871707,243.666839 L305.408349,243.666839 C294.928558,243.666839 285.455951,249.173549 285.455951,260.75692 L285.455951,276.253844 C285.457643,287.676546 296.059312,293.514741 304.446869,293.514741 L304.446869,293.514741 Z M199.400125,262.197865 L173.514652,262.197865 L177.098196,272.098442 L177.098196,328.229338 L182.970332,328.229338 L182.970332,268.086798 L198.420025,268.086798 C203.931607,268.086798 209.532903,271.983437 209.532903,278.993669 L209.532903,286.110448 C209.532903,293.10715 203.929914,296.770397 198.420025,296.770397 L185.893704,296.770397 L185.893704,328.229338 L192.593593,328.229338 L192.593593,302.119821 C192.593593,302.119821 200.860965,301.962534 200.889742,301.962534 C210.09151,301.962534 215.059719,293.815783 215.059719,286.11214 L215.23915,276.348554 C215.240843,267.154919 207.06488,262.197865 199.400125,262.197865 L199.400125,262.197865 Z M311.583486,277.77766 L308.316487,277.610226 C305.333868,277.610226 303.619116,276.340097 303.619116,273.233271 L303.619116,264.447228 C303.619116,262.791494 304.717708,261.467245 306.05667,261.467245 L307.052005,261.467245 C308.406202,261.467245 309.520029,262.791494 309.520029,264.447228 L309.520029,271.149651 L317.125537,271.149651 L317.125537,264.724593 C317.140772,264.68062 317.411611,260.25631 314.640586,257.223899 C312.802264,255.22315 310.002462,254.199944 306.29704,254.199944 C302.864151,254.199944 300.287792,255.118293 298.632286,256.909326 C296.282755,259.468188 296.509583,263.048564 296.509583,263.099301 L296.509583,263.160186 L296.509583,263.21938 C296.479113,269.282511 296.479113,276.150677 296.585756,276.970934 C296.887065,278.611446 297.503225,282.017624 302.894621,283.507615 C304.265745,283.884763 305.936486,284.011607 307.683399,284.140142 C312.937683,284.5156 320.13524,285.0568 320.13524,295.256728 L320.13524,310.384959 C320.13524,310.496582 319.698511,321.405144 306.373214,321.405144 C293.437248,321.405144 293.437248,311.663544 293.437248,307.496304 L293.437248,300.311874 L285.62184,300.311874 L285.62184,310.917703 C285.62184,323.556414 295.258643,328.369711 304.113398,328.369711 L308.646572,328.369711 C319.745908,328.369711 327.845698,321.523532 327.845698,310.510112 L327.845698,294.037337 C327.845698,282.056522 319.776377,277.77766 311.583486,277.77766 L311.583486,277.77766 Z M217.756264,271.954686 L217.756264,328.636929 L224.576338,328.636929 L224.576338,261.710785 L214.096547,261.726006 L217.756264,271.954686 L217.756264,271.954686 Z M206.612916,286.11214 L206.612916,278.99536 C206.612916,273.662849 202.365816,271.005895 198.420025,271.005895 L185.893704,271.005895 L185.893704,293.859756 L198.420025,293.859756 C202.365816,293.859756 206.612916,291.437886 206.612916,286.11214 L206.612916,286.11214 Z M192.593593,287.842288 L192.593593,276.57349 L196.720508,276.57349 C198.7992,276.57349 200.469941,278.604681 200.469941,281.102657 L200.469941,283.321577 C200.469941,285.856761 198.827977,287.84398 196.720508,287.84398 L192.593593,287.84398 L192.593593,287.842288 Z M250.929009,328.635238 L257.073677,328.635238 L257.073677,261.678651 L250.929009,261.678651 L250.929009,328.635238 L250.929009,328.635238 Z M227.454006,328.635238 L233.492031,328.635238 L233.492031,302.239899 L241.276971,302.239899 L241.276971,328.635238 L248.009022,328.635238 L248.009022,295.755647 L227.454006,295.755647 L227.454006,328.635238 L227.454006,328.635238 Z" id="Shape" fill="#23375B"></path>
                    <path d="M121.985769,328.087273 L121.985769,268.201803 L154.994317,268.291439 C160.4822,268.291439 165.233738,272.384264 165.233738,280.19953 L165.233738,328.087273 L162.298517,328.087273 L162.298517,280.19953 C162.298517,274.024776 158.924874,271.224066 154.99601,271.224066 C154.99601,271.224066 150.704899,271.193624 145.343972,271.18855 L145.343972,328.021314 L142.422292,328.021314 L142.422292,271.18855 C134.818477,271.151342 126.341204,271.127665 124.909141,271.1209 L124.909141,328.088964 L121.985769,328.088964 L121.985769,328.087273 Z M109.156446,272.098442 L82.8799487,272.098442 L82.8799487,293.453856 L101.943655,293.453856 L101.943655,296.357732 L82.8799487,296.357732 L82.8799487,317.954994 C85.2294803,317.946538 104.88057,317.902565 109.156446,317.887344 L109.156446,320.806442 L79.9735037,320.874092 L79.9735037,269.18611 L109.156446,269.18611 L109.156446,272.098442 L109.156446,272.098442 Z M12.1502464,327.681373 L12.1502464,250.695674 L48.3953255,250.802223 C54.3741047,250.802223 59.7638082,255.270505 59.7638082,263.762271 L59.7638082,327.681373 L56.8421285,327.681373 L56.8421285,263.762271 C56.8421285,257.179926 52.9115721,253.706099 48.3936328,253.706099 C48.3936328,253.706099 43.5743847,253.706099 37.5820636,253.675657 L37.5820636,327.628944 L34.6603838,327.628944 L34.6603838,253.675657 C26.1374073,253.643523 16.5310733,253.629993 15.0702334,253.614772 L15.0702334,327.681373 L12.1502464,327.681373 L12.1502464,327.681373 Z M271.19795,261.835938 L274.106088,261.835938 L274.106088,328.222573 L271.19795,328.222573 L271.19795,261.835938 L271.19795,261.835938 Z M182.970332,328.229338 L182.970332,268.086798 L198.420025,268.086798 C203.931607,268.086798 209.532903,271.983437 209.532903,278.993669 L209.532903,286.110448 C209.532903,293.10715 203.929914,296.770397 198.420025,296.770397 L185.893704,296.770397 L185.893704,328.229338 L182.970332,328.229338 L182.970332,328.229338 Z M296.284447,300.313566 L296.284447,307.497996 C296.284447,311.891863 296.284447,318.53171 306.374907,318.53171 C316.885167,318.53171 317.276192,310.642029 317.291426,310.347752 L317.291426,295.256728 C317.291426,288.117962 313.557228,287.470213 307.488734,287.028797 C305.665646,286.885041 303.798547,286.742976 302.143042,286.298177 C294.989497,284.319415 294.117732,279.355596 293.784261,277.488456 C293.559126,276.255535 293.633607,266.43952 293.664076,263.30056 C293.648842,262.970766 293.378002,258.411156 296.540052,254.96608 C298.754164,252.535754 302.036399,251.318054 306.298733,251.318054 C310.847142,251.318054 314.354512,252.649068 316.749747,255.282344 C319.684969,258.502484 319.986278,262.684945 319.986278,264.279794 C319.986278,264.596058 319.971043,264.768565 319.971043,264.880188 L319.971043,271.146269 L317.125537,271.146269 L317.125537,264.72121 C317.140772,264.677238 317.411611,260.252928 314.640586,257.220516 C312.802264,255.219768 310.002462,254.196562 306.29704,254.196562 C302.864151,254.196562 300.287792,255.11491 298.632286,256.905944 C296.282755,259.464805 296.509583,263.045181 296.509583,263.095919 L296.509583,263.156804 L296.509583,263.215998 C296.479113,269.279129 296.479113,276.147295 296.585756,276.967551 C296.887065,278.608064 297.503225,282.014241 302.894621,283.504232 C304.265745,283.881381 305.936486,284.008225 307.683399,284.13676 C312.937683,284.512217 320.13524,285.053417 320.13524,295.253346 L320.13524,310.381577 C320.13524,310.493199 319.698511,321.401762 306.373214,321.401762 C293.437248,321.401762 293.437248,311.660162 293.437248,307.492922 L293.437248,300.308492 L296.284447,300.308492 L296.284447,300.313566 Z M206.612916,286.11214 L206.612916,278.99536 C206.612916,273.662849 202.365816,271.005895 198.420025,271.005895 L185.893704,271.005895 L185.893704,293.859756 L198.420025,293.859756 C202.365816,293.859756 206.612916,291.437886 206.612916,286.11214 L206.612916,286.11214 Z M224.578031,328.635238 L224.578031,261.709094 L227.454006,261.709094 L227.454006,292.851771 L248.009022,292.851771 L248.009022,261.678651 L250.930702,261.678651 L250.930702,328.635238 L248.009022,328.635238 L248.009022,295.755647 L227.454006,295.755647 L227.454006,328.635238 L224.578031,328.635238 L224.578031,328.635238 Z" id="Shape" fill="#6189B9"></path>
                    <path d="M280.834754,60.1628351 C279.797101,58.5679864 278.74252,57.0678477 277.672704,55.5829302 C304.115091,12.2615623 241.715392,-20.9545871 219.112153,15.811496 C191.285101,10.6971561 168.03354,20.8548034 164.90196,22.3194258 C161.783922,20.8632596 138.791352,10.8358385 111.24868,15.710021 C83.9480715,-22.6509108 27.645644,16.9970622 52.4765363,55.087394 C51.2865358,56.7228327 50.1134628,58.3937877 48.938697,60.1645264 C13.6720251,113.816049 40.1601158,150.174541 40.1601158,150.174541 L45.5802888,144.757467 C45.5802888,144.757467 53.2907472,182.162843 94.0368382,206.738396 L95.5129127,198.674516 C120.59941,225.443621 143.834042,224.817858 165.48765,249.281789 C185.500987,226.111665 214.577287,226.111665 237.210995,197.206511 L237.210995,207.47409 C279.072605,187.114823 282.896519,143.108499 282.896519,143.108499 L286.766136,150.247265 C286.767829,150.248956 316.130202,113.814358 280.834754,60.1628351" id="Shape" fill="#23375B"></path>
                    <path d="M192.097619,98.1669132 C194.069668,97.4532057 197.533026,99.5216044 199.384891,103.120584 C207.863856,100.656433 207.411893,89.2388046 207.359417,88.4286959 C200.612132,91.0433683 195.06331,95.5488582 192.097619,98.1669132" id="Shape" fill="#FDB827"></path>
                    <path d="M165.232046,153.389607 C167.566342,153.020915 204.744125,151.678062 181.97669,174.765316 C197.847877,153.7583 169.057652,153.604396 165.232046,153.389607 M229.54624,33.5679294 C229.54624,33.5679294 237.90502,12.6843748 263.517961,17.7327559 C263.517961,17.7327559 240.010797,2.26289246 223.641942,30.2344757 C223.641942,30.2344757 200.422544,19.2176734 165.397935,34.3374481 C165.397935,34.3374481 132.223497,22.7828283 107.213174,29.3313482 C107.213174,29.3313482 92.6369371,4.04039618 72.0971562,14.4635697 C51.5726099,24.8698308 62.2639942,48.9583041 65.8475376,55.1973252 C65.8475376,55.1973252 31.8013357,89.8375071 44.6001888,132.681943 L51.452425,124.147895 C51.452425,124.147895 61.2094134,170.787496 86.4634922,185.492914 L87.9683434,174.024548 C87.9683434,174.024548 114.30578,205.772692 145.279648,219.257028 C148.201327,220.633706 164.659897,228.780457 165.155872,232.805632 L165.155872,210.587681 C165.155872,210.587681 143.637684,212.375332 137.975448,202.471372 C134.121065,195.731741 109.440828,151.710196 121.637063,105.596574 C121.637063,105.596574 109.755678,103.832601 107.51279,83.7963622 C107.51279,83.7963622 98.6428002,79.4938223 87.6365652,80.385111 C87.6365652,80.385111 107.331666,74.2238874 125.807989,81.3406672 C144.253843,88.4912721 149.193277,106.660371 161.707748,98.6269332 L165.397935,47.4327966 L168.920539,98.6269332 C181.435011,106.660371 186.374444,88.4895809 204.820298,81.3406672 C223.296622,74.2238874 242.97818,80.385111 242.97818,80.385111 C242.97818,80.385111 235.117068,74.8293549 222.453634,72.3060099 C211.8672,70.1885649 196.326098,76.9823161 196.326098,76.9823161 C196.326098,76.9823161 198.479271,62.4527876 205.541408,54.6967152 C211.598054,48.0450291 225.29914,46.5787154 229.54624,33.5679294 M70.2757614,51.2076665 C69.5224894,44.2380254 78.3467747,37.3360343 78.3467747,37.3360343 C74.7175271,33.5780769 68.3629583,36.8371156 68.3629583,36.8371156 C74.1149095,25.5835383 87.0204056,31.0817919 87.0204056,31.0817919 C82.1419114,25.1049145 71.7653779,25.480372 71.7653779,25.480372 C84.5947005,12.801071 100.046087,32.1980169 100.046087,32.1980169 C86.2671336,35.2946956 70.2757614,51.2076665 70.2757614,51.2076665 M207.366188,88.4286959 L207.366188,88.4286959 C207.261238,88.4692859 207.171523,88.5081846 207.095349,88.5453921 C207.16983,88.5081846 207.261238,88.4625209 207.366188,88.4286959 M197.096298,104.930222 C217.664856,160.223948 191.464532,195.733433 191.464532,195.733433 C207.606558,153.551967 197.231718,118.455148 190.156039,105.415611 C186.555568,105.769082 182.205211,105.577971 182.205211,105.577971 C182.205211,105.577971 187.640618,102.203927 191.18015,98.9990082 C191.45099,98.7537769 191.767533,98.4696469 192.129781,98.1533832 C192.129781,98.1601482 192.099311,98.1601482 192.099311,98.1686044 C194.071361,97.4548969 197.534719,99.5232957 199.386583,103.122276 C207.865548,100.666581 207.413585,89.2760121 207.367881,88.4303871 C209.822363,87.4680659 212.473203,86.7746534 215.18329,86.4972884 C215.181597,86.4955971 213.238325,104.674843 197.096298,104.930222" id="Shape" fill="#6189B9"></path>
                    <path d="M124.199881,88.4033271 C124.154176,89.2421871 123.710677,100.664889 132.181178,103.117202 C134.002573,99.5824894 137.271266,97.5394594 139.25855,98.1415444 C134.694906,94.627127 129.032671,90.7051183 124.199881,88.4033271" id="Shape" fill="#FDB827"></path>
                    <path d="M165.157565,205.278847 C139.22808,205.278847 142.706674,199.577644 142.706674,199.577644 C145.52171,197.832274 163.667948,197.470346 165.128788,197.470346 C166.574393,197.470346 184.779877,197.832274 187.594914,199.577644 C187.594914,199.577644 191.087049,205.278847 165.157565,205.278847 M124.213423,88.4134746 C124.213423,88.4134746 124.191417,88.4067096 124.191417,88.3982534 C124.191417,88.4067096 124.213423,88.4134746 124.213423,88.4134746 M165.157565,181.296923 L165.157565,191.80635 L158.005713,192.183499 C150.491613,192.40167 140.68892,195.456068 140.68892,195.456068 C122.498671,150.441758 132.587437,116.373219 137.437155,104.223279 C119.39756,108.13514 116.484344,86.5006709 116.484344,86.5006709 C118.358214,86.1201397 121.100463,86.9285571 124.194802,88.3999446 C124.157562,89.2489521 123.720833,100.664889 132.182871,103.122276 C134.004266,99.5858719 137.257724,97.5360769 139.229773,98.1313969 C140.570428,99.1765894 141.834909,100.187957 142.933501,101.109688 C155.175441,111.426313 164.707294,109.324089 164.707294,109.324089 C164.707294,109.324089 164.842714,148.569545 164.842714,153.391298 C164.842714,153.391298 129.366142,150.61934 148.412921,174.751786 C148.412921,174.751786 151.485255,165.931917 154.73702,168.715714 C159.239725,172.586986 165.157565,180.466519 165.157565,181.296923" id="Shape" fill="#BBD1E4"></path>
                    <path d="M85.7254549,368.076878 L85.3191958,369.220163 C84.8519979,370.537647 83.5875166,371.244589 82.4584549,370.830233 L80.1698622,369.987991 L82.2790239,364.187003 L84.598086,365.022481 C85.6949855,365.419924 86.2078875,366.798293 85.7254549,368.076878 M88.7063807,358.108651 L74.8834162,353.090712 L74.9138857,358.883243 L64.3883905,387.867885 L72.5660468,390.847868 L77.4750105,377.37537 L79.9599617,378.270042 C80.6827643,378.532185 80.9688384,379.480977 80.6370602,380.399325 L76.3307141,392.239766 L84.4457388,395.172394 L88.8891973,382.985247 C89.5815305,381.075825 89.3547025,379.300013 88.2865797,377.999442 C88.2865797,377.999442 91.0271356,377.525892 92.4879755,373.477039 L94.4160133,368.467557 C96.1459998,363.715145 92.7875915,359.591877 88.7063807,358.108651" id="Shape" fill="#6189B9"></path>
                    <path d="M257.90143,361.824327 L255.040689,353.616691 L234.607551,360.748692 L238.026898,364.961596 L248.266319,394.343681 C249.893048,393.772039 267.028717,387.807 267.028717,387.807 L264.107037,379.673779 L253.762666,383.262612 C253.476592,382.420369 252.076691,378.425637 252.076691,378.425637 L258.702099,376.125537 L255.841358,367.828264 L249.200715,370.121599 L247.558751,365.419924 L257.90143,361.824327 L257.90143,361.824327 Z" id="Shape" fill="#6189B9"></path>
                    <polygon id="Shape" fill="#6189B9" points="200.603668 395.788009 197.924051 367.987242 187.007531 369.023978 189.732852 374.569587 192.624063 404.756707 214.022066 402.769489 213.238325 394.563544"></polygon>
                    <polygon id="Shape" fill="#6189B9" points="105.346075 369.084863 104.608037 362.884741 115.074286 365.113808 107.710841 400.602998 99.1573951 398.767991"></polygon>
                    <polygon id="Shape" fill="#6189B9" points="218.584017 370.581619 215.39319 365.216974 225.888216 363.036953 233.492031 398.453419 224.95382 400.242761"></polygon>
                    <polygon id="Shape" fill="#6189B9" points="146.891142 369.348698 125.163053 367.068893 124.199881 377.133522 130.281917 375.614779 133.79098 375.976707 121.383151 403.063766 143.112933 405.223492 143.864512 397.022621 134.498548 396.038314"></polygon>
                    <polygon id="Shape" fill="#6189B9" points="177.052492 369.829013 155.188983 369.715699 155.234687 379.834448 161.122058 377.705164 164.69206 377.705164 155.007859 405.899992 176.888295 405.899992 176.813814 397.655149 167.400453 397.624706"></polygon>
                    <path d="M284.885495,365.487574 L286.60194,368.068422 C287.008199,368.692493 286.933718,369.443408 286.436051,369.791806 L285.337458,370.513969 C284.824556,370.843763 284.088212,370.634048 283.68026,370.009977 L281.662507,366.962344 L274.886444,371.461069 L277.506815,375.433816 C280.640088,380.157477 285.442409,379.570613 288.756806,377.373679 L291.150348,375.778831 C295.338202,373.025476 296.63146,368.467557 293.906139,364.359511 L289.809694,358.191522 C286.844002,353.72324 282.762792,354.11561 279.705692,356.146801 L277.718408,357.372957 C276.604581,358.110342 275.639716,358.056222 274.886444,356.914628 L272.702802,353.620073 C272.281308,353.004458 272.372716,352.236631 272.870384,351.891616 L273.98421,351.184673 C274.480185,350.853188 275.218222,351.064595 275.626174,351.673445 L277.296915,354.176495 L284.088212,349.686226 L281.406902,345.721936 C278.921951,341.930154 274.209346,341.441382 270.233085,344.081424 L268.230567,345.420894 C264.315245,348.006815 262.131602,352.409138 265.009271,356.733665 L268.861961,362.526196 C271.67869,366.789837 277.098863,366.348421 280.232136,364.278331 C283.079335,362.375675 283.893546,363.968832 284.885495,365.487574" id="Shape" fill="#6189B9"></path>
                    <path d="M52.8827954,375.433816 C49.9475737,379.795549 44.7356085,380.022177 41.1825345,377.637514 L37.5380522,375.163216 C33.9832854,372.793774 32.2516061,367.880693 35.1732859,363.510503 L47.0699053,345.733775 C50.0068198,341.363585 55.2306342,341.114971 58.7701663,343.492869 L62.4298833,345.936725 C65.9829573,348.306166 67.7603407,353.219247 64.838661,357.602967 L62.4738947,361.139371 L55.2306342,356.28041 L56.7219435,354.083476 C57.2636223,353.26322 57.2331528,352.262 56.6474627,351.871321 L55.4879316,351.095037 C54.9005487,350.70605 53.9678456,351.064595 53.4092394,351.886542 C53.4092394,351.886542 52.8370912,352.772757 51.9483996,354.098697 C50.3216706,356.513802 43.2595339,367.051981 43.2595339,367.051981 C42.7178552,367.879002 42.7313971,368.871766 43.3204728,369.264136 L44.4800038,370.053949 C45.052152,370.437863 46.0000898,370.091157 46.558696,369.264136 L49.2230784,365.321832 L47.9738318,364.472824 L51.33224,359.44643 L59.8399818,365.118882 L52.8827954,375.433816 L52.8827954,375.433816 Z" id="Shape" fill="#6189B9"></path>
                </g>
            </g>
        </g>
    </g>
</svg>