<?xml version="1.0" encoding="UTF-8"?>
<svg width="512px" height="512px" viewBox="0 0 512 512" version="1.1" xmlns="http://www.w3.org/2000/svg" xmlns:xlink="http://www.w3.org/1999/xlink">
    <!-- Generator: Sketch 42 (36781) - http://www.bohemiancoding.com/sketch -->
    <title>portland-trail-blazers</title>
    <desc>Created with Sketch.</desc>
    <defs>
        <polygon id="path-1" points="9.73953333 0.546 11.8583128 4.36106667 0.7304 46.1170667 12.4355333 46.1170667 13.5260308 42.0142667 7.55681026 42.0142667 18.6432462 0.546"></polygon>
        <linearGradient x1="50.3738368%" y1="1.17082296%" x2="50.3738368%" y2="98.9761321%" id="linearGradient-3">
            <stop stop-color="#FFFFFF" offset="0%"></stop>
            <stop stop-color="#FFFFFF" offset="14.61%"></stop>
            <stop stop-color="#FAFBFB" offset="28.18%"></stop>
            <stop stop-color="#ECEFF1" offset="44.23%"></stop>
            <stop stop-color="#D4DBE0" offset="61.48%"></stop>
            <stop stop-color="#C4CED4" offset="70.79%"></stop>
            <stop stop-color="#C4CED4" offset="100%"></stop>
        </linearGradient>
        <path d="M19.8478051,8.44653333 L15.3631128,30.3645333 L11.9533641,30.3645333 L19.8478051,8.44653333 L19.8478051,8.44653333 Z M16.173641,4.23106667 L0.562764103,46.1014667 L6.37126154,46.1170667 L10.4135333,34.5470667 L14.5681385,34.5470667 L12.0812513,46.1170667 L18.0660256,46.1170667 L26.4253538,0.546 L14.2795282,0.546 L16.173641,4.23106667 L16.173641,4.23106667 Z" id="path-4"></path>
        <polygon id="path-6" points="11.8012821 0.546 14.0479487 4.48933333 19.9843333 4.48933333 0.875569231 46.1170667 16.0855026 46.1170667 17.176 42.0142667 8.97739487 42.0142667 28.0550513 0.546"></polygon>
        <path d="M9.92272308,0.546 L12.121,4.35933333 L0.994815385,46.1170667 L13.4206103,46.1170667 L14.5197487,41.9969333 L7.82122564,41.9969333 C7.82122564,41.9969333 12.121,25.8734667 12.6498308,23.9269333 L18.650159,23.9269333 L19.7579385,19.8224 L13.7420564,19.8224 L17.8327179,4.53613333 L24.4914923,4.53613333 L25.542241,0.546 L9.92272308,0.546 L9.92272308,0.546 Z" id="path-8"></path>
        <path d="M17.0936769,4.264 C17.0936769,4.264 19.1623385,4.1184 19.8674462,4.39226667 C20.4792308,4.6176 20.5016974,5.1792 20.2044462,6.3388 L17.3892,16.9121333 C16.9640615,18.5206667 16.6426154,18.7616 16.3384513,19.0510667 C15.9686154,19.3890667 15.1753692,19.8224 13.4108718,19.8224 L12.9390718,19.8224 L17.0936769,4.264 L17.0936769,4.264 Z M19.2349231,0.546 L9.11109744,0.546 L11.3162872,4.35933333 L0.165907692,46.1482667 L5.91046154,46.1482667 C5.91046154,46.1482667 11.2609846,26.0173333 11.8468462,23.9269333 L12.3203744,23.9269333 C13.4195128,23.9269333 14.1730103,24.0378667 14.6050615,24.4088 C14.9904513,24.7450667 15.1356205,25.3586667 14.8470103,26.5009333 L9.56043077,46.1482667 L15.3188103,46.1482667 L20.4463949,27.0157333 C20.9112821,25.2616 21.3035846,23.6028 20.093841,22.4605333 C19.6600615,22.074 19.0983949,21.8989333 19.0983949,21.8989333 C19.0983949,21.8989333 19.6427795,21.7377333 20.4152872,21.32 C20.9112821,21.0461333 21.4591231,20.6752 21.8911744,20.1448 C22.2057077,19.6924 22.5167846,19.2417333 22.8053949,18.1636 L25.805559,6.93333333 C25.805559,6.93333333 25.9161641,6.5624 25.9334462,6.5156 C26.3413026,4.92093333 26.7750821,3.02293333 24.9708359,1.7524 C23.3100308,0.546 21.1515026,0.546 19.2487487,0.546 L19.2349231,0.546 L19.2349231,0.546 Z" id="path-10"></path>
        <path d="M16.3989385,0.546 L8.94691795,0.546 L10.0132205,2.444 L10.8963333,4.05426667 C10.4072513,4.87586667 10.118641,5.77546667 9.86805128,6.6612 L9.29083077,8.76893333 C8.81038974,10.6201333 8.44055385,12.5025333 8.3921641,14.0157333 C8.33513333,15.5445333 8.79137949,17.4096 9.29083077,18.746 C9.77127179,20.0824 12.595159,27.0504 12.8042718,28.0470667 C12.9822769,29.0454667 13.1741077,29.7041333 12.4983795,32.2642667 L10.0443282,41.4041333 C9.77127179,42.4649333 9.60190769,43.0438667 7.81494359,43.0438667 C6.0331641,43.0438667 6.09710769,42.3037333 6.32177436,41.4041333 L9.436,29.8826667 L3.64305641,29.8982667 L0.94705641,39.988 C0.513276923,41.6294667 0.257502564,43.2865333 1.20283077,44.59 C2.11705128,45.8293333 4.0094359,46.4082667 7.00095897,46.4082667 C13.556041,46.3926667 15.2721487,43.3350667 16.1552615,40.0521333 C16.1552615,40.0521333 17.919759,33.4862667 18.3690923,31.8292 C19.1243179,28.9657333 18.930759,27.6466667 18.6404205,26.1161333 C18.3518103,24.5717333 17.734841,23.2041333 17.2941487,22.0774667 L15.1909231,16.6556 C14.5981487,15.1268 14.3250923,14.0486667 14.3337333,12.6966667 C14.3337333,11.2961333 14.7675128,9.80026667 15.2721487,7.88666667 L15.9772564,5.31266667 C16.2019231,4.39573333 16.3937538,3.7024 18.3189744,3.6712 C19.0413641,3.6712 19.5131641,3.79946667 19.6998103,4.05773333 C19.8760872,4.26746667 19.8760872,4.6696 19.6669744,5.3144 L17.2111949,14.5184 L22.9713026,14.5184 L25.0572462,6.74786667 C25.4581897,5.18613333 25.8124718,3.432 24.8481333,2.12853333 C23.9425538,0.8736 22.1054718,0.310266667 19.1692513,0.310266667 C18.1098615,0.305066667 17.2181077,0.4004 16.3989385,0.546" id="path-12"></path>
        <path d="M12.6256359,23.9286667 L13.0905231,23.9286667 C14.1810205,23.9286667 14.9518,24.0396 15.3682974,24.4105333 C15.769241,24.7468 15.9144103,25.3604 15.6085179,26.5026667 L11.7580769,40.9049333 C11.5420513,41.6450667 11.3415795,42.0298667 10.9078,42.2725333 C10.4895744,42.4978667 9.88124615,42.5793333 8.69396923,42.5793333 L7.60347179,42.5793333 L12.6256359,23.9286667 L12.6256359,23.9286667 Z M17.8811077,4.264 C17.8811077,4.264 19.9273026,4.1184 20.6168564,4.39226667 C21.2597487,4.6176 21.2839436,5.1792 20.9866923,6.3388 L18.1455231,16.9121333 C17.7290256,18.5206667 17.4248615,18.7616 17.1276103,19.0510667 C16.7335795,19.3890667 15.9334205,19.8224 14.1671949,19.8224 L13.7178615,19.8224 L17.8811077,4.264 L17.8811077,4.264 Z M20.4786,0.546 L10.0419692,0.546 L12.0950769,4.39226667 L0.944697436,46.1170667 L7.74691282,46.1170667 C9.65657949,46.1170667 12.1763026,46.3268 14.5577692,44.9592 C17.0377436,43.5586667 17.454241,41.2741333 17.8379026,39.8424 L21.2562923,27.0174667 C21.7367333,25.2633333 22.1394051,23.6045333 20.9348462,22.4622667 C20.5010667,22.0757333 19.9394,21.9006667 19.9394,21.9006667 C19.9394,21.9006667 20.4613179,21.7394667 21.2545641,21.3217333 C21.7522872,21.0478667 22.2655641,20.6769333 22.6976154,20.1465333 C23.0501692,19.6941333 23.3474205,19.2434667 23.6360308,18.1653333 L26.7243333,6.54853333 C26.7571692,6.43586667 26.8038308,6.29026667 26.8539487,6.1776 C27.2393385,4.69733333 27.5435026,2.9744 25.8671436,1.7524 C24.2547282,0.5928 22.0737333,0.546 20.8052308,0.546 L20.4786,0.546 L20.4786,0.546 Z" id="path-14"></path>
        <polygon id="path-16" points="11.3675026 4.41813333 0.225764103 46.1758667 11.9291692 46.1758667 13.0196667 42.0886667 7.05217436 42.0886667 18.1386103 0.6204 9.23489744 0.5892"></polygon>
        <path d="M19.874359,8.52093333 L15.4069487,30.4389333 L12.005841,30.4389333 L19.874359,8.52093333 L19.874359,8.52093333 Z M16.2330308,4.28813333 L0.613512821,46.1585333 L6.42201026,46.1758667 L10.4487282,34.6041333 L14.6206154,34.5885333 C14.1712821,36.8418667 12.1008923,46.1758667 12.1008923,46.1758667 L18.1012205,46.1758667 L26.4761026,0.6204 L14.3302769,0.6204 L16.2330308,4.28813333 L16.2330308,4.28813333 Z" id="path-18"></path>
        <path d="M17.6708974,4.30546667 C17.6708974,4.30546667 19.7240051,4.1928 20.413559,4.44933333 C21.0564513,4.692 21.0720051,5.238 20.7747538,6.3976 L17.9422256,16.9848 C17.5257282,18.5933333 17.2284769,18.8342667 16.9156718,19.1237333 C16.5302821,19.4617333 15.7283949,19.8950667 13.9638974,19.8950667 L13.5145641,19.8950667 L17.6708974,4.30546667 L17.6708974,4.30546667 Z M19.7896769,0.6204 L9.69868718,0.6204 L11.8969641,4.4164 L0.729302564,46.2070667 L6.44966154,46.2070667 L12.4171538,23.9684 L12.8906821,23.9684 C13.9898205,23.9684 14.7761538,24.0793333 15.1684564,24.4658667 C15.5538462,24.7882667 15.7145692,25.4157333 15.3844821,26.5424 L10.1462923,46.2070667 L15.897759,46.2070667 L20.9994205,27.0572 C21.4885026,25.3186667 21.8738923,23.6616 20.6710615,22.5366667 C20.2372821,22.1345333 19.6756154,21.9404 19.6756154,21.9404 C19.6756154,21.9404 20.1975333,21.8121333 20.9752256,21.3770667 C21.4885026,21.0876 22.0017795,20.7496 22.435559,20.2018667 C22.7881128,19.7512 23.0784513,19.2849333 23.3670615,18.2224 L26.3672256,6.9904 C26.3672256,6.9904 26.479559,6.6212 26.4951128,6.55706667 C26.9133385,4.97973333 27.3298359,3.09733333 25.5325026,1.80946667 C23.9200872,0.634266667 21.8583385,0.618666667 19.9970615,0.618666667 C19.9262051,0.6204 19.8536205,0.6204 19.7896769,0.6204 L19.7896769,0.6204 Z" id="path-20"></path>
        <polygon id="path-22" points="11.197041 4.41813333 0.0639435897 46.1758667 5.82232308 46.1758667 17.9750615 0.6204 9.07998974 0.5892"></polygon>
        <polygon id="path-24" points="6.63913333 0.6204 8.91690769 4.59493333 11.5489641 4.59493333 0.445246154 46.1758667 6.18807179 46.1758667 17.3004308 4.59493333 21.6710615 4.59493333 23.5167846 0.6204"></polygon>
    </defs>
    <g id="NBA" stroke="none" stroke-width="1" fill="none" fill-rule="evenodd">
        <g id="portland-trail-blazers">
            <g transform="translate(86.000000, 49.000000)" id="Group">
                <g>
                    <polygon id="Shape" fill="#BAC3C9" points="111.878185 0 0.289707692 416 227.154651 416 338.708564 0"></polygon>
                    <polygon id="Shape" fill="#061922" points="220.70499 407.551733 11.3450359 407.551733 118.327846 8.45173333 327.703354 8.45173333"></polygon>
                    <path d="M168.272974,202.7168 L175.251467,195.6968 C167.277528,193.235467 162.768641,187.754667 162.768641,180.734667 C162.768641,177.073867 164.292918,173.787467 166.764251,171.466533 L257.686851,80.2342667 L252.600744,80.2342667 L167.052862,157.584267 L159.721815,164.2108 C155.373651,168.3708 152.662097,174.245067 152.662097,180.7364 C152.662097,182.246133 152.805538,183.7264 153.078595,185.146 C154.682369,193.3308 161.470759,200.278 168.272974,202.7168" id="Shape" fill="#BAC3C9"></path>
                    <path d="M157.684262,213.328267 L164.565974,206.417467 C153.897764,200.9696 147.961379,191.899067 147.961379,180.734667 C147.961379,173.236267 150.94599,166.4572 155.79879,161.4808 L236.734092,80.2377333 L232.048928,80.2377333 L156.320708,147.3368 C155.276872,148.180933 148.811656,154.098533 147.961379,155.129867 C141.687995,161.820533 137.853108,170.823467 137.853108,180.734667 C137.853108,182.497467 137.996549,184.203067 138.254051,185.8844 C139.971887,197.8808 147.448103,208.026 157.684262,213.328267" id="Shape" fill="#BAC3C9"></path>
                    <path d="M153.897764,217.139867 C140.886108,209.121467 133.136836,196.062533 133.136836,180.732933 C133.136836,169.3952 137.597333,159.1044 144.833328,151.502 L215.796887,80.236 L211.512667,80.236 L145.586826,137.106667 C143.485328,138.796667 137.901497,143.986267 136.168108,146.045467 C128.017892,155.273733 123.044118,167.4348 123.044118,180.7312 C123.044118,182.7176 123.172005,184.678 123.412226,186.603733 C125.257949,202.427333 134.211779,216.072133 146.90199,224.139067 L153.897764,217.139867 Z" id="Shape" fill="#BAC3C9"></path>
                    <path d="M136.104164,234.968933 L143.212272,227.841467 C127.938395,217.268133 118.3434,200.222533 118.3434,180.7364 C118.3434,165.554133 124.248677,151.760267 133.859226,141.537067 L194.875236,80.2394667 L190.943569,80.2394667 L134.852944,126.8592 C131.709338,129.405467 126.991338,133.870533 124.392118,136.976667 C114.332236,148.7356 108.235128,164.042667 108.235128,180.734667 C108.235128,182.960267 108.363015,185.159867 108.587682,187.343867 C110.561292,206.977333 120.973728,224.106133 136.104164,234.968933" id="Shape" fill="#BAC3C9"></path>
                    <path d="M93.7320308,188.064933 C95.8335282,211.518667 107.737405,232.152267 125.308067,245.7988 L132.526779,238.572533 C114.942292,225.4096 103.551692,204.377333 103.551692,180.7312 C103.551692,161.726933 110.900021,144.423067 122.917959,131.5392 L173.922477,80.2342667 L170.393482,80.2342667 L124.119062,116.601333 C119.931621,119.976133 116.081179,123.758267 112.631682,127.890533 C100.663862,142.1992 93.4278667,160.636667 93.4278667,180.7312 C93.4261385,183.213333 93.5229179,185.659067 93.7320308,188.064933" id="Shape" fill="#BAC3C9"></path>
                    <path d="M184.493908,160.161733 L177.498133,167.173067 C185.487626,169.643067 190.012067,175.1152 190.012067,182.133467 C190.012067,185.782133 188.4394,189.0772 185.985349,191.403333 L95.0783026,282.647733 L100.148856,282.647733 L185.729574,205.294267 L193.045067,198.667733 C197.393231,194.5008 200.104785,188.6196 200.104785,182.133467 C200.104785,180.6168 199.959615,179.1452 199.671005,177.7256 C198.065503,169.523467 191.296123,162.5832 184.493908,160.161733" id="Shape" fill="#E03A3E"></path>
                    <path d="M195.067067,149.532933 L188.183626,156.4524 C198.884672,161.9072 204.789949,170.9708 204.789949,182.133467 C204.789949,189.616267 201.820892,196.410933 196.976733,201.371733 L116.017236,282.647733 L120.717954,282.647733 L196.446174,215.54 C197.49001,214.680267 203.955226,208.766133 204.822785,207.736533 C211.078887,201.051067 214.913774,192.0308 214.913774,182.133467 C214.913774,180.388 214.785887,178.658133 214.514559,176.9924 C212.779441,164.973467 205.318779,154.856 195.067067,149.532933" id="Shape" fill="#E03A3E"></path>
                    <path d="M205.863164,138.718667 L198.884672,145.738667 C211.847938,153.772667 219.614492,166.814267 219.614492,182.138667 C219.614492,193.459067 215.185103,203.758533 207.902446,211.373067 L136.971723,282.647733 L141.271497,282.647733 L207.180056,225.7632 C209.266,224.059333 214.849831,218.874933 216.581492,216.833067 C224.762815,207.592667 229.722764,195.455867 229.722764,182.138667 C229.722764,180.147067 229.594877,178.1676 229.337374,176.273067 C227.507205,160.447733 218.539549,146.792533 205.863164,138.718667" id="Shape" fill="#E03A3E"></path>
                    <path d="M209.552882,135.035333 C224.844041,145.603467 234.421754,162.652533 234.421754,182.1352 C234.421754,197.310533 228.500923,211.116533 218.892103,221.339733 L157.9072,282.649467 L161.806031,282.649467 L217.91221,236.015867 C221.055815,233.473067 225.773815,228.999333 228.357482,225.910533 C238.415636,214.127333 244.528297,198.8272 244.528297,182.136933 C244.528297,179.9044 244.417692,177.680533 244.175744,175.5312 C242.219415,155.892533 231.791426,138.755067 216.645436,127.890533 L209.552882,135.035333 Z" id="Shape" fill="#E03A3E"></path>
                    <path d="M259.019297,174.798 C256.948908,151.359867 245.027749,130.7176 227.458815,117.076267 L220.238374,124.293867 C237.822862,137.468933 249.230744,158.4856 249.230744,182.1404 C249.230744,201.1412 241.849579,218.443333 229.864477,231.349733 L178.846133,282.6512 L182.357846,282.6512 L228.661646,246.2512 C232.816251,242.888533 236.668421,239.1064 240.133472,234.986267 C252.103021,220.681067 259.339015,202.228 259.339015,182.142133 C259.339015,179.6652 259.226682,177.2108 259.019297,174.798" id="Shape" fill="#E03A3E"></path>
                    <g id="Clipped" transform="translate(60.487179, 348.400000)">
                        <mask id="mask-2" fill="white">
                            <use xlink:href="#path-1"></use>
                        </mask>
                        <g id="SVGID_1_"></g>
                        <rect id="Rectangle-path" fill="url(#linearGradient-3)" mask="url(#mask-2)" x="1" y="0" width="17.9128462" height="45.5710667"></rect>
                    </g>
                    <g id="Clipped" transform="translate(84.682051, 348.400000)">
                        <mask id="mask-5" fill="white">
                            <use xlink:href="#path-4"></use>
                        </mask>
                        <g id="SVGID_4_"></g>
                        <rect id="Rectangle-path" fill="url(#linearGradient-3)" mask="url(#mask-5)" x="1" y="0" width="25.8625897" height="45.5710667"></rect>
                    </g>
                    <g id="Clipped" transform="translate(112.333333, 348.400000)">
                        <mask id="mask-7" fill="white">
                            <use xlink:href="#path-6"></use>
                        </mask>
                        <g id="SVGID_7_"></g>
                        <rect id="Rectangle-path" fill="url(#linearGradient-3)" mask="url(#mask-7)" x="1" y="0" width="27.1863949" height="45.5710667"></rect>
                    </g>
                    <g id="Clipped" transform="translate(141.712821, 348.400000)">
                        <mask id="mask-9" fill="white">
                            <use xlink:href="#path-8"></use>
                        </mask>
                        <g id="SVGID_10_"></g>
                        <rect id="Rectangle-path" fill="url(#linearGradient-3)" mask="url(#mask-9)" x="1" y="0" width="24.5474256" height="45.5710667"></rect>
                    </g>
                    <g id="Clipped" transform="translate(168.635897, 348.400000)">
                        <mask id="mask-11" fill="white">
                            <use xlink:href="#path-10"></use>
                        </mask>
                        <g id="SVGID_13_"></g>
                        <rect id="Rectangle-path" fill="url(#linearGradient-3)" mask="url(#mask-11)" x="0" y="0" width="26.6091744" height="45.604"></rect>
                    </g>
                    <g id="Clipped" transform="translate(198.015385, 348.400000)">
                        <mask id="mask-13" fill="white">
                            <use xlink:href="#path-12"></use>
                        </mask>
                        <g id="SVGID_16_"></g>
                        <rect id="Rectangle-path" fill="url(#linearGradient-3)" mask="url(#mask-13)" x="0" y="0" width="25.5584256" height="46.1032"></rect>
                    </g>
                    <g id="Clipped" transform="translate(29.379487, 348.400000)">
                        <mask id="mask-15" fill="white">
                            <use xlink:href="#path-14"></use>
                        </mask>
                        <g id="SVGID_19_"></g>
                        <rect id="Rectangle-path" fill="url(#linearGradient-3)" mask="url(#mask-15)" x="1" y="0" width="26.6005333" height="45.7808"></rect>
                    </g>
                    <g id="Clipped" transform="translate(184.917949, 295.400000)">
                        <mask id="mask-17" fill="white">
                            <use xlink:href="#path-16"></use>
                        </mask>
                        <g id="SVGID_22_"></g>
                        <rect id="Rectangle-path" fill="url(#linearGradient-3)" mask="url(#mask-17)" x="1" y="1" width="17.9128462" height="45.5884"></rect>
                    </g>
                    <g id="Clipped" transform="translate(125.430769, 295.400000)">
                        <mask id="mask-19" fill="white">
                            <use xlink:href="#path-18"></use>
                        </mask>
                        <g id="SVGID_25_"></g>
                        <rect id="Rectangle-path" fill="url(#linearGradient-3)" mask="url(#mask-19)" x="0" y="1" width="25.8625897" height="45.5554667"></rect>
                    </g>
                    <g id="Clipped" transform="translate(96.051282, 295.400000)">
                        <mask id="mask-21" fill="white">
                            <use xlink:href="#path-20"></use>
                        </mask>
                        <g id="SVGID_28_"></g>
                        <rect id="Rectangle-path" fill="url(#linearGradient-3)" mask="url(#mask-21)" x="0" y="1" width="26.6022615" height="45.5884"></rect>
                    </g>
                    <g id="Clipped" transform="translate(159.994872, 295.400000)">
                        <mask id="mask-23" fill="white">
                            <use xlink:href="#path-22"></use>
                        </mask>
                        <g id="SVGID_31_"></g>
                        <rect id="Rectangle-path" fill="url(#linearGradient-3)" mask="url(#mask-23)" x="0" y="1" width="17.9128462" height="45.5884"></rect>
                    </g>
                    <g id="Clipped" transform="translate(70.856410, 295.400000)">
                        <mask id="mask-25" fill="white">
                            <use xlink:href="#path-24"></use>
                        </mask>
                        <g id="SVGID_34_"></g>
                        <rect id="Rectangle-path" fill="url(#linearGradient-3)" mask="url(#mask-25)" x="1" y="1" width="23.0628974" height="45.5554667"></rect>
                    </g>
                    <path d="M112.968682,314.525467 C113.272846,314.236 113.578738,313.993333 113.995236,312.386533 L116.836405,301.799333 C117.125015,300.639733 117.109462,300.093733 116.459656,299.851067 C115.770103,299.594533 113.716995,299.689867 113.716995,299.689867 C113.716995,299.689867 113.708354,299.7072 113.708354,299.754 C113.933021,299.771333 114.109297,299.786933 114.270021,299.851067 C114.911185,300.093733 114.944021,300.639733 114.622574,301.799333 L111.783133,312.386533 C111.364908,313.995067 111.060744,314.236 110.739297,314.525467 C110.547467,314.704 109.60041,315.0888 109.60041,315.0888 L109.567574,315.2968 L110.016908,315.2968 C111.781405,315.2968 112.583292,314.863467 112.968682,314.525467 L112.968682,314.525467 Z M69.0878256,341.575867 L71.3016564,341.575867 L82.4036462,299.9776 L80.2053692,299.9776 L69.0878256,341.575867 L69.0878256,341.575867 Z M97.8382462,378.764533 L100.052077,378.764533 L104.528128,356.846533 L99.3936308,371.089333 L97.8382462,378.764533 L97.8382462,378.764533 Z M126.037369,341.560267 L141.656887,299.689867 L139.762774,296.0048 L137.53339,296.0048 L139.441328,299.689867 L123.814897,341.560267 L126.037369,341.560267 L126.037369,341.560267 Z M79.7733179,299.9776 L77.4955436,296.003067 L75.2817128,296.003067 L77.5594872,299.9776 L79.7733179,299.9776 L79.7733179,299.9776 Z M96.7788564,341.591467 L107.946518,299.8164 L105.748241,296.003067 L103.549964,296.003067 L105.732687,299.8164 L94.5408308,341.591467 L96.7788564,341.591467 L96.7788564,341.591467 Z M111.219738,319.852 C110.818795,319.4984 110.048015,319.370133 108.941964,319.370133 L108.459795,319.370133 C108.459795,319.370133 108.411405,319.514 108.411405,319.562533 C108.651626,319.642267 108.860738,319.723733 109.037015,319.852 C109.391297,320.2056 109.550292,320.817467 109.230574,321.9268 L103.983744,341.591467 L106.190662,341.591467 L111.444405,321.9268 C111.765851,320.817467 111.605128,320.2056 111.219738,319.852 L111.219738,319.852 Z M207.307944,367.144267 C206.803308,365.807867 206.345333,363.9428 206.409277,362.414 C206.455938,360.883467 206.817133,359.001067 207.307944,357.1672 L207.885164,355.059467 C208.127113,354.173733 208.415723,353.274133 208.913446,352.469867 L206.970944,348.946 L204.7502,348.946 L206.699615,352.469867 C206.219174,353.274133 205.897728,354.173733 205.671333,355.0768 L205.102754,357.184533 C204.613672,359.020133 204.261118,360.902533 204.211,362.4296 C204.147056,363.9584 204.611944,365.8252 205.094113,367.175467 C205.574554,368.496267 208.415723,375.462533 208.607554,376.460933 C208.785559,377.442 208.992944,378.118 208.286108,380.6764 L205.863164,389.816267 C205.655779,390.573733 205.51061,391.072933 204.764026,391.296533 C205.045723,391.3936 205.398277,391.4404 205.832056,391.4404 C207.627662,391.4248 207.788385,390.861467 208.061441,389.814533 L210.515492,380.659067 C211.191221,378.098933 210.997662,377.442 210.821385,376.4592 C210.612272,375.464267 207.788385,368.4824 207.307944,367.144267 L207.307944,367.144267 Z M135.333385,341.575867 L137.547215,341.575867 L140.049656,329.988533 L137.835826,329.988533 L135.333385,341.575867 L135.333385,341.575867 Z M160.058815,341.575867 L171.193641,299.8164 L169.074862,295.987467 L166.861031,295.987467 L168.995364,299.8164 L157.844985,341.575867 L160.058815,341.575867 L160.058815,341.575867 Z M216.132159,348.7536 C215.762323,348.720667 215.370021,348.720667 214.97599,348.720667 C213.990913,348.720667 213.099159,348.817733 212.312826,348.946 L214.414323,348.946 C214.944882,348.850667 215.522103,348.786533 216.132159,348.7536 L216.132159,348.7536 Z M194.144205,295.9892 L191.939015,295.9892 L194.057795,299.818133 L182.922969,341.5776 L185.1368,341.5776 L196.287179,299.818133 L194.144205,295.9892 L194.144205,295.9892 Z M188.503344,352.792267 C187.798236,352.5184 185.729574,352.646667 185.729574,352.646667 L185.729574,352.6952 C185.954241,352.728133 186.146072,352.759333 186.267046,352.806133 C186.916851,353.031467 186.9566,353.5948 186.661077,354.752667 L183.806082,365.326 C183.389585,366.936267 183.083692,367.1928 182.779528,367.466667 C182.554862,367.659067 182.217862,367.8844 181.607805,368.028267 C181.607805,368.109733 181.574969,368.220667 181.574969,368.220667 L182.039856,368.220667 C183.804354,368.220667 184.606241,367.787333 184.976077,367.449333 C185.281969,367.175467 185.593046,366.9172 186.033738,365.3104 L188.842072,354.737067 C189.146236,353.5792 189.115128,353.0176 188.503344,352.792267 L188.503344,352.792267 Z M138.622159,325.8372 L137.434882,325.8372 L140.83599,325.8372 L145.312041,303.9192 L140.177544,318.2088 L138.622159,325.8372 L138.622159,325.8372 Z M49.9946154,352.792267 C49.3050615,352.5184 47.2519538,352.646667 47.2519538,352.646667 L47.2191179,352.6952 C47.2191179,352.6952 47.6442564,352.759333 47.7963385,352.806133 C48.4219487,353.031467 48.4703385,353.5948 48.1644462,354.752667 L45.3250051,365.326 C44.8912256,366.936267 44.6026154,367.1928 44.2811692,367.466667 C44.0565026,367.659067 43.1422821,368.028267 43.1422821,368.028267 L43.0938923,368.220667 L43.5345846,368.220667 C45.3077231,368.220667 46.1096103,367.787333 46.495,367.449333 C46.7991641,367.175467 47.1050564,366.9172 47.5215538,365.3104 L50.3627231,354.737067 C50.6530615,353.5792 50.6375077,353.0176 49.9946154,352.792267 L49.9946154,352.792267 Z M215.233492,362.9132 L217.689272,353.7092 C217.896656,353.0644 217.896656,352.662267 217.722108,352.469867 C217.544103,352.196 217.063662,352.067733 216.341272,352.067733 C215.827995,352.083333 215.458159,352.131867 215.138441,352.2116 C215.316446,352.275733 215.444333,352.3572 215.523831,352.469867 C215.684554,352.677867 215.651718,353.0956 215.490995,353.7404 L213.052497,362.911467 L215.233492,362.911467 L215.233492,362.9132 Z M180.963185,372.328667 L180.482744,372.328667 L180.436082,372.505467 C180.436082,372.505467 180.868133,372.684 181.028856,372.812267 C181.415974,373.148533 181.574969,373.762133 181.270805,374.9044 L175.991138,394.551733 L178.204969,394.551733 L183.484636,374.887067 C183.773246,373.762133 183.628077,373.148533 183.242687,372.794933 C182.808908,372.424 182.05541,372.328667 180.963185,372.328667 L180.963185,372.328667 Z M151.651097,348.946 L149.452821,348.946 L151.635544,352.774933 L140.46961,394.5344 L152.935154,394.5344 L152.935154,394.517067 L142.698995,394.517067 L153.833821,352.759333 L151.651097,348.946 L151.651097,348.946 Z M199.221672,392.99 C198.274615,391.686533 198.532118,390.012133 198.965897,388.388 L201.661897,378.282667 L199.463621,378.282667 L196.767621,388.405333 C196.351123,390.013867 196.062513,391.702133 197.009569,392.991733 C197.915149,394.246667 199.817903,394.827333 202.802513,394.81 C203.201728,394.81 203.588846,394.81 203.956954,394.7944 C201.580672,394.662667 200.023559,394.068133 199.221672,392.99 L199.221672,392.99 Z M179.952185,352.761067 L177.755636,348.947733 L175.559087,348.947733 L177.74181,352.776667 L166.589703,394.551733 L168.803533,394.551733 L179.952185,352.761067 L179.952185,352.761067 Z M126.372641,352.889333 L124.134615,348.947733 L121.920785,348.947733 L124.183005,352.904933 L126.372641,352.889333 L126.372641,352.889333 Z M130.103836,352.904933 L111.026179,394.536133 L113.208903,394.5188 L132.317667,352.889333 L130.103836,352.904933 L130.103836,352.904933 Z M30.3259128,394.517067 L41.4762923,352.807867 L39.4231846,348.946 L37.2093538,348.946 L39.2624615,352.839067 L28.1120821,394.517067 L30.3259128,394.517067 L30.3259128,394.517067 Z M42.4700103,372.328667 L42.0051231,372.328667 L41.9411795,372.505467 C41.9411795,372.505467 42.3905128,372.684 42.5512359,372.812267 C42.9366256,373.148533 43.0973487,373.762133 42.7759026,374.9044 L38.9081795,389.306667 C38.7163487,390.064133 38.5227897,390.4316 38.0907385,390.674267 C37.8349641,390.819867 37.000241,390.948133 37.000241,390.948133 L36.9846872,390.963733 L38.0665436,390.963733 C39.2624615,390.963733 39.8707897,390.916933 40.2890154,390.674267 C40.7210667,390.4316 40.9301795,390.0312 41.1392923,389.306667 L44.9897333,374.8888 C45.2956256,373.763867 45.1504564,373.150267 44.7495128,372.796667 C44.3312872,372.424 43.5535949,372.328667 42.4700103,372.328667 L42.4700103,372.328667 Z M70.2353538,348.946 L68.0301641,348.946 L70.1489436,352.774933 L58.9985641,394.5344 L61.2123949,394.517067 L72.3472205,352.759333 L70.2353538,348.946 L70.2353538,348.946 Z M85.2448154,394.5032 L100.855692,352.6328 L98.9615795,348.947733 L96.7477487,348.947733 L98.6418615,352.6328 L83.0309846,394.5188 L85.2448154,394.5032 L85.2448154,394.5032 Z M96.7633026,394.517067 L99.2501897,382.947067 L97.036359,382.962667 L94.5408308,394.5344 L96.7633026,394.517067 L96.7633026,394.517067 Z" id="Shape" fill="#E03A3E"></path>
                    <polygon id="Shape" fill="#FFFFFF" points="215.940328 21.1050667 214.189656 27.0313333 208.624836 27.0313333 197.007841 66.4750667 190.573733 66.4750667 202.190728 27.0313333 198.981451 27.0313333 196.349395 21.1050667"></polygon>
                    <path d="M137.419328,21.0998667 L126.156615,21.0998667 L129.044446,26.6118667 L117.299564,66.4716 L123.749226,66.4716 L128.850887,49.0793333 L131.546887,49.0793333 C136.520662,49.0793333 140.130882,46.0130667 141.974877,39.7782667 L144.855795,29.9658667 C146.820764,23.3324 144.093656,21.0998667 137.419328,21.0998667 M138.174554,30.8654667 L134.980831,41.6346667 C134.40361,43.6505333 132.333221,43.6505333 130.465031,43.6505333 L135.51139,26.5165333 L136.665831,26.5165333 C138.848554,26.5148 139.088774,27.7264 138.174554,30.8654667" id="Shape" fill="#FFFFFF"></path>
                    <path d="M162.834313,20.228 C161.358426,20.228 159.803041,20.462 158.164703,21.1449333 L149.871046,21.1449333 L152.710487,26.5477333 C152.518656,26.9498667 152.373487,27.3884 152.228318,27.8754667 L142.842436,59.7410667 C141.109046,65.6829333 145.040713,67.3885333 148.970651,67.3885333 C152.981815,67.3885333 157.9072,65.6829333 159.656144,59.7410667 L169.042026,27.8754667 C170.775415,21.9578667 166.843749,20.228 162.834313,20.228 M162.433369,28.4509333 L153.384487,59.1656 C152.710487,61.4622667 151.9086,61.9736 150.641826,61.9736 C149.278272,61.9736 148.764995,61.464 149.454549,59.1656 L158.487877,28.4509333 C159.144595,26.1525333 159.979318,25.6498667 161.327318,25.6498667 C162.592364,25.6498667 163.105641,26.1525333 162.433369,28.4509333" id="Shape" fill="#FFFFFF"></path>
                    <path d="M186.370738,21.1050667 L173.504251,21.1050667 L176.312585,26.4766667 L164.550421,66.4768 L170.984528,66.4768 L177.33741,44.7928 C180.344487,44.668 181.011574,45.7548 180.192405,48.4986667 C177.465297,57.6870667 174.866077,66.4768 174.866077,66.4768 L181.300185,66.4768 C181.300185,66.4768 183.113072,60.164 186.899569,47.0426667 C188.05401,42.9398667 185.824626,42.3453333 185.824626,42.3453333 C189.001067,41.0782667 189.128954,39.5928 190.108846,36.218 L192.258733,28.8773333 C194.007677,23.0152 191.553626,21.1050667 186.370738,21.1050667 M186.000903,28.756 L183.427605,37.4209333 C182.938523,39.0624 182.070964,40.3416 179.841579,40.3416 L178.638749,40.3416 L182.746692,26.5148 L184.253687,26.5148 C185.696738,26.5148 186.529733,27.0261333 186.000903,28.756" id="Shape" fill="#FFFFFF"></path>
                    <polygon id="Shape" fill="#FFFFFF" points="230.267149 21.1050667 219.372544 21.1050667 222.246549 26.5425333 210.484385 66.4750667 225.101544 66.4750667 226.850487 60.5453333 218.667436 60.5453333"></polygon>
                    <path d="M243.327195,21.1362667 L246.168364,26.5269333 L230.108154,66.4733333 L235.914923,66.4733333 L240.937087,54.184 L245.477082,54.184 L243.055867,66.4733333 L249.569472,66.4733333 L257.992744,21.1033333 L243.327195,21.1362667 L243.327195,21.1362667 Z M246.615969,48.2508 L243.278805,48.2508 L250.402467,29.3834667 L250.834518,29.3834667 L246.615969,48.2508 L246.615969,48.2508 Z" id="Shape" fill="#FFFFFF"></path>
                    <polygon id="Shape" fill="#FFFFFF" points="283.533887 21.1050667 272.302282 59.8624 272.077615 59.8624 278.608503 21.1050667 264.537456 21.1050667 267.376897 26.5113333 255.616462 66.4750667 260.878846 66.4750667 272.110451 27.7316 272.366226 27.7316 265.933846 66.4750667 275.447615 66.4750667 288.811826 21.1050667"></polygon>
                    <path d="M304.118538,21.1085333 L291.844826,21.1085333 L294.749938,26.6361333 L283.005056,66.4716 L292.150718,66.4716 C297.140046,66.4716 300.942097,62.5976 302.241708,58.2556 L310.167256,31.3629333 C312.493421,23.3896 310.486974,21.1085333 304.118538,21.1085333 M304.149646,29.9069333 L295.983877,57.6818667 C295.100764,60.6216 294.202097,61.0688 292.565487,61.0688 L291.04121,61.0688 L301.196144,26.5113333 L302.704867,26.5113333 C304.358759,26.5113333 305.017205,26.9741333 304.149646,29.9069333" id="Shape" fill="#FFFFFF"></path>
                </g>
            </g>
        </g>
    </g>
</svg>