<svg width="512" height="512" viewBox="0 0 512 512" xmlns="http://www.w3.org/2000/svg" xmlns:xlink="http://www.w3.org/1999/xlink"><title>sacramento-kings</title><defs><path d="M0 2.429h260.793c-9.668 64.688-65.12 112.55-130.396 112.55C65.119 114.979 9.668 67.117 0 2.429M56.23 0c.728 5.95 2.356 13.018 4.848 20.692-33.447 8.403-41.203 30.31-41.203 30.31l9.694 13.6s4.266-21.858 36.841-29.63c12.938 30.601 36.84 65.088 69.804 77.717l29.57-6.314C118.762 99.9 92.92 63.533 80.273 33.03c3.539-.486 7.32-.486 11.343-.486 60.593 0 99.858 44.201 126.034 44.201 4.363 0 7.271-3.886 7.271-3.886l9.695-7.286 4.847-12.143s-4.362 8.743-14.542 8.743c-31.508 0-63.017-44.687-135.729-44.687-5.09 0-9.695.267-14.203.729C72.712 11.172 71.258 4.857 70.773 0H56.23" id="a"/></defs><g fill="none" fill-rule="evenodd"><path d="M113 92l41.203 41.287 33.933-34.001 33.932 34.001L256 99.286l33.932 34.001 33.932-34.001 33.933 34.001L399 92v184.091c0 79.137-64.023 143.29-143 143.29s-143-64.153-143-143.29" fill="#FFF"/><path d="M125.119 121.144l29.084 29.143 33.933-34 25.449 25.5-33.932 34.001h16.966L256 116.286l33.932 34.001 33.932-34 25.45 25.5-33.933 34.001h16.966l54.534-54.644V221.69H125.12m0 11.657h19.39v22.83h5.816l10.665-22.83h19.39l-13.573 28.172 13.573 28.173h-19.39l-10.665-22.83h-5.817v22.83h-19.39m61.563-56.345h19.39v56.345h-19.39m26.177-56.345h47.505a5.823 5.823 0 0 1 5.817 5.829v50.516h-19.39v-45.659h-14.543v45.659h-19.39m60.594-56.345h53.322v10.686H292.84v34.973h14.542v-22.83h19.39v33.516h-47.505a5.823 5.823 0 0 1-5.817-5.829m60.108-50.516h53.322v14.572h-19.39v-3.886H352.95v12.143h28.115a5.823 5.823 0 0 1 5.817 5.83v27.686H333.56v-10.686h33.933v-12.144h-28.116a5.823 5.823 0 0 1-5.817-5.828" fill="#5B2B82"/><path d="M133.48 193.517h17.451v4.372h-11.634v4.372h8.726a2.911 2.911 0 0 1 2.908 2.914v9.714h-17.45v-4.371h11.633v-4.372h-8.725a2.911 2.911 0 0 1-2.908-2.914m23.994-9.715h14.543a2.911 2.911 0 0 1 2.908 2.915v18.457h-5.817v-5.343h-5.817v5.343h-5.817m5.817-17h5.817v7.286h-5.817m18.178-11.658h17.451v4.372h-11.634v12.629h11.634v4.371H184.38a2.911 2.911 0 0 1-2.909-2.914m23.995-18.458h14.543a2.911 2.911 0 0 1 2.908 2.915v10.686h-2.908l2.908 7.771H217.1l-2.908-7.771h-2.909v7.771h-5.817m5.817-17h5.817v4.857h-5.817m18.178-9.229h14.543a2.911 2.911 0 0 1 2.908 2.915v18.457h-5.817v-5.343h-5.817v5.343h-5.817m5.817-17h5.817v7.286h-5.817m18.178-11.658h26.176a2.911 2.911 0 0 1 2.909 2.915v18.457h-5.817v-17h-5.817v17h-5.817v-17h-5.817v17h-5.817m35.629-21.372h17.45v4.372h-11.633v4.372h11.634v4.371H294.9v4.372h11.634v4.371h-14.543a2.911 2.911 0 0 1-2.908-2.914m23.995-18.944h14.542a2.911 2.911 0 0 1 2.909 2.915v18.457h-5.817v-17h-5.817v17h-5.817m23.995-21.372h17.45v4.372h-5.816v17h-5.817v-17h-5.817m26.903-4.372h11.634a2.911 2.911 0 0 1 2.908 2.915v15.543a2.911 2.911 0 0 1-2.908 2.914h-11.634a2.911 2.911 0 0 1-2.908-2.914v-15.543a2.911 2.911 0 0 1 2.908-2.915m2.909 4.372h5.817v12.629h-5.817" fill="#FFF"/><g transform="translate(125.603 298.435)"><mask id="b" fill="#fff"><use xlink:href="#a"/></mask><path d="M.485 2.429h259.823C248.236 64.76 193.763 109.77 130.397 109.77 67.03 109.77 12.557 64.76.485 2.43" fill="#63717A" mask="url(#b)"/></g></g></svg>