<?xml version="1.0" encoding="UTF-8"?>
<svg width="512px" height="512px" viewBox="0 0 512 512" version="1.1" xmlns="http://www.w3.org/2000/svg" xmlns:xlink="http://www.w3.org/1999/xlink">
    <!-- Generator: Sketch 42 (36781) - http://www.bohemiancoding.com/sketch -->
    <title>sacramento-kings</title>
    <desc>Created with Sketch.</desc>
    <defs>
        <path d="M0,2.42977285 L259.623288,2.42977285 C249.998314,67.1480374 194.796055,115.032019 129.811644,115.032019 C64.8272329,115.032019 9.6249735,67.1480374 1.37154975e-14,2.42977285 M55.9782553,0 C56.7021121,5.95294347 58.3235512,13.0235825 60.803967,20.7016646 C27.5065565,29.1086787 19.7854178,51.0252298 19.7854178,51.0252298 L29.4368412,64.6319577 C29.4368412,64.6319577 33.6834674,42.7640021 66.1122498,34.988729 C78.9920743,65.6038668 102.787659,100.106641 135.602498,112.74146 L165.039339,106.424051 C118.229936,99.9462762 92.5031018,63.5628576 79.9137852,33.0449107 C83.4365547,32.5589561 87.2006098,32.5589561 91.2059505,32.5589561 C151.527346,32.5589561 190.615611,76.7808219 216.674454,76.7808219 C221.017594,76.7808219 223.913021,72.8931854 223.913021,72.8931854 L233.564445,65.6038668 L238.390156,53.4550026 C238.390156,53.4550026 234.047016,62.2021848 223.913021,62.2021848 C192.545896,62.2021848 161.17877,17.4943645 88.7930947,17.4943645 C83.7260974,17.4943645 79.1416713,17.7616395 74.6537595,18.2232963 C72.385675,11.1769551 70.9379615,4.85954569 70.4553903,0 L55.9782553,0" id="path-1"></path>
    </defs>
    <g id="NBA" stroke="none" stroke-width="1" fill="none" fill-rule="evenodd">
        <g id="sacramento-kings">
            <g id="SacramentoKings" transform="translate(113.000000, 92.000000)">
                <path d="M0,0 L41.059322,41.1118959 L74.8728814,7.25504045 L108.686441,41.1118959 L142.5,7.25504045 L176.313559,41.1118959 L210.127119,7.25504045 L243.940678,41.1118959 L285,0 L285,183.310689 C285,262.112036 221.200577,325.993151 142.5,325.993151 C63.7994231,325.993151 9.63804095e-15,262.112036 0,183.310689" id="Shape" fill="#FFFFFF"></path>
                <path d="M11.7123288,30.2158398 L40.7762557,59.2506044 L74.6841705,25.3767123 L100.115107,50.7821313 L66.2071918,84.6560234 L83.1611492,84.6560234 L142.5,25.3767123 L176.407915,59.2506044 L210.31583,25.3767123 L235.746766,50.7821313 L201.838851,84.6560234 L218.792808,84.6560234 L273.287671,30.2158398 L273.287671,130.385778 L11.7123288,130.385778 M11.7123288,141.999683 L31.0882801,141.999683 L31.0882801,164.743582 L36.9010654,164.743582 L47.5578387,141.999683 L66.93379,141.999683 L53.370624,170.066623 L66.93379,198.133562 L47.5578387,198.133562 L36.9010654,175.389663 L31.0882801,175.389663 L31.0882801,198.133562 L11.7123288,198.133562 M73.2309741,141.999683 L92.6069254,141.999683 L92.6069254,198.133562 L73.2309741,198.133562 M99.3885084,141.999683 L146.859589,141.999683 C150.069902,141.999683 152.672374,144.599545 152.672374,147.806636 L152.672374,198.133562 L133.296423,198.133562 L133.296423,152.645764 L118.76446,152.645764 L118.76446,198.133562 L99.3885084,198.133562 M159.938356,141.999683 L213.222222,141.999683 L213.222222,152.645764 L179.314307,152.645764 L179.314307,187.487481 L193.846271,187.487481 L193.846271,164.743582 L213.222222,164.743582 L213.222222,198.133562 L165.751142,198.133562 C162.540829,198.133562 159.938356,195.5337 159.938356,192.326609 M220.003805,141.999683 L273.287671,141.999683 L273.287671,156.517066 L253.91172,156.517066 L253.91172,152.645764 L239.379756,152.645764 L239.379756,164.743582 L267.474886,164.743582 C270.685199,164.743582 273.287671,167.343444 273.287671,170.550535 L273.287671,198.133562 L220.003805,198.133562 L220.003805,187.487481 L253.91172,187.487481 L253.91172,175.389663 L225.816591,175.389663 C222.606278,175.389663 220.003805,172.789801 220.003805,169.58271" id="Shape" fill="#5B2B82"></path>
                <path d="M20.4965753,101.506849 L37.8739177,101.506849 L37.8739177,105.80137 L26.2890228,105.80137 L26.2890228,110.09589 L34.977694,110.09589 C36.5772342,110.09589 37.8739177,111.377705 37.8739177,112.958904 L37.8739177,122.502283 L20.4965753,122.502283 L20.4965753,118.207763 L32.0814703,118.207763 L32.0814703,113.913242 L23.3927991,113.913242 C21.7932589,113.913242 20.4965753,112.631427 20.4965753,111.050228 M44.3904211,101.506849 L58.8715398,101.506849 C60.47108,101.506849 61.7677635,102.788664 61.7677635,104.369863 L61.7677635,122.502283 L55.975316,122.502283 L55.975316,117.253425 L50.1828686,117.253425 L50.1828686,122.502283 L44.3904211,122.502283 M50.1828686,105.80137 L55.975316,105.80137 L55.975316,112.958904 L50.1828686,112.958904 M68.2842669,101.506849 L85.6616093,101.506849 L85.6616093,105.80137 L74.0767144,105.80137 L74.0767144,118.207763 L85.6616093,118.207763 L85.6616093,122.502283 L71.1804906,122.502283 C69.5809504,122.502283 68.2842669,121.220468 68.2842669,119.639269 M92.1781127,101.506849 L106.659231,101.506849 C108.258772,101.506849 109.555455,102.788664 109.555455,104.369863 L109.555455,114.86758 L106.659231,114.86758 L109.555455,122.502283 L103.763008,122.502283 L100.866784,114.86758 L97.9705601,114.86758 L97.9705601,122.502283 L92.1781127,122.502283 M97.9705601,105.80137 L103.763008,105.80137 L103.763008,110.573059 L97.9705601,110.573059 M116.071958,101.506849 L130.553077,101.506849 C132.152617,101.506849 133.449301,102.788664 133.449301,104.369863 L133.449301,122.502283 L127.656853,122.502283 L127.656853,117.253425 L121.864406,117.253425 L121.864406,122.502283 L116.071958,122.502283 M121.864406,105.80137 L127.656853,105.80137 L127.656853,112.958904 L121.864406,112.958904 M139.965804,101.506849 L166.031818,101.506849 C167.631358,101.506849 168.928042,102.788664 168.928042,104.369863 L168.928042,122.502283 L163.135594,122.502283 L163.135594,105.80137 L157.343147,105.80137 L157.343147,122.502283 L151.550699,122.502283 L151.550699,105.80137 L145.758252,105.80137 L145.758252,122.502283 L139.965804,122.502283 M175.444545,101.506849 L192.821887,101.506849 L192.821887,105.80137 L181.236992,105.80137 L181.236992,110.09589 L192.821887,110.09589 L192.821887,114.390411 L181.236992,114.390411 L181.236992,118.684932 L192.821887,118.684932 L192.821887,122.979452 L178.340769,122.979452 C176.741228,122.979452 175.444545,121.697637 175.444545,120.116438 M199.338391,101.506849 L213.819509,101.506849 C215.41905,101.506849 216.715733,102.788664 216.715733,104.369863 L216.715733,122.502283 L210.923286,122.502283 L210.923286,105.80137 L205.130838,105.80137 L205.130838,122.502283 L199.338391,122.502283 M223.232236,101.506849 L240.609579,101.506849 L240.609579,105.80137 L234.817131,105.80137 L234.817131,122.502283 L229.024684,122.502283 L229.024684,105.80137 L223.232236,105.80137 M250.022306,101.506849 L261.607201,101.506849 C263.206741,101.506849 264.503425,102.788664 264.503425,104.369863 L264.503425,119.639269 C264.503425,121.220468 263.206741,122.502283 261.607201,122.502283 L250.022306,122.502283 C248.422766,122.502283 247.126082,121.220468 247.126082,119.639269 L247.126082,104.369863 C247.126082,102.788664 248.422766,101.506849 250.022306,101.506849 M252.91853,105.80137 L258.710977,105.80137 L258.710977,118.207763 L252.91853,118.207763" id="Shape" fill="#FFFFFF"></path>
                <g id="Clipped" transform="translate(12.688356, 205.941781)">
                    <mask id="mask-2" fill="white">
                        <use xlink:href="#path-1"></use>
                    </mask>
                    <g id="Shape"></g>
                    <path d="M0.482571167,2.42977285 L259.140717,2.42977285 C247.122887,64.7905485 192.893587,109.82106 129.811644,109.82106 C66.7297009,109.82106 12.500401,64.7905485 0.482571167,2.42977285" id="Shape" fill="#63717A" mask="url(#mask-2)"></path>
                </g>
            </g>
        </g>
    </g>
</svg>