<?xml version="1.0" encoding="UTF-8"?>
<svg width="512px" height="512px" viewBox="0 0 512 512" version="1.1" xmlns="http://www.w3.org/2000/svg" xmlns:xlink="http://www.w3.org/1999/xlink">
    <!-- Generator: Sketch 42 (36781) - http://www.bohemiancoding.com/sketch -->
    <title>sacramento-kings</title>
    <desc>Created with Sketch.</desc>
    <defs>
        <path d="M0,2.43829836 L260.534247,2.43829836 C250.875501,67.3836445 195.47955,115.435641 130.267123,115.435641 C65.0546969,115.435641 9.65874533,67.3836445 1.3763622e-14,2.43829836 M56.1746703,0 C56.9010669,5.97383099 58.5281952,13.0692792 61.0173143,20.7743021 C27.6030707,29.2108144 19.8548404,51.2042656 19.8548404,51.2042656 L29.5401283,64.8587365 C29.5401283,64.8587365 33.801655,42.9140512 66.3442226,35.1114964 C79.2692394,65.8340558 103.148317,100.457893 136.078296,113.137044 L165.618424,106.797468 C118.644778,100.296965 92.8276741,63.7858852 80.1941844,33.1608578 C83.7293146,32.6731981 87.5065769,32.6731981 91.5259714,32.6731981 C152.059021,32.6731981 191.284438,77.0502283 217.434715,77.0502283 C221.793095,77.0502283 224.698681,73.1489509 224.698681,73.1489509 L234.383969,65.8340558 L239.226613,53.642564 C239.226613,53.642564 234.868233,62.4204381 224.698681,62.4204381 C193.221495,62.4204381 161.744309,17.5557482 89.1046494,17.5557482 C84.0198732,17.5557482 79.4193614,17.823961 74.9157025,18.2872377 C72.6396598,11.2161725 71.1868666,4.87659673 70.7026022,0 L56.1746703,0" id="path-1"></path>
    </defs>
    <g id="NBA" stroke="none" stroke-width="1" fill="none" fill-rule="evenodd">
        <g id="sacramento-kings">
            <g id="SacramentoKings" transform="translate(113.000000, 92.000000)">
                <path d="M0,0 L41.2033898,41.2561481 L75.1355932,7.28049673 L109.067797,41.2561481 L143,7.28049673 L176.932203,41.2561481 L210.864407,7.28049673 L244.79661,41.2561481 L286,0 L286,183.953884 C286,263.031728 221.976719,327.136986 143,327.136986 C64.0232808,327.136986 9.67185864e-15,263.031728 0,183.953884" id="Shape" fill="#FFFFFF"></path>
                <path d="M11.7534247,30.3218603 L40.9193303,59.4585012 L74.9462202,25.4657534 L100.466388,50.9603143 L66.4394977,84.953062 L83.4529427,84.953062 L143,25.4657534 L177.02689,59.4585012 L211.05378,25.4657534 L236.573947,50.9603143 L202.547057,84.953062 L219.560502,84.953062 L274.246575,30.3218603 L274.246575,130.843272 L11.7534247,130.843272 M11.7534247,142.497928 L31.1973617,142.497928 L31.1973617,165.32163 L37.0305429,165.32163 L47.7247083,142.497928 L67.1686454,142.497928 L53.5578894,170.663348 L67.1686454,198.828767 L47.7247083,198.828767 L37.0305429,176.005065 L31.1973617,176.005065 L31.1973617,198.828767 L11.7534247,198.828767 M73.4879249,142.497928 L92.931862,142.497928 L92.931862,198.828767 L73.4879249,198.828767 M99.73724,142.497928 L147.374886,142.497928 C150.596463,142.497928 153.208067,145.106912 153.208067,148.325256 L153.208067,198.828767 L133.76413,198.828767 L133.76413,153.181363 L119.181177,153.181363 L119.181177,198.828767 L99.73724,198.828767 M160.499543,142.497928 L213.97037,142.497928 L213.97037,153.181363 L179.94348,153.181363 L179.94348,188.145332 L194.526433,188.145332 L194.526433,165.32163 L213.97037,165.32163 L213.97037,198.828767 L166.332725,198.828767 C163.111148,198.828767 160.499543,196.219783 160.499543,193.001439 M220.775748,142.497928 L274.246575,142.497928 L274.246575,157.066248 L254.802638,157.066248 L254.802638,153.181363 L240.219685,153.181363 L240.219685,165.32163 L268.413394,165.32163 C271.634971,165.32163 274.246575,167.930614 274.246575,171.148958 L274.246575,198.828767 L220.775748,198.828767 L220.775748,188.145332 L254.802638,188.145332 L254.802638,176.005065 L226.608929,176.005065 C223.387352,176.005065 220.775748,173.396081 220.775748,170.177737" id="Shape" fill="#5B2B82"></path>
                <path d="M20.5684932,101.863014 L38.0068087,101.863014 L38.0068087,106.172603 L26.381265,106.172603 L26.381265,110.482192 L35.1004227,110.482192 C36.7055754,110.482192 38.0068087,111.768504 38.0068087,113.355251 L38.0068087,122.932116 L20.5684932,122.932116 L20.5684932,118.622527 L32.1940368,118.622527 L32.1940368,114.312938 L23.4748791,114.312938 C21.8697264,114.312938 20.5684932,113.026625 20.5684932,111.439878 M44.546177,101.863014 L59.0781066,101.863014 C60.6832592,101.863014 61.9844925,103.149326 61.9844925,104.736073 L61.9844925,122.932116 L56.1717207,122.932116 L56.1717207,117.66484 L50.3589488,117.66484 L50.3589488,122.932116 L44.546177,122.932116 M50.3589488,106.172603 L56.1717207,106.172603 L56.1717207,113.355251 L50.3589488,113.355251 M68.5238608,101.863014 L85.9621763,101.863014 L85.9621763,106.172603 L74.3366327,106.172603 L74.3366327,118.622527 L85.9621763,118.622527 L85.9621763,122.932116 L71.4302467,122.932116 C69.8250941,122.932116 68.5238608,121.645803 68.5238608,120.059056 M92.5015447,101.863014 L107.033474,101.863014 C108.638627,101.863014 109.93986,103.149326 109.93986,104.736073 L109.93986,115.270624 L107.033474,115.270624 L109.93986,122.932116 L104.127088,122.932116 L101.220702,115.270624 L98.3143165,115.270624 L98.3143165,122.932116 L92.5015447,122.932116 M98.3143165,106.172603 L104.127088,106.172603 L104.127088,110.961035 L98.3143165,110.961035 M116.479228,101.863014 L131.011158,101.863014 C132.616311,101.863014 133.917544,103.149326 133.917544,104.736073 L133.917544,122.932116 L128.104772,122.932116 L128.104772,117.66484 L122.292,117.66484 L122.292,122.932116 L116.479228,122.932116 M122.292,106.172603 L128.104772,106.172603 L128.104772,113.355251 L122.292,113.355251 M140.456912,101.863014 L166.614386,101.863014 C168.219538,101.863014 169.520772,103.149326 169.520772,104.736073 L169.520772,122.932116 L163.708,122.932116 L163.708,106.172603 L157.895228,106.172603 L157.895228,122.932116 L152.082456,122.932116 L152.082456,106.172603 L146.269684,106.172603 L146.269684,122.932116 L140.456912,122.932116 M176.06014,101.863014 L193.498455,101.863014 L193.498455,106.172603 L181.872912,106.172603 L181.872912,110.482192 L193.498455,110.482192 L193.498455,114.791781 L181.872912,114.791781 L181.872912,119.10137 L193.498455,119.10137 L193.498455,123.410959 L178.966526,123.410959 C177.361373,123.410959 176.06014,122.124646 176.06014,120.5379 M200.037824,101.863014 L214.569753,101.863014 C216.174906,101.863014 217.476139,103.149326 217.476139,104.736073 L217.476139,122.932116 L211.663367,122.932116 L211.663367,106.172603 L205.850596,106.172603 L205.850596,122.932116 L200.037824,122.932116 M224.015507,101.863014 L241.453823,101.863014 L241.453823,106.172603 L235.641051,106.172603 L235.641051,122.932116 L229.828279,122.932116 L229.828279,106.172603 L224.015507,106.172603 M250.899577,101.863014 L262.525121,101.863014 C264.130274,101.863014 265.431507,103.149326 265.431507,104.736073 L265.431507,120.059056 C265.431507,121.645803 264.130274,122.932116 262.525121,122.932116 L250.899577,122.932116 C249.294425,122.932116 247.993191,121.645803 247.993191,120.059056 L247.993191,104.736073 C247.993191,103.149326 249.294425,101.863014 250.899577,101.863014 M253.805963,106.172603 L259.618735,106.172603 L259.618735,118.622527 L253.805963,118.622527" id="Shape" fill="#FFFFFF"></path>
                <g id="Clipped" transform="translate(12.732877, 206.664384)">
                    <mask id="mask-2" fill="white">
                        <use xlink:href="#path-1"></use>
                    </mask>
                    <g id="Shape"></g>
                    <path d="M0.484264399,2.43829836 L260.049982,2.43829836 C247.989985,65.0178837 193.570406,110.206397 130.267123,110.206397 C66.9638402,110.206397 12.544262,65.0178837 0.484264399,2.43829836" id="Shape" fill="#63717A" mask="url(#mask-2)"></path>
                </g>
            </g>
        </g>
    </g>
</svg>