<?xml version="1.0" encoding="UTF-8"?>
<svg width="150px" height="150px" viewBox="0 0 150 150" version="1.1" xmlns="http://www.w3.org/2000/svg" xmlns:xlink="http://www.w3.org/1999/xlink">
    <!-- Generator: Sketch 48.2 - http://www.bohemiancoding.com/sketch -->
    <title>STP</title>
    <desc>Created with Sketch.</desc>
    <defs></defs>
    <g id="Page-1" stroke="none" stroke-width="1" fill="none" fill-rule="evenodd">
        <g id="STP">
            <g id="Page-1" transform="translate(11.000000, 14.000000)">
                <polygon id="Fill-1" fill="#000000" points="63.9999 0.0002 48.8919 46.4992 -0.0001 46.4992 39.5539 75.2362 24.4469 121.7352 63.9999 92.9982 103.5539 121.7362 88.4459 75.2362 127.9999 46.4992 79.1079 46.4992"></polygon>
                <polygon id="Fill-2" fill="#FFFFFF" points="52.6885 51.7252 64.0005 16.9142 64.0005 11.2762 51.4225 49.9832"></polygon>
                <polygon id="Fill-3" fill="#FFFFFF" points="76.5771 49.983 64.0001 11.276 64.0001 16.915 75.3101 51.725"></polygon>
                <polygon id="Fill-4" fill="#FFFFFF" points="117.2764 49.983 76.5774 49.983 75.3104 51.725 111.9144 51.725"></polygon>
                <polygon id="Fill-5" fill="#FFFFFF" points="84.3496 73.9059 117.2766 49.9829 111.9136 51.7249 82.3006 73.2409"></polygon>
                <polygon id="Fill-6" fill="#FFFFFF" points="96.9267 112.6139 84.3497 73.9059 82.3007 73.2409 93.6137 108.0519"></polygon>
                <polygon id="Fill-7" fill="#FFFFFF" points="93.6133 108.0524 64.0003 86.5364 64.0003 88.6914 96.9263 112.6144"></polygon>
                <polygon id="Fill-8" fill="#FFFFFF" points="31.0742 112.6139 64.0002 88.6909 64.0002 86.5369 34.3872 108.0519"></polygon>
                <polygon id="Fill-9" fill="#FFFFFF" points="34.3877 108.0524 45.6987 73.2404 43.6507 73.9064 31.0747 112.6144"></polygon>
                <polygon id="Fill-10" fill="#FFFFFF" points="45.6982 73.2408 16.0862 51.7248 10.7232 49.9828 43.6502 73.9058"></polygon>
                <polygon id="Fill-11" fill="#FFFFFF" points="51.4228 49.983 10.7238 49.983 16.0858 51.725 52.6888 51.725"></polygon>
                <g id="Group-30" transform="translate(35.000000, 41.736000)">
                    <path d="M18.3594,41.7783 C18.3594,49.3473 14.5744,52.2053 9.6464,52.2053 C3.7194,52.2053 0.7194,49.2053 0.7194,42.2063 L0.7194,35.0643 L7.5754,35.0643 L7.5754,42.7063 C7.5754,45.1343 8.4324,45.7773 9.5754,45.7773 C11.0754,45.7773 11.5034,44.2783 11.5034,41.9923 L11.5034,40.0633 C11.5034,36.3493 10.5754,35.2083 6.4324,28.9233 C2.9324,23.4963 1.0054,18.7813 1.0054,13.7123 L1.0054,11.6403 C1.0054,4.0703 4.1474,0.3563 9.7894,0.3563 C14.7164,0.3563 18.4304,1.9273 18.4304,11.6403 L18.4304,18.0673 L11.7174,18.0673 L11.7174,10.9983 C11.7174,8.2123 11.2174,6.7843 9.7894,6.7843 C8.2904,6.7843 7.7184,7.8553 7.7184,10.9983 L7.7184,12.3543 C7.7184,16.7823 9.0044,19.3533 12.5034,24.6373 C16.1454,30.2803 18.3594,33.6363 18.3594,39.4213 L18.3594,41.7783 Z" id="Fill-12" fill="#000000"></path>
                    <path d="M18.3594,41.7783 C18.3594,49.3473 14.5744,52.2053 9.6464,52.2053 C3.7194,52.2053 0.7194,49.2053 0.7194,42.2063 L0.7194,35.0643 L7.5754,35.0643 L7.5754,42.7063 C7.5754,45.1343 8.4324,45.7773 9.5754,45.7773 C11.0754,45.7773 11.5034,44.2783 11.5034,41.9923 L11.5034,40.0633 C11.5034,36.3493 10.5754,35.2083 6.4324,28.9233 C2.9324,23.4963 1.0054,18.7813 1.0054,13.7123 L1.0054,11.6403 C1.0054,4.0703 4.1474,0.3563 9.7894,0.3563 C14.7164,0.3563 18.4304,1.9273 18.4304,11.6403 L18.4304,18.0673 L11.7174,18.0673 L11.7174,10.9983 C11.7174,8.2123 11.2174,6.7843 9.7894,6.7843 C8.2904,6.7843 7.7184,7.8553 7.7184,10.9983 L7.7184,12.3543 C7.7184,16.7823 9.0044,19.3533 12.5034,24.6373 C16.1454,30.2803 18.3594,33.6363 18.3594,39.4213 L18.3594,41.7783 Z" id="Stroke-14" stroke="#000000" stroke-width="8.116"></path>
                    <polygon id="Fill-16" fill="#000000" points="20.2168 0.7851 37.7138 0.7851 37.7138 7.2131 32.3578 7.2131 32.3578 51.7761 25.5018 51.7761 25.5018 7.2131 20.2168 7.2131"></polygon>
                    <polygon id="Stroke-18" stroke="#000000" stroke-width="8.116" points="20.2168 0.7851 37.7138 0.7851 37.7138 7.2131 32.3578 7.2131 32.3578 51.7761 25.5018 51.7761 25.5018 7.2131 20.2168 7.2131"></polygon>
                    <path d="M46.7822,7.2128 L46.7822,30.4938 L47.9262,30.4938 C50.0672,30.4938 50.7102,29.2798 50.7102,26.9238 L50.7102,10.8548 C50.7102,8.4268 50.0672,7.2128 47.9262,7.2128 L46.7822,7.2128 Z M46.7822,36.6358 L46.7822,51.7758 L39.9272,51.7758 L39.9272,0.7848 L48.4262,0.7848 C54.2102,0.7848 57.5662,4.0698 57.5662,11.0688 L57.5662,26.2088 C57.5662,33.2078 54.2102,36.6358 48.4262,36.6358 L46.7822,36.6358 Z" id="Fill-20" fill="#000000"></path>
                    <path d="M46.7822,7.2128 L46.7822,30.4938 L47.9262,30.4938 C50.0672,30.4938 50.7102,29.2798 50.7102,26.9238 L50.7102,10.8548 C50.7102,8.4268 50.0672,7.2128 47.9262,7.2128 L46.7822,7.2128 Z M46.7822,36.6358 L46.7822,51.7758 L39.9272,51.7758 L39.9272,0.7848 L48.4262,0.7848 C54.2102,0.7848 57.5662,4.0698 57.5662,11.0688 L57.5662,26.2088 C57.5662,33.2078 54.2102,36.6358 48.4262,36.6358 L46.7822,36.6358 Z" id="Stroke-22" stroke="#000000" stroke-width="8.116"></path>
                    <path d="M18.3594,41.7783 C18.3594,49.3473 14.5744,52.2053 9.6464,52.2053 C3.7194,52.2053 0.7194,49.2053 0.7194,42.2063 L0.7194,35.0643 L7.5754,35.0643 L7.5754,42.7063 C7.5754,45.1343 8.4324,45.7773 9.5754,45.7773 C11.0754,45.7773 11.5034,44.2783 11.5034,41.9923 L11.5034,40.0633 C11.5034,36.3493 10.5754,35.2083 6.4324,28.9233 C2.9324,23.4963 1.0054,18.7813 1.0054,13.7123 L1.0054,11.6403 C1.0054,4.0703 4.1474,0.3563 9.7894,0.3563 C14.7164,0.3563 18.4304,1.9273 18.4304,11.6403 L18.4304,18.0673 L11.7174,18.0673 L11.7174,10.9983 C11.7174,8.2123 11.2174,6.7843 9.7894,6.7843 C8.2904,6.7843 7.7184,7.8553 7.7184,10.9983 L7.7184,12.3543 C7.7184,16.7823 9.0044,19.3533 12.5034,24.6373 C16.1454,30.2803 18.3594,33.6363 18.3594,39.4213 L18.3594,41.7783 Z" id="Fill-24" fill="#FFFFFF"></path>
                    <polygon id="Fill-26" fill="#FFFFFF" points="20.2168 0.7851 37.7138 0.7851 37.7138 7.2131 32.3578 7.2131 32.3578 51.7761 25.5018 51.7761 25.5018 7.2131 20.2168 7.2131"></polygon>
                    <path d="M46.7822,7.2128 L46.7822,30.4938 L47.9262,30.4938 C50.0672,30.4938 50.7102,29.2798 50.7102,26.9238 L50.7102,10.8548 C50.7102,8.4268 50.0672,7.2128 47.9262,7.2128 L46.7822,7.2128 Z M46.7822,36.6358 L46.7822,51.7758 L39.9272,51.7758 L39.9272,0.7848 L48.4262,0.7848 C54.2102,0.7848 57.5662,4.0698 57.5662,11.0688 L57.5662,26.2088 C57.5662,33.2078 54.2102,36.6358 48.4262,36.6358 L46.7822,36.6358 Z" id="Fill-28" fill="#FFFFFF"></path>
                </g>
            </g>
        </g>
    </g>
</svg>