<?xml version="1.0" encoding="UTF-8"?>
<svg width="475px" height="306px" viewBox="0 0 475 306" version="1.1" xmlns="http://www.w3.org/2000/svg" xmlns:xlink="http://www.w3.org/1999/xlink">
    <!-- Generator: Sketch 41.2 (35397) - http://www.bohemiancoding.com/sketch -->
    <title>USA@1x</title>
    <desc>Created with Sketch.</desc>
    <defs>
        <polygon id="path-1" points="474.574569 0.383768473 0 0.383768473 0 84.0852768 474.574569 84.0852768 474.574569 0.383768473"></polygon>
        <polygon id="path-3" points="0 304.487685 474.575022 304.487685 474.575022 0.383768473 0 0.383768473"></polygon>
    </defs>
    <g id="Page-1" stroke="none" stroke-width="1" fill="none" fill-rule="evenodd">
        <g id="USA">
            <g id="Page-1">
                <polygon id="Fill-1" fill="#002A5B" points="62.8138667 245.824975 420.907911 245.824975 420.907911 59.172 62.8138667 59.172"></polygon>
                <g id="Group-26" transform="translate(0.000000, 0.128547)">
                    <path d="M229.846347,249.990648 C235.48128,252.848924 239.99648,257.550712 242.657547,263.379175 C245.317102,257.550712 249.833813,252.848924 255.467236,249.990648 L229.846347,249.990648 L229.846347,249.990648 Z M139.610347,252.289367 C136.524658,253.730603 134.95008,255.422884 134.186969,258.119342 C133.423858,260.808239 133.744213,263.631732 135.087591,266.068071 C136.430969,268.501387 138.634169,270.257185 141.292213,271.010318 C143.17808,271.54719 145.184836,271.819406 147.255058,271.819406 C156.840036,271.819406 167.121636,266.175446 178.006169,260.203313 C184.830347,256.457308 191.844924,252.608466 199.013636,249.990648 L153.452124,249.990648 C159.269902,254.137416 159.689991,260.316736 159.706613,260.608613 C159.730791,261.026012 159.414969,261.381406 158.997902,261.407116 C158.509813,261.43585 158.04288,261.450973 157.592569,261.450973 C150.709458,261.450973 148.034791,258.111781 145.885991,255.428933 C144.405102,253.579372 143.237013,252.118475 141.038347,252.118475 C140.600124,252.118475 140.121102,252.175943 139.610347,252.289367 L139.610347,252.289367 Z M286.299947,249.990648 C293.470169,252.608466 300.483236,256.457308 307.307413,260.203313 C318.191947,266.175446 328.473547,271.819406 338.060036,271.819406 C340.130258,271.819406 342.137013,271.54719 344.02288,271.010318 C349.512747,269.452633 352.701191,263.669539 351.128124,258.119342 C350.365013,255.422884 348.790436,253.730603 345.704747,252.289367 C345.193991,252.175943 344.714969,252.118475 344.276747,252.118475 C342.079591,252.118475 340.909991,253.579372 339.430613,255.428933 C337.281813,258.110268 334.605636,261.450973 327.722524,261.450973 C327.272213,261.450973 326.802258,261.43585 326.31568,261.407116 C325.898613,261.381406 325.582791,261.0245 325.606969,260.608613 C325.623591,260.315224 326.051236,254.134392 331.862969,249.990648 L286.299947,249.990648 L286.299947,249.990648 Z M268.349458,303.732283 C257.321369,303.732283 247.216569,297.103805 242.657547,287.06052 C238.098524,297.103805 227.995236,303.732283 216.965636,303.732283 C214.398258,303.732283 211.835413,303.373865 209.345102,302.667613 C203.418524,300.985919 198.330613,297.489446 194.628391,292.556273 C194.279324,292.09653 193.931769,291.583855 193.572124,290.994052 C193.56608,290.98649 193.561547,290.980441 193.555502,290.974392 C192.455413,289.443929 191.442969,289.236741 190.596747,289.236741 C189.969636,289.236741 189.297191,289.369825 188.585458,289.51047 C187.763413,289.672288 186.91568,289.841667 185.996924,289.841667 C183.601813,289.841667 181.590524,288.619717 179.668391,286.000387 C179.447769,285.697924 179.479502,285.282037 179.743947,285.017382 C181.620747,283.142111 183.873813,282.151544 186.264391,282.151544 C187.807236,282.151544 189.393902,282.561382 190.92768,283.347786 C190.631502,280.867589 190.829458,278.388904 191.517013,275.957101 C193.79728,267.913096 201.333191,262.074047 209.435769,262.074047 C211.223413,262.074047 212.980836,262.361387 214.658169,262.926993 C217.057813,263.734569 218.982969,265.177318 220.374702,267.212894 C220.581724,267.512333 220.543947,267.917633 220.287058,268.173214 C217.621458,270.839426 214.954347,272.136993 212.13008,272.136993 C210.153547,272.136993 208.356836,271.509382 206.77168,270.955874 C205.435858,270.490081 204.172569,270.048485 203.013547,270.048485 C201.751769,270.048485 200.680391,270.591406 199.640747,271.757401 C198.385013,273.231909 197.476836,274.925702 196.95248,276.7798 C195.790436,280.882712 196.592836,285.17315 199.157191,288.55015 C201.868124,292.163071 205.593013,294.721909 209.931413,295.952933 C211.755324,296.470145 213.632124,296.731776 215.510436,296.731776 C224.697991,296.731776 232.882169,290.491963 235.411769,281.557204 C238.539769,270.52184 232.197636,259.020682 221.272302,255.920436 C219.469547,255.407761 217.536836,255.149155 215.531591,255.149155 C205.902791,255.149155 195.315947,260.909564 184.106524,267.008732 C172.03728,273.576717 159.557013,280.367012 147.268658,280.367012 C144.399058,280.367012 141.606524,279.987421 138.966613,279.238825 C134.71888,278.031998 131.197991,275.228165 129.053724,271.341515 C126.910969,267.457889 126.398702,262.957239 127.613636,258.669825 C128.613991,255.140081 130.73408,252.133599 133.692836,249.990648 L57.0674133,249.990648 C56.0715911,251.521111 54.6526578,252.250047 54.5891911,252.283318 C54.4819022,252.336249 54.3640356,252.36347 54.24768,252.36347 C54.1630578,252.36347 54.0784356,252.34986 53.9968356,252.321126 C53.8019022,252.253071 53.6447467,252.106377 53.5601244,251.91885 C53.51328,251.820549 52.42528,249.564175 49.0207467,248.252998 L49.0207467,256.631224 C49.0207467,257.048623 48.6822578,257.512904 48.2651911,257.512904 L43.4795022,257.512904 C43.0624356,257.512904 42.7239467,257.174145 42.7239467,256.756746 L42.7239467,253.298081 C40.5781689,253.661037 37.7765689,254.633456 37.7765689,257.234638 C37.7765689,258.288722 38.09088,259.014633 38.7376356,259.451692 C39.2499022,259.798012 40.0039467,259.981002 40.9211911,259.981002 C41.9910578,259.981002 42.9128356,259.734495 42.9219022,259.73147 C42.98688,259.714835 43.05488,259.705761 43.1198578,259.705761 C43.29968,259.705761 43.4749689,259.769278 43.6155022,259.890264 C43.8043911,260.053594 43.9011022,260.301613 43.87088,260.551145 C43.25888,265.618914 38.8645689,268.26849 34.84048,268.26849 C31.3543467,268.26849 27.0386133,266.248037 26.3525689,260.551145 C26.0609244,258.131441 26.6578133,256.012687 28.1296356,254.255377 C31.5704356,250.141879 39.0126578,249.07116 42.7239467,248.792894 L42.7239467,247.351658 C36.43168,247.49684 32.0539911,249.210293 28.17648,250.73017 C24.7749689,252.06252 21.5623467,253.320766 17.6561244,253.320766 C9.06999111,253.320766 1.30741333,245.763727 0.981013333,245.441603 C0.835946667,245.299446 0.755857778,245.105869 0.755857778,244.903219 C0.755857778,244.700569 0.835946667,244.50548 0.981013333,244.363323 C1.30741333,244.0412 9.06999111,236.488697 17.6561244,236.488697 C21.5623467,236.488697 24.7749689,237.748456 28.1779911,239.08383 C32.0555022,240.603707 36.43168,242.320185 42.7239467,242.465367 L42.7239467,241.018081 C39.0111467,240.739815 31.5659022,239.666071 28.1296356,235.557111 C26.6578133,233.7998 26.0609244,231.681047 26.3525689,229.25983 C27.0386133,223.562938 31.3543467,221.540973 34.8389689,221.540973 C38.8645689,221.540973 43.25888,224.192062 43.87088,229.25983 C43.9011022,229.509362 43.8043911,229.757382 43.6139911,229.920712 C43.4749689,230.043209 43.29968,230.106727 43.1198578,230.106727 C43.0533689,230.106727 42.98688,230.097653 42.9219022,230.079505 C42.9113244,230.07648 41.9880356,229.828461 40.9166578,229.828461 C38.1014578,229.828461 37.7765689,231.399756 37.7765689,232.582387 C37.7765689,235.17752 40.5781689,236.149938 42.7239467,236.512894 L42.7239467,233.187313 C42.7239467,232.768401 43.0624356,232.311682 43.4795022,232.311682 L48.2651911,232.311682 C48.6822578,232.311682 49.0207467,232.648929 49.0207467,233.06784 L49.0207467,241.564027 C52.42528,240.254362 53.51328,237.996475 53.5616356,237.893638 C53.6462578,237.709135 53.8064356,237.563953 53.9983467,237.497411 C54.0814578,237.468677 54.1645689,237.455067 54.2507022,237.455067 C54.3655467,237.455067 54.4803911,237.482288 54.58768,237.533707 C54.6511467,237.565466 56.0685689,238.291377 57.0659022,239.818815 L417.508213,239.818815 C418.507058,238.291377 419.92448,237.565466 419.987947,237.533707 C420.093724,237.480776 420.211591,237.453554 420.327947,237.453554 C420.412569,237.453554 420.497191,237.468677 420.580302,237.495899 C420.773724,237.565466 420.93088,237.710648 421.015502,237.898175 C421.062347,237.996475 422.150347,240.254362 425.55488,241.564027 L425.55488,233.187313 C425.55488,232.768401 425.891858,232.311682 426.310436,232.311682 L431.096124,232.311682 C431.513191,232.311682 431.85168,232.648929 431.85168,233.06784 L431.85168,236.512894 C433.997458,236.149938 436.799058,235.179032 436.799058,232.582387 C436.799058,231.399756 436.472658,229.828461 433.658969,229.828461 C432.587591,229.828461 431.664302,230.07648 431.653724,230.079505 C431.588747,230.097653 431.522258,230.106727 431.455769,230.106727 C431.275947,230.106727 431.100658,230.043209 430.961636,229.920712 C430.771236,229.757382 430.673013,229.509362 430.704747,229.25983 C431.315236,224.192062 435.709547,221.540973 439.735147,221.540973 C443.22128,221.540973 447.537013,223.562938 448.223058,229.25983 C448.514702,231.681047 447.917813,233.7998 446.445991,235.557111 C443.008213,239.666071 435.56448,240.739815 431.85168,241.018081 L431.85168,242.465367 C438.143947,242.320185 442.518613,240.603707 446.397636,239.08383 C449.800658,237.748456 453.01328,236.488697 456.919502,236.488697 C465.504124,236.488697 473.268213,244.0412 473.594613,244.363323 C473.738169,244.50548 473.819769,244.700569 473.819769,244.903219 C473.819769,245.105869 473.738169,245.299446 473.594613,245.441603 C473.268213,245.763727 465.504124,253.320766 456.919502,253.320766 C453.01328,253.320766 449.800658,252.06252 446.399147,250.73017 C442.520124,249.210293 438.143947,247.49684 431.85168,247.351658 L431.85168,248.792894 C435.562969,249.07116 443.005191,250.141879 446.445991,254.255377 C447.917813,256.012687 448.514702,258.131441 448.223058,260.551145 C447.537013,266.248037 443.22128,268.26849 439.733636,268.26849 C435.709547,268.26849 431.315236,265.618914 430.704747,260.551145 C430.673013,260.301613 430.771236,260.053594 430.960124,259.890264 C431.100658,259.769278 431.275947,259.705761 431.455769,259.705761 C431.520747,259.705761 431.588747,259.714835 431.653724,259.73147 C431.662791,259.734495 432.584569,259.981002 433.654436,259.981002 C436.472658,259.981002 436.799058,258.414244 436.799058,257.234638 C436.799058,254.633456 433.997458,253.661037 431.85168,253.298081 L431.85168,256.631224 C431.85168,257.048623 431.513191,257.512904 431.096124,257.512904 L426.310436,257.512904 C425.891858,257.512904 425.55488,257.174145 425.55488,256.756746 L425.55488,248.252998 C422.150347,249.564175 421.062347,251.820549 421.013991,251.923387 C420.927858,252.107889 420.769191,252.253071 420.575769,252.321126 C420.494169,252.34986 420.408036,252.361958 420.324924,252.361958 C420.208569,252.361958 420.092213,252.336249 419.986436,252.283318 C419.921458,252.250047 418.504036,251.521111 417.508213,249.990648 L351.620747,249.990648 C354.579502,252.133599 356.699591,255.140081 357.699947,258.669825 C358.91488,262.957239 358.404124,267.457889 356.261369,271.341515 C354.117102,275.228165 350.596213,278.031998 346.34848,279.238825 C343.708569,279.987421 340.916036,280.367012 338.047947,280.367012 C325.75808,280.367012 313.276302,273.576717 301.207058,267.008732 C289.997636,260.909564 279.410791,255.149155 269.783502,255.149155 C267.776747,255.149155 265.845547,255.407761 264.042791,255.920436 C253.118969,259.020682 246.775324,270.52184 249.901813,281.557204 C252.432924,290.491963 260.618613,296.733288 269.804658,296.731776 C271.68448,296.731776 273.56128,296.470145 275.38368,295.952933 C279.72208,294.720397 283.446969,292.163071 286.15488,288.554687 C288.719236,285.17315 289.523147,280.882712 288.362613,276.781313 C287.836747,274.92419 286.927058,273.228884 285.663769,271.743791 C284.634702,270.591406 283.563324,270.048485 282.301547,270.048485 C281.142524,270.048485 279.879236,270.490081 278.543413,270.955874 C276.958258,271.509382 275.161547,272.136993 273.185013,272.136993 C270.362258,272.136993 267.693636,270.839426 265.028036,268.173214 C264.771147,267.917633 264.733369,267.512333 264.93888,267.212894 C266.330613,265.177318 268.252747,263.736081 270.656924,262.926993 C272.334258,262.361387 274.09168,262.074047 275.879324,262.074047 C283.981902,262.074047 291.519324,267.913096 293.796569,275.957101 C294.485636,278.390416 294.68208,280.869101 294.385902,283.347786 C295.921191,282.559869 297.507858,282.151544 299.050702,282.151544 C301.439769,282.151544 303.692836,283.142111 305.569636,285.017382 C305.83408,285.282037 305.865813,285.697924 305.645191,286.000387 C303.723058,288.619717 301.711769,289.841667 299.316658,289.841667 C298.397902,289.841667 297.550169,289.672288 296.728124,289.51047 C296.016391,289.369825 295.343947,289.236741 294.716836,289.236741 C293.870613,289.236741 292.858169,289.443929 291.75808,290.974392 C291.752036,290.980441 291.747502,290.98649 291.742969,290.992539 C291.386347,291.58083 291.03728,292.095017 290.682169,292.56081 C286.985991,297.487933 281.896569,300.985919 275.969991,302.667613 C273.47968,303.373865 270.916836,303.732283 268.349458,303.732283 L268.349458,303.732283 Z" id="Fill-2" fill="#B49759"></path>
                    <path d="M155.567378,250.747562 L195.034578,250.747562 C189.111022,253.247419 183.311378,256.42933 177.6432,259.540163 C166.846311,265.465414 156.647822,271.062493 147.254756,271.062493 C145.225333,271.062493 143.342489,270.806911 141.497422,270.28365 C139.034311,269.584961 136.9928,267.957709 135.749156,265.702847 C134.502489,263.441936 134.206311,260.822606 134.913511,258.325773 C135.604089,255.887921 137.039644,254.33931 139.853333,253.009985 C140.279467,252.920759 140.6784,252.875389 141.038044,252.875389 C142.790933,252.875389 143.703644,253.912837 145.296356,255.901532 C147.427022,258.563207 150.344978,262.207887 157.593778,262.207887 C158.057689,262.207887 158.541244,262.192764 159.044444,262.162517 C159.875556,262.111099 160.508711,261.398798 160.461867,260.567025 C160.445244,260.288759 160.082578,254.980532 155.567378,250.747562 M232.689956,250.747562 L252.624533,250.747562 C248.434222,253.434946 244.996444,257.185488 242.657244,261.660429 C240.318044,257.185488 236.880267,253.434946 232.689956,250.747562 M290.279911,250.747562 L298.823733,250.747562 L300.937778,250.747562 L329.747111,250.747562 C325.231911,254.980532 324.869244,260.288759 324.852622,260.567025 C324.805778,261.398798 325.438933,262.111099 326.270044,262.162517 C326.773244,262.192764 327.258311,262.207887 327.720711,262.207887 C334.971022,262.207887 337.888978,258.561695 340.019644,255.90002 C341.612356,253.912837 342.523556,252.875389 344.276444,252.875389 C344.636089,252.875389 345.035022,252.920759 345.461156,253.009985 C348.274844,254.33931 349.7104,255.887921 350.400978,258.325773 C351.108178,260.822606 350.812,263.441936 349.565333,265.702847 C348.321689,267.957709 346.280178,269.584961 343.817067,270.28365 C341.997689,270.800862 340.060444,271.062493 338.059733,271.062493 C328.666667,271.062493 318.468178,265.465414 307.671289,259.540163 C302.003111,256.42933 296.203467,253.247419 290.279911,250.747562 M439.736356,220.785571 L439.736356,220.785571 C435.378311,220.785571 430.619822,223.66502 429.953422,229.168335 C429.892978,229.668911 430.0864,230.166463 430.4672,230.494635 C430.745244,230.735094 431.095822,230.862128 431.453956,230.862128 C431.588444,230.862128 431.722933,230.84398 431.855911,230.807685 C431.858933,230.806172 432.696089,230.583862 433.658667,230.583862 C435.860356,230.583862 436.044711,231.615261 436.044711,232.581631 C436.044711,234.329867 434.291822,235.178276 432.605422,235.588113 L432.605422,233.186557 L432.605422,233.067084 C432.605422,232.230773 431.929956,231.554768 431.094311,231.554768 L426.308622,231.554768 C425.474489,231.554768 424.797511,232.230773 424.797511,233.067084 L424.797511,233.186557 L424.797511,240.397276 C422.512711,239.211621 421.736,237.650911 421.696711,237.569246 C421.519911,237.204778 421.201067,236.917438 420.817244,236.785867 C420.654044,236.731424 420.483289,236.70269 420.314044,236.70269 C420.084356,236.70269 419.856178,236.754108 419.649156,236.858458 C419.479911,236.943148 418.168267,237.632764 417.113511,239.063414 L300.937778,239.063414 L298.823733,239.063414 L57.46,239.063414 C56.4067556,237.632764 55.0951111,236.943148 54.9258667,236.858458 C54.7128,236.751084 54.4816,236.69664 54.2473778,236.69664 C54.0781333,236.69664 53.9073778,236.725374 53.7441778,236.784355 C53.3558222,236.920463 53.0415111,237.210828 52.8707556,237.585882 C52.8375111,237.653936 52.0623111,239.213133 49.776,240.397276 L49.776,233.186557 L49.776,233.067084 C49.776,232.230773 49.1005333,231.554768 48.2648889,231.554768 L43.4807111,231.554768 C42.6450667,231.554768 41.9696,232.230773 41.9696,233.067084 L41.9696,233.186557 L41.9696,235.588113 C40.2832,235.178276 38.5303111,234.329867 38.5303111,232.581631 C38.5303111,231.615261 38.7146667,230.583862 40.9163556,230.583862 C41.8789333,230.583862 42.7160889,230.806172 42.7236444,230.809197 C42.8536,230.84398 42.9865778,230.860616 43.1180444,230.860616 C43.4776889,230.860616 43.8312889,230.732069 44.1093333,230.491611 C44.4886222,230.161926 44.6820444,229.667399 44.6216,229.168335 C43.9552,223.66502 39.1967111,220.785571 34.8386667,220.785571 C30.7435556,220.785571 26.2993778,223.37768 25.6012444,229.168335 C25.2839111,231.805813 25.9397333,234.119655 27.5490667,236.04332 C30.7178667,239.83167 36.8318222,241.177631 41.2472889,241.646448 C35.9055111,241.30164 32.1232,239.819571 28.4527111,238.379847 C24.9816889,237.018764 21.7040889,235.733296 17.6558222,235.733296 C8.76444444,235.733296 0.785777778,243.494498 0.450311111,243.824182 C0.1632,244.108498 0,244.497163 0,244.902463 C0,245.307764 0.161688889,245.694916 0.450311111,245.979232 C0.785777778,246.310429 8.76444444,254.07768 17.6558222,254.07768 C21.7040889,254.07768 24.9816889,252.793724 28.4512,251.434153 C32.0899556,250.009552 35.8375111,248.541094 41.1037333,248.181163 C36.7018667,248.663591 30.6861333,250.020138 27.5490667,253.769167 C25.9397333,255.694345 25.2839111,258.006675 25.6012444,260.64264 C26.2993778,266.433296 30.7435556,269.025404 34.8386667,269.025404 C39.1967111,269.025404 43.9552,266.145956 44.6216,260.644153 C44.6820444,260.143576 44.4901333,259.646025 44.1078222,259.31634 C43.8297778,259.077394 43.4792,258.95036 43.1210667,258.95036 C42.9880889,258.95036 42.8536,258.966995 42.7206222,259.003291 C42.7176,259.004803 41.8804444,259.225601 40.9193778,259.225601 C38.7161778,259.225601 38.5303111,258.198739 38.5303111,257.235394 C38.5303111,255.475059 40.3632889,254.631187 41.9696,254.228911 L41.9696,256.630468 L41.9696,256.75599 C41.9696,257.590788 42.6450667,258.268305 43.4807111,258.268305 L48.2648889,258.268305 C49.1005333,258.268305 49.776,257.590788 49.776,256.75599 L49.776,256.630468 L49.776,249.419749 C52.0623111,250.605404 52.8390222,252.166113 52.8783111,252.247778 C53.0551111,252.613759 53.3739556,252.901099 53.7577778,253.031158 C53.9209778,253.087113 54.0917333,253.114335 54.2609778,253.114335 C54.4906667,253.114335 54.7203556,253.062916 54.9288889,252.957054 C55.0966222,252.872365 56.4082667,252.179724 57.4630222,250.747562 L131.587556,250.747562 C129.355644,252.833044 127.735733,255.467498 126.886489,258.463394 C124.264711,267.717251 129.591378,277.36431 138.7608,279.967005 C141.4672,280.733749 144.327733,281.123926 147.266844,281.123926 C159.748622,281.123926 172.315022,274.285236 184.467378,267.673394 C195.589156,261.621108 206.095911,255.904557 215.531289,255.904557 C217.467022,255.904557 219.330222,256.155601 221.066489,256.647103 C226.160444,258.092877 230.384,261.457778 232.955911,266.120246 C235.530844,270.787251 236.145867,276.196803 234.684622,281.350773 C232.245689,289.961897 224.360711,295.976374 215.510133,295.976374 C213.701333,295.976374 211.894044,295.723818 210.136622,295.224754 C205.959911,294.040611 202.372533,291.575537 199.764356,288.100236 C197.340533,284.906227 196.581956,280.857759 197.679022,276.987744 C198.174667,275.236483 199.031467,273.637966 200.226756,272.233025 C201.355556,270.970241 202.310578,270.803887 203.013244,270.803887 C204.043822,270.803887 205.248178,271.22431 206.522044,271.670443 C208.164622,272.243611 210.0248,272.892394 212.129778,272.892394 C215.162578,272.892394 218.006489,271.523749 220.820178,268.70933 C221.335467,268.195143 221.411022,267.386054 221,266.785665 C219.511556,264.610956 217.459467,263.071419 214.899644,262.209399 C213.143733,261.618084 211.304711,261.317133 209.436978,261.317133 C201.001956,261.317133 193.1608,267.387567 190.791378,275.75067 C190.203556,277.822542 189.963289,279.986665 190.072089,282.135665 C188.8088,281.647187 187.524356,281.394631 186.264089,281.394631 C183.671022,281.394631 181.232089,282.462325 179.210222,284.482778 C178.681333,285.010576 178.617867,285.845374 179.060622,286.447276 C181.136889,289.27833 183.3416,290.597069 185.996622,290.597069 C186.989422,290.597069 187.915733,290.414079 188.733244,290.252261 C189.4072,290.119177 190.044889,289.992143 190.597956,289.992143 C191.237156,289.992143 191.998756,290.102542 192.9432,291.415232 C193.307378,292.011084 193.664,292.537369 194.029689,293.018286 C197.8256,298.07698 203.052533,301.667217 209.139289,303.394281 C211.696089,304.120192 214.328444,304.487685 216.963822,304.487685 C227.765244,304.487685 237.699289,298.299291 242.657244,288.785315 C247.6152,298.299291 257.549244,304.487685 268.349156,304.487685 C270.984533,304.487685 273.6184,304.120192 276.1752,303.394281 C282.261956,301.667217 287.488889,298.07698 291.290844,293.012236 C291.650489,292.537369 292.007111,292.011084 292.371289,291.413719 C293.315733,290.102542 294.077333,289.992143 294.716533,289.992143 C295.2696,289.992143 295.907289,290.119177 296.581244,290.252261 C297.398756,290.414079 298.325067,290.597069 299.316356,290.597069 C301.972889,290.597069 304.1776,289.27833 306.253867,286.447276 C306.696622,285.845374 306.633156,285.010576 306.104267,284.482778 C304.083911,282.462325 301.643467,281.394631 299.0504,281.394631 C297.790133,281.394631 296.505689,281.647187 295.2424,282.135665 C295.3512,279.986665 295.110933,277.822542 294.523111,275.75067 C292.153689,267.387567 284.312533,261.318645 275.877511,261.317133 C274.009778,261.317133 272.172267,261.618084 270.414844,262.209399 C267.855022,263.071419 265.802933,264.610956 264.314489,266.785665 C263.903467,267.386054 263.979022,268.195143 264.494311,268.70933 C267.308,271.523749 270.151911,272.892394 273.184711,272.892394 C275.289689,272.892394 277.149867,272.243611 278.792444,271.670443 C280.066311,271.22431 281.270667,270.803887 282.301244,270.803887 C283.003911,270.803887 283.958933,270.970241 285.111911,272.260246 C286.283022,273.637966 287.139822,275.236483 287.635467,276.987744 C288.732533,280.857759 287.973956,284.906227 285.554667,288.092675 C282.941956,291.575537 279.354578,294.040611 275.177867,295.224754 C273.420444,295.723818 271.613156,295.976374 269.804356,295.976374 C260.953778,295.976374 253.0688,289.961897 250.629867,281.350773 C247.616711,270.716172 253.726133,259.633926 264.248,256.647103 C265.984267,256.155601 267.845956,255.904557 269.7832,255.904557 C279.218578,255.904557 289.723822,261.621108 300.847111,267.673394 C312.999467,274.285236 325.565867,281.123926 338.047644,281.123926 C340.986756,281.123926 343.847289,280.733749 346.553689,279.967005 C350.997867,278.704222 354.680444,275.771842 356.922933,271.706739 C359.1624,267.647685 359.697333,262.944384 358.428,258.463394 C357.578756,255.467498 355.958844,252.833044 353.726933,250.747562 L417.112,250.747562 C418.165244,252.179724 419.4784,252.872365 419.646133,252.957054 C419.8592,253.065941 420.093422,253.120384 420.327644,253.120384 C420.496889,253.120384 420.666133,253.09165 420.829333,253.034182 C421.217689,252.896562 421.533511,252.607709 421.704267,252.232655 C421.737511,252.163089 422.512711,250.603892 424.797511,249.419749 L424.797511,256.630468 L424.797511,256.75599 C424.797511,257.590788 425.474489,258.268305 426.308622,258.268305 L431.094311,258.268305 C431.929956,258.268305 432.605422,257.590788 432.605422,256.75599 L432.605422,256.630468 L432.605422,254.228911 C434.211733,254.631187 436.044711,255.475059 436.044711,257.235394 C436.044711,258.198739 435.858844,259.225601 433.654133,259.225601 C432.694578,259.225601 431.857422,259.004803 431.849867,259.003291 C431.719911,258.968507 431.588444,258.95036 431.456978,258.95036 C431.097333,258.95036 430.743733,259.078906 430.465689,259.320877 C430.0864,259.649049 429.892978,260.145089 429.953422,260.644153 C430.618311,266.145956 435.378311,269.025404 439.734844,269.025404 C443.831467,269.025404 448.275644,266.433296 448.973778,260.64264 C449.291111,258.006675 448.635289,255.694345 447.025956,253.769167 C443.888889,250.020138 437.873156,248.663591 433.471289,248.181163 C438.737511,248.541094 442.485067,250.009552 446.123822,251.434153 C449.593333,252.793724 452.870933,254.07768 456.9192,254.07768 C465.810578,254.07768 473.789244,246.310429 474.124711,245.979232 C474.413333,245.694916 474.575022,245.307764 474.575022,244.902463 C474.575022,244.497163 474.411822,244.108498 474.124711,243.824182 C473.789244,243.494498 465.810578,235.733296 456.9192,235.733296 C452.870933,235.733296 449.593333,237.018764 446.122311,238.379847 C442.451822,239.819571 438.669511,241.30164 433.327733,241.646448 C437.7432,241.177631 443.857156,239.83167 447.025956,236.04332 C448.635289,234.119655 449.291111,231.805813 448.973778,229.168335 C448.275644,223.379192 443.831467,220.787084 439.736356,220.785571 M157.593778,260.695571 C146.2952,260.695571 147.094578,251.363074 141.038044,251.363074 C140.531822,251.363074 139.977244,251.428103 139.365244,251.568749 C136.497156,252.895049 134.393689,254.616064 133.459822,257.912911 C131.7704,263.872946 135.184,270.064365 141.084889,271.738498 C143.111289,272.313177 145.1664,272.574808 147.254756,272.574808 C164.428533,272.574808 183.6272,254.915502 203.788444,249.235246 L150.694044,249.235246 C157.793244,252.68635 158.8752,259.292143 158.952267,260.653227 C158.4808,260.681961 158.028978,260.695571 157.593778,260.695571 M242.657244,265.335355 C245.457333,257.996089 251.334044,251.960438 259.173689,249.235246 L226.139289,249.235246 C233.980444,251.960438 239.857156,257.996089 242.657244,265.335355 M338.059733,272.574808 C340.146578,272.574808 342.2032,272.313177 344.228089,271.738498 C350.130489,270.064365 353.544089,263.872946 351.854667,257.912911 C350.9208,254.616064 348.815822,252.895049 345.949244,251.568749 C345.335733,251.428103 344.782667,251.363074 344.276444,251.363074 C338.219911,251.363074 339.0208,260.695571 327.720711,260.695571 C327.287022,260.695571 326.832178,260.681961 326.362222,260.653227 C326.439289,259.292143 327.521244,252.68635 334.620444,249.235246 L300.937778,249.235246 L298.823733,249.235246 L281.526044,249.235246 C301.6888,254.915502 320.885956,272.574808 338.059733,272.574808 M439.736356,222.297887 C443.349422,222.299399 446.892978,224.525527 447.473244,229.349813 C448.579378,238.54469 435.515822,240.058517 431.094311,240.311074 L431.094311,243.231355 C443.560978,243.196571 448.573333,237.245611 456.9192,237.245611 C465.293778,237.245611 473.063911,244.902463 473.063911,244.902463 C473.063911,244.902463 465.293778,252.565365 456.9192,252.565365 C448.573333,252.565365 443.560978,246.620453 431.094311,246.584158 L431.094311,249.499901 C435.515822,249.750946 448.579378,251.272335 447.473244,260.462675 C446.891467,265.285448 443.349422,267.513089 439.734844,267.513089 C435.910222,267.513089 432.004,265.016256 431.453956,260.462675 C431.453956,260.462675 432.460356,260.737916 433.654133,260.737916 C435.402489,260.737916 437.555822,260.146601 437.555822,257.235394 C437.555822,253.667842 433.368533,252.684837 431.094311,252.427744 L431.094311,256.630468 L431.094311,256.75599 L426.308622,256.75599 L426.308622,256.630468 L426.308622,247.201182 C421.714844,248.542606 420.327644,251.608069 420.327644,251.608069 C420.327644,251.608069 418.824089,250.847374 417.934044,249.235246 L348.927644,249.235246 C352.664622,251.121103 355.7216,254.458783 356.974311,258.876256 C359.372444,267.342197 354.523289,276.133286 346.141156,278.510645 C343.463467,279.27134 340.764622,279.611611 338.047644,279.611611 C314.664711,279.611611 290.130311,254.392241 269.7832,254.392241 C267.759822,254.392241 265.772711,254.643286 263.835467,255.192256 C252.493067,258.411975 245.930311,270.307847 249.176178,281.763635 C251.868978,291.273074 260.471733,297.48869 269.804356,297.48869 C271.717422,297.48869 273.660711,297.227059 275.5904,296.679601 C280.224978,295.365399 284.0632,292.599374 286.759022,289.007626 C289.344533,285.598867 290.352444,281.036212 289.089156,276.574882 C288.514933,274.545355 287.5176,272.756286 286.237689,271.253044 C284.927556,269.786099 283.632533,269.291571 282.301244,269.291571 C279.563111,269.291571 276.670844,271.380079 273.184711,271.380079 C270.931644,271.380079 268.430756,270.508985 265.562667,267.640123 C266.422489,266.380365 267.986489,264.623054 270.896889,263.643074 C272.536444,263.089567 274.213778,262.829448 275.877511,262.829448 C283.487467,262.829448 290.834489,268.272271 293.069422,276.163532 C293.899022,279.089862 293.956444,282.047951 293.3792,284.827586 C295.144178,283.619246 297.096533,282.906946 299.0504,282.906946 C301.1176,282.906946 303.187822,283.703936 305.035911,285.551985 C302.950578,288.39665 301.064711,289.084754 299.317867,289.084754 C297.679822,289.084754 296.162667,288.479828 294.716533,288.479828 C293.486489,288.479828 292.306311,288.916887 291.144267,290.532039 C291.142756,290.532039 291.141244,290.530527 291.139733,290.530527 C290.811822,291.071936 290.464267,291.599734 290.081956,292.103335 C286.626044,296.708335 281.705867,300.253202 275.762667,301.939433 C273.290489,302.641148 270.801689,302.975369 268.349156,302.975369 C257.1488,302.975369 246.768978,295.985448 242.657244,285.090729 C238.545511,295.985448 228.165689,302.975369 216.963822,302.975369 C214.514311,302.975369 212.022489,302.641148 209.550311,301.939433 C203.608622,300.253202 198.688444,296.708335 195.232533,292.103335 C194.850222,291.599734 194.501156,291.071936 194.174756,290.530527 C194.173244,290.530527 194.171733,290.532039 194.170222,290.532039 C193.008178,288.916887 191.828,288.479828 190.597956,288.479828 C189.150311,288.479828 187.634667,289.084754 185.996622,289.084754 C184.249778,289.084754 182.363911,288.39665 180.278578,285.551985 C182.126667,283.703936 184.196889,282.906946 186.264089,282.906946 C188.217956,282.906946 190.171822,283.619246 191.935289,284.827586 C191.358044,282.047951 191.415467,279.089862 192.245067,276.163532 C194.48,268.272271 201.825511,262.829448 209.435467,262.829448 C211.100711,262.829448 212.778044,263.091079 214.4176,263.643074 C217.328,264.623054 218.892,266.380365 219.751822,267.640123 C216.883733,270.508985 214.382844,271.380079 212.129778,271.380079 C208.643644,271.380079 205.751378,269.291571 203.013244,269.291571 C201.681956,269.291571 200.385422,269.786099 199.0768,271.253044 C197.796889,272.756286 196.799556,274.545355 196.225333,276.574882 C194.960533,281.036212 195.969956,285.598867 198.555467,289.007626 C201.251289,292.599374 205.089511,295.365399 209.724089,296.679601 C211.653778,297.227059 213.597067,297.48869 215.510133,297.48869 C224.841244,297.48869 233.445511,291.271562 236.138311,281.763635 C239.384178,270.307847 232.821422,258.411975 221.479022,255.192256 C219.540267,254.643286 217.556178,254.392241 215.531289,254.392241 C195.184178,254.392241 170.649778,279.611611 147.266844,279.611611 C144.551378,279.611611 141.849511,279.27134 139.173333,278.510645 C130.7912,276.133286 125.942044,267.342197 128.340178,258.876256 C129.592889,254.458783 132.649867,251.121103 136.386844,249.235246 L56.6409778,249.235246 C55.7509333,250.847374 54.2473778,251.608069 54.2473778,251.608069 C54.2473778,251.608069 52.8601778,248.542606 48.2648889,247.201182 L48.2648889,256.630468 L48.2648889,256.75599 L43.4807111,256.75599 L43.4807111,256.630468 L43.4807111,252.427744 C41.2064889,252.684837 37.0192,253.667842 37.0192,257.235394 C37.0192,260.148113 39.1725333,260.737916 40.9193778,260.737916 C42.1146667,260.737916 43.1210667,260.462675 43.1210667,260.462675 C42.5710222,265.016256 38.6663111,267.513089 34.8386667,267.513089 C31.2256,267.513089 27.6820444,265.285448 27.1017778,260.462675 C25.9956444,251.272335 39.0592,249.750946 43.4807111,249.499901 L43.4807111,246.584158 C31.0140444,246.620453 26.0016889,252.565365 17.6558222,252.565365 C9.28124444,252.565365 1.51111111,244.902463 1.51111111,244.902463 C1.51111111,244.902463 9.28124444,237.245611 17.6558222,237.245611 C26.0016889,237.245611 31.0140444,243.196571 43.4807111,243.231355 L43.4807111,240.311074 C39.0592,240.058517 25.9956444,238.54469 27.1017778,229.349813 C27.6820444,224.525527 31.2256,222.297887 34.8386667,222.297887 C38.6648,222.299399 42.5710222,224.796232 43.1210667,229.349813 C43.1210667,229.349813 42.1131556,229.071547 40.9163556,229.071547 C39.1695111,229.071547 37.0192,229.664374 37.0192,232.581631 C37.0192,236.155232 41.2064889,237.126138 43.4807111,237.383232 L43.4807111,233.186557 L43.4807111,233.067084 L48.2648889,233.067084 L48.2648889,233.186557 L48.2648889,242.615842 C52.8601778,241.274419 54.2473778,238.208956 54.2473778,238.208956 C54.2473778,238.208956 55.7494222,238.965113 56.6394667,240.575729 L298.823733,240.575729 L300.937778,240.575729 L417.935556,240.575729 C418.8256,238.965113 420.327644,238.208956 420.327644,238.208956 C420.327644,238.208956 421.714844,241.274419 426.308622,242.615842 L426.308622,233.186557 L426.308622,233.067084 L431.094311,233.067084 L431.094311,233.186557 L431.094311,237.383232 C433.368533,237.126138 437.555822,236.155232 437.555822,232.581631 C437.555822,229.664374 435.405511,229.071547 433.658667,229.071547 C432.461867,229.071547 431.453956,229.349813 431.453956,229.349813 C432.004,224.794719 435.908711,222.297887 439.736356,222.297887" id="Fill-4" fill="#B49759"></path>
                    <path d="M199.013182,54.879898 C191.84296,52.2620803 184.828382,48.4117256 178.007227,44.667233 C167.122693,38.6951 156.842604,33.0526517 147.254604,33.0526517 C145.185893,33.0526517 143.179138,33.3248685 141.293271,33.8602281 C138.633716,34.6148734 136.430516,36.3706714 135.087138,38.8039867 C133.745271,41.2388143 133.424916,44.0623069 134.188027,46.7527158 C134.949627,49.4476616 136.524204,51.1399424 139.609893,52.5811788 C140.120649,52.6946025 140.601182,52.7520704 141.039404,52.7520704 C143.235049,52.7520704 144.404649,51.2911739 145.885538,49.4431246 C148.034338,46.758765 150.707493,43.4195729 157.593627,43.4195729 C158.042427,43.4195729 158.510871,43.4346961 158.99896,43.46343 C159.413004,43.4891394 159.730338,43.8460458 159.70616,44.2619325 C159.691049,44.5538094 159.269449,50.7331296 153.453182,54.879898 L199.013182,54.879898 Z M255.466782,54.879898 C249.83336,52.0216222 245.319671,47.319834 242.657093,41.4913709 C239.996027,47.319834 235.482338,52.0216222 229.847404,54.879898 L255.466782,54.879898 Z M331.862516,54.879898 C326.050782,50.7361542 325.623138,44.5538094 325.606516,44.2619325 C325.583849,43.8460458 325.899671,43.4891394 326.315227,43.46343 C326.803316,43.4346961 327.270249,43.4195729 327.722071,43.4195729 C334.605182,43.4195729 337.279849,46.758765 339.428649,49.4431246 C340.909538,51.2911739 342.079138,52.7520704 344.276293,52.7520704 C344.714516,52.7520704 345.193538,52.6946025 345.704293,52.5811788 C348.789982,51.1399424 350.36456,49.4476616 351.127671,46.7527158 C352.700738,41.2025187 349.513804,35.4179128 344.022427,33.8602281 C342.13656,33.3248685 340.129804,33.0526517 338.059582,33.0526517 C328.473093,33.0526517 318.191493,38.6951 307.30696,44.6687453 C300.482782,48.4132379 293.469716,52.2620803 286.301004,54.879898 L331.862516,54.879898 Z M439.736204,83.3295729 C435.710604,83.3295729 431.314782,80.6784842 430.704293,75.6122281 C430.674071,75.3626961 430.770782,75.113164 430.961182,74.949834 C431.100204,74.8288488 431.275493,74.7653315 431.455316,74.7653315 C431.521804,74.7653315 431.588293,74.7744054 431.653271,74.7925532 C431.663849,74.7940655 432.587138,75.0435975 433.657004,75.0435975 C436.473716,75.0435975 436.798604,73.4707897 436.798604,72.2881591 C436.798604,69.6930261 433.997004,68.7221197 431.851227,68.3576517 L431.851227,71.6847453 C431.851227,72.1021443 431.512738,72.5603759 431.095671,72.5603759 L426.309982,72.5603759 C425.892916,72.5603759 425.554427,72.2216172 425.554427,71.8042182 L425.554427,63.3065187 C422.149893,64.6176961 421.061893,66.8740704 421.013538,66.9784202 C420.927404,67.1629227 420.768738,67.3065926 420.576827,67.3746468 C420.493716,67.4018685 420.409093,67.4169916 420.324471,67.4169916 C420.209627,67.4169916 420.093271,67.38977 419.987493,67.3368389 C419.922516,67.3050803 418.506604,66.579169 417.509271,65.0517305 L57.0654489,65.0517305 C56.0681156,66.579169 54.6522044,67.3050803 54.5872267,67.3368389 C54.4814489,67.38977 54.3635822,67.4185039 54.2472267,67.4185039 C54.1626044,67.4185039 54.0779822,67.4033808 53.9948711,67.3746468 C53.8014489,67.3050803 53.6442933,67.1614103 53.5596711,66.9738833 C53.5128267,66.8740704 52.4248267,64.6176961 49.0202933,63.3065187 L49.0202933,71.6847453 C49.0202933,72.1021443 48.6833156,72.5603759 48.2647378,72.5603759 L43.4790489,72.5603759 C43.0619822,72.5603759 42.7234933,72.2216172 42.7234933,71.8042182 L42.7234933,68.3576517 C40.5777156,68.7221197 37.7761156,69.6930261 37.7761156,72.2881591 C37.7761156,73.3452675 38.0904267,74.0726911 38.7386933,74.5127749 C39.2554933,74.8651443 39.9898933,75.0435975 40.9162044,75.0435975 C41.9875822,75.0435975 42.9108711,74.7940655 42.9214489,74.7925532 C42.9864267,74.7744054 43.0529156,74.7653315 43.1194044,74.7653315 C43.2992267,74.7653315 43.4745156,74.8288488 43.6135378,74.949834 C43.8039378,75.113164 43.90216,75.3626961 43.8704267,75.6122281 C43.2599378,80.6784842 38.8656267,83.3295729 34.8385156,83.3295729 C31.3538933,83.3295729 27.03816,81.3076074 26.3521156,75.6122281 C26.0604711,73.189499 26.65736,71.0707453 28.1291822,69.3119227 C31.56696,65.2029621 39.0106933,64.1307305 42.7234933,63.8524645 L42.7234933,62.4051788 C36.4312267,62.5503611 32.0550489,64.2668389 28.1760267,65.7867158 C24.7745156,67.1220901 21.5618933,68.3818488 17.6556711,68.3818488 C9.07104889,68.3818488 1.30696,60.8293463 0.98056,60.5072232 C0.837004444,60.3650655 0.755404444,60.1714892 0.755404444,59.9688389 C0.755404444,59.7661887 0.837004444,59.5726123 0.98056,59.4304547 C1.30696,59.1083315 9.07104889,51.5497798 17.6556711,51.5497798 C21.5618933,51.5497798 24.7745156,52.8080261 28.1760267,54.1403759 C32.0550489,55.6602527 36.4312267,57.3737059 42.7234933,57.5204005 L42.7234933,56.0776517 C39.0137156,55.800898 31.5714933,54.7301788 28.1291822,50.6166813 C26.65736,48.8578586 26.0604711,46.7391049 26.3521156,44.3178882 C27.03816,38.6225089 31.3538933,36.6020557 34.8400267,36.6020557 C38.8656267,36.6020557 43.2599378,39.2531443 43.8704267,44.3178882 C43.90216,44.5674202 43.8039378,44.8169522 43.6150489,44.9802823 C43.4745156,45.1012675 43.2992267,45.1647847 43.1194044,45.1647847 C43.0544267,45.1647847 42.9864267,45.1557108 42.9214489,45.1390754 C42.9123822,45.1360507 41.9906044,44.8895433 40.9192267,44.8895433 C38.1025156,44.8895433 37.7761156,46.456302 37.7761156,47.6359079 C37.7761156,50.2370901 40.5777156,51.2095089 42.7234933,51.5739768 L42.7234933,48.240834 C42.7234933,47.8219227 43.0619822,47.3591542 43.4790489,47.3591542 L48.2647378,47.3591542 C48.6833156,47.3591542 49.0202933,47.6964005 49.0202933,48.1153118 L49.0202933,56.6175483 C52.4263378,55.3063709 53.5128267,53.0515089 53.5611822,52.9471591 C53.6473156,52.7626567 53.8059822,52.6174744 53.9994044,52.5509325 C54.0810044,52.5221985 54.1671378,52.5085877 54.2502489,52.5085877 C54.3666044,52.5085877 54.4814489,52.5358094 54.5887378,52.5887404 C54.6537156,52.620499 56.0711378,53.3509473 57.06696,54.879898 L133.692382,54.879898 C130.733627,52.7369473 128.613538,49.7304645 127.613182,46.2007207 C125.106249,37.3476271 130.198693,28.1209916 138.967671,25.633233 C141.607582,24.8846369 144.398604,24.5050458 147.268204,24.5050458 C159.558071,24.5050458 172.035316,31.2953414 184.10456,37.8618143 C195.312471,43.9609818 205.900827,49.7213906 215.528116,49.7213906 L215.531138,49.7213906 C217.539404,49.7213906 219.470604,49.4612724 221.271849,48.9516222 C226.562249,47.4498931 230.947493,43.9564448 233.617627,39.117036 C236.290782,34.2730901 236.92696,28.6608882 235.411316,23.3133414 C232.880204,14.3785828 224.697538,8.13876995 215.509982,8.13876995 C213.631671,8.13876995 211.756382,8.40040049 209.932471,8.91761232 C205.59256,10.1486369 201.869182,12.7074744 199.15976,16.3173709 C196.592382,19.6989079 195.789982,23.9893463 196.953538,28.0907453 C197.476382,29.9448438 198.386071,31.6401493 199.652382,33.1282675 C200.681449,34.2791394 201.751316,34.8220606 203.013093,34.8220606 C204.172116,34.8220606 205.433893,34.3819768 206.771227,33.9146714 C208.357893,33.361164 210.153093,32.7335532 212.131138,32.7335532 C214.953893,32.7335532 217.621004,34.0296074 220.286604,36.6973315 C220.543493,36.9529128 220.581271,37.3582133 220.37576,37.659164 C218.982516,39.6947404 217.05736,41.1374892 214.659227,41.9450655 C212.980382,42.5106714 211.22296,42.796499 209.436827,42.796499 C201.332738,42.796499 193.796827,36.9574498 191.51656,28.9134448 C190.829004,26.4816419 190.631049,24.0029571 190.927227,21.5227601 C189.39496,22.309164 187.806782,22.7205138 186.263938,22.7205138 C183.874871,22.7205138 181.620293,21.728435 179.743493,19.853164 C179.479049,19.5900212 179.448827,19.1726222 179.667938,18.8701591 C181.591582,16.2508291 183.602871,15.0303906 185.997982,15.0303906 C186.915227,15.0303906 187.764471,15.1982576 188.586516,15.3600754 C189.298249,15.5007207 189.970693,15.6338044 190.597804,15.6338044 C191.442516,15.6338044 192.45496,15.4281296 193.558071,13.8976665 L193.57016,13.8780064 C193.929804,13.2912281 194.275849,12.7770409 194.63096,12.3112478 C198.33016,7.38261232 203.418071,3.88613941 209.344649,2.20444483 C211.83496,1.4981936 214.399316,1.13977488 216.965182,1.13977488 C227.996293,1.13977488 238.098071,7.76825271 242.657093,17.8115384 C247.216116,7.76825271 257.320916,1.13977488 268.350516,1.13977488 C270.916382,1.13977488 273.479227,1.4981936 275.971049,2.20444483 C281.897627,3.88613941 286.985538,7.38261232 290.684738,12.3142724 C291.053449,12.7982133 291.414604,13.3350852 291.786338,13.9505975 C292.859227,15.4281296 293.87016,15.6338044 294.714871,15.6338044 C295.343493,15.6338044 296.014427,15.5007207 296.727671,15.3600754 C297.548204,15.1982576 298.39896,15.0303906 299.316204,15.0303906 C301.711316,15.0303906 303.722604,16.2508291 305.644738,18.8701591 C305.86536,19.1726222 305.833627,19.5900212 305.570693,19.853164 C303.692382,21.728435 301.439316,22.7205138 299.050249,22.7205138 C297.508916,22.7205138 295.920738,22.309164 294.385449,21.5227601 C294.683138,24.0014448 294.486693,26.4801296 293.797627,28.9134448 C291.51736,36.9574498 283.981449,42.796499 275.87736,42.796499 C274.092738,42.796499 272.333804,42.5106714 270.656471,41.9450655 C268.253804,41.1359768 266.33016,39.6932281 264.938427,37.6576517 C264.732916,37.3582133 264.772204,36.9529128 265.029093,36.6973315 C267.693182,34.0296074 270.361804,32.7335532 273.18456,32.7335532 C275.162604,32.7335532 276.957804,33.361164 278.54296,33.9146714 C279.880293,34.3819768 281.143582,34.8220606 282.301093,34.8220606 C283.562871,34.8220606 284.634249,34.2791394 285.675404,33.1146567 C286.928116,31.6416616 287.836293,29.9463562 288.36216,28.089233 C289.522693,23.987834 288.720293,19.6989079 286.155938,16.3203956 C283.446516,12.7074744 279.721627,10.1486369 275.383227,8.91761232 C273.559316,8.40040049 271.682516,8.13876995 269.805716,8.13876995 C260.61816,8.13876995 252.433982,14.3785828 249.902871,23.3133414 C246.774871,34.3502182 253.120027,45.8513759 264.042338,48.9516222 C265.846604,49.4627847 267.777804,49.7213906 269.783049,49.7213906 C279.410338,49.7213906 289.998693,43.9609818 301.206604,37.8618143 C313.275849,31.2953414 325.757627,24.5050458 338.047493,24.5050458 C340.915582,24.5050458 343.708116,24.8846369 346.348027,25.633233 C350.597271,26.8385483 354.11816,29.6423808 356.262427,33.529031 C358.403671,37.4126567 358.914427,41.9133069 357.701004,46.2007207 C356.700649,49.7304645 354.579049,52.7369473 351.620293,54.879898 L417.50776,54.879898 C418.503582,53.3509473 419.921004,52.620499 419.985982,52.5887404 C420.094782,52.534297 420.211138,52.5070754 420.327493,52.5070754 C420.412116,52.5070754 420.496738,52.5206862 420.578338,52.5494202 C420.773271,52.6189867 420.930427,52.764169 421.015049,52.9516961 C421.061893,53.0515089 422.149893,55.3063709 425.554427,56.6175483 L425.554427,48.240834 C425.554427,47.8219227 425.892916,47.3591542 426.309982,47.3591542 L431.095671,47.3591542 C431.512738,47.3591542 431.851227,47.6964005 431.851227,48.1153118 L431.851227,51.5739768 C433.997004,51.2095089 436.798604,50.2370901 436.798604,47.6359079 C436.798604,46.456302 436.473716,44.8895433 433.653982,44.8895433 C432.584116,44.8895433 431.662338,45.1360507 431.653271,45.1390754 C431.588293,45.1557108 431.520293,45.1647847 431.455316,45.1647847 C431.275493,45.1647847 431.100204,45.1012675 430.959671,44.9802823 C430.770782,44.8169522 430.674071,44.5674202 430.704293,44.3178882 C431.314782,39.2531443 435.710604,36.6020557 439.734693,36.6020557 C443.220827,36.6020557 447.53656,38.6225089 448.222604,44.3178882 C448.514249,46.7391049 447.91736,48.8578586 446.445538,50.6166813 C443.003227,54.7301788 435.561004,55.800898 431.851227,56.0776517 L431.851227,57.5204005 C438.143493,57.3737059 442.521182,55.6602527 446.398693,54.1403759 C449.800204,52.8080261 453.012827,51.5497798 456.919049,51.5497798 C465.503671,51.5497798 473.26776,59.1083315 473.59416,59.4304547 C473.739227,59.5726123 473.819316,59.7661887 473.819316,59.9688389 C473.819316,60.1714892 473.739227,60.3650655 473.59416,60.5072232 C473.26776,60.8293463 465.503671,68.3818488 456.919049,68.3818488 C453.012827,68.3818488 449.800204,67.1220901 446.398693,65.7867158 C442.521182,64.2668389 438.143493,62.5503611 431.851227,62.4051788 L431.851227,63.8524645 C435.564027,64.1307305 443.00776,65.2029621 446.445538,69.3119227 C447.91736,71.0707453 448.514249,73.189499 448.222604,75.6107158 C447.53656,81.3076074 443.220827,83.3295729 439.736204,83.3295729 L439.736204,83.3295729 Z" id="Fill-6" fill="#B49759"></path>
                    <g id="Group-10">
                        <mask id="mask-2" fill="white">
                            <use xlink:href="#path-1"></use>
                        </mask>
                        <g id="Clip-9"></g>
                        <path d="M232.689502,54.1232867 C236.879813,51.4359025 240.317591,47.6853606 242.656791,43.2104197 C244.995991,47.6853606 248.43528,51.4359025 252.625591,54.1232867 L232.689502,54.1232867 Z M139.85288,51.8608631 C137.039191,50.5315379 135.603636,48.9829271 134.913058,46.5450749 C134.205858,44.0482424 134.502036,41.4289123 135.748702,39.168001 C136.993858,36.9131389 139.035369,35.2858877 141.49848,34.587198 C143.317858,34.0699862 145.253591,33.8083557 147.254302,33.8083557 C156.64888,33.8083557 166.845858,39.4054345 177.642747,45.3306857 C183.310924,48.4415182 189.110569,51.6234296 195.034124,54.1232867 L155.566924,54.1232867 C160.082124,49.8903163 160.446302,44.5820897 160.461413,44.3038236 C160.508258,43.4720502 159.875102,42.7597498 159.043991,42.708331 C158.542302,42.6780847 158.057236,42.6629616 157.593324,42.6629616 C150.343013,42.6629616 147.425058,46.3076414 145.294391,48.9693163 C143.703191,50.9580108 142.79048,51.9954591 141.037591,51.9954591 C140.677947,51.9954591 140.280524,51.9500897 139.85288,51.8608631 L139.85288,51.8608631 Z M290.279458,54.1232867 C296.204524,51.6234296 302.004169,48.4415182 307.672347,45.3306857 C318.469236,39.4054345 328.666213,33.809868 338.05928,33.8083557 C340.088702,33.8083557 341.971547,34.0639369 343.816613,34.587198 C346.279724,35.2858877 348.321236,36.9131389 349.56488,39.168001 C350.811547,41.4289123 351.109236,44.0482424 350.402036,46.5450749 C349.711458,48.9829271 348.274391,50.5315379 345.460702,51.8608631 C345.034569,51.9500897 344.637147,51.9954591 344.275991,51.9954591 C342.523102,51.9954591 341.610391,50.9580108 340.019191,48.9693163 C337.888524,46.3076414 334.969058,42.6629616 327.721769,42.6629616 C327.256347,42.6629616 326.772791,42.6780847 326.269591,42.708331 C325.43848,42.7597498 324.805324,43.4720502 324.85368,44.3038236 C324.868791,44.5820897 325.231458,49.8903163 329.746658,54.1232867 L300.937324,54.1232867 L298.82328,54.1232867 L290.279458,54.1232867 Z M268.350213,0.383163547 L268.350213,1.89547882 L268.350213,0.383163547 C257.548791,0.383163547 247.614747,6.57004532 242.656791,16.085533 C237.700347,6.57155764 227.764791,0.383163547 216.96488,0.383163547 C214.329502,0.383163547 211.697147,0.750656158 209.138836,1.47656749 C203.05208,3.20363153 197.825147,6.79386798 194.024702,11.8586118 C193.663547,12.3349911 193.308436,12.8597645 192.942747,13.4571291 C191.998302,14.7683064 191.238213,14.8787054 190.597502,14.8787054 C190.044436,14.8787054 189.406747,14.7516709 188.732791,14.6185872 C187.91528,14.4567695 186.988969,14.2737793 185.99768,14.2737793 C183.341147,14.2737793 181.136436,15.5925182 179.060169,18.4235724 C178.617413,19.0254739 178.682391,19.8602719 179.209769,20.38807 C181.231636,22.4085232 183.670569,23.4762177 186.263636,23.4762177 C187.523902,23.4762177 188.809858,23.2236611 190.071636,22.7351833 C189.962836,24.8841833 190.204613,27.0498187 190.790924,29.1201783 C193.160347,37.4832818 201.001502,43.5537153 209.436524,43.5537153 C211.305769,43.5537153 213.14328,43.2527645 214.899191,42.6614493 C217.459013,41.7994296 219.512613,40.2598926 220.999547,38.0851833 C221.410569,37.4847941 221.335013,36.6757054 220.821236,36.1615182 C218.006036,33.3470995 215.163636,31.9784542 212.129324,31.9784542 C210.025858,31.9784542 208.164169,32.6272374 206.521591,33.2004049 C205.247724,33.6465379 204.043369,34.0669616 203.012791,34.0669616 C202.310124,34.0669616 201.355102,33.9006069 200.203636,32.610602 C199.032524,31.2328828 198.174213,29.6343655 197.678569,27.8846167 C196.583013,24.0130897 197.34008,19.9646217 199.759369,16.7781734 C202.373591,13.2953113 205.959458,10.8317498 210.136169,9.64609458 C211.893591,9.14703054 213.70088,8.89447389 215.50968,8.89447389 C224.360258,8.89447389 232.245236,14.9089517 234.68568,23.5200749 C236.145413,28.6740453 235.531902,34.083597 232.956969,38.750602 C230.383547,43.41307 226.161502,46.7779714 221.066036,48.2237448 C219.329769,48.7152473 217.46808,48.9662916 215.530836,48.9662916 C206.095458,48.9662916 195.588702,43.2497399 184.466924,37.1974542 C172.314569,30.5856118 159.748169,23.7484345 147.266391,23.7469222 C144.328791,23.7469222 141.468258,24.1370995 138.760347,24.9053557 C129.590924,27.5065379 124.264258,37.153597 126.887547,46.4074542 C127.73528,49.4033507 129.355191,52.0378039 131.587102,54.1232867 L57.4625689,54.1232867 C56.4093244,52.6911241 55.09768,51.9984837 54.9284356,51.9137941 C54.7153689,51.8049074 54.4826578,51.750464 54.2469244,51.750464 C54.07768,51.750464 53.9084356,51.779198 53.7452356,51.836666 C53.35688,51.9742867 53.0410578,52.2631389 52.8718133,52.6381931 C52.8385689,52.7077596 52.0618578,54.2669567 49.7770578,55.4510995 L49.7770578,48.2403803 L49.7770578,48.1148581 C49.7770578,47.2800601 49.10008,46.6025429 48.2659467,46.6025429 L43.4802578,46.6025429 C42.6461244,46.6025429 41.9691467,47.2800601 41.9691467,48.1148581 L41.9691467,48.2403803 L41.9691467,50.6419369 C40.3628356,50.2396611 38.5313689,49.3957892 38.5313689,47.6354542 C38.5313689,46.6721094 38.7157244,45.6452473 40.9204356,45.6452473 C41.8815022,45.6452473 42.7171467,45.8660453 42.7247022,45.8675576 C42.8546578,45.9023409 42.9861244,45.9204887 43.1175911,45.9204887 C43.4772356,45.9204887 43.8308356,45.7919419 44.10888,45.5499714 C44.4881689,45.221799 44.6815911,44.7257596 44.6211467,44.2266956 C43.9562578,38.7248926 39.1962578,35.8454443 34.8397244,35.8454443 C30.7431022,35.8454443 26.2989244,38.4375527 25.6007911,44.2282079 C25.2834578,46.8641734 25.93928,49.1765034 27.5501244,51.1016808 C30.6871911,54.8507103 36.7029244,56.2087695 41.1047911,56.691198 C35.8385689,56.3297547 32.0910133,54.8628089 28.4522578,53.4366956 C24.9812356,52.0771241 21.7036356,50.7931685 17.65688,50.7931685 C8.76399111,50.7931685 0.785324444,58.5604197 0.449857778,58.8916167 C0.162746667,59.175932 -0.000453333333,59.5630847 -0.000453333333,59.9683852 C-0.000453333333,60.3736857 0.162746667,60.7623507 0.451368889,61.046666 C0.786835556,61.3763507 8.76399111,69.1375527 17.65688,69.1375527 C21.7051467,69.1375527 24.9827467,67.8520847 28.4522578,66.491001 C32.1242578,65.0512768 35.9065689,63.5692079 41.2468356,63.2244 C36.83288,63.6932177 30.7189244,65.0391783 27.5501244,68.8275281 C25.93928,70.7511931 25.2834578,73.0650355 25.6007911,75.7025133 C26.2989244,81.4931685 30.7431022,84.0852768 34.8397244,84.0852768 C39.1962578,84.0852768 43.9562578,81.2058286 44.6211467,75.7025133 C44.6815911,75.2019369 44.48968,74.7043852 44.1073689,74.3762128 C43.8293244,74.1357547 43.4787467,74.0087202 43.1206133,74.0087202 C42.9876356,74.0087202 42.8516356,74.026868 42.7201689,74.0631635 C42.7156356,74.0646759 41.87848,74.2869862 40.9174133,74.2869862 C38.7157244,74.2869862 38.5313689,73.2555872 38.5313689,72.2892177 C38.5313689,70.5409813 40.2827467,69.6925724 41.9691467,69.282735 L41.9691467,71.6842916 L41.9691467,71.8037645 C41.9691467,72.6400749 42.6461244,73.3160798 43.4802578,73.3160798 L48.2659467,73.3160798 C49.10008,73.3160798 49.7770578,72.6400749 49.7770578,71.8037645 L49.7770578,71.6842916 L49.7770578,64.4735724 C52.0618578,65.6592276 52.84008,67.2199369 52.8793689,67.301602 C53.0546578,67.66607 53.3735022,67.9534099 53.7573244,68.0849813 C53.9205244,68.1394246 54.09128,68.1681586 54.2605244,68.1681586 C54.4902133,68.1681586 54.7183911,68.1167399 54.9254133,68.0123901 C55.0946578,67.9277005 56.4063022,67.2380847 57.4610578,65.8074345 L298.82328,65.8074345 L300.937324,65.8074345 L417.114569,65.8074345 C418.169324,67.2380847 419.480969,67.9277005 419.648702,68.0123901 C419.861769,68.1197645 420.09448,68.1742079 420.327191,68.1742079 C420.497947,68.1742079 420.667191,68.1454739 420.830391,68.0864936 C421.218747,67.9503852 421.534569,67.6600207 421.703813,67.2849665 C421.737058,67.2169123 422.512258,65.6577153 424.798569,64.4735724 L424.798569,71.6842916 L424.798569,71.8037645 C424.798569,72.6400749 425.474036,73.3160798 426.30968,73.3160798 L431.095369,73.3160798 C431.929502,73.3160798 432.60648,72.6400749 432.60648,71.8037645 L432.60648,71.6842916 L432.60648,69.282735 C434.291369,69.6925724 436.044258,70.5409813 436.044258,72.2892177 C436.044258,73.2555872 435.859902,74.2869862 433.658213,74.2869862 C432.697147,74.2869862 431.859991,74.0646759 431.850924,74.0616512 C431.720969,74.026868 431.589502,74.0102325 431.456524,74.0102325 C431.09688,74.0102325 430.744791,74.1387793 430.466747,74.3792374 C430.087458,74.7089222 429.892524,75.2034493 429.952969,75.7025133 C430.619369,81.2058286 435.377858,84.0852768 439.735902,84.0852768 C443.831013,84.0852768 448.276702,81.4931685 448.973324,75.7025133 C449.290658,73.0650355 448.634836,70.7511931 447.025502,68.8275281 C443.856702,65.0391783 437.741236,63.6932177 433.32728,63.2244 C438.669058,63.5692079 442.451369,65.0512768 446.123369,66.491001 C449.59288,67.8520847 452.87048,69.1375527 456.918747,69.1375527 C465.810124,69.1375527 473.788791,61.3763507 474.124258,61.046666 C474.41288,60.7623507 474.574569,60.3736857 474.574569,59.9683852 C474.574569,59.5630847 474.41288,59.175932 474.124258,58.8916167 C473.788791,58.5604197 465.810124,50.7931685 456.918747,50.7931685 C452.87048,50.7931685 449.59288,52.0771241 446.123369,53.4366956 C442.484613,54.8628089 438.737058,56.3297547 433.470836,56.691198 C437.871191,56.2087695 443.888436,54.8507103 447.025502,51.1016808 C448.634836,49.1765034 449.290658,46.8641734 448.973324,44.2282079 C448.276702,38.4375527 443.831013,35.8469567 439.735902,35.8454443 C435.377858,35.8454443 430.619369,38.7248926 429.952969,44.2266956 C429.892524,44.7272719 430.085947,45.2248236 430.466747,45.5545084 C430.744791,45.7934542 431.095369,45.9204887 431.453502,45.9204887 C431.587991,45.9204887 431.72248,45.9038532 431.853947,45.8675576 C431.85848,45.8660453 432.694124,45.6452473 433.655191,45.6452473 C435.859902,45.6452473 436.044258,46.6721094 436.044258,47.6354542 C436.044258,49.3957892 434.212791,50.2396611 432.60648,50.6419369 L432.60648,48.2403803 L432.60648,48.1148581 C432.60648,47.2800601 431.929502,46.6025429 431.095369,46.6025429 L426.30968,46.6025429 C425.474036,46.6025429 424.798569,47.2800601 424.798569,48.1148581 L424.798569,48.2403803 L424.798569,55.4510995 C422.512258,54.2654443 421.735547,52.704735 421.696258,52.62307 C421.519458,52.2570897 421.200613,51.9697498 420.816791,51.8396906 C420.653591,51.783735 420.482836,51.7565133 420.313591,51.7565133 C420.083902,51.7565133 419.854213,51.807932 419.64568,51.9137941 C419.477947,51.9984837 418.166302,52.6911241 417.111547,54.1232867 L353.727991,54.1232867 C355.958391,52.0378039 357.578302,49.4033507 358.427547,46.4074542 C359.69688,41.926464 359.161947,37.2231635 356.92248,33.1641094 C354.679991,29.0990059 350.997413,26.1666266 346.553236,24.9053557 C343.848347,24.1370995 340.986302,23.7484345 338.048702,23.7469222 C325.565413,23.7469222 312.999013,30.5840995 300.846658,37.1974542 C289.723369,43.2497399 279.219636,48.9662916 269.784258,48.9662916 C267.847013,48.9662916 265.983813,48.7152473 264.247547,48.2237448 C259.153591,46.7779714 254.930036,43.41307 252.358124,38.750602 C249.783191,34.083597 249.16968,28.6740453 250.629413,23.5200749 C253.068347,14.9089517 260.953324,8.89447389 269.805413,8.89447389 C271.612702,8.89447389 273.421502,9.14703054 275.177413,9.64609458 C279.354124,10.8302374 282.941502,13.2953113 285.54968,16.7706118 C287.973502,19.9646217 288.73208,24.0130897 287.635013,27.8846167 C287.139369,29.6343655 286.282569,31.2328828 285.08728,32.6378236 C283.95848,33.9006069 283.004969,34.0669616 282.302302,34.0669616 C281.270213,34.0669616 280.065858,33.6465379 278.791991,33.2004049 C277.149413,32.6272374 275.289236,31.9784542 273.184258,31.9784542 C270.151458,31.9784542 267.309058,33.3455872 264.493858,36.1615182 C263.978569,36.6757054 263.904524,37.4847941 264.315547,38.0851833 C265.80248,40.2598926 267.854569,41.7994296 270.415902,42.6614493 C272.171813,43.2527645 274.009324,43.5537153 275.878569,43.5537153 C284.31208,43.5537153 292.154747,37.4832818 294.524169,29.1201783 C295.11048,27.0483064 295.350747,24.8841833 295.241947,22.7351833 C296.505236,23.2236611 297.78968,23.4762177 299.049947,23.4762177 C301.644524,23.4762177 304.083458,22.4085232 306.103813,20.38807 C306.632702,19.8602719 306.696169,19.0254739 306.254924,18.4235724 C304.177147,15.5925182 301.973947,14.2737793 299.317413,14.2737793 C298.324613,14.2737793 297.398302,14.4567695 296.582302,14.6185872 C295.906836,14.7516709 295.269147,14.8787054 294.71608,14.8787054 C294.07688,14.8787054 293.31528,14.7683064 292.372347,13.4571291 C292.006658,12.8597645 291.650036,12.3334788 291.285858,11.8525626 C287.488436,6.79386798 282.261502,3.20363153 276.176258,1.47656749 C273.619458,0.750656158 270.985591,0.383163547 268.350213,0.383163547 L268.350213,0.383163547 Z M226.140347,55.635602 L259.174747,55.635602 C251.333591,52.9104099 245.458391,46.8747596 242.656791,39.5354936 C239.856702,46.8747596 233.981502,52.9104099 226.140347,55.635602 L226.140347,55.635602 Z M141.037591,53.5077744 C147.094124,53.5077744 146.293236,44.1737645 157.593324,44.1752768 C158.027013,44.1752768 158.481858,44.1888877 158.953324,44.2176217 C158.874747,45.5787054 157.792791,52.1844985 150.693591,55.635602 L203.787991,55.635602 C183.625236,49.9553458 164.429591,32.2960404 147.254302,32.2960404 C145.167458,32.2960404 143.110836,32.5576709 141.085947,33.1323507 C135.185058,34.8064837 131.769947,40.9979025 133.459369,46.9579369 C134.393236,50.2547842 136.498213,51.975799 139.364791,53.3020995 C139.978302,53.4427448 140.531369,53.5077744 141.037591,53.5077744 L141.037591,53.5077744 Z M281.525591,55.635602 L298.82328,55.635602 L300.937324,55.635602 L334.619991,55.635602 C327.522302,52.1844985 326.438836,45.5787054 326.361769,44.2176217 C326.833236,44.1888877 327.286569,44.1752768 327.721769,44.1752768 C339.020347,44.1752768 338.219458,53.5077744 344.275991,53.5077744 C344.782213,53.5077744 345.336791,53.4427448 345.948791,53.3020995 C348.81688,51.975799 350.920347,50.2547842 351.855724,46.9579369 C353.543636,40.9979025 350.130036,34.8064837 344.229147,33.1323507 C342.202747,32.5576709 340.147636,32.2960404 338.05928,32.2960404 C320.887013,32.299065 301.688347,49.9553458 281.525591,55.635602 L281.525591,55.635602 Z M268.350213,1.89547882 C270.799724,1.89547882 273.291547,2.22970049 275.763724,2.93141478 C281.706924,4.61764631 286.625591,8.1625133 290.081502,12.7675133 C290.463813,13.2711143 290.81288,13.7989123 291.13928,14.3403212 C291.142302,14.3403212 291.142302,14.3388089 291.143813,14.3388089 C292.305858,15.9539616 293.486036,16.3910207 294.71608,16.3910207 C296.163724,16.3910207 297.679369,15.7860946 299.317413,15.7860946 C301.064258,15.7860946 302.950124,16.474198 305.036969,19.3188631 C303.187369,21.1669123 301.118658,21.9639025 299.049947,21.9639025 C297.09608,21.9639025 295.143724,21.251602 293.378747,20.0432621 C293.955991,22.8228975 293.898569,25.7809862 293.07048,28.7073163 C290.834036,36.5985773 283.488524,42.0414 275.878569,42.0414 C274.213324,42.0414 272.535991,41.7797695 270.897947,41.2277744 C267.987547,40.2477941 266.423547,38.4904837 265.562213,37.2307251 C268.431813,34.3618631 270.931191,33.4907695 273.184258,33.4907695 C276.671902,33.4907695 279.562658,35.5792768 282.302302,35.5792768 C283.63208,35.5792768 284.928613,35.0847498 286.238747,33.6178039 C287.517147,32.1145626 288.51448,30.3254936 289.088702,28.2959665 C290.353502,23.8346365 289.345591,19.2719813 286.758569,15.8632227 C284.062747,12.2714739 280.226036,9.50544926 275.589947,8.19124729 C273.660258,7.64378916 271.716969,7.38215862 269.805413,7.38215862 C260.472791,7.38215862 251.868524,13.5992867 249.175724,23.1072128 C245.929858,34.563001 252.494124,46.4603852 263.836524,49.6785921 C265.773769,50.2275626 267.757858,50.4786069 269.784258,50.4786069 C290.129858,50.4786069 314.664258,25.2577251 338.048702,25.2592374 C340.764169,25.2592374 343.464524,25.5995084 346.140702,26.360203 C354.522836,28.7375626 359.371991,37.5286512 356.973858,45.9945921 C355.722658,50.412065 352.66568,53.7497448 348.927191,55.635602 L417.935102,55.635602 C418.823636,54.0234739 420.327191,53.2627793 420.327191,53.2627793 C420.327191,53.2627793 421.715902,56.3282424 426.30968,57.669666 L426.30968,48.2403803 L426.30968,48.1148581 L431.095369,48.1148581 L431.095369,48.2403803 L431.095369,52.4431044 C433.36808,52.1860108 437.555369,51.2030059 437.555369,47.6354542 C437.555369,44.722735 435.403547,44.132932 433.655191,44.132932 C432.459902,44.132932 431.453502,44.4081734 431.453502,44.4081734 C432.005058,39.8545921 435.909769,37.3577596 439.735902,37.3577596 C443.348969,37.3592719 446.892524,39.5854 447.472791,44.4081734 C448.580436,53.5985133 435.515369,55.1199025 431.095369,55.3709468 L431.095369,58.2866906 C443.560524,58.2503951 448.574391,52.3054837 456.918747,52.3054837 C465.293324,52.3054837 473.063458,59.9683852 473.063458,59.9683852 C473.063458,59.9683852 465.293324,67.6252374 456.918747,67.6252374 C448.574391,67.6252374 443.560524,61.6742768 431.095369,61.6394936 L431.095369,64.5597744 C435.515369,64.812331 448.580436,66.3261586 447.472791,75.5210355 C446.892524,80.3453212 443.348969,82.5729616 439.735902,82.5729616 C435.909769,82.5729616 432.005058,80.0746167 431.453502,75.5210355 C431.453502,75.5210355 432.461413,75.7993015 433.658213,75.7993015 C435.405058,75.7993015 437.555369,75.2064739 437.555369,72.2892177 C437.555369,68.7156167 433.36808,67.7447103 431.095369,67.4876167 L431.095369,71.6842916 L431.095369,71.8037645 L426.30968,71.8037645 L426.30968,71.6842916 L426.30968,62.2550059 C421.715902,63.5964296 420.327191,66.6618926 420.327191,66.6618926 C420.327191,66.6618926 418.825147,65.905735 417.935102,64.2951192 L300.937324,64.2951192 L298.82328,64.2951192 L56.6390133,64.2951192 C55.7489689,65.905735 54.2469244,66.6618926 54.2469244,66.6618926 C54.2469244,66.6618926 52.8597244,63.5964296 48.2659467,62.2550059 L48.2659467,71.6842916 L48.2659467,71.8037645 L43.4802578,71.8037645 L43.4802578,71.6842916 L43.4802578,67.4876167 C41.2075467,67.7447103 37.0202578,68.7156167 37.0202578,72.2892177 C37.0202578,75.2064739 39.1690578,75.7993015 40.9174133,75.7993015 C42.1127022,75.7993015 43.1206133,75.5210355 43.1206133,75.5210355 C42.5705689,80.0761291 38.6658578,82.5729616 34.8397244,82.5729616 C31.2266578,82.5729616 27.6831022,80.3453212 27.1013244,75.5210355 C25.9951911,66.3261586 39.0587467,64.812331 43.4802578,64.5597744 L43.4802578,61.6394936 C31.0135911,61.6742768 26.0012356,67.6252374 17.65688,67.6252374 C9.28079111,67.6252374 1.51065778,59.9683852 1.51065778,59.9683852 C1.51065778,59.9683852 9.28079111,52.3054837 17.65688,52.3054837 C26.0012356,52.3054837 31.0135911,58.2503951 43.4802578,58.2866906 L43.4802578,55.3709468 C39.0587467,55.1199025 25.9951911,53.5985133 27.1013244,44.4081734 C27.6831022,39.5854 31.2251467,37.3577596 34.8397244,37.3577596 C38.6658578,37.3577596 42.5705689,39.8545921 43.1206133,44.4081734 C43.1206133,44.4081734 42.1157244,44.132932 40.9204356,44.132932 C39.17208,44.132932 37.0202578,44.7242473 37.0202578,47.6354542 C37.0202578,51.2030059 41.2075467,52.1860108 43.4802578,52.4431044 L43.4802578,48.2403803 L43.4802578,48.1148581 L48.2659467,48.1148581 L48.2659467,48.2403803 L48.2659467,57.669666 C52.8597244,56.3282424 54.2469244,53.2627793 54.2469244,53.2627793 C54.2469244,53.2627793 55.7519911,54.0234739 56.6405244,55.635602 L136.387902,55.635602 C132.649413,53.7497448 129.592436,50.412065 128.341236,45.9945921 C125.941591,37.5286512 130.792258,28.7375626 139.17288,26.360203 C141.850569,25.5995084 144.549413,25.2592374 147.266391,25.2592374 C170.649324,25.2622621 195.185236,50.4786069 215.530836,50.4786069 C217.555724,50.4786069 219.542836,50.2275626 221.478569,49.6785921 C232.820969,46.4603852 239.385236,34.563001 236.139369,23.1072128 C233.445058,13.5977744 224.842302,7.38215862 215.50968,7.38215862 C213.598124,7.38215862 211.653324,7.64378916 209.725147,8.19124729 C205.089058,9.50544926 201.252347,12.2714739 198.556524,15.8632227 C195.969502,19.2719813 194.961591,23.8346365 196.22488,28.2959665 C196.800613,30.3254936 197.796436,32.1145626 199.076347,33.6178039 C200.38648,35.0847498 201.681502,35.5792768 203.012791,35.5792768 C205.750924,35.5792768 208.643191,33.4907695 212.129324,33.4907695 C214.382391,33.4907695 216.88328,34.3618631 219.75288,37.2307251 C218.891547,38.4904837 217.327547,40.2477941 214.417147,41.2277744 C212.777591,41.7812818 211.101769,42.0414 209.436524,42.0414 C201.826569,42.0414 194.479547,36.5985773 192.244613,28.7073163 C191.415013,25.7809862 191.359102,22.8228975 191.936347,20.0432621 C190.171369,21.251602 188.219013,21.9639025 186.265147,21.9639025 C184.196436,21.9639025 182.127724,21.1669123 180.278124,19.3188631 C182.364969,16.474198 184.249324,15.7860946 185.99768,15.7860946 C187.634213,15.7860946 189.151369,16.3910207 190.597502,16.3910207 C191.827547,16.3910207 193.007724,15.9539616 194.169769,14.3388089 C194.17128,14.3388089 194.172791,14.3403212 194.174302,14.3403212 C194.502213,13.7989123 194.849769,13.2711143 195.23208,12.7675133 C198.687991,8.1625133 203.608169,4.61764631 209.551369,2.93141478 C212.023547,2.22970049 214.513858,1.89547882 216.96488,1.89547882 C228.165236,1.89547882 238.545058,8.8854 242.656791,19.7801192 C246.770036,8.8854 257.148347,1.89547882 268.350213,1.89547882 L268.350213,1.89547882 Z" id="Fill-8" fill="#B49759" mask="url(#mask-2)"></path>
                    </g>
                    <mask id="mask-4" fill="white">
                        <use xlink:href="#path-3"></use>
                    </mask>
                    <g id="Clip-12"></g>
                    <polygon id="Fill-11" fill="#B49759" mask="url(#mask-4)" points="409.217956 241.253246 421.879556 241.253246 421.879556 62.9331281 409.217956 62.9331281"></polygon>
                    <polygon id="Stroke-13" stroke="#B49759" stroke-width="2" stroke-linecap="round" stroke-linejoin="round" mask="url(#mask-4)" points="409.217956 241.253246 421.879556 241.253246 421.879556 62.9331281 409.217956 62.9331281"></polygon>
                    <polygon id="Fill-14" fill="#B49759" mask="url(#mask-4)" points="54.7173333 241.253246 67.3789333 241.253246 67.3789333 62.9331281 54.7173333 62.9331281"></polygon>
                    <polygon id="Stroke-15" stroke="#B49759" stroke-width="2" stroke-linecap="round" stroke-linejoin="round" mask="url(#mask-4)" points="54.7173333 241.253246 67.3789333 241.253246 67.3789333 62.9331281 54.7173333 62.9331281"></polygon>
                    <polygon id="Fill-16" fill="#B49759" mask="url(#mask-4)" points="54.7173333 67.8103448 409.217956 67.8103448 409.217956 56.1110739 54.7173333 56.1110739"></polygon>
                    <polygon id="Stroke-17" stroke="#B49759" stroke-width="2" stroke-linecap="round" stroke-linejoin="round" mask="url(#mask-4)" points="54.7173333 67.8103448 409.217956 67.8103448 409.217956 56.1110739 54.7173333 56.1110739"></polygon>
                    <polygon id="Fill-18" fill="#B49759" mask="url(#mask-4)" points="54.7173333 248.06169 409.217956 248.06169 409.217956 236.362419 54.7173333 236.362419"></polygon>
                    <polygon id="Stroke-19" stroke="#B49759" stroke-width="2" stroke-linecap="round" stroke-linejoin="round" mask="url(#mask-4)" points="54.7173333 248.06169 409.217956 248.06169 409.217956 236.362419 54.7173333 236.362419"></polygon>
                    <path d="M260.474907,150.502534 C258.310996,148.677169 255.899262,146.903224 253.159618,145.117179 C253.020596,139.560933 248.191084,135.081455 242.273573,135.081455 C240.797218,135.081455 239.366196,135.362746 238.031884,135.907179 C235.160773,134.092401 232.72184,132.288209 230.772507,130.541485 C228.705307,128.699485 228.705307,127.433677 228.705307,127.01779 L228.705307,110.636391 C228.705307,110.305194 228.788418,110.084396 229.012062,109.827302 C229.501662,109.263209 230.148418,108.782293 230.985573,108.352795 C231.969307,107.846169 233.002907,107.462041 234.066729,107.209485 C236.10824,106.725544 237.737218,106.698322 240.278907,107.171677 C241.342729,107.372815 242.330996,107.69645 243.219529,108.135022 C243.929751,108.482854 244.506996,108.932012 244.966373,109.490056 C245.23384,109.818229 245.350196,110.163036 245.350196,110.636391 L245.350196,116.764293 C245.350196,120.443756 246.820507,123.693721 249.59944,126.152746 C252.348151,128.593623 255.751173,129.833721 259.714818,129.833721 L271.628418,129.833721 L271.628418,113.77747 C271.628418,109.056022 270.742907,104.826076 268.991529,101.198032 C267.214462,97.5170562 264.666729,94.4289084 261.419351,92.0092039 C258.294373,89.6832631 254.607262,87.9017557 250.450196,86.7191251 C246.40344,85.5667409 241.977396,84.9844995 237.29144,84.9844995 C232.62664,84.9844995 228.256507,85.5032236 224.307973,86.531598 C220.158462,87.6053419 216.484951,89.3445044 213.388684,91.7006916 C210.21384,94.1158591 207.708418,97.2024946 205.941929,100.868347 C204.193573,104.499416 203.308062,108.842785 203.308062,113.77747 L203.308062,125.534209 C203.308062,130.877219 204.603084,135.541199 207.156862,139.379455 C209.556507,142.999938 212.608951,146.19546 216.226551,148.876795 C218.766729,150.765677 221.526018,152.575918 224.462107,154.283322 C224.43944,154.554027 224.427351,154.827756 224.427351,155.09846 C224.427351,160.769642 229.312773,165.386741 235.31944,165.386741 C237.190196,165.386741 239.009573,164.923972 240.611351,164.071027 C242.273573,165.379179 243.707618,166.758411 244.896862,168.183012 C246.497129,170.106677 247.276862,172.39481 247.276862,175.183519 L247.276862,192.723352 C247.276862,193.370623 247.101573,193.887834 246.714729,194.400509 C246.149573,195.147593 245.38344,195.8115 244.434462,196.371056 C243.340418,197.021352 242.108862,197.555199 240.803262,197.955963 C238.213218,198.73178 236.152062,198.675825 233.667796,198.005869 C232.378818,197.655012 231.21224,197.181657 230.16504,196.576731 C229.296151,196.085229 228.563262,195.469716 227.981484,194.733219 C227.633929,194.300697 227.476773,193.834903 227.476773,193.222416 L227.476773,186.103948 C227.476773,182.468342 226.246729,179.55411 223.818373,177.435357 C221.476151,175.393731 218.168329,174.357795 213.985573,174.357795 L201.55064,174.357795 L201.55064,190.572839 C201.55064,195.342682 202.550996,199.625559 204.527529,203.308046 C206.496507,206.963312 209.189307,210.016677 212.528862,212.3895 C215.77624,214.710903 219.623529,216.454603 223.967973,217.58279 C228.143173,218.656534 232.62664,219.200967 237.29144,219.200967 C241.959262,219.200967 246.442729,218.656534 250.61944,217.579766 C254.947262,216.45914 258.812684,214.719977 262.103884,212.416721 C265.506907,210.045411 268.261662,206.996583 270.288062,203.350391 C272.341662,199.654293 273.379796,195.356293 273.379796,190.572839 L273.379796,174.35477 C273.379796,169.253731 272.059084,164.629071 269.458462,160.616899 C267.043707,156.90114 264.022996,153.496918 260.474907,150.502534" id="Fill-20" fill="#B49759" mask="url(#mask-4)"></path>
                    <path d="M334.841369,164.596556 L322.178258,164.596556 C322.231147,164.286532 322.29008,163.931137 322.359591,163.531886 C322.646702,161.76399 323.022969,159.512152 323.492924,156.756714 L325.069013,147.401532 C325.64928,143.945891 326.286969,140.423709 326.991147,136.779029 L328.45088,128.774344 L329.918169,136.813812 C330.61328,140.423709 331.249458,143.947403 331.831236,147.404556 L333.404302,156.762763 C333.880302,159.562059 334.295858,161.853216 334.653991,163.646822 C334.725013,163.996167 334.782436,164.315266 334.841369,164.596556 L334.841369,164.596556 Z M357.225458,157.417596 C359.223147,155.518128 360.386702,152.932068 360.386702,150.203852 C360.386702,146.12665 357.885813,142.56666 354.139769,140.909162 C353.46128,137.300778 352.784302,133.698443 352.129991,130.173236 C351.066169,124.483906 350.11568,119.311788 349.266436,114.673517 L349.153102,114.044394 C348.269102,109.244305 347.542258,105.292625 346.957458,102.193891 C346.247236,98.4478862 346.153547,97.6115759 346.141458,97.569231 L346.11728,97.1427581 C345.771236,94.2572606 344.421813,91.7211079 342.106791,89.615965 C339.708658,87.4246202 336.586702,86.3145808 332.83008,86.3145808 L305.324836,86.3145808 L305.324836,93.9275759 C305.324836,100.510684 307.861991,103.777285 310.51248,105.392438 C310.491324,105.598113 310.465636,105.808325 310.435413,106.026098 L310.421813,106.136497 C310.34928,106.576581 310.101458,107.843901 309.685902,109.946019 C309.17968,112.503344 308.505724,115.841024 307.673102,119.948472 L307.594524,120.347724 C306.709013,124.665384 305.744924,129.560748 304.690169,135.038354 C304.341102,136.839522 303.987502,138.663374 303.626347,140.499325 C299.377102,141.908802 296.305013,145.750083 296.305013,150.203852 C296.305013,153.287463 297.739058,156.120029 300.128124,158.036133 C296.55888,176.082591 289.344836,213.211443 289.344836,213.211443 L288.474436,217.703019 L313.425902,217.703019 L313.98048,214.516571 C315.88448,203.520527 318.775236,186.897157 318.912747,186.184857 L318.949013,186.01094 L338.088747,185.944399 L338.115947,185.944399 C338.121991,185.982206 338.129547,186.018502 338.135591,186.054798 C338.303324,187.512669 339.010524,192.840556 342.046347,214.401635 L342.505724,217.678822 L368.514969,217.870886 L357.225458,157.417596 Z" id="Fill-21" fill="#B49759" mask="url(#mask-4)"></path>
                    <path d="M183.875929,85.8524172 L155.994418,85.8524172 L155.994418,188.376806 C155.994418,191.464954 155.131573,193.589757 153.35904,194.876737 C149.023662,198.022353 144.308996,197.857511 140.100551,194.861614 C139.435662,194.385235 137.413796,192.942486 137.413796,188.376806 L137.413796,85.8524172 L110.209262,85.8524172 L108.877973,85.928033 L106.059751,87.683831 L106.059751,94.7055108 C106.059751,97.3928951 106.789618,99.7052251 108.231218,101.582008 C109.429529,103.133644 110.623307,104.319299 111.891129,105.207028 L111.999929,105.211565 C112.007484,105.350698 112.016551,105.538225 112.016551,105.793806 L112.016551,140.716191 C108.495662,142.449304 106.120196,145.929141 106.120196,149.826378 C106.120196,153.719077 108.495662,157.200427 112.016551,158.93354 L112.016551,189.701595 C112.016551,194.453289 112.942862,198.704407 114.768284,202.332452 C116.605796,206.011915 119.212462,209.095526 122.512729,211.49557 C125.704196,213.826048 129.468373,215.575797 133.690418,216.693398 C137.756818,217.782265 142.191929,218.332747 146.873351,218.332747 C151.566862,218.332747 155.980818,217.77924 159.979218,216.690373 C164.151396,215.569747 167.862684,213.812437 171.004284,211.474398 C174.225973,209.080402 176.796373,206.007378 178.642951,202.332452 C180.466862,198.678698 181.391662,194.424555 181.391662,189.701595 L181.391662,158.520678 C184.507573,156.678678 186.50224,153.424176 186.50224,149.826378 C186.50224,146.227067 184.507573,142.96954 181.391662,141.129053 L181.391662,105.400604 C181.400729,105.356747 181.405262,105.317427 181.414329,105.282644 C181.444551,105.256934 181.48384,105.2282 181.526151,105.197954 C182.87104,104.24822 184.079929,102.934018 185.124107,101.276521 C186.248373,99.4738409 186.819573,97.2643483 186.819573,94.7055108 L186.819573,89.7360429 L186.694151,87.606703 L183.875929,85.8524172 Z" id="Fill-22" fill="#B49759" mask="url(#mask-4)"></path>
                    <path d="M266.019929,162.604837 C263.803129,159.182467 261.05744,156.095832 257.790418,153.341906 C255.061351,151.040162 252.061796,148.951655 248.892996,146.999256 C249.032018,146.475995 249.134773,145.936098 249.134773,145.36898 C249.134773,141.793867 246.067218,138.885684 242.274329,138.885684 C240.613618,138.885684 239.119129,139.467926 237.934418,140.388926 C237.375307,140.048655 236.776907,139.688724 236.235929,139.351477 C232.964373,137.311364 230.218684,135.292423 228.004907,133.306753 C225.785084,131.32562 224.678951,129.231064 224.678951,127.018546 L224.678951,110.635635 C224.678951,109.422758 225.08544,108.349014 225.90144,107.409867 C226.71744,106.470719 227.770684,105.673729 229.053618,105.011334 C230.341084,104.347428 231.679929,103.852901 233.080729,103.521704 C234.487573,103.184458 235.826418,103.024152 237.113884,103.024152 C238.280462,103.024152 239.595129,103.164798 241.059396,103.440039 C242.516107,103.710743 243.864018,104.158389 245.080462,104.76029 C246.312018,105.368241 247.333529,106.17128 248.152551,107.163359 C248.965529,108.15695 249.378062,109.312359 249.378062,110.635635 L249.378062,116.762024 C249.378062,119.408576 250.366329,121.618068 252.357973,123.381428 C254.343573,125.1463 256.793084,126.02798 259.715573,126.02798 L267.602062,126.02798 L267.602062,113.778226 C267.602062,109.5876 266.841973,105.921748 265.323307,102.777645 C263.803129,99.6290044 261.664907,97.0368961 258.923751,94.9952704 C256.181084,92.9536448 252.966951,91.4125956 249.288907,90.3600241 C245.612373,89.3165266 241.610951,88.7902409 237.289173,88.7902409 C232.964373,88.7902409 228.993173,89.2605709 225.375573,90.1997187 C221.751929,91.1358419 218.596729,92.6224478 215.914507,94.6640734 C213.227751,96.710236 211.122773,99.2962951 209.610151,102.446448 C208.089973,105.592064 207.334418,109.372852 207.334418,113.778226 L207.334418,125.533453 C207.334418,130.170211 208.404284,134.106768 210.571218,137.36127 C212.726062,140.617285 215.450596,143.466487 218.714596,145.886192 C221.907573,148.259014 225.363484,150.438261 229.065707,152.445103 C228.677351,153.252679 228.452196,154.152507 228.452196,155.099216 C228.452196,158.67433 231.521262,161.581 235.320196,161.581 C237.428196,161.581 239.294418,160.66 240.554684,159.24296 C243.534596,161.22863 246.052107,163.415438 248.066418,165.832118 C250.221262,168.427251 251.301707,171.541108 251.301707,175.184275 L251.301707,192.721083 C251.301707,194.160807 250.87104,195.456862 249.993084,196.61227 C249.11664,197.769192 247.977262,198.765807 246.57344,199.594556 C245.169618,200.423305 243.656996,201.081162 242.020462,201.581738 C240.379396,202.076266 238.803307,202.325798 237.289173,202.325798 C235.765973,202.325798 234.19744,202.105 232.557884,201.663403 C230.925884,201.220295 229.432907,200.613857 228.092551,199.842576 C226.74464,199.077344 225.640018,198.130635 224.762062,197.028157 C223.88864,195.930216 223.450418,194.662896 223.450418,193.223172 L223.450418,186.101679 C223.450418,183.564014 222.660107,181.607078 221.080996,180.233896 C219.510951,178.857689 217.140018,178.165049 213.983307,178.165049 L205.578507,178.165049 L205.578507,190.575108 C205.578507,194.767246 206.427751,198.433098 208.117173,201.581738 C209.811129,204.72433 212.088373,207.319463 214.956462,209.355039 C217.813973,211.399689 221.173173,212.915029 225.024996,213.911645 C228.881351,214.903724 232.964373,215.398251 237.289173,215.398251 C241.610951,215.398251 245.701529,214.903724 249.553351,213.911645 C253.409707,212.915029 256.793084,211.399689 259.715573,209.355039 C262.636551,207.319463 264.972729,204.72433 266.721084,201.581738 C268.467929,198.433098 269.350418,194.767246 269.350418,190.575108 L269.350418,174.355527 C269.350418,169.942591 268.239751,166.027206 266.019929,162.604837" id="Fill-23" fill="#FEFEFE" mask="url(#mask-4)"></path>
                    <path d="M338.613102,167.577632 C338.144658,168.129627 337.499413,168.400332 336.686436,168.400332 L320.213813,168.400332 C319.512658,168.400332 318.932391,168.153824 318.462436,167.659297 C317.997013,167.157208 317.824747,166.525061 317.941102,165.756804 C317.941102,165.646405 318.080124,164.707258 318.376302,162.94541 C318.667947,161.174489 319.041191,158.916602 319.512658,156.158139 C319.979591,153.398164 320.505458,150.278258 321.090258,146.805982 C321.675058,143.32312 322.315769,139.770691 323.018436,136.133573 L328.275591,107.334553 L328.626169,107.334553 L333.881813,136.133573 C334.582969,139.770691 335.220658,143.32312 335.80848,146.805982 C336.39328,150.278258 336.914613,153.398164 337.381547,156.158139 C337.849991,158.916602 338.259502,161.174489 338.613102,162.94541 C338.959147,164.707258 339.134436,165.646405 339.134436,165.756804 C339.250791,166.417686 339.081547,167.022612 338.613102,167.577632 M352.837191,155.834504 C354.931591,154.72144 356.355058,152.632933 356.355058,150.204154 C356.355058,146.979898 353.863236,144.330322 350.599236,143.825208 C349.771147,139.463691 348.950613,135.091588 348.158791,130.831396 C347.048124,124.881947 346.059858,119.499617 345.180391,114.694992 C344.302436,109.89944 343.569547,105.955322 342.990791,102.865662 C342.405991,99.7790261 342.114347,98.0111296 342.114347,97.5695335 C341.877102,95.5838635 340.946258,93.8416764 339.309724,92.3520458 C337.677724,90.8639276 335.516836,90.1198685 332.828569,90.1198685 L309.350436,90.1198685 L309.350436,93.9278783 C309.350436,98.6689867 310.807147,101.593804 313.732658,102.699307 C314.312924,102.920105 314.610613,103.390435 314.610613,104.108785 C314.610613,104.822598 314.55168,105.624125 314.435324,106.50278 C314.435324,106.616203 314.17088,107.996947 313.645013,110.641987 C313.12368,113.290051 312.41648,116.768376 311.544569,121.0694 C310.666613,125.37345 309.701013,130.255203 308.650791,135.719199 C308.141547,138.355164 307.620213,141.031962 307.08528,143.729933 C303.348302,143.790425 300.332124,146.6608 300.332124,150.204154 C300.332124,152.914223 302.092569,155.23109 304.593458,156.194435 C301.249369,172.999282 293.306969,213.899849 293.306969,213.899849 L310.004747,213.899849 C310.004747,213.899849 314.844836,186.003681 314.955147,185.450174 C315.189369,183.237657 316.245636,182.138203 318.110347,182.138203 L338.087236,182.138203 C339.134436,182.138203 340.016924,182.359001 340.713547,182.80211 C341.417724,183.237657 341.877102,184.126898 342.114347,185.450174 C342.114347,186.003681 346.037191,213.899849 346.037191,213.899849 L363.705102,214.029908 C363.705102,214.029908 356.436658,175.136184 352.837191,155.834504" id="Fill-24" fill="#FEFEFE" mask="url(#mask-4)"></path>
                    <path d="M177.363947,105.13232 C177.480302,104.246103 177.684302,103.61698 177.971413,103.229827 C178.263058,102.844187 178.645369,102.482743 179.112302,102.151546 C180.046169,101.489152 180.892391,100.551517 181.649458,99.3416645 C182.409547,98.1272754 182.788836,96.5832015 182.788836,94.7049059 L182.788836,89.7354379 L182.666436,89.6583099 L160.019413,89.6583099 L160.019413,188.376201 C160.019413,192.684788 158.618613,195.857625 155.815502,197.896226 C152.998791,199.937852 150.030969,200.95564 146.869724,200.95564 C143.602702,200.95564 140.536658,199.937852 137.671591,197.896226 C134.811058,195.857625 133.383058,192.684788 133.383058,188.376201 L133.383058,89.6583099 L110.207147,89.6583099 L110.084747,89.7354379 L110.084747,94.7049059 C110.084747,96.5832015 110.553191,98.1272754 111.488569,99.3416645 C112.419413,100.551517 113.348747,101.489152 114.287147,102.151546 C114.871947,102.482743 115.310169,102.869896 115.598791,103.306955 C115.891947,103.751576 116.041547,104.524369 116.041547,105.629871 L116.041547,105.794714 L116.041547,143.434729 C112.71408,143.885399 110.149724,146.560684 110.149724,149.827285 C110.149724,153.087837 112.71408,155.763123 116.041547,156.21833 L116.041547,189.70099 C116.041547,193.89464 116.827324,197.565029 118.409458,200.709133 C119.982524,203.854748 122.172124,206.445344 124.975236,208.482433 C127.773813,210.528596 131.052924,212.040911 134.78688,213.03299 C138.523858,214.03263 142.547947,214.527157 146.869724,214.527157 C151.194524,214.527157 155.198969,214.03263 158.875502,213.03299 C162.553547,212.040911 165.764658,210.528596 168.513369,208.482433 C171.251502,206.445344 173.412391,203.854748 174.999058,200.709133 C176.567591,197.565029 177.363947,193.89464 177.363947,189.70099 L177.363947,156.06861 C180.301547,155.333625 182.474524,152.829231 182.474524,149.827285 C182.474524,146.820802 180.301547,144.313384 177.363947,143.579911 L177.363947,105.463517 L177.363947,105.13232 Z" id="Fill-25" fill="#FEFEFE" mask="url(#mask-4)"></path>
                </g>
            </g>
        </g>
    </g>
</svg>