<svg width="475" height="306" viewBox="0 0 475 306" xmlns="http://www.w3.org/2000/svg" xmlns:xlink="http://www.w3.org/1999/xlink"><title>USA@1x</title><defs><path id="a" d="M474.575.384H0v83.701h474.575V.384z"/><path id="c" d="M0 304.488h474.575V.384H0z"/></defs><g fill="none" fill-rule="evenodd"><path fill="#002A5B" d="M62.814 245.825h358.094V59.172H62.814z"/><g transform="translate(0 .129)"><path d="M229.846 249.99c5.635 2.859 10.15 7.56 12.812 13.39 2.66-5.83 7.176-10.531 12.81-13.39h-25.622zm-90.236 2.3c-3.085 1.44-4.66 3.133-5.423 5.83a10.452 10.452 0 0 0 .9 7.948 10.232 10.232 0 0 0 6.205 4.942c1.886.537 3.893.81 5.963.81 9.585 0 19.867-5.645 30.751-11.617 6.824-3.746 13.839-7.595 21.008-10.212h-45.562c5.818 4.146 6.238 10.326 6.255 10.618a.755.755 0 0 1-.71.798c-.487.029-.954.044-1.404.044-6.884 0-9.558-3.34-11.707-6.022-1.48-1.85-2.649-3.31-4.848-3.31-.438 0-.917.057-1.428.17zm146.69-2.3c7.17 2.618 14.183 6.467 21.007 10.213 10.885 5.972 21.167 11.616 30.753 11.616 2.07 0 4.077-.272 5.963-.809 5.49-1.557 8.678-7.34 7.105-12.89-.763-2.697-2.338-4.39-5.423-5.83-.511-.114-.99-.172-1.428-.172-2.197 0-3.367 1.461-4.846 3.31-2.15 2.682-4.825 6.023-11.708 6.023-.45 0-.92-.015-1.407-.044a.756.756 0 0 1-.709-.798c.017-.294.444-6.475 6.256-10.618H286.3zm-17.95 53.742c-11.029 0-21.133-6.628-25.692-16.671-4.56 10.043-14.663 16.671-25.692 16.671-2.568 0-5.13-.358-7.62-1.064-5.927-1.682-11.015-5.179-14.718-10.112-.349-.46-.696-.972-1.056-1.562l-.016-.02c-1.1-1.53-2.113-1.737-2.96-1.737-.626 0-1.299.133-2.01.273-.823.162-1.67.332-2.59.332-2.394 0-4.405-1.222-6.328-3.842a.757.757 0 0 1 .076-.983c1.877-1.875 4.13-2.865 6.52-2.865 1.543 0 3.13.41 4.664 1.196a18.797 18.797 0 0 1 .589-7.39c2.28-8.045 9.816-13.884 17.919-13.884 1.787 0 3.545.287 5.222.853 2.4.808 4.325 2.25 5.717 4.286.207.3.169.705-.088.96-2.666 2.666-5.333 3.964-8.157 3.964-1.976 0-3.773-.628-5.358-1.181-1.336-.466-2.6-.908-3.758-.908-1.262 0-2.334.543-3.373 1.71a13.283 13.283 0 0 0-2.689 5.022c-1.162 4.103-.36 8.393 2.205 11.77a20.286 20.286 0 0 0 10.774 7.403c1.824.517 3.701.779 5.58.779 9.187 0 17.371-6.24 19.9-15.175 3.129-11.035-3.213-22.536-14.139-25.637-1.802-.512-3.735-.77-5.74-.77-9.63 0-20.216 5.76-31.425 11.859-12.07 6.568-24.55 13.358-36.838 13.358-2.87 0-5.662-.38-8.302-1.128-4.248-1.207-7.769-4.01-9.913-7.897-2.143-3.884-2.655-8.385-1.44-12.672 1-3.53 3.12-6.536 6.079-8.68H57.067c-.995 1.531-2.414 2.26-2.478 2.293a.775.775 0 0 1-.592.038.753.753 0 0 1-.437-.402c-.047-.098-1.135-2.355-4.54-3.666v8.378c0 .418-.338.882-.755.882H43.48a.756.756 0 0 1-.756-.756v-3.459c-2.146.363-4.947 1.335-4.947 3.937 0 1.054.314 1.78.96 2.217.513.346 1.267.529 2.184.529 1.07 0 1.992-.247 2-.25a.757.757 0 0 1 .949.82c-.611 5.068-5.005 7.717-9.03 7.717-3.486 0-7.801-2.02-8.487-7.717-.292-2.42.305-4.538 1.777-6.296 3.44-4.113 10.883-5.184 14.594-5.462v-1.441c-6.292.145-10.67 1.858-14.548 3.378-3.401 1.333-6.614 2.59-10.52 2.59-8.586 0-16.349-7.556-16.675-7.878a.755.755 0 0 1 0-1.078c.326-.323 8.089-7.875 16.675-7.875 3.906 0 7.119 1.26 10.522 2.595 3.878 1.52 8.254 3.236 14.546 3.381v-1.447c-3.713-.278-11.158-1.352-14.594-5.46-1.472-1.758-2.07-3.877-1.777-6.298.686-5.697 5.001-7.719 8.486-7.719 4.026 0 8.42 2.651 9.032 7.719a.752.752 0 0 1-.257.66.744.744 0 0 1-.692.16 8.595 8.595 0 0 0-2.005-.252c-2.816 0-3.14 1.572-3.14 2.754 0 2.596 2.801 3.568 4.947 3.93v-3.325c0-.419.338-.875.756-.875h4.785c.417 0 .756.337.756.756v8.496c3.404-1.31 4.492-3.568 4.54-3.67a.757.757 0 0 1 1.027-.36c.063.031 1.48.757 2.478 2.285h360.442c1-1.528 2.416-2.254 2.48-2.285a.764.764 0 0 1 .592-.038.76.76 0 0 1 .436.402c.046.098 1.134 2.356 4.539 3.666v-8.377c0-.419.337-.875.755-.875h4.786c.417 0 .756.337.756.756v3.445c2.145-.363 4.947-1.334 4.947-3.93 0-1.183-.326-2.755-3.14-2.755a8.595 8.595 0 0 0-2.005.252.744.744 0 0 1-.692-.159.748.748 0 0 1-.257-.661c.61-5.068 5.005-7.719 9.03-7.719 3.486 0 7.802 2.022 8.488 7.719.292 2.421-.305 4.54-1.777 6.297-3.438 4.11-10.882 5.183-14.594 5.461v1.447c6.292-.145 10.667-1.861 14.546-3.381 3.403-1.336 6.615-2.595 10.522-2.595 8.584 0 16.348 7.552 16.675 7.874a.761.761 0 0 1 0 1.079c-.327.322-8.09 7.879-16.675 7.879-3.907 0-7.12-1.258-10.52-2.59-3.88-1.52-8.256-3.234-14.548-3.38v1.442c3.711.278 11.153 1.349 14.594 5.462 1.472 1.758 2.069 3.876 1.777 6.296-.686 5.697-5.002 7.717-8.49 7.717-4.023 0-8.418-2.65-9.028-7.717a.757.757 0 0 1 .949-.82c.009.003.93.25 2 .25 2.819 0 3.145-1.567 3.145-2.746 0-2.602-2.802-3.574-4.947-3.937v3.333c0 .418-.339.882-.756.882h-4.786a.755.755 0 0 1-.755-.756v-8.504c-3.405 1.311-4.493 3.568-4.541 3.67a.767.767 0 0 1-.438.398.758.758 0 0 1-.251.041.756.756 0 0 1-.339-.079c-.065-.033-1.482-.762-2.478-2.292h-65.887a16.047 16.047 0 0 1 6.079 8.679c1.215 4.287.704 8.788-1.439 12.672-2.144 3.886-5.665 6.69-9.913 7.897a30.42 30.42 0 0 1-8.3 1.128c-12.29 0-24.772-6.79-36.84-13.358-11.21-6.1-21.797-11.86-31.424-11.86-2.007 0-3.938.259-5.741.771-10.924 3.1-17.268 14.602-14.141 25.637 2.53 8.935 10.717 15.176 19.903 15.175 1.88 0 3.756-.262 5.579-.78a20.293 20.293 0 0 0 10.77-7.397c2.565-3.382 3.37-7.672 2.209-11.774a13.34 13.34 0 0 0-2.7-5.037c-1.028-1.153-2.1-1.696-3.361-1.696-1.16 0-2.423.442-3.759.908-1.585.553-3.381 1.181-5.358 1.181-2.823 0-5.491-1.298-8.157-3.964a.755.755 0 0 1-.09-.96c1.393-2.036 3.315-3.477 5.719-4.286a16.312 16.312 0 0 1 5.222-.853c8.103 0 15.64 5.84 17.918 13.883.689 2.433.885 4.912.589 7.39 1.535-.787 3.122-1.195 4.665-1.195 2.389 0 4.642.99 6.519 2.865.264.265.296.68.075.983-1.922 2.62-3.933 3.842-6.328 3.842-.92 0-1.767-.17-2.589-.332-.712-.14-1.384-.273-2.011-.273-.846 0-1.859.207-2.959 1.737a.16.16 0 0 0-.015.019 17.717 17.717 0 0 1-1.06 1.568 27.706 27.706 0 0 1-14.713 10.107 27.925 27.925 0 0 1-7.62 1.064z" fill="#B49759"/><path d="M155.567 250.748h39.468c-5.924 2.5-11.724 5.681-17.392 8.792-10.797 5.925-20.995 11.522-30.388 11.522-2.03 0-3.913-.255-5.758-.778a9.48 9.48 0 0 1-5.748-4.581 9.705 9.705 0 0 1-.835-7.377c.69-2.438 2.126-3.987 4.94-5.316.425-.09.824-.135 1.184-.135 1.753 0 2.666 1.038 4.258 3.027 2.131 2.661 5.049 6.306 12.298 6.306.464 0 .947-.015 1.45-.045a1.513 1.513 0 0 0 1.418-1.596c-.017-.278-.38-5.586-4.895-9.82m77.123 0h19.935a28.788 28.788 0 0 0-9.968 10.913 28.788 28.788 0 0 0-9.967-10.912m57.59 0h39.468c-4.516 4.233-4.879 9.54-4.895 9.819a1.513 1.513 0 0 0 1.417 1.596c.503.03.988.045 1.45.045 7.251 0 10.169-3.646 12.3-6.308 1.592-1.987 2.504-3.025 4.256-3.025.36 0 .759.046 1.185.135 2.814 1.33 4.25 2.878 4.94 5.316a9.705 9.705 0 0 1-.836 7.377 9.48 9.48 0 0 1-5.748 4.58c-1.82.518-3.757.78-5.757.78-9.393 0-19.592-5.598-30.389-11.523-5.668-3.11-11.468-6.293-17.391-8.792m149.456-29.962c-4.358 0-9.116 2.879-9.783 8.382a1.512 1.512 0 0 0 1.903 1.64c.003-.002.84-.224 1.803-.224 2.201 0 2.386 1.031 2.386 1.998 0 1.748-1.753 2.596-3.44 3.006v-2.521a1.51 1.51 0 0 0-1.51-1.512h-4.786c-.835 0-1.511.676-1.511 1.512v7.33c-2.285-1.185-3.062-2.746-3.101-2.828a1.542 1.542 0 0 0-.88-.783 1.595 1.595 0 0 0-.503-.083c-.23 0-.458.051-.665.155-.17.085-1.48.775-2.535 2.205H57.46c-1.053-1.43-2.365-2.12-2.534-2.205a1.504 1.504 0 0 0-1.182-.074 1.51 1.51 0 0 0-.873.802c-.033.068-.809 1.627-3.095 2.811v-7.33a1.51 1.51 0 0 0-1.511-1.512H43.48a1.51 1.51 0 0 0-1.511 1.512v2.521c-1.687-.41-3.44-1.258-3.44-3.006 0-.967.185-1.998 2.386-1.998.963 0 1.8.222 1.808.225a1.527 1.527 0 0 0 1.385-.317c.38-.33.573-.825.513-1.324-.667-5.503-5.425-8.382-9.783-8.382-4.095 0-8.54 2.592-9.238 8.382-.317 2.638.339 4.952 1.948 6.875 3.169 3.789 9.283 5.135 13.698 5.603-5.341-.344-9.124-1.826-12.794-3.266-3.471-1.361-6.749-2.647-10.797-2.647-8.892 0-16.87 7.761-17.206 8.091a1.52 1.52 0 0 0-.45 1.078c0 .406.162.793.45 1.077.336.331 8.314 8.099 17.206 8.099 4.048 0 7.326-1.284 10.795-2.644 3.639-1.424 7.387-2.893 12.653-3.253-4.402.483-10.418 1.84-13.555 5.588-1.61 1.925-2.265 4.238-1.948 6.874.698 5.79 5.143 8.382 9.238 8.382 4.358 0 9.116-2.879 9.783-8.38a1.513 1.513 0 0 0-1.901-1.642c-.003.002-.84.223-1.802.223-2.203 0-2.389-1.027-2.389-1.99 0-1.76 1.833-2.605 3.44-3.007V256.756c0 .835.675 1.512 1.51 1.512h4.785c.836 0 1.511-.677 1.511-1.512v-7.336c2.286 1.185 3.063 2.746 3.102 2.828a1.532 1.532 0 0 0 1.383.866c.23 0 .46-.051.668-.157.168-.085 1.48-.777 2.534-2.21h74.125a16.757 16.757 0 0 0-4.702 7.716c-2.621 9.254 2.705 18.901 11.875 21.504a31.194 31.194 0 0 0 8.506 1.157c12.482 0 25.048-6.839 37.2-13.45 11.122-6.053 21.629-11.77 31.064-11.77 1.936 0 3.8.252 5.535.743 5.094 1.446 9.318 4.81 11.89 9.473 2.575 4.667 3.19 10.077 1.729 15.23-2.44 8.612-10.324 14.626-19.175 14.626-1.809 0-3.616-.252-5.373-.751a19.53 19.53 0 0 1-10.373-7.125c-2.423-3.194-3.182-7.242-2.085-11.112a12.577 12.577 0 0 1 2.548-4.755c1.129-1.263 2.084-1.43 2.786-1.43 1.03 0 2.235.421 3.509.867 1.643.574 3.503 1.222 5.608 1.222 3.033 0 5.876-1.368 8.69-4.183.515-.514.591-1.323.18-1.923-1.488-2.175-3.54-3.715-6.1-4.577a17.088 17.088 0 0 0-5.463-.892c-8.435 0-16.276 6.07-18.646 14.434a19.767 19.767 0 0 0-.719 6.385c-1.263-.489-2.548-.741-3.808-.741-2.593 0-5.032 1.067-7.054 3.088a1.51 1.51 0 0 0-.15 1.964c2.077 2.831 4.282 4.15 6.937 4.15.992 0 1.919-.183 2.736-.345.674-.133 1.312-.26 1.865-.26.64 0 1.4.11 2.345 1.423.364.596.721 1.122 1.087 1.603a28.456 28.456 0 0 0 15.11 10.376 28.646 28.646 0 0 0 7.824 1.094c10.801 0 20.735-6.189 25.693-15.703 4.958 9.514 14.892 15.703 25.692 15.703 2.636 0 5.27-.368 7.826-1.094 6.087-1.727 11.314-5.317 15.116-10.382.36-.475.716-1 1.08-1.598.945-1.311 1.706-1.422 2.346-1.422.553 0 1.19.127 1.864.26.818.162 1.744.345 2.735.345 2.657 0 4.862-1.319 6.938-4.15a1.51 1.51 0 0 0-.15-1.964c-2.02-2.02-4.46-3.088-7.054-3.088-1.26 0-2.544.252-3.808.74a19.767 19.767 0 0 0-.719-6.384c-2.37-8.363-10.21-14.432-18.645-14.434-1.868 0-3.706.301-5.463.892-2.56.862-4.612 2.402-6.1 4.577-.412.6-.336 1.41.18 1.923 2.813 2.815 5.657 4.183 8.69 4.183 2.105 0 3.965-.648 5.607-1.222 1.274-.446 2.479-.866 3.51-.866.702 0 1.657.166 2.81 1.456a12.548 12.548 0 0 1 2.523 4.728c1.098 3.87.339 7.918-2.08 11.105a19.53 19.53 0 0 1-10.377 7.132c-1.758.499-3.565.751-5.374.751-8.85 0-16.735-6.014-19.174-14.625-3.013-10.635 3.096-21.717 13.618-24.704a20.322 20.322 0 0 1 5.535-.742c9.436 0 19.94 5.716 31.064 11.768 12.152 6.612 24.719 13.45 37.2 13.45 2.94 0 5.8-.39 8.507-1.156 4.444-1.263 8.126-4.195 10.369-8.26 2.24-4.06 2.774-8.763 1.505-13.244a16.757 16.757 0 0 0-4.701-7.715h63.385c1.053 1.432 2.366 2.124 2.534 2.21a1.498 1.498 0 0 0 1.183.076c.389-.137.705-.426.875-.801.034-.07.809-1.63 3.094-2.813v7.336c0 .835.676 1.512 1.51 1.512h4.786c.836 0 1.511-.677 1.511-1.512V254.229c1.607.402 3.44 1.246 3.44 3.006 0 .964-.186 1.99-2.39 1.99-.96 0-1.798-.22-1.805-.222a1.51 1.51 0 0 0-1.384.318c-.38.328-.573.824-.513 1.323.665 5.502 5.425 8.381 9.782 8.381 4.096 0 8.54-2.592 9.239-8.382.317-2.636-.339-4.949-1.948-6.874-3.137-3.749-9.153-5.105-13.555-5.588 5.267.36 9.014 1.829 12.653 3.253 3.47 1.36 6.747 2.644 10.795 2.644 8.892 0 16.87-7.768 17.206-8.099a1.51 1.51 0 0 0 .45-1.077 1.52 1.52 0 0 0-.45-1.078c-.336-.33-8.314-8.09-17.206-8.09-4.048 0-7.326 1.285-10.797 2.646-3.67 1.44-7.452 2.922-12.794 3.266 4.415-.468 10.53-1.814 13.698-5.603 1.61-1.923 2.265-4.237 1.948-6.875-.698-5.789-5.143-8.38-9.238-8.382m-282.142 39.91c-11.299 0-10.5-9.333-16.556-9.333-.506 0-1.06.065-1.673.206-2.868 1.326-4.971 3.047-5.905 6.344-1.69 5.96 1.724 12.151 7.625 13.825 2.026.575 4.081.837 6.17.837 17.174 0 36.372-17.66 56.533-23.34h-53.094c7.1 3.451 8.181 10.057 8.258 11.418-.471.029-.923.043-1.358.043m85.063 4.64c2.8-7.34 8.677-13.376 16.517-16.1h-33.035c7.841 2.724 13.718 8.76 16.518 16.1m95.403 7.239c2.087 0 4.143-.262 6.168-.837 5.902-1.674 9.316-7.865 7.627-13.825-.934-3.297-3.04-5.018-5.906-6.344a7.486 7.486 0 0 0-1.673-.206c-6.056 0-5.255 9.333-16.555 9.333-.434 0-.889-.014-1.359-.043.077-1.36 1.16-7.967 8.258-11.418H281.526c20.163 5.68 39.36 23.34 56.534 23.34m101.676-50.277c3.613.001 7.157 2.228 7.737 7.052 1.106 9.195-11.957 10.709-16.379 10.961v2.92c12.467-.034 17.48-5.985 25.825-5.985 8.375 0 16.145 7.656 16.145 7.656s-7.77 7.663-16.145 7.663c-8.346 0-13.358-5.945-25.825-5.98v2.915c4.422.25 17.485 1.772 16.38 10.963-.583 4.822-4.125 7.05-7.74 7.05-3.824 0-7.73-2.497-8.28-7.05 0 0 1.006.275 2.2.275 1.748 0 3.902-.591 3.902-3.503 0-3.567-4.187-4.55-6.462-4.807v4.328h-4.785v-9.555c-4.594 1.342-5.981 4.407-5.981 4.407s-1.504-.76-2.394-2.373h-69.006c3.737 1.886 6.794 5.224 8.046 9.641 2.398 8.466-2.45 17.257-10.833 19.635-2.678.76-5.376 1.1-8.093 1.1-23.383 0-47.918-25.219-68.265-25.219-2.023 0-4.01.251-5.948.8-11.342 3.22-17.905 15.116-14.659 26.572 2.693 9.51 11.296 15.725 20.628 15.725 1.913 0 3.857-.262 5.786-.81a21.123 21.123 0 0 0 11.169-7.671 14.152 14.152 0 0 0 2.33-12.433 14.117 14.117 0 0 0-2.851-5.322c-1.31-1.467-2.605-1.961-3.937-1.961-2.738 0-5.63 2.088-9.116 2.088-2.253 0-4.754-.871-7.622-3.74.86-1.26 2.423-3.017 5.334-3.997a15.533 15.533 0 0 1 4.98-.814c7.61 0 14.957 5.443 17.192 13.335.83 2.926.887 5.884.31 8.664 1.765-1.209 3.718-1.921 5.671-1.921 2.068 0 4.138.797 5.986 2.645-2.085 2.845-3.971 3.533-5.718 3.533-1.638 0-3.155-.605-4.601-.605-1.23 0-2.41.437-3.573 2.052l-.004-.001c-.328.54-.676 1.069-1.058 1.572a27.082 27.082 0 0 1-14.32 9.836 27.108 27.108 0 0 1-7.413 1.036c-11.2 0-21.58-6.99-25.692-17.884-4.111 10.894-14.491 17.884-25.693 17.884-2.45 0-4.942-.334-7.414-1.036a27.084 27.084 0 0 1-14.317-9.836 17.756 17.756 0 0 1-1.058-1.572l-.005.001c-1.162-1.615-2.342-2.052-3.572-2.052-1.448 0-2.963.605-4.601.605-1.747 0-3.633-.688-5.718-3.533 1.848-1.848 3.918-2.645 5.985-2.645 1.954 0 3.908.712 5.671 1.92-.577-2.779-.52-5.737.31-8.663 2.235-7.892 9.58-13.335 17.19-13.335 1.666 0 3.343.262 4.983.814 2.91.98 4.474 2.737 5.334 3.997-2.868 2.869-5.37 3.74-7.622 3.74-3.486 0-6.379-2.088-9.117-2.088-1.331 0-2.628.494-3.936 1.961a14.117 14.117 0 0 0-2.852 5.322 14.148 14.148 0 0 0 2.33 12.433 21.123 21.123 0 0 0 11.17 7.672c1.929.547 3.872.809 5.785.809 9.331 0 17.936-6.217 20.628-15.725 3.246-11.456-3.317-23.352-14.659-26.572-1.939-.549-3.923-.8-5.948-.8-20.347 0-44.881 25.22-68.264 25.22-2.716 0-5.417-.34-8.094-1.101-8.382-2.378-13.231-11.169-10.833-19.635 1.253-4.417 4.31-7.755 8.047-9.64H56.64c-.89 1.611-2.394 2.372-2.394 2.372s-1.387-3.065-5.982-4.407v9.555H43.48v-4.328c-2.275.257-6.462 1.24-6.462 4.807 0 2.913 2.154 3.503 3.9 3.503 1.196 0 2.202-.275 2.202-.275-.55 4.553-4.455 7.05-8.282 7.05-3.613 0-7.157-2.228-7.737-7.05-1.106-9.19 11.957-10.712 16.379-10.963v-2.916c-12.467.036-17.48 5.981-25.825 5.981-8.375 0-16.145-7.663-16.145-7.663s7.77-7.656 16.145-7.656c8.346 0 13.358 5.95 25.825 5.985v-2.92c-4.422-.252-17.485-1.766-16.38-10.961.581-4.824 4.125-7.052 7.738-7.052 3.826.001 7.732 2.498 8.282 7.052 0 0-1.008-.278-2.205-.278-1.746 0-3.897.592-3.897 3.51 0 3.573 4.187 4.544 6.462 4.801v-4.316h4.784v9.549c4.595-1.342 5.982-4.407 5.982-4.407s1.502.756 2.392 2.367h361.297c.89-1.61 2.392-2.367 2.392-2.367s1.387 3.065 5.98 4.407v-9.549h4.786v4.316c2.275-.257 6.462-1.228 6.462-4.801 0-2.918-2.15-3.51-3.897-3.51-1.197 0-2.205.278-2.205.278.55-4.555 4.455-7.052 8.282-7.052M199.013 54.88c-7.17-2.618-14.185-6.468-21.006-10.213-10.884-5.972-21.164-11.614-30.752-11.614-2.07 0-4.076.272-5.962.807a10.238 10.238 0 0 0-6.206 4.944 10.457 10.457 0 0 0-.899 7.949c.762 2.695 2.336 4.387 5.422 5.828.51.114.991.171 1.43.171 2.195 0 3.365-1.46 4.846-3.309 2.148-2.684 4.821-6.023 11.708-6.023.448 0 .917.015 1.405.043a.756.756 0 0 1 .707.799c-.015.292-.437 6.471-6.253 10.618h45.56zm56.454 0c-5.634-2.858-10.147-7.56-12.81-13.389-2.661 5.829-7.175 10.53-12.81 13.389h25.62zm76.396 0c-5.812-4.144-6.24-10.326-6.256-10.618a.758.758 0 0 1 .708-.799c.488-.028.955-.043 1.407-.043 6.883 0 9.558 3.339 11.707 6.023 1.48 1.848 2.65 3.31 4.847 3.31.439 0 .918-.058 1.428-.172 3.086-1.441 4.66-3.133 5.424-5.828 1.573-5.55-1.614-11.335-7.106-12.893a21.836 21.836 0 0 0-5.962-.807c-9.587 0-19.869 5.642-30.753 11.616-6.824 3.744-13.837 7.593-21.006 10.21h45.562zm107.873 28.45c-4.025 0-8.421-2.652-9.032-7.718a.755.755 0 0 1 .95-.82c.01.002.933.252 2.003.252 2.817 0 3.142-1.573 3.142-2.756 0-2.595-2.802-3.566-4.948-3.93v3.327c0 .417-.338.875-.755.875h-4.786a.756.756 0 0 1-.756-.756v-8.497c-3.404 1.31-4.492 3.567-4.54 3.671a.766.766 0 0 1-.69.439.756.756 0 0 1-.337-.08c-.064-.032-1.48-.758-2.478-2.285H57.065c-.997 1.527-2.413 2.253-2.478 2.285a.766.766 0 0 1-.592.038.757.757 0 0 1-.435-.401c-.047-.1-1.135-2.356-4.54-3.667v8.378c0 .417-.337.875-.755.875h-4.786a.756.756 0 0 1-.756-.756v-3.446c-2.145.364-4.947 1.335-4.947 3.93 0 1.057.314 1.785.963 2.225.516.352 1.25.53 2.177.53 1.072 0 1.995-.249 2.005-.25a.75.75 0 0 1 .692.157.75.75 0 0 1 .257.662c-.61 5.066-5.004 7.718-9.031 7.718-3.485 0-7.8-2.022-8.487-7.718-.292-2.423.305-4.541 1.777-6.3 3.438-4.109 10.882-5.181 14.594-5.46v-1.447c-6.292.145-10.668 1.862-14.547 3.382-3.401 1.335-6.614 2.595-10.52 2.595-8.585 0-16.349-7.553-16.675-7.875a.758.758 0 0 1 0-1.077c.326-.322 8.09-7.88 16.675-7.88 3.906 0 7.119 1.258 10.52 2.59 3.879 1.52 8.255 3.234 14.547 3.38v-1.442c-3.71-.277-11.152-1.348-14.594-5.461-1.472-1.76-2.069-3.878-1.777-6.3.686-5.694 5.002-7.715 8.488-7.715 4.026 0 8.42 2.651 9.03 7.716a.754.754 0 0 1-.75.847.808.808 0 0 1-.199-.026c-.009-.003-.93-.25-2.002-.25-2.816 0-3.143 1.567-3.143 2.747 0 2.601 2.802 3.574 4.947 3.938v-3.333c0-.42.339-.882.756-.882h4.786c.418 0 .755.337.755.756v8.503c3.406-1.312 4.493-3.566 4.541-3.67a.76.76 0 0 1 1.028-.36c.065.032 1.482.763 2.478 2.292h76.625a16.047 16.047 0 0 1-6.079-8.68c-2.507-8.852 2.586-18.079 11.355-20.567a30.412 30.412 0 0 1 8.3-1.128c12.29 0 24.767 6.79 36.837 13.357 11.207 6.099 21.796 11.86 31.423 11.86h.003c2.008 0 3.94-.26 5.74-.77 5.291-1.502 9.676-4.996 12.347-9.835 2.673-4.844 3.309-10.456 1.793-15.804-2.53-8.934-10.713-15.174-19.901-15.174-1.878 0-3.754.261-5.578.779a20.283 20.283 0 0 0-10.772 7.4c-2.568 3.38-3.37 7.671-2.206 11.773a13.3 13.3 0 0 0 2.698 5.037c1.03 1.151 2.1 1.694 3.361 1.694 1.16 0 2.42-.44 3.758-.907 1.587-.554 3.382-1.181 5.36-1.181 2.823 0 5.49 1.296 8.156 3.963.256.256.294.661.089.962-1.393 2.036-3.319 3.478-5.717 4.286a16.325 16.325 0 0 1-5.222.851c-8.104 0-15.64-5.839-17.92-13.883a18.797 18.797 0 0 1-.59-7.39c-1.532.786-3.12 1.198-4.663 1.198-2.39 0-4.644-.993-6.52-2.868a.759.759 0 0 1-.076-.983c1.924-2.62 3.935-3.84 6.33-3.84.917 0 1.766.168 2.589.33.711.14 1.384.274 2.01.274.846 0 1.858-.206 2.961-1.736l.012-.02c.36-.587.706-1.101 1.061-1.567 3.7-4.928 8.787-8.425 14.714-10.107a27.933 27.933 0 0 1 7.62-1.064c11.031 0 21.133 6.628 25.692 16.672 4.56-10.044 14.664-16.672 25.694-16.672 2.565 0 5.128.358 7.62 1.064 5.927 1.682 11.015 5.179 14.714 10.11.368.484.73 1.021 1.101 1.637 1.073 1.477 2.084 1.683 2.929 1.683.628 0 1.3-.133 2.013-.274.82-.162 1.671-.33 2.588-.33 2.395 0 4.407 1.22 6.329 3.84.22.303.189.72-.074.983-1.879 1.875-4.132 2.868-6.52 2.868-1.542 0-3.13-.412-4.666-1.198a18.744 18.744 0 0 1-.587 7.39c-2.28 8.044-9.817 13.883-17.92 13.883-1.785 0-3.544-.285-5.222-.85-2.402-.81-4.326-2.253-5.718-4.288a.755.755 0 0 1 .091-.96c2.664-2.668 5.333-3.964 8.156-3.964 1.978 0 3.773.627 5.358 1.18 1.337.468 2.6.908 3.758.908 1.262 0 2.333-.543 3.374-1.707a13.321 13.321 0 0 0 2.687-5.026c1.16-4.101.358-8.39-2.206-11.769a20.277 20.277 0 0 0-10.773-7.402 20.445 20.445 0 0 0-5.577-.78c-9.188 0-17.372 6.24-19.903 15.175-3.128 11.037 3.217 22.538 14.14 25.639 1.804.51 3.735.77 5.74.77 9.627 0 20.216-5.761 31.424-11.86 12.069-6.567 24.55-13.357 36.84-13.357 2.869 0 5.661.38 8.301 1.128 4.25 1.206 7.77 4.01 9.914 7.896 2.142 3.884 2.652 8.384 1.439 12.672a16.05 16.05 0 0 1-6.08 8.679h65.887c.996-1.53 2.413-2.26 2.478-2.291a.761.761 0 0 1 .592-.04c.195.07.352.215.437.403.047.1 1.135 2.354 4.54 3.666V48.24c0-.42.338-.882.755-.882h4.786c.417 0 .755.337.755.756v3.459c2.146-.364 4.948-1.337 4.948-3.938 0-1.18-.325-2.746-3.145-2.746-1.07 0-1.992.246-2 .25a.757.757 0 0 1-.949-.821c.61-5.066 5.006-7.717 9.03-7.717 3.486 0 7.802 2.02 8.488 7.716.291 2.421-.306 4.54-1.777 6.299-3.443 4.113-10.885 5.184-14.595 5.46v1.443c6.292-.146 10.67-1.86 14.548-3.38 3.401-1.332 6.614-2.59 10.52-2.59 8.585 0 16.349 7.558 16.675 7.88a.752.752 0 0 1 .225.539c0 .202-.08.396-.225.538-.326.322-8.09 7.875-16.675 7.875-3.906 0-7.119-1.26-10.52-2.595-3.878-1.52-8.256-3.237-14.548-3.382v1.447c3.713.279 11.157 1.351 14.595 5.46 1.471 1.759 2.068 3.877 1.777 6.299-.686 5.697-5.002 7.719-8.487 7.719z" fill="#B49759"/><mask id="b" fill="#fff"><use xlink:href="#a"/></mask><path d="M232.69 54.123a28.788 28.788 0 0 0 9.967-10.913 28.792 28.792 0 0 0 9.969 10.913H232.69zm-92.837-2.262c-2.814-1.33-4.25-2.878-4.94-5.316a9.705 9.705 0 0 1 .836-7.377 9.487 9.487 0 0 1 5.75-4.58 21.043 21.043 0 0 1 5.755-.78c9.395 0 19.592 5.597 30.389 11.523 5.668 3.11 11.468 6.292 17.391 8.792h-39.467c4.515-4.233 4.88-9.54 4.894-9.82a1.513 1.513 0 0 0-1.417-1.595c-.502-.03-.987-.045-1.45-.045-7.251 0-10.169 3.645-12.3 6.306-1.59 1.989-2.504 3.026-4.256 3.026-.36 0-.757-.045-1.185-.134zm150.426 2.262c5.926-2.5 11.725-5.681 17.393-8.792 10.797-5.926 20.994-11.521 30.387-11.523 2.03 0 3.913.256 5.758.78a9.48 9.48 0 0 1 5.748 4.58 9.705 9.705 0 0 1 .837 7.377c-.69 2.438-2.128 3.987-4.941 5.316a5.83 5.83 0 0 1-1.185.134c-1.753 0-2.666-1.037-4.257-3.026-2.13-2.661-5.05-6.306-12.297-6.306-.466 0-.95.015-1.452.045a1.51 1.51 0 0 0-1.416 1.596c.015.278.377 5.586 4.893 9.82h-39.468zM268.35.383v1.512V.383c-10.801 0-20.735 6.187-25.693 15.703C237.7 6.572 227.765.383 216.965.383c-2.635 0-5.268.368-7.826 1.094-6.087 1.727-11.314 5.317-15.114 10.382a19.368 19.368 0 0 0-1.082 1.598c-.945 1.311-1.705 1.422-2.345 1.422-.554 0-1.191-.127-1.865-.26-.818-.162-1.744-.345-2.735-.345-2.657 0-4.862 1.319-6.938 4.15a1.512 1.512 0 0 0 .15 1.964c2.022 2.02 4.46 3.088 7.054 3.088 1.26 0 2.546-.252 3.808-.74a19.804 19.804 0 0 0 .719 6.384c2.37 8.363 10.21 14.434 18.646 14.434 1.869 0 3.706-.301 5.462-.893 2.56-.862 4.614-2.401 6.1-4.576.412-.6.336-1.41-.178-1.923-2.815-2.815-5.657-4.184-8.692-4.184-2.103 0-3.965.65-5.607 1.222-1.274.447-2.479.867-3.51.867-.702 0-1.657-.166-2.808-1.456a12.556 12.556 0 0 1-2.525-4.726c-1.096-3.872-.339-7.92 2.08-11.107a19.543 19.543 0 0 1 10.377-7.132c1.758-.499 3.565-.752 5.374-.752 8.85 0 16.735 6.015 19.176 14.626 1.46 5.154.846 10.564-1.729 15.23-2.573 4.663-6.795 8.028-11.891 9.474a20.322 20.322 0 0 1-5.535.742c-9.436 0-19.942-5.716-31.064-11.769-12.152-6.611-24.719-13.449-37.2-13.45-2.938 0-5.799.39-8.507 1.158-9.17 2.602-14.496 12.249-11.872 21.502a16.742 16.742 0 0 0 4.7 7.716H57.462c-1.054-1.432-2.365-2.125-2.535-2.21a1.493 1.493 0 0 0-1.183-.076 1.51 1.51 0 0 0-.873.801c-.033.07-.81 1.629-3.095 2.813v-7.336c0-.835-.677-1.512-1.511-1.512H43.48c-.834 0-1.51.677-1.51 1.512v2.527c-1.607-.402-3.439-1.246-3.439-3.007 0-.963.185-1.99 2.39-1.99.96 0 1.796.221 1.804.223a1.51 1.51 0 0 0 1.384-.318c.38-.328.573-.824.512-1.323-.665-5.502-5.425-8.382-9.781-8.382-4.097 0-8.541 2.593-9.24 8.383-.317 2.636.34 4.949 1.95 6.874 3.137 3.749 9.153 5.107 13.555 5.59-5.266-.362-9.014-1.83-12.653-3.255-3.47-1.36-6.748-2.644-10.795-2.644C8.764 50.793.785 58.56.45 58.892a1.516 1.516 0 0 0 .001 2.155c.336.33 8.313 8.09 17.206 8.09 4.048 0 7.326-1.285 10.795-2.646 3.672-1.44 7.455-2.922 12.795-3.267-4.414.47-10.528 1.815-13.697 5.604-1.61 1.923-2.267 4.237-1.95 6.875.699 5.79 5.143 8.382 9.24 8.382 4.356 0 9.116-2.88 9.781-8.382.06-.501-.131-.999-.514-1.327a1.507 1.507 0 0 0-1.387-.313 7.832 7.832 0 0 1-1.803.224c-2.201 0-2.386-1.031-2.386-1.998 0-1.748 1.752-2.596 3.438-3.006v2.521c0 .836.677 1.512 1.511 1.512h4.786c.834 0 1.511-.676 1.511-1.512v-7.33c2.285 1.185 3.063 2.746 3.102 2.828a1.535 1.535 0 0 0 1.382.866c.23 0 .457-.051.664-.156.17-.084 1.481-.774 2.536-2.205h359.654c1.054 1.431 2.366 2.12 2.534 2.205a1.508 1.508 0 0 0 2.055-.727c.033-.068.808-1.627 3.095-2.811v7.33a1.51 1.51 0 0 0 1.51 1.512h4.786c.835 0 1.511-.676 1.511-1.512v-2.521c1.685.41 3.438 1.258 3.438 3.006 0 .967-.184 1.998-2.386 1.998a7.8 7.8 0 0 1-1.807-.225 1.518 1.518 0 0 0-1.898 1.64c.666 5.504 5.425 8.383 9.783 8.383 4.095 0 8.54-2.592 9.237-8.382.318-2.638-.338-4.952-1.947-6.875-3.17-3.789-9.285-5.135-13.699-5.604 5.342.345 9.124 1.827 12.796 3.267 3.47 1.361 6.747 2.647 10.796 2.647 8.891 0 16.87-7.762 17.205-8.091a1.513 1.513 0 0 0 0-2.155c-.335-.332-8.314-8.099-17.205-8.099-4.049 0-7.326 1.284-10.796 2.644-3.638 1.426-7.386 2.893-12.652 3.254 4.4-.482 10.417-1.84 13.555-5.59 1.609-1.924 2.265-4.237 1.947-6.873-.696-5.79-5.142-8.381-9.237-8.383-4.358 0-9.117 2.88-9.783 8.382a1.513 1.513 0 0 0 1.901 1.64 7.86 7.86 0 0 1 1.801-.222c2.205 0 2.39 1.027 2.39 1.99 0 1.76-1.832 2.605-3.439 3.007v-2.527c0-.835-.676-1.512-1.51-1.512h-4.786c-.836 0-1.511.677-1.511 1.512v7.336c-2.287-1.186-3.063-2.746-3.103-2.828a1.532 1.532 0 0 0-1.382-.866c-.23 0-.46.05-.668.157-.168.084-1.48.777-2.534 2.21h-63.384a16.767 16.767 0 0 0 4.7-7.717c1.269-4.48.734-9.184-1.506-13.243-2.242-4.065-5.925-6.997-10.369-8.259-2.705-.768-5.567-1.157-8.504-1.158-12.484 0-25.05 6.837-37.202 13.45-11.124 6.053-21.627 11.77-31.063 11.77-1.937 0-3.8-.252-5.536-.743-5.094-1.446-9.318-4.81-11.89-9.473-2.575-4.667-3.188-10.077-1.729-15.23 2.44-8.612 10.324-14.627 19.176-14.627 1.808 0 3.617.253 5.372.752a19.53 19.53 0 0 1 10.373 7.125c2.424 3.194 3.182 7.242 2.085 11.114a12.582 12.582 0 0 1-2.548 4.753c-1.129 1.263-2.082 1.429-2.785 1.429-1.032 0-2.236-.42-3.51-.867-1.643-.573-3.503-1.222-5.608-1.222-3.033 0-5.875 1.368-8.69 4.184a1.512 1.512 0 0 0-.178 1.923c1.486 2.175 3.539 3.714 6.1 4.576a17.08 17.08 0 0 0 5.463.893c8.433 0 16.276-6.07 18.645-14.434.586-2.072.827-4.236.718-6.385 1.263.489 2.548.741 3.808.741 2.595 0 5.033-1.067 7.054-3.088a1.512 1.512 0 0 0 .15-1.964c-2.077-2.831-4.28-4.15-6.937-4.15-.992 0-1.919.183-2.735.345-.675.133-1.313.26-1.866.26-.64 0-1.4-.11-2.344-1.422a19.53 19.53 0 0 0-1.086-1.604 28.467 28.467 0 0 0-15.11-10.376A28.657 28.657 0 0 0 268.35.383zm-42.21 55.253h33.035c-7.841-2.726-13.717-8.761-16.518-16.1-2.8 7.339-8.675 13.374-16.517 16.1zm-85.102-2.128c6.056 0 5.255-9.334 16.555-9.333.434 0 .889.014 1.36.043-.078 1.36-1.16 7.966-8.26 11.418h53.095c-20.163-5.68-39.358-23.34-56.534-23.34-2.087 0-4.143.262-6.168.836-5.9 1.674-9.316 7.866-7.627 13.826.934 3.297 3.04 5.018 5.906 6.344.613.14 1.166.206 1.673.206zm140.488 2.128h53.094c-7.098-3.452-8.181-10.057-8.258-11.418.471-.03.925-.043 1.36-.043 11.298 0 10.497 9.333 16.554 9.333.506 0 1.06-.065 1.673-.206 2.868-1.326 4.971-3.047 5.907-6.344 1.688-5.96-1.726-12.152-7.627-13.826a22.473 22.473 0 0 0-6.17-.836c-17.172.003-36.37 17.66-56.533 23.34zM268.35 1.896c2.45 0 4.942.334 7.414 1.035a27.079 27.079 0 0 1 14.318 9.837c.382.503.73 1.03 1.057 1.572l.005-.001c1.162 1.615 2.342 2.052 3.572 2.052 1.448 0 2.963-.605 4.601-.605 1.747 0 3.633.688 5.72 3.533-1.85 1.848-3.918 2.645-5.987 2.645-1.954 0-3.906-.712-5.671-1.92.577 2.779.52 5.737-.309 8.663-2.236 7.892-9.581 13.334-17.191 13.334a15.56 15.56 0 0 1-4.981-.813c-2.91-.98-4.474-2.738-5.336-3.997 2.87-2.87 5.37-3.74 7.622-3.74 3.488 0 6.379 2.088 9.118 2.088 1.33 0 2.627-.494 3.937-1.961a14.135 14.135 0 0 0 2.85-5.322 14.143 14.143 0 0 0-2.33-12.433 21.117 21.117 0 0 0-11.17-7.672 21.17 21.17 0 0 0-5.784-.809c-9.332 0-17.936 6.217-20.63 15.725-3.245 11.456 3.32 23.353 14.662 26.572 1.937.549 3.92.8 5.947.8 20.346 0 44.88-25.221 68.265-25.22 2.715 0 5.416.34 8.092 1.101 8.382 2.378 13.231 11.169 10.833 19.635-1.251 4.417-4.308 7.755-8.047 9.64h69.008c.889-1.612 2.392-2.372 2.392-2.372s1.389 3.065 5.983 4.407v-9.555h4.785v4.328c2.273-.257 6.46-1.24 6.46-4.808 0-2.912-2.151-3.502-3.9-3.502-1.195 0-2.201.275-2.201.275.551-4.553 4.456-7.05 8.282-7.05 3.613.001 7.157 2.227 7.737 7.05 1.107 9.19-11.958 10.712-16.378 10.963v2.916c12.466-.037 17.48-5.982 25.824-5.982 8.374 0 16.144 7.663 16.144 7.663s-7.77 7.657-16.144 7.657c-8.345 0-13.358-5.95-25.824-5.986v2.92c4.42.253 17.485 1.767 16.378 10.962-.58 4.824-4.124 7.052-7.737 7.052-3.826 0-7.73-2.498-8.282-7.052 0 0 1.007.278 2.204.278 1.747 0 3.897-.593 3.897-3.51 0-3.573-4.187-4.544-6.46-4.801v4.316h-4.785v-9.549c-4.594 1.341-5.983 4.407-5.983 4.407s-1.502-.756-2.392-2.367H56.64c-.89 1.61-2.392 2.367-2.392 2.367s-1.387-3.066-5.981-4.407v9.549H43.48v-4.316c-2.272.257-6.46 1.228-6.46 4.801 0 2.917 2.15 3.51 3.897 3.51 1.196 0 2.204-.278 2.204-.278-.55 4.555-4.455 7.052-8.281 7.052-3.613 0-7.157-2.228-7.739-7.052-1.106-9.195 11.958-10.709 16.38-10.961v-2.92c-12.467.034-17.48 5.985-25.824 5.985-8.376 0-16.146-7.657-16.146-7.657s7.77-7.663 16.146-7.663c8.344 0 13.357 5.945 25.823 5.982V55.37c-4.421-.251-17.485-1.772-16.379-10.963.582-4.823 4.124-7.05 7.739-7.05 3.826 0 7.73 2.497 8.28 7.05 0 0-1.004-.275-2.2-.275-1.748 0-3.9.591-3.9 3.502 0 3.568 4.188 4.551 6.46 4.808v-4.328h4.786v9.555c4.594-1.342 5.98-4.407 5.98-4.407s1.506.76 2.395 2.373h79.747c-3.739-1.886-6.796-5.224-8.047-9.641-2.4-8.466 2.451-17.257 10.832-19.635 2.678-.76 5.376-1.1 8.093-1.1 23.383.002 47.92 25.219 68.265 25.219 2.025 0 4.012-.251 5.948-.8 11.342-3.219 17.906-15.116 14.66-26.572-2.694-9.51-11.297-15.725-20.63-15.725-1.91 0-3.856.262-5.784.81a21.117 21.117 0 0 0-11.168 7.671 14.148 14.148 0 0 0-2.332 12.433 14.138 14.138 0 0 0 2.851 5.322c1.31 1.467 2.606 1.961 3.937 1.961 2.738 0 5.63-2.088 9.116-2.088 2.253 0 4.754.87 7.624 3.74-.861 1.26-2.425 3.017-5.336 3.997-1.64.553-3.315.813-4.98.813-7.61 0-14.957-5.442-17.192-13.334a18.144 18.144 0 0 1-.309-8.664c-1.765 1.209-3.717 1.92-5.67 1.92-2.07 0-4.138-.796-5.988-2.644 2.087-2.845 3.971-3.533 5.72-3.533 1.636 0 3.153.605 4.6.605 1.23 0 2.41-.437 3.572-2.052l.004.001c.328-.541.676-1.069 1.058-1.572a27.082 27.082 0 0 1 14.32-9.837 27.116 27.116 0 0 1 7.413-1.036c11.2 0 21.58 6.99 25.692 17.885C246.77 8.885 257.148 1.895 268.35 1.895z" fill="#B49759" mask="url(#b)"/><mask id="d" fill="#fff"><use xlink:href="#c"/></mask><path fill="#B49759" mask="url(#d)" d="M409.218 241.253h12.662V62.933h-12.662z"/><path stroke="#B49759" stroke-width="2" stroke-linecap="round" stroke-linejoin="round" mask="url(#d)" d="M409.218 241.253h12.662V62.933h-12.662z"/><path fill="#B49759" mask="url(#d)" d="M54.717 241.253H67.38V62.933H54.717z"/><path stroke="#B49759" stroke-width="2" stroke-linecap="round" stroke-linejoin="round" mask="url(#d)" d="M54.717 241.253H67.38V62.933H54.717z"/><path fill="#B49759" mask="url(#d)" d="M54.717 67.81h354.501V56.111h-354.5z"/><path stroke="#B49759" stroke-width="2" stroke-linecap="round" stroke-linejoin="round" mask="url(#d)" d="M54.717 67.81h354.501V56.111h-354.5z"/><path fill="#B49759" mask="url(#d)" d="M54.717 248.062h354.501v-11.7h-354.5z"/><path stroke="#B49759" stroke-width="2" stroke-linecap="round" stroke-linejoin="round" mask="url(#d)" d="M54.717 248.062h354.501v-11.7h-354.5z"/><path d="M260.475 150.503c-2.164-1.826-4.576-3.6-7.315-5.386-.14-5.556-4.969-10.036-10.886-10.036a11.19 11.19 0 0 0-4.242.826c-2.871-1.815-5.31-3.619-7.26-5.366-2.067-1.842-2.067-3.107-2.067-3.523v-16.382c0-.33.083-.552.307-.809.49-.564 1.136-1.045 1.974-1.474.983-.507 2.017-.891 3.08-1.144 2.042-.483 3.671-.51 6.213-.037 1.064.2 2.052.524 2.94.963a5.15 5.15 0 0 1 1.747 1.355c.268.328.384.673.384 1.146v6.128c0 3.68 1.47 6.93 4.25 9.389 2.748 2.44 6.151 3.68 10.115 3.68h11.913v-16.056c0-4.721-.885-8.95-2.636-12.579a24.763 24.763 0 0 0-7.573-9.189c-3.125-2.326-6.812-4.107-10.969-5.29-4.047-1.152-8.473-1.735-13.159-1.735-4.664 0-9.034.52-12.983 1.548-4.15 1.073-7.823 2.813-10.92 5.169-3.174 2.415-5.68 5.501-7.446 9.167-1.748 3.631-2.634 7.975-2.634 12.91v11.756c0 5.343 1.295 10.007 3.849 13.845 2.4 3.62 5.452 6.816 9.07 9.498a87.72 87.72 0 0 0 8.235 5.406c-.023.271-.035.545-.035.815 0 5.672 4.886 10.289 10.892 10.289 1.871 0 3.69-.463 5.292-1.316 1.663 1.308 3.097 2.687 4.286 4.112 1.6 1.924 2.38 4.212 2.38 7v17.54c0 .648-.175 1.165-.562 1.678-.565.747-1.332 1.41-2.28 1.97a16.753 16.753 0 0 1-3.632 1.585c-2.59.776-4.65.72-7.135.05-1.29-.351-2.456-.824-3.503-1.43a7.377 7.377 0 0 1-2.184-1.843c-.347-.432-.504-.898-.504-1.51v-7.12c0-3.635-1.23-6.549-3.659-8.668-2.342-2.041-5.65-3.077-9.832-3.077H201.55v16.215c0 4.77 1 9.053 2.977 12.735 1.969 3.655 4.661 6.709 8 9.082 3.248 2.32 7.096 4.065 11.44 5.193 4.175 1.074 8.659 1.618 13.323 1.618 4.668 0 9.152-.544 13.328-1.621 4.328-1.12 8.194-2.86 11.485-5.163a26.857 26.857 0 0 0 8.184-9.067c2.054-3.696 3.092-7.994 3.092-12.777v-16.218c0-5.101-1.32-9.726-3.922-13.738-2.414-3.716-5.435-7.12-8.983-10.114M334.841 164.597h-12.663c.053-.31.112-.666.182-1.065.287-1.768.663-4.02 1.133-6.775l1.576-9.355c.58-3.456 1.218-6.978 1.922-10.623l1.46-8.005 1.467 8.04c.695 3.61 1.331 7.133 1.913 10.59l1.573 9.359c.476 2.8.892 5.09 1.25 6.884.071.35.128.668.187.95zm22.384-7.18c1.998-1.899 3.162-4.485 3.162-7.213 0-4.077-2.501-7.637-6.247-9.295-.679-3.608-1.356-7.21-2.01-10.736a4118.24 4118.24 0 0 1-2.864-15.5l-.113-.629c-.884-4.8-1.61-8.751-2.196-11.85-.71-3.746-.803-4.582-.816-4.625l-.024-.426c-.346-2.886-1.695-5.422-4.01-7.527-2.398-2.191-5.52-3.301-9.277-3.301h-27.505v7.613c0 6.583 2.537 9.85 5.187 11.464a18.01 18.01 0 0 1-.077.634l-.013.11c-.073.44-.32 1.708-.736 3.81-.506 2.557-1.18 5.895-2.013 10.002l-.078.4c-.886 4.317-1.85 9.213-2.905 14.69-.349 1.802-.702 3.625-1.064 5.461-4.249 1.41-7.321 5.251-7.321 9.705 0 3.083 1.434 5.916 3.823 7.832-3.57 18.047-10.783 55.175-10.783 55.175l-.87 4.492h24.95l.555-3.186c1.904-10.996 4.795-27.62 4.933-28.332l.036-.174 19.14-.067h.027l.02.11c.167 1.459.875 6.787 3.91 28.348l.46 3.277 26.009.192-11.29-60.453zM183.876 85.852h-27.882v102.525c0 3.088-.862 5.213-2.635 6.5-4.335 3.145-9.05 2.98-13.258-.015-.665-.477-2.687-1.92-2.687-6.485V85.852h-27.205l-1.331.076-2.818 1.756v7.022c0 2.687.73 5 2.171 6.876 1.199 1.552 2.392 2.737 3.66 3.625l.109.005c.007.139.017.326.017.582v34.922c-3.521 1.733-5.897 5.213-5.897 9.11 0 3.893 2.376 7.374 5.897 9.108v30.768c0 4.751.926 9.002 2.751 12.63a25.057 25.057 0 0 0 7.745 9.164c3.191 2.33 6.955 4.08 11.177 5.197 4.067 1.09 8.502 1.64 13.183 1.64 4.694 0 9.108-.554 13.106-1.643 4.172-1.12 7.884-2.878 11.025-5.216 3.222-2.394 5.792-5.467 7.639-9.142 1.824-3.653 2.749-7.907 2.749-12.63V158.52c3.116-1.842 5.11-5.097 5.11-8.695 0-3.599-1.994-6.856-5.11-8.697v-35.728c.009-.044.013-.084.022-.118.03-.026.07-.055.112-.085 1.345-.95 2.554-2.264 3.598-3.921 1.124-1.803 1.696-4.013 1.696-6.571v-4.97l-.126-2.13-2.818-1.754z" fill="#B49759" mask="url(#d)"/><path d="M266.02 162.605c-2.217-3.423-4.963-6.51-8.23-9.263-2.729-2.302-5.728-4.39-8.897-6.343.139-.523.242-1.063.242-1.63 0-3.575-3.068-6.483-6.86-6.483-1.661 0-3.156.582-4.34 1.503-.56-.34-1.158-.7-1.7-1.038-3.27-2.04-6.016-4.059-8.23-6.044-2.22-1.981-3.326-4.076-3.326-6.288v-16.383c0-1.213.406-2.287 1.222-3.226.816-.94 1.87-1.736 3.153-2.399a17.556 17.556 0 0 1 4.027-1.49 17.242 17.242 0 0 1 4.033-.497c1.166 0 2.481.14 3.945.416a15.39 15.39 0 0 1 4.021 1.32c1.232.608 2.254 1.411 3.073 2.403.813.994 1.225 2.15 1.225 3.473v6.126c0 2.647.988 4.856 2.98 6.62 1.986 1.764 4.435 2.646 7.358 2.646h7.886v-12.25c0-4.19-.76-7.856-2.279-11-1.52-3.149-3.658-5.741-6.4-7.783-2.742-2.041-5.956-3.582-9.634-4.635-3.677-1.043-7.678-1.57-12-1.57-4.325 0-8.296.47-11.913 1.41-3.624.936-6.78 2.422-9.461 4.464-2.687 2.046-4.792 4.632-6.305 7.782-1.52 3.146-2.276 6.927-2.276 11.332v11.755c0 4.637 1.07 8.574 3.237 11.828 2.155 3.256 4.88 6.105 8.144 8.525 3.193 2.373 6.648 4.552 10.35 6.56a6.113 6.113 0 0 0-.613 2.653c0 3.575 3.07 6.482 6.868 6.482a6.985 6.985 0 0 0 5.235-2.338c2.98 1.986 5.497 4.172 7.511 6.59 2.155 2.594 3.236 5.708 3.236 9.351v17.537c0 1.44-.431 2.736-1.309 3.891-.876 1.157-2.016 2.154-3.42 2.983a20.957 20.957 0 0 1-4.553 1.987c-1.64.494-3.217.744-4.73.744-1.524 0-3.093-.221-4.732-.663-1.632-.443-3.125-1.05-4.465-1.82-1.348-.766-2.453-1.712-3.33-2.815-.874-1.098-1.313-2.365-1.313-3.805v-7.121c0-2.538-.79-4.495-2.369-5.868-1.57-1.376-3.941-2.069-7.098-2.069h-8.404v12.41c0 4.192.849 7.858 2.538 11.007 1.694 3.142 3.971 5.737 6.84 7.773 2.857 2.045 6.216 3.56 10.068 4.557 3.856.992 7.94 1.486 12.264 1.486 4.322 0 8.413-.494 12.264-1.486 3.857-.997 7.24-2.512 10.163-4.557 2.92-2.036 5.257-4.63 7.005-7.773 1.747-3.149 2.63-6.815 2.63-11.007v-16.22c0-4.412-1.111-8.328-3.331-11.75M338.613 167.578c-.468.552-1.114.822-1.927.822h-16.472c-.701 0-1.282-.246-1.752-.74-.465-.503-.637-1.135-.52-1.903 0-.11.138-1.05.434-2.812.292-1.77.665-4.028 1.137-6.787.467-2.76.992-5.88 1.577-9.352a442.64 442.64 0 0 1 1.928-10.672l5.258-28.8h.35l5.256 28.8c.701 3.637 1.339 7.19 1.926 10.672.585 3.472 1.107 6.592 1.574 9.352a247.62 247.62 0 0 0 1.231 6.787c.346 1.762.521 2.701.521 2.812.117.66-.052 1.266-.52 1.82m14.223-11.742c2.095-1.114 3.518-3.202 3.518-5.63 0-3.225-2.492-5.875-5.756-6.38-.828-4.361-1.648-8.733-2.44-12.994-1.11-5.95-2.1-11.331-2.979-16.136-.878-4.796-1.61-8.74-2.19-11.83-.584-3.086-.876-4.854-.876-5.295-.237-1.986-1.168-3.728-2.804-5.218-1.632-1.488-3.793-2.232-6.481-2.232H309.35v3.808c0 4.741 1.457 7.666 4.383 8.771.58.221.878.691.878 1.41 0 .714-.06 1.515-.176 2.394 0 .113-.264 1.494-.79 4.139-.521 2.648-1.229 6.126-2.1 10.427-.878 4.304-1.844 9.186-2.894 14.65-.51 2.636-1.03 5.313-1.566 8.01-3.737.061-6.753 2.932-6.753 6.475 0 2.71 1.76 5.027 4.261 5.99C301.25 173 293.307 213.9 293.307 213.9h16.698s4.84-27.896 4.95-28.45c.234-2.212 1.29-3.312 3.155-3.312h19.977c1.047 0 1.93.221 2.627.664.704.436 1.163 1.325 1.4 2.648 0 .554 3.923 28.45 3.923 28.45l17.668.13s-7.268-38.894-10.868-58.195M177.364 105.132c.116-.886.32-1.515.607-1.902a5.156 5.156 0 0 1 1.141-1.078c.934-.663 1.78-1.6 2.537-2.81.76-1.215 1.14-2.759 1.14-4.637v-4.97l-.123-.077H160.02v98.718c0 4.309-1.4 7.482-4.203 9.52-2.817 2.042-5.785 3.06-8.946 3.06-3.267 0-6.333-1.018-9.198-3.06-2.86-2.038-4.289-5.211-4.289-9.52V89.658h-23.176l-.122.077v4.97c0 1.878.468 3.422 1.404 4.637.93 1.21 1.86 2.147 2.798 2.81.585.33 1.023.718 1.312 1.155.293.445.443 1.217.443 2.323v37.805c-3.328.45-5.892 3.126-5.892 6.392 0 3.26 2.564 5.936 5.892 6.391v33.483c0 4.194.785 7.864 2.367 11.008 1.574 3.146 3.763 5.736 6.566 7.773 2.799 2.047 6.078 3.559 9.812 4.551 3.737 1 7.76 1.494 12.083 1.494 4.325 0 8.329-.494 12.006-1.494 3.678-.992 6.889-2.504 9.637-4.55 2.739-2.038 4.9-4.628 6.486-7.774 1.569-3.144 2.365-6.814 2.365-11.008v-33.632c2.938-.735 5.11-3.24 5.11-6.242 0-3.006-2.172-5.514-5.11-6.247v-38.448z" fill="#FEFEFE" mask="url(#d)"/></g></g></svg>