<?xml version="1.0" encoding="UTF-8"?>
<svg width="474px" height="305px" viewBox="0 0 474 305" version="1.1" xmlns="http://www.w3.org/2000/svg" xmlns:xlink="http://www.w3.org/1999/xlink">
    <!-- Generator: Sketch 41.2 (35397) - http://www.bohemiancoding.com/sketch -->
    <title>WLD@1x</title>
    <desc>Created with Sketch.</desc>
    <defs>
        <polygon id="path-1" points="236.854519 303.491972 473.708888 303.491972 473.708888 0.250215745 0 0.250215745 0 303.491972 236.854519 303.491972 473.709039 303.491972 473.709039 220.027161 0.000150835322 220.027161 0.000150835322 303.491972 236.854519 303.491972"></polygon>
        <polygon id="path-3" points="473.708435 0.250215745 0 0.250215745 0 83.7144234 473.708435 83.7144234 473.708435 0.250215745"></polygon>
        <polygon id="path-5" points="0 303.491972 473.708888 303.491972 473.708888 0.250215745 0 0.250215745"></polygon>
    </defs>
    <g id="Page-1" stroke="none" stroke-width="1" fill="none" fill-rule="evenodd">
        <g id="WLD">
            <g id="Page-1">
                <polygon id="Fill-1" fill="#E21836" points="62.6992267 244.995577 420.139723 244.995577 420.139723 58.8717778 62.6992267 58.8717778"></polygon>
                <g id="Group-27" transform="translate(0.000000, 0.128182)">
                    <path d="M229.427011,249.149439 C235.05166,251.999611 239.55862,256.68807 242.21483,262.500008 C244.869531,256.68807 249.377999,251.999611 255.00114,249.149439 L229.427011,249.149439 L229.427011,249.149439 Z M139.35419,251.441641 C136.274133,252.878792 134.703937,254.567783 133.942219,257.255088 C133.1805,259.936361 133.500271,262.751849 134.841197,265.181282 C136.182123,267.607698 138.381302,269.358519 141.034495,270.109516 C142.91692,270.644866 144.920013,270.916311 146.986457,270.916311 C156.553942,270.916311 166.816777,265.288352 177.681445,259.33315 C184.493168,255.597766 191.494944,251.759835 198.650572,249.149439 L153.172214,249.149439 C158.979374,253.284451 159.398696,259.446252 159.415288,259.737302 C159.439421,260.153517 159.124176,260.507904 158.70787,260.53354 C158.220672,260.562193 157.754591,260.577273 157.305102,260.577273 C150.434553,260.577273 147.764768,257.247548 145.619889,254.572307 C144.141703,252.727989 142.974238,251.271234 140.779584,251.271234 C140.34367,251.271234 139.864013,251.328539 139.35419,251.441641 L139.35419,251.441641 Z M285.777579,249.149439 C292.934715,251.759835 299.934982,255.597766 306.746705,259.33315 C317.611374,265.288352 327.874209,270.916311 337.443202,270.916311 C339.509646,270.916311 341.512739,270.644866 343.395164,270.109516 C348.875011,268.556248 352.057636,262.78955 350.487441,257.255088 C349.725722,254.566275 348.154018,252.878792 345.073961,251.441641 C344.564137,251.328539 344.085989,251.271234 343.648567,251.271234 C341.455421,251.271234 340.287956,252.727989 338.811278,254.572307 C336.6664,257.24604 333.995106,260.577273 327.124558,260.577273 C326.675068,260.577273 326.20597,260.562193 325.720281,260.53354 C325.303975,260.507904 324.988729,260.152009 325.012863,259.737302 C325.029455,259.444744 325.456319,253.281435 331.257445,249.149439 L285.777579,249.149439 L285.777579,249.149439 Z M267.859851,302.738712 C256.851889,302.738712 246.765531,296.129027 242.21483,286.114215 C237.664128,296.129027 227.579278,302.738712 216.569808,302.738712 C214.007116,302.738712 211.448949,302.38131 208.963183,301.677061 C203.047421,300.000134 197.968796,296.513574 194.273331,291.594387 C193.924901,291.135947 193.57798,290.624726 193.218992,290.036595 C193.212958,290.029055 193.208433,290.023023 193.2024,290.01699 C192.104319,288.490866 191.093722,288.284267 190.249044,288.284267 C189.623078,288.284267 188.951861,288.416973 188.241426,288.55722 C187.420882,288.718579 186.574696,288.887478 185.657617,288.887478 C183.266877,288.887478 181.259259,287.668991 179.340634,285.057087 C179.120414,284.755482 179.15209,284.340774 179.416052,284.076869 C181.289426,282.206915 183.538381,281.219157 185.923087,281.219157 C187.463116,281.219157 189.048395,281.627832 190.579374,282.412007 C190.283737,279.940349 190.481331,277.467184 191.167632,275.042275 C193.442228,267.021076 200.964386,261.198581 209.053684,261.198581 C210.838066,261.198581 212.590772,261.485106 214.265044,262.049108 C216.661818,262.854395 218.58346,264.293053 219.972653,266.322859 C220.179297,266.621448 220.141589,267.0256 219.885168,267.280456 C217.224433,269.939109 214.56219,271.232997 211.743078,271.232997 C209.770152,271.232997 207.97672,270.607166 206.394457,270.055227 C205.061073,269.590755 203.80009,269.150411 202.643183,269.150411 C201.383708,269.150411 200.314285,269.691793 199.276538,270.854482 C198.023097,272.324809 197.116577,274.0138 196.593178,275.862642 C195.433254,279.953921 196.23419,284.232196 198.793865,287.599622 C201.499851,291.2023 205.217942,293.753883 209.548424,294.981418 C211.369006,295.497163 213.242381,295.758052 215.117264,295.758052 C224.288052,295.758052 232.457293,289.53593 234.982276,280.626502 C236.495154,275.294116 235.860137,269.697825 233.191861,264.86912 C230.5266,260.041923 226.149359,256.558379 220.867106,255.062416 C219.069149,254.551194 217.139966,254.293322 215.136873,254.293322 C205.527154,254.293322 194.959632,260.037399 183.770667,266.119275 C171.72345,272.668639 159.265961,279.439684 147.000032,279.439684 C144.13567,279.439684 141.348233,279.061169 138.71314,278.314695 C134.473159,277.111289 130.958696,274.315406 128.818343,270.439774 C126.679498,266.567159 126.168166,262.079269 127.380882,257.80401 C128.379412,254.284273 130.495632,251.286314 133.448987,249.149439 L56.9634119,249.149439 C55.9694072,250.675563 54.5530635,251.402432 54.4897126,251.435609 C54.3826196,251.489898 54.264968,251.515534 54.1488248,251.515534 C54.064357,251.515534 53.9798893,251.501962 53.8984382,251.47331 C53.7038606,251.405448 53.5469919,251.260678 53.4625241,251.072174 C53.4157652,250.974152 52.3297508,248.724175 48.931431,247.416715 L48.931431,255.771189 C48.931431,256.187404 48.5935599,256.650369 48.1772544,256.650369 L43.4002998,256.650369 C42.9839943,256.650369 42.6461232,256.312571 42.6461232,255.896355 L42.6461232,252.447496 C40.5042616,252.809422 37.7077747,253.779084 37.7077747,256.372892 C37.7077747,257.423987 38.0215122,258.14784 38.6670874,258.58366 C39.1784191,258.928999 39.9310874,259.11147 40.8466578,259.11147 C41.9145718,259.11147 42.8346673,258.865662 42.8437174,258.862646 C42.9085766,258.846057 42.9764525,258.837009 43.0413117,258.837009 C43.2208057,258.837009 43.3957747,258.900346 43.5360516,259.020988 C43.7245957,259.183855 43.8211303,259.431172 43.7909632,259.679997 C43.1800802,264.733398 38.793789,267.375462 34.775536,267.375462 C31.2957652,267.375462 26.9879084,265.360737 26.3046243,259.679997 C26.0135122,257.267152 26.6093117,255.154405 28.0784477,253.402077 C31.512968,249.300242 38.9416076,248.232558 42.6461232,247.955081 L42.6461232,246.517931 C36.3653403,246.662701 31.9956411,248.371297 28.1252067,249.886864 C24.7299036,251.215437 21.5231446,252.470116 17.6240516,252.470116 C9.05358854,252.470116 1.30517804,244.934501 0.979373747,244.613292 C0.834571838,244.471537 0.754629117,244.278509 0.754629117,244.076434 C0.754629117,243.874358 0.834571838,243.679822 0.979373747,243.538068 C1.30517804,243.216858 9.05358854,235.685767 17.6240516,235.685767 C21.5231446,235.685767 24.7299036,236.941954 28.126715,238.273543 C31.9971494,239.789111 36.3653403,241.500722 42.6461232,241.645493 L42.6461232,240.20231 C38.9400993,239.924833 31.508443,238.854134 28.0784477,234.756822 C26.6093117,233.004494 26.0135122,230.891747 26.3046243,228.477395 C26.9879084,222.796654 31.2957652,220.780421 34.775536,220.780421 C38.7922807,220.780421 43.1800802,223.423994 43.7909632,228.477395 C43.8211303,228.726219 43.7245957,228.973536 43.5345432,229.136403 C43.3957747,229.258553 43.2208057,229.32189 43.0413117,229.32189 C42.9749442,229.32189 42.9085766,229.312842 42.8437174,229.294746 C42.8331589,229.29173 41.9115551,229.044413 40.8421327,229.044413 C38.0320706,229.044413 37.7077747,230.611254 37.7077747,231.790532 C37.7077747,234.378307 40.5042616,235.347969 42.6461232,235.709896 L42.6461232,232.393743 C42.6461232,231.976019 42.9839943,231.520595 43.4002998,231.520595 L48.1772544,231.520595 C48.5935599,231.520595 48.931431,231.856885 48.931431,232.274609 L48.931431,240.746708 C52.3297508,239.439248 53.4157652,237.189271 53.4640325,237.086725 C53.5485002,236.902746 53.7083857,236.757975 53.8999465,236.691622 C53.982906,236.662969 54.0673737,236.649397 54.1518415,236.649397 C54.2664764,236.649397 54.3811112,236.676542 54.4882043,236.727814 C54.5515551,236.759483 55.9663905,237.483336 56.9619036,239.006444 L416.746381,239.006444 C417.743402,237.483336 419.158238,236.759483 419.221589,236.727814 C419.327173,236.675034 419.444825,236.647889 419.560968,236.647889 C419.645436,236.647889 419.729904,236.662969 419.812863,236.690114 C420.005932,236.759483 420.162801,236.904254 420.247269,237.091249 C420.294028,237.189271 421.380042,239.440756 424.778362,240.746708 L424.778362,232.393743 C424.778362,231.976019 425.114725,231.520595 425.532538,231.520595 L430.307985,231.520595 C430.72429,231.520595 431.062161,231.856885 431.062161,232.274609 L431.062161,235.709896 C433.205531,235.347969 436.002018,234.379815 436.002018,231.790532 C436.002018,230.611254 435.676214,229.044413 432.86766,229.044413 C431.798238,229.044413 430.876634,229.29173 430.866075,229.294746 C430.801216,229.312842 430.734849,229.32189 430.668481,229.32189 C430.488987,229.32189 430.314018,229.258553 430.17525,229.136403 C429.985197,228.973536 429.887154,228.726219 429.91883,228.477395 C430.528204,223.423994 434.914495,220.780421 438.932748,220.780421 C442.412519,220.780421 446.720376,222.796654 447.405168,228.477395 C447.696281,230.891747 447.100481,233.004494 445.631345,234.756822 C442.199842,238.854134 434.768185,239.924833 431.062161,240.20231 L431.062161,241.645493 C437.344453,241.500722 441.711135,239.789111 445.583078,238.272035 C448.979889,236.941954 452.186648,235.685767 456.085741,235.685767 C464.654696,235.685767 472.404615,243.216858 472.730419,243.538068 C472.873713,243.679822 472.955164,243.874358 472.955164,244.076434 C472.955164,244.278509 472.873713,244.471537 472.730419,244.613292 C472.404615,244.934501 464.654696,252.470116 456.085741,252.470116 C452.188157,252.470116 448.979889,251.215437 445.584586,249.886864 C441.712643,248.371297 437.344453,246.662701 431.062161,246.517931 L431.062161,247.955081 C434.766677,248.232558 442.196825,249.300242 445.631345,253.402077 C447.100481,255.154405 447.696281,257.267152 447.405168,259.679997 C446.720376,265.360737 442.412519,267.375462 438.93124,267.375462 C434.914495,267.375462 430.528204,264.733398 429.91883,259.679997 C429.887154,259.431172 429.985197,259.183855 430.173741,259.020988 C430.314018,258.900346 430.488987,258.837009 430.668481,258.837009 C430.73334,258.837009 430.801216,258.846057 430.866075,258.862646 C430.875126,258.865662 431.795221,259.11147 432.863135,259.11147 C435.676214,259.11147 436.002018,257.549153 436.002018,256.372892 C436.002018,253.779084 433.205531,252.809422 431.062161,252.447496 L431.062161,255.771189 C431.062161,256.187404 430.72429,256.650369 430.307985,256.650369 L425.532538,256.650369 C425.114725,256.650369 424.778362,256.312571 424.778362,255.896355 L424.778362,247.416715 C421.380042,248.724175 420.294028,250.974152 420.24576,251.076698 C420.159784,251.260678 420.001407,251.405448 419.808338,251.47331 C419.726887,251.501962 419.640911,251.514026 419.557951,251.514026 C419.441808,251.514026 419.325665,251.48839 419.22008,251.435609 C419.155221,251.402432 417.740386,250.675563 416.746381,249.149439 L350.979164,249.149439 C353.932519,251.286314 356.048739,254.284273 357.047269,257.80401 C358.259985,262.079269 357.750161,266.567159 355.611316,270.439774 C353.470963,274.315406 349.9565,277.111289 345.716519,278.314695 C343.081426,279.061169 340.293989,279.439684 337.431135,279.439684 C325.163698,279.439684 312.704701,272.668639 300.657484,266.119275 C289.468519,260.037399 278.900997,254.293322 269.291278,254.293322 C267.288185,254.293322 265.36051,254.551194 263.561044,255.062416 C252.657159,258.153873 246.325092,269.622423 249.445875,280.626502 C251.972367,289.53593 260.143116,295.75956 269.312395,295.758052 C271.188787,295.758052 273.062161,295.497163 274.881235,294.981418 C279.210209,293.753883 282.9283,291.2023 285.632777,287.602638 C288.192453,284.232196 288.994896,279.953921 287.836481,275.86415 C287.311574,274.012292 286.403546,272.321793 285.142562,270.84091 C284.115374,269.691793 283.045951,269.150411 281.786476,269.150411 C280.629569,269.150411 279.368586,269.590755 278.035202,270.055227 C276.452939,270.607166 274.659507,271.232997 272.686581,271.232997 C269.868978,271.232997 267.205226,269.939109 264.544491,267.280456 C264.288071,267.0256 264.250362,266.621448 264.455498,266.322859 C265.844691,264.293053 267.763316,262.855903 270.163106,262.049108 C271.837379,261.485106 273.591593,261.198581 275.375975,261.198581 C283.463765,261.198581 290.987431,267.021076 293.260519,275.042275 C293.948328,277.468692 294.144414,279.941857 293.848777,282.412007 C295.381264,281.627832 296.965035,281.219157 298.505063,281.219157 C300.88977,281.219157 303.138725,282.206915 305.012099,284.076869 C305.276061,284.340774 305.307737,284.755482 305.087517,285.057087 C303.168892,287.668991 301.161274,288.887478 298.770534,288.887478 C297.853455,288.887478 297.007269,288.718579 296.186725,288.55722 C295.47629,288.416973 294.805073,288.284267 294.179106,288.284267 C293.334429,288.284267 292.323832,288.490866 291.225751,290.01699 C291.219717,290.023023 291.215192,290.029055 291.210667,290.035087 C290.854696,290.62171 290.506266,291.134439 290.151803,291.598912 C286.460863,296.513574 281.380729,300.000134 275.466476,301.677061 C272.98071,302.38131 270.422543,302.738712 267.859851,302.738712 L267.859851,302.738712 Z" id="Fill-2" fill="#B49759"></path>
                    <g id="Group-6">
                        <mask id="mask-2" fill="white">
                            <use xlink:href="#path-1"></use>
                        </mask>
                        <g id="Clip-5"></g>
                        <path d="M155.283607,249.904207 L194.678776,249.904207 C188.766032,252.396977 182.976972,255.569867 177.319139,258.67188 C166.541955,264.580333 156.362079,270.161543 146.986156,270.161543 C144.960437,270.161543 143.081029,269.906687 141.23933,269.384909 C138.780714,268.6882 136.742929,267.065562 135.501554,264.817093 C134.257163,262.562592 133.961526,259.950688 134.667435,257.460934 C135.356752,255.029993 136.789688,253.485773 139.598242,252.160216 C140.023597,252.071243 140.421802,252.026002 140.78079,252.026002 C142.53048,252.026002 143.441526,253.060509 145.03133,255.043565 C147.158108,257.697694 150.070738,261.332041 157.306308,261.332041 C157.769373,261.332041 158.252046,261.316961 158.754327,261.2868 C159.583922,261.235527 160.215922,260.525246 160.169163,259.695831 C160.152571,259.418354 159.790566,254.125176 155.283607,249.904207 M232.26543,249.904207 L252.163626,249.904207 C247.980962,252.583972 244.549459,256.323881 242.214528,260.786135 C239.879597,256.323881 236.448094,252.583972 232.26543,249.904207 M289.75028,249.904207 L298.278509,249.904207 L300.388695,249.904207 L329.145449,249.904207 C324.63849,254.125176 324.276485,259.418354 324.259893,259.695831 C324.213134,260.525246 324.845134,261.235527 325.674728,261.2868 C326.17701,261.316961 326.659683,261.332041 327.122747,261.332041 C334.359826,261.332041 337.272456,257.696186 339.399234,255.042057 C340.989039,253.060509 341.898576,252.026002 343.648265,252.026002 C344.007253,252.026002 344.405459,252.071243 344.830814,252.160216 C347.639368,253.485773 349.072304,255.029993 349.761621,257.460934 C350.46753,259.950688 350.171893,262.562592 348.927502,264.817093 C347.686127,267.065562 345.648342,268.6882 343.189726,269.384909 C341.373669,269.900655 339.43996,270.161543 337.4429,270.161543 C328.066977,270.161543 317.887101,264.580333 307.109917,258.67188 C301.452084,255.569867 295.663024,252.396977 289.75028,249.904207 M438.933955,220.027161 L438.933955,220.027161 C434.583864,220.027161 429.832552,222.898446 429.168876,228.386159 C429.108542,228.885316 429.301611,229.381457 429.681716,229.708699 C429.959253,229.948476 430.309191,230.07515 430.666671,230.07515 C430.800915,230.07515 430.935158,230.057054 431.066385,230.020861 C431.07091,230.019353 431.906537,229.797673 432.867358,229.797673 C435.065029,229.797673 435.249048,230.826148 435.249048,231.789778 C435.249048,233.533058 433.499358,234.379061 431.816036,234.787737 L431.816036,232.392989 L431.816036,232.273855 C431.816036,231.439915 431.141802,230.765827 430.307683,230.765827 L425.530728,230.765827 C424.698117,230.765827 424.022375,231.439915 424.022375,232.273855 L424.022375,232.392989 L424.022375,239.583265 C421.741745,238.400971 420.966452,236.844687 420.927234,236.763253 C420.750757,236.399818 420.432495,236.113293 420.049373,235.982095 C419.886471,235.927806 419.716027,235.899153 419.547091,235.899153 C419.317821,235.899153 419.09006,235.950426 418.883416,236.05448 C418.71448,236.13893 417.40523,236.82659 416.352399,238.253185 L300.388695,238.253185 L298.278509,238.253185 L57.3552821,238.253185 C56.3039599,236.82659 54.9947093,236.13893 54.8257737,236.05448 C54.6130959,235.94741 54.3823179,235.893121 54.1485232,235.893121 C53.9795876,235.893121 53.8091437,235.921774 53.6462415,235.980587 C53.2585947,236.116309 52.9448573,236.405851 52.7744134,236.779841 C52.7412296,236.847703 51.9674444,238.402479 49.685306,239.583265 L49.685306,232.392989 L49.685306,232.273855 C49.685306,231.439915 49.0110721,230.765827 48.1769527,230.765827 L43.3999981,230.765827 C42.5673871,230.765827 41.8916449,231.439915 41.8916449,232.273855 L41.8916449,232.392989 L41.8916449,234.787737 C40.209831,234.379061 38.4601413,233.533058 38.4601413,231.789778 C38.4601413,230.826148 38.6441604,229.797673 40.841831,229.797673 C41.802652,229.797673 42.6382797,230.019353 42.6458215,230.022369 C42.7755399,230.057054 42.9082749,230.073642 43.0395017,230.073642 C43.3984897,230.073642 43.7514444,229.94546 44.0289814,229.705683 C44.407578,229.376933 44.6006473,228.883808 44.5403131,228.386159 C43.8751294,222.898446 39.1253251,220.027161 34.7752344,220.027161 C30.6875971,220.027161 26.2515303,222.611921 25.5546711,228.386159 C25.2379169,231.016159 25.8925422,233.323442 27.4989384,235.241653 C30.6619551,239.019263 36.7647523,240.359899 41.1721604,240.828896 C35.8401317,240.485066 32.0647236,239.007198 28.4009337,237.571556 C24.9362463,236.214331 21.6646282,234.932507 17.6237499,234.932507 C8.74859952,234.932507 0.784494511,242.671706 0.449640095,243.000456 C0.16154463,243.283965 0.000150835322,243.671528 0.000150835322,244.07568 C0.000150835322,244.479831 0.16154463,244.865886 0.449640095,245.149395 C0.784494511,245.479653 8.74859952,253.224884 17.6237499,253.224884 C21.6646282,253.224884 24.9362463,251.944568 28.3994253,250.588851 C32.0315399,249.168289 35.7722558,247.703994 41.0288668,247.345084 C36.6350339,247.826145 30.6302797,249.178845 27.4989384,252.917246 C25.8925422,254.836966 25.2379169,257.14274 25.5546711,259.771232 C26.2515303,265.54547 30.6875971,268.13023 34.7752344,268.13023 C39.1253251,268.13023 43.8751294,265.258945 44.5403131,259.77274 C44.6006473,259.273583 44.4090864,258.777442 44.027473,258.448692 C43.749936,258.210424 43.3999981,258.083749 43.0425184,258.083749 C42.9097833,258.083749 42.7755399,258.100338 42.6428048,258.13653 C42.6397881,258.138038 41.8041604,258.35821 40.8448477,258.35821 C38.6456687,258.35821 38.4601413,257.334259 38.4601413,256.373646 C38.4601413,254.618301 40.2897737,253.776822 41.8916449,253.375687 L41.8916449,255.770435 L41.8916449,255.895601 C41.8916449,256.728032 42.5673871,257.403629 43.3999981,257.403629 L48.1769527,257.403629 C49.0110721,257.403629 49.685306,256.728032 49.685306,255.895601 L49.685306,255.770435 L49.685306,248.580158 C51.9674444,249.762452 52.7427379,251.318737 52.7819551,251.40017 C52.9584325,251.765113 53.276695,252.051638 53.6613251,252.181329 C53.8227189,252.237126 53.9931628,252.26427 54.1620983,252.26427 C54.391368,252.26427 54.6206377,252.212997 54.8287905,252.107435 C54.9962177,252.022986 56.3054683,251.332309 57.3582988,249.904207 L131.347549,249.904207 C129.119712,251.983777 127.502757,254.610761 126.655063,257.598164 C124.03807,266.825786 129.355015,276.445495 138.507702,279.040811 C141.209163,279.805381 144.064475,280.194452 146.998222,280.194452 C159.45722,280.194452 172.000685,273.37515 184.130862,266.782053 C195.232342,260.746926 205.719922,255.046581 215.138079,255.046581 C217.07028,255.046581 218.930079,255.296914 220.663177,255.787023 C225.747836,257.228698 229.963683,260.584059 232.5309,265.233309 C235.101134,269.887082 235.715034,275.281297 234.256456,280.420656 C231.821974,289.007366 223.951387,295.004792 215.116962,295.004792 C213.311463,295.004792 211.507473,294.752952 209.753258,294.255302 C205.58417,293.074517 202.003339,290.616431 199.399922,287.150984 C196.980523,283.966029 196.22333,279.929039 197.318394,276.068488 C197.813134,274.3237 198.66837,272.729715 199.861478,271.328757 C200.988218,270.069554 201.941497,269.903671 202.642881,269.903671 C203.671578,269.903671 204.873736,270.322902 206.145277,270.76777 C207.784857,271.339313 209.64164,271.986257 211.742776,271.986257 C214.770041,271.986257 217.608762,270.621492 220.417316,267.815052 C220.931664,267.302323 221.007082,266.495528 220.595301,265.896841 C219.111082,263.728297 217.062738,262.193125 214.507588,261.333549 C212.754881,260.74391 210.919215,260.443813 209.054891,260.443813 C200.635263,260.443813 192.808418,266.497036 190.44332,274.836429 C189.856571,276.902427 189.616743,279.060415 189.725344,281.203322 C188.464361,280.716229 187.182261,280.464389 185.924294,280.464389 C183.33596,280.464389 180.901478,281.529056 178.883301,283.543781 C178.355378,284.070083 178.292027,284.902514 178.733974,285.502709 C180.806452,288.325737 183.007139,289.640738 185.657316,289.640738 C186.648304,289.640738 187.572924,289.458266 188.388943,289.296907 C189.061669,289.164201 189.698194,289.037526 190.250251,289.037526 C190.888284,289.037526 191.648495,289.147612 192.591215,290.456581 C192.956237,291.052252 193.3107,291.575537 193.675721,292.05509 C197.464705,297.099443 202.682098,300.679501 208.757745,302.401668 C211.309879,303.125522 213.93743,303.491972 216.569506,303.491972 C227.349707,303.491972 237.265621,297.321123 242.214528,287.83412 C247.163435,297.321123 257.079349,303.491972 267.859549,303.491972 C270.490117,303.491972 273.119177,303.125522 275.671311,302.401668 C281.746958,300.679501 286.964351,297.099443 290.759368,292.049058 C291.118356,291.574029 291.474327,291.050743 291.837841,290.455073 C292.780561,289.147612 293.540771,289.037526 294.178805,289.037526 C294.730862,289.037526 295.367387,289.164201 296.040113,289.296907 C296.856132,289.458266 297.780752,289.640738 298.770232,289.640738 C301.421917,289.640738 303.622604,288.325737 305.695082,285.502709 C306.137029,284.902514 306.073678,284.070083 305.545755,283.543781 C303.529086,281.529056 301.093096,280.464389 298.504762,280.464389 C297.246795,280.464389 295.964695,280.716229 294.703712,281.203322 C294.812313,279.060415 294.572485,276.902427 293.985736,274.836429 C291.620638,266.497036 283.793793,260.445321 275.374165,260.443813 C273.509841,260.443813 271.675683,260.74391 269.921468,261.333549 C267.366318,262.193125 265.317974,263.728297 263.832246,265.896841 C263.421974,266.495528 263.497392,267.302323 264.01174,267.815052 C266.820294,270.621492 269.659015,271.986257 272.68628,271.986257 C274.787416,271.986257 276.644199,271.339313 278.283779,270.76777 C279.55532,270.322902 280.757478,269.903671 281.786175,269.903671 C282.487559,269.903671 283.440838,270.069554 284.590203,271.355901 C285.760685,272.729715 286.615922,274.3237 287.110662,276.068488 C288.205726,279.929039 287.448533,283.966029 285.033659,287.143444 C282.425716,290.616431 278.844886,293.074517 274.675798,294.255302 C272.921583,294.752952 271.117592,295.004792 269.312094,295.004792 C260.477669,295.004792 252.607082,289.007366 250.1726,280.420656 C247.164943,269.816205 253.263215,258.765378 263.765879,255.787023 C265.498977,255.296914 267.357268,255.046581 269.290977,255.046581 C278.709134,255.046581 289.195206,260.746926 300.298194,266.782053 C312.42837,273.37515 324.971836,280.194452 337.430833,280.194452 C340.36458,280.194452 343.219893,279.805381 345.921354,279.040811 C355.074041,276.445495 360.390986,266.825786 357.773993,257.598164 C356.926299,254.610761 355.309344,251.983777 353.081506,249.904207 L416.350891,249.904207 C417.402213,251.332309 418.711463,252.022986 418.880399,252.107435 C419.093077,252.216013 419.326872,252.270302 419.560666,252.270302 C419.729602,252.270302 419.898537,252.24165 420.06144,252.184345 C420.449086,252.047114 420.764332,251.759081 420.934776,251.38509 C420.96796,251.315721 421.741745,249.760944 424.022375,248.580158 L424.022375,255.770435 L424.022375,255.895601 C424.022375,256.728032 424.698117,257.403629 425.530728,257.403629 L430.307683,257.403629 C431.141802,257.403629 431.816036,256.728032 431.816036,255.895601 L431.816036,255.770435 L431.816036,253.375687 C433.419416,253.776822 435.249048,254.618301 435.249048,256.373646 C435.249048,257.334259 435.063521,258.35821 432.862833,258.35821 C431.905029,258.35821 431.069401,258.138038 431.06186,258.13653 C430.932141,258.101846 430.800915,258.083749 430.669688,258.083749 C430.3107,258.083749 429.957745,258.211932 429.680208,258.453216 C429.301611,258.780458 429.108542,259.275091 429.168876,259.77274 C429.832552,265.258945 434.583864,268.13023 438.932447,268.13023 C443.021592,268.13023 447.457659,265.54547 448.154518,259.771232 C448.471273,257.14274 447.816647,254.836966 446.210251,252.917246 C443.07891,249.178845 437.074156,247.826145 432.680323,247.345084 C437.936934,247.703994 441.67765,249.168289 445.309764,250.588851 C448.772943,251.944568 452.044561,253.224884 456.08544,253.224884 C464.96059,253.224884 472.924695,245.479653 473.259549,245.149395 C473.547645,244.865886 473.709039,244.479831 473.709039,244.07568 C473.709039,243.671528 473.546137,243.283965 473.258041,243.000456 C472.924695,242.671706 464.96059,234.932507 456.08544,234.932507 C452.044561,234.932507 448.772943,236.214331 445.308256,237.571556 C441.644466,239.007198 437.869058,240.485066 432.537029,240.828896 C436.942929,240.361407 443.047234,239.019263 446.210251,235.241653 C447.816647,233.323442 448.471273,231.016159 448.154518,228.386159 C447.457659,222.613429 443.021592,220.028669 438.933955,220.027161 M157.306308,259.824013 C146.028351,259.824013 146.82627,250.517974 140.78079,250.517974 C140.275492,250.517974 139.721926,250.582819 139.111043,250.723066 C136.248189,252.045606 134.148561,253.761742 133.216399,257.049242 C131.53006,262.992379 134.93743,269.166245 140.827549,270.835632 C142.850251,271.408682 144.901611,271.669571 146.986156,271.669571 C164.12859,271.669571 183.292218,254.060331 203.416666,248.396179 L150.419168,248.396179 C157.505411,251.837498 158.585392,258.424563 158.662318,259.781788 C158.191712,259.810441 157.740714,259.824013 157.306308,259.824013 M242.214528,264.450642 C245.009506,257.132184 250.875492,251.113645 258.700829,248.396179 L225.726719,248.396179 C233.553564,251.113645 239.419549,257.132184 242.214528,264.450642 M337.4429,271.669571 C339.525936,271.669571 341.578805,271.408682 343.599998,270.835632 C349.491626,269.166245 352.898996,262.992379 351.212657,257.049242 C350.280495,253.761742 348.179358,252.045606 345.318012,250.723066 C344.705621,250.582819 344.153564,250.517974 343.648265,250.517974 C337.602786,250.517974 338.402213,259.824013 327.122747,259.824013 C326.68985,259.824013 326.235836,259.810441 325.766738,259.781788 C325.843664,258.424563 326.923645,251.837498 334.009888,248.396179 L300.388695,248.396179 L298.278509,248.396179 L281.012389,248.396179 C301.138347,254.060331 320.300466,271.669571 337.4429,271.669571 M438.933955,221.535189 C442.540428,221.536697 446.077516,223.756514 446.656724,228.567122 C447.760838,237.735931 434.721125,239.245467 430.307683,239.497307 L430.307683,242.409309 C442.751597,242.374624 447.754805,236.440535 456.08544,236.440535 C464.444733,236.440535 472.200685,244.07568 472.200685,244.07568 C472.200685,244.07568 464.444733,251.716856 456.08544,251.716856 C447.754805,251.716856 442.751597,245.788799 430.307683,245.752606 L430.307683,248.660084 C434.721125,248.910417 447.760838,250.427492 446.656724,259.591777 C446.076008,264.400877 442.540428,266.622202 438.932447,266.622202 C435.114805,266.622202 431.215712,264.132448 430.666671,259.591777 C430.666671,259.591777 431.671234,259.866238 432.862833,259.866238 C434.607998,259.866238 436.757401,259.276599 436.757401,256.373646 C436.757401,252.816208 432.577755,251.83599 430.307683,251.579626 L430.307683,255.770435 L430.307683,255.895601 L425.530728,255.895601 L425.530728,255.770435 L425.530728,246.367882 C420.945335,247.705502 419.560666,250.762275 419.560666,250.762275 C419.560666,250.762275 418.059855,250.003737 417.171435,248.396179 L348.290977,248.396179 C352.021134,250.27669 355.072533,253.604907 356.322958,258.009856 C358.716714,266.451795 353.8749,275.21796 345.509573,277.58858 C342.836771,278.347118 340.142853,278.686424 337.430833,278.686424 C314.090576,278.686424 289.600953,253.538554 269.290977,253.538554 C267.271292,253.538554 265.287807,253.788886 263.354098,254.3363 C252.032399,257.546891 245.481621,269.409037 248.721564,280.832348 C251.409449,290.314826 259.996504,296.51282 269.312094,296.51282 C271.221669,296.51282 273.161411,296.251931 275.087578,295.706025 C279.713697,294.395549 283.544915,291.637366 286.235817,288.0558 C288.816609,284.656706 289.822681,280.106986 288.561697,275.658304 C287.988523,273.634531 286.99301,271.850534 285.715435,270.351555 C284.407693,268.888768 283.115034,268.395643 281.786175,268.395643 C279.053039,268.395643 276.166051,270.478229 272.68628,270.478229 C270.437325,270.478229 267.941,269.609605 265.078146,266.748877 C265.936399,265.492689 267.497545,263.740361 270.402633,262.763159 C272.039196,262.211221 273.713468,261.95184 275.374165,261.95184 C282.970232,261.95184 290.303845,267.379232 292.5347,275.248121 C293.362786,278.166155 293.420103,281.115857 292.843912,283.887612 C294.60416,282.682698 296.554461,281.972417 298.504762,281.972417 C300.568189,281.972417 302.634633,282.767147 304.479349,284.609957 C302.396313,287.446557 300.515397,288.13271 298.770232,288.13271 C297.136685,288.13271 295.622299,287.529499 294.178805,287.529499 C292.951005,287.529499 291.772981,287.965319 290.613058,289.575892 C290.611549,289.575892 290.610041,289.574384 290.608533,289.574384 C290.28122,290.114258 289.934299,290.64056 289.552685,291.142733 C286.103082,295.734678 281.191884,299.269495 275.25953,300.950946 C272.791864,301.65067 270.307607,301.983945 267.859549,301.983945 C256.679635,301.983945 246.318757,295.01384 242.214528,284.150009 C238.110299,295.01384 227.749421,301.983945 216.567998,301.983945 C214.122958,301.983945 211.635683,301.65067 209.168017,300.950946 C203.237172,299.269495 198.325974,295.734678 194.87637,291.142733 C194.494757,290.64056 194.146327,290.114258 193.820523,289.574384 C193.819015,289.574384 193.817506,289.575892 193.815998,289.575892 C192.656074,287.965319 191.478051,287.529499 190.250251,287.529499 C188.805249,287.529499 187.29237,288.13271 185.657316,288.13271 C183.913659,288.13271 182.031234,287.446557 179.949707,284.609957 C181.795931,282.767147 183.860867,281.972417 185.924294,281.972417 C187.874595,281.972417 189.824895,282.682698 191.585144,283.887612 C191.008953,281.115857 191.06627,278.166155 191.894356,275.248121 C194.125211,267.379232 201.457316,261.95184 209.053382,261.95184 C210.715588,261.95184 212.38986,262.212729 214.026423,262.763159 C216.931511,263.740361 218.492657,265.492689 219.35091,266.748877 C216.488055,269.609605 213.991731,270.478229 211.742776,270.478229 C208.263005,270.478229 205.376017,268.395643 202.642881,268.395643 C201.314022,268.395643 200.019855,268.888768 198.713621,270.351555 C197.436046,271.850534 196.440533,273.634531 195.867358,275.658304 C194.604867,280.106986 195.610938,284.656706 198.193239,288.0558 C200.884141,291.637366 204.715358,294.395549 209.341478,295.706025 C211.267645,296.251931 213.207387,296.51282 215.116962,296.51282 C224.431043,296.51282 233.019607,290.313318 235.707492,280.832348 C238.947435,269.409037 232.396657,257.546891 221.074958,254.3363 C219.13974,253.788886 217.159273,253.538554 215.138079,253.538554 C194.828103,253.538554 170.33848,278.686424 146.998222,278.686424 C144.287712,278.686424 141.590776,278.347118 138.919483,277.58858 C130.552647,275.21796 125.712342,266.451795 128.106098,258.009856 C129.356523,253.604907 132.407922,250.27669 136.138079,248.396179 L56.5377547,248.396179 C55.6493346,250.003737 54.1485232,250.762275 54.1485232,250.762275 C54.1485232,250.762275 52.7638549,247.705502 48.1769527,246.367882 L48.1769527,255.770435 L48.1769527,255.895601 L43.3999981,255.895601 L43.3999981,255.770435 L43.3999981,251.579626 C41.1314348,251.83599 36.9517881,252.816208 36.9517881,256.373646 C36.9517881,259.278107 39.1011914,259.866238 40.8448477,259.866238 C42.0379551,259.866238 43.0425184,259.591777 43.0425184,259.591777 C42.4934778,264.132448 38.5958931,266.622202 34.7752344,266.622202 C31.1687618,266.622202 27.6316735,264.400877 27.0524659,259.591777 C25.946843,250.427492 38.9880649,248.910417 43.3999981,248.660084 L43.3999981,245.752606 C30.9575924,245.788799 25.9528764,251.716856 17.6237499,251.716856 C9.26445632,251.716856 1.50850406,244.07568 1.50850406,244.07568 C1.50850406,244.07568 9.26445632,236.440535 17.6237499,236.440535 C25.9528764,236.440535 30.9575924,242.374624 43.3999981,242.409309 L43.3999981,239.497307 C38.9880649,239.245467 25.946843,237.735931 27.0524659,228.567122 C27.6316735,223.756514 31.1687618,221.535189 34.7752344,221.535189 C38.5943847,221.536697 42.4934778,224.026451 43.0425184,228.567122 C43.0425184,228.567122 42.0364468,228.289645 40.841831,228.289645 C39.0981747,228.289645 36.9517881,228.880792 36.9517881,231.789778 C36.9517881,235.353247 41.1314348,236.321401 43.3999981,236.577766 L43.3999981,232.392989 L43.3999981,232.273855 L48.1769527,232.273855 L48.1769527,232.392989 L48.1769527,241.795542 C52.7638549,240.457921 54.1485232,237.401149 54.1485232,237.401149 C54.1485232,237.401149 55.6478263,238.155163 56.5362463,239.761212 L298.278509,239.761212 L300.388695,239.761212 L417.172943,239.761212 C418.061363,238.155163 419.560666,237.401149 419.560666,237.401149 C419.560666,237.401149 420.945335,240.457921 425.530728,241.795542 L425.530728,232.392989 L425.530728,232.273855 L430.307683,232.273855 L430.307683,232.392989 L430.307683,236.577766 C432.577755,236.321401 436.757401,235.353247 436.757401,231.789778 C436.757401,228.880792 434.611015,228.289645 432.867358,228.289645 C431.672743,228.289645 430.666671,228.567122 430.666671,228.567122 C431.215712,224.024943 435.113296,221.535189 438.933955,221.535189" id="Fill-4" fill="#B49759" mask="url(#mask-2)"></path>
                    </g>
                    <path d="M198.650119,54.5918443 C191.492983,51.9814483 184.491208,48.1420097 177.682501,44.408133 C166.817833,38.4529315 156.556506,32.82648 146.986005,32.82648 C144.921069,32.82648 142.917976,33.097925 141.035551,33.6317668 C138.38085,34.3842727 136.181671,36.1350929 134.840745,38.5615095 C133.501327,40.9894341 133.181556,43.8049219 133.943274,46.4877032 C134.703484,49.1735006 136.27368,50.8624917 139.353737,52.2996421 C139.863561,52.4127442 140.343217,52.4700493 140.78064,52.4700493 C142.973785,52.4700493 144.139742,51.0132945 145.619437,49.1704846 C147.764315,46.4937353 150.432592,43.1640101 157.306158,43.1640101 C157.754138,43.1640101 158.221728,43.1790904 158.708926,43.2077429 C159.122215,43.2333794 159.438969,43.5892739 159.414835,44.0039816 C159.399752,44.2950309 158.978921,50.4568322 153.17327,54.5918443 L198.650119,54.5918443 Z M255.000687,54.5918443 C249.377547,51.7416719 244.872095,47.0532136 242.214377,41.2412748 C239.558167,47.0532136 235.052716,51.7416719 229.428067,54.5918443 L255.000687,54.5918443 Z M331.256993,54.5918443 C325.455866,50.4598483 325.029002,44.2950309 325.012411,44.0039816 C324.989785,43.5892739 325.305031,43.2333794 325.719828,43.2077429 C326.207026,43.1790904 326.673107,43.1640101 327.124105,43.1640101 C333.994654,43.1640101 336.664439,46.4937353 338.809317,49.1704846 C340.287504,51.0132945 341.454969,52.4700493 343.648115,52.4700493 C344.085537,52.4700493 344.563685,52.4127442 345.073508,52.2996421 C348.153566,50.8624917 349.72527,49.1750087 350.486988,46.4877032 C352.057184,40.9532415 348.876067,35.1850354 343.394711,33.6317668 C341.512286,33.097925 339.509193,32.82648 337.442749,32.82648 C327.873757,32.82648 317.610921,38.4529315 306.746253,44.409641 C299.93453,48.1435177 292.934263,51.9814483 285.778635,54.5918443 L331.256993,54.5918443 Z M438.933804,82.960862 C434.915551,82.960862 430.527752,80.3172894 429.918377,75.2653965 C429.88821,75.0165719 429.984745,74.7677473 430.174797,74.6048803 C430.313566,74.4842381 430.488535,74.4209009 430.668029,74.4209009 C430.734396,74.4209009 430.800764,74.4299491 430.865623,74.4480454 C430.876181,74.4495534 431.797785,74.698378 432.865699,74.698378 C435.67727,74.698378 436.001566,73.1300292 436.001566,71.9507515 C436.001566,69.3629759 433.205079,68.3933141 431.061709,68.0313874 L431.061709,71.3490484 C431.061709,71.7652641 430.723838,72.2221965 430.307532,72.2221965 L425.532086,72.2221965 C425.11578,72.2221965 424.777909,71.8843983 424.777909,71.4681826 L424.777909,62.9945748 C421.379589,64.3020348 420.293575,66.5520122 420.245308,66.6560661 C420.159332,66.8400455 420.000955,66.9833081 419.809394,67.0511694 C419.726434,67.0783139 419.641967,67.0933942 419.557499,67.0933942 C419.442864,67.0933942 419.326721,67.0662497 419.221136,67.0134687 C419.156277,66.9818001 417.74295,66.2579468 416.747437,64.7348388 L56.9614511,64.7348388 C55.9659379,66.2579468 54.552611,66.9818001 54.4877518,67.0134687 C54.3821671,67.0662497 54.2645155,67.0949022 54.1483723,67.0949022 C54.0639045,67.0949022 53.9794368,67.0798219 53.8964773,67.0511694 C53.7034081,66.9833081 53.5465394,66.8385375 53.4620716,66.651542 C53.4153126,66.5520122 52.3292983,64.3020348 48.9309785,62.9945748 L48.9309785,71.3490484 C48.9309785,71.7652641 48.5946158,72.2221965 48.1768019,72.2221965 L43.3998473,72.2221965 C42.9835418,72.2221965 42.6456706,71.8843983 42.6456706,71.4681826 L42.6456706,68.0313874 C40.5038091,68.3948221 37.7073222,69.3629759 37.7073222,71.9507515 C37.7073222,73.0048629 38.0210597,73.7302242 38.6681432,74.1690603 C39.184,74.5204308 39.9170597,74.698378 40.8416802,74.698378 C41.9111026,74.698378 42.8327064,74.4495534 42.8432649,74.4480454 C42.9081241,74.4299491 42.9744916,74.4209009 43.0408592,74.4209009 C43.2203532,74.4209009 43.3953222,74.4842381 43.5340907,74.6048803 C43.7241432,74.7677473 43.8221862,75.0165719 43.7905107,75.2653965 C43.181136,80.3172894 38.7933365,82.960862 34.7750835,82.960862 C31.2953126,82.960862 26.9874558,80.9446289 26.3041718,75.2638884 C26.0130597,72.849536 26.6088592,70.7367892 28.0779952,68.9829529 C31.5094988,64.8856416 38.9396468,63.8164499 42.6456706,63.5389728 L42.6456706,62.0957903 C36.3648878,62.2405609 31.9966969,63.9521724 28.1247542,65.4677403 C24.7294511,66.7993288 21.5226921,68.0555159 17.623599,68.0555159 C9.05464439,68.0555159 1.30472554,60.5244254 0.978921241,60.2032155 C0.835627685,60.0614609 0.754176611,59.8684333 0.754176611,59.6663576 C0.754176611,59.4642819 0.835627685,59.2712543 0.978921241,59.1294997 C1.30472554,58.8082898 9.05464439,51.2711672 17.623599,51.2711672 C21.5226921,51.2711672 24.7294511,52.5258463 28.1247542,53.8544187 C31.9966969,55.3699866 36.3648878,57.078582 42.6456706,57.2248607 L42.6456706,55.7862022 C38.9426635,55.5102332 31.5140239,54.4425495 28.0779952,50.3407141 C26.6088592,48.5868778 26.0130597,46.474131 26.3041718,44.0597786 C26.9874558,38.3805462 31.2953126,36.3658211 34.7750835,36.3658211 C38.7948449,36.3658211 43.181136,39.0093937 43.7905107,44.0597786 C43.8221862,44.3086032 43.7241432,44.5574277 43.535599,44.7202947 C43.3953222,44.840937 43.2203532,44.9042741 43.0408592,44.9042741 C42.976,44.9042741 42.9081241,44.895226 42.8432649,44.8786376 C42.8342148,44.8756216 41.9141193,44.6298131 40.8446969,44.6298131 C38.0331265,44.6298131 37.7073222,46.1921298 37.7073222,47.3683914 C37.7073222,49.9621991 40.5038091,50.931861 42.6456706,51.2952956 L42.6456706,47.9716025 C42.6456706,47.5538788 42.9835418,47.0924224 43.3998473,47.0924224 L48.1768019,47.0924224 C48.5946158,47.0924224 48.9309785,47.4287125 48.9309785,47.8464362 L48.9309785,56.3245681 C52.3292983,55.0171081 53.4153126,52.7686387 53.46358,52.6645848 C53.5510644,52.4806054 53.7079332,52.3358348 53.9010024,52.2694816 C53.9824535,52.240829 54.0684296,52.2272568 54.151389,52.2272568 C54.2675322,52.2272568 54.3821671,52.2544013 54.4892601,52.3071823 C54.5541193,52.3388508 55.9689547,53.0672282 56.9629594,54.5918443 L133.448535,54.5918443 C130.495179,52.454969 128.378959,49.4570098 127.38043,45.9372731 C124.878072,37.1092788 129.961222,27.9088016 138.714196,25.428096 C141.349289,24.6816222 144.135217,24.3031073 146.99958,24.3031073 C159.267017,24.3031073 171.721489,31.0741518 183.768706,37.6220082 C194.956162,43.703884 205.525193,49.4479617 215.133403,49.4479617 L215.137928,49.4479617 C217.141021,49.4479617 219.068697,49.1885809 220.866654,48.6803756 C226.148907,47.182904 230.526148,43.69936 233.191408,38.8736712 C235.859685,34.0434584 236.494702,28.4471675 234.981823,23.1147814 C232.455332,14.2053536 224.287599,7.98323115 215.116811,7.98323115 C213.241928,7.98323115 211.370062,8.24411995 209.54948,8.75986544 C205.217489,9.98740001 201.500907,12.5389829 198.79643,16.1386451 C196.233737,19.5105951 195.432802,23.7888698 196.594234,27.878641 C197.116124,29.727483 198.024153,31.4179821 199.288153,32.9018814 C200.315341,34.0494905 201.383255,34.5908725 202.64273,34.5908725 C203.799637,34.5908725 205.059112,34.1520364 206.394005,33.6860558 C207.977776,33.1341177 209.769699,32.5082862 211.744134,32.5082862 C214.561737,32.5082862 217.223981,33.8006659 219.884716,36.4608268 C220.141136,36.7156835 220.178845,37.119835 219.973709,37.4199325 C218.581499,39.4497378 216.661365,40.8883963 214.2661,41.6936831 C212.59032,42.2576854 210.837613,42.5427027 209.053232,42.5427027 C200.963933,42.5427027 193.443284,36.7202076 191.167179,28.6990081 C190.47937,26.2740995 190.283284,23.8024421 190.578921,21.3292766 C189.049451,22.113451 187.464172,22.5236345 185.922635,22.5236345 C183.537928,22.5236345 181.288974,21.5343684 179.415599,19.664414 C179.151637,19.4020171 179.12147,18.9858015 179.340181,18.6841959 C181.260315,16.0722919 183.267933,14.8553135 185.658673,14.8553135 C186.574243,14.8553135 187.421938,15.0227046 188.242482,15.1840636 C188.952916,15.3243102 189.624134,15.4570166 190.2501,15.4570166 C191.09327,15.4570166 192.103866,15.2519248 193.204964,13.7258008 L193.217031,13.7061964 C193.576019,13.1210816 193.921432,12.6083522 194.275895,12.1438797 C197.968344,7.22921729 203.046969,3.74265717 208.96273,2.06573033 C211.448496,1.36148138 214.008172,1.00407881 216.569356,1.00407881 C227.580334,1.00407881 237.663675,7.61376436 242.214377,17.6285765 C246.765079,7.61376436 256.851437,1.00407881 267.860907,1.00407881 C270.422091,1.00407881 272.980258,1.36148138 275.467532,2.06573033 C281.381785,3.74265717 286.460411,7.22770926 290.154368,12.1468957 C290.508831,12.6098602 290.855752,13.1225897 291.210215,13.7077044 C291.21474,13.7137365 291.219265,13.7182606 291.225298,13.7258008 C292.324888,15.2519248 293.333976,15.4570166 294.177146,15.4570166 C294.804621,15.4570166 295.474329,15.3243102 296.186272,15.1840636 C297.005308,15.0227046 297.854511,14.8553135 298.770081,14.8553135 C301.160821,14.8553135 303.168439,16.0722919 305.087064,18.6841959 C305.307284,18.9858015 305.275609,19.4020171 305.013155,19.664414 C303.138272,21.5343684 300.889317,22.5236345 298.504611,22.5236345 C296.966091,22.5236345 295.379303,22.113451 293.848325,21.3292766 C294.14547,23.800934 293.949384,26.2725915 293.261575,28.6990081 C290.98547,36.7202076 283.463313,42.5427027 275.374014,42.5427027 C273.592649,42.5427027 271.836926,42.2576854 270.162654,41.6936831 C267.764372,40.8868882 265.844239,39.4482298 264.455045,37.4184245 C264.249909,37.119835 264.289126,36.7156835 264.545547,36.4608268 C267.204773,33.8006659 269.868525,32.5082862 272.686129,32.5082862 C274.660563,32.5082862 276.452487,33.1341177 278.034749,33.6860558 C279.369642,34.1520364 280.630625,34.5908725 281.786024,34.5908725 C283.045499,34.5908725 284.114921,34.0494905 285.154177,32.8883091 C286.404601,31.4194901 287.311122,29.7289911 287.836029,27.877133 C288.994444,23.7873618 288.193508,19.5105951 285.633833,16.1416612 C282.927847,12.5389829 279.209757,9.98740001 274.880783,8.75986544 C273.0602,8.24411995 271.186826,7.98323115 269.313451,7.98323115 C260.142663,7.98323115 251.973422,14.2053536 249.446931,23.1147814 C246.32464,34.1203678 252.658215,45.5889187 263.560592,48.6803756 C265.361566,49.1900889 267.289241,49.4479617 269.290826,49.4479617 C278.900544,49.4479617 289.469575,43.703884 300.657031,37.6220082 C312.704248,31.0741518 325.163246,24.3031073 337.430683,24.3031073 C340.293537,24.3031073 343.080974,24.6816222 345.716067,25.428096 C349.957556,26.6299941 353.472019,29.4273855 355.612372,33.3015087 C357.749709,37.174124 358.259532,41.6620145 357.048325,45.9372731 C356.049795,49.4570098 353.932067,52.454969 350.978711,54.5918443 L416.745928,54.5918443 C417.739933,53.0672282 419.154768,52.3388508 419.219628,52.3071823 C419.328229,52.2528933 419.444372,52.2257488 419.560516,52.2257488 C419.644983,52.2257488 419.729451,52.239321 419.810902,52.2679735 C420.00548,52.3373428 420.162348,52.4821135 420.246816,52.6691089 C420.293575,52.7686387 421.379589,55.0171081 424.777909,56.3245681 L424.777909,47.9716025 C424.777909,47.5538788 425.11578,47.0924224 425.532086,47.0924224 L430.307532,47.0924224 C430.723838,47.0924224 431.061709,47.4287125 431.061709,47.8464362 L431.061709,51.2952956 C433.205079,50.933369 436.001566,49.9621991 436.001566,47.3683914 C436.001566,46.1921298 435.67727,44.6298131 432.862683,44.6298131 C431.794768,44.6298131 430.874673,44.8756216 430.865623,44.8786376 C430.800764,44.895226 430.732888,44.9042741 430.668029,44.9042741 C430.488535,44.9042741 430.313566,44.840937 430.173289,44.7202947 C429.984745,44.5574277 429.88821,44.3086032 429.918377,44.0597786 C430.527752,39.0093937 434.915551,36.3658211 438.932296,36.3658211 C442.412067,36.3658211 446.719924,38.3805462 447.404716,44.0597786 C447.695828,46.474131 447.100029,48.5868778 445.630893,50.3407141 C442.194864,54.4425495 434.766224,55.5102332 431.061709,55.7862022 L431.061709,57.2248607 C437.344,57.078582 441.713699,55.3699866 445.584134,53.8544187 C448.979437,52.5258463 452.186196,51.2711672 456.085289,51.2711672 C464.654243,51.2711672 472.404162,58.8082898 472.729967,59.1294997 C472.874768,59.2712543 472.954711,59.4642819 472.954711,59.6663576 C472.954711,59.8684333 472.874768,60.0614609 472.729967,60.2032155 C472.404162,60.5244254 464.654243,68.0555159 456.085289,68.0555159 C452.186196,68.0555159 448.979437,66.7993288 445.584134,65.4677403 C441.712191,63.9521724 437.344,62.2405609 431.061709,62.0957903 L431.061709,63.5389728 C434.767733,63.8164499 442.199389,64.8856416 445.630893,68.9829529 C447.100029,70.7367892 447.695828,72.849536 447.404716,75.2638884 C446.719924,80.9446289 442.412067,82.960862 438.933804,82.960862 L438.933804,82.960862 Z" id="Fill-7" fill="#B49759"></path>
                    <g id="Group-11">
                        <mask id="mask-4" fill="white">
                            <use xlink:href="#path-3"></use>
                        </mask>
                        <g id="Clip-10"></g>
                        <path d="M232.264827,53.837378 C236.44749,51.1576127 239.878994,47.4177039 242.213925,42.9554499 C244.548855,47.4177039 247.981867,51.1576127 252.164531,53.837378 L232.264827,53.837378 Z M139.597638,51.5813685 C136.789084,50.2558121 135.356149,48.7115917 134.666832,46.280651 C133.960922,43.7908972 134.256559,41.1789932 135.500951,38.9244918 C136.743834,36.6760224 138.781619,35.0533846 141.240235,34.3566758 C143.056292,33.8409303 144.988493,33.5800415 146.985552,33.5800415 C156.362984,33.5800415 166.541352,39.1612521 177.318536,45.0697048 C182.976368,48.1717178 188.765428,51.3446082 194.678173,53.837378 L155.283003,53.837378 C159.789963,49.6164084 160.153476,44.323231 160.168559,44.0457539 C160.215318,43.2163387 159.583318,42.5060576 158.753724,42.4547847 C158.252951,42.4246241 157.768769,42.4095438 157.305705,42.4095438 C150.068626,42.4095438 147.155996,46.0438907 145.029218,48.6980195 C143.440922,50.681076 142.529877,51.715583 140.780187,51.715583 C140.421199,51.715583 140.024502,51.6703421 139.597638,51.5813685 L139.597638,51.5813685 Z M289.749676,53.837378 C295.663929,51.3446082 301.452989,48.1717178 307.110822,45.0697048 C317.888006,39.1612521 328.066373,33.5815495 337.442297,33.5800415 C339.468015,33.5800415 341.347423,33.8348982 343.189123,34.3566758 C345.647738,35.0533846 347.685524,36.6760224 348.926898,38.9244918 C350.17129,41.1789932 350.468435,43.7908972 349.762526,46.280651 C349.073209,48.7115917 347.638765,50.2558121 344.830211,51.5813685 C344.404855,51.6703421 344.008158,51.715583 343.647662,51.715583 C341.897972,51.715583 340.986927,50.681076 339.398631,48.6980195 C337.271853,46.0438907 334.357715,42.4095438 327.123653,42.4095438 C326.65908,42.4095438 326.176407,42.4246241 325.674125,42.4547847 C324.844531,42.5060576 324.212531,43.2163387 324.260798,44.0457539 C324.275882,44.323231 324.637886,49.6164084 329.144846,53.837378 L300.388092,53.837378 L298.277905,53.837378 L289.749676,53.837378 Z M267.860454,0.249612534 L267.860454,1.75764027 L267.860454,0.249612534 C257.078746,0.249612534 247.162832,6.41895399 242.213925,15.9074645 C237.266526,6.42046201 227.349104,0.249612534 216.568903,0.249612534 C213.938335,0.249612534 211.310784,0.616063273 208.757142,1.33991658 C202.681495,3.06208425 197.464101,6.64214209 193.670593,11.692527 C193.310096,12.1675557 192.955633,12.6908413 192.590612,13.2865123 C191.647891,14.5939723 190.889189,14.7040583 190.251156,14.7040583 C189.69759,14.7040583 189.061065,14.577384 188.38834,14.4446776 C187.572321,14.2833186 186.6477,14.1008473 185.658221,14.1008473 C183.006536,14.1008473 180.805848,15.4158474 178.733371,18.2388754 C178.292932,18.8390704 178.356283,19.6715017 178.882698,20.1978034 C180.900874,22.2125284 183.335357,23.277196 185.925199,23.277196 C187.183166,23.277196 188.465266,23.0253554 189.724741,22.5382624 C189.616139,24.6811698 189.857476,26.8391575 190.442717,28.9051555 C192.807815,37.2445489 200.63466,43.2977722 209.054287,43.2977722 C210.92012,43.2977722 212.754278,42.9976747 214.506984,42.4080358 C217.062135,41.54846 219.110478,40.0132878 220.596206,37.8447439 C221.006478,37.2460569 220.931061,36.4392621 220.418221,35.9265326 C217.608158,33.120093 214.770946,31.7553279 211.742173,31.7553279 C209.642545,31.7553279 207.784254,32.4022718 206.144674,32.9738143 C204.873132,33.4186825 203.670975,33.8379142 202.642278,33.8379142 C201.940894,33.8379142 200.987614,33.6720312 199.838249,32.3856835 C198.669275,31.0118702 197.812531,29.4178849 197.317791,27.6715888 C196.224235,23.8125458 196.97992,19.7755556 199.394793,16.5981412 C202.004244,13.1251533 205.583567,10.6685761 209.754163,9.48628239 C211.50687,8.98863324 213.31086,8.73679261 215.116359,8.73679261 C223.950784,8.73679261 231.821371,14.7342189 234.257361,23.3209288 C235.714431,28.4602873 235.102039,33.8545025 232.531805,38.5082761 C229.96308,43.1575256 225.748741,46.5128873 220.662574,47.9545618 C218.929476,48.4446708 217.071185,48.6950034 215.137476,48.6950034 C205.719318,48.6950034 195.231738,42.9946586 184.130259,36.9595316 C172.000082,30.3664344 159.456617,23.548641 146.997619,23.547133 C144.06538,23.547133 141.210068,23.9362041 138.507099,24.7022822 C129.354411,27.2960899 124.037466,36.9157988 126.655968,46.1434205 C127.502154,49.1308234 129.119108,51.7578078 131.346946,53.837378 L57.3576955,53.837378 C56.3063733,52.4092757 54.9971227,51.718599 54.8281871,51.6341495 C54.6155093,51.5255715 54.3832229,51.4712825 54.1494282,51.4712825 C53.9789842,51.4712825 53.8100487,51.499935 53.6471465,51.5572401 C53.2594998,51.6944706 52.9442539,51.9825039 52.7753184,52.3564948 C52.7421346,52.425864 51.9668411,53.9806406 49.686211,55.1614263 L49.686211,47.9711501 L49.686211,47.8459838 C49.686211,47.0135525 49.0104687,46.3379561 48.1778578,46.3379561 L43.4009031,46.3379561 C42.5682921,46.3379561 41.8925499,47.0135525 41.8925499,47.8459838 L41.8925499,47.9711501 L41.8925499,50.3658982 C40.2891704,49.9647628 38.4610463,49.1232833 38.4610463,47.367939 C38.4610463,46.4073254 38.6450654,45.3833745 40.8457527,45.3833745 C41.8050654,45.3833745 42.6391847,45.6035466 42.6482348,45.6050546 C42.7764449,45.6397392 42.90918,45.6578356 43.0388983,45.6578356 C43.3978864,45.6578356 43.7508411,45.5296532 44.028378,45.2883688 C44.4069747,44.9611268 44.6000439,44.4664937 44.5397098,43.9688445 C43.8760344,38.4826396 39.1247217,35.6113548 34.7761394,35.6113548 C30.6885021,35.6113548 26.250927,38.1961144 25.5540678,43.9703525 C25.2373136,46.5988449 25.8919389,48.9046193 27.4998434,50.8243386 C30.6311847,54.5627393 36.6359389,55.9169482 41.0297718,56.3980091 C35.7731609,56.0375905 32.0324449,54.5748036 28.4003303,53.1527334 C24.935643,51.7970165 21.6640248,50.5167009 17.6246549,50.5167009 C8.74799618,50.5167009 0.783891169,58.2619314 0.449036754,58.5921894 C0.162449642,58.8756986 -0.000452505967,59.2617537 -0.000452505967,59.6659052 C-0.000452505967,60.0700566 0.162449642,60.4576197 0.450545107,60.741129 C0.785399523,61.069879 8.74950453,68.8090773 17.6246549,68.8090773 C21.6655332,68.8090773 24.9371513,67.5272537 28.4003303,66.1700288 C32.0656286,64.7343864 35.8410368,63.2565192 41.171557,62.9126889 C36.7656573,63.3801775 30.6628601,64.7223222 27.4998434,68.4999316 C25.8919389,70.4181429 25.2373136,72.7254253 25.5540678,75.3554257 C26.250927,81.1296639 30.6869938,83.7144234 34.7761394,83.7144234 C39.1247217,83.7144234 43.8760344,80.8431386 44.5397098,75.3554257 C44.6000439,74.8562685 44.4084831,74.3601274 44.0268697,74.0328854 C43.7493327,73.793109 43.3993947,73.6664346 43.041915,73.6664346 C42.90918,73.6664346 42.7734282,73.684531 42.6422014,73.7207236 C42.6376764,73.7222317 41.8020487,73.9439117 40.842736,73.9439117 C38.6450654,73.9439117 38.4610463,72.9154368 38.4610463,71.9518071 C38.4610463,70.2085271 40.2092277,69.3625235 41.8925499,68.953848 L41.8925499,71.348596 L41.8925499,71.4677302 C41.8925499,72.3016695 42.5682921,72.9757579 43.4009031,72.9757579 L48.1778578,72.9757579 C49.0104687,72.9757579 49.686211,72.3016695 49.686211,71.4677302 L49.686211,71.348596 L49.686211,64.1583198 C51.9668411,65.3406135 52.743643,66.8968982 52.7828601,66.9783317 C52.9578291,67.3417663 53.2760916,67.6282916 53.6592134,67.75949 C53.8221155,67.813779 53.9925594,67.8424315 54.161495,67.8424315 C54.3907647,67.8424315 54.618526,67.7911586 54.8266788,67.6871047 C54.994106,67.6026551 56.3033566,66.9149945 57.3561871,65.4884003 L298.277905,65.4884003 L300.388092,65.4884003 L416.353304,65.4884003 C417.406135,66.9149945 418.715385,67.6026551 418.882812,67.6871047 C419.09549,67.7941747 419.327777,67.8484637 419.560063,67.8484637 C419.730507,67.8484637 419.899442,67.8198111 420.062345,67.760998 C420.449991,67.6252756 420.765237,67.3357342 420.934173,66.9617433 C420.967357,66.8938821 421.741142,65.3391055 424.02328,64.1583198 L424.02328,71.348596 L424.02328,71.4677302 C424.02328,72.3016695 424.699022,72.9757579 425.531633,72.9757579 L430.308588,72.9757579 C431.141199,72.9757579 431.816941,72.3016695 431.816941,71.4677302 L431.816941,71.348596 L431.816941,68.953848 C433.500263,69.3625235 435.248445,70.2085271 435.248445,71.9518071 C435.248445,72.9154368 435.064426,73.9439117 432.866755,73.9439117 C431.907442,73.9439117 431.071815,73.7222317 431.062765,73.7192156 C430.933046,73.684531 430.80182,73.6679427 430.669084,73.6679427 C430.310096,73.6679427 429.95865,73.796125 429.681113,74.0359014 C429.302516,74.3646515 429.109447,74.8577766 429.168273,75.3554257 C429.833457,80.8431386 434.583261,83.7144234 438.933352,83.7144234 C443.020989,83.7144234 447.458564,81.1296639 448.153915,75.3554257 C448.470669,72.7254253 447.817552,70.4181429 446.209648,68.4999316 C443.046631,64.7223222 436.943834,63.3801775 432.536426,62.9126889 C437.868454,63.2565192 441.643863,64.7343864 445.309161,66.1700288 C448.77234,67.5272537 452.043958,68.8090773 456.084836,68.8090773 C464.959987,68.8090773 472.924092,61.069879 473.258946,60.741129 C473.547042,60.4576197 473.708435,60.0700566 473.708435,59.6659052 C473.708435,59.2617537 473.547042,58.8756986 473.258946,58.5921894 C472.924092,58.2619314 464.959987,50.5167009 456.084836,50.5167009 C452.043958,50.5167009 448.77234,51.7970165 445.309161,53.1527334 C441.677046,54.5748036 437.93633,56.0375905 432.679719,56.3980091 C437.072044,55.9169482 443.078306,54.5627393 446.209648,50.8243386 C447.817552,48.9046193 448.470669,46.5988449 448.153915,43.9703525 C447.458564,38.1961144 443.020989,35.6128629 438.933352,35.6113548 C434.583261,35.6113548 429.833457,38.4826396 429.168273,43.9688445 C429.107939,44.4680017 429.301008,44.9641428 429.681113,45.2928929 C429.95865,45.5311612 430.308588,45.6578356 430.666068,45.6578356 C430.800311,45.6578356 430.934555,45.6412473 431.065781,45.6050546 C431.070306,45.6035466 431.904426,45.3833745 432.863738,45.3833745 C435.064426,45.3833745 435.248445,46.4073254 435.248445,47.367939 C435.248445,49.1232833 433.420321,49.9647628 431.816941,50.3658982 L431.816941,47.9711501 L431.816941,47.8459838 C431.816941,47.0135525 431.141199,46.3379561 430.308588,46.3379561 L425.531633,46.3379561 C424.699022,46.3379561 424.02328,47.0135525 424.02328,47.8459838 L424.02328,47.9711501 L424.02328,55.1614263 C421.741142,53.9791326 420.965848,52.422848 420.926631,52.3414145 C420.750154,51.9764718 420.431891,51.6899465 420.048769,51.5602561 C419.885867,51.5044591 419.715423,51.4773146 419.546488,51.4773146 C419.317218,51.4773146 419.087948,51.5285875 418.879796,51.6341495 C418.712368,51.718599 417.403118,52.4092757 416.350287,53.837378 L353.082411,53.837378 C355.308741,51.7578078 356.925695,49.1308234 357.77339,46.1434205 C360.390383,36.9157988 355.073438,27.2960899 345.92075,24.7022822 C343.220798,23.9362041 340.363977,23.548641 337.431738,23.547133 C324.971232,23.547133 312.427767,30.3649263 300.29759,36.9595316 C289.196111,42.9946586 278.710039,48.6950034 269.291882,48.6950034 C267.358173,48.6950034 265.498373,48.4446708 263.766784,47.9545618 C258.680617,46.5128873 254.466278,43.1575256 251.897552,38.5082761 C249.327318,33.8545025 248.714927,28.4602873 250.171996,23.3209288 C252.606478,14.7342189 260.477065,8.73679261 269.312999,8.73679261 C271.116989,8.73679261 272.922488,8.98863324 274.675194,9.48628239 C278.844283,10.6670681 282.425113,13.1251533 285.028531,16.590601 C287.447929,19.7755556 288.205123,23.8125458 287.110058,27.6730968 C286.615318,29.4178849 285.760082,31.0118702 284.566975,32.412828 C283.440235,33.6720312 282.488464,33.8379142 281.78708,33.8379142 C280.756874,33.8379142 279.554717,33.4186825 278.283175,32.9738143 C276.643595,32.4022718 274.786812,31.7553279 272.685676,31.7553279 C269.658411,31.7553279 266.821199,33.118585 264.011137,35.9265326 C263.496789,36.4392621 263.422879,37.2460569 263.833151,37.8447439 C265.317371,40.0132878 267.365715,41.54846 269.922373,42.4080358 C271.67508,42.9976747 273.509237,43.2977722 275.37507,43.2977722 C283.794698,43.2977722 291.621543,37.2445489 293.986641,28.9051555 C294.571882,26.8391575 294.813218,24.6811698 294.703108,22.5382624 C295.964092,23.0253554 297.246192,23.277196 298.504158,23.277196 C301.094001,23.277196 303.528483,22.2125284 305.545151,20.1978034 C306.073075,19.6715017 306.136426,18.8390704 305.695987,18.2388754 C303.622001,15.4158474 301.422822,14.1008473 298.771137,14.1008473 C297.780149,14.1008473 296.855528,14.2833186 296.041018,14.4446776 C295.366784,14.577384 294.730259,14.7040583 294.178201,14.7040583 C293.540168,14.7040583 292.779958,14.5939723 291.838746,13.2865123 C291.473724,12.6908413 291.117753,12.1675557 290.75424,11.6864949 C286.963748,6.64214209 281.746354,3.06208425 275.672216,1.33991658 C273.120082,0.616063273 270.491022,0.249612534 267.860454,0.249612534 L267.860454,0.249612534 Z M225.727624,55.3454057 L258.701734,55.3454057 C250.874889,52.6279398 245.010411,46.6094011 242.213925,39.2909425 C239.418946,46.6094011 233.554469,52.6279398 225.727624,55.3454057 L225.727624,55.3454057 Z M140.780187,53.2236107 C146.825667,53.2236107 146.02624,43.9160635 157.305705,43.9175716 C157.738602,43.9175716 158.192617,43.9311438 158.663223,43.9597964 C158.586297,45.3170213 157.504808,51.9040864 150.420073,55.3454057 L203.416063,55.3454057 C183.290106,49.6812536 164.129495,32.0720137 146.985552,32.0720137 C144.904025,32.0720137 142.849648,32.3329025 140.828454,32.9059531 C134.938335,34.5753398 131.529457,40.7492053 133.215796,46.6923426 C134.147958,49.9798431 136.249094,51.6959786 139.11044,53.0185189 C139.722832,53.1587655 140.274889,53.2236107 140.780187,53.2236107 L140.780187,53.2236107 Z M281.011786,55.3454057 L298.277905,55.3454057 L300.388092,55.3454057 L334.009285,55.3454057 C326.92455,51.9040864 325.843061,45.3170213 325.766135,43.9597964 C326.236741,43.9311438 326.689247,43.9175716 327.123653,43.9175716 C338.40161,43.9175716 337.602182,53.2236107 343.647662,53.2236107 C344.15296,53.2236107 344.706526,53.1587655 345.318917,53.0185189 C348.180263,51.6959786 350.2814,49.9798431 351.213562,46.6923426 C352.898392,40.7492053 349.491022,34.5753398 343.600903,32.9059531 C341.578201,32.3329025 339.526841,32.0720137 337.442297,32.0720137 C320.301371,32.0750298 301.137743,49.6812536 281.011786,55.3454057 L281.011786,55.3454057 Z M267.860454,1.75764027 C270.307003,1.75764027 272.792769,2.0909144 275.260435,2.79063926 C281.192789,4.47209018 286.102478,8.00690719 289.552082,12.5988516 C289.933695,13.1010249 290.282125,13.6273265 290.607929,14.1672005 C290.610946,14.1672005 290.610946,14.1656924 290.612454,14.1656924 C291.772378,15.7762661 292.950402,16.2120861 294.178201,16.2120861 C295.623204,16.2120861 297.136082,15.608875 298.771137,15.608875 C300.514793,15.608875 302.397218,16.2950276 304.480254,19.1316278 C302.63403,20.9744377 300.569094,21.7691683 298.504158,21.7691683 C296.553858,21.7691683 294.605065,21.0588872 292.843309,19.8539731 C293.4195,22.625728 293.362182,25.5754303 292.535605,28.4934639 C290.303242,36.3623526 282.971137,41.7897444 275.37507,41.7897444 C273.712865,41.7897444 272.038593,41.5288556 270.403538,40.9784255 C267.49845,40.0012236 265.937304,38.2488953 265.077543,36.9927082 C267.941905,34.1319796 270.436722,33.2633556 272.685676,33.2633556 C276.166956,33.2633556 279.052435,35.3459419 281.78708,35.3459419 C283.114431,35.3459419 284.408598,34.8528169 285.71634,33.39003 C286.992407,31.8910504 287.98792,30.1070536 288.561094,28.0832804 C289.823586,23.6345986 288.817514,19.0848789 286.235213,15.6857844 C283.544311,12.1042185 279.714602,9.34603581 275.086975,8.03555972 C273.160808,7.48965368 271.221065,7.22876488 269.312999,7.22876488 C259.997409,7.22876488 251.408846,13.4282669 248.72096,22.9092372 C245.481018,34.3325473 252.033304,46.1962015 263.355003,49.4052845 C265.288712,49.9526986 267.26918,50.2030312 269.291882,50.2030312 C289.600349,50.2030312 314.089972,25.0536527 337.431738,25.0551607 C340.142249,25.0551607 342.839185,25.3944669 345.50897,26.1530049 C353.875805,28.5236245 358.716111,37.2897897 356.322354,45.7317289 C355.073438,50.1366779 352.022039,53.4648951 348.290373,55.3454057 L417.17234,55.3454057 C418.059252,53.7378482 419.560063,52.9793102 419.560063,52.9793102 C419.560063,52.9793102 420.94624,56.0360824 425.531633,57.373703 L425.531633,47.9711501 L425.531633,47.8459838 L430.308588,47.8459838 L430.308588,47.9711501 L430.308588,52.1619592 C432.577151,51.9055945 436.756798,50.9253764 436.756798,47.367939 C436.756798,44.4634776 434.608903,43.8753468 432.863738,43.8753468 C431.670631,43.8753468 430.666068,44.1498078 430.666068,44.1498078 C431.216617,39.6091363 435.114201,37.1193826 438.933352,37.1193826 C442.539824,37.1208906 446.076913,39.3407074 446.65612,44.1498078 C447.761743,53.3140924 434.720521,54.8311683 430.308588,55.0815009 L430.308588,57.9889783 C442.750994,57.9527857 447.75571,52.0247287 456.084836,52.0247287 C464.44413,52.0247287 472.200082,59.6659052 472.200082,59.6659052 C472.200082,59.6659052 464.44413,67.3010496 456.084836,67.3010496 C447.75571,67.3010496 442.750994,61.3669605 430.308588,61.3322758 L430.308588,64.2442774 C434.720521,64.496118 447.761743,66.0056538 446.65612,75.1744624 C446.076913,79.9850708 442.539824,82.2063957 438.933352,82.2063957 C435.114201,82.2063957 431.216617,79.7151339 430.666068,75.1744624 C430.666068,75.1744624 431.672139,75.4519395 432.866755,75.4519395 C434.610411,75.4519395 436.756798,74.8607926 436.756798,71.9518071 C436.756798,68.3883376 432.577151,67.4201838 430.308588,67.1638191 L430.308588,71.348596 L430.308588,71.4677302 L425.531633,71.4677302 L425.531633,71.348596 L425.531633,61.9460431 C420.94624,63.2836637 419.560063,66.3404359 419.560063,66.3404359 C419.560063,66.3404359 418.06076,65.5864221 417.173848,63.9803725 L300.388092,63.9803725 L298.277905,63.9803725 L56.535643,63.9803725 C55.6472229,65.5864221 54.1494282,66.3404359 54.1494282,66.3404359 C54.1494282,66.3404359 52.7632516,63.2836637 48.1778578,61.9460431 L48.1778578,71.348596 L48.1778578,71.4677302 L43.4009031,71.4677302 L43.4009031,71.348596 L43.4009031,67.1638191 C41.1323399,67.4201838 36.9526931,68.3883376 36.9526931,71.9518071 C36.9526931,74.8607926 39.0975714,75.4519395 40.842736,75.4519395 C42.0358434,75.4519395 43.041915,75.1744624 43.041915,75.1744624 C42.4928745,79.7166419 38.5952897,82.2063957 34.7761394,82.2063957 C31.1696668,82.2063957 27.6325785,79.9850708 27.0518625,75.1744624 C25.947748,66.0056538 38.9889699,64.496118 43.4009031,64.2442774 L43.4009031,61.3322758 C30.956989,61.3669605 25.9537814,67.3010496 17.6246549,67.3010496 C9.26536134,67.3010496 1.50790072,59.6659052 1.50790072,59.6659052 C1.50790072,59.6659052 9.26536134,52.0247287 17.6246549,52.0247287 C25.9537814,52.0247287 30.956989,57.9527857 43.4009031,57.9889783 L43.4009031,55.0815009 C38.9889699,54.8311683 25.947748,53.3140924 27.0518625,44.1498078 C27.6325785,39.3407074 31.1681585,37.1193826 34.7761394,37.1193826 C38.5952897,37.1193826 42.4928745,39.6091363 43.041915,44.1498078 C43.041915,44.1498078 42.0388601,43.8753468 40.8457527,43.8753468 C39.1005881,43.8753468 36.9526931,44.4649856 36.9526931,47.367939 C36.9526931,50.9253764 41.1323399,51.9055945 43.4009031,52.1619592 L43.4009031,47.9711501 L43.4009031,47.8459838 L48.1778578,47.8459838 L48.1778578,47.9711501 L48.1778578,57.373703 C52.7632516,56.0360824 54.1494282,52.9793102 54.1494282,52.9793102 C54.1494282,52.9793102 55.6502396,53.7378482 56.5371513,55.3454057 L136.138984,55.3454057 C132.407318,53.4648951 129.35592,50.1366779 128.107003,45.7317289 C125.711738,37.2897897 130.553552,28.5236245 138.918879,26.1530049 C141.591681,25.3944669 144.2856,25.0551607 146.997619,25.0551607 C170.339385,25.0581768 194.829008,50.2030312 215.137476,50.2030312 C217.158669,50.2030312 219.142154,49.9526986 221.074354,49.4052845 C232.396053,46.1962015 238.94834,34.3325473 235.708397,22.9092372 C233.019003,13.4267589 224.431948,7.22876488 215.116359,7.22876488 C213.208292,7.22876488 211.267042,7.48965368 209.342383,8.03555972 C204.714755,9.34603581 200.885046,12.1042185 198.194144,15.6857844 C195.611843,19.0848789 194.605772,23.6345986 195.866755,28.0832804 C196.441438,30.1070536 197.435442,31.8910504 198.713018,33.39003 C200.02076,34.8528169 201.313419,35.3459419 202.642278,35.3459419 C205.375414,35.3459419 208.262402,33.2633556 211.742173,33.2633556 C213.991127,33.2633556 216.487452,34.1319796 219.351815,36.9927082 C218.492053,38.2488953 216.930908,40.0012236 214.02582,40.9784255 C212.389256,41.5303637 210.716493,41.7897444 209.054287,41.7897444 C201.458221,41.7897444 194.124607,36.3623526 191.893753,28.4934639 C191.065667,25.5754303 191.009858,22.625728 191.586049,19.8539731 C189.824292,21.0588872 187.8755,21.7691683 185.925199,21.7691683 C183.860263,21.7691683 181.795328,20.9744377 179.949104,19.1316278 C182.032139,16.2950276 183.913056,15.608875 185.658221,15.608875 C187.291767,15.608875 188.806154,16.2120861 190.251156,16.2120861 C191.477447,16.2120861 192.656979,15.7762661 193.815395,14.1656924 C193.816903,14.1656924 193.818411,14.1672005 193.81992,14.1672005 C194.147232,13.6273265 194.494154,13.1010249 194.875767,12.5988516 C198.325371,8.00690719 203.236569,4.47209018 209.168922,2.79063926 C211.636588,2.0909144 214.122354,1.75764027 216.568903,1.75764027 C227.748817,1.75764027 238.109695,8.72774444 242.213925,19.5915762 C246.319662,8.72774444 256.679032,1.75764027 267.860454,1.75764027 L267.860454,1.75764027 Z" id="Fill-9" fill="#B49759" mask="url(#mask-4)"></path>
                    </g>
                    <mask id="mask-6" fill="white">
                        <use xlink:href="#path-5"></use>
                    </mask>
                    <g id="Clip-13"></g>
                    <polygon id="Fill-12" fill="#B49759" mask="url(#mask-6)" points="408.471103 240.436809 421.109594 240.436809 421.109594 62.6222427 408.471103 62.6222427"></polygon>
                    <polygon id="Stroke-14" stroke="#B49759" stroke-width="2" stroke-linecap="round" stroke-linejoin="round" mask="url(#mask-6)" points="408.471103 240.436809 421.109594 240.436809 421.109594 62.6222427 408.471103 62.6222427"></polygon>
                    <polygon id="Fill-15" fill="#B49759" mask="url(#mask-6)" points="54.6174702 240.436809 67.2559618 240.436809 67.2559618 62.6222427 54.6174702 62.6222427"></polygon>
                    <polygon id="Stroke-16" stroke="#B49759" stroke-width="2" stroke-linecap="round" stroke-linejoin="round" mask="url(#mask-6)" points="54.6174702 240.436809 67.2559618 240.436809 67.2559618 62.6222427 54.6174702 62.6222427"></polygon>
                    <polygon id="Fill-17" fill="#B49759" mask="url(#mask-6)" points="54.6174702 67.4856322 408.471103 67.4856322 408.471103 55.8195296 54.6174702 55.8195296"></polygon>
                    <polygon id="Stroke-18" stroke="#B49759" stroke-width="2" stroke-linecap="round" stroke-linejoin="round" mask="url(#mask-6)" points="54.6174702 67.4856322 408.471103 67.4856322 408.471103 55.8195296 54.6174702 55.8195296"></polygon>
                    <polygon id="Fill-19" fill="#B49759" mask="url(#mask-6)" points="54.6174702 247.22595 408.471103 247.22595 408.471103 235.559847 54.6174702 235.559847"></polygon>
                    <polygon id="Stroke-20" stroke="#B49759" stroke-width="2" stroke-linecap="round" stroke-linejoin="round" mask="url(#mask-6)" points="54.6174702 247.22595 408.471103 247.22595 408.471103 235.559847 54.6174702 235.559847"></polygon>
                    <path d="M189.800309,88.5087452 C189.800309,88.5117612 184.297837,137.518138 182.736691,151.144677 C182.066982,156.944552 181.398782,162.640372 180.729073,168.220075 C180.689856,168.544301 180.64913,168.864003 180.61293,169.183705 C179.839145,164.43945 179.015584,159.337792 178.136214,153.883255 C176.849589,145.883168 175.532796,137.994675 174.193379,130.210236 C172.849436,122.436353 171.589961,115.224964 170.416462,108.573054 C169.244472,101.91662 168.187116,96.5178805 167.310763,92.6965382 C166.963842,90.834124 165.711908,88.2553965 161.693655,86.5513252 C157.296806,84.690419 152.709904,84.5577125 147.79418,86.1833664 C143.425989,87.6506774 142.128806,90.674273 141.756242,92.302943 C140.836147,96.1016648 139.775775,101.405398 138.603784,108.069373 C137.428777,114.725807 136.170811,121.938704 134.826868,129.706555 C133.4784,137.489486 132.163116,145.409648 130.877999,153.471564 C129.991087,159.007534 129.159985,164.186101 128.381674,169.008774 C128.349999,168.747885 128.316815,168.485488 128.288157,168.220075 C127.619956,162.640372 126.950247,156.944552 126.27903,151.144677 C124.711851,137.518138 119.275746,88.4529482 119.275746,88.4529482 L118.854916,84.6783548 L90.3394979,84.7130394 L90.3394979,93.9753457 C90.3394979,96.6747154 90.9533976,99.0136664 92.1706387,100.942434 C93.231011,102.60428 94.4014931,103.854435 95.733369,104.751712 C96.0124143,104.991488 96.2582759,105.244837 96.4392783,105.468025 C96.4392783,105.468025 96.519221,105.570571 96.6021804,105.842016 L100.753168,141.576241 C98.3820372,143.589458 96.9596601,146.566305 96.9596601,149.794992 C96.9596601,153.951117 99.2960993,157.594512 102.831679,159.387557 L104.867956,176.752496 C105.597999,183.028907 106.2662,188.650835 106.880099,193.627326 L108.392978,205.783538 C108.732357,208.501004 108.916376,210.073877 108.942018,210.289525 L108.97671,210.827891 C109.184863,212.447512 109.816863,213.984193 110.857627,215.395707 C112.270954,217.324474 114.40829,218.38311 116.872939,218.38311 L135.816347,218.38311 C138.810429,218.38311 140.65967,217.146527 141.662725,216.128608 C142.762314,215.029256 143.679393,213.507656 144.462228,211.477851 L154.711488,153.255916 L164.499192,210.66804 L164.717904,211.467294 C165.500739,213.51218 166.420834,215.039812 167.506849,216.118052 C168.532529,217.152559 170.38177,218.38311 173.369818,218.38311 L192.145799,218.38311 C194.604414,218.38311 196.738734,217.324474 198.153569,215.398723 C199.203383,213.97062 199.8384,212.4264 200.037503,210.808286 L200.064653,210.502157 C200.093312,210.075385 200.283364,208.50402 200.624252,205.783538 L202.132605,193.630342 C202.75103,188.653851 203.419231,183.028907 204.149274,176.752496 C204.80239,171.123028 205.479641,165.350298 206.18555,159.380016 C209.700013,157.576415 212.021369,153.942068 212.021369,149.794992 C212.021369,146.578369 210.611059,143.613587 208.258028,141.597353 L212.413541,105.839 C212.482925,105.620336 212.535717,105.52533 212.529684,105.522314 C212.76197,105.238805 213.007832,104.983948 213.273302,104.754728 C214.606686,103.857451 215.805827,102.572612 216.846591,100.931878 C218.062324,99.0136664 218.677732,96.6747154 218.677732,93.9753457 L218.677732,84.6994671 L190.22114,84.7522481 L189.800309,88.5087452 Z" id="Fill-21" fill="#B49759" mask="url(#mask-6)"></path>
                    <path d="M276.411611,161.213326 C274.562369,162.075918 271.458179,164.378676 271.458179,170.079021 L271.461195,170.716917 C271.513988,184.565135 271.471754,192.596891 271.388794,196.403153 L260.996241,196.403153 L260.828813,105.101122 C260.828813,104.983496 260.830322,104.877934 260.833338,104.784436 C262.07773,103.853983 263.239162,102.630972 264.377968,101.056592 C265.806379,99.0961555 266.52888,96.6802951 266.52888,93.8798876 L266.52888,84.6115491 L230.058408,84.6115491 L230.058408,93.8798876 C230.058408,96.6878352 230.786942,99.1067117 232.206303,101.052067 C233.357176,102.643037 234.524642,103.867555 235.778083,104.805548 L235.924393,104.909602 C235.924393,104.968415 235.925902,105.031753 235.925902,105.101122 L235.925902,140.414607 C232.726684,142.319246 230.640632,145.811839 230.640632,149.696518 C230.640632,153.582705 232.729701,157.075298 235.925902,158.978429 L235.925902,218.436946 L287.774035,218.447502 C289.731878,218.447502 291.579611,217.698013 293.228241,216.245782 C295.062398,214.660845 296.032269,212.450076 296.032269,209.857776 L296.032269,159.649501 L284.760346,159.649501 C281.549062,159.649501 278.583639,160.202947 276.411611,161.213326" id="Fill-22" fill="#B49759" mask="url(#mask-6)"></path>
                    <path d="M353.633413,115.769513 L353.633413,187.66926 C353.633413,190.685315 353.06778,193.034822 351.957632,194.640872 C351.413117,195.42957 350.428162,196.335895 347.640726,196.335895 L337.96464,196.335895 L337.96464,107.098354 L347.640726,107.098354 C350.425146,107.098354 351.411609,108.006187 351.954616,108.791869 C353.06778,110.403951 353.633413,112.750442 353.633413,115.769513 M378.702243,140.93548 L378.702243,116.102787 C378.702243,111.568148 378.135103,107.383371 377.015905,103.655527 C375.827322,99.7014778 373.898138,96.2676987 371.284162,93.4461788 C368.659628,90.6231509 365.330692,88.4244464 361.398415,86.9269749 C357.564181,85.4536318 352.932029,84.7116822 347.640726,84.7116822 L307.366186,84.7116822 L307.366186,93.8141376 C307.366186,96.7366953 307.81115,99.0545339 308.729737,100.906392 C309.729776,102.904529 311.183828,104.412556 313.06022,105.392774 L313.06022,140.40767 C309.743351,142.273101 307.575847,145.804902 307.575847,149.804191 C307.575847,153.800465 309.743351,157.330758 313.06022,159.191664 L313.06022,218.350084 L352.079809,218.350084 L352.268353,218.333495 C360.730215,217.571941 367.172391,214.629779 371.422931,209.592967 C376.254186,203.853413 378.702243,196.252953 378.702243,187.002711 L378.702243,158.669886 C381.580181,156.698894 383.369088,153.432506 383.369088,149.804191 C383.369088,146.175876 381.580181,142.906472 378.702243,140.93548" id="Fill-23" fill="#B49759" mask="url(#mask-6)"></path>
                    <path d="M194.011179,88.9827183 C194.011179,88.9827183 188.508706,137.999652 186.947561,151.629206 C186.274835,157.438129 185.606635,163.138474 184.935418,168.722701 C184.2642,174.317484 183.648792,179.286435 183.090702,183.641619 C182.526578,187.998311 182.08463,191.515032 181.748267,194.197813 C181.414921,196.885119 181.188668,198.222739 181.078558,198.222739 C179.739141,190.070341 178.532458,182.748867 177.473594,176.265855 C176.413222,169.788876 175.244248,162.553359 173.954606,154.557796 C172.669489,146.572789 171.355714,138.700885 170.017804,130.931526 C168.67537,123.163675 167.414387,115.95681 166.245413,109.3049 C165.071914,102.657514 164.038692,97.3824328 163.14273,93.4660848 C162.913461,92.2385502 161.884764,91.2372198 160.041556,90.4530453 C158.195332,89.670379 156.323465,89.2843239 154.428974,89.2843239 C152.748668,89.2843239 150.989928,89.5904535 149.142196,90.1996967 C147.302005,90.8179881 146.20694,91.849479 145.873594,93.2986937 C144.977632,96.9918536 143.944411,102.156849 142.773928,108.804235 C141.604955,115.459161 140.343971,122.666026 139.001537,130.429352 C137.657594,138.194187 136.343819,146.096253 135.061718,154.140073 C133.775093,162.188417 132.600086,169.479731 131.536697,176.020047 C130.479341,182.555839 129.277184,189.952715 127.934749,198.222739 C127.82464,198.222739 127.574253,196.885119 127.183589,194.197813 C126.788401,191.515032 126.343437,187.998311 125.839647,183.641619 C125.34189,179.286435 124.752124,174.317484 124.07789,168.722701 C123.40969,163.138474 122.741489,157.438129 122.07178,151.629206 C120.503093,137.999652 115.063971,88.9193811 115.063971,88.9193811 L94.5775179,88.9435096 L94.5775179,93.9757981 C94.5775179,95.874405 94.9696897,97.4367218 95.748,98.6642563 C96.5308353,99.897823 97.3649547,100.784543 98.2654415,101.344022 C98.8190072,101.799446 99.3258138,102.303127 99.770778,102.852049 C100.215742,103.41756 100.55663,104.141413 100.775341,105.037182 C102.393804,118.990962 103.888582,131.869519 105.268726,143.728649 C102.881002,144.710375 101.196172,147.050834 101.196172,149.793937 C101.196172,153.066357 103.59747,155.750646 106.728811,156.254327 C106.760487,156.492596 106.787637,156.753485 106.816296,156.990245 C107.591589,163.586358 108.3518,170.012064 109.078826,176.265855 C109.805852,182.528695 110.472544,188.138558 111.084936,193.110525 C111.700344,198.084001 112.20715,202.134563 112.596305,205.259197 C112.988477,208.394386 113.180038,210.069805 113.180038,210.288469 C113.294673,211.184238 113.656678,212.052862 114.275103,212.891325 C114.887494,213.725264 115.756305,214.146004 116.872487,214.146004 L135.815895,214.146004 C137.045203,214.146004 137.998482,213.811222 138.665174,213.137133 C139.331866,212.470585 139.947274,211.407426 140.508382,209.955195 L154.759303,128.334702 L168.67537,209.955195 C169.231952,211.407426 169.844344,212.470585 170.517069,213.137133 C171.188286,213.811222 172.137041,214.146004 173.370874,214.146004 L192.145346,214.146004 C193.260019,214.146004 194.125814,213.725264 194.738205,212.891325 C195.353613,212.052862 195.721652,211.184238 195.831761,210.288469 C195.831761,210.069805 196.026339,208.394386 196.420019,205.259197 C196.809174,202.134563 197.309947,198.084001 197.928372,193.110525 C198.54378,188.138558 199.211981,182.528695 199.940516,176.265855 C200.667542,170.012064 201.421718,163.586358 202.203045,156.990245 C202.227179,156.753485 202.260363,156.486564 202.287513,156.252819 C205.405279,155.743106 207.785461,153.057309 207.785461,149.793937 C207.785461,147.062898 206.117222,144.723947 203.744582,143.730157 C205.130759,131.869519 206.621012,118.996994 208.240983,105.037182 C208.461203,104.141413 208.793041,103.41756 209.24253,102.852049 C209.690511,102.303127 210.188267,101.799446 210.747866,101.344022 C211.646845,100.784543 212.485489,99.897823 213.268325,98.6642563 C214.046635,97.4367218 214.438807,95.874405 214.438807,93.9757981 L214.438807,88.9435096 L194.011179,88.9827183 Z" id="Fill-24" fill="#FEFEFE" mask="url(#mask-6)"></path>
                    <path d="M284.75929,163.884948 C282.297657,163.884948 279.882784,164.271003 278.203987,165.055177 C276.525189,165.837844 275.69107,167.513262 275.69107,170.078418 C275.69107,170.755522 275.83738,199.104935 275.451242,199.714179 C275.054545,200.338502 274.476846,200.640108 273.689485,200.640108 L258.937791,200.640108 C258.151939,200.640108 257.599882,200.303817 257.262011,199.637269 C256.928664,198.963181 256.761237,198.180514 256.761237,197.290778 L256.59381,105.103535 C256.59381,103.877508 256.734087,103.039045 257.014641,102.594177 C257.293686,102.146292 257.706975,101.754205 258.26959,101.413391 C259.164044,100.748351 260.053972,99.8013093 260.952951,98.5677426 C261.845896,97.3371919 262.292368,95.7793993 262.292368,93.8762683 L262.292368,88.8469958 L234.297333,88.8469958 L234.297333,93.8762683 C234.297333,95.7793993 234.742297,97.3371919 235.638259,98.5677426 C236.532712,99.8013093 237.428674,100.748351 238.318602,101.413391 C238.881218,101.754205 239.330707,102.146292 239.659528,102.594177 C239.9974,103.039045 240.163318,103.877508 240.163318,105.103535 L240.163318,143.26116 C237.149629,143.858339 234.87654,146.506436 234.87654,149.695915 C234.87654,152.882377 237.149629,155.54103 240.163318,156.132177 L240.163318,214.200293 L284.421419,214.213865 L287.772979,214.213865 C288.67045,214.213865 289.560378,213.832334 290.45634,213.04062 C291.35381,212.265493 291.797266,211.199318 291.797266,209.857173 L291.797266,163.884948 L284.75929,163.884948 Z" id="Fill-25" fill="#FEFEFE" mask="url(#mask-6)"></path>
                    <path d="M357.869774,187.668656 C357.869774,191.585004 357.056771,194.709638 355.442833,197.054621 C353.810795,199.407144 351.217936,200.571342 347.643139,200.571342 L335.576313,200.571342 C335.009172,200.571342 334.570242,200.325533 334.226337,199.814312 C333.896008,199.318171 333.727072,198.791869 333.727072,198.229375 L333.727072,105.211208 C333.727072,104.645698 333.92165,104.119396 334.313821,103.620239 C334.702977,103.112033 335.288218,102.863209 336.075578,102.863209 L347.643139,102.863209 C351.217936,102.863209 353.810795,104.033438 355.442833,106.382945 C357.056771,108.727929 357.869774,111.858594 357.869774,115.76891 L357.869774,187.668656 Z M379.131521,149.803588 C379.131521,146.838805 377.160103,144.368656 374.467693,143.548289 L374.467693,116.102184 C374.467693,111.970188 373.966919,108.221231 372.959339,104.874918 C371.950251,101.521064 370.355922,98.6754158 368.179368,96.3289246 C365.996781,93.9824335 363.236495,92.162244 359.881917,90.8804204 C356.528848,89.5970888 352.451769,88.9471289 347.643139,88.9471289 L311.59953,88.9471289 L311.59953,93.8135343 C311.59953,96.0439074 311.908743,97.7811553 312.521134,99.0117059 C313.135034,100.239241 314.003845,101.128977 315.123043,101.688455 C315.684151,101.913151 316.186432,102.333891 316.632905,102.943134 C317.073344,103.559918 317.299597,104.371236 317.299597,105.374075 L317.299597,143.343197 C314.192389,143.861959 311.812208,146.54474 311.812208,149.803588 C311.812208,153.05942 314.192389,155.736169 317.299597,156.253423 L317.299597,214.114939 L351.890662,214.114939 C359.200141,213.457439 364.646805,211.052134 368.179368,206.861325 C372.371082,201.88785 374.467693,195.269116 374.467693,187.002108 L374.467693,156.055871 C377.160103,155.232488 379.131521,152.763846 379.131521,149.803588 L379.131521,149.803588 Z" id="Fill-26" fill="#FEFEFE" mask="url(#mask-6)"></path>
                </g>
            </g>
        </g>
    </g>
</svg>