<svg width="474" height="305" viewBox="0 0 474 305" xmlns="http://www.w3.org/2000/svg" xmlns:xlink="http://www.w3.org/1999/xlink"><title>WLD@1x</title><defs><path id="a" d="M236.855 303.492h236.854V.25H0v303.242h473.709v-83.465H0v83.465h236.855z"/><path id="c" d="M473.708.25H0v83.464h473.708V.25z"/><path id="e" d="M0 303.492h473.709V.25H0z"/></defs><g fill="none" fill-rule="evenodd"><path fill="#E21836" d="M62.7 244.996h357.44V58.872H62.7z"/><g transform="translate(0 .128)"><path d="M229.427 249.15c5.625 2.85 10.132 7.538 12.788 13.35 2.655-5.812 7.163-10.5 12.786-13.35h-25.574zm-90.073 2.292c-3.08 1.437-4.65 3.126-5.412 5.813a10.413 10.413 0 0 0 .9 7.926 10.211 10.211 0 0 0 6.192 4.929 21.76 21.76 0 0 0 5.952.806c9.568 0 19.83-5.628 30.695-11.583 6.812-3.735 13.814-7.573 20.97-10.184h-45.479c5.807 4.135 6.227 10.297 6.243 10.588a.753.753 0 0 1-.707.797c-.487.028-.953.043-1.403.043-6.87 0-9.54-3.33-11.685-6.005-1.478-1.844-2.646-3.3-4.84-3.3-.436 0-.916.057-1.426.17zm146.424-2.293c7.157 2.61 14.157 6.449 20.969 10.184 10.864 5.955 21.127 11.583 30.696 11.583 2.067 0 4.07-.271 5.952-.806 5.48-1.554 8.663-7.32 7.092-12.855-.761-2.689-2.333-4.376-5.413-5.813a6.63 6.63 0 0 0-1.425-.17c-2.194 0-3.361 1.456-4.838 3.3-2.145 2.674-4.816 6.005-11.686 6.005-.45 0-.919-.015-1.405-.043a.754.754 0 0 1-.707-.797c.016-.292.443-6.456 6.244-10.588h-45.48zm-17.918 53.59c-11.008 0-21.094-6.61-25.645-16.625-4.55 10.015-14.636 16.625-25.645 16.625a27.9 27.9 0 0 1-7.607-1.062c-5.916-1.677-10.994-5.163-14.69-10.083-.348-.458-.695-.97-1.054-1.557-.006-.008-.01-.014-.017-.02-1.098-1.526-2.108-1.733-2.953-1.733-.626 0-1.297.133-2.008.273-.82.162-1.666.33-2.583.33-2.391 0-4.399-1.218-6.317-3.83a.754.754 0 0 1 .075-.98c1.873-1.87 4.122-2.858 6.507-2.858 1.54 0 3.125.409 4.656 1.193a18.727 18.727 0 0 1 .589-7.37c2.274-8.02 9.796-13.843 17.886-13.843 1.784 0 3.537.286 5.211.85 2.397.805 4.318 2.244 5.708 4.274a.75.75 0 0 1-.088.957c-2.66 2.66-5.323 3.953-8.142 3.953-1.973 0-3.766-.626-5.349-1.178-1.333-.464-2.594-.905-3.75-.905-1.26 0-2.33.542-3.367 1.704a13.24 13.24 0 0 0-2.684 5.009c-1.16 4.09-.359 8.37 2.2 11.737a20.25 20.25 0 0 0 10.755 7.381 20.43 20.43 0 0 0 5.57.777c9.17 0 17.34-6.222 19.864-15.131 1.513-5.333.878-10.93-1.79-15.758-2.665-4.827-7.043-8.31-12.325-9.807-1.798-.51-3.727-.769-5.73-.769-9.61 0-20.177 5.744-31.366 11.826-12.048 6.55-24.505 13.32-36.771 13.32-2.864 0-5.652-.378-8.287-1.124-4.24-1.204-7.754-4-9.895-7.875-2.139-3.873-2.65-8.36-1.437-12.636a16.002 16.002 0 0 1 6.068-8.655H56.963c-.994 1.527-2.41 2.253-2.473 2.287a.754.754 0 0 1-1.027-.364c-.047-.098-1.133-2.348-4.532-3.655v8.354c0 .416-.337.88-.754.88H43.4a.754.754 0 0 1-.754-.755v-3.449c-2.142.362-4.938 1.332-4.938 3.926 0 1.051.314 1.775.96 2.21.51.346 1.263.528 2.179.528a8.571 8.571 0 0 0 1.997-.248.756.756 0 0 1 .947.817c-.61 5.053-4.997 7.695-9.015 7.695-3.48 0-7.788-2.014-8.471-7.695-.291-2.413.304-4.526 1.773-6.278 3.435-4.102 10.864-5.17 14.568-5.447v-1.437c-6.28.145-10.65 1.853-14.52 3.369-3.396 1.328-6.603 2.583-10.502 2.583-8.57 0-16.319-7.535-16.645-7.857a.753.753 0 0 1 0-1.075c.326-.321 8.075-7.852 16.645-7.852 3.9 0 7.106 1.256 10.503 2.588 3.87 1.515 8.238 3.227 14.52 3.371v-1.443c-3.707-.277-11.139-1.348-14.569-5.445-1.469-1.753-2.064-3.865-1.773-6.28.683-5.68 4.99-7.697 8.47-7.697 4.017 0 8.405 2.644 9.016 7.697a.75.75 0 0 1-.256.66.743.743 0 0 1-.691.158 8.587 8.587 0 0 0-2.002-.25c-2.81 0-3.134 1.566-3.134 2.746 0 2.587 2.796 3.557 4.938 3.919v-3.316c0-.418.338-.873.754-.873h4.777c.417 0 .754.336.754.754v8.472c3.399-1.308 4.485-3.558 4.533-3.66a.755.755 0 0 1 1.024-.36c.064.032 1.478.756 2.474 2.28h359.784c.997-1.524 2.412-2.248 2.476-2.28a.763.763 0 0 1 .59-.037.76.76 0 0 1 .435.401c.047.098 1.133 2.35 4.531 3.656v-8.353c0-.418.337-.873.755-.873h4.775c.416 0 .754.336.754.754v3.435c2.144-.362 4.94-1.33 4.94-3.92 0-1.179-.326-2.746-3.134-2.746-1.07 0-1.991.248-2.002.25a.743.743 0 0 1-.69-.158.745.745 0 0 1-.257-.659c.61-5.053 4.995-7.697 9.014-7.697 3.48 0 7.787 2.017 8.472 7.697.291 2.415-.305 4.527-1.774 6.28-3.431 4.097-10.863 5.168-14.569 5.445v1.443c6.282-.144 10.65-1.856 14.521-3.373 3.397-1.33 6.604-2.586 10.503-2.586 8.569 0 16.319 7.53 16.644 7.852a.759.759 0 0 1 0 1.075c-.325.322-8.075 7.857-16.644 7.857-3.898 0-7.106-1.255-10.501-2.583-3.872-1.516-8.24-3.224-14.523-3.37v1.438c3.705.278 11.135 1.345 14.57 5.447 1.468 1.752 2.064 3.865 1.773 6.278-.685 5.68-4.992 7.695-8.474 7.695-4.017 0-8.403-2.642-9.012-7.695a.756.756 0 0 1 .947-.817c.01.003.93.248 1.997.248 2.813 0 3.139-1.562 3.139-2.738 0-2.594-2.796-3.564-4.94-3.926v3.324c0 .416-.338.88-.754.88h-4.775a.753.753 0 0 1-.755-.755v-8.48c-3.398 1.308-4.484 3.558-4.532 3.66a.765.765 0 0 1-.438.397.757.757 0 0 1-.25.041.755.755 0 0 1-.338-.078c-.065-.034-1.48-.76-2.474-2.287H350.98a16.002 16.002 0 0 1 6.068 8.655c1.213 4.275.703 8.763-1.436 12.636-2.14 3.875-5.654 6.671-9.894 7.875a30.393 30.393 0 0 1-8.286 1.125c-12.267 0-24.726-6.771-36.774-13.32-11.188-6.083-21.756-11.827-31.366-11.827-2.003 0-3.93.258-5.73.77-10.904 3.09-17.236 14.56-14.115 25.564 2.526 8.909 10.697 15.133 19.866 15.131 1.877 0 3.75-.26 5.57-.777a20.254 20.254 0 0 0 10.75-7.378c2.56-3.37 3.363-7.65 2.204-11.739a13.298 13.298 0 0 0-2.693-5.023c-1.028-1.15-2.097-1.69-3.357-1.69-1.156 0-2.417.44-3.75.904-1.583.552-3.376 1.178-5.35 1.178-2.817 0-5.48-1.294-8.142-3.953a.752.752 0 0 1-.089-.957c1.39-2.03 3.308-3.467 5.708-4.274a16.298 16.298 0 0 1 5.213-.85c8.088 0 15.611 5.822 17.885 13.843.687 2.427.883 4.9.588 7.37 1.532-.784 3.116-1.193 4.656-1.193 2.385 0 4.634.988 6.507 2.858a.754.754 0 0 1 .076.98c-1.92 2.612-3.927 3.83-6.317 3.83-.918 0-1.764-.168-2.584-.33-.71-.14-1.382-.273-2.008-.273-.845 0-1.855.207-2.953 1.733l-.015.018c-.356.587-.705 1.1-1.06 1.564a27.66 27.66 0 0 1-14.685 10.078 27.9 27.9 0 0 1-7.606 1.062z" fill="#B49759"/><mask id="b" fill="#fff"><use xlink:href="#a"/></mask><path d="M155.284 249.904h39.395c-5.913 2.493-11.702 5.666-17.36 8.768-10.777 5.908-20.957 11.49-30.333 11.49-2.026 0-3.905-.255-5.747-.777a9.46 9.46 0 0 1-5.737-4.568 9.669 9.669 0 0 1-.835-7.356c.69-2.431 2.123-3.975 4.931-5.3a5.836 5.836 0 0 1 1.183-.135c1.75 0 2.66 1.035 4.25 3.018 2.127 2.654 5.04 6.288 12.275 6.288.463 0 .946-.015 1.448-.045a1.509 1.509 0 0 0 1.415-1.591c-.016-.278-.378-5.57-4.885-9.792m76.981 0h19.899a28.717 28.717 0 0 0-9.95 10.882 28.717 28.717 0 0 0-9.949-10.882m57.485 0h39.395c-4.507 4.221-4.869 9.514-4.885 9.792-.047.83.585 1.54 1.415 1.59.502.031.985.046 1.448.046 7.237 0 10.15-3.636 12.276-6.29 1.59-1.981 2.5-3.016 4.25-3.016.358 0 .756.045 1.182.134 2.808 1.326 4.241 2.87 4.93 5.3a9.669 9.669 0 0 1-.833 7.357 9.46 9.46 0 0 1-5.738 4.568c-1.816.516-3.75.777-5.747.777-9.376 0-19.556-5.582-30.333-11.49-5.658-3.102-11.447-6.275-17.36-8.768m149.184-29.877c-4.35 0-9.101 2.871-9.765 8.36a1.507 1.507 0 0 0 1.897 1.634 7.83 7.83 0 0 1 1.801-.223c2.198 0 2.382 1.028 2.382 1.992 0 1.743-1.75 2.59-3.433 2.998v-2.515c0-.833-.674-1.507-1.508-1.507h-4.777c-.833 0-1.509.674-1.509 1.508v7.309c-2.28-1.182-3.056-2.738-3.095-2.82a1.539 1.539 0 0 0-.878-.78 1.594 1.594 0 0 0-.502-.084c-.23 0-.457.051-.664.155-.169.085-1.478.773-2.53 2.2H57.354c-1.051-1.427-2.36-2.115-2.53-2.2a1.502 1.502 0 0 0-1.179-.073 1.507 1.507 0 0 0-.872.799c-.033.068-.807 1.622-3.089 2.803v-7.31c0-.833-.674-1.507-1.508-1.507H43.4c-.833 0-1.508.674-1.508 1.508v2.514c-1.682-.409-3.432-1.255-3.432-2.998 0-.964.184-1.992 2.382-1.992.96 0 1.796.221 1.804.224a1.525 1.525 0 0 0 1.383-.316c.379-.33.572-.822.511-1.32-.665-5.488-5.415-8.359-9.765-8.359-4.087 0-8.523 2.585-9.22 8.36-.317 2.63.338 4.936 1.944 6.855 3.163 3.777 9.266 5.118 13.673 5.587-5.332-.344-9.107-1.822-12.771-3.257-3.465-1.358-6.736-2.64-10.777-2.64-8.875 0-16.84 7.74-17.174 8.068a1.508 1.508 0 0 0 0 2.15c.334.33 8.299 8.075 17.174 8.075 4.04 0 7.312-1.28 10.775-2.636 3.633-1.42 7.373-2.885 12.63-3.244-4.394.481-10.399 1.834-13.53 5.572-1.606 1.92-2.261 4.226-1.944 6.854.697 5.774 5.133 8.36 9.22 8.36 4.35 0 9.1-2.872 9.765-8.358a1.508 1.508 0 0 0-1.897-1.636 7.836 7.836 0 0 1-1.798.221c-2.2 0-2.385-1.024-2.385-1.984 0-1.756 1.83-2.597 3.432-2.998v2.52c0 .832.675 1.508 1.508 1.508h4.777c.834 0 1.508-.676 1.508-1.508v-7.316c2.282 1.182 3.058 2.739 3.097 2.82a1.527 1.527 0 0 0 2.047.707c.167-.084 1.476-.775 2.53-2.203h73.989a16.707 16.707 0 0 0-4.693 7.694c-2.617 9.228 2.7 18.847 11.853 21.443a31.167 31.167 0 0 0 8.49 1.153c12.46 0 25.003-6.819 37.133-13.412 11.101-6.035 21.589-11.735 31.007-11.735 1.932 0 3.792.25 5.525.74 5.085 1.442 9.3 4.797 11.868 9.446 2.57 4.654 3.184 10.048 1.725 15.188-2.434 8.586-10.305 14.584-19.139 14.584a19.65 19.65 0 0 1-5.364-.75 19.494 19.494 0 0 1-10.353-7.104c-2.42-3.185-3.177-7.222-2.082-11.083a12.543 12.543 0 0 1 2.543-4.74c1.127-1.258 2.08-1.424 2.782-1.424 1.029 0 2.23.419 3.502.864 1.64.571 3.497 1.218 5.598 1.218 3.027 0 5.866-1.365 8.674-4.17.515-.514.59-1.32.178-1.92-1.484-2.168-3.532-3.703-6.087-4.562a17.072 17.072 0 0 0-5.453-.89c-8.42 0-16.247 6.053-18.612 14.392a19.692 19.692 0 0 0-.718 6.367c-1.26-.487-2.543-.739-3.8-.739-2.589 0-5.024 1.065-7.042 3.08a1.505 1.505 0 0 0-.149 1.959c2.072 2.823 4.273 4.138 6.923 4.138.991 0 1.916-.183 2.732-.344.673-.133 1.31-.26 1.861-.26.638 0 1.398.11 2.341 1.42.365.595.72 1.119 1.085 1.598a28.404 28.404 0 0 0 15.082 10.347 28.62 28.62 0 0 0 7.812 1.09c10.78 0 20.696-6.17 25.645-15.658 4.948 9.487 14.864 15.658 25.645 15.658 2.63 0 5.26-.366 7.811-1.09 6.076-1.722 11.293-5.303 15.088-10.353.36-.475.715-.998 1.079-1.594.943-1.307 1.703-1.417 2.34-1.417.553 0 1.19.126 1.862.259.816.161 1.74.344 2.73.344 2.652 0 4.853-1.315 6.925-4.138.442-.6.379-1.433-.15-1.96-2.016-2.014-4.452-3.079-7.04-3.079-1.258 0-2.54.252-3.801.74a19.732 19.732 0 0 0-.718-6.368c-2.365-8.339-10.192-14.39-18.612-14.392-1.864 0-3.698.3-5.453.89-2.555.86-4.603 2.394-6.089 4.563a1.506 1.506 0 0 0 .18 1.918c2.808 2.806 5.647 4.171 8.674 4.171 2.101 0 3.958-.647 5.598-1.218 1.271-.445 2.473-.864 3.502-.864.702 0 1.655.166 2.804 1.452a12.495 12.495 0 0 1 2.52 4.712c1.096 3.861.339 7.898-2.076 11.075a19.494 19.494 0 0 1-10.358 7.112 19.65 19.65 0 0 1-5.364.75c-8.834 0-16.705-5.998-19.14-14.584-3.007-10.605 3.091-21.656 13.594-24.634 1.733-.49 3.591-.74 5.525-.74 9.418 0 19.904 5.7 31.007 11.735 12.13 6.593 24.674 13.412 37.133 13.412 2.934 0 5.789-.389 8.49-1.153 9.153-2.596 14.47-12.215 11.853-21.443a16.707 16.707 0 0 0-4.692-7.694h63.269c1.051 1.428 2.36 2.119 2.53 2.203a1.497 1.497 0 0 0 1.18.077c.388-.137.703-.425.874-.799.033-.07.807-1.624 3.087-2.805v7.316a1.51 1.51 0 0 0 1.509 1.508h4.777c.834 0 1.508-.676 1.508-1.508v-2.52c1.603.4 3.433 1.242 3.433 2.998 0 .96-.185 1.984-2.386 1.984-.958 0-1.794-.22-1.801-.221a1.509 1.509 0 0 0-1.382.317 1.506 1.506 0 0 0-.511 1.319c.664 5.486 5.415 8.357 9.763 8.357 4.09 0 8.526-2.585 9.223-8.359.316-2.628-.338-4.934-1.945-6.854-3.131-3.738-9.136-5.09-13.53-5.572 5.257.359 8.998 1.823 12.63 3.244 3.463 1.356 6.735 2.636 10.775 2.636 8.876 0 16.84-7.745 17.175-8.076a1.505 1.505 0 0 0-.002-2.149c-.333-.328-8.297-8.067-17.173-8.067-4.04 0-7.312 1.281-10.777 2.639-3.664 1.435-7.439 2.913-12.771 3.257 4.406-.468 10.51-1.81 13.673-5.587 1.607-1.919 2.261-4.226 1.945-6.856-.697-5.773-5.133-8.357-9.221-8.359m-281.628 39.797c-11.278 0-10.48-9.306-16.525-9.306a7.47 7.47 0 0 0-1.67.205c-2.863 1.323-4.962 3.039-5.895 6.326-1.686 5.943 1.721 12.117 7.612 13.787a22.45 22.45 0 0 0 6.158.834c17.143 0 36.306-17.61 56.43-23.274H150.42c7.086 3.441 8.166 10.029 8.243 11.386a22.8 22.8 0 0 1-1.356.042m84.909 4.627c2.795-7.319 8.66-13.337 16.486-16.055h-32.974c7.827 2.718 13.693 8.736 16.488 16.055m95.228 7.219c2.083 0 4.136-.261 6.157-.834 5.892-1.67 9.299-7.844 7.613-13.787-.933-3.287-3.034-5.003-5.895-6.326a7.48 7.48 0 0 0-1.67-.205c-6.045 0-5.246 9.306-16.525 9.306-.433 0-.887-.014-1.356-.042.077-1.357 1.157-7.945 8.243-11.386h-52.999c20.126 5.664 39.288 23.274 56.43 23.274m101.492-50.135c3.606.002 7.144 2.222 7.723 7.032 1.104 9.169-11.936 10.678-16.35 10.93v2.912c12.445-.034 17.448-5.968 25.778-5.968 8.36 0 16.116 7.635 16.116 7.635s-7.756 7.64-16.116 7.64c-8.33 0-13.333-5.927-25.777-5.963v2.907c4.413.25 17.453 1.767 16.349 10.932-.581 4.809-4.117 7.03-7.725 7.03-3.817 0-7.716-2.49-8.265-7.03 0 0 1.004.274 2.196.274 1.745 0 3.894-.59 3.894-3.492 0-3.558-4.18-4.538-6.45-4.794v4.316h-4.776v-9.528c-4.586 1.338-5.97 4.394-5.97 4.394s-1.501-.758-2.39-2.366h-68.88c3.73 1.88 6.782 5.209 8.032 9.614 2.394 8.442-2.448 17.208-10.813 19.579-2.673.758-5.367 1.097-8.08 1.097-23.34 0-47.829-25.147-68.139-25.147-2.02 0-4.003.25-5.937.797-11.322 3.21-17.872 15.073-14.632 26.496 2.687 9.483 11.275 15.68 20.59 15.68 1.91 0 3.85-.26 5.776-.806a21.085 21.085 0 0 0 11.148-7.65 14.1 14.1 0 0 0 2.326-12.398 14.072 14.072 0 0 0-2.847-5.306c-1.307-1.463-2.6-1.956-3.929-1.956-2.733 0-5.62 2.082-9.1 2.082-2.249 0-4.745-.868-7.608-3.73.858-1.255 2.42-3.008 5.325-3.985a15.519 15.519 0 0 1 4.971-.811c7.596 0 14.93 5.427 17.16 13.296.829 2.918.886 5.868.31 8.64 1.76-1.205 3.71-1.916 5.66-1.916 2.064 0 4.13.795 5.975 2.638-2.083 2.837-3.964 3.523-5.709 3.523-1.633 0-3.148-.604-4.591-.604-1.228 0-2.406.436-3.566 2.047l-.004-.002c-.328.54-.675 1.067-1.056 1.569a27.033 27.033 0 0 1-14.293 9.808 27.084 27.084 0 0 1-7.4 1.033c-11.18 0-21.541-6.97-25.645-17.834-4.105 10.864-14.466 17.834-25.647 17.834a27.1 27.1 0 0 1-7.4-1.033 27.035 27.035 0 0 1-14.292-9.808 17.704 17.704 0 0 1-1.055-1.569l-.005.002c-1.16-1.61-2.338-2.047-3.566-2.047-1.445 0-2.958.604-4.593.604-1.743 0-3.626-.686-5.707-3.523 1.846-1.843 3.91-2.638 5.974-2.638 1.95 0 3.9.71 5.661 1.916a18.075 18.075 0 0 1 .31-8.64c2.23-7.869 9.562-13.296 17.158-13.296 1.663 0 3.337.26 4.973.811 2.906.977 4.467 2.73 5.325 3.986-2.863 2.86-5.36 3.73-7.608 3.73-3.48 0-6.367-2.083-9.1-2.083-1.329 0-2.623.493-3.93 1.956a14.072 14.072 0 0 0-2.846 5.306 14.092 14.092 0 0 0 2.326 12.398 21.085 21.085 0 0 0 11.148 7.65c1.927.546 3.866.807 5.776.807 9.314 0 17.903-6.2 20.59-15.68 3.24-11.424-3.31-23.286-14.632-26.497-1.935-.547-3.916-.797-5.937-.797-20.31 0-44.8 25.147-68.14 25.147-2.71 0-5.407-.339-8.079-1.097-8.366-2.371-13.207-11.137-10.813-19.58 1.25-4.404 4.302-7.732 8.032-9.613h-79.6c-.889 1.608-2.39 2.366-2.39 2.366s-1.384-3.056-5.971-4.394v9.528H43.4v-4.316c-2.269.256-6.448 1.236-6.448 4.794 0 2.904 2.15 3.492 3.893 3.492 1.193 0 2.198-.274 2.198-.274-.55 4.54-4.447 7.03-8.268 7.03-3.606 0-7.143-2.221-7.723-7.03-1.105-9.165 11.936-10.682 16.348-10.932v-2.907c-12.442.036-17.447 5.964-25.776 5.964-8.36 0-16.115-7.641-16.115-7.641s7.755-7.635 16.115-7.635c8.329 0 13.334 5.934 25.776 5.968v-2.912c-4.412-.252-17.453-1.761-16.348-10.93.58-4.81 4.117-7.032 7.723-7.032 3.82.002 7.718 2.491 8.268 7.032 0 0-1.007-.277-2.201-.277-1.744 0-3.89.59-3.89 3.5 0 3.563 4.18 4.531 6.448 4.788v-4.305h4.777v9.523c4.587-1.338 5.972-4.395 5.972-4.395s1.499.754 2.387 2.36h360.637c.888-1.606 2.388-2.36 2.388-2.36s1.384 3.057 5.97 4.395v-9.523h4.777v4.305c2.27-.257 6.45-1.225 6.45-4.788 0-2.91-2.147-3.5-3.89-3.5a9.25 9.25 0 0 0-2.201.277c.549-4.542 4.446-7.032 8.267-7.032" fill="#B49759" mask="url(#b)"/><path d="M198.65 54.592c-7.157-2.61-14.159-6.45-20.967-10.184-10.865-5.955-21.126-11.582-30.697-11.582-2.065 0-4.068.272-5.95.806a10.218 10.218 0 0 0-6.195 4.93 10.418 10.418 0 0 0-.898 7.926c.76 2.686 2.33 4.374 5.41 5.812.51.113.99.17 1.428.17 2.193 0 3.359-1.457 4.838-3.3 2.145-2.676 4.814-6.006 11.687-6.006.448 0 .916.015 1.403.044.413.025.73.381.706.796-.015.291-.436 6.453-6.242 10.588h45.477zm56.35 0c-5.622-2.85-10.128-7.539-12.786-13.35-2.656 5.811-7.161 10.5-12.786 13.35h25.573zm76.257 0c-5.801-4.132-6.228-10.297-6.245-10.588a.756.756 0 0 1 .708-.796c.487-.029.953-.044 1.404-.044 6.87 0 9.54 3.33 11.685 6.006 1.479 1.843 2.646 3.3 4.84 3.3a6.63 6.63 0 0 0 1.425-.17c3.08-1.438 4.651-3.125 5.413-5.812 1.57-5.535-1.61-11.303-7.092-12.856a21.817 21.817 0 0 0-5.952-.806c-9.57 0-19.832 5.627-30.697 11.584-6.811 3.734-13.812 7.571-20.967 10.182h45.478zM438.934 82.96c-4.018 0-8.406-2.644-9.016-7.696a.752.752 0 0 1 .948-.817c.01.002.932.25 2 .25 2.811 0 3.136-1.568 3.136-2.747 0-2.588-2.797-3.558-4.94-3.92v3.318c0 .416-.338.873-.754.873h-4.776a.754.754 0 0 1-.754-.754v-8.473c-3.398 1.307-4.484 3.557-4.533 3.661a.765.765 0 0 1-.688.437.755.755 0 0 1-.336-.08c-.065-.031-1.478-.755-2.474-2.278H56.961c-.995 1.523-2.408 2.247-2.473 2.278a.765.765 0 0 1-.592.038.75.75 0 0 1-.434-.4c-.047-.099-1.133-2.349-4.531-3.656v8.354c0 .416-.336.873-.754.873H43.4a.754.754 0 0 1-.754-.754V68.03c-2.142.364-4.939 1.332-4.939 3.92 0 1.054.314 1.78.961 2.218.516.351 1.25.53 2.174.53 1.07 0 1.99-.25 2.001-.251a.75.75 0 0 1 .69.157c.191.163.29.412.258.66-.61 5.052-4.998 7.696-9.016 7.696-3.48 0-7.788-2.016-8.47-7.697-.292-2.414.304-4.527 1.773-6.281 3.431-4.097 10.862-5.167 14.568-5.444v-1.443c-6.281.145-10.65 1.856-14.521 3.372-3.396 1.331-6.602 2.588-10.501 2.588-8.57 0-16.32-7.532-16.645-7.853a.755.755 0 0 1 0-1.074c.326-.32 8.076-7.858 16.645-7.858 3.899 0 7.105 1.255 10.5 2.583 3.873 1.516 8.24 3.225 14.522 3.37v-1.438c-3.703-.276-11.132-1.343-14.568-5.445-1.47-1.754-2.065-3.867-1.774-6.281.683-5.68 4.991-7.694 8.471-7.694 4.02 0 8.406 2.643 9.016 7.694a.751.751 0 0 1-.75.844.807.807 0 0 1-.198-.025 8.576 8.576 0 0 0-1.998-.25c-2.812 0-3.138 1.563-3.138 2.74 0 2.593 2.797 3.563 4.939 3.926v-3.323c0-.418.338-.88.754-.88h4.777c.418 0 .754.337.754.754v8.479c3.398-1.308 4.484-3.556 4.533-3.66a.762.762 0 0 1 .687-.438c.117 0 .231.027.338.08.065.032 1.48.76 2.474 2.285h76.486a16.002 16.002 0 0 1-6.069-8.655c-2.502-8.828 2.581-18.028 11.334-20.509A30.385 30.385 0 0 1 147 24.303c12.267 0 24.721 6.771 36.769 13.319 11.187 6.082 21.756 11.826 31.364 11.826h.005c2.003 0 3.93-.26 5.729-.768 5.282-1.497 9.66-4.98 12.324-9.806 2.669-4.83 3.304-10.427 1.79-15.76-2.526-8.909-10.693-15.13-19.864-15.13-1.875 0-3.747.26-5.568.776a20.246 20.246 0 0 0-10.753 7.379c-2.562 3.372-3.363 7.65-2.202 11.74a13.259 13.259 0 0 0 2.694 5.023c1.027 1.147 2.095 1.689 3.355 1.689 1.157 0 2.416-.439 3.751-.905 1.584-.552 3.376-1.178 5.35-1.178 2.818 0 5.48 1.293 8.14 3.953a.754.754 0 0 1 .09.959c-1.393 2.03-3.313 3.468-5.708 4.274a16.303 16.303 0 0 1-5.213.849c-8.09 0-15.61-5.823-17.886-13.844a18.697 18.697 0 0 1-.588-7.37c-1.53.784-3.115 1.195-4.656 1.195-2.385 0-4.634-.99-6.507-2.86a.756.756 0 0 1-.076-.98c1.92-2.612 3.928-3.829 6.319-3.829.915 0 1.763.168 2.583.33.71.14 1.382.272 2.008.272.843 0 1.854-.205 2.955-1.731l.012-.02a18.36 18.36 0 0 1 1.059-1.562 27.663 27.663 0 0 1 14.687-10.078 27.908 27.908 0 0 1 7.606-1.062c11.011 0 21.095 6.61 25.645 16.625 4.551-10.015 14.637-16.625 25.647-16.625 2.561 0 5.12.357 7.607 1.062a27.655 27.655 0 0 1 14.686 10.08c.355.464.702.977 1.056 1.562.005.006.01.01.015.018 1.1 1.526 2.109 1.731 2.952 1.731.628 0 1.297-.133 2.01-.273.818-.161 1.668-.329 2.583-.329 2.39 0 4.398 1.217 6.317 3.83a.756.756 0 0 1-.074.98c-1.875 1.87-4.124 2.859-6.508 2.859-1.539 0-3.126-.41-4.657-1.195a18.673 18.673 0 0 1-.586 7.37c-2.277 8.021-9.799 13.844-17.888 13.844a16.3 16.3 0 0 1-5.211-.85c-2.399-.806-4.319-2.245-5.708-4.275a.752.752 0 0 1 .09-.957c2.66-2.66 5.324-3.953 8.141-3.953 1.975 0 3.766.626 5.349 1.178 1.335.466 2.596.905 3.751.905 1.26 0 2.329-.542 3.368-1.703a13.28 13.28 0 0 0 2.682-5.01c1.158-4.09.358-8.367-2.202-11.736A20.252 20.252 0 0 0 274.88 8.76a20.427 20.427 0 0 0-5.568-.777c-9.17 0-17.34 6.222-19.866 15.132-3.122 11.005 3.211 22.474 14.114 25.565 1.8.51 3.728.768 5.73.768 9.61 0 20.179-5.744 31.366-11.826 12.047-6.548 24.506-13.319 36.774-13.319 2.863 0 5.65.379 8.285 1.125 4.242 1.202 7.756 4 9.896 7.874 2.138 3.872 2.648 8.36 1.436 12.635-.998 3.52-3.116 6.518-6.07 8.655h65.768c.994-1.525 2.409-2.253 2.474-2.285a.76.76 0 0 1 .59-.039.76.76 0 0 1 .437.401c.047.1 1.133 2.348 4.53 3.656v-8.353c0-.418.339-.88.755-.88h4.776c.416 0 .754.337.754.754v3.45c2.143-.363 4.94-1.334 4.94-3.928 0-1.176-.325-2.738-3.14-2.738a8.571 8.571 0 0 0-1.996.249.756.756 0 0 1-.947-.819c.609-5.05 4.997-7.694 9.013-7.694 3.48 0 7.788 2.015 8.473 7.694.29 2.414-.305 4.527-1.774 6.28-3.436 4.103-10.865 5.17-14.57 5.446v1.439c6.283-.146 10.653-1.855 14.523-3.37 3.395-1.33 6.602-2.584 10.501-2.584 8.57 0 16.32 7.537 16.645 7.858a.75.75 0 0 1 .225.537.75.75 0 0 1-.225.537c-.326.321-8.076 7.853-16.645 7.853-3.899 0-7.106-1.257-10.5-2.588-3.873-1.516-8.241-3.227-14.523-3.372v1.443c3.706.277 11.137 1.347 14.569 5.444 1.469 1.754 2.065 3.867 1.774 6.28-.685 5.682-4.993 7.698-8.471 7.698z" fill="#B49759"/><mask id="d" fill="#fff"><use xlink:href="#c"/></mask><path d="M232.265 53.837a28.717 28.717 0 0 0 9.949-10.882 28.721 28.721 0 0 0 9.95 10.882h-19.9zm-92.667-2.256c-2.809-1.325-4.242-2.87-4.931-5.3a9.669 9.669 0 0 1 .834-7.357 9.468 9.468 0 0 1 5.74-4.567 21.025 21.025 0 0 1 5.745-.777c9.377 0 19.555 5.581 30.333 11.49 5.657 3.102 11.446 6.275 17.36 8.767h-39.396c4.507-4.22 4.87-9.514 4.886-9.791a1.509 1.509 0 0 0-1.415-1.591c-.501-.03-.985-.045-1.448-.045-7.237 0-10.15 3.634-12.277 6.288-1.588 1.983-2.5 3.018-4.249 3.018-.359 0-.755-.046-1.182-.135zm150.152 2.256c5.914-2.492 11.703-5.665 17.36-8.767 10.778-5.909 20.956-11.488 30.332-11.49 2.026 0 3.905.255 5.747.777a9.46 9.46 0 0 1 5.738 4.567 9.67 9.67 0 0 1 .836 7.357c-.69 2.43-2.124 3.975-4.933 5.3a5.825 5.825 0 0 1-1.182.135c-1.75 0-2.661-1.035-4.25-3.018-2.126-2.654-5.04-6.288-12.274-6.288-.465 0-.948.015-1.45.045a1.507 1.507 0 0 0-1.413 1.59c.015.278.377 5.571 4.884 9.792H289.75zM267.86.25v1.508V.25c-10.781 0-20.697 6.169-25.646 15.657C237.267 6.42 227.349.25 216.569.25c-2.63 0-5.258.366-7.812 1.09a28.41 28.41 0 0 0-15.086 10.353c-.36.475-.715.998-1.08 1.594-.943 1.307-1.702 1.417-2.34 1.417-.553 0-1.19-.127-1.863-.26-.816-.16-1.74-.343-2.73-.343-2.651 0-4.852 1.315-6.925 4.138-.44.6-.377 1.433.15 1.959 2.018 2.015 4.452 3.08 7.042 3.08 1.258 0 2.54-.253 3.8-.74a19.702 19.702 0 0 0 .718 6.367c2.365 8.34 10.192 14.393 18.611 14.393 1.866 0 3.7-.3 5.453-.89 2.555-.86 4.603-2.395 6.09-4.563a1.508 1.508 0 0 0-.179-1.918c-2.81-2.807-5.647-4.172-8.676-4.172-2.1 0-3.958.647-5.597 1.219-1.272.445-2.474.864-3.503.864-.701 0-1.654-.166-2.804-1.452a12.511 12.511 0 0 1-2.52-4.714c-1.094-3.86-.338-7.896 2.077-11.074a19.506 19.506 0 0 1 10.36-7.112 19.63 19.63 0 0 1 5.361-.75c8.835 0 16.705 5.998 19.141 14.585 1.457 5.14.845 10.534-1.725 15.187-2.569 4.65-6.783 8.005-11.87 9.447a20.3 20.3 0 0 1-5.525.74c-9.418 0-19.905-5.7-31.007-11.735-12.13-6.594-24.673-13.411-37.132-13.413-2.933 0-5.788.39-8.49 1.155-9.154 2.594-14.47 12.214-11.852 21.441a16.691 16.691 0 0 0 4.69 7.694H57.359c-1.052-1.428-2.36-2.118-2.53-2.203a1.49 1.49 0 0 0-1.18-.077 1.507 1.507 0 0 0-.873.8c-.033.069-.808 1.624-3.089 2.804v-7.315a1.51 1.51 0 0 0-1.508-1.508H43.4c-.833 0-1.508.676-1.508 1.508v2.52c-1.604-.401-3.432-1.243-3.432-2.998 0-.96.184-1.985 2.385-1.985.96 0 1.793.22 1.802.222a1.505 1.505 0 0 0 1.38-.317c.379-.327.572-.822.512-1.32-.664-5.485-5.415-8.357-9.764-8.357-4.087 0-8.525 2.585-9.222 8.36-.317 2.628.338 4.934 1.946 6.853 3.131 3.739 9.136 5.093 13.53 5.574-5.257-.36-8.998-1.823-12.63-3.245-3.464-1.356-6.736-2.636-10.775-2.636-8.877 0-16.841 7.745-17.176 8.075a1.51 1.51 0 0 0 .002 2.15c.334.328 8.299 8.067 17.174 8.067 4.04 0 7.312-1.282 10.775-2.639 3.666-1.436 7.441-2.913 12.772-3.257-4.406.467-10.51 1.81-13.672 5.587-1.608 1.918-2.263 4.225-1.946 6.855.697 5.775 5.133 8.36 9.222 8.36 4.349 0 9.1-2.872 9.764-8.36a1.505 1.505 0 0 0-.513-1.322 1.505 1.505 0 0 0-1.385-.312c-.004.001-.84.223-1.8.223-2.197 0-2.381-1.029-2.381-1.992 0-1.743 1.748-2.59 3.432-2.998v2.514c0 .834.675 1.508 1.508 1.508h4.777c.832 0 1.508-.674 1.508-1.508v-7.31c2.28 1.183 3.058 2.739 3.097 2.82a1.532 1.532 0 0 0 1.378.864c.23 0 .458-.05.666-.155.167-.084 1.476-.772 2.53-2.199h358.996c1.053 1.427 2.362 2.115 2.53 2.2a1.507 1.507 0 0 0 2.051-.726c.033-.068.807-1.623 3.09-2.804v7.31c0 .834.675 1.508 1.508 1.508h4.777c.832 0 1.508-.674 1.508-1.508v-2.514c1.683.409 3.431 1.255 3.431 2.998 0 .963-.184 1.992-2.381 1.992-.96 0-1.795-.222-1.804-.225a1.517 1.517 0 0 0-1.382.317 1.513 1.513 0 0 0-.513 1.32c.665 5.487 5.415 8.358 9.765 8.358 4.088 0 8.526-2.584 9.22-8.359.318-2.63-.335-4.937-1.943-6.855-3.163-3.778-9.266-5.12-13.674-5.587 5.332.344 9.108 1.821 12.773 3.257 3.463 1.357 6.735 2.64 10.776 2.64 8.875 0 16.84-7.74 17.174-8.069a1.508 1.508 0 0 0 0-2.149c-.335-.33-8.299-8.075-17.174-8.075-4.041 0-7.313 1.28-10.776 2.636-3.632 1.422-7.373 2.885-12.63 3.245 4.393-.481 10.4-1.835 13.53-5.574 1.609-1.92 2.262-4.225 1.945-6.854-.695-5.774-5.133-8.357-9.22-8.359-4.35 0-9.1 2.872-9.766 8.358-.06.499.133.995.513 1.324a1.511 1.511 0 0 0 1.385.312 7.852 7.852 0 0 1 1.798-.222c2.2 0 2.384 1.024 2.384 1.985 0 1.755-1.828 2.597-3.431 2.998v-2.52a1.51 1.51 0 0 0-1.508-1.508h-4.777a1.51 1.51 0 0 0-1.509 1.508v7.315c-2.282-1.182-3.057-2.738-3.096-2.82a1.529 1.529 0 0 0-1.38-.864c-.23 0-.46.052-.667.157-.168.085-1.477.775-2.53 2.203h-63.268a16.716 16.716 0 0 0 4.691-7.694c2.617-9.227-2.7-18.847-11.852-21.44-2.7-.767-5.557-1.154-8.49-1.156-12.46 0-25.003 6.818-37.133 13.413-11.102 6.035-21.588 11.735-31.006 11.735-1.934 0-3.794-.25-5.525-.74-5.086-1.442-9.3-4.797-11.87-9.447-2.57-4.653-3.182-10.048-1.725-15.187 2.434-8.587 10.305-14.584 19.141-14.584 1.804 0 3.61.252 5.362.75a19.494 19.494 0 0 1 10.354 7.104c2.419 3.185 3.176 7.222 2.081 11.082a12.543 12.543 0 0 1-2.543 4.74c-1.127 1.259-2.079 1.425-2.78 1.425-1.03 0-2.232-.42-3.504-.864-1.64-.572-3.496-1.219-5.597-1.219-3.028 0-5.865 1.364-8.675 4.172a1.506 1.506 0 0 0-.178 1.918c1.484 2.168 3.533 3.703 6.09 4.563 1.752.59 3.586.89 5.452.89 8.42 0 16.247-6.053 18.612-14.393a19.69 19.69 0 0 0 .716-6.367c1.261.487 2.543.74 3.801.74 2.59 0 5.024-1.065 7.041-3.08a1.507 1.507 0 0 0 .151-1.96c-2.074-2.822-4.273-4.137-6.925-4.137-.99 0-1.915.182-2.73.344-.674.132-1.31.26-1.863.26-.638 0-1.398-.111-2.34-1.418a19.736 19.736 0 0 0-1.084-1.6A28.416 28.416 0 0 0 275.672 1.34 28.632 28.632 0 0 0 267.86.25zm-42.132 55.095h32.974c-7.827-2.717-13.692-8.736-16.488-16.054-2.795 7.318-8.66 13.337-16.486 16.054zm-84.948-2.121c6.046 0 5.246-9.308 16.526-9.306.433 0 .887.013 1.357.042-.077 1.357-1.158 7.944-8.243 11.385h52.996c-20.126-5.664-39.287-23.273-56.43-23.273-2.082 0-4.136.26-6.158.834-5.89 1.67-9.299 7.843-7.612 13.786.932 3.288 3.033 5.004 5.894 6.327a7.48 7.48 0 0 0 1.67.205zm140.232 2.121h52.997c-7.084-3.44-8.166-10.028-8.243-11.385.47-.029.923-.042 1.358-.042 11.278 0 10.478 9.306 16.524 9.306.505 0 1.059-.065 1.67-.205 2.862-1.323 4.963-3.04 5.896-6.327 1.684-5.943-1.723-12.117-7.613-13.786a22.453 22.453 0 0 0-6.159-.834c-17.14.003-36.304 17.61-56.43 23.273zM267.86 1.758c2.447 0 4.933.333 7.4 1.033a27.03 27.03 0 0 1 14.292 9.808c.382.502.73 1.028 1.056 1.568l.004-.001c1.16 1.61 2.338 2.046 3.566 2.046 1.445 0 2.958-.603 4.593-.603 1.744 0 3.626.686 5.71 3.523-1.847 1.842-3.912 2.637-5.977 2.637-1.95 0-3.899-.71-5.66-1.915a18.093 18.093 0 0 1-.308 8.64c-2.233 7.868-9.565 13.296-17.16 13.296a15.53 15.53 0 0 1-4.972-.812c-2.906-.977-4.467-2.73-5.326-3.985 2.864-2.861 5.359-3.73 7.608-3.73 3.481 0 6.366 2.083 9.101 2.083 1.327 0 2.622-.493 3.93-1.956a14.09 14.09 0 0 0 2.844-5.307 14.092 14.092 0 0 0-2.326-12.397 21.079 21.079 0 0 0-11.148-7.65 21.151 21.151 0 0 0-5.774-.807c-9.316 0-17.904 6.2-20.592 15.68-3.24 11.424 3.312 23.287 14.634 26.496 1.934.548 3.914.798 5.937.798 20.308 0 44.798-25.15 68.14-25.148 2.71 0 5.407.34 8.077 1.098 8.367 2.37 13.207 11.137 10.813 19.579-1.249 4.405-4.3 7.733-8.032 9.613h68.882c.887-1.607 2.388-2.366 2.388-2.366s1.386 3.057 5.972 4.395v-9.528h4.777v4.316c2.268-.256 6.448-1.237 6.448-4.794 0-2.905-2.148-3.493-3.893-3.493-1.193 0-2.198.275-2.198.275.55-4.54 4.448-7.03 8.267-7.03 3.607 0 7.144 2.22 7.723 7.03 1.106 9.164-11.935 10.681-16.347 10.932v2.907c12.442-.036 17.447-5.964 25.776-5.964 8.36 0 16.115 7.64 16.115 7.64s-7.756 7.636-16.115 7.636c-8.33 0-13.334-5.934-25.776-5.969v2.912c4.412.252 17.453 1.762 16.347 10.93-.58 4.811-4.116 7.032-7.723 7.032-3.819 0-7.716-2.49-8.267-7.032 0 0 1.006.278 2.2.278 1.744 0 3.89-.591 3.89-3.5 0-3.564-4.179-4.532-6.447-4.788v4.304h-4.777v-9.522c-4.586 1.338-5.972 4.394-5.972 4.394s-1.5-.754-2.386-2.36H56.536c-.889 1.606-2.387 2.36-2.387 2.36s-1.386-3.056-5.971-4.394v9.522H43.4v-4.304c-2.269.256-6.448 1.224-6.448 4.788 0 2.909 2.145 3.5 3.89 3.5 1.193 0 2.199-.278 2.199-.278-.55 4.543-4.447 7.032-8.266 7.032-3.606 0-7.143-2.22-7.724-7.032-1.104-9.168 11.937-10.678 16.349-10.93v-2.912c-12.444.035-17.447 5.969-25.776 5.969-8.36 0-16.117-7.635-16.117-7.635s7.757-7.641 16.117-7.641c8.329 0 13.332 5.928 25.776 5.964v-2.907c-4.412-.25-17.453-1.768-16.35-10.932.582-4.81 4.117-7.03 7.725-7.03 3.82 0 7.717 2.49 8.266 7.03 0 0-1.003-.275-2.196-.275-1.745 0-3.893.59-3.893 3.493 0 3.557 4.18 4.538 6.448 4.794v-4.316h4.777v9.528c4.585-1.338 5.971-4.395 5.971-4.395s1.501.759 2.388 2.366h79.602c-3.732-1.88-6.783-5.208-8.032-9.613-2.395-8.442 2.447-17.208 10.812-19.579 2.673-.759 5.367-1.098 8.079-1.098 23.341.003 47.831 25.148 68.14 25.148 2.02 0 4.004-.25 5.936-.798 11.322-3.209 17.874-15.072 14.634-26.496-2.689-9.482-11.276-15.68-20.592-15.68-1.908 0-3.849.26-5.774.807a21.079 21.079 0 0 0-11.148 7.65 14.097 14.097 0 0 0-2.327 12.397 14.093 14.093 0 0 0 2.846 5.307c1.308 1.463 2.6 1.956 3.93 1.956 2.732 0 5.62-2.083 9.1-2.083 2.248 0 4.744.869 7.609 3.73-.86 1.256-2.421 3.008-5.326 3.985-1.637.552-3.31.812-4.972.812-7.596 0-14.93-5.428-17.16-13.297a18.074 18.074 0 0 1-.308-8.639c-1.762 1.205-3.71 1.915-5.66 1.915-2.066 0-4.13-.795-5.977-2.637 2.083-2.837 3.964-3.523 5.71-3.523 1.633 0 3.147.603 4.592.603 1.226 0 2.406-.436 3.564-2.046l.005.001c.327-.54.674-1.066 1.056-1.568a27.033 27.033 0 0 1 14.293-9.808 27.092 27.092 0 0 1 7.4-1.033c11.18 0 21.54 6.97 25.645 17.834C246.32 8.728 256.679 1.758 267.86 1.758z" fill="#B49759" mask="url(#d)"/><mask id="f" fill="#fff"><use xlink:href="#e"/></mask><path fill="#B49759" mask="url(#f)" d="M408.471 240.437h12.639V62.622h-12.64z"/><path stroke="#B49759" stroke-width="2" stroke-linecap="round" stroke-linejoin="round" mask="url(#f)" d="M408.471 240.437h12.639V62.622h-12.64z"/><path fill="#B49759" mask="url(#f)" d="M54.617 240.437h12.639V62.622H54.617z"/><path stroke="#B49759" stroke-width="2" stroke-linecap="round" stroke-linejoin="round" mask="url(#f)" d="M54.617 240.437h12.639V62.622H54.617z"/><path fill="#B49759" mask="url(#f)" d="M54.617 67.486h353.854V55.82H54.617z"/><path stroke="#B49759" stroke-width="2" stroke-linecap="round" stroke-linejoin="round" mask="url(#f)" d="M54.617 67.486h353.854V55.82H54.617z"/><path fill="#B49759" mask="url(#f)" d="M54.617 247.226h353.854V235.56H54.617z"/><path stroke="#B49759" stroke-width="2" stroke-linecap="round" stroke-linejoin="round" mask="url(#f)" d="M54.617 247.226h353.854V235.56H54.617z"/><path d="M189.8 88.509c0 .003-5.502 49.01-7.063 62.636-.67 5.8-1.338 11.495-2.008 17.075-.04.324-.08.644-.116.964-.774-4.745-1.597-9.846-2.477-15.3-1.286-8-2.603-15.89-3.943-23.674a6416.217 6416.217 0 0 0-3.777-21.637c-1.172-6.656-2.229-12.055-3.105-15.876-.347-1.863-1.6-4.442-5.617-6.146-4.397-1.86-8.984-1.993-13.9-.368-4.368 1.468-5.665 4.491-6.038 6.12-.92 3.799-1.98 9.102-3.152 15.766a6502.055 6502.055 0 0 0-3.777 21.638 1787.452 1787.452 0 0 0-3.949 23.765c-.887 5.536-1.718 10.714-2.496 15.537-.032-.261-.065-.524-.094-.789-.668-5.58-1.338-11.275-2.009-17.075-1.567-13.627-7.003-62.692-7.003-62.692l-.421-3.775-28.516.035v9.262c0 2.7.614 5.039 1.832 6.967 1.06 1.662 2.23 2.912 3.562 3.81.28.24.525.493.706.716 0 0 .08.103.163.374l4.151 35.734a10.758 10.758 0 0 0-3.793 8.219c0 4.156 2.336 7.8 5.872 9.593l2.036 17.364c.73 6.277 1.398 11.899 2.012 16.875l1.513 12.157c.34 2.717.523 4.29.549 4.506l.035.538c.208 1.62.84 3.156 1.88 4.568 1.414 1.928 3.551 2.987 6.016 2.987h18.943c2.994 0 4.844-1.236 5.847-2.254 1.1-1.1 2.016-2.621 2.8-4.651l10.248-58.222 9.788 57.412.219.8c.783 2.044 1.703 3.572 2.789 4.65 1.026 1.035 2.875 2.265 5.863 2.265h18.776c2.458 0 4.593-1.059 6.008-2.984 1.05-1.428 1.684-2.973 1.884-4.59l.027-.307c.028-.427.218-1.998.56-4.718l1.508-12.154c.618-4.976 1.286-10.601 2.016-16.878.653-5.629 1.33-11.402 2.037-17.372a10.736 10.736 0 0 0 5.835-9.585 10.77 10.77 0 0 0-3.763-8.198l4.156-35.758c.069-.219.122-.314.116-.317a6.19 6.19 0 0 1 .743-.767c1.334-.898 2.533-2.182 3.574-3.823 1.215-1.918 1.83-4.257 1.83-6.957V84.7l-28.456.053-.42 3.757zm86.612 72.704c-1.85.863-4.954 3.166-4.954 8.866l.003.638c.053 13.848.01 21.88-.072 25.686h-10.393l-.167-91.302c0-.118.001-.223.004-.317 1.245-.93 2.406-2.153 3.545-3.727 1.428-1.96 2.15-4.377 2.15-7.177v-9.268h-36.47v9.268c0 2.808.729 5.227 2.148 7.172 1.151 1.591 2.319 2.816 3.572 3.754l.146.104.002.191v35.314a10.819 10.819 0 0 0-5.285 9.282 10.82 10.82 0 0 0 5.285 9.281v59.459l51.848.01c1.958 0 3.806-.749 5.454-2.201 1.834-1.585 2.804-3.796 2.804-6.388V159.65H284.76c-3.21 0-6.176.553-8.348 1.563m77.221-45.443v71.9c0 3.015-.565 5.365-1.675 6.97-.545.79-1.53 1.696-4.317 1.696h-9.676v-89.238h9.676c2.784 0 3.77.908 4.314 1.694 1.113 1.612 1.678 3.958 1.678 6.978m25.07 25.165v-24.832c0-4.535-.568-8.72-1.687-12.447-1.189-3.955-3.118-7.388-5.732-10.21-2.624-2.823-5.953-5.022-9.886-6.519-3.834-1.473-8.466-2.215-13.757-2.215h-40.275v9.102c0 2.923.445 5.24 1.364 7.092 1 1.999 2.454 3.507 4.33 4.487v35.015a10.752 10.752 0 0 0-5.484 9.396c0 3.996 2.167 7.527 5.484 9.388v59.158h39.02l.188-.017c8.462-.761 14.904-3.703 19.155-8.74 4.831-5.74 7.28-13.34 7.28-22.59V158.67a10.704 10.704 0 0 0 4.666-8.866 10.71 10.71 0 0 0-4.667-8.869" fill="#B49759" mask="url(#f)"/><path d="M194.011 88.983s-5.502 49.017-7.063 62.646c-.673 5.81-1.341 11.51-2.013 17.094a1883.225 1883.225 0 0 1-1.844 14.919c-.564 4.356-1.006 7.873-1.343 10.556-.333 2.687-.56 4.025-.67 4.025-1.339-8.153-2.546-15.474-3.604-21.957-1.06-6.477-2.23-13.713-3.52-21.708a2184.964 2184.964 0 0 0-3.936-23.626 7681.906 7681.906 0 0 0-3.773-21.627c-1.173-6.647-2.206-11.923-3.102-15.839-.23-1.227-1.258-2.229-3.101-3.013-1.847-.783-3.719-1.169-5.613-1.169-1.68 0-3.44.306-5.287.916-1.84.618-2.935 1.65-3.268 3.099-.896 3.693-1.93 8.858-3.1 15.505a8184.086 8184.086 0 0 0-3.772 21.625 1804.113 1804.113 0 0 0-3.94 23.711 8387.684 8387.684 0 0 1-3.525 21.88c-1.058 6.536-2.26 13.933-3.602 22.203-.11 0-.36-1.338-.751-4.025-.396-2.683-.84-6.2-1.344-10.556a2542.74 2542.74 0 0 0-1.762-14.92 3998.371 3998.371 0 0 1-2.006-17.093c-1.569-13.63-7.008-62.71-7.008-62.71l-20.486.025v5.032c0 1.898.392 3.46 1.17 4.688.783 1.234 1.617 2.12 2.517 2.68.554.455 1.06.96 1.506 1.508.445.566.786 1.29 1.004 2.185 1.619 13.954 3.114 26.833 4.494 38.692a6.557 6.557 0 0 0-4.073 6.065c0 3.272 2.401 5.957 5.533 6.46.031.239.059.5.087.736.776 6.596 1.536 13.022 2.263 19.276a2462.37 2462.37 0 0 0 2.006 16.845c.615 4.973 1.122 9.024 1.511 12.148.392 3.135.584 4.81.584 5.03.115.895.477 1.764 1.095 2.602.612.834 1.481 1.255 2.597 1.255h18.944c1.23 0 2.182-.335 2.85-1.009.666-.666 1.281-1.73 1.842-3.182l14.251-81.62 13.916 81.62c.557 1.452 1.17 2.516 1.842 3.182.671.674 1.62 1.009 2.854 1.009h18.774c1.115 0 1.98-.42 2.593-1.255.616-.838.984-1.707 1.094-2.603 0-.218.194-1.894.588-5.029.39-3.124.89-7.175 1.508-12.148.616-4.972 1.284-10.582 2.013-16.845.727-6.254 1.48-12.68 2.262-19.276.024-.237.057-.503.085-.737 3.117-.51 5.497-3.196 5.497-6.46a6.575 6.575 0 0 0-4.04-6.063c1.386-11.86 2.876-24.733 4.496-38.693.22-.896.552-1.62 1.002-2.185a10.46 10.46 0 0 1 1.505-1.508c.899-.56 1.737-1.446 2.52-2.68.779-1.227 1.17-2.79 1.17-4.688v-5.032l-20.427.039zm90.749 74.902c-2.462 0-4.877.386-6.556 1.17-1.679.783-2.513 2.458-2.513 5.023 0 .678.146 29.027-.24 29.636-.396.625-.974.926-1.762.926h-14.751c-.786 0-1.338-.336-1.676-1.003-.333-.674-.5-1.456-.5-2.346l-.168-92.187c0-1.226.14-2.065.42-2.51.28-.448.693-.84 1.256-1.18.894-.666 1.784-1.613 2.683-2.846.893-1.23 1.34-2.789 1.34-4.692v-5.029h-27.996v5.03c0 1.902.445 3.46 1.341 4.69.895 1.234 1.79 2.181 2.68 2.846.563.341 1.013.733 1.342 1.181.337.445.503 1.284.503 2.51v38.157a6.561 6.561 0 0 0 0 12.871V214.2l44.258.014h3.352c.897 0 1.787-.382 2.683-1.173.898-.776 1.341-1.842 1.341-3.184v-45.972h-7.038zm73.11 23.784c0 3.916-.813 7.04-2.427 9.386-1.632 2.352-4.225 3.516-7.8 3.516h-12.067c-.567 0-1.006-.245-1.35-.757a2.81 2.81 0 0 1-.499-1.585v-93.018c0-.565.195-1.092.587-1.59.389-.509.974-.758 1.762-.758h11.567c3.575 0 6.168 1.17 7.8 3.52 1.614 2.345 2.427 5.476 2.427 9.386v71.9zm21.262-37.865c0-2.965-1.972-5.435-4.664-6.256v-27.446c0-4.132-.501-7.88-1.509-11.227-1.009-3.354-2.603-6.2-4.78-8.546-2.182-2.347-4.943-4.167-8.297-5.449-3.353-1.283-7.43-1.933-12.239-1.933H311.6v4.867c0 2.23.309 3.967.921 5.198.614 1.227 1.483 2.117 2.602 2.676.561.225 1.063.646 1.51 1.255.44.617.667 1.428.667 2.431v37.97c-3.108.518-5.488 3.2-5.488 6.46 0 3.255 2.38 5.932 5.488 6.45v57.86h34.59c7.31-.657 12.757-3.062 16.29-7.253 4.191-4.973 6.288-11.592 6.288-19.859v-30.946c2.692-.824 4.664-3.292 4.664-6.252z" fill="#FEFEFE" mask="url(#f)"/></g></g></svg>