<svg width="475" height="454" viewBox="0 0 475 454" xmlns="http://www.w3.org/2000/svg" xmlns:xlink="http://www.w3.org/1999/xlink"><title>WST</title><defs><path id="a" d="M0 453h474.89V.574H0z"/></defs><g fill="none" fill-rule="evenodd"><path d="M50.934 213.1c-3.984 3.152-4.684 8.922-1.564 12.864 6.508 8.222 19.198 9.796 32.634 11.464 4.578.566 9.2 1.148 13.692 1.984L56.742 211.11a9.235 9.235 0 0 0-5.808 1.99m93.646 203.066c1.767 4.762 7.037 7.212 11.751 5.464 9.83-3.648 15.248-15.232 20.986-27.496 1.978-4.228 3.98-8.494 6.194-12.55l-38.99 28.33a9.227 9.227 0 0 0 .058 6.252m-15.321-74.199c-3.166 3.36-6.596 6.584-9.998 9.772-9.878 9.26-19.208 18.004-19.626 28.482-.2 5.024 3.764 9.274 8.84 9.476a9.236 9.236 0 0 0 5.864-1.81l14.92-45.92zm12.211-37.582l8.338-25.658-21.928-15.932c2.328 8.766-.098 18.42-6.798 25.12 9.436 1.47 17.14 7.922 20.388 16.47m50.188-154.462c-7.618 4.922-17.55 5.598-25.992 1.298 1.518 9.428-2.238 18.748-9.362 24.48h26.978l8.376-25.778zM68.503 175.7h48.284c-4.174-1.972-8.3-4.238-12.384-6.488-11.858-6.534-23.058-12.704-33.152-9.864-4.84 1.362-7.658 6.444-6.282 11.334a9.237 9.237 0 0 0 3.534 5.018m250.085 0c-7.126-5.73-10.88-15.05-9.364-24.478-8.442 4.3-18.372 3.624-25.99-1.298l8.376 25.776h26.978zm91.332-5.017c1.376-4.89-1.44-9.974-6.282-11.336-10.092-2.84-21.292 3.332-33.15 9.864-4.084 2.25-8.212 4.518-12.384 6.49h48.282a9.234 9.234 0 0 0 3.534-5.018M203.95 112.09l14.88-45.794a9.238 9.238 0 0 0-3.689-4.908c-4.228-2.814-9.932-1.698-12.718 2.488-5.808 8.73-3.384 21.286-.816 34.578.874 4.53 1.75 9.106 2.342 13.636m69.334-13.636c2.566-13.292 4.992-25.848-.818-34.578-2.784-4.186-8.488-5.302-12.718-2.488a9.224 9.224 0 0 0-3.686 4.908l14.88 45.794c.592-4.532 1.468-9.106 2.342-13.636m73.654 164.396l-21.852 15.875 8.376 25.782c3.248-8.508 10.914-14.934 20.308-16.424-6.752-6.716-9.196-16.428-6.832-25.234m71.133-51.681l-39.036 28.362c4.5-.846 9.132-1.434 13.722-2.01 13.434-1.684 26.122-3.276 32.618-11.506 3.116-3.946 2.406-9.716-1.58-12.862a9.23 9.23 0 0 0-5.724-1.984" fill="#ED174C"/><path d="M237.445 28.142L187.58 181.616H26.207l119.9 87.112-.004-.008 10.668 7.75-1.948 5.972-.004-.002-1.118 3.442-1.214 3.716.004.004-45.598 140.338L221.5 346.674a.252.252 0 0 1-.006-.02l15.94-11.594 27.584 20.078.01-.01 102.97 74.812-47.048-144.798-2.774-8.648 10.61-7.77c0 .002 0 .002-.002.002l119.9-87.11H287.311L237.445 28.142z" fill="#ED174C"/><path d="M366.543 389.842c5.076-.21 9.034-4.464 8.828-9.488-.432-10.476-9.774-19.21-19.664-28.454-3.41-3.188-6.85-6.412-10.022-9.772l14.894 45.838a9.22 9.22 0 0 0 5.964 1.876" fill="#ED174C"/><g transform="translate(0 .426)"><mask id="b" fill="#fff"><use xlink:href="#a"/></mask><path d="M424 206.434a15.464 15.464 0 0 1 5.295 2.73 15.476 15.476 0 0 1 5.802 10.364c.458 3.892-.558 7.948-3.162 11.246-8.8 11.148-24.648 13.194-39.974 15.172-13.738 1.774-26.714 3.448-33.102 11.54-3.03 3.842-4.382 8.638-3.806 13.518.002.028.006.058.01.086.602 4.914 3.082 9.316 6.986 12.398 3.904 3.082 8.762 4.472 13.68 3.916a18.346 18.346 0 0 0 6.826-2.164l.138-.078c.408-.23.802-.48 1.192-.742 3.114-2.528 1.974-5.69.76-9.91-1.438-5.004-3.352-11.95 5.816-19.322 1.272.898 2.318 1.948 3.246 3.056l.052-.042c.208.24.364.518.558.766.154.208.31.412.454.624.268.376.578.724.816 1.12 1.318 1.896 2.43 5.416 2.434 7.626v.01c.046.578.068 1.156.056 1.732a25.504 25.504 0 0 1-5.524 15.468c-4.032 5.11-9.738 8.408-16.15 9.432 4.606 4.594 7.298 10.622 7.568 17.136a25.5 25.5 0 0 1-4.604 15.766c-.326.474-.684.93-1.06 1.372l-.006.008c-1.3 1.786-4.266 3.984-6.446 4.746-.424.182-.878.282-1.316.428-.242.088-.488.162-.736.24-.302.086-.592.22-.9.292-.006-.022-.01-.044-.018-.064-1.402.352-2.864.59-4.422.57-3.098-11.348 2.526-15.85 6.628-19.06 3.458-2.706 6.236-4.594 5.198-8.47-.162-.44-.334-.874-.53-1.3-.02-.048-.046-.098-.064-.146a18.387 18.387 0 0 0-4.26-5.756c-3.656-3.334-8.406-5.06-13.376-4.854-4.968.204-9.56 2.314-12.93 5.94l-.06.064c-3.328 3.614-5.048 8.292-4.848 13.18.426 10.3 9.95 19.27 20.034 28.766 11.252 10.594 22.886 21.548 23.47 35.74.174 4.198-1.382 8.078-4.038 10.962a15.522 15.522 0 0 1-16.826 4.028l1.062 3.268L379.25 445h-.002l-42.886-31.16a15.486 15.486 0 0 1-.96 5.88 15.478 15.478 0 0 1-8.066 8.72c-3.56 1.638-7.73 1.926-11.67.468-13.324-4.924-20.166-19.364-26.784-33.33-5.93-12.516-11.534-24.34-21.204-27.914-4.59-1.696-9.568-1.498-14.032.556l-.08.036c-4.486 2.092-7.906 5.812-9.63 10.476-1.726 4.666-1.546 9.716.502 14.222a18.41 18.41 0 0 0 4.166 5.824 18.591 18.591 0 0 0 1.192 1.01c3.368 2.18 6.02.118 9.66-2.34 4.316-2.914 10.33-6.88 20.174-.44-.46 1.488-1.138 2.806-1.904 4.032.018.014.038.024.056.038-.162.27-.38.504-.556.766-.15.212-.296.422-.454.624-.274.372-.508.774-.812 1.122-1.396 1.84-4.4 3.986-6.5 4.672l-.01.004c-.536.222-1.08.422-1.63.586a25.496 25.496 0 0 1-16.418-.472c-6.106-2.256-11.006-6.664-13.96-12.444-2.946 5.8-7.848 10.224-13.96 12.492a25.51 25.51 0 0 1-16.418.494 17.408 17.408 0 0 1-1.63-.584l-.01-.004c-2.1-.684-5.108-2.826-6.506-4.664-.304-.348-.54-.748-.814-1.12-.158-.202-.306-.414-.454-.624-.178-.262-.394-.496-.558-.766.018-.012.038-.024.056-.038-.768-1.224-1.446-2.542-1.908-4.03 9.834-6.454 15.854-2.494 20.174.414 3.642 2.454 6.298 4.512 9.662 2.328.368-.29.728-.59 1.072-.906.04-.036.08-.074.12-.108a18.405 18.405 0 0 0 4.158-5.828c2.042-4.508 2.214-9.56.484-14.222-1.732-4.662-5.156-8.378-9.646-10.462l-.08-.038c-4.466-2.048-9.446-2.238-14.032-.538-9.666 3.588-15.254 15.42-21.168 27.944-6.598 13.974-13.422 28.424-26.738 33.366-3.938 1.462-8.11 1.18-11.672-.454a15.471 15.471 0 0 1-8.076-8.708 15.458 15.458 0 0 1-.954-6.05l-2.78 2.02L95.641 445l16.422-50.542a15.509 15.509 0 0 1-5.948.93 15.486 15.486 0 0 1-10.784-4.976c-2.66-2.88-4.22-6.758-4.054-10.956.566-14.192 12.186-25.162 23.424-35.772 10.07-9.508 19.584-18.49 19.996-28.792.194-4.89-1.534-9.564-4.866-13.174l-.06-.064c-3.374-3.62-7.968-5.724-12.938-5.924-4.97-.198-9.718 1.534-13.37 4.874a18.386 18.386 0 0 0-4.252 5.762c-.018.046-.042.096-.064.144-.194.426-.366.862-.528 1.302-1.034 3.876 1.748 5.762 5.21 8.464 4.104 3.204 9.736 7.698 6.652 19.05a17.364 17.364 0 0 1-4.44-.506v.006c-1.01-.232-2-.55-2.954-.956-2.18-.758-5.15-2.954-6.452-4.738l-.006-.008a16.952 16.952 0 0 1-1.062-1.37 25.505 25.505 0 0 1-4.624-15.76c.26-6.504 2.936-12.526 7.522-17.124-6.426-1.008-12.148-4.302-16.194-9.414a25.511 25.511 0 0 1-5.544-15.462 17.31 17.31 0 0 1 .052-1.732v-.01c.002-2.208 1.108-5.732 2.426-7.628.53-.89 1.144-1.73 1.822-2.512.002 0 .004.002.006.004a17.309 17.309 0 0 1 3.29-3.024c9.178 7.36 7.272 14.308 5.84 19.314-1.208 4.224-2.344 7.386.774 9.91.388.26.784.51 1.19.738.046.028.098.054.142.082a18.388 18.388 0 0 0 6.828 2.152c4.918.55 9.776-.848 13.676-3.934 3.898-3.086 6.374-7.492 6.968-12.406.004-.028.008-.058.01-.086.568-4.882-.788-9.676-3.824-13.514-6.398-8.084-19.378-9.74-33.116-11.496-15.33-1.958-31.182-3.982-39.996-15.118-2.608-3.294-3.628-7.348-3.176-11.242a15.483 15.483 0 0 1 5.788-10.372 15.45 15.45 0 0 1 5.368-2.756l-42.792-31.09h53.142a15.481 15.481 0 0 1-2.722-5.37 15.49 15.49 0 0 1 1.4-11.794c1.918-3.42 5.124-6.102 9.168-7.24 13.672-3.848 27.696 3.814 41.258 11.222 12.156 6.64 23.638 12.912 33.562 10.12 4.71-1.326 8.622-4.414 11.026-8.698l.042-.076c2.402-4.328 2.982-9.348 1.636-14.136-1.348-4.788-4.462-8.77-8.768-11.21a18.363 18.363 0 0 0-6.792-2.262l-.158-.018a18.15 18.15 0 0 0-1.4-.1c-4.008.216-4.942 3.442-6.44 7.57-1.78 4.894-4.312 11.64-16.062 12.214-.5-1.47-.79-2.94-.892-4.378h-.006a17.68 17.68 0 0 1-.002-3.104c.046-2.308 1.218-5.81 2.512-7.6l.006-.008c.302-.494.624-.976.974-1.434a25.514 25.514 0 0 1 13.56-9.268c6.266-1.762 12.82-1.078 18.61 1.862-1.028-6.422.338-12.882 3.95-18.31 3.138-4.72 7.632-8.194 12.99-10.05.542-.192 1.1-.35 1.664-.486l.01-.004c2.102-.68 5.794-.716 8.004-.05 1.01.23 2 .554 2.952.958 0 .002 0 .004-.002.006a17.309 17.309 0 0 1 3.892 2.194c-4.164 11.004-11.36 11.338-16.564 11.524-4.388.156-7.748.052-9.186 3.798a18.723 18.723 0 0 0-.368 1.52 18.397 18.397 0 0 0 .064 7.158c.996 4.848 3.826 9.036 7.968 11.79 4.14 2.756 9.096 3.748 13.952 2.796l.086-.018c4.816-.968 8.958-3.74 11.668-7.812 5.712-8.584 3.278-21.44.702-35.05-2.876-15.184-5.85-30.884 2.018-42.708 2.328-3.498 5.868-5.722 9.71-6.494a15.472 15.472 0 0 1 11.654 2.298 15.471 15.471 0 0 1 4.278 4.254l16.346-50.306 16.346 50.306a15.444 15.444 0 0 1 4.278-4.254 15.469 15.469 0 0 1 11.652-2.298c3.844.772 7.384 2.996 9.71 6.494 7.868 11.824 4.896 27.524 2.02 42.708-2.576 13.61-5.01 26.466.7 35.05 2.712 4.072 6.852 6.844 11.67 7.812l.086.018c4.856.952 9.812-.04 13.952-2.796 4.14-2.754 6.97-6.942 7.968-11.79.494-2.404.506-4.828.062-7.16-.012-.05-.022-.104-.032-.156a17.8 17.8 0 0 0-.336-1.362c-1.438-3.746-4.796-3.642-9.186-3.798-5.202-.186-12.4-.52-16.564-11.524a17.396 17.396 0 0 1 3.892-2.194c0-.002 0-.004-.002-.006a17.6 17.6 0 0 1 2.952-.958c2.212-.666 5.904-.63 8.006.05l.01.004c.562.136 1.12.294 1.662.486a25.497 25.497 0 0 1 12.992 10.05c3.612 5.428 4.976 11.888 3.95 18.31 5.788-2.94 12.344-3.624 18.61-1.862a25.522 25.522 0 0 1 13.56 9.268c.348.458.67.94.974 1.434l.006.008c1.294 1.79 2.466 5.292 2.512 7.6a17.489 17.489 0 0 1-.004 3.104h-.006a17.32 17.32 0 0 1-.89 4.378c-11.75-.574-14.284-7.32-16.062-12.214-1.5-4.128-2.434-7.354-6.44-7.57-.468.018-.936.046-1.402.1l-.156.018a18.385 18.385 0 0 0-6.794 2.262c-4.306 2.44-7.418 6.422-8.766 11.21-1.346 4.788-.766 9.808 1.636 14.136l.042.076c2.404 4.284 6.316 7.372 11.024 8.698 9.926 2.792 21.408-3.48 33.564-10.12 13.562-7.408 27.586-15.07 41.258-11.222 4.044 1.138 7.25 3.82 9.168 7.24a15.48 15.48 0 0 1 1.398 11.794 15.447 15.447 0 0 1-2.722 5.37h53.144L424 206.434zm42.895-39.16H425c.314-4.52-.692-9.036-2.958-13.078-3.046-5.432-8.01-9.348-13.978-11.028a36.057 36.057 0 0 0-9.766-1.326c-11.04-.002-21.41 4.648-31.436 9.954a25.91 25.91 0 0 0 .022-4.242c-.152-3.754-1.726-8.504-3.83-11.56a24.528 24.528 0 0 0-1.294-1.876c-4.45-5.9-10.6-10.102-17.752-12.114a33.611 33.611 0 0 0-9.1-1.262c-1.324 0-2.648.082-3.968.242a33.486 33.486 0 0 0-4.998-12.16c-4.116-6.186-10.006-10.744-17.032-13.178a24.284 24.284 0 0 0-2.14-.638c-2.258-.676-4.632-.822-6.256-.822-1.524 0-3.762.13-5.924.736-1.366.328-2.72.772-4.03 1.328 2.476-14.176 3.862-29.342-4.47-41.86-3.434-5.162-8.688-8.68-14.794-9.906a23.61 23.61 0 0 0-4.638-.462c-3.016 0-5.974.576-8.738 1.686L245.051 6.102a7.999 7.999 0 0 0-15.216 0l-12.87 39.606a23.407 23.407 0 0 0-8.736-1.686 23.63 23.63 0 0 0-4.64.462c-6.106 1.226-11.36 4.744-14.794 9.906-8.33 12.518-6.946 27.686-4.468 41.86-1.31-.556-2.666-1-4.03-1.328-2.164-.606-4.402-.736-5.924-.736-1.626 0-3.998.146-6.256.822-.78.196-1.496.412-2.184.654-6.984 2.418-12.874 6.976-16.99 13.162a33.486 33.486 0 0 0-4.998 12.16 32.94 32.94 0 0 0-3.968-.242c-3.064 0-6.126.424-9.1 1.262-7.152 2.012-13.3 6.214-17.78 12.15-.416.546-.84 1.16-1.268 1.844-2.102 3.056-3.674 7.804-3.826 11.556a25.472 25.472 0 0 0 .022 4.242c-10.028-5.306-20.398-9.954-31.436-9.954-3.352 0-6.638.446-9.768 1.326-5.966 1.68-10.93 5.596-13.978 11.028-2.266 4.042-3.27 8.558-2.958 13.078H8.001a8.003 8.003 0 0 0-7.61 5.528 8.003 8.003 0 0 0 2.906 8.944l33.688 24.476a23.349 23.349 0 0 0-5.294 12.346c-.72 6.186 1.002 12.27 4.85 17.13 9.332 11.792 24.184 15.162 38.43 17.186a25.59 25.59 0 0 0-2.508 3.424c-2.08 3.128-3.592 7.896-3.682 11.602-.054.804-.072 1.552-.054 2.282.142 7.394 2.656 14.404 7.268 20.23a33.515 33.515 0 0 0 10.022 8.51 33.513 33.513 0 0 0-3.07 12.744c-.296 7.422 1.8 14.568 6.062 20.664.39.566.844 1.158 1.362 1.776 2.256 2.942 6.284 5.906 9.806 7.21a25.98 25.98 0 0 0 4.046 1.292c-10.322 10.024-20.342 21.494-20.942 36.52-.246 6.194 1.944 12.124 6.17 16.7 3.142 3.404 7.128 5.756 11.524 6.854l-12.944 39.836a8.001 8.001 0 0 0 12.31 8.944l33.752-24.522c2.41 3.876 5.9 6.964 10.142 8.91a23.526 23.526 0 0 0 9.732 2.132 23.1 23.1 0 0 0 8.06-1.45c14.098-5.232 21.892-18.316 28.218-31.238.336.554.666.978.844 1.206 0 0-.038-.054-.074-.11.034.052.07.102.106.154l.066.092c.164.232.328.462.5.688l.094.138c.208.304.508.744.916 1.236 2.328 2.958 6.416 5.89 9.93 7.126.748.3 1.454.548 2.154.756a33.685 33.685 0 0 0 9.77 1.454c3.988 0 7.93-.712 11.712-2.116a33.498 33.498 0 0 0 11.192-6.902 33.486 33.486 0 0 0 11.17 6.858 33.545 33.545 0 0 0 11.668 2.1c3.324 0 6.64-.498 9.858-1.48.66-.196 1.364-.444 2.11-.746 3.512-1.24 7.596-4.178 9.92-7.138.406-.492.706-.932.914-1.238l.098-.144c.168-.222.33-.448.492-.676l.068-.096.016-.024c.224-.288.538-.7.858-1.23 6.344 12.914 14.156 25.988 28.262 31.2a23.07 23.07 0 0 0 8.03 1.44c3.336 0 6.71-.742 9.76-2.146 4.194-1.93 7.652-4.978 10.054-8.8l33.81 24.566a7.993 7.993 0 0 0 9.404 0 8.002 8.002 0 0 0 2.908-8.944l-12.892-39.676a23.344 23.344 0 0 0 11.606-6.894c4.22-4.582 6.404-10.516 6.148-16.71-.62-15.024-10.654-26.48-20.99-36.49a11.8 11.8 0 0 0 1.408-.43h.002a4.621 4.621 0 0 0 .05-.016l.11-.034c.272-.084.54-.17.804-.264l.162-.046c.354-.104.866-.254 1.462-.49 3.532-1.3 7.582-4.284 9.844-7.242.516-.618.97-1.214 1.382-1.812 4.23-6.066 6.318-13.214 6.01-20.638a33.487 33.487 0 0 0-3.104-12.776 33.49 33.49 0 0 0 9.974-8.506c4.604-5.83 7.108-12.844 7.242-20.28a24.097 24.097 0 0 0-.058-2.234c-.094-3.724-1.626-8.516-3.724-11.642-.342-.54-.67-.962-.896-1.254l-.106-.14c-.16-.228-.326-.454-.494-.678l-.068-.092c-.006-.006-.01-.014-.016-.022-.206-.3-.5-.728-.906-1.196 14.244-2.042 29.09-5.432 38.408-17.236 3.84-4.866 5.554-10.952 4.826-17.138-.54-4.584-2.37-8.814-5.262-12.28l33.678-24.47a7.997 7.997 0 0 0-4.56-14.568z" fill="#ED174C" mask="url(#b)"/></g><path d="M291.395 381.596c2.196 4.02 4.186 8.244 6.152 12.43 5.754 12.256 11.186 23.832 21.022 27.466 4.716 1.744 9.984-.714 11.744-5.478a9.22 9.22 0 0 0 .118-6.056l-39.036-28.362zm-75.951-23.25c9.056.478 17.5 5.754 21.816 14.186 4.3-8.526 12.806-13.874 21.938-14.34l-21.856-15.818-21.898 15.972z" fill="#ED174C"/><path fill="#FEFEFE" d="M253.445 311.663l-16.03-58.638-15.734 58.638h-25.698L168.8 200.435h27.034l14.106 54.212 14.55-54.212h25.776l14.772 54.212 14.034-54.212H306.1l-26.88 111.228z"/></g></svg>