<svg width="512" height="512" viewBox="0 0 512 512" xmlns="http://www.w3.org/2000/svg"><title>baltimore-orioles-2</title><g fill="none" fill-rule="evenodd"><path d="M330.546 375.376h-3.42v9.317h-2.316v-9.317h-3.426v-2.023h9.162v2.023zm15.54 9.317h-2.317v-9.036h-.047l-3.308 9.036h-2.229L335 375.657h-.053v9.036h-2.311v-11.34h4l2.652 7.407h.058l2.759-7.407h3.982v11.34z" fill="#E05629"/><path d="M408.71 142.309c-2.933-6.957-9.938-13.304-21.213-15.274-17.787-1.803-47.728 5.627-77.647 11.828-10.665 2.227-32.993 5.121-32.993 5.121-17.452-20.294-37.356-25.703-50.004-27.374-7.173-.955-10.605-.252-13.564-1.213-2.62-1.717-10.65-8.493-25.587-6.236 0 0-13.81 1.77-24.58 12.94-2.148 2.133-5.995 7.138-7.767 12.366-2.7 2.462-4.868 3-10.982 8.915-38.39 32.485-22.69 74.905-16.496 89.017-34.658 26.959-27.102 58.209-27.102 58.209l10.675-1.713c-.784 138.998 200.841 149.013 225.075 42.876 8.78-38.568 15.891-55.951 50.572-64.994 7.004-1.946 9.797-6.575 9.551-10.05-1.501-13.639-31.256-28.683-76.04-24.41-2.663-8.909-2.866-12.326-2.866-12.326 22.648-5.14 53.722-15.185 75.258-32.403 17.206-13.76 23.489-26.748 15.71-45.28zm-51.26 45.76c-21.606 9.845-46.766 15.706-52.915 17.37-9.82 2.655-9.445 5.235-7.549 9.494 4.288 9.59 5.636 15.696 7.29 38.259 14.18-4.255 39.698-3.645 62.49 1.841-14.186 5.636-28.98 15.401-41.482 31.97-37.438 49.668-96.94 45.108-123.85 19.264-5.876 4.945 1.779 21.73 1.779 21.73-1.215 1.138-4.085-.011-4.085-.011-19.968-33.107 1.386-41.805 18.034-42.725 7.028-1.278 6.136 2.93-.317 4.126-27.806 6.359 10.56 38.259 58.089 25.792 41.885-10.975 39.375-37.653 76.754-58.347-29.917-5.656-50.883 1.862-59.813 6.477-5.948 3.065-15.721 3.251-20.097 1.727-5.514 16.872-23.583 21.61-58.129 13.217-24.54-5.967-43.991 18.138-33.199 49.075 11.054 31.732 65.961 63.496 126.01 26.174-4.905 6.226-10.993 11.7-18.18 16.282-15.539 9.9-35.65 15.366-56.657 15.366h-.013c-29.941 0-57.754-10.735-76.267-29.454-16.966-17.16-25.414-39.825-25.084-67.386 0-4.865 1.713-15.602 3.38-18.907l-12.121.832s3.841-17.594 30-32.731c-.011-.006-.011-.006-.022-.018l-.049.028-1.138-2.255c-26.796-51-1.314-71.266 9.82-80.456 9.082-7.5 11.405-7.22 13.06-13.656.962-3.808 4.845-7.846 9.685-10.419 6.165-3.726 13.638-4.15 18.05-.879 4.153 4.12 12.248 5.093 17.2 5.093 38.531 1.377 50.106 29.509 50.106 29.509 8.746-2.714 23.059-3.031 47.669-7.995 47.217-10.456 50.69-10.736 58.357-11.421 8.834-.799 16.175-.27 19.283 7.074 3.074 7.184-5.187 16.245-7.332 18.367-2.834 2.788-13.36 10.566-28.757 17.593z" fill="#E05629"/><path d="M232.391 179.699c1.268-.246 1.973-.72 2.769-1.934 1.302-2.004 1.55-5.32 1.537-7.736-.036-3.013-.633-6.944-1.502-9.669-4.182 2.35-7.768 2.397-11.586.023-.873 3.007-.845 6.47.017 9.489 1.291 4.471 4.623 10.631 8.765 9.827m-3.578-20.84c1.813.715 3.648.786 5.854-.34-1.466-5.005-4.234-10.97-7.357-10.958-1.29.01-2.358.574-3.037 1.604-.905 1.372-.957 3.394-.176 5.27.82 1.916 2.627 3.615 4.716 4.424m21.442 7.831c-.23.515-.165 1.066.175 1.44.336.353.85.457 1.373.246.522-.21.815-.491 1.003-.973.164-.397.259-1.008-.047-1.745-.047-.105-.092-.223-.187-.34 0 0-.095-.06-.143-.094-1.148.352-1.87.844-2.174 1.466" fill="#1A1918"/><path d="M393.54 152.109c-3.11-7.344-10.45-7.873-19.284-7.074-7.667.685-11.14.965-58.357 11.421-24.61 4.964-38.923 5.28-47.67 7.995 0 0-11.574-28.132-50.105-29.509-4.952 0-13.047-.973-17.2-5.093-4.412-3.27-11.885-2.847-18.05.88-4.84 2.572-8.723 6.61-9.685 10.418-1.655 6.437-3.978 6.156-13.06 13.656-11.134 9.19-36.616 29.456-9.82 80.456l-2.569-5.111s19.677-2.245 40.22-11.861l-36.464 19.199c.01.012.01.012.021.018-26.158 15.137-29.999 32.731-29.999 32.731l12.12-.832c-1.666 3.305-3.379 14.042-3.379 18.907-.33 27.56 8.118 50.225 25.084 67.386 18.513 18.72 46.326 29.454 76.267 29.454h.013c21.007 0 41.118-5.466 56.657-15.366 7.187-4.583 13.275-10.056 18.18-16.282-60.049 37.322-114.956 5.558-126.01-26.174-10.792-30.937 8.66-55.042 33.2-49.075 34.545 8.393 52.614 3.655 58.128-13.217 4.376 1.524 14.149 1.338 20.097-1.727 8.93-4.615 29.896-12.133 59.813-6.477-37.379 20.694-34.869 47.372-76.754 58.347-47.53 12.467-85.895-19.433-58.09-25.792 6.454-1.196 7.346-5.404.318-4.126-16.648.92-38.002 9.618-18.034 42.725 0 0 2.87 1.149 4.085.012 0 0-7.655-16.786-1.778-21.731 26.909 25.844 86.41 30.404 123.849-19.264 12.502-16.569 27.296-26.334 41.482-31.97-22.792-5.486-48.31-6.096-62.49-1.841-1.654-22.563-3.002-28.67-7.29-38.259-1.896-4.259-2.271-6.84 7.549-9.494 6.149-1.664 31.309-7.525 52.915-17.37 15.398-7.027 25.923-14.805 28.757-17.593 2.145-2.122 10.406-11.183 7.332-18.367zm-213.617-6.248c4.827-17.888 18.914-7.104 18.914-7.104l-18.914 7.104zm67.404 17.922c.046-1.167.142-2.632.423-3.482l1.995-1.43.162-.117.025.199c.117.528.369.996.779 1.36l.617.504 1.714 1.448c.714.662 1.147 1.177 1.255 1.558l.222.733.071.34c.281 1.7-.54 3.351-2.136 4.232-.728.41-1.583.385-2.112.168a1.907 1.907 0 0 1-1.114-1.188c-.305-.903.117-2.684 2.592-3.622 0 0 .123-.035.236-.082a1.198 1.198 0 0 0-.213-.13c-.732-.515-2.117-1.652-2.64-2.513 0 0-.075-.1-.139-.223-.053.134-.088.252-.088.252-.107.357-.193.832-.27 1.459l-.159 2.126-.022.576-.143 1.993-.304 2.198c-.587 2.636-1.643 4.236-3.227 4.88l-.2.094.4-2.196.046-.03c1.255-.769 1.667-2.555 1.914-5.192l.316-3.915zm-2.862-6.494c.328-.68.54-.973.796-1.091.071-.023.165-.058.258-.082-.234.938-.258 1.032-.292 1.63.55-.082.833.035.974.363.187.47.047 1.348-.341 1.94-.152.264-.317.398-.6.522-.668.287-1.03.31-1.148.041-.282-.686-.117-2.304.353-3.323zm-24.698-2.509c-.915-2.532-.447-5.461 1.027-7.571 1.384-1.993 3.561-3.124 6.129-3.265 4.396-.24 8.507 3.955 11.663 12.278.691-.739 1.402-1.723 1.796-2.718l1.712.608c-.674 1.536-1.748 3.095-2.827 3.974 2.065 5.638 2.522 14.422-.218 20.1-1.26 2.633-3.139 4.39-5.532 5.206-1.94.668-4.441.516-6.406-.62-3.367-1.924-6.036-5.71-7.767-10.907-1.665-5.048-1.866-11.546.423-17.085zm31.356 118.362c-5.883 1.922-12.795-2.028-17.852-9.378 3.004 2.298 6.395 3.042 8.951 1.62 4.096-2.253 4.634-9.091 1.21-15.263-3.409-6.166-9.492-9.33-13.563-7.068-1.503.82-2.534 2.274-3.05 4.08-1.62-10.797 1.642-20.197 8.435-22.436 8.177-2.672 18.35 6.002 22.732 19.387 4.382 13.369 1.32 26.373-6.863 29.058zm32.423-13.268c-5.545 1.475-11.686-2.128-16.226-8.709 2.305 1.476 4.775 1.922 6.816.937 3.865-1.863 4.734-8.123 1.9-13.99-2.84-5.854-8.265-9.083-12.143-7.225-1.384.656-2.37 1.887-2.95 3.446-1.614-11.652 2.176-21.766 9.486-23.695 8.3-2.215 17.98 7.01 21.612 20.624 3.613 13.596-.189 26.408-8.495 28.612zm-39.716-52.699c-19.346-2.626-31.895-2.486-19.454-10.714 0 0 28.947-22.482 61.661-26.202 30.33-3.792 78.51-14.482 78.51-14.482s-23.735 14.404-47.052 30.663c-25.524 15.243-44.145 21.385-73.665 20.735zm90.963-21.357s47.325-32.954 49.05-30.604c4.275 5.83-19.64 20.641-49.05 30.604z" fill="#1A1918"/><path d="M179.923 145.86l18.914-7.103s-14.087-10.784-18.914 7.104m106.114 24.398c-32.714 3.72-61.66 26.202-61.66 26.202-12.442 8.228.107 8.088 19.453 10.714 29.52.65 48.14-5.492 73.665-20.735 23.317-16.259 47.052-30.663 47.052-30.663s-48.18 10.69-78.51 14.482m48.756 15.559c29.41-9.963 53.325-24.773 49.05-30.604-1.725-2.35-49.05 30.604-49.05 30.604" fill="#E05629"/><path d="M147.74 230.148l2.57 5.11 1.137 2.256.05-.028 36.464-19.2c-20.544 9.617-40.22 11.862-40.22 11.862m87.513-5.451c-6.793 2.239-10.056 11.64-8.436 22.435.517-1.805 1.548-3.259 3.051-4.079 4.07-2.261 10.154.902 13.562 7.068 3.425 6.172 2.887 13.01-1.209 15.263-2.556 1.422-5.947.678-8.95-1.62 5.056 7.35 11.968 11.3 17.85 9.378 8.184-2.685 11.246-15.69 6.864-29.058-4.382-13.385-14.555-22.059-22.732-19.387m35.174-14.059c-7.31 1.929-11.099 12.043-9.485 23.695.58-1.56 1.566-2.79 2.95-3.446 3.878-1.858 9.304 1.37 12.144 7.225 2.833 5.867 1.964 12.127-1.901 13.99-2.04.985-4.511.539-6.816-.937 4.54 6.58 10.681 10.184 16.226 8.709 8.306-2.204 12.108-15.016 8.495-28.612-3.632-13.614-13.312-22.84-21.613-20.624" fill="#FFF"/><path d="M227.111 182.771c1.965 1.137 4.466 1.289 6.406.621 2.393-.815 4.271-2.573 5.532-5.205 2.74-5.679 2.283-14.463.218-20.1 1.079-.88 2.153-2.439 2.827-3.975l-1.712-.608c-.394.995-1.105 1.979-1.796 2.718-3.156-8.323-7.267-12.518-11.663-12.278-2.568.14-4.745 1.272-6.13 3.265-1.473 2.11-1.941 5.04-1.026 7.571-2.289 5.54-2.088 12.037-.423 17.085 1.73 5.197 4.4 8.983 7.767 10.906zm-2.838-33.606c.68-1.03 1.747-1.594 3.037-1.604 3.123-.012 5.891 5.953 7.357 10.958-2.206 1.126-4.041 1.055-5.854.34-2.089-.81-3.896-2.508-4.716-4.425-.781-1.875-.73-3.897.176-5.269zm-.664 11.218c3.818 2.374 7.404 2.327 11.586-.023.869 2.725 1.466 6.656 1.502 9.67.013 2.415-.235 5.731-1.537 7.735-.796 1.214-1.501 1.688-2.769 1.934-4.142.804-7.474-5.356-8.765-9.827-.862-3.018-.89-6.482-.017-9.49zm21.651.188c.283-.124.448-.258.6-.522.388-.592.528-1.47.341-1.94-.14-.328-.424-.445-.974-.363.034-.598.058-.692.292-1.63-.093.024-.187.06-.258.082-.257.118-.468.411-.796 1.091-.47 1.019-.635 2.637-.353 3.323.119.269.48.246 1.149-.04m-.164 12.318l-.046.03-.4 2.196.2-.094c1.584-.644 2.64-2.244 3.227-4.88l.304-2.198.143-1.993.022-.576.158-2.126c.078-.627.164-1.102.27-1.459 0 0 .036-.118.089-.252.064.123.14.223.14.223.522.86 1.907 1.998 2.639 2.514 0 0 .125.058.213.129-.113.047-.236.082-.236.082-2.475.938-2.897 2.719-2.592 3.622.18.608.704 1.043 1.114 1.188.529.217 1.384.242 2.112-.168 1.597-.88 2.417-2.532 2.136-4.232l-.071-.34-.222-.733c-.108-.381-.541-.896-1.255-1.558l-1.714-1.448-.617-.504a2.501 2.501 0 0 1-.78-1.36l-.024-.199-.162.117-1.995 1.43c-.281.85-.377 2.315-.423 3.482l-.316 3.915c-.247 2.637-.66 4.423-1.914 5.191zm7.475-7.572c.095.117.14.235.187.34.306.737.211 1.348.047 1.745-.188.482-.481.762-1.003.973-.522.211-1.037.107-1.373-.245-.34-.375-.404-.926-.175-1.441.304-.622 1.026-1.114 2.174-1.466.048.035.143.094.143.094z" fill="#E05629"/></g></svg>