<svg width="512" height="512" viewBox="0 0 512 512" xmlns="http://www.w3.org/2000/svg"><title>cleveland-indians-2</title><g fill="none" fill-rule="evenodd"><path d="M312.561 108.902c.439-.435 6.356-6.318 13.05-10.792 7.83-5.242 34.017-17.887 34.017-17.887l29.418 38.71s3.762 4.72 2.533 10.296c-1.77 7.952-14.05 58.818-14.05 58.818s-2.998 18.534-9.598 29.77c-12.422 21.133-23.723 39.755-23.723 39.755l.358 4.685s4.189-3.767 7.262-6.39c3.066-2.624 7.234 1.555 15.557 7.239 8.327 5.68 14.029 20.546 14.467 23.167.44 2.629-.44 13.12-2.635 19.677-2.188 6.556-9.733 19.778-9.733 19.778s7.457 9.178 3.073 22.736c-4.383 13.551-15.793 23.16-16.67 24.036-.872.877-14.733 7.805-21.372 7.204-2.77-.248-12.828 10.837-17.089 15.27-5.398 5.594-18.989 15.903-23.379 19.804-8.281 7.371-31.01 15.856-49.888 15.257-14.08-.451-27.194-2.615-32.457-3.929-5.262-1.308-18.412-6.557-24.544-13.114-6.135-6.555-22.347-26.663-26.292-33.666-3.948-6.996-15.002-16.227-15.806-17.09-5.147-5.586-13.572-13.97-13.572-13.97-9.342-10.8-10.31-21.315-10.31-31.49 0-5.269 2.18-8.268 12.866-18.928 4.708-4.696 11.183-7.534 15.096-11.017 5.417-4.812 7.741-9.913 9.897-14.353 5.015-10.324 8.76-18.817 15.336-42.425 0 0 8.872-23.551 14.124-30.546 5.262-6.995 25.844-20.543 52.569-23.167 26.733-2.62 36.385-3.498 41.633-2.187 5.263 1.315 5.608 1.435 5.608 1.435l1.1.424 5.6 2.827 17.554-69.937z" stroke="#FFF" stroke-width=".675" fill="#FFF"/><path d="M318.486 118.756c.39-.397 3.546-8.777 9.955-12.308 6.478-3.566 29.498-15.9 29.498-15.9l22.695 32.582s2.716 3.102 1.594 8.17c-1.614 7.23-17.298 69.138-17.298 69.138s-3.911 15.785-10.49 25.6c-12.388 18.45-22.413 31.432-22.413 31.432l.797 28.472s9.565-14.952 12.349-17.346c2.797-2.385 6.775-6.751 14.347-1.59 7.571 5.17 12.753 18.685 13.144 21.07.406 2.38-.391 11.921-2.385 17.879-1.999 5.971-9.563 21.07-9.563 21.07s6.767 8.344 2.79 20.67c-3.985 12.323-16.731 19.878-17.53 20.666-.803.796-7.921 3.348-13.96 2.811-2.514-.23-17.125 14.54-21.008 18.564-4.911 5.088-17.258 14.461-21.252 18.012-7.53 6.697-28.193 14.414-45.356 13.868-12.8-.41-24.725-2.379-29.505-3.57-4.786-1.194-16.73-5.965-22.313-11.922-5.58-5.965-20.322-24.245-23.902-30.606-3.59-6.361-13.64-14.758-14.363-15.539-4.688-5.081-12.349-12.697-12.349-12.697-8.484-9.825-14.383-19.244-12.32-28.605 1.034-4.67 1.183-11.112 13.932-17.473 12.753-6.361 19.305-16.018 22.73-23.06 4.557-9.379 7.967-17.108 13.939-38.569 0 0 9.966-27.816 14.742-34.179 4.786-6.36 23.486-18.676 47.793-21.061 24.304-2.386 33.067-3.18 37.856-1.985 4.775 1.192 16.325 7.949 16.325 7.949l.946.622 3.188 1.86 17.387-74.025z" fill="#002B5C"/><path d="M334.419 286.084s11.95-15.498 16.739-17.885c0 0 1.79-1.193 3.782.997 1.985 2.184 9.166 11.523 10.753 16.294 1.594 4.771 4.188 6.758 1.196 15.903-2.986 9.138-7.95 18.896-8.767 19.872-1.71 2.028-2.493 3.208-5.586.58 0 0 6.586 8.557 6.586 18.895 0 10.33-5.776 15.498-7.964 17.487-2.195 1.988-8.282 5.944-12.956 6.954-3.559.775-8.361.795-8.361.795s-26.5 25.836-32.673 30.405c-6.173 4.575-16.731 13.72-27.883 16.9-11.158 3.18-23.91 4.764-39.848 2.776-8.683-1.084-25.232-4.88-32.008-11.274-4.376-4.136-14.803-14.96-22.171-26.287-7.37-11.328-11.362-14.104-16.137-19.67-4.785-5.573-14.743-13.316-17.732-17.689-2.985-4.372-8.966-14.11-8.566-20.074.795-11.9 9.16-15.498 11.152-16.692 1.992-1.192 10.768-5.566 13.956-9.143 3.186-3.578 9.956-11.132 11.344-15.302 1.4-4.172 4.385-9.139 7.37-18.882 2.735-8.887 10.285-34.57 19.528-50.075 0 0 3.581-5.563 9.956-5.563s23.51-1.193 23.51-1.193 8.961-13.12 14.638-16.594c0 0 3.188-2.385 4.582-1.788 1.398.592-2.192 3.874-2.192 3.874s-8.768 9.04-10.358 12.817c0 0-.793 1.79 1.59 1.79 2.395 0 24.21-.495 29.79-.297 5.574.198 8.761 2.585 10.754 4.568 0 0 26.22 33.518 35.658 43.326 9.565 9.937 18.778 28.36 18.778 28.36-.1 1.193.142 7.473 1.54 5.815z" fill="#E31937"/><path d="M332.027 289.67s2.507-5.742.85-9.4c-2.518-5.526-7.983-14.67-14.339-23.142-1.526-2.038-20.346-23.885-20.346-23.885l-18.669-23.295s-3.174-5.676-11.835-5.933c-5.322-.158-27.777.232-27.777.232s-5.078.614-3.245-2.26c2.068-3.245 4.236-5.896 7.12-9.066 1.833-2.018 9.14-8.727 3.222-6.931-3.87 1.176-10.28 7.928-17.369 18.225l-21.05 1.016s-8.114-1.239-12.713 6.19c-6.056 9.804-11.615 25.68-11.615 25.68l14.573-22.877 3.543 14.446 54.975.297 7.391-13.416s6.207-.446 13.159 19.164c2.202 6.233 2.518 4.287 16.393 16.955 13.895 12.683 37.732 38 37.732 38z" fill="#FFF"/><path d="M181.504 242.491l16.533-30.803s1.917-3.302 2.913.275c.994 3.577 7.569 32.79 7.772 34.777 0 0 .793 6.557-1.801.597-2.583-5.96-7.562-19.276-8.366-24.444 0 0-.996-5.765-2.583-.398 0 0-11.155 23.054-13.546 26.432-2.391 3.38-4.384 6.757-3.59 2.982.797-3.779 2.668-9.418 2.668-9.418zm66.858.474c3.402-5.735 6.174-15.302 15.337-30.804 1.431-2.42 2.288-3.117 4.586-.198 8.76 11.129 19.615 41.235 19.317 43.918 0 0 .406 5.366-1.79 2.582-4.026-5.105-13.746-35.173-17.529-39.547 0 0-2.195-1.387-4.978 4.374 0 0-11.162 22.258-13.548 25.637-2.39 3.38-4.384 6.757-3.587 2.982.793-3.779 1.574-7.906 2.192-8.944z" fill="#002B5C"/><path fill="#002B5C" d="M203.342 230.84l-.402-2.78 55.385-1.192-1.999 3.178zm-14.347 57.63c3.989-.392 1.196 2.392 1.196 2.392-4.78 3.57-6.398 14.306-6.769 19.467-.388 5.37-.63 12.513-.63 12.513s-9.258-2.48-17.73-6.543c-2.052-.985-7.756-1.376-10.856 1.448-2.118 1.941-4.25 8.087-3.053 17.232 1.188 9.138 4.785 1.975 4.785 1.975 6.376 9.938 21.504 33.793 31.066 47.31 8.551 12.083 18.434 14.084 21.92 15.895 7.126 3.707 27.089 5.965 39.842 4.374 10.28-1.288 17.525-4.374 20.707-7.554 3.188-3.181 29.093-17.494 36.26-28.619 7.173-11.125 3.985-21.462 1.594-30.202-2.385-8.747-11.558-8.349-11.558-8.349-13.146.39-46.21-4.374-46.21-4.374-.402-1.59-2.787-7.156-8.768-11.124-5.975-3.982-2.384 3.571-2.384 3.571-.401 0 5.177 9.144 5.177 9.144s-6.774 4.77-8.366 5.162c-1.598.404-5.98-.788-13.554 3.18-7.562 3.976-13.543 3.18-19.115 3.976-5.583.801-10.403.377-12.78-3.975-1.622-2.985-5.026-5.209-3.56-21.86 1.189-13.55 1.803-14.69 3.196-17.48 1.456-2.937 5.55-6.354 13.535-11.53 9.74-6.314 14.743-15.108 14.743-15.108-1.196 1.598-8.76 7.554-8.76 7.554l-5.186-17.09-7.967-23.849c-3.188 1.59-7.17 7.154-9.16 13.912-1.992 6.752-6.872 21.689-10.357 31.001-2.683 7.696-3.993 9.273-4.384 9.73 2.354-.852 12.354-1.93 17.126-2.18z"/><path d="M240.79 291.65s12.748-20.66 14.347-25.83c1.591-5.168 6.768-22.659 11.552-27.029 0 0 3.188-2.385 5.18-.397 1.987 1.985 11.552 15.9 15.935 30.999 4.383 15.108 7.193 33.423 13.165 43.753 0 0-24.363-13.235-31.895-15.735-12.667-4.21-28.284-5.76-28.284-5.76z" fill="#002B5C"/><path d="M202.145 263.435c-1.188-4.278-7.571-23.058-7.571-23.058-3.58 3.976-17.522 44.507-18.323 46.886l15.469-1.766c-.05-2.5.871-11.79 3.56-13.914l5.67.376-1.614-5.956c.595-1.199 1.912-2.244 2.81-2.568zm81.465 5.129c-2.972-13.516-14.137-27.388-14.137-27.388-6.37 4.767-11.95 27.422-12.744 29.814-.793 2.379-10.372 18.665-10.372 18.665s6.187.606 11.165 1.584c4.696.923 14.747 4.374 14.747 4.374-1.38-3.066-.325-14.71 2.91-17.96l7.221.66-3.958-5.633c.453-.807 1.21-2.842 5.168-4.116zm2.999 68.403s11.551-.404 12.753-.8c0 0 5.579-1.187 5.97 3.577.4 4.77 1.615 17.48-.77 22.25 0 0 2.763 3.188-19.15 19.488-21.911 16.293-23.898 19.475-39.836 20.27-15.938.789-33.072-2.782-36.26-4.372 0 0-12.915-6.395-21.118-16.699-10.757-13.51-15.938-24.636-31.474-48.087-1.815-2.735-.254-9.3 1.195-10.337 1.747-1.252 5.35.129 8.368 1.59 2.534 1.227 17.134 5.965 17.134 6.355 0 .405 2.384 7.555 6.372 10.337 3.985 2.783 15.139 8.747 33.065 2.386 0 0 7.17-5.56 16.735-6.758 1.276-.56 5.2-2.339 7.572-5.305 1.886 4.084 25.699 6.24 39.444 6.105z" fill="#FFF"/><path d="M172.662 354.251c0 5.352-3.782-21.065-2.192-25.835 0 0 1.597 5.963 1.992 12.723.403 6.758.2 11.92.2 13.112zm18.724 23.652c0 5.35-6.373-22.857-3.983-32.594 0 0 1.592 5.963 1.993 12.72.398 6.755 1.99 18.683 1.99 19.874zm20.375 8.263c.41 5.95-5.365-21.469-2.832-37.675 0 0 1.384 10.983 1.54 17.748.161 6.766 1.208 18.74 1.292 19.928zm26.244 5.842c0 5.35-6.175-27.817-3.784-37.554 0 0 1.59 5.963 1.993 12.715.391 6.76 1.79 23.652 1.79 24.839zm48.401-37.358c0 5.35-3.378-8.545-1.79-13.316 0 0 1.194-6.557 1.594.203.399 6.751.196 11.919.196 13.112z" fill="#002B5C"/><path d="M220.871 342.526s26.093 3.976 33.665 3.58c0 0 1.598-.796 1.993 3.18.398 3.969 3.386 25.64 4.183 28.416.802 2.784-1.563-26.866-2.195-28.814-.867-2.69 1.802-2.985 1.802-3.181 0 0 23.102-3.577 27.087-5.364 3.985-1.792 10.159-4.973 11.16-5.363l-8.167 1.187s-23.507 7.075-33.27 7.244c-11.57.202-25.893-1.557-33.36-3.578l-2.898 2.693zm61.355-98.172s25.1 20.275 35.462 35.377c0 0 8.76 25.04 11.95 29.407 0 0 2.39 5.97 2.797 0 .39-5.956-.406-19.467-.406-19.467s-51.795-56.842-54.984-57.637l5.18 12.32zm56.178 56.441c.952-7.769 10.76-15.498 14.74-17.488 0 0 5.585-2.782 2.79 3.18-2.79 5.958-3.189 4.772-3.189 4.772s6.377 15.102 5.984 18.678c-.404 3.573-3.188 10.33-10.368 2.38 0 0 3.587 2.385 5.985-.391 2.385-2.79-3.594-13.72-3.594-17.096 0-.399-5.173 4.372-6.375 11.53-.001.001-7.965 10.735-5.973-5.565z" fill="#002B5C"/><path d="M323.26 120.347s2.066-8.334 8.383-11.634c6.214-3.248 6.26-3.37 6.26-3.37l6.473 9.837-3.683-11.227 3.884-1.988 3.986 5.266-1.493-6.456 10.26-5.469 13.34 19.674-8.74 6.392s8.146-3.41 10.544-3.608l2.094 2.88-10.058 6.877s9.856-3.215 12.246-3.599l1.763 2.635-3.066 11.88-13.335 8.963 12.333-4.494-2.971 12.914-13.362 10.434s12.55-6.751 12.55-6.36c0 .395-12.747 11.327-12.747 11.327l11.464-6.758-1.784 7.355-6.491 6.56 5.296-1.895-4.377 18.383s-20.44 14.12-20.44 14.511c0 .394 5.182-1.984 6.573-2.78 0 0-1.987 2.976-1.987 2.58 0-.39 7.964-2.58 7.964-2.58s-12.348 9.135-12.348 8.743c0-.394 16.528-8.15 16.528-8.15s-2.337 7.186-4.127 10.762c-1.763 3.504-7.89 12.34-7.89 12.34l-12.488 5.12 9.065-.398-1.494 2.187-7.368 2.385 6.078-.795-9.476 12.709s-7.754-12.907-7.16-15.89c0 0 2.594-10.732 1.79-14.708 0 0-1.79 7.555-4.181 9.34l-17.326-32.392 19.518-77.503z" fill="#E31937"/><path d="M350.955 120.943l-1.196-.596" fill="#000"/><path d="M315.499 185.331s0 7.553 4.573 11.327c0 0-1.986-9.936-4.573-11.327zm2.189-10.134s1.595 9.736 6.174 13.514c0 0-3.587-12.124-6.174-13.514zm7.369-35.573s4.782 18.285 9.362 22.058c0 0-6.775-20.667-9.362-22.058zm14.745-26.43s-.601 4.57 2.783 7.749c0 0-.993-6.162-2.783-7.75zm9.957 6.553c-.406.799-18.326 71.547-20.326 84.662 0 0 19.73-71.741 21.52-83.468l-1.194-1.194zM326.65 215.54s.204-4.174 1.595-5.963c0-.001 0 3.38-1.594 5.963zm9.965-17.092c-5.363 1.216 20.31-13.117 24.695-12.917 0-.001-20.319 11.922-24.695 12.917zm12.063-56.267c-5.363 1.216 20.318-13.117 24.703-12.918 0 0-20.319 11.923-24.703 12.918zm3.377 20.912c-2.675.606 10.166-6.556 12.348-6.459 0 0-10.16 5.964-12.348 6.459zm-65.5 199.494c.399 0 2.365 4.71 2.365 5.89 0 1.179-1.575 4.32-1.575 4.32l-1.181-3.93.39-6.28z" fill="#002B5C"/><path d="M226.628 340.424s6.607-3.53 11.747-4.171c4.221-.525 8.886-5.526 8.886-5.526s-.255 2.683 14.673 4.603c14.927 1.914 25.748 1.59 25.748 1.59s-18.265 5.991-31.58 6.618c-12.556.592-27.697-2.528-29.474-3.114z" fill="#E31937"/></g></svg>