<svg width="512" height="512" viewBox="0 0 512 512" xmlns="http://www.w3.org/2000/svg"><title>atlanta-braves-2</title><g fill="none" fill-rule="evenodd"><path d="M222.455 252.61c1.12-1.85 2.21-3.683 3.335-5.462-.933 6.302-1.516 12.245-1.667 17.418l-10.099 2.813c2.67-4.981 5.494-9.97 8.431-14.768m220.606 17.194c-.193-1.075-.379-2.347-.669-3.573-.368-1.685-.87-3.366-1.465-4.78-.57-1.355-1.844-4.143-4.498-6.299-1.645-1.335-5.358-4.99-6.987-7.697a20.862 20.862 0 0 0-1.296-2.03c6.266-5.145 7.697-13.291 5.84-19.63-2.493-8.404-11.614-16.478-24.095-12.99l-3.045.852-.334-.289c-1.434-8.008-6.783-14.523-10.95-17.936-.504-2.785-.759-6.141-1.585-9.778-1.847-8.03-7.479-11.276-10.596-12.867l-.441-.242c-1.683-3.714-4.107-6.408-5.98-8.14a16.272 16.272 0 0 0-1.928-1.514l-.735-.475c-1.758-1.518-3.35-2.734-4.888-3.501-1.314-.682-4.138-1.898-7.322-.6-2.632 1.087-3.848 3.36-4.416 4.557-.642 1.3-1.144 2.923-1.645 4.481-.252.723-.498 1.738-.788 2.876-.46 2.08-.939 4.551-1.103 5.909-.195 1.86.047 3.91.482 5.638 0 .12.048.226.073.32-6.918 7.276-8.075 18.09-6.234 27.717.214 1.179.163 1.34-.662 3.115-.316.767-.71 1.515-.971 2.253-.422 1.166-.794 2.323-1.04 3.52-.615 2.964-.48 6.05.51 9.429.193.673.243 1.449.243 2.335l-74.418 20.727c.183-2.51.413-4.906.7-6.744 3.902-27.783 10.817-50.038 22.599-74.323 4.245-8.881 9.663-17.625 13.805-26.356 7.933-16.908-10.023-20.702-15.567-19.592-1.97.374-3.896 1.075-5.071 1.543-1.299.547-2.45 1.125-2.45 1.125-62.11 34.399-101.434 97.319-130.772 153.944-.52 1.16-1.02 2.234-1.538 3.356l-44.894 12.509c-12.481 3.476-15.835 15.023-13.39 23.423 2.522 8.439 11.622 16.494 24.122 13.03l10.54-2.938c-.205.277-.35.459-.35.459-6.767 6.914-14.18 10.346-22.94 7.91-7.176-1.967-12.03-8.209-14.583-17.05-.365-.967-.7-2.454-.873-3.155-3.555-10.717-12.194-12.596-20.235-6.647l-3.022 2.206-1.223 3.53c-15.504 45.772 17.177 67.166 35.798 69.551 31.89 4.102 54.489-16.688 68.03-34.838 6.98-9.41 12.294-19.008 16.001-26.36 1.756-3.592 3.142-6.71 4.208-9.042l.712-1.408c.164-.411.53-1.31 1.05-2.596l36.063-10.05c.17.682.277 1.345.46 2.027 16.966 66.022 53.685 84.615 82.883 80.963 18.451-2.298 28.956-16.013 32.3-29.38 4.397-14.784-.457-33.949-5.096-45.08-2.787-5.68-9.415-10.875-18.158-9.272-8.876 1.612-12.153 8.674-13.2 12.307a25.35 25.35 0 0 0-.97 5.048c-.13 1.056-.174 2.118-.256 3.026-.296 3.109-.498 6.324-.82 9.426-.29 2.646-.67 4.862-1.19 6.622-.162.459-.29.804-.316 1.053-4.611-.104-11.441-5.573-18.514-20.558-4.397-9.318-7.309-19.13-8.941-25.278-.34-1.298-.669-2.665-1.003-4.057l67.522-18.823c-1.166 6.933.693 12.836 2.628 16.814.319.563.609 1.11.877 1.581-3.467 13.024 2.44 25.545 15.834 26.806 5.396.496 10.152-1.248 12.775-2.405.712-.317 1.308-.631 1.941-.93.738 0 1.548 0 2.405-.06 3.514-.103 7.867-.462 11.47-1.197 4.503-.927 9.133-2.96 12.16-4.419.75-.342 1.405-.685 2.02-.99l.535.038c2.91.207 8.63.085 13.49-4.004 1.22-1.056 3.278-2.357 5.245-3.46.59-.34.983-.66 1.387-.99.085-.085.217-.17.365-.274 1.686-.053 5.106-.358 8.538-1.345 1.491-.409 4.208-1.339 6.815-3.218 2.657-1.946 5.374-5.16 5.837-9.878.665-6.597-2.812-10.915-4.8-12.968" fill="#FFF"/><path d="M356.477 226.613c.398 1.367.558 2.73.628 4.06l14.91-4.928 11.505-3.265c.003-.085-.044-.16 0-.23 3.325-7.785-3.275-16.377-3.344-16.459-.24-.302-.199-.723.11-.952a.679.679 0 0 1 .949.113c.287.37 6.726 8.81 3.744 17.11l10.792-3.077.145-.04c.032-6.28-4.63-11.809-8.106-14.241-3.54-2.461-2.922-8.433-4.473-15.366-1.572-6.908-8.44-5.148-10.029-10.145-1.66-4.994-6.452-7.637-6.745-8.033-.283-.374-1.604 5.453-1.897 7.609-.24 2.184 2.966 7.404-1.346 11.082-4.299 3.674-6.077 10.84-4.394 19.476 1.646 8.652-4.532 10.33-2.449 17.286" fill="#CE1141"/><path d="M371.964 187.394c-.019.079-1.724 8.373 6.373 12.411.325.176.738.028.908-.302a.67.67 0 0 0-.293-.905c-7.148-3.567-5.717-10.616-5.658-10.924a.68.68 0 0 0-.523-.802.682.682 0 0 0-.807.522m-2.365 21.639c-.158.145-3.899 3.564-4.091 8.122-.114 2.435.816 4.708 2.77 6.766.25.27.681.28.955.028a.68.68 0 0 0 .035-.958c-1.686-1.782-2.5-3.724-2.424-5.774.174-3.988 3.631-7.15 3.669-7.178a.698.698 0 0 0 .05-.965c-.268-.264-.69-.298-.964-.04" fill="#13274F"/><path d="M239.902 296.55c15.466 67.756 49.597 80.767 71.12 78.077 12.157-1.515 19.551-10.604 22.022-20.63 3.341-10.918-.135-26.836-4.485-37.224-.863-1.794-2.42-2.834-4.721-2.413-4.176.776-4.176 6.405-4.504 9.73-1.122 12.804-1.084 27.255-13.332 27.95-27.437 1.546-40.618-54.526-41.935-60.963-.193-.61-.445-1.926-.744-3.648l-23.897 6.66c.16.823.293 1.627.476 2.46m-43.59-17.674c25.731-54.101 57.808-86.878 57.808-86.372-8.028 18.493-16.945 55.845-16.579 76.035l23.323-6.493c-.031-5.412.287-13.106 1.107-18.43 4.075-28.942 11.343-52.29 23.664-77.672 4.214-8.885 9.613-17.522 13.764-26.278 2.786-5.968-6.168-1.464-6.168-1.464-59.16 32.73-96.995 93.236-126.297 150.008l28.71-8.008.668-1.326m-92.434 71.043c-12.806-3.608-19.687-13.866-22.845-24.857-.873-2.31-.901-4.893-2.077-4.004-12.67 37.199 12.954 52.41 25.785 54.042 46.042 5.936 71.168-53.891 76.549-65.67l-28.316 7.898c-2.77 7.659-20.147 40.63-49.096 32.591" fill="#CE1141"/><path d="M132.936 303.143l-19.541 5.44c-11.158 3.121-6.357 19.417 4.775 16.312l19.09-5.324c2.008-7.952-2.43-14.238-4.324-16.428m273.552-75.371s.927 4.99.886 5.475c-.161.283-1.623 2.976-4.054 6.625 3.051-.142 5.217-.732 5.472-.805l.53-.157.267.494c.388.766 1.274 2.14 2.163 3.41l.214-.18.662.613 7.13-1.983c11.163-3.124 6.347-19.391-4.807-16.305l-8.627 2.404c.117.192.164.327.164.409M333.98 263.49l8.895-2.48c-.224-2.64-.867-5.488-1.68-8.153a1484.256 1484.256 0 0 1-7.215 10.632m3.152-16.289l.29-.082 1.973-.547-2.263.629m-20.216 20.306l7.75-2.15a9714.975 9714.975 0 0 0-9.597-6.213c.848 2.687 1.548 5.594 1.847 8.363m17.367-20.935l-16.062 4.466c3.694 2.36 9.45 6.05 10.218 6.544 1.01-1.927 4.057-7.688 5.844-11.01M297.961 256l-10.416 2.904-.842.239c.788 1.81 2.247 5.393 3.398 9.482 2.452-3.95 5.632-9.086 7.86-12.625m1.349 17.26v.01l8.368-2.329c-.267-2.835-1.008-5.864-1.897-8.655a2002.74 2002.74 0 0 1-6.47 10.975m55.509-16.117c.271-.361 5.941-8.923-.715-16.025l-.215-.378.123-.455-7.425 2.074c1.238 2.82 4.116 9.994 4.803 16.299l3.385-.943c.006-.226.01-.437.044-.572" fill="#CE1141"/><path d="M341.816 250.029a86.317 86.317 0 0 0-2.522-6.6l-1.657.462-1.974.546c-1.702 3.244-7.053 13.427-7.053 13.427l-12.463-7.999-4.23 1.191a77.926 77.926 0 0 1 2.298 5.903c3.953 2.583 9.396 6.147 11.788 7.806l7.17-1.995c1.933-2.854 6.254-9.253 8.643-12.741m-34.774 11.901a76.944 76.944 0 0 0-2.326-5.93l-.549.15-1.954.545c-.236.386-.495.81-.778 1.26a2927.468 2927.468 0 0 1-8.428 13.608 37.4 37.4 0 0 1 .892 5.082l3.404-.942 2.055-.572c1.62-2.807 5.061-8.703 7.684-13.2" fill="#EAAA00"/><path d="M342.802 244.353l-2.518.704c1.147 2.592 4.066 9.846 4.649 16.33l5.91-1.638c-.615-6.496-3.745-14.073-4.731-16.32l-3.31.924m-37.188 10.12c1.106 2.482 4.075 9.764 4.734 16.327l2.714-.751 3.152-.877c-.624-6.603-3.855-14.285-4.757-16.315l-5.843 1.616m-19.346 4.67l-5.869 1.631c1.141 2.596 4.06 9.853 4.65 16.34l5.915-1.644c-.592-6.518-3.735-14.12-4.696-16.327" fill="#EAAA00"/><path d="M425.162 289.692c-2.38.107-9.824 4.447-13.13 7.216-3.294 2.797-8.753.908-8.753.908s-8.418 4.894-14.546 6.138c-6.158 1.27-14.671 1.038-14.671 1.038s-5.57 3.862-10.713 3.397c-5.05-.484-10.354-6.38-4.851-17.86 0 0-6.868-6.89-4.709-16.366.426-1.785.716-3.39.984-4.874l.201-.013c.17-.019 14.918-1.395 27.954-9.674 1.705-1.071 3.328-2.347 4.895-3.727 12.345 1.6 27.26-4.72 27.956-5.022l.18-.085c1.333 1.483 2.515 2.989 3.593 4.793 2.506 4.258 7.331 8.84 9.462 10.582 2.115 1.719 2.953 8.775 3.164 10.723.199 2.012 4.873 3.42 4.435 7.732-.476 4.34-9.112 5.01-11.45 5.094zm-73.582-29.351c-.687-6.305-3.565-13.48-4.804-16.299l7.426-2.074-.123.456.214.377c6.657 7.103.987 15.664.716 16.025-.035.135-.038.346-.044.572l-3.385.943zm-7.294 2.027c-.583-6.484-3.501-13.737-4.648-16.33l2.518-.704 4.258-1.191-.949.267c.987 2.247 4.117 9.824 4.731 16.32l-5.91 1.638zm-10.177 2.838l.02-.003c2.042-2.97 5.099-7.49 7.214-10.632.813 2.665 1.456 5.512 1.68 8.152l-8.914 2.483zm-9.083 2.53c-2.393-1.66-7.836-5.223-11.788-7.807a77.926 77.926 0 0 0-2.298-5.902l4.23-1.191 12.462 7.998s5.352-10.182 7.054-13.426l-.29.082 2.263-.629 1.658-.462a86.315 86.315 0 0 1 2.521 6.6c-2.282 3.32-6.568 9.68-8.623 12.741l-7.19 1.996zm-9.298 2.587c-.3-2.77-1-5.676-1.847-8.363 3.193 2.064 7.063 4.57 9.597 6.213l-7.75 2.15zm-4.523 1.27l-2.714.75c-.659-6.562-3.628-13.844-4.734-16.327l5.844-1.615c.901 2.03 4.132 9.711 4.756 16.315l-3.152.876zm-12.346 3.435v-.01l-.066.019c1.778-2.97 4.539-7.6 6.537-10.994.889 2.791 1.63 5.82 1.897 8.656l-8.368 2.329zm-3.832 1.068l-3.404.943a37.212 37.212 0 0 0-.892-5.082 2439.3 2439.3 0 0 0 8.396-13.6l.032-.009c.283-.449.542-.873.778-1.26l1.954-.544.549-.15a76.944 76.944 0 0 1 2.326 5.93c-2.623 4.498-6.064 10.394-7.684 13.2l-2.055.572zm-8.157-15.365l.841-.24 10.417-2.903c-2.228 3.539-5.408 8.674-7.86 12.625-1.151-4.09-2.61-7.672-3.398-9.482zm-2.537 18.335c-.59-6.487-3.508-13.744-4.65-16.34l5.87-1.63c.96 2.206 4.103 9.808 4.695 16.326l-5.915 1.644zM145.334 317.78c.032-.192.057-.374.088-.572.07-.453.126-.912.161-1.364.028-.29.057-.591.066-.864.167-5.639-2.436-10.164-4.308-12.672-.24-.318-.47-.61-.672-.862l137.004-38.157.693-.198c1.201 2.769 4.167 10.17 4.709 16.33l-137.74 38.359zm159.74 36.416c12.249-.694 12.21-15.145 13.333-27.95.328-3.324.328-8.953 4.504-9.73 2.3-.42 3.858.62 4.721 2.414 4.35 10.387 7.826 26.306 4.485 37.224-2.47 10.026-9.865 19.115-22.022 20.63-21.523 2.69-55.654-10.321-71.12-78.078-.183-.833-.316-1.638-.476-2.461l23.897-6.66c.3 1.723.551 3.04.744 3.65 1.317 6.436 14.498 62.507 41.935 60.961zM103.86 378.098c-12.83-1.632-38.455-16.843-25.785-54.042 1.176-.89 1.204 1.694 2.077 4.004 3.158 10.99 10.039 21.249 22.845 24.857 28.95 8.04 46.325-24.932 49.096-32.591l28.316-7.898c-5.38 11.779-30.507 71.606-76.549 65.67zm31.33-57.493l-19.091 5.324c-11.132 3.105-15.933-13.19-4.775-16.311l19.541-5.44c1.894 2.19 6.332 8.476 4.324 16.427zm94.957-48.481l-29.368 8.18c12.352-25.318 25.958-45.813 36.605-59.95l1.015-1.307c-4.668 17.141-8.28 36.476-8.378 49.956l.126 3.12zm61.256-131.884s8.954-4.504 6.168 1.464c-4.15 8.756-9.55 17.393-13.764 26.278-12.32 25.382-19.588 48.73-23.664 77.672-.82 5.324-1.138 13.018-1.106 18.43l-23.323 6.493c-.366-20.19 8.55-57.542 16.578-76.035 0-.506-32.076 32.271-57.807 86.372l-.669 1.326-28.71 8.008c29.303-56.772 67.137-117.278 126.297-150.008zm41.573 107.646a1534.669 1534.669 0 0 0-5.844 11.01 9034.74 9034.74 0 0 0-10.218-6.544l16.062-4.466zm23.957-10.74c1.04.098 3.712.554 5.632 2.71 1.39 1.552 2.074 3.683 2.074 6.355 0 .64-.038 1.31-.107 2.011-.612 5.393-1.438 8.637-2.153 10.604-2.802.682-5.024 1.025-6.108 1.16-.016-.434-.02-.88-.02-.89.013.198 2.598-3.626 2.598-8.45 0-2.666-.876-5.636-3.316-8.405.155-.61 1.144-4.155 1.4-5.094zm1.566-26.336c-1.683-8.637.095-15.803 4.394-19.477 4.311-3.677 1.106-8.897 1.345-11.081.294-2.156 1.614-7.983 1.898-7.61.293.397 5.084 3.04 6.745 8.034 1.588 4.997 8.456 3.237 10.029 10.145 1.55 6.933.933 12.905 4.472 15.365 3.477 2.433 8.138 7.961 8.107 14.24l-.145.042-10.792 3.076c2.982-8.3-3.458-16.738-3.744-17.11a.679.679 0 0 0-.95-.112c-.308.229-.349.65-.11.952.07.082 6.67 8.674 3.345 16.459-.044.07.003.145 0 .23l-11.504 3.265-14.912 4.928c-.07-1.33-.23-2.694-.627-4.06-2.083-6.956 4.094-8.634 2.449-17.286zm17.168 21.286c-4.498 1.144-10.883 3.658-14.316 5.054a10.918 10.918 0 0 0-4.188-1.345c.05-.692.148-1.895.21-2.445.782-.268 14.619-4.834 14.619-4.834l23.352-6.647c.394.364 2.679 2.46 3.766 3.485-2.083.594-23.443 6.732-23.443 6.732zm15.529 7.156c-3.297-1.291-6.543-3.608-9.09-7.602l17.06-4.9c-1.178 2.282-3.879 7.175-7.97 12.502zm-14.634 13.867c-4.249 2.593-8.831 4.258-12.636 5.295.524-1.618 1.05-3.843 1.51-6.82 2.808.217 6.85.657 11.126 1.525zm6.745-5.186c-1.239 1.138-2.506 2.231-3.861 3.25-.413.323-.845.603-1.27.895-4.854-1.1-9.5-1.615-12.554-1.829.073-.631.17-1.188.255-1.882.104-.915.123-1.785.104-2.609 3.76.242 10.178.833 17.326 2.175zm-9.102-14.008a52.2 52.2 0 0 1 1.812-.521l4.847-1.386c2.645 4.296 6.055 6.842 9.516 8.278a76.78 76.78 0 0 1-4.39 5.038c-4.136-3.055-8.889-8.137-11.785-11.409zm10.813 12.367c-.167.176-.33.346-.52.513-7.564-1.48-14.567-2.131-18.668-2.398-.277-2.185-.99-4.03-2.25-5.453a7.96 7.96 0 0 0-.927-.868c2.748-1.109 6.628-2.599 10.13-3.72 2.856 3.252 7.798 8.623 12.235 11.926zm15.608-19.432a342.2 342.2 0 0 1 1.876 2.018c0 .06.942 5.057.942 5.057-.038-.311-9.437 17.043-21.24 24.523-11.07 7.018-23.355 8.97-26.529 9.372.107-1.263.501-5.616.577-6.486 1.825-.192 14.22-1.707 24.02-9.074 11.488-8.693 18.608-21.918 20.354-25.41zm-5.396 21.243a93.66 93.66 0 0 0 4.536-6.07c3.167-.021 5.582-.559 6.225-.719.466.82 1.22 1.974 2.014 3.077-1.74 1.087-6.313 3.429-12.775 3.712zm13.979-2.87c.564.544 3.977 3.753 5.061 4.759-2.597 1.043-14.633 5.588-25.091 4.676 1.743-1.64 3.36-3.4 4.87-5.173 8.374.05 13.908-3.391 15.16-4.262zm3.079-19.438c11.154-3.087 15.97 13.18 4.807 16.305l-7.13 1.983-.662-.613-.214.18c-.889-1.27-1.775-2.644-2.162-3.41l-.268-.494-.53.157c-.255.072-2.42.663-5.471.805 2.43-3.65 3.892-6.343 4.053-6.626.041-.484-.886-5.474-.886-5.474 0-.082-.047-.217-.164-.409l8.627-2.404zm25.441 51.134c-.362-.383-.74-.695-1.068-1.03-.047-.042-.274-.47-.274-.529-.148-1.248-.404-3.058-.817-4.887-.33-1.32-.73-2.659-1.185-3.8-.403-1.084-1.248-2.684-2.631-3.796-1.923-1.587-6.3-5.774-8.435-9.41-1.333-2.335-2.921-4.325-4.67-6.176-.508-.543-.35-1.14.365-1.342 7.719-2.577 9.89-9.827 8.223-15.529-1.705-5.852-7.81-11.053-16.166-8.708l-6.13 1.719c-.189.063-.756-.082-.886-.22-.696-.676-1.418-1.402-2.215-2.103-.618-.6-1.242-1.156-1.721-1.637-.079-.047-.287-.478-.287-.557-.624-7.583-6.417-13.976-10.14-16.562 0-.066-.267-.346-.293-.365-.255-.537-.463-1.367-.721-2.558-.483-2.719-.713-5.997-1.532-9.514-1.21-5.317-4.703-7.395-7.243-8.696-.545-.242-1.027-.443-1.538-.71-.19-.123-.476-.267-.64-.403l-.36-.304c-.046-.02-.302-.368-.333-.412-1.132-3.432-3.297-5.912-5.012-7.512a8.6 8.6 0 0 0-1.153-.917c-.423-.264-.817-.547-1.148-.77-3.552-3.074-4.973-3.536-5.638-3.256-.344.157-.731.565-1.188 1.486-.416.9-.836 2.115-1.327 3.696-.155.575-.407 1.465-.637 2.423-.413 1.83-.86 4.023-.99 5.22-.085.834 0 2.066.379 3.536.154.708.365 1.544.45 2.408.161 1.273-.056 1.857-.74 2.439-5.973 5.088-7.596 14.105-5.812 23.442.595 3.03-.161 4.649-1.107 6.767-.29.67-.595 1.323-.854 1.97-.296.833-.586 1.647-.737 2.502-.404 1.97-.369 4.06.353 6.459.93 3.014.463 6.254-.117 8.514-.038.185-.429.569-.605.616l-86.845 24.184c.01-.487.01-.927.025-1.443.176-4.946.586-10.934 1.194-14.765 3.997-28.44 11.08-51.291 23.17-76.198 4.226-8.841 9.654-17.56 13.789-26.278 4.103-8.68-3.927-11.17-8.025-10.346-1.447.28-2.88.798-3.795 1.172-1.024.45-1.834.82-1.834.82-61.218 33.896-99.998 96.738-129.407 154.038l-1.069 2.52-48.245 13.437c-8.308 2.31-10.685 9.859-8.964 15.723 1.775 5.855 7.848 11.057 16.191 8.719l28.051-7.81c-2.073 4.16-5.82 10.43-11.166 15.902-7.685 7.848-17.54 13.103-29.741 9.73-10.316-2.872-16.282-11.376-19.141-21.377-.413-1.056-.71-2.414-.958-3.2-1.932-5.842-5.428-6.486-9.61-3.375l-1.302.968-.53 1.565c-13.933 40.983 14.776 58.932 30.192 60.88 27.97 3.621 48.478-14.479 61.596-32.141 6.688-8.97 11.816-18.204 15.34-25.357a393.477 393.477 0 0 0 4.268-8.923l1.19-2.728c.212-.374.247-.606.335-.682l.334-.449.167-.506c.243-.607.51-1.273.804-1.955l46.328-12.904c.24 1.342.4 2.165.4 2.165 15.772 69.287 51.546 85.382 76.908 82.192 14.87-1.854 23.664-12.967 26.545-24.502 3.785-12.647-.249-29.986-4.781-40.693-1.712-3.583-5.548-6.393-10.638-5.444-5.065.921-7.145 4.912-7.914 7.606-.375 1.244-.59 2.608-.75 3.91-.079 1.03-.164 2.077-.243 2.913-.293 3.159-.485 6.433-.816 9.557-.315 2.835-.697 5.538-1.488 7.892-1.26 4.13-2.96 5.532-5.988 5.71-9.673.532-18.454-9.393-25.492-24.429-5.967-12.64-9.396-26.11-10.464-30.97-.369-1.54-.76-3.425-1.154-5.42l82.134-22.897c.709-.198 1.19.233 1.055.928a67.376 67.376 0 0 1-1.238 7.09c-1.365 5.912.145 10.981 1.872 14.47.567 1.216 1.223 2.256 1.765 3.098.12.101.173.642.12.739-4.192 11.629 1.024 20.24 9.616 21.032 3.681.361 7.214-.827 9.48-1.864 1.06-.468 2.011-.958 2.67-1.367.047 0 .416-.104.464-.104.93 0 2.215-.018 3.687-.069 3.136-.125 7.07-.405 10.404-1.062 3.597-.739 7.64-2.502 10.606-3.89 1.299-.664 2.5-1.296 3.401-1.742.038-.04.485-.1.57-.082.584.082 1.182.176 1.844.242 2.266.132 5.882-.01 8.847-2.527 3.363-2.834 9.743-6.172 10.427-6.191 1.292-.047 4.437-.28 7.46-1.16 2.44-.682 7.564-2.586 8.12-7.728.434-4.023-1.68-6.622-3.19-8.118z" fill="#13274F"/><path d="M278.723 262.484L141.719 300.64c.202.252.432.544.672.861 1.872 2.508 4.475 7.034 4.308 12.672-.01.274-.038.575-.066.865-.035.452-.091.911-.16 1.364-.032.198-.057.38-.089.572l137.74-38.359c-.541-6.16-3.507-13.561-4.708-16.33l-.693.198" fill="#CE1141"/><path d="M139.207 300l-6.943 1.93c1.787 2.156 4.87 6.754 4.87 12.826 0 1.14-.237 2.366-.549 3.61l3.064-.857 4.094-1.144c.038-.17.551-2.348.539-3.746-.098-6.406-3.543-10.661-5.075-12.619" fill="#EAAA00"/><path d="M393.5 237.074c4.09-5.327 6.792-10.22 7.97-12.503l-17.06 4.9c2.546 3.995 5.793 6.311 9.09 7.603m41.352 38.739c-.211-1.949-1.05-9.005-3.164-10.724-2.131-1.741-6.956-6.323-9.462-10.582-1.078-1.804-2.26-3.31-3.593-4.793l-.18.085c-.696.302-15.61 6.622-27.957 5.022-1.566 1.38-3.19 2.656-4.894 3.728-13.036 8.278-27.784 9.655-27.954 9.674l-.202.012c-.267 1.484-.557 3.09-.983 4.875-2.159 9.475 4.709 16.365 4.709 16.365-5.503 11.48-.199 17.376 4.85 17.86 5.144.466 10.714-3.397 10.714-3.397s8.513.233 14.671-1.037c6.127-1.245 14.546-6.138 14.546-6.138s5.459 1.889 8.753-.908c3.306-2.77 10.75-7.11 13.13-7.216 2.339-.085 10.975-.755 11.45-5.095.439-4.312-4.235-5.72-4.434-7.731m-56.718-24.574c-4.277-.868-8.317-1.308-11.126-1.525-.46 2.977-.986 5.202-1.51 6.82 3.805-1.037 8.388-2.703 12.636-5.295m9.73-5.312c-4.438-3.303-9.38-8.674-12.235-11.927-3.502 1.122-7.382 2.612-10.13 3.721.324.267.63.534.926.868 1.261 1.423 1.973 3.268 2.25 5.452 4.101.268 11.104.918 18.669 2.398.189-.166.353-.336.52-.512" fill="#CE1141"/><path d="M391.13 239.135c-3.461-1.436-6.872-3.982-9.516-8.278l-4.848 1.386a52.2 52.2 0 0 0-1.812.522c2.897 3.272 7.65 8.354 11.785 11.408a76.78 76.78 0 0 0 4.39-5.038m10.423 1.87a93.66 93.66 0 0 1-4.535 6.07c6.461-.284 11.034-2.625 12.774-3.712-.794-1.104-1.547-2.257-2.014-3.077-.643.16-3.057.697-6.225.72m-35.694 2.423c.019.823 0 1.694-.104 2.608-.085.695-.183 1.251-.255 1.883 3.054.213 7.7.729 12.553 1.829.426-.292.858-.572 1.27-.896 1.356-1.018 2.623-2.112 3.861-3.25a148.526 148.526 0 0 0-17.325-2.174" fill="#EAAA00"/><path d="M415.805 248.187a817.267 817.267 0 0 1-5.062-4.758c-1.251.87-6.786 4.312-15.16 4.261-1.51 1.773-3.127 3.533-4.87 5.173 10.458.912 22.495-3.633 25.092-4.676m-41.781-20.111s-13.836 4.566-14.618 4.833c-.063.55-.16 1.754-.211 2.446.908.094 2.55.405 4.189 1.345 3.432-1.396 9.818-3.91 14.315-5.054 0 0 21.36-6.138 23.444-6.732-1.088-1.025-3.373-3.12-3.767-3.485l-23.352 6.647m-17.244 31.906c1.085-.135 3.307-.478 6.109-1.16.715-1.967 1.541-5.21 2.153-10.604.069-.7.107-1.37.107-2.011 0-2.672-.684-4.802-2.074-6.355-1.92-2.156-4.592-2.612-5.632-2.71-.256.94-1.245 4.486-1.4 5.095 2.44 2.77 3.316 5.74 3.316 8.404 0 4.825-2.585 8.65-2.597 8.452 0 .009.003.455.019.889" fill="#EAAA00"/><path d="M403.812 231.646s-.942-4.997-.942-5.057c0 0-1.15-1.248-1.876-2.018-1.746 3.492-8.866 16.717-20.354 25.41-9.8 7.367-22.195 8.882-24.02 9.074-.076.87-.47 5.223-.577 6.487 3.174-.403 15.46-2.354 26.529-9.372 11.804-7.48 21.202-24.835 21.24-24.524" fill="#EAAA00"/><path d="M371.525 268.671c-.35.113-.388.754-.268 1.106l.527 1.613c-.06 1.059-.817 2.25-2.21 3.41-4.419 3.746-4.075 8.265-4.066 8.46.05.362.375.641.731.61a.693.693 0 0 0 .637-.726c-.012-.167-.284-4.036 3.59-7.314 1.702-1.445 2.607-2.929 2.67-4.412l-.908-2.59c-.136-.352-.36-.276-.703-.157m19.442-9.364a.643.643 0 0 0-.08.953c.013.044 3.761 4.532 2.172 8.281-.67 1.562-.624 3.099.117 4.441.996 1.81 2.97 2.737 3.278 2.785a.657.657 0 0 0 .75-.506c.085-.337-.13-.689-.463-.805-.259-.094-1.876-.94-2.534-2.414-.385-.908-.366-1.898.1-2.973 1.907-4.51-2.228-9.479-2.401-9.683a.65.65 0 0 0-.94-.079m18.976-3.209a.654.654 0 0 0-.211.92c.091.161 2.42 3.964 6.698 5.526 3.668 1.295 5.184 8.875 5.184 8.957a.7.7 0 0 0 .813.528c.366-.063.593-.421.54-.782-.067-.356-1.687-8.43-6.077-9.976-3.817-1.386-5.986-4.912-6.008-4.95a.691.691 0 0 0-.939-.223m-30.095 34.553c-4.113 3.65-10.042-.729-10.117-.766a.672.672 0 0 0-.943.122.687.687 0 0 0 .126.952c.073.054 6.893 5.098 11.842.701 4.258-3.75 8.66-2.778 8.844-2.734a.67.67 0 0 0 .807-.51.662.662 0 0 0-.483-.813c-.214-.047-5.257-1.188-10.076 3.048m46.133-15.352c-.84 2.212-2.69 2.448-4.855 2.721-2.074.261-4.4.55-5.812 2.77-2.323 3.658-7.993 2.815-8.068 2.806a.66.66 0 0 0-.76.56c-.076.37.192.713.542.776.278.037 6.629 1.002 9.44-3.423 1.05-1.669 2.878-1.914 4.816-2.143 2.266-.29 4.857-.616 5.973-3.596a.694.694 0 0 0-.41-.874.686.686 0 0 0-.867.403m-59.948 79.553h-1.516v-6.135h-.05l-2.162 6.135h-1.472l-2.109-6.135h-.031v6.135h-1.526v-7.71h2.648l1.74 5.036h.037l1.825-5.035h2.616v7.71zm-10.24-6.342h-2.26v6.342h-1.535v-6.342h-2.257v-1.367h6.052v1.367z" fill="#13274F"/></g></svg>