<?xml version="1.0" encoding="UTF-8" standalone="no"?>
<svg width="512px" height="512px" viewBox="0 0 512 512" version="1.1" xmlns="http://www.w3.org/2000/svg" xmlns:xlink="http://www.w3.org/1999/xlink">
    <!-- Generator: Sketch 39.1 (31720) - http://www.bohemiancoding.com/sketch -->
    <title>atlanta-braves-2</title>
    <desc>Created with Sketch.</desc>
    <defs></defs>
    <g id="MLB" stroke="none" stroke-width="1" fill="none" fill-rule="evenodd">
        <g id="atlanta-braves-2">
            <g transform="translate(62.000000, 124.000000)" id="Page-1">
                <g>
                    <g id="MLB_Logo_Atlata">
                        <g id="Imported-Layers-Copy" transform="translate(0.923810, 0.000000)">
                            <path d="M159.531416,128.610673 C160.650312,126.759531 161.740842,124.927245 162.866042,123.148388 C161.933102,129.449816 161.350016,135.392959 161.198728,140.566102 L151.100295,143.378959 C153.769887,138.397531 156.593918,133.409816 159.531416,128.610673 M380.136804,145.805245 C379.944543,144.730388 379.758585,143.457531 379.468618,142.231816 C379.099855,140.547245 378.598716,138.865816 378.003022,137.451531 C377.432542,136.096959 376.159206,133.309245 373.505373,131.153245 C371.860122,129.817531 368.147277,126.162388 366.517787,123.456388 C366.136416,122.761816 365.685706,122.076673 365.222388,121.426102 C371.488208,116.281245 372.919134,108.134959 371.062712,101.795816 C368.569622,93.3918161 359.448253,85.3178161 346.967042,88.8063875 L343.922383,89.6581019 L343.588291,89.3689591 C342.154212,81.3609591 336.805573,74.8458161 332.638865,71.4326733 C332.134575,68.6481019 331.879277,65.2915305 331.0535,61.6552447 C329.206532,53.6252447 323.57423,50.3786733 320.457079,48.7883875 L320.015824,48.5463875 C318.332751,44.8315305 315.909001,42.1381019 314.03682,40.4063875 C313.318204,39.7526733 312.656322,39.2561019 312.107904,38.8915305 L311.373532,38.4169591 C309.614814,36.8989591 308.023145,35.6826733 306.485057,34.9158161 C305.170747,34.2338161 302.346716,33.0175305 299.163377,34.3155305 C296.531606,35.4029591 295.315004,37.6752447 294.747677,38.8726733 C294.104704,40.1738161 293.603565,41.7955305 293.102426,43.3543875 C292.850281,44.0772447 292.604438,45.0923875 292.314471,46.2301019 C291.854304,48.3106733 291.375228,50.7809591 291.211334,52.1386733 C291.01592,53.9992447 291.25861,56.0483875 291.693563,57.7769591 C291.693563,57.8963875 291.74084,58.0032447 291.766054,58.0975305 C284.847808,65.3732447 283.691089,76.1878161 285.531753,85.8143875 C285.746077,86.9929591 285.695647,87.1532447 284.869871,88.9289591 C284.554689,89.6958161 284.16071,90.4438161 283.89911,91.1823875 C283.476765,92.3483875 283.104851,93.5049591 282.859008,94.7023875 C282.244404,97.6661019 282.379932,100.752388 283.369604,104.130959 C283.561865,104.803531 283.612294,105.579816 283.612294,106.466102 L209.194655,127.193245 C209.377461,124.682102 209.607543,122.287245 209.894359,120.448673 C213.796312,92.6658161 220.711408,70.4112447 232.492914,46.1263875 C236.738416,37.2446733 242.156396,28.5012447 246.297889,19.7703875 C254.231022,2.86181618 236.275098,-0.931612385 230.731046,0.177816186 C228.761157,0.551816186 226.835395,1.25267333 225.659767,1.72095904 C224.361216,2.26781618 223.210802,2.8461019 223.210802,2.8461019 C161.101022,37.2446733 121.775755,100.164673 92.4386076,156.78953 C91.9185572,157.949244 91.4174177,159.024102 90.9005192,160.146102 L46.0059847,172.654674 C33.5247745,176.130674 30.1712373,187.67753 32.6170502,196.078388 C35.1385068,204.516958 44.2378133,212.572102 56.7379343,209.108674 L67.2776227,206.170102 C67.0727545,206.446674 66.9277706,206.628958 66.9277706,206.628958 C60.1608116,213.543244 52.7477292,216.975244 43.9888194,214.53953 C36.8121235,212.572102 31.9583196,206.330388 29.4053449,197.48953 C29.0397337,196.52153 28.7056408,195.034958 28.5322906,194.334102 C24.9770368,183.616958 16.3378961,181.73753 8.29760146,187.686958 L5.27500539,189.893244 L4.05209895,193.422674 C-11.4517072,239.195244 21.2295219,260.588674 39.8504788,262.974102 C71.740601,267.07553 94.3391555,246.28553 107.879377,228.13553 C114.86066,218.725816 120.17463,209.12753 123.881171,201.776388 C125.636735,198.184102 127.023536,195.066388 128.088852,192.734388 L128.801163,191.326388 C128.965058,190.914674 129.330669,190.015816 129.85072,188.730388 L165.913853,178.67953 C166.084051,179.36153 166.191212,180.024674 166.374018,180.706674 C183.340269,246.728674 220.058981,265.321816 249.257448,261.669816 C267.708206,259.372388 278.213226,245.656958 281.557306,232.290388 C285.954097,217.506388 281.100293,198.341244 276.460812,187.209244 C273.674603,181.530102 267.046324,176.334958 258.303173,177.937816 C249.427646,179.550102 246.149753,186.612102 245.103348,190.245244 C244.614816,191.841816 244.287026,193.589244 244.132587,195.292674 C244.003363,196.348674 243.959238,197.410958 243.87729,198.319244 C243.581018,201.42753 243.379302,204.642674 243.057816,207.744674 C242.767849,210.390958 242.386479,212.606674 241.866428,214.366674 C241.705685,214.82553 241.576461,215.171244 241.551246,215.41953 C236.940132,215.315816 230.110138,209.847244 223.037451,194.862102 C218.640661,185.54353 215.728379,175.73153 214.095736,169.584102 C213.75534,168.286102 213.42755,166.918958 213.093457,165.526674 L280.614912,146.704102 C279.448739,153.637244 281.308312,159.53953 283.243532,163.518388 C283.561865,164.080958 283.851832,164.627816 284.119738,165.099244 C280.652734,178.123244 286.559246,190.644388 299.954485,191.904674 C305.350402,192.401244 310.106499,190.656958 312.728814,189.500388 C313.441126,189.182958 314.03682,188.868674 314.670336,188.570102 C315.407861,188.570102 316.217879,188.570102 317.075175,188.510388 C320.589455,188.406674 324.94212,188.048388 328.54465,187.312958 C333.048602,186.385816 337.678626,184.352388 340.704375,182.894102 C341.454508,182.55153 342.110087,182.208958 342.724692,181.904102 L343.260501,181.941816 C346.169632,182.149244 351.890187,182.026674 356.750294,177.937816 C357.970049,176.881816 360.028187,175.580674 361.994924,174.47753 C362.584314,174.138102 362.978292,173.81753 363.381724,173.48753 C363.466824,173.402674 363.5992,173.317816 363.747336,173.214102 C365.433559,173.160674 368.853285,172.855816 372.285618,171.868958 C373.77643,171.460388 376.493299,170.530102 379.099855,168.650674 C381.75684,166.705244 384.473708,163.490102 384.937026,158.772674 C385.602061,152.175816 382.125602,147.857531 380.136804,145.805245" id="Fill-46" fill="#FFFFFF"></path>
                            <path d="M293.553647,102.612628 C293.950777,103.979771 294.11152,105.343771 294.180859,106.673199 L309.092124,101.745199 L320.596269,98.4797706 C320.59942,98.3949134 320.552143,98.3194849 320.596269,98.250342 C323.921439,90.4654849 317.321527,81.8729134 317.252187,81.7911991 C317.012649,81.4894849 317.053622,81.068342 317.3625,80.8389134 C317.65562,80.6126277 318.071661,80.6566277 318.311198,80.9520563 C318.598014,81.3229134 325.037184,89.7614849 322.055561,98.0617706 L332.847396,94.9849134 L332.99238,94.9440563 C333.023898,88.6646277 328.362355,83.136342 324.885896,80.7037706 C321.346402,78.2429134 321.964159,72.2714849 320.413463,65.338342 C318.840704,58.430342 311.972887,60.190342 310.384369,55.1931991 C308.723361,50.1991991 303.932592,47.5560563 303.639473,47.1600563 C303.35581,46.7860563 302.035196,52.6129134 301.742077,54.7689134 C301.502539,56.9531991 304.707941,62.1734849 300.396249,65.8506277 C296.097167,69.5246277 294.319539,76.690342 296.002612,85.3269134 C297.647863,93.9791991 291.470294,95.6574849 293.553647,102.612628" id="Fill-47" fill="#CE1141"></path>
                            <path d="M309.04055,63.3939732 C309.021638,63.4725446 307.316505,71.7665446 315.413532,75.805116 C315.738169,75.981116 316.151058,75.8334016 316.321256,75.5034016 C316.494607,75.1702588 316.355926,74.7648302 316.028136,74.5982588 C308.879807,71.031116 310.310734,63.9816874 310.370619,63.6736874 C310.446262,63.309116 310.213027,62.9539732 309.847416,62.8722588 C309.484956,62.7936874 309.116193,63.0294016 309.04055,63.3939732" id="Fill-48" fill="#13274F"></path>
                            <path d="M306.675112,85.0333766 C306.517521,85.177948 302.77631,88.5973766 302.584049,93.1545194 C302.470582,95.5902337 303.40037,97.8625194 305.354498,99.9210908 C305.603492,100.191377 306.035292,100.200805 306.3095,99.9493766 C306.580557,99.697948 306.599468,99.2673766 306.344171,98.9908052 C304.657947,97.2088052 303.844777,95.2665194 303.92042,93.2173766 C304.093771,89.2290908 307.551318,86.0673766 307.589139,86.0390908 C307.860196,85.7813766 307.885412,85.3570908 307.639569,85.0742337 C307.371665,84.8102337 306.94932,84.7756622 306.675112,85.0333766" id="Fill-49" fill="#13274F"></path>
                            <path d="M176.977886,172.549142 C192.44387,240.306 226.574937,253.317428 248.09872,250.627142 C260.255292,249.112286 267.649465,240.023142 270.120492,229.997428 C273.461422,219.079142 269.984963,203.160572 265.635451,192.773428 C264.771853,190.978858 263.214853,189.938572 260.914024,190.359714 C256.737861,191.136 256.737861,196.764858 256.410072,200.09 C255.288024,212.894 255.325845,227.344858 243.07787,228.039428 C215.641271,229.585714 202.460357,173.514 201.142896,167.077428 C200.950634,166.467714 200.698488,165.150858 200.399065,163.428572 L176.501961,170.088286 C176.662704,170.911714 176.79508,171.716286 176.977886,172.549142" id="Fill-50" fill="#CE1141"></path>
                            <path d="M133.388205,154.875001 C159.119669,100.773858 191.195749,67.9970005 191.195749,68.5030005 C183.168061,86.9955719 174.251561,124.348429 174.617172,144.538143 L197.940645,138.045001 C197.909127,132.633001 198.227461,124.939286 199.046935,119.615286 C203.122239,90.6727148 210.390337,67.3244291 222.710804,41.9427148 C226.924788,33.0578577 232.323857,24.4212863 236.474806,15.6652863 C239.261016,9.69700054 230.306692,14.2007148 230.306692,14.2007148 C171.147018,46.9304291 133.312561,107.436715 104.010084,164.209287 L132.720019,156.201287 L133.388205,154.875001" id="Fill-51" fill="#CE1141"></path>
                            <path d="M40.9539522,225.918 C28.1481045,222.31 21.2676798,212.051714 18.1095555,201.061142 C17.2365012,198.751142 17.2081347,196.167714 16.0325057,197.057142 C3.36218632,234.256 28.9864889,249.467428 41.817551,251.098572 C87.8593483,257.035428 112.985663,197.208 118.365821,185.428572 L90.0498636,193.326572 C87.2794132,200.985714 69.9034255,233.957428 40.9539522,225.918" id="Fill-52" fill="#CE1141"></path>
                            <path d="M70.0123657,179.142858 L50.4710773,184.583142 C39.313632,187.704 44.1138549,203.999714 55.2460857,200.894572 L74.3366638,195.570572 C76.3443736,187.619142 71.90661,181.333428 70.0123657,179.142858" id="Fill-53" fill="#CE1141"></path>
                            <path d="M343.564218,103.771797 C343.564218,103.771797 344.490853,108.762655 344.44988,109.246655 C344.289137,109.529512 342.826692,112.22294 340.396639,115.871797 C343.447602,115.730369 345.612902,115.139512 345.8682,115.067226 L346.397706,114.910083 L346.66561,115.403512 C347.053284,116.170369 347.938945,117.543797 348.827759,118.813512 L349.042082,118.634369 L349.703965,119.247226 L356.833384,117.264083 C367.997133,114.140083 363.181151,97.8726546 352.026857,100.95894 L343.400324,103.363226 C343.516941,103.55494 343.564218,103.690083 343.564218,103.771797" id="Fill-54" fill="#CE1141"></path>
                            <path d="M271.056582,139.489429 L279.951021,137.009714 C279.727241,134.369714 279.08427,131.522286 278.2711,128.857143 C276.156229,132 273.098963,136.519429 271.056582,139.489429" id="Fill-55" fill="#CE1141"></path>
                            <polyline id="Fill-56" fill="#CE1141" points="274.208404 123.2 274.498371 123.118286 276.47141 122.571429 274.208404 123.2"></polyline>
                            <path d="M253.992625,143.506 L261.742953,141.356286 C259.208888,139.712571 255.338453,137.207714 252.145659,135.142857 C252.993498,137.83 253.693202,140.737143 253.992625,143.506" id="Fill-57" fill="#CE1141"></path>
                            <path d="M271.359157,122.571429 L255.297479,127.037429 C258.991414,129.397714 264.746637,133.087429 265.515682,133.580857 C266.524265,131.654286 269.572075,125.893429 271.359157,122.571429" id="Fill-58" fill="#CE1141"></path>
                            <path d="M235.037575,132 L224.620808,134.904 L223.779272,135.142857 C224.567227,136.953143 226.02652,140.536 227.176935,144.624857 C229.629051,140.674286 232.809237,135.538857 235.037575,132" id="Fill-59" fill="#CE1141"></path>
                            <path d="M236.386555,149.260571 L236.386555,149.27 L244.754639,146.941143 C244.486733,144.106286 243.746057,141.076571 242.857243,138.285714 C240.739219,141.903143 238.126359,146.337714 236.386555,149.260571" id="Fill-60" fill="#CE1141"></path>
                            <path d="M291.896422,133.144 C292.167478,132.782571 297.837604,124.221429 291.180959,117.118571 L290.966634,116.741429 L291.089555,116.285714 L283.663865,118.36 C284.902531,121.179143 287.780143,128.354286 288.467241,134.658857 L291.852296,133.716 C291.8586,133.489714 291.861751,133.279143 291.896422,133.144" id="Fill-61" fill="#CE1141"></path>
                            <path d="M278.89201,126.028571 C277.927551,123.156 276.947335,120.761143 276.370553,119.428571 L274.712694,119.890571 L272.739655,120.437429 C271.037672,123.680857 265.68588,133.863714 265.68588,133.863714 C265.68588,133.863714 257.106624,128.357429 253.223581,125.865143 L248.993837,127.056286 C249.523343,128.272571 250.402702,130.359429 251.291515,132.958571 C255.243898,135.542 260.687092,139.106 263.079324,140.765429 L270.249716,138.769714 C272.181782,135.916 276.502929,129.517143 278.89201,126.028571" id="Fill-62" fill="#EAAA00"></path>
                            <path d="M244.117971,137.930571 C243.213398,135.312571 242.321433,133.194286 241.791927,132 L241.24351,132.150857 L239.289382,132.694571 C239.052994,133.081143 238.794545,133.505429 238.510882,133.954857 C236.165927,137.757714 232.563396,143.597143 230.082914,147.563429 C230.502106,149.27 230.80468,150.976571 230.974878,152.645428 L234.378845,151.702571 L236.433831,151.130571 C238.053868,148.324 241.495657,142.428 244.117971,137.930571" id="Fill-63" fill="#EAAA00"></path>
                            <path d="M279.878529,120.352571 L277.360224,121.056571 C278.507486,123.649429 281.426073,130.903143 282.009159,137.386857 L287.918824,135.749429 C287.304218,129.253143 284.174461,121.675714 283.187941,119.428571 L279.878529,120.352571" id="Fill-64" fill="#EAAA00"></path>
                            <path d="M242.690196,130.472571 C243.796485,132.955429 246.7655,140.237429 247.424231,146.799714 L250.137949,146.048571 L253.289769,145.171714 C252.665708,138.568571 249.435092,130.887429 248.533672,128.857143 L242.690196,130.472571" id="Fill-65" fill="#EAAA00"></path>
                            <path d="M223.34432,135.142857 L217.47563,136.774 C218.61659,139.37 221.535175,146.626857 222.124566,153.113714 L228.040533,151.47 C227.44799,144.951714 224.305626,137.349143 223.34432,135.142857" id="Fill-66" fill="#EAAA00"></path>
                            <path d="M362.238354,165.692106 C359.85873,165.798963 352.41413,170.139249 349.107869,172.908106 C345.814216,175.705249 340.355263,173.816391 340.355263,173.816391 C340.355263,173.816391 331.936749,178.70982 325.80961,179.954391 C319.650953,181.224106 311.137885,180.991534 311.137885,180.991534 C311.137885,180.991534 305.568618,184.854106 300.424846,184.388963 C295.37563,183.904963 290.071114,178.008963 295.574194,166.528106 C295.574194,166.528106 288.706377,159.638963 290.865373,150.163249 C291.290869,148.378106 291.580838,146.772106 291.848742,145.288677 L292.050459,145.276106 C292.220657,145.257249 306.968026,143.880677 320.003957,135.602391 C321.709091,134.530677 323.332279,133.254677 324.898734,131.874963 C337.244416,133.474677 352.158832,127.154391 352.855385,126.852677 L353.035038,126.76782 C354.368257,128.251249 355.550191,129.756677 356.628114,131.560677 C359.13381,135.819249 363.959248,140.401534 366.089879,142.142677 C368.204751,143.86182 369.043136,150.917534 369.254306,152.866106 C369.452871,154.877534 374.127022,156.285534 373.688918,160.597534 C373.212994,164.93782 364.577005,165.607249 362.238354,165.692106 L362.238354,165.692106 L362.238354,165.692106 Z M288.655947,136.340963 C287.968851,130.036391 285.091238,122.861249 283.852573,120.042106 L291.278263,117.96782 L291.155342,118.423534 L291.369665,118.800677 C298.02631,125.903534 292.356185,134.464677 292.085128,134.826106 C292.050459,134.961249 292.047306,135.17182 292.041002,135.398106 L288.655947,136.340963 L288.655947,136.340963 L288.655947,136.340963 Z M281.362634,138.368106 C280.779547,131.884391 277.860961,124.630677 276.713698,122.03782 L279.232004,121.33382 L283.490114,120.142677 L282.541416,120.40982 C283.527936,122.656963 286.657693,130.234391 287.272298,136.730677 L281.362634,138.368106 L281.362634,138.368106 L281.362634,138.368106 Z M271.185405,141.206106 L271.204316,141.202963 C273.246696,138.232963 276.303961,133.713534 278.418834,130.570677 C279.232004,133.23582 279.874975,136.083249 280.098754,138.723249 L271.185405,141.206106 L271.185405,141.206106 L271.185405,141.206106 Z M262.101857,143.736106 C259.709626,142.076677 254.266432,138.512677 250.314048,135.929249 C249.425235,133.330106 248.545877,131.243249 248.016371,130.026963 L252.246114,128.83582 C256.129157,131.328106 264.708414,136.834391 264.708414,136.834391 C264.708414,136.834391 270.060205,126.651534 271.762189,123.408106 L271.47222,123.48982 L273.735228,122.861249 L275.393086,122.399249 C275.969869,123.73182 276.950085,126.126677 277.914542,128.999249 C275.632624,132.318106 271.346148,138.679249 269.291161,141.740391 L262.101857,143.736106 L262.101857,143.736106 L262.101857,143.736106 Z M252.803987,146.322677 C252.504563,143.55382 251.804859,140.646677 250.95702,137.959534 C254.149814,140.024391 258.02025,142.529249 260.554314,144.172963 L252.803987,146.322677 L252.803987,146.322677 L252.803987,146.322677 Z M248.281124,147.592391 L245.567406,148.343534 C244.908675,141.781249 241.939661,134.499249 240.833371,132.016391 L246.676847,130.400963 C247.578267,132.431249 250.808885,140.112391 251.432945,146.715534 L248.281124,147.592391 L248.281124,147.592391 L248.281124,147.592391 Z M235.935442,151.027534 L235.935442,151.018106 L235.869253,151.036963 C237.646881,148.066963 240.407875,143.437534 242.40613,140.043249 C243.294944,142.834106 244.035622,145.86382 244.303526,148.698677 L235.935442,151.027534 L235.935442,151.027534 L235.935442,151.027534 Z M232.102828,152.096106 L228.698861,153.038963 C228.528663,151.370106 228.226089,149.663534 227.806896,147.956963 C230.158155,144.19182 233.792204,138.286391 236.203347,134.35782 L236.234865,134.348391 C236.51853,133.898963 236.776979,133.474677 237.013365,133.088106 L238.967494,132.544391 L239.51591,132.393534 C240.045416,133.58782 240.937381,135.706106 241.841954,138.324106 C239.21964,142.821534 235.777851,148.717534 234.157816,151.524106 L232.102828,152.096106 L232.102828,152.096106 L232.102828,152.096106 Z M223.945916,136.730677 L224.787452,136.49182 L235.20422,133.58782 C232.975883,137.126677 229.795695,142.262106 227.343579,146.212677 C226.193165,142.12382 224.733871,138.540963 223.945916,136.730677 L223.945916,136.730677 L223.945916,136.730677 Z M221.4087,155.066106 C220.81931,148.579249 217.900724,141.322391 216.759765,138.726391 L222.628455,137.095249 C223.589761,139.301534 226.732126,146.904106 227.324667,153.422391 L221.4087,155.066106 L221.4087,155.066106 L221.4087,155.066106 Z M82.4102545,193.77982 C82.4417727,193.588106 82.4669872,193.40582 82.4985055,193.20782 C82.5678455,192.755249 82.6245784,192.296391 82.6592484,191.84382 C82.6876147,191.554677 82.7159812,191.252963 82.7254366,190.979534 C82.8924831,185.341249 80.2890792,180.815534 78.4168976,178.307534 C78.1773592,177.990106 77.9472764,177.69782 77.7455598,177.446391 L214.748903,139.288963 L215.442304,139.090963 C216.643147,141.85982 219.60901,149.261249 220.151124,155.421249 L82.4102545,193.77982 L82.4102545,193.77982 L82.4102545,193.77982 Z M242.150832,230.196106 C254.398808,229.501534 254.360987,215.050677 255.483034,202.246677 C255.810824,198.921534 255.810824,193.292677 259.986987,192.516391 C262.287816,192.095249 263.844814,193.135534 264.708414,194.930106 C269.057926,205.317249 272.534385,221.23582 269.193455,232.154106 C266.722428,242.17982 259.328255,251.268963 247.171683,252.78382 C225.647899,255.474106 191.516832,242.462677 176.050848,174.70582 C175.868043,173.872963 175.735667,173.068391 175.574924,172.244963 L199.472028,165.585249 C199.771451,167.307534 200.023597,168.624391 200.215857,169.234106 C201.533318,175.670677 214.714234,231.742391 242.150832,230.196106 L242.150832,230.196106 L242.150832,230.196106 Z M40.9354455,254.097534 C28.1043833,252.466391 2.48008085,237.254963 15.1504002,200.056106 C16.3260294,199.166677 16.3543957,201.750106 17.22745,204.060106 C20.3855745,215.050677 27.265999,225.308963 40.0718467,228.916963 C69.02132,236.956391 86.3973078,203.984677 89.1677582,196.325534 L117.483716,188.427534 C112.103558,200.206963 86.9772427,260.034391 40.9354455,254.097534 L40.9354455,254.097534 L40.9354455,254.097534 Z M72.2645435,196.605249 L53.1739655,201.929249 C42.0417347,205.034391 37.2415117,188.738677 48.398957,185.61782 L67.9402455,180.177534 C69.8344898,182.368106 74.2722533,188.65382 72.2645435,196.605249 L72.2645435,196.605249 L72.2645435,196.605249 Z M167.222598,148.123534 L137.853933,156.304391 C150.205918,130.985534 163.812328,110.490963 174.459179,96.3543914 L175.474065,95.0469629 C170.806218,112.188106 167.194232,131.522963 167.096526,145.002677 L167.222598,148.123534 L167.222598,148.123534 L167.222598,148.123534 Z M228.478234,16.23982 C228.478234,16.23982 237.432557,11.7361057 234.646347,17.7043914 C230.4954,26.4603914 225.09633,35.0969629 220.882346,43.98182 C208.561879,69.3635343 201.293781,92.71182 197.218477,121.654391 C196.399002,126.978391 196.080669,134.672106 196.112187,140.084106 L172.788714,146.577249 C172.423102,126.387534 181.339604,89.0346771 189.367291,70.5421057 C189.367291,70.0361057 157.291212,102.812963 131.559747,156.914106 L130.891561,158.240391 L102.181626,166.248391 C131.484103,109.47582 169.318559,48.9695343 228.478234,16.23982 L228.478234,16.23982 L228.478234,16.23982 Z M270.050749,123.88582 C268.263667,127.20782 265.215857,132.968677 264.207275,134.895249 C263.43823,134.40182 257.683005,130.712106 253.989071,128.35182 L270.050749,123.88582 L270.050749,123.88582 L270.050749,123.88582 Z M294.007739,113.146677 C295.04784,113.244106 297.720585,113.69982 299.640043,115.85582 C301.029996,117.408391 301.713941,119.539249 301.713941,122.210677 C301.713941,122.85182 301.676118,123.521249 301.606779,124.222106 C300.995326,129.615249 300.169549,132.858677 299.454085,134.826106 C296.652116,135.508106 294.430083,135.850677 293.345857,135.98582 C293.330098,135.552106 293.326946,135.10582 293.326946,135.096391 C293.339553,135.294391 295.924046,131.469534 295.924046,126.645249 C295.924046,123.980106 295.04784,121.010106 292.60833,118.241249 C292.762769,117.631534 293.752442,114.086391 294.007739,113.146677 L294.007739,113.146677 L294.007739,113.146677 Z M295.574194,86.8095343 C293.891122,78.1729629 295.668749,71.0072486 299.967832,67.3332486 C304.279522,63.6561057 301.074122,58.43582 301.313659,56.2515343 C301.606779,54.0955343 302.927392,48.2686771 303.211055,48.6426771 C303.504175,49.0386771 308.294942,51.68182 309.955951,56.67582 C311.544469,61.6729629 318.412287,59.9129629 319.985045,66.8209629 C321.535742,73.7541057 320.917985,79.7255343 324.457479,82.1863914 C327.933938,84.6189629 332.595481,90.1472486 332.563961,96.4266771 L332.418979,96.4675343 L321.627144,99.5443914 C324.608767,91.2441057 318.169597,82.8055343 317.882781,82.4346771 C317.643243,82.1392486 317.227202,82.0952486 316.934083,82.3215343 C316.625204,82.5509629 316.584232,82.9721057 316.823769,83.27382 C316.89311,83.3555343 323.493022,91.9481057 320.167851,99.7329629 C320.123726,99.8021057 320.171002,99.8775343 320.167851,99.9623914 L308.663706,103.22782 L293.752442,108.15582 C293.683102,106.826391 293.522359,105.462391 293.12523,104.095249 C291.041875,97.1401057 297.219444,95.46182 295.574194,86.8095343 L295.574194,86.8095343 L295.574194,86.8095343 Z M312.742161,108.096106 C308.244514,109.240106 301.858924,111.754391 298.426592,113.14982 C296.787645,112.210106 295.145546,111.898963 294.237822,111.804677 C294.288251,111.113249 294.385957,109.909534 294.448994,109.359534 C295.230645,109.092391 309.067138,104.52582 309.067138,104.52582 C309.067138,104.52582 330.524734,98.4192486 332.418979,97.8786771 C332.812955,98.2432486 335.098026,100.339534 336.185404,101.364106 C334.102051,101.958106 312.742161,108.096106 312.742161,108.096106 L312.742161,108.096106 L312.742161,108.096106 Z M328.271183,115.252391 C324.974377,113.960677 321.728002,111.644391 319.181332,107.64982 L336.242137,102.750106 C335.063355,105.03182 332.362245,109.925249 328.271183,115.252391 L328.271183,115.252391 L328.271183,115.252391 Z M313.637279,129.118677 C309.388624,131.711534 304.805877,133.377249 301.00163,134.414391 C301.524832,132.79582 302.051185,130.570677 302.511351,127.594391 C305.319624,127.811249 309.360257,128.251249 313.637279,129.118677 L313.637279,129.118677 L313.637279,129.118677 Z M320.382175,123.932963 C319.14351,125.070677 317.876477,126.164391 316.521195,127.182677 C316.108306,127.506391 315.676506,127.786106 315.25101,128.078391 C310.397206,126.978391 305.751424,126.462963 302.697308,126.249249 C302.7698,125.617534 302.867506,125.061249 302.952606,124.366677 C303.056616,123.452106 303.075528,122.581534 303.056616,121.758106 C306.816738,122.000106 313.233845,122.590963 320.382175,123.932963 L320.382175,123.932963 L320.382175,123.932963 Z M311.279716,109.925249 C311.897473,109.736677 312.534142,109.551249 313.092014,109.403534 L317.939514,108.017534 C320.583891,112.31382 323.994161,114.859534 327.454861,116.29582 C326.118489,117.96782 324.64974,119.671249 323.064375,121.33382 C318.929185,118.278963 314.17624,113.196963 311.279716,109.925249 L311.279716,109.925249 L311.279716,109.925249 Z M322.093614,122.292391 C321.926567,122.468391 321.762673,122.638106 321.573563,122.804677 C314.009193,121.324391 307.005848,120.67382 302.90533,120.406677 C302.627969,118.222391 301.915657,116.377534 300.65493,114.95382 C300.358657,114.620677 300.052932,114.353534 299.728294,114.086391 C302.476681,112.976963 306.356573,111.487249 309.858245,110.365249 C312.713795,113.618106 317.65585,118.989249 322.093614,122.292391 L322.093614,122.292391 L322.093614,122.292391 Z M337.70143,102.860106 C338.426349,103.630106 339.576763,104.87782 339.576763,104.87782 C339.576763,104.937534 340.519157,109.934677 340.519157,109.934677 C340.481336,109.623534 331.082606,126.978391 319.279038,134.458391 C308.209843,141.476391 295.924046,143.428106 292.750163,143.830391 C292.857324,142.566963 293.251302,138.214106 293.326946,137.343534 C295.15185,137.15182 307.547961,135.636963 317.346971,128.270106 C328.835357,119.576963 335.955322,106.35182 337.70143,102.860106 L337.70143,102.860106 L337.70143,102.860106 Z M332.305512,124.102677 C334.0138,122.000106 335.542432,119.928963 336.840983,118.03382 C340.008563,118.01182 342.422857,117.474391 343.065828,117.314106 C343.532298,118.134391 344.285583,119.28782 345.079842,120.390963 C343.340038,121.478391 338.766745,123.81982 332.305512,124.102677 L332.305512,124.102677 L332.305512,124.102677 Z M346.283838,121.233249 C346.848014,121.776963 350.261436,124.98582 351.345661,125.991534 C348.748561,127.034963 336.711757,131.579534 326.254016,130.668106 C327.996973,129.027534 329.613857,127.267534 331.123581,125.494963 C339.497967,125.545249 345.032565,122.10382 346.283838,121.233249 L346.283838,121.233249 L346.283838,121.233249 Z M349.363167,101.794677 C360.517459,98.7083914 365.333442,114.97582 354.169693,118.09982 L347.040275,120.082963 L346.378392,119.470106 L346.164069,119.649249 C345.275255,118.379534 344.389593,117.006106 344.00192,116.239249 L343.734014,115.74582 L343.204508,115.902963 C342.949212,115.975249 340.78391,116.566106 337.732948,116.707534 C340.163002,113.058677 341.625447,110.365249 341.786189,110.082391 C341.827163,109.598391 340.900528,104.607534 340.900528,104.607534 C340.900528,104.52582 340.853251,104.390677 340.736634,104.198963 L349.363167,101.794677 L349.363167,101.794677 L349.363167,101.794677 Z M374.804663,152.928963 C374.442204,152.545534 374.063985,152.234391 373.736196,151.898106 C373.688918,151.857249 373.461988,151.42982 373.461988,151.370106 C373.313852,150.122391 373.058555,148.312106 372.645667,146.482963 C372.314726,145.162963 371.914444,143.824106 371.460581,142.683249 C371.057149,141.598963 370.212461,139.999249 368.828812,138.886677 C366.9062,137.299534 362.528322,133.113249 360.394539,129.476963 C359.061318,127.14182 357.472801,125.152391 355.723541,123.301249 C355.216098,122.757534 355.373689,122.160391 356.089151,121.959249 C363.807961,119.382106 365.979565,112.131534 364.312252,106.430391 C362.607118,100.578391 356.50204,95.3769629 348.146563,97.7215343 L342.016273,99.4406771 C341.827163,99.5035343 341.259836,99.3589629 341.13061,99.2206771 C340.434059,98.5449629 339.712291,97.8189629 338.914881,97.1181057 C338.297124,96.51782 337.673063,95.9615343 337.193987,95.4806771 C337.115191,95.4335343 336.907171,95.0029629 336.907171,94.9243914 C336.28311,87.3406771 330.490063,80.9481057 326.767763,78.3615343 C326.767763,78.2955343 326.499859,78.01582 326.474644,77.9969629 C326.219347,77.4595343 326.011326,76.62982 325.752877,75.4386771 C325.270649,72.7201057 325.040565,69.4421057 324.221093,65.9252486 C323.010793,60.6075343 319.518577,58.5301057 316.978208,57.2289629 C316.432944,56.9869629 315.950714,56.78582 315.44012,56.5186771 C315.25101,56.3961057 314.964195,56.2515343 314.8003,56.1163914 L314.440993,55.8115343 C314.393716,55.7926771 314.138418,55.44382 314.1069,55.39982 C312.975396,51.96782 310.810095,49.4881057 309.095504,47.8883914 C308.663706,47.4829629 308.294942,47.2063914 307.941938,46.9706771 C307.519595,46.7066771 307.125616,46.42382 306.794675,46.2006771 C303.242573,43.1269629 301.821102,42.6649629 301.156069,42.9446771 C300.81252,43.10182 300.424846,43.5103914 299.967832,44.4312486 C299.551792,45.3301057 299.1326,46.5463914 298.640916,48.1272486 C298.486477,48.7023914 298.23433,49.59182 298.004248,50.5503914 C297.591359,52.3795343 297.1438,54.5732486 297.014577,55.7706771 C296.929477,56.6035343 297.014577,57.8355343 297.392795,59.3063914 C297.547234,60.0135343 297.758406,60.8495343 297.843504,61.71382 C298.004248,62.9866771 297.786773,63.5712486 297.102828,64.1526771 C291.130126,69.2409629 289.506939,78.25782 291.290869,87.5952486 C291.886563,90.6249629 291.130126,92.2435343 290.184581,94.36182 C289.894612,95.0312486 289.588887,95.6849629 289.330438,96.3323914 C289.034165,97.1652486 288.744198,97.9792486 288.59291,98.8341057 C288.189479,100.804677 288.224148,102.894677 288.945914,105.292677 C289.875702,108.306677 289.409232,111.546963 288.829298,113.806677 C288.791475,113.992106 288.40065,114.375534 288.224148,114.422677 L201.378879,138.606963 C201.388336,138.11982 201.388336,137.67982 201.404094,137.164391 C201.580596,132.217534 201.990334,126.230391 202.598634,122.399249 C206.595143,93.9595343 213.677285,71.10782 225.767669,46.2006771 C229.994259,37.35982 235.421695,28.6415343 239.556885,19.9232486 C243.660555,11.2426771 235.629716,8.7535343 231.532349,9.57696286 C230.085663,9.85667714 228.651585,10.3752486 227.737557,10.7492486 C226.713214,11.1986771 225.903197,11.5695343 225.903197,11.5695343 C164.685383,45.4652486 125.905381,108.306677 96.4957414,165.607249 L95.4272741,168.12782 L47.1823543,181.563534 C38.8741549,183.873534 36.4976819,191.422677 38.2185761,197.287249 C39.9930512,203.142391 46.0666098,208.34382 54.4094792,206.005534 L82.4606837,198.195534 C80.3867857,202.356677 76.6392708,208.626677 71.2937827,214.098391 C63.6096439,221.946106 53.7539004,227.200963 41.5532024,223.828677 C31.2372931,220.956106 25.2708965,212.451534 22.4121951,202.450963 C21.9993066,201.394963 21.7030355,200.037249 21.4540416,199.251534 C19.5219755,193.408963 16.0266063,192.764677 11.8441402,195.876106 L10.5424383,196.844106 L10.0129324,198.409249 C-3.92126704,239.392106 24.788668,257.340963 40.2042231,259.289534 C68.1734804,262.910106 88.6823778,244.810391 101.800256,227.147534 C108.488419,218.17782 113.616432,208.944106 117.140167,201.790963 C118.892579,198.226963 120.351873,195.16582 121.407732,192.868391 L122.599121,190.140391 C122.810293,189.766391 122.844963,189.53382 122.933214,189.458391 L123.267307,189.008963 L123.434353,188.502963 C123.677043,187.896391 123.944948,187.230106 124.238067,186.548106 L170.566681,173.643534 C170.806218,174.985534 170.966961,175.808963 170.966961,175.808963 C186.738673,245.096391 222.511838,261.190963 247.874539,258.000963 C262.74483,256.146677 271.538408,245.033534 274.419173,233.499249 C278.20451,220.852391 274.170179,203.513249 269.637861,192.805534 C267.926422,189.222677 264.090657,186.412963 259.000467,187.362106 C253.935491,188.282963 251.855289,192.274391 251.086244,194.96782 C250.711177,196.212391 250.496853,197.576391 250.33611,198.877534 C250.257316,199.908391 250.172216,200.954963 250.09342,201.790963 C249.800302,204.949534 249.60804,208.224391 249.277099,211.348391 C248.961918,214.183249 248.580547,216.886106 247.78944,219.240106 C246.528712,223.36982 244.829881,224.771534 241.800981,224.950677 C232.128043,225.48182 223.347071,215.556677 216.309055,200.521249 C210.342657,187.880677 206.913477,174.410391 205.84501,169.551534 C205.476247,168.011534 205.08542,166.12582 204.691443,164.130106 L286.82474,141.234391 C287.533899,141.036391 288.016128,141.466963 287.8806,142.161534 C287.641061,144.135249 287.272298,146.520677 286.641934,149.25182 C285.277196,155.163534 286.786918,160.232963 288.514116,163.721534 C289.081443,164.93782 289.737022,165.978106 290.279136,166.820391 C290.398904,166.920963 290.452485,167.461534 290.398904,167.558963 C286.206983,179.187534 291.423246,187.798963 300.01511,188.590963 C303.696436,188.952391 307.229628,187.764391 309.495787,186.727249 C310.554798,186.258963 311.506648,185.768677 312.165379,185.360106 C312.212655,185.360106 312.581418,185.256391 312.628696,185.256391 C313.558483,185.256391 314.844426,185.237534 316.316326,185.187249 C319.452388,185.061534 323.385859,184.78182 326.720487,184.124963 C330.316714,183.386391 334.3605,181.623249 337.326363,180.234106 C338.624914,179.570963 339.825757,178.939249 340.727177,178.492963 C340.765,178.452106 341.212557,178.392391 341.297657,178.411249 C341.880744,178.492963 342.47959,178.587249 343.141473,178.653249 C345.407632,178.785249 349.022769,178.64382 351.988634,176.126391 C355.351626,173.291534 361.73091,169.95382 362.414855,169.934963 C363.707102,169.88782 366.85262,169.655249 369.875216,168.775249 C372.314726,168.093249 377.439585,166.188677 377.994306,161.046963 C378.429257,157.024106 376.314385,154.424963 374.804663,152.928963 L374.804663,152.928963 L374.804663,152.928963 Z" id="Fill-67" fill="#13274F"></path>
                            <path d="M215.798861,138.483714 L78.7955182,176.641142 C78.9972347,176.892572 79.2273176,177.184858 79.4668561,177.502286 C81.3390375,180.010286 83.9424414,184.536 83.7753949,190.174286 C83.7659394,190.447714 83.7375731,190.749428 83.7092067,191.038572 C83.6745367,191.491142 83.6178039,191.95 83.5484639,192.402572 C83.5169457,192.600572 83.4917312,192.782858 83.4602129,192.974572 L221.201082,154.616 C220.658969,148.456 217.693106,141.054571 216.492263,138.285714 L215.798861,138.483714" id="Fill-68" fill="#CE1141"></path>
                            <path d="M76.2835171,176 L69.3400561,177.929714 C71.1271384,180.085714 74.209619,184.683714 74.209619,190.755714 C74.209619,191.896572 73.9732325,193.122286 73.6612022,194.366858 L76.724772,193.508858 L80.8189871,192.364858 C80.856809,192.195142 81.3705557,190.017142 81.3579484,188.618572 C81.260242,182.213428 77.815302,177.958 76.2835171,176" id="Fill-69" fill="#EAAA00"></path>
                            <path d="M330.575565,113.073714 C334.666629,107.746571 337.367739,102.853143 338.54652,100.571429 L321.485714,105.471143 C324.032386,109.465714 327.278761,111.782 330.575565,113.073714" id="Fill-70" fill="#CE1141"></path>
                            <path d="M371.928235,151.812572 C371.717063,149.864 370.878678,142.808286 368.763808,141.089143 C366.633176,139.348 361.807739,134.765714 359.302041,130.507143 C358.224118,128.703143 357.042186,127.197714 355.708965,125.714286 L355.529312,125.799143 C354.832759,126.100857 339.918343,132.421143 327.572662,130.821429 C326.006208,132.201143 324.383019,133.477143 322.677884,134.548857 C309.641953,142.827143 294.894584,144.203714 294.724386,144.222571 L294.52267,144.235143 C294.254765,145.718571 293.964798,147.324571 293.539302,149.109714 C291.380304,158.585428 298.248121,165.474572 298.248121,165.474572 C292.745043,176.955428 298.049557,182.851428 303.098774,183.335428 C308.242545,183.800572 313.811812,179.938 313.811812,179.938 C313.811812,179.938 322.32488,180.170572 328.483537,178.900858 C334.610678,177.656286 343.02919,172.762858 343.02919,172.762858 C343.02919,172.762858 348.488145,174.651714 351.781796,171.854572 C355.088057,169.085714 362.532657,164.745428 364.912282,164.638572 C367.250933,164.553714 375.886921,163.884286 376.362847,159.544 C376.800949,155.232 372.1268,153.824 371.928235,151.812572" id="Fill-71" fill="#CE1141"></path>
                            <path d="M315.210439,127.238571 C310.933418,126.371143 306.892784,125.931143 304.084512,125.714286 C303.624347,128.690571 303.097992,130.915714 302.57479,132.534286 C306.379037,131.497143 310.961784,129.831429 315.210439,127.238571" id="Fill-72" fill="#CE1141"></path>
                            <path d="M324.94011,121.927143 C320.502347,118.624 315.560292,113.252857 312.704741,110 C309.203069,111.122 305.323178,112.611714 302.57479,113.721143 C302.899427,113.988286 303.205155,114.255429 303.501425,114.588571 C304.762153,116.012286 305.474465,117.857143 305.751825,120.041429 C309.852343,120.308571 316.85569,120.959143 324.420059,122.439429 C324.609169,122.272857 324.773063,122.103143 324.94011,121.927143" id="Fill-73" fill="#CE1141"></path>
                            <path d="M328.205396,115.135429 C324.744696,113.699143 321.334427,111.153429 318.690049,106.857143 L313.842549,108.243143 C313.284677,108.390857 312.64801,108.576286 312.030253,108.764857 C314.926775,112.036571 319.679721,117.118571 323.81491,120.173429 C325.400276,118.510857 326.869024,116.807429 328.205396,115.135429" id="Fill-74" fill="#EAAA00"></path>
                            <path d="M338.628467,117.005429 C337.329918,118.900571 335.801284,120.971714 334.092998,123.074286 C340.554229,122.791429 345.127522,120.45 346.867327,119.362571 C346.073068,118.259429 345.319782,117.106 344.853314,116.285714 C344.210341,116.446 341.796047,116.983429 338.628467,117.005429" id="Fill-75" fill="#EAAA00"></path>
                            <path d="M302.934098,119.428571 C302.953008,120.252 302.934098,121.122571 302.830088,122.037143 C302.744988,122.731714 302.647282,123.288 302.57479,123.919714 C305.628904,124.133429 310.274688,124.648857 315.128492,125.748857 C315.553988,125.456571 315.985786,125.176857 316.398676,124.853143 C317.753959,123.834857 319.02099,122.741143 320.259657,121.603429 C313.111327,120.261429 306.69422,119.670571 302.934098,119.428571" id="Fill-76" fill="#EAAA00"></path>
                            <path d="M352.881,124.186857 C351.796774,123.181143 348.383353,119.972286 347.819176,119.428571 C346.567904,120.299143 341.033306,123.740571 332.658919,123.690286 C331.149196,125.462857 329.532312,127.222857 327.789355,128.863429 C338.247096,129.774857 350.2839,125.230286 352.881,124.186857" id="Fill-77" fill="#EAAA00"></path>
                            <path d="M311.100465,104.075714 C311.100465,104.075714 297.263972,108.642286 296.48232,108.909429 C296.419284,109.459429 296.321578,110.663143 296.271149,111.354571 C297.178873,111.448857 298.820971,111.76 300.459918,112.699714 C303.892251,111.304286 310.277839,108.79 314.775488,107.646 C314.775488,107.646 336.135377,101.508 338.218731,100.914 C337.131353,99.8894286 334.846282,97.7931428 334.452304,97.4285714 C332.558061,97.9691428 311.100465,104.075714 311.100465,104.075714" id="Fill-78" fill="#EAAA00"></path>
                            <path d="M293.856853,135.982 C294.94108,135.846857 297.163114,135.504286 299.965082,134.822286 C300.680545,132.854857 301.506323,129.611429 302.117776,124.218286 C302.187116,123.517429 302.224937,122.848 302.224937,122.206857 C302.224937,119.535429 301.540992,117.404571 300.151039,115.852 C298.231581,113.696 295.558837,113.240286 294.518735,113.142857 C294.263439,114.082571 293.273767,117.627714 293.119328,118.237429 C295.558837,121.006286 296.435043,123.976286 296.435043,126.641429 C296.435043,131.465714 293.850551,135.290571 293.837943,135.092571 C293.837943,135.102 293.841094,135.548286 293.856853,135.982" id="Fill-79" fill="#EAAA00"></path>
                            <path d="M340.888323,107.646 C340.888323,107.646 339.945928,102.648857 339.945928,102.589143 C339.945928,102.589143 338.795514,101.341429 338.070594,100.571429 C336.324486,104.063143 329.204523,117.288286 317.716137,125.981429 C307.917126,133.348286 295.521016,134.863143 293.696112,135.054857 C293.620467,135.925429 293.22649,140.278286 293.119328,141.541714 C296.293212,141.139429 308.579008,139.187714 319.648202,132.169714 C331.451771,124.689714 340.8505,107.334857 340.888323,107.646" id="Fill-80" fill="#EAAA00"></path>
                            <path d="M308.601265,144.671004 C308.251414,144.784147 308.213591,145.425289 308.333361,145.777289 L308.859715,147.389575 C308.79983,148.448718 308.043393,149.639861 306.650289,150.799575 C302.231436,154.545861 302.574985,159.065289 302.58444,159.260147 C302.634869,159.621575 302.959507,159.901289 303.315662,159.869861 C303.681273,159.841575 303.980697,159.514717 303.95233,159.143861 C303.939722,158.977289 303.668666,155.108433 307.542254,151.830433 C309.244238,150.384718 310.14881,148.901289 310.211846,147.417861 L309.304122,144.828147 C309.168593,144.476147 308.944814,144.551575 308.601265,144.671004" id="Fill-81" fill="#13274F"></path>
                            <path d="M328.042821,135.307461 C327.743399,135.549461 327.699274,135.964318 327.964027,136.259746 C327.976633,136.303746 331.724148,140.791746 330.135631,144.541175 C329.464293,146.103175 329.51157,147.640032 330.252248,148.982032 C331.248223,150.792318 333.221264,151.719461 333.530142,151.766604 C333.883146,151.823174 334.192025,151.606318 334.280276,151.260603 C334.365374,150.924318 334.15105,150.572318 333.816958,150.456032 C333.558507,150.361746 331.941625,149.516318 331.282893,148.042318 C330.898372,147.134032 330.917282,146.144032 331.383752,145.069175 C333.290603,140.559175 329.155415,135.590318 328.982064,135.386032 C328.755133,135.096889 328.313878,135.059175 328.042821,135.307461" id="Fill-82" fill="#13274F"></path>
                            <path d="M347.018287,132.098018 C346.696801,132.289733 346.605397,132.70459 346.807114,133.018876 C346.898516,133.179161 349.227712,136.982018 353.504734,138.544018 C357.173452,139.838876 358.689479,147.419447 358.689479,147.501161 C358.784032,147.865733 359.130734,148.10459 359.502648,148.029161 C359.868259,147.966304 360.095191,147.608018 360.041609,147.24659 C359.97542,146.891447 358.355385,138.817447 353.964899,137.271161 C350.148044,135.885161 347.979591,132.358876 347.957528,132.321161 C347.755812,132.003733 347.342924,131.906304 347.018287,132.098018" id="Fill-83" fill="#13274F"></path>
                            <path d="M316.923181,166.651385 C312.810055,170.300243 306.881481,165.922243 306.805836,165.884529 C306.512718,165.658243 306.077765,165.714813 305.863442,166.007099 C305.639663,166.308813 305.696396,166.729957 305.989514,166.959385 C306.062006,167.012813 312.882547,172.057099 317.830906,167.660243 C322.089016,163.910813 326.492108,164.881957 326.674914,164.925957 C327.043677,165.004529 327.409289,164.781385 327.481781,164.416813 C327.582639,164.055385 327.352555,163.690813 326.999551,163.602813 C326.785228,163.555671 321.742314,162.414813 316.923181,166.651385" id="Fill-84" fill="#13274F"></path>
                            <path d="M363.055335,151.298677 C362.216951,153.511248 360.366832,153.746962 358.201532,154.02039 C356.127633,154.281248 353.80159,154.57039 352.389575,156.789248 C350.066682,160.447534 344.396557,159.605248 344.320912,159.59582 C343.948998,159.539248 343.618057,159.787534 343.561324,160.155248 C343.485681,160.526106 343.753585,160.868676 344.103437,160.931534 C344.380798,160.969248 350.731716,161.934106 353.54314,157.508962 C354.592696,155.840106 356.420753,155.594962 358.359122,155.365534 C360.625281,155.07639 363.216079,154.749534 364.331822,151.770106 C364.457896,151.418105 364.268786,151.031534 363.922086,150.896391 C363.584841,150.773819 363.187712,150.946677 363.055335,151.298677" id="Fill-85" fill="#13274F"></path>
                            <path d="M303.107447,230.852286 L301.591422,230.852286 L301.591422,224.717428 L301.540992,224.717428 L299.378843,230.852286 L297.906943,230.852286 L295.798375,224.717428 L295.766857,224.717428 L295.766857,230.852286 L294.241376,230.852286 L294.241376,223.142858 L296.888906,223.142858 L298.62871,228.177714 L298.666532,228.177714 L300.491437,223.142858 L303.107447,223.142858 L303.107447,230.852286 L303.107447,230.852286 L303.107447,230.852286 Z M292.867182,224.51 L290.607327,224.51 L290.607327,230.852286 L289.07239,230.852286 L289.07239,224.51 L286.815686,224.51 L286.815686,223.142858 L292.867182,223.142858 L292.867182,224.51 L292.867182,224.51 L292.867182,224.51 Z" id="Fill-86" fill="#13274F"></path>
                        </g>
                    </g>
                </g>
            </g>
        </g>
    </g>
</svg>
