<?xml version="1.0" encoding="UTF-8" standalone="no"?>
<svg width="512px" height="512px" viewBox="0 0 512 512" version="1.1" xmlns="http://www.w3.org/2000/svg" xmlns:xlink="http://www.w3.org/1999/xlink">
    <!-- Generator: Sketch 39.1 (31720) - http://www.bohemiancoding.com/sketch -->
    <title>baltimore-orioles-2</title>
    <desc>Created with Sketch.</desc>
    <defs></defs>
    <g id="MLB" stroke="none" stroke-width="1" fill="none" fill-rule="evenodd">
        <g id="baltimore-orioles-2">
            <g transform="translate(100.000000, 108.000000)" id="Page-1">
                <g>
                    <g id="MLB_Logo_Baltimore">
                        <g id="Imported-Layers">
                            <path d="M230.545772,267.376041 L227.125563,267.376041 L227.125563,276.69321 L224.809971,276.69321 L224.809971,267.376041 L221.383684,267.376041 L221.383684,265.352615 L230.545772,265.352615 L230.545772,267.376041 L230.545772,267.376041 L230.545772,267.376041 Z M246.086374,276.69321 L243.769262,276.69321 L243.769262,267.656862 L243.72216,267.656862 L240.414388,276.69321 L238.185403,276.69321 L234.999184,267.656862 L234.946005,267.656862 L234.946005,276.69321 L232.634971,276.69321 L232.634971,265.352615 L236.635597,265.352615 L239.286981,272.760205 L239.344718,272.760205 L242.103981,265.352615 L246.086374,265.352615 L246.086374,276.69321 L246.086374,276.69321 L246.086374,276.69321 Z" id="Fill-1" fill="#E05629"></path>
                            <path d="M308.710684,34.3086769 C305.776689,27.3519179 298.772175,21.0053744 287.496578,19.0350769 C269.710277,17.2317538 239.768636,24.6621128 209.849786,30.8629333 C199.184995,33.0897641 176.857155,35.9844923 176.857155,35.9844923 C159.405126,15.6895179 139.500757,10.2810667 126.853126,8.60980513 C119.679956,7.65501538 116.247592,8.35782564 113.289286,7.3969641 C110.668291,5.6801641 102.63817,-1.09595897 87.7022961,1.16123077 C87.7022961,1.16123077 73.8923107,2.93115897 63.1226796,14.1017436 C60.9742233,16.2344615 57.1270583,21.2391385 55.3554175,26.4669538 C52.6554126,28.9290667 50.4872039,29.4679385 44.373068,35.3818667 C5.98346602,67.8674872 21.6836068,110.286564 27.8767524,124.398933 C-6.78116019,151.357703 0.774902913,182.607713 0.774902913,182.607713 L11.4503301,180.895467 C10.6663107,319.892513 212.29149,329.907938 236.52468,223.771446 C245.305393,185.203405 252.416267,167.819856 287.096971,158.777436 C294.101485,156.831426 296.894175,152.201682 296.648029,148.727097 C295.146845,135.088328 265.392092,120.043938 220.608782,124.316964 C217.945243,115.408123 217.741641,111.991221 217.741641,111.991221 C240.390078,106.851446 271.463684,96.8056615 292.999908,79.5875692 C310.205791,65.8273641 316.488583,52.8397949 308.710684,34.3086769 L308.710684,34.3086769 L308.710684,34.3086769 Z M257.450097,80.068759 C235.843981,89.9141744 210.683947,95.7749744 204.534864,97.4386462 C194.714869,100.093538 195.090165,102.674051 196.986398,106.933415 C201.274194,116.522297 202.621917,122.629005 204.276563,145.191795 C218.455767,140.936985 243.974383,141.5472 266.765646,147.033067 C252.580364,152.66921 237.785796,162.434174 225.284029,179.002585 C187.845583,228.671385 128.343675,224.111467 101.434791,198.266872 C95.5576845,203.212349 103.21251,219.997826 103.21251,219.997826 C101.998495,221.134769 99.1283155,219.985682 99.1283155,219.985682 C79.1601311,186.879221 100.514024,178.181374 117.162282,177.261497 C124.189587,175.983385 123.297689,180.191138 116.844723,181.387282 C89.0393835,187.745969 127.404675,219.645662 174.933573,207.178749 C216.819354,196.203979 214.309277,169.526031 251.688466,148.831836 C221.771136,143.175959 200.804694,150.694359 191.875078,155.308923 C185.926558,158.373662 176.153665,158.560369 171.777743,157.036349 C166.263777,173.908349 148.194864,178.645867 113.649388,170.253128 C89.1092767,164.286072 69.6576942,188.391097 80.4501165,219.32841 C91.5038786,251.05961 146.411068,282.824205 206.459966,245.5024 C201.555286,251.727508 195.466981,257.201231 188.280136,261.783918 C172.741053,271.683979 152.630044,277.150113 131.622578,277.150113 L131.610422,277.150113 C101.668782,277.150113 73.8558447,266.415179 55.3432621,247.695836 C38.3774466,230.535426 29.9294854,207.870933 30.259199,180.309538 C30.259199,175.444513 31.9715825,164.708062 33.6383835,161.403487 L21.5179903,162.235323 C21.5179903,162.235323 25.3590777,144.640779 51.5173689,129.503795 C51.506733,129.497723 51.506733,129.497723 51.4960971,129.485579 L51.4474757,129.514421 L50.309432,127.258749 C23.5129854,76.2587077 48.9951359,55.9925744 60.1294272,46.8029128 C69.2109854,39.3027282 71.5341748,39.5835487 73.1888204,33.1474462 C74.1506117,29.3389128 78.0342427,25.3011692 82.8735874,22.7282462 C89.0393835,19.0016821 96.5118786,18.5781744 100.924267,21.8493538 C105.076835,25.9690667 113.172291,26.9420718 118.124073,26.9420718 C156.654981,28.3188513 168.229903,56.4509949 168.229903,56.4509949 C176.97567,53.7369026 191.288583,53.4196513 215.898587,48.455959 C263.116005,38.0003282 266.589393,37.7195077 274.256374,37.0349128 C283.090267,36.2364718 290.430573,36.7647179 293.539301,44.1085538 C296.613083,51.2930051 288.35201,60.353641 286.206592,62.4757333 C283.372879,65.2642051 272.847874,73.0421744 257.450097,80.068759 L257.450097,80.068759 L257.450097,80.068759 Z" id="Fill-2" fill="#E05629"></path>
                            <path d="M132.391403,71.6987897 C133.658597,71.4528821 134.363607,70.9792821 135.159782,69.7649231 C136.461922,67.7612308 136.709587,64.4445128 136.697432,62.0294564 C136.660966,59.0163282 136.063835,55.084841 135.194728,52.3601231 C131.013291,54.7099077 127.427466,54.7569641 123.60917,52.3828923 C122.735505,55.3899487 122.764374,58.8539077 123.625883,61.8715897 C124.917388,66.3434667 128.249471,72.5033026 132.391403,71.6987897" id="Fill-3" fill="#1A1918"></path>
                            <path d="M128.813175,50.8588718 C130.62584,51.5738256 132.461296,51.6451692 134.66749,50.5188513 C133.201252,45.5141744 130.432874,39.5486359 127.310471,39.5607795 C126.020485,39.5714051 124.952335,40.1345641 124.273155,41.1652513 C123.367583,42.5374769 123.315922,44.5593846 124.096903,46.4340513 C124.917388,48.3512205 126.723976,50.0498051 128.813175,50.8588718" id="Fill-4" fill="#1A1918"></path>
                            <path d="M150.255194,58.6899692 C150.025762,59.2045538 150.089578,59.7555692 150.429927,60.1305026 C150.765718,60.4826667 151.280801,60.5874051 151.803481,60.3764103 C152.324641,60.1654154 152.617888,59.8845949 152.806296,59.4034051 C152.970393,59.0057026 153.064597,58.3954872 152.759194,57.6577641 C152.712092,57.5530256 152.66651,57.4346256 152.572306,57.3177436 C152.572306,57.3177436 152.476583,57.2585436 152.429481,57.2236308 C151.280801,57.5757949 150.559078,58.0676103 150.255194,58.6899692" id="Fill-5" fill="#1A1918"></path>
                            <path d="M293.539301,44.1085538 C290.430573,36.7647179 283.090267,36.2364718 274.256374,37.0349128 C266.589393,37.7195077 263.116005,38.0003282 215.898587,48.455959 C191.288583,53.4196513 176.97567,53.7369026 168.229903,56.4509949 C168.229903,56.4509949 156.654981,28.3188513 118.124073,26.9420718 C113.172291,26.9420718 105.076835,25.9690667 100.924267,21.8493538 C96.5118786,18.5781744 89.0393835,19.0016821 82.8735874,22.7282462 C78.0342427,25.3011692 74.1506117,29.3389128 73.1888204,33.1474462 C71.5341748,39.5835487 69.2109854,39.3027282 60.1294272,46.8029128 C48.9951359,55.9925744 23.5129854,76.2587077 50.309432,127.258749 L47.7400971,122.147815 C47.7400971,122.147815 67.4165534,119.902769 87.9605971,110.286564 L51.4960971,129.485579 C51.506733,129.497723 51.506733,129.497723 51.5173689,129.503795 C25.3590777,144.640779 21.5179903,162.235323 21.5179903,162.235323 L33.6383835,161.403487 C31.9715825,164.708062 30.259199,175.444513 30.259199,180.309538 C29.9294854,207.870933 38.3774466,230.535426 55.3432621,247.695836 C73.8558447,266.415179 101.668782,277.150113 131.610422,277.150113 L131.622578,277.150113 C152.630044,277.150113 172.741053,271.683979 188.280136,261.783918 C195.466981,257.201231 201.555286,251.727508 206.459966,245.5024 C146.411068,282.824205 91.5038786,251.05961 80.4501165,219.32841 C69.6576942,188.391097 89.1092767,164.286072 113.649388,170.253128 C148.194864,178.645867 166.263777,173.908349 171.777743,157.036349 C176.153665,158.560369 185.926558,158.373662 191.875078,155.308923 C200.804694,150.694359 221.771136,143.175959 251.688466,148.831836 C214.309277,169.526031 216.819354,196.203979 174.933573,207.178749 C127.404675,219.645662 89.0393835,187.745969 116.844723,181.387282 C123.297689,180.191138 124.189587,175.983385 117.162282,177.261497 C100.514024,178.181374 79.1601311,186.879221 99.1283155,219.985682 C99.1283155,219.985682 101.998495,221.134769 103.21251,219.997826 C103.21251,219.997826 95.5576845,203.212349 101.434791,198.266872 C128.343675,224.111467 187.845583,228.671385 225.284029,179.002585 C237.785796,162.434174 252.580364,152.66921 266.765646,147.033067 C243.974383,141.5472 218.455767,140.936985 204.276563,145.191795 C202.621917,122.629005 201.274194,116.522297 196.986398,106.933415 C195.090165,102.674051 194.714869,100.093538 204.534864,97.4386462 C210.683947,95.7749744 235.843981,89.9141744 257.450097,80.068759 C272.847874,73.0421744 283.372879,65.2642051 286.206592,62.4757333 C288.35201,60.353641 296.613083,51.2930051 293.539301,44.1085538 L293.539301,44.1085538 L293.539301,44.1085538 Z M79.9228786,37.8606769 C84.750068,19.9731692 98.8365874,30.7566769 98.8365874,30.7566769 L79.9228786,37.8606769 L79.9228786,37.8606769 L79.9228786,37.8606769 Z M147.327277,55.7830974 C147.372859,54.6157949 147.468583,53.1509744 147.749675,52.3009231 L149.74467,50.8710154 L149.907248,50.7541333 L149.931558,50.9529846 C150.048553,51.4812308 150.300777,51.948759 150.711019,52.3130667 L151.327903,52.8170256 L153.041806,54.2651487 C153.755932,54.9269744 154.188966,55.441559 154.296845,55.8225641 L154.51868,56.5557333 L154.590092,56.8957538 C154.871184,58.5958564 154.050699,60.2473846 152.453791,61.1277949 C151.72599,61.537641 150.870558,61.5133538 150.341801,61.2962872 C149.931558,61.1505641 149.408879,60.7164308 149.228068,60.1077333 C148.922665,59.2045538 149.345063,57.424 151.820194,56.4859077 C151.820194,56.4859077 151.943267,56.4509949 152.055704,56.4039385 C151.967578,56.3325949 151.842985,56.2749128 151.842985,56.2749128 C151.110626,55.7588103 149.726437,54.6218667 149.203757,53.7611897 C149.203757,53.7611897 149.127786,53.6610051 149.063971,53.5380513 C149.010791,53.6716308 148.975845,53.7900308 148.975845,53.7900308 C148.869485,54.1467487 148.782879,54.6218667 148.705388,55.2487795 L148.547369,57.3754256 L148.524578,57.9507282 L148.381752,59.9437949 L148.077869,62.1417846 C147.491374,64.7784615 146.435379,66.3783795 144.850626,67.0219897 L144.651583,67.1161026 L145.051189,64.9196308 L145.096772,64.8892718 C146.351811,64.1211897 146.763573,62.3345641 147.011238,59.6978872 L147.327277,55.7830974 L147.327277,55.7830974 L147.327277,55.7830974 Z M144.464694,49.2893128 C144.792888,48.6092718 145.004087,48.3163077 145.260869,48.1979077 C145.332282,48.1751385 145.426485,48.1402256 145.51917,48.1159385 C145.28518,49.0540308 145.260869,49.1481436 145.227442,49.7462154 C145.777471,49.6642462 146.060083,49.7811282 146.201388,50.1090051 C146.388277,50.5780513 146.24849,51.4569436 145.859519,52.0489436 C145.707578,52.3130667 145.543481,52.4466462 145.260869,52.5711179 C144.592325,52.8580103 144.230704,52.8807795 144.112189,52.6121026 C143.829578,51.9259897 143.995194,50.3078564 144.464694,49.2893128 L144.464694,49.2893128 L144.464694,49.2893128 Z M119.766563,46.7801436 C118.851874,44.2482051 119.319854,41.3185641 120.793689,39.2086154 C122.177879,37.2155487 124.355204,36.0846769 126.923019,35.9435077 C131.318694,35.7036718 135.430238,39.8992821 138.586068,48.2221949 C139.277403,47.4829538 139.98849,46.4993231 140.382019,45.5035487 L142.094403,46.1122462 C141.419782,47.6484103 140.345553,49.2073436 139.266767,50.0862359 C141.331655,55.7238974 141.789,64.5082667 139.04949,70.1869128 C137.788374,72.8190359 135.910374,74.5768205 133.517291,75.391959 C131.576995,76.0598564 129.076034,75.9080615 127.111427,74.7711179 C123.744398,72.8478769 121.074782,69.0621128 119.344165,63.8646564 C117.678883,58.8174769 117.47832,52.3191385 119.766563,46.7801436 L119.766563,46.7801436 L119.766563,46.7801436 Z M151.122782,165.142195 C145.239597,167.063918 138.327767,163.114215 133.271146,155.764308 C136.275034,158.062482 139.666374,158.806277 142.222034,157.383959 C146.318383,155.131323 146.856257,148.292964 143.43149,142.120985 C140.023437,135.955077 133.939689,132.791672 129.86917,135.053415 C128.366466,135.873108 127.334782,137.327303 126.81818,139.132144 C125.198481,128.336492 128.46067,118.935836 135.253985,116.696862 C143.43149,114.025272 153.60399,122.698831 157.98599,136.084103 C162.36799,149.452677 159.306364,162.456944 151.122782,165.142195 L151.122782,165.142195 L151.122782,165.142195 Z M183.545631,151.873805 C178.001277,153.349251 171.859791,149.745641 167.319772,143.165333 C169.624728,144.640779 172.095301,145.087056 174.135879,144.101908 C178.001277,142.239385 178.870383,135.979364 176.03667,130.112492 C173.196879,124.257764 167.771039,121.029087 163.893485,122.887056 C162.509296,123.54281 161.523194,124.773867 160.942777,126.3328 C159.329155,114.681026 163.118583,104.566933 170.4285,102.637621 C178.729078,100.422933 188.409286,109.647508 192.040694,123.26199 C195.653869,136.858256 191.852286,149.669744 183.545631,151.873805 L183.545631,151.873805 L183.545631,151.873805 Z M143.829578,99.1751795 C124.484354,96.5491282 111.935485,96.6887795 124.376476,88.4614974 C124.376476,88.4614974 153.322898,65.979159 186.037476,62.2586667 C216.366568,58.4668308 264.547296,47.7774359 264.547296,47.7774359 C264.547296,47.7774359 240.812476,62.1812513 217.495495,78.44 C191.970801,93.683241 173.35034,99.8248615 143.829578,99.1751795 L143.829578,99.1751795 L143.829578,99.1751795 Z M234.792544,77.817641 C234.792544,77.817641 282.11784,44.8644923 283.842379,47.2142769 C288.118019,53.0447179 264.202388,67.8553436 234.792544,77.817641 L234.792544,77.817641 L234.792544,77.817641 Z" id="Fill-6" fill="#1A1918"></path>
                            <path d="M79.9228786,37.8606769 L98.8365874,30.7566769 C98.8365874,30.7566769 84.750068,19.9731692 79.9228786,37.8606769" id="Fill-7" fill="#E05629"></path>
                            <path d="M186.037476,62.2586667 C153.322898,65.979159 124.376476,88.4614974 124.376476,88.4614974 C111.935485,96.6887795 124.484354,96.5491282 143.829578,99.1751795 C173.35034,99.8248615 191.970801,93.683241 217.495495,78.44 C240.812476,62.1812513 264.547296,47.7774359 264.547296,47.7774359 C264.547296,47.7774359 216.366568,58.4668308 186.037476,62.2586667" id="Fill-8" fill="#E05629"></path>
                            <path d="M234.792544,77.817641 C264.202388,67.8553436 288.118019,53.0447179 283.842379,47.2142769 C282.11784,44.8644923 234.792544,77.817641 234.792544,77.817641" id="Fill-9" fill="#E05629"></path>
                            <path d="M47.7400971,122.147815 L50.309432,127.258749 L51.4474757,129.514421 L51.4960971,129.485579 L87.9605971,110.286564 C67.4165534,119.902769 47.7400971,122.147815 47.7400971,122.147815" id="Fill-10" fill="#FFFFFF"></path>
                            <path d="M135.253985,116.696862 C128.46067,118.935836 125.198481,128.336492 126.81818,139.132144 C127.334782,137.327303 128.366466,135.873108 129.86917,135.053415 C133.939689,132.791672 140.023437,135.955077 143.43149,142.120985 C146.856257,148.292964 146.318383,155.131323 142.222034,157.383959 C139.666374,158.806277 136.275034,158.062482 133.271146,155.764308 C138.327767,163.114215 145.239597,167.063918 151.122782,165.142195 C159.306364,162.456944 162.36799,149.452677 157.98599,136.084103 C153.60399,122.698831 143.43149,114.025272 135.253985,116.696862" id="Fill-11" fill="#FFFFFF"></path>
                            <path d="M170.4285,102.637621 C163.118583,104.566933 159.329155,114.681026 160.942777,126.3328 C161.523194,124.773867 162.509296,123.54281 163.893485,122.887056 C167.771039,121.029087 173.196879,124.257764 176.03667,130.112492 C178.870383,135.979364 178.001277,142.239385 174.135879,144.101908 C172.095301,145.087056 169.624728,144.640779 167.319772,143.165333 C171.859791,149.745641 178.001277,153.349251 183.545631,151.873805 C191.852286,149.669744 195.653869,136.858256 192.040694,123.26199 C188.409286,109.647508 178.729078,100.422933 170.4285,102.637621" id="Fill-12" fill="#FFFFFF"></path>
                            <path d="M127.111427,74.7711179 C129.076034,75.9080615 131.576995,76.0598564 133.517291,75.391959 C135.910374,74.5768205 137.788374,72.8190359 139.04949,70.1869128 C141.789,64.5082667 141.331655,55.7238974 139.266767,50.0862359 C140.345553,49.2073436 141.419782,47.6484103 142.094403,46.1122462 L140.382019,45.5035487 C139.98849,46.4993231 139.277403,47.4829538 138.586068,48.2221949 C135.430238,39.8992821 131.318694,35.7036718 126.923019,35.9435077 C124.355204,36.0846769 122.177879,37.2155487 120.793689,39.2086154 C119.319854,41.3185641 118.851874,44.2482051 119.766563,46.7801436 C117.47832,52.3191385 117.678883,58.8174769 119.344165,63.8646564 C121.074782,69.0621128 123.744398,72.8478769 127.111427,74.7711179 L127.111427,74.7711179 L127.111427,74.7711179 Z M124.273155,41.1652513 C124.952335,40.1345641 126.020485,39.5714051 127.310471,39.5607795 C130.432874,39.5486359 133.201252,45.5141744 134.66749,50.5188513 C132.461296,51.6451692 130.62584,51.5738256 128.813175,50.8588718 C126.723976,50.0498051 124.917388,48.3512205 124.096903,46.4340513 C123.315922,44.5593846 123.367583,42.5374769 124.273155,41.1652513 L124.273155,41.1652513 L124.273155,41.1652513 Z M123.60917,52.3828923 C127.427466,54.7569641 131.013291,54.7099077 135.194728,52.3601231 C136.063835,55.084841 136.660966,59.0163282 136.697432,62.0294564 C136.709587,64.4445128 136.461922,67.7612308 135.159782,69.7649231 C134.363607,70.9792821 133.658597,71.4528821 132.391403,71.6987897 C128.249471,72.5033026 124.917388,66.3434667 123.625883,61.8715897 C122.764374,58.8539077 122.735505,55.3899487 123.60917,52.3828923 L123.60917,52.3828923 L123.60917,52.3828923 Z" id="Fill-13" fill="#E05629"></path>
                            <path d="M145.260869,52.5711179 C145.543481,52.4466462 145.707578,52.3130667 145.859519,52.0489436 C146.24849,51.4569436 146.388277,50.5780513 146.201388,50.1090051 C146.060083,49.7811282 145.777471,49.6642462 145.227442,49.7462154 C145.260869,49.1481436 145.28518,49.0540308 145.51917,48.1159385 C145.426485,48.1402256 145.332282,48.1751385 145.260869,48.1979077 C145.004087,48.3163077 144.792888,48.6092718 144.464694,49.2893128 C143.995194,50.3078564 143.829578,51.9259897 144.112189,52.6121026 C144.230704,52.8807795 144.592325,52.8580103 145.260869,52.5711179" id="Fill-14" fill="#E05629"></path>
                            <path d="M145.096772,64.8892718 L145.051189,64.9196308 L144.651583,67.1161026 L144.850626,67.0219897 C146.435379,66.3783795 147.491374,64.7784615 148.077869,62.1417846 L148.381752,59.9437949 L148.524578,57.9507282 L148.547369,57.3754256 L148.705388,55.2487795 C148.782879,54.6218667 148.869485,54.1467487 148.975845,53.7900308 C148.975845,53.7900308 149.010791,53.6716308 149.063971,53.5380513 C149.127786,53.6610051 149.203757,53.7611897 149.203757,53.7611897 C149.726437,54.6218667 151.110626,55.7588103 151.842985,56.2749128 C151.842985,56.2749128 151.967578,56.3325949 152.055704,56.4039385 C151.943267,56.4509949 151.820194,56.4859077 151.820194,56.4859077 C149.345063,57.424 148.922665,59.2045538 149.228068,60.1077333 C149.408879,60.7164308 149.931558,61.1505641 150.341801,61.2962872 C150.870558,61.5133538 151.72599,61.537641 152.453791,61.1277949 C154.050699,60.2473846 154.871184,58.5958564 154.590092,56.8957538 L154.51868,56.5557333 L154.296845,55.8225641 C154.188966,55.441559 153.755932,54.9269744 153.041806,54.2651487 L151.327903,52.8170256 L150.711019,52.3130667 C150.300777,51.948759 150.048553,51.4812308 149.931558,50.9529846 L149.907248,50.7541333 L149.74467,50.8710154 L147.749675,52.3009231 C147.468583,53.1509744 147.372859,54.6157949 147.327277,55.7830974 L147.011238,59.6978872 C146.763573,62.3345641 146.351811,64.1211897 145.096772,64.8892718 L145.096772,64.8892718 L145.096772,64.8892718 Z M152.572306,57.3177436 C152.66651,57.4346256 152.712092,57.5530256 152.759194,57.6577641 C153.064597,58.3954872 152.970393,59.0057026 152.806296,59.4034051 C152.617888,59.8845949 152.324641,60.1654154 151.803481,60.3764103 C151.280801,60.5874051 150.765718,60.4826667 150.429927,60.1305026 C150.089578,59.7555692 150.025762,59.2045538 150.255194,58.6899692 C150.559078,58.0676103 151.280801,57.5757949 152.429481,57.2236308 C152.476583,57.2585436 152.572306,57.3177436 152.572306,57.3177436 L152.572306,57.3177436 L152.572306,57.3177436 Z" id="Fill-15" fill="#E05629"></path>
                        </g>
                    </g>
                </g>
            </g>
        </g>
    </g>
</svg>