<?xml version="1.0" encoding="UTF-8" standalone="no"?>
<svg width="512px" height="512px" viewBox="0 0 512 512" version="1.1" xmlns="http://www.w3.org/2000/svg" xmlns:xlink="http://www.w3.org/1999/xlink">
    <!-- Generator: Sketch 39.1 (31720) - http://www.bohemiancoding.com/sketch -->
    <title>boston-red-sox-2</title>
    <desc>Created with Sketch.</desc>
    <defs></defs>
    <g id="MLB" stroke="none" stroke-width="1" fill="none" fill-rule="evenodd">
        <g id="boston-red-sox-2">
            <g id="bos3" transform="translate(146.000000, 97.000000)">
                <g id="Group">
                    <g id="Shape" fill="#FFFFFF" opacity="0.8">
                        <path d="M201.680804,194.210043 C196.268337,174.598238 192.508626,169.345149 192.508626,169.345149 C188.900767,163.544017 181.735215,158.794315 181.735215,158.794315 L181.683693,157.991872 L182.133828,157.991872 C193.659724,147.880826 196.165294,140.181166 196.165294,140.181166 C197.767883,136.677753 201.478785,123.473311 201.478785,123.473311 C210.402847,94.6584511 219.724166,92.6597872 219.724166,92.6597872 L219.724166,91.6584255 C200.375141,79.8518298 196.367313,67.7488851 196.367313,67.7488851 C185.136988,34.9312851 179.126601,31.0313872 179.126601,31.0313872 C165.679497,12.6469277 144.695344,4.87148936 144.695344,4.87148936 C110.863362,-10.4358128 74.7779939,15.2261106 74.7779939,15.2261106 C55.3788037,-5.78354043 30.5698589,2.31937021 30.5698589,2.31937021 C-9.71993252,16.2152936 1.49141104,57.169634 1.83443558,58.3861532 C2.24796319,57.1980511 13.0091718,39.8108936 29.4675706,44.9381362 C47.0472393,50.4131489 48.8138834,69.1480851 48.6132209,69.6474128 C48.4125583,70.1467404 49.8456687,111.11326 48.012589,124.773728 C46.2974663,137.543796 43.9884908,137.834732 41.295816,141.431515 C36.6195644,147.672434 17.7138957,159.289583 17.7138957,159.289583 C44.9280798,164.767302 48.6132209,194.105847 48.6132209,194.105847 L48.6132209,249.031889 C44.4779448,271.466451 25.7593804,272.366323 25.7593804,272.366323 C9.36877301,273.868366 2.15169939,258.260655 2.15169939,258.260655 C-7.52077914,294.450409 17.238,314.062213 40.1935276,315.661685 C62.5972331,317.223268 75.1766074,301.453174 75.1766074,301.453174 C82.4031718,305.457268 81.4920552,307.155523 94.6246074,311.760434 C166.196067,336.849957 192.659123,258.635489 192.659123,258.635489 C199.275564,234.222562 220.928141,224.421396 220.928141,224.421396 C209.297847,220.8192 201.680804,194.210043 201.680804,194.210043 L201.680804,194.210043 Z M148.551319,241.827498 C147.348699,263.437966 126.702147,265.435277 126.702147,265.435277 C104.848908,269.838562 94.4212331,254.479838 94.4212331,254.479838 L94.2219264,192.603804 C104.496393,179.398009 120.58465,179.900043 120.58465,179.900043 C141.033252,181.499515 146.849755,196.805464 146.849755,196.805464 C152.663546,213.913864 139.23,223.414621 139.23,223.414621 C150.65692,233.9208 148.551319,241.827498 148.551319,241.827498 L148.551319,241.827498 Z M148.551319,111.968477 C147.348699,133.577591 126.702147,135.576255 126.702147,135.576255 C104.848908,139.97954 94.4212331,124.620817 94.4212331,124.620817 L94.2219264,62.7461362 C104.496393,49.5403404 120.58465,50.0369617 120.58465,50.0369617 C141.033252,51.6418468 146.849755,66.9477957 146.849755,66.9477957 C152.663546,84.0561957 139.23,93.5569532 139.23,93.5569532 C150.65692,104.060426 148.551319,111.968477 148.551319,111.968477 L148.551319,111.968477 Z"></path>
                        <path d="M1.85070552,58.4443404 C1.85070552,58.4443404 1.8398589,58.4050979 1.83443558,58.3861532 C1.81274233,58.4497532 1.8113865,58.4781702 1.85070552,58.4443404 L1.85070552,58.4443404 Z"></path>
                    </g>
                    <path d="M187.848644,184.159889 C185.695589,176.115166 177.419613,163.694221 166.795344,158.320698 C166.795344,158.320698 179.626902,153.546638 190.252528,125.132323 C190.252528,125.132323 197.419436,99.0197872 204.260945,93.2200085 C204.260945,93.2200085 195.616184,92.6178383 184.339761,65.4552255 C184.339761,65.4552255 174.416454,31.2397787 149.75665,18.3330383 C149.75665,18.3330383 108.585571,-6.57380426 73.1008344,29.2925362 C73.1008344,29.2925362 64.5455583,8.47097872 37.7001595,10.755166 C28.0480184,11.5752 12.3271902,19.9839319 9.47046012,37.2425362 C9.47046012,37.2425362 23.7473313,31.4346383 36.985638,38.1924766 C49.9175276,44.7946979 53.6257178,52.1019319 56.9339387,64.2062298 L56.9339387,126.934774 C56.9339387,126.934774 54.3280368,145.285404 37.4872945,158.322051 C37.4872945,158.322051 58.8402331,175.15846 56.9339387,191.065226 L57.0532515,249.892519 C57.0532515,249.892519 56.5326135,256.496094 55.2283067,258.198409 C55.2283067,258.198409 46.4059325,291.606 9.46910429,279.202647 C9.46910429,279.202647 10.6229141,287.807591 17.238,295.212255 C17.238,295.212255 44.9036748,324.025762 73.372,288.009217 C73.372,288.009217 99.0337607,311.031064 126.699436,306.120332 C154.366466,301.216366 172.409828,281.405643 175.616362,272.40286 C175.616362,272.40286 181.028828,261.672051 183.661847,252.069804 C186.292153,242.464851 200.803583,223.405149 204.259589,223.556706 C204.259589,223.552647 195.591779,213.095183 187.848644,184.159889 L187.848644,184.159889 Z M148.023902,264.632834 C148.023902,264.632834 116.222951,295.696698 84.0477914,258.479872 L84.0477914,188.848698 C84.0477914,188.848698 90.2127423,177.143591 104.043546,173.391191 C104.043546,173.391191 118.026202,167.388434 133.364687,173.391191 C133.364687,173.391191 173.209767,188.997549 151.707687,222.91394 C151.707687,222.91394 166.669252,245.125226 148.023902,264.632834 L148.023902,264.632834 Z M151.858184,92.9453106 C151.858184,92.9453106 166.818393,115.155243 148.174399,134.664204 C148.174399,134.664204 116.372092,165.726715 84.1969325,128.511243 L84.1969325,58.8787149 C84.1969325,58.8787149 90.3618834,47.1736085 104.192687,43.4212085 C104.192687,43.4212085 118.175344,37.4184511 133.512472,43.4212085 C133.513828,43.4212085 173.358908,59.0289191 151.858184,92.9453106 L151.858184,92.9453106 Z" id="Shape" stroke="#C40031" stroke-width="1.19772" fill="#C40031"></path>
                </g>
            </g>
        </g>
    </g>
</svg>