<?xml version="1.0" encoding="UTF-8" standalone="no"?>
<svg width="512px" height="512px" viewBox="0 0 512 512" version="1.1" xmlns="http://www.w3.org/2000/svg" xmlns:xlink="http://www.w3.org/1999/xlink">
    <!-- Generator: Sketch 39.1 (31720) - http://www.bohemiancoding.com/sketch -->
    <title>cleveland-indians-2</title>
    <desc>Created with Sketch.</desc>
    <defs></defs>
    <g id="MLB" stroke="none" stroke-width="1" fill="none" fill-rule="evenodd">
        <g id="cleveland-indians-2">
            <g id="cle" transform="translate(121.000000, 80.000000)">
                <g id="Group">
                    <path d="M191.561075,28.90215 C191.999522,28.46745 197.917214,22.58415 204.611662,18.11025 C212.440119,12.8682 238.6279,0.22275 238.6279,0.22275 L268.045851,38.93265 C268.045851,38.93265 271.807841,43.6536 270.579104,49.2291 C268.809075,57.1806 256.529831,108.04725 256.529831,108.04725 C256.529831,108.04725 253.531065,126.5814 246.931343,137.81745 C234.508657,158.95035 223.207801,177.57225 223.207801,177.57225 L223.566408,182.25675 C223.566408,182.25675 227.754667,178.49025 230.827861,175.8672 C233.894289,173.2428 238.062249,177.4224 246.384637,183.1059 C254.712438,188.7867 260.413612,203.65155 260.85206,206.27325 C261.291861,208.9017 260.412259,219.39255 258.217313,225.9495 C256.029134,232.50645 248.483502,245.72835 248.483502,245.72835 C248.483502,245.72835 255.941174,254.90565 251.556697,268.4637 C247.173572,282.015 235.764458,291.6243 234.886209,292.50045 C234.014726,293.3766 220.153552,300.3048 213.514587,299.70405 C210.745871,299.45565 200.687284,310.5405 196.42595,314.9739 C191.0279,320.5683 177.437373,330.8769 173.047483,334.7784 C164.765692,342.1494 142.036776,350.63415 123.159164,350.03475 C109.078766,349.58385 95.9645771,347.4198 90.7018507,346.10625 C85.4404776,344.7981 72.2897512,339.5493 66.1582488,332.99235 C60.0226866,326.43675 43.8109453,306.3285 39.8662687,299.32605 C35.9175323,292.33035 24.8643184,283.09905 24.0604975,282.2364 C18.912796,276.6501 10.4875622,268.2666 10.4875622,268.2666 C1.14618905,257.46525 0.178626866,246.95145 0.178626866,236.7765 C0.178626866,231.50745 2.35733333,228.50775 13.0438209,217.84815 C17.7517214,213.1515 24.2269453,210.3138 28.1404975,206.8308 C33.5574925,202.0194 35.880995,196.91775 38.0366965,192.4776 C43.0517811,182.15415 46.7975323,173.6613 53.3728955,150.0525 C53.3728955,150.0525 62.2446965,126.50175 67.496597,119.5074 C72.7593234,112.5117 93.3406567,98.96445 120.065672,96.34005 C146.798806,93.7197 156.451423,92.8422 161.699264,94.15305 C166.96199,95.46795 167.307065,95.5881 167.307065,95.5881 L168.407244,96.012 L174.006925,98.8389 L191.561075,28.90215 L191.561075,28.90215 Z" id="Shape" stroke="#FFFFFF" stroke-width="0.675000027" fill="#FFFFFF"></path>
                    <path d="M197.485532,38.7558 C197.876617,38.3589 201.032358,29.97945 207.441274,26.44785 C213.919204,22.8825 236.939065,10.54755 236.939065,10.54755 L259.634149,43.1298 C259.634149,43.1298 262.35009,46.2321 261.228259,51.3 C259.613851,58.52925 243.929871,120.43755 243.929871,120.43755 C243.929871,120.43755 240.019025,136.2231 233.439602,146.0376 C221.0521,164.48805 211.027343,177.46965 211.027343,177.46965 L211.824398,205.9425 C211.824398,205.9425 221.389055,190.9899 224.172657,188.59635 C226.969791,186.2109 230.948299,181.845 238.519642,187.00605 C246.090985,192.1752 251.272517,205.6914 251.663602,208.07685 C252.069572,210.45555 251.272517,219.99735 249.279204,225.9549 C247.280478,231.92595 239.7159,247.0257 239.7159,247.0257 C239.7159,247.0257 246.483423,255.3687 242.506269,267.6942 C238.520995,280.01835 225.774886,287.57295 224.976478,288.36135 C224.172657,289.1565 217.054647,291.70935 211.015164,291.17205 C208.502209,290.94255 193.891343,305.7129 190.007562,309.7359 C185.096677,314.82405 172.749771,324.1971 168.756378,327.7476 C161.225632,334.44495 140.563104,342.16155 123.40004,341.61615 C110.599801,341.20575 98.6751045,339.23745 93.8954826,338.0454 C89.1090945,336.852 77.1640995,332.0811 71.58201,326.12355 C66.0026269,320.15925 51.2604975,301.8789 47.6798408,295.5177 C44.0897114,289.1565 34.0392438,280.7595 33.3166169,279.9792 C28.6290149,274.8978 20.9683582,267.28245 20.9683582,267.28245 C12.4835821,257.45715 6.58483582,248.0382 8.64851741,238.6773 C9.68238806,234.00765 9.83124378,227.56545 22.5800597,221.20425 C35.3329353,214.84305 41.8852935,205.1865 45.3103284,198.1449 C49.8666667,188.7651 53.2768159,181.03635 59.2486368,159.5754 C59.2486368,159.5754 69.215204,131.75865 73.9907662,125.3961 C78.7771542,119.03625 97.4774925,106.7202 121.784279,104.33475 C146.088358,101.9493 154.850547,101.15415 159.639642,102.35025 C164.415204,103.5423 175.965055,110.29905 175.965055,110.29905 L176.910965,110.9214 L180.099184,112.7817 L197.485532,38.7558 L197.485532,38.7558 Z" id="Shape" fill="#002B5C"></path>
                    <path d="M213.418507,206.08425 C213.418507,206.08425 225.368915,190.58625 230.15801,188.19945 C230.15801,188.19945 231.948338,187.00605 233.940299,189.19575 C235.925493,191.38005 243.105751,200.71935 244.693095,205.49025 C246.287204,210.26115 248.881353,212.24835 245.889353,221.39325 C242.902766,230.5314 237.939104,240.2892 237.121751,241.26525 C235.412617,243.29295 234.629095,244.47285 231.535602,241.8444 C231.535602,241.8444 238.121791,250.40205 238.121791,260.74035 C238.121791,271.0692 232.346189,276.23835 230.15801,278.2269 C227.963065,280.21545 221.876219,284.17095 217.202149,285.18075 C213.643144,285.95565 208.840517,285.9759 208.840517,285.9759 C208.840517,285.9759 182.341493,311.8122 176.16804,316.3806 C169.994587,320.95575 159.436657,330.10065 148.284657,333.28125 C137.127244,336.4605 124.375721,338.0454 108.437333,336.05685 C99.7536318,334.9728 83.2049353,331.17795 76.4292935,324.783 C72.0529353,320.6466 61.6262687,309.82365 54.2579104,298.4958 C46.888199,287.16795 42.8961592,284.39235 38.120597,278.8263 C33.3355622,273.2535 23.3784677,265.5099 20.3891741,261.13725 C17.4039403,256.7646 11.4226468,247.02705 11.823204,241.06275 C12.6175522,229.1625 20.9832438,225.56475 22.975204,224.37135 C24.9671642,223.1793 33.7428856,218.8053 36.9311045,215.2278 C40.1166169,211.6503 46.8868458,204.0957 48.2752637,199.92555 C49.6745075,195.75405 52.6597413,190.7874 55.6449751,181.04445 C58.3798607,172.1574 65.9295522,146.47365 75.1734925,130.9689 C75.1734925,130.9689 78.7541493,125.40555 85.1292338,125.40555 C91.5043184,125.40555 108.638965,124.2135 108.638965,124.2135 C108.638965,124.2135 117.60008,111.09285 123.276896,107.6193 C123.276896,107.6193 126.465114,105.23385 127.858945,105.83055 C129.256836,106.4232 125.666706,109.70505 125.666706,109.70505 C125.666706,109.70505 116.899104,118.74465 115.309055,122.52195 C115.309055,122.52195 114.51606,124.31205 116.899104,124.31205 C119.294328,124.31205 141.109811,123.8166 146.689194,124.01505 C152.263164,124.2135 155.45003,126.6003 157.443343,128.58345 C157.443343,128.58345 183.663602,162.10125 193.101055,171.909 C202.665711,181.84635 211.878527,200.2698 211.878527,200.2698 C211.778388,201.46185 212.020617,207.74205 213.418507,206.08425 L213.418507,206.08425 Z" id="Shape" fill="#E31937"></path>
                    <g transform="translate(56.835821, 105.300000)" id="Shape">
                        <g>
                            <path d="M154.191522,104.36985 C154.191522,104.36985 156.697711,98.6283 155.041353,94.9698 C152.522985,89.44425 147.058627,80.29935 140.702488,71.8281 C139.17604,69.7896 120.356617,47.94255 120.356617,47.94255 L101.687403,24.6483 C101.687403,24.6483 98.5127164,18.97155 89.8520199,18.71505 C84.5297512,18.5571 62.0755423,18.94725 62.0755423,18.94725 C62.0755423,18.94725 56.9968557,19.5615 58.8304876,16.68735 C60.8982289,13.44195 63.0661095,10.79055 65.9498507,7.62075 C67.7834826,5.6025 75.089592,-1.10565 69.1719005,0.68985 C65.303005,1.8657 58.8913831,8.6184 51.8031443,18.91485 L30.7522388,19.9314 C30.7522388,19.9314 22.639602,18.6921 18.0399602,26.12115 C11.9842388,35.92485 6.42515423,51.80085 6.42515423,51.80085 L20.9981294,28.92375 L24.5408955,43.3701 L79.5160199,43.6671 L86.9073831,30.2508 C86.9073831,30.2508 93.1146667,29.8053 100.066229,49.4154 C102.26794,55.64835 102.584597,53.70165 116.459303,66.37005 C130.354308,79.0533 154.191522,104.36985 154.191522,104.36985 L154.191522,104.36985 Z" fill="#FFFFFF"></path>
                            <path d="M3.66861692,57.1914 L20.2010746,26.38845 C20.2010746,26.38845 22.118607,23.08635 23.1145871,26.6625 C24.1078607,30.24 30.6832239,59.45265 30.886209,61.43985 C30.886209,61.43985 31.679204,67.9968 29.0850547,62.03655 C26.5017313,56.0763 21.5231841,42.76125 20.7193632,37.59345 C20.7193632,37.59345 19.7233831,31.8276 18.1360398,37.1952 C18.1360398,37.1952 6.98133333,60.24915 4.59016915,63.62685 C2.19900498,67.00725 0.205691542,70.3836 1.0000398,66.609 C1.79709453,62.83035 3.66861692,57.1914 3.66861692,57.1914 L3.66861692,57.1914 Z" fill="#002B5C"></path>
                        </g>
                        <path d="M70.5264876,57.66525 C73.9285174,51.93045 76.6999403,42.363 85.8626866,26.86095 C87.294408,24.44175 88.151005,23.7438 90.448796,26.6625 C99.2096318,37.7919 110.06392,67.89825 109.766209,70.5807 C109.766209,70.5807 110.172179,75.94695 107.975881,73.16325 C103.95001,68.05755 94.2297313,37.99035 90.4474428,33.61635 C90.4474428,33.61635 88.2524975,32.22855 85.4688955,37.99035 C85.4688955,37.99035 74.3074229,60.2478 71.9216716,63.62685 C69.5305075,67.00725 67.537194,70.3836 68.3342488,66.609 C69.1272438,62.83035 69.9080597,58.7034 70.5264876,57.66525 L70.5264876,57.66525 Z" fill="#002B5C"></path>
                        <polygon fill="#002B5C" points="25.5057512 45.53955 25.1038408 42.7599 80.488995 41.56785 78.4902687 44.74575"></polygon>
                    </g>
                    <path d="M67.9945871,208.4697 C71.9839204,208.0782 69.1908458,210.8619 69.1908458,210.8619 C64.4112239,214.43265 62.7927562,225.16785 62.4219701,230.3289 C62.033592,235.6992 61.7913632,242.84205 61.7913632,242.84205 C61.7913632,242.84205 52.5338905,240.3621 44.0626468,236.2986 C42.009791,235.31445 36.3059104,234.92295 33.2056517,237.74715 C31.0878408,239.68845 28.9564975,245.83365 30.1527562,254.97855 C31.3408955,264.1167 34.937791,256.9536 34.937791,256.9536 C41.3142289,266.8923 56.4420299,290.7468 66.0039801,304.26435 C74.5550647,316.34685 84.4377313,318.34755 87.9236617,320.15925 C95.049791,323.86635 115.012697,326.12355 127.765572,324.53325 C138.04609,323.24535 145.291303,320.15925 148.472756,316.97865 C151.660975,313.79805 177.56593,299.48535 184.732657,288.36 C191.906149,277.23465 188.71793,266.8977 186.326766,258.1578 C183.942368,249.41115 174.768796,249.8094 174.768796,249.8094 C161.623483,250.19955 128.558567,245.4354 128.558567,245.4354 C128.156657,243.8451 125.772259,238.27905 119.790965,234.3114 C113.816438,230.3289 117.406567,237.88215 117.406567,237.88215 C117.00601,237.88215 122.58404,247.0257 122.58404,247.0257 C122.58404,247.0257 115.809751,251.7966 114.218348,252.1881 C112.620179,252.59175 108.237055,251.3997 100.664358,255.3687 C93.1024876,259.34445 87.121194,258.54795 81.5485771,259.34445 C75.9664876,260.145 71.1462687,259.7211 68.7686368,255.3687 C67.1474627,252.38385 63.7427264,250.1604 65.2096318,233.5095 C66.3977711,219.9582 67.0121393,218.8188 68.4046169,216.0297 C69.8606965,213.0921 73.9542289,209.67525 81.9396617,204.49935 C91.6802388,198.1854 96.6831443,189.3915 96.6831443,189.3915 C95.4868856,190.98855 87.9223085,196.94475 87.9223085,196.94475 L82.7367164,179.8551 L74.7702289,156.006 C71.58201,157.5963 67.600796,163.15965 65.6101891,169.91775 C63.6182289,176.67045 58.7384677,191.60685 55.2525373,200.91915 C52.5704279,208.6155 51.2604975,210.1923 50.8694129,210.64995 C53.2226866,209.79675 63.2230846,208.71945 67.9945871,208.4697 L67.9945871,208.4697 Z" id="Shape" fill="#002B5C"></path>
                    <path d="M119.789612,211.6503 C119.789612,211.6503 132.538428,190.9899 134.136597,185.82075 C135.728,180.6516 140.905473,163.161 145.689154,158.79105 C145.689154,158.79105 148.877373,156.4056 150.869333,158.39415 C152.855881,160.37865 162.420537,174.2931 166.803662,189.39285 C171.186786,204.5007 173.997453,222.81615 179.969274,233.14635 C179.969274,233.14635 155.605652,219.91095 148.073552,217.41075 C135.407284,213.2001 119.789612,211.6503 119.789612,211.6503 L119.789612,211.6503 Z" id="Shape" fill="#002B5C"></path>
                    <path d="M81.1453134,183.4353 C79.9571741,179.15715 73.5739701,160.3773 73.5739701,160.3773 C69.9946667,164.35305 56.0522985,204.8841 55.2511841,207.2628 L70.72,205.497 C70.6699303,202.9968 71.5914826,193.7061 74.2803582,191.58255 L79.950408,191.9592 L78.336,186.003 C78.9314229,184.8042 80.2481194,183.7593 81.1453134,183.4353 L81.1453134,183.4353 Z" id="Shape" fill="#FFFFFF"></path>
                    <path d="M162.60999,188.56395 C159.638289,175.04775 148.472756,161.1765 148.472756,161.1765 C142.103085,165.94335 136.522348,188.5977 135.729353,190.9899 C134.936358,193.3686 125.356816,209.655 125.356816,209.655 C125.356816,209.655 131.543801,210.26115 136.522348,211.23855 C141.21807,212.16195 151.268537,215.61255 151.268537,215.61255 C149.889592,212.5467 150.943761,200.90295 154.179343,197.6535 L161.400199,198.31365 L157.44199,192.6801 C157.895323,191.8728 158.651781,189.83835 162.60999,188.56395 L162.60999,188.56395 Z" id="Shape" fill="#FFFFFF"></path>
                    <path d="M165.608756,256.9671 C165.608756,256.9671 177.15996,256.56345 178.361632,256.16655 C178.361632,256.16655 183.941015,254.9799 184.3321,259.74405 C184.731303,264.51495 185.946507,277.22385 183.562109,281.99475 C183.562109,281.99475 186.325413,285.1821 164.412498,301.482 C142.500935,317.77515 140.514388,320.9571 124.576,321.75225 C108.637612,322.54065 91.5043184,318.9699 88.3160995,317.3796 C88.3160995,317.3796 75.4008358,310.98465 67.1975323,300.68145 C56.4406766,287.17065 51.2604975,276.0453 35.7240199,252.59445 C33.9093333,249.85935 35.4696119,243.2943 36.9189254,242.2575 C38.6659502,241.0047 42.2696119,242.38575 45.2873234,243.8478 C47.8205771,245.0736 62.4206169,249.8121 62.4206169,250.20225 C62.4206169,250.60725 64.8050149,257.75685 68.792995,260.5392 C72.7782687,263.32155 83.9316219,269.28585 101.85791,262.92465 C101.85791,262.92465 109.027343,257.36535 118.593353,256.16655 C119.869453,255.6063 123.793831,253.82835 126.164697,250.8624 C128.051104,254.94615 151.86396,257.1021 165.608756,256.9671 L165.608756,256.9671 Z" id="Shape" fill="#FFFFFF"></path>
                    <path d="M51.662408,274.25115 C51.662408,279.60255 47.8801194,253.18575 49.4701692,248.4162 C49.4701692,248.4162 51.0669851,254.37915 51.4621294,261.1386 C51.865393,267.8967 51.662408,273.0591 51.662408,274.25115 L51.662408,274.25115 Z" id="Shape" fill="#002B5C"></path>
                    <path d="M70.3857512,297.90315 C70.3857512,303.2532 64.0133731,275.0463 66.4031841,265.30875 C66.4031841,265.30875 67.9945871,271.2717 68.3964975,278.0298 C68.7943483,284.78385 70.3857512,296.71245 70.3857512,297.90315 L70.3857512,297.90315 Z" id="Shape" fill="#002B5C"></path>
                    <path d="M90.761393,306.1665 C91.1714229,312.11595 85.3958209,284.69745 87.9290746,268.4907 C87.9290746,268.4907 89.3134328,279.4743 89.4690547,286.23915 C89.6300896,293.00535 90.6774925,304.97985 90.761393,306.1665 L90.761393,306.1665 Z" id="Shape" fill="#002B5C"></path>
                    <path d="M117.004657,312.00795 C117.004657,317.358 110.829851,284.1912 113.221015,274.45365 C113.221015,274.45365 114.811065,280.4166 115.214328,287.1693 C115.605413,293.92875 117.004657,310.8213 117.004657,312.00795 L117.004657,312.00795 Z" id="Shape" fill="#002B5C"></path>
                    <path d="M165.405771,274.6494 C165.405771,279.99945 162.0281,266.10525 163.615443,261.33435 C163.615443,261.33435 164.810348,254.7774 165.209552,261.53685 C165.608756,268.2882 165.405771,273.456 165.405771,274.6494 L165.405771,274.6494 Z" id="Shape" fill="#002B5C"></path>
                    <path d="M99.8713632,262.5264 C99.8713632,262.5264 125.964418,266.50215 133.535761,266.10525 C133.535761,266.10525 135.13393,265.3101 135.529075,269.28585 C135.926925,273.25485 138.914866,294.9264 139.71192,297.702 C140.514388,300.4857 138.148935,270.83565 137.516975,268.8876 C136.649552,266.1984 139.319483,265.90275 139.319483,265.707 C139.319483,265.707 162.420537,262.1295 166.405811,260.34345 C170.391085,258.55065 176.564537,255.37005 177.56593,254.9799 L169.399164,256.16655 C169.399164,256.16655 145.892139,263.2419 136.12991,263.41065 C124.559761,263.61315 110.235781,261.8541 102.768637,259.83315 L99.8713632,262.5264 L99.8713632,262.5264 Z" id="Shape" fill="#002B5C"></path>
                    <path d="M161.225632,164.3544 C161.225632,164.3544 186.326766,184.6287 196.688478,199.73115 C196.688478,199.73115 205.44796,224.77095 208.637532,229.1382 C208.637532,229.1382 211.028697,235.1079 211.434667,229.1382 C211.825751,223.182 211.028697,209.6712 211.028697,209.6712 C211.028697,209.6712 159.233672,152.82945 156.045453,152.0343 L161.225632,164.3544 L161.225632,164.3544 Z" id="Shape" fill="#002B5C"></path>
                    <path d="M217.403781,220.7952 C218.356458,213.02595 228.163343,205.2972 232.143204,203.3073 C232.143204,203.3073 237.729353,200.52495 234.933572,206.4879 C232.143204,212.44545 231.745353,211.2588 231.745353,211.2588 C231.745353,211.2588 238.121791,226.36125 237.729353,229.9374 C237.324736,233.5095 234.541134,240.2676 227.360876,232.3161 C227.360876,232.3161 230.948299,234.70155 233.346229,231.92595 C235.730627,229.1355 229.75204,218.2059 229.75204,214.82955 C229.75204,214.4313 224.578627,219.2022 223.376955,226.3599 C223.375602,226.36125 215.411821,237.0951 217.403781,220.7952 L217.403781,220.7952 Z" id="Shape" fill="#002B5C"></path>
                    <path d="M202.259741,40.34745 C202.259741,40.34745 204.326129,32.01255 210.643025,28.71315 C216.857075,25.46505 216.903085,25.34355 216.903085,25.34355 L223.375602,35.17965 L219.693453,23.95305 L223.577234,21.9645 L227.562507,27.23085 L226.069891,20.77515 L236.330109,15.3063 L249.670289,34.97985 L240.929751,41.3721 C240.929751,41.3721 249.076219,37.962 251.474149,37.76355 L253.567602,40.6431 L243.510368,47.52135 C243.510368,47.52135 253.36597,44.30565 255.755781,43.92225 L257.519045,46.55745 L254.452617,58.43745 L241.117851,67.4001 L253.451224,62.90595 L250.479522,75.82005 L237.117692,86.2542 C237.117692,86.2542 249.667582,79.50285 249.667582,79.89435 C249.667582,80.28855 236.921473,91.22085 236.921473,91.22085 L248.384716,84.46275 L246.601154,91.81755 L240.109692,98.3772 L245.406249,96.48315 L241.028537,114.8661 C241.028537,114.8661 220.589294,128.98575 220.589294,129.37725 C220.589294,129.77145 225.770826,127.39275 227.16195,126.5976 C227.16195,126.5976 225.175403,129.573 225.175403,129.17745 C225.175403,128.7873 233.139184,126.5976 233.139184,126.5976 C233.139184,126.5976 220.790925,135.7317 220.790925,135.3402 C220.790925,134.946 237.319323,127.19025 237.319323,127.19025 C237.319323,127.19025 234.982289,134.3763 233.19196,137.95245 C231.428697,141.4557 225.302607,150.29145 225.302607,150.29145 L212.813612,155.412 L221.878925,155.01375 L220.384955,157.20075 L213.016597,159.5862 L219.095323,158.79105 L209.618627,171.49995 C209.618627,171.49995 201.864597,158.5926 202.458667,155.6091 C202.458667,155.6091 205.052816,144.87795 204.248995,140.9022 C204.248995,140.9022 202.458667,148.4568 200.067502,150.2415 L182.74205,117.8496 L202.259741,40.34745 L202.259741,40.34745 Z" id="Shape" fill="#E31937"></path>
                    <path d="M229.955025,40.9428 L228.758766,40.34745" id="Shape" fill="#000000"></path>
                    <g transform="translate(193.512438, 94.500000)" id="Shape" fill="#002B5C">
                        <path d="M0.986507463,10.83105 C0.986507463,10.83105 0.986507463,18.3843 5.55908458,22.15755 C5.55908458,22.15755 3.57389055,12.22155 0.986507463,10.83105 L0.986507463,10.83105 Z"></path>
                        <path d="M3.1760398,0.6966 C3.1760398,0.6966 4.77014925,10.4328 9.34949254,14.21145 C9.34949254,14.2101 5.76206965,2.0871 3.1760398,0.6966 L3.1760398,0.6966 Z"></path>
                    </g>
                    <path d="M204.056836,59.6241 C204.056836,59.6241 208.839164,77.9085 213.418507,81.68175 C213.418507,81.68175 206.644219,61.0146 204.056836,59.6241 L204.056836,59.6241 Z" id="Shape" fill="#002B5C"></path>
                    <path d="M218.801672,33.1938 C218.801672,33.1938 218.200836,37.76355 221.585274,40.9428 C221.585274,40.9428 220.592,34.7814 218.801672,33.1938 L218.801672,33.1938 Z" id="Shape" fill="#002B5C"></path>
                    <path d="M228.758766,39.7467 C228.352796,40.5459 210.433274,111.294 208.433194,124.40925 C208.433194,124.40925 228.163343,52.66755 229.953672,40.94145 L228.758766,39.7467 L228.758766,39.7467 Z" id="Shape" fill="#002B5C"></path>
                    <path d="M205.650945,135.54 C205.650945,135.54 205.85393,131.3658 207.245055,129.57705 C207.245055,129.5757 207.245055,132.9561 205.650945,135.54 L205.650945,135.54 Z" id="Shape" fill="#002B5C"></path>
                    <path d="M215.614806,118.44765 C210.25194,119.664 235.925493,105.33105 240.30997,105.53085 C240.30997,105.5295 219.991164,117.4527 215.614806,118.44765 L215.614806,118.44765 Z" id="Shape" fill="#002B5C"></path>
                    <path d="M227.677532,62.181 C222.314667,63.39735 247.996338,49.0644 252.380816,49.26285 C252.380816,49.26285 232.06201,61.18605 227.677532,62.181 L227.677532,62.181 Z" id="Shape" fill="#002B5C"></path>
                    <path d="M231.055204,83.0925 C228.379861,83.69865 241.220697,76.5369 243.403463,76.6341 C243.403463,76.6341 233.243383,82.5984 231.055204,83.0925 L231.055204,83.0925 Z" id="Shape" fill="#002B5C"></path>
                    <path d="M165.554627,282.5874 C165.953831,282.5874 167.92008,287.29755 167.92008,288.4761 C167.92008,289.656 166.344915,292.7961 166.344915,292.7961 L165.163542,288.8676 L165.554627,282.5874 L165.554627,282.5874 Z" id="Shape" fill="#002B5C"></path>
                    <path d="M105.62802,260.42445 C105.62802,260.42445 112.234507,256.8942 117.375443,256.25295 C121.596179,255.7278 126.260776,250.7274 126.260776,250.7274 C126.260776,250.7274 126.006368,253.40985 140.933891,255.32955 C155.861413,257.24385 166.681871,256.91985 166.681871,256.91985 C166.681871,256.91985 148.417274,262.91115 135.102806,263.53755 C122.546149,264.1302 107.404816,261.01035 105.62802,260.42445 L105.62802,260.42445 Z" id="Shape" fill="#E31937"></path>
                </g>
            </g>
        </g>
    </g>
</svg>
