<?xml version="1.0" encoding="UTF-8" standalone="no"?>
<svg width="512px" height="512px" viewBox="0 0 512 512" version="1.1" xmlns="http://www.w3.org/2000/svg" xmlns:xlink="http://www.w3.org/1999/xlink">
    <!-- Generator: Sketch 39.1 (31720) - http://www.bohemiancoding.com/sketch -->
    <title>chicago-white-sox-2</title>
    <desc>Created with Sketch.</desc>
    <defs></defs>
    <g id="MLB" stroke="none" stroke-width="1" fill="none" fill-rule="evenodd">
        <g id="chicago-white-sox-2">
            <g id="cws" transform="translate(74.000000, 73.000000)">
                <g id="Group">
                    <g id="Shape">
                        <g>
                            <path d="M360.955841,184.21875 C362.20898,182.96475 362.20898,180.92975 360.955841,179.69925 L184.092813,2.871 C182.839673,1.60925 180.813815,1.60925 179.560675,2.871 L2.86203432,179.84775 C1.61289224,181.09775 1.61289224,183.129 2.86603157,184.38675 L179.732807,361.19525 C180.989694,362.46075 183.015802,362.46075 184.268692,361.19525 L360.955841,184.21875 L360.955841,184.21875 Z" fill="#FFFFFF"></path>
                            <path d="M178.198611,1.5 L1.49572272,178.49225 C-0.498907344,180.49225 -0.498907344,183.74225 1.49971997,185.75 L178.366496,362.5625 C178.370493,362.5625 182.000749,364.0665 182.000749,364.0665 L185.635003,362.5625 L362.32615,185.58975 L363.82512,181.91 L362.302666,178.31625 L185.455377,1.5 C185.45138,1.5 181.828868,0 181.828868,0 L178.198611,1.5 L178.198611,1.5 Z M181.094872,359.83975 L4.22809609,183.0235 C3.724442,182.51175 3.724442,181.72275 4.22809609,181.215 L180.927237,4.2265 L181.828868,3.84375 L182.730498,4.2265 L359.593526,181.0625 C359.609016,181.07025 359.976014,181.9415 359.976014,181.9415 L359.593526,182.8635 L359.593526,182.8635 L182.898383,359.84 C182.894386,359.84 181.996752,360.219 181.996752,360.219 L181.094872,359.83975 L181.094872,359.83975 Z M362.3259,185.58975 L362.595215,185.31625 C362.595215,185.3165 362.333894,185.582 362.3259,185.58975 L362.3259,185.58975 Z" fill="#C4CED4"></path>
                        </g>
                        <g transform="translate(11.242279, 12.250000)">
                            <path d="M325.195152,184.61725 C316.962556,176.39075 316.962556,163.03125 325.171668,154.8165 L185.486605,15.15625 C177.273496,23.3985 163.934907,23.3985 155.706309,15.15625 L16.1496582,154.961 C24.3745093,163.1875 24.3785065,176.53125 16.1651476,184.75 L152.423064,320.98825 C163.8722,309.50375 177.605019,309.50375 189.058152,320.97275 L325.195152,184.61725 L325.195152,184.61725 Z" fill="#000000"></path>
                            <g transform="translate(161.638984, 0.000000)" fill="#000000">
                                <polygon points="8.9593466 17.457 0.242583391 8.74225 8.95534935 0.0195 17.6681153 8.7265"></polygon>
                            </g>
                            <g transform="translate(0.000000, 160.250000)" fill="#000000">
                                <polygon points="17.6368868 8.80475 8.92811805 17.5195 0.211354839 8.80475 8.92037337 0.082"></polygon>
                            </g>
                            <polygon fill="#000000" points="179.654611 330.625 170.953587 339.34775 162.232826 330.625 162.229079 320.504 179.623382 320.496"></polygon>
                            <g transform="translate(322.778312, 161.000000)" fill="#000000">
                                <polygon points="0.0514646534 8.8945 8.76423061 0.17975 17.4729993 8.88275 8.76797804 17.61325"></polygon>
                            </g>
                            <path d="M136.70361,65.55475 C150.834405,55.85175 174.650298,46.94525 191.603404,45.3165 C203.739569,76.836 218.803473,126.24225 238.500944,148.74225 C249.80568,161.65625 251.433562,183.48825 224.79161,192.3945 C204.434342,199.1915 186.415467,218.41025 173.120099,233.625 C161.81936,246.5665 147.262858,251.789 133.565266,253.03125 C124.680868,253.84775 115.79622,253.85925 102.879341,251.44525 C101.251459,238.5 100.025801,217.035 117.388876,202.13675 C128.685867,192.42575 144.698119,179.34375 152.907481,172.21875 C165.016415,161.707 167.432755,147.16025 161.764648,131.004 C156.358111,115.55075 142.363723,80.90625 136.70361,65.55475 L136.70361,65.55475 Z" fill="#FFFFFF"></path>
                        </g>
                    </g>
                    <path d="M223.628159,357.17975 L220.056362,357.17975 L220.056362,366.90625 L217.632277,366.90625 L217.632277,357.17975 L214.06048,357.17975 L214.06048,355.07025 L223.628159,355.07025 L223.628159,357.17975 L223.628159,357.17975 Z M239.824286,366.90625 L237.4002,366.90625 L237.4002,357.48825 L237.349485,357.48825 L233.918342,366.90625 L231.583945,366.90625 L228.265974,357.48825 L228.207514,357.48825 L228.207514,366.90625 L225.787176,366.90625 L225.787176,355.07025 L229.979547,355.07025 L232.731657,362.82025 L232.798111,362.82025 L235.659396,355.07025 L239.824535,355.07025 L239.824535,366.90625 L239.824286,366.90625 Z" id="Shape" fill="#FFFFFF"></path>
                </g>
            </g>
        </g>
    </g>
</svg>
