<?xml version="1.0" encoding="UTF-8" standalone="no"?>
<svg width="512px" height="512px" viewBox="0 0 512 512" version="1.1" xmlns="http://www.w3.org/2000/svg" xmlns:xlink="http://www.w3.org/1999/xlink">
    <!-- Generator: Sketch 39.1 (31720) - http://www.bohemiancoding.com/sketch -->
    <title>detroit-tigers</title>
    <desc>Created with Sketch.</desc>
    <defs></defs>
    <g id="MLB" stroke="none" stroke-width="1" fill="none" fill-rule="evenodd">
        <g id="detroit-tigers" fill="#ff6600">
            <g transform="translate(146.000000, 113.000000)" id="Fill-1215">
                <path d="M177.029993,51.2654777 C166.046751,44.4464887 149.392399,44.2003681 137.379364,49.8973366 L137.379364,91.8572831 C151.049494,85.3857585 164.382403,85.3857585 177.029993,93.2254242 L177.029993,51.2654777 Z M137.379364,159.746761 C151.049494,166.225524 164.382403,166.225524 177.029993,158.385859 L177.029993,113.353024 C164.382403,105.509739 151.049494,105.509739 137.379364,111.992122 L137.379364,159.746761 Z M137.379364,235.826988 L153.101827,243.330048 C159.944144,239.232863 170.187676,234.458847 177.029993,232.403016 L177.029993,179.19029 C164.382403,187.040814 151.049494,187.040814 137.379364,180.558431 L137.379364,235.826988 Z M99.7883208,60.8171294 L99.7883208,226.608323 L112.776757,228.656916 L112.776757,46.1476165 C106.61976,46.8316871 99.7883208,50.9252521 99.7883208,60.8171294 L99.7883208,60.8171294 Z M33.4863787,5.21558552 L164.719624,5.21558552 C196.85712,5.21558552 218.718449,27.0479324 218.718449,57.06379 C218.718449,85.7187453 210.509119,198.977664 221.459727,246.055472 C191.374564,244.00688 161.30753,257.648477 140.805962,283.588867 C119.615448,271.981384 105.945318,270.616862 82.0207782,270.616862 C62.8862227,270.616862 35.5387112,276.759019 14.3518232,284.946149 C6.29116049,288.062471 8.88014526,283.918234 13.6628776,277.099245 C25.9732464,259.563151 50.5722278,237.864722 76.5491003,227.636239 L76.5491003,51.6093227 C66.9836355,61.157355 62.8862227,71.3966967 62.8862227,90.5000003 L62.8862227,194.891338 C62.8862227,213.306952 56.0402797,226.271717 45.7931215,235.139298 C35.5387112,244.00688 22.553901,246.735923 15.7152101,248.104064 C8.88014526,249.461347 6.14611932,248.104064 11.6105452,241.281456 C17.0858491,234.458847 22.553901,228.997141 22.553901,204.435751 L22.553901,154.639758 C17.0858491,156.677492 10.4502159,162.258639 6.83143882,167.593666 C3.23804399,172.888878 0,171.365102 0,165.545073 C0,149.174433 10.2471582,133.484243 22.553901,127.334847 L22.553901,115.057771 C17.0858491,117.106363 10.9324777,122.568069 6.83143882,128.022537 C3.02410827,133.093345 0,132.040094 0,125.977564 C0,109.596065 10.2471582,93.9058753 22.553901,87.7637181 C22.553901,62.5218767 32.8010592,53.6542955 49.2088409,44.7830948 C25.6251476,40.7076269 4.43463359,13.4208127 1.98706395,0 C9.5582127,3.86916095 23.2319684,5.193869 33.4863787,5.21558552 L33.4863787,5.21558552 Z"></path>
            </g>
        </g>
    </g>
</svg>
