<?xml version="1.0" encoding="UTF-8" standalone="no"?>
<svg width="512px" height="512px" viewBox="0 0 512 512" version="1.1" xmlns="http://www.w3.org/2000/svg" xmlns:xlink="http://www.w3.org/1999/xlink">
    <!-- Generator: Sketch 39.1 (31720) - http://www.bohemiancoding.com/sketch -->
    <title>kansas-city-royals-2</title>
    <desc>Created with Sketch.</desc>
    <defs></defs>
    <g id="MLB" stroke="none" stroke-width="1" fill="none" fill-rule="evenodd">
        <g id="kansas-city-royals-2" fill="#FFFFFF">
            <g id="kc2" transform="translate(105.000000, 115.000000)">
                <g id="KC">
                    <g id="Group">
                        <g id="Group-2">
                            <path d="M3.5390625,10.6125 L0,10.6125 L0,0 L40.8171875,0 L70.78125,0 L70.78125,10.6125 C60.6359375,11.5558333 50.2546875,18.395 50.2546875,36.79 L50.2546875,98.8141667 L55.209375,95.7483333 C65.3546875,79.7116667 92.2515625,37.4975 97.678125,25.47 C104.520312,10.6125 94.1390625,10.6125 83.99375,10.6125 L83.99375,0 L146.753125,0 L146.753125,10.3766667 L142.270313,10.3766667 C135.428125,10.3766667 126.934375,10.3766667 115.609375,25.7058333 C101.453125,45.5158333 72.9046875,93.39 72.9046875,93.39 C116.789062,96.9275 133.304687,163.668333 144.629687,172.63 C138.023437,125.2275 169.875,65.7975 216.590625,67.92 C221.78125,68.1558333 228.151562,67.4483333 243.251562,71.9291667 C258.115625,76.41 259.53125,68.3916667 261.41875,59.1941667 L272.507812,59.1941667 L272.507812,137.726667 L262.834375,137.726667 C262.126562,124.048333 255.992187,79.24 216.590625,77.825 C176.717187,76.41 169.167188,127.585833 168.459375,162.725 C166.571875,291.961667 247.734375,287.9525 262.598437,246.21 C264.721875,240.078333 263.778125,238.4275 261.41875,237.248333 C243.723437,227.815 264.25,202.345 275.575,224.513333 C280.765625,234.654167 271.564062,283 222.725,283 C147.225,283 125.046875,166.026667 96.9703125,127.821667 C75.028125,98.1066667 57.096875,111.549167 50.490625,118.86 L50.01875,139.141667 L50.2546875,175.46 C50.2546875,195.505833 62.2875,201.873333 73.140625,201.6375 L76.6796875,201.873333 L76.6796875,212.25 L38.4578125,212.25 L0,212.25 L0,201.873333 L3.5390625,201.6375 C14.3921875,201.873333 26.425,195.27 26.425,175.46 L26.425,36.79 C26.425,16.7441667 14.3921875,10.3766667 3.5390625,10.6125 Z" id="Shape"></path>
                            <path d="M283.596875,270.265 L279.585937,270.265 L279.585937,281.349167 L276.754687,281.349167 L276.754687,270.265 L272.74375,270.265 L272.74375,267.906667 L283.596875,267.906667 L283.596875,270.265 L283.596875,270.265 Z M302,281.349167 L299.16875,281.349167 L299.16875,270.736667 L299.16875,270.736667 L295.39375,281.349167 L292.5625,281.349167 L288.7875,270.736667 L288.7875,270.736667 L288.7875,281.349167 L285.95625,281.349167 L285.95625,267.906667 L290.675,267.906667 L293.742187,276.6325 L293.742187,276.6325 L297.045312,267.906667 L301.764062,267.906667 L301.764062,281.349167 L302,281.349167 Z" id="Shape"></path>
                        </g>
                    </g>
                </g>
            </g>
        </g>
    </g>
</svg>
