<?xml version="1.0" encoding="UTF-8" standalone="no"?>
<svg width="512px" height="512px" viewBox="0 0 512 512" version="1.1" xmlns="http://www.w3.org/2000/svg" xmlns:xlink="http://www.w3.org/1999/xlink">
    <!-- Generator: Sketch 39.1 (31720) - http://www.bohemiancoding.com/sketch -->
    <title>los-angeles-dodgers-2</title>
    <desc>Created with Sketch.</desc>
    <defs></defs>
    <g id="MLB" stroke="none" stroke-width="1" fill="none" fill-rule="evenodd">
        <g id="los-angeles-dodgers-2" fill="#FFFFFF">
            <g id="la2" transform="translate(136.000000, 100.000000)">
                <g id="Page-1">
                    <g id="MLB_Logo_Los_Angeles_Dodgers">
                        <g id="Imported-Layers">
                            <path d="M227.414118,304.24605 L224.768824,304.24605 L224.768824,311.495243 L222.979412,311.495243 L222.979412,304.24605 L220.330588,304.24605 L220.330588,302.677314 L227.414118,302.677314 L227.414118,304.24605 L227.414118,304.24605 L227.414118,304.24605 Z M239.410588,311.495243 L237.621176,311.495243 L237.621176,304.480295 L237.587647,304.480295 L235.046471,311.495243 L233.317059,311.495243 L230.85,304.480295 L230.814706,304.480295 L230.814706,311.495243 L229.011176,311.495243 L229.011176,302.677314 L232.124118,302.677314 L234.164118,308.439402 L234.202941,308.439402 L236.334706,302.677314 L239.410588,302.677314 L239.410588,311.495243 L239.410588,311.495243 L239.410588,311.495243 Z" id="Fill-1"></path>
                            <path d="M184.951765,204.854913 L170.841176,204.865561 C170.186471,202.104302 140.235882,76.1635513 140.235882,76.1635513 L95.3241176,76.1635513 C95.3241176,76.1635513 65.4194118,202.104302 64.7505882,204.865561 L54.1129412,204.865561 L54.1129412,30.3099666 L77.5941176,30.3099666 L77.5941176,0 L1.20352941,0.198753879 L1.20352941,30.3099666 L23.3364706,30.3099666 L23.3364706,206.37751 L0,206.37751 L0,236.944792 L57.1305882,236.944792 C56.1758824,240.926968 47.3523529,278.031833 46.7682353,280.534002 L23.5517647,280.534002 L23.5517647,312.694864 L102.873529,312.551123 L102.873529,280.534002 L80.5394118,280.534002 C81.3970588,276.587318 89.8623529,239.510847 90.4235294,236.944792 L145.147059,236.944792 C145.764706,239.510847 154.198235,276.587318 155.066471,280.534002 L132.707647,280.534002 L132.707647,312.551123 L212.043529,312.694864 L212.018824,280.534002 L188.814706,280.534002 C188.241176,278.031833 179.405294,240.926968 178.475294,236.944792 L216.885882,236.944792 L216.885882,172.850215 L184.951765,172.850215 L184.951765,204.854913 Z M97.7082353,204.865561 C98.6647059,200.849668 115.489412,126.97711 117.78,116.815818 C120.116471,126.97711 136.928824,200.849668 137.834118,204.865561 L97.7082353,204.865561 L97.7082353,204.865561 L97.7082353,204.865561 Z" id="Fill-2"></path>
                        </g>
                    </g>
                </g>
            </g>
        </g>
    </g>
</svg>
