<?xml version="1.0" encoding="UTF-8" standalone="no"?>
<svg width="512px" height="512px" viewBox="0 0 512 512" version="1.1" xmlns="http://www.w3.org/2000/svg" xmlns:xlink="http://www.w3.org/1999/xlink">
    <!-- Generator: Sketch 39.1 (31720) - http://www.bohemiancoding.com/sketch -->
    <title>milwaukee-brewers-3</title>
    <desc>Created with Sketch.</desc>
    <defs></defs>
    <g id="MLB" stroke="none" stroke-width="1" fill="none" fill-rule="evenodd">
        <g id="milwaukee-brewers-3">
            <g id="Group" transform="translate(83.000000, 69.000000)">
                <g id="Layer_2">
                    <path d="M309.419084,268.264198 L305.391221,268.264198 L305.391221,279.279718 L302.683969,279.279718 L302.683969,268.264198 L298.656107,268.264198 L298.656107,265.889594 L309.485115,265.889594 L309.485115,268.264198 L309.419084,268.264198 Z M327.775573,279.279718 L325.068321,279.279718 L325.068321,268.594004 L325.00229,268.594004 L321.106489,279.279718 L318.465267,279.279718 L314.701527,268.594004 L314.635496,268.594004 L314.635496,279.279718 L311.862214,279.279718 L311.862214,265.889594 L316.616412,265.889594 L319.719847,274.662434 L319.785878,274.662434 L323.021374,265.889594 L327.709542,265.889594 L327.709542,279.279718 L327.775573,279.279718 Z" id="Shape" fill="#FFFFFF"></path>
                    <g id="Group">
                        <path d="M72.3034351,330.663492 C67.0209924,333.235979 61.7385496,335.940388 56.5881679,338.77672 L76.4633588,344.383422 C81.4156489,341.942857 86.4339695,339.634215 91.5183206,337.391534 L72.3034351,330.663492 L72.3034351,330.663492 Z" id="Shape" fill="#B6922E"></path>
                        <g id="Shape">
                            <path d="M118.65687,311.996473 L137.21145,321.165079 C142.559924,319.647972 147.908397,318.328748 153.322901,317.075485 L135.626718,306.983422 C129.882061,308.500529 124.269466,310.21552 118.65687,311.996473 L118.65687,311.996473 Z" fill="#B6922E"></path>
                            <path d="M162.303053,300.717108 L179.603053,312.062434 C185.083588,311.204938 190.564122,310.545326 196.110687,309.951675 L179.801145,297.748854 C173.924427,298.606349 168.11374,299.595767 162.303053,300.717108 L162.303053,300.717108 Z" fill="#B6922E"></path>
                            <path d="M161.510687,297.287125 C167.387405,296.165785 173.264122,295.176367 179.272901,294.25291 L191.092366,278.554145 C184.753435,279.213757 178.480534,280.071252 172.273664,281.06067 L161.510687,297.287125 L161.510687,297.287125 Z" fill="#B6922E"></path>
                            <path d="M76.7274809,328.618695 L96.2725191,335.412698 C101.35687,333.30194 106.507252,331.257143 111.723664,329.344268 L92.9049618,321.494885 C87.4244275,323.737566 82.0099237,326.112169 76.7274809,328.618695 L76.7274809,328.618695 Z" fill="#B6922E"></path>
                            <path d="M97.3950382,319.647972 L116.477863,327.629277 C121.694275,325.782363 126.976718,324.133333 132.325191,322.550265 L114.034733,313.51358 C108.422137,315.426455 102.875573,317.471252 97.3950382,319.647972 L97.3950382,319.647972 Z" fill="#B6922E"></path>
                            <path d="M139.324427,302.300176 C145.069084,300.783069 150.945802,299.463845 156.822519,298.210582 L167.585496,281.852205 C161.312595,282.907584 155.105725,284.160847 148.964885,285.480071 L139.324427,302.300176 L139.324427,302.300176 Z" fill="#B6922E"></path>
                            <path d="M140.248855,305.730159 L158.20916,316.020106 C163.623664,314.832804 169.104198,313.843386 174.584733,312.919929 L157.482824,301.706526 C151.738168,302.893827 145.993511,304.213051 140.248855,305.730159 L140.248855,305.730159 Z" fill="#B6922E"></path>
                            <path d="M195.648473,278.092416 L184.027099,293.593298 C189.969847,292.801764 195.912595,292.208113 201.921374,291.680423 L214.665267,276.707231 C210.703435,276.905115 206.675573,277.102998 202.71374,277.432804 C200.270611,277.630688 197.959542,277.894533 195.648473,278.092416 L195.648473,278.092416 Z" fill="#B6922E"></path>
                            <path d="M184.555344,297.089242 L201.129008,309.489947 C202.449618,309.358025 203.770229,309.226102 205.09084,309.160141 C209.316794,308.830335 213.476718,308.632451 217.702672,308.434568 L202.185496,295.242328 C196.242748,295.704056 190.432061,296.363668 184.555344,297.089242 L184.555344,297.089242 Z" fill="#B6922E"></path>
                            <path d="M117.40229,308.698413 C123.080916,306.851499 128.825573,305.136508 134.63626,303.553439 L144.408779,286.469489 C138.201908,287.920635 132.061069,289.503704 125.98626,291.284656 L117.40229,308.698413 L117.40229,308.698413 Z" fill="#B6922E"></path>
                            <path d="M242.2,292.274074 L239.294656,293.989065 C268.282061,294.450794 296.873282,297.287125 324.209924,303.751323 L324.275954,303.355556 C296.939313,295.90194 268.546183,290.888889 239.162595,290.42716 L242.2,292.274074 L242.2,292.274074 Z" fill="#B6922E"></path>
                            <path d="M59.9557252,317.075485 L54.6732824,335.742504 C59.9557252,332.840212 65.2381679,330.135802 70.6526718,327.497354 L77.1236641,308.962257 C71.3790076,311.534744 65.6343511,314.239153 59.9557252,317.075485 L59.9557252,317.075485 Z" fill="#B6922E"></path>
                            <path d="M95.9423664,316.415873 C101.488931,314.239153 107.167557,312.128395 112.846183,310.21552 L121.562214,292.60388 C115.487405,294.450794 109.412595,296.42963 103.469847,298.540388 L95.9423664,316.415873 L95.9423664,316.415873 Z" fill="#B6922E"></path>
                            <path d="M99.1118321,300.057496 C93.169084,302.234215 87.2263359,304.608818 81.4156489,307.049383 L75.010687,325.386596 C80.4251908,322.814109 85.9057252,320.439506 91.4522901,318.130864 L99.1118321,300.057496 L99.1118321,300.057496 Z" fill="#B6922E"></path>
                            <path d="M218.69313,304.806702 L222.787023,308.170723 C249.991603,307.379189 276.932061,308.56649 302.683969,313.315697 L302.75,312.985891 C275.61145,307.115344 247.614504,303.6194 218.69313,304.806702 L218.69313,304.806702 Z" fill="#B6922E"></path>
                            <polygon fill="#B6922E" points="235.266794 292.142152 214.665267 281.786243 204.958779 293.197531 216.778244 303.157672"></polygon>
                            <path d="M90.3958015,280.335097 C65.5022901,288.778131 37.2412214,303.487478 21.3278626,312.985891 L29.9778626,321.626808 C48.3343511,310.809171 73.9541985,297.353086 98.9137405,289.173898 L126.778626,187.52769 L123.939313,157.515344 L90.3958015,280.335097 L90.3958015,280.335097 Z" fill="#B6922E"></path>
                            <path d="M37.3072519,126.909347 C37.3072519,104.020811 55.5316794,84.2984127 78.7744275,82.1216931 C86.1698473,81.3961199 93.4332061,82.5174603 100.10229,85.2218695 L81.4156489,89.8391534 L104.130153,84.2324515 C94.8198473,76.2511464 82.6041985,72.2934744 70.1244275,73.480776 C46.8816794,75.6574956 28.6572519,95.313933 28.6572519,118.26843 C28.6572519,124.600705 30.9022901,130.669136 34.7980916,135.484303 C36.3828244,134.75873 38.0335878,134.297002 39.7503817,133.901235 C39.2881679,134.033157 38.7599237,134.099118 38.2977099,134.231041 C37.6374046,131.790476 37.3072519,129.349912 37.3072519,126.909347 L37.3072519,126.909347 Z" fill="#B6922E"></path>
                            <path d="M77.0576336,151.446914 C78.4442748,146.433862 80.4912214,139.046208 82.4721374,131.790476 L77.0576336,151.446914 L77.0576336,151.446914 L77.0576336,151.446914 Z" fill="#B6922E"></path>
                            <path d="M46.6175573,190.891711 C36.9770992,190.891711 26.7423664,186.208466 18.5545802,177.963316 C20.0072519,179.414462 25.7519084,185.219048 27.2045802,186.670194 C35.4583969,194.849383 45.6270992,199.598589 55.2675573,199.598589 C58.3709924,199.598589 61.4083969,199.070899 64.2477099,198.147443 L69.2,180.140035 C63.8515267,186.670194 55.729771,190.891711 46.6175573,190.891711 L46.6175573,190.891711 Z" fill="#B6922E"></path>
                            <path d="M280.893893,275.256085 C261.877099,279.741446 244.907252,275.453968 233.153817,263.251146 C234.80458,264.966138 240.615267,270.638801 241.803817,271.892063 C243.586641,273.738977 245.567557,275.388007 247.614504,276.905115 C238.238168,276.377425 228.795802,276.245503 219.221374,276.575309 L216.183969,280.203175 C228.399618,279.675485 240.483206,279.675485 252.500763,280.071252 C262.933588,285.809877 275.677481,287.261023 289.609924,283.962963 L292.449237,283.303351 C297.731679,284.028924 303.014122,284.688536 308.230534,285.677954 L308.296565,285.414109 C303.608397,284.424691 298.920229,283.501235 294.232061,282.643739 L293.637786,273.673016 L284.987786,265.032099 L285.582061,274.266667 L280.893893,275.256085 L280.893893,275.256085 Z" fill="#B6922E"></path>
                            <path d="M336.425573,0.131922399 L333.916412,9.1686067 C331.011069,19.524515 325.530534,23.4821869 321.502672,26.3185185 C318.597328,28.3633157 317.012595,29.5506173 316.088168,32.6507937 L264.782443,216.748501 C261.414885,228.357672 262.207252,246.562963 269.33855,257.182716 C271.385496,260.216931 273.828626,262.261728 276.601908,263.44903 C270.857252,252.697354 270.395038,236.207055 273.498473,225.455379 L324.804198,41.2917108 C325.728626,38.1915344 327.313359,37.070194 330.218702,34.9594356 C334.246565,32.1231041 339.727099,28.1654321 342.632443,17.8095238 L345.141603,8.77283951 L336.425573,0.131922399 L336.425573,0.131922399 Z" fill="#B6922E"></path>
                            <path d="M167.849618,261.206349 C156.88855,262.591534 142.890076,265.164021 134.306107,267.472663 L143.154198,276.11358 C150.615649,274.134744 167.519466,271.034568 176.565649,269.847266 L225.098092,184.889242 C225.758397,183.042328 230.314504,166.156261 237.908015,138.58448 L167.849618,261.206349 L167.849618,261.206349 Z" fill="#B6922E"></path>
                            <path d="M174.386641,187.989418 L181.121756,176.182363 C178.942748,153.161905 176.565649,128.16261 176.565649,128.16261 C174.584733,107.186949 166.661069,89.3114638 153.520992,75.9873016 C152.00229,74.4042328 145.663359,68.1379189 144.012595,66.4888889 C157.680916,79.8790123 165.934733,98.0843034 167.915649,119.521693 C167.849618,119.587654 172.009542,162.924162 174.386641,187.989418 L174.386641,187.989418 Z" fill="#B6922E"></path>
                            <path d="M269.33855,257.182716 C262.207252,246.562963 261.414885,228.357672 264.782443,216.748501 L316.088168,32.5848325 C317.012595,29.4846561 318.597328,28.3633157 321.502672,26.2525573 C325.530534,23.4162257 331.011069,19.4585538 333.916412,9.1026455 L336.425573,0.0659611993 L272.706107,15.6987654 L174.386641,187.989418 C172.009542,162.924162 167.915649,119.587654 167.915649,119.587654 C165.868702,98.1502646 157.680916,79.9449735 144.012595,66.5548501 C142.031679,64.5760141 139.918702,62.7291005 137.739695,61.0141093 C121.298092,48.0197531 99.6400763,42.0832451 76.859542,44.2599647 C56.1259542,46.2388007 36.7790076,56.0010582 22.4503817,71.831746 C8.18778626,87.5305115 0.330152672,107.582716 0.330152672,128.16261 C0.330152672,148.544621 6.86717557,166.222222 18.6206107,178.029277 C26.8744275,186.208466 37.1091603,190.957672 46.6835878,190.957672 C55.7958015,190.957672 63.9175573,186.736155 69.2660305,180.140035 L46.089313,264.504409 C45.1648855,267.538624 43.25,275.322046 39.8824427,277.564727 C37.439313,279.213757 33.8076336,282.445855 30.770229,286.997178 C30.6381679,287.129101 30.5721374,287.326984 30.4400763,287.458907 C29.779771,288.514286 29.0534351,289.569665 28.4591603,290.756966 C27.5347328,292.669841 26.6103053,294.648677 25.95,296.957319 L21.4599237,313.051852 C37.3072519,303.553439 65.5683206,288.844092 90.5278626,280.401058 L124.071374,157.515344 L126.910687,187.52769 L134.372137,267.472663 C143.022137,265.164021 156.95458,262.591534 167.915649,261.206349 L237.908015,138.58448 C230.248473,166.156261 221.598473,197.421869 220.674046,200.588007 C220.608015,200.785891 220.608015,200.917813 220.608015,200.917813 C214.070992,223.938272 219.023282,248.409877 233.219847,263.251146 C244.973282,275.519929 261.94313,279.741446 280.959924,275.256085 L285.582061,274.134744 L284.987786,264.900176 L280.233588,264.372487 C279.045038,264.240564 277.922519,263.97672 276.866031,263.514991 C276.8,263.44903 276.733969,263.44903 276.601908,263.383069 C273.828626,262.261728 271.385496,260.216931 269.33855,257.182716 L269.33855,257.182716 Z M279.639313,269.913228 C235.134733,280.401058 215.853817,237.724162 225.890458,202.434921 L255.009924,97.4906526 L164.416031,256.127337 C154.51145,257.446561 143.682443,259.755203 139.192366,260.67866 L126.580534,126.909347 L85.8396947,276.047619 C65.9645038,283.23739 46.089313,292.60388 30.3080153,301.37672 C36.448855,278.883951 45.098855,287.788713 50.051145,269.913228 L93.9614504,110.814815 C96.9328244,99.8652557 82.2740458,107.055026 85.7736641,94.324515 L114.629008,87.2666667 C104.196183,74.0744268 87.5564885,66.2250441 69.5301527,67.9400353 C43.1839695,70.3805996 23.110687,92.345679 23.110687,118.202469 C23.110687,127.766843 27.2045802,136.341799 33.6755725,142.278307 C37.3732824,139.837743 41.7973282,138.452557 46.5515267,138.452557 C59.4935115,138.452557 70.0583969,148.940388 70.0583969,161.934744 C70.0583969,174.929101 59.559542,185.416931 46.5515267,185.416931 C29.2515267,185.416931 5.67862595,166.420106 5.67862595,128.16261 C5.67862595,88.5858907 36.9110687,53.5604938 77.1896947,49.7347443 C120.175573,45.7111111 157.746947,71.9636684 162.303053,120.115344 L170.424809,205.864903 L276.205725,20.4479718 L328.501908,7.65149912 C324.209924,23.152381 313.90916,20.1181658 310.739695,31.0017637 L259.5,215.297354 C253.821374,234.821869 259.103817,267.736508 279.639313,269.913228 L279.639313,269.913228 Z M87.8866412,108.572134 C88.1507634,108.704056 88.4148855,108.770018 88.7450382,108.90194 C88.6790076,109.033862 85.6416031,120.181305 82.4721374,131.790476 C80.4912214,139.046208 78.4442748,146.433862 77.0576336,151.446914 C76.001145,155.206702 75.3408397,157.779189 75.3408397,157.779189 C74.4164122,151.644797 71.6431298,145.906173 67.1530534,141.420811 C61.6725191,135.946032 54.4091603,132.911817 46.6175573,132.911817 C44.8347328,132.911817 43.0519084,133.175661 41.269084,133.505467 C40.7408397,133.571429 40.278626,133.703351 39.7503817,133.835273 C38.0996183,134.231041 36.3828244,134.75873 34.7980916,135.418342 C30.8362595,130.603175 28.6572519,124.534744 28.6572519,118.202469 C28.6572519,95.313933 46.8816794,75.5915344 70.1244275,73.4148148 C82.6041985,72.2275132 94.7538168,76.1851852 104.130153,84.1664903 L81.4156489,89.7731922 L80.5572519,92.8733686 C77.3217557,104.218695 85.0473282,107.384832 87.8866412,108.572134 L87.8866412,108.572134 Z" fill="#0A2351"></path>
                            <path d="M310.871756,31.0677249 C314.041221,20.184127 324.408015,23.2183422 328.633969,7.71746032 L276.337786,20.513933 L170.49084,205.864903 L162.369084,120.115344 C157.812977,71.9636684 120.241603,45.7111111 77.2557252,49.7347443 C36.9770992,53.4945326 5.74465649,88.5858907 5.74465649,128.16261 C5.74465649,166.420106 29.3175573,185.416931 46.6175573,185.416931 C59.559542,185.416931 70.1244275,174.929101 70.1244275,161.934744 C70.1244275,148.940388 59.6255725,138.452557 46.6175573,138.452557 C41.8633588,138.452557 37.439313,139.903704 33.7416031,142.278307 C27.2045802,136.341799 23.1767176,127.766843 23.1767176,118.202469 C23.1767176,92.345679 43.3160305,70.4465608 69.5961832,67.9400353 C87.5564885,66.2250441 104.262214,74.0744268 114.695038,87.2666667 L85.8396947,94.324515 C82.3400763,107.055026 96.998855,99.9312169 94.0274809,110.814815 L50.1171756,269.913228 C45.1648855,287.788713 36.5148855,278.883951 30.3740458,301.37672 C46.1553435,292.60388 66.0305344,283.23739 85.9057252,276.047619 L126.712595,126.843386 L139.324427,260.612698 C143.814504,259.689242 154.577481,257.3806 164.548092,256.061376 L255.075954,97.4246914 L225.956489,202.368959 C215.919847,237.658201 235.200763,280.335097 279.705344,269.847266 C259.103817,267.736508 253.821374,234.821869 259.5,215.297354 L310.871756,31.0677249 Z" fill="#FFFFFF"></path>
                        </g>
                        <path d="M4.68816794,373.208466 C19.6770992,361.33545 35.590458,350.583774 52.3622137,341.151323 L50.5133588,338.117108 C33.609542,347.61552 17.6301527,358.433157 2.57519084,370.372134 L4.68816794,373.208466 L4.68816794,373.208466 Z" id="Shape" fill="#B6922E"></path>
                    </g>
                </g>
            </g>
        </g>
    </g>
</svg>