<?xml version="1.0" encoding="UTF-8" standalone="no"?>
<svg width="512px" height="512px" viewBox="0 0 512 512" version="1.1" xmlns="http://www.w3.org/2000/svg" xmlns:xlink="http://www.w3.org/1999/xlink">
    <!-- Generator: Sketch 39.1 (31720) - http://www.bohemiancoding.com/sketch -->
    <title>minnesota-twins-2</title>
    <desc>Created with Sketch.</desc>
    <defs></defs>
    <g id="MLB" stroke="none" stroke-width="1" fill="none" fill-rule="evenodd">
        <g id="minnesota-twins-2">
            <g id="min2" transform="translate(103.000000, 106.000000)">
                <g id="Group">
                    <path d="M146.282927,214.214876 C153.995122,215.206612 161.956098,215.950413 170.165854,215.702479 C173.15122,215.702479 175.887805,215.454545 178.873171,215.206612 L179.619512,30 C206.487805,30.7438017 234.84878,33.9669421 260.22439,41.1570248 C262.214634,52.0661157 277.887805,73.1404959 294.556098,75.3719008 C294.556098,75.3719008 288.087805,35.7024793 289.829268,15.3719008 C253.258537,5.20661157 134.839024,-7.43801653 35.5756098,14.1322314 C35.5756098,14.1322314 35.3268293,64.7107438 28.3609756,74.8760331 C28.3609756,74.8760331 60.9512195,66.446281 68.4146341,37.4380165 C68.4146341,37.4380165 103.243902,31.2396694 148.273171,30 L147.77561,94.214876 L147.77561,96.6942149 L146.282927,214.214876 L146.282927,214.214876 Z" id="Shape" fill="#FFFFFF"></path>
                    <path d="M145.785366,255.619835 L145.785366,269.008264 L127.126829,300 L202.009756,298.512397 L178.62439,270.247934 L178.62439,256.363636 C175.639024,256.61157 172.653659,256.859504 169.668293,256.859504 C161.209756,257.107438 153.497561,256.61157 145.785366,255.619835 L145.785366,255.619835 Z" id="Shape" fill="#FFFFFF"></path>
                    <polygon id="Shape" fill="#FFFFFF" points="211.463415 267.024793 209.721951 271.487603 209.721951 271.487603 206.985366 263.801653 202.756098 263.801653 202.756098 275.454545 205.243902 275.454545 205.243902 266.280992 205.243902 266.280992 208.478049 275.454545 210.965854 275.454545 211.463415 274.214876 214.2 266.280992 214.44878 266.280992 214.44878 275.454545 216.687805 275.454545 216.687805 263.801653 212.707317 263.801653"></polygon>
                    <polygon id="Shape" fill="#FFFFFF" points="197.034146 275.454545 197.034146 265.785124 200.765854 265.785124 200.765854 263.801653 191.312195 263.801653 191.312195 265.785124 194.795122 265.785124 194.795122 275.454545"></polygon>
                    <path d="M179.370732,53.8016529 L179.121951,95.2066116 C221.912195,97.6859504 256.243902,118.264463 262.712195,145.041322 L304.756098,144.297521 C298.536585,95.7024793 245.297561,57.5206612 179.370732,53.8016529 L179.370732,53.8016529 Z" id="Shape" fill="#D31145"></path>
                    <path d="M178.62439,215.454545 C175.639024,215.702479 172.902439,215.950413 169.917073,215.950413 C161.707317,216.198347 153.746341,215.454545 146.034146,214.46281 C104.985366,208.512397 74.3853659,185.454545 73.8878049,157.438017 C73.3902439,128.677686 104.736585,103.884298 147.278049,96.9421488 L147.278049,94.4628099 L147.77561,57.0247934 C113.195122,61.7355372 80.604878,79.338843 58.9609756,101.652893 C41.0487805,123.22314 11.9414634,151.735537 0,156.198347 C0,156.198347 45.0292683,193.140496 53.9853659,207.520661 C73.1414634,231.570248 104.736585,250.909091 145.785366,255.619835 C153.497561,256.61157 161.209756,256.859504 169.419512,256.859504 C172.404878,256.859504 175.390244,256.61157 178.37561,256.363636 C240.321951,252.14876 290.57561,217.933884 302.517073,174.049587 L257.985366,174.793388 C246.043902,196.363636 215.692683,212.479339 178.62439,215.454545 L178.62439,215.454545 Z" id="Shape" fill="#D31145"></path>
                </g>
            </g>
        </g>
    </g>
</svg>
