<?xml version="1.0" encoding="UTF-8" standalone="no"?>
<svg width="512px" height="512px" viewBox="0 0 512 512" version="1.1" xmlns="http://www.w3.org/2000/svg" xmlns:xlink="http://www.w3.org/1999/xlink">
    <!-- Generator: Sketch 39.1 (31720) - http://www.bohemiancoding.com/sketch -->
    <title>new-york-mets-2</title>
    <desc>Created with Sketch.</desc>
    <defs></defs>
    <g id="MLB" stroke="none" stroke-width="1" fill="none" fill-rule="evenodd">
        <g id="new-york-mets-2" fill="#FF5910">
            <g id="nym2" transform="translate(130.000000, 88.000000)">
                <g id="Group">
                    <path d="M167.9592,133.028 L167.9592,164.8122 L153.1066,146.7816 C157.5684,141.5806 162.5678,136.8724 167.9592,133.028 L167.9592,133.028 Z M115,165.795 C100.202,126.7882 76.8402,109.3918 61.0132,101.374 L61.0132,77.9674 L121.1026,151.7782 C118.9382,156.1042 116.9026,160.7746 115,165.795 L115,165.795 Z M198.125,208.992 L198.125,125.3602 C211.1828,130.7138 214.4868,150.3348 204.2486,159.796 C204.2486,159.796 229.9078,157.143 229.9078,130.6102 C229.9078,109.6816 212.9328,97.5898 198.125,94.724 L198.125,36.0948 C198.2342,29.3566 215.5144,21.0826 222.9302,34.8698 C235.5736,18.354 217.3526,-14.294 183.0316,6.9692 C148.7428,-14.294 130.5204,18.354 143.175,34.8698 C150.5908,21.0826 167.85,29.3566 167.9592,36.0948 L167.9592,101.8948 C158.946,106.5974 147.6816,114.3366 136.9618,127.2096 L61.1224,35.2576 C62.5546,28.7 78.7106,21.6398 85.8086,34.8698 C98.4632,18.354 80.252,-14.294 45.9408,6.9692 C11.6198,-14.294 -6.5914,18.354 6.0632,34.8698 C13.479,21.0826 30.7494,29.3566 30.8586,36.0948 L30.8586,94.927 C16.3112,98.1316 0.0908,110.1632 0.0908,130.6102 C0.0908,157.1444 25.75,159.796 25.75,159.796 C15.7638,150.5868 18.6408,131.747 30.8572,125.8194 L30.8572,208.992 C30.748,215.7302 13.4776,224.0098 6.0618,210.2282 C-6.5928,226.7328 11.6184,259.3808 45.9394,238.119 C80.2506,259.3822 98.4618,226.7328 85.8072,210.2282 C78.3914,224.0098 61.1322,215.7302 61.0118,208.992 L61.0118,132.3112 C82.7888,147.147 98.0348,176.6128 99.8618,193.7026 L99.8618,290.6302 C99.8618,306.3256 82.471,317.6222 75.0776,303.8434 C62.4118,320.3578 80.623,349.8348 114.944,328.5716 C149.244,349.8348 167.4552,320.3578 154.8006,303.8434 C147.396,317.6236 130.0164,305.025 130.0164,290.6302 L130.0164,195.0914 C130.4322,188.6934 132.948,180.271 137.1144,171.4622 L167.9368,209.3434 C167.2802,216.0046 150.469,223.7914 143.1736,210.2296 C130.519,226.7342 148.7414,259.3822 183.0302,238.1204 C217.3512,259.3836 235.5722,226.7342 222.9288,210.2296 C215.5144,224.0098 198.2342,215.7302 198.125,208.992 L198.125,208.992 Z" id="Shape"></path>
                    <path d="M251.8402,212.2764 L250.219,212.2764 L250.219,206.0072 L250.1924,206.0072 L247.9076,212.2764 L246.3494,212.2764 L244.1304,206.0072 L244.1038,206.0072 L244.1038,212.2764 L242.4952,212.2764 L242.4952,204.3986 L245.2854,204.3986 L247.1026,209.552 L247.1544,209.552 L249.05,204.3986 L251.8402,204.3986 L251.8402,212.2764 Z M241.042,205.8 L238.6662,205.8 L238.6662,212.2764 L237.0576,212.2764 L237.0576,205.8 L234.6832,205.8 L234.6832,204.3986 L241.0434,204.3986 L241.0434,205.8 L241.042,205.8 Z" id="Shape"></path>
                </g>
            </g>
        </g>
    </g>
</svg>