<?xml version="1.0" encoding="UTF-8" standalone="no"?>
<svg width="512px" height="512px" viewBox="0 0 512 512" version="1.1" xmlns="http://www.w3.org/2000/svg" xmlns:xlink="http://www.w3.org/1999/xlink">
    <!-- Generator: Sketch 39.1 (31720) - http://www.bohemiancoding.com/sketch -->
    <title>new-york-yankees-2</title>
    <desc>Created with Sketch.</desc>
    <defs></defs>
    <g id="MLB" stroke="none" stroke-width="1" fill="none" fill-rule="evenodd">
        <g id="new-york-yankees-2" stroke="#FFFFFF" stroke-width="1.27174382" fill="#FFFFFF">
            <g id="Capa_x0020_1" transform="translate(105.000000, 82.000000)">
                <path d="M0.391385831,92.9553559 C5.21586881,93.1362926 30.6777793,65.5925342 34.412762,62.7764666 C61.6361341,100.141335 62.3905878,113.074819 125.143797,169.838427 C121.366094,143.970767 76.5557566,67.2161376 53.3169563,43.373777 C64.659676,31.8780347 88.314553,8.80335193 94.8974108,0.980661494 C101.870147,21.0963781 126.651973,99.4202449 152.361401,146.843929 L152.361401,146.843929 C172.017816,109.47906 206.356326,14.6283126 206.040329,0.261078063 C217.277445,10.6914134 234.476513,33.2882471 246.870188,44.0937677 C222.671495,62.7754893 181.089538,148.281059 165.965127,188.520719 C161.582674,200.192101 165.212082,207.20244 165.212082,207.20244 C178.766905,217.632776 224.185387,260.37424 232.503671,268.278662 C215.874291,160.498747 250.652558,88.6438417 274.846093,62.7758965 C278.723144,66.8743863 290.428701,76.6959875 302.821522,89.3620405 C289.970342,106.606346 264.552541,151.647342 263.506257,198.580715 C261.992488,266.123414 273.332311,295.584389 291.477869,322.169882 C283.361896,332.145458 277.281831,331.490992 265.774533,345.164217 C247.567076,328.403502 178.169759,265.616651 165.967714,254.62702 L165.967714,254.62702 L168.240766,305.643327 C168.820069,308.621563 169.471365,335.375643 181.091947,348.040107 C155.564725,348.073311 150.660593,348.075717 125.14255,348.757117 C133.663633,337.207986 136.289416,312.031322 136.48527,304.208509 L135.725987,223.011643 C125.653227,213.326262 75.8883605,168.02032 71.4627734,163.371738 L71.4627734,163.371738 C76.7518293,190.677302 77.5125786,275.465488 39.7110541,339.418822 C36.6086428,334.944984 5.04460476,297.308734 5.68244819,296.304087 C17.3016046,278.04874 37.8036975,236.952911 38.1924798,198.582458 C38.9013699,128.513276 11.6233196,110.089985 0.390995912,92.9539632 L0.391385831,92.9553559 Z" id="Shape"></path>
            </g>
        </g>
    </g>
</svg>
