<?xml version="1.0" encoding="UTF-8" standalone="no"?>
<svg width="512px" height="512px" viewBox="0 0 512 512" version="1.1" xmlns="http://www.w3.org/2000/svg" xmlns:xlink="http://www.w3.org/1999/xlink">
    <!-- Generator: Sketch 39.1 (31720) - http://www.bohemiancoding.com/sketch -->
    <title>oakland-athletics-2</title>
    <desc>Created with Sketch.</desc>
    <defs></defs>
    <g id="MLB" stroke="none" stroke-width="1" fill="none" fill-rule="evenodd">
        <g id="oakland-athletics-2" fill="#EFB21E">
            <g id="oak2" transform="translate(74.000000, 104.000000)">
                <g id="Group">
                    <path d="M295.5,220.75 C257.75,262 245.75,245.75 239.25,226.25 L177.5,41.5 C171.75,24.5 161.25,10 143.5,4.25 C116.25,-2.75 86.5,10 76.5,54.25 C86.5,40.25 104.5,28 121,38 C135.25,46.5 135.5,56 129.75,73 L129.75,73 L125.5,85.75 C108.25,67.75 71.75,71.25 67.5,112.25 C78.75,102 119.75,103 107.5,139 L107.5,139 L71,246.75 C40,247 9.5,262.5 0,300.75 C8.5,287.25 71.25,260.25 128,301.5 L163.75,257.5 C161.25,255 141.75,251 127,265.25 C119.25,258.75 109.25,253.5 98.5,250.5 L117.5,195 L187,195 L211.5,268.75 C221.25,298 243.5,314.5 257.75,292.5 C257.75,292.5 296.5,234.25 301.25,227.5 C305.75,220.75 296.5,219.5 295.5,220.75 L295.5,220.75 Z M127.25,165.5 L152.25,91.5 L177,165.5 L127.25,165.5 L127.25,165.5 Z" id="Shape"></path>
                    <polygon id="Shape" points="294.5 288 291.25 296.75 291.25 296.75 288.25 288 283.25 288 283.25 301.5 286 301.5 286 290.75 286.25 290.75 290 301.5 292.75 301.5 296.5 290.75 296.5 290.75 296.5 301.5 299.25 301.5 299.25 288"></polygon>
                    <polygon id="Shape" points="270 290.5 274 290.5 274 301.5 276.75 301.5 276.75 290.5 281 290.5 281 288 270 288"></polygon>
                    <polygon id="Shape" points="230.5 109.5 236.75 109.5 251.75 89.75 251.75 69 229.75 69 229.75 91.5 237 91.5"></polygon>
                    <path d="M332.25,120.25 C314.5,116.75 299.5,113.25 304,100.25 C307.75,89.25 334.25,90.25 343.25,104.25 L357,90 C341,67.75 301.75,64.75 285.75,87.25 C264,118 288.75,134.5 317,141.75 C328.5,144.75 343.25,151.25 336,162.5 C329.75,172 306,167.5 288,151.25 L275.75,167.75 C286.75,180.5 329.5,207 356.25,174.75 C378.75,147.5 350.25,123.75 332.25,120.25" id="Shape"></path>
                </g>
            </g>
        </g>
    </g>
</svg>
