<svg width="512" height="512" viewBox="0 0 512 512" xmlns="http://www.w3.org/2000/svg"><title>oakland-athletics-2</title><path d="M369.5 324.75c-37.75 41.25-49.75 25-56.25 5.5L251.5 145.5c-5.75-17-16.25-31.5-34-37.25-27.25-7-57 5.75-67 50 10-14 28-26.25 44.5-16.25 14.25 8.5 14.5 18 8.75 35l-4.25 12.75c-17.25-18-53.75-14.5-58 26.5 11.25-10.25 52.25-9.25 40 26.75L145 350.75c-31 .25-61.5 15.75-71 54 8.5-13.5 71.25-40.5 128 .75l35.75-44c-2.5-2.5-22-6.5-36.75 7.75-7.75-6.5-17.75-11.75-28.5-14.75l19-55.5H261l24.5 73.75c9.75 29.25 32 45.75 46.25 23.75 0 0 38.75-58.25 43.5-65 4.5-6.75-4.75-8-5.75-6.75zM201.25 269.5l25-74 24.75 74h-49.75zM368.5 392l-3.25 8.75-3-8.75h-5v13.5H360v-10.75h.25L364 405.5h2.75l3.75-10.75v10.75h2.75V392zm-24.5 2.5h4v11h2.75v-11H355V392h-11zm-39.5-181h6.25l15-19.75V173h-22v22.5H311zm101.75 10.75c-17.75-3.5-32.75-7-28.25-20 3.75-11 30.25-10 39.25 4L431 194c-16-22.25-55.25-25.25-71.25-2.75-21.75 30.75 3 47.25 31.25 54.5 11.5 3 26.25 9.5 19 20.75-6.25 9.5-30 5-48-11.25l-12.25 16.5c11 12.75 53.75 39.25 80.5 7 22.5-27.25-6-51-24-54.5" fill="#EFB21E" fill-rule="evenodd"/></svg>