<?xml version="1.0" encoding="UTF-8" standalone="no"?>
<svg width="512px" height="512px" viewBox="0 0 512 512" version="1.1" xmlns="http://www.w3.org/2000/svg" xmlns:xlink="http://www.w3.org/1999/xlink">
    <!-- Generator: Sketch 39.1 (31720) - http://www.bohemiancoding.com/sketch -->
    <title>philadelphia-phillies-2</title>
    <desc>Created with Sketch.</desc>
    <defs></defs>
    <g id="MLB" stroke="none" stroke-width="1" fill="none" fill-rule="evenodd">
        <g id="philadelphia-phillies-2" fill="#FFFFFF">
            <g id="phi2" transform="translate(135.000000, 91.000000)">
                <g id="Page-1">
                    <g id="MLB_Logo_Philadelphia">
                        <g id="Imported-Layers">
                            <path d="M160.040161,312.288 L155.404584,312.288 L155.404584,324.876 L152.276621,324.876 L152.276621,312.288 L147.650062,312.288 L147.650062,309.558 L160.040161,309.558 L160.040161,312.288 L160.040161,312.288 L160.040161,312.288 Z M181.049068,324.876 L177.904571,324.876 L177.904571,312.69 L177.836932,312.69 L173.387739,324.876 L170.364994,324.876 L166.060099,312.69 L165.980435,312.69 L165.980435,324.876 L162.858484,324.876 L162.858484,309.558 L168.287702,309.558 L171.856075,319.563 L171.925217,319.563 L175.655925,309.558 L181.049068,309.558 L181.049068,324.876 L181.049068,324.876 L181.049068,324.876 Z" id="Fill-1"></path>
                            <path d="M193.44518,13.6245 C142.973901,-9.5205 69.1714161,1.2465 32.2596522,37.1445 C8.71350311,60.2025 -2.88445963,87.6525 1.22503106,110.58 C3.49171429,123.2265 10.4180248,132.7365 20.7188075,137.3535 C32.8623975,142.7655 43.5990807,143.0445 52.6147081,138.189 C70.8939752,128.361 75.5250435,101.2305 75.7024099,100.0845 L76.0075404,98.232 L74.1301615,98.2755 C69.6373789,98.3745 64.0698758,97.4505 63.0252174,92.4705 C62.9004596,91.872 62.8298137,91.245 62.8298137,90.5805 C62.8298137,81.7545 73.8611056,67.698 88.856087,60.612 L88.856087,255.237 C72.7307702,272.3385 63.8519255,289.8555 63.8519255,304.059 C63.8519255,307.3065 64.3058634,310.3875 65.2528199,313.245 C68.0816646,321.8175 75.2830435,327.534 85.5041615,329.3265 C99.2034658,331.692 115.008621,327.03 126.738857,317.1735 C138.009143,307.7205 144.195925,294.972 144.195925,281.277 L144.195925,183.3285 C193.186646,165.57 237.221627,144.7065 240.72236,87.7665 C240.838099,85.9365 240.883193,84.126 240.883193,82.3395 C240.883193,52.0035 224.210745,27.735 193.44518,13.6245 L193.44518,13.6245 L193.44518,13.6245 Z M152.643379,133.3035 C152.643379,133.3035 147.880037,134.1915 145.538199,134.6265 L145.538199,50.8215 C147.387019,50.6985 151.140273,50.4435 151.140273,50.4435 C177.384497,48.6825 192.143491,60.2835 195.017429,84.9255 C195.190286,86.5605 195.271453,88.17 195.271453,89.7555 C195.271453,111.5385 179.034907,128.373 152.643379,133.3035 L152.643379,133.3035 L152.643379,133.3035 Z" id="Fill-2"></path>
                        </g>
                    </g>
                </g>
            </g>
        </g>
    </g>
</svg>
