<svg width="512" height="512" viewBox="0 0 512 512" xmlns="http://www.w3.org/2000/svg"><title>pittsburgh-pirates-2</title><g fill="none" fill-rule="evenodd"><path d="M317.993 87h.172c.136 1.374.532 2.785 1.362 3.902.304 1.314.61 2.65 1.316 3.823 7.942 18.226 21.555 34.23 39.048 43.907 5.083 2.799 10.53 4.913 16.15 6.375-8.082 13.542-12.14 29.202-13.03 44.866-.4 6.524-.5 13.103.191 19.613 1.427 14.887 6.795 29.197 14.34 42.035v.708c-17.343 4.33-33.997 12.89-46.15 26.175-5.88 6.445-10.545 14.053-13.264 22.365-3.637-3.166-7.247-6.453-11.466-8.856-5.723-3.427-12.177-5.551-18.776-6.412-7.527-1.146-15.152-.68-22.74-.773-21.694.07-43.39-.108-65.084-.094-.005 25.388.004 50.775-.005 76.163-.01 10.6 6.81 20.937 16.734 24.834-5.452 13.49-11.132 26.897-16.63 40.368h-47.294c-5.643-13.36-11.025-26.831-16.696-40.177 1.866-1.137 3.96-1.992 5.68-3.404 5.844-4.205 9.799-10.873 10.773-17.993-.009-.652.234-1.207.611-1.709-.019-65.514-.004-131.027-.01-196.54-.746-1.053-.545-2.534-.955-3.782-1.703-8.634-8.124-15.86-16.09-19.39a9360.204 9360.204 0 0 0 16.677-41.644c2.243-.303 4.594-.033 6.879-.126 26.428.047 52.856-.107 79.276.107 13.212 0 26.423-.005 39.64 0 7.854-.13 15.855-.801 23.261-3.618 4.594-1.695 8.782-4.34 12.564-7.418 1.175-1.016 2.276-2.129 3.559-3.013l-.043-.292z" fill="#000"/><path d="M200.43 141.654c33.078.065 66.157.005 99.235.028 5.233.35 10.53 1.849 14.727 5.085 5.35 3.921 8.334 10.524 8.39 17.086l-.004 52.62c-.052 4.674.377 9.512-1.274 13.997-1.31 4.308-4.663 7.847-8.716 9.742-4.207 2.04-8.945 2.654-13.57 2.784-32.963-.004-65.925.01-98.887-.004-.014-27.311 0-54.617-.004-81.928.07-6.465-.135-12.97.103-19.41z" fill="#FDB829"/><path d="M226.62 411.811c1.497.056 2.999-.037 4.495.056.816 2.496 1.763 4.954 2.598 7.446l.541.168c.919-2.556 1.889-5.099 2.84-7.646 1.487-.014 2.975-.01 4.467 0 .019 4.195-.019 8.395.019 12.596-.882-.004-1.763.005-2.64-.014-.005-2.733-.005-5.466.004-8.196-.177.024-.54.08-.717.108-1.008 2.701-1.833 5.495-3.037 8.107-.84-.009-1.679 0-2.513-.013-1.12-3.074-2.062-6.254-3.353-9.24l-.168 9.267a48.122 48.122 0 0 0-2.56-.009c.052-4.211.005-8.42.024-12.63zm-12.592.005c3.423.037 6.85 0 10.279.019.004.777.009 1.564.018 2.351-1.268-.005-2.536 0-3.805-.023-.112 3.413-.01 6.835-.046 10.253-.881.019-1.763.01-2.64.01.028-3.418.019-6.842.01-10.259-1.278.019-2.556.005-3.834.033.008-.796.018-1.592.018-2.384z" fill="#000"/></g></svg>