<?xml version="1.0" encoding="UTF-8" standalone="no"?>
<svg width="512px" height="512px" viewBox="0 0 512 512" version="1.1" xmlns="http://www.w3.org/2000/svg" xmlns:xlink="http://www.w3.org/1999/xlink">
    <!-- Generator: Sketch 39.1 (31720) - http://www.bohemiancoding.com/sketch -->
    <title>san-diego-padres-2</title>
    <desc>Created with Sketch.</desc>
    <defs></defs>
    <g id="MLB" stroke="none" stroke-width="1" fill="none" fill-rule="evenodd">
        <g id="san-diego-padres-2" fill="#FEC325">
            <g id="san-diego-padres" transform="translate(135.000000, 106.000000)">
                <path d="M195.363205,120.704541 C195.218219,152.026247 195.529408,213.862271 195.529408,241.317012 C195.529408,261.126353 179.754277,271.721553 160.121118,271.721553 C138.055031,271.721553 99.1352629,271.760506 99.1352629,271.760506 L99.3651179,247.053718 L115.221582,247.053718 C143.847379,247.053718 162.585872,226.298882 162.585872,199.0814 L162.504538,199.056612 C164.039263,169.625894 163.353234,147.932647 163.353234,144.734965 C163.353234,133.017212 153.787727,110.424506 125.971727,110.424506 L99.94506,110.424506 L99.8990889,86.4507412 L161.422451,86.4507412 C182.01393,86.4507412 195.363205,101.348471 195.363205,120.502694 L195.363205,120.704541 Z M158.370683,60.2141647 C158.370683,60.2141647 54.7803063,60.2460353 53.8856397,60.2460353 C53.0723063,60.2460353 53.1147411,61.6341765 53.8856397,61.6341765 C54.6954368,61.6341765 67.9386252,62.8488 67.9386252,75.0198235 L67.9987411,110.424506 C52.3084802,110.424506 42.5944513,110.491788 40.7520745,110.424506 C34.7723063,110.3466 33.4356107,105.374788 33.608886,102.474565 C33.608886,102.148776 33.4356107,72.1904235 33.6513208,53.4505176 C33.958973,38.1915882 42.1524223,30.401 56.4847701,30.401 L123.443321,30.0610471 C127.446335,30.0610471 130.911843,31.9095412 130.911843,36.8105294 C130.911843,41.7469294 125.699437,43.1669412 124.790625,43.6095882 C124.394567,43.8362235 124.309698,44.4523882 124.751727,44.4523882 L163.936712,44.4523882 L163.445176,31.6616588 C163.126915,22.2846235 157.338103,0.201847059 128.256132,0.201847059 L49.5219295,0.0318705882 L49.5679005,2.01292577e-13 C20.9456397,2.01292577e-13 0.895204887,20.4219647 1.018973,47.8058824 L1.07555271,48.3406 C1.018973,64.6548 0.622915032,87.5839176 0.541581699,102.272718 C0.442567206,120.361047 16.1292918,139.115118 37.96906,139.115118 L125.246799,139.115118 C131.265466,139.115118 132.881524,144.618106 132.881524,146.725106 C132.881524,147.475835 133.114915,174.615412 133.026509,194.229988 L132.842625,194.361012 C132.881524,206.818871 124.578451,216.638553 111.632306,216.638553 L98.7356687,216.638553 L98.9513788,151.215318 L67.9386252,151.020553 L67.9386252,216.748329 C52.3084802,216.748329 41.5194368,216.925388 40.211031,216.925388 C33.7503353,216.925388 32.3605962,211.475518 32.3605962,208.989612 C32.3605962,207.605012 32.4454658,186.974118 32.4843643,179.367671 C32.5727701,170.755529 44.8399585,168.248376 44.8399585,168.248376 L44.7091179,167.373706 L0.209175902,167.373706 C0.209175902,167.373706 0.081871554,197.951765 0.000538220622,212.856576 C-0.0984762721,228.961847 13.4735817,247.053718 32.7955527,247.053718 L67.585002,247.053718 L67.3586831,279.179271 C67.2738136,291.537976 59.4445962,297.455282 52.6196687,299.533953 C52.3084802,299.533953 52.2660455,300.153659 52.6621034,300.153659 L157.918045,300.153659 L157.918045,300.252812 C201.152016,300.252812 225.421176,279.083659 225.421176,236.416024 L225.421176,123.718082 C225.421176,80.6467529 201.152016,60.2141647 158.370683,60.2141647 L158.370683,60.2141647 Z" id="Fill-2494"></path>
                <polygon id="Fill-2495" points="223.604614 297.932633 223.604614 288.930962 226.91099 288.930962 226.91099 286.962068 218.056266 286.962068 218.056266 288.930962 221.366179 288.930962 221.366179 297.932633"></polygon>
                <polygon id="Fill-2496" points="241.897187 297.932633 241.897187 286.962068 238.042695 286.962068 235.386985 294.129409 235.341014 294.129409 232.784318 286.962068 228.912144 286.962068 228.912144 297.932633 231.150579 297.932633 231.150579 289.207174 231.207159 289.207174 234.269535 297.932633 236.430173 297.932633 239.602173 289.207174 239.662289 289.207174 239.662289 297.932633"></polygon>
            </g>
        </g>
    </g>
</svg>
