<svg width="512" height="512" viewBox="0 0 512 512" xmlns="http://www.w3.org/2000/svg"><title>san-diego-padres-2</title><g fill="#FEC325" fill-rule="evenodd">7f411c<path d="M330.363 226.705c-.145 31.321.166 93.157.166 120.612 0 19.81-15.775 30.405-35.408 30.405-22.066 0-60.986.039-60.986.039l.23-24.707h15.857c28.625 0 47.364-20.755 47.364-47.973l-.081-.024c1.534-29.431.848-51.124.848-54.322 0-11.718-9.565-34.31-37.381-34.31h-26.027l-.046-23.974h61.523c20.592 0 33.941 14.897 33.941 34.052v.202zm-36.992-60.49l-104.485.031c-.814 0-.771 1.388 0 1.388.81 0 14.053 1.215 14.053 13.386l.06 35.405c-15.69 0-25.405.067-27.247 0-5.98-.078-7.316-5.05-7.143-7.95 0-.326-.173-30.285.042-49.024.308-15.26 8.501-23.05 22.834-23.05l66.958-.34c4.003 0 7.469 1.849 7.469 6.75 0 4.936-5.213 6.356-6.121 6.799-.396.226-.481.842-.04.842h39.186l-.492-12.79c-.318-9.377-6.107-31.46-35.189-31.46l-78.734-.17.046-.032c-28.622 0-48.673 20.422-48.549 47.806l.057.535c-.057 16.314-.453 39.243-.534 53.932-.1 18.088 15.587 36.842 37.427 36.842h87.278c6.018 0 7.635 5.503 7.635 7.61 0 .75.233 27.89.145 47.505l-.184.131c.039 12.458-8.265 22.278-21.21 22.278h-12.897l.215-65.424-31.012-.194v65.727c-15.63 0-26.42.177-27.728.177-6.46 0-7.85-5.45-7.85-7.935 0-1.385.084-22.016.123-29.622.089-8.612 12.356-11.12 12.356-11.12l-.13-.874h-44.5s-.128 30.578-.21 45.483c-.098 16.105 13.474 34.197 32.796 34.197h34.789l-.226 32.125c-.085 12.359-7.914 18.276-14.74 20.355-.31 0-.353.62.043.62h105.256v.099c43.234 0 67.503-21.17 67.503-63.837V229.718c0-43.071-24.269-63.504-67.05-63.504zm65.234 237.718v-9.002h3.306v-1.969h-8.855v1.969h3.31v9.002zm18.292 0v-10.97h-3.854l-2.656 7.166h-.046l-2.557-7.167h-3.872v10.97h2.239v-8.725h.056l3.063 8.726h2.16l3.172-8.726h.06v8.726z"/></g></svg>