<?xml version="1.0" encoding="UTF-8" standalone="no"?>
<svg width="512px" height="512px" viewBox="0 0 512 512" version="1.1" xmlns="http://www.w3.org/2000/svg" xmlns:xlink="http://www.w3.org/1999/xlink">
    <!-- Generator: Sketch 39.1 (31720) - http://www.bohemiancoding.com/sketch -->
    <title>san-francisco-giants-2</title>
    <desc>Created with Sketch.</desc>
    <defs></defs>
    <g id="MLB" stroke="none" stroke-width="1" fill="none" fill-rule="evenodd">
        <g id="san-francisco-giants-2" fill="#FD5A1E">
            <g id="sf" transform="translate(137.000000, 91.000000)">
                <g id="Page-1">
                    <g id="MLB_Logo_San_Francisco">
                        <g id="Imported-Layers">
                            <path d="M100.445649,147.654922 L100.445649,180.754922 C100.445649,180.754922 142.542703,183.480049 155.442946,175.662985 C153.11923,182.988369 153.867,206.87018 155.442946,210.864675 C139.141554,202.518976 100.445649,205.811301 100.445649,205.811301 L100.445649,239.166782 L162.81773,239.166782 L176.105527,223.717437 L176.105527,166.664927 L160.711108,148.774859 C151.541676,147.78668 118.839189,147.654922 100.445649,147.654922 L100.445649,147.654922 L100.445649,147.654922 Z M3.9462973,29.2742184 C16.883527,23.1121553 30.6489324,10.079432 35.5649189,1.3223932 C48.0534865,7.18559223 162.81773,6.32113592 176.091054,1.3223932 C184.102649,12.979699 192.685122,19.5097184 204.795784,23.4865388 C203.673324,34.7019757 204.036757,38.6852233 207.698419,47.672034 L176.091054,47.672034 L162.81773,32.8782621 L50.2775,32.8782621 L35.5327568,45.7936893 L35.5327568,105.431534 L50.2260405,119.666141 L68.827027,120.426155 C68.827027,98.2748641 69.0569865,94.0795194 52.7555946,89.7283155 C58.1877838,78.8663738 59.2780811,77.5986117 60.704473,64.0661748 C74.6708919,68.7355243 218.886027,66.1823252 225.170514,62.6104175 C224.144541,76.6955922 232.123973,103.527481 237.487014,113.516932 L205.884473,113.516932 C204.284405,102.550549 197.340595,94.0795194 186.32023,92.0196068 L100.445649,92.0196068 L100.445649,120.418121 C100.445649,120.418121 167.272189,122.261117 176.091054,119.248374 C180.482797,130.638951 196.285676,147.356058 207.698419,151.962743 C203.850216,175.2645 204.572257,215.000568 207.698419,239.1475 C195.251662,245.291888 182.568514,257.96951 176.091054,270.727471 C160.375014,266.403583 100.445649,268.550262 100.445649,268.550262 L100.445649,286.413015 C103.541257,298.605383 110.083041,301.550641 121.593878,302.545248 C121.593878,302.545248 112.356905,319.892218 111.983824,330.031102 L57.9626486,330.031102 C57.7519865,320.134845 48.359027,302.545248 48.359027,302.545248 C58.7313243,302.059995 67.2510811,295.917214 68.827027,286.413015 L68.827027,268.550262 C68.827027,268.550262 49.8786892,267.803102 35.5649189,270.727471 C31.2294595,261.019209 15.4314054,243.591898 3.9462973,239.1475 C6.58681081,232.164364 5.35339189,188.565558 1.49071622,179.360223 L35.5649189,179.360223 L35.5327568,223.717437 L48.8189459,239.166782 L68.827027,239.166782 L68.827027,147.66135 C68.827027,147.66135 51.3115135,146.796893 35.5649189,148.003597 C31.0284459,139.179073 17.5122973,125.03766 3.9462973,118.334107 C8.18044595,102.258112 8.55513514,44.4745097 3.9462973,29.2742184 L3.9462973,29.2742184 L3.9462973,29.2742184 Z" id="Fill-1"></path>
                            <path d="M135.140581,316.797529 L131.303635,316.797529 L131.303635,327.230456 L128.727446,327.230456 L128.727446,316.797529 L124.888892,316.797529 L124.888892,314.531947 L135.140581,314.531947 L135.140581,316.797529 L135.140581,316.797529 L135.140581,316.797529 Z M152.521014,327.230456 L149.930351,327.230456 L149.930351,317.128529 L149.866027,317.128529 L146.193108,327.230456 L143.687676,327.230456 L140.125716,317.128529 L140.063,317.128529 L140.063,327.230456 L137.465905,327.230456 L137.465905,314.531947 L141.968608,314.531947 L144.921095,322.823015 L144.983811,322.823015 L148.060122,314.531947 L152.521014,314.531947 L152.521014,327.230456 L152.521014,327.230456 L152.521014,327.230456 Z" id="Fill-2"></path>
                        </g>
                    </g>
                </g>
            </g>
        </g>
    </g>
</svg>
