<?xml version="1.0" encoding="UTF-8" standalone="no"?>
<svg width="512px" height="512px" viewBox="0 0 512 512" version="1.1" xmlns="http://www.w3.org/2000/svg" xmlns:xlink="http://www.w3.org/1999/xlink">
    <!-- Generator: Sketch 39.1 (31720) - http://www.bohemiancoding.com/sketch -->
    <title>st-louis-cardinals-2</title>
    <desc>Created with Sketch.</desc>
    <defs></defs>
    <g id="MLB" stroke="none" stroke-width="1" fill="none" fill-rule="evenodd">
        <g id="st-louis-cardinals-2">
            <g id="stl" transform="translate(122.000000, 94.000000)">
                <path d="M238.1,263.686007 L235.175,274.948805 C234.875,275.699659 233.075,277.501706 225.875,281.706485 C218.975,285.761092 208.775,286.361775 208.625,286.361775 C208.625,286.361775 97.925,286.360273 93.725,286.360273 L93.725,265.937065 C116.225,270.892696 139.625,273.145256 164.825,272.995085 C220.325,272.694744 250.175,238.756177 250.175,206.92 L250.175,206.784846 C250.175,177.801911 228.875,145.965734 189.425,142.81215 L189.425,136.054471 L221.075,136.054471 L221.075,99.3978157 L121.1,99.3978157 L121.1,136.189625 L153.2,136.189625 L153.2,141.295427 C130.4,141.295427 101.9,137.841502 93.8,136.940478 L93.8,81.2271672 C120.05,78.2237543 175.85,87.3841638 202.85,97.2954266 L208.1,99.2476451 L227,59.6025939 L217.25,59.6025939 L218.3,59.9029352 L217.1,59.5425256 C212.6,59.3923549 207.8,58.7916724 203.6,57.7404778 L199.1,56.6892833 C176.15,51.1930375 128.9,40.2305802 93.8,43.6845051 L93.8,37.9780205 L108.65,37.9780205 L108.65,0.285187713 L40.85,0.285187713 L40.85,37.8278498 L56,37.8278498 L56,49.2408191 C28.4,55.0974744 0.95,76.1213652 0.95,110.960956 C0.95,145.800546 28.25,166.253788 56,171.179386 L56,214.128191 C53.6,212.776655 50.75,211.274949 50.75,211.274949 L49.1,210.223754 L35.3,201.213515 L12.35,234.100887 L16.1,237.704983 C17.3,238.906348 17.45,238.906348 23.45,240.708396 C23.45,240.708396 28.55,242.360273 28.85,242.360273 C29.75,242.810785 40.55,248.066758 56,254.824437 L56,286.210102 L29.75,286.210102 L29.75,324.653788 L209.75,324.653788 C212.9,324.503618 228.35,323.752765 237.8,318.646962 C255.2,309.336382 263.15,300.476314 263.3,300.326143 L267.05,296.421706 L238.1,263.684505 L238.1,263.686007 Z M56,129.883959 C46.4,127.481229 40.7,119.822526 40.7,108.259386 C40.7,98.0477816 47.75,90.0887372 56,86.334471 L56,129.883959 L56,129.883959 Z M92.6,173.883959 C104.75,175.235495 132.5,178.088737 154.25,178.238908 L154.25,218.03413 L188.3,218.03413 L188.3,180.191126 C193.55,181.09215 198.35,183.494881 202.25,187.249147 C207.35,192.204778 210.2,199.112628 210.2,206.62116 C210.2,215.78157 205.1,223.290102 195.65,228.546075 C185.9,233.952218 171.65,236.65529 154.25,236.65529 C127.25,236.65529 101.75,229.59727 92.45,226.593857 C92.6,221.037543 92.6,182.744027 92.6,173.883959 L92.6,173.883959 Z" id="Shape" fill="#000066"></path>
                <path d="M183.35,148.65529 L183.35,130.03413 L215,130.03413 L215,105.556314 L127.25,105.556314 L127.25,130.03413 L159.2,130.03413 L159.2,147.453925 C130.4,148.204778 87.35,142.348123 87.35,142.348123 L87.35,75.6723549 C111.35,70.7167235 173.3,80.1774744 204.8,91.440273 L217.1,65.6109215 C217.1,65.6109215 210.2,65.4607509 202.1,63.6587031 C180.65,58.7030717 123.8,44.4368601 87.35,50.443686 L87.35,31.6723549 L102.35,31.6723549 L102.35,6.44368601 L47,6.44368601 L47,31.6723549 L62.15,31.6723549 L62.15,54.1979522 C35.45,57.9522184 7.1,77.4744027 7.1,110.962457 C7.1,145.051195 35.3,163.071672 62.15,166.075085 L62.15,224.040956 C57.2,222.539249 52.1,219.235495 45.95,215.631399 C42.35,213.37884 36.8,209.624573 36.8,209.774744 L20.3,233.501706 C20.45,233.651877 27.65,235.754266 31.1,236.955631 C39.8,241.16041 50.3,246.566553 62.15,251.071672 L62.15,292.819113 L35.9,292.819113 L35.9,318.798635 L209.75,318.798635 C209.75,318.798635 225.95,318.348123 234.95,313.542662 C251,304.982935 258.65,296.573379 258.65,296.573379 L241.1,276.750853 C240.05,280.65529 234.05,284.409556 228.68,287.412969 C220.43,292.21843 208.73,292.819113 208.73,292.83413 L87.5,292.83413 L87.5,258.895563 C109.55,264.301706 134.3,267.45529 164.9,267.154949 C214.4,266.854608 244.1,238.172014 244.1,207.086689 C244.1,179.290102 224,148.65529 183.35,148.65529 L183.35,148.65529 Z M62.15,78.225256 L62.15,137.09215 C44.75,136.641638 34.55,124.928328 34.55,108.409556 C34.7,92.0409556 48.8,80.0273038 62.15,78.225256 L62.15,78.225256 Z M159.35,173.283276 L159.35,213.078498 L183.35,213.078498 L183.35,174.935154 C201.95,174.784983 215.3,189.651877 215.3,206.921502 C215.3,225.09215 198.8,242.061433 154.4,242.061433 C119.75,242.061433 87.5,230.648464 87.5,230.648464 L87.5,168.177474 C87.5,168.177474 131.45,173.433447 159.35,173.283276 L159.35,173.283276 Z" id="Shape" fill="#FFFFFF"></path>
            </g>
        </g>
    </g>
</svg>
