<?xml version="1.0" encoding="UTF-8" standalone="no"?>
<svg width="512px" height="512px" viewBox="0 0 512 512" version="1.1" xmlns="http://www.w3.org/2000/svg" xmlns:xlink="http://www.w3.org/1999/xlink">
    <!-- Generator: Sketch 39.1 (31720) - http://www.bohemiancoding.com/sketch -->
    <title>st-louis-cardinals</title>
    <desc>Created with Sketch.</desc>
    <defs></defs>
    <g id="MLB" stroke="none" stroke-width="1" fill="none" fill-rule="evenodd">
        <g id="st-louis-cardinals">
            <g transform="translate(66.000000, 75.000000)" id="Group">
                <g>
                    <path d="M371.253605,311.729542 C368.459537,310.336976 365.471804,309.547738 362.339701,309.363583 C362.052724,305.354256 360.741079,301.450161 359.621339,298.177456 C359.137175,296.760336 358.68118,295.42214 358.38364,294.30493 C356.976922,289.017039 356.596633,286.858036 357.858982,283.423975 C360.542132,276.106866 351.18984,271.899353 347.489064,270.233185 C347.489064,270.233185 346.342915,269.715796 346.349958,269.715796 C345.260148,269.224715 344.635136,269.464994 342.974893,270.103399 C341.629797,270.62605 340.080471,271.659074 338.045221,273.526936 C339.738915,270.750574 340.835768,267.26039 341.110421,263.561497 C342.210794,262.768752 343.23194,261.518249 344.05766,259.871373 C346.844686,254.330925 346.967927,245.116138 338.966013,235.861013 C335.721233,232.10775 312.928542,212.43995 292.87534,195.329279 L292.799634,195.262633 C299.852587,192.998398 310.638005,189.532768 310.544693,189.559076 C312.057046,189.157442 314.495473,188.033217 316.731432,190.050157 C318.706822,191.960112 322.581896,192.659903 325.930552,190.307975 C331.738762,186.239017 328.52039,177.287309 327.328466,173.951465 C325.240398,168.090061 322.291397,165.880195 320.180441,165.059388 C318.132867,164.263135 315.967332,164.217535 314.099339,165.21022 C311.194354,166.751865 310.486593,169.228317 310.15208,171.254026 C309.780594,173.456876 306.257639,173.969003 299.991674,175.540463 C299.991674,175.540463 278.514149,181.377313 276.98595,181.810517 L276.875033,181.717562 L271.670708,177.310109 C270.661885,175.643941 268.665368,172.662377 266.31321,170.757684 C265.908273,164.066703 260.693384,156.102419 256.415133,152.845499 C256.193298,148.188997 252.441465,141.443647 248.443149,138.988241 C230.506185,107.452062 214.479469,87.2107498 199.479181,77.1453402 L198.987974,76.819122 C196.299543,75.0231681 196.075947,74.7688583 195.970311,73.3710308 C195.047758,60.9431701 191.706144,49.0309446 187.470148,42.6398743 C189.142715,39.9582205 191.674454,35.1859641 193.428009,28.5651379 C193.428009,28.5651379 195.31889,21.4199072 195.31889,21.423415 L193.149834,22.8528119 C193.700901,21.0515964 194.251968,18.9013625 194.785429,16.2951247 L194.832965,15.9496141 C194.993179,13.8063956 193.538926,13.0013733 193.088213,12.8066947 C192.899829,12.7242633 192.722009,12.6821706 192.542428,12.6400779 C192.702642,10.2706114 192.463201,7.41883302 191.230783,4.26889824 L189.563498,0 L186.494777,3.40249079 C180.214727,10.3688276 170.663487,14.0010742 162.230227,17.2036248 C160.300612,17.9367388 158.473112,18.6365295 156.742445,19.3468433 C142.990421,25.0083073 134.486736,31.0714056 126.468977,48.2066299 C126.280593,48.3644774 126.072842,48.5398635 125.842204,48.7327882 C122.199529,51.7845068 114.613115,58.138746 110.317258,70.7209465 L109.604216,72.8097953 L111.466928,73.9989132 C115.896591,76.8173682 120.676612,78.8009852 126.722503,80.9108803 C104.04249,131.413315 147.214093,161.37628 183.341547,179.730438 C181.248197,183.566132 179.570348,187.151025 179.128438,191.379584 L162.941508,208.372745 C161.383379,208.779641 158.443182,209.739003 156.735403,211.557757 C156.150885,212.169855 155.608621,213.008201 155.10685,214.032456 C154.657898,214.128918 154.263524,214.213103 153.921969,214.27975 C143.802056,216.301952 127.632732,219.986815 84.7269784,231.856947 C78.5243946,226.186714 68.1949709,222.554467 58.0328041,222.554467 C41.9356641,222.554467 31.542859,231.16768 20.8842037,244.10416 C5.50186617,262.777521 -11.8769885,313.888545 11.1516225,340.943608 C15.0865572,345.572048 29.89494,360.497407 55.2669059,358.56816 C62.0592898,358.050771 67.1421338,356.9283 71.6281354,355.944384 C80.4874604,354.002859 84.5297915,353.110144 93.3539046,359.017148 L96.8821413,361.383107 L100.218473,358.755823 C105.243217,354.799112 113.778592,356.130293 120.650203,357.722799 L133.9656,360.81661 L126.983071,349.104325 C117.665991,333.482683 104.465033,331.243002 91.1496369,332.398796 C98.6462597,330.315209 103.621707,323.68386 107.252059,315.823054 C106.769655,321.000452 107.664038,326.504069 112.572583,329.980222 C120.486468,335.578547 130.402151,333.124895 137.738559,328.599933 C141.213978,331.548174 145.868997,333.273973 150.161333,333.088064 C153.884996,333.016156 157.084001,332.286549 160.078777,330.832598 C162.06473,332.228672 164.290125,333.061756 166.716228,333.300281 C170.739193,333.693146 175.042092,332.390027 179.540418,329.462833 C181.880252,331.798976 184.945451,333.074033 188.434955,333.089818 C190.059986,333.098587 191.757202,332.881108 193.475545,332.447905 L193.303006,333.089818 L217.525302,333.089818 L220.782407,321.223193 C221.071145,323.566351 221.775384,325.80954 223.139846,327.777372 C224.650439,329.945145 227.580073,332.623291 232.96926,333.068771 C238.740498,333.544068 245.661405,331.379803 251.244259,327.477462 C257.311277,333.426559 264.964593,334.396444 274.059838,330.338009 C275.860929,331.879654 278.963101,333.693146 283.621641,333.056494 C286.817125,332.842523 290.035497,331.486789 293.382392,328.969998 C296.141248,331.688483 299.695893,333.147695 303.673082,333.089818 C310.224264,332.989848 315.733173,329.092768 320.053678,325.07818 C324.812573,329.931114 332.038063,334.875249 343.122783,333.007386 C345.034792,332.68643 346.607005,332.270765 347.996116,331.898946 C351.659919,330.918538 352.131759,330.797521 355.056111,333.261696 L363.709446,340.561267 L364.614393,329.529479 C364.779889,328.980521 365.985898,325.627138 371.861011,321.775659 L380.296032,316.22995 L371.253605,311.729542 L371.253605,311.729542 Z M76.7620368,334.517461 C64.5012381,336.715049 51.826699,338.982792 40.9867022,333.637022 C33.2488776,329.831144 27.0357302,319.346561 26.8385433,309.773987 C26.6572018,301.106404 27.8191959,292.096819 30.9618619,282.599661 C31.8527241,283.550253 32.9407731,284.083427 34.025301,284.474538 C36.4461221,285.349715 39.9373863,285.312884 42.849414,284.332475 C47.360064,282.824155 51.7421903,281.343896 56.0310051,279.888191 C55.7880427,280.144255 55.5433196,280.372257 55.3021178,280.640598 C46.1610973,290.87087 42.3546862,302.969005 44.6610685,314.144609 C43.3459024,314.937354 41.5131208,315.945824 39.5570973,316.871863 C39.5570973,316.871863 34.5112258,319.26413 34.2682634,319.390408 L32.9002794,320.207707 L32.9002794,321.800213 C32.8949976,323.392719 32.8949976,323.392719 38.998988,327.053027 C39.0218758,327.070566 41.5395297,328.708672 42.9233591,331.581497 L44.5519115,334.975219 L48.3248712,334.878756 C51.7721205,334.796325 54.5116097,332.933724 56.2070648,331.448204 C62.0399232,333.986041 68.2055345,333.389728 73.614089,329.759235 C78.1863599,332.474212 82.9346905,333.007386 85.3889629,333.079295 C82.4769352,333.496714 79.5877953,334.012349 76.7620368,334.517461 L76.7620368,334.517461 Z M291.746797,271.329348 L276.308121,271.329348 L276.181358,271.820429 C274.156671,271.499473 271.950642,271.541565 269.656584,271.971261 C261.098322,273.572537 254.552421,278.730643 250.032968,287.317547 C250.534738,282.83994 250.017123,279.358525 247.893843,276.652317 C245.430767,273.521675 241.95887,271.771321 237.851396,271.595935 C236.356649,271.532796 234.793239,271.692398 233.198138,272.055447 L233.310816,271.567873 L210.333263,271.567873 L210.345587,271.525781 L207.283908,271.525781 C211.440678,269.496563 214.319255,265.252219 214.319255,260.336146 C214.319255,253.464518 208.706471,247.871454 201.80669,247.871454 C196.544266,247.871454 192.038897,251.130128 190.195552,255.726999 L193.660407,242.201221 L166.740877,252.769989 L162.342905,271.973015 C152.995894,270.629558 146.685914,275.514061 142.710486,280.407334 C143.416485,279.116492 144.530943,277.082013 144.437632,277.229337 L147.166557,272.865731 L120.632597,272.8517 L121.37909,270.042014 L100.00368,270.042014 C100.00368,270.042014 96.0036033,286.047752 94.1708216,291.730262 C95.1056987,287.617458 98.8768979,271.541565 98.8768979,271.541565 L80.471615,271.541565 C119.748777,257.991234 147.464098,247.710099 163.075313,240.882317 C170.374749,237.688536 207.055031,224.404791 219.328154,219.999092 C228.595937,216.675525 239.770447,212.824045 252.529495,208.546378 C260.97508,221.354826 282.600495,253.941568 295.563772,271.376703 C294.764461,271.332856 293.5831,271.329348 291.746797,271.329348 L291.746797,271.329348 Z M204.643013,189.117103 L206.276847,189.823909 L194.206192,201.402901 C189.378635,201.402901 187.730716,206.201465 187.730716,206.201465 L179.089705,208.602501 C178.698853,208.209636 176.601981,208.032496 176.601981,208.032496 L187.422612,198.672139 C196.29074,195.946639 204.643013,189.117103 204.643013,189.117103 L204.643013,189.117103 Z M215.081593,193.086091 L225.520174,196.59206 L211.035741,200.231322 C211.035741,200.231322 209.861423,199.452607 208.29273,199.321068 L215.081593,193.086091 L215.081593,193.086091 Z" id="Shape" fill="#FFFFFF"></path>
                    <path d="M369.991257,314.242825 C366.188367,312.350409 362.475267,311.996129 359.538591,312.171515 C359.88895,307.730738 358.304413,303.065467 356.945232,299.091218 C356.445222,297.62499 355.969861,296.239439 355.649432,295.027521 C354.253279,289.774707 353.600097,286.829974 355.205762,282.457598 C356.989247,277.597648 349.640514,274.295128 346.50489,272.876254 L345.17564,272.279941 C345.166837,272.276433 343.990758,272.725422 343.990758,272.725422 C339.90089,274.305651 331.546857,284.207951 316.569457,303.149653 C314.812381,305.371795 313.027135,307.632522 311.59753,309.402168 C312.525365,305.203424 315.528944,291.611 316.970873,285.091897 C322.74035,285.618056 327.194661,281.975286 328.275667,276.487454 C333.068013,277.671311 338.377974,270.650604 338.377974,261.719943 C340.90267,261.891821 348.107034,250.751294 336.825127,237.697305 C333.388441,233.719548 305.963619,210.180976 287.192132,194.187516 L287.12523,194.129638 L309.814045,186.840591 C311.219002,186.465265 313.794756,185.865444 315.062385,185.974184 C315.877542,186.04083 317.631097,187.229948 318.484986,188.168264 C319.314228,188.971532 321.59244,189.976495 324.268548,188.034971 C327.886575,185.416456 326.226332,179.279695 324.666443,174.893288 C322.934015,170.035093 320.782566,167.939229 319.220916,167.328885 C317.948004,166.837804 316.474384,166.686972 315.062385,167.42184 C311.808802,169.096777 313.312352,172.608007 311.528867,173.951465 C311.528867,173.951465 311.016533,175.515909 300.903663,177.969561 L277.665541,184.550048 L276.30636,184.934144 L276.195442,184.837682 C272.058039,181.329959 269.489328,179.16394 269.489328,179.16394 C267.859015,176.385824 265.554393,173.351644 263.498015,172.216896 C263.966334,165.413668 257.029581,155.949833 253.485499,154.315235 C254.457349,151.321393 250.39213,142.844982 246.388532,141.080598 C233.611878,118.534711 216.289363,91.821651 197.899925,79.4849911 C194.963249,77.5171588 193.380472,76.6332127 193.151595,73.5814942 C192.121645,59.6593437 188.163823,47.6524097 184.036983,42.7205519 C185.554618,40.5913644 188.676157,35.4841205 190.693801,27.8530703 C190.693801,27.8530703 188.345164,29.4087452 186.549355,29.9752423 C187.515923,28.8703098 189.887448,26.1763789 192.012488,15.7461662 C192.109321,14.4781245 191.033596,16.8458371 188.486012,18.3050497 C188.899753,16.4792802 191.068808,11.6175768 188.59693,5.28964548 C180.367899,14.4114778 167.189829,18.0893248 157.819931,21.9495733 C143.594306,27.8022083 136.146979,33.9144147 128.761274,49.9499679 C126.145027,52.2966343 117.548031,58.2808088 112.986324,71.6259389 C117.535707,74.5233177 122.479464,76.5069347 129.495443,78.892186 C129.495443,78.892186 129.551782,81.1353745 129.594037,81.3844228 C108.266163,127.805622 143.425288,156.730301 187.228946,178.537812 C184.404948,183.590686 182.089763,187.608782 181.837997,192.619564 L164.415128,210.910583 C164.415128,210.910583 160.44146,211.727882 158.79002,213.483497 C158.061132,214.255196 157.476614,215.535515 157.112171,216.477338 C156.091024,216.701832 155.19488,216.898265 154.476557,217.043835 C143.867198,219.1625 126.785884,223.12798 83.9030189,235.005128 C83.75865,234.849035 83.6160416,234.687679 83.469912,234.536847 C77.8729736,228.970092 67.8903876,225.367661 58.0310435,225.367661 C43.0430797,225.367661 33.2154263,233.573978 23.0691048,245.887837 C8.19029805,263.945592 -8.73784377,313.227339 13.3065934,339.124854 C17.0196929,343.493723 31.0146798,357.593013 55.0485918,355.758474 C61.6420283,355.258624 66.6227577,354.16246 71.0172082,353.199591 C80.0983684,351.196681 85.1019856,350.105779 94.9278784,356.679251 L96.7448147,357.892923 L98.4649182,356.540696 C104.435103,351.84561 113.797959,353.238176 121.2893,354.972744 L128.150347,356.568758 L124.551686,350.537229 C112.850758,330.91503 94.7571005,334.156165 77.263807,337.286808 C64.5522954,339.56332 51.4094375,341.915247 39.7366782,336.160829 C30.9953132,331.856853 24.2363807,320.533925 24.0145455,309.83011 C23.7962314,299.285896 26.1924042,287.577119 29.8650099,277.497678 C32.7541498,281.208849 36.4214737,283.201235 39.74196,282.326058 C40.1873911,282.210303 40.5993708,282.050702 40.9955052,281.875316 C41.3212157,281.829715 41.6416444,281.766576 41.9479883,281.657837 C101.442088,261.691881 141.816102,247.099755 161.937967,238.297126 C169.311348,235.075283 206.076139,221.754707 218.37391,217.343746 C229.272006,213.434389 241.624356,209.209337 253.698532,205.170195 C260.962756,216.219521 289.595347,259.536385 302.037488,275.196612 C299.584976,289.588798 295.317288,306.732791 288.086516,311.17006 C287.778411,311.361231 287.405164,311.603264 287.084736,311.797942 C288.655188,303.396947 293.84895,281.184295 294.664107,277.841435 L295.565532,274.144296 L278.501825,274.139034 L278.213087,275.256244 C276.000016,274.372298 273.257006,274.156573 270.179482,274.731839 C256.9662,277.208291 248.953722,289.33098 246.356841,310.77018 C246.309305,311.154275 246.260009,311.554156 246.217754,311.862835 C243.642001,314.814584 241.613793,315.381081 241.006387,315.156587 C240.791594,315.072401 240.749339,314.593597 240.758142,314.321749 C240.849693,311.77865 242.238805,307.008147 243.58214,302.388477 C247.00122,290.641114 248.994216,282.615445 245.67373,278.381624 C243.731791,275.917449 240.988781,274.538914 237.735197,274.398605 C234.877748,274.279343 231.937551,275.121196 229.272006,276.447115 L229.75441,274.377559 L212.049845,274.377559 L211.556878,276.76281 C209.540994,286.480955 203.672923,307.067779 199.646438,311.766373 C198.852408,312.692412 197.281956,313.267678 196.193907,313.416756 C197.304844,308.097295 202.322545,289.672983 205.560284,278.125561 L206.625445,274.331959 L188.672636,274.326697 L188.146217,276.666348 C188.086357,276.927673 182.235892,302.802388 177.667143,310.742118 C176.355498,313.01863 175.128362,313.646512 174.663564,313.500942 C174.358981,313.407987 174.059679,312.925675 174.108976,312.299547 C174.557928,306.238202 184.364454,267.072727 188.103963,252.494633 L189.556455,246.826153 L169.165219,254.830776 L164.471467,275.317629 C163.864061,275.119442 163.187991,274.942302 162.420371,274.809009 C149.302162,272.613175 142.912954,284.532416 140.509739,289.018793 C137.430455,294.764442 134.323001,304.212493 134.037784,311.715511 C132.134579,313.94993 129.814111,315.651176 129.032406,315.552959 C128.375704,315.465266 128.206686,315.226741 128.057035,314.933846 C125.572833,310.073897 133.351151,291.628538 139.671695,280.079362 L142.090756,275.652616 L116.967034,275.661386 L117.710006,272.848192 L102.246681,272.848192 L101.706178,275.161535 C98.5511874,288.652236 92.8979099,306.346942 87.9330259,313.297494 C87.3397046,314.132332 86.8185678,314.569043 86.468209,314.786522 C86.7763135,311.583971 90.7323754,293.755972 94.4454748,278.02559 L95.3134492,274.347743 L77.6423354,274.347743 L76.8905604,277.204783 C71.1598166,275.098396 63.6543908,275.510553 57.4113132,282.503198 C48.3002229,292.700147 44.8811432,304.600096 47.8618342,315.402127 C46.5378651,316.389551 43.618795,318.053965 40.7666276,319.404439 L35.7225167,321.793198 L40.5078198,324.666022 C40.5254258,324.678299 43.6945007,326.658409 45.4691826,330.357302 L46.3089875,332.102394 L48.2526868,332.058547 C51.490425,331.97787 54.0204031,329.753974 55.6665615,328.038697 C61.5962527,331.378049 68.0981381,330.753675 73.5207774,326.321667 C78.4222799,329.945145 84.1864751,330.262593 86.0351021,330.262593 C101.197365,330.262593 106.996772,310.263314 111.229248,295.657157 C111.792639,293.712125 112.333142,291.854786 112.856039,290.179849 L118.66425,290.179849 C118.306848,291.046256 117.931841,291.944233 117.54627,292.868518 C115.859618,296.909414 113.94937,301.4905 112.472229,305.955831 C110.827832,310.926273 106.986208,322.56665 114.209939,327.677402 C121.329794,332.714491 131.002515,330.038099 138.069552,325.009779 C141.428771,328.81215 146.347879,330.430964 150.106754,330.264347 C154.048732,330.188931 157.330485,329.299724 160.386881,327.465185 C162.290087,329.229569 164.501397,330.246809 166.990881,330.488842 C171.649421,330.939584 176.315004,328.503471 180.063315,325.651692 C181.950676,328.596425 184.845097,330.246809 188.447279,330.264347 C191.42797,330.280132 194.577678,329.433017 197.644639,327.898389 L196.9985,330.264347 L215.375613,330.264347 L221.324671,308.576099 C224.768399,294.759181 228.215648,293.157905 228.872351,292.97375 C229.166371,292.894826 229.404051,292.968488 229.569547,293.057935 C229.555463,293.966435 228.798406,296.267501 228.118815,298.344073 C227.499085,300.215443 226.734986,302.546324 225.95152,305.340225 L225.724403,306.131217 C224.187402,311.552402 221.606366,320.616357 225.467356,326.165574 C226.631111,327.837003 228.918126,329.901298 233.206941,330.255578 C239.092617,330.741398 246.416702,328.021159 251.582294,323.680352 C258.952154,332.674153 267.797394,330.430964 274.639074,326.939026 C276.531716,329.027875 279.07754,330.830845 283.4403,330.238039 C287.269599,329.987237 290.780229,327.682664 293.743314,325.043102 C296.097233,328.461378 299.549764,330.325732 303.63611,330.264347 C310.266519,330.167885 315.815921,325.435967 320.178681,321.028514 C325.506248,327.198598 332.138417,331.997162 342.659746,330.225762 C344.443231,329.920591 345.945021,329.525972 347.27075,329.169938 C351.203924,328.117621 352.832477,327.684417 356.888893,331.104447 L361.344964,334.866479 L361.822086,329.06646 C361.820325,329.099783 362.535128,324.516944 370.311685,319.414962 L374.656839,316.557922 L369.991257,314.242825 L369.991257,314.242825 Z M196.088271,203.265502 C194.005484,203.674151 192.994902,203.965292 191.584663,205.268411 C190.593447,206.182173 189.915617,207.460738 189.556455,208.41133 C185.630324,209.42857 181.584471,210.463348 177.6601,211.45428 C176.763956,210.928121 175.045613,210.2371 172.387112,210.428271 C172.144149,210.403717 171.43815,210.279193 171.49625,209.544325 C171.543786,208.907673 186.162024,195.723898 186.162024,195.723898 C190.244849,194.892568 205.213446,186.22674 205.213446,186.22674 L209.79452,188.091094 L209.456485,188.841747 L208.803304,189.99228 L196.952724,202.532388 C196.695677,202.816513 196.450954,203.195347 196.088271,203.265502 L196.088271,203.265502 Z M209.805083,203.112916 C208.771613,202.353494 207.681803,201.908013 206.66946,201.932567 C202.871852,201.990444 204.16413,200.615417 205.028583,199.635009 L215.18899,190.183451 C215.18899,190.183451 223.199707,193.501756 232.81961,196.862154 C218.884483,200.669787 211.324479,202.707774 209.805083,203.112916 L209.805083,203.112916 Z M53.6682837,326.767148 L53.474618,326.633855 C53.5379995,326.681209 53.6031416,326.71804 53.6682837,326.767148 L53.6682837,326.767148 L53.6682837,326.767148 Z M65.5135814,314.0271 C65.4766089,314.0271 65.4202698,314.0271 65.2829432,313.855222 C65.0857563,313.604419 63.430795,311.166552 65.5840053,302.614725 C67.1755852,296.306086 69.5083764,292.084542 72.1492722,290.713023 C72.6580848,290.449943 73.369366,290.178095 74.3869912,290.21668 C73.0295708,301.957027 69.2847806,314.0271 65.5135814,314.0271 L65.5135814,314.0271 Z M159.142139,302.611217 C158.381561,305.626105 157.599856,308.747978 156.899138,311.962805 C156.800545,312.425825 155.585733,313.385187 153.900841,313.54128 C153.293435,313.607927 152.203626,313.558819 151.964184,312.999337 C150.444789,309.514415 152.534618,298.270411 157.441402,292.461622 C158.890374,290.751608 160.318218,289.876431 161.698526,289.827323 C161.754865,292.209066 160.26364,298.140625 159.142139,302.611217 L159.142139,302.611217 Z M265.48573,314.125316 C265.448757,314.125316 265.388897,314.125316 265.253331,313.946422 C265.057905,313.699128 263.402943,311.255999 265.556154,302.709433 C267.182945,296.272763 269.341437,292.31956 271.978812,290.965579 C272.869674,290.506067 273.882018,290.386804 275.003518,290.520098 C273.452432,302.3534 269.485806,314.125316 265.48573,314.125316 L265.48573,314.125316 Z M342.90799,314.698829 C342.210794,315.370558 340.878022,315.828316 339.451938,315.85287 C337.684299,315.893208 336.050464,315.326711 334.9765,314.293687 C329.513367,309.189951 329.513367,309.189951 332.14722,305.78746 C333.846197,303.586364 335.337423,301.543116 336.781112,299.557745 C338.057545,297.798622 339.261794,296.167531 340.462521,294.624133 C340.879782,297.672344 341.75656,300.50483 342.58228,303.149653 C344.283017,308.623454 345.133385,311.87862 342.90799,314.698829 L342.90799,314.698829 Z" id="Shape" fill="#000066"></path>
                    <path d="M211.493496,260.336146 C211.493496,255.016685 207.146582,250.684648 201.80669,250.684648 C196.47032,250.684648 192.123406,255.016685 192.123406,260.336146 C192.123406,265.655607 196.47032,269.984137 201.80669,269.984137 C207.146582,269.984137 211.493496,265.655607 211.493496,260.336146 L211.493496,260.336146 Z" id="Shape" fill="#000066"></path>
                    <path d="M179.952398,229.015692 C190.398021,225.137905 202.245079,220.835683 208.738162,218.492525 L210.046285,218.017228 C211.541032,215.29699 211.463566,209.889835 208.701189,207.651908 C208.086741,207.152058 207.211724,206.79427 206.370158,206.534699 C205.447605,206.759193 204.6659,206.910025 204.211666,206.901256 C202.746849,207.28009 184.142619,212.092685 180.006976,213.16254 C184.3222,216.926327 185.045805,224.620516 179.952398,229.015692 L179.952398,229.015692 Z" id="Shape" fill="#FEDB00"></path>
                    <path d="M212.159002,217.254299 C214.386157,216.454538 217.31227,215.398714 217.31227,215.398714 C227.074781,211.896253 238.849655,207.83431 252.311181,203.332148 C252.311181,203.332148 252.36752,203.311102 252.453789,203.288302 C252.163291,202.841067 251.994274,202.58325 251.994274,202.58325 C247.252985,201.532687 241.810979,199.885811 236.580245,198.138965 L212.262877,204.763299 C212.088578,204.821176 211.894912,204.884315 211.685401,204.950962 C214.421369,208.304345 215.829847,213.685191 212.159002,217.254299 L212.159002,217.254299 Z" id="Shape" fill="#FEDB00"></path>
                    <path d="M131.125756,75.935176 C131.125756,75.935176 137.902295,78.5905219 139.865361,70.0351868 C140.928761,65.3909622 137.411088,58.670166 132.888114,60.553813 C132.844099,60.5695977 133.699749,55.6552785 129.900381,53.9820949 C120.532243,59.7102057 116.320895,70.3245739 116.320895,70.3245739 C124.565771,68.5742204 125.854528,66.2135232 132.129297,66.7554663 C134.368776,66.9466371 135.432177,67.972646 137.215662,69.2775187 C134.486736,68.6654212 132.381062,68.5233584 130.087004,68.4742503 C126.895041,68.3988343 120.5833,70.6297457 117.380774,70.9471946 C117.380774,70.9489485 127.895061,75.454618 131.125756,75.935176 L131.125756,75.935176 L131.125756,75.935176 Z" id="Shape" fill="#FEDB00"></path>
                    <path d="M204.944075,136.601236 C202.105992,137.060748 198.572473,137.167733 193.16744,135.154301 C192.957929,136.676652 188.961374,138.919841 187.156761,139.244305 C200.201026,150.284861 246.140288,167.328885 259.2673,170.39288 C261.378256,170.880454 258.306014,161.470988 252.534777,157.616001 C248.307583,154.778254 221.763059,148.667801 204.944075,136.601236 L204.944075,136.601236 L204.944075,136.601236 Z" id="Shape" fill="#C41E3A"></path>
                    <path d="M208.505763,135.726059 C226.648717,146.464952 246.013525,152.31934 250.254804,153.545289 C251.133342,152.924423 248.914989,144.667244 242.842689,142.522272 C233.773853,139.310952 226.220891,136.127694 220.859873,132.774311 C218.970752,133.812597 216.1626,134.417679 211.074474,132.381446 C210.875527,133.631949 210.495238,134.833344 208.505763,135.726059 L208.505763,135.726059 L208.505763,135.726059 Z" id="Shape" fill="#C41E3A"></path>
                    <path d="M152.54166,61.7885313 C151.613826,63.2898365 149.88844,64.2369215 148.00108,64.1071358 C145.296803,63.9194727 143.259792,61.5850834 143.446415,58.8858909 C143.63656,56.1919601 145.983436,54.1627426 148.687713,54.3504058 C150.480001,54.4749299 151.98179,55.5430314 152.735326,57.0355673 C149.353219,56.672518 148.613768,59.9294384 148.613768,59.9294384 C146.423585,57.2530461 149.252865,55.7149098 149.252865,55.7149098 C147.374308,55.4676154 145.58202,56.8935046 145.430608,59.0454923 C145.280958,61.19748 146.90951,63.0653422 149.068002,63.2144204 C150.524016,63.3143905 151.782843,62.8390941 152.54166,61.7885313 L152.54166,61.7885313 L152.54166,61.7885313 Z" id="Shape" fill="#FFFFFF"></path>
                    <path d="M370.457815,299.776977 L368.299323,299.776977 L368.299323,305.613828 L366.843309,305.613828 L366.843309,299.776977 L364.690099,299.776977 L364.690099,298.500167 L370.456054,298.500167 L370.456054,299.776977 L370.457815,299.776977 Z M380.218566,305.608566 L378.762552,305.608566 L378.762552,299.95061 L378.72734,299.95061 L376.660399,305.608566 L375.253682,305.608566 L373.251883,299.95061 L373.220192,299.95061 L373.220192,305.613828 L371.762417,305.613828 L371.762417,298.500167 L374.288874,298.500167 L375.947357,303.151407 L375.980808,303.151407 L377.709715,298.500167 L380.216805,298.500167 L380.216805,305.608566 L380.218566,305.608566 Z" id="Shape" fill="#000066"></path>
                    <path d="M127.886258,98.3267223 C129.967283,94.2069023 141.338981,78.9149862 152.668423,78.9149862 C151.766998,76.7805371 152.879695,64.1404592 162.515443,54.5170226 C160.327021,55.0344117 157.370978,54.283759 155.260022,53.3910437 C154.465993,52.8578699 153.518792,51.8564151 151.772279,50.8479449 C149.379628,49.4711638 146.381331,50.1306156 144.173542,51.4389961 C142.872461,52.2071873 134.217365,51.9897085 132.831775,49.6290113 C136.525508,40.7071192 143.927058,31.4695321 158.198459,25.480096 C167.92928,21.4023686 179.316822,18.9557322 186.496537,11.4544677 C186.820487,23.0702907 169.508535,30.9258351 169.515578,30.9416199 C179.931271,28.5984613 187.045844,21.5356621 187.045844,21.6356322 C182.566885,33.2216395 171.411741,39.7126799 171.411741,39.7126799 C174.969908,39.1005823 181.822152,36.0681563 184.669038,33.8758297 C184.669038,33.8758297 183.413732,39.9336664 173.631854,48.5766946 C173.610727,48.5468789 178.510469,47.484039 181.218267,45.374144 C186.098642,51.756445 189.758924,62.8513712 190.019492,76.1596702 C190.07055,78.7360924 191.271277,84.4396491 192.646303,85.0903316 C194.623454,86.0409244 192.966732,82.1227984 193.496672,80.4040144 C213.379096,92.4775951 228.63467,116.710696 242.43247,139.756432 C237.930623,138.363867 228.254381,134.529926 222.567652,131.55187 C223.15041,130.918726 223.252525,130.404844 223.308864,129.641915 C223.629292,125.294093 219.780627,122.537023 217.819322,121.603969 C217.31227,121.360182 216.933741,121.479444 216.775288,121.691662 C216.611552,121.907387 216.687258,122.245882 216.833387,122.337083 C217.828125,123.012319 221.611648,125.288831 221.345798,129.01754 C221.273613,130.001456 219.900348,131.401037 217.930239,131.527315 C213.060428,132.044705 205.010977,127.884546 194.982616,117.634981 C194.66923,117.347347 194.153375,116.654572 193.477305,117.059714 C192.820603,117.461348 192.964971,117.976984 193.142792,118.248832 C198.294299,126.734013 208.796261,131.553623 208.796261,131.553623 C208.070895,134.480818 204.452868,134.596573 201.169354,134.496603 C188.755384,134.121276 180.367899,120.355219 178.089686,116.836974 C177.649537,116.156476 177.172415,115.986351 176.763956,116.198568 C176.325568,116.433586 176.06676,116.619495 176.293877,117.317532 C176.647757,118.380372 181.612641,128.666768 190.443796,133.774012 C191.623396,134.452756 187.132113,137.283488 184.285227,137.216841 C179.137241,137.092317 166.962712,132.348123 162.80066,114.544677 C162.749603,114.274583 162.496077,113.827348 161.881628,113.960641 C161.216123,114.111473 161.187953,114.569231 161.283025,115.102405 C163.647507,134.715835 178.179476,139.121535 183.623243,139.765202 C192.690318,148.690602 225.465595,163.551068 259.508502,173.514753 C265.913555,175.319477 272.457694,192.880889 267.395978,191.391861 C265.57376,190.874472 263.218081,189.990526 260.659933,189.136395 C243.879681,183.529301 218.402079,173.297275 190.885706,160.015284 C171.88006,150.83382 139.652328,130.162811 155.228332,101.320563 C157.263582,97.0183419 159.446722,94.9259854 159.753066,94.6173058 C159.957296,94.5085664 160.105186,93.9753926 160.05941,93.7754524 C159.367496,91.8900516 157.527672,92.049653 152.686029,100.12443 C136.117049,131.830733 169.355363,152.536819 189.433214,162.467182 C202.389448,168.874037 225.217351,178.627259 241.451818,185.084976 L250.385088,199.498208 C242.143732,197.870624 215.519982,187.436904 207.725818,183.934443 C207.725818,183.934443 210.56038,181.428175 209.572685,179.085017 C208.879009,177.457433 208.484636,176.441948 206.289171,174.593378 C203.975746,173.183274 203.394749,174.172451 204.401811,175.29843 C205.336688,176.340224 207.313838,179.542774 205.403591,181.74387 C202.259164,185.377871 193.336457,189.448583 188.281783,192.291592 C186.072234,192.733565 185.00003,192.684457 184.762349,190.79204 C184.464808,188.431343 187.843394,183.33813 191.83995,176.975122 C184.968339,173.795371 115.764546,143.818375 127.886258,98.3267223 L127.886258,98.3267223 L127.886258,98.3267223 Z" id="Shape" fill="#C41E3A"></path>
                    <path d="M327.374242,272.292218 C332.578567,274.586269 336.300469,264.355996 334.29691,261.420032 C333.626122,260.427347 329.805626,256.282973 324.44989,250.60397 L321.231518,265.48899 C324.571371,269.494809 326.842541,272.050185 327.374242,272.292218 L327.374242,272.292218 Z" id="Shape" fill="#C41E3A"></path>
                    <path d="M304.504084,257.542245 L304.819231,254.907946 L307.872107,253.722335 L268.103738,202.907714 L271.646059,202.907714 C271.646059,202.907714 294.294381,232.093719 310.747162,252.608633 L322.147029,248.169611 C305.474173,230.592413 277.706035,202.044814 277.706035,202.044814 L281.331104,202.141276 C281.313498,201.850136 335.096221,257.484368 335.096221,257.484368 C338.04346,260.786888 343.062923,249.604269 334.985303,240.656069 C330.52571,233.54767 271.420703,184.564079 271.420703,184.564079 C271.959445,185.732151 272.244662,187.249241 272.501709,188.659345 C274.80281,199.566608 266.536806,193.519295 245.413161,186.435449 C262.348346,213.076601 288.137573,252.422724 302.743487,270.833006 C303.57625,265.387266 304.143162,260.627287 304.504084,257.542245 L304.504084,257.542245 Z" id="Shape" fill="#C41E3A"></path>
                    <path d="M317.69976,281.789377 C322.03259,281.640298 326.416477,277.883528 324.257985,274.661685 L320.331853,269.642134 L317.69976,281.789377 L317.69976,281.789377 Z" id="Shape" fill="#C41E3A"></path>
                    <path d="M355.415273,315.919516 C358.684702,309.965157 354.302575,301.643086 352.749729,295.790451 C351.351814,290.541144 350.422219,286.779112 352.385285,281.429835 C353.251499,279.069138 346.246083,276.048989 345.077046,275.517569 C339.101579,277.820389 313.4532,312.699427 310.784134,314.9356 C309.539392,315.977394 306.629125,317.657593 308.395004,309.989711 C308.395004,309.989711 321.277294,251.817642 321.185742,251.763272 L307.58689,257.042395 C306.060452,269.908721 302.021642,306.143494 289.656968,313.721928 C288.537228,314.405934 284.780114,317.178789 283.662135,315.009262 C283.044165,313.816637 291.649964,277.520478 291.746797,277.131121 L280.827573,277.131121 L279.970163,280.454688 C278.172593,277.131121 273.630252,277.131121 270.730549,277.678326 C250.022405,281.547344 249.689652,312.175023 248.997737,313.24137 C242.995861,320.60408 237.594349,318.737971 237.754564,314.218271 C238.027456,306.392542 247.478342,285.549655 243.303966,280.235456 C238.710568,274.384575 229.242076,278.567534 224.502549,283.6397 L225.967366,277.369646 L214.493554,277.369646 C212.843874,285.316392 206.868407,307.948217 201.928172,313.71842 C199.324248,316.7526 192.699121,317.645316 192.984338,314.402426 C193.31533,310.684241 202.665862,277.329308 202.665862,277.329308 L191.07409,277.329308 C191.07409,277.329308 185.116229,303.812612 180.269305,312.2329 C176.12486,319.44127 170.797292,316.277304 171.108918,312.090837 C171.679352,304.436987 185.191935,251.763272 185.191935,251.763272 L171.737451,257.051164 L166.311291,280.731798 C166.311291,280.731798 166.267276,278.502641 161.91684,277.771281 C152.356798,276.166498 147.052118,283.166158 143.154156,290.437666 C140.242128,295.865867 137.011433,305.647151 137.011433,312.827459 C137.011433,312.827459 132.298314,318.997543 128.643314,318.522246 C116.097299,316.896417 137.030799,278.656981 137.030799,278.656981 L113.069072,278.660488 L113.813804,275.847295 L104.628769,275.847295 C102.089988,286.730004 96.2764959,306.788915 90.3802559,315.047847 C87.1830115,319.525455 83.5508995,318.274952 83.4487849,315.181141 C83.3413884,312.020683 91.5211229,277.353862 91.5211229,277.353862 L79.9592813,277.353862 L78.8641898,281.510513 C75.6211698,279.44271 67.163261,276.089328 59.6525535,284.504354 C49.8389848,295.490541 48.20339,307.164241 51.1488691,315.956347 C51.5573276,317.6155 42.0536241,322.119416 42.0536241,322.119416 C42.0536241,322.119416 45.9586286,324.462574 48.1752205,329.078737 C51.817896,328.991044 54.8901381,323.997801 55.2792301,324.246849 C60.8937745,328.464886 67.7601034,328.407008 73.4591565,322.310587 C76.9345753,325.96388 82.128337,327.289799 86.0333415,327.289799 C101.611105,327.289799 106.304857,299.968148 110.669378,287.207054 L123.067503,287.198285 C121.255849,292.151189 117.685358,299.747162 115.320875,306.906423 C112.840194,314.418211 111.32432,321.977353 115.945887,325.24655 C123.042855,330.266101 133.067695,325.679754 138.71217,320.697034 C141.078412,325.25532 146.015127,327.456415 149.97471,327.284537 C154.340991,327.205613 157.631547,326.076127 160.869285,323.520751 C166.909894,331.834053 176.12662,325.497352 181.202422,320.789989 C182.084481,324.26965 184.279946,327.268752 188.457843,327.284537 C193.408642,327.310845 198.641137,324.566052 202.72044,320.679496 L200.92111,327.284537 L213.078034,327.284537 L218.421446,307.799139 C224.308883,284.197428 231.585431,290.467482 232.164668,291.409306 C233.509764,293.48237 231.280848,297.446096 228.837139,306.159279 C227.139923,312.199577 222.616949,326.391822 233.448143,327.284537 C239.656009,327.798418 247.789967,323.990786 251.980189,319.118559 C258.152842,329.031383 265.587844,328.752519 275.380286,323.141917 C277.503566,325.888464 279.091625,327.837003 283.051208,327.284537 C287.607633,327.093366 292.102438,322.636805 294.565513,320.060383 C295.949343,324.008324 298.836722,327.356445 303.581531,327.284537 C310.199616,327.188075 316.058883,321.042545 320.356501,316.531614 C326.180557,324.027617 332.064472,328.982275 342.145652,327.284537 C349.21621,326.097173 351.971545,323.061239 358.813225,328.836704 C358.813225,328.836704 359.286826,323.070009 368.64616,316.924479 C363.501696,314.360334 358.313216,315.026801 355.415273,315.919516 L355.415273,315.919516 Z M65.5135814,317.020941 C62.4906361,317.020941 59.8796705,312.974783 62.6754988,301.885119 C64.689622,293.889265 68.9819579,284.600816 77.6388142,287.910352 C77.6388142,287.910352 75.152851,317.020941 65.5135814,317.020941 L65.5135814,317.020941 Z M159.830533,312.590688 C158.987207,316.501798 151.025786,318.36966 149.207089,314.191963 C146.166538,307.20458 153.1297,284.523646 163.342924,287.000098 C166.892288,287.861244 162.557698,300.041811 159.830533,312.590688 L159.830533,312.590688 Z M265.48573,317.117404 C262.464545,317.117404 259.850058,313.071246 262.645886,301.986843 C264.663531,293.989235 268.719947,284.551708 278.292314,288.285679 C278.290553,288.285679 275.380286,317.117404 265.48573,317.117404 L265.48573,317.117404 Z M345.154512,316.703492 C342.559392,319.413208 336.386738,319.792042 332.893714,316.447429 C325.809071,309.823095 325.949918,308.891794 329.770414,303.96169 C335.268759,296.851537 338.851575,290.895424 343.770683,286.491479 C340.700202,298.850939 351.674004,308.765516 345.154512,316.703492 L345.154512,316.703492 Z" id="Shape" fill="#C41E3A"></path>
                    <path d="M195.123464,260.336146 C195.123464,256.658299 198.118239,253.678489 201.80669,253.678489 C205.502184,253.678489 208.493439,256.658299 208.493439,260.336146 C208.493439,264.013993 205.502184,266.990296 201.80669,266.990296 C198.118239,266.988542 195.123464,264.012239 195.123464,260.336146 L195.123464,260.336146 L195.123464,260.336146 Z" id="Shape" fill="#C41E3A"></path>
                    <path d="M278.244777,186.574004 L285.318857,192.489778 L309.164385,184.830666 C309.164385,184.830666 317.99378,182.63834 317.99378,178.502735 C317.99378,172.127449 321.314266,184.2554 319.962127,186.656436 C319.962127,186.656436 321.081867,187.731553 323.023806,186.331971 C324.967505,184.921867 324.613625,181.052849 322.671686,175.600094 C320.729748,170.14734 318.652243,168.96173 316.896928,169.286194 C314.708505,169.687828 314.639842,172.167788 314.639842,172.167788 C314.639842,172.167788 314.991962,174.365376 312.520083,176.217454 C311.263017,177.159277 307.512945,178.802645 301.48466,179.995271 L278.244777,186.574004 L278.244777,186.574004 Z" id="Shape" fill="#FEDB00"></path>
                    <path d="M38.4039062,338.849498 C28.2716694,333.854501 21.2468867,321.33544 21.0092061,309.898511 C20.7697649,298.331796 23.5603114,285.46547 27.8227171,274.459991 C26.896643,272.746468 26.1219803,270.833006 25.5744346,268.765203 C23.326152,260.280023 26.1554316,251.759765 31.1660912,249.844548 C31.4354625,249.713009 31.7259611,249.602515 32.0446292,249.513068 C37.1045854,248.062625 41.9391853,246.819138 46.5801194,245.501988 C48.2139536,244.060314 49.860112,242.825596 51.5027491,241.866233 C57.3444106,238.456727 68.5242026,238.311157 75.0524969,243.051844 C72.0225092,246.603413 69.4115436,251.438808 73.7003583,255.418319 C77.0560565,258.640162 82.5772893,257.319505 84.8449384,253.475041 C88.343245,247.550498 85.4875564,240.89284 81.3466318,236.657266 C76.3711842,231.6991 67.1773458,228.359748 58.0310435,228.359748 C45.1610781,228.359748 36.0605513,234.838511 25.3895718,247.789023 C10.0494887,266.408014 -4.7360064,313.302755 15.5971304,337.193853 C22.4106414,345.198476 36.1679477,354.201045 54.8179536,352.778664 C75.2056689,351.228251 80.7445076,343.591939 96.6004457,354.202799 C104.061857,348.327364 115.438836,350.554768 121.96713,352.071858 C103.317124,320.797004 67.643904,353.250453 38.4039062,338.849498 L38.4039062,338.849498 Z" id="Shape" fill="#C41E3A"></path>
                    <path d="M176.109014,216.412445 C175.219913,215.784563 173.88538,215.36539 172.774443,215.107573 L172.276194,215.107573 C170.409961,215.581115 168.895848,215.958195 168.895848,215.958195 C161.997828,217.66821 157.186116,218.792435 154.596277,219.309824 C140.529106,222.123018 119.174823,227.552972 85.4488232,236.887021 C89.0333991,241.706632 91.2218214,248.569491 87.4312557,254.988623 C85.7921397,257.764986 82.8853938,259.68371 79.6582191,260.125683 C76.6669645,260.534332 73.7355702,259.604786 71.6527838,257.60363 C69.2706958,255.399027 66.3181744,250.870557 70.633398,243.991913 C68.9097734,243.253538 66.9819195,242.815072 65.0153324,242.599347 L32.3404095,251.879027 C32.176674,251.929889 32.0094172,251.971982 31.8474423,252.012321 C27.6554604,253.529411 25.7628184,260.976305 27.6413756,268.054889 C29.5745113,275.350952 34.5041834,280.929985 38.9743396,279.758405 C43.4444959,278.586826 45.1804447,271.264455 43.2490696,263.970147 C42.5078582,261.176246 41.8986915,259.283829 40.4655654,257.240581 C40.4655654,257.240581 43.5237227,259.790695 44.969173,265.999364 C46.2033516,271.324087 46.0167283,275.601754 44.5166995,278.490364 C101.986113,259.157551 141.092497,244.99863 160.739001,236.409971 C163.050665,235.397993 168.28316,233.367022 176.292116,230.378442 C176.292116,230.378442 177.093188,230.08204 177.707636,229.848776 C179.540418,226.684811 179.89958,219.080068 176.109014,216.412445 L176.109014,216.412445 Z" id="Shape" fill="#FEDB00"></path>
                </g>
            </g>
        </g>
    </g>
</svg>