<svg width="512" height="512" viewBox="0 0 512 512" xmlns="http://www.w3.org/2000/svg"><title>texas-rangers</title><g fill="none" fill-rule="evenodd"><path d="M215.199 148.075v-5.711h-.553c-41.158 0-57.951 14.28-58.001 49.673l-.052 8.063h-34.416l18.558 17.388h32.421l.041-6.493c0-36.24 3.552-59.089 42.002-62.92zm92.475 85.225l-9.097 2.567c-.2.055-19.983 5.777-19.983 19.22v79.2c0 5.376 2.227 8.965 12.981 8.965h5.597c.021-.501.04-1.022.021-1.563v-79.187c0-16.19 22.432-22.397 22.432-22.397s-6.114-2.406-11.952-6.796l.001-.009zm-29.084-90.73v66.486c0 12.5 20.092 20.492 20.294 20.572l8.247 3.224c-5.148-3.992-9.943-9.477-9.943-16.37v-67.3l3.18.2c12.35 1.054 21.256 4.324 27.597 9.117-10.282-10.264-26.81-15.876-49.386-15.93l.01.001zm95.536-39.68v97.211h-27.585l19.538 18.496h25.745v-99.18zm-62.258 288.82H188.526l20.363 19.243H327.54v-46.516l-15.673-14.603z" fill="#C0111F"/><path d="M150.105 191.642c0-38.638 19.922-55.864 64.541-55.864h7.143v73.278c0 12.57-9.108 19.716-15.64 23.466 6.582 3.369 15.64 10.008 15.64 22.568v78.48c0 10.188-7.022 16.264-18.779 16.264h-14.486v35.298H305.26v-35.298h-13.692c-12.981 0-19.56-5.214-19.56-15.543v-79.2c0-12.435 10.572-19.266 17.915-22.704-7.263-4.057-17.916-11.759-17.916-23.33v-73.454l3.471.19s3.139.171 2.96.171c43.285 0 68.123 19.56 68.123 53.675l-.039 3.89h21.014v-90.634H122.172v90.634h28.148m201.23 205.135h-4.444v12.154h-3.03v-12.154h-4.454v-2.637h11.927v2.642l.001-.005zm20.234 12.15h-3.02V399.04h-.07l-4.274 11.773h-2.92l-4.152-11.773h-.06v11.773h-3.01v-14.79h5.216l3.451 9.656h.07l3.583-9.657h5.185v14.791z" fill="#FFF"/></g></svg>