<?xml version="1.0" encoding="UTF-8" standalone="no"?>
<svg width="512px" height="512px" viewBox="0 0 512 512" version="1.1" xmlns="http://www.w3.org/2000/svg" xmlns:xlink="http://www.w3.org/1999/xlink">
    <!-- Generator: Sketch 39.1 (31720) - http://www.bohemiancoding.com/sketch -->
    <title>texas-rangers</title>
    <desc>Created with Sketch.</desc>
    <defs></defs>
    <g id="MLB" stroke="none" stroke-width="1" fill="none" fill-rule="evenodd">
        <g id="texas-rangers">
            <g id="tex" transform="translate(121.000000, 101.000000)">
                <g id="Group" transform="translate(0.571305, 0.795332)" fill="#C0111F">
                    <path d="M93.6272477,46.2797101 L93.6272477,40.5686808 L93.0750142,40.5686808 C51.9165245,40.5686808 35.1233663,54.8482256 35.0734023,90.2421487 L35.0221235,98.3046236 L0.606142023,98.3046236 L19.1638178,115.692703 L51.5851844,115.692703 L51.6259445,109.199611 C51.6259445,72.9592203 55.1773319,50.1111601 93.6272477,46.2797101 L93.6272477,46.2797101 Z" id="Shape"></path>
                    <path d="M186.102694,131.504828 L177.005304,134.071834 C176.805448,134.127038 157.02234,139.848583 157.02234,153.29086 L157.02234,232.492124 C157.02234,237.867983 159.249682,241.456271 170.003772,241.456271 L175.601053,241.456271 C175.622091,240.955488 175.640499,240.434989 175.622091,239.89346 L175.622091,160.706655 C175.622091,144.515985 198.05329,138.309431 198.05329,138.309431 C198.05329,138.309431 191.939276,135.904095 186.101379,131.514029 L186.102694,131.504828 Z" id="Shape"></path>
                    <path d="M157.018396,40.7750402 L157.018396,107.260884 C157.018396,119.760744 177.110492,127.752241 177.312977,127.832419 L185.559664,131.056621 C180.412059,127.064815 175.616832,121.579861 175.616832,114.68588 L175.616832,47.3864274 L178.796119,47.5875292 C191.146427,48.6403565 200.053164,51.9105615 206.393331,56.7041458 C196.111269,46.4400658 179.583709,40.8276159 157.007877,40.7737258 L157.018396,40.7750402 Z" id="Shape"></path>
                    <polygon id="Shape" points="252.554794 1.09488777 252.554794 98.305938 224.969415 98.305938 244.507962 116.802049 270.252563 116.802049 270.252563 17.6207269"></polygon>
                    <polygon id="Shape" points="190.297039 289.915241 66.954369 289.915241 87.3173224 309.157927 205.969952 309.157927 205.969952 262.641626 190.297039 248.038742"></polygon>
                </g>
                <path d="M29.1046847,90.6418491 C29.1046847,52.0040088 49.0271661,34.7775993 93.6463192,34.7775993 L100.788539,34.7775993 L100.788539,108.056217 C100.788539,120.625739 91.6806309,127.772083 85.1498121,131.522041 C91.7305948,134.890825 100.788539,141.529814 100.788539,154.090136 L100.788539,232.569798 C100.788539,242.757644 93.7672846,248.834074 82.0099702,248.834074 L67.5243592,248.834074 L67.5243592,284.132046 L184.258635,284.132046 L184.258635,248.834074 L170.567188,248.834074 C157.585756,248.834074 151.006288,243.619884 151.006288,233.291399 L151.006288,154.090136 C151.006288,141.655996 161.57893,134.825105 168.922321,131.386658 C161.659136,127.330447 151.006288,119.628116 151.006288,108.056217 L151.006288,34.6027853 L154.47747,34.793372 C154.47747,34.793372 157.615998,34.9642428 157.437179,34.9642428 C200.721768,34.9642428 225.560442,54.5236965 225.560442,88.6387171 C225.560442,88.6387171 225.539405,90.5945311 225.520997,92.5293147 L246.534797,92.5293147 L246.534797,1.89547752 L1.17218768,1.89547752 L1.17218768,92.5293147 L29.3203188,92.5293147" id="Shape" fill="#FFFFFF"></path>
                <path d="M230.550267,297.663702 L226.106102,297.663702 L226.106102,309.817877 L223.075392,309.817877 L223.075392,297.663702 L218.622023,297.663702 L218.622023,295.027034 L230.548952,295.027034 L230.548952,297.66896 L230.550267,297.663702 Z M250.784365,309.813934 L247.764174,309.813934 L247.764174,298.040933 L247.694487,298.040933 L243.419937,309.813934 L240.500989,309.813934 L236.348718,298.040933 L236.288236,298.040933 L236.288236,309.813934 L233.278563,309.813934 L233.278563,295.023091 L238.49454,295.023091 L241.946,304.679922 L242.015686,304.679922 L245.59863,295.023091 L250.784365,295.023091 L250.784365,309.80999 L250.784365,309.813934 Z" id="Shape" fill="#FFFFFF"></path>
            </g>
        </g>
    </g>
</svg>
