<svg width="512" height="512" viewBox="0 0 512 512" xmlns="http://www.w3.org/2000/svg"><title>washington-nationals-2</title><path d="M389.81 102.994c-30.015-24.098-57.596 5.957-57.596 23.285 30.285 6.498 57.055 36.552 45.157 115.343-9.735 64.17-47.59 104.242-71.386 105.054 19.739-27.076 32.989-57.671 40.29-87.455 21.632-89.08-12.98-118.05-40.29-119.133-33.26-1.625-66.79 43.862-75.984 97.473-7.3 42.509-6.49 85.83 19.47 117.78-22.714 28.97-77.606 37.905-67.872-31.68 8.112-58.212 37.045-122.382 53-153.79l.54-.812c8.653-17.6 15.413-30.054 18.387-34.928h-6.49c-63.274.542-112.757 14.892-136.012 46.57-21.632 29.513-22.173 60.92-4.326 79.332l2.704 2.708c5.137 5.144 12.168 8.123 18.928 8.123 6.22 0 12.438-2.437 17.035-7.04 4.597-4.603 7.03-11.101 7.03-17.328 0-6.77-2.703-13.81-7.84-18.954-2.705-2.707-5.95-4.873-9.465-6.227v-.27l1.622-3.25c4.056-7.31 11.357-14.08 21.092-18.953 7.571-3.79 16.224-6.227 25.958-7.31l-1.622 3.249c-13.25 24.639-32.448 71.21-38.668 95.577-18.928 76.083 11.628 120.758 44.887 126.986 40.02 7.581 70.846-11.914 87.07-37.094 19.47 12.184 70.575 19.494 108.972-49.278 44.347-78.79 45.969-195.216 5.409-227.978zm-113.3 225.812c-7.57-18.412-11.086-40.343-11.086-60.92 0-24.91 4.867-48.196 13.52-61.733 5.679-8.935 12.439-13.268 20.01-12.726 2.704.27 5.679 1.083 7.842 6.227 1.893 4.333 2.433 9.748 2.433 16.246.541 32.49-18.928 87.996-32.718 112.906zm107.893 21.524c0-4.36 3.145-6.814 6.815-6.814 3.67 0 6.814 2.453 6.814 6.815 0 4.36-3.145 6.814-6.814 6.814-3.67 0-6.815-2.453-6.815-6.814zm6.815-5.724c-2.883 0-4.98 2.181-4.98 5.452s2.359 5.452 4.98 5.452c2.883 0 4.98-2.181 4.98-5.452 0-3.27-2.097-5.452-4.98-5.452zm-1.049 9.54h-1.572v-7.631h2.62c1.835 0 2.884.545 2.884 2.18 0 1.363-.786 1.908-2.097 1.908l1.835 3.271h-1.573l-1.835-3.27h-.786v3.543h.524zm0-4.633h1.31c.787 0 1.311-.545 1.311-1.09 0-.818-.524-.818-1.31-.818h-1.31v1.908z" fill="#fff" fill-rule="evenodd"/></svg>