<?xml version="1.0" encoding="UTF-8" standalone="no"?>
<svg width="512px" height="512px" viewBox="0 0 512 512" version="1.1" xmlns="http://www.w3.org/2000/svg" xmlns:xlink="http://www.w3.org/1999/xlink">
    <!-- Generator: Sketch 39.1 (31720) - http://www.bohemiancoding.com/sketch -->
    <title>washington-nationals-2</title>
    <desc>Created with Sketch.</desc>
    <defs></defs>
    <g id="MLB" stroke="none" stroke-width="1" fill="none" fill-rule="evenodd">
        <g id="washington-nationals-2" fill="#ab0003">
            <g id="was2" transform="translate(94.000000, 94.000000)">
                <g id="Group">
                    <path d="M295.809507,8.99383135 C265.794785,-15.1036224 238.21369,14.9505053 238.21369,32.2790114 C268.498814,38.7772011 295.268701,68.8313288 283.370974,147.62188 C273.636469,211.791504 235.780063,251.863674 211.984608,252.675948 C231.72402,225.600157 244.973762,195.004513 252.27464,165.221144 C273.906872,76.1417923 239.295301,47.1706962 211.984608,46.0876646 C178.725052,44.4631172 145.195092,89.9504456 136.001394,143.560511 C128.700515,186.069503 129.511724,229.390768 155.470402,261.340201 C132.756559,290.311297 77.8647704,299.246308 87.5992748,229.661526 C95.7113617,171.448576 124.644472,107.278952 140.598243,75.8710344 L141.139049,75.0587607 C149.791942,57.4594967 156.552014,45.004633 159.526446,40.1309907 L153.036776,40.1309907 C89.762498,40.6725065 40.2787674,55.0226755 17.0241181,86.7013507 C-4.60811381,116.213963 -5.14891961,147.62188 12.6976717,166.033417 L15.4017007,168.740997 C20.5393558,173.885397 27.5698312,176.863734 34.3299037,176.863734 L34.3299037,176.863734 C40.5491703,176.863734 46.768437,174.426913 51.3652863,169.824028 C55.9621356,165.221144 58.3957617,158.722954 58.3957617,152.495522 C58.3957617,145.726574 55.6917327,138.686869 50.5540776,133.542469 C47.8500486,130.83489 44.6052138,128.668826 41.0899761,127.315037 L41.0899761,127.044279 C41.6307819,125.961247 42.1715877,124.878216 42.7123935,123.795184 C46.768437,116.48472 54.0693153,109.715773 63.8038197,104.84213 C71.3751008,101.05152 80.0279936,98.6146986 89.762498,97.531667 L88.1400806,100.780762 C74.8903385,125.419731 55.6917327,171.990091 49.472466,196.358303 C30.5442631,272.441275 61.0997907,317.11633 94.3593473,323.343761 C134.378976,330.924983 165.204907,311.430414 181.429081,286.249928 C200.898089,298.434034 252.004237,305.744497 290.401449,236.971989 C334.747525,158.181438 336.369942,41.7555381 295.809507,8.99383135 L295.809507,8.99383135 Z M182.510692,234.805926 C174.939411,216.394388 171.424173,194.462998 171.424173,173.885397 C171.424173,148.975669 176.291426,125.690489 184.944318,112.152594 C190.622779,103.217583 197.382852,98.8854565 204.954133,99.4269723 C207.658162,99.6977302 210.632594,100.510004 212.795817,105.654404 C214.688637,109.986531 215.229443,115.401689 215.229443,121.899879 C215.770249,154.390827 196.30124,209.896198 182.510692,234.805926 L182.510692,234.805926 Z" id="Shape"></path>
                    <path d="M290.403226,256.330645 C290.403226,251.969355 293.548387,249.516129 297.217742,249.516129 C300.887097,249.516129 304.032258,251.969355 304.032258,256.330645 C304.032258,260.691935 300.887097,263.145161 297.217742,263.145161 C293.548387,263.145161 290.403226,260.691935 290.403226,256.330645 L290.403226,256.330645 Z M297.217742,250.606452 C294.334677,250.606452 292.237903,252.787097 292.237903,256.058065 C292.237903,259.329032 294.596774,261.509677 297.217742,261.509677 C300.100806,261.509677 302.197581,259.329032 302.197581,256.058065 C302.197581,252.787097 300.100806,250.606452 297.217742,250.606452 L297.217742,250.606452 Z M296.169355,260.146774 L294.596774,260.146774 L294.596774,252.514516 L297.217742,252.514516 C299.052419,252.514516 300.100806,253.059677 300.100806,254.695161 C300.100806,256.058065 299.314516,256.603226 298.004032,256.603226 L299.83871,259.874194 L298.266129,259.874194 L296.431452,256.603226 L295.645161,256.603226 L295.645161,260.146774 L296.169355,260.146774 Z M296.169355,255.512903 L297.479839,255.512903 C298.266129,255.512903 298.790323,254.967742 298.790323,254.422581 C298.790323,253.604839 298.266129,253.604839 297.479839,253.604839 L296.169355,253.604839 L296.169355,255.512903 L296.169355,255.512903 Z" id="Shape"></path>
                </g>
            </g>
        </g>
    </g>
</svg>
