<svg width="512" height="512" viewBox="0 0 512 512" xmlns="http://www.w3.org/2000/svg"><title>baltimore-ravens</title><g fill="none"><path d="M504.484 284.01c-2.023-12.273-10.132-30.311-37.321-46.537a132.024 132.024 0 0 0-5.75-3.214l10.349-3.466-30.136-11.732c-2.58-1.002-5.283-1.908-8.022-2.789 1.993-2.014 4.092-4.145 4.092-4.145l-23.107-3.229c-9.984-1.401-17.854-1.72-23.889-1.634a36.496 36.496 0 0 0-.243-2.673l-3.849-28.878s-8.94 12.182-9.832 13.392a59.88 59.88 0 0 0-6.526-8.923l-24.923-28.13s.999 8.275 1.79 14.88a149.891 149.891 0 0 0-26.794-14.86c-40.09-17.161-90.798-20.73-139.122-9.792-40.41 9.15-98.764 32.998-147.225 94.657L6 272.53l42.103-16.742c.34-.131 32.838-12.779 59.05-16.469 9.776-1.376 17.26-1.487 11.185 11.879-4.792 10.542-15.674 25.938-15.78 26.09l-21.084 30.609 35.166-12.192c16.92-5.866 32.098-8.756 39.78-9.03 2.743.051 3.245 1.853 2.383 3.827-.248.678-.395 1.038-2.292 3.943l-22.053 31.419 36.17-12.936c26.252-9.399 60.763-15.583 73.11-10.877 1.005.38 4.265 2.106 1.035 6.843l-14.208 22.562s20.973-3.183 23.954-3.639c1.648 20.599 12.003 31.83 13.276 33.125l15.242 15.603 5.345-21.125c3.844-15.198 11.085-23.488 17.54-27.993l1.242 8.675 14.117-5.081c11.886-4.287 21.282-9.434 28.052-15.305 8.955-.713 30.825-2.009 51.834.071 36.21 3.568 60.494-1.235 67.081-2.794 8.803-2.08 16.227 1.67 16.308 1.711l10.76 5.846 5.811-10.882c.685-1.31 3.97-8.097 3.97-18.174 0-2.49-.202-5.01-.613-7.485" fill="#FFF"/><path d="M499.44 286.102c-1.79-10.881-9.169-26.96-34.178-41.89-6.688-3.978-13.95-7.38-21.297-10.27l8.854-2.97-12.165-4.742c-6.024-2.344-12.358-4.277-18.884-5.851 1.253-1.265 2.612-2.652 2.612-2.652l-9.326-1.31c-14.36-2.005-24.268-1.772-30.1-1.23.05-1.25.092-2.582.092-3.923 0-1.873-.066-3.72-.27-5.213l-1.556-11.666-6.49 8.847c-1.877-5.198-4.945-11.64-10.558-17.982l-10.07-11.372 1.135 9.494c-9.051-8.396-21.576-17.222-38.756-24.576-38.964-16.676-88.363-20.123-135.517-9.454-39.516 8.943-96.588 32.284-144.025 92.643l-11.957 15.223 18.001-7.166c.335-.132 33.817-13.366 61.032-17 10.68-1.417 18.042-.152 20.74 3.558 2.52 3.482 1.704 10.37-2.201 18.447-5.35 11.079-16.287 26.986-16.394 27.148l-9.02 13.083 15.04-5.213c19.816-6.873 44.79-11.96 50.585-8.179 1.334.876 2.054 1.903 2.333 3.345.928 4.803-3.21 12.086-4.741 14.268l-9.437 13.427 15.471-5.532c24.72-8.842 69.044-18.984 82.735-8.508 6.338 4.854.416 14.434.157 14.834l-6.08 9.667 11.283-1.721s2.784-.43 5.527-.85c-.036.88-.091 1.776-.091 2.616 0 21.813 11.049 33.408 11.581 33.955l6.521 6.67 2.287-9.034c6.42-25.39 21.602-34.177 30.07-37.163.233 1.685 1.41 9.905 1.41 9.905l6.04-2.172c14.806-5.34 23.097-11.19 27.655-15.583 6.815-.597 31.774-2.48 55.743-.121 35.298 3.492 58.76-1.144 65.11-2.642 11.708-2.763 21.215 2.288 21.322 2.333l4.645 2.53 2.49-4.666c.157-.293 3.164-6.123 3.164-14.955 0-1.979-.152-4.12-.523-6.387" fill="#D2AA41"/><path d="M462.157 249.482c-10.445-7.37-24.507-12.734-38.152-16.565 5.684-1.832 11.374-1.71 11.374-1.71-8.742-3.336-17.875-5.421-26.363-6.737l3.179-2.844c-15.552-2.647-26.409-2.445-32.849-1.777.807-3.178 1.466-8.037.63-14.525 0 0-1.877 5.592-6.456 9.064-.603-7.257-2.926-17.754-10.816-24.875l1.46 12.81c-6.952-10.451-20.181-23.813-45.195-35.489-67.99-31.722-187.802-19.697-253.565 65.08 0 0 25.572-12.758 61.006-13.598 18.56-.436 23.073 9.94 16.308 27.425-6.795 17.572-18.721 32.988-18.721 32.988s80.184-28.357 54.866 11.034c0 0 60.535-18.084 78.688 3.132 8.443 9.85-1.384 23.625-1.384 23.625l17.17-3.714c-5.568 21.772 4.178 35.675 4.178 35.675 7.089-28.458 31.799-36.035 40.546-37.467l1.891 7.703c14.66-5.289 21.551-10.912 25.491-15.553 31.043-4.874 52.128-.703 76.057.597 34.856 1.898 52.878-4.165 58.633-4.124 4.23.04 9.24 3.715 9.24 3.715s14.487-24.405-27.216-53.87" fill="#000"/><path d="M433.543 295.772c17.362-.096 30.349-1.66 40.571-4.039-37.721-16.134-111.567-23.033-123.012-22.101 0 0-6.247 1.76.948 8.66-10.065-3.959-20.105-11.5-20.805-15.316-.735-4.048 6.612-5.187 24.025-3.148 65.175 7.688 121.588 18.575 129.214 34.517 0 0 3.976-19.956-28.523-38.955-27.803-18.498-70.52-21.53-70.52-21.53l10.786 8.685-20.075-1.736 15.897 11.473c-17.063-5.567-63.005-20.593-101.081-11.093 0 0 41.783-.466 60.844 10.89-70.57-11.493-107.257 12.972-107.257 12.972 39.689-11.321 71.371-8.198 81.771-6.65-16.698 3.978 2.962 16.18 14.97 22.552 1.363 3.346 4.654 10.178 1.434 15.927 0 0 3.62-4.6 6.253-11.357l9.77 7.83c29.153-3.599 50.653 2.535 74.79 2.42" fill="#FFF"/><path d="M300.088 169.552c-77.157-22.982-157.671-.749-202.365 41.967 0 0 44.988-14.13 58.486-.248 15.684 16.14-8.087 54.097-8.087 54.097l15.552-2.43c-1.121.127-1.765.214-1.765.214 12.155-42.432 23.118-57.307 30.46-64.585 4.361-5.314 12.084-8.917 18.27-11.018-41.585 1.98-82.01 10.522-82.01 10.522 26.15-20.254 86.767-34.4 121.715-30.847 34.942 3.563 32.564 17.709 28.969 25.776-2.906 6.519-17.18 15.36-30.607 18.22 13.899 1.807 21.774 12.51 16.79 23.2a25.15 25.15 0 0 1-1.446 2.657 150.1 150.1 0 0 0-38.797 15.178c-.375.223-.755.44-1.13.658a90.24 90.24 0 0 0-1.512.88c-.375.223-.76.446-1.146.684-.466.283-.928.572-1.394.855-.38.243-.766.481-1.141.724-.441.273-.872.557-1.308.84-.37.238-.746.48-1.116.729-.41.288-.821.562-1.227.84-8.874 6.088-15.319 12.187-18.66 16.92 0 0 90.878-18.373 75.133 27.304l23.468-6.413c-1.653 2.88-4.27 6.185-7.84 10.148-11.094 12.303-10.329 24-10.329 24s3.256-12.8 24.254-21.571c19.147-7.986 23.564-21.565 23.564-21.565s6.379 9.408 1.156 22.587c0 0 8.818-2.201 16.708-13.002 3.22-5.744-.076-12.571-1.44-15.922-12.007-6.372-31.662-18.569-14.969-22.547-10.395-1.548-42.077-4.671-81.771 6.645 0 0 36.692-24.465 107.257-12.966-19.061-11.362-60.84-10.891-60.84-10.891 14.539-3.63 30.218-3.68 44.999-2.05a200.828 200.828 0 0 0-23.513-5.006c-14.513-1.72-28.371-.951-41.15 1.402 14.36-14.869 40.516-12.92 40.516-12.92-17.439-11.727-40.191-7.977-40.191-7.977 25.506-13.169 53.857-8.71 53.857-8.71-8.915-11.747-29.964-14.338-29.964-14.338 41.728-1.685 56.347 20.204 56.347 20.204-10.405-4.525-17.809-3.841-17.809-3.841s10.025 1.624 16.815 14.287c7.19 13.417 13.29 13.037 13.29 13.037s11.43-43.236-64.079-65.728" fill="#2C2D8B"/><path d="M217.624 256.896c.436-.283 2.069-1.32 2.449-1.564.461-.283.923-.572 1.39-.855.385-.238.77-.46 1.15-.683.502-.299 1-.593 1.512-.881.375-.218.75-.435 1.125-.658a150.172 150.172 0 0 1 38.797-15.178 24.904 24.904 0 0 0 1.445-2.657c4.985-10.69-2.885-21.393-16.79-23.2 13.428-2.86 27.702-11.701 30.613-18.22 3.595-8.067 5.968-22.213-28.975-25.77-34.942-3.559-95.564 10.587-121.714 30.841 0 0 40.43-8.543 82.015-10.522-6.186 2.1-13.909 5.704-18.27 11.018-7.342 7.278-18.31 22.153-30.465 64.585 0 0 .649-.087 1.765-.213 5.212-.658 20.886-2.54 30.17-3.016l15.64-.896c1.693 0 3.432-.061 5.207-.157.198-.132.395-.273.588-.405.41-.278.821-.552 1.232-.835.365-.253.74-.496 1.116-.734" fill="#FFF"/><path d="M238.12 204.099a19.831 19.831 0 0 1-1.715 3.026c5-1.488 8.874-4.246 10.776-7.54 4.183-7.294.973-12.527-5.776-13.24l-7.013.02s-1.212.997-3.433 4.342c8.164.07 11.48 4.14 7.16 13.392m-12.117 34.83c-1.318 2.844-3.098 5.03-5.096 6.72 5.289-1.305 11.004-4.468 14.158-11.23 5.187-11.144.563-15.815-7.748-15.815h-10.34a161.145 161.145 0 0 0-2.226 4.514h3.499c8.321 0 12.94 4.671 7.753 15.81" fill="#000"/><path d="M220.904 245.652c1.998-1.69 3.778-3.876 5.096-6.72 5.193-11.14.573-15.811-7.748-15.811h-3.504c-5.765 12.182-9.35 23.341-9.35 23.341h8.924c1.932 0 4.214-.212 6.582-.81m15.499-38.525a20.079 20.079 0 0 0 1.714-3.026c4.32-9.257 1.004-13.321-7.155-13.392-2.15 3.24-5.248 8.68-9.127 17.592h6.262c2.987 0 5.786-.43 8.306-1.174" fill="#2C2D8B"/><path d="M276.124 181.834c-3.265-5.35-11.236-8.518-25.394-9.237 0 0-14.34-1.943-32.478.481-7.18.957-42.078 4.5-71.788 18.98 25.978-6.317 56.692-8.63 76.138-9.333 8.18-.294 17.16-.036 17.16-.036 5.816 0 11.206 1.716 13.27 5.102 2.145 3.507 2.738 7.703-1.293 12.84-2.216 2.824-4.817 5.805-12.378 8.877l8.707-1.858c13.022-2.773 24.847-10.076 27.565-15.74 1.982-4.134 2.099-7.45.491-10.076" fill="#D2AA41"/><path d="M213.095 214.982h14.35c7.409 0 10.811 3.027 12.368 5.588 2.444 3.993 2.013 9.378-1.02 16.13-5.836 13.006-19.988 14.18-24.238 14.18l-16.282.623c7.059-22.355 14.822-36.52 14.822-36.52m7.464 40.037c10.355-6.377 23.316-12.45 38.117-16.56a21.734 21.734 0 0 0 2.384-3.952c1.485-3.183 1.658-7.141.598-10.274-1.597-4.747-4.782-7.91-14.812-10.259-13.199-3.072-32.478-1.72-32.478-1.72 4.437-10.75 7.743-17.036 11.064-22.487-2.85-.182-17.23 1.341-28.27 11.858-9.614 8.483-19.999 30.518-28.269 56.755 14.213-1.488 27.098-2.166 27.098-2.166l13.514-.577c3.55 0 7.282-.192 11.054-.618" fill="#D2AA41"/><path d="M340.899 219.153c2.16 5.117-.822 10.795-6.663 12.693-5.847 1.898-12.338-.718-14.498-5.835-2.17-5.122.817-10.805 6.658-12.693 5.837-1.898 12.332.718 14.503 5.835" fill="#DA2128"/><path d="M325.87 226.678c-1.628-3.846.72-8.164 5.243-9.631a9.944 9.944 0 0 1 5.203-.263c-2.257-1.423-5.314-1.868-8.18-.937-4.533 1.463-6.875 5.775-5.243 9.642 1 2.373 3.286 4.018 5.943 4.585-1.313-.825-2.363-1.979-2.966-3.396" fill="#FFF"/><path d="M340.366 222.272c1.182 3.062-.507 6.493-3.772 7.662-3.25 1.16-6.836-.374-8.017-3.451-1.177-3.062.522-6.484 3.767-7.643 3.26-1.174 6.846.365 8.022 3.432" fill="#000"/></g></svg>