<svg width="512" height="512" viewBox="0 0 512 512" xmlns="http://www.w3.org/2000/svg"><title>cincinnati-bengals</title><g fill="none"><path d="M417.244 246.774c18.098-13.411 27.848-30.614 27.848-57.184 0-31.453-22.491-75.59-110.436-75.59H112.078l-51.35 89.442h37.7a7.6 7.6 0 0 1 7.612 7.604v89.288a7.6 7.6 0 0 1-7.611 7.604H58l51.888 89.134 233.87-.028c77.333 0 110.766-40.352 110.766-83.649 0-28.683-16.258-51.923-36.952-62.473-2.126-1.077-1.86-3.008-.328-4.148z" fill="#FFF"/><path d="M283.373 234.73h-37.924v-36.506c.036-3.825 3.128-6.91 6.961-6.91h30.963c18.167 0 24.914 9.261 24.914 21.351 0 12.817-6.747 22.065-24.914 22.065m0 83.982H252.41a6.957 6.957 0 0 1-6.96-6.96v-36.456h37.923c18.167 0 24.914 8.905 24.914 21.359 0 12.802-6.747 22.057-24.914 22.057m108.233-66.5c-2.771-.662-2.322-4.06-.292-4.83 25.042-9.475 39.654-26.338 39.654-56.068.35-39.861-34.88-67.262-92.168-67.262H121.7L83.605 191.35h26.218c5.179 0 9.368 4.197 9.368 9.376v108.59c0 5.172-4.189 9.361-9.368 9.361H83.897l38.379 66.97 226.847-.029c64.761 0 91.45-43.053 91.45-74.735 0-27.835-20.512-51.865-48.967-58.67" fill="#FB4F13"/><path d="M195.557 366.635c-40.253-75.668-50.833-162.671-35.836-242.578h-38.023l-38.094 67.29h26.218c5.18 0 9.368 4.196 9.368 9.375v83.32c19.535 31.703 47.834 62.067 76.367 82.593zm189.836-235.083c-46.066 68.322-71.03 155.41-59.823 234.734 13.728-66.727 49.543-128.353 105.326-172.995.015-.662.072-1.303.072-1.98.235-27.472-16.43-49.03-45.575-59.76zm-77.228-7.495c-7.224 18.922-14.812 41.756-21.195 67.39a48.152 48.152 0 0 0-3.598-.136h-30.963a6.959 6.959 0 0 0-6.96 6.91v36.506H278c-2.144 13.087-3.89 26.645-5.037 40.573H245.45v36.449a6.957 6.957 0 0 0 6.96 6.96h19.008c.285 21.85 2.237 44.271 6.327 66.905h-28.306c-22.32-53.917-53.048-145.138-22.484-261.557h81.21z" fill="#000"/></g></svg>