<svg width="512" height="512" viewBox="0 0 512 512" xmlns="http://www.w3.org/2000/svg" xmlns:xlink="http://www.w3.org/1999/xlink"><title>cleveland-browns</title><defs><path id="a" d="M282.344 279.33H.084V.148h282.26z"/><path id="c" d="M282.344 279.33H.084V.148h282.26z"/><path id="e" d="M282.344 279.33H.084V.148h282.26z"/></defs><g fill="none" fill-rule="evenodd"><path d="M238.243 275.315c4.663 4.976 11.603 12.036 16.803 17.037-1.18-7.482-1.462-15.178.09-22.293a42.607 42.607 0 0 1 4.924-12.614l-4.429-9.769a447.57 447.57 0 0 0-4.519 6.943c0-.011-6.314 10.093-12.87 20.696m20.753 33.725c-4.376-2.558-8.765-6.002-13.073-10.675-.062-.065-7.317-6.983-13.622-13.292a7068.058 7068.058 0 0 0-6.58 10.657l14.043 9.221c3.013 1.99 6.383 4.35 6.526 8.753.128 4.536-3.801 9.825-5.077 11.535-1.648 2.192-6.854 8.378-13.614 4.074 0 0-9.805-6.093-16.717-10.224l-5.325 7.882 55.238 8.805c-1.195-8.738-4.07-16.717-5.812-23.685 3.042 6.54 6.206 14.893 7.994 24.032l4.516.72c-.472-2.325-.971-4.429-1.364-6.231-.822-3.768-4.17-11.79-7.133-21.572m19.018-69c8.064-4.362 13.029-6.732 25.814-8.366-.052.005 3.183-.442 3.183-.442 2.175-.326 6.325-1.187 7.523-3.353.679-1.232.939-2.876.848-4.853-13.635 2.855-27.883 6.272-40.213 11.29-4.255 1.54-7.635 3.726-10.948 5.861.976 2.155 2.142 4.733 3.462 7.644a49.63 49.63 0 0 1 8.871-6.803c.461-.345 1.46-.978 1.46-.978" fill="#ff3c00" fill-rule="nonzero"/><path d="M205.276 384c-13.57-.567-29.522-6.226-40.953-12.119-5.575-3.223-18.874-10.19-24.189-10.474 6.114 1.35 18.866 8.504 23.388 11.541 9.83 5.361 26.308 12.872 41.75 13.446 37.032 2.316 57.745-17.812 58.832-38.709l-3.051-.508c-2.997 26.465-31.051 39.146-55.777 36.823m55.518-48.224l2.182.347c-1.788-9.139-4.952-17.491-7.994-24.032 1.742 6.968 4.617 14.947 5.812 23.685m-83.533-37.23c-3.975-.024-7.657 1.48-10.37 4.243-6.022 6.134-5.59 16.709.948 23.565 3.33 3.5 7.831 5.523 12.343 5.555a14.4 14.4 0 0 0 4.722-.726l9.895-14.647c-.082-4.382-1.822-8.912-5.195-12.44-3.33-3.493-7.83-5.522-12.343-5.55" fill="#311d00" fill-rule="nonzero"/><path d="M156.534 341.866c13.889 17.812 38.333 17.895 50.665 4.837-5.245 2.57-27.162 16.98-50.665-4.837m72.488 2.687c4.785-.012 8.12 6.135 4.127 10.266 1.734-3.728.316-8.474-4.259-8.672-4.752-.186-6.327 4.58-5.499 7.078-1.606-1.514-1.056-8.645 5.63-8.672zm2.38 5.34c-1.035-1.156-3.636-1.698-5.132-.695-.67.413-1.366-.13-.51-1.003 1.681-1.472 4.812-1.39 6.246.741.72 1.081-.049 1.813-.604.957zm-3.179 8.127c-2.213 0-4.002-1.81-4.002-4.054 0-2.234 1.789-4.052 4.002-4.052 2.207 0 4 1.818 4 4.052 0 2.244-1.793 4.054-4 4.054zm-4.3-1.974c.763 1.667 2.404 2.827 4.321 2.827a4.731 4.731 0 0 0 3.476-1.514 7.344 7.344 0 0 0 4.456-6.73 7.362 7.362 0 0 0-7.328-7.395c-4.06-.007-7.357 3.28-7.369 7.342-.008 2.179.948 4.117 2.444 5.47z" fill="#311d00" fill-rule="nonzero"/><path d="M225.76 348.195c-.856.873-.16 1.416.51 1.003 1.496-1.003 4.097-.461 5.132.695.555.856 1.323.124.604-.957-1.434-2.13-4.565-2.213-6.246-.741" fill="#FFF" fill-rule="nonzero"/><path d="M228.89 346.147c4.575.198 5.993 4.944 4.26 8.672 3.991-4.131.657-10.278-4.128-10.266-6.687.027-7.237 7.158-5.63 8.672-.83-2.498.746-7.264 5.498-7.078" fill="#FFF" fill-rule="nonzero"/><path d="M228.189 357.134a3.197 3.197 0 1 1 0-6.395 3.199 3.199 0 0 1 0 6.395zm4.034-3.168c0-2.234-1.793-4.052-4-4.052-2.213 0-4.002 1.818-4.002 4.052 0 2.244 1.789 4.054 4.002 4.054 2.207 0 4-1.81 4-4.054z" fill="#FFF" fill-rule="nonzero"/><path d="M225.826 354.044c.09-.41.276-.21.365.105.872 1.378 3.298 1.487 4.034.42.378-.54.372.2.372.2-1.526 3.012-5.007 1.109-4.77-.725zm2.363-3.305a3.197 3.197 0 1 0 0 6.395 3.199 3.199 0 1 0 0-6.395z" fill="#311d00" fill-rule="nonzero"/><path d="M230.225 354.569c-.736 1.067-3.162.958-4.034-.42-.09-.315-.276-.515-.365-.105-.236 1.834 3.245 3.737 4.771.726 0 0 .006-.742-.372-.201" fill="#FFF" fill-rule="nonzero"/><path d="M169.226 366.178c4.91-6.39-4.643-13.832-8.413-7.92 3.145-9.653 15.816 2.468 8.413 7.92zm-1.213-5.038c-.483-1.046-2.059-2.387-2.94-2.556-.892-.172-.552-1.62.52-1.25.992.345 2.53 1.65 2.908 2.276.984 1.617-.062 2.434-.488 1.53zm-6.592 4.383c-1.718-1.81-2.012-4.316-.66-5.603 1.354-1.275 3.834-.857 5.55.956 1.718 1.814 2.012 4.326.661 5.602-1.347 1.288-3.833.857-5.551-.955zm.447-11.679c-1.843 1.305-2.644 3.894-2.29 6.493-.827 1.608-.326 3.976 1.374 5.769 1.828 1.931 4.393 2.51 6.045 1.477 1.486.122 2.917-.207 3.973-1.094 2.636-2.194 2.755-6.507.33-9.96-2.426-3.436-6.65-4.644-9.432-2.685z" fill="#311d00" fill-rule="nonzero"/><path d="M165.592 357.333c-1.071-.369-1.41 1.079-.519 1.251.881.169 2.457 1.51 2.94 2.556.426.904 1.472.087.488-1.53-.379-.627-1.916-1.931-2.909-2.277" fill="#FFF" fill-rule="nonzero"/><path d="M160.813 358.259c3.77-5.913 13.323 1.53 8.413 7.919 7.403-5.452-5.268-17.573-8.413-7.92" fill="#FFF" fill-rule="nonzero"/><path d="M166.264 366.089c-1.124.83-3.02.15-4.412-1.13-1.503-1.377-1.623-3.5-.59-4.504 1.152-1.108 3.206-.413 4.435.994.997 1.145 1.854 3.662.567 4.64zm.047-5.213c-1.716-1.813-4.196-2.23-5.55-.956-1.352 1.287-1.058 3.793.66 5.603 1.718 1.812 4.204 2.243 5.551.955 1.35-1.276 1.057-3.788-.661-5.602z" fill="#FFF" fill-rule="nonzero"/><path d="M165.314 365.537c-2.3.22-4.362-2.576-3.514-3.814 0 0 .63-.868.745-.064.202 1.37 1.649 2.808 3.02 3.172.331.08.439.58-.251.706zm-4.053-5.082c-1.032 1.004-.912 3.127.591 4.505 1.392 1.279 3.288 1.96 4.412 1.129 1.287-.978.43-3.495-.567-4.64-1.229-1.407-3.283-2.102-4.436-.994z" fill="#311d00" fill-rule="nonzero"/><path d="M162.545 361.659c-.116-.804-.745.064-.745.064-.848 1.238 1.213 4.033 3.514 3.814.69-.126.582-.627.252-.706-1.372-.364-2.819-1.803-3.02-3.172m-11.518 11.892c.455-.32.929-.664 1.292-.931-6.3-4.021-14.11-6.649-26.807-2.458-.197.065-.38.118-.571.179 3.051-.616 7.27-1.32 9.904-1.138 3.36.243 8.29.729 12.968 3.689l-2.343 1.275c-11.072 5.376-20.42 6.876-25.705 7.247-5.192.373-4.191-2.665-.772-4.394 1.884-.956 3.472-2.774 4.166-6.106-.567.291-.567.17-1.396.325l-.093.021c-1.136 8.166-17.093 7.324-15.328-3.793 0 0-2.297-4.719-3.612-7.458.026.113-.328-1.719-.15-1.757 0 0 3.903 6.329 5.51 8.336-2.154 7.587 8.923 10.748 11.896 5.037-9.766 1.82-10.132-3.177-9.99-4.851-.081-.247-.138-.518-.2-.784-1.702-1.732-7.23-9.085-13.526-20.632-.845 6.73 6.773 22.294 7.402 23.827l.652 1.61c-2.3 6.373 4.325 14.726 16.226 12.806 11.711-1.106 24.864-6.018 30.477-10.05" fill="#FFF" fill-rule="nonzero"/><path d="M317.237 352.85s-.706.117-1.946.256l.76 1.507a48.89 48.89 0 0 0 1.599 2.795 40.244 40.244 0 0 0 3.604-4.98c-1.359.144-2.708.287-4.017.422m5.739-38.262c1.122 8.828.847 17.982-1.663 26.193 1.709-.163 3.4-.333 5.077-.511 1.073-3.972 1.715-8.168 1.947-12.518.006-.402.013-.8.015-1.184l37.972 6.46s-2.498-5.65-3.162-7.562l-34.885-5.992c-.012-.372-.028-.74-.045-1.105a84.04 84.04 0 0 0-.417-4.306c-1.626.183-3.24.357-4.839.525m-63.981-5.548c2.963 9.783 6.311 17.804 7.133 21.572.393 1.802.892 3.906 1.364 6.231l5.81.927a57.454 57.454 0 0 0-.053-1.118c6.397-4.618 11.333-12.196 13.989-19.267l-.446-.98c-.313-.019-.629-.037-.937-.057-6.69-.376-14.012-1.368-21.484-4.593 1.891 7.182 3.825 14.134 4.896 20.632-1.322-5.581-4.37-13.141-7.167-21.687a50.289 50.289 0 0 1-3.105-1.66m-3.949-16.688c.79.76 1.554 1.488 2.248 2.138.192.15.38.291.571.44-2.246-11.559-2.331-23.731 3.486-34.639l-1.291-2.846a42.607 42.607 0 0 0-4.924 12.614c-1.552 7.115-1.27 14.81-.09 22.293" fill="#311d00" fill-rule="nonzero"/><path d="M319.035 283.707c-2.3-10.713.14-30.617 7.944-36.301-11.15 1.35-14.255 29.322-7.944 36.3" fill="#FFF" fill-rule="nonzero"/><g fill-rule="nonzero"><path d="M281.652 305.066l-19.184-42.311c-4.405 11.14-3.763 22.897-1.533 34.443 6.084 4.278 11.85 6.868 20.717 7.868" fill="#311d00"/><path d="M410.341 386.386c.665-2.94.536-7.604.536-7.604 23.56-5.063 1.192-7.192 1.192-7.192 5.201 1.599 5.058 3.457 5.058 3.457-2.262.134-6.25-1.064-6.25-1.064.129-1.466-.261-7.463-.261-7.463 6.118 2.665 7.097 1.902 13.44 3.327 6.512 1.471 3.323 4.136 3.323 4.136-3.323 4.134-15.567 5.866-15.567 5.866 20.498-2.67 18.627-8.259 18.627-8.259 8.385 5.461.129 9.324-4.12 10.52-3.772 1.07-15.978 4.276-15.978 4.276zm-11.343-15.03c.19 2.764.274 4.54.277 4.588-.01 2.314-1.305 3.146-1.496 3.262-29.404 7.975-64.369 3.924-80.13-21.798a49.162 49.162 0 0 1-1.599-2.795l-.759-1.507c1.24-.139 1.946-.256 1.946-.256 1.31-.135 2.658-.278 4.017-.422 15.766-1.694 34.555-4.18 50.8-6.973 7.173 12.893 16.978 21.312 26.944 25.9zm-14.96-28.122c3.293-.66 6.405-1.33 9.223-2.002.714-.194 1.01.01 1.11.08.522.374.721 1.338.742 1.638l.012.113.027.103c1.059 3.762 1.876 8.785 2.493 13.764-5.278-3.867-9.918-8.506-13.608-13.696zm-9.765 2.234c1.468-.271 7.499-1.609 7.499-1.609 6.384 9.593 16.638 16.524 16.638 16.524.263 2.406.482 8.541.482 8.541-16.1-7.875-24.619-23.456-24.619-23.456zm26.934 41.953s.099.211-2.693 1.146c-17.228 4.435-35.699 4.698-51.25.583-14.115-3.73-30.812-11.919-40.08-32.457 0 0-1.188-2.233-1.45-3.301 0 0 4.737.09 7.845-.167 14.383 30.837 51.468 36.582 83.244 28.442 0 0 2.904-.5 3.722-1.378.662-1.528.59-5.462.59-5.462-.04-.897-.774-19.885-4.274-32.518-.31-1.329-.734-2.154-1.073-2.465 0 0-.956-.402-1.639-.42-1.701-.064-3.931.409-3.931.409-19.603 4.667-49.92 8.54-73.854 10.965-.04 0-1.875.283-5.11.419l-2.584.073c-4.54.05-10.977-.23-19.086-1.518 0 0-89.266-14.535-88.898-14.545l4.775-6.54s85.933 14.124 85.951 14.124c13.1 1.962 19.191 1.019 19.353.985 23.157-1.288 65.974-7.64 76.325-10.401 0 0 5.6-1.326 6.308-2.04.457-.463-.698-4.668-.698-4.668-.047-.139-4.244-13.868-6.344-19.158l.031.11c-.05-.215-.963-3.15-1.92-3.595l-.701.012s-1.238.242-2.745.583c-20.178 3.671-57.04 8.824-78.702 10.132 1.872-.116-8.766.379-17.037-.194-11.774-.662-24.842-3.588-37.838-17.703-.141-.142-14.52-13.85-20.308-20.198-1.444-2.053-.678-4.315.84-5.508 1.07-.856 3.197-1.241 4.386.147 2.542 3.4 17.08 18.436 24.26 25.157 7.967 6.217 13.697 9.464 24.818 10.72 6.023.716 13.128.616 13.48.626 14.657.37 68.065-6.166 83.768-9.265 1.992-.263 3.187-.733 3.187-.733l-.03-.303.091-.662c.028-.23.932-.955 1.688-1.297 1.438-.662 3.367-.675 4.976.64 11.198 20.66 22.264 59.023 19.704 88.007-.142 1.537-.764 2.785-1.943 3.386 0 0-2.563 1.16-5.154-.17zM195.293 335.45c-1.713-.109-3.474-1.207-4.102-2.537-.39-.802-.3-1.618.273-2.433l11.179-17.08c.704 1.352 6.32 4.72 6.32 4.72-2.358 3.488-10.761 16.002-10.771 16.013-.78 1.193-2.007 1.377-2.9 1.317zm10.22-29.58c3.104-4.369 4.612-6.869 5.278-8.028.673 1.47 2.729 2.662 2.729 2.662 5.208 3.271 16.17 9.908 19.325 11.661 3.393 1.89 4.073 2.793 4.073 2.793 3.932 3.743 3.186 7.455 1.268 10.052-2.179 2.924-6.354 4.788-9.837 2.474l-4.729-2.918.006-.013-1.71-1.033-14.689-9.013-.038-.03-.048-.028c-.023-.011-2.45-1.138-3.061-3.4-.41-1.522.073-3.258 1.434-5.18zm7.836-12.527c-.225 4.044 5.964 7.295 8.894 6.499l15.67 10.493c2.353 1.689 4.664 4.584 3.288 8.499-.2-3.662-4.747-6.563-4.747-6.563s-16.838-9.922-22.002-13.16c-2.957-1.854-2.657-4.42-1.103-5.768zm2.695-.642l.05-.061.039-.072c.131-.21 1.988-3.3 9.033-14.744 2.13 2.935 5.536 6.015 5.536 6.015l-8.564 13.592c-1.152.912-3.573-.023-5.086-1.48-.346-.336-2.006-2.053-1.008-3.25zm22.834 16.243c-3.07-2.063-15.04-10.038-15.04-10.038l1.271-1.228c5.4 3.48 12.5 8.139 15.567 10.473 5.5 4.173 2.526 9.191 2.526 9.191.553-3.016-.813-6.023-4.324-8.398zm69.545 32.994s-2.977.583-8.035.18c-2.392-4.528-5.034-10.692-11.791-25.499 4.601.528 8.072.042 8.072.042l11.754 25.277zm54.145-18.166l-34.364-6.015.028.613c.017.365.033.733.045 1.105l34.885 5.992c.664 1.913 3.162 7.562 3.162 7.562l-37.972-6.46c-.002.385-.01.782-.015 1.184l-.009.558 37.465 6.371c-12.504 2.13-25.48 4.112-39.403 5.589a466.49 466.49 0 0 1-5.077.51c2.51-8.21 2.785-17.364 1.663-26.192 1.598-.168 3.213-.342 4.84-.525a936.388 936.388 0 0 0 29.12-3.73c2.016 4.807 3.925 9.366 5.632 13.438zm12.268.955l-6.769-16.072a554.09 554.09 0 0 0 12.44-2.094l.072-.021.069-.019c.946-.315 1.736-.302 2.364.019.97.512 1.326 1.668 1.326 1.668l.017.064.026.046c1.502 3.794 4.228 11.94 5.65 16.235-5.783.232-11.091.237-15.195.174zm3.39 8.025l-2.663-6.135c8.917.143 15.348.054 15.348.054 1.069 3.952-2.612 4.093-2.612 4.093l-10.073 1.988zm-1.743.536c-1.194.534-7.041 1.378-7.041 1.378-1.402-2.657-10.26-24.35-10.26-24.35 1.054-.13 7.004-1.106 7.004-1.106 4.518 12.588 10.297 24.078 10.297 24.078zm-112.112-21.532c7.472 3.225 14.794 4.217 21.484 4.593.308.02.624.038.937.057l.446.98c-2.656 7.07-7.592 14.649-13.99 19.267.022.37.04.743.055 1.118l-5.81-.927-4.517-.72-2.182-.347-55.238-8.805 5.325-7.882c6.912 4.131 16.717 10.224 16.717 10.224 6.76 4.304 11.966-1.882 13.614-4.074 1.276-1.71 5.205-7 5.077-11.535-.143-4.403-3.513-6.763-6.526-8.753l-14.043-9.22c1.295-2.103 3.391-5.502 6.58-10.658 6.305 6.31 13.56 13.227 13.622 13.292 4.308 4.673 8.697 8.117 13.073 10.675a50.289 50.289 0 0 0 3.105 1.66c2.796 8.546 5.845 16.106 7.167 21.687-1.07-6.498-3.005-13.45-4.896-20.632zm-19.13-66.21c2.103-3.455 7.117-9.37 6.454-8.58 0 0-.142 1.76.794 3.648.755 1.508 2.281 5.292 2.281 5.292.256-.246-3.416 4.32-5.464 7.537l-12.343 20.267-3.321-3.65s-1.419-1.703-2.75-1.703c6.46-10.49 12.348-19.812 14.349-22.81zm17.227 17.21l19.184 42.31c-8.867-1-14.633-3.589-20.717-7.867-2.23-11.546-2.872-23.302 1.533-34.443zm-2.408-5.31l1.291 2.846c-5.817 10.908-5.732 23.08-3.486 34.639-.19-.149-.379-.29-.57-.44-.695-.65-1.459-1.377-2.25-2.138-5.199-5-12.139-12.061-16.802-17.037a4422.284 4422.284 0 0 1 12.869-20.696 447.564 447.564 0 0 1 4.52-6.943l4.428 9.769zm-6.012-21.7c.905-1.509 2.685-2.406 3.881-2.385.854.009 1.638.273 1.679.341l32.45 71.891s-4.485.204-7.993-.53c-13.825-30.264-30.017-65.72-30.037-65.762-.673-1.204-.662-2.394.02-3.554zm15.3-9.227c11.791-4.945 36.258-11.263 57.408-14.678 2.251-.31 4.123 1.24 4.368 2.865.206 1.445-.526 3.131-3.29 3.573l-1.284.254c-16.934 3.39-36.11 7.229-52.146 13.752-5.047 1.82-7.738 3.353-10.566 5.502 0 0-1.56-3.384-2.122-4.373-.892-1.582-1.014-1.74-1.76-2.16 2.316-1.561 5.322-3.032 9.391-4.735zm50.625-29.314l4.562 12.75-2.393.445s-2.967-8.189-4.835-13.857c-1.42-4.314-.401-6.407-.401-6.407l2.179-1.037c-.987 3.187.888 8.106.888 8.106zm.993-8.997l2.385-1.242s.2-.13.19-.095c-.132.264-.102.901-.102.901-.053.84-.02 1.266.88 3.7 1.406 3.812 8.772 19.1 9.625 21.325 4.26 11.063-6.745 13.112-7.89 8.222 11.707-.89 6.955-13.151.312-11.417-2.531-6.266-4.534-12.528-4.534-12.528s-2.593-6.798-.866-8.866zm15.421 31.744s5.593 0 8.435.046c0 0-2.094 3.951-10.966 3.328 0 0 2.402-1.636 2.531-3.374zm24.93-7.675l.093.032.086.013c1.399.202 2.226 2.008 2.091 3.503-.079.804-.56 2.63-3.317 2.63-2.491-.55-9.019-1.17-12.356-1.49 0-2.795-1.716-6.795-1.716-6.795 3.696.358 13.159 1.45 15.12 2.107zm20.629 81.52c-1.988.262-2.125 2.132-2.125 2.132-4.794 1.199-15.874 2.404-15.874 2.404l-2.273-5.198c11.58 1.597 20.272.662 20.272.662zm19.572-1.337c-2.001.801-11.321 1.99-11.321 1.99-1.252-1.022-2.503-1.164-2.834-1.185-.027-.001-.062-.001-.089-.004l.09.004c3.56.252 14.154-.805 14.154-.805zm9.38-.031c1.91.324 2.735 1.453 2.963 3 .092.583-.202 2.794-2.622 3.245l-.877.193c-2.184.68-6.554 1.71-10.923 2.532-2.71.518-5.21 1-4.987.87-.573-1.269-.975-2.577-2.635-5.806 4.805-.825 10.976-2.063 15.248-3.32 1.33-.401 3.833-.714 3.833-.714zm10.453 7.31c9.362 26.267 16.628 62.248 14.546 74.687 0-1.598-2.483-4.578-6.742-5.461 0 0 .085-1.64-.044-3.642-1.066-10.844-4.967-30.566-4.967-30.566 6.03-1.953 5.5-14.305-4.794-14.225-2.479-11.194-6.08-20.117-6.08-20.117 5.596-3.066 2.975-8.228-.092-9.16 0 0 5.598-1.199 8.173 8.483zm1.68 33.106s-3.056 1.558-17.17 4.084c0 0-1.15-4.399-1.68-6.659 0 0 11.932-2.486 16.586-4.226 0 0-.09-1.55-2.393-1.507 0 0-12.11 3.066-14.908 3.33l-.662-1.861s10.374-2 13.84-2.807c0 0 7.321-2.526 8.92 3.077 0 0 1.59 4.838-2.533 6.57zm-12.342-31.993c.003-.003.004-.007.009-.01l.407-.004c1.58 3.66 4.085 11.507 4.757 14.301l1.507 6.185c-4.861 1.135-10.207 1.912-15.557 2.435-2.09-6.997-4.438-13.594-6.929-19.43 12.052-1.689 15.806-3.477 15.806-3.477zm-.837 63.118c-.793-8.192-2.206-16.65-4.051-24.907 4.62-.852 13.177-3 16.308-3.797l.244 1.336c1.612 8.724 4.056 21.921 4.976 29.997a7.53 7.53 0 0 1-.134 2.002 21.996 21.996 0 0 0-2.982-.4c-4.934-.783-9.764-2.233-14.361-4.23zm28.92 4.664c-1.696-23.013-6.865-45.959-15.563-70.329l-1.055-2.526c-2.202-5.733-6.182-6.822-12.463-6.035l-5.45.597c-11.073.989-28.957 2.876-43.767.287l-20.217-47.993c-.18.002-.346.022-.52.032-.407.023-.8.061-1.175.113 5.493 13.04 23.56 55.853 23.56 55.853-3.47.626-7.28.885-7.28.885l-22.824-53.55a9.355 9.355 0 0 0-1.156 1.384 5.433 5.433 0 0 0-.192.307l16.19 38.634c-.966-.498-1.873-1.042-2.458-1.56-4.046-2.487-13.243-9.192-21.023-20.82 0 0-.045.178-.114.483-.09.39-.224 1.011-.374 1.835 10.767 16.558 25.258 22.756 25.258 22.756l3.589 8.802c-14.385-4.18-26.42-17.24-29.776-21.147 0 .356.006.716.013 1.08.007.315.013.626.026.946 8.154 10.324 18.837 17.668 30.194 21.542a1166.682 1166.682 0 0 1-26.38 3.063c-1.664.174-3.301.34-4.916.5-1.109-4.31-2.49-8.388-4.036-12.057-8.133-19.253-30.346-10.448-28.79 1.149-6.77-14.956-13.66-30.17-18.798-41.523 1.974-2.16 5.994-6.245 12.476-10.402-4.525 2.003-8.112 5.16-8.112 5.16a50.697 50.697 0 0 0-4.823 4.227l-1.134-2.505c-1.32-2.91-2.486-5.489-3.462-7.644 3.313-2.135 6.693-4.32 10.948-5.86 12.33-5.019 26.578-8.436 40.213-11.291.763-.16 1.518-.316 2.277-.471.416 6.807-3.029 9.406-8.955 10.637-3.862.797-7.008.931-8.603 1.467l3.675.129c.184.023 4.245-.03 9.893-1.947 3.699-1.38 6.487-3.868 5.3-10.558.634-.129 1.272-.263 1.899-.39 1.005 6.36.072 12.509-12.255 13.701 2.107 1.452 21.297-2.106 32.85.542.279.128 5.12 1.794-.41 4.214 10.714-2.384 11.305-13.072 9.27-21.01l.44.053c1.988.142 3.705.396 5.072.648l.016.024c1.032.11 2.28.253 3.567.42 7.983.8 7.249-8.645 3.058-9.862-3.198-.932-4.013-.956-4.817-1.094l-1.124-.127-9.963-22.215 5.519-2.554 14.244 25.725c6.616 10.506-4.353 14.838-10.395 11.675-.795.406-1.38.798-1.854 1.228 1.7 1.153 3.855 1.81 6.204 1.81 4.004 0 7.502-1.827 9.126-4.77 1.183-2.15 1.909-5.807-1.317-10.92l-15.136-27.339-12.094 5.34c.989.19 1.625.584 1.994 1.347l2.134-.856 9.354 21.15c-1.159-.234-4.351-.5-5.14-.563.012.036-2.327-.081-2.327-.081-2.032-6.27-4.687-14.24-6.506-18.906-1.037-.23-2.881-.26-3.345-.264.025.048.05.084.076.133 1.421 2.654 5.744 16.035 7.183 19.68 1.991 5.067 1.856 7.913 1.856 7.913l-9.298-.176c-.142-2.718-2.716-7.823-2.716-7.823l-3.454-6.99-.946-1.998-3.59-7.557-.03.01c-.388-.847-1.034-2.659-1.215-4.167-.624-4.889 4.183-4.889 4.31-4.886 2.491.045 4.53.965 6.538 3.796.447.007.887.013 1.289.017-2.898-5.774-4.528-7.55-6.447-10.747-36.112-51.52-96.136-66.745-149.013-53.88 67.006-9.812 118.115 19.035 143.614 62.151-2.13 1.06-5.66 2.827-7.308 3.717-.73-.017-3.471-.072-4.384.004-1.597.132-3.084.211-2.001 4 .803 2.8 1.097 3.461 1.732 5.2.754 2.076 3.187 8.346 4.959 13.682-.624.116-1.246.238-1.87.357a69.03 69.03 0 0 0-1.091-2.979c-2.08-5.303-4.59-12.188-5.327-14.528-.372-1.207-.934-3.513-.261-5.508 0 0-2.531 1.995-.272 7.376l5.723 15.873c-.774.15-1.544.305-2.316.46-17.362 3.485-34.353 8.085-43.898 12.085 0 0-7.148 2.586-12.216 6.723-.19.156-.275.286-.294.402-1.444.422-2.838 1.4-3.772 2.666-.713.56-2.355 1.88-3.083 2.704-2.007 2.317-3.766 4.366-6.008 7.452-1.959 2.918-8.996 14.064-15.28 24.241a5.793 5.793 0 0 0-1.563.872c-1.652 1.303-2.735 3.563-2.33 5.897-5.09 8.258-8.086 13.05-9.327 15.04-2.806.211-4.22 2.417-4.363 2.702-1.228 2.464-6.575 11.242-7.54 12.209-.568.567-1.84 2.919-1.289 5.599l-.478.945s-11.767 17.559-11.749 17.526c-1.012 1.432-1.168 3.038-.454 4.556.97 2.045 3.388 3.581 5.89 3.752 1.353.09 2.574-.252 3.547-.948a1466161.778 1466161.778 0 0 1 65.538 10.923l4.89.814c1.364.228 2.688.45 3.956.66-.612 7.195-2.402 13.497-5.138 18.945l1.094.145c17.249 1.403 29.537-1.665 38.04-7.433a62.289 62.289 0 0 0 2.324 4.046c8.274 13.203 20.916 21.97 37.452 26.351 16.981 4.485 36.256 4.044 54.828-1.406 2.219 1.132 4.338.441 5.798-.31.421-.22.796-.494 1.135-.804 20.072-4.576 23.493-6.244 24.72-7.369.146-.08.273-.168.405-.253 5.458-3.205 5.185-12.02 5.164-12.438z" fill="#FFF"/></g><path d="M217.315 312.664c-.53 6.658 5.542 7.626 8.95 6.368.74 5.394 5.43 5.533 7.696 5.172-2.838 1.8-8.306.588-9.32-4.477-4.29 1.309-9.146-2.152-7.326-7.063zm1.177-1.414c1.032-.867 1.853-1.256 3.392-1.18-.653 1.018-.898 2.547-.99 4.095-.318-.265-.57-.272-.885-.613l-.006 1.114c.204.362.526.472.933.747.013.975.056 1.718.24 2.371-.211-.07-.331-.249-.552-.35-3.196-1.8-2.132-6.184-2.132-6.184zm5.33-.987c2.287.726 3.953 2.736 3.84 4.796l.263.027c-.19 1.504-1.77 3.546-4.99 3.05-.169-.654-.184-1.305-.221-2.021a4.66 4.66 0 0 0 1.749.253c-.018-.294.062-.935.062-.935-.64-.053-1.207-.262-1.827-.536.058-1.74.426-3.328 1.124-4.634zm5.384 4.925c4.61-.137 8.211 4.475 5.898 7.86l-.84.14c-4.019.523-6.281-1.067-6.955-4.66.626-.452 1.655-1.689 1.897-3.34zm-5.4 5.927s.241.685.748 1.629l.004-.009c.447.822 1.195 1.595 2.035 2.103 6.173 3.67 9.571-1.006 9.604-1.049.028-.04 2.836-3.711-1.266-7.744-.109-.101-2.614-2.331-6.025-1.91-.358-1.409-2.14-5.37-7.258-5.204h-.037l-.034.012c-4.094.283-5.051 2.497-5.518 3.773 0 0-1.05 2.816.5 5.242.024.04 2.007 3.97 7.247 3.157z" fill="#FFF" fill-rule="nonzero"/><path d="M332.101 194.615c-1.357-.877-3.422-3.835-3.11-6.254 3.18.042 4.101 4.67 3.11 6.254m3.282 8.645c-1.6-1.585-2.418-3.34-2.575-5.886 2.503.523 4.046 3.65 2.575 5.886m-13.551-6.187s2.003 6.262 4.534 12.528c6.643-1.734 11.395 10.527-.311 11.417 1.144 4.89 12.149 2.841 7.889-8.222-.853-2.225-8.219-17.513-9.626-21.325-.9-2.434-.932-2.86-.88-3.7 0 0-.029-.637.104-.901.008-.036-.191.095-.191.095l-2.385 1.242c-1.727 2.068.866 8.866.866 8.866" fill="#311d00" fill-rule="nonzero"/><path d="M316.906 190.135s-1.018 2.093.401 6.407c1.868 5.668 4.835 13.857 4.835 13.857l2.393-.445-4.562-12.75s-1.875-4.92-.888-8.106l-2.18 1.037m27.917 29.862c-2.842-.046-8.435-.046-8.435-.046-.129 1.738-2.531 3.374-2.531 3.374 8.872.623 10.966-3.328 10.966-3.328m-111.18 50.062l3.321 3.65 12.343-20.267c2.048-3.217 5.72-7.783 5.464-7.537 0 0-1.526-3.784-2.28-5.292-.937-1.887-.795-3.647-.795-3.647.663-.791-4.351 5.124-6.454 8.58-2 2.998-7.889 12.32-14.35 22.81 1.332 0 2.75 1.703 2.75 1.703m167.877 22.401s-10.594 1.056-14.155.804c.331.021 1.582.163 2.834 1.184 0 0 9.32-1.188 11.32-1.989" fill="#311d00" fill-rule="nonzero"/><path d="M387.363 293.264l-.089-.004c.027.003.062.003.09.004m3.546 33.406s-6.43.089-15.347-.054l2.663 6.135 10.073-1.988s3.68-.141 2.612-4.093m-24.725-17.461s-5.95.976-7.005 1.106c0 0 8.86 21.693 10.26 24.35 0 0 5.848-.844 7.042-1.378 0 0-5.779-11.49-10.297-24.078m15.586 34.651s-6.03 1.337-7.499 1.608c0 0 8.519 15.581 24.619 23.456 0 0-.22-6.135-.482-8.541 0 0-10.254-6.93-16.638-16.524m48.667 27.731s1.87 5.589-18.627 8.259c0 0 12.244-1.732 15.567-5.866 0 0 3.189-2.665-3.323-4.136-6.343-1.425-7.322-.662-13.44-3.327 0 0 .39 5.997.261 7.463 0 0 3.988 1.198 6.25 1.064 0 0 .143-1.858-5.058-3.457 0 0 22.369 2.13-1.192 7.192 0 0 .129 4.665-.536 7.604 0 0 12.206-3.207 15.977-4.276 4.25-1.196 12.506-5.059 4.12-10.52m-141.841-54.972c6.757 14.807 9.399 20.97 11.791 25.5 5.058.402 8.035-.181 8.035-.181l-11.754-25.278s-3.471.487-8.072-.04m-4.532-11.557c3.508.734 7.993.53 7.993.53l-32.45-71.89c-.041-.069-.825-.333-1.679-.342-1.196-.02-2.976.876-3.881 2.386-.682 1.16-.693 2.35-.02 3.554.02.041 16.212 35.498 30.037 65.762" fill="#311d00" fill-rule="nonzero"/><path d="M408.304 384.205c2.56-28.984-8.506-67.347-19.704-88.006-1.609-1.316-3.538-1.303-4.976-.641-.756.342-1.66 1.067-1.688 1.297l-.092.662.031.303s-1.195.47-3.187.733c-15.703 3.099-69.111 9.636-83.768 9.265-.352-.01-7.457.09-13.48-.626-11.121-1.256-16.85-4.503-24.819-10.72-7.179-6.721-21.717-21.757-24.26-25.157-1.188-1.388-3.315-1.003-4.384-.147-1.519 1.193-2.285 3.455-.841 5.508 5.789 6.347 20.167 20.056 20.308 20.198 12.996 14.115 26.064 17.04 37.838 17.703 8.271.573 18.909.078 17.037.194 21.661-1.308 58.524-6.46 78.702-10.132 1.507-.341 2.745-.583 2.745-.583l.701-.012c.957.445 1.87 3.38 1.92 3.596l-.03-.11c2.1 5.29 6.296 19.018 6.343 19.157 0 0 1.155 4.205.698 4.668-.708.714-6.308 2.04-6.308 2.04-10.35 2.76-53.168 9.113-76.325 10.4-.162.035-6.253.978-19.353-.984-.018 0-85.95-14.125-85.95-14.125l-4.776 6.541c-.368.01 88.898 14.545 88.898 14.545 8.11 1.288 14.546 1.568 19.086 1.518l2.584-.073c3.235-.136 5.07-.419 5.11-.419 23.934-2.425 54.251-6.298 73.854-10.965 0 0 2.23-.473 3.931-.41.683.02 1.639.421 1.639.421.34.311.762 1.136 1.073 2.465 3.5 12.633 4.234 31.621 4.275 32.518 0 0 .07 3.934-.591 5.462-.818.878-3.722 1.378-3.722 1.378-31.776 8.14-68.86 2.395-83.244-28.442-3.108.257-7.844.167-7.844.167.261 1.068 1.45 3.3 1.45 3.3 9.267 20.54 25.964 28.729 40.079 32.458 15.551 4.115 34.022 3.852 51.25-.583 2.792-.935 2.693-1.146 2.693-1.146 2.591 1.33 5.154.17 5.154.17 1.179-.601 1.801-1.85 1.943-3.386" fill="#311d00" fill-rule="nonzero"/><path d="M216.06 312.716c.466-1.276 1.423-3.49 5.517-3.773l.034-.012h.037c5.119-.167 6.9 3.795 7.258 5.204 3.41-.421 5.916 1.809 6.025 1.91 4.102 4.033 1.294 7.705 1.266 7.744-.033.043-3.43 4.719-9.604 1.049-.84-.508-1.588-1.28-2.035-2.103l-.004.009c-.507-.944-.748-1.629-.748-1.629-5.24.814-7.223-3.117-7.247-3.157-1.55-2.426-.5-5.242-.5-5.242zm-8.919 1.732l.048.028.038.03 14.69 9.013 1.709 1.033-.006.013 4.729 2.918c3.483 2.314 7.658.45 9.837-2.474 1.918-2.597 2.664-6.31-1.268-10.052 0 0-.68-.902-4.073-2.793-3.156-1.753-14.117-8.39-19.325-11.661 0 0-2.056-1.193-2.73-2.662-.665 1.16-2.173 3.66-5.276 8.027-1.36 1.922-1.844 3.658-1.434 5.18.61 2.262 3.038 3.389 3.061 3.4zm33.535-6.298c-3.067-2.334-10.168-6.994-15.567-10.473l-1.271 1.228s11.97 7.975 15.04 10.038c3.51 2.375 4.877 5.382 4.324 8.398 0 0 2.974-5.018-2.526-9.19" fill="#311d00" fill-rule="nonzero"/><path d="M214.452 299.11c5.164 3.238 22.002 13.16 22.002 13.16s4.548 2.901 4.747 6.563c1.376-3.915-.935-6.81-3.288-8.5l-15.67-10.492c-2.93.796-9.12-2.455-8.894-6.499-1.554 1.348-1.854 3.914 1.103 5.769m12.858 19.418c.673 3.592 2.935 5.182 6.954 4.659l.84-.14c2.313-3.385-1.287-7.997-5.898-7.86-.242 1.651-1.271 2.888-1.897 3.34" fill="#311d00" fill-rule="nonzero"/><path d="M224.641 319.727c1.014 5.065 6.482 6.278 9.32 4.477-2.265.36-6.956.222-7.696-5.172-3.408 1.258-9.48.29-8.95-6.368-1.82 4.91 3.036 8.372 7.326 7.063m182.424-26.584c-4.272 1.256-10.443 2.494-15.248 3.319 1.66 3.229 2.062 4.537 2.635 5.805-.224.13 2.276-.35 4.987-.869 4.37-.822 8.739-1.852 10.923-2.532l.877-.193c2.42-.451 2.714-2.662 2.622-3.245-.228-1.547-1.052-2.676-2.963-3 0 0-2.504.313-3.833.715m9.579 30.055c-3.466.808-13.84 2.807-13.84 2.807l.662 1.862c2.799-.265 14.908-3.33 14.908-3.33 2.304-.045 2.393 1.506 2.393 1.506-4.654 1.74-16.585 4.226-16.585 4.226.53 2.26 1.678 6.659 1.678 6.659 14.115-2.526 17.17-4.084 17.17-4.084 4.124-1.731 2.535-6.569 2.535-6.569-1.6-5.603-8.921-3.077-8.921-3.077" fill="#311d00" fill-rule="nonzero"/><path d="M413.27 300.414s3.601 8.923 6.08 20.117c10.294-.08 10.825 12.272 4.794 14.225 0 0 3.901 19.722 4.967 30.566.129 2.002.044 3.642.044 3.642 4.26.883 6.742 3.863 6.742 5.461 2.082-12.44-5.184-48.42-14.546-74.688-2.575-9.682-8.173-8.483-8.173-8.483 3.067.932 5.688 6.094.092 9.16m-33.45-4.486s.138-1.87 2.126-2.132c0 0-8.692.935-20.272-.662l2.273 5.198s11.08-1.205 15.874-2.404m-181.629 38.204c.01-.011 8.413-12.525 10.772-16.012 0 0-5.617-3.37-6.321-4.72l-11.18 17.079c-.572.815-.661 1.631-.272 2.433.628 1.33 2.39 2.428 4.102 2.537.892.06 2.118-.124 2.899-1.317m63.524-100.719c.561.989 2.122 4.373 2.122 4.373 2.828-2.15 5.52-3.681 10.566-5.502 16.035-6.523 35.212-10.362 52.146-13.752l1.283-.254c2.765-.442 3.497-2.128 3.291-3.573-.245-1.624-2.117-3.175-4.368-2.865-21.15 3.415-45.617 9.733-57.409 14.678-4.07 1.703-7.075 3.174-9.39 4.736.745.42.867.577 1.759 2.159m-39.578 64.017l8.564-13.592s-3.405-3.08-5.536-6.015c-7.045 11.444-8.902 14.534-9.033 14.744l-.04.072-.05.06c-.997 1.198.663 2.915 1.01 3.25 1.512 1.458 3.933 2.393 5.085 1.48m125.776-80.466c3.337.321 9.865.941 12.356 1.491 2.756 0 3.238-1.826 3.317-2.63.135-1.495-.692-3.3-2.09-3.503l-.087-.013-.092-.032c-1.961-.657-11.424-1.75-15.12-2.107 0 0 1.716 4 1.716 6.794" fill="#311d00" fill-rule="nonzero"/><path d="M319.035 283.707c-6.31-6.979-3.205-34.951 7.944-36.301-7.804 5.684-10.244 25.588-7.944 36.3zm47.299-73.349l-14.244-25.725-5.52 2.554 9.964 22.215 1.124.127c.804.138 1.62.162 4.817 1.094 4.19 1.217 4.925 10.661-3.058 9.862a162.26 162.26 0 0 0-3.567-.42l-.016-.024a46.344 46.344 0 0 0-5.072-.648l-.44-.053c2.035 7.938 1.444 18.626-9.27 21.01 5.53-2.42.689-4.086.41-4.214-11.553-2.648-30.743.91-32.85-.542 12.327-1.192 13.26-7.341 12.255-13.701-.627.127-1.265.261-1.898.39 1.186 6.69-1.602 9.179-5.301 10.558-5.648 1.917-9.71 1.97-9.893 1.947l-3.675-.129c1.595-.536 4.741-.67 8.603-1.467 5.926-1.231 9.37-3.83 8.955-10.637-.76.155-1.514.311-2.277.471.091 1.977-.17 3.62-.848 4.853-1.198 2.166-5.348 3.027-7.523 3.353 0 0-3.235.447-3.183.442-12.785 1.634-17.75 4.004-25.814 8.366 0 0-.999.633-1.46.978a49.63 49.63 0 0 0-8.871 6.803c.367.812.743 1.645 1.134 2.505a50.697 50.697 0 0 1 4.823-4.227s3.587-3.157 8.112-5.16c-6.482 4.157-10.502 8.243-12.476 10.402l18.799 41.523c-1.557-11.597 20.656-20.402 28.79-1.15 1.545 3.67 2.926 7.749 4.035 12.057 1.615-.16 3.252-.325 4.915-.5a103.156 103.156 0 0 0-1.82-6.48c-1.176-4.916-2.064-11.79-2.019-19.07a55.894 55.894 0 0 1-.013-1.08c3.356 3.908 15.39 16.967 29.776 21.147l-3.589-8.802s-14.491-6.198-25.258-22.756c.15-.824.283-1.445.374-1.835 1.217-6.073 3.372-11.793 6.919-16.236.237-.295.455-.545.678-.808.204-.306.582-.81 1.156-1.384l22.824 53.55s3.81-.26 7.28-.885c0 0-18.067-42.813-23.56-55.853.375-.052.768-.09 1.175-.113.182-.023.34-.05.532-.07v-.008a8.18 8.18 0 0 0 .772-.065c5.45-.98 8.308-3.418 10.387-7.197 1.786-3.253 2.028-7.547 1.74-11.028.274-.38.566-.719.917-1.037.474-.43 1.06-.822 1.854-1.228 6.042 3.163 17.01-1.169 10.395-11.675zm-141.871 106.01a4.66 4.66 0 0 1-1.75-.253c.038.716.053 1.367.221 2.022 3.22.495 4.801-1.547 4.99-3.05l-.262-.028c.113-2.06-1.553-4.07-3.84-4.796-.698 1.306-1.066 2.895-1.124 4.634.62.274 1.187.483 1.827.536 0 0-.08.64-.062.935" fill="#311d00" fill-rule="nonzero"/><g transform="translate(72 116)"><mask id="b" fill="#fff"><use xlink:href="#a"/></mask><path d="M148.624 201.435c.22.1.34.279.551.35-.183-.654-.226-1.397-.239-2.372-.407-.275-.73-.385-.933-.747l.006-1.114c.315.341.567.348.885.613.092-1.548.337-3.077.99-4.095-1.539-.076-2.36.313-3.392 1.18 0 0-1.064 4.384 2.132 6.185" fill="#311d00" fill-rule="nonzero" mask="url(#b)"/></g><g transform="translate(72 116)"><mask id="d" fill="#fff"><use xlink:href="#c"/></mask><path d="M112.904 215.183a14.4 14.4 0 0 1-4.722.726c-4.512-.032-9.013-2.054-12.343-5.555-6.538-6.856-6.97-17.431-.949-23.565 2.714-2.763 6.396-4.267 10.371-4.243 4.512.028 9.013 2.057 12.343 5.55 3.373 3.528 5.113 8.058 5.195 12.44l-9.895 14.647zm22.295 15.52c-12.332 13.058-36.776 12.975-50.665-4.837 23.503 21.816 45.42 7.407 50.665 4.837zM98.97 250.49c-1.056.887-2.487 1.216-3.973 1.094-1.652 1.033-4.217.454-6.045-1.477-1.7-1.793-2.2-4.161-1.375-5.769-.353-2.599.448-5.188 2.29-6.493 2.784-1.96 7.007-.75 9.434 2.686 2.424 3.452 2.305 7.765-.331 9.96zm57.878-23.255a7.362 7.362 0 0 1 7.328 7.394 7.344 7.344 0 0 1-4.456 6.731 4.731 4.731 0 0 1-3.476 1.514c-1.917 0-3.558-1.16-4.321-2.827-1.496-1.353-2.452-3.291-2.444-5.47.012-4.062 3.31-7.349 7.369-7.342zm78.584-146.143c-.29-.69-.74-1.863-1.027-3.203-.257-1.197-.373-2.515-.121-3.731.123-.6.326-1.178.658-1.698.084-.128.201-.227.299-.343.222-.264.475-.5.765-.707.158-.113.304-.236.475-.337-7.921-13.415-19.993-26.999-35.454-38.148-12.738-9.186-27.779-16.71-44.692-21.136-.197-.051-.388-.112-.584-.163-.12-.03-.242-.054-.362-.085-17.06-4.328-36.002-5.498-56.402-2.022-28.62 9.186-54.41 26.791-72.134 51.426-.145.203-.295.4-.437.602-.067.092-.13.188-.195.281C4.956 91.913-4.34 132.321 7.709 180.587c9.22 33.589 20.009 51.403 31.717 68.098 0 0-.537 8.108 13.434 3.877 3.164-.96 6.02-1.695 8.73-2.107 8.128-1.238 14.946.446 24.859 7.839.592.441 1.204.876 1.82 1.307 23.268 16.253 61.519 23.32 86.396 10.336 6.377-3.325 11.878-7.98 16.022-14.135-.015 0 .178-.328.178-.328 1.883-2.676 3.045-5.12 4.02-7.906 1.812-5.08 2.279-10.23 2.109-15.07-1.577-.26-3.207-.533-4.89-.813-1.087 20.897-21.8 41.025-58.832 38.709-15.442-.574-31.92-8.085-41.75-13.446-4.522-3.037-17.274-10.191-23.388-11.541 5.315.284 18.614 7.251 24.189 10.474 11.43 5.893 27.382 11.552 40.953 12.119 24.726 2.323 52.78-10.358 55.777-36.823l-62.487-10.415c-.973.696-2.194 1.037-3.547.948-2.502-.17-4.92-1.707-5.89-3.752-.714-1.518-.559-3.124.454-4.556-.018.033 11.75-17.526 11.75-17.526l.477-.945c-.551-2.68.721-5.032 1.29-5.6.964-.966 6.31-9.744 7.54-12.208.142-.285 1.556-2.49 4.362-2.701 1.241-1.991 4.238-6.783 9.327-15.04-.405-2.335.678-4.595 2.33-5.898a5.786 5.786 0 0 1 1.563-.872c6.284-10.177 13.321-21.323 15.28-24.24 2.242-3.087 4.001-5.136 6.008-7.453.728-.824 2.37-2.144 3.083-2.704.934-1.266 2.328-2.244 3.772-2.666.019-.116.105-.246.294-.402 5.068-4.137 12.216-6.723 12.216-6.723 9.545-4 26.535-8.598 43.895-12.085-1.218-3.526-5.074-14.626-5.074-14.626-.03-.082-.131-.305-.264-.622z" fill="#ff3c00" fill-rule="nonzero" mask="url(#d)"/></g><g transform="translate(72 116)"><mask id="f" fill="#fff"><use xlink:href="#e"/></mask><path d="M266.452 85.067c.832 3.693-1.84 5.688-4.483 2.631-1.117-1.273-1.64-2.447-2.108-3.961l-.07-.227c-.454-1.938-.226-3.537-.226-3.537a11.634 11.634 0 0 1-1.797-1.995 4.73 4.73 0 0 1-.368-.453 8.634 8.634 0 0 1-1.257-2.546l-.127-.524c-.016-.07-.016-.113-.016-.113a11.367 11.367 0 0 1-.141-1.656c0-.962.184-1.57.41-1.938l.014-.014c.07-.127.157-.226.24-.297.015-.029.043-.029.057-.043a.926.926 0 0 1 .143-.113c.691-.438 1.568-.212 1.568-.212 2.32.311 4.992 3.636 4.992 8.39 0 .198 0 .382-.013.58 1.414 1.415 2.445 2.76 3.182 6.028zM80.32 256.623c-.366.27-.834.608-1.287.934-5.613 4.032-18.778 8.942-30.486 10.045-11.892 1.925-18.524-6.437-16.22-12.804l-.65-1.613c-.636-1.528-8.256-17.092-7.41-23.827C30.56 240.903 36.09 248.26 37.8 249.987c.057.269.113.54.198.792-.141 1.67.226 6.664 9.983 4.84-2.97 5.715-14.041 2.56-11.892-5.024-1.612-2.009-5.515-8.347-5.515-8.347-.17.042.184 1.881.156 1.754 1.315 2.745 3.606 7.47 3.606 7.47-1.754 11.108 14.197 11.957 15.342 3.793.028-.015.057-.015.085-.029.834-.155.834-.028 1.4-.325-.693 3.339-2.291 5.15-4.172 6.112-3.422 1.726-4.411 4.768.778 4.386 5.274-.368 14.635-1.867 25.707-7.244l2.333-1.272c-4.68-2.958-9.6-3.454-12.966-3.694-2.63-.184-6.844.523-9.899 1.146.184-.07.368-.113.566-.184 12.698-4.188 20.504-1.556 26.81 2.462zM273 71.88l-2.136.849c-.369-.764-1.005-1.16-1.993-1.344a7.817 7.817 0 0 0-.907-.128C190.361-67.487-48.683 9.412 8.841 193.023c4.044 12.918 9.05 24.18 13.786 33.236-.41 1.656-1.002 4.768-.042 8.914 1.555 5.886 2.87 9.494 7.593 19.922-1.909 7.046 4.68 17.431 20.674 14.347 19.018-2.943 28.973-9.848 31.264-11.616.65.452 1.301.92 1.923 1.386 33.725 26.345 88.9 28.44 109.263-2.745 8.145 1.684 18.27.311 18.27.311 10.548-.693 19.046-3.523 25.692-7.923a70.464 70.464 0 0 1-2.319-4.032c-8.497 5.758-20.786 8.829-38.037 7.428l-1.102-.142c2.742-5.447 4.54-11.757 5.146-18.945-1.273-.212-2.588-.439-3.958-.665.17 4.839-.297 9.99-2.108 15.069-.976 2.787-2.138 5.23-4.02 7.906 0 0-.194.328-.179.328-4.144 6.155-9.645 10.81-16.022 14.135-24.877 12.985-63.128 5.917-86.396-10.336a78.015 78.015 0 0 1-1.826-1.309c-9.905-7.385-16.724-9.072-24.853-7.837-2.71.412-5.566 1.148-8.73 2.107-13.971 4.23-13.434-3.877-13.434-3.877C27.718 231.99 16.93 214.176 7.71 180.586-4.34 132.321 4.956 91.913 26.221 61.827c.065-.093.128-.19.195-.281.142-.203.292-.4.437-.602C44.576 36.31 70.368 18.701 98.986 9.511c20.4-3.472 39.342-2.3 56.403 2.03.12.03.243.055.362.084.196.051.387.112.584.163 16.913 4.426 31.954 11.95 44.692 21.136 15.465 11.149 27.538 24.735 35.46 38.15-.176.097-.321.222-.481.335-.29.206-.543.443-.765.707-.096.116-.214.215-.296.344-.333.52-.538 1.097-.661 1.697-.252 1.216-.136 2.534.121 3.73a18.791 18.791 0 0 0 1.027 3.204c.133.317.233.54.264.622a14534.062 14534.062 0 0 0 5.075 14.63c.778-.155 1.541-.31 2.32-.466L237.362 80c-2.26-5.376.27-7.371.27-7.371-.666 1.995-.1 4.301.268 5.504.736 2.349 3.238 9.225 5.332 14.53.395 1.048.764 2.038 1.087 2.986.624-.127 1.245-.24 1.868-.368-1.767-5.334-4.2-11.602-4.964-13.682-.635-1.74-.92-2.39-1.725-5.192-1.088-3.792.395-3.863 1.993-4.005.92-.07 3.663-.014 4.384 0 1.656-.89 5.175-2.66 7.312-3.72C227.69 25.57 176.574-3.28 109.577 6.54c52.87-12.875 112.896 2.349 149.011 53.88 1.923 3.197 3.55 4.966 6.45 10.738-.398 0-.85 0-1.289-.014-2.006-2.83-4.044-3.75-6.545-3.792-.128 0-4.937 0-4.299 4.882.17 1.514.82 3.325 1.2 4.174l.043-.015 3.579 7.556.947 1.995 3.463 6.99s2.574 5.107 2.717 7.824l9.288.184s.143-2.858-1.85-7.923c-1.444-3.637-5.757-17.022-7.185-19.682a.515.515 0 0 1-.07-.127c.452 0 2.305.028 3.336.269 1.824 4.655 4.483 12.635 6.506 18.903 0 0 2.347.113 2.332.07.793.071 3.988.34 5.133.567l-9.345-21.139z" fill="#311d00" fill-rule="nonzero" mask="url(#f)"/></g><path d="M335.383 203.26c-1.6-1.585-2.418-3.34-2.575-5.886 2.503.523 4.046 3.65 2.575 5.886zm-3.282-8.645c-1.357-.877-3.422-3.835-3.11-6.254 3.18.042 4.101 4.67 3.11 6.254zm6.35 6.452c-.736-3.269-1.767-4.613-3.181-6.028.013-.198.013-.382.013-.58 0-4.754-2.671-8.079-4.992-8.39 0 0-.877-.226-1.568.212a.926.926 0 0 0-.143.113c-.014.014-.042.014-.056.043-.084.07-.17.17-.24.297l-.015.014c-.226.368-.41.976-.41 1.938 0 .453.044 1.005.141 1.656 0 0 0 .042.016.113.027.113.07.297.127.524a8.634 8.634 0 0 0 1.257 2.546c.1.142.214.283.368.453a11.62 11.62 0 0 0 1.797 1.995s-.228 1.599.226 3.537l.07.227c.468 1.514.99 2.688 2.108 3.961 2.643 3.057 5.315 1.062 4.483-2.631z" fill="#FFF" fill-rule="nonzero"/></g></svg>