<svg width="512" height="512" viewBox="0 0 512 512" xmlns="http://www.w3.org/2000/svg"><title>new-york-jets</title><g fill="none" fill-rule="evenodd"><path d="M437.848 195.772c-18.538-18.535-44.628-34.28-75.461-45.536-32.555-11.881-69.169-18.163-105.879-18.163-51.181 0-103.854 13.556-144.511 37.188-41.592 24.177-65.447 55.49-65.447 85.914 0 19.405 9.739 39.396 28.163 57.824 18.787 18.788 45.306 34.885 76.688 46.552 32.961 12.249 69.31 18.73 105.107 18.73 36.71 0 73.324-6.286 105.879-18.167 30.833-11.253 56.923-26.998 75.461-45.536 18.727-18.723 28.619-39.266 28.619-59.403s-9.892-40.68-28.619-59.403"/><g fill-rule="nonzero"><path d="M468.748 255.285c0-57.503-94.244-119.13-212.246-119.13-112.966 0-212.24 62.001-212.24 119.13 0 57.134 99.274 119.14 212.24 119.14 118.002 0 212.246-61.628 212.246-119.14" fill="#2A433A"/><path d="M338.599 193.31v12.519h19.926l.132-.012c1.072-.074 2.827.21 3.206.855.361.596.234 2.759-2.504 7.055-.037.062-19.199 31.98-26.322 43.841l-28.06-44.906c-2.318-3.573-2.047-4.995-1.772-5.513.506-.95 1.287-1.213 2.906-1.324h.062a.66.66 0 0 0 .078.004h14.37v-12.52l-108.08-.008v12.462H226.2c2.79 0 4.702.555 5.849 1.702 1.915 1.912 2.305 5.954 2.305 11.426v45.917l-54.736-71.474h-53.984v13.104h17.728c1.89-.009 3.202.349 3.908 1.06 1.361 1.357 1.361 4.827 1.361 8.182l.012 72.095c0 11.936-1.278 15.217-5.96 15.246h-17.197v11.549h57.88v-11.681h-16.338c-2.762.029-4.726-.103-5.425-.793-1.52-1.518-1.648-8.186-1.648-14.32v-63.453l74.572 90.362h11.685s.079-100.588-.008-102.368c-.131-2.738.62-5.863 5.496-6.488h11.615c5.376-.02 8.895 6.488 12.516 12.622 0 0 27.92 47.496 31.637 53.783v22.913c0 7.775-3.449 7.775-4.925 7.775h-13.09v11.68h68.698v-11.791h-12.536c-4.859-.263-6.556-1.661-6.363-8.885v-23.653l33.515-56.25c4.813-7.446 5.315-8.219 11.891-8.128h11.377V193.31H338.6z" fill="#FFF"/><path d="M341.722 196.434v6.266h16.672s12.35-1.024 3.596 12.708l-28.9 48.138-30.764-49.231c-7.987-12.676 3.925-11.615 3.925-11.615h11.25v-6.266l-101.836-.008v6.212H226.2c10.12 0 11.278 6.517 11.278 16.253v55.14l-59.401-77.572h-49.32v6.85h14.605c9.31-.013 8.298 7.326 8.405 14.472v69.994c0 9.736-.41 18.308-9.063 18.37H128.61v5.3h51.633v-5.428h-13.215c-8.84.066-10.201-1.282-10.201-18.242v-72.91l79.18 96.695h6.473V218.2c0-9.732.181-15.126 9.22-15.5h12.86c6.865.501 10.51 8.445 15.352 16.766l30.68 51.916v23.765c0 7.384-2.898 10.9-8.049 10.9h-9.963v5.43h62.447v-5.542h-9.51c-7.63-.394-9.594-4.317-9.389-12.092v-24.426l31.58-53.371c7.06-10.596 7.455-13.412 16.995-13.276h8.208v-6.336h-51.189z" fill="#2A433A"/><path d="M304.562 313.025c0-14.131-21.34-29.274-48.057-29.274-25.582 0-48.061 15.233-48.061 29.274 0 14.04 22.479 29.274 48.06 29.274 26.718 0 48.058-15.143 48.058-29.274" fill="#2A433A"/><path d="M301.347 311.45c-1.57-12.092-20.889-24.463-44.843-24.463-22.923 0-43.174 12.437-44.835 24.463h89.678zm-89.681 3.129c1.636 12.03 21.9 24.484 44.839 24.484 23.97 0 43.297-12.384 44.846-24.484h-89.685z" fill="#FFF"/><path d="M240.286 323.472c-6.071 0-10.995-4.68-10.995-10.448 0-5.768 4.924-10.447 10.995-10.447h32.434c6.075 0 10.995 4.679 10.995 10.447 0 5.769-4.92 10.448-10.995 10.448h-32.434z" fill="#2A433A"/><path d="M274.405 308.37a16.725 16.725 0 0 0-.226-.922l-3.062-.004a17.89 17.89 0 0 1 .79 4.017h-5.484a18.336 18.336 0 0 0-.448-2.78l-2.959.038c.28.88.46 1.805.567 2.742h-5.545v-2.602h-3.07v2.602h-5.549c.111-.937.296-1.862.567-2.742l-2.959-.037a17.84 17.84 0 0 0-.444 2.78h-5.487c.09-1.037.259-2.048.506-3.027.09-.337.18-.662.283-.99l-3.062.003a21.741 21.741 0 0 0-.748 5.666c0 1.9.247 3.745.707 5.501l3.066.037c-.403-1.3-.666-2.66-.773-4.066h5.488c.078.987.234 1.949.464 2.878l2.918-.037a14.662 14.662 0 0 1-.55-2.841h5.573v2.713h3.07v-2.713h5.57a14.662 14.662 0 0 1-.55 2.84l2.917.038c.23-.93.387-1.891.465-2.878h5.491a18.682 18.682 0 0 1-.777 4.066l3.067-.037c.46-1.756.706-3.602.706-5.501 0-1.628-.18-3.22-.522-4.745" fill="#FFF"/><path d="M396.369 234.516c-3.194-6.007-11.595-9.44-24.292-9.921-9.338-.305-16.663.18-22.462 1.66l-152.848.07a33700.77 33700.77 0 0 0 7.814-14.607h-37.683l-25.895 48.733c-2.1 3.08-2.388 3.252-4.542 3.026a7.672 7.672 0 0 1-1.31-.23c.381-1.336 1.923-3.93 2.482-4.868-.017.025 9.01-14.83 9.01-14.83h-35.14l-1.05 1.451c-9.66 13.297-12.516 24.02-8.492 31.86 3.868 7.532 13.358 11.307 28.213 11.212 14.977-.086 24.41-.798 31.916-5.69h76.249l19.651-36.712h16.943l-19.553 36.642h38.92l12.232-22.955h16.47l-.847 2.085c-3.008 7.392-1.393 12.293.494 15.101 3.682 5.493 11.607 8.29 23.547 8.314 20.1-.037 32.931-1.887 39.08-11.245 5.08-7.726 5.837-14.769 2.138-19.834-1.015-1.422-2.635-2.668-4.546-3.741h11.09l1.03-1.661c3.893-6.275 2.899-11.003 1.382-13.86" fill="#2A433A"/><path d="M387.396 253.754a.086.086 0 0 1 .017.024.29.29 0 0 0 .029.038l-.046-.062z" fill="#2A433A"/><path d="M140.39 247.067h-27.095c-18.205 25.064-9.273 37.649 16.856 37.493 23.798-.148 32.15-1.674 42.08-19.81l26.479-49.514h-29.697l-24.998 47.04c-2.339 3.44-3.662 5.147-7.92 4.703-6.733-.707-4.9-4.654-1.485-10.398l5.78-9.514zm120.852 31.727h30.946l19.487-36.341h14.262l6.836-12.68H270.14l-6.671 12.38h17.324zm64.166-16.024c-4.73 11.622 2.425 18.534 20.79 18.567 19.877-.033 31.02-1.863 36.137-9.654 3.482-5.3 5.471-11.426 2.228-15.846-2.236-3.186-10.239-5.953-17.822-7.425-4.834-.942-6.523-2.101-6.186-4.95.308-2.59 3.527-3.187 5.94-2.48 1.96.576 2.803 3.006 2.486 5.538H392c6.23-10.036-.983-17.683-20.058-18.41-23.614-.774-32.603 3.576-37.37 15.598-2.368 5.575-1.974 9.868 1.483 12.13 4.316 2.828 16.248 4.625 19.799 5.94 2.162.802 2.462 3.45 1.237 5.008-1.414 1.793-4.788 2.652-6.93.995-1.484-1.151-1.241-2.566-1.73-5.012h-23.022zm-148.392 16.094h59.217l6.63-12.38H210.46l3.124-5.945h28.8l6.77-12.622h-27.09l2.72-5.694h29.294l6.593-12.38h-57.42z" fill="#FFF"/></g></g></svg>