<svg width="512" height="512" viewBox="0 0 512 512" xmlns="http://www.w3.org/2000/svg"><title>seattle-seahawks</title><g fill="none"><path d="M351.406 315.436l-276.624.062c-17.21 0-35.007 0-44.14-14.056-9.265-14.259-4.23-28.288 11.394-56.36 1.166-2.088 48.543-91.078 48.543-91.078s4.84 6.009 9.72 9.834c4.818 3.772 9.769 5.78 22.97 5.78 23.445 0 174.692-.327 176.233-.336 30.702 0 61.713 3.176 81.806 25.191 10.432 1.112 44.105 5.56 71.857 18.812 16.238 7.752 26.952 19.333 31.002 33.473 1.228 4.28 1.833 8.775 1.833 13.434 0 13.425-5.03 28.288-14.896 43.743-20.84 32.656-40.06 44.07-40.921 44.683-11.844 8.325-23.313 8.713-23.313 8.713s10.33-11.735 13.814-23.47c3.488-11.74-9.169-13.126-9.169-13.126-20.963-4.187-48.485-5.299-60.109-5.299z" fill="#FFF"/><path d="M449.744 220.443c-31.634-15.11-72.268-18.375-72.268-18.375-17.73-21.644-47.69-24.856-77.972-24.856 0 0-152.51.335-176.235.335-27.614 0-30.388-10.94-30.388-10.94l-37.016 69.247h96.132c30.256 0 31.77-3.027 51.838-17.77 21.312-15.667 38.328-21.328 58.47-21.328 20.125 0 33.454 4.527 55.862 14.45 22.412 9.908 34.322 14.73 47.66 9.065 0 0-10.498 14.167-42.264.843-31.766-13.31-40.267-16.147-59.566-16.147-19.03 0-40.828 9.128-68.116 36.336l32.526 26.14s-7.526 11.611-12.48 19.028c-4.942 7.412-4.479 12.366-1.842 15.984 2.64 3.626 5.966 5.267 18.005 5.267 12.034 0 108.52-.22 119.313-.22 9.385 0 38.744.878 61.66 5.448 30.436 6.084 10.806 31.721 10.806 31.721s20.372-13.403 40.545-44.996c22.501-35.246 16.954-64.121-14.67-79.232" fill="#031F2F"/><path d="M393.855 226.122c-14.388-3.437-2.089-11.762-2.089-11.762-20.703 4.178-28.405 21.049-30.185 25.77a197.5 197.5 0 0 0-1.02 1.99c-11.456 23.024-21.772 21.79-41.332 21.79h-33.497c-27.133 0-39.768 13.433-52.774 36.313h15.325c14.004-20.833 24.58-26.45 52.275-28.01 63.297.034 113.757 18.176 140.423 32.042 37.926-63.623-18.359-74.154-47.126-78.133" fill="#FFF"/><path d="M276.045 299.977c7.074-10.69 21.471-14.32 44.679-12.984 57.27 3.313 90.197 14.453 115.78 23.974-31.55-18.45-87.764-31.743-126.839-31.62-19.096.058-35.771 3.393-45.57 20.63h11.95zm61.465-63.114c-7.464 10.399-17.295 13.955-45.179 12.049-32.437-2.202-24.064-15.852-20.288-22.576 0 0-.084 0-.11-.013 1.033-1.897 2.8-5.13 4.588-8.378-24.85-1.535-43.005 17.577-43.005 17.577 18.526 18.313 30.887 20.223 47.65 20.223h31.338c29.139 0 36.178-13.098 38.85-18.922-5.03.631-9.557.578-13.845.04" fill="#FFF"/><path d="M323.364 233.765c-.592-.242-1.206-.49-1.82-.74-2.857 3.008-7.786 4.75-12.56 4.137-6.284-.802-9.905-5.364-8.121-10.178a8.556 8.556 0 0 1 1.077-2.003 269.719 269.719 0 0 0-9.61-3.573c-6.456 10.43-10.24 17.347 12.163 19.235 13.955 1.187 17.74-1.2 20.672-6.207-.6-.23-1.183-.424-1.801-.67" fill="#34B233"/><path d="M210.849 273.402c-11.557 20.039-16.146 24.645-8.024 34.152H74.78c-18.884 0-31.157-.71-37.477-10.438-6.142-9.446-4.875-18.455 11.677-48.186h108.86c18.747 0 23.565 1.068 33.736 8.952a745.657 745.657 0 0 1 19.272 15.52" fill="#213D5A"/></g></svg>