<svg width="512" height="512" viewBox="0 0 512 512" xmlns="http://www.w3.org/2000/svg"><title>san-francisco-49ers</title><g fill="none"><path d="M256.567 390.208c77.174 0 153.21-26.133 193.716-66.59 20.565-20.542 31.436-44.266 31.436-68.618 0-24.174-10.73-47.663-31.018-67.93C410.513 146.936 334.314 121 256.567 121c-54.44 0-109.989 12.797-152.415 35.113C55.692 181.6 29 216.723 29 255c0 24.003 10.77 47.443 31.14 67.787 20.362 20.335 49.946 37.441 85.564 49.471 34.76 11.746 73.1 17.95 110.862 17.95" fill="#FFF"/><path d="M107.514 162.487c-45.978 24.182-71.3 57.039-71.3 92.513 0 22.052 10.039 43.726 29.032 62.699 19.578 19.548 48.2 36.058 82.768 47.739 34.03 11.49 71.568 17.568 108.555 17.568 75.354 0 149.392-25.314 188.613-64.484 19.184-19.155 29.324-41.121 29.324-63.522 0-22.223-9.994-43.95-28.906-62.837-38.9-38.854-113.104-63.957-189.031-63.957-53.307 0-107.632 12.493-149.055 34.281" fill="#000"/><path d="M256.435 370.238c66.522 0 129.563-21.683 164.506-56.58 17.628-17.61 26.947-37.706 26.947-58.126 0-20.417-9.32-40.513-26.947-58.119-34.947-34.901-97.984-56.58-164.506-56.58-48.845 0-97.471 12.042-133.41 33.044-37.433 21.877-58.047 50.875-58.047 81.655 0 20.42 9.32 40.517 26.952 58.126 34.939 34.897 97.98 56.58 164.505 56.58" fill="#B3995D"/><path d="M256.78 366.165c97.509 0 176.56-50.454 176.56-111.246 0-60.792-79.051-110.073-176.56-110.073-97.511 0-176.559 49.281-176.559 110.073 0 60.792 79.048 111.246 176.56 111.246" fill="#B8083E"/><path d="M394.88 241.091h-.484v-4.017h-70.052c-1.504-7.867-6.038-15.17-12.51-20.87-6.374-7.316-15.628-12.818-26.171-14.908l-4.363-.9c-10.108-2.122-18.095-3.802-50.223-3.636 0-.004-6.183-.215-12.18-1.006a26.36 26.36 0 0 1-3.993-1.339c.442-2.67 5.334-6.35 10.851-7.06.573-.105 35.341-6.496 71.133 16.656l.878.564h23.522v-35.949h-4.026v-4.017h-32.277s-3.832 2.926-5.44 4.151c-9.296-2.325-54.81-12.273-94.12 4.914-16.519 6.816-26.769 19.682-26.038 32.75.37 6.59 3.527 12.335 8.987 16.79 4.014 5.007 10.327 8.91 18.55 11.28 11.64 3.347 21.492 4.727 31.047 5.275v16.388h4.018v4.016h12.281c5.083 0 6.387 2.812 6.7 3.859-15.662-1.023-39.485-5.474-57.02-21.679l-.658-.71h-.122a68.266 68.266 0 0 1-2.852-2.88l-1.048-1.137h-17.652v51.172h4.022v4.009h14.398c2.112.15 8.795-.593 13.415-14.067 7.491 2.609 25.944 8.155 48.662 8.772v31.834c-.788 10.691-24.368 14.035-32.578 14.36l-3.397.133v15.828h4.018v4.009h103.525v-15.142l-2.64-.698c-.476-.122-.927-.248-1.386-.374v-3.465l-3.226-.275c-5.821-.516-10.303-1.522-13.772-2.76-6.513-3.643-7.626-6.6-7.764-7.076v-16.972h30.336c3.206.483 5.952 1.883 8.284 3.709 4.367 5.372 6.358 11.515 6.39 11.616l.772 2.487 2.609.008h.08c.362.913.55 1.49.561 1.522l.772 2.491 2.609.004h13.695v-61.57h-4.022v-4.022H330.75l-.585 2.816c-4.25 20.462-27.943 20.161-49.003 17.094a116.358 116.358 0 0 0 12.411-4.122c11.282-4.476 19.745-10.562 25.022-17.695h45.47c3.168.102 5.862.893 8.129 2.378 4.77 6.979 4.294 17.268 4.286 17.386l-.203 3.725h4.233l-.008.284-.203 3.724 3.733.009h14.386V241.09h-3.538z" fill="#000"/><path d="M322.355 253.7h37.685c21.52.689 19.972 27.504 19.972 27.504h10.843v-40.598H325.82s-.154 9.093-3.465 13.093m-76.699 34.671v31.176c-1.113 16.34-35.979 17.695-35.979 17.695v8.89h96.444v-8.89c-28.658-2.48-28.788-17.07-28.788-17.07v-20.81h34.264c15.662 2.235 21.687 21.84 21.687 21.84h10.156v-54.506h-9.811c-6.817 32.832-57.202 18.06-60.928 18.887 0 0-12.411 3.096-27.045 2.787m30.089-53.628c13.098 3.83 14.309 13.812 6.65 23.152-9.81 9.247-24.794 9.628-24.794 9.628s-50.438 5.441-79.88-26.36h-12.566v44.103h11.018s6.712 1.03 11.018-15.134c0 0 51.795 21.054 101.06 1.518 47.711-18.928 29.55-60.387-3.275-66.887-12.627-2.499-17.649-4.657-53.884-4.467 0 0-6.544-.207-12.915-1.067-19.968-4.986-8.604-17.88 3.104-19.394 0 0 35.98-7.084 73.506 17.195h18.944v-28.889h-27.549l-5.854 4.472s-51.072-14.242-93.482 4.3c-28.504 11.763-34.09 41.207-2.962 50.166 27.423 7.896 44.9 4.589 72.681 5.648 7.764.296 14.516.6 19.18 2.016" fill="#FFF"/><path d="M234.595 252.625h-13.086v-11.71c10.14 0 30.827.09 45.469 0 14.723 0 16.69 8.505 10.486 14.258-5.855 5.421-18.103 9.28-32.615 6.646 0 0-1.199-9.194-10.254-9.194" fill="#FFF"/></g></svg>