<svg width="512" height="512" viewBox="0 0 512 512" xmlns="http://www.w3.org/2000/svg"><title>arizona-cardinals</title><g fill="none"><path d="M454.58 373.144c-29.714-6.246-88.671-.161-122.287 70.958 0 0-57.495-68.622-137.39-80.679 3.143-38.182-47.45-48.331-57.132-114.02 0 0-39.305-32.17-58.957-82.853l10.464 3.362s-15.289-16.921-27.03-46.085l11.055 3.653s-11.184-15.168-17.301-58.675c135.596 93.252 207.03 60.711 289.503 107.378 55.975 31.693 69.309 68.509 73.996 105.244 0 0 41.438 37.535 35.078 91.717" fill="#FFF"/><path d="M448.121 365.206c.89-46.118-35.337-78.885-35.337-78.885-3.911-29.148-14.505-71.313-70.958-102.449-85.721-47.248-133.147-8.654-268.29-91.426 2.82 15.475 11.725 36.889 23.07 50.182l-13.98-4.574c10.166 21.398 26.433 40.824 34.95 47.127l-15.66-4.92c16.59 40.71 49.001 64.823 49.001 64.823 7.386 62.328 53.107 72.946 56.8 111.281 59.564 9.237 122.521 73.01 122.521 73.01 32.962-56.654 78.926-67.644 117.883-64.17" fill="#000"/><path d="M371.834 284.981c-12.953 20.848-34.844 15.038-42.65-10.95l15.79.962c-13.85-8.29-26.425-20.477-36.146-32.485-2.852 57.439 51.184 83.208 69.059 42.885a52.391 52.391 0 0 1-6.053-.412" fill="#FFF"/><path d="M334.659 191.685c-62.101-34.037-137.996-11.936-234.974-72.016 9.608 28.71 69.632 62.335 69.632 62.335l-53.115-17.269c13.527 23.475 68.897 52.89 68.897 52.89l-49.535-16.009c20.517 34.077 67.062 57.075 67.062 57.075l-28.606-2.069c3.701 32.04 47.968 59.629 50.32 84.356 20.024 7.652 45.818 20.994 65.939 38.287 38.448-18.901 27.846-82.853-45.463-173.568 100.832 6.093 98.053 80.848 155.927 70.101-4.242-20.08-6.981-51.693-66.084-84.113" fill="#97233F"/><path d="M440.877 353.305c-3.233-23.725-24.525-51.386-39.822-61.067-7.16 14.667-24.647 24.09-40.017 28.348 36.065 4.323 65.73 18.675 79.839 32.72" fill="#FFB612"/><path d="M371.834 284.981c-12.953 20.848-34.844 15.038-42.65-10.95l15.79.962c-13.85-8.29-26.425-20.477-36.146-32.485-2.852 57.439 51.184 83.208 69.059 42.885a52.391 52.391 0 0 1-6.053-.412" fill="#FFF"/><path d="M363.69 372.907c23.451-13.163 53.673-19.539 75.734-15.086-14.117-11.952-48.986-26.61-80.598-23.516 0 0 10.804 18.368 4.865 38.602" fill="#FFB612"/></g></svg>