<?xml version="1.0" encoding="UTF-8"?>
<svg width="512px" height="512px" viewBox="0 0 512 512" version="1.1" xmlns="http://www.w3.org/2000/svg" xmlns:xlink="http://www.w3.org/1999/xlink">
    <!-- Generator: Sketch 42 (36781) - http://www.bohemiancoding.com/sketch -->
    <title>arizona-cardinals</title>
    <desc>Created with Sketch.</desc>
    <defs></defs>
    <g id="NFL" stroke="none" stroke-width="1" fill="none" fill-rule="evenodd">
        <g id="arizona-cardinals" fill-rule="nonzero">
            <g id="ari" transform="translate(56.000000, 68.000000)">
                <g id="ARI">
                    <g id="Page-1">
                        <g id="ARI">
                            <g id="Group">
                                <g id="Group-3" transform="translate(0.000000, 0.346042)" fill="#FFFFFF">
                                    <path d="M398.579394,304.960167 C368.866262,298.710386 309.908687,304.798465 276.292526,375.955405 C276.292526,375.955405 218.797576,307.29676 138.902626,295.233795 C142.046061,257.03171 91.4521216,246.876828 81.7713128,181.153072 C81.7713128,181.153072 42.4662626,148.9663 22.8137374,98.2565703 L33.2783838,101.619971 C33.2783838,101.619971 17.989495,84.6897771 6.24808081,55.5106608 L17.3026262,59.1651247 C17.3026262,59.1651247 6.11878788,43.9893972 0.00161616162,0.459233524 C135.597576,93.7612559 207.031919,61.2025692 289.504646,107.894006 C345.480404,139.603757 358.813738,176.43946 363.500606,213.194312 C363.500606,213.194312 404.93899,250.749589 398.579394,304.960167" id="Fill-1"></path>
                                </g>
                                <path d="M392.121212,297.363409 C393.010101,251.221759 356.783838,218.43669 356.783838,218.43669 C352.872727,189.273744 342.278788,147.085706 285.826262,115.933827 C200.10505,68.6602629 152.678788,107.274687 17.5353535,24.4590363 C20.3555555,39.9419975 29.2606061,61.3675052 40.6060606,74.6674902 L26.6262626,70.0913252 C36.7919192,91.5006631 53.0585858,110.937237 61.5757576,117.243613 L45.9151515,112.319788 C62.5050505,153.052508 94.917172,177.178439 94.917172,177.178439 C102.30303,239.538793 148.024242,250.162611 151.717172,288.518313 C211.280808,297.759579 274.238384,361.567166 274.238384,361.567166 C307.2,304.882549 353.163636,293.886817 392.121212,297.363409" id="Fill-4" fill="#000000"></path>
                                <path d="M315.834343,217.096181 C302.880808,237.955732 280.989899,232.142546 273.183838,206.140874 L288.973738,207.103 C275.123232,198.807691 262.549495,186.615364 252.828283,174.60091 C249.975758,232.06978 304.012122,257.853156 321.886869,217.50852 C319.866666,217.49235 317.846465,217.346819 315.834343,217.096181" id="Fill-6" fill="#FFFFFF"></path>
                                <path d="M278.658586,123.750499 C216.557576,89.6960689 140.662626,111.80881 43.6848485,51.6961119 C53.2929293,80.422462 113.317172,114.064552 113.317172,114.064552 L60.2020202,96.7866993 C73.729293,120.273907 129.09899,149.703661 129.09899,149.703661 L79.5636364,133.687083 C100.080808,167.781939 146.626262,190.792125 146.626262,190.792125 L118.020202,188.72234 C121.721212,220.779751 165.987878,248.382273 168.339394,273.12267 C188.363636,280.779258 214.157576,294.127753 234.278788,311.429861 C272.727273,292.518818 262.125253,228.533359 188.816162,137.770057 C289.648485,143.866221 286.868687,218.661455 344.743434,207.908276 C340.50101,187.81681 337.761616,156.187909 278.658586,123.750499" id="Fill-8" fill="#97233F"></path>
                                <path d="M384.876768,285.456486 C381.644445,261.71864 360.351515,234.043353 345.054546,224.357406 C337.89495,239.031858 320.408081,248.459081 305.038384,252.719927 C341.10303,257.045455 370.767677,271.404588 384.876768,285.456486" id="Fill-10" fill="#FFB612"></path>
                                <path d="M315.834343,217.096181 C302.880808,237.955732 280.989899,232.142546 273.183838,206.140874 L288.973738,207.103 C275.123232,198.807691 262.549495,186.615364 252.828283,174.60091 C249.975758,232.06978 304.012122,257.853156 321.886869,217.50852 C319.866666,217.49235 317.846465,217.346819 315.834343,217.096181" id="Fill-12" fill="#FFFFFF"></path>
                                <path d="M307.690505,305.069315 C331.14101,291.898692 361.363232,285.51955 383.423838,289.974439 C369.306666,278.01658 334.43798,263.350213 302.825858,266.446805 C302.825858,266.446805 313.629899,284.824232 307.690505,305.069315" id="Fill-14" fill="#FFB612"></path>
                            </g>
                        </g>
                    </g>
                </g>
            </g>
        </g>
    </g>
</svg>