<svg width="512" height="512" viewBox="0 0 512 512" xmlns="http://www.w3.org/2000/svg"><title>arizona-cardinals</title><g fill="none"><path d="M452.658 374.361c-28.08-5.903-83.794-.152-115.562 67.055 0 0-54.332-64.848-129.833-76.241 2.97-36.082-44.84-45.673-53.99-107.75 0 0-37.142-30.4-55.714-78.295l9.89 3.177S93 166.317 81.903 138.757l10.447 3.451S81.781 127.875 76 86.761c128.139 88.123 195.644 57.372 273.58 101.472 52.898 29.95 65.498 64.74 69.927 99.456 0 0 39.16 35.47 33.15 86.672" fill="#FFF"/><path d="M446.555 366.86c.84-43.581-33.394-74.547-33.394-74.547-3.696-27.544-13.708-67.39-67.055-96.814-81.007-44.65-125.825-8.178-253.535-86.397 2.665 14.623 11.08 34.86 21.802 47.421l-13.211-4.322c9.606 20.221 24.978 38.58 33.027 44.535l-14.8-4.65c15.678 38.472 46.308 61.259 46.308 61.259 6.98 58.9 50.186 68.933 53.676 105.16 56.287 8.729 115.782 68.995 115.782 68.995 31.149-53.539 74.585-63.924 111.4-60.64" fill="#000"/><path d="M374.463 291.047c-12.24 19.702-32.928 14.211-40.304-10.347l14.921.909c-13.089-7.835-24.97-19.351-34.157-30.699-2.696 54.28 48.368 78.632 65.26 40.527a49.51 49.51 0 0 1-5.72-.39" fill="#FFF"/><path d="M339.332 202.882c-58.685-32.164-130.406-11.279-222.05-68.055 9.08 27.132 65.803 58.907 65.803 58.907l-50.194-16.32c12.783 22.185 65.108 49.98 65.108 49.98l-46.811-15.127c19.388 32.203 63.374 53.936 63.374 53.936l-27.033-1.955c3.498 30.278 45.33 56.349 47.552 79.716 18.923 7.232 43.298 19.84 62.312 36.181 36.334-17.861 26.315-78.296-42.962-164.021 95.287 5.757 92.66 76.401 147.352 66.245-4.01-18.976-6.598-48.85-62.45-79.487" fill="#97233F"/><path d="M439.709 355.613c-3.055-22.42-23.177-48.56-37.632-57.708-6.766 13.86-23.291 22.764-37.816 26.789 34.081 4.085 62.114 17.647 75.448 30.92" fill="#FFB612"/><path d="M374.463 291.047c-12.24 19.702-32.928 14.211-40.304-10.347l14.921.909c-13.089-7.835-24.97-19.351-34.157-30.699-2.696 54.28 48.368 78.632 65.26 40.527a49.51 49.51 0 0 1-5.72-.39" fill="#FFF"/><path d="M366.768 374.138c22.16-12.44 50.72-18.465 71.568-14.258-13.341-11.294-46.292-25.146-76.166-22.221 0 0 10.21 17.357 4.598 36.479" fill="#FFB612"/></g></svg>