<?xml version="1.0" encoding="UTF-8"?>
<svg width="512px" height="512px" viewBox="0 0 512 512" version="1.1" xmlns="http://www.w3.org/2000/svg" xmlns:xlink="http://www.w3.org/1999/xlink">
    <!-- Generator: Sketch 42 (36781) - http://www.bohemiancoding.com/sketch -->
    <title>arizona-cardinals</title>
    <desc>Created with Sketch.</desc>
    <defs></defs>
    <g id="NFL" stroke="none" stroke-width="1" fill="none" fill-rule="evenodd">
        <g id="arizona-cardinals" fill-rule="nonzero">
            <g id="ari" transform="translate(56.000000, 68.000000)">
                <g id="ARI">
                    <g id="Page-1">
                        <g id="ARI">
                            <g id="Group">
                                <g id="Group-3" transform="translate(0.000000, 0.345858)" fill="#FFFFFF">
                                    <path d="M398.579394,304.798384 C368.866262,298.551919 309.908687,304.636768 276.292526,375.755959 C276.292526,375.755959 218.797576,307.133738 138.902626,295.077172 C142.046061,256.895354 91.4521216,246.745858 81.7713128,181.05697 C81.7713128,181.05697 42.4662626,148.887273 22.8137374,98.2044448 L33.2783838,101.566061 C33.2783838,101.566061 17.989495,84.6448488 6.24808081,55.4812122 L17.3026262,59.1337374 C17.3026262,59.1337374 6.11878788,43.9660606 0.00161616162,0.458989899 C135.597576,93.7115152 207.031919,61.170101 289.504646,107.836768 C345.480404,139.529697 358.813738,176.345858 363.500606,213.081212 C363.500606,213.081212 404.93899,250.616566 398.579394,304.798384" id="Fill-1"></path>
                                </g>
                                <path d="M392.121212,297.205657 C393.010101,251.088485 356.783838,218.320808 356.783838,218.320808 C352.872727,189.173334 342.278788,147.007677 285.826262,115.872323 C200.10505,68.6238384 152.678788,107.217778 17.5353535,24.4460606 C20.3555555,39.9208081 29.2606061,61.3349495 40.6060606,74.6278788 L26.6262626,70.0541414 C36.7919192,91.4521216 53.0585858,110.878384 61.5757576,117.181414 L45.9151515,112.260202 C62.5050505,152.971313 94.917172,177.084445 94.917172,177.084445 C102.30303,239.411717 148.024242,250.029899 151.717172,288.365253 C211.280808,297.601616 274.238384,361.375354 274.238384,361.375354 C307.2,304.720808 353.163636,293.730909 392.121212,297.205657" id="Fill-4" fill="#000000"></path>
                                <path d="M315.834343,216.98101 C302.880808,237.829495 280.989899,232.019394 273.183838,206.031515 L288.973738,206.993131 C275.123232,198.702222 262.549495,186.516364 252.828283,174.508283 C249.975758,231.946666 304.012122,257.716364 321.886869,217.393131 C319.866666,217.37697 317.846465,217.231515 315.834343,216.98101" id="Fill-6" fill="#FFFFFF"></path>
                                <path d="M278.658586,123.684849 C216.557576,89.6484848 140.662626,111.749495 43.6848485,51.6686869 C53.2929293,80.3797976 113.317172,114.004041 113.317172,114.004041 L60.2020202,96.7353536 C73.729293,120.210101 129.09899,149.624242 129.09899,149.624242 L79.5636364,133.616162 C100.080808,167.69293 146.626262,190.690909 146.626262,190.690909 L118.020202,188.622222 C121.721212,220.662626 165.987878,248.250505 168.339394,272.977778 C188.363636,280.630303 214.157576,293.971717 234.278788,311.264646 C272.727273,292.363636 262.125253,228.412122 188.816162,137.69697 C289.648485,143.789899 286.868687,218.545454 344.743434,207.79798 C340.50101,187.717172 337.761616,156.10505 278.658586,123.684849" id="Fill-8" fill="#97233F"></path>
                                <path d="M384.876768,285.30505 C381.644445,261.579798 360.351515,233.919192 345.054546,224.238384 C337.89495,238.90505 320.408081,248.327273 305.038384,252.585858 C341.10303,256.909091 370.767677,271.260606 384.876768,285.30505" id="Fill-10" fill="#FFB612"></path>
                                <path d="M315.834343,216.98101 C302.880808,237.829495 280.989899,232.019394 273.183838,206.031515 L288.973738,206.993131 C275.123232,198.702222 262.549495,186.516364 252.828283,174.508283 C249.975758,231.946666 304.012122,257.716364 321.886869,217.393131 C319.866666,217.37697 317.846465,217.231515 315.834343,216.98101" id="Fill-12" fill="#FFFFFF"></path>
                                <path d="M307.690505,304.907474 C331.14101,291.743838 361.363232,285.368081 383.423838,289.820606 C369.306666,277.869091 334.43798,263.210505 302.825858,266.305454 C302.825858,266.305454 313.629899,284.673131 307.690505,304.907474" id="Fill-14" fill="#FFB612"></path>
                            </g>
                        </g>
                    </g>
                </g>
            </g>
        </g>
    </g>
</svg>