<?xml version="1.0" encoding="UTF-8"?>
<svg width="512px" height="512px" viewBox="0 0 512 512" version="1.1" xmlns="http://www.w3.org/2000/svg" xmlns:xlink="http://www.w3.org/1999/xlink">
    <!-- Generator: Sketch 42 (36781) - http://www.bohemiancoding.com/sketch -->
    <title>atlanta-falcons</title>
    <desc>Created with Sketch.</desc>
    <defs></defs>
    <g id="NFL" stroke="none" stroke-width="1" fill="none" fill-rule="evenodd">
        <g id="atlanta-falcons" fill-rule="nonzero">
            <g id="atl" transform="translate(66.000000, 75.000000)">
                <g id="ATL">
                    <g id="Page-1">
                        <g id="ATL">
                            <g id="Page-1">
                                <g id="Group-6" transform="translate(0.000000, 0.061443)">
                                    <g id="Group-3" fill="#BBC4CA">
                                        <path d="M356.40709,77.487627 C305.22768,45.1759166 187.989241,20.4561174 100.543552,0.127224894 L0,108.218387 L86.3006729,106.369291 C43.3318634,175.808184 52.0898374,339.092932 160.760208,360.801664 C155.163595,350.075785 145.45051,330.372569 158.045683,305.976781 C167.010318,288.625437 216.865979,193.237738 216.865979,193.237738 L228.80207,193.237738 C244.96634,193.237738 250.283682,199.315736 243.117559,207.879679 C286.198078,207.332213 312.650733,191.042285 324.519799,173.62949 C315.482553,157.09376 286.73428,137.625172 275.077461,129.731596 L335.355558,129.731596 C352.642502,129.731596 356.541142,136.977151 352.469353,144.859555 C380.681424,139.31785 395.108622,101.916933 356.40709,77.487627" id="Fill-1"></path>
                                    </g>
                                    <path d="M349.526384,80.7830418 C279.814475,41.6782744 107.201958,15.612154 107.201958,15.612154 L33.2562836,94.8272391 L109.922068,94.8272391 C53.3136079,169.634658 65.8585119,320.64051 149.098363,352.030465 C143.19455,337.980681 140.200752,321.690753 150.841021,300.959639 C162.849722,277.569402 181.968692,238.263525 209.348531,185.7961 L231.690302,185.7961 C250.239557,185.7961 256.165711,193.628226 253.646677,199.683879 C268.90052,199.683879 296.78305,198.181139 317.013523,173.628931 C300.156657,150.082275 244.430696,122.619556 244.430696,122.619556 L340.031132,122.619556 C354.07852,122.619556 361.099421,127.619379 359.161272,136.082768 C383.580827,124.155815 377.230179,96.3243935 349.526384,80.7830418" id="Fill-4" fill="#FFFFFF"></path>
                                </g>
                                <g id="Group-15" transform="translate(65.999868, 26.439390)">
                                    <path d="M170.374385,98.8163788 L172.1338,104.039658 C167.972646,112.17345 153.070685,141.714308 147.909735,152.043553 L186.58334,152.043553 C187.108372,158.89806 193.911441,164.713498 200.97144,166.249757 C196.787944,160.657775 198.44682,155.110484 201.569083,152.043553 L219.83348,152.043553 C224.910647,152.043553 223.346723,158.143897 215.091439,164.484455 C228.010568,161.529252 237.656627,155.652365 243.968177,147.250426 C231.992988,128.966154 170.374385,98.8163788 170.374385,98.8163788" id="Fill-7" fill="#000000"></path>
                                    <path d="M280.629346,59.6590997 C222.004541,27.4926356 36.3220883,0.275717687 36.3220883,0.275717687 L43.0525467,8.84524807 L0.0055407572,55.1955698 L151.398962,66.7761673 C151.11969,67.323634 150.834832,67.8822736 150.55556,68.4520859 L48.8725779,68.4520859 L56.7480519,75.8819918 C50.3192075,84.9319517 44.8454737,94.7025573 40.25424,104.936834 L125.275847,87.5575579 C124.817841,88.2390978 124.354249,88.9262244 123.907413,89.613351 L22.6098269,123.377524 L31.5130223,128.42204 C27.3351113,142.320991 24.6205862,156.728304 23.319178,171.141204 L109.385263,118.891649 C109.128332,119.684917 108.882573,120.472599 108.647984,121.265867 L13.7345586,196.168255 L22.4869471,198.363709 C22.9784661,214.608946 25.2573266,230.435204 29.21182,245.13301 L106.469662,154.041248 C106.603712,154.76748 106.743348,155.493711 106.905326,156.214356 L30.3847629,268.523247 L37.5843984,269.009263 C46.4540812,288.969454 59.0548397,305.348765 75.1074013,315.516004 C68.9131458,301.739954 70.884807,285.198637 78.0732716,270.472899 C84.30104,257.719159 165.429594,96.1550199 165.429594,96.1550199 L151.873724,88.8927061 L277.925992,88.8927061 C290.839535,88.8927061 297.994488,94.3115099 297.849266,101.596169 C305.825278,94.8645627 307.607034,74.4630472 280.629346,59.6590997" id="Fill-9" fill="#000000"></path>
                                    <path d="M287.289986,71.2827124 L288.909765,78.4388848 C277.878516,80.5170235 258.357394,82.1705966 252.838977,82.6119217 C252.570876,83.1649752 252.291603,83.712442 252.006746,84.2766675 L281.062218,84.2766675 C292.590571,84.2766675 297.444321,89.7457491 298.472043,92.890889 C299.980112,88.589365 298.589337,77.0534588 287.289986,71.2827124 M254.978202,57.1267867 C261.423802,59.2775489 275.923611,67.3666493 281.408516,73.7016215 L270.991666,73.7016215 C266.88078,66.9420833 254.978202,57.1267867 254.978202,57.1267867" id="Fill-11" fill="#FFFFFF"></path>
                                    <path d="M37.0292054,146.618605 L98.9550073,112.798568 C99.2901339,111.960608 99.6364309,111.117062 99.9994852,110.279103 L40.4028127,131.691757 C39.0790628,136.607785 37.9563888,141.590849 37.0292054,146.618605 L37.0292054,146.618605 Z M64.7218297,79.53717 C61.9905483,83.2800552 59.4547574,87.1737723 57.0921151,91.2015633 L117.66624,80.3751292 C118.196857,79.6768298 118.73306,78.9841172 119.274848,78.2969906 L64.7218297,79.53717 Z M103.149675,190.946651 C102.747523,190.226007 102.356542,189.499775 101.971146,188.773544 L51.6854067,264.60886 C54.3273211,269.608684 57.2429221,274.284496 60.4154535,278.574848 L103.149675,190.946651 Z M35.9791422,215.018429 L91.8838366,152.640739 C91.8391532,151.752502 91.805641,150.864265 91.7832992,149.981615 L34.1694588,198.968715 C34.5604398,204.393105 35.169253,209.756044 35.9791422,215.018429 L35.9791422,215.018429 Z M210.04946,143.618711 L166.159052,137.071455 L161.71304,145.685677 L209.010568,145.685677 C209.368036,144.987377 209.708748,144.294664 210.04946,143.618711 L210.04946,143.618711 Z M240.361657,65.1410294 L39.4365312,37.3319536 L51.7300902,24.0195736 C119.403313,34.482892 200.347546,51.0186221 241.445233,62.9902672 C241.09335,63.6885666 240.72471,64.414798 240.361657,65.1410294 L240.361657,65.1410294 Z" id="Fill-13" fill="#C9243F"></path>
                                </g>
                            </g>
                        </g>
                    </g>
                </g>
            </g>
        </g>
    </g>
</svg>