<svg width="512" height="512" viewBox="0 0 512 512" xmlns="http://www.w3.org/2000/svg"><title>atlanta-falcons</title><g fill="none"><path d="M422.407 152.55c-51.18-32.313-168.418-57.032-255.863-77.361L66 183.279l86.3-1.848c-42.968 69.439-34.21 232.723 74.46 254.432-5.596-10.726-15.31-30.429-2.714-54.825 8.964-17.351 58.82-112.739 58.82-112.739h11.936c16.164 0 21.482 6.078 14.316 14.642 43.08-.547 69.533-16.837 81.402-34.25-9.037-16.536-37.786-36.004-49.443-43.898h60.279c17.287 0 21.185 7.246 17.113 15.128 28.212-5.542 42.64-42.943 3.938-67.372" fill="#BBC4CA"/><path d="M415.526 155.844c-69.712-39.104-242.324-65.17-242.324-65.17l-73.946 79.215h76.666c-56.608 74.807-44.063 225.813 39.176 257.203-5.903-14.05-8.897-30.34 1.743-51.07 12.009-23.391 31.128-62.697 58.508-115.164h22.341c18.55 0 24.476 7.832 21.957 13.887 15.254 0 43.136-1.502 63.367-26.055-16.857-23.546-72.583-51.009-72.583-51.009h95.6c14.048 0 21.068 5 19.13 13.463 24.42-11.927 18.07-39.758-9.635-55.3" fill="#FFF"/><path d="M302.374 200.256l1.76 5.223c-4.161 8.134-19.063 37.675-24.224 48.004h38.673c.525 6.854 7.328 12.67 14.388 14.206-4.183-5.592-2.524-11.14.598-14.206h18.264c5.078 0 3.514 6.1-4.742 12.44 12.92-2.954 22.565-8.831 28.877-17.233-11.975-18.284-73.594-48.434-73.594-48.434" fill="#000"/><path d="M412.63 161.098c-58.626-32.166-244.308-59.383-244.308-59.383l6.73 8.57-43.047 46.35 151.394 11.58c-.28.548-.564 1.107-.844 1.676H180.872l7.876 7.43c-6.429 9.05-11.903 18.82-16.494 29.055l85.022-17.38c-.458.682-.922 1.37-1.369 2.057L154.61 224.817l8.903 5.044c-4.178 13.9-6.893 28.307-8.194 42.72l86.066-52.25a96.558 96.558 0 0 0-.737 2.374l-94.914 74.903 8.753 2.195c.491 16.245 2.77 32.072 6.725 46.77l77.258-91.092c.134.726.273 1.452.435 2.173l-76.52 112.309 7.2.486c8.869 19.96 21.47 36.34 37.522 46.506-6.194-13.776-4.222-30.317 2.966-45.043 6.228-12.753 87.356-174.318 87.356-174.318l-13.555-7.262h126.052c12.913 0 20.068 5.419 19.923 12.704 7.976-6.732 9.758-27.134-17.22-41.938" fill="#000"/><path d="M419.29 172.722l1.62 7.156c-11.032 2.078-30.553 3.732-36.071 4.173-.268.553-.548 1.1-.832 1.665h29.055c11.528 0 16.382 5.47 17.41 8.614 1.508-4.301.117-15.837-11.182-21.608m-32.312-14.156c6.446 2.15 20.945 10.24 26.43 16.575h-10.416c-4.111-6.76-16.014-16.575-16.014-16.575" fill="#FFF"/><path d="M169.03 248.058l61.925-33.82a95.88 95.88 0 0 1 1.044-2.52l-59.596 21.413a189.81 189.81 0 0 0-3.374 14.927zm27.692-67.081a139.51 139.51 0 0 0-7.63 11.664l60.574-10.826c.53-.699 1.067-1.391 1.609-2.079l-54.553 1.24zm38.428 111.409c-.403-.72-.794-1.447-1.179-2.173l-50.286 75.835c2.642 5 5.558 9.676 8.73 13.966l42.735-87.628zm-67.171 24.072l55.905-62.378c-.045-.888-.078-1.776-.1-2.659l-57.615 48.987c.391 5.424 1 10.787 1.81 16.05zm174.07-71.4l-43.89-6.547-4.446 8.614h47.297c.358-.698.699-1.39 1.04-2.067zm30.313-78.478l-200.926-27.809 12.294-13.312c67.673 10.463 148.617 26.999 189.715 38.97-.352.699-.72 1.425-1.083 2.151z" fill="#C9243F"/></g></svg>