<svg width="512" height="512" viewBox="0 0 512 512" xmlns="http://www.w3.org/2000/svg"><title>atlanta-falcons</title><g fill="none"><path d="M421.805 166.284c-48.365-30.535-159.155-53.895-241.791-73.106L85 195.324l81.554-1.747c-40.605 65.62-32.33 219.924 70.364 240.439-5.288-10.136-14.467-28.756-2.565-51.81 8.472-16.397 55.585-106.538 55.585-106.538h11.28c15.275 0 20.3 5.743 13.528 13.836 40.711-.517 65.709-15.911 76.925-32.366-8.54-15.626-35.707-34.024-46.723-41.484h56.963c16.336 0 20.02 6.847 16.173 14.296 26.66-5.237 40.294-40.58 3.72-63.666" fill="#BBC4CA"/><path d="M415.302 169.398c-65.877-36.954-228.996-61.586-228.996-61.586l-69.879 74.858h72.45c-53.496 70.693-41.64 213.393 37.021 243.057-5.58-13.277-8.408-28.671 1.647-48.262 11.348-22.104 29.415-59.248 55.29-108.83h21.112c17.53 0 23.13 7.402 20.75 13.124 14.414 0 40.763-1.42 59.88-24.622-15.929-22.251-68.59-48.203-68.59-48.203h90.342c13.275 0 19.91 4.724 18.078 12.722 23.077-11.27 17.076-37.571-9.105-52.258" fill="#FFF"/><path d="M308.374 211.367l1.662 4.936c-3.932 7.686-18.014 35.602-22.891 45.363h36.546c.496 6.478 6.925 11.973 13.597 13.425-3.954-5.284-2.386-10.526.565-13.425h17.26c4.797 0 3.32 5.765-4.482 11.757 12.209-2.793 21.324-8.346 27.289-16.286-11.317-17.279-69.546-45.77-69.546-45.77" fill="#000"/><path d="M412.565 174.363c-55.4-30.397-230.87-56.117-230.87-56.117l6.36 8.098-40.68 43.801 143.067 10.944c-.264.517-.533 1.045-.797 1.583h-96.09l7.442 7.022c-6.075 8.552-11.248 17.785-15.587 27.457l80.346-16.424c-.433.644-.871 1.294-1.294 1.943l-95.726 31.907 8.414 4.767c-3.948 13.135-6.514 26.75-7.743 40.37l81.332-49.376a91.25 91.25 0 0 0-.697 2.243l-89.693 70.783 8.271 2.075c.465 15.352 2.618 30.307 6.355 44.197l73.009-86.082c.126.686.258 1.373.411 2.054L176.083 371.74l6.804.459c8.382 18.862 20.29 34.34 35.46 43.949-5.854-13.019-3.991-28.65 2.802-42.566 5.885-12.052 82.552-164.73 82.552-164.73l-12.81-6.863H410.01c12.203 0 18.965 5.12 18.827 12.005 7.538-6.362 9.222-25.641-16.272-39.63" fill="#000"/><path d="M418.859 185.347l1.53 6.763c-10.424 1.964-28.871 3.526-34.086 3.943-.254.523-.518 1.04-.787 1.574h27.458c10.894 0 15.48 5.168 16.452 8.14 1.425-4.065.11-14.966-10.567-20.42m-30.535-13.377c6.091 2.033 19.794 9.677 24.977 15.663h-9.844c-3.885-6.388-15.133-15.663-15.133-15.663" fill="#FFF"/><path d="M182.362 256.54l58.52-31.96a90.83 90.83 0 0 1 .987-2.381l-56.318 20.235a179.37 179.37 0 0 0-3.189 14.106zm26.17-63.392a131.837 131.837 0 0 0-7.21 11.023l57.242-10.231c.502-.66 1.009-1.315 1.52-1.964l-51.552 1.172zm36.314 105.282c-.38-.681-.75-1.367-1.113-2.054l-47.52 71.665c2.496 4.724 5.251 9.143 8.25 13.197l40.383-82.808zm-63.476 22.748l52.83-58.947c-.042-.84-.074-1.679-.095-2.513L179.66 306.01c.37 5.126.945 10.194 1.71 15.167zm164.497-67.473l-41.477-6.187-4.201 8.14h44.696c.338-.66.66-1.314.982-1.953zm28.645-74.162l-189.875-26.28 11.618-12.58c63.951 9.889 140.443 25.515 179.28 36.828-.332.66-.68 1.346-1.023 2.032z" fill="#C9243F"/></g></svg>