<?xml version="1.0" encoding="UTF-8"?>
<svg width="512px" height="512px" viewBox="0 0 512 512" version="1.1" xmlns="http://www.w3.org/2000/svg" xmlns:xlink="http://www.w3.org/1999/xlink">
    <!-- Generator: Sketch 42 (36781) - http://www.bohemiancoding.com/sketch -->
    <title>baltimore-ravens</title>
    <desc>Created with Sketch.</desc>
    <defs></defs>
    <g id="NFL" stroke="none" stroke-width="1" fill="none" fill-rule="evenodd">
        <g id="baltimore-ravens" fill-rule="nonzero">
            <g id="bal" transform="translate(6.000000, 135.000000)">
                <g id="BAL">
                    <g id="Page-1">
                        <g id="BAL">
                            <g id="Page-1">
                                <g id="Group-3" transform="translate(0.000000, 0.624732)" fill="#FFFFFF">
                                    <path d="M498.483834,148.384926 C496.460589,136.111853 488.3524,118.074234 461.162833,101.848474 C459.327208,100.755284 457.400308,99.6874006 455.412559,98.6346998 C460.503631,96.9291226 465.762038,95.1678735 465.762038,95.1678735 L435.626343,83.4363351 C433.045312,82.4342452 430.342582,81.5283153 427.604356,80.6476908 C429.597177,78.6333887 431.696483,76.5026821 431.696483,76.5026821 L408.588901,73.2737255 C398.604519,71.8718117 390.734656,71.552965 384.700418,71.6390029 C384.64464,70.6672793 384.563507,69.7714716 384.45702,68.966763 C384.45702,68.9617019 380.608292,40.0883514 380.608292,40.0883514 C380.608292,40.0883514 371.668492,52.2703242 370.776033,53.4799177 C368.879558,50.3218159 366.724474,47.3509733 364.249929,44.5572679 L339.327005,16.4278932 C339.327005,16.4278932 340.32595,24.7027272 341.116993,31.3074112 C333.034157,25.6795119 324.155207,20.6538788 314.322949,16.4481374 C274.233297,-0.713918946 223.525415,-4.28196665 175.200803,6.65498525 C134.791692,15.8053827 76.4370613,39.6531002 27.9755386,101.312001 L0,136.90644 L42.1027544,120.164452 C42.4424973,120.032864 74.9411788,107.385274 101.152083,103.695761 C110.928562,102.319153 118.413046,102.207809 112.338242,115.574069 C107.546347,126.116259 96.6644355,141.512005 96.557949,141.663837 L75.4736116,172.273132 L110.639528,160.081036 C127.560748,154.215267 142.737617,151.325402 150.419861,151.052104 C153.163158,151.102715 153.665166,152.904453 152.803132,154.878266 C152.554663,155.556448 152.40761,155.915783 150.511136,158.820832 L128.458277,190.239897 L164.62821,177.303825 C190.879681,167.905436 225.391465,161.72082 237.738834,166.427606 C238.74285,166.807186 242.003367,168.533008 238.773275,173.270161 L224.564927,195.832368 C224.564927,195.832368 245.537707,192.648961 248.51933,192.193466 C250.167336,212.791982 260.521886,224.022476 261.794654,225.318107 L277.037443,240.921356 L282.382053,219.79649 C286.225711,204.598126 293.466796,196.308108 299.92191,191.803764 L301.164253,200.478422 L315.281327,195.397117 C327.167255,191.110399 336.563426,185.9633 343.332928,180.09247 C352.28794,179.37886 374.158249,178.083229 395.166525,180.163324 C431.377023,183.731372 455.661028,178.928426 462.247982,177.369619 C471.05087,175.289523 478.474504,179.039769 478.555637,179.080258 L489.315849,184.925783 L495.126973,174.044502 C495.811529,172.733688 499.0974,165.946805 499.0974,155.870234 C499.0974,153.380192 498.894568,150.859784 498.483834,148.384926" id="Fill-1"></path>
                                </g>
                                <path d="M493.439415,151.1019 C491.649426,140.220619 484.271429,124.14163 459.262302,109.211501 C452.573932,105.233507 445.312563,101.832475 437.964991,98.9426094 L446.818587,95.9717667 L434.653767,91.2295529 C428.629671,88.8862818 422.296256,86.9529567 415.770152,85.3789669 C417.022636,84.1137017 418.381607,82.7269712 418.381607,82.7269712 L409.056428,81.4161564 C394.695956,79.4119765 384.787636,79.6447852 378.956229,80.1863188 C379.006937,78.9362367 379.047503,77.6051778 379.047503,76.2639968 C379.047503,74.3914044 378.981583,72.5441173 378.778751,71.0511044 L377.222019,59.3853598 C377.222019,59.3853598 371.552879,67.1135993 370.731411,68.2320937 C368.855219,63.0343844 365.787392,56.5916544 360.174029,50.2501455 L350.103444,38.8779424 L351.2393,48.372492 C342.187944,39.9761926 329.663096,31.1497029 312.483266,23.7959819 C273.51933,7.11978735 224.119711,3.67320506 176.966452,14.3419208 C137.449799,23.2848148 80.378078,46.6264261 32.9408543,106.984635 L20.9839357,122.208304 L38.9852338,115.041843 C39.3199059,114.910255 72.8023204,101.675582 100.017241,98.04174 C110.69632,96.6246436 118.059105,97.8899086 120.756764,101.599666 C123.276946,105.081676 122.460549,111.969779 118.556042,120.047232 C113.20636,131.125894 102.268671,147.032807 102.162184,147.194761 L93.1412519,160.277602 L108.18121,155.06471 C127.99785,148.191789 152.971482,143.105424 158.767393,146.886036 C160.10101,147.761599 160.821062,148.788995 161.099956,150.231397 C162.02791,155.034343 157.890147,162.31721 156.358768,164.498527 L146.922031,177.92552 L162.393006,172.393781 C187.113098,163.552108 231.436858,153.409743 245.127987,163.886139 C251.466472,168.739696 245.543791,178.320283 245.285181,178.720107 L239.205306,188.386733 L250.48781,186.665972 C250.48781,186.665972 253.271673,186.235782 256.014969,185.815714 C255.979474,186.696338 255.923695,187.592147 255.923695,188.432282 C255.923695,210.245453 266.972943,221.840343 267.505376,222.386938 L274.026409,229.057416 L276.313334,220.023423 C282.732952,194.632081 297.914892,185.84608 306.383108,182.860054 C306.616364,184.545388 307.792787,192.76455 307.792787,192.76455 L313.832096,190.593355 C328.638797,185.253936 336.929536,179.40335 341.488175,175.010349 C348.303314,174.413145 373.261734,172.53043 397.231349,174.888885 C432.529106,178.381016 455.991644,173.745084 462.34027,172.24701 C474.04872,169.483672 483.556448,174.534609 483.662935,174.58016 L488.307776,177.11069 L490.797533,172.444392 C490.954728,172.15085 493.961706,166.320509 493.961706,157.488958 C493.961706,155.510083 493.809581,153.369255 493.439415,151.1019" id="Fill-4" fill="#D2AA41"></path>
                                <path d="M456.157458,114.481583 C445.711635,107.11268 431.650338,101.747955 418.004847,97.9167319 C423.689201,96.0846283 429.378626,96.2060938 429.378626,96.2060938 C420.636586,92.8708548 411.504097,90.7856979 403.015597,89.4698222 L406.194982,86.6255061 C390.642874,83.9785714 379.786317,84.1810139 373.346416,84.8490739 C374.152672,81.6707278 374.811873,76.8121096 373.975194,70.32383 C373.975194,70.32383 372.099002,75.9163019 367.52008,79.3881895 C366.916657,72.1306286 364.594236,61.6339891 356.704089,54.5130768 L358.164476,67.3226211 C351.212426,56.871531 337.982739,43.5103311 312.968541,31.8344644 C244.979413,0.111736747 125.166829,12.1368167 59.4037767,96.9146426 C59.4037767,96.9146426 84.9757616,84.1557085 120.41043,83.3155725 C138.969514,82.8803213 143.482516,93.2554955 136.718084,110.74146 C129.923228,128.313462 117.996734,143.729453 117.996734,143.729453 C117.996734,143.729453 198.181108,115.37233 172.862663,154.762564 C172.862663,154.762564 233.397732,136.679396 251.551154,157.895361 C259.994016,167.744185 250.166829,181.520392 250.166829,181.520392 L267.336518,177.805573 C261.768792,199.578256 271.514847,213.480989 271.514847,213.480989 C278.603809,185.022646 303.31376,177.446238 312.060869,176.013958 L313.952274,183.716892 C328.611923,178.428083 335.503123,172.805245 339.443127,168.164253 C370.486491,163.290452 391.570828,167.460765 415.499879,168.761458 C450.356477,170.659355 468.378057,164.596205 474.133403,164.636694 C478.36244,164.677182 483.372379,168.351512 483.372379,168.351512 C483.372379,168.351512 497.85962,143.947078 456.157458,114.481583" id="Fill-6" fill="#000000"></path>
                                <path d="M427.543,160.772068 C444.90538,160.675908 457.891668,159.11204 468.114377,156.733341 C430.392783,140.598681 356.546895,133.700455 345.102126,134.63169 C345.102126,134.63169 338.854915,136.392939 346.050363,143.291165 C335.984848,139.333416 325.944688,131.792435 325.244919,127.976396 C324.509655,123.927547 331.857227,122.788808 349.270313,124.828416 C414.445155,132.516167 470.857673,143.402508 478.484139,159.344848 C478.484139,159.344848 482.459637,139.389087 449.960955,120.389865 C422.157823,101.891689 379.441503,98.8601135 379.441503,98.8601135 L390.22707,107.544894 L370.151819,105.80895 L386.04874,117.282374 C368.985538,111.715208 323.044197,96.6889187 284.967649,106.18853 C284.967649,106.18853 326.750943,105.722912 345.812036,117.079932 C275.241877,105.586263 238.554724,130.05143 238.554724,130.05143 C278.243783,118.729837 309.926068,121.852512 320.326254,123.401197 C303.628149,127.37919 323.287594,139.581408 335.295221,145.953282 C336.659263,149.298644 339.950205,156.131075 336.730254,161.88044 C336.730254,161.88044 340.350797,157.279936 342.982536,150.523421 L352.753945,158.352881 C381.905907,154.754467 403.406048,160.888472 427.543,160.772068" id="Fill-8" fill="#FFFFFF"></path>
                                <path d="M294.087968,34.5522539 C216.930854,11.5699779 136.41688,33.803217 91.7229524,76.5185682 C91.7229524,76.5185682 136.710985,62.388087 150.209424,76.2705762 C165.893371,92.4102983 142.121516,130.368253 142.121516,130.368253 L157.673623,127.938944 C156.55298,128.06547 155.90899,128.151508 155.90899,128.151508 C168.063669,85.7195763 179.026713,70.8451193 186.369214,63.5673142 C190.730092,58.2532006 198.452903,54.6497254 204.639264,52.5493853 C163.05373,54.5282599 122.629407,63.0713302 122.629407,63.0713302 C148.779461,42.8169659 209.395664,28.6713015 244.343536,32.2241661 C279.286337,35.7871527 276.908138,49.932817 273.312949,58.0001475 C270.407388,64.5187936 256.133118,73.3604664 242.705671,76.2199656 C256.604702,78.0267642 264.479636,88.7309073 259.495051,99.4198675 C259.074176,100.33592 258.577238,101.221604 258.049877,102.076924 C243.21782,105.594361 230.054054,111.166588 219.253276,117.255044 C218.878037,117.477731 218.497728,117.695357 218.12249,117.912983 C217.615411,118.201463 217.113403,118.495004 216.611395,118.793607 C216.236157,119.016294 215.850777,119.23898 215.465397,119.47685 C214.998885,119.76027 214.537443,120.04875 214.07093,120.33217 C213.690621,120.5751 213.305241,120.81297 212.930003,121.055902 C212.488844,121.329199 212.057827,121.612617 211.62174,121.896037 C211.251572,122.133907 210.876333,122.376838 210.506166,122.62483 C210.095433,122.91331 209.684699,123.186607 209.279035,123.464966 C200.405156,129.553422 193.960184,135.652 190.618535,140.384091 C190.618535,140.384091 281.497201,122.012442 265.752404,167.688513 L289.220011,161.27615 C287.566935,164.155893 284.950408,167.460765 281.380573,171.423576 C270.285688,183.727014 271.051378,195.423126 271.051378,195.423126 C271.051378,195.423126 274.306823,182.623703 295.304957,173.852885 C314.452253,165.866531 318.86891,152.287706 318.86891,152.287706 C318.86891,152.287706 325.247962,161.696218 320.025049,174.875219 C320.025049,174.875219 328.843151,172.673658 336.733297,161.873354 C339.953247,156.129051 336.657235,149.30168 335.293193,145.951258 C323.285566,139.579383 303.631192,127.382227 320.324226,123.404233 C309.92911,121.855549 278.246825,118.732874 238.552696,130.049406 C238.552696,130.049406 275.244919,105.584239 345.810008,117.082969 C326.748915,105.720888 284.970691,106.191566 284.970691,106.191566 C299.508641,102.562786 315.187518,102.512176 329.968865,104.141836 C324.030972,102.491931 315.953207,100.573789 306.45562,99.1364478 C291.943025,97.4156867 278.08456,98.1849689 265.306174,100.538361 C279.666647,85.6689657 305.821772,87.617474 305.821772,87.617474 C288.383331,75.8909967 265.630705,79.6412426 265.630705,79.6412426 C291.136769,66.472363 319.487546,70.9311573 319.487546,70.9311573 C310.5731,59.1844357 289.524259,56.5931727 289.524259,56.5931727 C331.251775,54.9078396 345.870857,76.7969265 345.870857,76.7969265 C335.465599,72.2723384 328.062249,72.9555815 328.062249,72.9555815 C328.062249,72.9555815 338.087197,74.5801819 344.876983,87.2429555 C352.06736,100.659827 358.167518,100.280248 358.167518,100.280248 C358.167518,100.280248 369.597075,57.0436071 294.087968,34.5522539" id="Fill-10" fill="#2C2D8B"></path>
                                <path d="M211.623768,121.896037 C212.059855,121.612617 213.69265,120.5751 214.072959,120.33217 C214.534401,120.04875 214.995842,119.76027 215.462354,119.47685 C215.847734,119.23898 216.233114,119.016294 216.613424,118.793607 C217.115432,118.495004 217.612368,118.201463 218.124518,117.912983 C218.499757,117.695357 218.874995,117.477731 219.250233,117.255044 C230.056083,111.166588 243.214778,105.594361 258.046833,102.076924 C258.574196,101.221604 259.071133,100.33592 259.492008,99.4198675 C264.476593,88.7309073 256.60673,78.0267642 242.702629,76.2199656 C256.130076,73.3604664 270.404344,64.5187936 273.314977,58.0001475 C276.910166,49.932817 279.283295,35.7871527 244.340493,32.2292271 C209.397692,28.6713015 148.776419,42.8169659 122.626364,63.0713302 C122.626364,63.0713302 163.055758,54.5282599 204.641292,52.5493853 C198.454931,54.6497254 190.73212,58.2532006 186.371243,63.5673142 C179.028741,70.8451193 168.060627,85.7195763 155.905947,128.151508 C155.905947,128.151508 156.555008,128.06547 157.670581,127.938944 C162.883351,127.281006 178.557158,125.398291 187.841771,124.922551 L203.480082,124.026744 C205.173725,124.026744 206.913006,123.966011 208.687781,123.86985 C208.885542,123.738263 209.083303,123.596553 209.275993,123.464966 C209.686727,123.186607 210.097461,122.91331 210.508195,122.629891 C210.873291,122.376838 211.248529,122.133907 211.623768,121.896037" id="Fill-12" fill="#FFFFFF"></path>
                                <path d="M232.119387,69.0985473 C231.576812,70.2676522 231.003813,71.2697423 230.40546,72.1250614 C235.405257,70.6371096 239.279339,67.8788316 241.180886,64.5840812 C245.364285,57.291093 242.154477,52.0579563 235.405257,51.3443468 L228.392357,51.3645911 C228.392357,51.3645911 227.180439,52.36162 224.959434,55.706981 C233.123403,55.7778358 236.439698,59.8469285 232.119387,69.0985473" id="Fill-14" fill="#000000"></path>
                                <path d="M220.002231,103.928766 C218.683826,106.773082 216.90398,108.95946 214.906089,110.649854 C220.194921,109.3441 225.9097,106.180938 229.06373,99.4193614 C234.251146,88.2749057 229.626587,83.6035469 221.315565,83.6035469 L210.976228,83.6035469 C210.200398,85.1117429 209.460062,86.625 208.750153,88.1180129 L212.248996,88.1180129 C220.57016,88.1180129 225.189648,92.7893718 220.002231,103.928766" id="Fill-16" fill="#000000"></path>
                                <path d="M214.90406,110.652386 C216.901951,108.961991 218.681798,106.775612 220.000203,103.931296 C225.19269,92.7919023 220.573202,88.1205434 212.252038,88.1205434 L208.748123,88.1205434 C202.982638,100.302516 199.39759,111.462155 199.39759,111.462155 L208.322178,111.462155 C210.254148,111.462155 212.536003,111.24959 214.90406,110.652386" id="Fill-18" fill="#2C2D8B"></path>
                                <path d="M230.403432,72.1270859 C231.001785,71.2667056 231.574784,70.2696767 232.117358,69.1005717 C236.43767,59.8438919 233.121374,55.7798602 224.962476,55.7090054 C222.812462,58.9480841 219.714211,64.3887243 215.835057,73.3012519 L222.097481,73.3012519 C225.084175,73.3012519 227.88325,72.8710618 230.403432,72.1270859" id="Fill-20" fill="#2C2D8B"></path>
                                <path d="M270.124437,46.8339296 C266.858849,41.4843886 258.88757,38.3161647 244.72993,37.5974941 C244.72993,37.5974941 230.389741,35.6540468 212.251531,38.0782948 C205.071295,39.0348352 170.174131,42.5775776 140.464383,57.057272 C166.442031,50.7410684 197.155795,48.4281637 216.602268,47.7246763 C224.781449,47.4311347 233.761815,47.6892488 233.761815,47.6892488 C239.578009,47.6892488 244.968257,49.4049484 247.032067,52.7907979 C249.177011,56.2981129 249.770293,60.493732 245.739017,65.6307085 C243.523082,68.4547803 240.921768,71.435745 233.361223,74.5078088 L242.067766,72.6503996 C255.08955,69.8769384 266.914629,62.573828 269.63257,56.9105012 C271.615249,52.7756147 271.731877,49.4606201 270.124437,46.8339296" id="Fill-22" fill="#D2AA41"></path>
                                <path d="M207.095047,79.982358 L221.445378,79.982358 C228.853799,79.982358 232.256298,83.0088722 233.81303,85.5697689 C236.25715,89.5629457 235.826133,94.9479141 232.793801,101.699368 C226.957324,114.706294 212.804754,115.880461 208.555434,115.880461 L192.273133,116.502971 C199.33167,94.1482666 207.095047,79.982358 207.095047,79.982358 M214.559247,120.020409 C224.913796,113.643472 237.874731,107.570199 252.676362,103.460618 C253.614458,102.215597 254.415643,100.899721 255.059633,99.5079297 C256.545373,96.3245226 256.71778,92.3667732 255.657986,89.2339767 C254.060687,84.4867019 250.876232,81.3235391 240.846213,78.9752069 C227.646952,75.9031432 208.367814,77.2544464 208.367814,77.2544464 C212.804754,66.5047537 216.110909,60.2189165 219.432274,54.7681542 C216.582492,54.585956 202.201736,56.1093353 191.162631,66.6262192 C181.548416,75.1085566 171.163442,97.1444147 162.892986,123.380953 C177.106406,121.893001 189.991278,121.214818 189.991278,121.214818 L203.504929,120.637857 C207.054481,120.637857 210.78658,120.445537 214.559247,120.020409" id="Fill-24" fill="#D2AA41"></path>
                                <path d="M334.898686,84.153178 C337.058841,89.2699102 334.077218,94.9484202 328.23567,96.8463183 C322.389051,98.7442159 315.898442,96.1276473 313.738286,91.0109151 C311.567989,85.8891218 314.554684,80.2055508 320.396231,78.3177752 C326.232709,76.4198775 332.728389,79.0364458 334.898686,84.153178" id="Fill-26" fill="#DA2128"></path>
                                <path d="M319.869884,91.6779629 C318.242161,87.8315568 320.589936,83.5144722 325.113078,82.0467647 C326.85743,81.4799258 328.662631,81.4191931 330.315707,81.7835895 C328.059207,80.3614314 325.001521,79.9160581 322.136526,80.8472933 C317.603241,82.3099398 315.260537,86.6219634 316.893331,90.4886137 C317.892276,92.862251 320.179202,94.5070957 322.836294,95.0739345 C321.522961,94.2489816 320.473307,93.0950598 319.869884,91.6779629" id="Fill-28" fill="#FFFFFF"></path>
                                <path d="M334.366253,87.2718035 C335.547747,90.3337452 333.859174,93.7651443 330.593586,94.9342492 C327.343211,96.0932321 323.758164,94.5597307 322.576671,91.4826059 C321.400247,88.4206643 323.098962,84.9993873 326.344266,83.8404045 C329.604783,82.6662385 333.18983,84.2048008 334.366253,87.2718035" id="Fill-30" fill="#000000"></path>
                            </g>
                        </g>
                    </g>
                </g>
            </g>
        </g>
    </g>
</svg>