<svg width="512" height="512" viewBox="0 0 512 512" xmlns="http://www.w3.org/2000/svg"><title>buffalo-bills</title><g fill="none" fill-rule="evenodd"><path d="M80.087 317.711c31.249-19.95 41.078-42.421 41.078-42.421l-88.489 12.699 37.605-66.78 75.556-6.361s29.4-26.236 74.905-45.038c0 0 4.747-8.28 30.739-23.235 0 0 23.839-14.042 50.987-23.025 0 0 18.4-6.328 23.83-6.646l-1.597-5.851 34.693-2.972.894-3.324s18.11 1.222 28.497 5.823l2.045-2.729s24.237 11.14 42.276 38.513c0 0 17.497-.973 33.158 6.525 0 0 16.598 6.6 15.85 25.861 0 0-.113 24.583-7.462 48.946 0 0-1.128 3.81-2.176 6.09 0 0-1.526 3.103-4.47 7.021 0 0-8.215 8.467-11.407 15.92 0 0-1.727 4.951-5.158 13.957 0 0-2.64 12.39-20.633 13.073 0 0-17.51 22.159-24.812 28.524l-.618-5.387s-12.217 11.318-22.819 18.002l3.581-31.37s.88-5.598-2.677-6l-9.151-.22s2.996 18.876-.623 27.606c0 0-2.303 13.705-23.567 20.235 0 0-16.43 5.228-35.227 6.693l-4.04-.636-29.591 12.123 8.65-31.029s-11.089 1.128-12.043-.262l-32.953 14.122 12.952-37.109 8.874-4.915-2.831-3.847-18.218.164-6.702 5.21c-15.475-4.026-30.519-2.945-30.519-2.945l-76.571 62.146-19.187 42.412-22.912-30.635 7.171-9.38-2.724-2.046-10.387 8.172-15.376 41.41-22.645-31.96 5.823-12.988-1.287-7.953c6.74-4.451 11.102-7.433 14.51-11.266 1.858-2.392 2.883-3.225 5.04-7.255 2.037-4.93 2.112-10.26 4.382-11.95 2.841-1.924 5.013-3.225 5.776-3.712" fill="#FFF" fill-rule="nonzero"/><path d="M90.005 313.089c10.785-8.058 19.239-16.702 25.625-25.357 2.243-3.04 4.069-5.87 5.51-8.416.509-.898.933-1.699 1.279-2.393.212-.426.353-.729.427-.898l1.32-3.02-3.262.469-88.488 12.698 1.859 2.717 37.605-66.78-1.445.928 75.556-6.361c1.198-.575 1.464-.808 1.863-1.15.672-.574 1.47-1.242 2.392-1.995a228.012 228.012 0 0 1 9.279-7.16c10.11-7.42 21.66-14.843 34.45-21.77a291.307 291.307 0 0 1 27.468-13.095l.891-.784c.092-.16.39-.582.96-1.257 1.004-1.193 2.413-2.626 4.289-4.293 5.445-4.836 13.544-10.523 24.813-17.007a174.19 174.19 0 0 1 2.269-1.293 268.15 268.15 0 0 1 6.31-3.415 316.714 316.714 0 0 1 21.723-10.374c6.87-2.96 13.685-5.587 20.346-7.79a339.702 339.702 0 0 1 10.248-3.317c.805-.246 1.59-.482 2.354-.707 5.105-1.504 8.938-2.427 10.759-2.534l2.257-.132-.595-2.182-1.596-5.85-1.613 2.31 34.693-2.972 1.615-1.352.894-3.323-1.895 1.354c.7.053 1.072.084 1.49.121 1.2.107 2.54.244 3.981.414 4.117.485 8.232 1.135 12.06 1.971 4.09.894 7.602 1.948 10.346 3.164l1.335.591.876-1.168 2.045-2.73-2.234.567c1.177.582 1.81.914 2.525 1.306a92.458 92.458 0 0 1 6.828 4.173c7.09 4.74 14.184 10.67 20.805 17.864a114.306 114.306 0 0 1 11.352 14.513l.58.88a57.15 57.15 0 0 1 1.543-.077c2.61-.077 6.07.033 10.067.478 5.977.666 11.869 1.964 17.36 4.036a55.161 55.161 0 0 1 4.348 1.853c1.177.545 1.736.84 2.34 1.198a26.995 26.995 0 0 1 5.11 3.904c4.875 4.749 7.67 10.996 7.358 19.033-.002.24-.007.593-.02 1.112-.02.87-.056 1.883-.108 3.025a197.813 197.813 0 0 1-.814 10.841c-1.142 11.215-3.156 22.426-6.25 32.87l-.29.966c-.552 1.744-.852 2.63-1.152 3.451a33.342 33.342 0 0 1-.649 1.65c-.647 1.288-.916 1.767-1.23 2.298a53.067 53.067 0 0 1-3.228 4.813 63.732 63.732 0 0 0-1.887 2.052 85.834 85.834 0 0 0-4.446 5.472c-1.588 2.136-2.955 4.217-4.036 6.202a30.61 30.61 0 0 0-1.258 2.573c-.098.269-.205.571-.365 1.02-.268.753-.59 1.646-.965 2.676a751.23 751.23 0 0 1-3.856 10.33c-.312 1.038-.477 1.467-.692 1.935a14.731 14.731 0 0 1-2.743 4.004c-3.315 3.475-8.344 5.681-15.553 5.955l-1.37.696-1.026 1.29a636.498 636.498 0 0 1-11.323 13.767c-.534.628-1.06 1.244-1.577 1.844-4.612 5.358-8.297 9.324-10.652 11.377l3.028 1.174-.617-5.387-.413-3.598-2.657 2.461c-.495.454-.758.693-1.057.962-.857.772-1.828 1.633-2.895 2.56a216.908 216.908 0 0 1-9.434 7.768 141.688 141.688 0 0 1-5.48 4.05 92.77 92.77 0 0 1-3.684 2.456l2.801 1.76 3.58-31.37c.146-1.442.138-2.504-.047-3.542-.434-2.434-1.783-4.211-4.246-4.49l-9.313-.231-2.201-.053.345 2.175c.086.573.129.878.176 1.224.134.991.268 2.102.393 3.303.396 3.787.615 7.594.566 11.13-.064 4.657-.594 8.435-1.64 10.96-.133.506-.195.774-.32 1.18-.219.716-.535 1.525-.966 2.405-1.253 2.556-3.176 5.13-5.92 7.55-3.764 3.32-8.77 6.072-15.206 8.048-1.783.537-2.714.802-3.764 1.088a179.8 179.8 0 0 1-9.977 2.406c-7.014 1.486-14.132 2.582-21.09 3.124l-3.61-.62-30.573 12.238 2.462 2.19 8.65-31.028.722-2.59-2.675.272c-1.25.115-1.859.165-2.502.211-1.183.086-2.343.15-3.424.184-1.476.047-2.722.035-3.646-.045-1.039-.126-1.625-1.066-1.625-1.066l-1.383.593-32.952 14.121 2.455 2.291 12.951-37.108-.843 1 8.874-4.915 1.826-1.011-1.237-1.681-2.832-3.848-1.494-.747-18.217.164-7.812 5.596 1.587-.327c-10.338-2.69-20.929-3.415-29.752-3.068-1.17.056-1.935.11-1.935.11l-77.02 62.51-19.702 43.08 3.14-.342-22.912-30.635-.011 2.213 7.17-9.38 1.125-1.47-1.48-1.112-2.724-2.045-1.128-.847-1.109.872-10.386 8.173-15.962 42.213 3.217-.422-22.645-31.96.177 1.811 5.823-12.989.137-1.043-1.287-7.953-.8 1.824c8.524-5.63 11.74-8.058 14.87-11.578.338-.43.592-.746.906-1.131.046-.057.613-.748.776-.95 1.541-1.96 2.442-3.354 3.605-5.527.29-.677.487-1.205.674-1.756.3-.884.566-1.8.846-2.877.157-.603.636-2.545.65-2.606.64-2.538 1.122-3.683 1.69-4.105a135.68 135.68 0 0 1 3.55-2.315c.572-.36 1.963-1.224 2.117-1.322l-1.974-3.094c-.13.083-1.51.94-2.1 1.312-1.238.78-2.45 1.569-3.718 2.428-1.583 1.176-2.266 2.801-3.122 6.2-.02.08-.494 2.003-.644 2.579-.26.998-.502 1.831-.77 2.62-.162.48-.332.934-.512 1.37-.988 1.826-1.774 3.043-2.727 4.261-.572.714-1.133 1.399-1.185 1.463-.33.406-.601.744-.882 1.105-2.766 3.106-5.818 5.41-14.072 10.861l-.99.654.19 1.17 1.287 7.953.137-1.044-5.823 12.99-.429.955.606.855 22.645 31.96L69 408.69l1.21-3.256 15.375-41.41 9.801-7.37-2.236.026 2.724 2.046-.355-2.582-7.171 9.38-.843 1.102.831 1.111 22.912 30.636 1.86 2.487 1.28-2.83 19.187-42.412 76.056-61.477c8.71.009 18.968.71 28.9 3.295l1.588-.327 6.703-5.21 17.108.222-1.494-.747 2.832 3.848.589-2.693-8.875 4.915-.843 1-12.952 37.11-1.372 3.93 3.827-1.64 32.952-14.122-.722-1.686-1.513 1.039c.976 1.42 3.085 1.602 7.56 1.46a89.25 89.25 0 0 0 3.573-.191c.664-.048 1.294-.1 1.87-.151.346-.031-1.214-2.388-1.214-2.388l-8.65 31.029-1.007 3.612 3.47-1.422 29.591-12.123 3.058.751c7.56-.539 14.832-1.658 21.993-3.175 3.687-.781 7.11-1.618 10.182-2.455 1.077-.294 2.035-.567 2.862-.813 7.94-2.435 13.407-5.441 17.57-9.113 3.115-2.746 5.329-5.708 6.788-8.687.896-1.828 1.343-3.288 1.495-4.193 1.148-2.648 1.736-6.834 1.805-11.916.05-3.697-.176-7.642-.585-11.561a113.585 113.585 0 0 0-.542-4.372c-.025-.168-1.91 1.772-1.91 1.772l9.152.22c.387.051.703.468.883 1.477.118.664.124 1.415.06 2.108-.015.153-3.626 31.744-3.626 31.744l-.433 3.8 3.235-2.04a96.411 96.411 0 0 0 3.83-2.554 145.316 145.316 0 0 0 5.623-4.154 220.507 220.507 0 0 0 9.596-7.9 222.446 222.446 0 0 0 2.943-2.604c.947-.86 1.044-.949 1.095-.996l-3.07-1.137.618 5.387.398 3.468 2.63-2.294c2.528-2.204 6.299-6.262 11.022-11.75.522-.605 1.053-1.226 1.592-1.86a640.121 640.121 0 0 0 12.16-14.816c7.053.043 12.988-2.56 16.971-6.737a18.382 18.382 0 0 0 3.422-5.003c.484-1.052.753-1.896.867-2.432a535.97 535.97 0 0 0 4.769-12.81l.327-.926c.263-.603.634-1.359 1.061-2.144.99-1.819 2.266-3.76 3.759-5.768a82.218 82.218 0 0 1 4.254-5.236c.508-.577.979-1.096 1.4-1.55 1.998-2.493 3.149-4.232 4.118-5.87.588-.992.988-1.738 1.2-2.167.48-1.1.721-1.715.968-2.39a70.173 70.173 0 0 0 1.215-3.638l.3-.998c3.166-10.686 5.22-22.115 6.383-33.54.407-3.997.674-7.71.828-11.044.054-1.169.09-2.208.112-3.106.018-.969.019-1.068.019-1.12.354-9.072-2.88-16.302-8.467-21.742a30.64 30.64 0 0 0-5.804-4.436c-1.203-.71-2.155-1.166-2.735-1.397a56.405 56.405 0 0 0-4.522-1.926c-5.803-2.19-11.988-3.552-18.25-4.25-4.18-.465-7.81-.58-10.581-.498-.28.008 1.05.845 1.05.845a117.971 117.971 0 0 0-11.717-14.979c-6.828-7.42-14.145-13.535-21.465-18.43a96.11 96.11 0 0 0-7.102-4.338 61.26 61.26 0 0 0-2.012-1.06 168.23 168.23 0 0 0-2.093-.982l-.888 1.185-2.045 2.729 2.21-.577c-3.002-1.33-6.736-2.452-11.047-3.393-3.959-.865-8.188-1.534-12.414-2.031a145.097 145.097 0 0 0-4.085-.425 157.51 157.51 0 0 0-1.569-.127l-1.504-.102-.391 1.456-.894 3.323 1.615-1.351-34.694 2.972-2.192.188.579 2.123 1.596 5.85 1.663-2.314c-2.206.13-6.188 1.089-11.58 2.677-.776.228-1.574.468-2.39.717a343.303 343.303 0 0 0-9.498 3.06 261.395 261.395 0 0 0-21.476 8.187 320.351 320.351 0 0 0-21.976 10.495 271.801 271.801 0 0 0-6.397 3.462c-.655.366-1.23.692-1.719.973-12.063 6.944-20.364 12.773-26.008 17.786-2.005 1.78-3.536 3.34-4.659 4.671-.707.84-1.132 1.44-1.336 1.798l.89-.784a294.97 294.97 0 0 0-27.813 13.26c-12.946 7.012-24.635 14.524-34.874 22.038a231.66 231.66 0 0 0-9.429 7.277c-.944.771-1.764 1.457-2.456 2.049l-.854.74-74.488 5.903-1.445.928-37.604 66.78-1.828 3.245 3.687-.53 88.489-12.698-1.942-2.551a48.58 48.58 0 0 1-1.537 2.953c-1.37 2.42-3.116 5.126-5.27 8.045-6.178 8.374-14.38 16.76-24.868 24.596a144.077 144.077 0 0 1-8.71 6.016l1.975 3.092a147.746 147.746 0 0 0 8.93-6.168z"/><path d="M74.579 227.898l-29.278 51.6 377.785-56.305s-13.13-9.984 5.902-25.772l-354.41 30.477z" fill="#C60C30" fill-rule="nonzero"/><path d="M458.061 190.237s-29.502 20.17-19.27 37.558c0 0-10.705 5.935 1.123 14.286 0 0-18.283 8.224-13.448-14.351l-297.01 44.939s-6.351 26.895-48.478 52.363c0 0-3.084 1.812-3.36 5.196 0 0 .294 4.212-3.54 9.314 0 0-4.745 8.28-15.75 15.32l.787 5.514-5.154 11.828 12.615 18.124 11.416-30.818 22.608-17.36s22.12-34.624 58.5-48.17c0 0 32.095-13.695 78.958-5.944l4.278-4.105 54.255-1.198s2.04.468.678 1.572c0 0-10.686 8.22-22.392 9.282l1.081 3.333s.323 1.17-.552 1.45l-11.365 4.513-7.517 20.834 21.325-9.277 1.194.894s18.559 1.151 46.484-4.498c0 0 19.369-3.83 24.756-28.918l36.865-1.605s7.677 1.633 6.717 8.767l-2.64 20.899 16.855-15.02 1.17 3.936s12.779-13.831 16.055-21.747c0 0 14.024.281 17.478-5.387 0 0 1.592-1.587 6.071-13.93 0 0 2.106-8.669 10.77-17.197 0 0 6.708-6.277 10.434-22.771 0 0 4.498-23.9 4.46-28.454 0 0 4.836-23.643-11.364-30.608 0 0-12.04-6.642-34.581-4.797 0 0-4.494-15.685-35.555-37.189l-2.256 3.361s-10.616-7.302-25.646-7.133l-.763 2.083s-9.132-.066-29.053 2.017l1.854 5.514s-41.083 1.905-99.363 40.919l-1.067 3.192-7.405 3.492 3.956 2.167s-44.528 16.083-76.923 42.59l301.71-24.78z" fill="#00338D" fill-rule="nonzero"/><path d="M353.986 286.555l12.746-.145s2.55 16.823 1.044 24.326c0 0-2.514 11.154-13.907 15.512 0 0-16.77 7.105-41.93 8.715l-1.212-1.044-19.069 8.047 6.258-22.178s25.562-1.975 33.29-4.287c0 0 19.817-3.895 22.78-28.946M196.981 293.137s-45.225-.538-76.202 35.948c0 0-.089 13.237-16.139 22.215l.595 4.175-7.625 10.508 13.536 18.133 15.245-33.785 70.59-57.194z" fill="#00338D" fill-rule="nonzero"/></g></svg>