<?xml version="1.0" encoding="UTF-8"?>
<svg width="512px" height="512px" viewBox="0 0 512 512" version="1.1" xmlns="http://www.w3.org/2000/svg" xmlns:xlink="http://www.w3.org/1999/xlink">
    <!-- Generator: Sketch 42 (36781) - http://www.bohemiancoding.com/sketch -->
    <title>buffalo-bills</title>
    <desc>Created with Sketch.</desc>
    <defs></defs>
    <g id="NFL" stroke="none" stroke-width="1" fill="none" fill-rule="evenodd">
        <g id="buffalo-bills">
            <g id="buf" transform="translate(29.000000, 102.000000)">
                <g id="BUF">
                    <g id="Page-1">
                        <g id="BUF">
                            <g id="Group">
                                <path d="M51.0870757,215.711048 C82.3355042,195.761857 92.1649975,173.289762 92.1649975,173.289762 L3.67615123,185.988532 L41.2809856,119.208824 L116.837027,112.847738 C116.837027,112.847738 146.236574,86.6123507 191.742449,67.8099336 C191.742449,67.8099336 196.488691,59.5297553 222.48068,44.5748828 C222.48068,44.5748828 246.319543,30.532749 273.467668,21.550464 C273.467668,21.550464 291.867544,15.2221424 297.297169,14.9038541 L295.701047,9.05296497 L330.394479,6.08071331 L331.288495,2.75740831 C331.288495,2.75740831 349.398166,3.97907395 359.784664,8.58021313 L361.830136,5.85135846 C361.830136,5.85135846 386.066858,16.9914513 404.10632,44.3642507 C404.10632,44.3642507 421.602818,43.3906629 437.264479,50.8891623 C437.264479,50.8891623 453.862281,57.4889652 453.113367,76.7500921 C453.113367,76.7500921 453.001029,101.333187 445.652313,125.69629 C445.652313,125.69629 444.524261,129.506389 443.475782,131.785895 C443.475782,131.785895 441.94987,134.889207 439.005703,138.806962 C439.005703,138.806962 430.791054,147.274369 427.59881,154.726061 C427.59881,154.726061 425.871627,159.678253 422.440666,168.683942 C422.440666,168.683942 419.800745,181.073785 401.80809,181.757168 C401.80809,181.757168 384.29755,203.915656 376.99564,210.281423 L376.377786,204.893925 C376.377786,204.893925 364.16113,216.211884 353.559319,222.89594 L357.140062,191.525814 C357.140062,191.525814 358.020037,185.927683 354.462696,185.525142 L345.311905,185.305148 C345.311905,185.305148 348.307561,204.182457 344.68937,212.911983 C344.68937,212.911983 342.386461,226.617105 321.121989,233.146697 C321.121989,233.146697 304.692693,238.375052 285.894957,239.840115 L281.855503,239.203538 L252.264046,251.32658 L260.914001,220.298145 C260.914001,220.298145 249.825396,221.426197 248.87053,220.036025 L215.918323,234.157731 L228.869851,197.049052 L237.74448,192.134306 L234.91265,188.28676 L216.695322,188.450586 L209.992543,193.660218 C194.518111,189.634805 179.474305,190.71605 179.474305,190.71605 L102.90255,252.861854 L83.716314,295.273779 L60.8042323,264.638523 L67.975082,255.258378 L65.250908,253.212907 L54.8644097,261.385429 L39.4882732,302.795681 L16.8429921,270.835785 L22.6657969,257.846811 L21.3786012,249.894283 C28.1188255,245.442926 32.4812483,242.461313 35.8888062,238.62781 C37.7470486,236.235967 38.7721243,235.4028 40.9299322,231.372708 C42.9660417,226.44392 43.040933,221.112589 45.311078,219.422853 C48.1522697,217.49908 50.3241198,216.197842 51.0870757,215.711048" id="Fill-1" fill="#FFFFFF" fill-rule="nonzero"></path>
                                <path d="M61.0047288,211.088623 C71.7899481,203.030862 80.2437758,194.387365 86.629568,185.731816 C88.8728259,182.691218 90.6986179,179.862069 92.1402227,177.315669 C92.6485997,176.41769 93.0733877,175.617146 93.4187481,174.922928 C93.6308746,174.496526 93.7718746,174.194258 93.8459076,174.025007 L95.1666525,171.00553 L91.9043789,171.47369 L3.41553212,184.172459 L5.27478907,186.888753 L42.8796234,120.109045 L41.4349031,121.037033 L116.990944,114.675947 C118.188585,114.10061 118.454803,113.867907 118.854147,113.526292 C119.525651,112.951863 120.32413,112.284063 121.246495,111.530675 C123.888919,109.372341 126.989967,106.964872 130.524886,104.370497 C140.634635,96.9506765 152.184356,89.5283272 164.975249,82.6007944 C173.844019,77.7974786 183.01206,73.4023335 192.443064,69.5055695 L193.334176,68.7223195 C193.426322,68.5615634 193.723983,68.1401294 194.293121,67.4647645 C195.29833,66.2719364 196.706553,64.8387016 198.582889,63.1722494 C204.027868,58.3363384 212.126928,52.6487502 223.39565,46.1651256 C224.460372,45.550102 225.022251,45.2312346 225.664761,44.8716186 C227.504322,43.8420076 229.618612,42.693823 231.975642,41.4567383 C238.713597,37.9203294 246.040161,34.3833613 253.698385,31.0832513 C260.568456,28.1227751 267.382738,25.4962273 274.043968,23.2922789 C275.566093,22.7762002 276.320827,22.5239313 277.143988,22.2521919 C279.495777,21.4758267 281.922999,20.6995076 284.292259,19.9755389 C285.096842,19.7296844 285.882588,19.4936587 286.646299,19.2687076 C291.751144,17.7650741 295.584225,16.8420951 297.404535,16.7353872 L299.662425,16.6030282 L299.067167,14.4209987 L297.471045,8.57010959 L295.857653,10.8809463 L330.551085,7.9086946 L332.166168,6.55732281 L333.060184,3.23401781 L331.165009,4.58792533 C331.865562,4.64092836 332.236681,4.67176048 332.655476,4.70904541 C333.855533,4.81588546 335.194171,4.95283199 336.636338,5.12270332 C340.753121,5.60761474 344.868096,6.25799742 348.696833,7.09437818 C352.786267,7.98770765 356.297759,9.04217981 359.041567,10.2576653 L360.3768,10.8491635 L361.252709,9.68061667 L363.29818,6.95176197 L361.063913,7.51837509 C362.240943,8.09972314 362.873647,8.43157421 363.588856,8.82436932 C365.644778,9.95349018 367.940949,11.3411179 370.417288,12.9968652 C377.507006,17.7372412 384.601335,23.6668166 391.222276,30.8611763 C395.338462,35.3338522 399.14356,40.1679337 402.574397,45.3738319 L403.154919,46.2547069 C404.28549,46.1917966 404.450149,46.1847233 404.696898,46.1774437 C407.30642,46.1004569 410.767369,46.2098188 414.76438,46.6553242 C420.740665,47.3214386 426.63283,48.6194036 432.124123,50.6914355 C433.618412,51.2552761 435.069136,51.8721946 436.472197,52.5439526 C437.649393,53.0885279 438.207957,53.3849031 438.812775,53.7415631 C440.55288,54.7677003 442.296466,56.0638002 443.921221,57.6460412 C448.797408,62.3946365 451.592555,68.6422053 451.280075,76.6788098 C451.2779,76.9186628 451.272955,77.2723178 451.260499,77.790847 C451.239574,78.661856 451.204392,79.6741591 451.15158,80.8159205 C451.000373,84.0849342 450.738244,87.7303471 450.338345,91.6573112 C449.196346,102.871596 447.182335,114.082601 444.087097,124.526663 C443.87672,125.230837 443.844156,125.339116 443.797167,125.492644 C443.245705,127.23653 442.94629,128.12227 442.645521,128.943997 C442.419564,129.561332 442.201954,130.116998 441.997467,130.594008 C441.350481,131.8822 441.080736,132.361264 440.766199,132.892368 C439.862135,134.418901 438.784752,136.04707 437.539013,137.704754 C436.674814,138.610775 436.181832,139.15469 435.65155,139.756855 C434.137234,141.476447 432.622928,143.32297 431.206083,145.228812 C429.6178,147.365262 428.250598,149.445931 427.169799,151.431073 C426.689327,152.313572 426.26878,153.17162 425.912365,154.003602 C425.813832,154.2728 425.707328,154.574959 425.547055,155.024836 C425.279057,155.777083 424.957472,156.670029 424.582392,157.700161 C423.509627,160.646438 422.223981,164.099338 420.726196,168.030768 C420.41421,169.067847 420.249383,169.497092 420.03437,169.964557 C419.409347,171.323431 418.511049,172.689737 417.290985,173.968998 C413.976315,177.444493 408.947361,179.65001 401.738457,179.923813 L400.368621,180.619641 C399.883711,181.230766 399.629205,181.550324 399.341554,181.910432 C398.519149,182.939993 397.596497,184.087496 396.595192,185.323383 C393.73484,188.853849 390.818397,192.384005 388.019392,195.676596 C387.484807,196.30545 386.958777,196.920542 386.442072,197.520819 C381.830003,202.878855 378.145116,206.845324 375.790009,208.898493 L378.81837,210.072387 L378.200516,204.684889 L377.787851,201.086576 L375.130922,203.548053 C374.63614,204.001603 374.372881,204.240633 374.073702,204.510227 C373.217092,205.28213 372.245763,206.14293 371.179134,207.070288 C368.131869,209.719669 364.934913,212.368786 361.74522,214.838102 C359.854975,216.301444 358.021868,217.658316 356.264978,218.887391 C354.986634,219.781688 353.756547,220.602727 352.580851,221.343959 L355.38216,223.104008 L358.962903,191.733881 C359.107918,190.291675 359.099581,189.230109 358.914563,188.192128 C358.480663,185.757851 357.131655,183.980769 354.668987,183.702099 L345.356,183.471 L343.15481,183.418082 L343.499902,185.592696 C343.585682,186.165648 343.628984,186.471305 343.675726,186.816972 C343.809781,187.808346 343.944022,188.918556 344.069379,190.119808 C344.46461,193.907177 344.683611,197.714362 344.635195,201.249957 C344.571425,205.906626 344.040842,209.685034 342.994508,212.209501 C342.861961,212.715659 342.799599,212.983976 342.675378,213.389911 C342.456147,214.106333 342.139852,214.915442 341.708962,215.794847 C340.456273,218.351471 338.532596,220.924833 335.789152,223.344376 C332.024616,226.664456 327.018191,229.416951 320.58344,231.392843 C318.800434,231.929577 317.869307,232.19511 316.818903,232.481438 C313.811639,233.301183 310.456846,234.121528 306.841641,234.887311 C299.827541,236.373059 292.710256,237.468701 285.752397,238.010984 L282.141105,237.391227 L251.56852,249.628851 L254.031336,251.819257 L262.68129,220.790821 L263.403336,218.200757 L260.728316,218.472888 C259.477827,218.587971 258.868969,218.637733 258.226286,218.684171 C257.042682,218.769695 255.883236,218.83392 254.801524,218.868154 C253.326019,218.914852 252.080183,218.902569 251.156304,218.822848 C250.117306,218.697292 249.530899,217.756969 249.530899,217.756969 L248.147844,218.349679 L215.195637,232.471385 L217.650529,234.7623 L230.602057,197.653621 L229.758692,198.654046 L238.63332,193.739298 L240.45947,192.727982 L239.222085,191.046774 L236.390254,187.199229 L234.896151,186.452158 L216.678823,186.615982 L208.86665,192.21163 L210.454431,191.884633 C200.116083,189.195286 189.525275,188.470289 180.702323,188.81676 C179.531417,188.873464 178.766642,188.927502 178.766642,188.927502 L101.746386,251.437309 L82.0447232,294.517587 L85.1855362,294.174948 L62.2734544,263.539693 L62.2617878,265.752782 L69.4326375,256.372637 L70.5565742,254.902422 L69.0766949,253.791241 L66.352521,251.745771 L65.2247423,250.898967 L64.1164006,251.771056 L53.7299023,259.943578 L37.7683349,302.157047 L40.9852597,301.734987 L18.3399786,269.77509 L18.5171446,271.586288 L24.3399494,258.597314 L24.4769034,257.553665 L23.1897078,249.601137 L22.3896633,251.425229 C30.9141428,245.79552 34.1309387,243.366967 37.2600612,239.846704 C37.5983085,239.417867 37.8519412,239.100868 38.1657797,238.715997 C38.2122653,238.65899 38.7788305,237.967543 38.9424455,237.765508 C40.4831644,235.806242 41.3836001,234.412245 42.547359,232.238718 C42.8366438,231.562374 43.0338502,231.034111 43.2210371,230.48273 C43.5212207,229.598502 43.7873987,228.6832 44.0674364,227.605519 C44.2241097,227.002587 44.7026045,225.060802 44.7179132,225.000043 C45.3574309,222.461882 45.8387092,221.317241 46.4065364,220.89459 C47.5725268,220.107307 48.7512508,219.340507 49.9571916,218.579869 C50.5288151,218.219322 51.9203129,217.355722 52.0739103,217.257722 L50.1002411,214.164375 C49.970241,214.24732 48.5899577,215.103959 47.999639,215.476298 C46.7620246,216.256914 45.5506281,217.044969 44.2824347,217.903663 C42.6994606,219.079637 42.016066,220.704979 41.159764,224.103529 C41.1394451,224.184172 40.6657364,226.106534 40.5160245,226.682677 C40.2567165,227.680582 40.0143239,228.514094 39.7464491,229.303151 C39.5838044,229.782242 39.4140553,230.236953 39.2342477,230.672212 C38.2458859,232.498802 37.4596572,233.715991 36.5068508,234.934493 C35.9352028,235.648469 35.374418,236.33286 35.3220337,236.397101 C34.9913839,236.80259 34.7205886,237.141038 34.439989,237.502213 C31.6742869,240.60759 28.6219116,242.912012 20.3675392,248.363337 L19.3780218,249.016831 L19.5674947,250.187428 L20.8546903,258.139957 L20.9916444,257.096309 L15.1688395,270.085282 L14.7401895,271.041474 L15.3460055,271.896479 L37.9912866,303.856376 L39.9992408,306.690256 L41.2082114,303.434316 L56.5843479,262.024063 L66.3854154,254.654758 L64.149295,254.680044 L66.873469,256.725514 L66.5175264,254.144118 L59.3466768,263.524264 L58.5041275,264.626397 L59.3350101,265.737353 L82.2470917,296.372608 L84.107566,298.860209 L85.3879047,296.02997 L104.574141,253.618045 L180.630468,192.140595 C189.340603,192.149724 199.597519,192.851865 209.530654,195.435802 L211.118436,195.108806 L217.821214,189.899174 L234.929147,190.121364 L233.435045,189.374292 L236.266874,193.221837 L236.855639,190.529313 L227.98101,195.44406 L227.137644,196.444485 L214.186117,233.553163 L212.814164,237.484077 L216.641009,235.844078 L249.593217,221.722373 L248.87053,220.036025 L247.358234,221.074775 C248.333952,222.495306 250.442917,222.677288 254.917596,222.535672 C256.053647,222.499718 257.261074,222.432836 258.490733,222.343985 C259.155472,222.295952 259.785086,222.244495 260.360227,222.192988 C260.706968,222.161936 259.146711,219.80547 259.146711,219.80547 L250.496757,250.833904 L249.489854,254.445785 L252.959572,253.02431 L282.551029,240.901267 L285.609355,241.652426 C293.168175,241.113494 300.440617,239.993967 307.602024,238.477016 C311.288983,237.696033 314.711497,236.859129 317.783916,236.021624 C318.8614,235.727914 319.818968,235.454841 320.645878,235.209311 C328.585064,232.774267 334.0531,229.767983 338.216231,226.096366 C341.330545,223.349739 343.544607,220.38792 345.004036,217.409361 C345.899771,215.58125 346.346607,214.121044 346.498683,213.216007 C347.646756,210.568406 348.234613,206.382142 348.304205,201.300201 C348.354835,197.602952 348.127938,193.658479 347.718916,189.73896 C347.589542,188.49921 347.450857,187.352258 347.311987,186.325271 C347.263204,185.964512 347.217805,185.644052 347.176927,185.367299 C347.152072,185.199018 345.267811,187.139295 345.267811,187.139295 L354.418602,187.359288 C354.806291,187.410408 355.122217,187.826586 355.302147,188.836028 C355.420442,189.499686 355.426343,190.251151 355.361557,190.943948 C355.347225,191.097201 351.736478,222.687872 351.736478,222.687872 L351.302772,226.487479 L354.537785,224.44792 C355.765385,223.673964 357.043864,222.820624 358.368356,221.894045 C360.176545,220.629082 362.056634,219.237434 363.991431,217.739602 C367.241381,215.223638 370.490397,212.531382 373.586672,209.839391 C374.670281,208.897269 375.6578,208.022122 376.530049,207.236125 C377.477135,206.375895 377.573733,206.286968 377.624651,206.239796 L374.555056,205.102961 L375.17291,210.490459 L375.570554,213.957799 L378.201271,211.664353 C380.729372,209.460367 384.499877,205.401739 389.223056,199.914623 C389.744785,199.308508 390.275712,198.68769 390.815091,198.053196 C393.634879,194.736157 396.569032,191.184564 399.446248,187.633284 C400.453093,186.390559 401.381021,185.236495 402.208528,184.200546 C402.498345,183.837726 402.754976,183.5155 402.975729,183.237555 C410.027873,183.280972 415.963011,180.678034 419.94632,176.50146 C421.459814,174.914532 422.580535,173.209922 423.367999,171.497881 C423.851659,170.446346 424.12094,169.601885 424.235063,169.066276 C425.659441,165.388569 426.951406,161.918697 428.030305,158.955576 C428.408307,157.917419 428.73277,157.016481 429.003603,156.256274 C429.316663,155.371776 429.316663,155.371776 429.331148,155.330251 C429.594356,154.72698 429.964739,153.971283 430.392476,153.185643 C431.38257,151.367103 432.658134,149.425892 434.150839,147.418007 C435.502163,145.600299 436.953752,143.830252 438.40533,142.181903 C438.913112,141.605288 439.384044,141.085702 439.805675,140.632163 C441.802801,138.138818 442.953728,136.399508 443.923412,134.762173 C444.510804,133.770347 444.911259,133.024433 445.122195,132.595443 C445.603146,131.495893 445.844157,130.880472 446.091311,130.205225 C446.411593,129.330187 446.726721,128.397962 447.024231,127.466456 C447.128191,127.140958 447.222623,126.838495 447.305864,126.566522 C447.474715,126.007662 447.540175,125.788724 447.605203,125.569301 C450.772221,114.883036 452.825327,103.454406 453.98882,92.0290544 C454.395842,88.0321459 454.662793,84.3196771 454.817016,80.9854635 C454.871105,79.8160954 454.907229,78.7766815 454.928795,77.878969 C454.946876,76.9099649 454.947783,76.8113528 454.948025,76.7584759 C455.301825,67.6869479 452.067185,60.4570451 446.481226,55.0172507 C444.633655,53.2180234 442.656892,51.7485916 440.676647,50.5808438 C439.47447,49.8719216 438.522078,49.414825 437.942378,49.184318 C436.557307,48.5164626 435.010176,47.8585473 433.419531,47.258349 C427.617076,45.0689062 421.432005,43.7064179 415.170848,43.0085518 C410.990525,42.5426147 407.3605,42.4279101 404.588692,42.5096847 C404.309549,42.51792 405.638242,43.3546697 405.638242,43.3546697 C402.096344,37.9802476 398.16925,32.9911816 393.92227,28.3763829 C387.093525,20.9562209 379.777478,14.8413302 372.456818,9.94653997 C369.889525,8.2299792 367.502325,6.7873404 365.35522,5.60814189 C364.599369,5.19302523 363.926133,4.83991593 363.343007,4.54751618 C362.986472,4.3687367 361.250498,3.56573499 361.250498,3.56573499 L360.362091,4.75095495 L358.31662,7.47980961 L360.527763,6.90276093 C357.525305,5.57269512 353.790891,4.45128134 349.47993,3.50955968 C345.521217,2.6447858 341.292494,1.97642511 337.06558,1.47854137 C335.587453,1.30443439 334.21439,1.16396603 332.980868,1.05414669 C331.628343,0.942172904 331.487526,0.931987584 331.41198,0.926891284 L329.908312,0.825454959 L329.516805,2.28079881 L328.622789,5.60410381 L330.237872,4.25273202 L295.54444,7.22498367 L293.351895,7.41282312 L293.931049,9.53582039 L295.527172,15.3867094 L297.189804,13.0723209 C294.984354,13.2016059 291.001726,14.1605949 285.609529,15.7488677 C284.83358,15.9774235 284.036038,16.2169926 283.219967,16.4663572 C280.822152,17.1990517 278.369691,17.9834432 275.993728,18.7677887 C275.162176,19.0422979 274.399383,19.2972602 273.721828,19.5261874 C266.122697,22.0481456 259.209824,24.7126954 252.246262,27.7134586 C244.496348,31.0530796 237.086802,34.6301088 230.270387,38.2076973 C227.883387,39.4605118 225.740223,40.6243764 223.872622,41.6696813 C223.217626,42.0362858 222.643463,42.3621245 222.154103,42.6434956 C210.091442,49.5865288 201.790168,55.4161232 196.146248,60.4287214 C194.14147,62.2092473 192.609731,63.7681938 191.487228,65.1002072 C190.779738,65.9397471 190.355217,66.5407926 190.150723,66.8975476 L191.041836,66.1142976 C181.489123,70.0613502 172.20603,74.5116502 163.227766,79.3742685 C150.282194,86.3855758 138.592779,93.8976975 128.353821,101.412349 C124.766694,104.04504 121.615716,106.491273 118.925274,108.688828 C117.981136,109.46 117.161329,110.145637 116.468904,110.737963 C115.729045,111.378176 115.654995,111.443584 115.615471,111.478854 L41.1270681,117.380614 L39.6823477,118.308603 L2.07751339,185.088311 L0.249986489,188.333684 L3.93677035,187.804604 L92.4256169,175.105835 L90.4840884,172.554518 C89.8169797,173.924759 89.4228677,174.667492 88.9470743,175.507917 C87.5767647,177.928383 85.83086,180.633743 83.6768395,183.553385 C77.4989791,191.927095 69.2972309,200.312857 58.8085537,208.149069 C56.0382455,210.218799 53.13635,212.226104 50.0998351,214.164634 L52.0743162,217.257462 C55.186823,215.270419 58.1626515,213.211973 61.0047288,211.088623 Z" id="Fill-1"></path>
                                <path d="M45.5788146,125.89756 L16.3009657,177.497721 L394.085853,121.193446 C394.085853,121.193446 380.956458,111.209488 399.98823,95.4214498 L45.5788146,125.89756 Z" id="Fill-4" fill="#C60C30" fill-rule="nonzero"></path>
                                <path d="M429.061063,88.2370256 C429.061063,88.2370256 399.55854,108.406211 409.790576,125.795053 C409.790576,125.795053 399.085789,131.730195 410.913946,140.080583 C410.913946,140.080583 392.631088,148.304594 397.466263,125.729523 L100.45641,170.669032 C100.45641,170.669032 94.1046843,197.564399 51.9782831,223.032148 C51.9782831,223.032148 48.8936944,224.843584 48.6175324,228.227738 C48.6175324,228.227738 48.9124172,232.440378 45.0789147,237.542354 C45.0789147,237.542354 40.3326735,245.822532 29.3283213,252.862322 L30.1146808,258.3762 L24.9612176,270.204357 L37.5757346,288.328071 L48.9919893,257.510268 L71.5998248,240.14951 C71.5998248,240.14951 93.7208663,205.526288 130.099354,191.98031 C130.099354,191.98031 162.194991,178.284549 209.058273,186.035807 L213.336442,181.930823 L267.590567,180.732561 C267.590567,180.732561 269.631357,181.200632 268.26927,182.30528 C268.26927,182.30528 257.583207,190.524609 245.876747,191.58713 L246.957992,194.919797 C246.957992,194.919797 247.280961,196.089975 246.405668,196.370817 L235.040901,200.883023 L227.523678,221.716869 L248.848999,212.439699 L250.04258,213.333715 C250.04258,213.333715 268.601601,214.48517 296.526724,208.835551 C296.526724,208.835551 315.895507,205.006729 321.283006,179.918117 L358.148288,178.312634 C358.148288,178.312634 365.824655,179.946202 364.865109,187.079605 L362.225188,207.978981 L379.080429,192.958579 L380.250606,196.895057 C380.250606,196.895057 393.028948,183.063555 396.305446,175.148473 C396.305446,175.148473 410.328857,175.429315 413.783223,169.760974 C413.783223,169.760974 415.374664,168.174213 419.854105,155.831177 C419.854105,155.831177 421.960424,147.1625 430.624421,138.634244 C430.624421,138.634244 437.33188,132.35741 441.057727,115.862583 C441.057727,115.862583 445.55589,91.9628719 445.518444,87.4085397 C445.518444,87.4085397 450.353619,63.7662671 434.153677,56.8013687 C434.153677,56.8013687 422.114889,50.1594394 399.572582,52.0036397 C399.572582,52.0036397 395.0791,36.3185762 364.0179,14.8153886 L361.761797,18.1761393 C361.761797,18.1761393 351.145944,10.8742297 336.11618,11.0427353 L335.353225,13.1256518 C335.353225,13.1256518 326.221156,13.0601219 306.30005,15.1430384 L308.153611,20.6569163 C308.153611,20.6569163 267.071008,22.5619658 208.791472,61.5756942 L207.724269,64.7679393 L200.319385,68.2597499 L204.274586,70.4269192 C204.274586,70.4269192 159.746979,86.5098431 127.351776,113.016711 L429.061063,88.2370256 Z" id="Fill-6" fill="#00338D" fill-rule="nonzero"></path>
                                <path d="M324.986384,184.555298 L337.731962,184.410196 C337.731962,184.410196 340.282949,201.232673 338.77576,208.735852 C338.77576,208.735852 336.262218,219.889988 324.869367,224.247729 C324.869367,224.247729 308.098379,231.353049 282.939555,232.963214 L281.727251,231.919415 L262.658034,239.965558 L268.916145,217.788348 C268.916145,217.788348 294.477509,215.813087 302.205363,213.500817 C302.205363,213.500817 322.023495,209.606464 324.986384,184.555298" id="Fill-8" fill="#00338D" fill-rule="nonzero"></path>
                                <path d="M167.981287,191.137314 C167.981287,191.137314 122.756255,190.599032 91.7793076,227.085177 C91.7793076,227.085177 91.6903733,240.322229 75.6402147,249.299833 L76.2346651,253.475026 L68.6097864,263.983223 L82.1464034,282.116299 L97.3914796,248.330925 L167.981287,191.137314 Z" id="Fill-10" fill="#00338D" fill-rule="nonzero"></path>
                            </g>
                        </g>
                    </g>
                </g>
            </g>
        </g>
    </g>
</svg>