<svg width="512" height="512" viewBox="0 0 512 512" xmlns="http://www.w3.org/2000/svg"><title>carolina-panthers</title><g fill-rule="nonzero" fill="none"><path d="M445.013 158.092c.102-.24.184-.469.253-.685.062-.19.108-.371.154-.545-.003-.01-.003-.02-.01-.026-.656-1.886-1.968-2.024-4.727-1.808a123.87 123.87 0 0 1-10.872 1.568h.003c-.173.02-.334.037-.505.053l-.364.033c-.47.042-.922.085-1.358.118l-.19.016c-4.035.328-6.588.345-6.588.345 10.308 7.794 11.512 19.864 11.512 19.864l.525-.45c7.912-5.744 12.167-18.483 12.167-18.483" fill="#000"/><path d="M337.924 222.188c5.11 15.058-3.494 35.227-3.494 35.227 11.291-9.68 20.165-29.578 20.165-29.578 18.555-3.766 28.778 0 28.778 0 2.417 14.52-2.963 26.35-2.963 26.35 10.757-8.602 15.6-31.464 15.6-31.464s-4.301-4.032-23.394-5.377c-19.097-1.345-34.692 4.842-34.692 4.842M351.84 279.784s-5.606 15.606-11.367 21.37c0 0 7.444 4.078 20.405 2.88 12.968-1.204 16.088-6.003 17.289-10.803 1.204-4.802 0-11.528-2.162-16.57 0 0 .961 12.726-7.922 19.208 0 0-9.573 2.004-15.816.082 0 0 2.454-5.121-.427-16.167M321.279 158.474c.128.026.262.052.397.082-.135-.027-.266-.056-.397-.082-7.828-1.49-11.125 4.422-11.125 4.422-2.48 3.667-1.535 5.426-1.535 5.426 24.116-.423 37.117 3.474 37.117 3.474s-8.986-9.822-23.473-13.119l-.984-.203zM417.64 170.86c-3.175-2.96-9.943-6.769-17.347-5.29-7.4 1.484-7.827 9.521-7.827 9.521 8.037-7.404 25.175-4.232 25.175-4.232" fill="#BFC0BF"/><path d="M238.151 186.69s39.74-7.608 85.197 3.13c1.633-1.467 3.516-2.96 5.698-4.475 0 0-41.683-11.564-90.895 1.345M238.366 202.214s34.833-8.68 77.3-2.828c.813-1.611 1.91-3.304 3.343-5.062-15.33-1.755-46.437-3.133-80.643 7.89M239.252 217.242s32.917-10.167 74.423-7.296c-.204-1.486-.22-3.264.16-5.269-16.639-.456-44.651 1.06-74.583 12.565M142.175 320.89h.017l.193.02c.725.066 3.045.283 3.172.296.315.03 4.301.446 4.334.45 5.662.636 11.394 1.43 17.167 2.41 13.024-47.666 49.665-73.14 49.665-73.14-49.56 23.971-70.398 62.987-74.548 69.965M375.849 254.866c-3.097-14.379 5.098-24.224 5.098-24.224-18.624 16.331-7.352 32.678-1.713 45.36 5.633 12.687 3.382 21.987-2.254 28.47-5.639 6.485-21.143 7.05-31.569 5.075-10.429-1.975-15.786-12.968-18.604-25.93-2.818-12.968 2.254-35.798 2.254-35.798-7.61 11.558-7.61 35.234-1.69 54.402 5.915 19.162 21.42 23.952 32.695 23.952 11.275 0 31.569-9.58 28.44-32.403-3.13-22.82-9.554-24.528-12.657-38.904M254.626 266.524c-19.447-19.69-20.038-41.965-20.038-41.965s-6.672 25.972 9.176 45.42c15.849 19.447 54.448 21.57 54.448 21.57s-24.139-5.338-43.586-25.025M352.98 181.311c22.86 8.877 22.59 22.59 22.59 22.59 3.495-13.175 19.632-20.166 19.632-20.166s-8.336-4.038-19.9-4.842c-11.568-.81-22.321 2.418-22.321 2.418M321.279 158.474c-13.775-2.736-26.986 2.782-27.655 3.067-.004.003-.01.003-.014.006h-.01l-.003.007c12.693.213 16.557 1.342 16.557 1.342s3.297-5.912 11.125-4.422M366.046 337.342h-.004c-.147.055-8.234 2.903-18.243 1.105 0 0 13.244 12.814 26.688 40.834l.02.046.518-.04c-1.3-12.771-6.752-34.167-8.005-38.114l-.974-3.831z" fill="#0085CA"/><path d="M481.971 222.118c-16.747-9.136-35.745-11.977-50.314-12.545 0 0-.03.003-.086.003.056 0 .086-.003.086-.003a185.102 185.102 0 0 0 1.86-6.722c.325-.02.551-.036.551-.036 29.2-.958 44.636 6.768 44.636 6.768l-1.47-1.132c-14.228-6.594-29.27-8.998-42.287-9.37h-.528c.453-2.023 1.033-6.134 1.148-6.127l.302.013c22.465.236 34.722 5.56 34.722 5.56l-1.473-1.16c-11.148-4.754-22.538-6.906-33.206-7.618.062-4.154-.63-7.579-2.208-10.538 8.237-7.148 11.282-18.04 11.715-22.34 0 0 0-.004.003-.004v-.01c.036-.144.112-.537.121-.616.01-.085.02-.167.027-.246.02-.151.026-.292.026-.427 0-.078 0-.15-.003-.223a4.422 4.422 0 0 0-.04-.37l-.03-.19a3.823 3.823 0 0 0-.094-.326c-.02-.055-.036-.111-.056-.16-.043-.102-.092-.194-.138-.282-.03-.05-.052-.096-.082-.141a3.115 3.115 0 0 0-.167-.24c-.036-.036-.066-.075-.099-.115-.059-.072-.128-.134-.196-.2-.037-.03-.073-.065-.105-.092-.076-.062-.148-.115-.224-.17l-.105-.076a5.801 5.801 0 0 0-.232-.131.851.851 0 0 1-.109-.062 3.794 3.794 0 0 0-.24-.105c-.032-.013-.065-.03-.1-.043a9.822 9.822 0 0 0-.227-.082c-.033-.01-.066-.023-.099-.03a1.498 1.498 0 0 0-.213-.059.346.346 0 0 0-.079-.02 1.699 1.699 0 0 0-.19-.042c-.02-.003-.043-.01-.062-.013-.056-.01-.105-.02-.158-.026a.14.14 0 0 1-.036-.007c-.115-.013-.177-.016-.177-.016-14.225.154-25.916-4.675-25.916-4.675-.315-.118-.637-.23-.955-.344-31.645-11.58-64.486-14.894-93.73-14.363l-.01-.03c-13.056.122-22.593 1.191-22.593 1.191-41.978 3.55-72.077 13.605-72.077 13.605s-11.426 3.225-26.642 2.467c0 0-5.649-.098-6.764 3.494-.958 2.29-1.086 5.016 1.066 10.983 2.48 6.88 12.404 19.812 12.483 19.913C177.173 196.782 98.97 240.643 28.91 328.835c0 0 14.806-3.848 38.091-6.574v-.003c46.21-86.729 160.263-142.233 160.263-142.233-7.381.79-13.601 2.11-13.601 2.11-10.403-7.477-18.303-22.033-19.628-24.575.069.137.16.315.272.521 0 0-.587-1.325-.505-2.283a1.52 1.52 0 0 1 .102-.443c.6-1.374 2.037-1.463 3.946-1.224.115.01.236.04.358.073 4.717.695 17.82 4.09 36.385 2.05 19.486-2.142 26.553-8.14 26.34-9.852 0 0 14.762-7.033 33.343-8.27 18.581-1.24 43.356 4.183 53.116 16.724 1.781 2.287 2.795 4.081 3.277 5.486.607-.975.925-2.156.79-3.504-.52-5.03-6.652-10.32-12.124-13.44-4.816-2.746-16.83-7.172-9.963-6.801 6.87.364 42.51 5.56 55.986 14.277 8.293 5.367 9.038 10.872 9.038 10.872s10.226-4.22 21.632.443c11.41 4.661 14.025 10.694 16.291 14.834 0 0-1.204-12.069-11.511-19.864 0 0 2.555-.016 6.587-.34.066-.007.125-.01.19-.017.44-.036.89-.076 1.359-.122.118-.01.243-.023.364-.032l.508-.05-.003-.003c3.126-.312 6.85-.797 10.869-1.565 2.762-.22 4.07-.082 4.727 1.805.007.006.007.016.01.026a6.949 6.949 0 0 1-.154.544c-.07.22-.148.447-.253.686 0 0-4.255 12.742-12.168 18.483l-.525.45s-12.275-2.783-23.623-.854c-11.354 1.926-13.493 7.565-13.493 7.565s13.795 5.056 15.484 15.695c1.696 10.642-4.832 18.863-8.46 21.28 0 0 15.474-6.045 14.752-21.038-.239-4.868-2.614-8.254-5.72-10.609.002.003.006.003.006.003s4.458 1.385 6.935 3.72c1.132 1.07 2.378 2.182 3.49 3.596 1.3 1.7 1.73 2.782 1.733 2.782.534 1.132.964 2.437 1.233 3.97.961 5.478-.722 10.832-.722 10.832-7.28 29.6-35.932 67.209-35.932 67.209l.013-.01c21.662-18.476 36.096-51.17 42.415-67.635 34.15.37 52.81 9.877 52.81 9.877l-1.269-1.289z" fill="#0085CA"/><path d="M380.41 254.187s5.381-11.826 2.96-26.35c0 0-10.219-3.766-28.774 0 0 0-8.874 19.897-20.169 29.578 0 0 8.605-20.169 3.497-35.227 0 0 15.596-6.187 34.692-4.842 19.09 1.345 23.394 5.377 23.394 5.377s-4.842 22.862-15.6 31.464zm-12.327 41.683c8.883-6.486 7.922-19.211 7.922-19.211 2.162 5.045 3.366 11.77 2.162 16.57-1.2 4.803-4.32 9.602-17.289 10.803-12.961 1.197-20.405-2.88-20.405-2.88 5.76-5.764 11.367-21.367 11.367-21.367 2.88 11.046.427 16.164.427 16.164 6.243 1.922 15.816-.079 15.816-.079zm20.424-2.1c3.127 22.823-17.167 32.403-28.439 32.403-11.279 0-26.78-4.79-32.697-23.952-5.922-19.168-5.922-42.844 1.692-54.402 0 0-5.071 22.83-2.257 35.798 2.822 12.962 8.175 23.955 18.604 25.93 10.43 1.975 25.93 1.41 31.57-5.075 5.635-6.483 7.886-15.783 2.256-28.47-5.639-12.682-16.914-29.029 1.71-45.36 0 0-8.195 9.845-5.098 24.224 3.106 14.376 9.53 16.085 12.66 38.904zm-72.838-94.385c-42.47-5.853-77.304 2.828-77.304 2.828 34.207-11.023 65.313-9.645 80.643-7.89-1.433 1.758-2.529 3.455-3.34 5.062zm-1.995 10.563c-41.506-2.87-74.423 7.293-74.423 7.293 29.932-11.505 57.948-13.017 74.584-12.564-.38 2.007-.364 3.782-.16 5.271zm-69.909 60.028c-15.848-19.444-9.179-45.416-9.179-45.416s.59 22.275 20.041 41.965c19.447 19.687 43.583 25.024 43.583 25.024s-38.596-2.122-54.445-21.573zm85.282-84.629a58.782 58.782 0 0 0-5.702 4.472c-45.452-10.737-85.193-3.13-85.193-3.13 49.212-12.909 90.895-1.342 90.895-1.342zM293.6 161.55c.004 0 .007-.003.01-.003.003-.003.01-.003.013-.007.686-.292 14.52-6.075 28.64-2.86 14.487 3.297 23.476 13.115 23.476 13.115s-13.005-3.897-37.12-3.474c0 0-.945-1.758 1.535-5.426 0 0-3.864-1.128-16.557-1.342l.003-.003zm106.691 4.022c7.404-1.48 14.176 2.326 17.351 5.288 0 0-17.138-3.172-25.175 4.232 0 0 .426-8.04 7.824-9.52zm24.365 37.56c-.269-1.53-.699-2.835-1.233-3.97-.004 0-.434-1.083-1.733-2.779-1.112-1.417-2.358-2.53-3.493-3.599-2.474-2.335-6.932-3.72-6.932-3.72s-.004 0-.007-.003c3.107 2.355 5.482 5.741 5.718 10.61.725 14.992-14.75 21.041-14.75 21.041 3.63-2.418 10.157-10.639 8.461-21.281-1.69-10.642-15.484-15.698-15.484-15.698s-16.137 6.991-19.634 20.17c0 0 .269-13.713-22.587-22.59 0 0 10.754-3.229 22.318-2.422 11.567.807 19.903 4.842 19.903 4.842s2.139-5.636 13.493-7.561c11.348-1.93 23.623.853 23.623.853-2.266-4.14-4.881-10.173-16.29-14.838-11.407-4.659-21.633-.443-21.633-.443s-.745-5.505-9.038-10.869c-13.477-8.72-49.117-13.913-55.986-14.28-6.867-.368 5.147 4.058 9.963 6.804 5.472 3.12 11.603 8.411 12.125 13.437.134 1.352-.184 2.533-.79 3.504-.483-1.405-1.5-3.196-3.281-5.482-9.757-12.545-34.532-17.965-53.113-16.725-18.581 1.237-33.344 8.27-33.344 8.27.214 1.713-6.853 7.71-26.34 9.852-18.564 2.04-31.667-1.358-36.384-2.053-.122-.03-.243-.06-.358-.07-1.912-.239-3.346-.15-3.946 1.224-.023.063-.046.125-.063.194a2.83 2.83 0 0 0-.04.25c-.081.957.506 2.28.506 2.28a46.98 46.98 0 0 1-.275-.52c1.328 2.54 9.228 17.1 19.63 24.572 0 0 6.22-1.318 13.602-2.109 0 0-114.053 55.507-160.263 142.236 20.136-2.359 46.624-3.878 75.384-1.348l-.193-.02h-.016c4.15-6.978 24.988-45.997 74.544-69.965 0 0-36.64 25.474-49.661 73.14 16.57 2.815 33.491 7.172 50.058 13.621 53.27 20.76 98.165 42.461 148.777 42.015l8.612-.377-.02-.043c-13.444-28.02-26.687-40.837-26.687-40.837 10.009 1.798 18.095-1.05 18.243-1.102.758-.269 1.41-.545 1.949-.794 16.557-8.92 19.322-24.027 20.677-34.853 1.562-12.512-.666-20.52-.666-20.52s28.653-37.608 35.932-67.212c0 0 1.683-5.354.722-10.833z" fill="#000"/></g></svg>