<svg width="512" height="512" viewBox="0 0 512 512" xmlns="http://www.w3.org/2000/svg" xmlns:xlink="http://www.w3.org/1999/xlink"><title>chicago-bears</title><defs><path id="a" d="M403.222 134.947v134.725H.319V.222h402.903z"/><path id="c" d="M403.222 134.947v134.725H.319V.222h402.903z"/></defs><g fill="none" fill-rule="evenodd"><g transform="translate(54 121)"><mask id="b" fill="#fff"><use xlink:href="#a"/></mask><path d="M123.628 18.875C77.585 37.95 56.645 66.888 47.212 87.793c-6.066 13.585-12.021 23.777-18.74 32.097-6.89 7.18-19.484 15.101-26.847 17.894l-1.375.521-.25 5.022 1.902.377c9.534 1.9 21.412 9.075 25.263 13.99 4.95 4.984 8.398 8.431 17.083 23.852.122.186 4.446 7.043 4.446 7.043 2.815 4.745 5.726 9.654 13.524 18.298 5.997 8.437 34.718 34.975 65.973 46.39 21.959 10.9 50.797 16.288 87.937 16.39 54.548.313 95.836-11.634 133.87-38.715 15.77-12.234 20.87-17.16 34.165-32.974 8.908-10.543 18.592-29.135 19.006-49.672l.053-2.298-77.17-.086-.425 1.713c-6.274 25.22-31.643 40.949-46.208 48.082-38.006 16.181-85.871 16.378-121.827.447-33.614-16.868-51.483-39.683-50.224-64.2 1.28-24.99 22.528-48.879 54.123-60.847 61.112-22.427 119.856-3.144 142.044 17.718l.648.607 89.919-.085-1.217-3.075c-18.496-46.943-85.382-73.407-114.88-78.865-66.03-15.138-123.059-4.01-154.377 11.458" fill="#001128" fill-rule="nonzero" mask="url(#b)"/></g><g transform="translate(54 121)"><mask id="d" fill="#fff"><use xlink:href="#c"/></mask><path d="M42.224 113.091c4.696-7.43 6.56-11.622 9.126-17.431l2.751-6.096c8.281-17.644 22.214-33.815 40.28-46.757 17.656-11.846 37.215-21.336 53.607-26.012C219.225-3.929 292.06 13.86 323.645 30.87c12.483 5.735 46.261 25.815 59.923 51.896h-76.092C254.49 41.488 183.014 51.983 147.765 69.212c-14.241 7.92-22.517 14.31-32.88 25.373-16.09 19.501-24.743 52.72 3.543 82.493 12.785 12.452 25.57 20.889 41.506 27.432 36.854 15.293 88.57 13.59 125.753-4.15 23.754-12.41 39.525-28.873 45.905-47.677h64.188c-2.273 16.325-7.022 33.209-31.361 56.806l-2.71 2.43c-11.786 10.655-27.94 25.257-59.492 36.79-53.82 20.91-134.31 18.494-179.47-5.363-.028-.01-2.837-1.43-2.837-1.43-10.146-5.086-24.047-12.044-41.56-28.353-12.223-11.234-20.738-22.336-31.446-40.964-11.676-21.394-26.294-29.198-34.156-32.512 6.853-3.457 20.244-11.686 29.476-26.996" fill="#FFF" fill-rule="nonzero" mask="url(#d)"/></g><path d="M99.007 245.927c7.628-8.452 13.652-30.171 25.71-46.667 17.12-24.165 39.78-36.82 56.64-44.895 38.558-18.91 93.998-24.299 148.232-11.266 19.68 4.67 39.366 11.67 53.421 20.841 14.066 8.367 30.533 20.437 39.775 32.182h-57.93c-17.19-13.756-36.073-20.437-52.944-24.06-18.878-4.824-48.608-7.399-83.959 1.054-20.891 5.223-35.35 12.463-49.41 22.522-27.712 19.713-58.245 71.524-4.016 116.584 17.678 14.958 32.535 19.793 49.007 25.506 30.532 8.846 68.698 7.16 90.79 1.123 33.342-8.852 45.793-20.517 56.64-29.767 10.045-9.655 18.48-21.326 20.812-27.358l47.562-.08c-3.299 17.783-16.153 32.262-28.604 44.332-14.263 13.463-24.908 20.516-45.958 31.06-49.246 23.65-121.557 22.846-166.144 6.675-22.9-8.372-29.327-12.15-46.601-24.139-14.06-11.34-23.303-18.825-36.556-39.342-6.024-10.059-8.839-15.687-15.665-24.937-4.823-5.234-8.036-10.064-16.472-14.086 7.734-5.425 11.947-9.452 15.67-15.282" fill="#E15D29" fill-rule="nonzero"/></g></svg>