<svg width="512" height="512" viewBox="0 0 512 512" xmlns="http://www.w3.org/2000/svg"><title>cincinnati-bengals</title><g fill-rule="nonzero" fill="none"><path d="M426.159 246.504c19.152-14.192 29.47-32.396 29.47-60.513 0-33.285-23.801-79.991-116.866-79.991H103.226l-54.339 94.649h39.896a8.042 8.042 0 0 1 8.054 8.047v94.486a8.042 8.042 0 0 1-8.054 8.047H46l54.909 94.324 247.487-.03c81.834 0 117.213-42.701 117.213-88.52 0-30.352-17.204-54.945-39.102-66.11-2.25-1.14-1.97-3.182-.348-4.39z" fill="#FFF"/><path d="M284.494 233.759h-40.131v-38.631c.037-4.049 3.31-7.313 7.366-7.313h32.765c19.225 0 26.364 9.8 26.364 22.595 0 13.563-7.14 23.349-26.364 23.349m0 88.871h-32.765a7.362 7.362 0 0 1-7.366-7.365v-38.578h40.13c19.226 0 26.365 9.424 26.365 22.602 0 13.548-7.14 23.341-26.364 23.341m114.535-70.37c-2.933-.701-2.458-4.298-.31-5.112 26.5-10.027 41.964-27.872 41.964-59.333.37-42.182-36.912-71.177-97.535-71.177h-229.74l-40.312 71.215h27.744c5.48 0 9.914 4.44 9.914 9.921v114.912c0 5.474-4.433 9.907-9.914 9.907H73.405l40.613 70.868 240.055-.03c68.53 0 96.772-45.56 96.772-79.086 0-29.456-21.705-54.885-51.816-62.085" fill="#FB4F13"/><path d="M191.565 373.343c-42.596-80.073-53.792-172.142-37.922-256.7h-40.236L73.095 187.85h27.744c5.48 0 9.914 4.44 9.914 9.921v88.17c20.672 33.55 50.618 65.682 80.812 87.402zm200.889-248.77c-48.748 72.301-75.166 164.46-63.307 248.4 14.528-70.611 52.428-135.825 111.46-183.065.015-.701.075-1.38.075-2.096.249-29.071-17.385-51.885-48.228-63.239zm-81.725-7.93c-7.644 20.023-15.674 44.186-22.429 71.312a50.955 50.955 0 0 0-3.807-.143h-32.765c-4.056 0-7.328 3.264-7.366 7.313v38.63h34.446c-2.269 13.85-4.116 28.197-5.33 42.936h-29.116v38.57a7.362 7.362 0 0 0 7.366 7.366h20.114c.302 23.123 2.368 46.849 6.695 70.8h-29.953c-23.62-57.056-56.137-153.587-23.794-276.785h85.94z" fill="#000"/></g></svg>