<svg width="512" height="512" viewBox="0 0 512 512" xmlns="http://www.w3.org/2000/svg" xmlns:xlink="http://www.w3.org/1999/xlink"><title>cleveland-browns</title><defs><path id="a" d="M.125 0h380.584v293.86H.125V0z"/><path id="c" d="M0 0h381.832v494.135H0z"/><path id="e" d="M.125 0h380.584v293.86H.125V0z"/><path id="g" d="M0 0h381.832v494.135H0z"/><path id="i" d="M.125 0h380.584v293.86H.125V0z"/><path id="k" d="M0 0h381.832v494.135H0z"/></defs><g fill="none" fill-rule="evenodd"><g transform="matrix(1 0 0 -1 63.998 403.31)"><mask id="b" fill="#fff"><use xlink:href="#a"/></mask><path d="M369.977 14.974l-.157-.096c.164.096.309.232.475.335l-.318-.239zm-152.233 17.47s-9.92-1.336-17.844.298c-19.965-30.509-74.245-28.45-106.688-2.689-.614.46-1.242.91-1.878 1.36-2.24-1.728-11.98-8.485-30.634-11.355-15.66-3.02-22.086 7.113-20.215 14.038-4.623 10.17-5.902 13.726-7.424 19.466-.942 4.068-.361 7.112.031 8.735-4.63 8.86-9.546 19.902-13.476 32.505-56.277 179.686 177.813 254.555 253.93 119.167 1.485-.131 2.377-.484 2.839-1.435l2.084.836 9.171-20.714c-1.13.23-4.261.492-5.029.552.013-.035.021-.069.034-.104-.52.044-1.036.096-1.566.144l-.749.04c-1.99 6.132-4.586 13.913-6.364 18.467-1.017.226-2.82.255-3.275.262.027-.05.05-.083.074-.133 1.392-2.596 5.622-15.66 7.05-19.28 1.953-4.953 1.816-7.736 1.816-7.736l-9.109.17c-.139 2.659-2.658 7.675-2.658 7.675l-3.381 6.863-.924 1.953-3.519 7.424-.029-.012c-.377.83-1.01 2.601-1.191 4.08-.606 4.78 4.099 4.78 4.217 4.78 2.44-.049 4.436-.943 6.427-3.72.438-.006.873-.012 1.266-.014-2.839 5.647-4.436 7.362-6.301 10.482-35.313 50.412-94.21 65.51-145.995 52.72 65.51 9.608 115.423-18.592 140.38-60.769-2.09-1.035-5.54-2.764-7.175-3.63-.718.014-3.4.068-4.293-.007-1.56-.129-3.02-.205-1.959-3.912.786-2.739 1.08-3.381 1.697-5.085.736-2.034 3.12-8.173 4.854-13.414-.612-.114-1.223-.232-1.834-.346a69.227 69.227 0 0 1-1.067 2.914c-2.034 5.19-4.492 11.916-5.21 14.225-.367 1.179-.917 3.437-.257 5.384 0 0-2.477-1.953-.266-7.237l5.603-15.536c-.755-.147-1.51-.294-2.265-.446-16.97-3.406-33.628-7.923-42.987-11.792 0 0-6.988-2.526-11.979-6.55-.186-.15-.27-.279-.286-.393-1.417-.409-2.777-1.366-3.694-2.602-.699-.55-2.308-1.84-3.02-2.645-1.965-2.265-3.68-4.274-5.877-7.3-1.915-2.857-8.797-13.788-14.974-23.708a5.608 5.608 0 0 1-1.528-.855c-1.616-1.28-2.677-3.481-2.284-5.765-4.978-8.048-7.923-12.79-9.109-14.724-2.745-.205-4.13-2.365-4.267-2.64-1.204-2.408-6.426-10.98-7.362-11.916-.554-.554-1.803-2.851-1.26-5.472l-.47-.93s-11.542-17.157-11.48-17.157c-.992-1.397-1.141-2.97-.444-4.454.948-2.003 3.32-3.5 5.765-3.669 1.323-.085 2.52.249 3.469.93 4.667-.774 36.873-6.14 61.143-10.17l2.988-.498 4.786-.792c1.341-.222 2.633-.44 3.874-.65-.597-7.05-2.352-13.226-5.028-18.53l1.073-.143c16.908-1.372 28.887 1.629 37.247 7.3a62.65 62.65 0 0 1 2.271-3.956c-6.489-4.298-14.849-7.05-25.143-7.736l-.322-.15zm68.006 145.37c.286-3.407.05-7.612-1.697-10.794-2.04-3.7-4.836-6.083-10.17-7.05a7.651 7.651 0 0 0-.755-.066v-.006c-.19-.021-.342-.048-.52-.069-.4-.025-.78-.058-1.149-.112 5.372-12.728 23.085-54.655 23.085-54.655-3.4-.612-7.113-.867-7.113-.867l-22.336 52.408a9.014 9.014 0 0 1-1.129-1.354c-.218-.257-.434-.502-.668-.792-3.462-4.342-5.577-9.92-6.738-15.91-.087-.386-.22-.992-.365-1.796 10.544-16.222 24.707-22.274 24.707-22.274l3.513-8.61c-14.1 4.093-25.83 16.846-29.137 20.714 0-.349.006-.699.013-1.06-.044-7.113.823-13.851 1.977-18.656a91.835 91.835 0 0 0 1.785-6.363c-1.629-.168-3.232-.33-4.81-.488-1.086 4.217-2.434 8.235-3.95 11.792-7.986 18.842-29.698 10.232-28.2-1.123l-18.406 40.616c1.934 2.109 5.871 6.108 12.229 10.17-4.43-1.96-7.924-5.048-7.924-5.048a50.89 50.89 0 0 1-4.723-4.136c-.38.842-.749 1.66-1.11 2.452a2608.479 2608.479 0 0 0-3.388 7.487c3.244 2.083 6.55 4.223 10.731 5.727 12.041 4.91 26.017 8.236 39.369 11.043.742.158 1.485.31 2.227.459.409-6.676-2.964-9.172-8.735-10.42-3.78-.78-6.863-.91-8.423-1.434l3.594-.123c.18-.023 4.155.027 9.67 1.903 3.62 1.348 6.365 3.787 5.192 10.357l1.859.382c.98-6.22.07-12.229-11.98-13.414 2.066-1.423 20.84 2.059 32.132-.532.272-.122 5.01-1.753-.4-4.124 10.481 2.334 11.043 12.79 9.046 20.527l.432-.052a47.01 47.01 0 0 0 4.966-.63.125.125 0 0 1 .017-.027c1.004-.11 2.227-.245 3.488-.411 7.798-.78 7.112 8.485 2.988 9.67-3.126.911-3.93.936-4.717 1.067l-1.098.125-9.733 21.712 5.397 2.502 13.976-25.144c6.488-10.294-4.262-14.537-10.17-11.417-1.354-.693-2.084-1.342-2.714-2.215l-.135.059zm26.08-69.878c-4.699-1.173-15.536-2.352-15.536-2.352l-2.221 5.085c11.355-1.566 19.84-.65 19.84-.65-1.947-.254-2.078-2.083-2.078-2.083h-.006zm10.169 1.448c-1.23.998-2.452 1.135-2.777 1.16a.885.885 0 0 0-.084.004l.084-.004c3.488-.247 13.851.786 13.851.786-1.953-.786-11.105-1.946-11.105-1.946h.03zm23.147-.961c.093-.571-.197-2.733-2.564-3.176l-.855-.189c-2.14-.668-6.426-1.672-10.669-2.477-2.652-.507-5.097-.98-4.879-.848-.562 1.241-.955 2.52-2.577 5.677 4.705.805 10.732 2.022 14.912 3.244 1.304.395 3.756.7 3.756.7 1.865-.316 2.676-1.423 2.895-2.933l-.02.002zm21.837-77.365c0 1.56-2.427 4.474-6.614 5.34 0 0 .083 1.604-.041 3.563-1.042 10.607-4.86 29.885-4.86 29.885 5.902 1.916 5.384 13.976-4.692 13.914-2.427 10.918-5.952 19.653-5.952 19.653 5.478 3 2.913 8.048-.092 8.984 0 0 5.478 1.173 7.987-8.298 9.171-25.705 16.284-60.893 14.225-72.997l.039-.044zM354.38 71.737s-2.989-1.522-16.783-3.993c0 0-1.123 4.305-1.641 6.489 0 0 11.667 2.433 16.221 4.136 0 0-.085 1.516-2.34 1.472 0 0-11.854-3-14.599-3.263l-.649 1.822s10.17 1.953 13.54 2.745c0 0 7.174 2.471 8.734-3.007 0 0 1.56-4.729-2.477-6.426l-.006.025zm3.219-48.166c-3.687-1.048-15.66-4.186-15.66-4.186.655 2.876.523 7.424.523 7.424 23.084 4.948 1.166 7.05 1.166 7.05 5.092-1.566 4.954-3.381 4.954-3.381-2.215-.131-6.12 1.042-6.12 1.042.13 1.435-.255 7.3-.255 7.3 5.99-2.608 6.925-1.86 13.164-3.257 6.364-1.435 3.25-4.043 3.25-4.043-3.25-4.043-15.223-5.74-15.223-5.74 20.09 2.608 18.218 8.048 18.218 8.048 8.236-5.34.127-9.109-4.036-10.294l.019.037zM197.255 140.242l18.78-41.365c-8.673.98-14.35 3.513-20.278 7.674-2.183 11.293-2.807 22.773 1.504 33.691h-.006zm-2.359 5.197l1.26-2.782c-5.69-10.67-5.608-22.586-3.406-33.879-.186.148-.37.282-.558.43a245.3 245.3 0 0 0-2.203 2.09c-5.09 4.891-11.854 11.792-16.47 16.658 6.425 10.357 12.602 20.277 12.602 20.215a495.468 495.468 0 0 0 4.424 6.8l4.336-9.546.015.014zm-2.084 23.584c.837-.006 1.604-.266 1.641-.335l31.757-70.501s-4.386-.2-7.799.519a103957.477 103957.477 0 0 0-29.386 64.262c-.655 1.18-.648 2.34.021 3.476.886 1.472 2.627 2.358 3.8 2.333l-.034.246zm74.246 9.795s2.352 1.604 2.476 3.3c0 0 5.472 0 8.236-.045 0 0-2.053-3.862-10.731-3.257l.019.002zm26.89 10.794l.09-.033.082-.013c1.367-.197 2.178-1.965 2.047-3.425-.077-.786-.548-2.57-3.245-2.57-2.44.537-8.797 1.147-12.104 1.453 0 2.733-1.678 6.676-1.678 6.676 3.619-.347 12.853-1.416 14.787-2.059l.021-.03zm-39.493 23.521l2.333 1.217s.197.125.189.09c-.131-.259-.102-.879-.102-.879-.05-.823-.018-1.241.861-3.618 1.38-3.731 8.61-18.655 9.421-20.839 4.168-10.794-6.613-12.853-7.736-8.048 11.48.873 6.8 12.852.305 11.168-2.477 6.126-4.436 12.228-4.436 12.228s-2.54 6.676-.849 8.672l.014.01zm-1.84-.873c-.968-3.12.866-7.924.866-7.924l4.467-12.478-2.345-.436s-2.902 7.986-4.736 13.54c-1.391 4.223-.388 6.238-.388 6.238l2.134 1.017.001.043zm7.486-22.274c2.202.303 4.037-1.21 4.28-2.801.201-1.41-.52-3.064-3.226-3.488l-1.26-.25c-16.596-3.32-35.313-7.05-51.036-13.477-4.94-1.778-7.549-3.282-10.356-5.384 0 0-1.523 3.313-2.078 4.28-.874 1.547-.992 1.703-1.722 2.115 2.271 1.522 5.21 2.963 9.171 4.63 11.543 4.834 35.5 11.042 56.214 14.349l.013.026zm-73.621-24.332s-.14-1.722.773-3.569c.743-1.472 2.234-5.178 2.234-5.178.25.244-3.344-4.224-5.347-7.363l-12.104-19.84-3.25 3.569s-1.392 1.666-2.69 1.666c6.302 10.232 12.105 19.403 14.039 22.336 2.059 3.381 6.987 9.171 6.301 8.422l.044-.043zm55.528-102.945s-2.92-.57-7.862-.177c-2.346 4.43-4.928 10.482-11.542 24.957 4.498-.515 7.924-.042 7.924-.042l11.48-24.707v-.031zm19.403 23.022c.017-.357.03-.717.046-1.08l34.128-5.864c.648-1.865 3.094-7.424 3.094-7.424l-37.185 6.301c-.002-.376-.008-.767-.012-1.154-.227-4.255-.861-8.36-1.91-12.229-1.64-.174-3.3-.34-4.966-.5 2.452 8.048 2.727 16.97 1.629 25.642 1.566.165 3.144.335 4.735.515.177-1.41.305-2.814.407-4.211l.034.004zm48.915-14.1l-2.608 6.002c8.734-.14 15.036-.05 15.036-.05 1.048-3.868-2.558-4.005-2.558-4.005l-9.359-1.872-.511-.075zm-1.704-.523c-1.166-.52-6.863-1.348-6.863-1.348-1.372 2.602-10.045 23.834-10.045 23.834 1.036.126 6.863 1.079 6.863 1.079 4.424-12.291 10.108-23.584 10.108-23.584l-.063.019zM146.406 85.021c6.738-4.043 16.347-9.982 16.347-9.982 6.613-4.212 11.73 1.84 13.351 3.986 1.248 1.672 5.098 6.863 4.967 11.293-.14 4.305-3.438 6.614-6.364 8.548l-13.726 9.046c1.266 2.06 3.319 5.378 6.426 10.42 6.177-6.17 13.29-12.915 13.352-12.978 4.211-4.567 8.485-7.923 12.79-10.419a46.292 46.292 0 0 1 3.044-1.622c2.733-8.36 5.722-15.785 6.988-21.213-1.048 6.364-2.938 13.164-4.791 20.152 7.3-3.157 14.474-4.124 21.025-4.492.3-.02.608-.04.917-.056l.434-.96c-2.595-6.926-7.425-14.35-13.664-18.843.025-.361.04-.723.056-1.092-1.815.291-3.718.594-5.69.905-1.44.23-2.913.463-4.423.705-.705.11-1.416.226-2.134.34-22.149 3.526-49.101 7.8-54.093 8.61l5.21 7.737-.022-.085zm2.583 18.156c5.098-3.2 15.847-9.67 18.905-11.418 3.319-1.846 3.986-2.732 3.986-2.732 3.85-3.656 3.12-7.3 1.242-9.858-2.134-2.858-6.22-4.686-9.608-2.42l-4.63 2.857.007.014-1.672 1.005-14.35 8.797-.038.03-.045.028c-.025.01-2.396 1.11-3.001 3.325-.4 1.491.075 3.188 1.403 5.066 3.039 4.274 4.511 6.739 5.166 7.862.656-1.435 2.67-2.602 2.67-2.602l-.035.046zm8.548.649l15.348-10.295c2.302-1.653 4.567-4.486 3.22-8.298-.198 3.582-4.649 6.427-4.649 6.427s-16.471 9.733-21.525 12.852c-2.895 1.816-2.595 4.324-1.08 5.64-.221-3.955 5.84-7.112 8.736-6.364l-.05.038zm16.284-8.922a8347.749 8347.749 0 0 1-14.724 9.795l1.241 1.204c5.285-3.4 12.229-7.986 15.223-10.232 5.385-4.08 2.477-8.984 2.477-8.984.538 2.951-.798 5.89-4.236 8.236l.019-.02zm-13.414 30.447c2.084-2.87 5.415-5.884 5.415-5.884l-8.36-13.29c-1.13-.891-3.5.022-4.979 1.448-.342.329-1.965 2.01-.992 3.176l.05.062.04.07c.126.204 1.946 3.226 8.859 14.413l-.033.005zm-29.262-56.34c-1.678.107-3.4 1.18-4.018 2.484-.38.786-.292 1.585.268 2.383l10.919 16.72c.686-1.322 6.189-4.616 6.189-4.616-2.309-3.413-10.544-15.66-10.544-15.66-.762-1.167-1.966-1.348-2.84-1.292l.026-.018zM252.184 47.8a53.668 53.668 0 0 0-1.566 2.733l-.743 1.472c1.21.133 1.903.249 1.903.249 1.285.133 2.602.272 3.937.413a40.17 40.17 0 0 0-3.531-4.873v.006zm55.403 11.667c1.435.263 7.362 1.572 7.362 1.572 6.239-9.358 16.284-16.16 16.284-16.16.255-2.357.47-8.36.47-8.36-15.784 7.675-24.082 22.96-24.082 22.96l-.034-.012zm23.708-42.176c-16.845-4.336-34.939-4.598-50.162-.571-13.788 3.65-30.135 11.667-39.244 31.757 0 0-1.16 2.183-1.422 3.232 0 0 4.635-.091 7.674.162 14.1-30.135 50.349-35.812 81.732-27.826 0 0 2.845.487 3.643 1.347.643 1.498.577 5.347.577 5.347-.04.874-.755 19.466-4.186 31.82-.305 1.303-.718 2.102-1.048 2.408 0 0-.936.394-1.61.41-1.66.061-3.843-.4-3.843-.4-19.154-4.567-48.852-8.36-72.374-10.731-.043 0-1.84-.276-5.003-.41l-2.527-.073c-4.442-.048-10.731.228-18.655 1.485 0 0-87.347 14.225-86.723 14.225l4.673 6.426 84.227-13.788c12.853-1.922 18.78-.998 18.967-.967 22.648 1.26 64.263 7.487 74.87 10.17 0 0 5.483 1.297 6.176 1.996.448.453-.686 4.567-.686 4.567-.048.137-4.156 13.539-6.208 18.717l.029-.108c-.05.214-.942 3.089-1.878 3.52l-.686-.013s-1.21-.235-2.69-.568c-19.777-3.588-55.84-8.61-76.74-9.92 1.834.114-8.61-.37-16.659.19-11.542.643-24.332 3.507-37.06 17.345-.139.14-14.225 13.539-19.902 19.778-1.41 2.009-.662 4.217.823 5.384 1.048.836 3.132 1.217 4.293-.145 2.49-3.326 16.72-18.031 23.77-24.582 7.8-6.083 13.415-9.234 24.27-10.482 5.897-.699 12.853-.6 13.227-.612 14.35-.361 66.759 6.033 81.732 9.047 1.953.26 3.12.724 3.12.724l-.03.294.09.649c.027.226.911.936 1.647 1.273 1.41.648 3.294.661 4.873-.63 10.98-20.215 21.774-57.712 19.279-86.1-.138-1.503-.743-2.726-1.903-3.313 0 0-2.508-1.135-5.048.164 0 0 .098-.205-2.633-1.116l-.772-.082zm50.1 19.84l-.017.324c-1.71 23.147-6.863 46.543-15.847 71.75l-.102.25-.101.249-1.049 2.483.125-.272c-3.73 9.67-11.48 13.85-22.96 12.416l-5.153-.565-2.109-.189c-8.797-.805-21.525-1.94-32.693-.904l-13.913 32.88c2.864 1.877 5.297 4.074 6.8 6.862 1.242 2.234 2.01 4.599 2.478 6.926 4.274.59 8.298 2.49 11.168 5.609 4.224 4.604 6.613 12.915.649 22.398l.3-.496-18.592 33.566-10.98-4.679c-44.922 70.502-129.15 81.732-190.917 54.904C32.081 256.309-22.573 192.047 9.246 91.598c3.332-10.607 7.612-21.026 12.665-31.07a28.734 28.734 0 0 1 .6-9.422l.033-.17.052-.17c1.61-6.071 3.082-10.108 6.863-18.468-.212-5.497 1.828-11.106 5.796-15.348 6.195-6.676 16.034-9.297 26.953-7.175l-.525-.079c14.474 2.034 23.895 6.302 28.824 9.11C112.22 3.643 140.544-3.157 166 1.023c16.409 2.726 29.698 9.795 38.807 20.651 6.988-.475 13.29.274 14.537.43 7.737.564 14.787 2.196 21.088 4.847 9.296-10.856 21.9-18.655 36.998-22.648 17.656-4.648 37.622-4.33 56.65.768 3.682-.345 7.3.661 9.858 1.865 19.966 4.567 24.458 6.489 27.39 8.985.035.022.079.06.108.103 7.112 4.867 9.421 14.038 9.171 20.776l.788.329z" fill="#FFF" fill-rule="nonzero" mask="url(#b)"/></g><g transform="matrix(1 0 0 -1 63.998 503.135)"><mask id="d" fill="#fff"><use xlink:href="#c"/></mask><g mask="url(#d)" fill-rule="nonzero" fill="#FF3C00"><path d="M181.557 119.166c6.24 3.257 11.605 7.8 15.66 13.851-.01.005-.027.008-.04.013a32.875 32.875 0 0 1 4.162 8.048c-4.105-10.045-11.105-17.22-19.778-21.9M173.446 227.726c4.567-4.872 11.356-11.791 16.472-16.658-1.155 7.3-1.435 14.849.089 21.837 1.03 4.729 2.751 8.797 4.816 12.353l-4.336 9.546a401.327 401.327 0 0 1-4.423-6.8c0 .012-6.177-9.858-12.603-20.215M189.668 191.54c2.976-6.427 6.07-14.537 7.799-23.522 1.503-.242 2.982-.475 4.423-.705-.464 2.271-.954 4.33-1.335 6.096-.805 3.687-4.08 11.542-6.988 21.088-4.28 2.502-8.61 5.871-12.79 10.42-.064.065-7.175 6.8-13.351 12.977-3.12-5.042-5.173-8.36-6.427-10.42l13.726-9.046c2.951-1.947 6.24-4.255 6.364-8.548.127-4.436-3.718-9.608-4.966-11.293-1.616-2.146-6.738-8.173-13.352-3.986 0 0-9.608 5.958-16.346 9.982l-5.21-7.736c4.954-.786 31.944-5.085 54.093-8.61-1.173 8.547-3.987 16.346-5.69 23.147"/></g></g><g transform="matrix(1 0 0 -1 63.998 403.31)"><mask id="f" fill="#fff"><use xlink:href="#e"/></mask><g mask="url(#f)" fill-rule="nonzero" fill="#FF3C00"><path d="M212.129 162.216c7.86 4.268 12.727 6.613 25.268 8.173-.054-.006 3.113.43 3.113.43 2.128.319 6.19 1.166 7.362 3.281.668 1.204.918 2.82.836 4.748-13.351-2.795-27.264-6.14-39.368-11.043-4.168-1.504-7.487-3.644-10.731-5.727.954-2.11 2.096-4.63 3.387-7.487 3.189 3.07 6.364 5.247 8.673 6.675.452.341 1.428.961 1.428.961"/><path d="M121.038 72.997a14.143 14.143 0 0 0-4.623-.711c-4.417.033-8.797 2.009-12.104 5.434-6.426 6.676-6.8 17.033-.93 23.022 2.652 2.702 6.24 4.18 10.17 4.156 4.418-.027 8.797-2.01 12.104-5.428 3.3-3.45 5.004-7.862 5.085-12.167l-9.67-14.35-.032.044zm21.837-15.16c-12.042-12.79-36-12.666-49.6 4.735 23.021-21.338 44.484-7.238 49.6-4.736zm-35.438-19.342c-1.036-.867-2.433-1.185-3.887-1.067-1.616-1.01-4.13-.446-5.92 1.441-1.66 1.754-2.153 4.075-1.342 5.647-.347 2.54.438 5.078 2.24 6.364 2.726 1.915 6.863.736 9.233-2.627 2.371-3.375 2.259-7.612-.323-9.733l-.001-.025zm56.65 22.773a7.217 7.217 0 0 0 7.176-7.238c-.009-2.957-1.81-5.49-4.361-6.613a4.618 4.618 0 0 0-3.4-1.479c-1.879 0-3.482 1.136-4.23 2.764-1.467 1.323-2.397 3.22-2.39 5.347.012 3.974 3.244 7.175 7.237 7.175l-.031.044zm76.741 151.61c.365.57.899 1.004 1.504 1.36-20.589 34.938-69.878 71.125-134.764 60.519C45.489 254.79-2.864 193.649 18.349 107.549c9.047-32.88 19.59-50.287 31.07-66.758 0 0-.518-7.924 13.165-3.787 12.416 3.75 19.965 4.03 32.88-5.609 22.523-16.783 61.33-24.395 86.1-11.417 8.672 4.679 15.722 11.854 19.777 21.899 1.753 4.966 2.228 9.982 2.053 14.724-1.541.257-3.138.523-4.785.792-1.061-20.464-21.338-40.117-57.587-37.87-15.099.561-31.258 7.923-40.866 13.164-4.424 2.97-16.908 9.982-22.897 11.292 5.203-.276 18.218-7.112 23.646-10.232 11.168-5.765 26.828-11.293 40.055-11.854 24.207-2.277 51.66 10.107 54.591 36-24.27 4.049-56.463 9.42-61.143 10.17-.948-.68-2.146-1.012-3.468-.93-2.446.17-4.817 1.672-5.765 3.668-.7 1.485-.548 3.057.444 4.455-.019-.031 11.48 17.157 11.48 17.157l.469.93c-.542 2.62.705 4.922 1.26 5.472.949.948 6.177 9.545 7.362 11.916.138.278 1.523 2.433 4.268 2.64 1.217 1.952 4.149 6.613 9.109 14.724-.394 2.283.661 4.492 2.283 5.764a5.764 5.764 0 0 0 1.529.855c6.152 9.983 13.04 20.839 14.974 23.709 2.196 3.013 3.918 5.022 5.877 7.3.711.804 2.321 2.096 3.02 2.645.917 1.235 2.277 2.196 3.693 2.601.017.115.1.243.287.393 4.96 4.05 11.979 6.55 11.979 6.55 9.358 3.913 25.954 8.424 42.987 11.793-1.192 3.438-4.966 14.287-4.966 14.287-.19.473-2.808 5.828-.743 9.047l.341-.162z"/></g></g><g transform="matrix(1 0 0 -1 63.998 503.135)"><mask id="h" fill="#fff"><use xlink:href="#g"/></mask><g fill-rule="nonzero" mask="url(#h)"><g fill="#2B1D14"><path d="M195.283 168.455c.718-.114 1.429-.23 2.134-.34-1.753 8.921-4.848 17.095-7.799 23.52 1.703-6.8 4.517-14.599 5.69-23.146M141.003 121.038c-13.29.556-28.887 6.09-40.055 11.854-5.453 3.157-18.467 9.983-23.646 10.232 5.983-1.322 18.468-8.298 22.898-11.292 9.608-5.241 25.767-12.603 40.866-13.165 36.249-2.265 56.526 17.407 57.586 37.871-.98.165-1.971.33-2.988.498-3.12-25.58-30.572-38.058-54.904-36.186M113.551 204.642c-3.893.025-7.487-1.448-10.17-4.155-5.895-5.996-5.471-16.347.93-23.023 3.257-3.419 7.674-5.396 12.104-5.434 1.603-.02 3.163.226 4.623.711l9.67 14.35c-.078 4.287-1.784 8.735-5.084 12.166-3.257 3.42-7.674 5.404-12.104 5.428"/><path d="M93.586 162.84c13.601-17.407 37.497-17.532 49.6-4.736-5.134-2.514-26.578-16.595-49.6 4.736M164.088 159.72c4.685.01 7.923-6.002 4.036-10.044 1.697 3.643.31 8.297-4.167 8.485-4.648.182-6.196-4.48-5.385-6.926-1.572 1.479-1.035 8.485 5.51 8.485h.006zm2.327-5.222c-1.01 1.13-3.556 1.66-5.023.68-.655-.405-1.335.127-.5.98 1.647 1.441 4.71 1.36 6.114-.724.705-1.054-.045-1.772-.591-.936zm-3.113-7.923c-2.165 0-3.918 1.772-3.918 3.968 0 2.183 1.746 3.962 3.918 3.962 2.158 0 3.912-1.779 3.912-3.962 0-2.196-1.754-3.968-3.912-3.968zm-4.212 1.934c.749-1.629 2.352-2.764 4.23-2.764 1.342-.004 2.54.566 3.4 1.479a7.193 7.193 0 0 1 4.362 6.613c.014 3.993-3.2 7.237-7.175 7.237-3.968.007-7.175-3.213-7.237-7.175-.007-2.133.93-4.03 2.39-5.347l.03-.043z"/></g><g fill="#FFF"><path d="M160.968 156.6c-.836-.854-.155-1.384.5-.979 1.46.98 4.012.453 5.023-.68.546-.836 1.298-.12.592.936-1.404 2.084-4.468 2.165-6.115.724"/><path d="M164.088 158.473c4.473-.193 5.865-4.836 4.167-8.486 3.912 4.043.643 10.045-4.036 10.045-6.551-.027-7.113-6.987-5.51-8.485-.81 2.44.73 7.113 5.385 6.926"/><path d="M163.464 147.866a3.125 3.125 0 0 0-3.126 3.132 3.127 3.127 0 0 0 3.126 3.126 3.13 3.13 0 0 0 3.138-3.126 3.131 3.131 0 0 0-3.138-3.132zm3.95 3.101c0 2.184-1.754 3.962-3.913 3.962-2.165 0-3.918-1.778-3.918-3.962 0-2.196 1.747-3.968 3.918-3.968 2.159 0 3.912 1.772 3.912 3.968z"/></g><path d="M160.968 150.362c.088.402.27.203.36-.102.854-1.354 3.231-1.454 3.943-.413.373.53.367-.193.367-.193-1.491-2.945-4.904-1.085-4.673.705l.003.003zm2.315 3.232a3.123 3.123 0 0 1-3.126-3.126 3.129 3.129 0 0 1 3.126-3.132 3.131 3.131 0 0 1 3.138 3.132 3.13 3.13 0 0 1-3.138 3.126z" fill="#2B1D14"/><path d="M165.336 150.362c-.718-1.042-3.095-.936-3.944.413-.089.305-.272.504-.359.102-.23-1.791 3.176-3.65 4.673-.705 0 0 .006.723-.367.192" fill="#FFF"/><path d="M106.064 138.508c4.804 6.239-4.542 13.538-8.235 7.736 3.082 9.421 15.473-2.415 8.235-7.736zm-1.185 4.928c-.473 1.024-2.015 2.334-2.876 2.502-.874.168-.542 1.579.506 1.223.974-.338 2.477-1.616 2.852-2.227.96-1.579-.063-2.377-.478-1.491l-.004-.007zm-6.426-4.292c-1.679 1.772-1.972 4.224-.65 5.484 1.33 1.248 3.757.836 5.435-.936 1.678-1.772 1.972-4.23.649-5.478-1.317-1.26-3.756-.836-5.434.936v-.006zm.435 11.417c-1.803-1.272-2.59-3.805-2.24-6.363-.81-1.573-.32-3.894 1.342-5.647 1.79-1.89 4.305-2.452 5.92-1.441 1.454-.119 2.852.199 3.888 1.067 2.583 2.146 2.695 6.364.323 9.733-2.377 3.363-6.488 4.542-9.233 2.626v.025z" fill="#2B1D14"/><g fill="#FFF"><path d="M102.32 147.242c-1.047.359-1.378-1.054-.506-1.223.861-.166 2.409-1.478 2.876-2.501.415-.886 1.442-.085.478 1.49-.37.613-1.878 1.891-2.851 2.228"/><path d="M97.33 146.618c3.693 5.784 13.04-1.497 8.235-7.736 7.238 5.334-5.153 17.22-8.235 7.736"/><path d="M102.945 139.131c-1.098-.81-2.958-.147-4.318 1.105-1.472 1.347-1.59 3.419-.58 4.405 1.129 1.079 3.138.402 4.342-.974.973-1.123 1.815-3.581.554-4.536h.002zm.048 5.098c-1.679 1.772-4.106 2.183-5.435.936-1.322-1.26-1.035-3.713.65-5.485 1.677-1.771 4.117-2.196 5.433-.935 1.323 1.247 1.036 3.706-.648 5.478v.006z"/></g><path d="M102.32 139.131c-2.251-.214-4.273 2.521-3.437 3.731 0 0 .618.849.73.063.197-1.342 1.61-2.746 2.957-3.107.326-.077.43-.569-.247-.687h-.002zm-3.967 4.973c-1.01-.986-.892-3.063.58-4.405 1.36-1.254 3.22-1.915 4.318-1.104 1.26.954.421 3.419-.554 4.536-1.204 1.379-3.213 2.052-4.342.973h-.002z" fill="#2B1D14"/><path d="M99.201 143.499c-.114.786-.73-.062-.73-.062-.83-1.21 1.192-3.944 3.438-3.731.674.12.573.612.247.686-1.341.357-2.757 1.766-2.957 3.107M87.971 131.645c.446.309.91.648 1.267.904-6.165 3.937-13.789 6.489-26.267 2.409-.193-.065-.37-.117-.558-.177 2.988.602 7.112 1.291 9.67 1.117 3.288-.237 8.111-.712 12.666-3.606l-2.296-1.248c-10.856-5.254-19.966-6.738-25.144-7.113-5.085-.365-4.105 2.608-.755 4.293 1.84.936 3.394 2.72 4.074 5.977-.554-.287-.554-.166-1.366-.318-.031-.008-.06-.014-.09-.023-1.116-7.986-16.72-7.175-15.036 3.713 0 0-2.246 4.616-3.53 7.3.024-.113-.323 1.678-.148 1.721 0 0 3.818-6.195 5.39-8.173-2.108-7.424 8.735-10.482 11.668-4.929-9.546-1.778-9.92 3.107-9.796 4.748-.077.241-.133.507-.193.768-1.665 1.697-7.05 8.859-13.226 20.152-.83-6.614 6.613-21.837 7.237-23.334l.636-1.573c-2.252-6.232 4.237-14.412 15.91-12.54 11.48 1.085 24.332 5.89 29.823 9.858" fill="#FFF"/><g fill="#2B1D14"><path d="M248.94 151.61l.742-1.473a51.846 51.846 0 0 1 1.566-2.733 40.17 40.17 0 0 1 3.531 4.873c-1.329-.14-2.652-.28-3.937-.413 0 0-.686-.116-1.903-.249M254.554 163.464c1.672.16 3.326.326 4.967.5 1.048 3.887 1.678 7.986 1.909 12.229.004.39.01.78.012 1.154l37.185-6.301s-2.446 5.527-3.094 7.424l-34.315 6.24c-.017.362-.03.723-.046 1.079a81.394 81.394 0 0 1-.407 4.21c-1.59-.18-3.175-.35-4.735-.514 1.098-8.61.83-17.594-1.629-25.642M189.668 210.88c.774-.742 1.522-1.453 2.202-2.09.19-.146.372-.281.559-.428-2.203 11.292-2.284 23.209 3.406 33.878l-1.26 2.782a41.438 41.438 0 0 1-4.817-12.353c-1.522-6.988-1.241-14.475-.089-21.837M202.146 167.207l5.69-.904c-.016.367-.03.73-.056 1.091 6.24 4.518 11.106 11.917 13.664 18.843l-.434.96c-.311.017-.618.036-.917.056-6.551.368-13.726 1.336-21.026 4.492 1.853-7.05 3.744-13.85 4.792-20.152-1.292 5.46-4.28 12.853-6.988 21.213a49.13 49.13 0 0 0-3.045 1.622c2.902-9.546 6.183-17.407 6.988-21.088.384-1.765.874-3.824 1.335-6.095"/></g><path d="M252.683 219.616c-2.253 10.481.134 29.947 7.799 35.5-10.919-1.323-13.976-28.7-7.8-35.5" fill="#FFF"/><path d="M215.872 198.403l-18.78 41.365c-4.31-10.919-3.687-22.398-1.503-33.691 5.952-4.18 11.605-6.738 20.277-7.674M252.683 219.616c-6.177 6.8-3.139 34.19 7.799 35.5-7.612-5.553-10.045-25.019-7.8-35.5zm36.124 60.331c5.915-3.094 16.658 1.142 10.17 11.418L285 316.508l-5.397-2.501 9.733-21.712 1.098-.125c.786-.133 1.585-.156 4.717-1.067 4.105-1.192 4.823-10.42-2.988-9.67-1.26.165-2.484.3-3.488.41-.006.009-.013.017-.017.027-1.341.243-3.02.495-4.966.63l-.432.052c1.997-7.736 1.417-18.218-9.046-20.526 5.409 2.37.673 4 .4 4.124-11.293 2.59-30.072-.892-32.131.531 12.041 1.167 12.977 7.175 11.979 13.415-.615-.125-1.242-.256-1.86-.382 1.161-6.551-1.565-8.985-5.19-10.357-5.528-1.878-9.484-1.928-9.67-1.903l-3.594.122c1.56.527 4.641.655 8.422 1.435 5.803 1.21 9.172 3.75 8.735 10.42-.742-.15-1.479-.301-2.227-.46.084-1.933-.168-3.543-.836-4.747-1.173-2.115-5.235-2.957-7.363-3.282 0 0-3.169-.435-3.113-.43-12.54-1.603-17.344-3.917-25.268-8.172 0 0-.973-.619-1.429-.961a46.993 46.993 0 0 1-8.672-6.676c.361-.792.73-1.61 1.11-2.452a49.215 49.215 0 0 0 4.723 4.137s3.513 3.088 7.924 5.047c-6.364-4.068-10.294-8.048-12.229-10.17 5.035-11.105 11.792-26.017 18.406-40.616-1.523 11.355 20.214 19.965 28.2 1.123a82.899 82.899 0 0 0 3.95-11.792c1.578.158 3.182.32 4.81.488-.52 2.115-1.11 4.23-1.784 6.364-1.148 4.81-2.022 11.542-1.978 18.655-.006.357-.013.711-.013 1.06 3.282-3.824 15.037-16.596 29.137-20.713l-3.513 8.61s-14.162 6.064-24.707 22.273c.146.799.279 1.41.365 1.797 1.192 5.94 3.307 11.542 6.739 15.91.234.29.45.535.667.792.2.297.567.792 1.13 1.354l22.335-52.408s3.731.253 7.113.867l-23.085 54.654c.365.054.75.087 1.148.112.179.021.33.048.521.07v.005c.33.021.623.04.755.066 5.335.955 8.111 3.345 10.17 7.05 1.747 3.183 1.984 7.363 1.697 10.794.636.874 1.36 1.523 2.714 2.215l.104-.048z" fill="#2B1D14"/><path d="M152.857 190.916c-.519-6.489 5.422-7.487 8.735-6.227.724-5.272 5.31-5.41 7.55-5.06-2.777-1.76-8.111-.577-9.11 4.38-4.205-1.279-8.922 2.109-7.175 6.926v-.02zm1.155 1.385c1.01.848 1.815 1.229 3.325 1.154-.643-.998-.88-2.49-.973-4.005-.307.26-.554.265-.861.597l-.005-1.085c.198-.355.513-.463.911-.73.013-.955.054-1.679.235-2.321-.205.068-.324.243-.54.342-3.126 1.76-2.09 6.046-2.09 6.046l-.002.002zm5.216.967c2.24-.711 3.868-2.677 3.762-4.698l.253-.025c-.18-1.466-1.728-3.463-4.879-2.982-.164.642-.18 1.273-.218 1.978a4.518 4.518 0 0 1 1.71-.25c-.017.289.062.918.062.918-.624.05-1.185.255-1.79.52.055 1.704.416 3.257 1.098 4.537l.002.002zm5.272-4.823c4.51.135 8.048-4.38 5.77-7.674l-.823-.137c-3.93-.513-6.152 1.042-6.8 4.56.612.44 1.615 1.648 1.859 3.264l-.006-.013zm-5.285-5.796s.237-.668.73-1.597l.004.008c.438-.805 1.173-1.553 1.99-2.053 6.046-3.593 9.36.986 9.422 1.024.027.041 2.776 3.63-1.242 7.549-.106.102-2.558 2.283-5.896 1.865-.35 1.38-2.096 5.254-7.112 5.092h-.038l-.033-.01c-4.005-.277-4.941-2.44-5.397-3.688 0 0-1.03-2.752.49-5.135.02-.033 1.965-3.88 7.113-3.088l-.03.033z" fill="#FFF"/><g fill="#2B1D14"><path d="M265.16 306.339c-1.328.848-3.343 3.756-3.031 6.12 3.094-.041 4.005-4.56 3.032-6.12M268.28 298.228c-1.553 1.553-2.37 3.263-2.533 5.746 2.471-.496 3.962-3.569 2.533-5.746M255.178 304.467s1.96-6.127 4.436-12.229c6.489 1.691 11.168-10.294-.305-11.168 1.117-4.785 11.917-2.782 7.737 8.049-.836 2.177-8.049 17.157-9.421 20.838-.88 2.378-.911 2.796-.861 3.62 0 0-.03.617.101.879.009.033-.189-.091-.189-.091l-2.333-1.217c-1.69-2.021.848-8.672.848-8.672"/><path d="M250.811 304.467c1.828-5.546 4.735-13.539 4.735-13.539l2.346.436-4.467 12.478s-1.834 4.81-.867 7.924l-2.134-1.017s-.998-2.047.388-6.24M267.033 278.263c8.672-.608 10.73 3.257 10.73 3.257-2.782.045-8.235.045-8.235.045-.126-1.697-2.477-3.3-2.477-3.3M165.96 234.59c1.303 0 2.689-1.666 2.689-1.666l3.25-3.57 12.104 19.841c2.003 3.145 5.596 7.612 5.347 7.362 0 0-1.491 3.706-2.234 5.179-.917 1.846-.773 3.568-.773 3.568.648.774-4.262-5.016-6.302-8.422-1.959-2.933-7.736-12.042-14.038-22.336M319.44 210.257c.325-.02 1.548-.162 2.777-1.16 0 0 9.11 1.16 11.106 1.946 0 0-10.357-1.036-13.851-.786M322.56 177.19s-6.301-.09-15.036.05l2.608-6.002 9.858 1.946s3.6.14 2.558 4.006M298.852 194.66s-5.821-.955-6.863-1.08c0 0 8.672-21.213 10.045-23.833 0 0 5.727.83 6.863 1.347 0 0-5.66 11.23-10.108 23.584M313.826 160.344s-5.903-1.31-7.362-1.572c0 0 8.36-15.223 24.082-22.96 0 0-.215 6.002-.47 8.36 0 0-10.046 6.801-16.285 16.16M361.243 133.516s1.828-5.465-18.218-8.048c0 0 11.979 1.69 15.223 5.74 0 0 3.12 2.608-3.25 4.043-6.209 1.397-7.176.649-13.165 3.257 0 0 .386-5.865.255-7.3 0 0 3.906-1.173 6.12-1.042 0 0 .142 1.815-4.953 3.381 0 0 21.899-2.083-1.167-7.05 0 0 .131-4.56-.523-7.424 0 0 11.98 3.138 15.66 4.186 4.162 1.167 12.229 4.948 4.037 10.295M222.735 187.172c6.614-14.474 9.172-20.526 11.542-24.956 4.948-.394 7.862.177 7.862.177l-11.48 24.706s-3.4-.473-7.924.042M189.044 266.409c-.667-1.136-.68-2.303-.02-3.476.02-.041 15.847-34.751 29.385-64.262 3.438-.718 7.8-.52 7.8-.52l-32.444 70.502c-.041.07-.805.329-1.64.335-1.174.023-2.914-.855-3.8-2.334"/><path d="M338.158 117.919c1.154.587 1.766 1.809 1.903 3.313 2.502 28.325-8.298 66.134-19.279 86.099-1.578 1.291-3.462 1.279-4.872.63-.737-.336-1.623-1.042-1.648-1.273l-.089-.649.03-.294s-1.174-.463-3.12-.724c-15.348-3.026-67.382-9.42-81.732-9.047-.345.013-7.3-.084-13.227.613-10.856 1.229-16.471 4.404-24.27 10.481-7.05 6.551-21.275 21.275-23.771 24.582-1.167 1.36-3.25.986-4.292.146-1.485-1.167-2.234-3.382-.824-5.385 5.665-6.208 19.715-19.59 19.903-19.778 12.727-13.788 25.517-16.658 37.06-17.344 8.11-.56 18.53-.077 16.658-.191 21.213 1.279 57.275 6.301 76.74 9.92 1.48.334 2.69.568 2.69.568l.686.013c.936-.432 1.828-3.307 1.878-3.52l-.029.109c2.053-5.172 6.158-18.593 6.208-18.717 0 0 1.135-4.112.686-4.567-.692-.7-6.176-1.997-6.176-1.997-10.108-2.701-52.034-8.922-74.87-10.17-.157-.033-6.12-.954-18.966.967-.019 0-84.228 13.789-84.228 13.789l-4.673-6.427c-.363-.008 86.723-14.225 86.723-14.225 7.924-1.26 14.225-1.534 18.655-1.485l2.527.073c3.17.135 4.96.41 5.004.41 23.396 2.371 53.094 6.158 72.373 10.732 0 0 2.184.46 3.843.4.668-.016 1.61-.411 1.61-.411.33-.307.742-1.11 1.048-2.408 3.425-12.354 4.143-30.946 4.187-31.82 0 0 .068-3.85-.578-5.346-.798-.855-3.643-1.348-3.643-1.348-31.07-7.986-67.382-2.346-81.732 27.826-3.045-.253-7.674-.162-7.674-.162.257-1.048 1.422-3.232 1.422-3.232 9.047-20.09 25.393-28.076 39.244-31.757 15.224-4.024 33.317-3.768 50.162.571 2.727.911 2.633 1.117 2.633 1.117 2.54-1.298 5.048-.164 5.048-.164"/><path d="M151.61 190.916c.458 1.248 1.39 3.413 5.396 3.687l.034.01h.037c5.01.166 6.738-3.712 7.113-5.09 3.337.412 5.79-1.766 5.895-1.866 4.012-3.943 1.267-7.55 1.242-7.55-.031-.039-3.357-4.616-9.421-1.023-.824.496-1.554 1.248-1.99 2.053l-.005-.008c-.494.93-.73 1.597-.73 1.597-5.128-.792-7.05 3.05-7.112 3.088-1.516 2.377-.49 5.135-.49 5.135l.03-.033zm-5.16 14.537c-.649-1.13-2.128-3.575-5.166-7.861-1.329-1.878-1.803-3.575-1.404-5.067.6-2.214 2.976-3.312 3.001-3.325l.046-.027.037-.031 14.35-8.797 1.672-1.005-.006-.014 4.63-2.858c3.406-2.264 7.486-.44 9.607 2.421 1.878 2.54 2.608 6.177-1.241 9.858 0 0-.668.886-3.987 2.733-3.088 1.715-13.788 8.235-18.904 11.417 0 0-2.016 1.167-2.67 2.602l.035-.046zM175.942 195.283c-3.001 2.284-9.92 6.863-15.223 10.232l-1.242-1.204 14.724-9.795c3.438-2.321 4.773-5.266 4.237-8.236 0 0 2.907 4.91-2.477 8.984"/><path d="M150.362 204.642c5.053-3.17 21.525-12.853 21.525-12.853s4.448-2.838 4.648-6.426c1.347 3.83-.917 6.676-3.22 8.298l-15.348 10.294c-2.87-.78-8.922 2.403-8.734 6.364-1.523-1.316-1.816-3.824 1.079-5.64M162.84 185.3c.655-3.518 2.876-5.072 6.8-4.56l.824.137c2.265 3.307-1.26 7.799-5.771 7.674-.238-1.616-1.248-2.826-1.86-3.263"/><path d="M160.344 184.053c.992-4.954 6.364-6.14 9.11-4.38-2.222-.353-6.801-.218-7.55 5.06-3.338-1.23-9.296-.282-8.735 6.226-1.778-4.804 2.97-8.173 7.175-6.925M338.782 210.257c-4.18-1.23-10.232-2.44-14.911-3.244 1.622-3.164 2.015-4.436 2.576-5.678-.22-.127 2.228.344 4.88.849 4.28.804 8.547 1.809 10.668 2.477l.855.189c2.37.444 2.658 2.601 2.564 3.175-.222 1.51-1.03 2.62-2.895 2.933 0 0-2.452-.305-3.756-.7M348.14 180.933c-3.393-.786-13.538-2.745-13.538-2.745l.649-1.822c2.739.26 14.6 3.263 14.6 3.263 2.258.042 2.339-1.472 2.339-1.472-4.555-1.703-16.222-4.137-16.222-4.137.517-2.208 1.641-6.488 1.641-6.488 13.788 2.464 16.783 3.993 16.783 3.993 4.037 1.69 2.477 6.426 2.477 6.426-1.566 5.484-8.735 3.007-8.735 3.007"/><path d="M352.508 204.018c-2.514 9.483-7.986 8.298-7.986 8.298 3-.917 5.565-5.958.091-8.984 0 0 3.525-8.735 5.952-19.654 10.045.075 10.607-11.979 4.692-13.913 0 0 3.818-19.278 4.86-29.885.125-1.959.042-3.562.042-3.562 4.174-.861 6.613-3.775 6.613-5.341 2.04 12.166-5.079 47.355-14.225 72.997M294.485 210.257l2.22-5.085s10.857 1.18 15.536 2.352c0 0 .133 1.828 2.078 2.084 0 0-8.486-.917-19.84.649M144.747 185.925s-5.497 3.3-6.19 4.616l-10.918-16.72c-.56-.799-.649-1.597-.268-2.384.614-1.304 2.34-2.377 4.018-2.483.874-.056 2.078.123 2.84 1.292.01.012 8.235 12.228 10.543 15.66M194.66 270.776c.73-.41.848-.568 1.721-2.115.552-.967 2.078-4.28 2.078-4.28 2.77 2.103 5.403 3.6 10.357 5.384 15.722 6.364 34.44 10.108 51.035 13.477l1.26.25c2.702.43 3.426 2.078 3.226 3.488-.24 1.591-2.077 3.107-4.28 2.802-20.713-3.345-44.672-9.546-56.214-14.35-3.987-1.666-6.925-3.107-9.171-4.63M151.61 210.88l-.05-.061c-.973-1.173.649-2.852.992-3.176 1.479-1.429 3.85-2.34 4.979-1.448l8.36 13.29s-3.332 3.013-5.416 5.883c-6.925-11.168-8.734-14.225-8.859-14.412l-.04-.07M278.887 291.365s1.678-3.912 1.678-6.676c3.27-.311 9.67-.917 12.104-1.454 2.695 0 3.17 1.785 3.244 2.571.133 1.46-.68 3.226-2.046 3.425l-.083.013-.09.033c-1.921.643-11.167 1.71-14.786 2.059M159.72 187.796a4.507 4.507 0 0 0-1.71.25c.038-.706.055-1.336.219-1.979 3.15-.483 4.698 1.51 4.879 2.983l-.254.025c.108 2.015-1.522 3.986-3.762 4.698-.68-1.28-1.042-2.833-1.098-4.536.606-.266 1.16-.471 1.79-.521 0 0-.078-.63-.062-.917"/></g></g></g><g transform="matrix(1 0 0 -1 63.998 403.31)"><mask id="j" fill="#fff"><use xlink:href="#i"/></mask><g mask="url(#j)" fill-rule="nonzero" fill="#2B1D14"><path d="M155.977 86.723c.216-.1.334-.274.54-.342-.18.636-.222 1.366-.235 2.32-.399.268-.711.376-.91.73l.004 1.086c.309-.332.555-.338.86-.598.094 1.517.332 3.008.974 4.006-1.504.072-2.315-.305-3.326-1.154 0 0-1.042-4.287 2.09-6.046"/><path d="M271.4 200.274c.83-3.612-1.784-5.565-4.38-2.576-1.08 1.248-1.597 2.408-2.053 3.88l-.083.229c-.435 1.89-.228 3.444-.228 3.444-1.616 1.453-2.283 2.739-2.82 3.8-1.535 4.541 0 5.583.686 5.833 2.508.62 6.021-3.113 5.771-8.735 1.392-1.391 2.409-2.695 3.114-5.89l-.007.015zM34.315 59.271C40.479 47.98 45.92 40.804 47.542 39.057c.062-.268.125-.538.186-.768-.124-1.64.229-6.55 9.796-4.754-2.926-5.578-13.789-2.49-11.667 4.941-1.554 1.953-5.372 8.174-5.372 8.174-.187-.044.166-1.847.145-1.722 1.285-2.677 3.525-7.3 3.525-7.3-1.722-10.856 13.913-11.667 14.974-3.712.041.022.062.022.083.043.811.146.83.019 1.373.312-.687-3.257-2.222-5.048-4.068-5.977-3.363-1.679-4.336-4.667.748-4.293 5.166.353 14.288 1.828 25.144 7.113l2.283 1.241c-4.585 2.889-9.42 3.363-12.727 3.613-2.57.166-6.676-.52-9.67-1.123.186.062.373.101.56.166 12.415 4.105 20.09 1.534 26.266-2.409-.374-.25-.83-.583-1.267-.892-5.496-3.962-18.405-8.735-29.822-9.858-11.668-1.89-18.156 6.302-15.848 12.54l-.642 1.58c-.623 1.51-8.049 16.72-7.238 23.334l.01-.035zm252.683 133.517l-9.172 20.713-2.077-.83c-.478.936-1.373 1.286-2.845 1.43C196.787 350.111-37.18 274.618 18.973 94.933c3.962-12.666 8.86-23.646 13.476-32.506-.394-1.597-.973-4.648-.02-8.734 1.516-5.753 2.801-9.297 7.424-19.466-1.89-6.926 4.586-17.033 20.215-14.038 18.592 2.882 28.325 9.608 30.634 11.355a92.4 92.4 0 0 0 1.865-1.348C125.572 4.43 179.29 2.371 199.255 32.874c7.924-1.616 17.844-.293 17.844-.293 10.357.686 18.655 3.444 25.144 7.737a65.972 65.972 0 0 0-2.265 3.961c-8.36-5.646-20.34-8.672-37.247-7.3l-1.08.144c2.677 5.335 4.417 11.48 5.023 18.53-1.248.208-2.533.436-3.862.643.166-4.736-.314-9.796-2.078-14.724a32.94 32.94 0 0 0-4.149-8.049c.02-.023.02-.023.042-.023-4.05-6.014-9.421-10.544-15.66-13.788-24.957-13.04-63.64-5.416-86.1 11.355-12.977 9.67-20.526 9.359-32.88 5.622-13.663-4.15-13.164 3.78-13.164 3.78-11.48 16.347-22.024 33.754-31.07 66.759-21.65 86.723 27.014 147.242 89.218 167.207 64.263 10.98 114.175-25.206 134.764-60.207-.601-.353-1.142-.793-1.516-1.373-2.053-3.22.56-8.547.749-9.047l4.96-14.287c.767.144 1.516.29 2.283.434l-5.602 15.535c-2.221 5.253.27 7.175.27 7.175-.662-1.947-.126-4.193.248-5.372.724-2.302 3.176-9.047 5.21-14.225.394-1.017.748-1.99 1.08-2.926.6.125 1.203.249 1.827.355-1.74 5.228-4.13 11.355-4.854 13.351-.62 1.704-.91 2.346-1.703 5.085-1.06 3.713.394 3.8 1.971 3.918.893.065 3.57.023 4.274 0 1.616.874 5.085 2.596 7.175 3.632-24.956 42.176-74.869 70.501-140.38 60.83 51.723 12.604 110.433-2.327 145.995-52.72 1.866-3.138 3.463-4.86 6.302-10.481h-1.267c-1.971 2.782-3.962 3.675-6.364 3.712-.124 0-4.835 0-4.236-4.773.187-1.472.811-3.257 1.204-4.087l.02.02 3.507-7.363.936-1.972 3.382-6.8s2.508-5.004 2.658-7.674l9.109-.166s.145 2.776-1.803 7.736c-1.41 3.569-5.647 16.659-7.05 19.279l-.063.125c.459 0 2.24-.042 3.257-.268 1.784-4.542 4.38-12.353 6.364-18.467l.748-.042c.54-.041 1.061-.083 1.579-.125-.02.023-.02.064-.042.106.768-.064 3.9-.334 5.023-.56l.012-.005z"/></g></g><g transform="matrix(1 0 0 -1 63.998 503.135)"><mask id="l" fill="#fff"><use xlink:href="#k"/></mask><path d="M268.28 298.228c-1.553 1.553-2.37 3.263-2.533 5.746 2.471-.496 3.962-3.569 2.533-5.746zm-3.219 8.423c-1.329.848-3.344 3.756-3.032 6.12 3.094-.041 4.005-4.56 3.032-6.12zm6.202-6.302c-.705 3.195-1.722 4.505-3.114 5.89.25 5.603-3.256 9.359-5.77 8.735-.687-.25-2.222-1.286-.687-5.834.54-1.06 1.204-2.346 2.82-3.8 0 0-.208-1.553.228-3.443l.083-.229c.457-1.472.974-2.633 2.053-3.88 2.595-2.989 5.21-1.036 4.38 2.576l.007-.015z" fill="#FFF" fill-rule="nonzero" mask="url(#l)"/></g><g fill-rule="nonzero" fill="#311D00"><path d="M176.926 330.063c-7.887-2.126-13.127-8.884-13.177-16.97-.018-3.245.222-4.393 1.432-6.838 3.45-7.038 11.53-9.633 18.917-6.19 5.34 2.531 9.334 7.737 10.282 13.327.336 2.047.163 2.401-4.602 9.434-4.642 6.838-5.091 7.287-6.938 7.586-2.555.423-3.064.39-5.89-.374l-.024.025z"/><path d="M202.381 391.955c-16.222-2.366-31.844-8.885-45.22-18.917-1.658-1.238-1.748-1.253-3.12-.37-9.384 6.039-24.707 10.73-34.89 10.73-4.207 0-4.926-.153-7.885-1.691-4.548-2.356-6.24-4.827-6.689-9.833-.259-2.87-.938-5.141-2.8-9.484-3.763-8.684-5.14-13.825-4.846-18.218.234-3.529.165-3.788-2.331-8.784-2.795-6.489-6.39-14.974-8.785-21.962-16.77-49.413-12.877-95.333 11.13-131.27 13.028-19.466 30.597-35.089 52.908-46.17 46.419-23.259 102.32-20.913 143.748 5.99 15.823 10.332 30.397 25.406 40.53 41.877 3.378 5.49 4.681 6.688 7.536 6.788.819.032 1.882 1.972 5.29 9.633 2.342 5.29 4.184 9.683 4.099 9.783-.087.089-1.567.002-3.294-.193l-3.135-.354-2.915-8.635c-1.602-4.737-3.17-8.935-3.479-9.284-.307-.371-1.258-.674-2.111-.674-1.273 0-1.482.163-1.173.908 1.408 3.414 8.036 22.71 8.335 24.258l.35 1.862H334.8l-.318-1.687c-.174-.929-2.685-6.589-5.59-12.578-5.89-12.229-6.638-14.874-4.567-16.82.744-.695 1.872-1.114 2.985-1.114 1.921 0 4.991 1.612 5.49 2.87.162.423.794.769 1.398.769 1.058 0 1.038-.12-.574-2.99-6.539-11.68-18.967-26.154-30.098-35.139-29.747-23.958-67.88-33.89-107.312-28.1-3 .435-7.187 1.243-9.333 1.797l-3.899 1.008 2.855-.252c1.573-.14 5.191-.475 8.036-.749 6.888-.659 21.712-.654 28.4.01 12.679 1.258 25.306 4.064 36.088 8.037 11.68 4.307 26.004 12.378 35.787 20.214 4.961 3.978 13.127 12.08 17.769 17.57 3.364 4.022 11.08 14.923 11.08 15.672 0 .764-6.438 3.41-8.435 3.454-3.569.083-4.801.604-4.976 2.096-.086.73 1.377 5.59 3.25 10.831 1.87 5.191 3.403 9.584 3.403 9.683 0 .118-.3.214-.669.214-1.033 0-6.738-15.773-7.037-19.466-.223-2.76-.323-2.98-.959-2.107-1.242 1.697-.788 4.098 2.451 12.978 1.737 4.766 3.035 8.784 2.88 8.934-.898.898-1.967-1.143-4.627-8.835-3.294-9.483-3.663-12.328-1.882-14.225l1.094-1.163-3.654-5.34c-17.47-24.607-43.424-43.374-72.373-51.91-14.475-3.992-30.946-5.79-44.922-4.741-11.979.848-15.473 1.647-23.958 4.991-32.443 12.878-57.4 35.189-71.874 64.887-10.681 21.412-15.173 46.169-12.977 71.375 2.52 29.448 13.726 61.392 30.496 86.848 2.92 4.452 5.291 8.435 5.291 8.884 0 1.038 1.887 2.995 3.459 3.594 2.141.813 4.502.564 10.93-1.158 4.972-1.333 7.188-1.652 11.58-1.682 7.737-.047 11.031 1.312 22.611 9.333 8.635 6.04 22.86 11.88 34.29 14.176 16.222 3.254 30.846 2.655 43.224-1.772 16.92-6.04 26.903-18.418 28.45-35.239l.373-4.073 1.377.347c.76.19 1.463.429 1.563.529.44.44-1.213 8.186-2.61 12.179a1712.77 1712.77 0 0 0-1.803 5.24c-.663 2.057 15.973 1.643 25.007-.618 2.286-.574 6.189-2.042 8.635-3.265l4.497-2.22.853 1.786c.468.983.784 1.847.699 1.922-.839.743-8.186 4.003-10.881 4.841-7.237 2.241-19.815 3.5-26.953 2.7l-4.417-.492-1.547 1.926c-11.031 13.776-27.053 20.465-48.416 20.315-3.963-.03-9.333-.37-11.979-.754l-.08.489zm-73.87-11.13c9.034-1.743 20.264-5.99 24.207-9.185l1.223-.988-3.4-1.657c-4.272-2.082-6.887-2.685-11.679-2.7-3.833-.013-10.83 1.257-11.78 2.13-.304.287.21.317 1.299.075 3.568-.788 12.528-.46 15.672.58 4.627 1.517 4.717 2.076.639 3.927-7.437 3.37-20.065 6.589-24.307 6.19-2.62-.255-2.406-1.638.579-3.789 1.746-1.258 2.855-2.54 3.434-3.983.469-1.173.758-2.226.643-2.34-.524-.525-1.816.538-2.56 2.096-1.433 3-5.79 4.257-9.384 2.725-2.665-1.138-4.038-3.005-4.482-6.14-.219-1.532-.788-3.698-1.268-4.811-1.153-2.68-.798-2.88.804-.45.734 1.113 1.417 3.074 1.582 4.542.226 2.016.64 2.89 1.877 3.998 2.8 2.505 6.538 2.58 9.284.187l1.452-1.278-3.274-.016c-4.717-.024-6.838-1.338-6.838-4.213 0-.544-1.358-2.825-3.02-5.091-1.662-2.241-4.722-6.938-6.788-10.382-2.076-3.474-3.908-6.339-4.063-6.339-.574 0 .416 5.79 1.672 9.783.709 2.251 2.346 6.489 3.634 9.434 1.827 4.177 2.34 5.99 2.34 8.185 0 3.135.76 4.942 2.94 6.988 3.879 3.679 9.634 4.412 19.566 2.496l-.005.025zm206.138-174.196c1.698-1.118 1.203-5.24-1.018-8.535-.669-.988-1.352-2.81-1.517-4.053-.51-3.778-3.953-7.187-5.94-5.94-1.482.949-1.203 5.291.498 7.837.754 1.143 1.538 2.985 1.737 4.088.859 4.741 4.008 8.036 6.24 6.538v.065z"/><path d="M163.45 346.035c-.389.388 6.488 4.572 9.283 5.64 1.522.584 4.173 1.368 5.89 1.742 7.786 1.707 16.67.167 23.259-4.023 1.368-.868 2.41-1.652 2.32-1.742-.09-.09-2.145.634-4.571 1.602-11.43 4.592-21.812 4.153-32.144-1.367-2.111-1.128-3.928-1.957-4.043-1.847l.005-.005zm2.615 5.69a5.02 5.02 0 0 0-1.143.153c-2.281.58-3.724 2.5-4.078 5.44-.27 2.237-.256 2.267.589 1.124.524-.704 1.417-1.173 2.266-1.173.983-.003 1.577-.39 2.001-1.298.52-1.118.475-1.293-.32-1.293-.504 0-1.537.485-2.29 1.079-1.698 1.332-1.788.504-.153-1.393 2.89-3.36 8.785-.047 9.533 5.34.234 1.743.056 2.312-1.123 3.594-1.033 1.123-1.297 1.248-1.018.484.814-2.201.814-4.332.002-5.89-.463-.893-1.083-1.627-1.377-1.627-.295 0-.171.52.274 1.153 1.013 1.443 1.038 2.48.06 2.48-.563 0-.673.449-.448 1.833.217 1.337.047 2.106-.634 2.855-.904.998-.894 1.028.442 1.028.778 0 2.1-.654 3.07-1.518 1.477-1.322 1.696-1.841 1.696-4.062 0-4.443-3.648-8.336-7.337-8.286l-.012-.023zm-2.516 6.589c-.468 0-1.832 1.687-1.812 2.246.01.337.387.145.839-.427.649-.818.878-.883 1.093-.302.15.406.998 1.473 1.886 2.371 1.458 1.478 1.633 1.538 1.792.614.246-1.427-.833-3.24-2.336-3.923-.698-.317-1.357-.579-1.467-.579h.005zM217.854 320.08c-11.68-7.137-13.726-8.784-13.726-10.83 0-.644 1.447-3.435 3.214-6.19l3.215-5.04 1.332 1.237c.734.679 6.24 4.173 12.229 7.786 5.99 3.589 11.58 7.188 12.378 8.036 3.474 3.629 2.391 8.885-2.336 11.33-3.034 1.578-4.272 1.103-16.271-6.289l-.035-.04zm17.07 3.45c2.995-2.995 1.592-7.887-2.755-9.634-1.153-.46-2.426-.838-2.835-.838-.407 0-1.133-.67-1.617-1.488-1.218-2.056-3.639-3.359-6.24-3.359-2.765 0-4.736 1.268-5.74 3.694-1.607 3.848 1.428 8.435 5.59 8.435 1.124 0 2.037.216 2.037.48s.604 1.198 1.343 2.076c2.56 3.04 7.537 3.36 10.232.649l-.015-.016zM192.898 333.058c-.874-.61-1.148-1.218-.994-2.206.228-1.478 10.282-17.22 10.981-17.22.24-.002 1.058.474 1.817 1.058.759.583 1.937 1.472 2.61 1.976l1.233.919-5.54 8.136c-5.24 7.686-5.64 8.135-7.237 8.135-.919 0-2.212-.379-2.87-.843v.045z"/><path d="M222.346 316.587c-.204-.53.028-.78.724-.78 1.332 0 1.322-1.057-.012-1.407-.818-.214-.968-.554-.708-1.642.674-2.83.993-2.98 2.725-1.243.888.889 1.612 2.102 1.612 2.696 0 2.26-3.629 4.247-4.342 2.376h.001zM219.351 315.588c-1.018-1.228-1.352-4.507-.514-5.04 1.887-1.199 2.795.237 1.173 1.856-.724.724-.749 1.033-.172 2.116.774 1.448.438 2.181-.488 1.068h.001zM228.336 320.58c-.764-.909-1.303-1.797-1.198-1.972.105-.178.519-1.083.913-2.011.834-1.947 1.657-2.087 3.968-.674 2.012 1.223 2.88 2.725 2.665 4.597-.146 1.272-.386 1.417-2.56 1.557-2.146.14-2.546-.017-3.788-1.492v-.005z"/><path d="M356.611 388.96c-8.735-.988-19.416-3.928-25.705-7.088-11.63-5.84-21.712-16.371-26.454-27.801l-.813-1.947H310.906l1.283 2.536c2.051 4.048 7.387 10.731 10.93 13.776 8.735 7.387 19.167 11.879 32.244 13.876 5.79.873 19.167.743 25.655-.241 6.689-1.013 14.026-2.74 14.974-3.499 2.091-1.732-.798-31.694-3.728-38.732-.65-1.547-.949-1.737-2.75-1.737-1.114 0-5.391.714-9.484 1.582-13.526 2.865-31.844 5.59-55.403 8.286-15.373 1.747-22.86 1.926-31.994.773-8.735-1.098-90.342-14.524-90.84-14.924-.483-.482 3.498-5.59 4.356-5.59.406 0 20.065 3.205 43.674 7.138l42.925 7.137 10.93.019c5.99.01 13.727-.285 17.12-.654 28.301-3.055 56.901-7.487 66.385-10.232l2.795-.834-.314-2.29c-.438-3.19-6.988-22.86-8.036-24.159-.859-1.043-.869-1.043-6.09-.039-12.977 2.496-44.572 6.838-62.89 8.635-10.132 1.003-28.05 1.128-34.29.244-8.734-1.238-18.068-5.191-24.357-10.232-5.041-4.068-27.003-26.254-27.352-27.552-.442-1.762 1.163-3.963 3.05-4.188 1.173-.14 1.971.46 4.856 3.639 8.086 8.884 21.463 21.961 24.907 24.357 9.982 6.888 18.168 8.635 37.833 8.136 14.824-.41 36.686-2.63 62.391-6.339 17.17-2.48 18.967-2.825 18.967-3.699 0-.402.759-1.093 1.692-1.537 3.604-1.717 5.29.38 10.482 13.177 8.535 21.013 13.376 43.973 13.476 63.888.047 8.485-.06 9.783-.883 11.08-.839 1.279-1.228 1.423-3.639 1.363-1.482-.038-4.961.525-7.736 1.248-9.634 2.52-24.408 3.52-34.74 2.351l-.694.073zM401.033 332.559l-.733-3 7.736-1.912c4.253-1.053 7.836-2.036 7.986-2.186.599-.599-.398-1.882-1.457-1.882-.614 0-4.163.714-7.887 1.593-4.701 1.103-6.937 1.422-7.287 1.048-.298-.299-.441-.634-.317-.749.713-.654 16.57-3.474 17.968-3.204 3.24.609 4.967 5.14 3.02 7.936-1.038 1.482-7.637 3.504-16.421 5.04l-1.892.332-.734-3 .018-.016z"/><path d="M428.984 368.995c-.853-.694-2.196-1.408-2.99-1.582-1.347-.296-1.437-.49-1.442-3.005-.001-2.775-1.827-15.223-3.634-24.757l-1.033-5.44 1.328-1.233c4.467-4.143 2.296-11.43-3.943-13.227-2.176-.629-2.296-.774-2.965-3.499-.383-1.562-1.652-5.84-2.815-9.483-2.096-6.589-2.111-6.689-1.073-7.387 1.627-1.138 2.186-3.344 1.412-5.59-.783-2.282-.403-2.416 1.403-.485 1.922 2.051 2.58 3.574 5.54 12.728 4.837 14.973 8.835 31.594 10.931 45.57 1.243 8.285 1.967 18.717 1.303 18.667-.255-.01-1.158-.589-2.012-1.283l-.01.006zM389.553 299.616c-.554-1.223-1.013-2.485-1.018-2.805-.006-.32 1.098-.734 2.456-.913 1.357-.183 5.39-1.018 8.934-1.862 6.788-1.612 7.787-1.552 8.885.55.718 1.342-.449 3.328-2.201 3.738-.66.154-4.008.888-7.437 1.627a1169.52 1169.52 0 0 0-7.437 1.617c-.999.229-1.348-.082-2.197-1.952h.015zM359.606 295.623c-.452-1.083-.759-2.016-.684-2.076.075-.062 4.043.032 8.835.21 6.937.257 8.585.457 8.285.998-.432.694-6.239 1.877-12.179 2.49l-3.379.347-.823-1.967-.055-.002zM317.18 299.117c-2.65-8.984-6.439-14.924-11.23-17.37-2.955-1.527-8.186-1.816-11.73-.648-3.748 1.243-7.487 4.971-8.135 8.036l-.439 2.216-8.934-19.666-8.934-19.665 1.891-1.962c1.038-1.078 3.694-3.294 5.89-4.921 2.206-1.627 3.928-3.045 3.828-3.14-.424-.424-4.642 2.186-8.335 5.141-3.115 2.506-4.093 3.055-4.442 2.486-1.493-2.411 13.726-11.83 23.409-14.475 2.14-.584 6.838-1.512 10.381-2.061 8.236-1.268 10.782-2.246 11.73-4.537.395-.949.719-2.311.719-3.035 0-.824.292-1.318.778-1.318 1.153 0 .999 3.53-.241 5.54-1.433 2.347-4.413 3.684-10.432 4.667-2.855.469-5.19 1.079-5.19 1.358 0 .684 6.687.088 10.63-.948 5.94-1.563 8.086-3.888 8.086-8.785 0-1.822.19-2.356.844-2.356.709 0 .803.498.614 3.125-.357 4.926-3.145 7.736-8.785 8.934-5.44 1.123-3.33 1.557 5.39 1.113 19.966-1.018 28.401.224 24.258 3.564l-1.248 1.003 1.298-.352c2.47-.669 5.191-2.5 6.439-4.352 1.936-2.845 2.515-5.59 2.31-10.881l-.184-4.812 3.379.43c5.99.758 8.086.579 9.583-.819 1.068-1.003 1.338-1.747 1.338-3.688 0-3.35-1.408-4.787-5.54-5.64l-3.175-.674-3.41-7.587a4575.576 4575.576 0 0 1-4.726-10.582l-1.318-2.98 2.047-1.043c1.128-.574 2.26-1.043 2.525-1.043.263 0 3.939 6.24 8.186 13.876 6.788 12.229 7.687 14.175 7.737 16.321.03 2.047-.224 2.736-1.498 4.063-2.061 2.151-5.041 2.94-8.036 2.142-2.041-.54-2.465-.494-3.638.378-1.188.884-1.358 1.453-1.633 5.44-.242 3.495-.598 4.932-1.677 6.789-2.286 3.903-5.49 6.09-10.132 6.838-1.183.2-2.146.52-2.136.709.01.189 5.091 12.378 11.33 27.102 9.334 22.062 11.18 26.803 10.482 27.053-.452.174-1.912.435-3.24.579l-2.42.264-9.983-23.458c-5.49-12.878-10.531-24.707-11.23-26.304l-1.263-2.855-1.512 1.816c-2.232 2.686-4.937 8.086-6.14 12.229-1.896 6.588-2.016 5.89 1.912 10.98 5.141 6.64 10.232 11.131 18.168 16.023 3.17 1.956 3.454 2.296 4.802 5.69.788 2.001 1.337 3.738 1.223 3.858-.117.122-2.656-.993-5.64-2.48-6.539-3.245-11.98-7.238-18.019-13.277-2.47-2.461-4.627-4.473-4.802-4.473-.918 0 .714 14.675 2.356 21.213.6 2.371 1.004 4.383.894 4.472-.107.09-1.028.293-2.052.45l-1.856.286-1.168-3.963.046-.034zm-.774-16.57c-.713-2.417-.878-8.736-.346-13.477.973-8.735 2.964-14.675 6.388-19.017 1.613-2.051 1.288-2.43-1.048-1.218-4.732 2.46-8.435 12.229-8.435 22.261 0 5.74 1.697 12.329 3.17 12.329.294 0 .415-.41.267-.909l.004.03zM273.756 303.11c-4.916-1.303-6.14-1.802-10.482-4.262l-3.713-2.112-.584-3.928c-.983-6.638-1.233-14.175-.609-18.567.744-5.241 2.146-10.332 2.7-9.783.378.378 16.571 35.637 17.67 38.482.563 1.458.021 1.473-4.977.149l-.005.021zM282.74 304.108c-1.128-.848-30.097-64.387-30.097-65.884-.016-1.538 2.286-3.664 3.958-3.664.789 0 1.413.482 1.852 1.428.366.783 7.337 16.121 15.423 34.14 8.136 17.968 15.024 33.092 15.273 33.641.468.873.258.953-2.525.953-1.673 0-3.424-.292-3.904-.649l.02.035zM269.264 336.053c-2.975-.52-3.095-.63-3.494-3.17-.19-1.213-1.887-6.838-3.768-12.478-1.882-5.64-3.3-10.382-3.15-10.532.954-.953 2.121 1.398 5.091 10.282 3.085 9.184 4.627 12.978 3.938 9.733-.713-3.359-3.918-16.47-4.217-17.22-.293-.753.174-.703 3.623.392 4.582 1.457 11.88 2.815 15.124 2.815 1.233 0 2.37.212 2.53.473.919 1.487-5.84 12.378-10.182 16.42-1.522 1.413-2.88 2.816-3.024 3.12-.168.355-1.054.414-2.476.165h.005zM202.88 383.969c-5.69-.496-14.125-2.446-20.065-4.657-8.036-2.98-20.713-9.084-20.115-9.683.113-.113 2.436.853 5.141 2.146 25.955 12.278 50.412 13.976 69.379 4.707 8.186-4.008 13.926-9.134 18.168-16.172 1.922-3.194 4.422-10.232 4.422-12.478 0-1.008.268-1.273 1.298-1.273 1.108 0 1.298.239 1.298 1.612 0 4.063-2.75 11.23-6.24 16.372-9.582 13.925-30.146 21.412-53.406 19.416l.12.01zM226.34 353.023c-.715-.48-1.393-.949-1.508-1.043-.466-.37 1.732-2.256 2.63-2.256 1.822 0 4.163 3.419 2.386 3.488-.357.014-1.003.173-1.433.354-.43.18-1.367-.065-2.076-.544z"/><path d="M222.845 351.026c-.45-.728.554-4.063 1.378-4.572.37-.228.449-.037.226.544-.303.789-.082.859 1.862.574 1.547-.227 2.51-.096 3.229.438.938.699.819.739-1.423.485-2.61-.294-3.823.28-4.512 2.136-.259.7-.494.824-.758.398l-.002-.003z"/><path d="M221.847 352.025c-.948-1.832-1.038-3.584-.284-5.59.784-2.067 1.089-1.273.39 1.008-.514 1.667-.459 2.22.36 3.743.53.983.824 1.922.654 2.091-.167.168-.673-.406-1.123-1.277l.003.025zM231.33 353.522c.148-1.103 0-2.506-.327-3.12-.39-.728-.41-1.113-.058-1.113.296 0 .544-.524.554-1.168.014-1.078.059-1.093.569-.218.304.524.47 1.987.37 3.25-.195 2.445.226 2.934 1.103 1.292.704-1.312.689-4.497-.024-5.84-.309-.578-.429-1.182-.266-1.342.634-.634 1.946 3.698 1.627 5.39-.314 1.673-2.54 4.867-3.394 4.867-.233 0-.303-.903-.156-2.002l.002.004zM292.723 329.065l-5.59-12.229c-.117-.227 1.472-.344 3.533-.26l3.744.154 3.873 8.336c2.131 4.572 4.657 10.032 5.64 12.079l1.747 3.768h-7.557l-5.39-11.83v-.018zM319.177 339.047c0-.192.367-2.31.818-4.706.58-3.075.769-6.639.649-12.08l-.167-7.736 1.493-.298c2.805-.559 2.925-.466 2.925 2.276 0 2.49.053 2.586 1.687 2.89.928.174 8.684 1.527 17.22 3.01l15.522 2.695 1.248 3.075c.689 1.692 1.128 3.194.983 3.339-.145.145-8.135-1.068-17.769-2.7-9.633-1.632-17.768-2.96-18.118-2.95-.343.01-.694 1.637-.868 4.043-.161 2.216-.564 5.24-.899 6.738-.604 2.725-.604 2.725-2.64 2.725-1.118 0-2.037-.157-2.037-.35l-.047.03zM314.185 353.522l-.868-1.822 2.306-.183c1.268-.1 2.306-.056 2.306.1 0 .155-.65 1.058-1.438 2.006l-1.437 1.722-.869-1.822v-.001zM365.096 332.06c-.314-.784-2.475-5.99-4.801-11.53-4.303-10.282-4.428-10.931-2.062-10.931.464-.005 1.543-.147 2.391-.318 1.542-.308 1.552-.295 3.798 5.341 1.238 3.1 3.49 8.335 4.992 11.63l2.75 5.99-2.975.628c-1.637.345-3.1.639-3.25.649-.151.012-.533-.619-.848-1.408l.005-.051zM373.581 329.065c-.584-1.323-1.063-2.49-1.063-2.596 0-.106 3.274-.193 7.287-.193 7.587 0 8.136.184 6.639 2.23-.53.71-9.134 2.966-11.33 2.966-.241 0-.919-1.084-1.503-2.406l-.03-.001zM390.552 364.503c-4.797-2.915-11.93-9.633-16.072-15.224-1.847-2.465-3.265-4.577-3.15-4.691.118-.118 1.687-.52 3.49-.899 2.804-.584 3.333-.574 3.693.061 1.672 2.985 9.683 10.98 14.574 14.525 1.378 1.003 1.438 1.222 1.288 4.736l-.155 3.689-3.639-2.211-.03.014zM406.524 380.475c.177-1.807.467-3.424.644-3.599.177-.176 1.492-.599 2.92-.948 3.893-.939 7.037-2.456 7.037-3.41 0-1.107-2.845-2.245-6.588-2.64l-3.025-.316 2.206 1.143c2.635 1.362 2.905 2.296.52 1.812-3.48-.7-3.405-.62-3.614-4.048-.108-1.777-.148-3.304-.09-3.4.058-.094.619.104 1.247.44.63.337 3.954 1.173 7.388 1.857 3.434.684 6.588 1.508 6.937 1.832 2.516 2.086-1.362 4.936-9.932 7.287l-3.664 1.003 2.78-.298c1.528-.164 4.687-.898 7.038-1.632 3.284-1.033 4.657-1.777 6.14-3.314l1.891-1.982 1.158 1.233c.639.679 1.158 1.837 1.158 2.58 0 2.87-2.865 4.398-13.726 7.288a870.776 870.776 0 0 0-7.836 2.126c-.814.239-.874-.06-.584-3.015h-.005zM260.779 235.229l-1.612-3.09 3.688-1.811c10.132-4.977 28.55-10.382 49.913-14.625 11.48-2.286 13.077-2.37 14.375-.803 2.41 2.974.823 3.898-10.831 6.289-14.375 2.97-27.552 6.338-36.337 9.333-8.036 2.735-15.922 6.14-16.52 7.188-.635 1.028-1.044.649-2.691-2.511l.015.03zM317.18 203.784c-2.985-8.735-3.294-10.93-1.677-11.78.973-.518 1.038-.395 1.038 2.022 0 1.777.799 4.802 2.57 9.733 2.436 6.788 2.586 7.936 1.054 7.986-.15.005-1.493-3.574-2.99-7.936l.005-.025z"/><path d="M325.166 224.248c-1.662-.664-1.223-1.502 1.233-2.34 2.77-.949 3.878-2.426 3.878-5.192 0-2.984-1.897-5.29-4.692-5.74-1.138-.182-2.14-.683-2.33-1.168-1.508-3.853-4.867-14.275-5.142-16.021-.308-1.827-.187-2.346.764-3.3l1.128-1.128 1.163 3.3c.639 1.811 3.04 7.387 5.34 12.378 5.84 12.777 6.09 13.676 4.538 16.67-.634 1.229-3.604 3.22-4.497 3.02-.081-.018-.694-.251-1.358-.519l-.025.04zM332.653 223.25c.834-1.143 1.318-1.283 4.472-1.298 2.446-.011 3.43.16 3.185.554-.62 1.004-3.754 2.027-6.19 2.027h-2.38l.933-1.283h-.02zM350.622 218.758c-2.776-.33-5.141-.704-5.241-.834-.438-.509-1.423-5.29-1.148-5.59.161-.162 3.389.103 7.187.589 5.69.729 7.038 1.068 7.787 1.972 1.167 1.402 1.152 2.67-.041 3.753-1.059.953-1.348.958-8.535.11h-.01zM331.156 202.287c-.476-.999-.7-1.977-.499-2.177.539-.539 1.777.919 2.181 2.561.51 2.076-.634 1.812-1.682-.383v-.001zM327.662 194.8c-1.228-1.972-1.523-3.574-.664-3.574.918 0 2.171 2.5 1.996 3.993l-.167 1.462-1.168-1.881h.003zM233.327 270.667l-2.536-2.595 1.193-2.077c2.815-4.901 13.626-21.612 15.773-24.357l2.31-2.98.64 1.977c.35 1.088 1.068 2.83 1.592 3.873l.953 1.896-1.897 2.481c-1.043 1.368-4.916 7.387-8.635 13.427-3.693 6.039-6.738 10.93-6.788 10.93-.04 0-1.213-1.167-2.605-2.595v.02zM217.854 296.122c-2.665-1.866-2.566-2.316 2.276-10.232 2.486-4.068 4.542-7.437 4.567-7.437.027-.035 1.178 1.193 2.56 2.726l2.516 2.79-4.073 6.488c-3.454 5.49-4.272 6.489-5.39 6.489-.724.005-1.832-.353-2.466-.799l.01-.025zM239.316 314.59c-1.287-1.942-2.435-2.715-14.524-9.833-5.44-3.204-10.382-6.289-11.03-6.888-.715-.649-1.169-1.667-1.169-2.605v-1.547l1.183 1.752c1.562 2.315 4.308 4.117 6.29 4.117 1.152 0 3.797 1.463 9.582 5.291 8.086 5.39 10.232 7.287 10.831 9.583.468 1.862.055 1.917-1.118.156l-.045-.026zM242.311 313.093c-.694-2.191-3.23-4.418-10.781-9.484-4.248-2.84-7.587-5.39-7.437-5.64.44-.714 12.628 7.238 16.222 10.582 1.577 1.467 3.164 4.761 2.575 5.34-.145.146-.418-.222-.609-.818l.03.02zM259.281 332.559c-.182-1.073-.893-4.238-1.582-7.038-2.236-9.084-1.183-7.986 1.602 1.702 2.077 7.237 2.087 7.287 1.064 7.287-.469 0-.884-.743-1.089-1.946l.005-.005zM254.79 292.629c-.655-.487-.989-2.057-1.368-6.44-.55-6.338-.116-12.527 1.233-17.718.978-3.774 3.359-9.484 3.958-9.484 1.003 0 .983 2.167-.04 4.168-2.86 5.59-4.247 16.571-3.18 25.156.317 2.55.505 4.712.416 4.802-.089.088-.55-.13-1.024-.484h.004zM222.346 346.035c-.082-.709.004-.893.769-1.662 1.447-1.448 2.62-1.897 4.961-1.897 1.657 0 2.171.083 2.975.478 1.218.6 2.715 1.927 2.35 2.082-.144.06-.263.292-.263.514 0 .329-.148.255-.798-.393-1.128-1.128-2.217-1.598-3.944-1.687-2.4-.13-4.437.878-5.59 2.765l-.364.594-.093-.794h-.003z"/><path d="M231.33 347.532c-.044-.47-1.722-1.507-2.675-1.647-1.228-.184-2.196.016-3.125.644-.573.39-.758.44-.758.205 0-.17-.113-.31-.252-.31-.574 0 1.213-1.038 2.186-1.272 1.353-.325 2.746-.13 3.894.544.868.509 1.587 1.362 1.148 1.362-.112 0-.246.166-.3.37-.052.202-.107.25-.12.106l.002-.002zM226.34 355.518c-.239-.102-.735-.534-1.109-.953-.569-.649-.674-.933-.674-1.852 0-1.003.025-1.053.31-.678.17.225.312.673.316 1.003.014 1.268.983 2.041 2.565 2.041.789 0 .998-.112 1.802-.978.5-.54.908-.859.908-.719 0 .424-.629 1.348-1.208 1.782-.598.446-2.24.644-2.914.355h.003z"/><path d="M225.84 357.016c-.784-.366-1.323-.904-2.595-2.56-.419-.545-.439-.64-.136-.64.237 0 .312-.11.226-.334-.07-.184-.184-.684-.253-1.113-.108-.679-.07-.779.29-.779.357 0 .401.11.312.774-.205 1.532.954 3.509 2.411 4.123 1.622.679 3.853.044 4.812-1.368l.519-.764v.574c0 .317.11.574.243.574.135 0-.35.4-1.078.889-1.133.764-1.502.898-2.615.953-.939.05-1.528-.04-2.137-.327l.001-.002zM230.332 349.529c-.406-.331-.43-.406-.136-.406.235 0 .32-.11.24-.316-.066-.174-.026-.316.09-.316.278 0 .459.497.373 1.023-.069.417-.075.417-.57.016l.003-.001zM167.442 360.01c-.863-1.297-2.101-2.126-3.504-2.33-.698-.102-.893-.176-.497-.192.35-.014.838-.168 1.088-.34.408-.286.534-.272 1.317.148.874.467 2.227 1.682 2.531 2.276.089.174.056.56-.072.854l-.234.539-.634-.953.005-.001zM167.442 356.517c-.504-.385-1.093-.7-1.318-.7-.272 0-.405-.146-.405-.447 0-.39.086-.43.669-.314.869.174 2.605 1.193 2.33 1.368-.116.074-.246.283-.289.465-.06.264-.262.19-.988-.369l.001-.003zM228.336 323.574c-1.842-.574-3.43-2.12-4.013-3.913l-.244-.748h-1.737c-2.047 0-2.885-.306-4.238-1.552-1.023-.944-1.622-2.286-1.592-3.574.017-.719.03-.704.278.3.48 1.942 1.373 3.13 2.97 3.959.988.509 4.123.758 5.141.406.609-.212.629-.196.769.544.458 2.445 2.386 4.048 5.29 4.397.994.12 1.143.181.72.301-.844.242-2.352.188-3.335-.12h-.01zM255.788 318.084c-1.483-5.24-1.458-5.44.177-1.418.689 1.687.978 2.646.833 2.736-.14.087-.172.471-.085 1.018.077.483.105.878.06.878-.043 0-.486-1.447-.982-3.214h-.003zM163.45 369.494c-.5-.218-.76-.243-.86-.084-.088.144-1.187-.383-2.97-1.428-3.313-1.941-8.983-4.906-11.629-6.04-1.013-.445-1.802-.848-1.752-.893.21-.209 5.99 2.261 10.133 4.333 3.144 1.572 7.686 4.018 7.986 4.292.29.27-.076.206-.919-.16l.01-.02zM160.954 344.538c-.959-.919-1.702-1.707-1.653-1.757.05-.05.634.352 1.298.893a35.442 35.442 0 0 0 2.336 1.732c.619.412 1.128.779 1.128.819 0 .037-.308.047-.684.023-.539-.035-1.058-.4-2.425-1.712v.002zM105.7 360.01c-1.322-2.874-1.213-3.458.21-1.142.655 1.063 1.004 1.826.874 1.906-.127.08-.158.408-.073.794.08.362.113.659.075.659-.038-.001-.529-.999-1.088-2.216h.002z"/></g></g></svg>