<svg width="512" height="512" viewBox="0 0 512 512" xmlns="http://www.w3.org/2000/svg"><title>cleveland-browns</title><g fill="none" fill-rule="evenodd"><path d="M87.769 344.635c-1.489 8.464.482 17.595 4.117 24.339 2.169 4.023 3.75 7.573 3.832 11.595.47 22.892 49.63 4.674 52.78-2.97" fill="#FFF"/><path d="M86.675 344.442a35.08 35.08 0 0 0-.517 6.068c.003 6.843 1.859 13.62 4.75 18.991 2.154 3.991 3.626 7.362 3.7 11.091.045 2.202.516 4.112 1.37 5.716 1.28 2.413 3.403 4.075 5.956 5.087 2.557 1.019 5.558 1.434 8.79 1.436 7.665-.006 16.687-2.349 24.123-5.304 3.716-1.48 7.03-3.114 9.582-4.716 1.276-.802 2.362-1.596 3.224-2.378.858-.788 1.508-1.548 1.872-2.41l-2.054-.847c-.14.36-.585.958-1.312 1.613-1.268 1.156-3.35 2.516-5.929 3.856-7.744 4.044-20.03 7.978-29.506 7.963-4.057.006-7.566-.723-9.968-2.304-1.204-.792-2.148-1.782-2.818-3.04-.667-1.258-1.068-2.8-1.108-4.718-.092-4.313-1.783-8.043-3.965-12.1-2.716-5.032-4.49-11.499-4.486-17.936 0-1.91.156-3.816.484-5.682l-2.188-.386" fill="#000"/><path d="M340.8 183.464c1.632 3.1-8.62 2.565-16.879 2.03-3.773-.247-7.127-.491-8.744-.39-2.558.162-8.35.756-4.668 9.708 3.047 7.412 3.384 10.985 5.668 16.038 6.181 13.684 1.318 19.31-7.437 20.181-45.733 4.524-64.146 35.66-45.214 86.28 38.574 102.879-80.489 84.164-104.93 61.977-9.451-8.58-20.799-12.98-33.86-8.19-9.749 3.578-14.378 1.525-18.045-4.465C-33.721 137.389 263.2 36.08 340.799 183.464" fill="#FB4F14"/><path d="M340.8 183.464l-1.966 1.037.804-.425h-.886c0 .266.076.414.082.425l.804-.425h-.886 1.337l-1.119-.737c-.123.176-.225.49-.218.737h1.337l-1.119-.737.732.482-.51-.725a.899.899 0 0 0-.222.243l.732.482-.51-.725.081.116-.074-.122-.007.006.081.116-.074-.122c-.003.007-.192.101-.506.181-.472.127-1.21.24-2.098.309-.89.07-1.934.103-3.065.102-2.874 0-6.306-.202-9.466-.407-3.17-.204-6.04-.414-7.988-.416-.372 0-.716.007-1.042.028h.003c-.52.033-1.226.085-2.014.23-1.173.226-2.593.648-3.844 1.743a5.95 5.95 0 0 0-1.531 2.125c-.369.858-.551 1.834-.551 2.885.003 1.677.44 3.55 1.358 5.787 1.487 3.618 2.3 6.261 3.05 8.709.748 2.443 1.44 4.728 2.647 7.4 1.844 4.07 2.587 7.276 2.582 9.618-.001 1.3-.218 2.33-.572 3.168-.538 1.248-1.37 2.137-2.633 2.862-1.258.716-2.965 1.205-5.008 1.405-17.19 1.701-30.85 7.113-40.251 16.1-4.696 4.488-8.3 9.864-10.707 16.01-2.41 6.147-3.629 13.058-3.628 20.646 0 10.821 2.467 23.025 7.511 36.515 5.237 13.963 7.488 25.56 7.486 35.064-.001 7.91-1.547 14.363-4.21 19.635a32.992 32.992 0 0 1-7.788 10.02c-4.73 4.14-10.654 7.06-17.306 8.943-6.65 1.881-14.014 2.717-21.533 2.716-11.835.002-24.049-2.068-34.46-5.234-5.206-1.583-9.96-3.44-13.983-5.427-4.023-1.985-7.311-4.116-9.563-6.164-3.526-3.2-7.344-5.878-11.469-7.766-4.12-1.887-8.557-2.974-13.236-2.972-3.679-.001-7.5.671-11.414 2.109-3.105 1.141-5.556 1.63-7.454 1.626-1.898-.01-3.233-.438-4.46-1.245-1.22-.812-2.355-2.096-3.472-3.923-26.052-42.537-36.86-80.478-36.858-113.075.001-21.476 4.684-40.649 12.832-57.371 12.226-25.08 32.286-44.668 56.192-58.003 23.901-13.334 51.636-20.388 79.064-20.385 23.895-.002 47.547 5.348 68.257 16.496 20.712 11.151 38.498 28.077 50.763 51.367l3.93-2.072c-12.674-24.08-31.156-41.679-52.59-53.21-21.433-11.534-45.806-17.025-70.36-17.026-37.58.007-75.627 12.848-104.385 36.808-14.373 11.98-26.417 26.752-34.863 44.077-8.446 17.323-13.284 37.196-13.282 59.319 0 33.592 11.135 72.333 37.514 115.397 1.322 2.159 2.84 3.99 4.793 5.296 1.947 1.31 4.303 2.003 6.925 1.993 2.643-.002 5.567-.647 8.984-1.898 3.462-1.27 6.744-1.836 9.884-1.837 3.992.001 7.768.916 11.39 2.57 3.618 1.655 7.073 4.059 10.329 7.015 2.698 2.445 6.298 4.737 10.581 6.856 6.424 3.174 14.39 5.94 23.072 7.93 8.683 1.987 18.077 3.192 27.339 3.192 6.974 0 13.875-.684 20.338-2.253 9.687-2.352 18.441-6.718 24.79-13.84 3.173-3.555 5.725-7.79 7.468-12.73 1.744-4.936 2.683-10.569 2.681-16.934 0-10.205-2.397-22.298-7.767-36.622-4.905-13.11-7.23-24.816-7.23-34.957 0-7.116 1.14-13.459 3.323-19.024 3.28-8.345 8.874-14.984 16.766-19.932 7.887-4.942 18.106-8.152 30.495-9.377 3.298-.333 6.308-1.278 8.606-3.26a10.046 10.046 0 0 0 2.685-3.696c.619-1.458.926-3.106.925-4.902-.006-3.252-.97-7.002-2.975-11.449-1.075-2.38-1.695-4.41-2.448-6.87-.751-2.455-1.63-5.305-3.189-9.098-.775-1.876-1.03-3.232-1.025-4.097.004-.732.152-1.1.304-1.352.119-.19.26-.334.47-.479.31-.215.792-.401 1.342-.516.548-.119 1.14-.169 1.662-.202h.004c.188-.012.448-.02.756-.02 1.644 0 4.53.2 7.7.408 3.184.205 6.68.416 9.754.417 2.187-.005 4.136-.096 5.758-.431.816-.18 1.564-.395 2.317-.87.373-.24.76-.567 1.076-1.042.315-.47.519-1.105.512-1.707a3.538 3.538 0 0 0-.429-1.647l-1.965 1.035" fill="#000"/><path d="M315.43 185.154l13.624.216c-23.304-44.392-71.363-74.244-137.805-67.545 55.596-.572 100.156 25.086 124.18 67.33v-.001" fill="#22150C"/><path d="M344.373 186.892c1.447-.79 12.365-5.264 12.365-5.264l14.34 26.584c9.43 17.486-12.35 19.51-15.785 9.74l-10.919-31.06h-.001" fill="#7F8180"/><path d="M344.373 186.892l.532.976c.123-.07.448-.225.872-.417 1.502-.68 4.359-1.885 6.826-2.912 1.234-.513 2.373-.985 3.204-1.327l1.35-.556-.42-1.028-.976.527 14.34 26.584c1.594 2.955 2.217 5.379 2.215 7.271-.012 2.342-.891 3.898-2.253 4.998-1.366 1.091-3.294 1.665-5.305 1.664-1.806.001-3.659-.463-5.17-1.337-1.515-.877-2.676-2.131-3.248-3.753l-11.18-31.802h-.787v1.112l.532.976-.532-.976v1.11h.001v-1.11l-1.047.368 10.919 31.06c.768 2.193 2.345 3.855 4.233 4.94 1.89 1.089 4.1 1.632 6.28 1.634 2.417-.002 4.825-.672 6.686-2.147 1.865-1.465 3.106-3.796 3.094-6.737-.003-2.38-.767-5.141-2.482-8.325l-14.815-27.465-.925.38c-.001 0-2.733 1.12-5.647 2.338-1.458.61-2.961 1.245-4.195 1.779-.617.266-1.168.508-1.613.71-.45.204-.783.36-1.02.49l.53 2.085v-1.11" fill="#000"/><path d="M326.219 295.6c-4.201-16.064-6.902-45.721 16.576-53.697 12.133-4.122 17.507-9.145 11.576-26.321l-9.92-28.736-28.23-1.798c-5.615-.356-7.63 3.347-5.79 8.425l8.684 23.951c2.897 7.996-2.621 13.26-8.684 13.95-55.004 6.26-61.612 43.26-46.614 85.28 8.223 22.968 10.79 41.77 2.368 58.172 31.698 3.352 79.634-4.468 60.034-79.227z" fill="#000"/><path d="M266.185 374.826l-.117 1.103c3.721.395 7.664.636 11.702.636 12.537-.004 26.011-2.312 36.456-9.748 5.216-3.717 9.656-8.727 12.767-15.315 3.113-6.586 4.902-14.732 4.9-24.73 0-8.925-1.421-19.329-4.6-31.454-1.478-5.647-2.767-13.017-2.766-20.467-.002-6.734 1.055-13.523 3.904-19.186 2.856-5.662 7.435-10.225 14.721-12.71 4.437-1.512 8.074-3.15 10.688-5.588 1.303-1.22 2.334-2.648 3.026-4.317.69-1.67 1.039-3.568 1.039-5.725-.002-3.322-.813-7.263-2.484-12.107l-10.162-29.433-28.969-1.846a12.716 12.716 0 0 0-.8-.026c-2.08-.003-3.816.559-5.032 1.682-1.22 1.12-1.807 2.738-1.799 4.488 0 1.185.25 2.448.728 3.768l8.684 23.952c.507 1.402.727 2.684.727 3.846-.005 2.49-.99 4.461-2.548 5.944-1.556 1.478-3.708 2.425-5.943 2.678-19.588 2.226-33.252 8.344-42.02 17.33-8.773 8.985-12.533 20.77-12.526 33.988.002 10.995 2.577 23.014 7.01 35.438 4.687 13.087 7.498 24.756 7.496 35.307-.001 7.882-1.557 15.138-5.07 21.984l-.74 1.441 1.611.17.117-1.103.989.506c3.688-7.178 5.317-14.825 5.314-22.998-.002-10.949-2.898-22.844-7.625-36.055-4.375-12.252-6.88-24.043-6.88-34.69.006-12.817 3.6-23.928 11.894-32.437 8.298-8.506 21.414-14.48 40.68-16.674 2.682-.307 5.268-1.424 7.22-3.271 1.953-1.839 3.248-4.452 3.243-7.558 0-1.444-.275-2.986-.861-4.604l-8.683-23.952c-.408-1.124-.597-2.144-.597-3.01.008-1.295.391-2.207 1.085-2.855.699-.645 1.824-1.09 3.526-1.093.211 0 .43.008.66.023l27.492 1.75 9.68 28.036c1.624 4.7 2.363 8.428 2.36 11.38 0 1.922-.305 3.512-.87 4.876-.846 2.038-2.279 3.618-4.354 5.008-2.07 1.385-4.778 2.544-8.02 3.644-7.828 2.647-12.938 7.712-15.993 13.816-3.062 6.105-4.138 13.223-4.14 20.183.002 7.705 1.323 15.231 2.84 21.03 3.14 11.982 4.527 22.203 4.527 30.89 0 9.737-1.737 17.541-4.687 23.782-4.428 9.355-11.578 15.257-19.977 18.883-8.395 3.62-18.035 4.908-27.238 4.907-3.949 0-7.817-.237-11.468-.623l-.117 1.106.989.506-.99-.506" fill="#000"/><path d="M326.483 184.049l13.529.02c-20.867-43.836-78.189-79.213-147.567-66.363 61.202-5.862 114.478 21.869 134.038 66.343M342.795 241.903c12.133-4.122 17.507-9.144 11.576-26.32l-9.92-28.736-28.23-1.797c-5.615-.357-7.63 3.345-5.79 8.423l8.684 23.952c2.897 7.997-2.621 13.26-8.684 13.95-4.65.529-8.951 1.278-12.925 2.23 9.298 5.226 62.576-4.357 45.29 8.298" fill="#FFF"/><path d="M342.795 241.903l.357 1.052c4.437-1.512 8.074-3.149 10.688-5.588 1.303-1.22 2.334-2.646 3.026-4.316.69-1.67 1.039-3.568 1.039-5.725-.002-3.321-.813-7.262-2.484-12.107l-10.162-29.433-28.969-1.846c-.272-.017-.54-.026-.801-.026-2.08-.002-3.815.56-5.031 1.682-1.22 1.12-1.807 2.737-1.799 4.487 0 1.185.25 2.448.728 3.768l8.684 23.953c.507 1.402.727 2.684.727 3.845-.005 2.49-.99 4.461-2.548 5.946-1.556 1.476-3.708 2.423-5.945 2.677-4.689.532-9.035 1.289-13.058 2.253l-2.757.66 2.472 1.39c1.493.824 3.563 1.238 6.115 1.512 2.546.266 5.558.354 8.8.354 6.746-.002 14.492-.381 20.888-.38 3.798-.002 7.128.137 9.404.544 1.134.198 2.003.477 2.473.753.236.135.365.26.416.333l.052.147a.847.847 0 0 1-.097.343c-.121.268-.402.672-.877 1.152-.474.483-1.137 1.044-1.997 1.674l1.013 1.948-.357-1.052.656.896c1.237-.907 2.155-1.717 2.806-2.5.325-.392.584-.78.772-1.185.187-.402.303-.83.304-1.276a2.47 2.47 0 0 0-.476-1.451c-.53-.71-1.283-1.11-2.16-1.43-1.322-.466-3.02-.73-5.046-.896-2.022-.165-4.357-.223-6.886-.223-6.476 0-14.22.38-20.888.38-3.2 0-6.152-.088-8.57-.341-2.411-.244-4.306-.692-5.258-1.241l-.543.97.259 1.08c3.926-.94 8.184-1.683 12.792-2.207 2.682-.308 5.268-1.425 7.22-3.272 1.953-1.839 3.248-4.452 3.243-7.558 0-1.444-.275-2.985-.861-4.602l-8.683-23.954c-.408-1.124-.597-2.144-.597-3.01.008-1.295.391-2.206 1.085-2.855.699-.644 1.823-1.089 3.525-1.092.212 0 .432.008.66.023l27.493 1.75 9.68 28.036c1.624 4.7 2.363 8.428 2.36 11.38 0 1.922-.305 3.512-.87 4.875-.846 2.04-2.278 3.618-4.354 5.008-2.07 1.385-4.778 2.544-8.02 3.644l.357 1.05.656.897-.656-.896" fill="#000"/><path d="M342.795 241.903c12.133-4.122 17.507-9.144 11.576-26.32l-9.92-28.736-24.71-1.573c-5.615-.357-7.63 3.346-5.789 8.423l8.683 23.951c2.898 7.998-2.434 15.68-8.496 16.372-4.649.529-12.845.68-16.633-.414 9.298 5.225 62.576-4.358 45.29 8.297" fill="#FFF"/><path d="M342.795 241.903l.357 1.052c4.437-1.512 8.074-3.149 10.688-5.588 1.303-1.22 2.334-2.646 3.026-4.316.69-1.67 1.039-3.568 1.039-5.725-.002-3.321-.813-7.262-2.484-12.107l-10.162-29.433-25.448-1.622a12.78 12.78 0 0 0-.801-.026c-2.08-.002-3.815.56-5.033 1.682-1.218 1.12-1.806 2.737-1.798 4.488 0 1.184.252 2.447.728 3.767l8.684 23.952c.515 1.424.746 2.825.746 4.17a11.637 11.637 0 0 1-2.573 7.31c-1.56 1.928-3.652 3.173-5.752 3.409-2.076.237-4.926.399-7.74.398-1.66 0-3.313-.056-4.783-.183-1.469-.126-2.765-.33-3.675-.594l-.852 2.037c1.493.825 3.563 1.239 6.115 1.513 2.546.266 5.558.354 8.8.354 6.746-.002 14.492-.381 20.888-.38 3.798-.002 7.128.137 9.404.544 1.134.198 2.003.477 2.473.753.236.135.365.26.416.333l.052.147a.847.847 0 0 1-.097.343c-.121.268-.402.672-.877 1.152-.474.483-1.137 1.044-1.997 1.674l1.013 1.948-.357-1.052.656.896c1.237-.907 2.155-1.717 2.806-2.5.325-.392.584-.78.772-1.185.187-.402.303-.83.304-1.276a2.47 2.47 0 0 0-.476-1.451c-.53-.71-1.283-1.11-2.16-1.43-1.322-.466-3.02-.73-5.046-.896-2.022-.165-4.357-.223-6.886-.223-6.476 0-14.22.38-20.888.38-3.2 0-6.152-.088-8.57-.341-2.411-.244-4.306-.692-5.258-1.241l-.543.97-.308 1.067c1.14.328 2.542.535 4.099.672a59.65 59.65 0 0 0 4.975.192c2.9-.001 5.807-.165 7.992-.414 2.792-.322 5.356-1.91 7.225-4.216a13.865 13.865 0 0 0 3.069-8.71c0-1.6-.275-3.262-.88-4.927l-8.682-23.952c-.408-1.124-.597-2.144-.597-3.01.008-1.296.391-2.207 1.085-2.854.699-.646 1.824-1.09 3.526-1.093.211 0 .43.006.66.02l23.972 1.528 9.68 28.036c1.624 4.7 2.363 8.428 2.36 11.38 0 1.922-.305 3.512-.87 4.875-.846 2.04-2.278 3.618-4.354 5.008-2.07 1.385-4.778 2.544-8.02 3.644l.357 1.05.656.897-.656-.896" fill="#000"/><path d="M283.06 240.629c-36.972 20.68-26.1 56.343-11.349 93.618-12.15-41.592-20.186-71.56 11.35-93.618" fill="#D6D6D6"/><path d="M168.97 366.037c.61 3.74-1.835 6.77-5.459 6.77-3.626 0-7.055-3.03-7.66-6.77-.613-3.739 1.832-6.768 5.457-6.768 3.626 0 7.057 3.03 7.662 6.768" fill="#FFF"/><path d="M168.97 366.037l-1.391.227c.05.313.074.613.074.904-.003 1.263-.444 2.299-1.158 3.035-.719.733-1.712 1.188-2.984 1.194-1.414.002-2.869-.603-4.028-1.63-1.162-1.024-1.999-2.445-2.24-3.955v-.003a5.603 5.603 0 0 1-.076-.907c.003-1.261.444-2.296 1.158-3.031.718-.732 1.712-1.186 2.983-1.192 1.415-.004 2.87.603 4.03 1.63 1.162 1.024 1.999 2.444 2.24 3.954l1.392-.226 1.393-.225c-.363-2.228-1.545-4.193-3.158-5.62-1.612-1.422-3.686-2.331-5.897-2.335-1.977-.005-3.76.759-5.006 2.044-1.25 1.282-1.96 3.064-1.957 5.001 0 .448.038.903.113 1.364v-.003c.363 2.228 1.545 4.193 3.157 5.62 1.612 1.422 3.684 2.332 5.896 2.336 1.978.005 3.762-.76 5.007-2.048 1.249-1.282 1.959-3.065 1.957-5.003 0-.445-.037-.899-.112-1.358l-1.393.227" fill="#000"/><path d="M343.62 208.803c1.154-1.002 19.484.45 21.303 1.116 5.3 1.946 4.677 9.551-.56 8.375-7.067-1.585-13.658-1.582-20.65-2.047l-.093-7.445v.001" fill="#7F8180"/><path d="M343.62 208.803l.727.84-.388-.449.22.557c.006-.004.057-.016.168-.108l-.388-.449.22.557.012-.003c.09-.033.467-.096.962-.126a27.752 27.752 0 0 1 1.871-.05c2.787-.001 6.905.235 10.473.536 1.784.15 3.434.316 4.711.472.64.08 1.184.157 1.598.227.405.066.714.144.734.155 1.036.382 1.758 1 2.243 1.714.483.712.713 1.529.712 2.263.001.712-.215 1.324-.552 1.719-.344.39-.776.637-1.534.648a3.68 3.68 0 0 1-.804-.096c-7.214-1.616-13.877-1.608-20.82-2.071l-.073 1.108 1.11-.014-.092-7.445-2.222.014v2.436l1.839-1.595-.727-.84 1.11-.001h-1.11l-1.112.014.107 8.473 1.023.068c7.043.464 13.563.467 20.481 2.022.445.099.876.15 1.29.15 1.332.01 2.499-.553 3.232-1.436.738-.88 1.076-2.007 1.077-3.154a6.314 6.314 0 0 0-1.094-3.509c-.733-1.086-1.852-2.017-3.32-2.554-.324-.114-.654-.177-1.127-.26-1.613-.273-4.61-.583-7.871-.833-3.255-.25-6.742-.433-9.282-.433-.935 0-1.74.024-2.387.084a6.79 6.79 0 0 0-.872.13c-.27.075-.509.108-.874.4l.729.84h1.11-1.11" fill="#000"/><path d="M273.387 338.529c.331 10.479.848 20.911-4.28 32.756 32.423 4.492 76.203-16.58 50.42-79.287-7.41-18.02-33.349-15.785-29.77 10.237 3 21.789-7.227 29.815-16.371 36.294" fill="#FFF"/><path d="M176.118 298.37c-8.879.046-15.89 6.992-15.954 16.254-.065 9.878 7.766 18.686 17.485 19.64 2.041.201 4 .015 5.828-.456l11.852-17.264c-.71-9.277-8.218-17.173-17.419-18.075a17.633 17.633 0 0 0-1.792-.1M139.673 363.508c10.848 4.402 23.254 13.73 33.921 17.953 70.074 27.742 110.606-17.106 82.9-67.437 20.914 68.42-31.327 85.71-82.912 65.378-11.748-4.631-20.663-12.637-33.907-15.894h-.002" fill="#000"/><path d="M154.803 343.24c13.695 19.476 41.56 19.149 52.36 4.737-16.81 11.405-35.11 9.985-52.36-4.738M125.413 376.449c5.442-.84 9.621-.621 15.326 1.34.854.296 2.213.863-1.533 2.685-9.348 4.547-18.871 7.992-27.97 7.283-1.693-.133-3.174-2.038.191-3.45 4.004-1.68 5.978-4.258 5.556-8.432l6.705-2.108c-.452 1.165-1.08 3.114 1.725 2.683v-.001" fill="#000"/><path d="M94.34 366.102c1.278 1.334 2.294 2.544 3.015 3.926.72 1.385 1.175 2.96 1.276 5.13.12 2.74 1.002 4.782 2.422 6.092 1.416 1.311 3.257 1.812 5.06 1.81 2.354-.007 4.729-.81 6.597-1.964.935-.58 1.743-1.25 2.354-2.008.602-.753 1.039-1.62 1.045-2.603 0-.17-.015-.34-.043-.51l-2.19.373.011.137c.007.267-.145.706-.554 1.21-.601.756-1.716 1.58-3.028 2.17-1.313.599-2.82.975-4.193.972-1.417-.002-2.646-.38-3.552-1.218-.902-.84-1.595-2.218-1.71-4.562-.108-2.434-.65-4.386-1.526-6.057-.873-1.673-2.05-3.048-3.38-4.435l-1.603 1.537" fill="#000"/><path d="M329.244 248.616c1.948-2.313-.674-3.121-1.973-1.844-12.491 12.305-10.425 25.244-7.366 35.666 1.158 3.946 2.384 2.423 1.84-.263-2.8-13.868 1.1-25.96 7.499-33.56" fill="#FFF"/><path d="M340.8 183.464l-1.966 1.037.804-.425h-.886c0 .266.076.414.082.425l.804-.425h-.886 1.337l-1.119-.737c-.123.176-.225.49-.218.737h1.337l-1.119-.737.732.482-.51-.725a.899.899 0 0 0-.222.243l.732.482-.51-.725.081.116-.074-.122-.007.006.081.116-.074-.122c-.003.007-.192.101-.506.181-.472.127-1.21.24-2.098.309-.89.07-1.934.103-3.065.102-2.874 0-6.306-.202-9.466-.407-3.17-.204-6.04-.414-7.988-.416-.372 0-.716.007-1.042.028h.003c-.52.033-1.226.085-2.014.23-1.173.226-2.593.648-3.844 1.743a5.95 5.95 0 0 0-1.531 2.125c-.369.858-.551 1.834-.551 2.885.003 1.677.44 3.55 1.358 5.787 1.487 3.618 2.3 6.261 3.05 8.709.748 2.443 1.44 4.728 2.647 7.4 1.844 4.07 2.587 7.276 2.582 9.618-.001 1.3-.218 2.33-.572 3.168-.538 1.248-1.37 2.137-2.633 2.862-1.258.716-2.965 1.205-5.008 1.405-17.19 1.701-30.85 7.113-40.251 16.1-4.696 4.488-8.3 9.864-10.707 16.01-2.41 6.147-3.629 13.058-3.628 20.646 0 10.821 2.467 23.025 7.511 36.515 5.237 13.963 7.488 25.56 7.486 35.064-.001 7.91-1.547 14.363-4.21 19.635a32.992 32.992 0 0 1-7.788 10.02c-4.73 4.14-10.654 7.06-17.306 8.943-6.65 1.881-14.014 2.717-21.533 2.716-11.835.002-24.049-2.068-34.46-5.234-5.206-1.583-9.96-3.44-13.983-5.427-4.023-1.985-7.311-4.116-9.563-6.164-3.526-3.2-7.344-5.878-11.469-7.766-4.12-1.887-8.557-2.974-13.236-2.972-3.679-.001-7.5.671-11.414 2.109-3.105 1.141-5.556 1.63-7.454 1.626-1.898-.01-3.233-.438-4.46-1.245-1.22-.812-2.355-2.096-3.472-3.923-26.052-42.537-36.86-80.478-36.858-113.075.001-21.476 4.684-40.649 12.832-57.371 12.226-25.08 32.286-44.668 56.192-58.003 23.901-13.334 51.636-20.388 79.064-20.385 23.895-.002 47.547 5.348 68.257 16.496 20.712 11.151 38.498 28.077 50.763 51.367l3.93-2.072c-12.674-24.08-31.156-41.679-52.59-53.21-21.433-11.534-45.806-17.025-70.36-17.026-37.58.007-75.627 12.848-104.385 36.808-14.373 11.98-26.417 26.752-34.863 44.077-8.446 17.323-13.284 37.196-13.282 59.319 0 33.592 11.135 72.333 37.514 115.397 1.322 2.159 2.84 3.99 4.793 5.296 1.947 1.31 4.303 2.003 6.925 1.993 2.643-.002 5.567-.647 8.984-1.898 3.462-1.27 6.744-1.836 9.884-1.837 3.992.001 7.768.916 11.39 2.57 3.618 1.655 7.073 4.059 10.329 7.015 2.698 2.445 6.298 4.737 10.581 6.856 6.424 3.174 14.39 5.94 23.072 7.93 8.683 1.987 18.077 3.192 27.339 3.192 6.974 0 13.875-.684 20.338-2.253 9.687-2.352 18.441-6.718 24.79-13.84 3.173-3.555 5.725-7.79 7.468-12.73 1.744-4.936 2.683-10.569 2.681-16.934 0-10.205-2.397-22.298-7.767-36.622-4.905-13.11-7.23-24.816-7.23-34.957 0-7.116 1.14-13.459 3.323-19.024 3.28-8.345 8.874-14.984 16.766-19.932 7.887-4.942 18.106-8.152 30.495-9.377 3.298-.333 6.308-1.278 8.606-3.26a10.046 10.046 0 0 0 2.685-3.696c.619-1.458.926-3.106.925-4.902-.006-3.252-.97-7.002-2.975-11.449-1.075-2.38-1.695-4.41-2.448-6.87-.751-2.455-1.63-5.305-3.189-9.098-.775-1.876-1.03-3.232-1.025-4.097.004-.732.152-1.1.304-1.352.119-.19.26-.334.47-.479.31-.215.792-.401 1.342-.516.548-.119 1.14-.169 1.662-.202h.004c.188-.012.448-.02.756-.02 1.644 0 4.53.2 7.7.408 3.184.205 6.68.416 9.754.417 2.187-.005 4.136-.096 5.758-.431.816-.18 1.564-.395 2.317-.87.373-.24.76-.567 1.076-1.042.315-.47.519-1.105.512-1.707a3.538 3.538 0 0 0-.429-1.647l-1.965 1.035" fill="#22150C"/><path d="M324.828 262.126c14.795 22.762 31.319 37.517 90.513 29.128 6.19-.878 10.36.864 12.279 6.514 9.164 26.976 14.403 50.771 16.184 78.355.454 6.967-8.276 9.49-9.487-.186-3.343-26.684-8.462-50.413-17.118-75.936-58.258 13.61-84.187-10.416-93.767-24.289.039-4.528.143-9.056 1.396-13.586" fill="#7F8180"/><path d="M324.828 262.126l-.931.605c5.996 9.226 12.355 17.271 21.783 22.983 9.425 5.713 21.837 9.033 39.796 9.031 8.62-.001 18.526-.763 30.02-2.391a19.035 19.035 0 0 1 2.679-.204c2.167.001 3.876.459 5.229 1.39 1.347.934 2.41 2.377 3.164 4.585 9.141 26.912 14.352 50.586 16.128 78.07.01.152.014.3.014.447-.001 1.47-.48 2.613-1.153 3.385-.677.774-1.535 1.163-2.346 1.162-.745-.006-1.489-.297-2.196-1.107-.701-.81-1.335-2.185-1.596-4.283-3.35-26.743-8.486-50.56-17.168-76.154l-.323-.954-.981.228c-12.066 2.818-22.717 4.009-32.1 4.009-17.824-.002-31.07-4.286-40.81-9.897-9.738-5.612-15.974-12.568-19.692-17.95l-.913.631 1.11.01c.036-4.52.15-8.941 1.357-13.301l-1.071-.295-.931.605.93-.605-1.07-.296c-1.298 4.7-1.395 9.334-1.435 13.873l-.004.351.2.29c3.867 5.6 10.337 12.806 20.41 18.613 10.072 5.806 23.74 10.195 41.919 10.193 9.57 0 20.392-1.213 32.605-4.067l-.253-1.082-1.051.357c8.63 25.45 13.73 49.09 17.067 75.717.301 2.406 1.047 4.212 2.117 5.458 1.064 1.247 2.484 1.886 3.879 1.88 1.527-.002 2.973-.726 4.02-1.924 1.048-1.2 1.703-2.886 1.701-4.847 0-.194-.006-.391-.019-.591-1.787-27.684-7.055-51.6-16.241-78.641-.858-2.533-2.198-4.454-4.009-5.699-1.808-1.249-4.014-1.785-6.488-1.784-.953 0-1.948.079-2.991.226-11.413 1.619-21.219 2.37-29.708 2.37-17.7-.003-29.646-3.258-38.646-8.71-9-5.453-15.135-13.161-21.07-22.293l-1.345-2.068-.657 2.378 1.07.296" fill="#000"/><path d="M318.966 195.31c-1.479-4.37-1.74-8.169 2.233-9.959l7.443-3.348c3.052-1.375 7.398-2.636 9.117 1.301l10.605 24.29c2.374 5.437 3.874 16.367-6.606 16.098l-7.255-.186c-5.399-.137-6.548-1.688-8.28-6.793l-7.257-21.404" fill="#7F8180"/><path d="M318.966 195.31l1.052-.358c-.58-1.706-.942-3.284-.938-4.57 0-.951.185-1.724.569-2.364.386-.637.985-1.19 2.006-1.653l7.444-3.349c1.451-.66 3.191-1.252 4.582-1.244.704.001 1.296.138 1.785.426.487.292.917.74 1.275 1.55l10.605 24.29c.873 1.989 1.632 4.846 1.627 7.44.002 1.994-.441 3.79-1.444 5.02-.504.621-1.146 1.126-2.016 1.495-.87.367-1.975.592-3.38.592-.114 0-.23 0-.35-.003l-7.252-.187c-1.297-.032-2.299-.152-3.063-.362-1.146-.328-1.761-.769-2.387-1.613-.617-.848-1.17-2.176-1.806-4.064l-7.257-21.404-1.052.357-1.051.357 7.257 21.403c.44 1.295.848 2.392 1.325 3.34.357.709.755 1.338 1.241 1.884.726.818 1.658 1.415 2.768 1.771 1.112.36 2.393.511 3.97.552l7.253.187c.137.003.272.006.404.006 1.64 0 3.052-.266 4.244-.769a7.3 7.3 0 0 0 3.793-3.585c.748-1.527 1.023-3.25 1.026-4.977-.006-3.013-.834-6.074-1.814-8.33l-10.605-24.289c-.504-1.165-1.269-2.04-2.182-2.574-.913-.539-1.926-.735-2.914-.735-1.964.009-3.907.73-5.495 1.44l-7.442 3.348c-1.347.602-2.362 1.47-2.999 2.536-.64 1.062-.888 2.272-.887 3.507.003 1.685.44 3.456 1.057 5.285l1.051-.357" fill="#000"/><path d="M325.955 182.012c-1.538.69-2.81 1.639-3.69 2.892-.882 1.251-1.335 2.785-1.331 4.497 0 1.258.234 2.62.694 4.099l.009.026 7.452 20.221 2.083-.768-7.442-20.194-1.041.384 1.06-.33c-.409-1.313-.595-2.458-.594-3.438.004-1.34.33-2.361.928-3.22.6-.855 1.512-1.57 2.782-2.142l-.91-2.027" fill="#000"/><path d="M205.92 311.752c-2.97-1.896-3.223-4.682-1.488-7.445l7.187-10.633c1.86-2.753 3.566-2.355 6.511-.56l23.815 14.519c11.112 6.773-3.369 29.55-13.954 22.518l-22.068-18.399h-.002" fill="#7F8180"/><path d="M205.92 311.752l.599-.936c-.767-.49-1.276-1.015-1.596-1.54a3.128 3.128 0 0 1-.462-1.652c-.001-.804.288-1.734.911-2.726l-.94-.59.92.621 7.187-10.633c.422-.625.801-1.01 1.114-1.22.318-.208.553-.273.87-.277.306-.002.707.085 1.216.297.51.21 1.115.54 1.813.966l23.815 14.519c1.246.762 2.087 1.713 2.644 2.818.556 1.102.821 2.375.821 3.755.01 3.328-1.595 7.233-4.02 10.22-1.21 1.494-2.615 2.761-4.08 3.637-1.467.878-2.983 1.362-4.44 1.361-1.248-.002-2.468-.34-3.687-1.146l-.614.925.712-.854-22.379-18.656h-.403v1.111l.598-.936-.598.936v1.11h.002v-1.11l-.712.853 22.115 18.438.052.034c1.558 1.04 3.25 1.52 4.913 1.517 1.953 0 3.85-.64 5.581-1.676 2.598-1.56 4.861-4.012 6.506-6.807 1.642-2.798 2.67-5.945 2.675-8.957 0-1.661-.32-3.288-1.057-4.753-.734-1.467-1.891-2.757-3.472-3.717l-23.815-14.519c-.75-.456-1.44-.84-2.119-1.122-.679-.28-1.359-.467-2.067-.467a3.716 3.716 0 0 0-2.112.658c-.64.434-1.188 1.042-1.713 1.817l-7.197 10.65-.01.015c-.785 1.251-1.249 2.573-1.251 3.908-.003.97.258 1.94.784 2.803.526.867 1.302 1.625 2.3 2.262l.273.174h.324v-1.11" fill="#000"/><path d="M205.512 305.563l10.647 4.419-16.496 26.152c-4.478 7.1-14.131.009-9.996-6.318l15.845-24.253" fill="#7F8180"/><path d="M205.512 305.563l-.426 1.026 9.43 3.913-15.792 25.038c-.583.922-1.229 1.521-1.887 1.901a4.01 4.01 0 0 1-2.028.544c-1.237.005-2.524-.562-3.48-1.489-.96-.926-1.56-2.17-1.558-3.465.002-.828.233-1.698.825-2.607l15.846-24.254-.93-.607-.426 1.026.426-1.026-.93-.609-15.846 24.254c-.813 1.238-1.19 2.562-1.188 3.823.003 1.989.907 3.779 2.238 5.064 1.334 1.285 3.123 2.108 5.023 2.113a6.241 6.241 0 0 0 3.137-.841c1.001-.575 1.91-1.456 2.655-2.642l17.2-27.265-12.715-5.277-.504.771.93.609" fill="#000"/><path d="M206.02 315.577c-4.055-2.691-4.428-7.067-2.475-9.957l5.808-8.592c1.86-2.752.446-.714 2.206-3.242l28.118 17.201c11.113 6.775-1.1 26.198-11.687 19.166l-21.97-14.575v-.001" fill="#7F8180"/><path d="M206.02 315.577l.615-.926c-2.243-1.501-3.114-3.442-3.124-5.287 0-1.122.34-2.213.955-3.12l5.806-8.594c.93-1.374 1.055-1.574 1.149-1.716.08-.123.17-.249 1.05-1.514l-.912-.634-.58.947 28.119 17.202c1.401.857 2.347 1.898 2.964 3.058.615 1.159.9 2.451.9 3.808.008 2.757-1.217 5.763-3.142 8.02-.959 1.129-2.085 2.071-3.289 2.72-1.205.65-2.48 1.01-3.77 1.01-1.352-.002-2.74-.386-4.157-1.324l-21.969-14.576-.615.927 1.111-.001v-.596l-.496-.33-.615.926h-1.11v.597l22.466 14.905c1.747 1.162 3.597 1.697 5.385 1.695 1.708 0 3.347-.478 4.825-1.278 2.22-1.202 4.098-3.115 5.44-5.347 1.342-2.235 2.155-4.8 2.157-7.348.001-1.668-.354-3.333-1.158-4.85-.805-1.516-2.056-2.87-3.77-3.912l-29.01-17.747-.597.858c-.88 1.265-.964 1.384-1.083 1.562-.104.158-.2.316-1.133 1.694l-5.806 8.592a7.796 7.796 0 0 0-1.335 4.366c-.012 2.585 1.315 5.293 4.115 7.14l.614-.927h-1.11 1.11" fill="#000"/><path d="M209.51 298.884l-1.617 2.286-3.427 5.073c-.616.908-.955 2-.955 3.121.01 1.845.881 3.786 3.124 5.287l.496.33v.001l21.473 14.245c1.418.938 2.805 1.322 4.157 1.325 1.29 0 2.565-.36 3.77-1.01 1.204-.65 2.33-1.592 3.29-2.72l.037-.047a7.68 7.68 0 0 0 .822-3.433 7.37 7.37 0 0 0-1.027-3.748c-.71-1.216-1.823-2.383-3.466-3.386l-21.868-13.391c-.934-.574-1.885-1.143-2.742-1.783-.809-.61-1.549-1.285-2.067-2.15" fill="#7F8180"/><path d="M239.858 326.775l-.038.046c-.959 1.129-2.085 2.071-3.289 2.72-1.205.65-2.48 1.01-3.77 1.01-1.352-.002-2.74-.386-4.157-1.324 1.764 1.17 3.416 1.632 4.898 1.633 2.038 0 3.809-.881 5.105-2.275a7.726 7.726 0 0 0 1.25-1.81m-31.964-25.605l-.02.029-3.407 5.044 3.427-5.073" fill="#7B7D7C"/><path fill="#000" d="M211.56 292.143l-.168.237.134.082.033-.319"/><path d="M203.49 303.718l-.864 1.28a7.796 7.796 0 0 0-1.335 4.366v.031-.03c0-1.57.472-3.09 1.335-4.367l.86-1.274c.002-.001.003-.004.004-.006m2.555-3.782l-.003.005-.297.44.3-.445" fill="#070300"/><path d="M206.066 299.906l-.02.03-2.556 3.782-.003.006 2.579-3.818" fill="#000"/><path d="M241.721 328.008c-1.161 1.427-2.562 2.637-4.135 3.488-1.478.8-3.117 1.279-4.825 1.278h-.013c-1.768 0-3.598-.526-5.327-1.667 2.054 1.357 4.134 1.977 6.075 1.977h.011c2.696 0 5.067-1.19 6.728-2.988a10.027 10.027 0 0 0 1.486-2.088" fill="#070300"/><path d="M211.109 296.408c-.164.245-.42.626-.837 1.242l-2.38 3.52 1.618-2.286c.518.865 1.258 1.54 2.067 2.15.857.64 1.808 1.209 2.742 1.783l21.868 13.391c1.643 1.003 2.755 2.17 3.466 3.386a7.37 7.37 0 0 1 1.027 3.748 7.68 7.68 0 0 1-.822 3.433c1.345-1.592 2.343-3.55 2.81-5.528a9.696 9.696 0 0 0-1.096-2.773c-.912-1.562-2.31-2.995-4.228-4.162l-21.865-13.39c-1.26-.77-2.442-1.487-3.23-2.207-.397-.36-.691-.71-.876-1.048a2.09 2.09 0 0 1-.277-1.04l.013-.219" fill="#040404"/><path d="M211.392 292.38l-5.326 7.526-3.44 5.092a7.796 7.796 0 0 0-1.335 4.366v.031c0 2.417 1.168 4.94 3.62 6.76v.019l22.465 14.905c.015.009.03.02.045.028 1.729 1.14 3.559 1.667 5.327 1.667h.013c1.708 0 3.347-.478 4.825-1.278 1.573-.85 2.974-2.06 4.135-3.488a9.93 9.93 0 0 0 1.18-4.666c0-.693-.075-1.396-.233-2.095-.467 1.978-1.465 3.936-2.81 5.528a7.726 7.726 0 0 1-1.25 1.81c-1.297 1.394-3.068 2.274-5.106 2.275-1.482 0-3.134-.464-4.898-1.633l-21.473-14.245v-.001l-.496-.33-.615.926h-1.11 1.11l.615-.926-.615.926h-1.11 1.11l.615-.926c-2.243-1.501-3.114-3.442-3.124-5.287 0-1.122.34-2.213.955-3.12l3.407-5.045.02-.029 2.379-3.52c.417-.616.673-.997.837-1.242v-.027l.417-3.919-.134-.082" fill="#000"/><path d="M222.008 300.55c-2.288 2.29-11.274-3.441-9.849-5.912l30.128-45.366c10.934-16.735 24.477-24.714 40.256-29.48 15.083-4.555 30.21-6.598 45.253-9.475 6.502-1.243 9.255 6.711.526 8.685-16.378 3.71-32.955 6.883-48.41 12.372-13.699 4.865-23.363 14.578-32.1 28.427l-25.804 40.748v.001" fill="#7F8180"/><path d="M222.008 300.55l-.787-.785a.557.557 0 0 1-.234.132 1.73 1.73 0 0 1-.534.071c-.549.004-1.352-.18-2.198-.524a13.55 13.55 0 0 1-3.656-2.233c-.5-.436-.906-.877-1.157-1.25-.26-.373-.334-.666-.326-.737l.002-.028.002-.001-.96-.557.924.614 30.13-45.364.004-.007c10.8-16.506 24.024-24.292 39.646-29.025 14.974-4.524 30.056-6.564 45.142-9.448.4-.076.777-.112 1.13-.112 1.18.003 2.079.383 2.68.915.602.537.907 1.215.908 1.908-.003.645-.254 1.34-.956 2.034-.704.69-1.886 1.358-3.691 1.766-16.355 3.706-32.973 6.882-48.537 12.408-6.992 2.483-12.972 6.215-18.288 11.071-5.317 4.856-9.976 10.828-14.378 17.81l-25.977 41.019v.323h1.111l-.787-.785.787.785h1.111-1.111l.937.594 25.805-40.748c4.334-6.87 8.877-12.678 14-17.356 5.126-4.68 10.827-8.236 17.533-10.62 15.346-5.451 31.881-8.62 48.285-12.334 2.101-.476 3.676-1.292 4.752-2.344 1.076-1.046 1.63-2.351 1.626-3.623.001-1.368-.62-2.657-1.656-3.572-1.037-.92-2.487-1.474-4.154-1.473-.498 0-1.016.05-1.549.152-15.002 2.87-30.171 4.916-45.365 9.503-15.936 4.799-29.797 12.97-40.864 29.936l.003-.007-30.147 45.393-.016.03a2.274 2.274 0 0 0-.303 1.143c.002.505.147.959.352 1.377.364.731.923 1.387 1.597 2.019 1.014.941 2.297 1.804 3.626 2.459 1.334.648 2.695 1.103 3.983 1.111.415 0 .827-.05 1.228-.182.4-.131.792-.352 1.112-.672l.326-.326v-.46h-1.111" fill="#000"/><path d="M234.791 324.942c-.952 2.05-3.664 2.855-6.207 1.788-2.655-1.112-4.13-3.837-3.295-6.082.333-.895.982-1.58 1.812-2.007" fill="#7F8180"/><path d="M234.272 324.7c-.554 1.198-1.85 1.926-3.404 1.93a5.347 5.347 0 0 1-2.064-.428c-1.965-.818-3.187-2.613-3.177-4.24 0-.382.064-.755.198-1.115.281-.753.82-1.327 1.538-1.699l-.525-1.016c-.94.485-1.701 1.28-2.085 2.317a4.324 4.324 0 0 0-.269 1.513c.01 2.184 1.54 4.31 3.878 5.295a6.496 6.496 0 0 0 2.506.517c1.903.003 3.663-.919 4.441-2.59l-1.037-.483" fill="#000"/><path d="M236.595 322.983c-.837 2.245-3.666 3.164-6.32 2.053-2.653-1.113-4.129-3.836-3.294-6.082.836-2.243 3.667-3.165 6.32-2.052 2.654 1.112 4.129 3.836 3.294 6.081" fill="#7F8180"/><path d="M236.595 322.983l-.536-.2a3.095 3.095 0 0 1-1.316 1.574c-.606.371-1.362.58-2.183.58a5.35 5.35 0 0 1-2.064-.43c-1.964-.817-3.186-2.612-3.177-4.239a3.105 3.105 0 0 1 1.512-2.688c.608-.37 1.365-.578 2.185-.578.665 0 1.369.136 2.064.427 1.964.818 3.185 2.613 3.177 4.24 0 .38-.064.755-.198 1.115l.536.199.535.199c.182-.492.27-1.003.27-1.513-.01-2.186-1.54-4.31-3.878-5.294a6.475 6.475 0 0 0-2.506-.517c-1.012 0-1.976.256-2.78.747a4.25 4.25 0 0 0-2.06 3.663c.01 2.185 1.541 4.31 3.878 5.295a6.496 6.496 0 0 0 2.506.517c1.013 0 1.975-.256 2.78-.748a4.246 4.246 0 0 0 1.79-2.15l-.535-.199" fill="#000"/><path d="M226.676 318.929c-.887 2.372-3.901 3.578-6.724 2.406-2.822-1.175-4.157-3.978-3.502-6.423.354-1.328 2.388-3.487 2.543-3.487" fill="#7F8180"/><path d="M226.14 318.727c-.552 1.488-2.123 2.488-3.954 2.489-.654 0-1.338-.13-2.015-.41-2.146-.894-3.313-2.794-3.314-4.64 0-.373.048-.744.144-1.105.12-.493.69-1.361 1.239-2.03.274-.34.546-.64.749-.848.102-.104.186-.185.239-.23l.032-.026.008-.007-.156-.217.124.237.032-.02-.156-.217.124.237-.243-.462v.52c.176-.009.21-.048.243-.058l-.243-.462v.52-1.145c-.167.006-.221.045-.27.066l-.172.11a6.215 6.215 0 0 0-.583.569c-.355.383-.791.903-1.181 1.458-.388.558-.732 1.133-.89 1.709a5.45 5.45 0 0 0-.184 1.4c0 2.33 1.47 4.638 4.02 5.697.814.339 1.65.498 2.453.498 2.235.002 4.27-1.229 5.026-3.231l-1.073-.402" fill="#000"/><path d="M228.132 317.134c-.89 2.371-3.902 3.341-6.723 2.168-2.822-1.176-4.392-4.052-3.503-6.423.887-2.371 3.9-3.34 6.723-2.167 2.822 1.173 4.393 4.052 3.503 6.422" fill="#7F8180"/><path d="M228.132 317.134l-.534-.2a3.322 3.322 0 0 1-1.415 1.677c-.65.396-1.463.617-2.344.617a5.757 5.757 0 0 1-2.21-.455c-2.1-.869-3.41-2.775-3.4-4.506 0-.406.068-.804.212-1.187a3.31 3.31 0 0 1 1.412-1.678c.65-.395 1.463-.617 2.345-.617.712 0 1.466.144 2.21.455 2.102.868 3.41 2.774 3.402 4.506a3.403 3.403 0 0 1-.212 1.187l.534.201.535.2a4.491 4.491 0 0 0 .286-1.588c-.01-2.294-1.631-4.529-4.104-5.563a6.927 6.927 0 0 0-2.651-.542c-1.071 0-2.088.268-2.937.784a4.448 4.448 0 0 0-2.176 3.842c.01 2.294 1.632 4.528 4.104 5.563a6.926 6.926 0 0 0 2.65.542c1.07-.001 2.088-.269 2.937-.783a4.458 4.458 0 0 0 1.891-2.253l-.535-.202" fill="#000"/><path d="M222.837 310.378l.433 9.29" fill="#7F8180"/><path fill="#000" d="M221.98 310.418l.434 9.29 1.712-.08-.433-9.29"/><path d="M252.736 237.465l54.325 119.116c27.979 61.349 102.66 35.715 124.65 29.779 13.658-3.685 15.107-11.556-2.419-15.261-21.986-4.65-39.453-16.29-47.814-36.666l-37.951-92.5c-1.109-2.703-11.026.961-9.305 5.024l36.839 86.917c9.421 22.228 25.956 41.448 45.023 43.18 4.774.434 19.806-1.382-10.976 4.838-36.329 7.343-72.747 5.371-87.63-26.987l-56.93-123.769c-1.07-2.328-9.513 2.601-7.813 6.328l.001.001" fill="#7F8180"/><path d="M252.736 237.465l-1.01.461 54.324 119.116c7.303 16.026 17.826 26.281 29.76 32.465 11.934 6.188 25.24 8.33 38.18 8.331 12.151 0 23.993-1.889 34.135-4.132 10.137-2.243 18.585-4.845 23.876-6.274 3.45-.933 6.182-2.125 8.127-3.529.969-.705 1.749-1.465 2.303-2.303.555-.835.88-1.768.878-2.728.002-.991-.349-1.968-.973-2.835-.942-1.307-2.462-2.427-4.575-3.431-2.115-1-4.84-1.876-8.239-2.595-10.868-2.299-20.58-6.316-28.586-12.242-8.007-5.927-14.323-13.753-18.432-23.758l-37.95-92.5c-.254-.633-.785-1.078-1.325-1.304-.548-.235-1.126-.311-1.728-.314-1.703.012-3.68.638-5.372 1.644-.841.506-1.608 1.113-2.2 1.843-.588.727-1.017 1.614-1.018 2.618 0 .463.095.94.29 1.392l36.837 86.917c4.758 11.223 11.307 21.695 19.127 29.623 7.815 7.921 16.935 13.328 26.82 14.23.753.068 1.67.082 2.627.083.997 0 2.033-.018 2.912-.018.684 0 1.28.011 1.652.044l.223.026.08.013.001.001.188-.643-.382.543c.137.092.185.095.194.1l.188-.643-.382.543.565-.805-.821.537c.094.142.19.22.256.268l.565-.805-.821.537.87-.57h-1.04c-.003.213.076.432.17.57l.87-.57h-1.04 1.024l-.89-.508c-.064.11-.135.289-.133.509h1.023l-.89-.51.692.396-.455-.665c-.02.021-.104.055-.237.27l.692.395-.455-.665.122.18-.113-.186-.009.006.122.18-.113-.186c0 .002-.123.065-.328.138-.734.274-2.432.734-5.323 1.393-2.898.663-7.017 1.536-12.702 2.686-10.677 2.158-21.35 3.503-31.44 3.503-12.038 0-23.24-1.915-32.674-6.592-9.435-4.682-17.137-12.093-22.286-23.275l-56.93-123.768a2.057 2.057 0 0 0-.975-.993 2.781 2.781 0 0 0-1.218-.256c-.817.006-1.641.248-2.488.618a11.831 11.831 0 0 0-3.603 2.503 7.833 7.833 0 0 0-1.312 1.77c-.336.643-.561 1.354-.562 2.11-.002.5.104 1.017.325 1.501l.084.183.143.143.785-.786-1.01.461 1.01-.46.784-.786v-.001l-.785.785 1.01-.46a1.38 1.38 0 0 1-.125-.58c-.004-.403.174-.93.558-1.492.564-.843 1.557-1.714 2.581-2.328a8.355 8.355 0 0 1 1.49-.72c.46-.167.868-.241 1.115-.239a.622.622 0 0 1 .245.033l.056-.115-.09.09.034.025.056-.115-.09.09.128-.128-.164.076.037.051.127-.127-.164.076 56.93 123.769c5.337 11.617 13.468 19.463 23.319 24.337 9.85 4.879 21.39 6.82 33.659 6.822 10.288-.001 21.096-1.368 31.88-3.548 7.283-1.472 12.005-2.493 14.932-3.209 1.465-.359 2.477-.637 3.168-.871.348-.12.611-.222.856-.353a1.84 1.84 0 0 0 .396-.276c.075-.071.16-.163.243-.306.081-.14.16-.349.16-.594a1.192 1.192 0 0 0-.198-.653c-.218-.31-.422-.394-.562-.464-.25-.106-.423-.131-.621-.162-.566-.079-1.299-.088-2.177-.09-.907 0-1.94.017-2.912.017-.929 0-1.81-.016-2.428-.073-9.183-.83-17.865-5.9-25.44-13.578-7.569-7.67-13.998-17.923-18.661-28.928l-36.837-86.918a1.32 1.32 0 0 1-.114-.525c0-.346.151-.757.525-1.221.55-.692 1.57-1.4 2.684-1.888 1.11-.496 2.32-.778 3.16-.775.392 0 .694.063.844.132.158.075.143.094.154.108l37.952 92.501c4.253 10.372 10.852 18.553 19.164 24.7 8.314 6.152 18.33 10.279 29.447 12.63 4.368.92 7.488 2.11 9.425 3.343.97.614 1.64 1.235 2.043 1.801.405.572.556 1.066.557 1.543 0 .462-.147.952-.509 1.503-.54.824-1.587 1.744-3.132 2.597-1.544.857-3.57 1.654-6.024 2.315-5.357 1.447-13.733 4.027-23.776 6.25-10.042 2.22-21.735 4.08-33.656 4.08-12.7 0-25.644-2.11-37.158-8.083-11.512-5.978-21.632-15.797-28.76-31.414l-54.409-119.299-.143-.141-.784.785" fill="#000"/><path d="M225.184 276.65l23.679 23.688c12.823 12.824 31.455 21.018 68.145 16.844 43.046-4.894 73.953-10.832 99.983-15.53 4.37-.788 5.341-11.01-3.157-9.474-32.81 5.923-65.727 11.318-98.928 14.739-33.34 3.42-49.364-2.404-59.202-12.897l-23.812-25.4c-2.02-2.156-9.774 4.958-6.708 8.03" fill="#7F8180"/><path d="M225.184 276.65l-.786.785 23.678 23.688c5.353 5.355 11.74 9.943 19.965 13.17 8.226 3.228 18.272 5.098 30.957 5.097 5.52 0 11.542-.354 18.136-1.104 43.085-4.9 74.032-10.845 100.054-15.54 1.382-.252 2.446-1.165 3.134-2.267.691-1.11 1.058-2.444 1.062-3.79 0-1.393-.405-2.833-1.399-3.958-.99-1.129-2.56-1.833-4.51-1.822-.577 0-1.19.057-1.84.175-32.796 5.921-65.686 11.312-98.844 14.728-6.446.661-12.233.973-17.441.973-10.798.002-19.099-1.344-25.641-3.702-6.543-2.359-11.339-5.716-15.195-9.822l-23.811-25.4a2.331 2.331 0 0 0-.87-.583 2.71 2.71 0 0 0-.965-.17c-.88.01-1.7.331-2.512.788-1.214.694-2.402 1.744-3.34 2.953-.924 1.21-1.636 2.574-1.652 4.05a3.52 3.52 0 0 0 1.034 2.535l1.572-1.57c-.282-.294-.375-.552-.384-.966-.004-.447.176-1.065.537-1.712.537-.975 1.453-1.999 2.399-2.73a7.086 7.086 0 0 1 1.368-.854c.421-.196.781-.275.978-.271l.174.024.04.025 23.811 25.4c4.071 4.345 9.21 7.928 16.063 10.394 6.855 2.468 15.414 3.834 26.394 3.835 5.296 0 11.158-.32 17.668-.987 33.245-3.424 66.192-8.826 99.013-14.751a8.074 8.074 0 0 1 1.443-.14c1.463.01 2.293.46 2.85 1.074.553.62.84 1.514.838 2.483.004.93-.273 1.899-.722 2.611-.455.722-1.032 1.152-1.646 1.26-26.04 4.699-56.906 10.63-99.91 15.52-6.521.74-12.46 1.09-17.886 1.09-12.47-.001-22.225-1.836-30.146-4.945-7.92-3.111-14.024-7.495-19.204-12.672l-23.679-23.689-.785.786" fill="#000"/><path d="M378.315 326.819c16.129 1.2 27.933-.814 42.623-3.32 13.836-2.36 14.02 11.16 5.525 12.898-31.495 6.443-62.022 13.076-96.034 16.32-11.089 1.055-21.98 3.374-32.889 1.577l-99.522-16.384c1.305-.958 3.887-5.195 6.381-9.212l90.247 15.595c11.694 2.02 23.528.377 35.783-1.316 32.482-4.49 63.406-9.227 92.877-16.32-14.678 3.431-28.479 6.878-42.104 7.871m-9.767.255a83.265 83.265 0 0 1-11.276-1.019l-29.372-4.722-.279-9.475 33.599 5.512c1.224.2 2.426.39 3.602.56" fill="#7F8180"/><path d="M378.232 327.927c3.322.248 6.465.36 9.49.36 11.777 0 21.719-1.7 33.402-3.694 1.05-.178 2.005-.26 2.867-.26 2.63.004 4.388.738 5.494 1.733 1.105.999 1.612 2.297 1.617 3.65a5.541 5.541 0 0 1-1.243 3.461c-.818 1.01-2.014 1.8-3.618 2.131-31.505 6.447-61.987 13.067-95.917 16.302-8.226.787-16.253 2.237-24.153 2.234-2.831 0-5.644-.184-8.451-.646l-99.522-16.384-.18 1.096.658.895c.487-.364.915-.857 1.414-1.49 1.466-1.88 3.379-5.016 5.252-8.032l-.943-.585-.188 1.095 90.246 15.594c3.923.678 7.853.95 11.794.95 8.032 0 16.11-1.125 24.33-2.26 32.491-4.492 63.45-9.23 92.985-16.339l-.512-2.162c-14.69 3.435-28.44 6.863-41.933 7.843l.161 2.217c13.758-1.004 27.61-4.47 42.276-7.897l-.512-2.161c-29.41 7.078-60.297 11.81-92.769 16.298-8.222 1.137-16.204 2.24-24.026 2.238-3.84 0-7.64-.265-11.416-.917l-90.986-15.722-.394.636c-1.248 2.012-2.514 4.07-3.617 5.724a36.093 36.093 0 0 1-1.498 2.112c-.43.557-.815.954-.98 1.067l-2.127 1.564L297.36 355.39c2.947.485 5.884.676 8.81.676 8.171-.004 16.261-1.476 24.364-2.244 34.093-3.252 64.666-9.896 96.152-16.337 2.092-.426 3.77-1.507 4.902-2.913a7.777 7.777 0 0 0 1.736-4.857 7.073 7.073 0 0 0-2.352-5.301c-1.587-1.432-3.94-2.307-6.98-2.303-1.002 0-2.081.093-3.242.291-11.692 1.995-21.474 3.661-33.028 3.661-2.97 0-6.056-.11-9.324-.352l-.166 2.215zm-6.77 5.746a82.212 82.212 0 0 1-11.125-1.006l-28.467-4.576-.212-7.21 32.268 5.294c1.23.202 2.439.392 3.624.563l.318-2.2a184.32 184.32 0 0 1-3.582-.555l-34.928-5.73.346 11.74 30.28 4.868a84.47 84.47 0 0 0 11.423 1.033l.054-2.221z" fill="#000"/><path d="M410.357 397.127c1.793 1.746 8.84 1 8.933-2.28 1.145-40.148-8.15-70.893-21.264-97.55-1.277-2.593-7.997-1.568-8.766 1.205-.767 2.774-.035.606 3.547 9.546a246.171 246.171 0 0 1 8.898 26.464c2.372 8.646-.997-5.229 2.468 9.771s5.236 29.213 5.688 41.306" fill="#7F8180"/><path d="M409.582 397.923c.52.499 1.157.775 1.842.964a8.66 8.66 0 0 0 2.214.267c1.444-.004 2.972-.283 4.262-.912.645-.318 1.236-.728 1.701-1.287a3.38 3.38 0 0 0 .8-2.075c.063-2.252.095-4.473.095-6.665.004-37.117-9.035-66.132-21.473-91.409-.409-.826-1.136-1.363-1.904-1.674-.778-.315-1.632-.44-2.506-.44-1.309.002-2.663.284-3.832.83a5.878 5.878 0 0 0-1.58 1.054c-.456.436-.832.98-1.013 1.629-.173.65-.306 1.076-.314 1.628-.007.461.149.913.33 1.257.274.53.628 1.047 1.203 2.133.572 1.077 1.35 2.692 2.37 5.238a245.642 245.642 0 0 1 8.857 26.345c.339 1.233.56 2.012.707 2.495.073.244.127.411.174.543l.083.203.104.184c.037.048.08.112.185.208a1.122 1.122 0 0 0 1.302.124c.286-.175.392-.377.449-.496.08-.188.084-.276.096-.344l.008-.139c-.001-.111-.01-.157-.016-.21-.023-.17-.057-.337-.09-.495l-.044-.2-.02-.079-.013-.052-.024-.075-.055-.124-.122-.191c-.043-.05-.098-.118-.216-.206a1.113 1.113 0 0 0-1.762.9c0 .293.119.579.325.786.206.207.492.326.785.326v-1.112l-.49.997c.17.086.354.116.49.115v-1.112l-.49.997.49-.997-.88.678c.089.118.227.242.39.32l.49-.998-.88.678.88-.678-1.094.188c.02.098.047.264.214.49l.88-.678-1.094.188 1.094-.188-1.108-.067c0 .034-.012.08.014.255l1.094-.188-1.108-.067 1.108.067-1.106-.098-.002.03 1.108.068-1.106-.098-.004.1.008.138.017.102c.03.157.126.602.38 1.733.252 1.127.661 2.919 1.305 5.707 3.45 14.93 5.212 29.078 5.661 41.097a1.11 1.11 0 1 0 2.22-.083c-.457-12.169-2.236-26.446-5.717-41.515-.697-3.018-1.117-4.866-1.363-5.96a115.7 115.7 0 0 1-.297-1.36l-.008-.04-.505.093.508-.08-.003-.012-.505.092.508-.08-.966.153.97-.12-.004-.033-.966.153.97-.12-1.084.134h1.092l-.008-.134-1.084.134h1.092-1.107l1.105.077.002-.077h-1.107l1.105.077-1.093-.076 1.09.098.003-.022-1.093-.076 1.09.098c0-.008.009-.016.003-.173-.013-.083-.004-.22-.151-.49a1.108 1.108 0 0 0-1.743-.22 1.122 1.122 0 0 0-.325.783c0 .293.119.579.325.786.206.207.492.326.785.326v-1.112l-.699.863c.11.086.322.24.699.249v-1.112l-.699.863.699-.862-.97.541c.04.057.056.134.271.321l.699-.862-.97.541.964-.539-1.037.379c.012.029.016.055.073.16l.964-.539-1.037.379.918-.335-.945.248.027.087.918-.335-.945.248v.002c.01.04.042.186.067.313l.031.164.005.035.643-.077h-.647l.004.077.643-.077h-.647 1.04l-1.01-.24c-.034.154-.027.201-.03.24h1.04l-1.01-.24 1.068.254-.89-.644c-.133.193-.156.31-.178.39l1.068.254-.89-.644.897.648-.562-.952c-.16.095-.267.21-.335.304l.897.648-.562-.952.563.955v-1.11a1.106 1.106 0 0 0-.563.155l.563.955v-1.11 1.107l.49-.992a1.112 1.112 0 0 0-.49-.115v1.107l.49-.992-.486.983.836-.709c-.056-.06-.128-.159-.35-.274l-.486.983.836-.709-.773.657.905-.463c-.02-.032-.034-.074-.132-.194l-.773.657.905-.463-.566.29.585-.247-.02-.043-.565.29.585-.247-.002-.007a15.46 15.46 0 0 1-.247-.79 137.11 137.11 0 0 1-.591-2.106 247.068 247.068 0 0 0-8.939-26.584c-1.389-3.473-2.377-5.332-3.01-6.435-.316-.548-.54-.91-.643-1.115-.105-.22-.083-.195-.089-.25-.009-.072.053-.4.235-1.036.049-.182.172-.392.408-.619.348-.34.946-.678 1.646-.906.7-.233 1.498-.36 2.23-.36.65-.002 1.245.102 1.665.277.429.177.647.388.749.597 12.327 25.061 21.243 53.674 21.246 90.428 0 2.171-.03 4.372-.094 6.6-.011.272-.092.476-.291.723-.292.364-.906.748-1.689 1a8.428 8.428 0 0 1-2.562.393 6.458 6.458 0 0 1-1.638-.19c-.451-.118-.762-.299-.869-.41a1.111 1.111 0 1 0-1.549 1.592M339.41 215.77h10.314l.036.035v3.2l-.036.035H339.41l-.03-.034v-3.201l.03-.035M333.405 186.654a2.023 2.023 0 0 0-.584.097c-1.558.487-2.091 2.773-1.173 5.082.917 2.309 2.936 3.776 4.494 3.289 1.555-.486 2.088-2.771 1.172-5.08l-.066-.099c-.823-1.974-2.43-3.31-3.843-3.289zm-.26.717c1.012-.015 2.146.995 2.735 2.54l.032.097c.657 1.807.3 3.594-.814 3.975-1.112.38-2.568-.8-3.224-2.607-.656-1.806-.265-3.56.847-3.94.139-.048.28-.064.425-.066v.001z" fill="#000"/><path d="M336.823 194.797a2.037 2.037 0 0 0-.585.097c-1.556.486-2.09 2.772-1.172 5.081.916 2.31 2.938 3.778 4.493 3.29 1.556-.487 2.089-2.773 1.172-5.08l-.064-.098c-.823-1.976-2.43-3.31-3.843-3.29zm-.26.88c1.012-.016 2.178.995 2.768 2.54l.032.097c.655 1.807.268 3.593-.844 3.974-1.116.38-2.537-.798-3.191-2.607-.656-1.805-.3-3.56.814-3.94.136-.047.279-.062.422-.065h-.001zM347.951 185.345l9.868 23.69 2.05-.855-9.868-23.69" fill="#000"/><path d="M165.837 366.58c.388 2.414-1.168 4.371-3.472 4.371-2.306 0-4.488-1.957-4.874-4.37-.388-2.416 1.169-4.373 3.472-4.373 2.307 0 4.488 1.957 4.874 4.372" fill="#FFF"/><path d="M165.837 366.58l-1.097.176c.03.192.045.378.045.555-.001.772-.266 1.392-.681 1.826-.42.431-.988.7-1.74.702-.834.004-1.71-.362-2.414-.996-.705-.63-1.216-1.51-1.362-2.438a3.546 3.546 0 0 1-.046-.556c.002-.772.267-1.392.682-1.827.42-.431.99-.699 1.74-.702.835-.003 1.71.362 2.416.996.704.631 1.214 1.51 1.36 2.44l1.097-.176 1.096-.175c-.239-1.485-1.013-2.793-2.07-3.744-1.059-.948-2.427-1.561-3.9-1.564-1.316-.004-2.513.516-3.341 1.388-.835.868-1.302 2.069-1.3 3.364 0 .299.024.602.073.907.239 1.485 1.013 2.79 2.071 3.742 1.06.948 2.427 1.561 3.899 1.565 1.316.003 2.513-.517 3.343-1.389.833-.868 1.3-2.067 1.298-3.363 0-.299-.024-.602-.073-.907l-1.096.176" fill="#000"/><path d="M163.849 369.086c.387 2.415-1.169 4.37-3.472 4.37-2.307 0-4.488-1.955-4.874-4.37-.39-2.412 1.168-4.37 3.472-4.37 2.306 0 4.487 1.958 4.874 4.37" fill="#FFF"/><path d="M163.849 369.086l-1.097.176c.03.19.045.376.045.553-.002.772-.268 1.392-.683 1.828-.418.432-.987.699-1.737.703-.836.003-1.71-.362-2.417-.997-.705-.63-1.214-1.508-1.36-2.438a3.549 3.549 0 0 1-.046-.557c.002-.77.266-1.39.682-1.824.419-.431.988-.699 1.74-.702.834-.004 1.708.362 2.414.996.706.631 1.216 1.51 1.362 2.438l1.097-.176 1.096-.176c-.24-1.485-1.014-2.79-2.073-3.741-1.057-.948-2.425-1.561-3.897-1.564-1.316-.004-2.513.516-3.343 1.387-.833.868-1.3 2.067-1.3 3.362 0 .298.025.603.075.91.239 1.482 1.013 2.79 2.07 3.74 1.059.95 2.428 1.561 3.9 1.564 1.316.004 2.513-.516 3.342-1.388.834-.87 1.3-2.069 1.3-3.365 0-.297-.025-.6-.074-.905l-1.096.176" fill="#000"/><path d="M236.5 353.308a7.432 7.432 0 1 1-14.865 0 7.433 7.433 0 1 1 14.864 0" fill="#FFF"/><path d="M236.5 353.308h-1.112c0 1.751-.705 3.325-1.852 4.472a6.294 6.294 0 0 1-4.47 1.851 6.29 6.29 0 0 1-4.47-1.851 6.291 6.291 0 0 1-1.852-4.472c0-1.75.706-3.325 1.852-4.473a6.296 6.296 0 0 1 4.47-1.853 6.302 6.302 0 0 1 4.47 1.853 6.296 6.296 0 0 1 1.852 4.473h2.221a8.546 8.546 0 0 0-8.543-8.548c-4.72 0-8.542 3.827-8.543 8.548a8.544 8.544 0 0 0 8.543 8.547 8.546 8.546 0 0 0 8.543-8.547h-1.11" fill="#000"/><path d="M235.147 354.757h-1.111a4.952 4.952 0 0 1-1.456 3.514 4.946 4.946 0 0 1-3.515 1.456 4.946 4.946 0 0 1-3.514-1.456 4.95 4.95 0 0 1-1.456-3.514c0-1.377.555-2.613 1.456-3.517a4.95 4.95 0 0 1 3.514-1.456c1.375 0 2.612.555 3.515 1.456.901.904 1.456 2.14 1.456 3.517h2.222a7.196 7.196 0 0 0-7.193-7.195 7.194 7.194 0 0 0 0 14.388 7.195 7.195 0 0 0 7.193-7.193h-1.111" fill="#000"/><path d="M233.691 356.21h-1.11a3.521 3.521 0 0 1-3.515 3.517 3.52 3.52 0 0 1-3.515-3.516 3.52 3.52 0 0 1 3.515-3.517 3.52 3.52 0 0 1 3.514 3.517h2.222a5.738 5.738 0 0 0-5.736-5.74 5.74 5.74 0 0 0 0 11.48 5.74 5.74 0 0 0 5.736-5.74h-1.11M331.244 179.997c-1.632.429-2.874 1.11-3.708 2.093-.836.981-1.17 2.21-1.163 3.435.013 2.076.826 4.286 1.802 6.672l.009.022 8.472 18.535c1.102 2.403 1.713 4.454 1.708 6.144-.003 1.105-.241 2.06-.775 2.981-.535.921-1.391 1.822-2.69 2.71l1.252 1.835c1.5-1.023 2.62-2.155 3.359-3.426.74-1.27 1.078-2.662 1.075-4.1-.005-2.213-.75-4.523-1.909-7.067l-8.465-18.52-1.01.462 1.026-.424c-.963-2.31-1.645-4.37-1.633-5.824.007-.87.202-1.476.638-2 .44-.523 1.22-1.021 2.577-1.38l-.565-2.147v-.001" fill="#000"/><path d="M381.48 334.433l-7.005-17.073m-9.498 2.159l6.084 14.355c.39.923.793 1.84 1.208 2.752" fill="#F0F"/><path d="M382.507 334.011l-7.006-17.073-2.054.844 7.005 17.073 2.055-.844zm-18.552-14.059l6.083 14.357c.394.93.801 1.857 1.22 2.777l2.022-.922c-.41-.902-.81-1.81-1.197-2.722L366 319.085l-2.045.868z" fill="#000"/><path fill="#7F8180" d="M400.827 335.344l2.692-.56 1.378 8.93-1.853.336-2.217-8.706M388.303 299.07l2.202-.347 3.005 8.85-1.7.277-3.832-8.133.325-.647"/><path d="M233.215 355.173c0 2.027-1.88 3.67-4.197 3.67-2.315 0-4.192-1.643-4.192-3.67 0-2.026 1.877-3.67 4.192-3.67 2.316 0 4.197 1.644 4.197 3.67M157.215 365.525c-1.837 2.87 5.022 6.613 6.226 4.984.35-3.165-2.095-6.605-6.226-4.984M202.457 332.013v6.514l-4.14-.65 4.14-5.864M295.83 318.236c-2.414 1.117-4.008 2.81-3.947 5.658l-2.502-6.054 6.448.396M313.64 354.836c-2.414 1.117-4.519 3.321-4.458 6.172l-2.502-6.054 6.96-.118" fill="#000"/></g></svg>