<?xml version="1.0" encoding="UTF-8"?>
<svg width="512px" height="512px" viewBox="0 0 512 512" version="1.1" xmlns="http://www.w3.org/2000/svg" xmlns:xlink="http://www.w3.org/1999/xlink">
    <!-- Generator: Sketch 42 (36781) - http://www.bohemiancoding.com/sketch -->
    <title>dallas-cowboys</title>
    <desc>Created with Sketch.</desc>
    <defs></defs>
    <g id="NFL" stroke="none" stroke-width="1" fill="none" fill-rule="evenodd">
        <g id="dallas-cowboys">
            <g id="svg" transform="translate(73.000000, 82.000000)">
                <polyline id="Fill-1" fill="#002244" points="253.33696 215.56436 366.531928 133.350351 226.616612 133.350351 183.336126 0.392134831 140.055639 133.350351 0.0559331551 133.350351 113.335291 215.56436 70.0557861 348.607865 183.336126 266.393857 296.616465 348.607865 253.33696 215.56436"></polyline>
                <polyline id="Fill-2" fill="#FFFFFF" points="241.642024 211.81261 335.971818 143.329202 219.361003 143.329202 183.336126 32.54425 147.310267 143.329202 30.7014144 143.329202 125.030227 211.81261 89.0063316 322.595601 183.336126 254.113174 277.66592 322.595601 241.642024 211.81261"></polyline>
                <polyline id="Fill-3" fill="#002244" points="232.591647 208.912772 312.238497 151.090531 213.726473 151.090531 183.336126 57.5330421 152.945778 151.090531 54.433754 151.090531 134.080604 208.912772 103.689275 302.383992 183.336126 244.647039 262.983957 302.383992 232.591647 208.912772"></polyline>
            </g>
        </g>
    </g>
</svg>