<svg width="512" height="512" viewBox="0 0 512 512" xmlns="http://www.w3.org/2000/svg" xmlns:xlink="http://www.w3.org/1999/xlink"><title>dallas-cowboys</title><defs><path id="a" d="M.254 349.604h369.017V.494H.254z"/></defs><g fill="none" fill-rule="evenodd"><g transform="translate(71 81)"><mask id="b" fill="#fff"><use xlink:href="#a"/></mask><path fill="#FFF" fill-rule="nonzero" mask="url(#b)" d="M369.271 134.028h-140.03L184.635.494l-44.61 133.534H0l114.726 82.22-44.041 133.61 113.95-81.482 113.96 81.326-44.055-133.449 114.731-82.225"/></g><path fill="#024" fill-rule="nonzero" d="M255.635 97.385l-41.028 122.627H86.492l105.105 75.32-40.422 122.622 104.482-74.695 104.448 74.695-40.44-122.623 105.11-75.319H296.66L255.635 97.385"/><path fill="#FFF" fill-rule="nonzero" d="M255.635 131.182l-32.992 99.325H118.87l85.138 61.01-32.742 99.322 84.625-60.497 84.112 60.497-32.742-99.317 85.142-61.015H288.623l-32.988-99.325"/><path fill="#024" fill-rule="nonzero" d="M255.635 160.393l-25.93 78.467h-81.972l67.251 48.2-25.871 78.466 66.862-47.796 66.179 47.796-25.876-78.463 67.256-48.203h-81.972l-25.927-78.467"/></g></svg>