<svg width="512" height="512" viewBox="0 0 512 512" xmlns="http://www.w3.org/2000/svg"><title>denver-broncos</title><g fill="none"><path d="M257.859 384.978c-.454.5-1.122.685-1.76.826-1.048.231-2.084.009-2.919-.625-.685-.518-1.113-1.245-1.164-1.952 0-.012-7.803-25.41-7.803-25.41-4.366-13.007-10.967-26.969-23.77-39.316-15.465-14.92-38.267-25.236-69.699-31.531-27.4-5.487-45.437-10.204-58.48-15.297-12.516-4.88-19.9-9.964-27.134-16.093-18.44-15.614-31.294-35.53-32.13-60.605 0 0 18.347 25.924 38.512 13.542 9.529-5.851 16.386-5.017 16.386-5.017-6.202-6.848-10.778-15.78-12.002-25.5-.976-7.773-.539-16.418 1.892-25.646 4.275-16.234 15.246-28.137 15.246-28.137s-4.635 38.49 13.433 51.895c11.138 6.266 22.575 3.741 22.575 3.741s-15.003-6.95-17.105-29.245c-.924-9.806.527-17.51.912-19.479 0 0 19.806 27.953 39.65 16.474 4.435-2.568 27.857-14.672 37.955-17.355 14.823-3.934 29.493-4.212 43.597-.826 11.715 2.816 23.149 8.17 33.991 15.926 19.326 13.82 31.838 31.762 36.32 38.832 0 0 38.901-1.707 60.184 25.492l49.268 21.777-5.586 3.57c15.945 10.439 43.82 28.389 51.408 34.856l14.147 6.741-2.576 6.822c-.167.467-3.994 11.407 3.227 16.825l3.63 2.722-11.044 29.511-2.808-3.775c-15.47-21.31-30.083-25.248-37.433-25.397-8.308-.176-8.894 4.254-7.863 6.158 3.343 6.18 21.976 9.382 28.88 10.084l4.7.608-17.948 16.084-32.54-2.046.428-6.53c-.167-1.255-2.367-12.165-28.979-23.113-4.674 2.097-13.958 5.701-25.34 6.309-13.715.74-26.445-2.958-37.835-10.991-4.739 1.528-13.75 5.05-22.755 11.235-16.72 11.487-25.837 26.515-27.108 44.666 0 0-1.464 14.963-1.922 27.384.008.171-.189 1.31-.638 1.806z" fill="#024"/><path d="M258.497 383.172c.008.171-.189 1.31-.638 1.806-.454.5-1.122.685-1.76.826-1.048.231-2.084.009-2.919-.625-.685-.518-1.113-1.245-1.164-1.952 0-.012-.004-.021-.004-.038l-.009.004-7.79-25.376c-4.366-13.007-10.967-26.969-23.77-39.316-15.465-14.92-38.267-25.236-69.699-31.531-27.4-5.487-45.437-10.204-58.48-15.297-12.516-4.88-19.9-9.964-27.134-16.093-18.44-15.614-31.294-35.53-32.13-60.605 0 0 18.347 25.924 38.512 13.542 9.529-5.851 16.386-5.017 16.386-5.017-6.202-6.848-10.778-15.78-12.002-25.5-.976-7.773-.339-16.401 1.892-25.646 3.796-15.725 14.849-27.25 14.96-27.43 0 0-4.35 37.783 13.719 51.188 11.138 6.266 22.575 3.741 22.575 3.741s-15.003-6.95-17.105-29.245c-.924-9.806.527-17.51.912-19.479 0 0 19.806 27.953 39.65 16.474 4.435-2.568 27.857-14.672 37.955-17.355 14.823-3.934 29.493-4.212 43.597-.826 11.715 2.816 23.149 8.17 33.991 15.926 19.326 13.82 31.838 31.762 36.32 38.832 0 0 38.901-1.707 60.184 25.492l.034.047 49.234 21.73-5.586 3.57-.24.158.248.158c15.937 10.123 43.811 28.073 51.4 34.54l.018.017.025.017 14.104 6.707-2.576 6.822v.005c-.167.462-3.994 11.402 3.227 16.82l3.63 2.722s.043.026.077.056l-.034.09-11.087 29.365-2.808-3.775c-15.47-21.31-30.083-25.248-37.433-25.397-8.308-.176-8.894 4.254-7.863 6.158 3.343 6.18 21.976 9.382 28.88 10.084l4.7.608-17.948 16.084-32.54-2.046-.132-.008.012-.137.548-6.386v-.043c-.167-1.21-2.367-12.12-28.979-23.069l-.072-.026-.077.035c-4.525 2.088-13.81 5.692-25.191 6.3-13.715.74-26.445-2.958-37.835-10.991l-.077-.052-.094.026c-4.568 1.554-13.578 5.076-22.584 11.26-16.72 11.488-25.837 26.516-27.108 44.667 0 0-1.464 14.963-1.922 27.384" fill="#024"/><path d="M152.402 183.128c-23.324 7.16-39.864 7.08-50.557-.248-9.117-6.245-14.613-17.33-15.119-36.222-7.02 21.901-3.655 39.26 6.532 50.911 8.078 9.24 21.844 15.361 36.83 16.375 29.912-13.713 60.68-22.444 91.448-25.962-8.373-14.244-32.896-15.978-69.134-4.854" fill="#FB4F13"/><path d="M265.038 153.484c-10.149-7.589-20.828-12.87-31.744-15.7-13.188-3.415-26.907-3.33-40.737.39-8.959 2.41-29.21 12.352-36.795 16.285-19.943 10.337-32.844-3.034-37.698-8.072l-.218-.222c.458 2.747 1.374 7.725 3.582 12.814 2.761 6.352 6.755 11.021 11.87 13.884 9.156 5.115 21.895 4.392 37.87-2.157 17.78-7.284 32.702-9.518 44.337-6.625 10.487 2.606 20.135 10.961 25.828 22.359a259.56 259.56 0 0 1 57.431 4.074c-9.652-14.941-21.308-27.743-33.726-37.03" fill="#FB4F13"/><path d="M461.911 290.198c.052-4.816 1.336-8.736 1.606-9.49l-8.394-3.92-.035-.008-.017-.026c-5.183-5.607-61.313-40.9-61.878-41.26l-.214-.137.21-.132 4.147-2.765-38.04-16.11-.039-.017-.03-.043c-15.444-23.087-45.874-24.007-51.717-23.964 11.592 3.582 15.132 7.105 16.026 9.455.595 1.57.005 2.55-.025 2.593l-.06.103-.116-.034c-131.252-35.773-238.624 46.532-243.118 50.05 5.153 5.2 16.736 12.211 58.373 21.452 9.288-7.255 53.583-38.747 120.427-36.89l-10.847-16.388s41.41 10.76 65.042 23.896c-1.824 17.496 9.019 34.355 26.5 39.517 12.53 3.698 25.452.505 34.71-7.37l29.699 18.952-28.495-11.055c-12.114 8.765-28.115 11.817-43.426 6.843-18.945-6.154-31.509-22.872-33.294-41.516-64.143-16.106-111.438 24.452-120.889 33.38 7.64 2.423 14.69 5.166 21.086 8.226 7.79 3.732 14.806 8.017 20.957 12.802 4.751-5.795 23.692-25.698 60.017-26.001 0 0-35.665 9.227-47.03 38.28 10.098 11.693 15.298 24.058 19.296 35.858.908-11.218 4.495-21.515 10.706-30.61 5.08-7.43 11.904-14.082 20.277-19.766 14.25-9.677 28.255-13.238 28.396-13.272l.077-.017.064.047c28.898 23.296 60.71 4.952 61.027 4.764l.069-.035.073.026c8.894 3.398 16.41 7.203 22.322 11.325 4.743 3.296 8.476 6.797 11.095 10.409 4.071 5.598 4.187 9.63 4.165 10.465l21.552 1.412 6.318-5.397c-19.587-2.534-25.524-8.62-26.735-13.837-2.106-12.58 10.735-14.129 16.586-13.367 13.647 1.78 30.233 14 36.479 22.505l4.623-12.417c-6.297-4.78-7.573-11.62-7.526-16.516" fill="#FFF"/><path d="M45.039 215.036s8.42 43.476 70.923 7.567c-17.306-5.466-20.837-17.184-41.55-6.574-18.42 9.442-29.373-.993-29.373-.993" fill="#FB4F13"/><path d="M385.92 239.69a4.879 4.879 0 0 1-5.205 4.148c-2.688-.202-4.7-2.551-4.499-5.244a4.927 4.927 0 0 1 1.533-3.184c-14.404-7.07-21.946-8.145-21.946-8.145 17.451 11.582 24.9 21.246 24.9 21.246l4.72-3.218 44.124 24.623c-17.555-14.317-32.16-23.866-43.627-30.226" fill="#024"/><path d="M376.218 238.595a4.883 4.883 0 0 0 4.499 5.243 4.885 4.885 0 0 0 5.205-4.147c-.694-.385-1.379-.762-2.055-1.121l-4.815 3.535 1.34-5.367c-.904-.467-1.786-.908-2.642-1.327a4.907 4.907 0 0 0-1.532 3.184" fill="#FB4F13"/><path d="M379.052 242.106l4.816-3.535a135.393 135.393 0 0 0-3.48-1.832l-1.336 5.367zm76.656 39.632c-10.393 4.156 2.997 16.067 2.997 16.067-29.116-22.98-2.997-16.067-2.997-16.067M329.05 206.692c18.825.38.145-7.606.145-7.606s13.552 2.08 21.432 14.65c-7.44-2.867-15.577-5.568-21.578-7.044" fill="#024"/></g></svg>