<svg width="512" height="512" viewBox="0 0 512 512" xmlns="http://www.w3.org/2000/svg"><title>detroit-lions</title><g fill="none"><path d="M421.25 195.93s5.322-4.575 10.904-4.48c5.589.094 9.464 1.96 11.546 4.2 0 0 4.455-.602 9.282.725 4.831 1.323 11.645 5.3 14.3 9.938 2.65 4.638 2.96 9.975.2 15.021 0 0 .933 3.438-1.338 7.7-2.275 4.258-5.976 6.468-5.976 6.468s-2.54 6.31-9.172 9.242c-6.621 2.938-15.324-.38-15.324-.38s-4.933.963-8.673.956c-3.737-.007-8.973-1.612-10.566-2.37 0 0-4.455 6.511-5.676 8.08 0 0 6.066 5.267 12.694 7.35 6.625 2.077 11.835 3.025 14.864 5.205 3.026 2.177 4.171 4.306 4.171 4.306s4.63-.71 9.078.328c4.452 1.043 9.658 4.547 13.063 9.188 3.409 4.633 5.49 10.602 4.073 16.278-1.419 5.68-4.667 7.744-4.667 7.744s-1.582 5.228-4.798 8.447c-3.22 3.22-7.798 3.427-7.798 3.427s-2.52 3.387-9.057 4.426c-6.53 1.04-11.207-2.566-11.207-2.566s-5.162.58-12.173-1.597c-7.004-2.18-11.802-9.352-11.802-9.352s-4.575-2.198-13-2.577c-8.419-.376-27.253-4.164-35.635-9.038 0 0-4.925 2.373-19.862 3.15 0 0-2.213-6.749-6.537-10.132 0 0-12.844 7.12-16.913 9.012-4.069 1.896-11.608 5.177-18.16 5.571 0 0-1.717 10.715-4.845 16.487-3.12 5.775-9.115 10.07-14.211 11.757 0 0 7.397 2.629 11.28 8.404 3.879 5.775 5.206 12.122 2.552 17.234-2.647 5.111-5.64 6.493-5.64 6.493s-1.51 5.162-7.496 7.853c-5.983 2.69-13.511 1.254-13.511 1.254s-4.153 2.188-9.859 2.144c-5.713-.044-12.873-4.907-12.873-4.907s-18.714 1.717-24.285 1.254c-5.567-.463-12.173-2.771-15.309-10.989 0 0-3.416 2.862-8.527 5.32-5.112 2.46-14.799 7.207-21.74 12.17l.23 3.692s10.15 3.829 10.813 14.241c.664 10.412-5.031 14.28-6.632 15.374 0 0-2.173 4.693-6.81 7.062-4.638 2.366-9.753 1.265-9.753 1.265s-11.447 5.079-20.161-3.252c-8.706-8.33-6.249-17.325-6.15-19.505.094-2.176.71-21.255.641-22.126 0 0-4.335-5.793-3.387-12.33.944-6.53 5.965-10.602 8.327-12.59 2.366-1.986 5.206-5.297 6.625-10.317 1.422-5.017 1.516-15.24 1.99-19.027.474-3.788.668-10.125.668-10.125s-17.136-4.736-26.035-14.678c-8.9-9.938-11.357-17.135-13.632-26.979-2.271-9.84-3.88-19.778-12.92-25.364 0 0-5.921 1.7-12.732-1.046-6.821-2.745-10.985-8.236-15.338-13.632-4.353-5.392-19.877-7.857-25.371-8.141 0 0 11.645-12.873 27.358-18.364 15.714-5.49 23.195-3.314 28.401-.38 5.206 2.936 9.304 7.88 11.233 14.591 0 0 10.252 4.437 17.26 12.673 7.006 8.236 10.313 15.524 12.588 24.518 2.271 8.991 5.126 19.907 23.202 23.866 0 0 10.69-10.708 14.758-13.362 4.069-2.647 9.18-4.149 10.65-4.58 1.465-.437 8.345-2.672 8.345-2.672s10.806-8.808 12.563-10.572c0 0 4.036-7.164 6.592-11.332 2.556-4.163 6.555-8.301 6.555-8.301s-5.246-9.738-4.954-20.41c0 0 2.58 1.167 4.892 1.5 0 0-.15-7.905 4.962-15.197 5.108-7.288 10.27-11.86 10.27-11.86s-.382-9.603 5.418-18.703c0 0-4.422-7.109-4.801-11.655 0 0 7.382-.66 12.968-2.272 5.585-1.607 8.327-2.745 11.17-6.154 2.837-3.405 9.655-11.736 18.266-15.808 8.619-4.069 18.178-5.56 25.043-5.006 0 0-4.214-3.605-8.852-5.122 0 0 7.922-5.844 23.56-7.514 0 0 .105-7.915 1.808-12.079 0 0 20.733 14.197 31.146 18.266 10.416 4.076 17.985 5.396 23.384 8.05 5.392 2.65 9.191 7.54 10.084 10.536 0 0 5.815 2.242 10.267 5.367 4.451 3.124 7.014 10.66 7.014 10.66s8.411 3.347 17.121 8.652c8.714 5.3 19.396 16.479 19.396 16.479s-6.73 2.957-12.45 11.222c0 0-2.64 9.18-6.968 13.697" stroke="#000" stroke-width="2" fill="#000"/><path d="M409.066 199.761s3.915-.084 7.36.875c3.442.963 5.63 2.1 5.63 2.1s2.537-1.619 3.817-2.742c1.283-1.119 5.13-3.12 8.568-2.559 3.441.561 5.877 3.008 6.5 4.069 0 0 2.95.175 5.67.014 2.72-.16 7.761.799 11.764 4.003 4.007 3.201 7.69 7.937 2.804 14.256 0 0 1.043 3.999-.397 6.88-1.444 2.883-5.163 4.465-5.163 4.465s-2.286 6.822-7.649 8.586c-5.363 1.761-12.097-1.538-12.097-1.538s-6.318 1.538-10.882 1.217c-4.565-.32-9.552-4.17-9.552-4.17s-1.094.649-2.133 2.165c-1.04 1.52-8.9 12.538-10.733 14.474 0 0 7.689 7.467 15.297 10.584 7.606 3.124 11.448 3.61 13.446 4.167 2.002.558 6.406 3.044 8.01 7.846 0 0 4.885-1.2 8.09-.963 3.197.24 6.318.883 11.922 6.647 5.607 5.764 4.327 10.97 3.442 13.369-.88 2.399-4.193 4.462-4.193 4.462s-.285 4.827-3.168 7.387c-2.884 2.563-6.793 2.122-6.793 2.122s-1.538 2.92-5.541 4.123c-4.003 1.203-8.324-.89-10.325-2.486 0 0-8.25.721-13.614-1.915-5.359-2.643-7.875-7.827-7.875-7.827s-9.096-3.7-18.538-3.788c-9.447-.077-27.741-5.184-33.728-9.556 0 0-9.107 4.135-16.435 4.244 0 0-2.25-6.858-10.19-11.62 0 0-16.99 9.41-23.07 12.21-6.086 2.8-16.79 3.814-18.361 3.99 0 0 .667 2.577-.135 6.744-.802 4.156-3.362 12.323-5.524 15.046-2.162 2.72-8.166 6.085-11.692 7.368-3.522 1.28-7.922 2.4-11.608 4.244-3.682 1.838-8.167 5.582-10.128 7.354 0 0 5.662 1.432 7.372 1.363 1.717-.073 4.761-1.753 7-2.636 2.242-.878 8.567-2.078 13.613 1.681 5.042 3.766 7.686 8.648 7.525 12.334-.16 3.682-2.537 6.35-6.07 8.177 0 0-1.054 5.192-5.458 6.789-4.408 1.604-11.743.142-11.743.142s-3.47 2.26-7.634 2.501c-4.16.24-9.764-3.361-10.646-3.839-.882-.485-1.761-.959-3.285-.959-1.52 0-18.01 1.356-23.136 1.356-5.126 0-8.648-2.482-10.81-6.486-2.158-3.999.882-10.405 2.803-12.964 1.925-2.567 4.966-6.089 5.363-6.81.402-.722.482-1.922-.557-2.64-1.043-.718-4.386-2.359-4.386-2.359s-5.06 10.125-6.986 13.566c-1.917 3.438-4.4 7.285-9.205 10.249-4.805 2.96-14.97 7.448-20.333 10.73-5.367 3.277-8.553 6.3-8.553 6.3s.055 9.657.339 10.846c0 0 4.849.947 6.77 2.628 1.925 1.68 3.843 4.4 3.763 8.167-.08 3.759-.584 8.188-5.258 9.935 0 0-1.308 4.874-4.99 6.314-3.683 1.44-7.445.164-7.445.164s-5.046 2.556-10.329 1.437c-5.283-1.12-9.687-6.563-9.767-12.09-.08-5.527.879-25.542.879-26.822 0-1.28 0-2.64-.96-4.4-.962-1.765-3.2-6.162-2.639-8.966.558-2.803 3.442-6.085 6.085-8.327 2.64-2.242 5.844-4.484 7.445-8.968 1.6-4.481 2.964-10.646 3.124-15.367.157-4.73.74-20.093 1.772-24.26 0 0-19.87-4.407-28.838-14.656-8.965-10.248-10.486-18.415-13.049-29.381-2.563-10.97-5.818-19.36-16.278-24.81 0 0-5.575 2.712-12.782-.409-7.205-3.12-11.131-11.287-14.97-14.17-3.843-2.881-14.295-4.55-16.395-4.474 0 0 12.472-8.659 21.036-11.218 8.568-2.563 17.857-3.365 23.701 1.28 5.845 4.64 6.72 12.65 6.72 12.65s12.013 4.962 18.976 13.53c6.967 8.568 9.045 16.57 10.409 21.94 1.36 5.36 5.596 16.086 12.366 20.814 6.77 4.725 14.722 6.72 18.871 7.004 0 0 11.674-12.21 15.677-14.853 4.003-2.64 8.488-3.682 10.409-4.244 1.925-.558 8.575-2.756 8.575-2.756s11.787-10.161 14.058-11.904c0 0 6.829-11.841 8.75-14.641 1.925-2.8 7.084-9.396 7.084-9.396s-4.729-5.38-4.667-12.366c0 0 2.79.547 4.55.386 0 0-2.322-3.923-1.2-9.446 1.12-5.523 7.114-14.503 15.124-21.383 0 0-.314-5.837 1.367-11.36 1.684-5.527 5.104-9.946 5.104-9.946s-3.664-4.52-4.226-8.057c0 0 6.887-.656 11.696-2.257 4.798-1.6 8.644-5.01 8.644-5.01s9.202-12.683 20.413-16.686 22.637-2.774 22.637-2.774 5.68-3.686 8.014-4.5c0 0-4.44-5.009-8.138-6.555 0 0 8.648-2.61 16.607-1.994 0 0 .146-5.541 1.05-8.746 0 0 13.872 10 20.201 12.8 6.322 2.804 18.412 6.803 22.491 8.087 4.084 1.28 11.025 3.948 12.476 11.338 0 0 6.741 2.833 9.388 4.273 2.636 1.44 5.356 4.885 5.917 6.326.562 1.44 1.116 3.219 1.801 4.334.682 1.109 1.885 1.91 3.005 2.308 1.119.401 12.246 5.367 17.376 9.21 5.118 3.846 12.085 10.489 12.085 10.489s-6.945 5.534-8.64 8.09c0 0-2.086 6.96-5.447 11.925-3.365 4.962-8.407 6.902-8.407 6.902v1.673z" fill="#FFF"/><path d="M394.176 252.088c6.588-5.954 13.184-18.072 16.37-20.836 3.194-2.763 7.233-2.125 7.233-2.125s2.975 4.04 8.294 4.25c5.312.216 9.99-1.487 9.99-1.487s7.871 3.19 10.631 1.703c2.764-1.491 4.255-7.234 4.255-7.234s4.47-.849 4.677-2.975c.22-2.129-1.483-5.527-1.483-5.527s2.978-1.917 3.401-3.193c.427-1.273-1.064-2.975-2.34-4.04-1.277-1.06-5.958-3.617-8.291-3.19-2.34.427-9.574-.211-9.574-.211s-1.06-2.98-2.971-3.617c-1.914-.638-4.044.215-5.316 1.491-1.283 1.276-5.108 3.828-7.022 3.828-1.917 0-3.398-1.918-9.359-2.978-5.95-1.065-9.57 1.702-9.57 1.702s.558-4.408.244-7.474c-.029-.262-1.265.07-1.305-.204-.156-2.902 0-7.208 0-7.208-.638 1.703-6.274 9.363-11.167 6.814-4.889-2.552-3.503-11.706-3.503-11.706 7.656-4.678 18.502-4.036 18.502-4.036 2.122 4.677-.642 9.355-.642 9.355 9.144-2.979 11.273-14.248 12.334-16.589 1.068-2.34 5.954-5.104 5.954-5.104s-4.886-4.466-9.99-7.656c-5.108-3.19-14.463-7.226-16.165-7.868-1.703-.638-3.825-4.254-4.248-5.527-.426-1.276-1.702-5.104-4.896-6.806-3.19-1.7-12.334-5.527-12.334-5.527s1.276-1.915-.85-5.316c-2.125-3.402-9.781-4.893-22.326-9.144-12.545-4.258-21.055-11.907-21.055-11.907-.426 3.613 2.34 6.803 2.34 6.803-4.039-1.914-15.096-2.34-15.096-2.34 5.104 1.914 8.72 6.168 8.72 6.168-4.258 0-11.057 4.04-11.057 4.04 5.527 0 7.864 2.978 7.864 2.978-5.105 2.337-16.217-1.057-28.704.85-12.494 1.907-20.628 11.696-20.628 11.696 5.316-1.914 8.72-.212 8.72-.212-4.254.212-15.315 7.226-19.566 9.567-4.251 2.34-10.42 2.129-10.42 2.129 1.491 3.19 5.527 4.04 5.527 4.04-5.527 3.828-8.506 12.756-8.506 12.756 3.19-3.613 7.868-3.401 8.933-1.276 1.064 2.13-.405 6.067-4.674 9.148-3.453 2.486-11.915 9.566-16.38 15.946-4.463 6.38-5.163 11.412-5.163 11.412 5.344-2.188 7.164-.292 6.763 2.34-.711 4.463-8.597 7.934-8.597 7.934 1.91 3.19 9.129 3.405 9.129 3.405s-8.51 9.355-11.91 14.46c-3.402 5.103-9.148 15.311-10.21 16.799-1.06 1.487-13.609 11.484-15.1 12.975-1.484 1.484-14.244 4.678-17.438 6.165-3.183 1.488-14.03 11.693-17.646 16.37a38.03 38.03 0 0 0-.627.842c-5.166-.364-17.183-1.928-25.316-8.662-10.595-8.776-13.082-19.217-14.904-26.334-1.816-7.124-4.802-12.53-8.944-17.831-4.141-5.301-16.894-11.649-19.049-12.976 0 0-1.582-8.961-5.957-11.922-4.722-3.197-10.912-2.537-13.54-1.877-.8.2-1.867.565-3.049 1.013 2.465.234 4.696.773 6.519 1.243 6.001 1.56 6.398 5.775 6.398 5.775s-7.725-8.381-23.333-2.296c1.236.196 5.779 1.112 8.094 4.152 2.618 3.438 3.369 5.972 10.832 10.103 6.664 3.693 11.725-.39 11.725-.39s11.364 5.866 15.068 12.417c3.576 6.318 7.124 16.231 8.779 25.01 1.655 8.783 5.133 15.568 12.92 22.36 6.924 6.045 21.715 10.114 28.62 11.408-.197.642-.405 1.309-.616 2.002-1.703 5.53-1.703 15.523-2.337 26.366-.638 10.846-2.979 17.011-5.53 21.693-2.553 4.677-10.42 9.14-11.058 11.903-.638 2.771 2.978 5.746 3.401 9.997.427 4.255-.638 22.12-.638 24.668 0 2.552-.638 5.738.853 8.082 1.488 2.337 3.825 3.613 7.018 3.19 3.187-.426 4.467-2.34 4.467-2.34s4.677 1.914 6.803.638c2.125-1.276 1.914-5.527 1.914-5.527s3.186 0 4.04-1.065c.849-1.06 1.064-4.892-.427-6.803-1.488-1.91-8.929-2.552-8.929-2.552-.426-.85-1.702-15.312-.642-18.502 1.065-3.19 9.57-8.083 16.166-11.908 6.588-3.831 15.52-7.018 18.71-10.42 2.596-2.767 9.443-16.5 11.911-21.542.146-.314 8.342-20.486 27.956-29.419l.15-.09c-14.347 12.738-15.572 17.532-15.572 17.532s9.549-9.067 26.156-16.096c11.039-4.674 19.501-6.738 25.024-7.266-13.697 4.367-25.382 10.985-37.154 18.068-12.024 7.248-19.677 16.69-20.132 17.263 10.613 4.215 9.807 8.75 8.88 11.342-1.06 2.975-7.655 9.57-8.72 12.546-1.064 2.982-.638 6.168 4.681 6.595 5.316.423 19.987-1.488 24.664-1.276 4.678.215 7.656 4.893 12.123 4.893 4.466 0 6.591-2.98 6.591-2.98 3.194 1.065 8.932 1.703 11.273.639 2.34-1.061 1.914-5.53 1.914-5.53 3.828-.639 6.165-2.553 5.527-4.675a11.84 11.84 0 0 0-5.315-6.806c-3.194-1.918-6.165-1.276-8.51-.216-2.333 1.065-5.53 2.975-8.925 2.553-3.401-.423-16.162-3.19-16.162-3.19 3.398-9.352 14.245-16.159 19.137-17.861 4.89-1.703 14.248-4.678 17.861-7.657 3.617-2.975 5.742-13.61 5.954-15.735.211-2.122-1.7-8.932-1.7-8.932 3.829-.635 13.822-.427 21.478-3.402 4.51-1.757 13.012-6.314 19.232-9.767-13.646-7.878-40.917-5.888-40.917-5.888 28.656-5.964 48.478 1.619 48.478 1.619 9.356 2.763 14.033 11.7 14.033 11.7 5.961-.854 13.606-4.47 13.606-4.47 16.461-8.867 34.668-27.22 34.668-27.22m-12.428-96.931c1.892 0 5.844 2.577 8.593 2.749 0 0-2.406 3.266-2.75 4.123-.338.86 1.036 2.578 1.036 2.578s-5.505-4.124-7.222-5.327c-1.72-1.203-8.25-2.577-8.25-2.577s6.704-1.546 8.593-1.546m-63.977 20.117c18.918 3.45 27.318 17.65 27.318 17.65s-14.219-11.463-29.382-13.056c-15.162-1.593-29.403 4.102-29.403 4.102s12.549-12.145 31.467-8.696m-45.788 38.65c-13.307 3.15-23.77-1.641-23.77-1.641 18.312-.649 26.997-5.826 45.138-15.455 18.142-9.628 37.315-1.582 37.315-1.582-13.471-1.987-23.72 1.477-31.412 5.232-6.723 3.285-14.664 10.46-27.27 13.446m77.637 2.41c-6.07-6.527-26.593-10.559-46.105-3.234 19.512-10.562 37.606-7.507 46.9-2.738 8.873 4.557 8.075 11.848 7.922 12.84-.011.037-.011.077-.022.113 0 0 6.504-1.294 11.043-4.069.387-6.099 3.858-12.268 9.512-11.954 6.318.35 15.09 5.035 15.09 5.035-12.122 9.781-34.35 17.904-42.2 19.541 0 0 5.414-7.412-2.14-15.535" fill="#005A8B"/><path d="M457.544 289.09c-.638-2.763-3.828-6.802-7.23-8.716-3.401-1.914-7.23-.212-10.205 0-2.978.215-5.534-2.126-6.168-3.617-.638-1.488-2.556-4.251-5.104-4.678-2.552-.419-8.295-1.91-16.166-5.53-4.688-2.155-10.358-6.88-14.175-10.343-3.42 3.525-8.659 8.68-14.492 13.485-6.06 4.995-13.785 9.844-19.035 12.943 12.648 6.027 27.606 6.792 34.519 7.521 8.083.85 16.373 4.678 16.373 4.678s1.068 4.677 6.169 7.018c5.104 2.34 12.545 1.061 12.545 1.061s3.832 3.832 7.018 2.767c3.194-1.064 3.41-5.32 3.41-5.32s4.035 2.126 6.164.646c2.126-1.495 1.484-7.445 1.484-7.445 2.552 0 5.53-1.706 4.893-4.47" fill="#005A8B"/></g></svg>