<svg width="512" height="512" viewBox="0 0 512 512" xmlns="http://www.w3.org/2000/svg"><title>green-bay-packers</title><g fill-rule="nonzero" fill="none"><path d="M254.824 123C145.969 123.01 54 183.965 54 256.117c0 75.107 86.336 131.742 200.824 131.742 66.816 0 130.164-23.463 169.461-62.76 21.631-21.626 33.526-46.128 33.503-68.982-.033-35.575-20.974-68.988-58.976-94.09C360.71 136.854 309.579 123 254.824 123" fill="#FFB612"/><path d="M114.386 344.34c-34.93-23.28-54.165-54.615-54.165-88.226 0-67.594 90.933-126.888 194.604-126.898 108.424-.004 196.683 56.924 196.749 126.898.019 21.207-11.234 44.141-31.688 64.597-38.158 38.153-99.856 60.932-165.061 60.932-54.477 0-104.356-13.25-140.44-37.304" fill="#1F3731"/><path d="M341.941 221.257c-15.633-23.265-49.864-39.4-90.172-39.4-55.323 0-100.178 30.405-100.178 67.907 0 37.497 31.66 70.423 100.178 70.385 41.145-.019 74.227-17.773 89.68-41.095l-116.87.203-.358-30.334 202.874-.075c.27 2.436.553 4.807.553 7.267 0 58.387-77.375 105.72-172.826 105.72-95.442 0-172.817-47.333-172.817-105.72 0-58.382 81.973-107.505 172.817-107.854 75.616-.293 139.895 30.928 163.336 72.944l-76.217.052z" fill="#FFF"/></g></svg>