<svg width="512" height="512" viewBox="0 0 512 512" xmlns="http://www.w3.org/2000/svg"><title>houston-texans</title><g fill="none" fill-rule="evenodd"><path d="M339.27 148.603c75.371 57.423 18.013 66.026-40.835 74.408 0 0-24.845-6.86-67.878-28.268-97.596-48.545-66.871-71.415 9.835-85.25C117.61 55.94 15.283 149.181 128.18 239.851l-30.986 22.172c25.463 15.619 78.165 48.39 70.509 98.56l-26.16 18.721 79.91 36.251 63.05-28.598c.47-27.798 50.066-42.224 71.41-98.745 117.47-26.98 87.545-130.459-16.643-139.61z" fill="#FFF"/><path d="M339.27 148.603c75.371 57.423 18.013 66.026-40.835 74.408 0 0-24.845-6.86-67.878-28.268-97.596-48.545-66.871-71.415 9.835-85.25C117.61 55.94 15.283 149.181 128.18 239.851l-30.986 22.172c25.463 15.619 78.165 48.39 70.509 98.56l-26.16 18.721 79.91 36.251 63.05-28.598c.47-27.798 50.066-42.224 71.41-98.745 117.47-26.98 87.545-130.459-16.643-139.61z" stroke="#000" stroke-width="2"/><path d="M360.443 157.586c50.605 39.679 15.478 65.014-46.234 71.905 15.61 65.88-32.247 126.225-82.926 172.964l46.464-21.086c3.445-26.775 50.581-40.7 72.907-100.121 104.925-23.431 87.812-98.827 9.789-123.662" fill="#B21E35"/><path d="M285.574 228.305c-147.461-57.034-157.236-103.814-65.18-119.984-115.123-31.313-182.254 52.22-68.358 131.889l-30.571 21.866c32.459 21.72 66.85 53.867 55.178 104.462l-15.399 11.01 59.15 26.839c55.048-60.355 83.84-119.003 65.18-176.082z" fill="#06192E"/><path d="M285.574 228.305c-147.461-57.034-157.236-103.814-65.18-119.984-115.123-31.313-182.254 52.22-68.358 131.889l-30.571 21.866c32.459 21.72 66.85 53.867 55.178 104.462l-15.399 11.01 59.15 26.839c55.048-60.355 83.84-119.003 65.18-176.082z" fill="#03202F"/><path fill="#FFF" d="M248.418 320.132l-22.655-25.785-26.019 3.886 12.033-19.843-22.65-25.816 30.083 13.566 11.993-19.831 6.568 28.19 30.089 13.54-26.022 3.89z"/><path d="M360.443 157.586c50.605 39.679 15.478 65.014-46.234 71.905 15.61 65.88-32.247 126.225-82.926 172.964l46.464-21.086c3.445-26.775 50.581-40.7 72.907-100.121 104.925-23.431 87.812-98.827 9.789-123.662" fill="#A71930"/></g></svg>