<svg width="512" height="512" viewBox="0 0 512 512" xmlns="http://www.w3.org/2000/svg"><title>indianapolis-colts</title><g fill="none"><path d="M255.775 427.77c-33.015.148-58.327-9.278-70.443-15.672-23.732-12.458-43.294-28.954-60.127-51.848-24.204-32.82-28.883-59.246-30.816-73.638-1.128-7.493-2.476-25.503.052-41.66 2.857-23.313 8.16-34.925 11.95-46.288 2.942-8.08 12.453-27.522 18.09-36.438 4.799-6.989 13.554-19.867 17.12-24.413.98-1.428-.291-.752-.824-.738-1.314.319-1.986.405-3 .319-.752 0-2.27-.252-3.108-.505-4.718-1.004-11.45-6.227-10.607-15.32-.171-2.018 2.019-19.351 3.704-24.74 2.185-7.57 6.731-11.107 14.815-11.783 4.037 0 21.037-.333 28.76.866 15.462 1.538 26.787 6.037 33.514 19.671 5.384 11.95 3.537 30.635-3.866 44.94-2.527 4.88-7.583 13.973-11.958 19.862-4.037 5.89-5.723 8.927-9.255 15.487-3.537 6.898-15.32 32.653-19.357 49.482-7.684 31.41-3.366 49.492 11.445 74.066 10.945 16.325 23.736 28.112 33.662 33.496 16.334 10.264 38.638 13.13 50.25 13.13 11.61 0 33.914-2.866 50.243-13.13 9.926-5.384 22.723-17.171 33.658-33.496 14.82-24.574 19.133-42.655 11.45-74.066-4.038-16.829-15.825-42.584-19.357-49.482-3.533-6.56-5.218-9.598-9.26-15.487-4.375-5.889-9.421-14.981-11.95-19.861-7.407-14.306-9.254-32.991-3.865-44.94 6.727-13.635 18.053-18.134 33.515-19.672 7.717-1.2 24.722-.866 28.76-.866 8.083.676 12.625 4.213 14.814 11.782 1.686 5.39 3.87 22.723 3.704 24.742.838 9.092-5.893 14.315-10.611 15.32-.833.252-2.352.504-3.114.504-1.004.086-1.68 0-2.994-.319-.538-.014-1.8-.69-.829.738 3.571 4.546 12.33 17.424 17.125 24.413 5.641 8.916 15.148 28.359 18.1 36.438 3.784 11.363 9.083 22.975 11.949 46.288 2.523 16.157 1.176 34.167.043 41.66-1.933 14.392-6.608 40.818-30.816 73.638-16.834 22.894-36.39 39.39-60.127 51.848-12.116 6.394-37.424 15.52-70.439 15.672" fill="#FFF"/><path d="M255.589 395.33a3.962 3.962 0 0 0 0-7.922 3.96 3.96 0 0 0 0 7.922m-105.43-50.159a3.96 3.96 0 0 0 3.961-3.96 3.965 3.965 0 0 0-3.96-3.966 3.966 3.966 0 0 0-3.966 3.965 3.962 3.962 0 0 0 3.965 3.961m-23.57-91.566a3.96 3.96 0 0 0 3.961-3.961 3.962 3.962 0 0 0-7.922 0 3.964 3.964 0 0 0 3.961 3.96m46.46-107.724a3.964 3.964 0 0 0 0-7.926 3.962 3.962 0 0 0-3.961 3.966 3.96 3.96 0 0 0 3.96 3.96m192.34 195.33c0-2.19-1.78-3.965-3.96-3.965a3.966 3.966 0 0 0-3.966 3.965 3.964 3.964 0 0 0 7.926 0m23.566-91.566a3.959 3.959 0 0 0-3.96-3.966 3.963 3.963 0 1 0 0 7.927 3.96 3.96 0 0 0 3.96-3.961M342.5 141.92c0-2.19-1.78-3.966-3.966-3.966a3.962 3.962 0 0 0-3.96 3.966 3.96 3.96 0 0 0 3.96 3.96 3.968 3.968 0 0 0 3.966-3.96M181.965 400.98c-21.546-12.782-41.07-28.945-59.922-60.046-8.417-15.353-27.945-48.011-18.314-104.901 11.111-52.015 33.462-78.27 46.25-96.284 6.06-8.75-.162-13.801-5.047-11.945-4.094 1.552-6.898 1.647-6.898 1.647-7.24-.976-6.227-5.689-4.884-17.98l1.685-10.098c1.514-8.917 5.55-8.75 16.158-8.545 16.833.333 19.861.47 28.954 2.151 12.12 2.695 27.94 14.81 15.482 48.14-7.741 17.843-15.82 23.899-24.575 42.418-9.426 20.532-32.315 66.654-16.834 106.039 21.214 52.857 62.28 71.71 101.331 72.38 39.052-.504 84.164-23.565 102.207-72.38 15.481-39.385-7.408-85.507-16.834-106.04-8.75-18.518-16.83-24.574-24.575-42.417-12.454-33.33 3.37-45.445 15.492-48.14 9.083-1.68 12.115-1.818 28.95-2.151 10.596-.205 14.643-.372 16.152 8.545l1.69 10.097c1.347 12.292 2.352 17.005-4.884 17.981 0 0-2.814-.095-6.903-1.647-4.875-1.856-11.107 3.195-5.047 11.945 12.787 18.014 35.144 44.269 46.25 96.284 9.636 56.89-9.897 89.548-18.314 104.901-18.848 31.101-38.371 47.264-59.923 60.046-29.487 20.543-84.696 19.362-74.09 18.69 11.107.843-40.565 2.186-73.557-18.69" fill="#002C5F"/></g></svg>