<svg width="512" height="512" viewBox="0 0 512 512" xmlns="http://www.w3.org/2000/svg"><title>indianapolis-colts</title><g fill="none" fill-rule="evenodd"><path d="M345.359 155.277c-4.98-6.975-2.995-10.675.477-11.166 2.408-.342 5.287.02 6.784.02 2.644 0 7.698.323 7.273-4.847-.488-5.813-1.695-11.39-3.154-18.173-1.45-6.784-1.938-6.3-11.143-6.3 0 0-1.692-.241-15.743.727-14.05.97-25.191 2.907-25.682 21.805-.481 18.903 3.883 25.204 11.634 37.32 7.745 12.118 31.006 49.433 31.006 83.362 0 62.354-54.75 89.172-91.569 89.172-36.823 0-91.574-26.818-91.574-89.172 0-33.93 23.258-71.244 31.013-83.363 7.752-12.115 12.11-18.416 11.632-37.319-.49-18.9-11.634-20.836-25.682-21.806-14.055-.969-15.75-.727-15.75-.727-9.209 0-9.688-.484-11.147 6.3-1.451 6.783-2.661 12.36-3.146 18.172-.429 5.171 4.633 4.847 7.27 4.847 1.497 0 4.38-.36 6.785-.02 3.468.493 5.454 4.192.475 11.166-20.019 28.046-41.177 62.748-41.177 104.198 0 68.337 58.623 136.185 131.298 136.185 72.678 0 131.293-67.848 131.293-136.185 0-41.45-21.15-76.152-41.173-104.196zm-19.626 4.912a3.942 3.942 0 1 1 3.94-3.945 3.945 3.945 0 0 1-3.94 3.945zm-140.989-7.883a3.943 3.943 0 0 1 0 7.884 3.943 3.943 0 0 1 0-7.884zm-39.246 100.45a3.944 3.944 0 0 1-3.938-3.94 3.945 3.945 0 0 1 3.938-3.944 3.937 3.937 0 0 1 3.94 3.943 3.938 3.938 0 0 1-3.94 3.941zm19.383 78.027a3.946 3.946 0 0 1-3.94-3.943 3.939 3.939 0 1 1 7.878 0 3.94 3.94 0 0 1-3.938 3.943zm90.358 44.586a3.938 3.938 0 0 1-3.937-3.942 3.937 3.937 0 0 1 7.872 0 3.937 3.937 0 0 1-3.935 3.942zm90.355-44.586a3.941 3.941 0 0 1 0-7.883 3.943 3.943 0 0 1 0 7.883zm19.386-78.027a3.943 3.943 0 1 1 0-7.884 3.947 3.947 0 0 1 3.939 3.943 3.948 3.948 0 0 1-3.94 3.941z" fill="#002C5F"/><path d="M325.734 152.306a3.94 3.94 0 1 1-.002 7.882 3.94 3.94 0 0 1 .002-7.882M184.744 152.304a3.942 3.942 0 1 1 0 7.886 3.942 3.942 0 0 1 0-7.886M141.56 248.812a3.943 3.943 0 0 1 3.938-3.939 3.936 3.936 0 0 1 3.94 3.94 3.938 3.938 0 0 1-3.94 3.943 3.946 3.946 0 0 1-3.938-3.944M164.881 322.903a3.938 3.938 0 0 1 3.939 3.94 3.939 3.939 0 1 1-7.876 0 3.938 3.938 0 0 1 3.937-3.94M255.24 367.489a3.94 3.94 0 1 1 0 7.881 3.94 3.94 0 0 1 0-7.881M345.594 322.9a3.939 3.939 0 1 1 .001 7.877 3.939 3.939 0 0 1 0-7.877M361.035 248.812a3.942 3.942 0 1 1 7.884.007 3.942 3.942 0 0 1-7.884-.007" fill="#FFF"/></g></svg>