<svg width="512" height="512" viewBox="0 0 512 512" xmlns="http://www.w3.org/2000/svg"><title>jacksonville-jaguars</title><g fill="none"><path d="M182.28 254.956c.993.774 4.77 3.096 5.544 3.871 0 0 2.542-1.665 4.54-2.104 0 0-4.32 3.096-5.314 4.772 0 0 1.884-.994 3.212-.994 0 0 3.431 2.103 5.638 2.103 2.218 0 6.423-.67 6.423-.67s2.438-1.652 5.106-1.884c0 0-2.784 1.884-3.442 2.773 0 0 1.109-.115 1.779.336.658.438 2.876.877 4.875.103 1.987-.774 3.974-1.547 3.87-3.986-.115-2.437-1.548-5.314-1.548-5.314s2.61-2.183 4.055-2.865c-.347.046-3.177.474-4.945 1.202 0 0-2.206-4.437-4.54-5.87-2.333-1.432-4.655-1.663-7.197-.554-2.553 1.11-6.33 2.184-6.33 2.184s-3.49 1.675-3.952 2.345c.07-.162.705-1.479 1.64-2.207 0 0-3.2.012-5.545.116-2.322.104-4.863.335-5.198 2.542-.324 2.218.335 3.327 1.328 4.1m33.099 27.126c-2.427-2.518-4.795-3.35-6.216-1.952 0 0-.716-2.68-2.357-3.408-1.652-.728-2.772-.59-2.772-.59s-6.423 1.283-9.069 2.913c.52-.336 4.771-3.086 6.285-4.056l-3.57.82s-3.755.012-7.244-.265c-3.477-.266-11.518-1.098-13.008-.81 0 0 1.005-.692 1.606-1.05-.162 0-2.796.023-4.54 1.432 0 0-5.35.555-6.377 4.16-1.04 3.615 1.617 6.18 2.391 6.746 0 0 1.074-1.687 3.246-2.75 0 0-1.236 1.999-1.19 3.662 0 0 4.564 2.415 13.667 3.674 9.115 1.26 8.457.59 11.657 2.576 0 0 3.385-2.39 5.256-2.957 0 0-2.634 3.743-2.876 5.14 0 0 4.228 3.606 7.717 3.871 3.5.277 6.492-1.074 6.123-4.679l1.259-1.548-2.23.162.647-1.213s-.104-1.837-1.12-3.258c.173.092 1.917 1.04 3.57.59l-.486.912s1.906-.22 3.316-2.634l-1.155-.312s-.093-2.657-2.53-5.176m146.267 79.136a65.387 65.387 0 0 1-9.16 13.124c-6.113 6.781-13.633 12.153-21.87 16.023-8.56 4.02-18.324 6.943-27.842 7.313 1.698-1.814 3.397-3.616 5.072-5.417-9.37 1.628-19.086 1.893-28.466.045 1.143-.843 2.692-2.126 2.865-3.628-.647-.057-1.34-.37-1.94-.577a43.1 43.1 0 0 1-4.692-1.999c-5.626-2.75-10.812-6.4-15.549-10.49-8.295-7.162-15.284-15.78-21.153-25.023-3.546-5.58-6.411-11.575-10.34-16.901-3.373-4.563-7.29-8.71-11.598-12.384-6.735-5.777-14.43-10.363-22.528-13.921-13.077-5.73-26.051-11.923-38.331-19.236a180.218 180.218 0 0 1-10.155-6.515c-7.036-4.897-13.898-10.385-19.732-16.67-.07-.069-.208-.22-.393-.428.162-.139 1.398-1.202 2.033-1.721a51.34 51.34 0 0 1 3.408-2.484c1.098-.751 3.64-2.103 3.64-2.103.011 0 .023-.011.034-.023v.035c-.035.358-.046.74-.011 1.178 0 0 1.27-1.386 2.449-2.033 0 0-1.918 2.992-2.138 5.233 0 0-.427 3.732 3.097 5.65 3.512 1.917 8.756 3.419 10.247 4.586 0 0 2.668-1.918 4.159-2.553 0 0-3.524 3.408-4.483 6.608 0 0 2.138-2.022 3.316-2.45 0 0 3.304 2.45 5.326 2.23 2.021-.208 4.91-.104 6.076-2.772 1.179-2.657.96-3.085 1.502-3.94 0 0-1.93 1.179-3.315 2.45 0 0 .647-2.658 3.315-4.691 2.657-2.022 3.951-2.345 3.951-2.345s6.296-8.33-1.063-12.385c0 0 3.616-1.813 5.65-3.084 0 0-5.88 1.49-7.798 2.126 0 0-4.367-.855-6.713-.855-2.356 0-6.4-.312-8.213-.855-1.814-.532-3.628-1.167-3.628-1.167s1.063-.635 1.918-.855c0 0-4.136-.312-6.585 3.57-.012 0-.023 0-.035-.012.012-.312.15-1.814 1.282-3.235 0 0-2.171.994-3.396 2.369a46.688 46.688 0 0 0-2.484-.82 66.64 66.64 0 0 0-3.962-1.052 64.132 64.132 0 0 0-2.67-.589c6.933-4.586 14.603-8.006 22.494-10.675 2.634-.89 8.225-2.483 8.225-2.483a23.822 23.822 0 0 0 2.253 1.871s3.755-.9 5.557-1.606c0 0-3.766 2.646-6.7 3.917 0 0 4.47-.15 6.007-.428l-.693 1.548s1.952 1.525 6.55.832 7.532-1.675 7.532-4.055c0-2.368-.566-3.489.139-5.857 0 0-1.675.277-2.934 0 0 0 2.657-1.537 3.627-3.2 0 0-.243-1.502-.97-2.992l-.012-.012c3.685-.393 7.394-.716 11.08-.936a16.992 16.992 0 0 0-1.491-1.536c-3.709-3.42-8.896-5.615-13.551-7.105 9.265-1.236 18.634-1.606 27.957-1.93a617.345 617.345 0 0 1 16-.38c-1.12-.936-2.668-1.48-4.008-2.01 3.13-.359 6.4-.058 9.53.173-2.668-1.34-5.695-2.103-8.548-2.946-2.01-.59-4.032-1.156-6.054-1.687.035 0 .139.012.243.012.092.011.184.023.23.023.012.011.035.011.047.011 7.347.97 15.145 2.207 23.683 3.732 54.736 9.762 90.85 24.538 106.584 31.943 4.158 1.883 6.99 3.315 8.434 4.066 1.304.382 3.119.59 4.032-.74.173-.242.3-.496.392-.738l.012-.024c.162.024.289.035.38.024 3.432-.208 6.783-.543 10.109-1.456a48.012 48.012 0 0 0 2.785-.855c1.883-.647 3.708-1.41 5.51-2.241-.092 0-3.05-3.836-3.396-4.217-2.657-2.98-5.638-5.695-8.919-8.006.44-.127.913-.266 1.387-.381a5.56 5.56 0 0 1 1.444-.173c-2.634-2.611-5.892-4.69-8.988-6.632a90.394 90.394 0 0 0-3.489-2.114c-.336-.196-.67-.404-1.005-.6-.231-.14-.474-.29-.716-.428a139.322 139.322 0 0 0-4.055-2.264c8.364 2.842 16.659 6.1 24.79 9.6.625.266 1.238.531 1.85.797 6.793 2.946 13.678 6.111 19.801 10.27a29.328 29.328 0 0 1 3.801 3.027c.046.046.08.07.127.116 2.403 1.813 4.067 4.54 5.128 7.324.51 1.352.891 2.773 1.076 4.205.07.485.254 5.28-.07 5.268-.438-.023-.877-.034-1.316-.046-3.49-.046-6.978.324-10.398.994-6.111 1.213-11.807 3.523-17.618 5.683-4.205 1.572-8.213 3.651-12.49 5.084-6.052 2.033-12.44 3.015-18.84 2.53-6.608-.497-13.066-2.38-18.635-6.008-4.216-2.75-7.844-6.307-10.917-10.258a57.315 57.315 0 0 1-5.753-9.046c8.399 3.027 15.006 5.753 19.766 7.867 4.206 1.79 7.07 3.154 8.525 3.87 1.306.358 3.13.52 4.022-.82 1.848-2.796-1.537-5.025-1.537-5.025s-41.578-20.298-117.79-28.674a527.257 527.257 0 0 0-24.896-2.149c7.52.809 15.642 1.86 24.41 3.223a536.888 536.888 0 0 1 36.842 7.036 29.398 29.398 0 0 0-3.616.705 25.122 25.122 0 0 0-6.54 2.784c-3.8 2.31-6.873 5.66-9.207 9.415-4.713 7.579-6.943 16.948-7.266 25.797-.393 11.022 2.391 21.95 5.972 32.278 4.252 12.246 9.74 24.041 16.555 35.074 3.385 5.488 7.082 10.79 11.253 15.689 4.424 5.175 9.484 10.212 15.584 13.354 6.492 3.34 13.69 3.316 20.726 2.253 4.956-.75 9.762-2.726 14.475-4.344 11.079-3.789 22.678-7.867 34.577-6.585 3.928.428 8.11 1.237 11.645 3.085.543.254.474.277.173.855m86.645-150.103s-6.77-14.857-26.04-27.519c4.83-6.192 6.701-13.632 4.471-19.512-2.31-6.112-18.53-17.271-24.641-20.437-6.112-3.154-14.546-7.798-14.546-7.798s-21.672-13.147-38.702-20.575c-20.528-8.942-57.507-20.853-97.722-12.361 0 0-24.134-7.914-67.768 5.568-15.261 4.194-41.174 11.079-55.707 13.505-21.534 3.593-43.38 3.963-60.304 5.753-8.92.948-14.857-1.028-17.757 3.997-12.742 22.078 25.254 59.439 39.025 65.342-4.078 22.955 1.097 50.115 25.196 77.253 26.202 29.528 62.454 35.131 83.71 50.831 23.857 17.618 28.801 39.868 48.73 60.686 18.334 19.154 54.169 35.49 86.273 19.848 34.821-16.971 41.14-45.298 42.4-50.613.416-2.714-1.155-5.464-4.656-7.15a91.617 91.617 0 0 1-3.292-1.664c1.386-5.545 4.921-22.227 1.432-36.772 0 0-9.843 14.406-17.283 22.377-2.08-1.952-11.633-11.622-10.05-23.08 4.366-1.734 9.438-4.103 13.308-7.014a82.647 82.647 0 0 0 5.996-5.003c19.593-5.614 23.994-13.713 23.994-13.713.729 1.987 3.2 4.529 3.2 4.529 2.89-1.629 6.736-4.529 6.736-4.529.37 2.357.324 6.528.324 6.528 1.455-.543 2.875-.67 2.875-.67-1.454 7.243-9.934 19.523-9.934 19.523 29.724-8.514 42.235-30.464 42.235-30.464l-.01-.115c1.12-.231 1.906-.532 1.906-.532s19.951-5.672 29.113-25.23c9.16-19.56-7.406-38.517-12.512-40.99m-256.595 37.084s-3.2.012-5.546.116c-2.322.104-4.863.335-5.198 2.542-.324 2.218.335 3.327 1.328 4.1.994.775 4.771 3.097 5.545 3.872 0 0 2.542-1.665 4.54-2.104 0 0-4.32 3.096-5.314 4.772 0 0 1.884-.994 3.212-.994 0 0 3.431 2.103 5.638 2.103 2.218 0 6.423-.67 6.423-.67s2.438-1.652 5.106-1.884c0 0-2.784 1.884-3.442 2.773 0 0 1.109-.115 1.779.336.658.438 2.876.877 4.875.103 1.987-.774 3.974-1.547 3.87-3.986-.115-2.437-1.548-5.314-1.548-5.314s2.61-2.183 4.055-2.865c-.347.046-3.177.474-4.945 1.202 0 0-2.206-4.437-4.54-5.87-2.333-1.432-4.655-1.663-7.197-.554-2.553 1.11-6.33 2.184-6.33 2.184s-3.49 1.675-3.952 2.345c.07-.162.705-1.479 1.64-2.207m23.684 33.884c-2.427-2.518-4.795-3.35-6.216-1.952 0 0-.716-2.68-2.357-3.408-1.652-.728-2.772-.59-2.772-.59s-6.423 1.283-9.069 2.913c.52-.336 4.771-3.086 6.285-4.056l-3.57.82s-3.755.012-7.244-.265c-3.477-.266-11.518-1.098-13.008-.81 0 0 1.005-.692 1.606-1.05-.162 0-2.796.023-4.54 1.432 0 0-5.35.555-6.377 4.16-1.04 3.615 1.617 6.18 2.391 6.746 0 0 1.074-1.687 3.246-2.75 0 0-1.236 1.999-1.19 3.662 0 0 4.564 2.415 13.667 3.674 9.115 1.26 8.457.59 11.657 2.576 0 0 3.385-2.39 5.256-2.957 0 0-2.634 3.743-2.876 5.14 0 0 4.228 3.606 7.717 3.871 3.5.277 6.492-1.074 6.123-4.679l1.259-1.548-2.23.162.647-1.213s-.104-1.837-1.12-3.258c.173.092 1.917 1.04 3.57.59l-.486.912s1.906-.22 3.316-2.634l-1.155-.312s-.093-2.657-2.53-5.176m215.086-78.65s-5.88 7.255-8.791 5.025c-2.923-2.23 1.524-5.21.589-11.02-.924-5.8-19.951-25.347-43.98-39.765 0 0 11.113 4.598 21.857 10.293.08.047.173.081.254.128 2.368 1.201 4.875 2.634 7.22 4.09 3.223 1.963 6.123 3.95 8.284 5.856 0 0 4.365-5.325 1.756-11.54a9.77 9.77 0 0 0-.521-1.064c-.022-.046-.057-.092-.08-.138a19.994 19.994 0 0 0-1.444-2.149 10.427 10.427 0 0 0-1.953-1.028c-1.513-.578-2.946-.82-3.95-1.317 0 0-2.311-2.345-3.085-3.466 0 0-.243 1.028.393 2.241 0 0-1.78-1.56-3.408-1.906-1.63-.335-3.593-.993-4.102-1.375-.496-.38-1.501-1.259-1.501-1.259s.046.797.288 1.386c0 0-1.675-.127-1.964-1.883-.288-1.756 1.086-2.472 1.086-2.472s-.127-.497 0-1.12c0 0 1.502 1.663 2.218 2.09 0 0 .323-1.062-.288-2.888l-.555-.312a26 26 0 0 0-1.606-.808c-.427-.197-25.184-14.233-36.922-20.125a14.674 14.674 0 0 1-3.316-.693s-1.963-.913-2.287-1.849c0 0-.139.486.15 1.017.497.901 1.548 1.86 1.86 3.108 0 0-1.952-1.156-3.558-1.987-1.41-.728-4.367-1.571-6.042-2.82a3.651 3.651 0 0 1-.797-.773 3.423 3.423 0 0 1-.186-.231 2.774 2.774 0 0 1-.346-.728c-.034-.104-.046-.196-.069-.289 0-.046-.023-.08-.023-.127-.023-.127-.023-.231-.023-.312 0-.138.011-.22.011-.22.058.035.058.047.093.07.011.023.046.046.08.07.024.022.07.057.116.092.705.6 1.456 1.27 2.333 1.513.059.023.138.046.22.058-.034-.035-.046-.07-.082-.104a.668.668 0 0 0-.09-.104c-.07-.07-.14-.162-.22-.254a10.902 10.902 0 0 1-1.595-2.31c-9.588-4.749-21.05-9.797-36.553-12.847-22.307-4.402-37.28-.693-37.28-.693s4.4.265 13.575 3.477c.577-.185 1.351-.497 2.033-.982 1.317-.947 2.172-1.132 2.738-1.132.566 0 3.004 2.911 3.004 2.911s-.266-2.253-.74-4.147c0 0 2.403-.208 3.316 0 1.34.312 2.45.762 2.923.762.473 0 .67-.566.67-.566s.843.555.843 1.225c0 0 1.894 1.317 1.894 2.553 0 1.224-.29 2.83 0 3.593 0 0-.473.277-1.235-.948 0 0-1.226 1.04-2.45 1.04a4.09 4.09 0 0 0-1.501.3c4.228 1.895 9.01 4.217 14.394 7.094 0 0 .611.427 1.063.762 0 0 .44-1.79.728-2.068 0 0 .553.497.67.786 0 0 .104-.786-.058-1.675 0 0 1.502-1.225 2.669-1.34 1.178-.116 1.629-.116 2.01-.335 0 0 .265-.936-.127-1.941 0 0 1.964 1.143 2.357 2.61 0 0 .173-.889.115-1.79 0 0 2.057-.335 3.57.058 1.502.381 2.518.9 2.853 1.455.335.555 1.271 2.426.751 2.83-.531.405-1.478.567-1.767 1.017-.277.44-.381.832-.774 1.11-.381.277-.901.346-.901.346s-.104 1.548.289 2.334c0 0-.798-.104-1.192-1.052 0 0 .186.878-.38 1.502-.554.612-.935.994-1.49 1.155 0 0-1.375-1.305-1.49-1.813 0 0 .15 3.084-.381 2.507 0 0-2.901-2.565-3.479-2.877 0 0-1.248.185-1.743.127-.509-.046-2.23-.716-2.565-1.282 0 0-.058.67.888 1.34 0 0-.853-.139-1.177-.289 0 0-.497.566-1.386.797 0 0 .89 1.005 1.282 1.386 0 0-1.756-.311-2.553-1.155 0 0-1.016.046-2.137-.289-1.11-.335-1.79-.22-2.796-.057-1.005.161-1.167.057-1.894-.116-.728-.162-2.727-1.282-2.727-1.282s.335.89.67 1.178c0 0-.173.728-1.79.277-1.618-.45-1.676-.947-2.507-1.455-.844-.497-1.398-1.225-1.226-1.837.163-.612.671-1.063.671-1.063s.497.45 1.386.843c0 0-1.501-1.894-1.675-2.564 0 0 .786.161 1.179.22 0 0 .277-1.064 2.622-1.56a29.18 29.18 0 0 1 1.976-.359 257.36 257.36 0 0 0-25.901-6.63 4.189 4.189 0 0 0-.44.6c-.15.243-.278.497-.404.762-.381.786-.67 1.583-1.282 2.103 0 0-4.84-1.513-6.4-2.287 0 0 2.449 2.01 4.159 2.922 0 0-1.468 2.438-6.598 1.872 0 0-2.367 1.028-4.227.832-1.849-.197-4.667-1.421-5.245-2.369-.578-.97-.508-2.957 1.478-4.112 0 0 2.716 1.652 4.056 2.414 0 0-2.392-2.98-2.207-3.94 0 0 .855-.704 1.872-1.316a120.34 120.34 0 0 0-3.605-.44c-10.963-1.235-20.656-1.42-29.447-.923.693 1.005.554 1.94 1.109 2.946.67 1.224-.312 1.779-.312 1.779-.74-.601-3.79-1.895-3.79-1.895 1.156 1.097 2.15 2.622 2.15 2.622-.74.428-2.681.81-4.772.913-2.091.093-5.06 1.825-5.06 1.825-1.248-.37-2.31-1.64-3.362-2.61-.196-.174-.381-.324-.52-.451-.046-.046-.104-.08-.138-.116a.502.502 0 0 1-.081-.069c-.035-.011-.07-.046-.104-.07.046.047.092.22.127.336 0 .011 0 .023.011.034 0 .012 0 .024.012.035.07.185.139.358.208.532.15.346.312.704.497 1.04.531 1.016 1.166 1.975 1.802 2.922.011.012.023.046.035.058.265.427.508.82.716 1.144.092.127.173.242.242.37.024.034.035.057.047.08a.808.808 0 0 1 .08.127c.035.07.07.104.093.139.011.023.035.058.046.08.035.035.046.07.058.093-.266-.335-1.098-.497-1.502-.635-.023-.012-.046-.012-.07-.023a11.947 11.947 0 0 1-1.975-1.04c-.011-.012-.023-.023-.034-.023-.29-.208-1.133-.97-1.48-.844 0 0-.068.012-.207.07-.035.011-.093.011-.139.034-.08.035-.173.058-.265.081a7.469 7.469 0 0 0-.335.081c-.104.035-.22.058-.347.081-.15.023-.324.058-.497.092-.3.047-.589.081-.89.104h-.046c-.37.012-.785.024-1.201.012-2.149-.127-4.771-1.952-6.597-3.8a2.803 2.803 0 0 1-.878-2.023c-1.906.451-3.777.925-5.603 1.421-2.726.636-17.56 3.951-32.717 7.36.093 1.05-.346 2.183-.346 2.772 0 1.051.843 1.849.843 1.849-1.733.138-4.794-1.017-4.794-1.017.866 1.236 3.362 2.657 3.362 2.657s-.359 1.375-1.502 1.848c-1.144.474-2.01.29-3.431.185-1.433-.092-2.67.578-4.483.67-1.814.093-4.032-1.028-4.032-1.028 1.999.185 3.49-1.167 3.49-1.167-2.566-.289-3.363-1.236-3.651-1.802-.208-.416-.844-.982-1.433-1.398-11.125 2.484-19.732 4.413-19.732 4.413-7.059.948-12.754 1.664-12.754 1.664-2.091.15-4.194.277-6.285.393-11.518.612-23.047.346-34.542 1.051a83.72 83.72 0 0 1-5.106.15h-.07c.936.208 1.872.462 2.796.716 1.26.335 2.507.694 3.755 1.075 4.205 1.26 8.375 2.68 12.488 4.274 2.033.786 4.055 1.618 6.054 2.484 2.125.936 4.228 1.918 6.296 2.958.566-.867 3.12-.867 3.12-.867l-.324-.67s.716.45 1.605.393c.07 0 .116-.012.174-.023.242-.093.462-.174.647-.243.289-.185.531-.439 1.097-.624.948-.335 2.265-.196 2.265-.196.358-.647 1.94-1.27 1.94-1.27-.312-.29-.693-.602-.693-.602.636-.104 2.091.197 2.704.266.415-.035.75-.07.878-.139.023-.011.034-.023.057-.034.174-.139.29-.428.127-.682-.3-.277-.97-.485-1.432-.693-.532-.243-.59-.59-.6-.693-.012-.012-.012-.023-.024-.046-.555.115-1.825-.428-1.825-.428s1.063-.058 1.34-.242c.127-.07.381-.197.705-.312a4.71 4.71 0 0 1 1.351-.405c.844-.104 1.849.67 1.849.67s.89.162 1.779-.173c.912-.312 2.772-.277 2.68-.254-.578.104-1.155.497-1.71.497.45 0 1.063.312 1.421.566 1.652 1.12-.439 2.576-1.513 3.096-1.64-.185-2.657.462-2.657.462s2.114 0 2.01.612c-.116.613-1.063 1.005-2.068 1.225-1.005.22-1.79 1.224-1.79 1.224.45.058.843.497.843.497s-1.063.116-1.225.231c-.173.104-.728 1.34-1.178 1.895-.44.554-1.999.947-1.999.947.716.393 3.004.67 3.004.67-1.26.45-2.738.532-3.247.555.358.22 3.847 2.437 3.974 2.518.012 0 .012.012.024.012a195.89 195.89 0 0 0 4.008 2.484c4.136 2.437 8.4 4.655 12.905 6.33 1.363.451 2.714.97 4.09 1.398 1.524.474 3.072.878 4.62 1.237 1.421.323 2.865.577 4.298.797 2.565.38 5.175.531 7.763.462 2.611-.058 5.21-.416 7.787-.89 2.98-.554 5.938-1.201 8.849-2.045.485-.127.959-.277 1.433-.416 4.02-1.236 7.913-3.015 11.668-4.932a86.98 86.98 0 0 0 2.923-1.502.185.185 0 0 0 .069-.047.165.165 0 0 0 .07-.023c-.059.07-6.979 5.811-10.375 7.89-.74.451-1.49.902-2.253 1.34a90.965 90.965 0 0 1-3.778 2.023 56.319 56.319 0 0 1-3.269 1.57c-.578.255-1.155.498-1.744.729-.035.011-.058.034-.093.046-7.209 2.865-14.556 3.847-22.32 4.401-6.677.474-16.404.74-26.351-.496-16.359-2.045-25-7.544-25-7.544 14.938 2.622 22.84 2.16 26.432 1.56-5.452-3.466-10.143-7.833-16.243-11.657-14.579-9.104-28.361-14.81-43.264-13.436 0 0 4.887 1.201 8.33 5.811-1.075 4.529 4.794 14.58 13.643 22.273 1.536 1.34 3.2 2.785 5.014 4.229l-6.666-.15c4.69 3.038 17.12 7.128 17.12 7.128-2.725.912-7.416 1.663-7.416 1.663.3.347 9.277 5.002 26.005 5.696 9.173.37 18.3-1.237 26.756-4.818.08-.035.139-.07.196-.092a5.96 5.96 0 0 1 .266-.15c.035-.012.058-.012.07-.024-.024.023-.232.255-.67.647-5.084 4.656-11.576 7.475-18.184 9.289a77.087 77.087 0 0 1-10.86 2.125c-.566.07-1.12.127-1.698.185-.231.081-.393.185-.45.312-1.803 5.626-1.86 11.703-1.549 17.549a75.56 75.56 0 0 0 1.12 9.38c.012.012.012.035.012.046.405-.404.89-.843 1.444-1.293 0 0 1.676-1.387 4.598-1.814 0 0-.034-.046-.127-.116a1.265 1.265 0 0 0-.127-.115c-.624-.532-1.582-.797-2.426-.924-.23-.058-.45-.081-.647-.104.058 0 .254-.047.555-.093 1.825-.381 3.985-.716 5.753-.335.046 0 .08 0 .127.023 1.074.243 2.022.96 2.6 1.883.057.104.103.197.15.29.069.126.127.253.173.38a2.536 2.536 0 0 1 .15.486c.035.127.058.254.08.38 0 .024.012.059.012.082a3.312 3.312 0 0 1-.277 1.79c-.693 1.537-1.952 4.471-1.952 5.58 0 .509-2.623 2.334-3.327 3.05-.047.046-.081.093-.116.127.07 0 .15-.011.22-.011.046-.012.115-.012.173-.023.774-.07 1.536-.208 2.31-.29.428-.034.82-.069 1.133-.069h.034s1.802 3.35 3.2 4.471c1.398 1.11 2.646 3.478 3.073 5.291.012 0 .035.012.047.012.173.012.37-.046.577-.127a.157.157 0 0 1 .07-.023c.069-.023.15-.058.242-.104a9.86 9.86 0 0 0 .52-.243c.266-.104.52-.22.786-.335.22-.104.473-.242.75-.381l.07-.035s-2.634 3.882-5.707 5.707c.196.035 2.645.393 3.858-.127.012 0 .023-.011.035-.011 0 0 .208 4.632-4.31 9.623-.311.347 3.363 4.702 5.615 7.255.093.104.174.196.255.3.069.081.15.162.196.231.173.197.347.382.474.52.138.174.242.29.3.347.162-.139 1.398-1.202 2.033-1.721a51.34 51.34 0 0 1 3.408-2.484c1.098-.751 3.64-2.103 3.64-2.103.011 0 .023-.011.034-.023v.035c-.035.358-.046.74-.011 1.178 0 0 1.27-1.386 2.449-2.033 0 0-1.918 2.992-2.138 5.233 0 0-.427 3.732 3.097 5.65 3.512 1.917 8.756 3.419 10.247 4.586 0 0 2.668-1.918 4.159-2.553 0 0-3.524 3.408-4.483 6.608 0 0 2.138-2.022 3.316-2.45 0 0 3.304 2.45 5.326 2.23 2.021-.208 4.91-.104 6.076-2.772 1.179-2.657.96-3.085 1.502-3.94 0 0-1.93 1.179-3.315 2.45 0 0 .647-2.658 3.315-4.691 2.657-2.022 3.951-2.345 3.951-2.345s6.296-8.33-1.063-12.385c0 0 3.616-1.813 5.65-3.084 0 0-5.88 1.49-7.798 2.126 0 0-4.367-.855-6.713-.855-2.356 0-6.4-.312-8.213-.855-1.814-.532-3.628-1.167-3.628-1.167s1.063-.635 1.918-.855c0 0-4.136-.312-6.585 3.57-.012 0-.023 0-.035-.012.012-.312.15-1.814 1.282-3.235 0 0-2.171.994-3.396 2.369a46.688 46.688 0 0 0-2.484-.82 66.64 66.64 0 0 0-3.962-1.052 64.132 64.132 0 0 0-2.67-.589c6.933-4.586 14.603-8.006 22.494-10.675 2.634-.89 8.225-2.483 8.225-2.483a23.822 23.822 0 0 0 2.253 1.871s3.755-.9 5.557-1.606c0 0-3.766 2.646-6.7 3.917 0 0 4.47-.15 6.007-.428l-.693 1.548s1.952 1.525 6.55.832 7.532-1.675 7.532-4.055c0-2.368-.566-3.489.139-5.857 0 0-1.675.277-2.934 0 0 0 2.657-1.537 3.627-3.2 0 0-.243-1.502-.97-2.992l-.012-.012c3.685-.393 7.394-.716 11.08-.936a16.992 16.992 0 0 0-1.491-1.536c-3.709-3.42-8.896-5.615-13.551-7.105 9.265-1.236 18.634-1.606 27.957-1.93a617.345 617.345 0 0 1 16-.38c-1.12-.936-2.668-1.48-4.008-2.01 3.13-.359 6.4-.058 9.53.173-2.668-1.34-5.695-2.103-8.548-2.946-2.01-.59-4.032-1.156-6.054-1.687.035 0 .139.012.243.012.092.011.184.023.23.023.012.011.035.011.047.011 7.347.97 15.145 2.207 23.683 3.732 54.736 9.762 90.85 24.538 106.584 31.943 4.158 1.883 6.99 3.315 8.434 4.066 1.304.382 3.119.59 4.032-.74.173-.242.3-.496.392-.738l.012-.024c.162.024.289.035.38.024 3.432-.208 6.783-.543 10.109-1.456a48.012 48.012 0 0 0 2.785-.855c1.883-.647 3.708-1.41 5.51-2.241-.092 0-3.05-3.836-3.396-4.217-2.657-2.98-5.638-5.695-8.919-8.006.44-.127.913-.266 1.387-.381a5.56 5.56 0 0 1 1.444-.173c-2.634-2.611-5.892-4.69-8.988-6.632a90.394 90.394 0 0 0-3.489-2.114c-.336-.196-.67-.404-1.005-.6-.231-.14-.474-.29-.716-.428a139.322 139.322 0 0 0-4.055-2.264l-.048-.023c.025-.012.048-.012.06-.012h.172c4.922 0 9.901-.208 14.846-.08.554.01 5.44.23 5.707.253a172.88 172.88 0 0 1 13.505 1.387c.762.104 1.523.23 2.287.335 3.893.589 7.775 1.351 11.622 2.206.034.012.07.023.116.035 2.114.705 4.447 1.017 6.608 1.571 1.213.324 2.426.636 3.639.97 2.667.728 5.314 1.502 7.936 2.357 1.676.543 3.35 1.098 5.014 1.699.44.15 2.518 1.213 2.82.993.83-.59 5.498-3.835 9.149-4.54 4.02-.774 7.785-2.288 7.785-6.816-.392-4.725-4.123-9.624-8.19-12.893m-41.497 19.478c-4.678-.428-8.375 1.675-8.375 1.675s13.736 0 18.75 4.344c5.025 4.355 3.685 7.705 3.685 7.705s5.013 8.04 6.365 11.38c0 0 9.37-8.7 10.04-14.73 0 0-18.196-9.254-30.465-10.374m-57.047 106.85l.705 7.763 5.395 3.512c1.548-6.273-6.1-11.275-6.1-11.275m-26.166-55.487c-5.13-16.116-24.168-19.235-24.168-19.235s15.596 6.365 16.012 51.42c.138 15.157 4.77 21.57 4.77 21.57-7.867-4.194-9.934-19.663-10.64-31.643-.357-6.089-2.83-35.756-25.519-43.08-13.782-4.46-20.402-.67-20.402-.67s10.629 2.541 16.624 13.47c9.058 16.44 2.611 45.506 9.37 61.033 8.352 19.201 23.636 24.376 23.636 24.376 20.044-10.767 24.342-27.507 24.342-27.507-17.157-8.896-8.907-33.607-14.025-49.734m58.468 47.932s-12.154 19.466-17.63 23.486c0 0-1.317-3.177-2.923-4.76 0 0-6.665 4.506-7.994 6.978.139-.254-1.201-2.102-1.34-2.345-.751-1.236-1.513-2.45-2.438-3.557-2.657 1.57-5.742 3.857-7.14 6.665a35.134 35.134 0 0 0 2.589-7.001 33.97 33.97 0 0 0 .784-4.574c.544-5.292-.137-10.676-1.847-15.701 0 0-6.308 15.457-13.575 23.024-7.278 7.556-11.252 9.485-11.714 10.56-.462 1.05-.554 4.886 7.982 3.8 8.527-1.109 14.546-7.463 14.546-7.463s11.68-2.172 21.937-.774c0 0 2.855 3.096 6.91 2.808 4.055-.278 12.487-16.163 11.853-31.146m-18.53-43.334c1.34 13.713-10.837 26.097-10.837 26.097 19.743-5.545 30.106-21.418 33.295-27.125.335-.844.589-1.537.739-1.988-7.36 1.756-15.492 3.097-23.198 3.016m72.366-12.235c-2.854-.658-6.366 1.214-8.33 2.473-.37-.774-1.074-1.456-2.403-1.918-4.008-1.352-8.953 2.46-8.953 2.46.416-2.91-3.57-2.079-3.731-2.056-1.179.093-6.123 1.664-9.058 3.304-4.332 1.514-10.05 3.35-16.37 4.876 1.19 6.746.82 11.483.82 11.483 6.713-3.477 12.27-10.628 15.654-15.78.728 3.465 3.651 8.155 3.651 8.155 4.702-2.923 8.883-7.15 8.883-7.15 1.444 2.61 1.202 8.098 1.202 8.098 3.305-1.075 6.262-3.212 8.168-4.818-2.114 11.195-8.884 22.055-8.884 22.055 7.925-2.982 23.06-19.086 24.041-23.476.96-4.378-.485-6.758-4.69-7.706m28.534-20.933c-.126.023-.23.035-.311.046-1.19.185-3.512-.173-3.201-1.86.186-1.04 1.618-1.917 2.52-2.287 2.564-1.04 5.071-2.022 7.37-3.57.832-.554 1.617-1.155 2.334-1.86.195-.185 1.247-1.028 1.213-1.34a24.479 24.479 0 0 0-1.826-6.781 16.203 16.203 0 0 1-1.363 2.472c-1.41 2.403-3.154 3.512-3.79 3.859-.925.52-2.726 1.062-3.546-.532-.832-1.583 1.456-2.946 1.456-2.946 3.385-2.437 4.748-4.91 5.302-6.527-1.813-2.807-3.559-4.286-3.559-4.286s-4.85 12.119-17.57 18.288c-9.127 4.436-17.503 9.588-22.864 15.723a35.695 35.695 0 0 0-2.102 2.703l.104.012c12.893 1.433 19.224 6.885 21.302 9.53.152.186.267.347.371.497l.046-.011c.797-.139 13.735-2.472 21.742-11.299a10.42 10.42 0 0 1-.866 0c-1.976-.08-9.531.127-7.625-3.673.636-1.271 2.9-.925 4.032-.855 1.94.115 3.87.323 5.811.22 2.68-.15 3.177-2.577 3.847-4.795.635-2.149 1.017-4.17 1.19-6.077-2.957 3.766-8.272 5.037-10.017 5.35" fill="#000"/><path d="M200.336 245.876c2.541-1.11 4.864-.878 7.197.554 2.334 1.433 4.54 5.869 4.54 5.869 1.768-.728 4.598-1.155 4.945-1.202-1.444.682-4.055 2.865-4.055 2.865s1.432 2.877 1.548 5.315c.104 2.437-1.883 3.211-3.87 3.985-1.999.774-4.217.335-4.875-.104-.67-.45-1.78-.335-1.78-.335.659-.89 3.443-2.772 3.443-2.772-2.668.23-5.106 1.883-5.106 1.883s-4.205.67-6.423.67c-2.207 0-5.638-2.103-5.638-2.103-1.329 0-3.212.994-3.212.994.994-1.675 5.315-4.772 5.315-4.772-1.999.44-4.54 2.103-4.54 2.103-.775-.774-4.552-3.096-5.546-3.87-.993-.774-1.652-1.883-1.328-4.101.335-2.207 2.876-2.438 5.198-2.542 2.345-.104 5.546-.115 5.546-.115-.936.727-1.572 2.044-1.641 2.206.462-.67 3.951-2.345 3.951-2.345s3.778-1.074 6.33-2.183zm18.727 41.693c-1.41 2.414-3.316 2.634-3.316 2.634l.485-.913c-1.652.45-3.396-.496-3.57-.589 1.017 1.421 1.121 3.258 1.121 3.258l-.647 1.213 2.23-.162-1.26 1.548c.37 3.605-2.622 4.956-6.122 4.68-3.49-.267-7.717-3.871-7.717-3.871.242-1.398 2.876-5.14 2.876-5.14-1.871.565-5.256 2.957-5.256 2.957-3.2-1.987-2.542-1.317-11.657-2.577-9.103-1.259-13.667-3.673-13.667-3.673-.046-1.664 1.19-3.663 1.19-3.663-2.172 1.063-3.246 2.749-3.246 2.749-.774-.565-3.431-3.13-2.391-6.746 1.028-3.604 6.377-4.159 6.377-4.159 1.744-1.41 4.378-1.432 4.54-1.432-.6.358-1.606 1.051-1.606 1.051 1.49-.289 9.53.543 13.008.809 3.49.277 7.244.265 7.244.265l3.57-.82c-1.514.97-5.765 3.72-6.285 4.055 2.645-1.629 9.069-2.911 9.069-2.911s1.12-.139 2.772.59c1.64.727 2.357 3.407 2.357 3.407 1.421-1.398 3.79-.566 6.215 1.952 2.438 2.519 2.53 5.176 2.53 5.176l1.156.312zm184.946-36.24c-.185-1.433-.566-2.854-1.075-4.206-1.062-2.784-2.726-5.51-5.129-7.324-.046-.046-.08-.07-.127-.116a29.328 29.328 0 0 0-3.8-3.026c-6.124-4.16-13.01-7.325-19.802-10.27-.612-.266-1.225-.532-1.85-.798-8.132-3.5-16.426-6.758-24.79-9.6a141.29 141.29 0 0 1 4.055 2.264c.242.139.485.289.716.428.335.196.669.404 1.005.6a90.395 90.395 0 0 1 3.489 2.115c3.096 1.94 6.354 4.02 8.988 6.63a5.606 5.606 0 0 0-1.444.174c-.474.116-.948.254-1.387.381 3.281 2.31 6.262 5.026 8.919 8.006.347.381 3.304 4.217 3.396 4.217-1.802.832-3.627 1.594-5.51 2.241-.924.312-1.849.6-2.784.855-3.328.913-6.678 1.248-10.109 1.456-.092.011-.22 0-.381-.023l-.012.023c-.092.242-.22.496-.393.739-.912 1.329-2.726 1.12-4.031.74-1.444-.752-4.276-2.184-8.434-4.067-15.734-7.405-51.848-22.181-106.584-31.943-8.538-1.525-16.336-2.761-23.683-3.732-.012 0-.035 0-.046-.011-.047 0-.14-.012-.232-.023-.104 0-.207-.012-.242-.012 2.022.532 4.043 1.098 6.053 1.687 2.854.843 5.88 1.606 8.55 2.946-3.131-.231-6.4-.532-9.532-.174 1.34.532 2.889 1.075 4.01 2.01a617.34 617.34 0 0 0-16.001.382c-9.323.323-18.692.693-27.958 1.93 4.656 1.49 9.843 3.684 13.552 7.104.531.485 1.028.994 1.49 1.537-3.685.219-7.394.542-11.079.935l.012.012c.727 1.49.97 2.992.97 2.992-.97 1.664-3.628 3.2-3.628 3.2 1.26.277 2.935 0 2.935 0-.705 2.368-.139 3.489-.139 5.857 0 2.38-2.934 3.362-7.532 4.055-4.598.693-6.55-.832-6.55-.832l.693-1.548c-1.537.278-6.008.428-6.008.428 2.935-1.271 6.7-3.917 6.7-3.917-1.801.705-5.556 1.606-5.556 1.606s-1.132-.808-2.253-1.871c0 0-5.591 1.594-8.225 2.484-7.89 2.668-15.562 6.088-22.493 10.674.9.173 1.79.381 2.668.59a66.64 66.64 0 0 1 3.963 1.05 46.688 46.688 0 0 1 2.484.82c1.224-1.374 3.396-2.367 3.396-2.367-1.132 1.42-1.27 2.922-1.282 3.234.012.012.023.012.035.012 2.449-3.882 6.585-3.57 6.585-3.57-.855.22-1.918.855-1.918.855s1.814.635 3.627 1.167c1.814.543 5.858.855 8.214.855 2.346 0 6.712.855 6.712.855 1.918-.636 7.798-2.126 7.798-2.126-2.033 1.27-5.649 3.085-5.649 3.085 7.36 4.054 1.063 12.384 1.063 12.384s-1.294.323-3.95 2.345c-2.67 2.033-3.317 4.69-3.317 4.69 1.387-1.27 3.316-2.449 3.316-2.449-.543.855-.323 1.283-1.502 3.94-1.167 2.668-4.055 2.564-6.076 2.772-2.022.22-5.326-2.23-5.326-2.23-1.179.428-3.316 2.45-3.316 2.45.959-3.2 4.483-6.608 4.483-6.608-1.49.635-4.16 2.553-4.16 2.553-1.49-1.167-6.735-2.669-10.247-4.586-3.523-1.918-3.096-5.65-3.096-5.65.22-2.24 2.138-5.233 2.138-5.233-1.179.647-2.45 2.033-2.45 2.033a6.599 6.599 0 0 1 .012-1.178v-.035c-.012.012-.023.023-.035.023 0 0-2.541 1.352-3.639 2.103a51.34 51.34 0 0 0-3.408 2.484c-.635.52-1.871 1.582-2.033 1.721.185.208.323.358.393.427 5.834 6.285 12.696 11.773 19.732 16.67 3.315 2.288 6.7 4.46 10.154 6.517 12.28 7.312 25.254 13.505 38.332 19.235 8.098 3.558 15.792 8.144 22.528 13.92 4.309 3.674 8.225 7.822 11.599 12.385 3.927 5.326 6.792 11.322 10.34 16.902 5.868 9.242 12.857 17.86 21.152 25.023 4.737 4.09 9.923 7.739 15.55 10.49a42.986 42.986 0 0 0 4.69 1.998c.6.208 1.294.52 1.941.578-.173 1.501-1.721 2.784-2.865 3.626 9.38 1.85 19.096 1.584 28.466-.045-1.675 1.802-3.374 3.604-5.072 5.418 9.52-.37 19.281-3.292 27.842-7.313 8.237-3.87 15.758-9.242 21.869-16.023a65.387 65.387 0 0 0 9.161-13.124c.3-.578.37-.6-.173-.855-3.535-1.85-7.717-2.657-11.645-3.084-11.9-1.283-23.498 2.795-34.577 6.585-4.714 1.617-9.52 3.592-14.476 4.343-7.035 1.063-14.232 1.086-20.725-2.252-6.1-3.143-11.16-8.18-15.584-13.355-4.171-4.899-7.868-10.201-11.253-15.689-6.816-11.034-12.303-22.828-16.555-35.074-3.581-10.329-6.365-21.256-5.972-32.279.323-8.848 2.553-18.217 7.266-25.796 2.334-3.754 5.407-7.104 9.208-9.415a25.122 25.122 0 0 1 6.538-2.784 29.397 29.397 0 0 1 3.616-.705 536.887 536.887 0 0 0-36.84-7.035 522.211 522.211 0 0 0-24.412-3.224 527.257 527.257 0 0 1 24.896 2.15c76.213 8.375 117.791 28.673 117.791 28.673s3.385 2.23 1.536 5.025c-.89 1.34-2.716 1.179-4.02.82-1.455-.716-4.32-2.079-8.526-3.87-4.76-2.114-11.367-4.84-19.766-7.867a57.314 57.314 0 0 0 5.753 9.046c3.073 3.95 6.7 7.509 10.917 10.258 5.569 3.628 12.026 5.511 18.635 6.008 6.4.485 12.788-.497 18.84-2.53 4.276-1.433 8.285-3.512 12.49-5.083 5.811-2.16 11.507-4.471 17.618-5.684 3.42-.67 6.909-1.04 10.397-.994.44.012.878.023 1.317.046.324.012.14-4.782.07-5.268z" fill="#FFF"/><path d="M379.635 150.186c.957-.242 1.42-.242 1.793-.208 0 0 .046-.579-.418-1.087 0 0 2.718 1.63 3.978 2.936l-.337-1.179s2.174.544 3.179 1.515c1.005.96 1.503 2.046 1.802 2.543.288.509 1.09 2.184.753 2.68-.337.51-.834.51-.834.51s-3.016-1.803-3.813-2.185c0 0 1.513 2.347 1.721 2.89 0 0-2.6-.381-3.272-1.294 0 0-2.925-.716-3.975-1.422-1.04-.717-1.885-1.803-1.885-2.394 0 0 1.677.799 2.522 1.18 0 0-2.267-2.728-2.972-3.387 0 0 .786-.844 1.758-1.098m-2.566-3.757s-2.417-2.128-3.262-2.866c0 0 1.181 2.797 1.366 3.398 0 0-2.278.08-3.514-.878-1.238-.96-3.017-2.093-2.556-2.093 0 0 .555.034 1.02.106 0 0-1.413-1.701-3.828-1.84 0 0-1.469.335-3.158-.52-1.686-.866-2.39-1.746-2.39-1.746s-.924-1.027-1.1-2.347c0 0 1.655 1.158 2.465 1.48 0 0-1.46-2.08-1.46-3.316 0 0 1.042-.21 2.348.288 1.318.497 1.679.104 1.679.104s-.569-.739-.788-1.491c0 0 1.663 1.387 2.37 1.7 0 0 2.058-.636 3.619.034 1.556.67 3.327 2.404 3.605 2.726.265.303 1.317 1.1 1.446 1.193-.106-.14-.925-1.238-1.147-2.104.127.08 1.158.75 1.621.982.495.256 1.445 1.249 1.63 1.883.171.638-.857 1.666-.857 1.666s1.352 1.734 1.352 2.44c0 .703-.461 1.201-.461 1.201m-12.012 10.045s-1.777-.74-3.338-.74c0 0-.696 1.052-2.348.706-1.654-.335-3.271-1.595-3.271-1.595s1.48.067 2.657.067c0 0-.52-.588-1.918-.888-1.408-.289-2.242-.533-3.237-1.308 0 0-.243.788.417 1.308 0 0-2.22.59-2.59-1.63-.369-2.22-1.63-2.068-.74-3.7.878-1.606 2.716-1.617 2.775-1.617 0 0-1.585-.971-2.624-1.562 0 0 3.63.96 6.437 2.659 0 0-.219-1.11-.887-1.699 0 0 1.93-.59 4.078.891 2.138 1.479 2.219 2.809 3.85 3.918 1.63 1.11.659 2.82-.08 3.26 0 0 .52 1.33.82 1.93m-15.327-18.587c-.08 1.03-.822 1.85-2.081 2-1.26.14-2.001-.37-2.439.22-.44.589-1.11 1.178-1.781 1.328 0 0-4.289-2.658-6.15-3.629 0 0 1.563 2 1.93 2.82 0 0-2.586.22-4.368-.52-1.778-.739-2.97-1.364-4.22-1.907-1.259-.531-2.59-2.312-2.59-2.312s2.072.96 3.18 1.26c0 0-1.849-2.08-1.92-2.74 0 0 1.4-.37 2.069-1.19.626-.763 2.462-1.26 3.85-1.328h.3c1.411 0 4.892 1.848 6.59 3.109 0 0-1.48-2.07-2.589-3.109 0 0 2.659 0 3.329-.22.672-.232 2.219-.382 3.33.138 1.039.485 1.63 1.56 1.697 1.7-.137-.058-1.236-.523-2.068-.73 0 0 0 .891 1.78 2.152 1.78 1.247 2.219 1.918 2.15 2.958m-12.38 15.19s1.944 1.768 2.452 2.727c0 0-1.006.82-1.33 1.41-.311.578-1.178 1.918-2.15 2.288 0 0-1.031 1.33-2.14 1.412-1.11.068-1.86-.186-2.6-.22-.728-.035-3.699 0-5.917-2.221 0 0 3.177.441 3.998.441 0 0-2.82-2.07-3.41-2.96 0 0 .822-.52.74-1.26-.07-.74-.3-1.41.45-2.22 0 0 2.591.891 4.14 1.11 0 0-1.699-1.711-3.4-3.108 0 0 1.053-.106 2.3.39 0 0 .513-.103 1.7-1.061 1.178-.96 3.48-.706 4.807.173 1.331.865 2.592 2.648 2.592 2.648s1.56.809 2.589 2.507c0 0-2.693-1.757-4.82-2.056m-16.206-13.41s-1.54-.38-2.137-.59c.113.175 1.028 1.49 1.247 2.208 0 0-1.399.925-2.474 1.169-1.075.243-1.376.542-1.965 1.2-.592.671-2.082 1.48-3.561 1.262-1.423-.21-4.254-1.041-4.496-1.1.161.151 1.423 1.389 1.976 2.36 0 0-1.616.808-4.29 1.19 0 0-2.438 0-3.476-.301-1.043-.3-2.001-.822-2.07-1.48-.083-.67.509-1.41.509-1.41s2.149.82 3.41 1.04c0 0-3.181-2.96-4.3-3.78 0 0 2.229.37 3.56.82 0 0-.15-.82-.673-1.71-.517-.879.452-1.768.892-1.998.45-.222 2.519-1.03 3.04-1.4 0 0-1.33-1.11-2.823-1.93 0 0 2.892.3 4.373.74 0 0 1.191.08 2.45-.44 1.26-.52 1.698-.52 2.738-.37 1.028.151 1.157.44 1.84.508.681.082 1.34.013 1.34.013s-.44-.6-1.55-1.041c0 0 2.372.302 3.481 1.04 0 0 1.917.336 3.028 1.422 1.122 1.087-.07 2.577-.07 2.577m-31.685-7.63c-1.247 1.03-2.772 1.632-2.772 1.632s.183 1.283.912 2.023c0 0-1.399-.127-2.568-.798 0 0-1.038 1.168-1.155 1.653-.126.486-1.65 2.44-2.565 3.109-.914.67-2.81 1.4-2.81 1.4s1.69 2.426 3.088 3.41c-.36-.151-5.063-2.21-6.993-4.197 0 0-.185 1.469.3 2.196 0 0-2.313 1.04-4.935.428-2.475-.578-4.95-2.348-5.225-2.554.288.046 2.577.473 4.057.473 0 0-3.354-1.643-3.965-3.293-.613-1.642-.427-3.538 1.41-4.393 1.827-.856 3.41-.729 3.41-.729s4.404 2.068 6.957 2.68c0 0-3.35-2.195-4.205-3.604 0 0 2.38.07 3.05-.36.67-.427 1.155-1.524 2.44-1.953 1.282-.427 2.624-.554 2.624-.554s-1.214-.672-1.526-1.04c0 0 2.508.669 3.305.669 0 0 2.196.127 3.168.255.98.116 2.808-.497 4.335-.011 1.527.498.912 2.52-.337 3.559m-41.67-3.351c-.15 1.087-.924 3.872-2.393 4.497-1.48.612-1.873.727-1.873.727v3.226s-2.197-1.965-2.657-2.591c0 0-.59.024-2.139-.207-1.55-.23-3.411 2.404-6.278 2.174 0 0-4.717-1.007-5.49-2.949-.775-1.93-.473-3.56-.161-4.102 0 0 1.63 2.092 2.785 2.703 0 0-1.075-2.472-1.075-4.021 0 0 .925-.694 1.075-1.398.16-.695 1.943-1.782 3.028-2.013 1.086-.23 2.15.231 2.15.231s1.272 2.89 2.197 3.977c0 0-.394-5.676.07-7.687 0 0 1.178 2.613 1.803 3.467 0 0 1.295-.138 3.155-.45 1.862-.312 3.48-.15 4.566.924 1.087 1.087 1.399 2.404 1.237 3.492m-43.417 2.935c-.231 2-2.798 3.769-3.49 4.22-.684.462-1.965 1.374-2.348 2.658-.38 1.294-1.744 2.127-2.589 2.208-.831.07-1.965 1.283-1.965 1.283 1.191.29 2.868-.219 3.088-.29-.175.152-1.62 1.319-2.256 1.817-.682.531-2.957 1.063-3.79.982-.845-.07-1.678 0-4.254-.07-2.589-.082-5.548-.31-6.438-1.942-.845-1.549-1.203-1.595-1.239-1.595-1.825.832-5.617.798-5.617.798 3.653-1.514 6.775-4.935 6.775-4.935-1.965.832-4.197 1.166-4.197 1.166-.313-.532-.37-1.086-.3-2.23.081-1.132 1.143-1.747 1.143-1.747s.07-.6.833-1.595c.764-.98 3.341-2.345 4.786-2.426 1.446-.082 3.258-.832 4.254-1.515.982-.681 4.473-2.127 6.218-1.976 1.745.15 2.44.45 2.44.45.983-.07 3.179-.45 3.179-.45-2.88 2.277-4.704 3.11-4.704 3.11 3.338-.383 6.229-1.746 6.229-1.746 3.41.231 4.473 1.826 4.242 3.825m-54.847 9.212s1.398.787 1.478 2.684c.081 1.896-.38 2.726.081 4.021.45 1.295-.312 2.196-2.127 3.26 0 0-1.827.382-3.653.231 0 0 1.375.682 1.977.763 0 0-1.977 1.665-4.785.982 0 0-3.41 2.048-5.998 1.677-2.58-.38-3.18-1.445-3.18-1.445s3.075-.554 5.27-.854c0 0-4.01-.925-5.305-1.676 0 0 .404-1.874 1.247-2.706.835-.844.637-1.052.637-1.052s-3.294-.774-4.508-1.225c0 0 3.871-.591 5.087-1.04 0 0-.462-.936 1.063-2.15 1.514-1.215 2.808-2.429 3.409-3.12.613-.684 3.573-.753 5.238-.303 1.674.463 1.663.463 2.577.463.913 0 4.796-.38 4.796-.38s-.763 1.201-3.304 1.87m280.935 62.595s-5.872 7.26-8.785 5.027c-2.924-2.23 1.526-5.212.591-11.016-.928-5.802-19.954-25.348-43.987-39.763 0 0 11.121 4.59 21.86 10.288 13.131 2.16 16.208-1.26 16.912-2.672a20.03 20.03 0 0 0-1.446-2.148 10.376 10.376 0 0 0-1.951-1.029c-1.516-.578-2.947-.821-3.954-1.318 0 0-2.31-2.336-3.075-3.456 0 0-.244 1.017.392 2.232 0 0-1.78-1.56-3.41-1.897-1.627-.335-3.595-.993-4.103-1.374-.497-.382-1.503-1.261-1.503-1.261s.047.797.289 1.387c0 0-1.674-.126-1.964-1.884-.289-1.756 1.087-2.474 1.087-2.474s-.128-.496 0-1.121c0 0 1.504 1.664 2.22 2.092 0 0 .323-1.064-.29-2.89-.184-.105-.37-.207-.555-.313a26.552 26.552 0 0 0-1.607-.807c-.428-.198-25.186-14.23-36.92-20.125a14.616 14.616 0 0 1-3.317-.694s-1.964-.913-2.29-1.85c0 0-.137.486.15 1.017.498.902 1.55 1.862 1.86 3.111 0 0-1.953-1.158-3.558-1.99-1.41-.727-4.36-1.572-6.044-2.82a3.942 3.942 0 0 1-.798-.773 1.508 1.508 0 0 1-.175-.233 2.69 2.69 0 0 1-.346-.727 1.499 1.499 0 0 1-.07-.29c-.01-.047-.024-.08-.024-.127-.022-.127-.022-.231-.022-.312 0-.139.012-.22.012-.22.047.035.057.046.082.07a.3.3 0 0 0 .09.069c.023.024.07.058.116.093.695.601 1.446 1.271 2.325 1.514.067.023.148.047.217.058-.023-.035-.044-.07-.08-.104-.023-.035-.057-.069-.09-.104-.061-.07-.14-.163-.222-.253a10.565 10.565 0 0 1-1.583-2.316c-9.594-4.737-21.05-9.788-36.563-12.84-22.298-4.404-37.278-.693-37.278-.693s4.405.265 13.58 3.48c.58-.186 1.343-.498 2.025-.984 1.32-.946 2.174-1.133 2.739-1.133.568 0 3.006 2.913 3.006 2.913s-.266-2.254-.74-4.148c0 0 2.404-.21 3.317 0 1.344.312 2.453.761 2.927.761.474 0 .669-.566.669-.566s.844.555.844 1.227c0 0 1.897 1.317 1.897 2.553 0 1.226-.29 2.832 0 3.595 0 0-.475.277-1.237-.948 0 0-1.225 1.04-2.452 1.04-.579 0-1.1.14-1.503.301 4.23 1.885 9.015 4.207 14.393 7.085 0 0 .61.43 1.062.763 0 0 .44-1.791.73-2.068 0 0 .554.498.67.787 0 0 .102-.787-.058-1.678 0 0 1.503-1.225 2.668-1.34 1.182-.117 1.632-.105 2.012-.335 0 0 .265-.937-.127-1.93 0 0 1.966 1.143 2.356 2.6 0 0 .176-.89.118-1.792 0 0 2.058-.335 3.572.06 1.502.39 2.507.9 2.844 1.455.337.555 1.271 2.428.75 2.831-.531.406-1.479.568-1.757 1.017-.277.44-.39.833-.784 1.11-.382.277-.892.347-.892.347s-.104 1.55.289 2.334c0 0-.796-.102-1.19-1.05 0 0 .183.878-.38 1.502-.556.612-.94.995-1.493 1.157 0 0-1.377-1.307-1.49-1.816 0 0 .151 3.086-.38 2.508 0 0-2.906-2.565-3.484-2.878 0 0-1.247.185-1.742.127-.507-.046-2.232-.716-2.566-1.284 0 0-.06.673.888 1.342 0 0-.854-.138-1.176-.29 0 0-.498.568-1.39.8 0 0 .892 1.004 1.286 1.385 0 0-1.76-.311-2.557-1.156 0 0-1.015.047-2.128-.289-1.12-.335-1.793-.22-2.798-.058-1.003.163-1.167.058-1.893-.114-.73-.163-2.73-1.283-2.73-1.283s.336.89.672 1.18c0 0-.174.727-1.792.275-1.618-.45-1.678-.948-2.509-1.455-.843-.497-1.398-1.225-1.223-1.838.161-.613.668-1.064.668-1.064s.498.451 1.386.843c0 0-1.5-1.895-1.674-2.566 0 0 .786.162 1.18.218 0 0 .276-1.061 2.622-1.558a30.11 30.11 0 0 1 1.979-.358 260.635 260.635 0 0 0-25.906-6.623 4.135 4.135 0 0 0-.439.602 7.556 7.556 0 0 0-.404.76c-.382.788-.672 1.585-1.284 2.104 0 0-4.844-1.514-6.402-2.287 0 0 2.449 2.012 4.159 2.923 0 0-1.469 2.439-6.589 1.862 0 0-2.37 1.03-4.232.831-1.847-.195-4.667-1.41-5.246-2.368-.577-.961-.51-2.949 1.48-4.105 0 0 2.716 1.654 4.056 2.417 0 0-2.392-2.982-2.207-3.942 0 0 .855-.705 1.872-1.318-1.19-.162-2.393-.31-3.605-.44-10.959-1.236-20.657-1.421-29.454-.923.696 1.005.555 1.94 1.11 2.947.67 1.226-.312 1.78-.312 1.78-.73-.602-3.78-1.896-3.78-1.896 1.156 1.099 2.14 2.624 2.14 2.624-.73.428-2.672.81-4.764.913-2.091.094-5.062 1.826-5.062 1.826-1.25-.37-2.312-1.64-3.363-2.612-.197-.172-.383-.324-.523-.45-.045-.047-.104-.081-.137-.116a.419.419 0 0 1-.081-.07c-.035-.01-.07-.046-.104-.068.046.045.092.219.126.333 0 .014 0 .024.012.036 0 .011 0 .023.011.035.07.186.14.358.21.531.148.347.311.706.496 1.04.531 1.019 1.167 1.976 1.804 2.925.01.011.022.036.034.047.266.427.508.82.716 1.143.093.128.174.244.243.37.023.035.033.058.046.082.036.046.058.08.082.127.036.07.07.104.091.138.012.023.036.058.048.082.033.035.045.068.055.093-.264-.337-1.096-.498-1.5-.636-.024-.012-.048-.012-.07-.024a11.912 11.912 0 0 1-1.977-1.04c-.012-.012-.024-.023-.034-.023-.289-.197-1.135-.971-1.479-.843 0 0-.072.022-.209.07-.035.01-.091.021-.14.044-.08.023-.173.046-.264.07-.104.024-.21.057-.335.092-.104.023-.22.046-.348.07-.15.034-.324.057-.497.093-.3.056-.589.08-.89.104h-.046c-.37.022-.786.033-1.202.011-2.139-.128-4.762-1.953-6.589-3.792a2.807 2.807 0 0 1-.879-2.022c-1.907.452-3.78.924-5.606 1.42-2.727.636-17.558 3.954-32.712 7.354.092 1.051-.347 2.184-.347 2.773 0 1.053.843 1.85.843 1.85-1.733.138-4.797-1.018-4.797-1.018.868 1.237 3.364 2.659 3.364 2.659s-.358 1.375-1.504 1.85c-1.143.473-2.011.288-3.432.184-1.434-.092-2.67.58-4.485.672-1.815.092-4.034-1.03-4.034-1.03 2.001.185 3.49-1.167 3.49-1.167-2.565-.29-3.362-1.237-3.652-1.804-.208-.416-.843-.982-1.422-1.4-11.13 2.487-19.742 4.417-19.742 4.417-7.05.948-12.75 1.664-12.75 1.664-.346.429-.81 1.133-.209 1.342 0 0 1.167.382 2.624.486 1.376.092 2.912 0 2.912 0s-5.628 2.624-6.309 2.81c-.682.195-1.561 1.073-1.561 1.073s-.022.012-.047.035c-.023.025-.068.058-.104.092a.188.188 0 0 1-.057.046l-.104.105c.394-.173.89-.336 1.351-.394.845-.114 1.85.67 1.85.67s.892.163 1.78-.172c.914-.322 2.774-.277 2.681-.255-.577.093-1.155.487-1.71.487.45 0 1.064.31 1.422.565 1.653 1.122-.44 2.577-1.514 3.097-1.64-.185-2.66.465-2.66.465s2.116 0 2.012.61c-.114.613-1.063 1.007-2.068 1.225-1.005.221-1.793 1.227-1.793 1.227.45.058.845.496.845.496s-1.064.117-1.225.231c-.174.104-.729 1.341-1.18 1.896-.44.555-2 .948-2 .948.716.394 3.006.67 3.006.67-1.26.452-2.738.533-3.248.555.357.222 3.85 2.44 3.977 2.522.01 0 .01.01.023.01.74.175 1.479.346 2.218.521 8.393 1.93 16.994 3.896 25.605 4.391 5.202.3 10.461-.484 15.57-1.386a133.26 133.26 0 0 0 9.327-1.942c-1.398 1.526-2.923 3.074-4.68 4.173.08-.023.174-.046.254-.07 10.392-2.554 20.772-5.143 31.186-7.594 6.531-1.537 13.155-2.162 19.79-2.29.728-.472 1.666-.877 2.96-.923 2.393-.08 4.67.485 6.288 1.04 2.67.115 5.341.267 8.01.462-.995-1.688-2.496-3.293-4.31-4.08 2.393 0 4.785.057 7.177.15 13.41.496 26.91 1.48 40.1 4.045 3.247.624 6.506 1.342 9.744 2.117.033-.013.243-.08.404-.407.16-.368.082-1.177.83-1.34.754-.173 2.095.498 2.43.671.335.16 2.231 1.352 2.832 1.64.348.163.497.741.555 1.238 1.78.498 3.547 1.006 5.316 1.55-.01 0-.01-.012-.023-.023-.035-.014-.068-.047-.102-.07-.046-.035-.092-.07-.151-.104-.034-.034-.08-.058-.118-.091-.09-.07-.195-.141-.308-.222-.013 0-.025-.01-.025-.01a12.334 12.334 0 0 0-.405-.278l-.103-.07c-.104-.07-.21-.15-.325-.22a.626.626 0 0 0-.147-.091l-.315-.21c-.046-.033-.104-.056-.15-.09l-.45-.279c5.467-3.953 13.153-3.087 13.153-3.087s1.759.232 3.051.673c0 0 1.759-.868 3.063-.73 1.308.138 3.666 1.365 3.888 2.115.204.753-.442 3.075-.868 4.012-.441.936-2.787 2.368-4.116 2.821 0 0-.058-.118-.16-.29-.039-.056-.083-.115-.13-.185a5.413 5.413 0 0 0-1.408-1.445c.009.035.033.116.056.22.024.07.045.138.072.22.01.057.033.126.044.195.023.058.033.118.047.175.07.243.126.531.184.809.044.242.08.473.104.681 0 0-.278.15-.682.429 7.862 3.293 14.934 7.86 21.695 13.038 3.945 3.017 7.977 6.255 12.428 8.484.276.139.542.266.821.382.74.313 1.503.578 2.24.833 4.44 1.526 9.075 1.005 13.4-.59h.01l.245-.209a9.6 9.6 0 0 0 .794-.866c.233-.3.453-.6.662-.914v-.012c.114-.184.23-.38.323-.577 1.41-2.635 1.503-5.71 1.038-8.542-.009-.128-.032-.254-.055-.393a15.27 15.27 0 0 0-.21-1.052 29.166 29.166 0 0 0-.844-2.924 34.943 34.943 0 0 0-.924-2.383 13.929 13.929 0 0 1-.277-.623c-.046-.103-.094-.197-.138-.288-.083-.174-.163-.336-.232-.488-.046-.08-.08-.161-.127-.23a2.42 2.42 0 0 1-.094-.196c-.044-.082-.078-.15-.114-.209-.033-.068-.058-.114-.07-.139a42.053 42.053 0 0 1 3.1 2.89c2.774 2.545 7.34 7.26 10.158 12.888 4.243 8.474 5.803 14.057 5.803 15.618 0 1.562-3.57 1.122-6.254.89-2.67-.219-16.285 1.121-20.979 3.352h.023c3.11-.728 6.242-1.214 9.12-1.248 8.335-.104 19.998 2.3 23.488 5.41l.151.058s2.508 1.849 1.943 4.115c-.473 1.884-2.337 3.363-5.55 3.56 0 0-.115 2.103 1.156 4.093 1.272 1.975 3.954 4.402 3.954 4.402 3.895.59 7.768 1.352 11.619 2.197.033.011.067.024.113.034 2.115.705 4.452 1.018 6.611 1.572 1.217.324 2.429.636 3.642.972a170.91 170.91 0 0 1 7.932 2.358c1.675.543 3.349 1.097 5.014 1.698.44.152 2.522 1.214 2.82.995.834-.588 5.493-3.837 9.145-4.543 4.023-.774 7.79-2.288 7.79-6.809-.393-4.727-4.125-9.627-8.195-12.9" fill="#D7A229"/><path d="M383.172 204.201c-2.058 4.244-12.982-1.455-24.702-2.506-11.711-1.053-27.475 3.49-27.475 3.49.113-.093.242-.197.38-.3 1.12-.831 2.345-1.504 3.594-2.128a60.79 60.79 0 0 1 3.144-1.468 69.968 69.968 0 0 1 11.572-3.826h.022c3.111-.728 6.242-1.214 9.12-1.248 8.335-.104 19.997 2.3 23.488 5.41.926.82 1.284 1.687.857 2.576" fill="#000"/><path d="M378.858 209.358s-.115 2.102 1.157 4.092c1.272 1.975 3.954 4.404 3.954 4.404-.762-.115-1.526-.233-2.29-.335a177.34 177.34 0 0 0-9.235-1.064 162.794 162.794 0 0 0-4.275-.323c-.266-.023-5.146-.242-5.701-.255-4.946-.128-9.929.08-14.851.08h-.244c-1.653-2.229-7.851-11.083-16.378-10.772 0 0 15.764-4.542 27.475-3.491 11.72 1.051 22.644 6.751 24.701 2.508.428-.89.07-1.756-.856-2.576l.151.056s2.508 1.85 1.943 4.117c-.473 1.883-2.337 3.361-5.55 3.559" fill="#9F792C"/><path d="M375.174 240.804a58.676 58.676 0 0 1-5.51 2.241c-.925.312-1.85.6-2.786.855-3.326.913-6.676 1.248-10.109 1.456-.092.011-.218 0-.381-.024.036-.08.059-.173.082-.254.035-.161.07-.312.08-.45.209-2.057-1.986-3.582-1.986-3.582l-.07-.034c-.069-.035-.128-.058-.196-.093a.106.106 0 0 0-.082-.034c-1.42-.67-2.852-1.317-4.286-1.964a227.928 227.928 0 0 0-7.531-3.223c-.462-.197-.959-.382-1.456-.59-.358-.15-.716-.3-1.074-.439a286.18 286.18 0 0 0-17.665-6.307 330.583 330.583 0 0 0-10.812-3.27c-.578-.161-1.156-.335-1.733-.497a463.432 463.432 0 0 0-20.02-5.268c-4.76-4.47-9.452-8.953-14.488-13.066 33.468 8.908 56.377 18.75 68.022 24.365 4.147 1.93 6.966 3.385 8.398 4.159 1.295.393 3.108.612 4.043-.705 1.93-2.726-1.374-5.071-1.374-5.071s-29.355-15.516-84.45-26.849c-5.43-3.858-11.182-7.081-16.832-10.57-1.952-1.202-3.962-2.461-5.637-4.044-.855-.797-1.768-1.802-1.883-3.027a3.591 3.591 0 0 1 0-.704c0-.012.011-.035.011-.047a3.037 3.037 0 0 1 .104-.589c.012-.034.035-.069.035-.104a5.13 5.13 0 0 0 .127-.38c.023-.07.058-.151.092-.22.497-1.156 1.387-2.207 2.276-2.946.127-.104.243-.22.393-.347.092-.08.185-.139.277-.231.127-.104.243-.196.358-.3.14-.104.278-.231.382-.324.011-.011.011-.011.023-.011.046-.035.092-.081.138-.116.024-.023.058-.046.081-.07a.274.274 0 0 0 .023-.022c.047-.035.081-.058.104-.093.035-.023.058-.034.058-.034s.023 0 .058-.012h.011c0-.011 0-.011.012-.011.07-.024.196-.047.347-.081.138-.035.485-.116.496-.127 2.357-.59 4.852-1.19 7.382-1.595a47.667 47.667 0 0 1 2.542-.335c.913 2.958 4.956 7.336 4.956 7.336-1.918.139-4.378-.543-4.378-.543 3.558 4.783 13.412 10.802 21.072 12.304 7.67 1.502 14.637 1.224 14.637 1.224-1.086.555-2.866 1.236-2.866 1.236s3.004-.138 7.106.682a23.29 23.29 0 0 1 1.733.416c2.726.705 6.087 1.825 8.062 2.518.232.07.452.15.637.22.011 0 .023.012.033.012.013 0 .024.011.024.011a79.19 79.19 0 0 1 1.78 1.202c3.42 2.275 6.676 4.805 9.785 7.486.9.774 1.79 1.56 2.657 2.356 1.41 1.294 2.68 2.692 4.066 3.998-.116-.104-.138-.636-.185-.798-.08-.3-.196-.6-.313-.9-.253-.624-.485-1.26-.75-1.872a41.842 41.842 0 0 0-1.744-3.628 57.728 57.728 0 0 0-4.355-6.804 75.457 75.457 0 0 0-2.832-3.582c-.716-.831-1.466-1.64-2.217-2.46-.6-.659-1.328-1.849-2.218-2.137 0 0-.011 0-.023-.012-.023-.012-.035-.023-.046-.023.728.023 1.41.08 2.068.162a11 11 0 0 1 .635.08c.289.035.554.081.832.14.728.126 1.398.3 2.032.496.243.07.475.15.706.23.231.082.45.163.67.255.439.173.855.37 1.248.566.196.093.392.197.577.3.185.105.37.22.543.324.174.116.346.22.52.335.16.116.324.231.485.347l.278.208c.184.138.368.288.543.439.206.173.392.346.577.531.115.092.22.196.312.3a13.807 13.807 0 0 1 1.976 2.542c.09.162.183.312.265.474.624 1.109.97 2.08 1.156 2.691.034.093.056.174.069.243.08.289.115.462.115.462 8.526-.312 14.73 8.537 16.382 10.767h.07c-.013 0-.035 0-.06.012a137.879 137.879 0 0 1 4.102 2.287c.243.139.486.289.717.428.335.196.669.404 1.004.6a89.562 89.562 0 0 1 3.49 2.114c3.096 1.941 6.354 4.02 8.988 6.632a5.606 5.606 0 0 0-1.444.173c-.474.115-.947.254-1.386.381 3.28 2.31 6.261 5.026 8.918 8.006.346.381 3.304 4.217 3.397 4.217" fill="#D7A229"/><path d="M338.023 341.03l-5.401-3.504-.704-7.767s7.651 5.007 6.105 11.272m-18.242-17.029s-4.301 16.739-24.345 27.511c0 0-15.282-5.18-23.638-24.378-6.751-15.526-.313-44.594-9.364-61.033-6-10.924-16.622-13.465-16.622-13.465s6.612-3.792 20.391.669c22.69 7.327 25.163 36.989 25.524 43.082.705 11.975 2.773 27.442 10.645 31.635 0 0-4.637-6.411-4.774-21.567-.415-45.058-16.01-51.415-16.01-51.415s19.039 3.12 24.161 19.234c5.12 16.125-3.123 40.84 14.032 49.727m99.654-90.716c-.674 6.023-10.048 14.725-10.048 14.725-1.34-3.34-6.358-11.373-6.358-11.373s1.341-3.352-3.688-7.71c-5.015-4.347-18.748-4.347-18.748-4.347s3.699-2.103 8.37-1.676c12.276 1.122 30.472 10.381 30.472 10.381" fill="#006778"/><path d="M112.291 140.464c.162.255.046.544-.127.683-.023.012-.035.023-.058.034-.126.07-.462.104-.879.14-.611-.07-2.068-.37-2.703-.267 0 0 .38.312.693.601 0 0-1.584.624-1.942 1.272 0 0-1.317-.139-2.266.196-.554.184-.798.44-1.087.624-.184.068-.404.152-.647.244-.057.01-.105.022-.173.022-.89.058-1.608-.393-1.608-.393l.325.67s-2.556 0-3.12.867a139.113 139.113 0 0 0-6.3-2.959c-2-.866-4.024-1.698-6.059-2.484a170.293 170.293 0 0 0-12.483-4.266 106.92 106.92 0 0 0-3.757-1.075 57.01 57.01 0 0 0-2.797-.717h.07c1.709 0 3.4-.046 5.108-.15 11.503-.706 23.026-.44 34.54-1.053 2.092-.114 4.196-.242 6.288-.392-.347.428-.81 1.132-.208 1.34 0 0 1.166.382 2.622.487 1.377.092 2.914 0 2.914 0s-5.63 2.625-6.31 2.809c-.683.195-1.562 1.073-1.562 1.073s-.022.014-.045.037-.07.057-.104.091a.213.213 0 0 1-.059.046l-.103.106a6.543 6.543 0 0 0-.706.322c-.276.174-1.342.232-1.342.232s1.273.543 1.828.439c.012.012.012.023.022.045.012.094.07.44.601.683.463.209 1.134.417 1.434.693m48.689 28.887c-.301.152-.602.313-.914.475-1.988 1.236-4.023 2.391-6.15 3.386-.023.012-.058.023-.093.046-.704.335-1.41.66-2.126.97-.01.012-.034.012-.046.024-.024.011-.035.011-.06.023a94.672 94.672 0 0 1-5.87 2.313 79.18 79.18 0 0 1-4.716 1.502c-11.293 3.294-18.172 3.214-18.172 3.214.763.346 1.791.657 2.73.866 3.397.764 11.534 1.48 11.917 1.595-.048.024-.128.07-.267.15-.057.024-.116.058-.198.094-8.46 3.583-17.58 5.189-26.759 4.819-16.726-.693-25.695-5.351-26.006-5.7 0 0 4.691-.75 7.42-1.663 0 0-12.427-4.09-17.12-7.12 0 0 5.075.116 6.67.15-1.814-1.445-3.479-2.891-5.016-4.231-8.856-7.699-14.716-17.743-13.64-22.275-3.444-4.61-8.335-5.814-8.335-5.814 14.9-1.375 28.69 4.336 43.266 13.444 6.104 3.814 10.786 8.184 16.24 11.652-3.593.6-11.49 1.062-26.435-1.561 0 0 8.647 5.502 25.003 7.548 9.952 1.236 19.673.97 26.356.497 7.766-.556 15.107-1.538 22.32-4.404m295.629 70.997a31.549 31.549 0 0 1-1.19 6.08c-.672 2.218-1.167 4.647-3.85 4.797-1.94.105-3.871-.103-5.813-.22-1.124-.069-3.387-.414-4.024.856-1.91 3.804 5.65 3.596 7.618 3.675.287.013.577.013.867 0-8 8.82-20.946 11.156-21.743 11.296-.037.01-.047.01-.047.01-.104-.15-.219-.313-.36-.496-2.079-2.649-8.413-8.093-21.312-9.526l-.094-.013a31.013 31.013 0 0 1 2.102-2.703c5.354-6.138 13.733-11.293 22.855-15.721 12.725-6.173 17.57-18.298 17.57-18.298s1.745 1.48 3.56 4.288c-.554 1.619-1.92 4.093-5.295 6.532 0 0-2.288 1.363-1.456 2.946.822 1.596 2.623 1.052 3.547.532.626-.346 2.372-1.456 3.782-3.86a16.059 16.059 0 0 0 1.363-2.474 24.442 24.442 0 0 1 1.827 6.785c.036.312-1.017 1.155-1.213 1.341-.718.706-1.504 1.306-2.336 1.86-2.299 1.55-4.807 2.521-7.364 3.562-.9.37-2.333 1.248-2.52 2.287-.311 1.69 2.012 2.047 3.204 1.863.08-.013.184-.023.3-.048 1.746-.31 7.064-1.584 10.022-5.35M352.364 353.35c-4.056.29-6.9-2.808-6.9-2.808-10.264-1.399-21.939.774-21.939.774s-6.022 6.359-14.554 7.457c-8.529 1.097-8.438-2.74-7.975-3.792.461-1.076 4.439-3.005 11.71-10.564 7.27-7.56 13.571-23.026 13.571-23.026 1.71 5.028 2.392 10.415 1.849 15.71a32.266 32.266 0 0 1-.786 4.565 34.292 34.292 0 0 1-2.58 7.003c1.4-2.807 4.476-5.097 7.132-6.669.927 1.11 1.689 2.326 2.442 3.56.139.242 1.479 2.094 1.341 2.347 1.329-2.472 8-6.97 8-6.97 1.604 1.573 2.913 4.75 2.913 4.75 5.477-4.02 17.638-23.488 17.638-23.488.636 14.994-7.802 30.875-11.862 31.152m70.386-79.007c-.983 4.382-16.113 20.494-24.044 23.476 0 0 6.773-10.864 8.89-22.054-1.907 1.607-4.867 3.735-8.172 4.81 0 0 .241-5.48-1.204-8.093 0 0-4.183 4.231-8.877 7.144 0 0-2.923-4.683-3.652-8.15-3.386 5.155-8.945 12.3-15.663 15.778 0 0 .368-4.738-.82-11.479 6.321-1.525 12.044-3.363 16.378-4.876 2.925-1.642 7.873-3.215 9.052-3.308.162-.022 4.15-.855 3.733 2.059 0 0 4.948-3.814 8.948-2.463 1.33.463 2.034 1.146 2.405 1.92 1.964-1.26 5.477-3.132 8.332-2.473 4.21.946 5.655 3.329 4.693 7.709m-53.865 1.515c-.151.45-.404 1.143-.74 1.987-3.179 5.7-13.547 21.581-33.29 27.117 0 0 12.183-12.378 10.832-26.098 7.71.091 15.847-1.25 23.198-3.006" fill="#FFF"/><path d="M377.07 146.429s-2.419-2.127-3.262-2.865c0 0 1.18 2.795 1.364 3.396 0 0-2.277.081-3.514-.878-1.237-.958-3.015-2.09-2.556-2.09 0 0 .556.031 1.02.103 0 0-1.411-1.7-3.827-1.84 0 0-1.47.337-3.158-.519-1.687-.866-2.39-1.747-2.39-1.747s-.925-1.027-1.1-2.346c0 0 1.655 1.158 2.465 1.48 0 0-1.46-2.08-1.46-3.317 0 0 1.042-.209 2.347.289 1.32.498 1.679.104 1.679.104s-.569-.74-.787-1.492c0 0 1.664 1.388 2.37 1.701 0 0 2.058-.637 3.618.034 1.557.67 3.327 2.404 3.605 2.727.266.302 1.318 1.099 1.447 1.191-.105-.138-.925-1.237-1.147-2.102.128.08 1.157.75 1.621.982.494.255 1.446 1.247 1.63 1.883.172.636-.857 1.666-.857 1.666s1.35 1.732 1.35 2.438c0 .704-.459 1.202-.459 1.202m13.316 10.958c-.337.508-.834.508-.834.508s-3.016-1.803-3.814-2.184c0 0 1.514 2.348 1.723 2.89 0 0-2.6-.382-3.272-1.295 0 0-2.926-.716-3.976-1.422-1.041-.716-1.886-1.803-1.886-2.392 0 0 1.68.798 2.522 1.178 0 0-2.266-2.726-2.97-3.386 0 0 .785-.843 1.756-1.097.958-.244 1.422-.244 1.793-.21 0 0 .046-.577-.417-1.085 0 0 2.717 1.63 3.978 2.935l-.338-1.178s2.175.543 3.18 1.513c1.005.96 1.503 2.047 1.803 2.544.288.508 1.088 2.183.752 2.681m-34.77 76.696c-.938 1.318-2.754 1.099-4.048.705-1.432-.774-4.25-2.23-8.39-4.161-11.652-5.617-34.565-15.455-68.028-24.367a531.331 531.331 0 0 0-38.224-8.658c-8.73-1.641-16.81-2.97-24.299-4.022a542.357 542.357 0 0 1 57.161 8.577c55.1 11.34 84.45 26.85 84.45 26.85s3.309 2.347 1.378 5.076m-64.397-66.443s-1.619-1.039-2.532-1.294c.184.185 2.034 2.08.995 2.323 0 0-.925-1.074-2.603-1.825-1.675-.752-4.76-2.267-5.686-3.099-.868-.786-1.432-2.451-1.491-2.66.104.14.613.822 1.074.902.463.08 1.826.96 2 1.077-.058-.139-.532-1.285-1.085-1.746-.579-.51-2.001-1.18-2.753-2.093l.833-.253s.232-1.642-.138-3.262c-.011-.056-.011-.115-.034-.173-.416-1.675-.222-2.645.195-2.982 0 0 2.808.093 3.643.393-.302-.137-1.562-.774-2.394-1.432.035-.013.242-.08.404-.407.162-.367.082-1.177.832-1.34.752-.173 2.093.498 2.427.671.336.16 2.232 1.352 2.833 1.64.348.162.497.741.554 1.24a212.06 212.06 0 0 1 5.317 1.547c.047.036.07.06.104.082 0 0 .014.01.024.01a.305.305 0 0 1 .057.047c-1.053-.256-3.225-.555-4.24-.695-.303.302-.972.97-1.25 1.319 0 0-.612.798-.97 2.843-.116.66.253 2.174.924 2.764.67.578 2.762 2.508 3.097 3.42.337.925-.275 2.359-.137 2.983m-1.758-35.603c-1.248 1.028-2.773 1.631-2.773 1.631s.184 1.283.913 2.023c0 0-1.4-.127-2.568-.798 0 0-1.039 1.167-1.156 1.653-.126.486-1.652 2.44-2.565 3.109-.914.67-2.809 1.4-2.809 1.4s1.688 2.426 3.086 3.41c-.358-.152-5.061-2.21-6.992-4.197 0 0-.185 1.469.3 2.196 0 0-2.312 1.04-4.936.428-2.474-.578-4.948-2.348-5.224-2.554.289.046 2.576.473 4.056.473 0 0-3.352-1.642-3.964-3.293-.614-1.642-.427-3.538 1.409-4.394 1.827-.855 3.411-.728 3.411-.728s4.403 2.068 6.957 2.68c0 0-3.35-2.196-4.206-3.604 0 0 2.38.07 3.05-.36.67-.428 1.156-1.525 2.44-1.953a13.514 13.514 0 0 1 2.626-.554s-1.216-.671-1.528-1.041c0 0 2.508.67 3.307.67 0 0 2.195.127 3.166.255.982.116 2.81-.497 4.336-.011 1.526.498.911 2.52-.336 3.56m23.814 24.055c-.442.937-2.787 2.368-4.117 2.82 0 0-.056-.117-.16-.29-.037-.056-.081-.115-.128-.184a5.438 5.438 0 0 0-1.41-1.445c.01.036.034.115.058.22.023.07.045.138.07.22.01.057.034.126.044.195.025.058.035.118.048.175.07.242.127.531.183.808.045.243.081.474.104.682 0 0-.277.15-.681.429-.544.38-1.352.983-2.091 1.71-.578.555-1.11 1.18-1.47 1.849-1.167 2.151-1.075 3.78-1.075 3.78s-1.007-.427-1.917-1.132c0 0 .461 1.942 2.104 2.762 0 0 .934 1.237.531 2.173 0 0-2.878-.23-3.55-.774-.671-.554-2.808-1.33-2.808-1.33s.716-.115 1.48-.069c0 0-.776-1.883-1.514-2.518-.74-.625-2.233-1.77-1.897-3.226 0 0 1.757.125 2.6.461 0 0-2.773-2.403-4.472-2.785l2.324-.126s-.314-1.643 2.635-3.077c2.959-1.432 3.87-2.345 4.496-3.27.613-.924.867-1.872 1.64-2.426 0 0 1.447.82 2.59 1.686 0 0-.659-1.953-2.75-3.387 0 0 1.757.231 3.05.671 0 0 1.758-.867 3.064-.729 1.308.138 3.666 1.365 3.886 2.115.206.753-.441 3.075-.867 4.012m7.871-16.427s-1.54-.38-2.139-.589c.115.175 1.03 1.49 1.25 2.208 0 0-1.4.925-2.475 1.17-1.075.24-1.377.54-1.965 1.2-.592.67-2.082 1.48-3.56 1.26-1.424-.208-4.255-1.04-4.497-1.099.162.151 1.423 1.388 1.976 2.36 0 0-1.616.807-4.29 1.19 0 0-2.438 0-3.478-.301-1.04-.3-2-.822-2.07-1.48-.08-.67.51-1.41.51-1.41s2.15.82 3.411 1.04c0 0-3.181-2.96-4.302-3.78 0 0 2.23.37 3.56.82 0 0-.15-.82-.67-1.71-.518-.879.451-1.768.891-1.998.45-.222 2.518-1.03 3.04-1.4 0 0-1.33-1.11-2.823-1.93 0 0 2.892.3 4.372.74 0 0 1.192.08 2.451-.44 1.258-.52 1.699-.52 2.738-.37 1.029.151 1.157.44 1.84.508.681.082 1.34.013 1.34.013s-.44-.602-1.55-1.04c0 0 2.372.3 3.481 1.04 0 0 1.917.335 3.028 1.421 1.122 1.087-.07 2.577-.07 2.577m43.093 14.878s.521 1.33.82 1.93c0 0-1.778-.74-3.338-.74 0 0-.696 1.052-2.348.706-1.653-.335-3.272-1.595-3.272-1.595s1.48.067 2.658.067c0 0-.52-.588-1.918-.888-1.408-.289-2.243-.533-3.237-1.308 0 0-.243.788.417 1.308 0 0-2.22.59-2.59-1.63-.369-2.22-1.63-2.068-.739-3.7.877-1.606 2.715-1.617 2.774-1.617 0 0-1.585-.971-2.624-1.562 0 0 3.63.96 6.437 2.659 0 0-.219-1.11-.888-1.699 0 0 1.93-.59 4.078.891 2.139 1.479 2.22 2.809 3.851 3.918 1.631 1.11.66 2.82-.08 3.26m-24.436 1.26s-1.005.82-1.329 1.41c-.313.578-1.18 1.918-2.152 2.29 0 0-1.03 1.329-2.139 1.41-1.109.068-1.86-.186-2.599-.221-.73-.035-3.699 0-5.917-2.22 0 0 3.177.44 3.997.44 0 0-2.821-2.07-3.41-2.959 0 0 .821-.52.74-1.26-.07-.74-.3-1.41.45-2.22 0 0 2.59.891 4.14 1.11 0 0-1.7-1.711-3.4-3.108 0 0 1.054-.106 2.301.392 0 0 .511-.104 1.698-1.063 1.18-.96 3.48-.706 4.809.173 1.33.866 2.591 2.648 2.591 2.648s1.56.809 2.59 2.507c0 0-2.694-1.757-4.822-2.057 0 0 1.945 1.77 2.452 2.728m9.928-17.917c-.079 1.03-.82 1.85-2.08 1.999-1.261.14-2-.369-2.438.22-.44.59-1.11 1.179-1.782 1.329 0 0-4.288-2.658-6.15-3.629 0 0 1.563 2 1.93 2.82 0 0-2.587.22-4.37-.52-1.777-.739-2.968-1.364-4.218-1.907-1.258-.531-2.59-2.312-2.59-2.312s2.072.96 3.181 1.26c0 0-1.85-2.08-1.92-2.74 0 0 1.398-.37 2.068-1.19.626-.763 2.46-1.26 3.85-1.328h.3c1.412 0 4.892 1.848 6.59 3.109 0 0-1.48-2.07-2.59-3.109 0 0 2.66 0 3.33-.22.671-.232 2.22-.382 3.33.138 1.038.485 1.63 1.56 1.698 1.7-.139-.058-1.238-.523-2.068-.73 0 0 0 .891 1.779 2.152 1.781 1.247 2.22 1.918 2.15 2.958M212.963 253.962s1.433 2.877 1.548 5.315c.104 2.437-1.883 3.211-3.87 3.985-1.999.774-4.217.335-4.875-.104-.67-.45-1.78-.335-1.78-.335.66-.89 3.443-2.772 3.443-2.772-2.668.23-5.106 1.883-5.106 1.883s-4.205.67-6.423.67c-2.207 0-5.638-2.103-5.638-2.103-1.328 0-3.211.994-3.211.994.993-1.675 5.314-4.772 5.314-4.772-1.999.44-4.54 2.103-4.54 2.103-.774-.774-4.552-3.096-5.546-3.87-.993-.774-1.652-1.883-1.328-4.101.335-2.207 2.876-2.438 5.198-2.542 2.346-.104 5.546-.115 5.546-.115-.936.727-1.571 2.044-1.64 2.206.461-.67 3.95-2.345 3.95-2.345s3.778-1.074 6.331-2.183c2.542-1.11 4.864-.878 7.197.554 2.334 1.433 4.54 5.869 4.54 5.869 1.768-.728 4.599-1.155 4.945-1.202-1.444.682-4.055 2.865-4.055 2.865m-54.227-57.239c-.9.59-.982 1.213-1.676 2.105-.705.901-4.98 1.096-4.98 1.096-2.59-.9-5.966-.9-5.966-.9 1.689.497 3.975 1.202 3.975 1.202s-2.391.393-4.38.196c-1.989-.196-3.086-2.392-4.173-3.885-1.098-1.489.197-3.779.197-3.779-.602-.404-1.295-.602-1.295-.602 2.185-.194 6.265.106 6.265.106-1.883-.601-4.023-1.017-4.023-1.017s.243-1.076.74-2.174c.499-1.087 2.89-.797 3.885-.695.993.106 2.287-1.097 3.005-1.327.717-.244 2.97.531 4.161.935 1.19.392 1.294 1.295 1.294 1.295-1.098-.104-2.693.197-2.693.197l3.883 1.087s2.59 1.294 2.983 2.59c.405 1.293-.29 2.993-1.202 3.57m23.37 34.885c-.705 2.368-.139 3.489-.139 5.857 0 2.38-2.934 3.362-7.532 4.055-4.598.693-6.55-.832-6.55-.832l.693-1.548c-1.537.278-6.007.428-6.007.428 2.934-1.271 6.7-3.917 6.7-3.917-1.802.705-5.557 1.606-5.557 1.606s-1.132-.809-2.252-1.871c-.786-.728-1.56-1.583-1.953-2.38-.982-1.953.693-4.887 1.386-5.996.705-1.12-.554-1.814-.554-1.814 1.12-.843 1.952-2.23 1.952-2.23-.023 0-.034.012-.057.012a35.299 35.299 0 0 1-4.818.682l-.011-.012c-1.387-1.109-1.941-3.477-1.664-4.736.277-1.248.832-3.212.832-3.212h-.046a6.06 6.06 0 0 1-1.445-.058c-.808-.104-1.513-.3-1.698-.346l-.011-.012c5.29-.693 7.936-2.645 7.936-2.645-.023 0-.046.011-.069.011-1.398.266-3.824.404-3.824.404v-.011c.023-.15.196-1.56 1.248-2.264.393-.266 1.213-.266 2.195-.128.554.081 1.155.197 1.767.347.29.07.578.139.867.22 1.063.288 2.08.6 2.807.843.023 0 .023.011.046.011 2.091.705 3.073 3.49 3.073 3.49.566 1.802 1.456 3.107 2.507 4.089.012.012.023.023.035.023a9.5 9.5 0 0 0 1.548 1.11c.208.138.427.253.658.346.22.104.44.208.67.3.67.277 1.352.497 2.01.67.428.116.856.22 1.26.3.208.047.416.093.612.14a3.4 3.4 0 0 1 1.017.403c.936.532 1.617 1.502 2.08 2.461l.01.012c.729 1.49.971 2.992.971 2.992-.97 1.663-3.627 3.2-3.627 3.2 1.259.277 2.934 0 2.934 0m-32.582-90.775s1.4.787 1.48 2.683c.08 1.897-.382 2.728.08 4.023.451 1.294-.312 2.196-2.126 3.26 0 0-1.828.381-3.653.23 0 0 1.375.682 1.977.763 0 0-1.977 1.665-4.785.982 0 0-3.41 2.047-6 1.678-2.578-.382-3.179-1.446-3.179-1.446s3.075-.555 5.27-.854c0 0-4.01-.925-5.306-1.677 0 0 .405-1.872 1.248-2.705.834-.844.638-1.053.638-1.053s-3.294-.773-4.508-1.223c0 0 3.87-.592 5.085-1.041 0 0-.462-.937 1.063-2.151 1.516-1.213 2.81-2.427 3.41-3.12.614-.682 3.572-.751 5.237-.302 1.675.463 1.665.463 2.578.463.912 0 4.796-.381 4.796-.381s-.762 1.201-3.305 1.871M356.55 244.628c-.01.138-.045.289-.08.45-.023.081-.046.174-.082.254l-.01.024c-.093.242-.22.496-.393.739-.913 1.328-2.728 1.12-4.032.74-1.444-.752-4.276-2.184-8.434-4.067-15.734-7.405-51.848-22.181-106.584-31.943-8.538-1.525-16.336-2.761-23.683-3.732-.012 0-.035 0-.046-.011-.046 0-.139-.012-.231-.023-.035-.012-.07-.012-.104-.024 1.363.116 2.76.243 4.159.382.23.011.45.034.67.057 7.983.844 15.942 1.745 23.879 2.842a521.845 521.845 0 0 1 29.887 5.037c9.022 1.791 18.022 4.01 26.94 6.25 3.767.948 7.51 1.941 11.253 2.992.577.162 1.155.336 1.733.497a331.508 331.508 0 0 1 10.813 3.27 286.418 286.418 0 0 1 17.664 6.307c.358.139.716.29 1.074.44.497.207.994.392 1.456.589a229.047 229.047 0 0 1 7.532 3.223 281.59 281.59 0 0 1 4.285 1.964c.036 0 .059.011.082.034.068.035.127.058.196.093l.07.034s2.195 1.525 1.987 3.582m-150.017-36.529c-.97 1.48-4.89 1.987-6.993 1.733 0 0-3.93 1.767-6.173 1.468-2.232-.3-6.3-1.826-6.3-1.826s1.25-.649 2.475-.844c0 0-.753-1.503-2.58-3.225-1.825-1.734-4.172-3.861-4.576-5.295 0 0 2.404-1.006 4.137-1.41 0 0-2.9.082-4.53-.624 0 0-.115-3.04.497-4.266.611-1.213 1.017-2.23 1.017-2.844 0-.612-.116-.565.797-.867.913-.3 5.306-1.063 5.306-1.063s-.404-1.005-3.156-1.421c0 0 2.44-.913 5.19-.509 2.74.405 4.565 3.653 5.48 5.387.925 1.722 2.647 3.652 3.767 4.473 1.122.81 5.33-.207 5.33-.207s-2.658 2.634-4.347 2.508c0 0 .845 3.086 2.266 4.311 1.422 1.213 3.363 3.04 2.393 4.52M142.9 227.205c-1.248.982-4.463 3.63-6.137 5.584-1.677 1.953-3.48 4.045-7.248 3.062-3.768-.97-4.336-6.415-4.336-6.415.983-1.387 5.445-3.478 5.445-3.478-2.368 0-5.375.531-5.375.531.057-1.133.22-4.439.22-7.1 0-2.645-1.399-5.154-1.399-5.154.972-.982 3.352-2.23 3.352-2.23-4.612.694-6.98.139-6.98.139 1.258 0 3.073-.982 3.073-.982-.277-1.389.278-3.342.971-4.047.693-.694 2.798-3.34 3.77-4.046.97-.694 3.49-.277 5.998.14 2.51.415 2.924 1.954 2.924 1.954 1.26.276 2.52.138 2.52.138-1.537 1.12-5.444 2.369-5.444 2.369 1.815.289 3.352.289 3.352.289s1.11 4.046 1.676 6.139c.243.9.705 1.652 1.295 2.369-1.086.647-2.946 1.676-4.508 2.23 0 0 2.693-.08 5.572-1.075.554.555 1.168 1.122 1.825 1.768 1.955 1.955.694 6.845-.566 7.815m112.286-71.412s1.1 1.212.902 2.462c-.195 1.248-.625 1.49-.982 2.312-.346.82-1.399 1.525-2.497 2.033 0 0 1.422.613 2.903 1.48a421.14 421.14 0 0 1-3.92-.497s-1.571.936-2.276 1.988c-.706 1.063-1.955 2-3.758 2.081 0 0-2.264-.671-3.168-.866 0 0 1.181 1.016 1.642 1.526 0 0-1.284.508-2.543.241-1.249-.277-4.103-1.456-4.97-1.721 0 0 2.08.149 2.706.23 0 0-4.15-3.329-4.775-4.07 0 0 1.792.301 2.59.499-.29-.174-2.637-1.608-2.706-3.48-.046-1.133.74-1.988 1.676-2.495.948-.51 2-.556 2.392-1.262.393-.706.464-1.56.464-1.56s3.085.589 4.45.902c0 0-1.214-1.804-2.001-2.116 0 0 .255-.706 1.273-1.18 1.017-.461 2.774-.935 3.837-1.755 1.052-.82 2.23-.59 3.018-.428.774.15 2.3 1.097 4.103 1.64 0 0-.937-.786-1.25-1.444 0 0 1.955.116 2.939.544.969.427 1.477 1.444 1.015 2.196-.474.74-1.064.82-1.097 1.328-.047.51 1.33 1.412 1.917 1.92 0 0-.866-.28-1.884-.508" fill="#000"/><path d="M206.528 208.098c-.97 1.479-4.887 1.987-6.99 1.733 0 0-3.927 1.768-6.169 1.467-2.23-.3-6.296-1.825-6.296-1.825s1.248-.647 2.472-.843c0 0-.75-1.502-2.587-3.224-1.826-1.732-4.17-3.858-4.575-5.29 0 0 2.403-1.017 4.136-1.422 0 0-2.9.081-4.529-.623 0 0-.115-3.039.497-4.263.612-1.213 1.016-2.23 1.016-2.842 0-.613-.115-.566.798-.867.912-.3 5.314-1.063 5.314-1.063s-.405-1.005-3.166-1.42c0 0 2.45-.913 5.2-.509 2.737.404 4.562 3.65 5.475 5.384.924 1.72 2.646 3.65 3.766 4.47 1.075.774 4.956-.115 5.303-.196-.277.277-2.727 2.611-4.32 2.507 0 0 .842 3.085 2.263 4.31 1.421 1.212 3.362 3.037 2.392 4.516m-25.404-28.096c-1.34 1.56-4.46 1.028-4.46 1.028s-3.13 2.322-6.562 1.814c-3.43-.508-6.169-1.814-6.169-1.814s-3.119-.704-4.84-1.629c0 0 4.24.416 7.578.22 0 0-3.581-1.098-4.62-2.38 0 0 1.212-.762.993-1.871-.231-1.121-.566-2.68-.058-3.57 0 0 3.13 1.502 4.69 1.894 0 0-2.01-1.675-2.738-3.177 0 0 1.352 0 2.577-1.005 1.224-1.005 2.53-2.807 4.806-2.772 0 0 1.05-1.075 2.114-1.306 1.05-.22 1.94-.22 1.94-.22s1.237.555 3.35.948c0 0-2.841-1.894-3.511-2.726 0 0 1.282.439 2.345.381 0 0 1.167-.335 3.061.173 1.895.497 3.177 1.953 3.177 3.177 0 1.225-1.721 2.842-1.109 3.905.566.97 4.506 1.964 5.072 2.103-.44-.035-2.992-.243-4.517-.047 0 0-.947.948-2.01 1.005-1.063.058-1.283.844-1.063 1.456.23.612 1.294 2.854-.046 4.413m-22.39 16.717c-.9.589-.981 1.213-1.675 2.114-.704.901-4.979 1.086-4.979 1.086-2.587-.901-5.96-.901-5.96-.901a830.24 830.24 0 0 1 3.973 1.213s-2.391.393-4.39.196c-1.987-.196-3.084-2.403-4.17-3.893-1.098-1.49.196-3.778.196-3.778-.6-.404-1.294-.6-1.294-.6 2.184-.197 6.273.104 6.273.104-1.883-.601-4.032-1.017-4.032-1.017s.243-1.074.74-2.172c.508-1.086 2.888-.797 3.893-.693.994.104 2.287-1.098 3.004-1.329.716-.242 2.969.532 4.159.936 1.19.393 1.294 1.294 1.294 1.294-1.098-.104-2.692.196-2.692.196l3.882 1.086s2.587 1.294 2.98 2.588c.404 1.294-.289 2.992-1.201 3.57m-15.839 30.487c-1.248.982-4.46 3.628-6.134 5.58-1.676 1.953-3.478 4.044-7.244 3.062-3.766-.97-4.344-6.412-4.344-6.412.982-1.386 5.453-3.477 5.453-3.477-2.368 0-5.383.531-5.383.531.057-1.132.219-4.436.219-7.105 0-2.645-1.398-5.152-1.398-5.152.97-.982 3.362-2.23 3.362-2.23-4.621.693-6.99.139-6.99.139 1.26 0 3.074-.982 3.074-.982-.278-1.387.277-3.34.97-4.044.693-.693 2.807-3.338 3.778-4.043.97-.693 3.489-.277 5.996.138 2.507.416 2.922 1.953 2.922 1.953 1.26.277 2.519.138 2.519.138-1.537 1.121-5.441 2.369-5.441 2.369 1.813.289 3.35.289 3.35.289s1.109 4.043 1.675 6.134c.243.901.705 1.652 1.294 2.368-1.086.647-2.946 1.675-4.506 2.23 0 0 2.692-.08 5.569-1.074.554.554 1.167 1.132 1.825 1.767 1.952 1.964.693 6.85-.566 7.821m73.532-45.679c.232-.508.509-.89 1.237-.89.716 0 2.23.209 2.726-.173.508-.392.612-1.398 1.513-1.952.89-.566 2.507-.116 3.963.266 1.456.404 3.235 1.062 3.235 1.062-1.675.116-3.408.116-3.408.116 2.068.508 4.078 1.513 5.972 2.68 1.941 1.202 1.179 2.345 2.796 2.958 1.617.612.994 1.178.994 1.178-1.895-.393-5.176-.67-5.176-.67 2.45.947 4.286 1.664 4.286 1.664s-.335.288-.774.335c-.45.057-1.236-.44-1.895-.335-.67.115-1.178 1.236-1.906 1.848-.716.612-1.663.439-1.663.439s-.231.901-.948 1.456c-.727.554-1.917.277-3.42.057-1.501-.23-2.01-3.408-2.01-3.408-1.559-1.386-3.95-2.668-3.95-2.668 1.005.046 2.287.277 2.287.277-.508-.843-3.466-2.23-3.466-2.23-.497-.23-2.01-1.063-2.01-1.063 1.513.116 6.135 1.167 6.135 1.167-1.502-.947-4.518-2.114-4.518-2.114m19.582-24.006c.947-.52 1.999-.566 2.392-1.271.392-.705.462-1.56.462-1.56s3.084.59 4.447.901c0 0-1.213-1.802-1.998-2.114 0 0 .254-.704 1.27-1.178 1.017-.462 2.773-.936 3.836-1.756 1.063-.82 2.241-.59 3.027-.427.774.15 2.299 1.097 4.101 1.64 0 0-.936-.786-1.248-1.444 0 0 1.953.115 2.935.543.97.427 1.478 1.444 1.016 2.195-.473.74-1.062.82-1.097 1.328-.046.509 1.328 1.41 1.918 1.918 0 0-.867-.277-1.883-.508 0 0 1.097 1.213.9 2.472-.196 1.248-.623 1.479-.981 2.31-.347.82-1.398 1.526-2.496 2.034 0 0 1.421.612 2.9 1.479-.347-.035-3.12-.393-3.916-.497 0 0-1.571.936-2.276 1.987-.705 1.063-1.953 1.999-3.766 2.08 0 0-2.265-.67-3.166-.867 0 0 1.179 1.017 1.64 1.525 0 0-1.282.508-2.54.243-1.249-.278-4.102-1.456-4.969-1.722 0 0 2.08.15 2.704.231 0 0-4.148-3.327-4.771-4.066 0 0 1.79.3 2.587.496-.288-.173-2.634-1.605-2.703-3.477-.046-1.144.74-1.998 1.675-2.495m53.627 61.806c-4.76-4.47-9.45-8.953-14.487-13.066a538.484 538.484 0 0 0-38.227-8.664c-8.722-1.64-16.81-2.97-24.295-4.02a536.576 536.576 0 0 1 24.815 2.957 543.16 543.16 0 0 1 32.347 5.626c-5.429-3.858-11.183-7.082-16.832-10.57-1.953-1.202-3.963-2.461-5.638-4.044-.855-.797-1.767-1.802-1.883-3.027a3.591 3.591 0 0 1 0-.704c0-.012.012-.035.012-.047a3.037 3.037 0 0 1 .104-.589c.011-.034.034-.07.034-.104.047-.115.093-.266.127-.381.023-.07.058-.15.093-.22.497-1.155 1.386-2.206 2.276-2.945.127-.104.242-.22.392-.347.093-.08.185-.139.278-.231.127-.104.242-.196.358-.3.138-.104.277-.232.381-.324.012-.011.012-.011.023-.011.046-.035.093-.081.139-.116.023-.023.058-.046.08-.07l.024-.022c.046-.035.08-.058.104-.093l.312-.635c7.682-13.783 26.906-17.306 26.906-17.306-1.986-2.784-4.332-4.298-4.332-4.298 2.588-.912 5.834-.346 7.081-.069-.011-.058-.011-.116-.034-.173-.415-1.675-.22-2.646.196-2.98 0 0 2.808.092 3.64.392-.301-.139-1.56-.774-2.392-1.433a221.886 221.886 0 0 0-9.74-2.114c-13.192-2.564-26.697-3.546-40.098-4.043-2.392-.093-4.783-.15-7.186-.15 1.825.785 3.316 2.391 4.32 4.078a266.296 266.296 0 0 0-8.017-.462c1.236.427 2.091.843 2.31.947 0 0-2.217-.335-3.72-.37 0 0 .752.416 1.167.878 0 0 .081.878-.046 1.375-.115.508-.37 1.26-.08 2.091.288.843 1.132 2.715 1.259 3.385 0 0-2.565-.208-4.067-.243 0 0 4.148 2.01 5.407 2.773 0 0-.844-.046-1.387 0 0 0-1.42.832-1.71 1.375-.3.543 0 3.015-1.386 4.101-1.374 1.086-3.223.832-3.8 1.502-.59.67.335 1.594.335 1.594s-3.004-.682-3.928-.762c0 0 1.432 1.444 2.345 2.114 0 0-1.179-.266-2.392-.104-1.213.173-4.979.462-7-1.12-2.01-1.595-.96-2.854-.497-3.351.462-.497.577-1.132-.751-2.68-1.34-1.548-1.132-1.548-.878-2.38 0 0 4.679.011 6.354.473 0 0-4.563-2.576-6.354-2.957 0 0 .08-.578 1.086-1.34 1.005-.751 2.345-1.352 2.796-3.235 0 0 3.373.647 5.29.936-2.09-.797-3.06-1.976-6.492-2.934 0 0 2.391-.116 3.293-.197 0 0 1.64-.289 2.403-1.005.311-.289.704-.658 1.201-.982-6.643.127-13.262.751-19.79 2.288-10.42 2.449-20.794 5.036-31.192 7.59-.08.023-.173.046-.254.069 1.756-1.098 3.281-2.646 4.679-4.17a133.403 133.403 0 0 1-9.323 1.94c-5.106.901-10.363 1.687-15.573 1.387-8.607-.497-17.213-2.461-25.6-4.39l-2.219-.52c.185.127 3.027 1.906 4.009 2.484 4.136 2.437 8.399 4.655 12.904 6.33 1.363.45 2.715.97 4.09 1.398 1.525.474 3.073.878 4.621 1.236 1.42.324 2.865.578 4.298.798 2.564.38 5.175.53 7.763.462 2.61-.058 5.21-.416 7.786-.89 2.981-.554 5.938-1.201 8.85-2.045.485-.127.959-.277 1.432-.416 4.02-1.236 7.914-3.015 11.668-4.933a86.98 86.98 0 0 0 2.923-1.501.178.178 0 0 0 .07-.047.157.157 0 0 0 .069-.023c-.058.07-6.978 5.811-10.374 7.89-.74.451-1.49.902-2.253 1.34a90.965 90.965 0 0 1-3.778 2.022 56.32 56.32 0 0 1-3.27 1.572c-.577.254-1.155.496-1.744.727-.034.012-.058.035-.092.047-.3.15-.6.312-.913.473-1.987 1.236-4.02 2.392-6.146 3.385-.023.012-.058.023-.092.046-.705.335-1.41.659-2.126.97-.011.012-.035.012-.046.024-.023.012-.035.012-.058.023a96.278 96.278 0 0 1-5.869 2.31c-1.56.544-3.13 1.063-4.725 1.502-11.287 3.305-18.172 3.224-18.172 3.224.763.346 1.79.658 2.738.866 3.396.763 11.53 1.479 11.91 1.594.035-.011.059-.011.07-.023-.023.023-.231.254-.67.647-5.083 4.656-11.576 7.475-18.184 9.289a77.087 77.087 0 0 1-10.86 2.125c-.565.07-1.12.127-1.698.185-.23.08-.392.185-.45.312-1.802 5.626-1.86 11.703-1.548 17.548a75.56 75.56 0 0 0 1.12 9.381c.012.012.012.035.012.046.404-.404.89-.843 1.444-1.294 0 0 1.675-1.386 4.598-1.813 0 0-.035-.047-.127-.116-.035-.034-.08-.08-.127-.115-.624-.532-1.583-.797-2.426-.925-.231-.057-.45-.08-.647-.104.058 0 .254-.046.554-.092 1.826-.381 3.986-.716 5.754-.335.046 0 .08 0 .127.023 1.074.243 2.021.959 2.6 1.883.057.104.103.197.15.289a2.917 2.917 0 0 1 .207.474c.046.127.093.265.116.392.034.128.057.255.08.382 0 .023.012.057.012.08.012.128.023.266.023.393 0 .474-.092.948-.3 1.398-.693 1.537-1.953 4.471-1.953 5.58 0 .508-2.622 2.334-3.327 3.05-.046.046-.08.092-.115.127.07 0 .15-.011.22-.011.046-.012.115-.012.173-.024.774-.069 1.536-.207 2.31-.288.428-.035.82-.07 1.132-.07h.035s1.802 3.35 3.2 4.471c1.398 1.11 2.646 3.478 3.073 5.291.012 0 .035.012.046.012.174.011.37-.046.578-.127a.157.157 0 0 1 .07-.023 1.97 1.97 0 0 0 .242-.104c.242-.104.45-.208.52-.243.265-.104.52-.22.785-.335.22-.104.474-.243.751-.381l.07-.035s-2.635 3.882-5.708 5.707c.197.035 2.646.393 3.859-.127.012 0 .023-.011.035-.011 0 0 .208 4.632-4.31 9.623-.311.346 3.362 4.702 5.615 7.255.093.104.173.196.254.3.07.081.15.163.197.231.173.197.346.382.473.52.139.174.243.289.3.347.162-.139 1.399-1.202 2.034-1.722a51.34 51.34 0 0 1 3.408-2.483c1.098-.751 3.64-2.103 3.64-2.103.01 0 .022-.011.034-.022.127-1.145.508-1.803.832-2.208.427-.531 1.074-.647 1.605-.958.22-.128.462-.266.694-.52.08-.081.161-.174.242-.29a3.64 3.64 0 0 0 .139-.219c.058-.092.115-.196.161-.312.047-.092.081-.184.116-.277.127-.289.243-.635.347-1.051.184-.705.774-1.363.774-1.363a.116.116 0 0 1-.035-.012c-.809-.3-1.629-.554-2.45-.809a66.64 66.64 0 0 0-3.962-1.05 64.13 64.13 0 0 0-2.668-.59c6.931-4.586 14.602-8.006 22.493-10.675 2.634-.89 8.225-2.483 8.225-2.483-.786-.728-1.56-1.583-1.952-2.38-.982-1.953.693-4.887 1.386-5.996.705-1.12-.555-1.814-.555-1.814 1.121-.843 1.953-2.23 1.953-2.23-.023 0-.035.012-.058.012-2.484.543-4.817.682-4.817.682l-.012-.012c-1.386-1.109-1.94-3.477-1.664-4.737.278-1.247.832-3.211.832-3.211h-.046c-.462.046-.97.011-1.444-.058-.809-.104-1.513-.3-1.698-.347l-.012-.011c5.291-.693 7.937-2.646 7.937-2.646-.023 0-.046.012-.07.012-1.397.266-3.823.404-3.823.404v-.011c.023-.15.196-1.56 1.247-2.265.393-.265 1.213-.265 2.195-.127.555.081 1.156.197 1.768.347.289.07.577.139.866.22 1.063.288 2.08.6 2.808.843.023 0 .023.011.046.011 2.09.705 3.073 3.49 3.073 3.49.566 1.801 1.455 3.107 2.507 4.089.011.011.023.023.034.023a9.5 9.5 0 0 0 1.548 1.109c.208.139.428.254.659.347.22.104.439.208.67.3.67.277 1.352.497 2.01.67.428.116.855.22 1.26.3.207.047.415.093.612.139.37.08.704.22 1.016.404.936.532 1.618 1.502 2.08 2.461 3.685-.393 7.393-.716 11.079-.936a16.992 16.992 0 0 0-1.49-1.536c-3.709-3.42-8.896-5.615-13.552-7.105 9.265-1.236 18.635-1.606 27.958-1.93a617.34 617.34 0 0 1 16-.38c-1.12-.936-2.669-1.48-4.009-2.01 3.131-.359 6.4-.059 9.531.173-2.669-1.34-5.695-2.103-8.549-2.946-2.01-.59-4.032-1.156-6.053-1.687.034 0 .138.011.242.011-.034-.011-.07-.011-.104-.023 1.363.116 2.761.243 4.16.382.23.011.45.034.67.057 7.982.844 15.942 1.745 23.879 2.842a521.844 521.844 0 0 1 29.886 5.037c9.024 1.79 18.023 4.009 26.94 6.25 3.767.948 7.51 1.941 11.254 2.992a463.506 463.506 0 0 0-20.022-5.268" fill="#9F792C"/><path d="M168.44 265.388s-1.295.324-3.952 2.345c-2.668 2.034-3.315 4.69-3.315 4.69 1.386-1.27 3.315-2.448 3.315-2.448-.543.854-.323 1.282-1.502 3.939-1.166 2.668-4.055 2.565-6.076 2.773-2.022.22-5.326-2.23-5.326-2.23-1.178.427-3.316 2.45-3.316 2.45.96-3.2 4.483-6.609 4.483-6.609-1.49.635-4.16 2.553-4.16 2.553-1.49-1.167-6.734-2.67-10.246-4.586-3.524-1.918-3.097-5.65-3.097-5.65.22-2.24 2.138-5.233 2.138-5.233-1.179.647-2.45 2.033-2.45 2.033a6.599 6.599 0 0 1 .012-1.178v-.035c.127-1.143.508-1.802.832-2.206.427-.532 1.074-.647 1.606-.959.22-.127.462-.266.693-.52.08-.08.162-.173.242-.289.047-.069.093-.138.14-.22.057-.092.115-.196.16-.311.047-.093.082-.185.116-.277a6.59 6.59 0 0 0 .347-1.052c.185-.704.774-1.363.774-1.363 1.225-1.375 3.396-2.368 3.396-2.368-1.132 1.42-1.27 2.923-1.282 3.235.012.011.023.011.035.011 2.449-3.882 6.585-3.57 6.585-3.57-.855.22-1.918.855-1.918.855s1.814.636 3.628 1.167c1.813.543 5.857.855 8.213.855 2.346 0 6.713.855 6.713.855 1.917-.636 7.798-2.126 7.798-2.126-2.034 1.271-5.65 3.085-5.65 3.085 7.36 4.055 1.063 12.384 1.063 12.384m50.624 22.182c-1.41 2.414-3.316 2.632-3.316 2.632l.485-.912c-1.652.451-3.396-.496-3.57-.59 1.017 1.423 1.121 3.26 1.121 3.26l-.647 1.212 2.23-.161-1.26 1.548c.37 3.604-2.622 4.956-6.122 4.679-3.49-.266-7.718-3.87-7.718-3.87.243-1.398 2.877-5.141 2.877-5.141-1.871.566-5.256 2.956-5.256 2.956-3.2-1.986-2.542-1.316-11.657-2.575-9.103-1.26-13.667-3.675-13.667-3.675-.046-1.663 1.19-3.662 1.19-3.662-2.172 1.063-3.246 2.75-3.246 2.75-.774-.566-3.431-3.132-2.392-6.747 1.029-3.605 6.378-4.158 6.378-4.158 1.744-1.41 4.378-1.434 4.54-1.434-.601.36-1.606 1.052-1.606 1.052 1.49-.288 9.53.542 13.008.81 3.49.276 7.244.264 7.244.264l3.57-.82c-1.514.97-5.765 3.72-6.285 4.056 2.645-1.63 9.069-2.912 9.069-2.912s1.12-.14 2.772.588c1.64.728 2.357 3.41 2.357 3.41 1.42-1.398 3.79-.568 6.215 1.952 2.438 2.518 2.53 5.174 2.53 5.174l1.156.313zm-1.721-130.68s4.15 2 5.41 2.763c0 0-.845-.047-1.389 0 0 0-1.42.832-1.709 1.375-.302.544 0 3.018-1.388 4.104-1.374 1.087-3.225.832-3.803 1.503-.588.67.336 1.595.336 1.595s-3.006-.682-3.932-.764c0 0 1.434 1.446 2.35 2.116 0 0-1.18-.266-2.395-.103-1.215.172-4.981.46-6.992-1.123-2.013-1.594-.96-2.855-.497-3.353.46-.495.577-1.13-.752-2.68-1.341-1.55-1.132-1.55-.88-2.38 0 0 4.671.01 6.348.474 0 0-4.556-2.567-6.347-2.95 0 0 .08-.577 1.087-1.34 1.005-.75 2.336-1.352 2.786-3.235 0 0 3.374.645 5.292.934-2.09-.797-3.062-1.975-6.482-2.935 0 0 2.38-.115 3.292-.196 0 0 1.63-.288 2.393-1.006.312-.29.706-.658 1.204-.984.727-.473 1.665-.877 2.959-.923 2.392-.081 4.67.486 6.288 1.04 1.236.428 2.09.844 2.312.947 0 0-2.22-.335-3.722-.37 0 0 .751.416 1.167.88 0 0 .081.878-.045 1.375-.118.509-.37 1.26-.08 2.091.288.845 1.131 2.717 1.259 3.386 0 0-2.567-.206-4.07-.241m18.114 29.881c-1.897-.393-5.178-.67-5.178-.67 2.449.948 4.287 1.664 4.287 1.664s-.334.29-.774.336c-.45.057-1.237-.44-1.897-.336-.669.115-1.18 1.238-1.906 1.85-.718.611-1.665.438-1.665.438s-.23.902-.946 1.458c-.729.555-1.908.276-3.411.057-1.502-.231-2.013-3.41-2.013-3.41-1.56-1.387-3.953-2.67-3.953-2.67 1.007.046 2.29.277 2.29.277-.508-.845-3.467-2.23-3.467-2.23-.498-.232-2.014-1.064-2.014-1.064 1.516.116 6.14 1.168 6.14 1.168-1.504-.948-4.52-2.115-4.52-2.115.23-.51.51-.89 1.237-.89.716 0 2.23.217 2.726-.174.51-.392.615-1.4 1.515-1.954.892-.555 2.51-.104 3.955.278 1.456.392 3.235 1.062 3.235 1.062-1.675.116-3.397.116-3.397.116 2.056.498 4.07 1.504 5.963 2.67 1.942 1.202 1.18 2.348 2.798 2.96 1.619.613.995 1.179.995 1.179m-31.084-55.15c-.231 2-2.798 3.769-3.49 4.22-.684.463-1.965 1.374-2.348 2.659-.38 1.294-1.744 2.125-2.589 2.207-.831.069-1.965 1.283-1.965 1.283 1.191.29 2.868-.219 3.088-.289-.175.15-1.62 1.318-2.256 1.815-.682.531-2.957 1.064-3.79.982-.845-.068-1.678 0-4.254-.068-2.589-.082-5.548-.312-6.44-1.942-.843-1.55-1.202-1.597-1.237-1.597-1.825.833-5.617.8-5.617.8 3.653-1.515 6.775-4.937 6.775-4.937-1.966.833-4.197 1.167-4.197 1.167-.313-.531-.37-1.086-.3-2.23.081-1.133 1.143-1.746 1.143-1.746s.07-.6.833-1.596c.764-.982 3.341-2.345 4.786-2.427 1.446-.081 3.258-.83 4.254-1.514.982-.682 4.473-2.126 6.218-1.977 1.745.151 2.44.45 2.44.45.983-.068 3.179-.45 3.179-.45-2.88 2.278-4.704 3.11-4.704 3.11 3.338-.382 6.229-1.745 6.229-1.745 3.41.231 4.473 1.827 4.242 3.825m43.418-2.935c-.151 1.086-.925 3.872-2.393 4.497-1.481.611-1.874.727-1.874.727v3.225s-2.196-1.965-2.657-2.59c0 0-.59.025-2.139-.207-1.55-.23-3.411 2.405-6.277 2.175 0 0-4.717-1.008-5.491-2.95-.774-1.93-.474-3.56-.161-4.102 0 0 1.63 2.091 2.785 2.703 0 0-1.075-2.472-1.075-4.021 0 0 .925-.693 1.075-1.4.16-.692 1.943-1.78 3.028-2.01 1.086-.233 2.15.23 2.15.23s1.272 2.891 2.198 3.977c0 0-.394-5.676.068-7.687 0 0 1.18 2.613 1.804 3.467 0 0 1.295-.138 3.155-.45 1.863-.312 3.48-.151 4.566.923 1.087 1.089 1.399 2.406 1.237 3.493m-59.033 44.492c-.439-.035-2.983-.244-4.508-.047 0 0-.948.948-2.012 1.006-1.063.057-1.281.843-1.063 1.456.231.612 1.295 2.844-.047 4.405-1.34 1.56-4.46 1.028-4.46 1.028s-3.133 2.324-6.566 1.816c-3.434-.51-6.162-1.816-6.162-1.816s-3.12-.705-4.844-1.619c0 0 4.244.406 7.572.208 0 0-3.572-1.097-4.613-2.37 0 0 1.215-.762.995-1.87-.232-1.123-.566-2.684-.057-3.574 0 0 3.12 1.503 4.682 1.897 0 0-2.001-1.676-2.73-3.18 0 0 1.342 0 2.568-1.004 1.224-1.006 2.531-2.81 4.808-2.775 0 0 1.052-1.076 2.115-1.307 1.053-.22 1.942-.22 1.942-.22s1.236.555 3.352.948c0 0-2.842-1.896-3.515-2.727 0 0 1.284.44 2.347.382 0 0 1.168-.335 3.064.173 1.895.498 3.179 1.953 3.179 3.178 0 1.227-1.723 2.844-1.11 3.907.567.972 4.496 1.965 5.063 2.105" fill="#000"/><path d="M376.918 193.22c0 1.563-3.572 1.123-6.255.89-2.67-.218-16.285 1.122-20.978 3.353a69.968 69.968 0 0 0-11.572 3.826 61.303 61.303 0 0 0-3.144 1.469c-1.249.622-2.474 1.295-3.595 2.126-.137.104-.265.208-.379.3 0 0-.616-3.375-3.585-6.403a6.805 6.805 0 0 0-.522-.508 11.994 11.994 0 0 0-1.178-.972c-1.26-.936-2.832-1.768-4.752-2.357a18.413 18.413 0 0 0-2.032-.497 23.07 23.07 0 0 0-3.537-.383h-.023c-.047-.011-.106-.011-.163-.022 5.987-2.844 13.327-5.665 19.547-6.022 13.038-.73 30.216 2.831 30.216 2.831s9.628-12.034-4.01-26.135c2.773 2.544 7.34 7.258 10.16 12.887 4.24 8.474 5.802 14.057 5.802 15.618m38.977-15.177c-2.16-1.906-5.063-3.896-8.277-5.86-2.346-1.456-4.852-2.89-7.222-4.094-.081-.045-.175-.08-.257-.126 13.132 2.16 16.208-1.259 16.912-2.672.023.047.06.095.08.141.197.357.383.717.52 1.063 2.614 6.219-1.756 11.548-1.756 11.548" fill="#9F792C"/><path d="M323.224 185.475s-11.88 7.48-20.482 5.261c-8.612-2.22-23.373-13.894-23.373-13.894s5.652-.74 14.994.82c.08.012.16.035.242.046 1.698.382 3.514 1.758 4.875 2.716.834.59 1.584 1.285 2.384 1.909.161.126 2.24 1.397 2.334 1.397-.01.152-.033.301-.033.464a3.97 3.97 0 0 0 7.939 0c0-.868-.277-1.665-.75-2.314 7.837 2.233 11.87 3.595 11.87 3.595" fill="#006778"/><path d="M306.938 182.065c-.07 1.145-.833 1.84-1.849 1.84-.29 0-.602-.071-.89-.175-.094 0-2.174-1.27-2.335-1.398-.8-.624-1.55-1.318-2.384-1.907-1.362-.96-3.164-2.325-4.866-2.716 1.043.196 5.113.993 7.502 1.63 1.205.312 2.324.623 3.423.924 0 0 1.47.647 1.399 1.802" fill="#FFF"/><path d="M350.656 185.522c2.498-.623 5.23-1.859 7.185-3.612 0 0-.008-.005-.006-.006.011 0 .02-.012.033-.034-4.324 1.595-8.959 2.116-13.398.59a35.484 35.484 0 0 1-2.24-.833c-.28-.116-.547-.242-.822-.382-4.451-2.23-8.483-5.468-12.428-8.484-6.76-5.178-13.833-9.745-21.695-13.038-.545.381-1.353.983-2.092 1.71v.174c0 2.126 1.538 6.577 4.81 9.247 4.238 3.467 12.133 6.935 12.133 6.935-.379-1.34-.193-3.074-.193-3.074 1.155 1.918 3.665 4.809 7.51 6.935.247.14.509.266.788.394a70.42 70.42 0 0 0 4.312 1.848 35.97 35.97 0 0 0 3.412 1.123c4.142.854 8.536 1.546 12.691.507" fill="#9F792C"/><path d="M301.504 195.094c-3.87-2.046-7.847-3.953-11.927-5.572a159.115 159.115 0 0 1-7.503-4.08c-3.328-1.931-6.635-3.965-9.78-6.196-1.49-1.052-3.224-1.932-4.519-3.225-.083-.082-.185-.173-.265-.184a18.945 18.945 0 0 0-2.383-.21c-1.027-.034-2.069 0-3.097.07-.08.012-1.26.14-1.26.128.914 2.959 4.96 7.329 4.96 7.329-1.92.137-4.383-.544-4.383-.544 3.56 4.785 13.41 10.807 21.074 12.31 7.664 1.503 14.634 1.225 14.634 1.225-1.088.554-2.868 1.237-2.868 1.237s3.007-.138 7.11.683c.53.104 1.108.243 1.733.415 2.719.694 6.08 1.816 8.058 2.509.231.076.451.155.638.22a72.58 72.58 0 0 0-2.892-1.85c-2.01-1.26-4.774-2.925-7.33-4.265" fill="#FFF"/><path d="M263.81 170.76c3.053-.912 6.624-1.63 9.791-1.93 10.727-1.015 21.34.774 31.293 4.15 9.684 3.285 18.597 8.312 28.526 10.97 1.266.34 2.539.645 3.82.917l.712.144a35.718 35.718 0 0 1-3.4-1.12 70.808 70.808 0 0 1-4.31-1.848 9.975 9.975 0 0 1-.788-.393c-3.846-2.126-6.355-5.017-7.512-6.936 0 0-.185 1.734.194 3.074 0 0-7.895-3.468-12.135-6.934-3.271-2.67-4.808-7.12-4.808-9.247v-.174c-.578.555-1.11 1.18-1.468 1.849-1.168 2.15-1.077 3.78-1.077 3.78s-1.006-.428-1.917-1.132c0 0 .461 1.942 2.104 2.763 0 0 .936 1.236.532 2.172 0 0-2.878-.231-3.55-.774-.67-.555-2.809-1.329-2.809-1.329s.716-.116 1.481-.069c0 0-.775-1.883-1.514-2.52-.741-.625-2.234-1.77-1.897-3.225 0 0 1.757.126 2.599.462 0 0-2.773-2.404-4.472-2.787l2.324-.125s-.313-1.643 2.635-3.077c2.96-1.432 3.872-2.345 4.498-3.27.611-.925.866-1.872 1.64-2.427 0 0 1.447.82 2.59 1.687 0 0-.66-1.953-2.751-3.387 0 0-7.686-.867-13.155 3.087l.451.278c.047.034.104.057.15.091.106.069.21.138.314.208a.603.603 0 0 1 .148.093c.115.07.221.15.325.22l.102.069c.14.092.278.185.407.277 0 0 .011.011.024.011.113.081.218.15.308.221.036.034.084.058.118.091.058.036.104.07.152.104.033.023.067.058.1.07.014.011.014.023.024.023.048.036.07.059.104.083 0 0 .013.01.023.01a.272.272 0 0 1 .058.047c-1.052-.256-3.224-.555-4.24-.695-.304.3-.972.97-1.25 1.318 0 0-.612.799-.971 2.844-.115.66.254 2.174.925 2.763.669.579 2.762 2.51 3.097 3.42.338.926-.276 2.359-.137 2.982 0 0-1.62-1.038-2.532-1.294.183.185 2.034 2.082.995 2.324 0 0-.925-1.075-2.602-1.826-1.677-.752-4.761-2.266-5.687-3.097-.867-.787-1.432-2.451-1.491-2.66.104.138.613.821 1.073.902.465.08 1.827.96 2.001 1.075-.058-.138-.531-1.284-1.086-1.745-.579-.51-2-1.18-2.752-2.092l.832-.255s.232-1.641-.137-3.26c-1.25-.278-4.497-.844-7.088.068 0 0 2.349 1.516 4.335 4.29 0 0-19.222 3.525-26.909 17.306l-.313.635-.104.103.164-.127s.022 0 .056-.012h.012c0-.011 0-.011.012-.011.301-.254 3.328-2.855 5.177-3.884 2.693-1.503 5.7-2.427 8.636-3.318" fill="#FFF"/><path d="M302.742 190.736c-8.611-2.22-23.372-13.894-23.372-13.894s5.65-.74 14.993.82c.104.011 5.016.948 7.753 1.676 1.205.313 2.324.624 3.423.926 0 0 1.47.646 1.399 1.802-.07 1.145-.833 1.839-1.849 1.839-.29 0-.602-.07-.89-.175-.01.152-.035.3-.035.464a3.973 3.973 0 0 0 3.975 3.965 3.971 3.971 0 0 0 3.965-3.965c0-.868-.277-1.665-.75-2.313 7.837 2.233 11.87 3.594 11.87 3.594s-11.881 7.48-20.482 5.261m58.214-26.02a42.288 42.288 0 0 0-3.1-2.89l.07.138c.036.06.07.127.114.208.024.059.057.128.093.198.048.068.082.149.129.23.068.15.149.313.232.486.044.092.091.186.137.289.081.196.172.405.276.624.29.672.614 1.478.926 2.382.312.902.6 1.884.843 2.924.082.346.151.693.21 1.051.023.14.045.266.056.394.247 2.789.409 5.398-.782 8.03a9.377 9.377 0 0 1-2.037 2.881c-.091.087-.19.166-.283.248-1.954 1.754-4.686 2.99-7.184 3.613-4.155 1.039-8.55.347-12.691-.508l-.013-.002c-.24-.049-.477-.096-.713-.146a74.893 74.893 0 0 1-3.82-.915c-9.927-2.66-18.84-7.687-28.526-10.971-9.953-3.375-20.565-5.166-31.293-4.149-3.166.3-6.738 1.018-9.79 1.93-2.936.89-5.943 1.815-8.636 3.318-1.849 1.03-4.876 3.63-5.177 3.883.07-.023.197-.046.347-.08.138-.035.485-.115.495-.128 2.36-.588 4.857-1.19 7.388-1.595a47.434 47.434 0 0 1 2.544-.334c0 .012 1.177-.116 1.26-.128 1.026-.07 2.07-.104 3.096-.07.763.022 1.574.082 2.383.21.08.011.182.102.264.184 1.297 1.293 3.03 2.173 4.52 3.225 3.144 2.23 6.452 4.265 9.78 6.195a159.115 159.115 0 0 0 7.502 4.08c4.08 1.62 8.057 3.527 11.929 5.573 2.555 1.34 5.318 3.004 7.329 4.265.983.59 1.94 1.216 2.891 1.85.614.408 1.226.819 1.837 1.224 3.42 2.278 6.68 4.808 9.79 7.49a129.49 129.49 0 0 1 2.66 2.359c1.398 1.295 2.68 2.694 4.054 4-.114-.104-.138-.636-.182-.8-.082-.298-.198-.599-.311-.9-.246-.624-.488-1.26-.755-1.873a41.2 41.2 0 0 0-1.744-3.629 57.85 57.85 0 0 0-4.345-6.809 75.257 75.257 0 0 0-2.834-3.57c-.716-.834-1.467-1.641-2.219-2.462-.6-.66-1.329-1.849-2.22-2.139 0 0-.08-.036-.09-.036-.047-.011-.106-.011-.163-.022 5.987-2.844 13.327-5.665 19.547-6.022 13.038-.729 30.215 2.832 30.215 2.832s9.628-12.035-4.01-26.136" fill="#000"/></g></svg>