<svg width="512" height="512" viewBox="0 0 512 512" xmlns="http://www.w3.org/2000/svg"><title>jacksonville-jaguars</title><g fill="none" fill-rule="evenodd"><path d="M427.336 247.657l-.278.04c-1.062.168-3.138-.152-2.857-1.661.162-.928 1.44-1.695 2.244-2.032 2.293-.926 4.536-1.8 6.592-3.176.737-.495 1.443-1.035 2.08-1.66.173-.163 1.112-.915 1.081-1.195a21.555 21.555 0 0 0-1.632-6.04c-.24.582-.647 1.345-1.216 2.203-1.261 2.137-2.821 3.126-3.383 3.43-.823.466-2.433.951-3.166-.473-.744-1.406 1.299-2.622 1.299-2.622 3.021-2.168 4.243-4.369 4.735-5.806-1.62-2.51-3.175-3.822-3.175-3.822s-4.34 10.794-15.7 16.289c-8.152 3.948-15.628 8.537-20.422 14.002a29.51 29.51 0 0 0-1.878 2.41l.092.011c11.521 1.273 17.171 6.132 19.03 8.483l.33.447.04-.013c.718-.12 12.272-2.201 19.43-10.06h-.78c-1.766-.07-8.513.109-6.81-3.275.573-1.134 2.593-.82 3.6-.76 1.74.103 3.465.287 5.198.193 2.392-.131 2.835-2.295 3.432-4.27.566-1.91.908-3.71 1.064-5.41-2.646 3.354-7.388 4.49-8.95 4.767m-25.489 18.648c-2.55-.593-5.69 1.072-7.442 2.197-.332-.69-.957-1.3-2.148-1.709-3.581-1.203-7.998 2.192-7.998 2.192.37-2.588-3.192-1.85-3.333-1.829-1.055.086-5.476 1.477-8.092 2.938-3.872 1.348-8.98 2.984-14.626 4.351 1.06 6 .735 10.22.735 10.22 5.99-3.093 10.96-9.465 13.98-14.053.649 3.083 3.264 7.265 3.264 7.265 4.2-2.603 7.932-6.372 7.932-6.372 1.29 2.327 1.073 7.214 1.073 7.214 2.95-.958 5.595-2.863 7.297-4.29-1.882 9.97-7.934 19.642-7.934 19.642 7.08-2.653 20.6-16.999 21.472-20.91.864-3.903-.426-6.013-4.18-6.856m-64.645 10.887c1.191 12.215-9.685 23.25-9.685 23.25 17.639-4.947 26.896-19.078 29.746-24.16.302-.752.526-1.371.658-1.776-6.57 1.57-13.836 2.763-20.72 2.686m16.553 38.597s-10.856 17.34-15.751 20.923c-.002 0-1.176-2.837-2.613-4.241 0 0-5.949 4.014-7.14 6.214.125-.227-1.07-1.872-1.196-2.093-.67-1.096-1.354-2.175-2.177-3.161-2.378 1.396-5.13 3.434-6.38 5.932a31.006 31.006 0 0 0 2.313-6.234c.33-1.337.561-2.706.704-4.077.485-4.71-.125-9.505-1.654-13.985 0 0-5.633 13.77-12.12 20.512-6.502 6.724-10.056 8.448-10.469 9.406-.41.93-.496 4.347 7.122 3.382 7.625-.989 13.003-6.648 13.003-6.648s10.43-1.933 19.602-.689c0 0 2.545 2.759 6.165 2.505s11.155-14.398 10.593-27.746m-52.23-42.692c-4.586-14.352-21.597-17.132-21.597-17.132s13.93 5.672 14.303 45.802c.13 13.499 4.263 19.208 4.263 19.208-7.027-3.736-8.87-17.517-9.507-28.181-.318-5.423-2.523-31.85-22.794-38.376-12.307-3.963-18.23-.59-18.23-.59s9.5 2.262 14.853 11.996c8.092 14.641 2.334 40.532 8.37 54.36 7.46 17.101 21.11 21.715 21.11 21.715 17.913-9.595 21.75-24.505 21.75-24.505-15.319-7.92-7.956-29.929-12.522-44.297M324.9 322.52l.626 6.91 4.818 3.128c1.387-5.589-5.444-10.038-5.444-10.038m50.957-95.172c-4.174-.378-7.48 1.5-7.48 1.5s12.272 0 16.75 3.866c4.496 3.883 3.295 6.862 3.295 6.862s4.479 7.166 5.683 10.14c0 0 8.366-7.749 8.974-13.117-.002-.002-16.256-8.251-27.222-9.25m37.07-17.341s-5.253 6.457-7.851 4.478c-2.614-1.989 1.362-4.647.522-9.82-.823-5.163-17.819-22.573-39.284-35.414 0 0 9.924 4.091 19.521 9.168l.23.112a90.873 90.873 0 0 1 6.45 3.642c2.876 1.75 5.47 3.518 7.4 5.22 0 0 3.9-4.745 1.569-10.282a9.336 9.336 0 0 0-.463-.945l-.077-.124a17.492 17.492 0 0 0-1.286-1.915 9.162 9.162 0 0 0-1.744-.912c-1.354-.518-2.63-.735-3.53-1.179 0 0-2.063-2.084-2.756-3.084 0 0-.22.919.351 2 0 0-1.589-1.392-3.048-1.7-1.454-.3-3.207-.884-3.66-1.225-.45-.337-1.34-1.12-1.34-1.12s.037.708.254 1.233c0 0-1.494-.116-1.748-1.682-.266-1.562.959-2.198.959-2.198s-.112-.444 0-.998c0 0 1.342 1.481 1.985 1.86 0 0 .29-.945-.259-2.569l-.493-.282c-.496-.264-.981-.51-1.435-.717-.382-.178-22.494-12.681-32.98-17.925a13.577 13.577 0 0 1-2.97-.612s-1.752-.814-2.044-1.65c0 0-.12.431.136.906.444.8 1.38 1.656 1.66 2.765 0 0-1.74-1.028-3.176-1.767-1.257-.65-3.9-1.398-5.395-2.514a3.17 3.17 0 0 1-.715-.687l-.167-.205a2.54 2.54 0 0 1-.305-.648l-.066-.258-.02-.116-.022-.278.01-.19.085.059.072.061.103.081c.628.534 1.3 1.133 2.085 1.346l.195.052-.072-.094-.082-.092-.197-.227a9.396 9.396 0 0 1-1.42-2.059c-8.568-4.228-18.808-8.721-32.653-11.438-19.93-3.925-33.306-.617-33.306-.617s3.93.234 12.127 3.093c.51-.162 1.202-.442 1.81-.873 1.18-.842 1.942-1.008 2.446-1.008.503 0 2.686 2.594 2.686 2.594s-.24-2.004-.663-3.692c0 0 2.146-.184 2.964 0 1.196.275 2.192.68 2.616.68.419 0 .594-.501.594-.501s.755.49.755 1.09c0 0 1.69 1.172 1.69 2.272 0 1.09-.255 2.522 0 3.203 0 0-.422.245-1.106-.847 0 0-1.093.925-2.188.925-.513 0-.976.127-1.336.267 3.776 1.689 8.048 3.758 12.858 6.32l.95.678s.39-1.595.647-1.842c0 0 .5.446.601.702 0 0 .092-.702-.052-1.494 0 0 1.34-1.09 2.387-1.192 1.046-.103 1.452-.103 1.79-.302 0 0 .237-.831-.112-1.73 0 0 1.756 1.022 2.107 2.327 0 0 .153-.791.1-1.596 0 0 1.837-.298 3.19.054 1.341.337 2.25.803 2.555 1.295.292.497 1.125 2.16.667 2.522-.479.36-1.323.501-1.578.904-.25.396-.347.741-.693.989-.338.245-.805.308-.805.308s-.095 1.378.265 2.074c0 0-.72-.09-1.068-.934 0 0 .164.785-.34 1.338-.494.545-.837.884-1.33 1.033 0 0-1.231-1.166-1.332-1.619 0 0 .136 2.746-.34 2.234 0 0-2.587-2.282-3.11-2.564 0 0-1.112.166-1.555.118-.456-.044-1.99-.64-2.288-1.146 0 0-.053.597.794 1.196 0 0-.77-.12-1.053-.253 0 0-.446.5-1.238.704 0 0 .792.897 1.14 1.236 0 0-1.565-.276-2.276-1.033 0 0-.904.046-1.907-.253-.994-.298-1.602-.195-2.499-.055-.9.149-1.044.055-1.696-.1-.647-.14-2.433-1.14-2.433-1.14s.298.794.603 1.052c0 0-.154.647-1.604.243-1.444-.403-1.494-.84-2.24-1.298-.75-.437-1.246-1.091-1.093-1.636.145-.547.597-.95.597-.95s.443.403 1.238.76c0 0-1.341-1.691-1.497-2.293l1.056.197s.243-.945 2.334-1.387a27.784 27.784 0 0 1 1.766-.319 228.803 228.803 0 0 0-23.132-5.904l-.395.534-.36.676c-.342.7-.597 1.413-1.143 1.874 0 0-4.33-1.347-5.718-2.038 0 0 2.19 1.785 3.712 2.605 0 0-1.312 2.17-5.889 1.665 0 0-2.121.916-3.784.746-1.646-.18-4.165-1.27-4.683-2.114-.515-.866-.456-2.633 1.323-3.666 0 0 2.42 1.475 3.618 2.148 0 0-2.134-2.65-1.963-3.506 0 0 .757-.626 1.667-1.17-1.062-.147-2.139-.278-3.219-.392-9.794-1.103-18.456-1.267-26.31-.823.62.893.494 1.729.995 2.617.597 1.091-.281 1.592-.281 1.592-.66-.536-3.388-1.69-3.388-1.69 1.038.977 1.92 2.335 1.92 2.335-.656.381-2.39.72-4.259.814-1.867.081-4.522 1.623-4.522 1.623-1.112-.328-2.06-1.457-3.001-2.327l-.468-.4-.123-.101-.072-.061-.09-.064.11.304.013.027.009.032.188.477.446.926c.474.905 1.038 1.76 1.608 2.6l.029.05.638 1.022.222.328.041.073.07.113.084.12.037.075.053.079c-.235-.298-.98-.44-1.338-.569l-.062-.017c-.62-.248-1.198-.57-1.766-.924l-.029-.024c-.259-.183-1.013-.864-1.32-.746l-.194.057-.123.03-.234.073-.3.072-.312.068-.441.085-.795.092h-.041l-1.076.011c-1.915-.113-4.26-1.739-5.893-3.386a2.447 2.447 0 0 1-.779-1.796c-1.707.4-3.381.82-5.009 1.262-2.433.569-15.684 3.518-29.223 6.556.079.939-.314 1.943-.314 2.468 0 .938.757 1.645.757 1.645-1.551.124-4.288-.904-4.288-.904.777 1.098 3.009 2.37 3.009 2.37s-.323 1.224-1.345 1.644c-1.018.423-1.795.258-3.066.16-1.277-.074-2.382.516-4 .597-1.62.086-3.604-.912-3.604-.912 1.788.162 3.117-1.041 3.117-1.041-2.29-.258-3.006-1.105-3.26-1.604-.184-.37-.755-.877-1.28-1.25-9.936 2.215-17.629 3.934-17.629 3.934-6.304.845-11.39 1.481-11.39 1.481-1.871.136-3.745.245-5.614.353-10.29.546-20.588.306-30.86.936a75.61 75.61 0 0 1-4.562.135h-.055c.83.186 1.665.412 2.492.637 1.126.302 2.238.617 3.353.956a151.542 151.542 0 0 1 11.155 3.81c1.819.698 3.622 1.438 5.41 2.214a116.59 116.59 0 0 1 5.626 2.632c.505-.772 2.787-.772 2.787-.772l-.29-.595c-.002 0 .639.407 1.433.35l.156-.024.577-.215c.257-.166.476-.391.98-.553.845-.302 2.024-.18 2.024-.18.32-.577 1.735-1.13 1.735-1.13l-.62-.536c.57-.095 1.869.177 2.415.234.373-.027.674-.057.783-.125l.05-.026c.157-.127.26-.39.117-.608-.27-.245-.867-.436-1.28-.617-.475-.217-.528-.523-.537-.617l-.02-.046c-.495.105-1.63-.38-1.63-.38s.95-.047 1.196-.215l.63-.278a4.116 4.116 0 0 1 1.204-.359c.757-.096 1.657.593 1.657.593s.792.142 1.586-.153c.814-.278 2.48-.247 2.396-.228-.513.092-1.033.445-1.525.445.402 0 .948.275 1.266.503 1.477.993-.395 2.294-1.349 2.754-1.463-.16-2.372.41-2.372.41s1.883 0 1.793.552c-.106.538-.952.888-1.85 1.087-.897.195-1.6 1.092-1.6 1.092.409.048.755.444.755.444s-.95.098-1.09.203c-.156.092-.65 1.197-1.053 1.687-.393.494-1.786.844-1.786.844.638.35 2.685.593 2.685.593-1.127.405-2.444.475-2.9.497l3.552 2.244.02.007c.164.116 2.707 1.7 3.58 2.211 3.698 2.172 7.507 4.152 11.528 5.64 1.223.402 2.423.866 3.651 1.247a63.92 63.92 0 0 0 4.132 1.104 56.6 56.6 0 0 0 3.84.707c2.29.337 4.62.472 6.935.411 2.333-.055 4.654-.376 6.953-.796 2.664-.495 5.308-1.066 7.908-1.822l1.28-.366c3.593-1.102 7.073-2.688 10.423-4.394a77.07 77.07 0 0 0 2.611-1.341l.064-.042.061-.02c-.052.06-6.24 5.178-9.27 7.031a74.85 74.85 0 0 1-2.012 1.192 77.891 77.891 0 0 1-3.376 1.803c-.97.503-1.94.962-2.92 1.395l-1.559.652-.083.042c-6.44 2.553-13.005 3.425-19.94 3.918-5.966.424-14.652.658-23.54-.44-14.61-1.82-22.33-6.718-22.33-6.718 13.342 2.332 20.403 1.92 23.613 1.391-4.873-3.093-9.064-6.976-14.512-10.386-13.022-8.105-25.333-13.186-38.647-11.966 0 0 4.366 1.07 7.442 5.176-.963 4.032 4.28 12.985 12.186 19.839 1.374 1.194 2.86 2.478 4.483 3.762l-5.957-.133c4.188 2.708 15.295 6.348 15.295 6.348-2.435.816-6.628 1.48-6.628 1.48.27.311 8.287 4.457 23.233 5.076 8.195.33 16.346-1.098 23.905-4.294l.169-.084.241-.129.062-.02-.595.574c-4.544 4.147-10.343 6.656-16.247 8.27a68.3 68.3 0 0 1-9.703 1.893l-1.516.168c-.206.068-.349.16-.404.278-1.606 5.012-1.658 10.424-1.38 15.628.15 2.793.496 5.593.999 8.356l.01.04c.363-.364.795-.749 1.289-1.153 0 0 1.5-1.234 4.107-1.613l-.108-.102-.12-.105c-.555-.47-1.411-.707-2.161-.825l-.582-.09.496-.083c1.628-.341 3.563-.639 5.14-.297l.115.021c.96.217 1.803.851 2.323 1.674l.137.262.15.337.034.086.103.343.07.339.016.068.017.354c0 .418-.083.845-.268 1.245-.614 1.37-1.746 3.981-1.746 4.968 0 .453-2.34 2.08-2.971 2.714l-.1.116.192-.01.154-.02 2.067-.258 1.011-.06h.026s1.618 2.982 2.866 3.977c1.244.994 2.365 3.098 2.745 4.714l.042.014c.149.01.329-.042.515-.119l.062-.017.217-.094.463-.214.702-.302.67-.34.065-.032s-2.357 3.458-5.104 5.086c.18.028 2.368.348 3.452-.12l.028-.01s.187 4.128-3.85 8.576c-.28.31 3.005 4.187 5.02 6.462l.226.269.175.203.424.466.265.308a94.272 94.272 0 0 1 1.82-1.529c.975-.79 2-1.52 3.04-2.218.985-.67 3.254-1.872 3.254-1.872l.029-.016v.024c-.029.32-.038.665-.01 1.053 0 0 1.14-1.236 2.19-1.812 0 0-1.715 2.665-1.908 4.662 0 0-.387 3.32 2.762 5.031 3.14 1.706 7.822 3.043 9.16 4.086 0 0 2.385-1.71 3.71-2.277 0 0-3.15 3.04-4.004 5.887 0 0 1.91-1.798 2.965-2.185 0 0 2.953 2.185 4.757 1.992 1.805-.186 4.386-.098 5.428-2.472 1.05-2.364.858-2.745 1.34-3.508 0 0-1.722 1.048-2.96 2.18 0 0 .578-2.364 2.96-4.18 2.374-1.791 3.529-2.084 3.529-2.084s5.627-7.423-.948-11.034c0 0 3.23-1.61 5.046-2.745 0 0-5.255 1.33-6.966 1.894 0 0-3.9-.761-5.995-.761-2.104 0-5.715-.28-7.339-.762a80.12 80.12 0 0 1-3.245-1.043s.955-.567 1.72-.766c0 0-3.699-.273-5.884 3.183l-.033-.01c.008-.279.134-1.617 1.145-2.877 0 0-1.94.883-3.037 2.108l-.035-.008c-.72-.272-1.452-.497-2.187-.724a60.864 60.864 0 0 0-3.535-.941c-.783-.18-1.584-.367-2.385-.52 6.19-4.082 13.042-7.132 20.092-9.512 2.354-.787 7.348-2.207 7.348-2.207 1.002.947 2.012 1.665 2.012 1.665s3.354-.803 4.965-1.429c0 0-3.364 2.356-5.983 3.49 0 0 3.988-.134 5.36-.384l-.612 1.379s1.742 1.36 5.851.748c4.106-.622 6.73-1.499 6.73-3.616 0-2.109-.507-3.106.118-5.215 0 0-1.494.243-2.62 0 0 0 2.372-1.367 3.241-2.855 0 0-.22-1.336-.869-2.662l-.004-.013c3.287-.355 6.602-.639 9.893-.834a15.688 15.688 0 0 0-1.33-1.371c-3.31-3.04-7.947-4.992-12.107-6.324 8.281-1.105 16.652-1.43 24.974-1.715 4.768-.175 9.54-.293 14.299-.344-.998-.831-2.392-1.312-3.58-1.791 2.792-.317 5.713-.048 8.512.155-2.385-1.197-5.088-1.868-7.637-2.625a186.868 186.868 0 0 0-5.411-1.496l.224.009.202.017.043.01c6.563.87 13.53 1.968 21.154 3.33 48.9 8.685 81.165 21.851 95.216 28.442 3.721 1.68 6.249 2.956 7.539 3.625 1.165.341 2.786.525 3.605-.663.153-.212.265-.44.35-.656l.007-.02.34.02c3.063-.188 6.063-.486 9.034-1.3.836-.225 1.658-.479 2.486-.76a50.684 50.684 0 0 0 4.919-1.994c-.081 0-2.72-3.416-3.035-3.758-2.374-2.653-5.037-5.073-7.969-7.131l1.242-.337a5.055 5.055 0 0 1 1.29-.155c-2.352-2.323-5.259-4.18-8.028-5.906a80.589 80.589 0 0 0-3.116-1.88l-.9-.533-.64-.385c-1.198-.687-2.4-1.37-3.618-2.017l-.044-.022.053-.01h.149c4.4 0 8.847-.18 13.263-.07.499.008 4.865.205 5.102.224 1.279.088 2.552.173 3.818.291 2.755.248 5.511.558 8.25.95l2.042.297c3.476.519 6.947 1.203 10.378 1.965l.106.03c1.889.63 3.971.908 5.904 1.402 1.084.285 2.161.567 3.243.867 2.383.647 4.748 1.34 7.093 2.095 1.497.486 2.991.98 4.479 1.514.395.136 2.246 1.08 2.519.884.741-.525 4.91-3.42 8.177-4.047 3.587-.69 6.951-2.039 6.951-6.073-.369-4.178-3.697-8.542-7.333-11.451m-192.14 70.048c-2.169-2.24-4.284-2.984-5.554-1.74 0 0-.64-2.39-2.104-3.035-1.477-.648-2.475-.523-2.475-.523-.002 0-5.742 1.14-8.101 2.592.463-.297 4.261-2.747 5.61-3.612l-3.185.731s-3.357.011-6.473-.234c-3.107-.234-10.29-.978-11.618-.72-.002 0 .897-.612 1.433-.936-.145 0-2.497.022-4.057 1.278 0 0-4.779.494-5.698 3.699-.93 3.222 1.441 5.506 2.139 6.01 0 0 .961-1.504 2.898-2.453 0 0-1.105 1.782-1.064 3.265 0 0 4.077 2.15 12.21 3.273 8.143 1.122 7.55.52 10.414 2.295 0 0 3.021-2.133 4.693-2.636 0 0-2.35 3.333-2.571 4.578 0 0 3.782 3.214 6.898 3.448 3.126.249 5.801-.956 5.47-4.163l1.125-1.383-1.992.147.58-1.08s-.095-1.637-1.003-2.904c.158.08 1.713.924 3.192.519l-.434.816s1.7-.193 2.96-2.343l-1.03-.28c-.004 0-.087-2.367-2.264-4.61m-21.156-30.18s-2.86.009-4.956.1c-2.073.1-4.344.303-4.645 2.267-.29 1.977.3 2.962 1.194 3.655.882.69 4.26 2.759 4.947 3.443 0 0 2.276-1.48 4.06-1.868-.003 0-3.86 2.754-4.746 4.248 0 0 1.682-.886 2.872-.886-.003 0 3.063 1.87 5.035 1.87 1.98 0 5.733-.596 5.733-.596s2.18-1.47 4.564-1.674c0 0-2.486 1.674-3.076 2.472 0 0 .996-.105 1.593.3.59.382 2.57.774 4.35.094 1.78-.694 3.549-1.385 3.461-3.553-.105-2.172-1.382-4.736-1.382-4.736s2.33-1.944 3.618-2.553c-.31.042-2.84.423-4.417 1.072 0 0-1.968-3.95-4.057-5.23-2.082-1.273-4.16-1.477-6.433-.494-2.275.993-5.652 1.949-5.652 1.949-.002 0-3.114 1.49-3.53 2.084.065-.144.63-1.31 1.467-1.964m229.227-33.022s-6.052-13.237-23.27-24.514c4.319-5.512 5.99-12.142 4.003-17.375-2.067-5.442-16.555-15.382-22.02-18.204-5.455-2.807-12.994-6.943-12.994-6.943s-19.36-11.71-34.568-18.327c-18.345-7.963-51.373-18.57-87.306-11.006 0 0-21.56-7.05-60.538 4.955-13.634 3.739-36.787 9.872-49.765 12.03-19.236 3.204-38.752 3.53-53.874 5.122-7.965.849-13.27-.914-15.862 3.564-11.383 19.663 22.565 52.935 34.863 58.196-3.642 20.447.983 44.636 22.51 68.806 23.406 26.302 55.793 31.285 74.781 45.272 21.314 15.693 25.729 35.512 43.53 54.055 16.383 17.056 48.395 31.599 77.074 17.673 31.11-15.115 36.754-40.346 37.877-45.075.378-2.422-1.029-4.868-4.16-6.37a92.966 92.966 0 0 1-2.944-1.484c1.237-4.939 4.401-19.796 1.286-32.75 0 0-8.794 12.822-15.44 19.93-1.86-1.744-10.394-10.352-8.976-20.559 3.896-1.544 8.423-3.653 11.885-6.243a74.415 74.415 0 0 0 5.356-4.458c17.505-4.998 21.436-12.21 21.436-12.21.648 1.77 2.857 4.033 2.857 4.033 2.58-1.452 6.02-4.033 6.02-4.033.332 2.093.288 5.812.288 5.812 1.3-.484 2.565-.6 2.565-.6-1.299 6.451-8.873 17.389-8.873 17.389 26.553-7.582 37.735-27.13 37.735-27.13l-.011-.105c1.002-.205 1.707-.472 1.707-.472s17.814-5.053 26.002-22.468c8.182-17.428-6.615-34.32-11.174-36.511m-77.402 133.686a58.23 58.23 0 0 1-8.187 11.693c-5.452 6.03-12.175 10.819-19.54 14.266-7.643 3.577-16.358 6.182-24.869 6.515 1.517-1.617 3.037-3.225 4.533-4.828-8.372 1.453-17.05 1.687-25.434.04 1.03-.75 2.41-1.89 2.563-3.234-.58-.043-1.2-.323-1.733-.51a39.41 39.41 0 0 1-4.189-1.778c-5.027-2.448-9.658-5.698-13.893-9.34-7.407-6.38-13.658-14.057-18.896-22.289-3.17-4.968-5.724-10.312-9.235-15.052-3.012-4.064-6.512-7.755-10.358-11.034-6.028-5.14-12.895-9.229-20.134-12.394-11.677-5.106-23.268-10.62-34.24-17.133a164.364 164.364 0 0 1-9.071-5.803c-6.289-4.364-12.417-9.247-17.628-14.853l-.351-.374a115.37 115.37 0 0 1 1.817-1.532 43.533 43.533 0 0 1 3.045-2.216c.98-.669 3.252-1.872 3.252-1.872l.03-.018v.027c-.03.321-.037.665-.013 1.052 0 0 1.14-1.234 2.19-1.814 0 0-1.711 2.67-1.904 4.662 0 0-.389 3.323 2.76 5.033 3.142 1.705 7.822 3.043 9.158 4.085 0 0 2.385-1.709 3.715-2.278 0 0-3.151 3.043-4.007 5.89 0 0 1.911-1.801 2.965-2.184 0 0 2.95 2.183 4.759 1.99 1.8-.185 4.383-.098 5.426-2.471 1.053-2.365.855-2.746 1.34-3.511 0 0-1.724 1.05-2.962 2.183 0 0 .58-2.367 2.962-4.183 2.374-1.789 3.528-2.082 3.528-2.082s5.626-7.422-.95-11.034c0 0 3.232-1.61 5.051-2.747-.002 0-5.255 1.332-6.97 1.898 0 0-3.897-.763-5.995-.763-2.104 0-5.716-.28-7.337-.763a72.74 72.74 0 0 1-3.243-1.042s.952-.566 1.716-.765c0 0-3.697-.274-5.88 3.185l-.035-.016c.008-.277.133-1.614 1.145-2.874 0 0-1.942.884-3.039 2.109l-.03-.01a37.142 37.142 0 0 0-2.19-.723 63.154 63.154 0 0 0-3.535-.939c-.786-.179-1.584-.37-2.387-.522 6.194-4.08 13.046-7.132 20.093-9.51 2.352-.79 7.35-2.211 7.35-2.211a21.03 21.03 0 0 0 2.013 1.667c-.003 0 3.352-.803 4.96-1.429 0 0-3.359 2.356-5.983 3.49 0 0 3.994-.134 5.365-.383l-.617 1.378s1.742 1.363 5.852.746c4.107-.62 6.73-1.496 6.73-3.612 0-2.113-.507-3.106.12-5.22 0 0-1.496.246-2.618 0-.002 0 2.372-1.366 3.239-2.852 0 0-.22-1.336-.867-2.662l-.006-.013c3.287-.354 6.602-.639 9.893-.833-.412-.484-.858-.941-1.33-1.37-3.31-3.043-7.947-4.994-12.107-6.324 8.279-1.107 16.65-1.433 24.974-1.72 4.77-.174 9.54-.288 14.297-.34-.999-.834-2.39-1.31-3.58-1.792 2.794-.317 5.717-.05 8.514.157-2.385-1.198-5.086-1.868-7.638-2.627a196.169 196.169 0 0 0-5.408-1.498l.22.01.203.018.044.011c6.56.866 13.53 1.965 21.154 3.327 48.9 8.69 81.165 21.856 95.218 28.442 3.719 1.682 6.244 2.958 7.537 3.63 1.165.338 2.788.522 3.605-.666.153-.212.265-.437.35-.656l.005-.022.342.022c3.065-.186 6.06-.488 9.031-1.297a40.67 40.67 0 0 0 2.488-.761 51.003 51.003 0 0 0 4.917-1.998c-.079 0-2.718-3.414-3.032-3.755-2.374-2.654-5.038-5.075-7.967-7.132l1.24-.334a4.976 4.976 0 0 1 1.29-.16c-2.35-2.321-5.26-4.176-8.03-5.904a74.927 74.927 0 0 0-3.116-1.88l-.9-.533-.638-.385c-1.2-.69-2.4-1.37-3.618-2.017 7.469 2.529 14.883 5.434 22.143 8.553l1.654.705c6.071 2.625 12.217 5.444 17.687 9.15a26.413 26.413 0 0 1 3.394 2.693l.119.103c2.148 1.62 3.629 4.042 4.581 6.525.454 1.203.792 2.47.961 3.747.06.431.226 4.703-.066 4.69l-1.17-.041c-3.115-.042-6.235.288-9.287.885-5.463 1.081-10.554 3.137-15.738 5.06-3.763 1.402-7.342 3.25-11.155 4.526-5.413 1.814-11.122 2.686-16.842 2.255-5.902-.441-11.668-2.124-16.64-5.35-3.772-2.45-7.008-5.622-9.758-9.142a50.215 50.215 0 0 1-5.134-8.059c7.5 2.7 13.4 5.13 17.656 7.016 3.757 1.594 6.317 2.804 7.616 3.445 1.165.317 2.793.462 3.594-.73 1.646-2.496-1.371-4.476-1.371-4.476s-37.149-18.08-105.228-25.54c-8-.874-15.412-1.495-22.244-1.918a467.413 467.413 0 0 1 21.805 2.875c11.96 1.85 22.942 4 32.914 6.265a25.89 25.89 0 0 0-3.234.628 22.629 22.629 0 0 0-5.843 2.478c-3.396 2.056-6.137 5.044-8.22 8.382-4.214 6.755-6.202 15.103-6.494 22.982-.35 9.813 2.137 19.55 5.339 28.748 3.793 10.905 8.701 21.412 14.784 31.236 3.03 4.887 6.33 9.614 10.053 13.974 3.956 4.609 8.474 9.097 13.928 11.902 5.8 2.962 12.221 2.942 18.512 2 4.428-.67 8.722-2.427 12.934-3.873 9.894-3.373 20.256-7.006 30.885-5.862 3.51.378 7.243 1.098 10.4 2.743.48.24.417.258.156.776m-130.669-70.483c-2.168-2.24-4.283-2.984-5.553-1.74 0 0-.64-2.39-2.104-3.035-1.477-.648-2.475-.523-2.475-.523-.002 0-5.742 1.14-8.103 2.592.465-.297 4.263-2.747 5.612-3.612l-3.188.731s-3.354.011-6.47-.234c-3.107-.234-10.29-.978-11.618-.72-.002 0 .897-.612 1.433-.936-.145 0-2.5.022-4.057 1.278 0 0-4.779.494-5.698 3.699-.93 3.222 1.441 5.506 2.137 6.01 0 0 .96-1.504 2.9-2.453 0 0-1.105 1.782-1.064 3.265 0 0 4.077 2.15 12.21 3.273 8.143 1.122 7.55.52 10.414 2.295 0 0 3.021-2.133 4.693-2.636 0 0-2.35 3.333-2.571 4.578 0 0 3.782 3.214 6.898 3.448 3.126.249 5.801-.956 5.468-4.163l1.127-1.383-1.992.147.58-1.08s-.095-1.637-1.003-2.904c.158.08 1.713.924 3.192.519l-.434.816s1.7-.193 2.96-2.343l-1.03-.28c-.004 0-.087-2.367-2.264-4.61m-29.563-24.158c.882.69 4.26 2.759 4.947 3.443 0 0 2.276-1.48 4.06-1.868-.003 0-3.86 2.754-4.746 4.248 0 0 1.682-.886 2.872-.886-.003 0 3.063 1.87 5.035 1.87 1.98 0 5.733-.596 5.733-.596s2.18-1.47 4.564-1.674c0 0-2.486 1.674-3.076 2.472 0 0 .996-.105 1.593.3.588.382 2.57.774 4.35.094 1.78-.694 3.549-1.385 3.459-3.553-.103-2.172-1.38-4.736-1.38-4.736s2.33-1.944 3.618-2.553c-.31.042-2.84.423-4.417 1.072 0 0-1.968-3.95-4.057-5.23-2.084-1.273-4.16-1.477-6.433-.494-2.278.993-5.652 1.949-5.652 1.949-.002 0-3.114 1.49-3.53 2.082.065-.142.63-1.31 1.465-1.962 0 0-2.859.009-4.954.1-2.073.1-4.344.303-4.647 2.267-.288 1.98.3 2.964 1.196 3.655" fill="#000"/><path d="M389.575 252.668a16.678 16.678 0 0 0-.96-3.747c-.955-2.483-2.436-4.908-4.582-6.525l-.118-.103a26.829 26.829 0 0 0-3.393-2.695c-5.474-3.703-11.622-6.519-17.688-9.148l-1.655-.704c-7.265-3.118-14.672-6.027-22.143-8.55 1.213.644 2.422 1.326 3.618 2.013l.637.385.901.53a90.504 90.504 0 0 1 3.116 1.881c2.771 1.728 5.678 3.585 8.035 5.908a5.098 5.098 0 0 0-1.295.154l-1.24.339c2.932 2.056 5.596 4.477 7.967 7.133.314.337 2.958 3.754 3.04 3.754a51.572 51.572 0 0 1-4.924 1.993c-.823.284-1.65.538-2.49.765-2.97.814-5.969 1.116-9.025 1.295l-.342-.02-.013.02c-.075.221-.194.446-.35.66-.816 1.184-2.437 1.005-3.602.66-1.29-.67-3.818-1.945-7.537-3.621-14.053-6.59-46.318-19.757-95.216-28.45-7.627-1.36-14.593-2.462-21.155-3.323l-.047-.01-.201-.021-.222-.015c1.804.476 3.614.982 5.41 1.505 2.548.754 5.251 1.426 7.638 2.627-2.8-.212-5.72-.477-8.517-.16 1.198.481 2.578.958 3.583 1.792a578.22 578.22 0 0 0-14.293.339c-8.333.286-16.701.617-24.98 1.72 4.16 1.327 8.797 3.283 12.107 6.328.477.428.92.885 1.33 1.371-3.289.19-6.604.481-9.895.831l.008.011c.652 1.328.87 2.665.87 2.665-.87 1.48-3.241 2.85-3.241 2.85 1.125.247 2.62 0 2.62 0-.63 2.113-.121 3.106-.121 5.217 0 2.122-2.627 2.995-6.732 3.612-4.11.617-5.852-.742-5.852-.742l.62-1.38c-1.372.247-5.37.385-5.37.385 2.624-1.135 5.988-3.491 5.988-3.491-1.606.63-4.963 1.428-4.963 1.428s-1.014-.72-2.012-1.669c0 0-4.994 1.422-7.353 2.216-7.045 2.376-13.893 5.42-20.093 9.507.807.153 1.601.339 2.387.525 1.187.275 2.376.588 3.539.938.733.226 1.466.457 2.187.718l.033.013c1.095-1.225 3.035-2.109 3.035-2.109-1.012 1.26-1.137 2.599-1.143 2.877l.03.013c2.19-3.463 5.88-3.185 5.88-3.185-.76.199-1.706.768-1.706.768-.003 0 1.614.564 3.24 1.036 1.62.484 5.233.768 7.335.768 2.096 0 5.995.76 5.995.76 1.713-.565 6.966-1.9 6.966-1.9-1.815 1.142-5.047 2.75-5.047 2.75 6.576 3.618.953 11.034.953 11.034s-1.154.291-3.529 2.085c-2.385 1.811-2.964 4.178-2.964 4.178 1.238-1.131 2.964-2.179 2.964-2.179-.489.766-.287 1.142-1.34 3.509-1.045 2.373-3.62 2.284-5.43 2.467-1.806.2-4.757-1.984-4.757-1.984-1.051.383-2.965 2.183-2.965 2.183.86-2.852 4.007-5.89 4.007-5.89-1.332.568-3.72 2.279-3.72 2.279-1.329-1.046-6.011-2.38-9.15-4.089-3.152-1.708-2.765-5.029-2.765-5.029.195-1.997 1.904-4.666 1.904-4.666-1.051.585-2.188 1.818-2.188 1.818a6.18 6.18 0 0 1 .011-1.054v-.029l-.03.02s-2.273 1.205-3.248 1.875a45.02 45.02 0 0 0-3.05 2.211 128.3 128.3 0 0 0-1.81 1.536l.347.378c5.211 5.6 11.342 10.485 17.628 14.845a163.942 163.942 0 0 0 9.07 5.805c10.97 6.51 22.562 12.027 34.242 17.13 7.236 3.168 14.11 7.257 20.13 12.4 3.847 3.272 7.344 6.964 10.359 11.038 3.513 4.733 6.071 10.075 9.242 15.047 5.237 8.232 11.486 15.908 18.889 22.289 4.234 3.638 8.866 6.888 13.893 9.34a38.681 38.681 0 0 0 4.195 1.777c.529.183 1.15.466 1.731.512-.158 1.338-1.538 2.482-2.562 3.23 8.379 1.65 17.061 1.416 25.434-.039-1.501 1.604-3.017 3.211-4.535 4.826 8.51-.33 17.228-2.931 24.874-6.517 7.357-3.439 14.082-8.231 19.537-14.264a58.231 58.231 0 0 0 8.184-11.69c.263-.519.327-.534-.158-.762-3.155-1.647-6.896-2.369-10.4-2.75-10.633-1.141-20.99 2.492-30.89 5.865-4.212 1.44-8.501 3.203-12.93 3.872-6.29.945-12.718.963-18.515-2.006-5.448-2.798-9.968-7.289-13.924-11.895-3.728-4.36-7.028-9.085-10.054-13.979-6.088-9.82-10.988-20.328-14.784-31.235-3.203-9.194-5.689-18.926-5.338-28.746.288-7.88 2.28-16.229 6.49-22.977 2.085-3.345 4.827-6.33 8.23-8.385a22.594 22.594 0 0 1 5.835-2.478 25.923 25.923 0 0 1 3.236-.628 480.053 480.053 0 0 0-32.916-6.27 469.23 469.23 0 0 0-21.81-2.867c6.835.422 14.249 1.039 22.249 1.914 68.08 7.46 105.225 25.543 105.225 25.543s3.021 1.98 1.371 4.47c-.796 1.194-2.422 1.05-3.59.73-1.302-.637-3.86-1.849-7.615-3.441-4.256-1.886-10.156-4.314-17.66-7.013a50.65 50.65 0 0 0 5.138 8.06c2.747 3.516 5.986 6.69 9.753 9.14 4.974 3.231 10.743 4.909 16.64 5.348 5.72.43 11.434-.44 16.842-2.255 3.818-1.273 7.397-3.13 11.157-4.524 5.183-1.925 10.276-3.983 15.737-5.06 3.056-.599 6.172-.929 9.287-.89l1.174.046c.296.005.125-4.272.07-4.7zm-165.219 32.275c-1.26 2.15-2.964 2.345-2.964 2.345l.432-.816c-1.476.405-3.032-.44-3.186-.523.909 1.271.999 2.903.999 2.903l-.577 1.085 1.987-.149-1.123 1.383c.33 3.21-2.339 4.414-5.472 4.162-3.118-.234-6.894-3.45-6.894-3.45.22-1.244 2.574-4.573 2.574-4.573-1.674.5-4.698 2.636-4.698 2.636-2.861-1.777-2.27-1.175-10.415-2.302-8.132-1.117-12.206-3.266-12.206-3.266-.042-1.485 1.064-3.266 1.064-3.266-1.942.95-2.9 2.45-2.9 2.45-.69-.503-3.066-2.786-2.138-6.006.917-3.214 5.696-3.702 5.696-3.702 1.56-1.257 3.91-1.28 4.055-1.28-.533.32-1.435.935-1.435.935 1.332-.252 8.52.488 11.627.722 3.115.249 6.468.238 6.468.238l3.188-.735c-1.35.87-5.152 3.319-5.613 3.612 2.359-1.448 8.101-2.593 8.101-2.593s1.003-.124 2.473.525c1.463.648 2.106 3.037 2.106 3.037 1.27-1.245 3.386-.503 5.553 1.739 2.175 2.235 2.258 4.607 2.258 4.607l1.04.282zm-16.732-37.135c2.269-.98 4.346-.781 6.43.492 2.085 1.28 4.058 5.232 4.058 5.232 1.58-.65 4.107-1.032 4.419-1.067-1.288.604-3.618 2.548-3.618 2.548s1.277 2.564 1.382 4.736c.09 2.168-1.687 2.862-3.462 3.55-1.782.685-3.766.298-4.351-.093-.595-.405-1.593-.302-1.593-.302.59-.792 3.076-2.47 3.076-2.47-2.387.203-4.564 1.678-4.564 1.678s-3.752.595-5.733.595c-1.97 0-5.036-1.87-5.036-1.87-1.189 0-2.874.888-2.874.888.889-1.499 4.748-4.25 4.748-4.25-1.784.389-4.059 1.87-4.059 1.87-.689-.687-4.064-2.759-4.95-3.448-.886-.687-1.479-1.675-1.187-3.653.3-1.96 2.567-2.168 4.643-2.266 2.093-.09 4.956-.099 4.956-.099-.838.648-1.408 1.82-1.468 1.96.413-.592 3.53-2.084 3.53-2.084s3.375-.954 5.653-1.947z" fill="#FFF"/><path d="M413.204 210.008s-5.246 6.457-7.85 4.478c-2.612-1.989 1.366-4.651.526-9.816-.827-5.167-17.823-22.575-39.292-35.415 0 0 9.932 4.086 19.527 9.165 11.734 1.923 14.477-1.122 15.107-2.382a16.241 16.241 0 0 0-1.295-1.912 8.86 8.86 0 0 0-1.735-.914c-1.354-.516-2.635-.735-3.54-1.18 0 0-2.06-2.075-2.742-3.08 0 0-.22.915.347 1.994 0 0-1.587-1.39-3.044-1.691-1.452-.302-3.212-.884-3.664-1.223l-1.34-1.124s.04.71.256 1.233c0 0-1.496-.111-1.753-1.678-.263-1.564.966-2.198.966-2.198s-.112-.448 0-1.002c0 0 1.34 1.481 1.979 1.864 0 0 .296-.945-.257-2.573l-.494-.286a30.14 30.14 0 0 0-1.439-.713c-.377-.178-22.496-12.675-32.975-17.923a13.594 13.594 0 0 1-2.967-.614s-1.753-.814-2.047-1.652c0 0-.12.433.134.904.443.805 1.387 1.66 1.67 2.77 0 0-1.756-1.03-3.184-1.768-1.26-.65-3.897-1.4-5.4-2.514a3.479 3.479 0 0 1-.715-.687l-.151-.208a2.516 2.516 0 0 1-.312-.65l-.061-.257-.025-.114-.017-.28.009-.19.072.06.086.062.103.083c.616.534 1.285 1.133 2.075 1.343l.196.055-.073-.098-.08-.092-.203-.223a9.374 9.374 0 0 1-1.413-2.063c-8.57-4.22-18.806-8.71-32.664-11.434-19.918-3.927-33.298-.617-33.298-.617s3.93.234 12.127 3.095c.518-.164 1.2-.444 1.81-.873 1.177-.844 1.942-1.01 2.447-1.01.505 0 2.683 2.594 2.683 2.594s-.241-2.004-.662-3.692c0 0 2.148-.184 2.968 0 1.203.277 2.192.678 2.616.678.417 0 .597-.501.597-.501s.746.49.746 1.09c0 0 1.696 1.172 1.696 2.276 0 1.085-.257 2.52 0 3.203 0 0-.424.243-1.104-.849 0 0-1.095.93-2.194.93-.511 0-.974.124-1.339.264 3.78 1.678 8.053 3.748 12.856 6.311l.956.68s.387-1.594.648-1.841c0 0 .498.44.594.7 0 0 .097-.7-.046-1.496 0 0 1.339-1.088 2.387-1.19 1.05-.105 1.457-.095 1.79-.3 0 0 .238-.834-.113-1.72 0 0 1.757 1.018 2.106 2.317 0 0 .156-.79.099-1.599 0 0 1.843-.3 3.194.055 1.345.35 2.24.807 2.543 1.295.301.5 1.137 2.165.672 2.524-.479.363-1.325.503-1.569.906-.246.391-.349.741-.704.988-.338.248-.788.311-.788.311s-.094 1.378.257 2.074c0 0-.72-.092-1.064-.934-.003 0 .16.785-.347 1.338-.492.545-.834.886-1.328 1.033 0 0-1.23-1.166-1.33-1.619 0 0 .135 2.75-.341 2.234 0 0-2.592-2.282-3.107-2.564 0 0-1.12.164-1.56.114-.455-.042-1.988-.637-2.293-1.142 0 0-.05.597.796 1.194 0 0-.77-.118-1.053-.256 0 0-.445.503-1.237.709 0 0 .792.897 1.147 1.236 0 0-1.573-.28-2.284-1.033 0 0-.904.046-1.902-.253-.999-.298-1.604-.195-2.5-.055-.899.149-1.037.055-1.691-.1-.652-.14-2.44-1.145-2.44-1.145s.305.799.597 1.055c0 0-.147.65-1.6.245-1.443-.405-1.498-.845-2.24-1.302-.746-.435-1.246-1.087-1.092-1.636.147-.543.599-.947.599-.947s.44.404 1.235.754c0 0-1.339-1.69-1.492-2.29l1.053.197s.241-.943 2.337-1.387c.702-.15 1.299-.25 1.768-.32a231.685 231.685 0 0 0-23.139-5.899l-.395.536-.364.674c-.338.702-.593 1.417-1.143 1.874 0 0-4.33-1.345-5.718-2.032 0 0 2.19 1.787 3.712 2.599 0 0-1.312 2.174-5.884 1.658 0 0-2.118.919-3.785.744-1.65-.177-4.16-1.256-4.687-2.109-.511-.862-.45-2.625 1.323-3.662 0 0 2.427 1.477 3.625 2.153 0 0-2.137-2.654-1.966-3.507 0 0 .76-.63 1.668-1.175-1.058-.144-2.14-.277-3.22-.391-9.79-1.103-18.456-1.267-26.318-.823.621.893.5 1.728.994 2.617.6 1.093-.278 1.592-.278 1.592-.648-.534-3.375-1.69-3.375-1.69 1.036.981 1.913 2.342 1.913 2.342-.65.378-2.385.717-4.254.812-1.872.08-4.524 1.625-4.524 1.625-1.117-.335-2.063-1.46-3.004-2.328l-.465-.402-.13-.103-.068-.059-.092-.061.11.297.01.026.012.035.19.48c.132.306.277.627.446.925.472.905 1.038 1.759 1.608 2.6l.027.045.64 1.021.215.328.044.075.08.111.074.123.044.072.048.079c-.235-.3-.976-.438-1.336-.565l-.06-.02c-.62-.249-1.202-.573-1.768-.93l-.033-.019c-.259-.175-1.016-.866-1.318-.75l-.194.061-.12.04-.235.067-.305.077-.312.059-.44.085-.795.092h-.042c-.33.02-.702.03-1.072.009-1.91-.112-4.255-1.737-5.887-3.378-.59-.573-.777-1.212-.781-1.798-1.71.403-3.382.823-5.012 1.269-2.435.562-15.685 3.515-29.221 6.547.083.936-.312 1.94-.312 2.465 0 .943.755 1.648.755 1.648-1.551.124-4.287-.904-4.287-.904.774 1.1 3.01 2.371 3.01 2.371s-.32 1.225-1.35 1.645c-1.017.423-1.794.259-3.064.165-1.282-.084-2.385.511-4.005.597-1.621.083-3.602-.917-3.602-.917 1.786.164 3.117-1.041 3.117-1.041-2.292-.258-3.005-1.105-3.262-1.608-.189-.365-.755-.873-1.268-1.247-9.946 2.216-17.641 3.938-17.641 3.938-6.3.842-11.388 1.478-11.388 1.478-.311.388-.724 1.015-.184 1.195 0 0 1.038.341 2.341.433 1.231.083 2.605 0 2.605 0-.002 0-5.027 2.338-5.635 2.507-.612.173-1.402.954-1.402.954l-.042.039-.09.074-.052.044-.092.092c.353-.153.796-.3 1.206-.348.757-.107 1.657.593 1.657.593s.794.147 1.589-.15c.811-.292 2.479-.248 2.4-.228-.518.08-1.038.435-1.532.435.404 0 .95.273 1.27.5 1.482.998-.396 2.3-1.35 2.761-1.464-.164-2.375.412-2.375.412s1.887 0 1.797.547c-.103.546-.954.894-1.852 1.089-.895.201-1.601 1.098-1.601 1.098.403.048.757.438.757.438s-.953.105-1.095.21c-.152.091-.65 1.194-1.053 1.686-.391.495-1.786.845-1.786.845.642.352 2.69.592 2.69.592-1.128.405-2.45.477-2.908.497.32.201 3.443 2.172 3.557 2.25l.02.007 1.983.46c7.5 1.717 15.18 3.474 22.872 3.911 4.65.265 9.349-.427 13.908-1.234 2.802-.481 5.59-1.05 8.336-1.726-1.249 1.357-2.611 2.737-4.184 3.715l.228-.06c9.28-2.277 18.558-4.58 27.863-6.767 5.827-1.368 11.747-1.925 17.676-2.041a5.125 5.125 0 0 1 2.641-.82c2.144-.073 4.176.432 5.622.927 2.387.103 4.778.236 7.155.411-.887-1.505-2.232-2.931-3.849-3.636 2.14 0 4.274.053 6.414.138 11.975.438 24.036 1.317 35.819 3.6a196.85 196.85 0 0 1 8.706 1.889c.033-.013.217-.073.36-.366.144-.328.074-1.05.741-1.192.674-.153 1.874.442 2.172.6.301.14 1.995 1.198 2.528 1.459.314.144.443.658.498 1.098 1.593.448 3.168.899 4.748 1.38l-.02-.02-.092-.059-.131-.094-.108-.083-.278-.197-.02-.01-.364-.241-.093-.064-.291-.199-.136-.08-.275-.185-.136-.08-.4-.245c4.885-3.525 11.746-2.752 11.746-2.752s1.573.207 2.72.599c0 0 1.576-.777 2.746-.647 1.165.118 3.273 1.211 3.468 1.879.187.669-.392 2.736-.774 3.572-.397.833-2.49 2.11-3.677 2.513l-.145-.258-.112-.164a5.028 5.028 0 0 0-1.255-1.288l.046.194.064.195.037.177.046.153.167.724.09.604-.606.383c7.021 2.933 13.338 7 19.379 11.613 3.523 2.689 7.126 5.57 11.104 7.556l.728.339c.665.278 1.345.512 2.004.744 3.971 1.358 8.103.886 11.969-.527h.008l.218-.184c.26-.25.498-.501.71-.775l.595-.809v-.01l.29-.52c1.261-2.342 1.34-5.083.928-7.605l-.055-.35-.18-.936c-.226-.926-.476-1.8-.76-2.606a30.746 30.746 0 0 0-.822-2.122l-.24-.557-.135-.256-.206-.431-.11-.206-.081-.177-.103-.186-.07-.118c1.04.87 1.948 1.71 2.775 2.568 2.477 2.273 6.554 6.466 9.068 11.48 3.796 7.549 5.19 12.521 5.19 13.908 0 1.391-3.189 1-5.587.796-2.385-.199-14.55.996-18.742 2.982h.022c2.78-.65 5.58-1.08 8.147-1.114 7.444-.092 17.864 2.054 20.978 4.817l.14.05s2.236 1.648 1.736 3.669c-.426 1.673-2.091 2.995-4.96 3.174 0 0-.109 1.868 1.03 3.642 1.136 1.759 3.535 3.92 3.535 3.92 3.475.523 6.935 1.21 10.376 1.96l.11.029c1.882.63 3.973.907 5.901 1.404 1.084.289 2.168.562 3.25.864 2.374.65 4.737 1.339 7.087 2.098 1.496.486 2.988.976 4.474 1.518.397.131 2.258 1.078 2.525.886.74-.527 4.897-3.421 8.171-4.05 3.594-.688 6.951-2.044 6.951-6.067-.347-4.207-3.68-8.57-7.315-11.48m-250.968-55.75s1.247.7 1.323 2.388c.07 1.684-.344 2.421.07 3.58.402 1.151-.28 1.956-1.897 2.901 0 0-1.635.342-3.263.21 0 0 1.224.604 1.762.676 0 0-1.762 1.488-4.274.878 0 0-3.043 1.824-5.358 1.491-2.304-.334-2.84-1.284-2.84-1.284s2.748-.494 4.71-.767c0 0-3.582-.823-4.74-1.49 0 0 .362-1.665 1.119-2.41.741-.755.566-.935.566-.935s-2.942-.693-4.029-1.094c0 0 3.463-.525 4.545-.927 0 0-.413-.831.947-1.914 1.359-1.083 2.51-2.164 3.05-2.778.55-.608 3.19-.672 4.68-.276 1.494.414 1.486.414 2.297.414.819 0 4.29-.335 4.29-.335s-.691 1.072-2.958 1.671m48.995-8.21c-.208 1.781-2.497 3.358-3.118 3.759-.61.41-1.757 1.222-2.093 2.37-.342 1.147-1.564 1.89-2.32 1.965-.739.06-1.752 1.142-1.752 1.142 1.064.256 2.558-.195 2.76-.258-.16.133-1.453 1.172-2.019 1.619-.608.472-2.64.943-3.383.866l-3.8-.053c-2.315-.078-4.957-.284-5.751-1.734-.755-1.376-1.077-1.42-1.106-1.42-1.63.742-5.018.711-5.018.711 3.26-1.35 6.052-4.397 6.052-4.397-1.756.742-3.75 1.044-3.75 1.044-.281-.475-.327-.972-.268-1.989.073-1.01 1.025-1.553 1.025-1.553s.059-.538.741-1.422c.683-.873 2.984-2.089 4.272-2.165 1.297-.068 2.912-.738 3.803-1.344.877-.61 3.993-1.892 5.553-1.765 1.56.138 2.181.405 2.181.405.878-.06 2.84-.405 2.84-.405-2.572 2.032-4.205 2.774-4.205 2.774 2.982-.341 5.565-1.553 5.565-1.553 3.047.205 3.997 1.625 3.791 3.403m38.783-2.611c-.134.966-.823 3.45-2.14 4.005-1.318.542-1.673.645-1.673.645v2.872s-1.964-1.747-2.37-2.31c0 0-.529.027-1.91-.183-1.388-.204-3.053 2.141-5.613 1.938 0 0-4.211-.895-4.902-2.623-.691-1.724-.421-3.172-.136-3.66-.002 0 1.448 1.868 2.48 2.415 0 0-.962-2.205-.962-3.587 0 0 .827-.615.961-1.243.145-.619 1.738-1.586 2.71-1.793.965-.202 1.915.21 1.915.21s1.137 2.576 1.966 3.543c0 0-.349-5.057.062-6.849 0 0 1.055 2.326 1.61 3.085 0 0 1.157-.123 2.822-.4 1.66-.276 3.105-.134 4.077.824.972.97 1.25 2.142 1.103 3.11m37.23 2.982c-1.115.919-2.477 1.455-2.477 1.455s.162 1.14.818 1.8c0 0-1.253-.116-2.297-.709 0 0-.93 1.04-1.036 1.473-.107.43-1.474 2.172-2.288 2.771-.819.593-2.512 1.245-2.512 1.245s1.505 2.157 2.76 3.034c-.323-.134-4.527-1.964-6.249-3.74 0 0-.162 1.312.265 1.96 0 0-2.06.929-4.412.378-2.21-.512-4.414-2.085-4.667-2.275.26.046 2.306.426 3.63.426 0 0-2.998-1.465-3.544-2.938-.549-1.46-.382-3.15 1.26-3.91 1.632-.764 3.045-.648 3.045-.648s3.931 1.84 6.213 2.386c0 0-2.986-1.953-3.756-3.209 0 0 2.126.06 2.725-.32.597-.386 1.031-1.355 2.181-1.745 1.143-.378 2.343-.492 2.343-.492s-1.088-.6-1.362-.925c0 0 2.238.595 2.949.595 0 0 1.966.111 2.828.225.878.105 2.514-.44 3.88-.01 1.366.45.82 2.25-.297 3.173m28.308 6.799s-1.375-.341-1.91-.523c.103.149.917 1.326 1.114 1.967 0 0-1.253.822-2.212 1.037-.958.223-1.233.48-1.757 1.071-.527.6-1.856 1.322-3.18 1.125-1.268-.186-3.8-.93-4.01-.982.138.137 1.264 1.233 1.766 2.102 0 0-1.45.722-3.84 1.06-.002 0-2.174 0-3.102-.266-.935-.267-1.784-.737-1.856-1.321-.066-.593.467-1.254.467-1.254s1.911.73 3.041.925c0 0-2.841-2.635-3.844-3.37 0 0 1.99.33 3.181.735 0 0-.138-.735-.599-1.52-.463-.784.406-1.578.799-1.781.395-.2 2.247-.92 2.714-1.243 0 0-1.187-.99-2.523-1.72 0 0 2.582.268 3.903.657 0 0 1.067.072 2.19-.39 1.126-.468 1.52-.468 2.446-.332.922.136 1.034.396 1.642.453.607.07 1.204.013 1.204.013s-.4-.534-1.389-.93c0 0 2.122.272 3.107.93 0 0 1.716.298 2.708 1.262 1 .965-.06 2.295-.06 2.295m14.468 11.941s1.74 1.575 2.19 2.429c0 0-.895.732-1.178 1.255-.283.514-1.06 1.709-1.924 2.041 0 0-.922 1.184-1.911 1.258-.988.057-1.668-.164-2.324-.2-.656-.03-3.306 0-5.288-1.977 0 0 2.833.396 3.57.396 0 0-2.519-1.848-3.045-2.636 0 0 .732-.466.658-1.126-.06-.659-.261-1.256.406-1.973 0 0 2.315.792 3.703.986 0 0-1.52-1.527-3.043-2.77 0 0 .944-.093 2.058.347 0 0 .459-.092 1.516-.943 1.051-.853 3.11-.63 4.297.155 1.187.77 2.317 2.356 2.317 2.356s1.393.722 2.31 2.233c0 .003-2.405-1.564-4.312-1.83m11.065-13.53c-.072.916-.732 1.651-1.86 1.783-1.126.122-1.786-.333-2.177.197-.397.525-.994 1.05-1.595 1.176 0 0-3.83-2.362-5.496-3.222 0 0 1.4 1.774 1.729 2.505 0 0-2.313.201-3.908-.46-1.584-.662-2.655-1.216-3.763-1.701-1.13-.475-2.312-2.059-2.312-2.059s1.851.856 2.841 1.129c0 0-1.659-1.855-1.72-2.443 0 0 1.248-.33 1.847-1.06.558-.68 2.199-1.124 3.443-1.183h.265c1.26 0 4.371 1.648 5.885 2.768 0 0-1.32-1.84-2.31-2.768 0 0 2.374 0 2.973-.194.596-.208 1.98-.344 2.977.124.926.43 1.455 1.387 1.514 1.512-.13-.055-1.108-.468-1.848-.65 0 0 0 .792 1.587 1.916 1.6 1.103 1.985 1.702 1.928 2.63m13.696 16.553s-1.59-.659-2.984-.659c0 0-.623.94-2.095.63-1.477-.297-2.923-1.422-2.923-1.422s1.325.06 2.374.06c0 0-.465-.521-1.718-.786-1.255-.26-2-.477-2.887-1.166 0 0-.22.698.373 1.166 0 0-1.98.519-2.315-1.457-.33-1.975-1.461-1.84-.66-3.294.78-1.426 2.426-1.437 2.477-1.437 0 0-1.413-.867-2.344-1.396 0 0 3.241.858 5.751 2.371 0 0-.197-.986-.792-1.513 0 0 1.727-.528 3.647.794 1.906 1.32 1.977 2.5 3.438 3.49 1.455.985.586 2.51-.075 2.901 0 0 .459 1.188.733 1.718m10.727-8.945l-2.916-2.55s1.056 2.49 1.222 3.025c0 0-2.038.07-3.137-.78-1.113-.852-2.7-1.865-2.282-1.865l.908.094s-1.261-1.514-3.42-1.638c0 0-1.315.304-2.82-.464-1.51-.772-2.14-1.56-2.14-1.56s-.826-.908-.976-2.085c0 0 1.475 1.03 2.203 1.32 0 0-1.312-1.851-1.312-2.958 0 0 .935-.184 2.096.258 1.184.446 1.51.094 1.51.094s-.516-.663-.712-1.328c0 0 1.49 1.234 2.122 1.514 0 0 1.834-.566 3.234.033 1.389.597 2.969 2.142 3.219 2.426.235.273 1.174.973 1.299 1.063-.101-.13-.832-1.105-1.034-1.872.115.072 1.038.667 1.453.87.437.228 1.286 1.114 1.452 1.678.154.573-.768 1.487-.768 1.487s1.21 1.545 1.21 2.17l-.41 1.068m2.292 3.349c.851-.217 1.268-.217 1.602-.184 0 0 .04-.518-.373-.973 0 0 2.426 1.452 3.548 2.618l-.299-1.052s1.94.488 2.842 1.35c.9.857 1.34 1.822 1.601 2.266.264.453.977 1.947.68 2.389-.302.45-.743.45-.743.45s-2.7-1.603-3.408-1.944c0 0 1.35 2.087 1.536 2.577 0 0-2.321-.344-2.925-1.158 0 0-2.608-.632-3.552-1.262-.926-.636-1.685-1.605-1.685-2.133 0 0 1.505.711 2.256 1.048 0 0-2.028-2.43-2.658-3.014.005 0 .707-.75 1.578-.978" fill="#D7A22A"/><path d="M370.963 210.69c-1.843 3.782-11.596-1.295-22.07-2.233-10.46-.936-24.546 3.115-24.546 3.115l.337-.276c1-.737 2.098-1.336 3.21-1.888.926-.463 1.868-.899 2.811-1.314a63.242 63.242 0 0 1 10.337-3.408h.021c2.783-.648 5.58-1.077 8.147-1.112 7.45-.087 17.865 2.048 20.978 4.817.83.737 1.152 1.512.775 2.3" fill="#000"/><path d="M367.11 215.288s-.105 1.869 1.029 3.645c1.14 1.754 3.535 3.918 3.535 3.918l-2.043-.294a154.448 154.448 0 0 0-12.074-1.238 384.56 384.56 0 0 0-5.093-.23c-4.417-.11-8.868.073-13.268.073h-.22c-1.474-1.984-7.01-9.872-14.63-9.59 0 0 14.087-4.054 24.546-3.12 10.47.943 20.228 6.02 22.07 2.24.383-.791.058-1.564-.77-2.3l.137.05s2.238 1.647 1.735 3.668c-.423 1.68-2.086 3.008-4.954 3.178" fill="#9F792C"/><path d="M363.814 243.293a52.26 52.26 0 0 1-4.923 1.993c-.823.282-1.646.533-2.488.763-2.971.81-5.964 1.111-9.027 1.295l-.34-.02.07-.227.072-.405c.185-1.826-1.775-3.183-1.775-3.183l-.065-.037-.17-.08-.076-.03a204.976 204.976 0 0 0-3.831-1.75c-2.225-.999-4.463-1.953-6.723-2.87l-1.299-.526-.96-.392a254.071 254.071 0 0 0-15.783-5.617 290.774 290.774 0 0 0-9.659-2.916l-1.55-.438a418.648 418.648 0 0 0-17.88-4.696c-4.253-3.982-8.446-7.974-12.942-11.634 29.9 7.932 50.366 16.693 60.767 21.698 3.701 1.72 6.222 3.012 7.499 3.706 1.156.35 2.78.542 3.612-.626 1.724-2.432-1.225-4.517-1.225-4.517s-26.222-13.823-75.44-23.916c-4.856-3.432-9.99-6.309-15.04-9.415-1.74-1.065-3.538-2.192-5.036-3.598-.762-.707-1.58-1.606-1.683-2.695v-.632l.01-.035.064-.403.029-.125.033-.094.114-.339.081-.194c.441-1.026 1.238-1.967 2.038-2.625l.352-.311.243-.208.318-.267.342-.284.022-.007.125-.11.073-.06.017-.024.097-.08.048-.034.053-.007h.007l.013-.008.305-.075.45-.114c2.101-.522 4.333-1.056 6.593-1.42a47.463 47.463 0 0 1 2.27-.301c.81 2.64 4.43 6.538 4.43 6.538-1.717.125-3.914-.485-3.914-.485 3.182 4.259 11.985 9.618 18.828 10.959 6.852 1.334 13.077 1.092 13.077 1.092-.97.492-2.563 1.104-2.563 1.104s2.686-.129 6.35.597c.476.099.99.224 1.547.372 2.438.624 5.44 1.628 7.199 2.245l.57.199.031.008.02.011c.553.357 1.077.707 1.595 1.068 3.054 2.03 5.966 4.283 8.741 6.672.808.684 1.595 1.389 2.376 2.093 1.255 1.155 2.39 2.402 3.63 3.561-.104-.09-.126-.566-.167-.706l-.279-.805-.67-1.665c-.462-1.1-.989-2.183-1.56-3.229a51.41 51.41 0 0 0-3.89-6.063 65.615 65.615 0 0 0-2.53-3.192c-.638-.74-1.309-1.459-1.978-2.192-.531-.588-1.187-1.645-1.977-1.905l-.024-.009-.046-.022c.654.022 1.263.075 1.85.147l.57.068.748.129c.647.105 1.244.264 1.81.444l.63.203.597.226c.397.153.765.326 1.116.503l.52.269.481.284.465.302.428.31.25.184.483.392.52.47.278.272a12.604 12.604 0 0 1 1.769 2.261l.228.42c.557.987.871 1.853 1.038 2.4l.06.221.107.41c7.618-.283 13.151 7.603 14.632 9.585h.066l-.055.013.042.022c1.222.647 2.424 1.325 3.62 2.017l.64.385.898.529c1.042.61 2.093 1.225 3.118 1.883 2.77 1.729 5.674 3.584 8.035 5.905a4.97 4.97 0 0 0-1.295.155l-1.244.337c2.932 2.058 5.598 4.48 7.97 7.13.302.35 2.946 3.768 3.027 3.768" fill="#D7A22A"/><path d="M330.628 332.558l-4.82-3.124-.63-6.914c-.004 0 6.83 4.453 5.45 10.038m-16.3-15.166s-3.84 14.906-21.746 24.502c0 0-13.65-4.613-21.118-21.717-6.032-13.82-.279-39.712-8.364-54.357-5.356-9.73-14.85-11.994-14.85-11.994s5.913-3.373 18.222.592c20.263 6.53 22.472 32.95 22.797 38.376.634 10.66 2.48 24.439 9.514 28.177 0 0-4.147-5.714-4.268-19.206-.368-40.13-14.299-45.8-14.299-45.8s17.007 2.783 21.584 17.13c4.568 14.372-2.793 36.378 12.528 44.297m89.024-80.795c-.599 5.364-8.974 13.114-8.974 13.114-1.2-2.973-5.678-10.126-5.678-10.126s1.2-2.988-3.296-6.87c-4.482-3.873-16.754-3.873-16.754-3.873s3.311-1.872 7.48-1.494c10.968 1 27.222 9.249 27.222 9.249" fill="#006778"/><path d="M128.97 153.927c.144.225.043.479-.113.606l-.055.03c-.107.064-.41.097-.78.125-.547-.059-1.85-.326-2.416-.234l.62.534c-.002 0-1.417.555-1.74 1.133 0 0-1.173-.123-2.02.177-.496.164-.713.387-.972.554l-.577.216-.156.02c-.794.052-1.435-.35-1.435-.35l.29.593s-2.282 0-2.79.772a121.859 121.859 0 0 0-5.625-2.632 146.056 146.056 0 0 0-5.413-2.216 154.841 154.841 0 0 0-11.152-3.8 106.443 106.443 0 0 0-3.357-.958 57.82 57.82 0 0 0-2.495-.634h.06c1.524 0 3.038-.04 4.563-.131 10.277-.637 20.572-.396 30.856-.939 1.87-.105 3.747-.22 5.614-.356-.309.385-.721 1.015-.182 1.196-.002 0 1.04.34 2.341.431 1.231.086 2.603 0 2.603 0s-5.03 2.341-5.633 2.507c-.612.17-1.4.954-1.4.954l-.043.035-.09.08-.053.043-.092.091-.63.291c-.246.153-1.2.204-1.2.204s1.143.483 1.635.391l.02.044c.015.085.063.396.535.606.414.182 1.013.372 1.281.617m43.5 25.727l-.816.424c-1.777 1.1-3.598 2.129-5.494 3.013l-.083.046a62.35 62.35 0 0 1-1.904.861l-.038.02-.052.022a83.217 83.217 0 0 1-5.247 2.06c-1.382.49-2.788.94-4.212 1.335-10.087 2.936-16.235 2.866-16.235 2.866.685.308 1.602.586 2.44.77 3.037.682 10.304 1.317 10.644 1.428l-.235.127-.173.085c-7.557 3.192-15.708 4.62-23.907 4.292-14.944-.619-22.962-4.764-23.236-5.073 0 0 4.193-.671 6.628-1.48 0 0-11.102-3.647-15.295-6.34l5.964.125c-1.626-1.282-3.11-2.566-4.485-3.763-7.91-6.858-13.147-15.809-12.188-19.84-3.072-4.106-7.447-5.178-7.447-5.178 13.312-1.225 25.636 3.865 38.652 11.976 5.452 3.395 9.638 7.287 14.51 10.378-3.213.531-10.265.945-23.616-1.39 0 0 7.725 4.899 22.334 6.723 8.895 1.094 17.577.862 23.547.437 6.94-.494 13.496-1.371 19.945-3.924m264.095 63.234a28.012 28.012 0 0 1-1.064 5.41c-.602 1.982-1.045 4.147-3.439 4.276-1.73.094-3.458-.09-5.195-.194-1.003-.064-3.022-.372-3.592.757-1.71 3.39 5.046 3.21 6.804 3.276h.777c-7.149 7.858-18.707 9.934-19.425 10.065l-.044.009-.32-.442c-1.854-2.358-7.515-7.21-19.039-8.485l-.085-.013c.568-.82 1.2-1.624 1.874-2.409 4.79-5.469 12.27-10.058 20.42-14 11.372-5.497 15.701-16.297 15.701-16.297s1.56 1.32 3.18 3.822c-.498 1.441-1.718 3.642-4.735 5.814 0 0-2.04 1.214-1.3 2.62.734 1.427 2.344.944 3.17.475.552-.306 2.116-1.299 3.376-3.436.573-.855.976-1.621 1.215-2.2a21.697 21.697 0 0 1 1.637 6.041c.027.28-.908 1.03-1.084 1.199a14.559 14.559 0 0 1-2.086 1.651c-2.054 1.38-4.294 2.247-6.578 3.177-.805.33-2.082 1.109-2.25 2.032-.278 1.507 1.796 1.826 2.862 1.665l.27-.044c1.553-.278 6.304-1.415 8.95-4.769m-93.127 100.643c-3.623.258-6.162-2.503-6.162-2.503-9.171-1.242-19.602.691-19.602.691s-5.38 5.664-13.002 6.644c-7.623.971-7.537-2.444-7.122-3.38.41-.958 3.969-2.682 10.46-9.41 6.494-6.734 12.124-20.508 12.124-20.508 1.525 4.475 2.137 9.277 1.65 13.99a28.991 28.991 0 0 1-.702 4.065 30.601 30.601 0 0 1-2.302 6.24c1.246-2.501 3.993-4.538 6.367-5.938.828.985 1.512 2.072 2.186 3.165.12.221 1.32 1.866 1.195 2.096 1.188-2.2 7.145-6.208 7.145-6.208 1.434 1.4 2.602 4.233 2.602 4.233 4.897-3.588 15.76-20.921 15.76-20.921.566 13.354-6.973 27.494-10.597 27.744m62.876-70.364c-.875 3.9-14.39 18.25-21.476 20.906 0 0 6.052-9.675 7.94-19.639-1.704 1.43-4.344 3.32-7.297 4.281 0 0 .21-4.878-1.08-7.21 0 0-3.736 3.773-7.929 6.368 0 0-2.609-4.176-3.26-7.26-3.024 4.587-7.991 10.959-13.994 14.052 0 0 .329-4.222-.731-10.22 5.645-1.363 10.76-3 14.635-4.35 2.606-1.458 7.03-2.858 8.087-2.943.14-.02 3.704-.76 3.33 1.833 0 0 4.426-3.397 8-2.192 1.183.41 1.817 1.02 2.149 1.706 1.753-1.122 4.893-2.787 7.442-2.202 3.754.846 5.04 2.966 4.184 6.87m-48.121 1.35a33.113 33.113 0 0 1-.66 1.768c-2.837 5.077-12.103 19.22-29.742 24.154 0 0 10.885-11.03 9.676-23.247 6.892.081 14.161-1.11 20.726-2.675" fill="#FFF"/><path d="M365.508 159.236l-2.916-2.55s1.056 2.493 1.222 3.025c0 0-2.034.07-3.137-.781-1.108-.851-2.7-1.864-2.282-1.864l.908.094s-1.261-1.512-3.42-1.638c0 0-1.315.301-2.824-.464-1.505-.772-2.135-1.558-2.135-1.558s-.827-.91-.977-2.087c0 0 1.475 1.035 2.203 1.32 0 0-1.312-1.855-1.312-2.958 0 0 .935-.18 2.1.258 1.183.444 1.505.094 1.505.094s-.515-.66-.71-1.328c0 0 1.49 1.234 2.119 1.514 0 0 1.839-.566 3.236.03 1.393.6 2.967 2.142 3.221 2.429.233.271 1.172.973 1.295 1.059-.103-.125-.832-1.1-1.036-1.868.119.072 1.04.665 1.457.87.437.23 1.29 1.114 1.452 1.678.154.573-.768 1.487-.768 1.487s1.21 1.543 1.21 2.17c0 .624-.41 1.068-.41 1.068m11.896 9.758c-.3.455-.746.455-.746.455s-2.697-1.605-3.408-1.942c0 0 1.354 2.085 1.538 2.575 0 0-2.323-.344-2.922-1.151 0 0-2.61-.641-3.553-1.271-.925-.634-1.687-1.603-1.687-2.13l2.254 1.05s-2.023-2.433-2.653-3.015c0 0 .693-.755 1.57-.982.852-.215 1.267-.215 1.6-.184 0 0 .042-.516-.368-.969 0 0 2.424 1.45 3.545 2.616l-.298-1.052s1.94.488 2.84 1.348c.894.857 1.344 1.828 1.605 2.268.27.457.983 1.945.683 2.384m-31.062 68.312c-.839 1.172-2.464.975-3.616.625-1.277-.684-3.798-1.984-7.495-3.705-10.407-5.005-30.876-13.76-60.769-21.698a476.324 476.324 0 0 0-34.147-7.711c-7.8-1.461-15.019-2.65-21.708-3.588 6.823.652 14.2 1.505 22.171 2.636a491.107 491.107 0 0 1 28.89 5.003c49.232 10.098 75.447 23.92 75.447 23.92s2.953 2.087 1.227 4.518m-57.53-59.179s-1.446-.925-2.262-1.15c.166.164 1.816 1.857.893 2.069 0 0-.83-.958-2.33-1.628-1.5-.669-4.253-2.016-5.08-2.76-.77-.698-1.277-2.183-1.327-2.365.09.118.548.724.963.8.412.07 1.626.86 1.784.959-.05-.127-.476-1.146-.968-1.555-.518-.458-1.79-1.05-2.462-1.869l.742-.223s.21-1.459-.123-2.902l-.03-.156c-.374-1.494-.2-2.356.173-2.66 0 0 2.51.088 3.256.355-.272-.123-1.398-.694-2.14-1.278.031-.013.215-.07.36-.363.145-.326.073-1.048.742-1.192.671-.153 1.874.444 2.17.597.303.142 1.994 1.203 2.53 1.459.313.149.445.663.493 1.1a242.3 242.3 0 0 1 4.753 1.38l.09.073.017.009.057.043c-.939-.227-2.88-.494-3.789-.614-.27.264-.869.862-1.119 1.172 0 0-.544.709-.864 2.529-.103.59.226 1.938.825 2.463.592.516 2.47 2.233 2.764 3.045.305.83-.239 2.107-.118 2.662m-1.567-31.71c-1.117.917-2.48 1.45-2.48 1.45s.163 1.145.815 1.807c0 0-1.25-.113-2.293-.71 0 0-.93 1.04-1.036 1.47-.112.43-1.476 2.174-2.288 2.773-.819.595-2.512 1.245-2.512 1.245s1.505 2.157 2.76 3.038c-.323-.135-4.527-1.97-6.249-3.745 0 0-.162 1.313.27 1.96 0 0-2.065.928-4.417.383-2.203-.514-4.414-2.089-4.667-2.277.26.044 2.304.422 3.63.422 0 0-3-1.463-3.544-2.935-.549-1.462-.384-3.15 1.26-3.91 1.632-.767 3.045-.65 3.045-.65s3.932 1.84 6.211 2.387c0 0-2.984-1.957-3.756-3.209 0 0 2.13.06 2.732-.321.59-.38 1.024-1.354 2.176-1.742 1.143-.378 2.343-.49 2.343-.49s-1.088-.597-1.362-.927c0 0 2.242.595 2.949.595 0 0 1.966.112 2.832.225.874.107 2.513-.44 3.875-.013 1.372.45.82 2.251-.294 3.174m21.27 21.427c-.395.833-2.49 2.11-3.673 2.513l-.15-.258-.111-.164a4.807 4.807 0 0 0-1.26-1.288l.053.194.062.195.043.177.044.153.163.724.094.604-.608.383c-.493.339-1.213.873-1.87 1.525-.515.49-.993 1.047-1.32 1.642-1.04 1.914-.959 3.367-.959 3.367s-.9-.379-1.711-1.004c0 0 .412 1.724 1.878 2.459 0 0 .832 1.1.476 1.933 0 0-2.571-.207-3.173-.69-.599-.497-2.505-1.18-2.505-1.18s.638-.105 1.316-.061c0 0-.682-1.68-1.347-2.242-.66-.56-2.001-1.58-1.696-2.87 0 0 1.569.111 2.323.41 0 0-2.472-2.143-3.99-2.482l2.073-.114s-.288-1.46 2.352-2.74c2.65-1.278 3.46-2.09 4.02-2.912.548-.83.772-1.67 1.465-2.16 0 0 1.293.73 2.308 1.501 0 0-.583-1.743-2.453-3.016 0 0 1.574.208 2.721.6 0 0 1.573-.777 2.74-.648 1.17.118 3.276 1.212 3.478 1.879.178.667-.401 2.734-.783 3.57m7.032-14.628s-1.371-.337-1.907-.523c.104.149.922 1.328 1.115 1.967 0 0-1.253.822-2.216 1.037-.959.223-1.229.485-1.753 1.067-.527.604-1.86 1.321-3.18 1.129-1.272-.184-3.8-.93-4.01-.98.136.135 1.264 1.234 1.766 2.1 0 0-1.448.72-3.84 1.06-.002 0-2.174 0-3.102-.268-.933-.265-1.784-.733-1.856-1.32-.066-.592.463-1.253.463-1.253s1.915.73 3.045.925c0 0-2.844-2.635-3.844-3.37 0 0 1.992.33 3.181.735 0 0-.138-.735-.596-1.52-.466-.784.399-1.578.794-1.784.401-.196 2.249-.916 2.716-1.24 0 0-1.187-.989-2.523-1.72 0 0 2.582.265 3.905.655 0 0 1.065.076 2.19-.39 1.128-.463 1.518-.463 2.449-.33.917.136 1.031.396 1.637.45.61.073 1.204.014 1.204.014s-.401-.534-1.389-.928c0 0 2.122.272 3.107.928 0 0 1.714.3 2.708 1.269 1 .96-.064 2.29-.064 2.29m38.5 13.247s.459 1.188.733 1.718c0 0-1.59-.659-2.984-.659 0 0-.62.94-2.095.628-1.477-.295-2.923-1.418-2.923-1.418s1.325.057 2.374.057c0 0-.465-.518-1.718-.785-1.255-.26-2-.477-2.887-1.166 0 0-.22.698.373 1.166 0 0-1.984.518-2.315-1.457-.33-1.975-1.461-1.84-.658-3.296.779-1.424 2.424-1.435 2.475-1.435 0 0-1.413-.867-2.344-1.396 0 0 3.241.86 5.751 2.371 0 0-.197-.989-.792-1.511 0 0 1.727-.53 3.642.792 1.911 1.32 1.984 2.5 3.445 3.49 1.45.985.58 2.512-.077 2.901m-21.838 1.123s-.888.735-1.182 1.26c-.28.511-1.051 1.704-1.92 2.034 0 0-.922 1.186-1.907 1.26-.998.055-1.667-.164-2.328-.2-.656-.03-3.306 0-5.288-1.979 0 0 2.837.396 3.57.396 0 0-2.519-1.846-3.045-2.634 0 0 .73-.465.662-1.126-.061-.66-.27-1.254.402-1.973 0 0 2.315.792 3.7.984 0 0-1.513-1.525-3.042-2.771 0 0 .946-.088 2.06.352 0 0 .455-.094 1.516-.943 1.051-.855 3.112-.632 4.292.15 1.192.775 2.317 2.359 2.317 2.359s1.398.72 2.32 2.233c0 0-2.41-1.568-4.317-1.835 0 .005 1.74 1.577 2.19 2.433m8.875-15.958c-.068.916-.737 1.651-1.86 1.783-1.126.122-1.784-.333-2.177.199-.397.523-.99 1.048-1.595 1.174 0 0-3.83-2.362-5.494-3.222 0 0 1.398 1.774 1.727 2.505 0 0-2.313.201-3.904-.457-1.592-.665-2.657-1.219-3.769-1.704-1.128-.475-2.31-2.059-2.31-2.059s1.851.856 2.841 1.129c0 0-1.659-1.857-1.716-2.443 0 0 1.244-.33 1.845-1.06.556-.68 2.201-1.124 3.44-1.18h.266c1.26 0 4.371 1.645 5.885 2.765 0 0-1.317-1.838-2.308-2.765 0 0 2.378 0 2.97-.197.597-.208 1.984-.344 2.98.124.924.43 1.453 1.387 1.508 1.514-.123-.057-1.102-.47-1.846-.652 0 0 0 .792 1.593 1.916 1.59 1.105 1.984 1.702 1.924 2.63M218.91 255.01s1.275 2.564 1.38 4.736c.09 2.168-1.682 2.86-3.46 3.55-1.781.683-3.765.296-4.353-.091-.594-.405-1.59-.3-1.59-.3.592-.798 3.076-2.472 3.076-2.472-2.388.203-4.566 1.673-4.566 1.673s-3.752.6-5.731.6c-1.975 0-5.036-1.873-5.036-1.873-1.19 0-2.872.886-2.872.886.886-1.494 4.746-4.248 4.746-4.248-1.782.392-4.06 1.868-4.06 1.868-.686-.687-4.065-2.754-4.947-3.443-.89-.691-1.483-1.682-1.191-3.655.3-1.964 2.569-2.168 4.642-2.266 2.096-.092 4.957-.101 4.957-.101-.838.654-1.402 1.82-1.464 1.964.413-.595 3.526-2.084 3.526-2.084s3.377-.956 5.655-1.95c2.27-.982 4.346-.778 6.43.495 2.087 1.28 4.058 5.23 4.058 5.23 1.58-.652 4.11-1.03 4.418-1.072-1.287.609-3.618 2.553-3.618 2.553m-48.446-50.982c-.805.525-.875 1.081-1.498 1.873-.628.807-4.45.976-4.45.976-2.313-.792-5.334-.792-5.334-.792 1.514.435 3.559 1.06 3.559 1.06s-2.141.353-3.914.18c-1.78-.18-2.76-2.135-3.726-3.463-.985-1.325.173-3.364.173-3.364a4.502 4.502 0 0 0-1.158-.532c1.953-.175 5.6.088 5.6.088-1.684-.532-3.592-.9-3.592-.9s.217-.96.656-1.942c.445-.967 2.584-.706 3.473-.617.886.09 2.043-.978 2.683-1.185.64-.215 2.65.483 3.717.835 1.062.35 1.156 1.153 1.156 1.153-.98-.094-2.407.175-2.407.175l3.467.97s2.32 1.15 2.666 2.307c.362 1.153-.252 2.664-1.07 3.178m20.872 31.072c-.625 2.113-.123 3.106-.123 5.217 0 2.122-2.62 2.995-6.725 3.611-4.11.613-5.852-.741-5.852-.741l.617-1.38c-1.376.247-5.365.385-5.365.385 2.618-1.134 5.986-3.492 5.986-3.492-1.608.63-4.963 1.429-4.963 1.429s-1.012-.718-2.014-1.67c-.7-.645-1.396-1.406-1.745-2.117-.875-1.739.617-4.35 1.238-5.342.63-.995-.496-1.61-.496-1.61.998-.754 1.742-1.99 1.742-1.99l-.048.013c-2.223.485-4.303.606-4.303.606l-.011-.011c-1.237-.985-1.736-3.096-1.488-4.22.248-1.109.742-2.861.742-2.861h-.044c-.412.046-.862.013-1.288-.048-.724-.09-1.35-.267-1.518-.31l-.005-.01c4.722-.619 7.087-2.353 7.087-2.353l-.059.008c-1.253.232-3.42.36-3.42.36v-.014c.02-.131.175-1.387 1.114-2.013.351-.236 1.082-.236 1.964-.111.491.068 1.033.168 1.578.308l.776.197c.948.25 1.856.534 2.504.746l.044.015c1.867.626 2.749 3.105 2.749 3.105.502 1.607 1.297 2.773 2.233 3.642l.036.024c.434.378.9.698 1.382.984l.588.306.599.274c.594.245 1.209.437 1.797.595l1.123.262.549.13c.327.072.627.194.906.354.836.481 1.448 1.343 1.86 2.194l.007.01c.65 1.33.869 2.667.869 2.667-.869 1.481-3.24 2.848-3.24 2.848 1.125.254 2.617 0 2.617 0m-29.1-80.843s1.246.698 1.32 2.39c.073 1.687-.342 2.422.073 3.58.403 1.157-.281 1.955-1.898 2.903 0 0-1.633.34-3.267.205 0 0 1.23.606 1.766.683 0 0-1.766 1.485-4.272.877 0 0-3.045 1.822-5.358 1.49-2.302-.335-2.841-1.285-2.841-1.285s2.747-.494 4.708-.767c0 0-3.583-.823-4.74-1.49 0 0 .363-1.665 1.118-2.413.741-.752.566-.934.566-.934s-2.94-.689-4.027-1.092c0 0 3.46-.522 4.547-.925 0 0-.415-.833.948-1.916 1.356-1.083 2.512-2.164 3.047-2.778.55-.61 3.193-.67 4.678-.278 1.499.418 1.492.418 2.308.418.812 0 4.281-.34 4.281-.34s-.691 1.075-2.958 1.672m184.942 92.44l-.072.402-.066.227-.01.02c-.09.219-.198.444-.356.659-.816 1.187-2.438 1.004-3.605.662-1.286-.671-3.813-1.947-7.535-3.627-14.05-6.588-46.315-19.753-95.213-28.444-7.63-1.36-14.596-2.46-21.158-3.325l-.044-.01-.204-.018-.095-.022c1.214.103 2.469.217 3.715.344l.597.045c7.133.75 14.244 1.554 21.331 2.53a469.27 469.27 0 0 1 26.7 4.486c8.06 1.594 16.103 3.572 24.068 5.567a374.85 374.85 0 0 1 10.049 2.664l1.553.44c3.23.92 6.444 1.886 9.659 2.916a255.721 255.721 0 0 1 15.775 5.617l.963.392 1.304.523c2.258.916 4.498 1.872 6.727 2.87 1.281.58 2.563 1.155 3.826 1.754l.073.029.171.08.068.038s1.964 1.354 1.78 3.18m-134.015-32.53c-.867 1.321-4.369 1.774-6.249 1.544 0 0-3.51 1.573-5.514 1.31-1.994-.268-5.63-1.627-5.63-1.627s1.12-.58 2.214-.752c0 0-.676-1.341-2.308-2.87-1.628-1.547-3.724-3.441-4.086-4.719-.002 0 2.148-.899 3.695-1.26 0 0-2.59.077-4.048-.555 0 0-.1-2.708.448-3.793.544-1.081.908-1.989.908-2.54 0-.543-.103-.499.707-.764.82-.275 4.746-.953 4.746-.953s-.365-.897-2.822-1.263c0 0 2.179-.815 4.64-.457 2.44.361 4.073 3.258 4.893 4.802.825 1.529 2.361 3.246 3.366 3.979.998.72 4.755-.186 4.755-.186s-2.37 2.345-3.88 2.238c0 0 .75 2.739 2.024 3.843 1.274 1.07 3.008 2.704 2.141 4.023m-56.85 17.017c-1.112.87-3.984 3.233-5.48 4.97-1.506 1.739-3.11 3.6-6.475 2.723-3.366-.857-3.875-5.7-3.875-5.7.875-1.24 4.864-3.102 4.864-3.102-2.117 0-4.805.472-4.805.472.055-1.017.202-3.955.202-6.326 0-2.358-1.253-4.59-1.253-4.59.869-.875 3-1.986 3-1.986-4.123.62-6.24.125-6.24.125 1.13 0 2.744-.875 2.744-.875-.243-1.236.253-2.975.87-3.603.618-.617 2.498-2.977 3.365-3.607.869-.615 3.118-.245 5.358.127 2.242.374 2.613 1.741 2.613 1.741 1.126.245 2.251.13 2.251.13-1.371.992-4.866 2.101-4.866 2.101 1.623.258 2.995.258 2.995.258s.991 3.608 1.494 5.47c.224.804.634 1.474 1.16 2.11-.971.58-2.632 1.494-4.026 1.986 0 0 2.403-.068 4.981-.956l1.626 1.573c1.75 1.74.627 6.097-.503 6.959m100.313-63.604s.983 1.078.803 2.194c-.17 1.109-.557 1.328-.877 2.058-.305.731-1.249 1.359-2.23 1.81 0 0 1.269.548 2.594 1.32l-3.504-.441s-1.398.833-2.034 1.77c-.63.949-1.749 1.78-3.357 1.85 0 0-2.023-.593-2.826-.774 0 0 1.053.905 1.468 1.363 0 0-1.146.452-2.276.218-1.114-.25-3.666-1.3-4.44-1.535 0 0 1.86.135 2.422.207 0 0-3.71-2.966-4.268-3.622 0 0 1.6.26 2.313.442-.255-.158-2.35-1.433-2.418-3.095-.04-1.013.663-1.777 1.5-2.23.848-.455 1.787-.496 2.138-1.124.35-.63.415-1.391.415-1.391s2.753.523 3.975.807c0 0-1.084-1.608-1.788-1.888 0 0 .228-.625 1.141-1.048.906-.41 2.477-.833 3.425-1.566.941-.728 1.992-.523 2.694-.38.696.135 2.058.975 3.669 1.467 0 0-.838-.704-1.119-1.292 0 0 1.75.102 2.629.485.868.383 1.316 1.286.901 1.958-.421.658-.945.73-.974 1.183-.046.451 1.187 1.256 1.71 1.711a18.106 18.106 0 0 0-1.686-.457" fill="#000"/><path d="M287.402 224.16c-4.25-3.98-8.443-7.973-12.939-11.632a480.173 480.173 0 0 0-34.147-7.716 470.661 470.661 0 0 0-21.708-3.58 480.83 480.83 0 0 1 22.171 2.631 490.058 490.058 0 0 1 28.899 5.01c-4.856-3.437-9.994-6.305-15.04-9.415-1.747-1.066-3.538-2.192-5.036-3.603-.764-.703-1.582-1.602-1.683-2.695v-.628l.01-.035.064-.403.027-.124.035-.097.114-.334.081-.2c.441-1.023 1.24-1.962 2.036-2.622l.354-.31.243-.209.318-.266.34-.285.024-.006.125-.108.073-.063.017-.024.1-.079.271-.562c6.866-12.278 24.043-15.418 24.043-15.418-1.777-2.48-3.877-3.83-3.877-3.83 2.317-.81 5.216-.308 6.33-.061l-.035-.151c-.368-1.492-.195-2.354.18-2.656 0 0 2.508.086 3.248.35-.268-.124-1.392-.689-2.138-1.273a198.326 198.326 0 0 0-8.7-1.885c-11.784-2.28-23.851-3.161-35.82-3.599a164.924 164.924 0 0 0-6.418-.135c1.626.693 2.96 2.128 3.857 3.63-2.383-.174-4.78-.31-7.166-.41 1.106.382 1.87.752 2.067.844 0 0-1.98-.302-3.326-.33 0 0 .669.37 1.046.78 0 0 .07.784-.041 1.226-.106.455-.336 1.122-.075 1.865.257.75 1.014 2.418 1.128 3.017 0 0-2.295-.19-3.634-.22 0 0 3.702 1.788 4.832 2.469 0 0-.757-.04-1.238 0 0 0-1.272.744-1.527 1.223-.272.487 0 2.686-1.242 3.653-1.228.967-2.878.748-3.392 1.343-.529.593.3 1.415.3 1.415s-2.685-.604-3.508-.678c0 0 1.277 1.284 2.094 1.881 0 0-1.054-.234-2.14-.092-1.084.151-4.445.412-6.253-.997-1.795-1.424-.858-2.542-.445-2.984.412-.444.517-1.006-.67-2.386-1.198-1.383-1.015-1.383-.787-2.124 0 0 4.184.013 5.68.424 0 0-4.079-2.297-5.68-2.634 0 0 .077-.516.972-1.194.895-.674 2.095-1.203 2.497-2.879 0 0 3.012.575 4.73.833-1.87-.71-2.736-1.763-5.801-2.611 0 0 2.135-.105 2.936-.175 0 0 1.468-.26 2.148-.897.283-.258.634-.587 1.075-.877-5.93.115-11.846.669-17.68 2.04-9.31 2.184-18.578 4.487-27.866 6.758l-.228.065c1.571-.978 2.93-2.358 4.182-3.712-2.75.678-5.531 1.24-8.333 1.728-4.56.8-9.255 1.5-13.913 1.234-7.684-.444-15.376-2.194-22.865-3.913l-1.983-.464c.164.116 2.705 1.7 3.583 2.216 3.697 2.168 7.501 4.147 11.527 5.635 1.218.402 2.423.866 3.651 1.247 1.365.42 2.75.778 4.13 1.1 1.268.289 2.56.516 3.84.71 2.292.338 4.623.476 6.937.412 2.33-.055 4.652-.376 6.951-.796 2.664-.495 5.31-1.065 7.908-1.82l1.28-.368c3.593-1.102 7.07-2.688 10.421-4.394.88-.433 1.755-.878 2.609-1.341l.066-.042.063-.02c-.054.06-6.235 5.178-9.274 7.031-.658.403-1.328.805-2.012 1.194a77.604 77.604 0 0 1-3.375 1.8c-.967.504-1.94.963-2.92 1.396l-1.56.652-.08.042-.815.424c-1.773 1.096-3.592 2.126-5.492 3.01l-.08.044c-.629.3-1.26.59-1.9.864l-.043.022-.048.024a87.555 87.555 0 0 1-5.247 2.052 63.36 63.36 0 0 1-4.219 1.339c-10.082 2.94-16.232 2.87-16.232 2.87.682.308 1.597.586 2.442.77 3.037.682 10.302 1.323 10.642 1.424l.063-.02-.601.575c-4.537 4.143-10.34 6.657-16.243 8.27a68.548 68.548 0 0 1-9.698 1.891l-1.516.164c-.209.075-.351.164-.406.278-1.608 5.012-1.659 10.428-1.38 15.632.151 2.793.496 5.587.998 8.356l.011.04c.364-.361.794-.749 1.29-1.153 0 0 1.499-1.234 4.108-1.617l-.112-.098-.117-.105c-.557-.468-1.41-.709-2.167-.825l-.575-.09.496-.08c1.626-.344 3.56-.641 5.138-.298l.114.015c.961.221 1.806.856 2.322 1.678l.134.26.158.34.028.085.105.343.07.341.016.068.02.355c0 .415-.086.842-.272 1.244-.615 1.368-1.74 3.98-1.74 4.968 0 .45-2.344 2.076-2.975 2.713l-.1.116.194-.011.153-.024 2.065-.252 1.012-.061h.026s1.617 2.98 2.865 3.981c1.245.989 2.366 3.095 2.74 4.708l.05.01c.148.018.326-.039.513-.113l.054-.018.224-.094.463-.219.705-.297.667-.34.065-.028s-2.356 3.454-5.101 5.08c.178.03 2.36.35 3.45-.118l.028-.011s.186 4.13-3.851 8.58c-.276.303 3.006 4.184 5.018 6.454l.228.274.174.201.42.468.27.31c.143-.126 1.25-1.073 1.815-1.535a44.222 44.222 0 0 1 3.046-2.214c.978-.669 3.251-1.874 3.251-1.874l.031-.016c.112-1.023.454-1.607.742-1.968.386-.47.96-.576 1.437-.853.195-.114.412-.234.619-.46l.219-.262.118-.19.147-.278.106-.248c.11-.258.217-.566.31-.936.16-.634.688-1.216.688-1.216l-.035-.009a37.01 37.01 0 0 0-2.185-.724 60.902 60.902 0 0 0-3.537-.936c-.784-.182-1.582-.372-2.387-.525 6.191-4.08 13.046-7.131 20.091-9.51 2.357-.789 7.353-2.21 7.353-2.21-.7-.642-1.398-1.41-1.745-2.125-.875-1.737.617-4.349 1.238-5.34.63-.995-.496-1.605-.496-1.605.998-.757 1.742-1.995 1.742-1.995l-.048.015c-2.22.484-4.303.606-4.303.606l-.011-.015c-1.237-.98-1.733-3.096-1.49-4.213.25-1.11.744-2.864.744-2.864h-.042c-.414.044-.864.011-1.29-.05-.722-.09-1.35-.265-1.518-.309l-.004-.008c4.721-.622 7.087-2.358 7.087-2.358l-.06.01c-1.253.237-3.42.361-3.42.361v-.01c.02-.134.177-1.39 1.114-2.017.351-.234 1.086-.234 1.964-.11.491.066 1.033.173 1.58.307l.774.196c.953.252 1.854.534 2.508.75l.044.01c1.865.627 2.747 3.108 2.747 3.108.503 1.606 1.297 2.77 2.236 3.642l.033.022c.436.38.897.7 1.384.989l.586.304.6.273c.6.247 1.206.44 1.796.59l1.123.27.549.127c.33.072.628.199.906.354.84.48 1.448 1.339 1.863 2.196 3.287-.356 6.606-.64 9.893-.835-.412-.481-.855-.94-1.33-1.37-3.308-3.042-7.942-4.994-12.104-6.324 8.278-1.107 16.646-1.437 24.977-1.719 4.764-.18 9.536-.289 14.295-.341-1-.834-2.387-1.31-3.585-1.792 2.795-.32 5.718-.05 8.515.158-2.385-1.2-5.086-1.868-7.635-2.625a198.537 198.537 0 0 0-5.41-1.5l.22.01-.096-.022c1.222.1 2.469.217 3.715.341l.599.048c7.135.746 14.244 1.554 21.331 2.53a468.944 468.944 0 0 1 26.7 4.486c8.06 1.594 16.1 3.572 24.07 5.567 3.363.844 6.707 1.728 10.047 2.667a433.52 433.52 0 0 0-17.889-4.686m-47.904-55.044c.847-.464 1.784-.505 2.137-1.133.347-.628.412-1.39.412-1.39s2.756.523 3.972.801c0 0-1.08-1.603-1.782-1.883 0 0 .228-.626 1.139-1.048.904-.411 2.477-.833 3.427-1.564.946-.728 1.997-.523 2.705-.38.687.135 2.056.975 3.658 1.458 0 0-.838-.697-1.112-1.284 0 0 1.746.103 2.622.482.868.385 1.318 1.288.904 1.957-.42.661-.948.733-.977 1.182-.046.455 1.187 1.257 1.71 1.71 0 0-.77-.25-1.681-.453 0 0 .978 1.081.803 2.201-.17 1.114-.558 1.32-.878 2.059-.305.732-1.244 1.362-2.23 1.81 0 0 1.273.548 2.592 1.32l-3.495-.444s-1.404.838-2.038 1.772c-.628.95-1.745 1.78-3.366 1.852 0 0-2.021-.595-2.824-.774 0 0 1.053.904 1.468 1.36 0 0-1.148.456-2.276.213-1.112-.243-3.662-1.293-4.432-1.527 0 0 1.859.133 2.418.206 0 0-3.703-2.964-4.265-3.625 0 0 1.6.265 2.313.444-.257-.157-2.353-1.428-2.42-3.095-.047-1.024.662-1.785 1.496-2.227m-17.496 21.378c.21-.448.454-.787 1.106-.787.638 0 1.988.184 2.433-.156.454-.347.549-1.246 1.352-1.736.796-.504 2.24-.112 3.54.236 1.298.359 2.888.945 2.888.945-1.496.103-3.043.103-3.043.103 1.85.452 3.642 1.347 5.332 2.386 1.735 1.068 1.055 2.09 2.503 2.636 1.44.547.885 1.046.885 1.046-1.692-.35-4.626-.593-4.626-.593l3.836 1.479s-.303.258-.692.302c-.405.048-1.108-.394-1.698-.302-.594.107-1.049 1.107-1.7 1.65-.639.546-1.486.386-1.486.386s-.206.805-.847 1.3c-.651.496-1.711.251-3.056.052-1.34-.205-1.8-3.038-1.8-3.038-1.388-1.232-3.523-2.376-3.523-2.376.9.046 2.045.247 2.045.247-.454-.75-3.094-1.984-3.094-1.984-.447-.205-1.794-.947-1.794-.947 1.347.103 5.478 1.041 5.478 1.041-1.347-.846-4.04-1.89-4.04-1.89m-65.689 40.686c-1.114.872-3.982 3.233-5.483 4.967-1.496 1.742-3.107 3.599-6.464 2.728-3.37-.864-3.886-5.707-3.886-5.707.88-1.238 4.87-3.097 4.87-3.097-2.114 0-4.806.474-4.806.474.048-1.01.195-3.953.195-6.33 0-2.352-1.246-4.594-1.246-4.594.867-.869 3.004-1.982 3.004-1.982-4.127.617-6.249.127-6.249.127 1.126 0 2.747-.877 2.747-.877-.246-1.234.248-2.969.867-3.597.62-.616 2.51-2.979 3.376-3.605.867-.616 3.116-.247 5.354.127 2.24.368 2.611 1.735 2.611 1.735 1.128.25 2.253.13 2.253.13-1.375.997-4.866 2.101-4.866 2.101 1.624.263 2.995.263 2.995.263l1.494 5.464c.217.805.628 1.472 1.16 2.111-.969.575-2.634 1.488-4.025 1.982 0 0 2.402-.072 4.971-.956l1.63 1.573c1.747 1.752.624 6.103-.502 6.963m14.152-27.154c-.805.525-.875 1.079-1.498 1.88-.628.806-4.45.968-4.45.968-2.313-.8-5.327-.8-5.327-.8l3.554 1.076s-2.14.354-3.923.18c-1.775-.18-2.758-2.142-3.723-3.47-.981-1.326.17-3.362.17-3.362-.532-.363-1.151-.536-1.151-.536 1.948-.177 5.606.092 5.606.092-1.683-.536-3.605-.9-3.605-.9s.22-.962.658-1.94c.457-.964 2.585-.708 3.48-.619.889.09 2.043-.975 2.686-1.185.638-.213 2.65.483 3.71.84 1.066.345 1.163 1.148 1.163 1.148-.985-.094-2.412.175-2.412.175l3.472.97s2.308 1.148 2.661 2.303c.362 1.155-.257 2.668-1.07 3.18m19.999-14.89c-1.2 1.391-3.985.923-3.985.923s-2.8 2.063-5.858 1.612c-3.065-.457-5.514-1.612-5.514-1.612s-2.789-.634-4.325-1.455c0 0 3.79.377 6.771.197 0 0-3.2-.973-4.131-2.122 0 0 1.082-.678.886-1.664-.206-1-.502-2.394-.048-3.181 0 0 2.795 1.337 4.186 1.687 0 0-1.792-1.492-2.444-2.827 0 0 1.21 0 2.302-.897 1.093-.894 2.264-2.5 4.296-2.47 0 0 .943-.957 1.89-1.16.938-.198 1.73-.198 1.73-.198s1.104.495 2.993.847c-.002 0-2.54-1.691-3.142-2.428 0 0 1.145.393 2.098.334 0 0 1.044-.29 2.738.156 1.692.442 2.832 1.743 2.832 2.826 0 1.098-1.533 2.535-.987 3.482.505.865 4.024 1.748 4.527 1.869-.389-.031-2.67-.215-4.033-.04 0 0-.845.845-1.797.897-.95.048-1.143.75-.95 1.297.213.543 1.158 2.54-.035 3.927m22.696 25.027c-.867 1.321-4.367 1.774-6.247 1.544 0 0-3.508 1.573-5.51 1.304-1.994-.262-5.623-1.62-5.623-1.62s1.112-.58 2.21-.753c0 0-.676-1.337-2.318-2.87-1.628-1.545-3.72-3.439-4.08-4.717-.003 0 2.145-.903 3.692-1.264 0 0-2.591.072-4.05-.556 0 0-.101-2.705.45-3.79.546-1.085.908-1.989.908-2.54 0-.543-.11-.499.706-.764.817-.275 4.75-.953 4.75-.953s-.36-.897-2.828-1.263c0 0 2.188-.813 4.648-.452 2.44.356 4.07 3.252 4.89 4.792.823 1.534 2.361 3.251 3.364 3.98.959.689 4.425-.103 4.73-.175-.24.253-2.43 2.325-3.855 2.233 0 0 .75 2.743 2.021 3.841 1.275 1.074 3.008 2.704 2.142 4.023" fill="#9F792C"/><path d="M179.131 265.188s-1.156.293-3.528 2.082c-2.387 1.816-2.964 4.185-2.964 4.185 1.237-1.136 2.964-2.186 2.964-2.186-.49.768-.288 1.147-1.34 3.511-1.047 2.374-3.621 2.284-5.431 2.472-1.804.197-4.757-1.99-4.757-1.99-1.051.382-2.964 2.187-2.964 2.187.86-2.852 4.006-5.893 4.006-5.893-1.332.569-3.719 2.277-3.719 2.277-1.33-1.043-6.014-2.38-9.151-4.084-3.151-1.71-2.765-5.033-2.765-5.033.195-1.993 1.904-4.662 1.904-4.662-1.05.58-2.185 1.813-2.185 1.813a5.95 5.95 0 0 1 .009-1.052v-.026c.114-1.024.456-1.608.748-1.969.377-.47.957-.573 1.428-.85.198-.114.413-.235.624-.467l.215-.258.125-.194.144-.278.104-.243c.111-.258.217-.569.311-.936.162-.632.69-1.217.69-1.217 1.094-1.225 3.031-2.108 3.031-2.108-1.009 1.264-1.134 2.598-1.143 2.876l.033.013c2.19-3.458 5.88-3.187 5.88-3.187-.761.201-1.709.768-1.709.768s1.617.567 3.243 1.04c1.62.485 5.235.765 7.337.765 2.093 0 5.995.761 5.995.761 1.71-.564 6.964-1.899 6.964-1.899-1.815 1.14-5.045 2.75-5.045 2.75 6.57 3.614.946 11.031.946 11.031zm45.225 19.755c-1.26 2.15-2.964 2.343-2.964 2.343l.43-.814c-1.474.402-3.03-.44-3.184-.523.904 1.271.996 2.903.996 2.903l-.574 1.085 1.99-.151-1.126 1.385c.33 3.209-2.341 4.414-5.47 4.162-3.12-.234-6.896-3.447-6.896-3.447.22-1.243 2.57-4.58 2.57-4.58-1.67.505-4.694 2.635-4.694 2.635-2.861-1.772-2.27-1.17-10.413-2.292-8.134-1.122-12.208-3.27-12.208-3.27-.042-1.486 1.062-3.269 1.062-3.269-1.94.95-2.9 2.452-2.9 2.452-.688-.503-3.064-2.786-2.136-6.006.917-3.21 5.696-3.702 5.696-3.702 1.56-1.255 3.912-1.28 4.057-1.28-.535.324-1.435.94-1.435.94 1.33-.257 8.518.483 11.625.719 3.115.245 6.468.236 6.468.236l3.186-.73-5.61 3.609c2.36-1.45 8.1-2.592 8.1-2.592s1.003-.127 2.473.522c1.465.648 2.106 3.037 2.106 3.037 1.27-1.245 3.386-.503 5.556 1.739 2.172 2.24 2.255 4.607 2.255 4.607l1.04.282zm-1.538-116.388s3.704 1.776 4.834 2.46c0 0-.757-.043-1.24 0 0 0-1.266.738-1.527 1.226-.272.48 0 2.686-1.242 3.653-1.226.969-2.879.741-3.392 1.34-.529.596.298 1.418.298 1.418s-2.683-.604-3.512-.682c0 0 1.281 1.29 2.1 1.89 0 0-1.06-.239-2.142-.094-1.084.15-4.45.41-6.247-1.002-1.797-1.42-.858-2.542-.445-2.986.412-.442.52-1.002-.672-2.385-1.2-1.378-1.013-1.378-.79-2.126 0 0 4.18.009 5.672.429 0 0-4.068-2.293-5.671-2.627 0 0 .079-.514.974-1.199.9-.663 2.084-1.199 2.488-2.872 0 0 3.015.566 4.73.833-1.865-.717-2.736-1.77-5.79-2.618 0 0 2.124-.105 2.936-.173 0 0 1.459-.258 2.144-.895.276-.262.63-.59 1.07-.883a5.115 5.115 0 0 1 2.646-.819c2.14-.072 4.171.436 5.617.928 1.104.383 1.867.752 2.065.846 0 0-1.981-.301-3.324-.332 0 0 .667.374 1.042.78 0 0 .07.782-.04 1.23-.105.449-.335 1.125-.074 1.866.259.746 1.014 2.415 1.126 3.015 0-.005-2.295-.193-3.634-.221zM239 195.168c-1.694-.352-4.625-.593-4.625-.593l3.83 1.474s-.298.26-.689.307c-.401.046-1.108-.396-1.693-.307-.597.108-1.058 1.116-1.71 1.654-.638.543-1.48.392-1.48.392s-.21.805-.848 1.297c-.656.494-1.702.245-3.05.05-1.338-.208-1.794-3.04-1.794-3.04-1.391-1.234-3.53-2.383-3.53-2.383.901.05 2.049.254 2.049.254-.46-.759-3.103-1.988-3.103-1.988-.445-.204-1.799-.947-1.799-.947 1.354.1 5.488 1.043 5.488 1.043-1.345-.849-4.04-1.886-4.04-1.886.21-.452.457-.787 1.108-.787.634 0 1.99.188 2.438-.162.454-.343.546-1.243 1.35-1.735.791-.498 2.24-.098 3.536.247 1.293.353 2.886.945 2.886.945-1.503.101-3.04.101-3.04.101 1.84.442 3.636 1.341 5.328 2.38 1.738 1.068 1.055 2.087 2.5 2.638 1.44.54.888 1.046.888 1.046zm-27.767-49.12c-.21 1.78-2.501 3.357-3.12 3.758-.61.41-1.757 1.225-2.093 2.37-.342 1.147-1.562 1.89-2.32 1.963-.739.066-1.75 1.144-1.75 1.144 1.062.258 2.558-.195 2.758-.258-.158.133-1.453 1.172-2.014 1.617-.613.474-2.644.942-3.388.87l-3.8-.054c-2.315-.08-4.957-.285-5.751-1.735-.76-1.376-1.077-1.418-1.104-1.418-1.632.742-5.02.71-5.02.71 3.26-1.35 6.052-4.396 6.052-4.396-1.756.74-3.75 1.042-3.75 1.042-.281-.475-.33-.972-.27-1.987.075-1.012 1.025-1.553 1.025-1.553s.059-.54.743-1.422c.685-.875 2.982-2.09 4.272-2.165 1.295-.07 2.912-.737 3.803-1.346.877-.61 3.993-1.892 5.553-1.76 1.56.135 2.181.4 2.181.4.878-.06 2.84-.4 2.84-.4-2.568 2.027-4.205 2.769-4.205 2.769 2.984-.341 5.567-1.553 5.567-1.553 3.043.205 3.993 1.625 3.791 3.404zm38.781-2.612c-.134.967-.823 3.452-2.137 4.003-1.32.544-1.676.647-1.676.647v2.872s-1.962-1.752-2.37-2.307c0 0-.529.024-1.91-.186-1.383-.204-3.053 2.141-5.61 1.94 0 0-4.216-.897-4.905-2.625-.69-1.722-.421-3.172-.136-3.657-.002 0 1.45 1.863 2.48 2.41 0 0-.96-2.203-.96-3.58 0 0 .828-.62.96-1.248.144-.62 1.737-1.588 2.707-1.793.97-.202 1.92.207 1.92.207s1.136 2.577 1.963 3.54c0 0-.35-5.053.062-6.843 0 0 1.055 2.328 1.61 3.087 0 0 1.157-.125 2.822-.403 1.66-.277 3.105-.13 4.077.825.972.97 1.25 2.142 1.103 3.11zm-52.733 39.626c-.393-.035-2.668-.219-4.026-.046 0 0-.847.847-1.8.895-.952.055-1.145.752-.952 1.304.21.542 1.154 2.528-.042 3.918-1.198 1.39-3.984.92-3.984.92s-2.798 2.068-5.863 1.615c-3.067-.453-5.51-1.615-5.51-1.615s-2.786-.634-4.322-1.443c0 0 3.792.358 6.763.183 0 0-3.19-.973-4.119-2.108 0 0 1.082-.68.889-1.667-.21-1.004-.51-2.391-.053-3.185 0 0 2.789 1.339 4.182 1.689 0 0-1.79-1.494-2.437-2.827-.003 0 1.2 0 2.292-.9 1.09-.896 2.263-2.501 4.297-2.47 0 0 .94-.959 1.89-1.167.94-.192 1.732-.192 1.732-.192s1.106.494 2.995.844c-.002 0-2.54-1.688-3.144-2.43 0 0 1.15.396 2.097.34 0 0 1.047-.296 2.74.152 1.695.444 2.84 1.744 2.84 2.829 0 1.093-1.54 2.537-.992 3.487.512.86 4.018 1.752 4.527 1.874z" fill="#000"/><path d="M365.37 200.91c0 1.391-3.188 1-5.586.796-2.383-.199-14.55.996-18.74 2.982a62.705 62.705 0 0 0-10.339 3.406 56.32 56.32 0 0 0-2.806 1.314c-1.115.554-2.212 1.151-3.21 1.888l-.338.276s-.553-3.008-3.201-5.705l-.468-.46a12.01 12.01 0 0 0-1.053-.86c-1.123-.833-2.53-1.579-4.243-2.097-.57-.18-1.179-.324-1.817-.446a21.116 21.116 0 0 0-3.164-.34h-.017l-.15-.023c5.352-2.531 11.91-5.045 17.472-5.364 11.64-.648 26.99 2.524 26.99 2.524s8.6-10.716-3.583-23.281c2.473 2.272 6.556 6.466 9.068 11.48 3.796 7.55 5.185 12.523 5.185 13.91m34.825-13.512c-1.933-1.702-4.522-3.474-7.399-5.226a87.525 87.525 0 0 0-6.448-3.64l-.228-.112c11.73 1.92 14.48-1.124 15.106-2.386l.073.127c.173.319.337.643.467.949 2.33 5.539-1.571 10.288-1.571 10.288" fill="#9F792C"/><path d="M317.409 194.013s-10.611 6.659-18.3 4.685c-7.696-1.975-20.883-12.374-20.883-12.374s5.053-.652 13.393.73l.22.046c1.516.335 3.14 1.564 4.357 2.415.746.528 1.41 1.147 2.128 1.704.139.114 1.997 1.243 2.08 1.243l-.03.413c0 1.95 1.59 3.529 3.552 3.529 1.96 0 3.539-1.582 3.539-3.529 0-.77-.244-1.49-.667-2.058 7.006 1.984 10.61 3.196 10.61 3.196" fill="#006778"/><path d="M302.855 190.972c-.061 1.022-.737 1.636-1.65 1.636-.261 0-.54-.056-.8-.148-.082 0-1.938-1.131-2.079-1.243-.717-.558-1.382-1.174-2.126-1.706-1.222-.849-2.832-2.065-4.353-2.413.933.173 4.568.884 6.701 1.453 1.08.275 2.076.55 3.063.82-.002 0 1.308.577 1.244 1.601" fill="#FFF"/><path d="M341.908 194.059c2.238-.556 4.678-1.66 6.422-3.218l-.004-.002.029-.037c-3.866 1.417-8.002 1.885-11.967.527-.66-.23-1.34-.466-2.006-.744l-.732-.341c-3.974-1.984-7.577-4.87-11.1-7.556-6.043-4.609-12.362-8.678-19.383-11.609-.487.34-1.211.873-1.868 1.52v.156c0 1.89 1.372 5.86 4.294 8.236 3.79 3.086 10.842 6.175 10.842 6.175-.343-1.192-.174-2.739-.174-2.739 1.031 1.71 3.272 4.285 6.71 6.18l.7.35c1.066.5 2.46 1.098 3.855 1.645 1.016.398 2.163.755 3.047.995 3.702.77 7.632 1.385 11.335.462" fill="#9F792C"/><path d="M298.004 202.577c-3.454-1.818-7.008-3.52-10.655-4.961a140.765 140.765 0 0 1-6.7-3.636c-2.976-1.715-5.927-3.528-8.735-5.515-1.332-.938-2.883-1.72-4.037-2.87l-.24-.164a17.398 17.398 0 0 0-2.128-.192c-.917-.024-1.847 0-2.769.07l-1.123.11c.81 2.637 4.432 6.524 4.432 6.524-1.72.123-3.917-.48-3.917-.48 3.182 4.256 11.978 9.624 18.826 10.965 6.843 1.335 13.075 1.085 13.075 1.085-.97.495-2.565 1.105-2.565 1.105s2.687-.125 6.352.604c.476.091.994.218 1.546.37 2.434.618 5.435 1.618 7.2 2.237l.57.195a61.5 61.5 0 0 0-2.583-1.65c-1.792-1.113-4.265-2.603-6.55-3.797m-33.677-21.67c2.728-.809 5.918-1.45 8.753-1.719 9.58-.901 19.062.691 27.95 3.697 8.654 2.922 16.612 7.405 25.479 9.772 1.134.3 2.268.573 3.418.82l.634.125a34.085 34.085 0 0 1-3.034-.996 66.406 66.406 0 0 1-3.857-1.645l-.698-.352c-3.434-1.892-5.679-4.467-6.71-6.177 0 0-.164 1.546.174 2.738 0 0-7.055-3.088-10.842-6.175-2.922-2.376-4.29-6.344-4.29-8.24v-.151c-.515.492-.997 1.05-1.322 1.643-1.042 1.916-.957 3.37-.957 3.37s-.904-.38-1.713-1.01c0 0 .41 1.728 1.876 2.463 0 0 .836 1.1.476 1.934 0 0-2.567-.206-3.169-.69-.599-.498-2.51-1.18-2.51-1.18s.643-.103 1.319-.062c0 0-.685-1.68-1.347-2.242-.66-.56-2-1.58-1.694-2.872 0 0 1.567.114 2.326.411 0 0-2.477-2.142-3.998-2.487l2.076-.11s-.281-1.459 2.352-2.738c2.644-1.28 3.462-2.092 4.02-2.914.548-.827.772-1.667 1.465-2.157 0 0 1.292.729 2.308 1.5 0 0-.581-1.743-2.455-3.016 0 0-6.863-.774-11.745 2.748l.4.251.135.079.279.182.134.083.294.199.09.063.364.243.018.009.278.197.108.083.131.096.092.057.02.022.095.07.022.008.052.044c-.939-.223-2.885-.494-3.79-.614-.269.264-.87.861-1.114 1.17 0 0-.553.71-.87 2.533-.104.586.227 1.938.822 2.463.601.516 2.47 2.234 2.773 3.043.297.827-.248 2.104-.127 2.66 0 0-1.446-.925-2.262-1.15.169.159 1.817 1.854.893 2.069 0 0-.83-.956-2.33-1.628-1.494-.667-4.252-2.015-5.075-2.76-.775-.696-1.28-2.184-1.332-2.367.094.122.549.726.961.8.415.072 1.628.86 1.786.958-.05-.124-.476-1.144-.968-1.553-.522-.457-1.788-1.054-2.464-1.868l.746-.223s.209-1.459-.129-2.903c-1.11-.25-4.009-.754-6.326.06 0 0 2.1 1.349 3.877 3.819 0 0-17.177 3.14-24.045 15.413l-.276.569-.093.087.145-.116.049-.006h.006l.013-.011c.27-.226 2.973-2.54 4.628-3.459 2.4-1.339 5.086-2.163 7.705-2.96" fill="#FFF"/><path d="M351.113 175.522a35.299 35.299 0 0 0-2.774-2.568l.07.118.101.186.084.177.11.206.21.43.125.259.244.555c.256.595.548 1.32.827 2.127.278.8.54 1.677.755 2.6l.184.937.055.35c.22 2.485.36 4.808-.702 7.153a8.269 8.269 0 0 1-1.821 2.572l-.253.22c-1.74 1.561-4.18 2.663-6.415 3.215-3.706.925-7.636.313-11.335-.457l-.018-.005-.63-.12a65.866 65.866 0 0 1-3.42-.82c-8.867-2.365-16.829-6.847-25.48-9.765-8.884-3.013-18.372-4.603-27.953-3.7-2.83.267-6.019.908-8.748 1.718-2.622.794-5.31 1.616-7.71 2.957-1.657.915-4.358 3.235-4.634 3.459l.313-.07.45-.119c2.106-.518 4.34-1.058 6.598-1.417.759-.123 1.512-.217 2.275-.298l1.121-.111c.922-.068 1.854-.096 2.767-.068a17.39 17.39 0 0 1 2.133.193l.234.161c1.155 1.153 2.701 1.939 4.038 2.875 2.81 1.982 5.761 3.795 8.734 5.512a143.978 143.978 0 0 0 6.703 3.638c3.65 1.44 7.2 3.141 10.653 4.964 2.288 1.19 4.757 2.68 6.55 3.793a73.673 73.673 0 0 1 2.582 1.65l1.645 1.093c3.052 2.032 5.962 4.28 8.74 6.674.807.685 1.593 1.389 2.38 2.1 1.249 1.148 2.392 2.397 3.618 3.557-.103-.088-.125-.567-.158-.707l-.287-.805c-.215-.551-.43-1.12-.67-1.667-.462-1.1-.989-2.18-1.56-3.235a50.812 50.812 0 0 0-3.88-6.06 61.384 61.384 0 0 0-2.535-3.187c-.638-.737-1.305-1.456-1.983-2.191-.527-.584-1.179-1.645-1.975-1.904l-.083-.03-.15-.022c5.352-2.533 11.91-5.044 17.472-5.364 11.642-.652 26.99 2.525 26.99 2.525s8.596-10.721-3.587-23.284m-52.003 23.176c-7.693-1.975-20.884-12.374-20.884-12.374s5.049-.652 13.393.73c.094.016 4.483.845 6.925 1.494 1.075.28 2.075.556 3.063.825 0 0 1.312.575 1.244 1.604-.06 1.021-.737 1.636-1.65 1.636-.261 0-.54-.061-.795-.151l-.032.413c0 1.945 1.59 3.529 3.556 3.529a3.534 3.534 0 0 0 3.535-3.529c0-.77-.244-1.49-.667-2.063 6.995 1.993 10.606 3.203 10.606 3.203s-10.606 6.657-18.294 4.683" fill="#000"/></g></svg>