<svg width="512" height="512" viewBox="0 0 512 512" xmlns="http://www.w3.org/2000/svg"><title>los-angeles-rams</title><g fill="none" fill-rule="evenodd"><path d="M351.024 397.63c.126-.029 9.742-2.487 9.742-2.487 11.947-2.98 19.549-4.946 24.01-7.072 0-.01 3.902-1.891 3.902-1.891l2.238-3.716c.65-1.08 15.555-26.258 22.92-61.295 2.085-1.89 9.888-8.993 9.888-8.993l.22-2.35.298-3.208c.272-2.886.403-5.802.403-8.701 0-5.228-.433-10.666-1.27-16.193 17.236-9.59 24.702-23.465 29.27-34.731 3.732-9.193 5.6-19.516 5.6-30.234 0-10.577-1.827-21.538-5.45-32.142-5.88-17.163-19.22-41.367-49.424-59.198-18.813-11.11-45.311-15.813-70.935-12.6-29.75 3.727-55.363 17.784-72.116 39.562a78.048 78.048 0 0 0-3.738 5.37l-.58.102C161 172.65 85.68 234.51 82.526 237.13l-27.268 22.637 35.321 2.842c62.253 5.008 106.322 26.786 132.322 44.173 28.483 19.053 42.192 37.142 42.328 37.328l9.19 12.516 11.82-10.14c2.004-1.73 3.816-3.696 5.456-5.87l.406.362 2.668 2.227c1.763 1.422 3.2 2.638 5.03 4.696a8.313 8.313 0 0 1 .712 3.403c0 3.184-.389 4.093-1.237 6.074l-.418.956c-1.011 2.423-2.92 5.924-2.953 5.966l-2.89 5.295 52.59 29.545" fill="#FFF"/><path d="M297.596 326.6l.615.542-.026-.178-.589-.364zm89.05-86.689l-.876.881.522-.506.354-.375z" fill="#13264B"/><path d="M400.253 130.677c-33.672-19.886-100.11-20.048-135.093 25.432a79.009 79.009 0 0 0-4.863 7.154c-1.511.3-2.655.512-3.32.625-93.278 14.527-167.438 75.367-170.55 77.95l-15.706 13.039 20.347 1.636c123.307 9.919 178.513 83.202 179.053 83.954l5.324 7.222 6.797-5.845c3.723-3.204 6.28-6.967 8.081-10.633 1.664 1.52 3.54 3.182 5.806 5.18 3.099 2.7 5.442 4.087 8.896 8.2 1.165 2.174 1.596 4.51 1.596 6.711 0 5.013-.965 6.626-2.122 9.384-1.147 2.758-3.22 6.546-3.22 6.546l45.121 25.332 3.044-.844 9.805-2.516c11.267-2.794 18.956-4.79 22.876-6.656l2.26-1.093 1.292-2.14c.643-1.093 15.62-26.477 22.57-61.33 2.466-2.254 9.614-8.746 9.614-8.746l.304-3.196c.243-2.745.365-5.452.365-8.132 0-6.779-.745-13.4-1.927-19.568 17.89-8.46 25.48-21.57 30.382-33.655 12.998-32.07 2.627-84.863-46.732-114.01" fill="#B3995D"/><path d="M435.31 181.997c-28.532-68.982-106.912-55.208-106.912-55.208l.619-.058c4.013-.323 27.24-1.664 50.511 7.942 20.434 8.435 43.259 29.444 48.78 57.203 1.312 6.595 1.823 12.703 1.823 18.23l-.006 1.396c-.258 17.004-5.371 28.432-7.104 32.014-2.324 4.824-8.055 11.91-11.927 14.733-3.25 2.386-6.25 3.385-8.538 3.385-.443 0-.848-.045-1.226-.12h-.025a4.47 4.47 0 0 1-1.086-.323c-2.162-.986-2.903-3.576-7.848-10.515-3.273-4.619-7.433-9.073-7.433-9.073.41-.355.781-.746 1.163-1.12l.545-.587c.452-.483.872-1.032 1.3-1.6 1.198-1.633 2.217-3.535 3.027-5.686l.086-.246c.264-.69.481-1.4.698-2.118 4.01-14.295-.42-36.424-18.413-50.821-19.125-15.313-39.799-16.58-56.546-9.866-28.188 11.3-45.24 45.223-25.112 72.965 9.758 13.457 25.623 14.322 35.479 6.775 9.228-7.082 15.424-28.74-7.29-40.343 18.248-1.544 40.391 20.22 29.493 48.316a41.04 41.04 0 0 1-2.788 5.763c-15.802 26.637-58.932 23.683-79.664-1.089-20.196-24.13-23.629-56.479-13.93-83.407a85.41 85.41 0 0 1 2.337-5.804c-83.314 18.006-137.218 68.394-137.218 68.394 116.488 24.174 158.72 94.42 158.72 94.42 4.316-3.71 6.66-8.69 7.975-12.79-8.08-13.23-4.541-25.63-4.541-25.63 1.767 8.911 5.022 15.443 8.27 20.125 1.395 1.945 7.813 8.242 9.065 9.342l.589.363.025.18c5.84 5.162 12.77 10.985 14.002 13.203 6.27 11.272-.277 24.068-.277 24.068l35.257 19.316c7.86-2.218 26.262-6.244 31.338-8.677 0 0 15.63-26.131 22.117-61.391l9.24-8.4c3.42-9.686-2.625-30.858-2.625-30.858a28.941 28.941 0 0 0 2.285-.68c1.835-.61 3.67-1.428 5.507-2.44 19.967-11.064 38.326-45.663 20.259-89.283" fill="#024"/><path d="M430.13 210.106c0-5.527-.51-11.635-1.823-18.228-5.52-27.761-28.345-48.77-48.78-57.203-23.272-9.607-46.497-8.264-50.511-7.943-.947.119-1.907.236-2.847.365-31.711 4.489-50.987 27.14-50.987 27.14 28.698-22.435 71.787-25.083 100.297-13.396 28.483 11.694 49.194 35.403 54.642 70.664l.008-.318v-1.08zm-92.582 138.452c.3-1.422 4.395-1.708 4.395-1.708 2.905 10.282-1.601 16.882-1.874 17.864-.218-4.675.61-13.325-2.521-16.156zm-70.632-86.609c-20.196-24.127-23.629-56.479-13.93-83.405-5.795 8.919-19.093 35.382-2.636 71.829 19.963 44.194 74.598 45.942 92.976 18.28a54.777 54.777 0 0 0 3.255-5.612c-15.803 26.636-58.933 23.68-79.665-1.092zm104.838 40.227a6.594 6.594 0 0 1 6.593-6.601l.348.02c-.779-3.654-2.405-7.645-5.474-11.567 0 0 .245 3.909-.595 7.256-3.365 1.784-5.664 5.294-5.664 9.381 0 5.841 4.756 10.583 10.605 10.583 0 0 .388-.906.805-2.473h-.026c-3.649.003-6.592-2.955-6.592-6.599z" fill="#FFF"/><path d="M379.09 305.06l-.216.506c-1.334.545-3.597.06-4.473-2.052 2.463 1.448 4.355-.098 4.861-.565l.15-.138s.103 1.033-.322 2.248" fill="#13264B"/><path d="M379.414 302.813l-.152.136c-.504.468-2.396 2.017-4.86.568.876 2.112 3.14 2.595 4.473 2.05l.217-.506c.423-1.217.322-2.248.322-2.248zm20.4-1.751c.82-33.492-27.145-55.774-27.145-55.774s20.5 25.556 18.116 55.606l-5.578 5.199c.09 8.158-.294 23.642-8.193 40.995-8.183-14.798-26.235-24.597-33.674-26.36-5.06 2.848-16.29 9.026-22.838 16.289 1.146 1.573 2.75 5.83 2.996 7.216 1.487 8.232.368 14.205-.913 18.52.019.016 12.502 6.985 12.325 6.64 3.418-11.827-1.129-17.16-4.597-23.233 3.373-2.05 11.216-6.443 14.873-7.968 3.7 5.094 5.601 13.525 1.626 25.524-1.197 3.593-2.926 7.252-3.967 9.781.015.131 4.875 2.725 4.846 2.57 6.316-1.27 12.09-5.59 14.324-11.649.667-1.801.371-3.191.153-4.607-.622.793-1.471 2.05-2.495 2.748-1.62-3.752-1.641-6.74.41-8.992 1.057-1.163 2.244-1.59 3.663-1.636 2.097-.072 3.784 1.284 4.45 2.885 3.137 7.707-4.136 15.81-4.136 15.81s6.959-.319 8.964-1.3c4.1-8.28 16.783-35.265 20.382-62.506l6.409-5.758z" fill="#FFF"/></g></svg>