<svg width="512" height="512" viewBox="0 0 512 512" xmlns="http://www.w3.org/2000/svg"><title>los-angeles-rams</title><g fill="none"><path d="M260.01 150.371c-1.335 1.737-2.606 3.592-3.84 5.485-97.958 15.26-175.155 78.62-178.397 81.312l-27.947 23.181 36.202 2.908c63.814 5.128 108.977 27.442 135.628 45.246 29.198 19.512 43.25 38.04 43.384 38.22-.02-.02 5.423 7.377 5.423 7.377l4.005 5.448 12.109-10.391c2.05-1.757 3.914-3.776 5.595-6 .418.372 3.152 2.65 3.152 2.65 1.803 1.462 3.287 2.694 5.156 4.808a8.493 8.493 0 0 1 .726 3.477c0 3.264-.398 4.202-1.267 6.226l-.422.974c-1.037 2.486-3 6.074-3.02 6.107l-2.973 5.435 53.898 30.255 5.563-1.544c.118-.029 9.985-2.552 9.985-2.552 12.244-3.047 20.036-5.062 24.602-7.245.004-.004 4.009-1.929 4.009-1.929l2.291-3.809c.66-1.11 15.941-26.892 23.488-62.77 2.152-1.95 10.132-9.212 10.132-9.212l.234-2.413.307-3.284c.275-2.953.414-5.947.414-8.913 0-5.357-.459-10.919-1.311-16.583 17.683-9.826 25.327-24.03 30.013-35.575 3.816-9.417 5.726-19.992 5.726-30.964 0-10.833-1.857-22.055-5.587-32.925-6.017-17.575-19.692-42.358-50.651-60.63-19.274-11.369-46.45-16.19-72.705-12.9-30.492 3.825-56.75 18.213-73.921 40.53z" fill="#FFF"/><path d="M298.218 328.799c.21.176.418.356.627.553l-.028-.185s-.218-.119-.599-.368m91.267-88.79c-.286.299-.586.602-.893.905l.541-.516c.119-.123.242-.262.352-.39" fill="#024"/><path d="M403.452 128.139c-34.53-20.372-102.62-20.536-138.473 26.049a79.77 79.77 0 0 0-4.997 7.319 85.81 85.81 0 0 1-3.398.639c-95.605 14.88-171.613 77.196-174.806 79.837L65.68 255.34l20.856 1.67c126.384 10.17 182.967 85.22 183.529 85.982l5.447 7.405 6.973-5.984c3.812-3.276 6.435-7.135 8.28-10.886a510.655 510.655 0 0 0 5.952 5.295c3.164 2.77 5.574 4.19 9.12 8.4 1.193 2.225 1.635 4.617 1.635 6.87 0 5.135-.992 6.794-2.172 9.616-1.18 2.826-3.304 6.705-3.304 6.705l46.237 25.95 3.132-.864 10.046-2.576c11.547-2.871 19.434-4.903 23.45-6.832l2.308-1.106 1.328-2.2c.664-1.117 16.007-27.121 23.14-62.811 2.52-2.302 9.85-8.953 9.85-8.953l.315-3.277c.25-2.801.373-5.574.373-8.326 0-6.943-.767-13.721-1.976-20.049 18.335-8.654 26.11-22.084 31.14-34.461 13.322-32.848 2.702-86.924-47.888-116.769" fill="#B3995D"/><path d="M439.382 180.7c-29.259-70.652-109.587-56.55-109.587-56.55s.217-.017.627-.053c4.111-.324 27.922-1.704 51.779 8.134 20.942 8.637 44.326 30.152 49.991 58.585 1.349 6.758 1.873 13.004 1.873 18.68l-.008 1.413c-.266 17.423-5.517 29.129-7.28 32.799-2.381 4.94-8.259 12.197-12.223 15.08-3.336 2.45-6.407 3.473-8.755 3.473a6.81 6.81 0 0 1-1.263-.114h-.012a4.842 4.842 0 0 1-1.123-.336c-2.214-1.016-2.972-3.662-8.034-10.776-3.366-4.726-7.62-9.277-7.62-9.277.418-.377.795-.77 1.18-1.163l.004-.008c.189-.189.373-.381.566-.582.463-.495.894-1.065 1.32-1.638 1.238-1.683 2.287-3.633 3.111-5.828.029-.086.066-.164.086-.254.262-.705.504-1.43.705-2.175 4.116-14.638-.41-37.296-18.855-52.04-19.61-15.69-40.794-16.985-57.964-10.112-28.89 11.582-46.373 46.33-25.738 74.734 9.993 13.774 26.262 14.663 36.358 6.938 9.473-7.257 15.818-29.44-7.464-41.317 18.7-1.577 41.4 20.708 30.226 49.488a41.475 41.475 0 0 1-2.857 5.89c-16.2 27.285-60.407 24.263-81.648-1.102-20.704-24.73-24.225-57.844-14.281-85.424a90.085 90.085 0 0 1 2.39-5.951c-85.391 18.443-140.638 70.057-140.638 70.057 119.396 24.754 162.682 96.695 162.682 96.695 4.423-3.8 6.82-8.904 8.173-13.102-8.28-13.544-4.652-26.241-4.652-26.241 1.808 9.121 5.148 15.818 8.477 20.61 1.426 1.994 8.005 8.437 9.288 9.567.381.246.603.365.603.365l.028.184c5.985 5.296 13.084 11.263 14.351 13.528 6.427 11.538-.279 24.652-.279 24.652l36.141 19.778c8.055-2.28 26.91-6.393 32.12-8.887 0 0 16.01-26.766 22.663-62.878l9.473-8.605c.115-1.265.197-2.523.254-3.776.013-.434.02-.872.033-1.298.033-.811.041-1.63.041-2.445 0-.529-.008-1.057-.012-1.577-.016-.697-.041-1.385-.07-2.073-.028-.59-.049-1.183-.086-1.76-.024-.525-.074-1.037-.11-1.549-.222-2.724-.533-5.41-.943-8.015a1.592 1.592 0 0 1-.045-.307c-.164-1-.336-1.983-.52-2.958-.382-1.994-.776-3.952-1.239-5.848a25.1 25.1 0 0 0 2.345-.68c1.881-.623 3.77-1.466 5.652-2.503 20.454-11.345 39.273-46.773 20.766-91.449" fill="#024"/><path d="M434.066 209.495c0-5.677-.525-11.923-1.873-18.68-5.665-28.429-29.05-49.948-49.992-58.581-23.856-9.842-47.667-8.462-51.779-8.139-.967.12-1.955.242-2.918.373-32.505 4.6-52.258 27.806-52.258 27.806 29.414-22.99 73.577-25.705 102.799-13.729 29.201 11.98 50.422 36.263 56.013 72.375 0-.114.008-.217.008-.323a25.296 25.296 0 0 1 0-1.102m-94.897 141.79c.303-1.458 4.504-1.753 4.504-1.753 2.972 10.53-1.652 17.297-1.922 18.292-.221-4.772.631-13.635-2.582-16.539m-72.394-88.698c-20.704-24.725-24.221-57.843-14.277-85.424-5.943 9.138-19.577 36.235-2.705 73.56 20.462 45.269 76.463 47.055 95.294 18.729a54.316 54.316 0 0 0 3.336-5.759c-16.195 27.286-60.403 24.26-81.648-1.106m107.447 41.19c0-3.727 3.025-6.754 6.767-6.754.123 0 .238.02.353.033-.795-3.76-2.464-7.848-5.616-11.853 0 0 .263 3.997-.606 7.421-3.44 1.827-5.796 5.435-5.796 9.604 0 5.997 4.861 10.846 10.862 10.846 0 0 .406-.93.828-2.531-.012 0-.025.008-.025.008a6.766 6.766 0 0 1-6.767-6.774" fill="#FFF"/><path d="M381.744 306.744c-.07.172-.127.344-.213.512-1.374.566-3.69.058-4.587-2.097 2.517 1.475 4.464-.102 4.988-.585.086-.09.144-.144.144-.144s.11 1.065-.332 2.314" fill="#024"/><path d="M382.076 304.429l-.143.143c-.525.483-2.472 2.06-4.989.59.898 2.15 3.214 2.658 4.587 2.093.086-.168.143-.34.213-.512.443-1.245.332-2.314.332-2.314" fill="#FFF"/><path d="M402.983 302.64c.849-34.301-27.82-57.122-27.82-57.122s21.016 26.171 18.569 56.955l-5.718 5.32c.09 8.343-.291 24.214-8.395 41.981-8.39-15.15-26.894-25.193-34.514-26.995-5.193 2.929-16.695 9.248-23.413 16.678 1.176 1.622 2.824 5.976 3.07 7.397 1.533 8.433.385 14.552-.93 18.975.016.008 12.817 7.151 12.632 6.8 3.5-12.112-1.151-17.576-4.713-23.793 3.467-2.113 11.501-6.606 15.248-8.175 3.791 5.226 5.747 13.856 1.664 26.151-1.221 3.67-3 7.43-4.062 10.01.016.14 4.997 2.802 4.96 2.638 6.476-1.307 12.395-5.738 14.686-11.931.685-1.843.39-3.273.16-4.718-.643.819-1.508 2.097-2.557 2.817-1.665-3.854-1.69-6.905.414-9.207 1.09-1.187 2.3-1.634 3.754-1.679 2.156-.074 3.89 1.31 4.558 2.957 3.218 7.889-4.238 16.186-4.238 16.186s7.14-.323 9.194-1.33c4.197-8.479 17.195-36.117 20.893-64.02l6.558-5.894z" fill="#FFF"/></g></svg>