<svg width="512" height="512" viewBox="0 0 512 512" xmlns="http://www.w3.org/2000/svg"><title>san-diego-chargers</title><g fill="none"><path d="M253.633 130c-4.048 0-8.24.09-12.47.267l-8.45.352 5.303 6.595 5.952 7.407a202.643 202.643 0 0 0-5.734-.075c-16.732 0-50.186 2.034-86.162 15.662-16.247 6.157-31.097 13.985-44.132 23.277-14.69 10.471-27.224 22.897-37.241 36.936l-4.62 6.467 7.932.283a145.218 145.218 0 0 0 8.156.09c-7.686 9.869-18.477 26.15-27.251 46.324-6.3 14.498-10.668 28.959-12.972 42.987-2.773 16.826-2.576 33.086.582 48.326l2.357 11.385 5.563-10.205c21.058-38.608 45.236-67.935 73.927-89.636 24.67-18.663 48.357-28.542 69.26-37.257 1.467-.614 2.923-1.222 4.358-1.826l4.315-1.805-2.198-4.138c-1.525-2.878-4.427-6.664-7.105-9.895a324.69 324.69 0 0 1 13.64-.288c62.49 0 123.883 18.23 182.47 54.184l9.323 5.73-2.992-10.536a290.495 290.495 0 0 0-3.371-11.129c31.874 30.347 58.453 73.606 71.825 106.174l6.87 16.709 1.333-18.012c1.83-24.531.219-49.175-4.65-71.277-5.83-26.545-16.226-49.56-30.878-68.405-8.22-11.972-17.49-22.748-28.334-32.942-16.572-15.587-36.147-29.006-58.16-39.883l-.149-.075-.155-.059c-1.52-.614-3.44-1.495-5.648-2.515-6.96-3.21-17.49-8.063-32.28-12.058-17.554-4.736-37.14-7.139-58.214-7.139" fill="#FFF"/><path d="M241.34 134.534c4.241-.176 8.343-.262 12.295-.262 55.776 0 83.01 16.768 94.558 21.408 49.7 24.553 74.327 56.043 84.93 71.507 26.414 33.909 35.433 77.792 35.455 117.275 0 6.67-.262 13.217-.731 19.566-15.99-38.928-48.922-89.604-86.237-119.358.624 1.282 1.21 2.569 1.787 3.882.688 1.57 1.344 3.172 1.984 4.827 2.075 5.383 3.941 11.294 5.958 18.402-54.357-33.359-116.534-54.82-184.695-54.82-7.467 0-14.993.256-22.6.785 0 0 1.18 1.282 2.838 3.183.246.272.496.566.752.865 2.966 3.444 6.961 8.335 8.705 11.63-42.036 17.617-99.79 39.206-149.64 130.604-1.696-8.197-2.443-16.378-2.438-24.44.064-49.764 29.128-94.982 43.39-112.358.273-.331.54-.652.8-.961a91.291 91.291 0 0 1 2.823-3.21 125.02 125.02 0 0 0-5.2-.106c-1.121 0-2.134.016-3.164.026a193.7 193.7 0 0 1-3.2.032c-1.52 0-3.275-.026-5.542-.107 41.22-57.745 115.856-74.09 164.068-74.09 3.217 0 6.316.074 9.276.207l1.504.08c1.456.08 2.88.177 4.262.289l-11.937-14.856z" fill="#024"/><path d="M261.402 142.046l-4.89.101s6.859 9.82 9.92 14.215c-23.357-1.917-113.141-4.827-173.387 55.263l-4.272 4.277s15.495.497 17.282.545c-1.489 1.837-2.987 3.69-2.987 3.69C84.965 242.1 60.184 272.185 51.66 330.315l-1.637 11.252 6.395-9.404c32.547-47.878 74.738-81.567 125.436-100.091l3.232-1.191-2.01-2.793c-5.297-7.364-10.45-12.084-15.17-16.127 88.76-8.992 152.968 15.102 204.099 40.167l6.219 3.065-2.662-6.402c-4.944-11.956-9.451-20.014-14.145-27.522 38.371 22.796 65.334 56.288 93.064 99.21l5.708 8.806-.902-10.461c-10.054-116.18-123.376-178.273-197.885-176.778" fill="#0073CF"/><path d="M273.955 158.032s-4.395-6.323-7.408-10.637c36.035.7 78.78 16.43 112.928 41.918 29.17 21.766 64.646 59.78 73.308 119.166-28.302-42.527-56.672-75.539-98.25-97.261l-8.928-4.673 5.59 8.48c5.861 8.912 11.073 17.077 16.684 29.38-49.397-23.58-116.678-47.664-206.702-37.09l-5.968.704 7.142 6.05c4.427 3.749 9.382 8.047 14.406 14.44-46.948 17.91-86.578 48.769-118.059 91.696 9.633-49.65 31.86-76.67 48.41-96.743l9.681-11.935-5.345-.128-10.096-.331c67.67-62.392 169.044-49.106 170.074-48.962l6.022.924-3.489-4.998z" fill="#FFB612"/></g></svg>