<svg width="512" height="512" viewBox="0 0 512 512" xmlns="http://www.w3.org/2000/svg"><title>miami-dolphins</title><g fill="none"><path d="M487.396 159.933c-2.113-7.369-9.632-11.915-19.87-11.915-1.088 0-2.195.056-3.29.165-7.844.778-21.793 5.5-25.934 6.947-13.003-3.284-25.19-4.882-37.222-4.883-6.218 0-12.402.44-18.571 1.301l-2.536.339s-.99-3.219 1.6-10.735c1.343-3.898 3.183-7.483 3.183-7.483s-28.314 14.711-31.85 10.016c-3.537-4.696 12.297-42.03 12.297-42.03s-27.296 30.318-32.659 28.973c-2.102-.527-2.302-11.507-2.407-23.324-.141-16 .416-34.304.416-34.304s-22.477 55.859-27.961 55.568c-4.756-.252-11.675-30.068-11.675-30.068s-4.34 25.693-12.141 28.836c-7.802 3.142-27.869-44.908-27.869-44.908s-.927 48.093-6.509 49.172c-5.582 1.08-23.35-16.895-23.35-16.895s8.329 23.956 5.508 27.112c-1.683 1.882-18.775-8.681-36.557-21.43-10.273-7.366-18.863-13.54-18.863-13.54s10.022 16.64 17.99 34.032c5.486 11.973 8.815 23.464 7.38 25.702-3.519 5.486-29.911-2.333-29.911-2.333s15.001 14.446 14.033 18.167c-.469 1.805-15.387.501-30.549-1.57-16.081-2.199-32.445-5.23-32.445-5.23s53.558 31.126 51.876 36.728c-1.33 4.432-34.661.802-34.661.802s28.98 13.235 28.862 17.609c-.117 4.374-56.726 18.691-56.726 18.691s51.27 10.72 52.25 16.436c.98 5.716-20.22 24.054-20.22 24.054s24.681 2.23 25.907 5.46c1.226 3.23-5.998 15.992-12.268 18.015-7.748 2.5-14.803 4.091-23.393 4.091a67.2 67.2 0 0 1-3.626-.099c.425-.549.845-1.116 1.211-1.656 2.113-3.093 3.686-6.399 4.544-9.552.457-1.798.684-3.523.692-5.194-.062-2.043-.679-3.66-1.8-4.762-2.099-1.83-4.057-1.612-5.46-.988l-4.87 2.387c-.363.16-.772.314-1.267.463-.932.28-2.898.612-6.97.612-3.862 0-8.458-.287-12.903-.565 0 0-2.73-.152-3.256-.152-5.303 0-8.841 1.687-10.974 3.231l-1.16-.61c-10.844-5.758-23.464-8.087-31.345-9.54-.613-.114-1.197-.217-1.748-.326-8.705-1.706-13.469-6.87-13.856-7.288-.738-.798-1.698-1.831-2.951-2.554 0 0-2.266-1.413-5.623-.38-2.19.77-3.116 2.477-3.116 2.477-1.877 3.118-.085 7.694 2.276 12.857 2.687 5.864 11.11 20.51 31.27 29.86 6.601 3.064 15.285 5.245 25.81 6.481 7.922.93 14.612 1.048 17.277 1.052 2.567 1.25 10.467 4.9 22.212 8.57 12.895 4.028 33.046 8.817 56.133 8.926 0 0 8.194.104 12.618-.178.445 1.843-2.756 8.435-6.601 16.161-4.556 9.156-10.404 19.986-10.404 19.986s10.563-9.331 20.407-16.25c9.91-6.962 21.009-12.557 23.633-9.333 4.959 6.092-.332 31.231-.332 31.231s20.017-17.706 24.659-15.308c2.125 1.098 2.338 14.329 2.347 28.266.01 16.515-.416 34.054-.416 34.054s27.573-55.768 33.309-54.175c5.736 1.593 12.015 27.02 12.015 27.02S301.47 381.248 307.872 382c2.56-.314 8.058 9.733 12.945 20.004 5.355 11.257 9.944 22.26 9.944 22.26s.112-11.503.914-23.257c.725-10.619 2.075-20.985 4.41-21.56 4.92-1.21 19.189 17.906 19.189 17.906s-5.046-26.645-1.093-28.903c3.953-2.257 51.448 38.787 51.448 38.787s-31.168-57.727-27.377-62.135c3.79-4.408 37.08 4.585 37.08 4.585s-4.96-5.855-9.204-12.47c-4.437-6.916-8.132-14.645-6.396-16.503 1.577-1.689 18.932.069 36.864 3.545 20.673 4.009 34.123 6.867 34.123 6.867s-12.177-6.588-30.134-17.387c-15.55-9.351-29.227-19.877-28.643-21.584 1.257-3.68 38.392-7.211 38.392-7.211s-6.232-3.665-12.929-7.758c-7.27-4.443-15.033-9.976-15.033-12.002 0-1.77 9.312-6.158 21.594-9.933 14.722-4.526 28.34-7.56 28.34-7.56s-50.623-4.063-53.785-11.277c-2.158-4.928 1.807-11.353 4.714-15.504 2.906-4.15 7.067-7.917 7.067-7.917 13.831-12.766 31.434-24.52 37.058-27.976.398-.244.777-.485 1.164-.727 0 0 12.986-9.583 14.32-10.703 1.164-.976 4.135-4.09 4.802-8.053 0 0 .233-1.093.156-2.84-.075-1.732-.406-2.76-.406-2.76z" fill="#FFF"/><path d="M424.894 165.657c-3.5.846-12.119 1.11-15.796 1.11-3.676.001-8.871-.545-16.855 2.94-5.724 2.498-9.575 7.504-11.298 10.14.545-.769 1.06-1.384 1.49-1.709 0 0 5.817-6.707 17.701-5.834-.394.606-.73 1.455-.35 2.289l.02.037c.052.11.116.222.197.332.02.028.035.057.057.084 0 0 4.257-1.369 7.274-2.277 6.535-1.624 10.588-2.726 14.997-4.532 6.026-2.469 7.95-3.562 7.752-4.029-.198-.468-1.687.605-5.189 1.45" fill="#005778"/><path d="M382.435 178.139c-.43.324-.944.94-1.49 1.708-2.142 3.017-4.778 8.449-4.778 8.449 3.963-5.868 16.45-10.82 23.835-13.334a2.053 2.053 0 0 1-.197-.332c-.006-.013-.014-.025-.019-.037-.38-.833-.044-1.683.35-2.289-11.885-.873-17.701 5.835-17.701 5.835" fill="#FFF"/><path d="M394.355 316.67c-2.526 5.123 4.041 20.958 10.044 25.67-4.394-1.317-27.348-7.842-31.03.644-4.049 9.336 18.386 43.583 20.933 49.982-10.344-10.26-38.676-33.257-42.691-30.626-4.015 2.63-3.025 15.45-1.981 21.968-3.889-4.738-10.57-12.333-16.34-10.06-5.77 2.272-5.059 24.28-5.43 33.656-4.76-11.03-12.532-33.238-19.724-32.427-7.194.81-15.263 15.921-16.799 21.695-1.096-5.78-5.803-18.492-12.922-18.492-7.12 0-23.673 33.643-28.678 44.573-.02-8.458 2.007-49.73-2.48-51.776-4.487-2.047-19.63 7.362-22.88 11.642 1.203-5.423 2.226-23.75-1.809-25.962-4.041-2.22-15.555-2.917-36.375 16.327 3.457-7.383 9.147-15.416 10.53-23.204 8.621-.445 17.157-1.423 25.766-3.103 18.786 13.588 41.88 21.609 66.84 21.609 63.046 0 114.152-51.086 114.152-114.106 0-4.937-.318-9.8-.923-14.565 4.228-3.98 8.283-7.835 12.058-11.43-.864 2.067-1.342 4.559-1.263 7.629.246 9.622 25.181 11.675 38.43 12.745-14.797 2.006-40.657 12.711-35.744 18.46 4.913 5.74 19.238 13.634 21.272 14.631-6.827 0-29.269 2.32-31.775 8.678-2.513 6.36 32.473 27.676 45.283 32.686-15.934-4.485-53.938-11.967-56.464-6.844m-19.318-163.995c-7.465 1.462-15.17 3.608-23.127 6.572-17.975-11.795-39.474-18.666-62.58-18.666-63.04 0-114.146 51.086-114.146 114.1 0 15.17 2.965 29.642 8.343 42.879-6.494 4.81-12.717 8.624-19.092 11.569 4.66-5.55 8.708-16.214 3.443-19.058-3.595-1.947-20.32-2.718-20.32-2.718s18.832-12.652 18.393-21.801c-.438-9.144-30.473-13.829-42.345-16.46 10.476-2.206 44.405-9.867 45.862-16.692 1.462-6.818-10.603-11.662-15.675-14.04 5.684.072 20.088 2.484 22.03-4.546 2.22-8.06-33.252-29.051-41.335-31.962 1.808.426 35.591 8.307 47.943 5.635 9.193-1.993-1.523-14.36-3.29-15.821 2.711 1.322 18.2 4.512 22.633-2.837 4.434-7.35-10.61-36.62-19.03-49.026 7.478 7.455 41.632 31.742 46.725 27.61 5.098-4.134 1.202-17.483-1.53-21.889 5.505 5.15 10.922 12.034 17.916 11.888 3.503-.073 7.91-11.649 8.635-37.81 4.74 14.66 16.054 34.58 24.364 33.371 8.315-1.203 11.154-13.542 12.304-18.798.957 5.641 5.324 20.14 10.869 20.672 6.806 1.063 19.83-29.218 24.57-42.9.717 6.758-4.242 41.465 3.097 44.348 7.332 2.89 19.458-11.721 26.337-19.908-4.174 7.921-12.331 27.078-7.471 31.663 4.86 4.585 21.658-.22 28.206-5.615-1.835 4.014-2.227 7.223-1.729 10.24" fill="#F6821F"/><path d="M422.334 168.237c-4.414 1.808-8.462 2.91-15.003 4.532-3.012.91-7.273 2.28-7.273 2.28-.02-.027-.033-.06-.053-.087-7.379 2.512-19.856 7.462-23.831 13.323.16-.326 2.692-5.515 4.772-8.439 1.722-2.638 5.571-7.642 11.295-10.14 7.983-3.482 13.182-2.937 16.858-2.937s12.291-.266 15.795-1.11c3.503-.844 4.992-1.92 5.191-1.448.2.465-1.728 1.555-7.75 4.026m42.298-16.087c-8.702.864-26.145 7.143-26.145 7.143-31.855-8.266-69.653-9.196-116.027 19.011a281.698 281.698 0 0 0-23.884 16.274c-7.313 5.555-14.033 11.21-20.302 16.884-2.712 2.446-6.189 5.582-9.167 8.592-15.05 5.017-21.731.326-42.412 3.043-16.366 2.153-22.721 7.735-26.324 12.12-.465 1.263-.419 2.373.432 3.05 1.955 1.569 4.973.785 10.703.36 5.723-.42 14.398-.28 20.122 3.295 3.69 2.293 5.364 7.834 5.976 10.898-4.288 4.545-8.496 8.95-12.743 13.143-26.125 25.835-43.708 41.238-63.385 48.933-42.69 16.705-66.741-2.918-76.374-8.705l-.006.014c-11.687-7.496-27.189-9.974-35.505-11.536-8.316-1.561-12.863-5.582-14.638-7.09-1.775-1.508-3.138-4.047-5.158-3.475-.519.146-.971.305-1.297.611.326-.299.778-.458 1.297-.605.312 3.609 12.424 33.709 50.893 39.178 10.995 1.561 14.492 1.07 16.546.917-6.468-5.68-11.8-13.608-12.251-14.073a125.667 125.667 0 0 0 4.407 3.654c11.48 12.253 24.53 17.31 35.491 19.137.718.226 11.534.692 11.534.692 12.617-.266 29.555-3.975 45.276-8.532 46.154-13.39 90.68-53.372 90.68-53.372s-2.473 10.777-3.437 14.592c-.631 3.017-2.898 13.117-7.16 23.69 0 .006-1.276 3.189-3.13 7.09-2.74 5.767-6.588 13.029-6.588 16.066 0 .146.007.28.026.4 0 0 .034.331.167.757 3.47-1.842 8.19-5.03 13.554-9.556 8.403-7.003 19.052-17.662 31.377-32.859 27.693-34.147 32.094-57.524 51.565-75.71 8.243-7.709 29.914-19.617 41.009-23.484.126-.066.212-.106.245-.12.007 0 .007-.006.014 0l.006-.006c18.747-10.698 37.1-18.971 40.079-20.174 10.968-4.412 49.544-17.217 53.606-10.85h.006c-1.702-7.337-10.496-10.254-19.078-9.397" fill="#008E97"/><path d="M268.935 286.303c-.631 3.017-2.898 13.117-7.16 23.689-15.083 8-39.193 18.253-61.004 23.364-42.95 10.066-70.457 1.335-75.17-.207l-.672-.212c1.05.226 11.487.677 11.487.677 2.253.047 31.575 1.196 63.77-10.877 26.318-9.609 52.197-25.297 68.75-36.434" fill="#FFF"/><path d="M272.372 271.71s-2.473 10.779-3.437 14.593c-16.552 11.137-42.431 26.825-68.749 36.434-32.194 12.073-61.517 10.924-63.77 10.877 12.617-.265 29.556-3.973 45.276-8.532 46.155-13.389 90.68-53.371 90.68-53.371" fill="#005778"/><path d="M381.864 252.86c-3.277 10.1-8.31 23.908-14.472 35.59-7.325 13.88-16.978 23.469-22.063 27.15-.845-.512-1.163-1.588-1.19-2.698-.04-1.98 4.308-12.186 6.016-33.67a388.236 388.236 0 0 0 14.784-11.674c5.544-4.611 11.255-9.602 16.925-14.699" fill="#008E97"/><path d="M128.093 300.981a17.264 17.264 0 0 1-.552 4.167c-.658 2.418-1.934 5.343-3.995 8.36-1.25 1.84-3.31 4.165-3.337 4.192-.339.02-1.928.086-3.264-.047a42.51 42.51 0 0 1-3.363-.485v-.006c-.366-.498 17.33-12.485 12.537-18.32.266-.04 1.894-.406 1.974 2.14m353.345-131.768c-.007 0-.007.007-.007.007s-.711 1.05-3.091 3.13c-2.373 2.08-6.415 5.176-13.07 9.269-6.367 3.914-24.116 15.914-37.744 28.506-.505.466-36.94 34.84-37.851 35.684-.1.318-4.826 17.914-16.114 40.799-7.91 16.034-19.717 26.054-23.905 28.347-.265.14-2.698 1.68-4.327.644 5.085-3.681 14.738-13.27 22.063-27.15 6.162-11.682 11.195-25.49 14.472-35.59-5.67 5.096-11.38 10.087-16.925 14.698a388.236 388.236 0 0 1-14.784 11.675c0 .02-11.806 8.678-18.48 13.117 0 0-.007 0-.007.006-3.736 2.479-20.853 13.144-31.237 18.805-8.814 4.811-27.275 13.557-27.328 13.583h-.007c-9.612 8.113-17.144 11.9-19.158 11.395-1.236-.305-1.662-1.76-1.689-1.834 3.47-1.84 8.19-5.03 13.555-9.555 8.403-7.004 19.052-17.662 31.377-32.859 27.693-34.148 32.094-57.524 51.565-75.711 8.243-7.708 29.914-19.616 41.009-23.483.126-.066.212-.106.246-.12-12.697 7.244-25.567 15.596-33.963 23.603-16.266 15.197-21.83 32.945-37.944 57.192l-.406.631c54.291-41.158 96.244-88.821 139.62-104.051 1.382-.485 2.691-.937 3.948-1.363.053-.02.106-.033.153-.053 14.764-4.99 20.733-5.767 21.166-2.99.192 1.21-.778 3.01-1.137 3.668" fill="#005778"/><path d="M113.581 317.162v.007c-10.948-2.107-23.765-9.556-27.74-11.815 1.363-1.329 4.72-3.721 11.082-3.329 8.735.538 18.387 1.25 22.907-.106 3.882-1.163 4.62-2.858 6.282-3.077h.007c4.793 5.834-12.903 17.822-12.538 18.32" fill="#008E97"/><path d="M226.697 223.095c20.678-2.716 27.362 1.973 42.413-3.044 2.974-3.008 6.45-6.14 9.161-8.588-4.259 1.367-7.55 2.18-10.653 2.73-7.049 1.392-12.162 1.028-26.78 2.947-22.97 3.021-33.712 10.217-36.723 12.998-.909.839-1.605 1.566-2.56 2.895a11.187 11.187 0 0 0-1.19 2.191c3.606-4.388 9.958-9.976 26.332-12.13m31.947 93.988c-2.738 5.768-6.587 13.03-6.587 16.067 0 .146.007.28.026.4-35.02 13.674-63.577 13.03-63.683 13.036-48.155 2.28-86.046-17.316-86.046-17.316s0-.007-.007-.007c-.1 0-.365.007-.771.007-4.52 0-26.883-.346-41.567-7.163-16.061-7.45-25.301-19.124-29.322-27.903-2.992-6.538-3.139-8.624-2.187-9.488.079-.073.172-.14.265-.2 0 0 .007 0 .007-.006.285-.173.638-.292 1.023-.399.313 3.609 12.425 33.709 50.894 39.178 10.995 1.561 14.492 1.07 16.547.917-6.47-5.68-11.8-13.608-12.253-14.073a125.667 125.667 0 0 0 4.408 3.654c11.48 12.253 24.53 17.31 35.491 19.137.013.007.027.007.047.013h.006l.047.014.618.2c4.713 1.541 32.22 10.272 75.17.205 21.811-5.11 45.923-15.363 61.005-23.363 0 .007-1.276 3.19-3.13 7.09" fill="#005778"/><path d="M483.705 161.546c-4.062-6.366-42.638 6.439-53.606 10.85-2.978 1.204-21.332 9.476-40.098 20.181-12.698 7.244-25.567 15.596-33.963 23.603-16.267 15.197-21.831 32.945-37.944 57.192l-.406.631c54.291-41.158 96.244-88.821 139.62-104.051 1.382-.485 2.692-.937 3.947-1.363.054-.02.107-.033.154-.053 14.764-4.99 20.733-5.767 21.166-2.99.192 1.21-.778 3.01-1.144 3.675 0 0-.711 1.05-3.09 3.13-2.375 2.08-6.416 5.176-13.07 9.269-6.369 3.914-24.117 15.914-37.745 28.506-.506.466-36.94 34.84-37.851 35.683-.1.32-4.826 17.915-16.114 40.8-7.91 16.034-19.717 26.054-23.904 28.347-.266.14-2.7 1.68-4.328.644-.845-.512-1.163-1.588-1.19-2.698-.04-1.98 4.308-12.186 6.016-33.67 0 .02-11.806 8.679-18.487 13.124-3.736 2.479-20.853 13.144-31.237 18.805-8.814 4.811-27.275 13.556-27.334 13.583-9.613 8.113-17.144 11.9-19.16 11.395-1.235-.305-1.661-1.76-1.688-1.834a4.3 4.3 0 0 1-.166-.756c-35.019 13.674-63.577 13.03-63.684 13.036-48.154 2.28-86.045-17.316-86.052-17.323-.1 0-.365.007-.77.007-4.521 0-26.884-.346-41.568-7.164-16.06-7.448-25.3-19.123-29.322-27.901-2.992-6.539-3.138-8.625-2.188-9.49.326-.305.778-.464 1.297-.61 2.02-.572 3.383 1.966 5.158 3.475 1.775 1.508 6.322 5.528 14.638 7.09 8.316 1.561 23.818 4.04 35.511 11.522 9.633 5.788 33.684 25.41 76.375 8.705 19.676-7.695 37.258-23.098 63.384-48.933 4.248-4.193 8.456-8.598 12.743-13.143-.611-3.064-2.287-8.606-5.976-10.898-5.723-3.575-14.399-3.714-20.122-3.296-5.73.425-8.748 1.21-10.703-.359-.7-.561-.823-1.447-.646-2.279.18-.851.565-1.65 1.024-2.384.12-.193.24-.387.374-.571.955-1.33 1.65-2.056 2.56-2.895 3.01-2.781 13.753-9.977 36.72-12.998 14.62-1.92 19.733-1.556 26.782-2.948 3.103-.548 6.395-1.362 10.657-2.73 6.268-5.675 12.99-11.33 20.302-16.885a281.697 281.697 0 0 1 23.884-16.273c46.374-28.207 84.172-27.277 116.026-19.01 0 0 17.444-6.28 26.146-7.144 8.582-.857 17.377 2.06 19.072 9.396m-31.923 87.513c-14.796 2.006-40.656 12.711-35.743 18.459 4.913 5.741 19.238 13.635 21.272 14.632-6.827 0-29.269 2.319-31.775 8.678-2.513 6.36 32.473 27.676 45.283 32.686-15.934-4.485-53.938-11.967-56.464-6.844-2.526 5.123 4.042 20.958 10.044 25.669-4.394-1.315-27.348-7.84-31.031.645-4.048 9.336 18.388 43.583 20.934 49.982-10.344-10.26-38.676-33.257-42.691-30.626-4.015 2.631-3.025 15.45-1.981 21.968-3.889-4.738-10.57-12.333-16.34-10.06-5.77 2.272-5.058 24.28-5.43 33.656-4.761-11.03-12.531-33.238-19.724-32.427-7.193.81-15.263 15.92-16.798 21.696-1.097-5.782-5.804-18.493-12.923-18.493-7.12 0-23.673 33.643-28.678 44.574-.02-8.46 2.008-49.73-2.48-51.777-4.487-2.046-19.63 7.362-22.88 11.641 1.203-5.422 2.227-23.748-1.809-25.961-4.041-2.22-15.555-2.917-36.375 16.326 3.456-7.382 9.147-15.416 10.53-23.203 8.622-.446 17.157-1.422 25.766-3.104 18.786 13.59 41.88 21.61 66.841 21.61 63.045 0 114.151-51.086 114.151-114.106 0-4.937-.318-9.801-.923-14.565a2899.83 2899.83 0 0 0 12.058-11.43c-.864 2.067-1.342 4.559-1.262 7.629.246 9.622 25.18 11.675 38.428 12.745m-354.86 52.966c8.736.538 18.388 1.249 22.908-.107 3.883-1.162 4.62-2.857 6.282-3.076h.007c.266-.04 1.895-.406 1.974 2.14a17.26 17.26 0 0 1-.551 4.166c-.659 2.419-1.935 5.342-3.996 8.359-1.25 1.84-3.31 4.166-3.337 4.193-.339.02-1.928.086-3.264-.047a42.829 42.829 0 0 1-3.363-.485c-10.949-2.106-23.765-9.555-27.74-11.814 1.362-1.33 4.72-3.721 11.08-3.33m70.956-11.953c-3.595-1.947-20.32-2.718-20.32-2.718S166.39 274.7 165.95 265.55c-.439-9.143-30.472-13.828-42.345-16.46 10.477-2.205 44.406-9.867 45.862-16.691 1.462-6.818-10.603-11.662-15.675-14.04 5.683.072 20.089 2.485 22.03-4.546 2.22-8.06-33.251-29.051-41.335-31.961 1.808.425 35.591 8.306 47.942 5.634 9.194-1.993-1.522-14.36-3.29-15.821 2.712 1.322 18.201 4.512 22.635-2.837 4.434-7.35-10.61-36.62-19.032-49.026 7.478 7.455 41.634 31.742 46.726 27.61 5.098-4.134 1.202-17.483-1.53-21.889 5.505 5.15 10.923 12.034 17.916 11.888 3.503-.073 7.91-11.649 8.634-37.81 4.74 14.66 16.055 34.58 24.364 33.371 8.316-1.203 11.155-13.542 12.305-18.798.957 5.641 5.324 20.14 10.869 20.672 6.806 1.063 19.83-29.218 24.57-42.9.717 6.759-4.242 41.465 3.096 44.348 7.333 2.891 19.458-11.721 26.338-19.908-4.174 7.921-12.33 27.078-7.471 31.663 4.86 4.585 21.658-.22 28.205-5.615-1.834 4.014-2.227 7.223-1.728 10.24-7.465 1.462-15.17 3.608-23.127 6.572-17.975-11.795-39.474-18.666-62.58-18.666-63.04 0-114.145 51.086-114.145 114.1 0 15.17 2.964 29.642 8.342 42.878-6.494 4.811-12.716 8.625-19.091 11.57 4.659-5.55 8.707-16.214 3.442-19.058m319.924-127.378c-.075-1.732-.406-2.76-.406-2.76l-.006-.01c-2.107-7.359-9.626-11.905-19.863-11.905-1.089 0-2.196.056-3.29.165-7.845.778-21.794 5.5-25.935 6.947-13.003-3.284-25.19-4.882-37.222-4.883-6.218 0-12.402.44-18.571 1.301l.01-.004-2.546.343s-.99-3.219 1.6-10.735c1.343-3.898 3.183-7.483 3.183-7.483s-28.314 14.711-31.85 10.016c-3.537-4.696 12.297-42.03 12.297-42.03s-27.296 30.318-32.659 28.973c-2.102-.527-2.302-11.507-2.407-23.324-.141-16 .416-34.304.416-34.304s-22.477 55.859-27.961 55.568c-4.756-.252-11.675-30.068-11.675-30.068s-4.34 25.693-12.141 28.836c-7.802 3.142-27.869-44.908-27.869-44.908s-.927 48.093-6.509 49.172c-5.582 1.08-23.35-16.895-23.35-16.895s8.329 23.956 5.508 27.112c-1.683 1.882-18.775-8.681-36.557-21.43-10.273-7.366-18.863-13.54-18.863-13.54s10.022 16.64 17.99 34.032c5.486 11.973 8.815 23.464 7.38 25.702-3.519 5.486-29.911-2.333-29.911-2.333s15.001 14.446 14.033 18.167c-.469 1.805-15.387.501-30.549-1.57-16.081-2.199-32.445-5.23-32.445-5.23s53.558 31.126 51.876 36.728c-1.33 4.432-34.661.802-34.661.802s28.98 13.235 28.862 17.609c-.117 4.374-56.726 18.691-56.726 18.691s51.27 10.72 52.25 16.436c.98 5.716-20.22 24.054-20.22 24.054s24.681 2.23 25.907 5.46c1.226 3.23-5.998 15.992-12.268 18.015-7.748 2.5-14.803 4.091-23.393 4.091a67.2 67.2 0 0 1-3.626-.099c.425-.549.845-1.116 1.211-1.656 2.113-3.093 3.686-6.399 4.544-9.552l.01-.033.008-.033c.44-1.732.666-3.457.674-5.128v-.072l-.002-.072c-.06-1.899-.677-3.517-1.798-4.618-2.099-1.83-4.057-1.612-5.46-.988l-4.87 2.387c-.363.16-.772.314-1.267.463-.932.28-2.898.612-6.97.612-3.862 0-8.458-.287-12.903-.565 0 0-2.73-.152-3.256-.152-5.303 0-8.841 1.687-10.974 3.231l-1.16-.61c-10.844-5.758-23.464-8.087-31.345-9.54-.613-.114-1.197-.217-1.748-.326-8.705-1.706-13.469-6.87-13.856-7.288-.738-.798-1.698-1.831-2.951-2.554 0 0-2.266-1.413-5.623-.38-2.19.77-3.116 2.477-3.116 2.477-1.877 3.118-.085 7.694 2.276 12.857 2.687 5.864 11.11 20.51 31.27 29.86 6.601 3.064 15.285 5.245 25.81 6.481 7.922.93 14.612 1.048 17.277 1.052 2.567 1.25 10.467 4.9 22.212 8.57 12.895 4.028 33.046 8.817 56.133 8.926 0 0 8.194.104 12.618-.178.445 1.843-2.756 8.435-6.601 16.161-4.556 9.156-10.404 19.986-10.404 19.986s10.563-9.331 20.407-16.25c9.91-6.962 21.009-12.557 23.633-9.333 4.959 6.092-.332 31.231-.332 31.231s20.017-17.706 24.659-15.308c2.125 1.098 2.338 14.329 2.347 28.266.01 16.515-.416 34.054-.416 34.054s27.573-55.768 33.309-54.175c5.736 1.593 12.015 27.02 12.015 27.02S301.47 381.248 307.872 382c2.56-.314 8.058 9.733 12.945 20.004 5.355 11.257 9.944 22.26 9.944 22.26s.112-11.503.914-23.257c.725-10.619 2.075-20.985 4.41-21.56 4.92-1.21 19.189 17.906 19.189 17.906s-5.046-26.645-1.093-28.903c3.953-2.257 51.448 38.787 51.448 38.787s-31.168-57.727-27.377-62.135c3.79-4.408 37.08 4.585 37.08 4.585s-4.96-5.855-9.204-12.47c-4.437-6.916-8.132-14.645-6.396-16.503 1.577-1.689 18.932.069 36.864 3.545 20.673 4.009 34.123 6.867 34.123 6.867s-12.177-6.588-30.134-17.387c-15.55-9.351-29.227-19.877-28.643-21.584 1.257-3.68 38.392-7.211 38.392-7.211s-6.232-3.665-12.929-7.758c-7.27-4.443-15.033-9.976-15.033-12.002 0-1.77 9.312-6.158 21.594-9.933 14.722-4.526 28.34-7.56 28.34-7.56s-50.623-4.063-53.785-11.277c-2.158-4.928 1.807-11.353 4.714-15.504 2.906-4.15 7.067-7.917 7.067-7.917 13.831-12.766 31.434-24.52 37.058-27.976.398-.244.777-.485 1.164-.727 0 0 12.986-9.583 14.32-10.703 1.164-.976 4.135-4.09 4.802-8.053 0 0 .233-1.093.156-2.84" fill="#FFF"/></g></svg>