<svg width="512" height="512" viewBox="0 0 512 512" xmlns="http://www.w3.org/2000/svg" xmlns:xlink="http://www.w3.org/1999/xlink"><title>miami-dolphins</title><defs><path id="a" d="M.04.416h463.778V366.96H.04"/></defs><g fill="none" fill-rule="evenodd"><path d="M424.894 166.124c-3.501.846-12.119 1.11-15.796 1.112-3.676 0-8.872-.547-16.854 2.94-5.724 2.5-9.576 7.509-11.299 10.146.546-.769 1.06-1.384 1.49-1.71 0 0 5.816-6.71 17.701-5.837-.394.605-.73 1.456-.35 2.29.005.012.013.025.019.037.054.111.117.223.198.332.02.029.035.057.057.085 0 0 4.258-1.37 7.274-2.279 6.535-1.625 10.588-2.728 14.997-4.535 6.026-2.47 7.95-3.564 7.751-4.03-.198-.468-1.687.604-5.188 1.45" fill="#005778"/><path d="M382.435 178.613c-.43.325-.944.94-1.49 1.709-2.143 3.019-4.778 8.454-4.778 8.454 3.962-5.871 16.45-10.827 23.835-13.341a2.075 2.075 0 0 1-.197-.333l-.02-.037c-.38-.834-.043-1.685.351-2.29-11.885-.873-17.701 5.838-17.701 5.838" fill="#FFF"/><path d="M394.354 317.221c-2.525 5.126 4.042 20.97 10.046 25.684-4.395-1.317-27.35-7.846-31.032.644-4.048 9.342 18.387 43.608 20.933 50.01-10.343-10.264-38.675-33.275-42.69-30.642-4.015 2.633-3.024 15.458-1.981 21.98-3.889-4.74-10.57-12.34-16.34-10.066-5.77 2.274-5.058 24.294-5.431 33.675-4.76-11.037-12.53-33.256-19.723-32.445-7.193.811-15.263 15.93-16.798 21.707-1.098-5.784-5.804-18.503-12.924-18.503-7.12 0-23.672 33.662-28.677 44.599-.02-8.464 2.007-49.758-2.48-51.806-4.487-2.047-19.63 7.367-22.88 11.649 1.203-5.425 2.227-23.762-1.809-25.976-4.042-2.22-15.555-2.919-36.375 16.335 3.456-7.386 9.147-15.424 10.53-23.216 8.621-.446 17.157-1.423 25.765-3.105 18.786 13.596 41.88 21.62 66.842 21.62 63.045 0 114.152-51.113 114.152-114.168 0-4.94-.32-9.807-.924-14.574 4.228-3.982 8.282-7.838 12.058-11.435-.864 2.067-1.343 4.56-1.263 7.632.247 9.627 25.181 11.682 38.43 12.752-14.798 2.008-40.657 12.719-35.744 18.47 4.912 5.744 19.238 13.643 21.273 14.64-6.828 0-29.27 2.32-31.776 8.683-2.513 6.363 32.473 27.691 45.284 32.704-15.935-4.488-53.94-11.974-56.466-6.848M375.037 153.135c-7.466 1.463-15.17 3.61-23.127 6.575-17.975-11.8-39.474-18.675-62.58-18.675-63.04 0-114.146 51.114-114.146 114.162 0 15.179 2.965 29.66 8.343 42.903-6.495 4.814-12.717 8.63-19.092 11.575 4.66-5.551 8.708-16.222 3.444-19.068-3.596-1.948-20.321-2.72-20.321-2.72s18.832-12.658 18.393-21.813c-.439-9.148-30.473-13.836-42.345-16.469 10.476-2.207 44.406-9.873 45.862-16.7 1.462-6.822-10.604-11.669-15.675-14.05 5.683.074 20.088 2.487 22.03-4.547 2.22-8.064-33.252-29.067-41.335-31.98 1.808.426 35.592 8.311 47.943 5.639 9.193-1.995-1.523-14.368-3.291-15.83 2.712 1.323 18.2 4.514 22.634-2.84 4.434-7.353-10.609-36.64-19.031-49.052 7.478 7.46 41.633 31.76 46.725 27.624 5.099-4.135 1.203-17.492-1.528-21.9 5.504 5.153 10.921 12.04 17.915 11.894 3.503-.073 7.91-11.655 8.635-37.83 4.74 14.667 16.054 34.6 24.363 33.389 8.316-1.203 11.155-13.55 12.305-18.809.958 5.645 5.324 20.152 10.87 20.684 6.806 1.064 19.829-29.234 24.568-42.923.718 6.761-4.24 41.487 3.098 44.372 7.332 2.892 19.457-11.728 26.337-19.919-4.174 7.925-12.331 27.093-7.471 31.68 4.859 4.588 21.658-.219 28.205-5.617-1.834 4.015-2.226 7.227-1.728 10.245" fill="#F58220"/><path d="M422.334 168.706c-4.413 1.808-8.462 2.912-15.004 4.534-3.01.911-7.272 2.28-7.272 2.28-.02-.026-.033-.06-.053-.086-7.379 2.513-19.856 7.467-23.832 13.33.16-.325 2.693-5.518 4.773-8.443 1.722-2.64 5.571-7.646 11.295-10.146 7.983-3.484 13.182-2.938 16.858-2.938s12.291-.266 15.794-1.11c3.504-.845 4.993-1.922 5.192-1.45.2.465-1.728 1.556-7.751 4.029zm42.298-16.096c-8.701.864-26.144 7.147-26.144 7.147-31.856-8.27-69.654-9.202-116.026 19.021a281.704 281.704 0 0 0-23.886 16.283c-7.312 5.558-14.033 11.216-20.301 16.894-2.713 2.446-6.19 5.584-9.167 8.596-15.05 5.02-21.731.326-42.412 3.045-16.366 2.154-22.721 7.74-26.324 12.127-.465 1.264-.419 2.374.432 3.052 1.954 1.569 4.972.784 10.703.359 5.723-.419 14.399-.28 20.122 3.298 3.69 2.293 5.364 7.838 5.977 10.903-4.289 4.548-8.497 8.956-12.745 13.151-26.124 25.85-43.707 41.261-63.383 48.96-42.692 16.715-66.743-2.919-76.374-8.71l-.008.014c-11.685-7.5-27.188-9.98-35.504-11.542-8.316-1.563-12.863-5.585-14.637-7.094-1.775-1.51-3.139-4.05-5.16-3.477-.517.146-.97.305-1.295.611.325-.299.778-.458 1.295-.605.313 3.61 12.425 33.728 50.894 39.2 10.995 1.563 14.492 1.07 16.546.918-6.468-5.685-11.799-13.617-12.252-14.082a125.684 125.684 0 0 0 4.408 3.657c11.48 12.26 24.53 17.32 35.491 19.148.718.226 11.534.691 11.534.691 12.617-.266 29.555-3.976 45.276-8.537 46.154-13.397 90.68-53.4 90.68-53.4s-2.473 10.783-3.437 14.6c-.632 3.018-2.899 13.124-7.16 23.701 0 .007-1.275 3.192-3.13 7.094-2.74 5.771-6.588 13.038-6.588 16.077 0 .146.007.279.026.399 0 0 .033.332.166.757 3.471-1.841 8.19-5.032 13.555-9.56 8.402-7.008 19.052-17.672 31.376-32.877 27.694-34.167 32.095-57.557 51.566-75.754 8.242-7.712 29.914-19.626 41.008-23.496.127-.066.213-.106.247-.12.006 0 .006-.006.013 0l.006-.006c18.747-10.704 37.1-18.982 40.078-20.185 10.969-4.415 49.545-17.227 53.607-10.857h.006c-1.702-7.34-10.497-10.259-19.079-9.401z" fill="#008E97"/><path d="M268.935 286.837c-.632 3.019-2.899 13.125-7.16 23.702-15.082 8.005-39.194 18.264-61.004 23.377-42.95 10.072-70.458 1.336-75.171-.206l-.67-.213c1.049.226 11.486.678 11.486.678 2.254.047 31.576 1.197 63.77-10.884 26.317-9.613 52.196-25.31 68.749-36.454" fill="#FFF"/><path d="M272.372 272.237s-2.473 10.784-3.437 14.6c-16.553 11.143-42.432 26.84-68.749 36.454-32.194 12.08-61.516 10.93-63.77 10.884 12.617-.266 29.555-3.976 45.276-8.537 46.154-13.397 90.68-53.4 90.68-53.4" fill="#005778"/><path d="M381.864 253.375c-3.277 10.106-8.31 23.922-14.471 35.61-7.327 13.889-16.978 23.483-22.064 27.166-.845-.512-1.164-1.59-1.19-2.7-.04-1.98 4.308-12.193 6.016-33.688a387.742 387.742 0 0 0 14.784-11.681c5.544-4.614 11.254-9.607 16.925-14.707" fill="#008E97"/><path d="M128.093 301.524a17.245 17.245 0 0 1-.552 4.169c-.657 2.42-1.934 5.345-3.994 8.364-1.25 1.841-3.31 4.168-3.337 4.195-.34.02-1.928.086-3.265-.047a42.806 42.806 0 0 1-3.364-.485v-.007c-.365-.498 17.331-12.492 12.538-18.33.266-.04 1.894-.405 1.974 2.141M481.438 169.683c-.006 0-.006.007-.006.007s-.712 1.05-3.092 3.131c-2.373 2.081-6.414 5.18-13.07 9.275-6.368 3.916-24.116 15.923-37.744 28.522-.505.466-36.94 34.859-37.851 35.703-.1.32-4.826 17.925-16.114 40.822-7.91 16.043-19.717 26.07-23.905 28.363-.265.14-2.698 1.682-4.327.645 5.086-3.684 14.737-13.277 22.064-27.166 6.161-11.688 11.194-25.504 14.47-35.61-5.67 5.1-11.38 10.093-16.924 14.707a387.742 387.742 0 0 1-14.784 11.681c0 .02-11.806 8.683-18.48 13.125 0 0-.006 0-.006.006-3.737 2.48-20.855 13.151-31.238 18.816-8.814 4.813-27.275 13.563-27.328 13.59h-.007c-9.612 8.117-17.144 11.907-19.158 11.401-1.236-.305-1.662-1.761-1.689-1.835 3.471-1.841 8.19-5.032 13.555-9.56 8.402-7.008 19.052-17.672 31.377-32.877 27.693-34.167 32.094-57.557 51.564-75.754 8.243-7.712 29.915-19.626 41.01-23.496.126-.066.213-.106.246-.12-12.698 7.247-25.567 15.605-33.962 23.616-16.268 15.205-21.832 32.964-37.945 57.224l-.406.632c54.29-41.181 96.244-88.871 139.62-104.11a378.7 378.7 0 0 1 3.948-1.363c.053-.02.106-.033.153-.053 14.764-4.993 20.733-5.77 21.165-2.992.193 1.21-.778 3.012-1.136 3.67" fill="#005778"/><path d="M113.581 317.713v.007c-10.948-2.108-23.765-9.56-27.74-11.821 1.363-1.33 4.72-3.723 11.081-3.331 8.735.538 18.388 1.25 22.908-.107 3.883-1.163 4.62-2.858 6.282-3.078h.007c4.793 5.838-12.903 17.832-12.538 18.33" fill="#008E97"/><path d="M226.698 223.594c20.676-2.718 27.36 1.975 42.412-3.046 2.974-3.01 6.45-6.144 9.161-8.593-4.259 1.369-7.55 2.182-10.653 2.732-7.048 1.392-12.162 1.028-26.781 2.949-22.969 3.022-33.71 10.222-36.722 13.004-.909.84-1.605 1.568-2.56 2.897a11.174 11.174 0 0 0-1.19 2.194c3.607-4.392 9.958-9.983 26.333-12.137" fill="#005778"/><g transform="translate(24 73)"><mask id="b" fill="#fff"><use xlink:href="#a"/></mask><path d="M234.644 244.633c-2.738 5.771-6.587 13.038-6.587 16.077 0 .146.007.279.026.399-35.02 13.682-63.577 13.037-63.683 13.044-48.155 2.28-86.046-17.326-86.046-17.326s0-.007-.007-.007c-.1 0-.365.007-.771.007-4.52 0-26.883-.346-41.567-7.167-16.061-7.453-25.301-19.135-29.322-27.918-2.992-6.542-3.139-8.63-2.187-9.494.079-.073.172-.14.265-.2 0 0 .007 0 .007-.006.285-.173.638-.292 1.023-.399.313 3.61 12.425 33.728 50.894 39.2 10.995 1.563 14.492 1.07 16.546.918-6.468-5.685-11.799-13.617-12.252-14.082a125.684 125.684 0 0 0 4.408 3.657c11.48 12.26 24.53 17.32 35.491 19.148.013.006.027.006.047.013h.006l.047.013.618.2c4.713 1.542 32.22 10.278 75.17.206 21.811-5.113 45.923-15.372 61.005-23.377 0 .007-1.276 3.192-3.13 7.094" fill="#005778" mask="url(#b)"/><path d="M459.705 89.01c-4.062-6.369-42.637 6.443-53.606 10.858-2.979 1.203-21.332 9.48-40.098 20.192-12.698 7.246-25.567 15.604-33.962 23.615-16.268 15.205-21.832 32.964-37.945 57.224l-.406.632c54.29-41.181 96.244-88.871 139.62-104.11a378.7 378.7 0 0 1 3.948-1.363c.053-.02.106-.033.153-.053 14.764-4.993 20.733-5.77 21.165-2.992.193 1.21-.778 3.012-1.142 3.677 0 0-.712 1.05-3.092 3.131-2.373 2.081-6.414 5.18-13.07 9.275-6.368 3.916-24.116 15.923-37.744 28.522-.505.466-36.94 34.859-37.851 35.703-.1.32-4.826 17.925-16.114 40.822-7.91 16.043-19.717 26.07-23.905 28.363-.265.14-2.698 1.682-4.327.645-.845-.512-1.164-1.59-1.19-2.7-.04-1.98 4.308-12.193 6.016-33.688 0 .02-11.806 8.683-18.486 13.131-3.737 2.48-20.855 13.151-31.238 18.816-8.814 4.813-27.275 13.563-27.335 13.59-9.612 8.117-17.144 11.907-19.158 11.401-1.236-.305-1.662-1.761-1.689-1.835-.132-.425-.166-.757-.166-.757-35.02 13.682-63.577 13.037-63.683 13.044-48.155 2.28-86.046-17.326-86.053-17.333-.1 0-.365.007-.771.007-4.52 0-26.883-.346-41.567-7.167-16.061-7.453-25.301-19.135-29.322-27.918-2.992-6.542-3.139-8.63-2.187-9.494.325-.305.778-.465 1.295-.611 2.021-.572 3.385 1.968 5.16 3.477 1.774 1.51 6.32 5.531 14.637 7.094 8.316 1.562 23.819 4.042 35.512 11.528 9.631 5.791 33.682 25.425 76.374 8.71 19.676-7.699 37.259-23.11 63.384-48.96 4.247-4.195 8.455-8.603 12.744-13.15-.612-3.066-2.288-8.61-5.977-10.904-5.723-3.577-14.399-3.717-20.122-3.298-5.73.425-8.748 1.21-10.703-.359-.7-.562-.823-1.448-.646-2.28.18-.852.564-1.65 1.024-2.386.12-.193.24-.388.373-.572.956-1.33 1.652-2.057 2.56-2.897 3.011-2.782 13.753-9.981 36.722-13.004 14.62-1.92 19.733-1.557 26.78-2.95 3.104-.549 6.395-1.362 10.658-2.731 6.268-5.678 12.989-11.336 20.301-16.894a281.704 281.704 0 0 1 23.886-16.283c46.373-28.223 84.17-27.292 116.026-19.021 0 0 17.443-6.283 26.144-7.147 8.582-.858 17.378 2.06 19.073 9.4zm-31.922 87.562c-14.798 2.008-40.657 12.719-35.744 18.47 4.912 5.744 19.238 13.643 21.273 14.64-6.828 0-29.27 2.32-31.776 8.683-2.513 6.363 32.473 27.691 45.284 32.704-15.935-4.488-53.94-11.974-56.466-6.848-2.525 5.126 4.042 20.97 10.046 25.684-4.395-1.317-27.35-7.846-31.032.644-4.048 9.342 18.387 43.608 20.933 50.01-10.343-10.264-38.675-33.275-42.69-30.642-4.015 2.633-3.024 15.458-1.981 21.98-3.889-4.74-10.57-12.34-16.34-10.066-5.77 2.274-5.058 24.294-5.431 33.675-4.76-11.037-12.53-33.256-19.723-32.445-7.193.811-15.263 15.93-16.798 21.707-1.098-5.784-5.804-18.503-12.924-18.503-7.12 0-23.672 33.662-28.677 44.599-.02-8.464 2.007-49.758-2.48-51.806-4.487-2.047-19.63 7.367-22.88 11.649 1.203-5.425 2.227-23.762-1.809-25.976-4.042-2.22-15.555-2.919-36.375 16.335 3.456-7.386 9.147-15.424 10.53-23.216 8.621-.446 17.157-1.423 25.765-3.105 18.786 13.596 41.88 21.62 66.842 21.62 63.045 0 114.152-51.113 114.152-114.168 0-4.94-.32-9.807-.924-14.574 4.228-3.982 8.282-7.838 12.058-11.435-.864 2.067-1.343 4.56-1.263 7.632.247 9.627 25.181 11.682 38.43 12.752zm-354.86 52.996c8.734.538 18.387 1.25 22.907-.107 3.883-1.163 4.62-2.858 6.282-3.078h.007c.266-.04 1.894-.405 1.974 2.141a17.245 17.245 0 0 1-.552 4.169c-.657 2.42-1.934 5.345-3.994 8.364-1.25 1.841-3.31 4.168-3.337 4.195-.34.02-1.928.086-3.265-.047a42.806 42.806 0 0 1-3.364-.485c-10.948-2.108-23.765-9.56-27.74-11.821 1.363-1.33 4.72-3.723 11.081-3.331zm70.956-11.96c-3.596-1.949-20.321-2.72-20.321-2.72s18.832-12.659 18.393-21.814c-.439-9.148-30.473-13.836-42.345-16.469 10.476-2.207 44.406-9.873 45.862-16.7 1.462-6.822-10.604-11.669-15.675-14.05 5.683.074 20.088 2.487 22.03-4.547 2.22-8.064-33.252-29.067-41.335-31.98 1.808.426 35.592 8.311 47.943 5.639 9.193-1.995-1.523-14.368-3.291-15.83 2.712 1.323 18.2 4.514 22.634-2.84 4.434-7.353-10.609-36.64-19.031-49.052 7.478 7.46 41.633 31.76 46.725 27.624 5.099-4.135 1.203-17.492-1.528-21.9 5.504 5.153 10.921 12.04 17.915 11.894 3.503-.073 7.91-11.655 8.635-37.83 4.74 14.667 16.054 34.6 24.363 33.389 8.316-1.203 11.155-13.55 12.305-18.809.958 5.645 5.324 20.152 10.87 20.684 6.806 1.064 19.829-29.234 24.568-42.923.718 6.761-4.24 41.487 3.098 44.372 7.332 2.892 19.457-11.728 26.337-19.919-4.174 7.925-12.331 27.093-7.471 31.68 4.859 4.588 21.658-.219 28.205-5.617-1.834 4.015-2.226 7.227-1.728 10.245-7.466 1.463-15.17 3.61-23.127 6.575-17.975-11.8-39.474-18.675-62.58-18.675-63.04 0-114.146 51.114-114.146 114.162 0 15.179 2.965 29.66 8.343 42.903-6.495 4.814-12.717 8.63-19.092 11.575 4.66-5.551 8.708-16.222 3.444-19.068zm319.924-127.45c-.077-1.732-.407-2.761-.407-2.761l-.006-.01c-2.107-7.363-9.625-11.911-19.863-11.911-1.088 0-2.196.055-3.29.165-7.845.778-21.795 5.503-25.935 6.95-13.003-3.286-25.19-4.885-37.222-4.885-6.218-.001-12.402.44-18.57 1.301l.008-.004-2.544.343s-.991-3.22 1.6-10.74c1.341-3.901 3.183-7.488 3.183-7.488s-28.316 14.72-31.851 10.021c-3.536-4.698 12.298-42.052 12.298-42.052s-27.297 30.334-32.66 28.989c-2.101-.527-2.302-11.514-2.406-23.337-.142-16.01.415-34.323.415-34.323s-22.477 55.89-27.962 55.598c-4.755-.252-11.674-30.085-11.674-30.085s-4.34 25.708-12.142 28.852c-7.8 3.144-27.868-44.933-27.868-44.933s-.927 48.12-6.509 49.2c-5.581 1.08-23.35-16.904-23.35-16.904s8.33 23.97 5.509 27.126c-1.685 1.884-18.776-8.685-36.559-21.442a24750.968 24750.968 0 0 1-18.862-13.546s10.022 16.649 17.99 34.05c5.486 11.98 8.815 23.478 7.38 25.716-3.519 5.49-29.912-2.334-29.912-2.334s15.002 14.455 14.035 18.177c-.47 1.807-15.389.502-30.55-1.57-16.081-2.2-32.445-5.233-32.445-5.233s53.558 31.143 51.877 36.748c-1.33 4.435-34.663.803-34.663.803s28.98 13.242 28.863 17.618c-.117 4.377-56.726 18.702-56.726 18.702s51.27 10.726 52.25 16.445c.98 5.719-20.22 24.067-20.22 24.067s24.682 2.231 25.907 5.464c1.226 3.231-5.998 16-12.268 18.024-7.748 2.502-14.802 4.094-23.394 4.094-1.236 0-2.443-.035-3.625-.1.425-.549.845-1.116 1.21-1.656 2.114-3.095 3.688-6.402 4.545-9.558l.01-.032.007-.034c.44-1.733.666-3.459.674-5.13l.001-.072-.003-.073c-.059-1.9-.676-3.518-1.796-4.62-2.1-1.83-4.057-1.613-5.461-.988l-4.87 2.388c-.363.16-.772.314-1.267.463-.932.28-2.897.613-6.97.613-3.862 0-8.458-.288-12.903-.566 0 0-2.73-.152-3.256-.152-5.302 0-8.842 1.688-10.974 3.233l-1.16-.611c-10.844-5.76-23.464-8.091-31.345-9.546-.613-.113-1.198-.216-1.749-.325-8.704-1.707-13.468-6.874-13.856-7.293-.737-.798-1.698-1.831-2.95-2.555 0 0-2.266-1.413-5.623-.38-2.19.77-3.116 2.479-3.116 2.479-1.877 3.12-.086 7.698 2.276 12.863 2.687 5.868 11.11 20.522 31.271 29.877 6.6 3.066 15.284 5.248 25.809 6.485 7.922.93 14.612 1.048 17.277 1.053 2.567 1.25 10.467 4.902 22.212 8.574 12.895 4.03 33.046 8.823 56.134 8.931 0 0 8.193.104 12.616-.178.446 1.844-2.755 8.44-6.6 16.17-4.556 9.16-10.404 19.997-10.404 19.997s10.563-9.336 20.408-16.258c9.909-6.967 21.008-12.565 23.632-9.339 4.958 6.095-.333 31.249-.333 31.249s20.018-17.716 24.66-15.317c2.125 1.099 2.338 14.337 2.346 28.281.01 16.524-.415 34.074-.415 34.074s27.573-55.8 33.31-54.206c5.735 1.594 12.014 27.036 12.014 27.036s10.475-30.996 16.876-30.244c2.56-.314 8.058 9.74 12.944 20.016 5.356 11.263 9.945 22.273 9.945 22.273s.111-11.51.914-23.27c.725-10.625 2.075-20.998 4.41-21.573 4.92-1.211 19.188 17.916 19.188 17.916s-5.045-26.66-1.092-28.919c3.954-2.259 51.448 38.809 51.448 38.809s-31.168-57.759-27.377-62.17c3.791-4.41 37.08 4.587 37.08 4.587s-4.96-5.858-9.205-12.476c-4.436-6.92-8.13-14.653-6.395-16.513 1.576-1.69 18.933.07 36.864 3.548 20.674 4.01 34.123 6.87 34.123 6.87s-12.177-6.59-30.135-17.397c-15.548-9.356-29.226-19.888-28.643-21.596 1.258-3.682 38.393-7.215 38.393-7.215s-6.233-3.666-12.93-7.762c-7.27-4.446-15.031-9.981-15.031-12.008 0-1.772 9.31-6.162 21.592-9.94 14.723-4.528 28.342-7.563 28.342-7.563s-50.624-4.065-53.785-11.284c-2.159-4.93 1.806-11.359 4.713-15.512 2.907-4.153 7.067-7.921 7.067-7.921 13.83-12.773 31.434-24.533 37.058-27.992.398-.245.777-.485 1.164-.727 0 0 12.986-9.589 14.32-10.709 1.164-.977 4.134-4.093 4.802-8.058 0 0 .233-1.094.157-2.842z" fill="#FFF" mask="url(#b)"/></g></g></svg>