<svg width="512" height="512" viewBox="0 0 512 512" xmlns="http://www.w3.org/2000/svg"><title>minnesota-vikings</title><g fill="none" fill-rule="evenodd"><path d="M382.438 281.36c.757-4.102 3.033-8.662 1.06-13.068 2.176-1.203 4.619-2.443 6.975-3.645.176-2.76-.772-10.88-9.853-16.703 0 0 4.022-1.398 2.119-9.57-11.067.911-8.187-11.544-11.218-17.77 9.316-5.332 11.604-16.181 8.794-23.087-2.787 4.916-6.521 9.112-11.673 9.874-25.365-65.884-90.037-82.426-128.422-80.314 0 0-1.198 9.54-3.321 13.338-27.887-7.291-27.131-37.815-40.32-56.951-3.114-4.35-11.453-14.942-20.974-16.707-1.863-.262-2.523 1.06-2.375 1.82 19.71 13.368 21.758 36.016 23.65 57.866 1.594 18.394 13.148 28.83 25.124 37.803-.657.622-1.68 2.624-2.232 3.81-15.462 4.406-34.087 1.85-46.97-6.808-26.076-17.125-19.636-49.75-26.86-75.506-2.135-6.696-5.553-15.848-12.402-19.428-2.164-1.186-4.229.083-3.208 1.505 5 7.14 8.64 15.039 9.09 24 .151 23.098-5.473 47.606 3.4 69.293 13.175 29.429 37.512 50.667 67.096 56.914-.96 10.413.057 19.361 1.819 29.159-31.752 17.226-56.357 35.289-97.105 98.44-1.254 2.554-.042 4.983 3.38 1.795 39.95-37.194 105.816-55.61 147.168 6.335 19.883 31.41 18.154 53.526 16.899 74.161-.01 7.166-4.35 17.15 2.108 19.904 6.921 2.988 13.825-14.574 13.838-17.017 1.512-1.523 2.24-4.65 2.346-6.933 1.44-1.088 2.2-6.086 1.868-8.775 4.156-4.927 7.846-17.251 3.247-24.43 1.552-4.137 1.732-14.864-.837-20.635 1.429-6.28 2.894-20.507-2.254-27.015 7.454-8.415 17.184-15.268 26.933-19.426 2.422 18.373 6.047 41.799-10.024 54.403-1.07.718-.896 1.959 1.078 1.415 25.85-8.677 31.33-57.986 33.117-64.129 8.6-4.486 33.094-11.113 40.436-13.81 7.69-2.927 2.37-13.319-.633-17.004-1.505-1.915-5.846-2.858-10.864-3.103zm-3.997-41.12l.366 2.842c-5.31 1.3-13.232 6.475-14.96 2.983-1.528-3.076 5.408-3.59 6.62-5.108.66-.856.082-2.278-1.518-2.581-3.79.054-5.89.137-7.427.593-3.225 2.692-2.977 9.321-1.547 11.473-6.992 3.197-13.915 10.257-17.86 14.512-1.814-9.113 4.85-15.64 11.527-20.352 1.513-1.452.607-10.63-.609-15.34-1.254-.538-3.392.014-3.572-1.062-.017-1.03 8.322-1.225 11.792-1.377-.903-5.76 6.002-6.728 8.098-3.4 2.572 5.616.756 15.904 9.09 16.817zm-.397-34.67c-.454 4.404-3.336 8.353-7.277 10.63-11.07 4.858-25.77-2.278-35.93 4.708.149-3.797 2.091-9.084 7.845-9.477 14.532-.61 24.88 4.134 35.362-5.861zm-15.313 1.822c-19.86-1.063-41.606 1.96-59.645 7.427-2.728 27.967-35.67 38.463-54.963 17.027 0 0-7.306 1.614-29.41 11.692-2.73-3.646-5.04-12.562-.828-14.552 5.727-3.113 10.088-5.705 16.031-7.11 4.97-1.136 12.94 1.402 16.816 2.473 21.92 13.217 44.29 13.549 49.899-25.586 0 0 28.325-6.998 55.195-5.193 0 0 4.19 5.803 6.905 13.822zm-146.595 16.86v-4.863l8.338 1.216c-2.577.772-5.46 2.224-8.338 3.647zm27.74-93.405c84.703 2.166 109.153 58.319 109.153 58.319-16.237-1.366-37.102 1.642-53.513 5.163-8.767-22.292-22.036-31.45-72.77-27.033 6.962-12.714 15.382-21.067 17.13-36.45zm-35.32 13.515c-4.319-8.093-7.252-18.296-8.377-28.322.067-.383.315-.412.484-.265 1.007 5.426 1.929 9.847 4.254 13.707.448.446 1.238.268 1.058-.54-1.75-5.025-3.571-10.894-4.484-17.424.206-.285.416-.652.624-.117 1.597 4.113 4.105 11.16 5.986 13.219.27.356 1.209.269 1.122-.451-.754-2.195-2.402-6.479-2.931-8.63-.309-.714.289-.444.524-.246 4.67 12.868 11.743 19.653 20.688 25.123 3.225 2.208 2.142 11.226-5.155 12.753-6.213 1.067-10.917-4.095-13.794-8.807zm8.999 59.44c-1.793-2.306-9.775 3.961-10.816 2.831-.647-.52 3.594-2.137 2.575-2.885-2.73-1.823-7.376 1.822-8.036 1.064-.467-.73 1.724-1.064 1.063-2.126-1.927-1.965-8.81 1.9-9.4.76-.424-.825 5.046-1.836 3.943-3.343-1.807-1.748-7.427 1.995-15.628-1.746-30.455-16.055-38.529-48.086-39.457-61.415.088-.45.114-.57.386-.211 2.4 11.691 7.006 27.893 17.556 36.037.54.357 1.115-.404.759-.761-11.22-8.843-15.463-28.803-16.02-46.017-.04-.66.171-.72.404-.154.76 13.054 4.399 28.705 14.857 38.574.449.362 1.208-.219.759-.758-10.127-12.164-13.06-27.609-13.006-42.505.093-.595.484-.394.451-.206.607 17.77 8.613 32.84 23.165 44.23 27.135 20.44 72.437-1.166 98.18 7.53 38.44 11.306 26.437 45.19 14.915 51.096-2.624-2.752-4.381 1.053-5.455.455-1.163-.737 1.332-1.887-.189-2.8-1.431-.598-3.198 1.574-4.512.978-.76-.338 1.324-1.846.28-2.52-2.278-1.517-5.023 3.248-6.19 2.52-.92-.608 3.897-2.967 1.979-4.579-2.512-1.89-5.904 3.151-6.987 2.298-1.66-1.191 6.94-4.991 3.643-6.531-1.817-.924-7.551 5.071-8.795 3.95-.974-.898 7.032-4.201 4.757-5.835-1.89-1.058-11.647 5.893-13.092 4.774-1.076-.838 8.625-5.56 6.355-7.357-2.822-1.924-12.16 8.016-13.934 6.294-1.354-1.114 7.961-4.786 5.697-7.052-2.172-2.111-11.627 7.383-14.188 5.533-1.189-.786 9.525-5.048 6.679-7.194-2.8-1.614-13.998 7.557-15.017 6.133-.888-1.182 9.445-5.02 8.033-6.837-2.866-2.752-13.238 6.33-14.552 5.012-1.246-1.23 8.166-4.389 6.442-5.728-2.868-2.036-12.459 5.463-13.414 3.909-.887-1.406 7.974-2.577 5.81-5.418zm-70.251 116.786c-8.138 5.509-14.502 10.14-22.433 18.025-.716.538-1.058-.36-.342-1.262 48.247-72.14 105.774-95.272 119.77-98.838 2.736-.537 2.466.98 1.366 1.686-26.416 10.202-70.328 36.434-89.107 68.194-2.857 4.827-5.153 9.404-9.254 12.195zm36.376-10.945c-10.109 2.904-18.578 5.127-27.366 8.267-.789.337-2.107.171-1.619-.857 20.66-37.368 58.671-59.79 95.206-75.736 1.075-.54 1.857.705.967 1.064-27.073 13.186-46.647 39.482-62.933 64.166-.407.617-2.777 2.663-4.255 3.096zm9.757-.894c-1.431-.546-1.31-2.047-.951-2.94 17.434-21.409 31.05-48.613 57.582-59.548 2.095-.595 4.872-2.095 7.1-1.19 5.16 2.153 13.876 5.414 24.708 2.515 21.44-6.67 24.159-27.436 24.159-27.436 5.308-1.367 10.614-3.033 16.374-3.643-6.216 35.994-56.245 50.877-58.214 88.543-14.854 2.923-33.38-8.727-36.204-26.126-3.727 7.39-8.641 16.142-17.313 23.694-4.948 3.919-12.214 7.73-17.24 6.131zm97.284 44.9c-3.25-2.655-6.214-5.775-10.158-6.986-.452-13.977 9.138-29.836 12.322-34.71 1.226-1.937 2.51-.668 3.212 1.882 6.986 21.283-3.652 30.186-5.376 39.814zm9.098-8.05c3.443 2.168 1.652 19.684-2.123 28.705-2.66-3.837-5.835-7.059-7.526-8.8 2.332-5.74 8.04-20.623 9.65-19.905zm-5.76-69.708c-.554.26-2.113-1.795-2.938-1.37-.955.58 2.483 5.474 2.483 5.474.121 29.04-15.27 35.117-15.161 52.844-3.104-2.455-7.156-6-11.1-7.522-6.985-27.424 26.764-63.713 28.659-62.129.812.868-1.256 12.095-1.943 12.703zm-85.008 32.361c8.032-5.01 14.074-13.72 17.242-20.215l3.168 7.003c-4.093 5.026-10.086 11.927-16.116 14.153-2.192.385-5.718.45-4.294-.94zm39.747 19.243c-9.402-8.043-19.474-13.187-30.844-16.528 4.395-3.202 10.307-8.642 13.795-13.209.574.537 1.419 1.47 1.874 1.934-.455 11.541 5.375 20.524 15.53 25.845 1.614.713.54 2.857-.355 1.958zm-11.138-24.278c8.091 5.458 16.676 7.91 25.772 7.302v13.205c-25.296-2.979-25.772-20.507-25.772-20.507zm26.177 39.384c-2.688-1.614-13.44-11.697-9.501-14.923 4.217-4.38 22.895 8.048 22.895 8.048-.152 3.04-.91 5.921-.608 9.112 0 0-9.924-.26-12.786-2.237zm7.934 13.93c-1.367-2.58-4.053-5.7-2.521-7.687 2.483-2.252 13.835 1.626 19.652 7.996-.618 2.85-1.43 4.857-2.12 7.743-5.767-.913-11.98-1.976-15.011-8.052zm9.852 19.594c-1.194-2.169-2.987-7.055-1.06-8.654 2.375-1.31 12.376 3.557 15.713 9.63.538 1.44-2.203 6.63-3.279 6.81-1.005.51-9.676-3.833-11.374-7.786zm15.615 20.813c0 2.12-1.749 4.893-2.6 4.799-1.062.31-9.25-4.447-9.857-9.168-.454-2.427-.729-6.846.485-7.328 2.257-.636 10.154 6.682 11.972 11.697zm-12.277 48.138c-2.51-1.45-1.034-7.084.76-10.177 1.512 1.065 2.754 2.87 4.172 4.362-.549 1.437-2.467 6.808-4.932 5.815zm6.38-8.768c-2.119-2.239-2.89-4.146-5.618-5.81-.9-.895-.112-3.071.604-2.884 2.145 1 5.382 4.468 6.21 7.53.21.76-.417 1.695-1.197 1.164zm2.304-5.463c-1.997-2.596-4.683-5.303-7.194-7.43-1.176-.691.11-2.859 1.405-2.55 3.048 1.06 5.496 5.307 6.863 8.651.181 1.077-.719 1.683-1.074 1.329zm2.04-5.831c-1.037-2.525-6.357-7.834-9.318-10.452-1.612-1.257 1.156-3.946 2.233-3.053 4.546 3.498 10.019 11.139 7.085 13.505zm1.777-6.295c-2.121-5.01-5.829-9.632-10.375-12.673-1.612-.895-1.436-4.766 0-4.401 5.304 1.818 10.638 8.335 11.848 13.65.538 1.969-.577 5.04-1.473 3.424zm6.176-23.558c1.75 1.286.395 10.734-2.757 14.985l-3.943-5.46c2.123-3.353 5.472-10.285 6.7-9.525zm-4.577-.806c-.72-3.165-2.633-4.872-3.552-7.793.713-1.068 5.811-12.167 6.886-11.81 1.859.949-.07 14.363-3.334 19.603zm3.03-56.048c2.88-11.997-1.818-22.632-6.212-32.498 1.571-7.788 1.898-14.286 2.876-22.092.582-1.661 2.635-1.99 3.336-.848 2.11 17.378 9.224 23.475 24.712 22.635l1.06 11.69c-9.852 4.104-18.189 12.61-25.772 21.113zm24.93-38.186c-14.327 4.302-22.547-4.497-21.29-24.23-1.713-2.75-6.371 3.488-6.976 1.511-.136-20.781 8.946-21.8 12.391-26.807 3.363.444 7.11 1.695 8.913 4.139 5.555 8.686 4.169 19.18 7.499 28.9.813 1.735 2.427 0 2.427 0-3.642-13.367.302-32.351-15.92-37.97 6.52-8.96 9.069-18.722 11.798-29.203 1.058-1.212 3.365-1.476 4.575-1.02-.453 4.1-2.118 7.745-1.517 12.452.36 2.804 5.694-3.383 8.795-4.86 4.353-2.25 11.412-1.696 17.477-.783 1.252.178 1.072 1.421-.182 1.6-5.911.607-14.993 1.781-15.476 4.35-.029 1.906 6.82 3.796 10.914 3.948.593 2.198 1.2 4.985.84 7.57-7.58 3.644-17.208 13.273-11.796 29.147-5.912 8.953-9.812 20.229-12.473 31.256zm26.008 4.927c-6.55 19.887-9.517 46.323-17.937 57.808-.16.223-.614.212-.424-.261 9.943-19.858 8.122-37.676 13.966-56.786.314-.722-.489-1.662-1.118-.586-6.645 8.776-7.798 43.628-13.4 54.372-.187.41-.81.497-.607-.326 6.66-25.22 1.42-49.463 11.788-68.8.397-.693-.792-1.792-1.82-.605-4.545 8.2-9.863 24.993-8.39 44.916.085 1.098-.815 1.27-.966.04-2.878-23.242-5.165-46.45 11.18-66.528 6.883-8.452 17.201-16.286 24.088-18.085 16.246-3.435 18.508 11.86 18.508 11.86-19.103 5.47-29.323 26.145-34.868 42.98zm5.363 1.642c-.964-.58-.872-2.543.053-2.889 5.635-1.554 21.664-5.234 22.48-3.467.298.49-21.36 6.977-22.533 6.356zm34.964-9.997c-11.98-.608-23.494.637-33.81 2.884 1.962-11.802 17.65-29.705 20.773-27.978 2.96 1.641-3.461 10.022.165 12.565 2.756 1.606 5.97.535 8.27 1.39 5.079 2.33 6.293 10.631 4.602 11.139z" fill="#000"/><path d="M300.63 198.763c-5.608 39.135-27.977 38.803-49.898 25.586-3.877-1.068-11.846-3.608-16.816-2.473-5.943 1.402-10.304 3.995-16.03 7.11-4.215 1.992-1.904 10.908.828 14.552 22.103-10.078 29.41-11.692 29.41-11.692 19.295 21.436 52.234 10.938 54.962-17.027 18.041-5.466 39.784-8.49 59.645-7.427-2.717-8.021-6.905-13.822-6.905-13.822-26.872-1.805-55.195 5.193-55.195 5.193" fill="#4F2683"/><path d="M396.63 281.741c-1.604-2.05-4.524-3.425-8.822-4.157.537-2.153.97-4.547.69-7.074 1.247-.652 3.925-2.021 3.925-2.021a4.307 4.307 0 0 0 2.342-3.564c.312-4.909-1.738-12.052-8.089-17.753.898-2.207 1.285-5.353.255-9.773a4.295 4.295 0 0 0-4.536-3.316c-3.141.256-3.853-.305-4.948-7.374-.23-1.452-.462-2.93-.805-4.366 8.806-6.892 10.87-17.496 7.656-26.449-1.382-3.845-6.188-3.008-7.716-.498-1.845 3.029-3.594 5.261-5.516 6.523-11.89-28.24-32.499-50.325-59.826-64.031-21.723-10.9-47.69-16.404-71.246-15.11a4.303 4.303 0 0 0-4.03 3.762c-.3 2.392-.92 5.843-1.643 8.517-13.744-5.332-18.618-18.237-23.745-31.846-2.87-7.615-5.834-15.488-10.458-22.194-4.375-6.113-13.21-16.544-23.727-18.494-8.422-.718-8.609 7.826-5.567 9.62 18.11 12.277 19.973 33.832 21.778 54.673 1.582 18.283 12.1 29.285 22.904 37.86-13.68 2.929-29.5.255-40.31-7.007l-.03-.019-.005-.002c-16.668-10.944-19.142-28.64-20.925-48.268-1.157-12.747-4.184-24.902-4.2-24.951-2.713-8.507-6.553-17.758-14.475-21.917-3.003-1.626-6.475-1.197-8.457 1.043-1.692 1.913-1.817 4.65-.267 6.777 8.415 11.528 8.938 21.843 8.21 33.25-3.57 31.198-1.868 47.033 5.737 63.924 17.756 34.266 44.558 48.952 64.592 53.87-.44 8.71.424 16.416 1.601 23.502-28.723 15.813-54.617 34.342-95.958 98.407-3.403 4.489.782 14.649 9.917 7.283 25.272-23.517 56.565-35.658 83.715-32.483 22.693 2.66 41.848 15.45 56.926 38.02 18.768 29.668 17.847 53.33 15.534 77.756-.59 6.23-2.299 14.64 5.392 17.928 2.725 1.167 5.754.822 8.511-.981 5.623-3.688 9.887-13.457 11.015-18.112 1.661-2.332 2.28-5.292 2.516-7.184 1.66-2.659 2.043-6.575 2.048-9.034 4.43-6.372 7.386-18.038 3.507-26.317 1.283-5.495 1.146-14.499-.98-20.525.794-4.208 2.76-17.25-1.379-26.048 5.217-5.377 11.45-10.042 18.093-13.562 1.334 16.405 4.413 32.856-9.179 44.576-3.406 2.686-3.15 11.048 5.092 8.896 25.025-8.105 33.001-50.13 35.482-65.232 6.15-2.755 35.677-11.832 38.179-12.75 4.232-1.613 5.817-4.612 6.415-6.842 1.68-6.287-2.66-13.83-5.193-16.933zm-2.695 19.727c-7.342 2.697-31.838 9.324-40.437 13.81-1.79 6.143-7.266 55.452-33.12 64.129-1.97.544-2.148-.697-1.079-1.415 16.075-12.604 12.448-36.029 10.027-54.403-9.749 4.158-19.478 11.009-26.936 19.426 5.153 6.508 3.688 20.735 2.257 27.015 2.568 5.77 2.385 16.498.84 20.635 4.598 7.179.908 19.503-3.252 24.43.33 2.687-.424 7.687-1.868 8.775-.104 2.282-.833 5.41-2.343 6.933-.017 2.443-6.916 20.005-13.837 17.017-6.46-2.754-2.123-12.738-2.111-19.904 1.257-20.635 2.984-42.75-16.896-74.16-41.355-61.946-107.22-43.53-147.171-6.336-3.42 3.188-4.63.759-3.379-1.795 40.748-63.151 65.353-81.214 97.105-98.44-1.763-9.798-2.778-18.746-1.819-29.159-29.586-6.247-53.923-27.487-67.1-56.914-8.873-21.687-3.247-46.195-3.395-69.294-.45-8.96-4.093-16.858-9.092-23.999-1.021-1.422 1.045-2.691 3.208-1.505 6.852 3.58 10.266 12.734 12.405 19.428 7.218 25.756.781 58.383 26.856 75.506 12.885 8.657 31.51 11.214 46.972 6.809.552-1.187 1.577-3.189 2.234-3.811-11.98-8.973-23.531-19.41-25.123-37.803-1.893-21.85-3.944-44.498-23.65-57.865-.152-.76.51-2.083 2.372-1.821 9.52 1.766 17.859 12.357 20.974 16.707 13.19 19.137 12.435 49.66 40.324 56.952 2.123-3.796 3.324-13.337 3.324-13.337 38.382-2.112 103.052 14.432 128.417 80.313 5.152-.76 8.886-4.957 11.674-9.874 2.812 6.908.525 17.756-8.794 23.087 3.03 6.227.154 18.681 11.22 17.77 1.902 8.172-2.122 9.572-2.122 9.572 9.08 5.822 10.03 13.942 9.855 16.701-2.357 1.205-4.797 2.443-6.975 3.644 1.975 4.406-.305 8.967-1.061 13.07 5.019.246 9.36 1.187 10.863 3.105 3 3.682 8.321 14.074.633 17.001zM227.507 140.416c-8.943-5.47-16.016-12.255-20.69-25.123-.233-.196-.834-.466-.525.246.53 2.151 2.18 6.435 2.935 8.63.087.72-.856.807-1.126.45-1.877-2.058-4.384-9.105-5.985-13.218-.205-.535-.417-.168-.625.117.913 6.53 2.738 12.397 4.489 17.423.18.809-.613.987-1.063.541-2.32-3.86-3.247-8.279-4.25-13.707-.17-.147-.42-.118-.486.265 1.124 10.023 4.057 20.23 8.375 28.322 2.88 4.712 7.58 9.874 13.798 8.807 7.295-1.527 8.377-10.545 5.153-12.753zm-2.354 64.89c1.72 1.34-7.686 4.5-6.441 5.73 1.316 1.317 11.686-7.765 14.551-5.013 1.418 1.818-8.923 5.657-8.031 6.836 1.018 1.425 12.218-7.745 15.015-6.13 2.845 2.146-7.871 6.407-6.68 7.193 2.561 1.848 12.017-7.644 14.188-5.534 2.264 2.266-7.048 5.938-5.7 7.05 1.781 1.723 11.116-8.218 13.938-6.292 2.273 1.797-7.431 6.518-6.353 7.357 1.445 1.12 11.2-5.83 13.09-4.775 2.272 1.635-5.733 4.939-4.756 5.836 1.244 1.123 6.979-4.873 8.793-3.95 3.297 1.54-5.301 5.34-3.64 6.532 1.079.852 4.472-4.188 6.984-2.298 1.918 1.612-2.901 3.97-1.979 4.578 1.167.73 3.915-4.035 6.19-2.52 1.045.673-1.037 2.181-.28 2.52 1.315.597 3.083-1.577 4.517-.978 1.515.911-.976 2.06.186 2.8 1.073.596 2.831-3.208 5.452-.458 11.523-5.903 23.527-39.787-14.912-51.094-25.743-8.694-71.05 12.912-98.179-7.529-14.552-11.39-22.56-26.461-23.168-44.232.034-.187-.358-.385-.45.21-.053 14.895 2.877 30.34 13.006 42.503.45.54-.31 1.12-.758.759-10.46-9.871-14.101-25.522-14.856-38.575-.233-.566-.445-.504-.406.154.559 17.214 4.8 37.174 16.02 46.016.358.36-.22 1.12-.758.76-10.55-8.141-15.158-24.342-17.556-36.036-.27-.36-.299-.238-.387.212.93 13.328 9 45.36 39.459 61.415 8.196 3.74 13.822 0 15.624 1.747 1.105 1.506-4.365 2.516-3.941 3.343.592 1.138 7.472-2.725 9.398-.763.66 1.064-1.53 1.398-1.06 2.127.656.76 5.304-2.886 8.034-1.063 1.02.748-3.22 2.363-2.574 2.885 1.042 1.133 9.024-5.134 10.818-2.832 2.162 2.843-6.7 4.016-5.816 5.414.96 1.558 10.552-5.937 13.418-3.905z" fill="#FFF"/><path d="M351.292 239.716c.361-2.584-.247-5.372-.84-7.57-4.097-.15-10.944-2.04-10.912-3.948.482-2.567 9.562-3.744 15.471-4.352 1.256-.177 1.434-1.42.184-1.598-6.067-.915-13.122-1.465-17.479.784-3.098 1.478-8.434 7.662-8.793 4.86-.603-4.708 1.062-8.355 1.52-12.454-1.215-.454-3.518-.191-4.578 1.021-2.731 10.482-5.28 20.244-11.797 29.204 16.222 5.618 12.275 24.6 15.919 37.968 0 0-1.613 1.738-2.427 0-3.332-9.718-1.944-20.211-7.499-28.898-1.801-2.446-5.552-3.698-8.913-4.14-3.444 5.007-12.526 6.026-12.393 26.81.608 1.974 5.263-4.264 6.975-1.514-1.255 19.733 6.964 28.531 21.295 24.23 2.658-11.025 6.558-22.301 12.472-31.257-5.413-15.872 4.213-25.503 11.795-29.146zm9.957-12.893c-3.471.152-11.81.346-11.79 1.377.178 1.076 2.317.526 3.57 1.061 1.214 4.708 2.123 13.887.61 15.34-6.677 4.713-13.342 11.24-11.529 20.353 3.946-4.255 10.87-11.315 17.862-14.512-1.429-2.152-1.679-8.781 1.544-11.473 1.543-.456 3.64-.539 7.429-.593 1.601.304 2.178 1.725 1.519 2.58-1.214 1.519-8.148 2.033-6.621 5.109 1.727 3.492 9.65-1.683 14.96-2.983l-.365-2.842c-8.336-.91-6.52-11.197-9.094-16.817-2.093-3.329-8.997-2.362-8.095 3.4zm27.503 58.73c-2.298-.855-5.514.215-8.27-1.394-3.624-2.542 2.797-10.919-.166-12.562-3.12-1.727-18.811 16.176-20.77 27.978 10.316-2.245 21.828-3.492 33.81-2.882 1.691-.508.477-8.81-4.604-11.14zm-86.663-2.684c-.7-1.142-2.752-.813-3.334.848-.978 7.806-1.305 14.304-2.876 22.091 4.394 9.867 9.091 20.502 6.21 32.499 7.585-8.502 15.922-17.01 25.774-21.111l-1.06-11.692c-15.49.842-22.603-5.257-24.714-22.635zm56.356 20.932c-.925.346-1.017 2.31-.053 2.89 1.173.621 22.831-5.863 22.533-6.355-.816-1.765-16.845 1.911-22.48 3.465z" fill="#E9BF9B"/><path d="M216.136 219.39v4.862c2.878-1.423 5.761-2.875 8.338-3.647l-8.338-1.216zm83.38-25.06c16.413-3.52 37.276-6.53 53.513-5.164 0 0-24.45-56.154-109.153-58.32-1.748 15.383-10.168 23.736-17.13 36.45 50.734-4.418 64.003 4.74 72.77 27.033zm43.166 17.104c-5.754.39-7.694 5.68-7.846 9.476 10.158-6.987 24.862.151 35.931-4.708 3.941-2.28 6.823-6.226 7.277-10.63-10.482 9.993-20.83 5.25-35.362 5.862zm-114.695 67.49c2.827 17.397 21.352 29.047 36.205 26.124 1.97-37.664 52-52.55 58.213-88.543-5.757.61-11.066 2.277-16.372 3.644 0 0-2.719 20.765-24.16 27.434-10.83 2.9-19.545-.363-24.704-2.512-2.232-.907-5.009.593-7.103 1.188-26.53 10.937-40.146 38.141-57.58 59.55-.358.894-.485 2.394.951 2.94 5.03 1.6 12.293-2.212 17.238-6.132 8.673-7.554 13.59-16.304 17.312-23.694zm17.678-38.724c1.1-.707 1.37-2.224-1.367-1.687-13.995 3.569-71.522 26.7-119.77 98.838-.715.902-.372 1.8.343 1.262 7.93-7.885 14.295-12.516 22.433-18.025 4.1-2.79 6.397-7.368 9.254-12.195 18.78-31.762 62.691-57.992 89.107-68.193zm5.2 2.181c.893-.36.109-1.604-.966-1.064-36.537 15.946-74.545 38.368-95.204 75.736-.488 1.028.828 1.196 1.62.857 8.787-3.14 17.256-5.36 27.362-8.267 1.478-.433 3.851-2.479 4.255-3.096 16.287-24.684 35.863-50.98 62.932-64.166zm137.03 19.685s-2.264-15.297-18.506-11.86c-6.889 1.798-17.206 9.634-24.092 18.086-16.34 20.077-14.054 43.285-11.176 66.529.15 1.226 1.05 1.057.963-.043-1.47-19.92 3.848-36.718 8.392-44.919 1.025-1.185 2.217-.087 1.82.609-10.367 19.338-5.128 43.58-11.788 68.798-.203.825.417.737.609.329 5.597-10.746 6.748-45.599 13.399-54.374.628-1.074 1.43-.134 1.116.585-5.842 19.11-4.025 36.93-13.967 56.784-.188.475.266.486.427.265 8.418-11.489 11.384-37.921 17.937-57.81 5.545-16.833 15.765-37.508 34.866-42.979zm-91.892 1.121c-1.896-1.587-35.64 34.704-28.655 62.128 3.941 1.519 7.991 5.068 11.097 7.523-.111-17.726 15.283-23.805 15.159-52.848 0 0-3.435-4.893-2.48-5.471.825-.425 2.382 1.63 2.937 1.37.685-.606 2.753-11.833 1.942-12.702zM229.46 295.04l-3.168-7.003c-3.168 6.495-9.21 15.205-17.242 20.214-1.424 1.392 2.102 1.327 4.294.942 6.026-2.226 12.023-9.127 16.116-14.153zm19.695 30.497c-10.158-5.32-15.988-14.304-15.533-25.845-.453-.46-1.295-1.397-1.874-1.934-3.488 4.562-9.397 10.007-13.793 13.21 11.368 3.34 21.445 8.483 30.844 16.527.894.9 1.967-1.245.356-1.958zm14.278-15.018c-9.098.608-17.683-1.844-25.77-7.302 0 0 .474 17.528 25.77 20.507v-13.205zm29.451 1.434c-3.184 4.874-12.774 20.733-12.322 34.71 3.944 1.211 6.908 4.331 10.158 6.986 1.726-9.628 12.362-18.53 5.376-39.816-.703-2.548-1.986-3.817-3.212-1.88zm-15.654 23.773s-18.678-12.428-22.895-8.048c-3.94 3.226 6.813 13.31 9.5 14.923 2.863 1.978 12.787 2.237 12.787 2.237-.301-3.19.456-6.073.608-9.112zm20.465 38.576c3.775-9.019 5.566-26.535 2.123-28.703-1.61-.718-7.317 14.165-9.65 19.905 1.692 1.741 4.867 4.963 7.527 8.798zm-8.794-17.46c-5.815-6.372-17.169-10.25-19.652-7.998-1.53 1.989 1.157 5.112 2.52 7.689 3.033 6.074 9.245 7.14 15.008 8.055.693-2.89 1.504-4.893 2.124-7.746zm4.095 27.07c1.074-.18 3.817-5.37 3.28-6.81-3.336-6.072-13.337-10.94-15.714-9.63-1.927 1.6-.134 6.488 1.06 8.656 1.698 3.95 10.37 8.292 11.374 7.785zm2.51 2.65c.923 2.921 2.838 4.628 3.554 7.793 3.264-5.24 5.193-18.654 3.334-19.603-1.075-.357-6.173 10.738-6.888 11.81zm-10.241-1.324c-1.214.482-.939 4.898-.485 7.325.608 4.727 8.795 9.484 9.856 9.173.852.095 2.601-2.678 2.601-4.8-1.818-5.013-9.715-12.331-11.972-11.698zm11.672 19.447l3.943 5.46c3.152-4.25 4.507-13.698 2.757-14.984-1.228-.76-4.577 6.172-6.7 9.524zm-9.852-3.04c-1.435-.365-1.614 3.506 0 4.4 4.547 3.042 8.25 7.664 10.375 12.674.896 1.615 2.012-1.455 1.472-3.425-1.21-5.314-6.542-11.834-11.847-13.65zm1.514 9.864c-1.077-.895-3.845 1.795-2.233 3.053 2.961 2.618 8.281 7.927 9.318 10.452 2.934-2.366-2.539-10.007-7.085-13.505zm-.744 9.357c-1.295-.31-2.58 1.858-1.405 2.548 2.507 2.128 5.194 4.835 7.194 7.43.356.357 1.255-.251 1.074-1.328-1.367-3.344-3.817-7.594-6.863-8.65zm-1.53 6.751c-.717-.19-1.506 1.986-.606 2.883 2.73 1.665 3.498 3.572 5.62 5.811.777.531 1.407-.404 1.196-1.164-.829-3.065-4.067-6.532-6.21-7.53zm-.603 7.282c-1.793 3.093-3.269 8.727-.76 10.177 2.468.993 4.381-4.378 4.93-5.815-1.418-1.491-2.658-3.297-4.17-4.362z" fill="#FFC62F"/></g></svg>