<svg width="512" height="512" viewBox="0 0 512 512" xmlns="http://www.w3.org/2000/svg"><title>new-england-patriots</title><g fill="none" fill-rule="evenodd"><path d="M489.243 157.203c-45.947 13.338-83.803-18.429-140.832-17.464l-.088-.005s-78.381-2.315-153.734 26.038c-75.913 27.143-127.934 47.732-177.063 53.638-11.543 1.812-12.628 19.396 1.18 20.308 45.439 1.718 76.154-1.49 106.185-7.499-4.277 13.202 9.014 14.533 9.21 14.542 35.673 4.473 64.614.796 92.808-5.075-7.195 8.702-1.369 16.499 4.836 17.812 106.37 18.843 146.884 72.806 185.804 111.156 10.922-1.432 34.246-15.33 26.732-43.447 0 0 2.867-6.24 2.863-11.161l13.438-8.042s-5.686-28.407-6.386-31.674c7.368-3.847 20.745-10.549 20.745-10.549s24.24-85.516 27.161-96.525c2.614-9.877-7.6-13.579-12.86-12.053zm-470.34 72.312c84.969-11.594 155.1-52.006 227.28-68.341 2.27 8.826 6.385 26.449 6.385 26.449-103.272 21.763-114.183 45.707-233.664 41.892zm115.224 7.018c56.463-8.245 90.586-29.312 122.57-36.044 1.89 7.89 4.341 15.99 5.934 22.385-83.961 22.89-128.504 13.66-128.504 13.66zM466.33 258.73a459.688 459.688 0 0 0-23.823 12.29c2.74 10.437 4.228 21.675 6.7 32.058l-12.282 7.177.042 7.559-3.864 10.097c4.533 6.009 3.257 14.708-.298 20.771-2.99 4.895-7.802 8.568-12.58 11.281 0 0-69.057-94.016-186.701-110.513 33.115-5.248 45.67-20.413 102.867-20.256-20.306-11.21-46.303-12.103-70.07-6.767-1.274-5.02-5.712-23.111-5.712-23.111 15.31-4.377 31.14-6.19 47.328-7.34-15.466-5.892-32.615-6.545-50.427-4.989-2.133-8.898-3.96-17.532-6.34-26.831 30.429-6.979 64.42-10.448 96.97-10.214 38.114.271 89.144 17.544 89.144 17.544 17.252 4.797 37.296 4.782 54.883-.506-2.534 11.06-25.837 91.75-25.837 91.75zm-22.91-56.036c-1.14-4.65-3.392-17.9-4.054-19.167l-11.605 15.052s-15.663-4.103-24.376-5.865c5.47 5.763 10.853 10.988 15.712 16.713-4.606 6.998-10.513 13.64-15.335 20.375 8.913-3.024 17.978-5.714 26.89-8.808 6.448 6.542 13.342 13.675 19.717 19.947-1.102-8.53-3.629-17.076-4.436-25.14l20.24-6.895c-7.302-2.36-15.247-3.938-22.752-6.212z" fill="#FFF"/><path d="M437.28 167.483s-51.027-17.278-89.145-17.544c-32.549-.232-66.54 3.235-96.97 10.213 2.381 9.301 4.209 17.93 6.342 26.831 17.812-1.554 34.96-.906 50.429 4.99-16.195 1.148-32.02 2.96-47.33 7.339 0 0 4.435 18.094 5.71 23.11 23.768-5.336 49.765-4.444 70.07 6.766-57.195-.154-69.752 15.01-102.865 20.259C351.165 265.943 420.222 359.96 420.222 359.96c4.78-2.715 9.59-6.386 12.58-11.282 3.557-6.061 4.831-14.764.299-20.772l3.864-10.1-.043-7.554 12.28-7.18c-2.47-10.381-3.959-21.62-6.7-32.056a459.33 459.33 0 0 1 23.825-12.29s23.305-80.688 25.835-91.753c-17.581 5.292-37.627 5.305-54.881.51zm-14.013 131.289l-2.971 3.733c3.312 1.227 7.01 3.42 10.26 4.724l-.242 4.118-8.963.24-11.389 8.979s8.773-1.492 13.325-2.735l8.448-.004c-.915 2.487-1.918 4.643-2.98 6.864l-8.345.346s5.067 6.043 8.563 9.927c3.923 6.667-6.864 14.848-6.864 14.848-19.308-21.596-40.29-44.28-65.911-58.875 2.602-4.038 6.473-6.193 11.051-5.704 9.528 1.852 17.717 8.29 20.002 10.712 2.965 3.158 8.364 11.256 9.973 12.414-.804-6.498-3.121-13.075-4.68-19.612l-28.893-19.848c3.036-8.087 13.489-13.739 22.6-14 8.832-.26 17.458-.182 23.996 4.991-15.07-.205-20.496 7.391-22.726 14.361-.11.545 30.787-.123 30.787-.123 1.159-3.18 1.63-6.6 3.898-9.283 2.371-3.438 6.742-4.637 10.54-4.728.723 2.55 7.5 38.287 7.5 38.287-5.909.111-11.017-.01-16.979.368zm27.105-57.834c-6.375-6.272-13.27-13.406-19.716-19.947-8.914 3.09-17.977 5.783-26.89 8.807 4.819-6.732 10.728-13.38 15.334-20.377-4.86-5.724-10.24-10.947-15.71-16.71 8.707 1.764 24.375 5.864 24.375 5.864l11.604-15.05c.662 1.267 2.913 14.519 4.056 19.167 7.507 2.273 15.45 3.853 22.753 6.21l-20.24 6.895c.805 8.066 3.335 16.61 4.434 25.14z" fill="#024"/><path d="M422.204 264.847c-2.265 2.681-2.74 6.103-3.898 9.283 0 0-30.896.668-30.786.122 2.225-6.969 7.652-14.564 22.725-14.36-6.538-5.174-15.168-5.248-23.996-4.99-9.11.26-19.564 5.91-22.6 14l28.892 19.847c1.562 6.538 3.876 13.114 4.68 19.613-1.606-1.158-7.005-9.26-9.972-12.415-2.285-2.422-10.476-8.86-20.002-10.712-4.575-.491-8.447 1.666-11.051 5.705 25.62 14.594 46.602 37.278 65.911 58.874 0 0 10.787-8.183 6.86-14.848-3.492-3.886-8.56-9.926-8.56-9.926l8.346-.347c1.064-2.218 2.065-4.376 2.979-6.864l-8.446.003c-4.553 1.244-13.326 2.736-13.326 2.736l11.39-8.98 8.963-.24.24-4.117c-3.248-1.301-6.949-3.497-10.26-4.724l2.972-3.733c5.962-.379 11.067-.257 16.972-.367 0 0-6.774-35.738-7.497-38.287-3.796.09-8.165 1.29-10.536 4.727" fill="#B0B7BC"/><path d="M256.586 205.937c-28.797 6.06-59.522 25.029-110.36 32.454 0 0 40.105 8.308 115.703-12.3-1.433-5.758-3.642-13.05-5.343-20.154zm-9.469-35.4c-64.992 14.71-128.135 51.095-204.64 61.534 107.58 3.435 117.405-18.126 210.387-37.72 0 0-3.702-15.87-5.747-23.814z" fill="#C60C30"/></g></svg>