<svg width="512" height="512" viewBox="0 0 512 512" xmlns="http://www.w3.org/2000/svg"><title>new-england-patriots</title><g fill="none"><path d="M497.253 165.927c-62.235 14.698-64.953-21.346-158.556-27.955-125.982-8.897-231.851 45.992-316.457 53.03-18.38 1.524-15.996 16.826-2.788 19.418 31.889 7.443 64.793 6.496 94.906 2.462-1.008 2.423-2.024 6.162 1.341 9.032 11.928 10.139 59.878 11.007 80.929 9.796 7.147-.409 22.405-1.85 22.405-1.85-4.35.408-11.15 13.669 3.226 17.403 88.848 24.876 130.65 65.045 178.639 128.31 19.5-2.493 37.858-25.954 30.034-43.865l3.89-9.618 14.364-6.647-4.116-32.088 21.893-10.313s34.107-91.653 36.104-98.323c1.998-6.678-2.136-9.66-5.814-8.792" fill="#FFF"/><path d="M250.72 178.542c-61.597 3.638-135.513 38.453-229.623 22.935 83.412-11.26 147.002-38.849 224.565-49.835l5.058 26.9z" fill="#C60C30"/><path d="M261 214.157c24.97-2.684 46.994-1.833 70.997 12.804-50.064-5.432-74.58 8.554-105.787 11.663 110.25 28.932 150.615 90.755 177.953 125.014 19.11-8.12 20.139-24.728 15.275-30.651l4.92-10.551.226-6.77 13.174-6.161-4.169-32.826 24.668-10.1 32.683-89.465c-55.375 11.49-73.317-24.32-152.1-29.205-32.092-1.993-60.993-.517-88.127 3.04l4.42 27.39c18.137-.626 35.206 1.68 51.402 9.049-17.807-1.103-33.83.373-49.461 3.273l3.925 23.496z" fill="#024"/><path d="M257.36 214.538c-34.076 4.017-73.602 13.543-130.632 2.797 49.153-1.338 85.948-17.79 126.447-25.875l4.186 23.078z" fill="#C60C30"/><path d="M346.052 289.647c29.8 20.868 45.106 43.99 60.638 64.229 7.898-3.283 10.373-12.45 7.776-15.688l-7.52-9.258 8.554.504 3.925-6.822-10.634-.63-11.98 2.163 12.15-8.32 9.248.543.343-5.267-9.453-4.524 3.248-3.552 17.482 1.09-5.024-38.923c-6.909-.842-12.718 2.78-15.228 12.77l-30.98-1.823c4.359-9.883 11.15-14.33 24.037-12.688-7.23-10.126-42.461-11.063-47.438 4.824l27.351 22.414 3.54 20.486-11.238-16.309c-10.104-8.745-20.716-14.88-28.797-5.219" fill="#A5ACAF"/><path fill="#FFF" d="M437.723 189.27l2.202 19.548 22.001 8.259-20.642 5.175 2.04 26.353-17.85-22.271-26.695 6.287 16.496-19.205-13.604-18.024 22.783 7.82z"/></g></svg>