<svg width="512" height="512" viewBox="0 0 512 512" xmlns="http://www.w3.org/2000/svg"><title>new-orleans-saints</title><g fill="none" fill-rule="evenodd"><path d="M370.36 218.755c-25.97-15.108-51.51-11.592-70.888-2.957-.864-6.38-2.521-13.376-5.294-21.56-4.108-12.186-8.61-23.83-12.574-34.106-5.222-13.501-9.194-25.057-11.372-32.79l-14.128-48.438-14.66 48.474c-2.25 7.695-6.106 19.324-11.3 32.844-3.945 10.257-8.412 21.92-12.492 34.107-2.746 8.202-4.403 15.198-5.25 21.578-19.387-8.599-44.945-12.023-70.879 3.12-21.171 12.42-32.526 33.962-29.615 56.259 2.674 20.262 16.523 36.233 36.163 41.642l14.623 4.003 3.584-14.746c.513-1.982 5.791-20.441 22.407-20.118 11.507.216 21.099 10.42 25.869 17.018-1.548 4.65-2.376 10.238-1.584 16.26l-6.493-8.688-11.779 8.796c-10.592 7.894-25.988 27.4-16.47 50.438 4.15 10.06 13.058 16.908 25.096 19.29 7.359 1.476 15.734 1.152 23.478-.58 3.043 9.806 8.617 21.667 18.72 32.268l10.662 11.14 10.635-11.175c10.102-10.601 15.614-22.465 18.673-32.304 7.748 1.693 16.105 2.018 23.468.538 12.016-2.415 20.912-9.3 25.052-19.358 9.457-23.075-5.996-42.542-16.585-50.44l-11.796-8.724-6.484 8.69c.773-6.024-.072-11.612-1.622-16.262 4.754-6.635 14.301-16.837 25.827-17.09 16.64-.359 21.937 18.063 22.494 20.19l3.584 14.746c0-.108 14.59-4.18 14.59-4.18 19.667-5.41 33.461-21.42 36.092-41.717 2.846-22.28-8.537-43.821-29.752-56.168" fill="#000"/><path d="M251.242 129.449c-1.792 8.436-6.403 20.461-11.753 34.36-3.907 10.183-8.356 21.721-12.353 33.69-3.837 11.502-5.404 20.082-5.404 28.068 0 2.56.279 5.048.567 7.589-14.786-10.166-43.927-24.083-75.722-5.462-17.651 10.312-27.125 28.047-24.745 46.292 2.132 16.189 13.2 28.95 28.896 33.276l4.646 1.262 1.164-4.688c.297-1.154 7.285-28.3 32.345-27.797 20.163.432 33.347 20.046 36.911 26.067-1.701 3.137-3.106 7.462-3.106 12.402 0 5.337 1.81 11.395 6.42 17.45-1.83 2.486-4.845 5.55-8.376 5.84-5.015.432-10.085-4.866-13.463-9.373l-2.816-3.784-3.767 2.848c-7.708 5.73-20.396 21.198-13.218 38.575 2.873 6.96 9.032 11.573 17.811 13.306 9.078 1.802 20.533.18 28.664-3.535 1.567 9.197 6.026 24.733 18.83 38.11l3.397 3.57 3.404-3.606c12.77-13.376 17.188-28.95 18.74-38.145 8.158 3.713 19.61 5.301 28.69 3.462 8.77-1.766 14.912-6.344 17.758-13.304 7.131-17.413-5.584-32.879-13.31-38.578l-3.766-2.81-2.81 3.75c-3.348 4.542-8.427 9.84-13.451 9.445-3.514-.288-6.538-3.352-8.396-5.84 4.576-6.057 6.395-12.078 6.395-17.378 0-4.977-1.438-9.34-3.133-12.476 3.55-6.057 16.678-25.706 36.847-26.14 25.052-.577 32.114 26.535 32.384 27.69l1.188 4.721 4.648-1.297c15.704-4.363 26.727-17.124 28.816-33.37 2.342-18.223-7.169-35.925-24.853-46.234-31.863-18.532-60.983-4.544-75.734 5.676.271-2.431.56-4.884.56-7.371 0-8.076-1.585-16.8-5.44-28.284-4.032-11.953-8.5-23.47-12.417-33.637-5.393-13.899-10.04-25.904-11.843-34.341l-4.629-21.631-4.576 21.632" fill="#FFF"/><path d="M256.204 410.664c18.036-18.964 18.235-42.868 18.235-42.868 7.994 7.968 39.008 13.304 45.962-3.677 7.62-18.64-11.742-32.989-11.742-32.989-18.784 25.165-31.374.505-31.374.505 14.3-15.466 3.565-29.384 3.565-29.384.94-2.813 16.788-30.537 42.18-31.096 29.249-.648 37.065 31.312 37.065 31.312 30.69-8.508 36.633-51.321 2.847-70.97-42.828-24.95-80.163 13.05-80.163 13.05 3.475-14.223 4.448-24.858-2.54-45.607-9.51-28.159-21.144-53.304-24.386-68.52-3.234 15.215-14.813 40.415-24.25 68.573-6.952 20.784-5.926 31.402-2.44 45.624 0 0-37.418-37.909-80.201-12.87-33.714 19.74-27.69 62.534 3 70.972 0 0 7.754-31.978 37.02-31.404 25.395.522 41.306 28.195 42.25 30.972 0 0-10.696 13.989 3.63 29.418 0 0-12.544 24.697-31.374-.47 0 0-19.342 14.46-11.669 33.063 7.006 16.946 37.991 11.537 45.962 3.533 0 0 .27 23.939 18.342 42.83" fill="#000"/><path d="M332.936 230.164c-34.85.036-63.46 39.66-63.46 39.66 1.235-6.473 16.166-35.658 2.673-70.537-13.496-34.881-16.26-48.926-16.26-48.926l-.056.416v-.398s-2.727 14.042-16.135 48.96c-13.408 34.901 1.565 64.048 2.817 70.537 0 0-28.68-39.568-63.548-39.53-34.858.034-63.89 39.75-31.671 63.22 0 0 9.428-29.311 41.92-29.387 23.908-.034 47.841 25.637 48.85 38.362 0 0-10.93 15.467 4.287 28.373 0 0-16.433 34.612-39.228 9.7 0 0-17.52 21.92 5.387 27.22 18.181 4.217 36.083-14.242 36.083-14.242s-1.954 29.166 11.51 45.103v-.145l.08.145c13.426-15.97 11.41-45.14 11.41-45.14s17.937 18.424 36.11 14.169c22.909-5.372 5.33-27.255 5.33-27.255-22.71 24.948-39.226-9.591-39.226-9.591 15.164-12.943 4.188-28.41 4.188-28.41.981-12.692 24.864-38.433 48.781-38.433 32.49 0 42 29.274 42 29.274 32.165-23.54 3.025-63.198-31.842-63.145" fill="#9F8958"/></g></svg>