<svg width="512" height="512" viewBox="0 0 512 512" xmlns="http://www.w3.org/2000/svg"><title>new-york-giants</title><g fill="none" fill-rule="evenodd"><path d="M402.014 138.286H355.96l.085 109.053c-.026 2.618-.719 15.9-11.686 15.904-4.055.005-5.907-1.401-6.946-2.458-3.44-3.501-4.093-10.233-4.056-12.531l-.08-109.967h-74.715l.025 44.438 8.483-.003c7.754-.002 10.303 1.986 11.04 2.841.726.845.847 1.922.847 2.56 0 .312-.03.52-.033.544l-.112.583-.032.991.042 73.183c.01 14.223 4.707 26.426 13.574 35.295 9.23 9.23 22.511 14.305 37.396 14.29 10.964-.007 19.758-2.67 26.388-5.82.007 1.056.02 2.141.02 3.164 0 7.477-.227 13.865-1.378 15.257-.298.233-1.952 1.14-9.72 1.147H123.93v51.146h237.912c17.419-.01 30.593-5.074 39.149-14.864 8.538-9.772 9.613-21.607 9.613-27.729 0-1.548.063-2.678 0-3.372-.004-.783 0-193.651 0-193.651h-8.591v-.001zM123.93 309.854l52.917-.04-.08-113.688-.066-.585c-.005-.047-.47-4.607 2.093-7.474 2.364-2.641 6.935-3.198 10.355-3.201 3.694-.001 6.33.848 8.058 2.6 2.472 2.505 2.97 6.763 2.95 8.193v.215l.072 85.735.006-.306c-.046 1.316-.224 13.083 7.66 21.262 4.556 4.726 10.855 7.224 18.213 7.223l45.369-.041-.027-44.838-9.683 1.266c-1.113.145-4.716.192-6.582-1.448-1.514-1.332-1.997-4.083-1.999-6.156v-80.856.346c.029-.728.671-17.97-11.373-30.517-7.936-8.271-19.113-12.458-33.213-12.448-14.535.016-25.056 4.057-32.561 9.04l-.004-5.85h-74.018l.027 46.54 10.308-2.188c2.064-.439 7.073-.67 9.383 1.414 1.68 1.511 2.196 4.532 2.196 7.207v118.595h-.001z" fill="#A71930"/><path d="M283.503 263.423c.01 12.953 4.215 24.013 12.185 31.986 8.35 8.35 20.46 12.94 34.1 12.927 14.528-.01 24.873-4.953 31.004-9.076l.022 3.433c.027 2.905.053 5.577.053 8.02 0 9.764-.41 15.838-2.724 18.179-1.719 1.742-5.499 2.454-13.04 2.462l-216.506.154v41.806l233.24-.176c16.02-.013 28.012-4.447 35.64-13.177 7.547-8.638 8.662-19.097 8.662-24.51 0-1.664-.103-2.82-.16-3.33l-.141-189.162H360.63l.083 104.374c-.003.831-.267 20.572-16.348 20.582-4.376.006-7.75-1.266-10.308-3.886-5.537-5.677-5.365-15.772-5.365-15.873.004-.103-.076-105.197-.076-105.197h-65.389l.026 35.088 3.814-.001c7.127-.004 12.205 1.586 14.682 4.594 2.475 2.998 1.785 6.67 1.754 6.826v73.957zM128.6 305.177l43.579-.033-.075-108.792-.034-.26c-.007-.065-.777-6.558 3.188-11.07 2.813-3.201 7.484-4.826 13.89-4.831 4.97-.004 8.82 1.358 11.435 4.046 4.37 4.488 4.243 11.441 4.242 11.509l.074 85.855c-.015.304-.304 10.804 6.355 17.712 3.708 3.846 8.707 5.795 14.856 5.795l40.7-.034-.021-34.909-4.38.638c-.064.009-6.33.872-10.253-2.527-2.301-1.993-3.47-5.26-3.47-9.706l-.057-80.855c.024-.493.507-15.809-10.173-26.936-7.026-7.312-17.068-11.018-29.852-11.008-19.147.02-30.692 7.455-37.222 14.171l-.008-10.981h-64.688l.024 36.145 4.655-1.037c.085-.02 8.609-1.855 13.46 2.476 2.453 2.19 3.775 5.768 3.775 10.667v113.965z" fill="#0B2265"/></g></svg>