<svg width="512" height="512" viewBox="0 0 512 512" xmlns="http://www.w3.org/2000/svg"><title>new-york-giants</title><g fill="none"><path d="M283.35 204.305v35.008c.037-9.53.021-22.8 0-35.008" fill="#003d7e"/><path d="M431.006 334.105l-.14-211.782h-58.752v123.274c0 1.49-.026 2.982-.098 4.421a45.31 45.31 0 0 1-.114 1.713c-.562 4.479-3.281 8.307-7.146 10.526a15.31 15.31 0 0 1-7.672 2.048c-8.09 0-14.937-6.176-14.906-13.838l.072-128.144H261.1v48.01h14.967c4.02 0 7.286 3.271 7.286 7.296v26.675c.015 12.208.036 25.484 0 35.008v32.201c.95 15.454 10.144 29.59 21.815 36.221 11.743 9.277 40.255 13.544 55.646 8.121 0 0 7.105-2.239 11.109-4.922v11.924c0 2.838-.217 4.618-.996 6.82-1.95 4.227-6.238 6.44-13.043 6.6l-251.016-.01v55.811H378.93c8.28-.428 16.067-1.351 22.63-3.193 8.957-2.75 29.461-12.347 29.461-42.722 0-.444-.005-11.61-.015-12.058" fill="#FFF"/><path d="M270.684 267.803H258.22a7.29 7.29 0 0 1-7.296-7.29v-1.007c0-.103-.005-.196-.005-.304 0-1.708.005-3.441.005-5.19v-35.014c-.005-4.241-.005-6.857-.005-6.857l.005-11.026v-41.607a37.895 37.895 0 0 0-.769-5.279c-.836-3.797-2.487-8.693-5.804-13.533-6.925-10.087-15.701-15.587-27.548-18.668-18.714-4.726-38.872-1-52.56 9.468v-9.168H80.014L80 170.482h19.596a7.29 7.29 0 0 1 7.296 7.29v136.571h57.375V186.73l.005-1.342h.005c.01-7.646 6.48-13.838 14.468-13.838 7.879 0 14.287 6.037 14.452 13.544V289.19c0 3.039.573 5.944 1.579 8.627 3.503 9.437 12.564 16.165 23.218 16.165h53.82v-46.174l-1.13-.005z" fill="#FFF"/></g></svg>