<svg width="512" height="512" viewBox="0 0 512 512" xmlns="http://www.w3.org/2000/svg"><title>new-york-jets</title><g fill="none" fill-rule="evenodd"><path d="M461.932 255.07c0-56.075-91.92-116.163-207.015-116.163-110.19 0-207.016 60.455-207.016 116.162 0 55.706 96.826 116.164 207.016 116.164 115.095 0 207.015-60.09 207.015-116.164" fill="#203731"/><path d="M334.983 194.635v12.204h19.443l.125-.008c1.044-.068 2.747.207 3.133.832.337.586.23 2.694-2.45 6.883-.031.058-18.727 31.185-25.664 42.743l-27.367-43.785c-2.273-3.484-2.006-4.873-1.735-5.38.494-.926 1.256-1.18 2.841-1.282h14.146v-12.207l-105.422-.012v12.151h13.331c2.709 0 4.584.546 5.7 1.666 1.864 1.86 2.246 5.802 2.246 11.138v44.775l-53.385-69.69h-52.66v12.766h17.294c1.833 0 3.132.348 3.808 1.039 1.342 1.325 1.342 4.712 1.342 7.976v70.303c0 11.637-1.244 14.83-5.81 14.869h-16.776v11.257h56.454v-11.387H167.64c-2.68.024-4.6-.103-5.29-.78-1.484-1.478-1.612-7.977-1.612-13.959v-61.871l72.736 88.107h11.402s.08-98.077 0-99.818c-.13-2.666.6-5.712 5.359-6.323h11.329c5.243-.023 8.672 6.323 12.2 12.314 0 0 27.238 46.304 30.864 52.433v22.345c0 7.582-3.368 7.582-4.797 7.582h-12.783v11.391h67.011v-11.501h-12.23c-4.744-.255-6.391-1.618-6.208-8.656v-23.066l32.704-54.852c4.677-7.26 5.173-8.013 11.59-7.929H391v-12.268h-56.017" fill="#FFF"/><path d="M338.03 197.683v6.11h16.267s12.044-1.003 3.511 12.39l-28.198 46.938-30.004-48.002c-7.788-12.366 3.826-11.326 3.826-11.326h10.973v-6.11l-99.321-.015v6.06h10.278c9.862 0 10.99 6.355 10.99 15.85v53.759l-57.937-75.627h-48.102v6.675h14.247c9.091-.017 8.098 7.143 8.197 14.112v68.25c0 9.492-.392 17.85-8.832 17.913h-13.75v5.164h50.359v-5.298H167.64c-8.623.071-9.948-1.24-9.948-17.779v-71.093l77.232 94.282h6.307v-91.028c0-9.488.184-14.756 9.004-15.115h12.537c6.7.484 10.256 8.228 14.987 16.346l29.9 50.617v23.175c0 7.203-2.82 10.632-7.83 10.632H290.1v5.296h60.91v-5.411h-9.28c-7.436-.38-9.357-4.211-9.156-11.787v-23.818l30.81-52.04c6.883-10.332 7.264-13.075 16.572-12.948h8.003v-6.172H338.03" fill="#203731"/><path d="M301.79 311.368c0-13.779-20.817-28.545-46.873-28.545-24.948 0-46.88 14.857-46.88 28.545 0 13.683 21.928 28.536 46.88 28.536 26.052.002 46.873-14.76 46.873-28.536" fill="#203731"/><path d="M298.645 309.83c-1.524-11.792-20.37-23.85-43.728-23.85-22.361 0-42.112 12.122-43.731 23.85h87.46m-87.46 3.046c1.59 11.736 21.359 23.878 43.73 23.878 23.37 0 42.234-12.077 43.748-23.878h-87.478" fill="#FFF"/><path d="M239.103 321.555c-5.923 0-10.738-4.563-10.738-10.184 0-5.63 4.815-10.192 10.738-10.192h31.628c5.922 0 10.72 4.561 10.72 10.192 0 5.623-4.797 10.184-10.72 10.184h-31.628" fill="#203731"/><path d="M272.38 306.827l-.226-.902h-2.991c.117.317.197.64.28.967.242.957.412 1.944.495 2.955h-5.347a17.42 17.42 0 0 0-.438-2.72l-2.891.038c.267.859.45 1.755.554 2.68h-5.408v-2.55h-2.988v2.55H248c.114-.926.281-1.824.553-2.68l-2.881-.037c-.21.854-.35 1.776-.437 2.72h-5.36c.098-1.012.253-1.999.512-2.956l.265-.967h-2.988l-.214.902a20.825 20.825 0 0 0-.508 4.626c0 1.853.238 3.65.676 5.368l3.01.036a18.293 18.293 0 0 1-.767-3.961h5.362c.068.945.223 1.894.449 2.796l2.837-.034a14.235 14.235 0 0 1-.523-2.762h5.434v2.635h2.988v-2.635h5.431a14.328 14.328 0 0 1-.53 2.762l2.844.034c.227-.904.38-1.85.45-2.796h5.362a18.43 18.43 0 0 1-.762 3.961l2.99-.036c.45-1.719.698-3.515.698-5.368 0-1.594-.187-3.139-.511-4.626" fill="#FFF"/><path d="M391.326 234.811c-3.1-5.86-11.296-9.204-23.685-9.674-9.11-.3-16.251.173-21.91 1.627l-149.076.065c4.331-8.107 7.62-14.24 7.62-14.24H167.51l-25.248 47.515c-2.049 3-2.332 3.176-4.432 2.95a7.31 7.31 0 0 1-1.28-.227c.379-1.304 1.874-3.83 2.425-4.75-.016.03 8.787-14.455 8.787-14.455H113.48l-1.028 1.418c-9.411 12.965-12.202 23.418-8.265 31.062 3.764 7.342 13.02 11.023 27.504 10.933 14.617-.085 23.813-.776 31.133-5.554h74.374l19.168-35.793h16.525l-19.076 35.731h37.961l11.933-22.386h16.071l-.834 2.035c-2.935 7.21-1.355 11.987.476 14.723 3.6 5.36 11.33 8.084 22.968 8.11 19.608-.043 32.121-1.838 38.114-10.963 4.965-7.539 5.7-14.4 2.088-19.34-.99-1.395-2.564-2.608-4.43-3.653h10.807l1.017-1.623c3.797-6.11 2.822-10.715 1.34-13.51" fill="#203731"/><path d="M141.654 247.05h-26.42c-17.766 24.44-9.044 36.713 16.447 36.555 23.206-.14 31.36-1.626 41.033-19.312l25.834-48.277h-28.964l-24.392 45.866c-2.285 3.356-3.566 5.022-7.716 4.583-6.57-.69-4.78-4.532-1.45-10.14l5.628-9.275m117.89 30.934h30.174l19.02-35.43h13.905l6.659-12.361h-61.083l-6.507 12.067h16.889l-19.057 35.724m62.576-15.624c-4.612 11.335 2.37 18.071 20.283 18.11 19.387-.037 30.246-1.825 35.241-9.42 3.403-5.162 5.345-11.138 2.17-15.443-2.17-3.106-9.984-5.81-17.377-7.248-4.71-.916-6.364-2.045-6.04-4.824.298-2.524 3.445-3.112 5.803-2.419 1.901.558 2.733 2.928 2.425 5.403h22.446c6.076-9.783-.963-17.248-19.57-17.95-23.02-.756-31.795 3.484-36.431 15.208-2.315 5.43-1.935 9.613 1.436 11.83 4.205 2.755 15.84 4.506 19.31 5.79 2.103.783 2.396 3.36 1.215 4.886-1.384 1.75-4.685 2.583-6.775.96-1.436-1.114-1.196-2.498-1.678-4.883h-22.459m-144.732 15.694h57.75l6.477-12.073h-31.6l3.032-5.79h28.1l6.606-12.31h-26.424l2.653-5.56h28.565l6.431-12.068h-55.998l-25.592 47.801" fill="#FFF"/></g></svg>