<svg width="512" height="512" viewBox="0 0 512 512" xmlns="http://www.w3.org/2000/svg"><title>oakland-raiders</title><g fill="none" fill-rule="evenodd"><path d="M261.121 304.904c.144.052-.012.233.06.287.065.05.202.05.29-.054-.136 0-.018-.103-.042-.18-.094-.106-.203-.027-.308-.053" fill="#010101"/><path d="M254.809 89.163c-41.943 38.848-97.166 38.221-153.946 31.583-10.96 139.452 37.898 276.563 156.088 300.36 118.875-25.02 164.65-162.73 151.892-302.053-52.744 5.833-107.435 8.489-154.034-29.89" fill="#FFF"/><path d="M254.809 89.163c-41.943 38.848-97.166 38.221-153.946 31.583-10.96 139.452 37.898 276.563 156.088 300.36 118.875-25.02 164.65-162.73 151.892-302.053-52.744 5.833-107.435 8.489-154.034-29.89" stroke="#000" stroke-width="2"/><path d="M254.743 102.755c-34.99 29.082-90.525 36.737-143.686 29.448-6.754 127.136 35.697 250.94 145.437 278.568 109.354-29.059 150.701-153.07 142.32-280.13-54.11 6.612-108.698.754-144.07-27.886" fill="#000"/><path d="M298.89 321.411c-1.246 3.906-3.208 7.811-4.36 9.556 0 0 1.659 2.968 2.257 5.883 8.566 6.51 18.013 12.577 41.855 6.51-4.27-1.25-31.083-14.346-38.013-20.804l-1.74-1.145zm-88.002 4.479s4.055 6.325 5.463 7.107c0 0 1.727 1.511 1.143 6.928-9.553 7.29-32.991 10.441-44.95 5.832 0 0 28.63-11.612 36.508-18.85l1.836-1.017zm74.4-2.969c-.57.625-1.025 1.25-1.623 1.823-.221.207-.404.573-.69.78-.647.495-1.243.963-1.943 1.459-.754.468-1.247 1.768-.624 2.318.546.493 1.582.989 2.244-.027.364-.574 1.13-.677 1.573-1.068a7.665 7.665 0 0 0 2.414-4.322c.102-.6-.391-.886-.806-1.3.12.494-.52.337-.57.703l.025-.366zm-60.917 2.32c.716 1.872 2.318 2.679 2.797 3.462.772 1.197 1.137 2.472 1.89 3.645-1.253.729-2.194 2.76-3.426 2.16-.625-.311-.825-1.613-1.196-2.55-.972-2.345.345-4.325-.065-6.718z" fill="#FFF"/><path d="M246.035 189.795c-14.393.132-29.236 3.881-33.588 17.732.005 0-7.32 27.861-6.795 32.232-4.01 1.278-12.11 5.262-9.475 27.419 0 0 9.104 39.785 13.076 47.541l2.518.105s2.27-2.423 1.92 5.519c0 0-1.271 4.635 2.927 7.344 0 0 1.552-6.692 2.747 3.358.299 9.79 3.453 20.023 17.786 30.072 0 0 6.686-4.426 7.424-4.763 0 0-9.936-3.67-15.1-9.322 0 0 1.497 6.926-4.283-.91 0 0-2.773-2.656-4.504-20.803.11-2.527-.232-2.865-2.28-5.495-8-15.988-14.592-52.986.054-66.837 15.529-1.146 52.629-2.317 66.58.078 5.712 1.354 8.528 3.151 9.903 12.967 2.882 12.418 1.271 37.285-4.996 57.255 0 0-.922 4.295-3.168 6.378-1.83.988-8.526 5.753-11.718 12.863-1.195 2.473-3.818 4.869-8.23 6.847-4.437 2.707-20.838 7.03-14.296 14.19 0 0-1.857.887-5.14 1.823 0 0 .908 4.008 2.738 3.358 0 0 3.303-1.3 4.464-3.411 9.69 1.146 22.046-1.224 29.532-8.123 2.974-2.031 8.503-4.713 9.1-9.945 0 0 3.14-5.989-2.193-15.988 1.96-3.513 5.126-10.258 4.62-15.336.196-.286 16.755-19.657 18.546-46.135 0 0-2.493-15.545-1.687-.704 0 0-.195 2.577-1.596 10.129 0 0-3.023 11.532-1.416.468 0 0 .443-17.549-1.764-33.198 0 0-.57-5.805 2.673 2.656.442 1.51-.504-1.953-.504-1.953s1.62 10.702 1.945 3.126c-1.986-8.88-2.492-11.065-5.153-11.979-1.763-13.095-6.695-25.698-6.695-25.698l-1.194 1.458c4.544 12.315 7.8 53.35 6.827 65.17 0 0-2.622 23.252-5.075 21.691 0 0 3.57-39.237 1.674-53.768-.999-18.485-3.686-22.938-4.828-30.2 0 0-5.97-15.207.156-6.98l.726-.47c-5.295-13.251-13.146-19.657-36.658-19.89l3.73 57.646-21.14.26 1.81-57.777" fill="#A5ACAF"/><path d="M219.96 265.355c-.11-.027 4.706-.86 4.632-.86 5.211 0 17.476-.207 20.118.808 1.368.52 3.738-.754 4.917-1.224 4.413-1.796 4.953-2.188 9.58-5.026.772-.442 6.222-3.8 5.236-3.906-12.739-1.3-38.695-.885-43.815.703 0 0-2.142.39-2.746 1.068-2.4 2.734-1.882 2.941-3.537 6.715 1.069-2.472-.547 3.074-.688 3.568-.435 1.431 2.006 1.327 2.487.652.883-1.25 1.04-2.656 3.817-2.498m71.348 38.82c-.557 2.76-.883 5.598-1.816 8.255-.832 2.42-1.244 4.085-4.23 6.665-.676-5.26-2.181-7.864-1.909-9.818-2.011.809-1.726 3.828-1.908 6.589-.312 4.426.908 7.653.624 6.353.144.624-1.506 1.848-2.103 2.812-1.868 2.993-3.921 5.803-6.45 8.227-.376.364-.455 1.12-.845 1.277-1.402.621-1.79 1.56-2.595 2.524-.674.78-2.467 1.431-3.373 1.953-.57.313-2.337.807-2.83.91-1.063.236-2.038.208-3.654.13-1.557-.052-3.71-1.979-5.392-2.37-4.9-1.145-6.01 3.309-13.627 1.745-3.149-.65-3.804-2.76-5.782-4.972-.385-.418-2.272-2.682-2.556-2.993.79.833-5.27-4.766-6.464-9.14-1.325-4.87-.664-5.259-.138-9.4.207-1.534-.123-5.415-1.55-5.675-1.326 1.406-.345 2.317-.727 4.322-.364 1.926 1.413 1.98.083 6.326-.368 1.223-1.05.938-1.434.104-1.46-3.045-.785-9.71-4.023-12.262-.753-.6-.799-2.421-.194-2.89.98-.73 1.959.44 3.243.128.214-.05.06-1.613-.102-1.82-1.085-1.224-3.415-.705-3.393-.86.285-2.525.226-4.764-.636-6.015-1.195-1.667-2.922-1.928-3.622-3.592-1.517-3.438-1.031-5.444-1.167-6.354-.19-1.25-.5-3.229-.17-4.53-.357.078-.255-2.89-.227-3.074.202-2.186.598-2.083.902-4.115.045-1.275 3.148-2.056 3.2.86-.727 3.827.428 6.822.576 10.674.013.444.779.887 1.291 1.016 8.391 2.343 14.653 1.381 22.98 1.122 2.218-.055 3.543-2.865 3.998-5.052.765-3.647.746-4.87.74-8.827.402-1.066 1.388-.781 2.16.08 1.441 1.64.338 2.264.709 4.373.29 1.64-1.8 4.088-1.8 4.088.24 0-.662 5.57-.414 5.598.433 0-.28 4.972-.39 4.842-.299 2.683 1.545 1.694 1.287 3.673-.047.909-.5 2.16-.461 2.316.273 1.821-3.784 1.459-3.135 1.51-.888-.051-1.597-.442-1.57-1.145.047-1.043-.239-1.821-.234-2.735-1.985-.104-1.155 1.512-1.24 3.567-.056.91.554 1.641 2.077 1.875 1.616.26 1.785.442 2.531-.051.375-.287 1.648-.573 1.844-1.2.772 2.941 1.66 3.333 3.827 3.256.915-.028 3.057.313 3.861-1.822l1.849-1.016c3.745.705 1.472 2.267 5.995.782 1.363-.468 2.468-2.475 1.275-4.01-.144-.183-.87-.183-.892-.077-.46 3.93-2.004 2.786-3.477 2.707-4.821-.207-2.245-2.266-6.307.105-.48.259-1.901 2.238-3.821.728-2.597-2.266.18-3.958.455-6.485.265-2.29.103-9.478-.027-11.559-.293-4.922.986-1.954 1.79-4.088-.692.182-.376-6.015-.44-6.327-.448-2.215-3.005-1.328-3.686-2.163 0 0-.33-1.716.085-1.796 2.901-.599 6.568-2.265 9.22-3.593 6.095-3.072 9.527-4.973 12.474-6.849l1.699-1.717c5.595-.157 10.981-1.327 15.963 1.408 3.48 1.9 4.336 3.8 5.27 7.08-.39.08.364 3.517.389 3.828.104 2.163 0 6.121.052 7.215.234 7.159.65 9.606-.273 14.449 0 .027-.738 1.77-.972 1.77-.585.86-1.584 2.186-2.779 3.202-.389.338-.205 1.379.08 1.197.725-.522 2.179-.833 3.283-1.3-.016 3.046-.288 6.667-.977 10.052" fill="#FFF"/><path d="M281.264 269.963c.117 0-1.921-1.535-3.684-2.5-.806-.443-4.129 1.849-4.946 1.952-3.426.39-5.413.573-9.041.704-.902.028-2.187.079-2.727-.756-.329-.52-.297-1.51.1-2.004 1.075-1.406 3.244.964 4.54-2.63 0 0 4.102-.207 5.362-.259 4.295-.26 10.641-.26 10.07.234.521-.468 1.377 1.874 2.247 2.475 1.636 1.092 1.141-.391 1.895 1.873-.507-.467.468 1.354-.038.911-.016.235-.3 1.301-.418 1.407-.13.13-1.724-.416-1.959-.443.118.027-1.518-.964-1.402-.964m-20.667 3.071c2.504-1.483-1.901-1.874-1.084 2.449-.078-.418.818-.156.882-.34.116-.31.17-1.378.202-2.109m-2.414 9.843c.604 2.916.079 2.525-.221 5.233-.265 2.422 1.811 2.995 1.786.235-.099-10.285-.753-7.42-1.565-5.468m28.741 14.503c-.234.572-.61.598-1.076.91-.35.235-.74.755-.558 1.146.103.181.52.39.806.364.323 0 .596-.39.7-.65.194-.545.102-1.172.128-1.77m-25.873-3.544c.345.028.643-.258.662-.598a.663.663 0 0 0-.617-.676c-.342-.027-.65.26-.654.624-.02.34.252.65.609.65m22.55-17.34c-.934.47-1.726.367-2.62.887 1.377-.808-7.501-1.197-4.152-.937-2.362-.184-4.336-.677-6.814-.65l-.442.258c-1.233.313-1.882-.65-2.817-1.248-.66-.392-1.231.05-1.828-.028.129-.234-.22-.39-.116-.548.154-.235.571-.364.725-.417 1.063-.13 2.31-.051 3.322-.416 3.596-1.276 6.41.416 10.097.26 1.143-.053 2.726-.288 3.816.468.235.156.235.547.39.65.494.366 1.35.106 1.636.419.582.626-.547.965-1.196 1.303m-3.478 5.232l-.52-.337c-2.102.027-3.971-.522-5.904-1.327-.674-.26-1.312.259-1.985.364-.921.131-1.87-.26-2.648.053-.585.207-1.064 1.066-.57 1.327.725.417 1.932.339 2.893-.338 1.13-.755 2.557-.52 3.88-.234.339.103.702.311 1.063.311 1.298-.077 2.518.315 3.79.181m-13.368-3.28c.052-.286-.492-.207-.335-.547-.857-.234-1.676.548-2.518.208-.482-.181-.767-.676-1.228-.91-.032.674-.286 1.642.318 1.874 1.192.522 2.464-1.016 3.762-.26l.002-.364" fill="#010101"/><path d="M195.079 226.117l-7.734 7.784s6.938 10.625 7.813 11.014c1.376-2.655 3.685-6.35 6.776-6.586l.526-3.957-7.381-8.255zm-29.129-30.542h4.146c5.496 6.016 19.157 23.59 19.157 23.59l-2.031 4.973c5.25-4.477 8.253-7.42 10.175-10.232 3.79-4.165 7.248-.937 4.243 1.848-1.959 3.88-11.485 11.77-17.677 17.29-17.63 16.194-51.48-9.113-23.568-34.083l5.555-3.386z" fill="#FFF"/><path d="M160.681 205.105c3.044-3.853 5.83-1.745 3.393.495-1.83 1.694 1.688 5.443 3.945 4.53 1.806-.73 3.985 2.11 3.46 3.201-1.363 2.892 1.343 5.859 3.407 4.843 1.13-.547 3.542 1.301 2.751 3.02-1.2 2.554 1.345 5.417 4.14 3.984 3.011-1.562 1.336 2.578 1.336 2.578-15.151 13.072-37.69-11.403-22.432-22.651" fill="#010101"/><path d="M162.226 199.455c2.7.13 4.984-1.953 5.113-4.685a4.93 4.93 0 0 0-4.692-5.13c-2.7-.105-4.977 2.004-5.108 4.687-.11 2.732 1.987 5.023 4.687 5.128" fill="#FFF"/><path d="M163.782 191.514c2.997 1.562.461 5.962-1.499 5.52-2.115-.47-.493-.938-.493-.938 1.965.288 3.72-2.89 1.24-3.906-.936-.39.752-.676.752-.676" fill="#010101"/><path d="M340.708 194.117l-4.129.209c-5.216 6.274-17.961 24.526-17.961 24.526l2.258 4.869c-5.45-4.22-8.605-7.005-10.68-9.712-3.972-3.983-7.28-.573-4.142 2.031 2.156 3.775 12.058 11.196 18.508 16.403 18.43 15.31 51.019-13.253 21.909-36.817l-5.763-1.509" fill="#FFF"/><path d="M347.013 201.356c-2.594-2.656-4.633-1.094-3.893 1.118.833 2.502-2.205 7.264-3.762 6.276-2.05-1.275-4.09 2.186-3.298 3.384 1.297 2.03-1.142 6.092-3.14 5.024-1.116-.599-3.4 1.64-2.597 3.15 1.274 2.475-1.426 4.792-3.969 4.167-3.272-.806-1.195 2.656-1.195 2.656 15.78 12.29 37.665-15.281 21.854-25.775" fill="#010101"/><path d="M344.677 196.251c-2.698.262-5.14-.155-5.396-2.864-.234-2.706 1.778-6.664 4.489-6.923 2.698-.261 5.063 1.742 5.322 4.424.244 2.709-1.727 5.104-4.415 5.363" fill="#FFF"/><path d="M342.72 188.362c-3.817 2.267-1.026 6.25 1.777 5.444 2.09-.573.455-.938.455-.938-2.752.52-4.764-2.291-1.443-3.855.91-.416-.79-.65-.79-.65" fill="#010101"/><path d="M313.84 226.325c1.065.6 7.476 6.298 9.058 7.29-.893 3.906-7.007 16.115-8.358 18.225-.233-7.238-1.31-15.415-5.282-15.415l-.767-2.915 5.35-7.185" fill="#FFF"/><path d="M289.312 341.694c.284-2.186-1.649-4.218-2.96-2.474-.726.938-.777 2.682-1.648 3.567-2.374 2.449-3.88 2.916-5.256 4.426-1.494 1.616-1.947 2.683-.493 4.816.116.156.364 2.37 1.96 3.515 1.92 1.459 4.66-.102 7.515-3.773.635-.809.52-1.953.649-2.865.362-2.37-.106-4.79.233-7.212m-12.227 13.773c-.13 6.015-8.838 8.462-12.355 6.536-.584-.338-2.46-2.004-2.09-3.15.37-1.121 1.648-1.848 2.582-2.212 1.092-.443 2.012-.106 3.036-1.016 1.404-1.278 2.389-1.51 4.052-3.126.934-.91 2.777-.78 3.648-.102.907.703 1.45 1.276 1.05 2.967l.077.103" fill="#010101"/><path d="M286.754 346.407c-3.7 2.524-8.162 4.712-3.88 6.977.975.521 3.688-1.458 4.335-3.724-.026.13-.261-3.358-.455-3.253m-12.602 11.795c-.661.547-3.012 1.77-2.7 1.613-1.557.888-3.374 1.38-5.192 1.12-1.62-.286-.986-1.693-.622-1.744 4.568-.651 5.4-3.256 8.306-4.4.843.183 1.024 1.484.909 1.85-.077.287-.26 1.013-.7 1.561" fill="#FFF"/><path d="M239.429 304.28c-1.135 1.483.025 1.692-2.702 4.4-.79.779-2.233 1.354-2.932 2.343-.122.183-.11.834-.11 1.328 1.766.572 4.952-.86 8.332-.939 2.043-.079 4.044.6 6.094 1.016 3.633.702 6.975-.132 11.337-.418 5.23-.338 6.24.912 7.892.704 3.232-.39 5.203-2.005 3.803-1.614.35-.078-2.674.337-2.467-.131-.884-.155-1.455.34-2.207.443-1.766.233-3.535.156-5.425-.494-2.738-.887-5.756.52-8.619.52-4.639.053-9.818-1.588-15.606-.963-.566.079 4.698-4.295 4.314-3.774 1.519-1.93 1.825-4.53 2.136-3.699-.102-.258-1.55-1.69-3.84 1.277m6.377 14.918c3.979-.364 11.466 1.564 14.939.286-.006.339 2.919-.963 2.868.47-.09 2.004-4.905 1.665-6.19 1.379-3.479-.754-4.705.34-11.902.21-.305-.029-3.628.546-4.6-2.034-.246-.673 1.842-.805 4.885-.311m23.492-12.704c-.363.937.598 1.536 1.09 1.014.39-.365.313-1.432-.53-1.718.09.468-.431.417-.56.704m-1.57-1.902c-.375-.233-.753-.573-1.077-.65-1.245-.288-2.26-.964-3.517-1.146-.323-.051-.462-.6.052-.859.776-.39 1.647 0 2.466.259 1.063.367 1.244 1.64 2.115 2.163.259.156.95.233.752.598-.182.366-.883.208-.973-.365h.182" fill="#010101"/><path d="M271.48 309.878c.284 0 .52-.314.52-.705-.014-.366-.236-.676-.52-.676-.286.027-.52.314-.52.702.013.365.245.679.52.679m77.637-148.88c2.829 1.9 5.112 2.969 7.306 2.969 1.505-.028 2.311-.6 2.311-1.538-.014-1.352-1.494-1.51-3.893-2.004-4.97-1.043-7.514-3.75-7.567-7.993-.038-6.093 4.674-10.649 12.083-10.702 3.324-.052 6.477.78 9.826 2.552l-3.116 7.655c-2.037-1.484-4.154-2.24-5.996-2.212-1.466 0-2.27.546-2.26 1.408 0 1.43 1.962 1.613 5.428 2.342 3.867.832 6.515 3.696 6.541 7.783.051 6.222-4.856 11.014-12.462 11.093-3.816.026-7.706-1.042-11.46-3.176l3.259-8.177zm-196.789-3.487l1.637-.028c1.986-.026 3.082-1.04 3.064-2.838-.028-1.796-1.086-2.89-3.13-2.862l-1.616.026.045 5.702zm-10.369-13.124l13.128-.13c7.774-.079 11.784 3.488 11.856 9.739.025 4.165-2.169 7.081-5.542 7.524l7.864 11.793-11.707.105-5.17-9.608.084 9.633-10.253.104-.26-29.16zm53.055 17.836l-.916-3.281c-.421-1.589-1.036-3.593-1.244-6.405h-.197c-.142 2.812-.725 4.84-1.121 6.405l-.863 3.306 4.341-.025zm-8.006-18.514l11.628-.103 10.437 29.083-11.227.13-.967-3.698-7.892.079-.857 3.697-11.23.079 10.108-29.267zm31.148-.026l10.616-.104.266 29.162-10.61.103-.272-29.16zm38.767 14.243c-.033-3.826-2.173-5.624-6.403-5.57h-.443l.103 11.3c4.643-.132 6.775-1.773 6.743-5.73zm-15.891-14.45l8.447-.079c5.058-.053 8.84.418 11.545 1.72 5.03 2.472 7.86 7.16 7.924 12.707.039 4.814-2.076 9.033-5.912 11.715-3.756 2.656-8.234 2.968-14.055 3.02l-7.69.079-.26-29.161zm37.675-.365l19.455-.181.052 7.916-9.163.103v2.785l8.359-.051.052 7.471-8.332.078.04 3.048 9.434-.079.078 7.916-19.701.18-.274-29.186zm41.832 12.836h1.635c1.985-.025 3.075-1.068 3.064-2.864-.027-1.77-1.091-2.864-3.115-2.864l-1.637.026.053 5.702zm-10.358-13.123l13.122-.129c7.774-.053 11.784 3.488 11.85 9.738.04 4.166-2.182 7.083-5.556 7.525l7.893 11.794-11.707.104-5.193-9.58.105 9.632-10.255.079-.26-29.163z" fill="#FFF"/></g></svg>