<svg width="512" height="512" viewBox="0 0 512 512" xmlns="http://www.w3.org/2000/svg"><title>philadelphia-eagles</title><g fill="none" fill-rule="evenodd"><path d="M288.136 141.248l-19.784 21.088c32.548-14.71 103.397-40.764 103.397-40.764l-22.646 22.685c62.088-20.946 109.152-31.79 109.152-31.79s-13.438 31.524-33.6 63.375c3.902-.642 29.586-4.925 29.586-4.925s-22.923 38.414-49.55 66.594l14.955 2.82s-23.122 33.817-53.894 61.943c-44.036 40.567-66.96 35.79-66.96 35.79-32.837 24.806-59.258 14.399-59.258 14.399s11.111-28.48-.567-30.681c-10.794-2.226-26.889 6.665-28.855 10.063-1.96 7.121-10.729 25.352-19.757 36.621-17.346 21.636-36.773 31.068-36.773 31.068s-15.37-11.925-15.676-33.304c0 0-10.352 11.217-27.443 15.605-11.997 3.177-28.35 1.94-45.067-10.619-11.388-8.541-13.681-38.991-13.681-38.991s10.409-19.979 30.659-38.056c-4.583-3.55-7.368-8.104-8.182-10.97 53.883-25.563 53.852-47.398 96.605-76.067 42.263-28.255 68.814-41.682 117.339-65.884" fill="#ACC0C6"/><path d="M261.89 161.05l-16.9 18.037c33.525-16.002 104.26-43.009 104.26-43.009l-20.497 20.555C401.34 131.21 447.5 121.459 447.5 121.459s-14.861 33.2-34.754 61.86c9.606-1.468 29.933-4.71 29.933-4.71s-20.12 33.831-49.755 63.168c3.243.29 16.903 2.561 16.903 2.561s-17.908 26.857-49.096 55.002c-39.764 35.935-57.683 32.774-57.683 32.774s.448-1.33.282-3.402a7.6 7.6 0 0 0-.215-2.277c-30.595 29.722-56.352 21.433-56.352 21.433s11.173-27.22-6.421-31.696c-13.538-3.512-34.14 8.254-35.813 14.05-1.678 6.381-10.29 24.14-18.706 34.704-14.747 18.416-31.076 27.312-31.076 27.312s-14.895-10.331-9.917-43.012c1.016-7.137-.47-9.858-1.243-10.905-2.55-3.5-21.555 1.367-26.12 11.868-3.191 7.477 15.796 12.601 15.796 12.601s-8.717 9.826-24.005 13.674c-9.58 2.245-24.5 2.419-40.154-9.828-9.266-7.242-11.379-33.322-11.379-33.322s11.302-20.83 33.381-39.381c-4.378-2.638-7.772-7.155-8.574-8.928 44.741-20.886 50.643-47.62 101.076-79.703 23.447-14.914 48.236-29.772 78.282-44.252" fill="#004953"/><path d="M381.61 246.05c1.795.251 9.11 1.135 13.272 2.59-15.254 24.902-61.066 74.607-86.678 77.913-.38-4.267-1.98-7.632-4.065-9.924-9.48 17.534-38.898 29.461-51.196 27.425 14.558-53.514-48.357-30.188-53.123-15.515-12.139 38.176-43.99 57.303-43.99 57.303s-10.272-10.631-6.085-36.055c3.138-18.73-8.994-17.485-8.994-17.485-4.922-.12-23.323 3.023-29.09 15.747-4.605 10.206 11.797 16.47 11.797 16.47s-23.465 19.428-51.072-1.77c-6.736-5.301-9.448-28.605-9.448-28.605 13.08-21.783 30.366-36.101 37.556-41.454-7.647-2.516-10.031-6.143-10.031-6.143 36.724-18.275 50.894-46.137 82.131-67.813 34.422-23.943 60.74-36.3 60.74-36.3l-9.848 12.754s8.297-3.888 11.853-5.876c32.844-17.217 88.498-37.035 88.498-37.035l-17.267 17.09s28.714-10.975 64.975-20.282c19.28-4.967 59.654-15.224 59.654-15.224s-9.35 27.378-29.306 55.838c12.19-1.47 25.305-2.794 25.305-2.794s-13.966 28.193-45.589 59.146M231.63 217.1c-.443.194-.723.338-1.186.578.383-.24.692-.397 1.082-.56l.105-.018m-1.485.534l.298.044-.298-.044" fill="#000"/><path d="M274.084 278.49s-17.663-7.412-45.44 2.763c0 0 38.143-23.944 86.699-17.112-31.49-8.427-59.85-2.219-76.493 4.096-9.804 4.157-15.666 7.373-15.666 7.373s2.469-1.816 7.132-4.698c11.26-8.625 26.804-18.13 42.162-25.11 10.686-4.728 31.984-11.37 40.646-12.274 0 0-22.286-2.483-42.66 3.448 0 0 32.107-13.783 63.398-16.062 10.535-.615 34.472-.707 34.472-.707-34.602-8.112-70.455-8.259-94.92-3.392-13.843 3.927-24.894 7.868-24.894 7.868s1.995-.95 5.68-2.694c8.728-5.521 44.813-26.207 111.946-39.73 0 0-8.523-.537-19.043-.004-10.708.548-31.958 5.127-31.958 5.127 15.357-7.488 44.189-15.584 79.863-20.674 0 0-54.614-3.506-120.503 19.79-.621.239-.837.429-.837.429s6.849-5.138 14.816-10.54c5.677-4.105 14.054-10.304 14.054-10.304s-33.83 9.424-79.548 32.928c-12.858 6.591-19.677 10.383-19.677 10.383 1.995-2.203 11.11-10.586 13.282-13.43-33.922 17.926-46.283 29.115-66.31 50.88-17.987 19.42-17.136 22.66-44.42 38.342 0 0 20.21 6.959 40.559-6.908 3.537-2.331 6.792-5.737 9.96-9.166 7.207-8.418 4.766-16.636 14.375-23.074-1.41 3.19-3.62 7.11-3.815 11.202 4.577-6.39 13.577-14.91 23.65-21.353 25.781-16.087 42.88-19.544 42.88-19.544-.757.199-1.264.58-1.949.776-35.1 15.95-40.744 34.76-40.92 36.77-.337 4.201 12.696-5.844 23.34-7.692-11.264 4.44-20.81 14.18-25.406 25.16-1.95 4.646-2.52 9.837-8.133 14.14-1.57 1.517-3.573 3.018-6.345 4.333-7.339 3.626-12.51 2.186-14.281 1.18-1.052-.596-1.629-1.788-1.629-1.788 3.576.857 8.47-.29 12.885-3.196 3.275-2.164 5.7-4.904 6.971-7.67.679-1.567 2.065-4.429.037-7.89-1.015-1.666-3.1-2.589-5.518-2.79.197-.455 1.294-3.563 5.252-8.272-5.259 4.006-8.547 8.56-10.311 10.686 2.43.156 4.609 1.11 5.83 2.942 2.385 3.703.168 9.429-4.853 12.45-5.064 3.318-11.24 2.896-13.53-.775-.333-.572-.51-.915-.721-1.472a9.018 9.018 0 0 1-.848.4c-1.548.88-4.766 2.304-4.766 2.304 1.466.338 3.495.313 4.83.093.486 5.346 4.01 13.907 23.683 8.065-5.615 5.445-19.113 5.866-27.337 2.082 1.164.81 2.416 1.57 3.906 2.406 24.78 13.53 53.024-1.82 59.898-6.107 1.774-1.035 3.508-2.086 5.192-2.992 0 0-7.128 6.454-11.937 16.258 8.532-11.171 33.588-29.498 67.27-27.254" fill="#FFF"/><path d="M183.776 259.563c.966 3.454 7.174-.453 7.174-.453s-8.453 7.376-11.719 15.089c-.12.454-.117 1.901-1.224 4.156.89.13 1.746.196 2.416.125 2.208-.438 4.834-2.023 4.834-2.023s.105 4.447-4.85 9.04c5.613-4.304 6.181-9.494 8.132-14.14 4.596-10.98 14.142-20.723 25.406-25.16-10.644 1.848-23.677 11.893-23.34 7.692.176-2.01 5.82-20.82 40.92-36.77-.388.163-1.191.576-1.38.516-32.128 13.285-48.962 32.732-46.37 41.928" fill="#BACAD3"/><path d="M170.388 274.53c1.688 2.66.073 6.66-3.666 9.061-3.722 2.273-8.12 2.11-9.74-.575-.317-.388-.475-.852-.53-1.331-.727.573-1.544 1.03-2.258 1.552.21.557.387.9.722 1.47 2.291 3.673 8.465 4.094 13.53.776 5.021-3.021 7.236-8.746 4.854-12.448-1.221-1.836-3.402-2.788-5.83-2.943-.585.691-1.276 1.477-1.967 2.345 2.149-.095 3.965.616 4.885 2.093" fill="#004D55"/><path d="M166.726 283.591c3.735-2.4 5.35-6.399 3.665-9.06-.92-1.478-2.74-2.189-4.887-2.096-1.36 1.759-3.003 3.821-5.048 5.694-.023 1.62.312 3.484 2.32 4.8 0 0-2.302.243-3.746-.66-.784-.533-1.197-1.258-1.33-1.658-.446.349-.863.831-1.247 1.074.054.48.214.946.53 1.331 1.62 2.686 6.018 2.848 9.743.575" fill="#000"/><path d="M159.03 282.27c1.443.902 3.746.659 3.746.659-2.013-1.316-2.343-3.18-2.32-4.8-.848.867-1.77 1.734-2.756 2.482.13.4.542 1.125 1.33 1.659" fill="#FFF"/><path d="M368.336 220.205s-23.936.092-34.474.708c-31.29 2.28-63.393 16.06-63.393 16.06 20.37-5.929 42.658-3.445 42.658-3.445-8.662.903-29.96 7.544-40.648 12.271-15.356 6.98-30.902 16.487-42.163 25.11 18.047-11.26 69.5-38.428 135.29-28.273 0 0 4.283-3.345 15.676-16.074 11.989-13.428 14.457-21.475 14.457-21.475s-55.684-2.992-95.982 5.07c-8.68 1.81-18.057 4.143-26.342 6.652 24.467-4.862 60.321-4.718 94.921 3.396m-128.17 70.452c45.446-13.296 77.167-1.623 81.13 12.19l.458-.355c1.812-1.049 8.887-4.311 19.478-14.901 11.054-11.262 18.029-20.183 20.772-26.103-46.69-20.166-98.018-3.985-123.154 6.749 16.645-6.315 45.004-12.525 76.495-4.099-48.557-6.829-86.7 17.114-86.7 17.114 27.78-10.176 45.443-2.764 45.443-2.764-33.686-2.244-58.742 16.083-67.27 27.256-.684 1.328-1.29 2.739-1.845 4.086 7.78-7.461 16.002-13.619 35.192-19.173m154.843-123.952c-35.674 5.088-64.506 13.186-79.863 20.674 0 0 21.25-4.58 31.958-5.128 10.52-.533 19.043.004 19.043.004-67.133 13.524-103.218 34.21-111.945 39.73 8.916-4.09 28.17-12.221 55.919-18.894 26.005-6.29 56.398-9.083 68.664-10.828 17.296-17.186 23.956-38.161 23.956-38.161s-30.254 3.936-64.71 11.803c-35.76 8.42-58.94 18.578-63.525 20.592 65.89-23.298 120.503-19.792 120.503-19.792M214.67 309.645s11.427-8.989 30.904-6.936c28.835 3.019 28.172 20.628 28.172 20.628s12.865-6.045 19.4-17.483c0 0-8.144-6.999-22.934-8.843-38.353-4.611-55.542 12.634-55.542 12.634m-77.99-6.841c-5.891-.172-8.071-1.278-10.175-2.779-4.886 2.68-8.612 4.796-8.612 4.796-2.888 4.35 3.249 3.256 6.088 2.301 2.325-.802 12.7-4.318 12.7-4.318m63.912 2.586c-1.781 3.152-2.575 6.614-3.828 10.788-8.788 41.769-39.594 61.262-39.594 61.262-5.793-12.206-2.606-24.23-1.737-28.707 2.2-10.297-2.972-17.655-2.972-17.655 20.337-.154.513 25.42 8.23 35.65 13.566-8.405 21.67-35.878 23.647-45.63.087-.359-1.984-1.72-3.641-2.194-19.722-5.18-52.618 1.768-64.419 9.266-37.227 23.815-2.2 36.998-2.2 36.998s-22.908 8.61-36.117-10.817c-3.354-5.198-4.193-14.79-5.01-22.36 13.535-23.03 35.056-33.037 40.978-37.343 5.14 1.153 14.562 1.26 21.973-1.311 0 0 25.093 29.151 64.69 12.053" fill="#ACC0C6"/><path d="M117.893 304.824c-2.888 4.349 3.246 3.253 6.086 2.3 2.327-.804 12.701-4.32 12.701-4.32-5.891-.172-8.071-1.278-10.175-2.779-4.886 2.682-8.612 4.8-8.612 4.8" fill="#000"/></g></svg>