<svg width="512" height="512" viewBox="0 0 512 512" xmlns="http://www.w3.org/2000/svg"><title>philadelphia-eagles</title><g fill="none"><path d="M270.319 153.9c33.576-13.955 106.791-37.907 106.791-37.907l-23.462 22.948c64.034-18.958 112.692-27.94 112.692-27.94s-14.103 32.813-35.164 65.672c4.07-.44 30.668-3.54 30.668-3.54s-23.952 39.676-51.609 68.273l15.483 3.851s-24.118 34.757-55.952 63.126c-45.775 40.796-69.329 34.527-69.329 34.527-33.976 24.61-61.215 12.138-61.215 12.138s11.77-29.696-.387-32.848c-10.96-2.848-27.628 5.72-29.71 9.156-2.163 7.493-11.277 26.522-20.689 38.04-18.046 22.08-38.058 31.104-38.058 31.104s-15.763-13.45-15.862-36.349c0 0-10.83 11.473-28.455 15.217-12.337 2.625-29.171.493-46.42-13.908-11.586-9.667-13.798-42.15-13.798-42.15s10.883-20.796 31.873-39.013c-4.642-3.985-7.49-9-8.387-12.096 55.793-24.355 55.832-47.597 100.188-75.86 43.7-27.842 71.163-40.644 121.296-63.929L270.319 153.9z" fill="#FFF"/><path d="M263.633 152.135l-17.525 18.373c34.614-15.327 107.72-40.21 107.72-40.21L332.61 151.05c74.956-23.207 122.5-31.065 122.5-31.065s-15.536 34.621-36.21 64.034c10.007-.958 30.891-3.387 30.891-3.387s-20.884 34.987-51.74 64.616c3.43.507 17.434 3.698 17.434 3.698s-18.61 27.615-50.956 55.942c-41.288 36.15-59.605 31.87-59.605 31.87s.398-1.411.355-3.607c-.028-1.212-.287-2.315-.298-2.4-31.785 29.908-58.264 19.82-58.264 19.82s11.759-28.466-6.277-34.21c-13.969-4.448-35.366 6.989-37.069 13.11-1.858 6.66-10.73 25.142-19.529 35.976-15.263 18.791-32.153 27.366-32.153 27.366s-15.359-11.816-10.032-46.399c1.163-7.535-.33-10.479-1.157-11.748-2.52-3.859-22.17.354-26.961 11.316-3.384 7.738 16.142 14.284 16.142 14.284s-9.011 9.94-24.763 13.16c-9.905 2.021-25.242 1.38-41.346-12.564-9.528-8.249-11.5-36.161-11.5-36.161s11.766-21.561 34.693-40.182c-4.522-2.961-7.958-7.98-8.827-9.951 46.193-19.898 52.527-48.034 104.677-79.474 24.31-14.653 49.91-29.072 81.017-42.96" fill="#004953"/><path d="M386.388 249.214c1.848.383 9.44 1.756 13.667 3.507-15.87 25.739-63.3 76.28-89.808 78.358-.298-4.433-2.018-8.213-4.096-10.82-9.947 18.182-40.32 29.342-52.93 26.423 15.312-56.094-49.651-34.721-54.634-19.323-12.933 39.987-45.767 58.796-45.767 58.796s-10.49-11.954-5.99-38.877c3.316-19.848-9.241-19.231-9.241-19.231-5.004-.23-24.004 2.064-30.001 15.32-4.83 10.68 12.089 18.174 12.089 18.174s-24.43 19.504-52.693-4.67c-6.933-5.926-9.511-30.966-9.511-30.966 13.592-22.53 31.504-36.86 38.93-42.186-7.872-3.021-10.32-7.107-10.32-7.107 37.949-17.401 52.829-46.324 85.138-67.814 35.6-23.689 62.85-35.32 62.85-35.32l-10.28 12.943s8.61-3.68 12.362-5.521c33.905-16.639 91.347-34.77 91.347-34.77l-17.916 17.35s29.7-10.17 67.116-18.163c19.926-4.259 61.559-13.022 61.559-13.022s-9.78 28.753-30.558 57.946c12.55-.887 26.075-1.625 26.075-1.625s-14.543 29.26-47.388 60.598" fill="#000"/><path d="M232.07 210.244c-.432.153-.83.305-1.258.458.372-.139.755-.27 1.13-.401.043-.021.082-.043.128-.057m-1.46.533c.07-.028.134-.05.205-.074-.068.025-.135.046-.206.074" fill="#000"/><path d="M275.328 277.962s-18.15-8.816-46.77.532c0 0 39.476-23.402 89.446-13.451-32.42-10.887-61.612-5.713-78.844.085-10.113 3.897-16.117 7.128-16.117 7.128s2.532-1.851 7.266-4.66c11.703-8.614 27.77-17.933 43.661-24.48 11.036-4.542 33.019-10.418 41.955-10.929 0 0-22.99-3.894-43.966 1.39 0 0 33.21-12.954 65.432-13.67 10.79-.242 35.483 1.067 35.483 1.067-35.615-10.575-72.524-12.657-97.751-8.784-14.334 3.553-25.64 7.092-25.64 7.092s1.98-1 5.767-2.61c9.089-5.4 46.391-25.444 115.734-36.26 0 0-8.866-1.053-19.706-1.053-11.082-.004-32.88 3.741-32.88 3.741 15.787-7.213 45.543-14.202 82.335-17.749 0 0-56.222-6.67-124.28 14.66-.586.249-.901.387-.901.387s7.18-5.199 15.287-10.578c5.976-3.965 14.618-10.15 14.618-10.15s-34.905 8.355-82.184 30.806c-13.326 6.327-20.37 10.093-20.37 10.093 2.047-2.365 11.53-10.685 13.828-13.642-35.087 17.206-47.896 28.59-68.744 50.69-18.596 19.72-17.752 23.153-45.977 38.412 0 0 20.788 8.532 41.853-5.181 3.642-2.369 7.082-5.699 10.344-9.181 7.447-8.639 4.986-17.504 14.873-23.873-1.408 3.287-3.734 7.454-3.94 11.755 4.752-6.542 14.143-15.16 24.59-21.394 26.575-15.848 44.21-18.575 44.21-18.575-.677.234-1.337.479-1.996.72-36.324 15.1-42.25 34.83-42.434 36.905-.397 4.45 13.128-5.521 24.181-6.865-11.628 4.106-21.614 13.997-26.447 25.42-2.046 4.836-2.674 10.347-8.415 14.652-1.617 1.475-3.745 2.933-6.575 4.213-7.635 3.45-12.912 1.706-14.703.51-1.074-.712-1.734-1.921-1.734-1.921 3.699 1.042 8.727.138 13.316-2.76 3.39-2.138 5.908-4.964 7.263-7.833 0 0 .007 0 .007.004.741-1.529 2.12-4.511.092-8.316-1.032-1.937-3.177-2.983-5.617-3.366.152-.407 1.422-3.642 5.408-8.422-5.412 3.894-8.919 8.575-10.742 10.692 2.56.287 4.774 1.486 6.008 3.543 2.447 4.07.166 9.911-5.086 13.043-5.259 3.134-11.493 2.372-13.94-1.692a6.869 6.869 0 0 1-.698-1.62c-.28.159-.554.326-.84.471-1.643.851-4.962 2.259-4.962 2.259 1.571.365 3.674.525 4.983.277.432 5.755 4.032 15.007 24.298 9.777-5.79 5.698-19.734 5.319-28.182.893a57.04 57.04 0 0 0 4.05 2.756c25.412 15.787 54.676.925 61.825-3.192a55.417 55.417 0 0 1 5.29-3.004s-7.407 6.529-12.421 16.664c8.904-11.387 34.77-29.643 69.46-25.426" fill="#FFF"/><path d="M182.413 252.916c.972 3.756 7.486-.124 7.486-.124s-8.805 7.458-12.334 15.508c-.02.443 0 2.057-1.16 4.326.859.199 1.753.327 2.504.245 2.277-.248 4.951-1.855 4.951-1.855s.053 4.777-5.032 9.398c5.741-4.309 6.369-9.82 8.415-14.657 4.837-11.422 14.82-21.312 26.448-25.419-11.054 1.348-24.576 11.32-24.182 6.87.185-2.075 6.114-21.81 42.434-36.91-.376.135-1.266.45-1.333.479-33.285 12.419-50.786 32.153-48.197 42.14" fill="#A5ACAF"/><path d="M168.557 268.154c1.727 2.88.011 7.071-3.837 9.373-3.847 2.29-8.365 1.819-10.096-1.06-.266-.444-.425-.923-.532-1.416-.73.522-1.486 1-2.266 1.436.163.56.394 1.107.699 1.621 2.447 4.064 8.685 4.827 13.94 1.688 5.256-3.131 7.532-8.968 5.089-13.043-1.238-2.057-3.45-3.252-6.01-3.543-.59.735-1.25 1.571-1.97 2.462 2.129.024 4.008.854 4.983 2.482" fill="#004953"/><path d="M164.72 277.525c3.848-2.298 5.564-6.49 3.837-9.373-.975-1.627-2.855-2.457-4.982-2.482-1.483 1.826-3.242 3.876-5.26 5.83-.099 1.628.274 3.695 2.277 5.21 0 0-2.284.184-3.77-.908-.843-.624-1.205-1.362-1.354-1.788a30.42 30.42 0 0 1-1.376 1.04c.106.489.266.968.532 1.41 1.73 2.884 6.248 3.352 10.096 1.061" fill="#000"/><path d="M156.824 275.8c1.486 1.096 3.766.908 3.766.908-2.003-1.514-2.372-3.581-2.273-5.209-.9.872-1.85 1.723-2.85 2.514.148.426.513 1.163 1.357 1.788" fill="#FFF"/><path d="M372.875 220.973s-24.692-1.309-35.483-1.068c-32.221.717-65.432 13.675-65.432 13.675 20.976-5.288 43.966-1.394 43.966-1.394-8.94.514-30.923 6.387-41.955 10.93-15.894 6.546-31.958 15.869-43.664 24.479 18.738-11.11 72.023-37.225 139.646-22.816 0 0 4.419-3.401 16.185-16.313 12.483-13.685 15.135-22.128 15.135-22.128s-57.406-6.164-98.971.23c-8.961 1.376-18.61 3.504-27.178 5.62 25.224-3.868 62.137-1.786 97.751 8.785" fill="#A5ACAF"/><path d="M240.392 289.134c46.927-11.639 79.542 2.471 83.457 17.298 0 0 .16-.078.461-.237 1.9-1.032 9.192-4.142 20.167-14.94 11.526-11.349 18.75-20.448 21.604-26.573-48.002-24.06-100.975-9.578-126.923.444 17.235-5.795 46.424-10.969 78.847-.082-49.97-9.954-89.446 13.451-89.446 13.451 28.618-9.351 46.77-.532 46.77-.532-34.692-4.22-60.558 14.04-69.46 25.426a47.714 47.714 0 0 0-1.903 4.362c8.028-7.567 16.617-13.702 36.426-18.617M400.733 165.35c-36.792 3.546-66.549 10.54-82.333 17.752 0 0 21.799-3.744 32.88-3.744 10.838 0 19.703 1.053 19.703 1.053-69.342 10.82-106.645 30.863-115.734 36.26 9.213-3.904 29.164-11.433 57.725-17.093 26.948-5.337 58.254-6.663 70.857-7.919 17.976-17.362 25.033-39.277 25.033-39.277s-31.299 2.524-66.825 9.117c-36.944 6.858-60.821 16.493-65.584 18.511 68.056-21.33 124.278-14.66 124.278-14.66" fill="#A5ACAF"/><path d="M213.98 307.945s11.826-8.901 31.898-5.674c29.692 4.773 28.845 23.48 28.845 23.48s13.362-5.749 20.124-17.501c0 0-8.386-8-23.546-10.681-39.527-6.983-57.322 10.376-57.322 10.376m-93.455-7.577c-2.936.872-9.28 1.773-6.27-2.742 0 0 3.82-2.06 8.922-4.705 2.195 1.798 4.476 3.056 10.444 3.624 0 0-10.717 3.117-13.096 3.823m12.32-14.011c-7.625 2.333-17.296 1.67-22.633.22-6.156 4.244-28.306 13.723-42.398 37.579.727 8.085 1.564 18.433 4.887 24.107 13.55 21.401 37.22 13.493 37.22 13.493s-35.962-15.958 2.48-39.224c12.273-7.426 46.224-13 66.473-6.49 1.724.638 3.862 2.153 3.717 2.543-2.1 10.305-10.6 39.175-24.693 47.377-7.79-11.376 12.77-37.501-8.202-38.494 0 0 5.216 8.085 2.968 18.95-.99 4.77-4.238 17.505 1.568 30.686 0 0 31.88-19.068 41.341-63.076 1.227-4.337 2.057-8.008 3.937-11.338-40.96 16.143-66.666-16.333-66.666-16.333" fill="#A5ACAF"/><path d="M114.256 297.625c-3.014 4.514 3.33 3.617 6.27 2.741 2.376-.705 13.096-3.823 13.096-3.823-5.972-.567-8.249-1.822-10.444-3.62-5.106 2.645-8.922 4.702-8.922 4.702" fill="#000"/></g></svg>