<svg width="512" height="512" viewBox="0 0 512 512" xmlns="http://www.w3.org/2000/svg"><title>pittsburgh-steelers</title><g fill="none" fill-rule="evenodd"><path d="M255.019 105.059c-82.82 0-149.96 67.137-149.96 149.954 0 82.821 67.14 149.96 149.96 149.96 82.815 0 149.951-67.139 149.951-149.96 0-82.817-67.141-149.954-149.951-149.954zm.046 276.98c-70.186 0-127.087-56.895-127.087-127.078 0-70.185 56.9-127.08 127.087-127.08 70.182 0 127.08 56.895 127.08 127.08 0 70.183-56.898 127.077-127.08 127.077z" fill="#A5ACAF"/><path d="M255.019 105.059c-82.82 0-149.96 67.137-149.96 149.954 0 82.821 67.14 149.96 149.96 149.96 82.815 0 149.951-67.139 149.951-149.96 0-82.817-67.141-149.954-149.951-149.954zm.046 276.98c-70.186 0-127.087-56.895-127.087-127.078 0-70.185 56.9-127.08 127.087-127.08 70.182 0 127.08 56.895 127.08 127.08 0 70.183-56.898 127.077-127.08 127.077z" stroke="#000" stroke-width="3"/><path d="M189.565 252.088c-.025-1.972-.468-2.59-1.99-2.59-1.908 0-1.815 1.724-1.815 3.487v.793h3.805v-1.69zm-16.649-2.59c-1.9 0-1.817 1.724-1.817 3.487v.793h3.814v-1.69c-.03-1.972-.473-2.59-1.997-2.59zm39.455 2.59c-.032-1.972-.467-2.59-1.995-2.59-1.908 0-1.82 1.724-1.82 3.487v.793h3.815v-1.69zm42.694-124.207c-70.186 0-127.087 56.895-127.087 127.08 0 70.183 56.9 127.077 127.087 127.077 70.182 0 127.08-56.894 127.08-127.077 0-70.185-56.898-127.08-127.08-127.08zm-105.62 138.767c-4.926 0-6.683-3.247-6.683-7.868v-1.898h4.1v1.515c-.082 2.525.56 4.353 2.588 4.353 1.728 0 2.546-1.074 2.546-3.038 0-1.519-.59-2.557-1.644-3.417-2.142-1.968-4.799-3.38-6.48-5.97a8.167 8.167 0 0 1-1.056-3.969c0-4.417 2.115-6.835 6.45-6.835 6.537 0 6.364 5.94 6.394 8.489h-3.962c.034-2.313-.144-4.588-2.404-4.588-1.376 0-2.253.657-2.253 2.415 0 1.965 1.056 2.729 2.345 3.69 1.352 1 3.84 2.935 4.981 4.247 1.408 1.62 1.853 3.169 1.853 5.418 0 4.901-2.765 7.456-6.775 7.456zm15.564-16.803h-1.616v12.072c.087.833 1.147.73 1.616.66v3.514c-2.255.314-5.422.557-5.422-3.063v-13.183h-1.555v-3.278h1.52v-1.597l3.843-3.751v5.349h1.617v3.277h-.003zm13.71 7.382h-7.623v2.828c.028 2.556.848 3.042 1.994 3.042 1.407 0 1.82-1.21 1.757-3.663h3.816c.142 4.353-1.385 7.109-5.278 7.109-4.396 0-6.187-2.45-6.1-8.173v-5.114c-.176-4.587 1.816-7.206 5.567-7.206 5.308 0 5.864 3.24 5.864 8.553v2.624h.004zm3.224 1.143v-5.114c-.178-4.587 1.818-7.206 5.574-7.206 5.304 0 5.861 3.24 5.861 8.553v2.625h-7.623v2.83c.027 2.555.85 3.043 1.991 3.043 1.407 0 1.82-1.214 1.76-3.664h3.81c.149 4.352-1.377 7.106-5.274 7.106-4.395 0-6.185-2.45-6.099-8.173zm71.748 123.438c-6.74-35.853-19.231-55.785-64.197-63.426 44.966-7.636 57.456-27.565 64.197-63.415-6.74-35.855-19.231-55.785-64.197-63.422 44.966-7.64 57.456-27.57 64.197-63.427 6.74 35.857 19.231 55.787 64.202 63.427-44.968 7.637-57.458 27.567-64.202 63.422 6.744 35.85 19.231 55.779 64.202 63.415-44.97 7.64-57.462 27.573-64.202 63.426zm-56.443-141.66h3.81v25.881h-3.81v-25.882zm13.306 22.949c1.402 0 1.817-1.21 1.758-3.663h3.81c.146 4.353-1.375 7.109-5.278 7.109-4.397 0-6.183-2.45-6.093-8.173v-5.114c-.178-4.587 1.81-7.206 5.564-7.206 5.306 0 5.864 3.24 5.864 8.553v2.625h-7.621v2.83c.03 2.553.852 3.039 1.996 3.039zm12.804-13.081c.473-1.413.942-2.208 1.499-2.76 1.083-1.073 1.817-1.001 2.376-1.036v5.311c-2.114-.237-3.724.38-3.788 3.247v11.251h-3.807v-19.465h3.663v3.449h.057v.003zm10.666 13.08c1.082 0 1.85-.932 1.586-2.174-.057-1.104-1.141-1.722-1.875-2.31l-2.084-1.7c-1.905-1.546-3.137-3.343-3.137-6.138 0-3.002 2.018-4.724 5.68-4.724 3.698 0 5.398 2.276 5.312 6.453h-3.81c.09-2.175-.443-3.005-1.758-3.005-.908 0-1.614.481-1.614 1.588 0 1.139.703 1.654 1.437 2.245l3.102 2.484c.972.655 2.496 2.517 2.616 3.828.323 3.385-.38 6.9-5.658 6.9-2.023 0-5.807-.998-5.368-6.936h3.81c-.29 3.59.886 3.49 1.76 3.49zm83.91 55.129c-6.741-35.848-19.232-55.783-64.204-63.422 44.972-7.641 57.459-27.568 64.204-63.428 6.74 35.86 19.23 55.787 64.203 63.428-44.972 7.639-57.46 27.569-64.203 63.422z" fill="#FFF"/><path d="M149.386 249.532c-1.289-.962-2.345-1.724-2.345-3.691 0-1.758.877-2.414 2.253-2.414 2.26 0 2.438 2.274 2.404 4.587h3.962c-.033-2.55.143-8.486-6.393-8.486-4.336 0-6.451 2.413-6.451 6.833 0 1.377.386 2.795 1.057 3.969 1.68 2.586 4.337 3.999 6.48 5.968 1.053.862 1.643 1.9 1.643 3.418 0 1.964-.821 3.038-2.546 3.038-2.028 0-2.67-1.83-2.588-4.353v-1.514h-4.1v1.898c0 4.62 1.757 7.867 6.683 7.867 4.01 0 6.775-2.552 6.775-7.452 0-2.25-.445-3.797-1.853-5.418-1.141-1.317-3.63-3.25-4.981-4.25zm14.007-8.316l-3.84 3.752v1.596h-1.524v3.28h1.556v13.179c0 3.62 3.167 3.38 5.424 3.068v-3.519c-.47.074-1.53.178-1.618-.655v-12.072h1.618v-3.278h-1.618v-5.351h.002zm9.463 4.834c-3.751 0-5.743 2.619-5.566 7.206v5.114c-.089 5.726 1.699 8.173 6.1 8.173 3.893 0 5.42-2.756 5.277-7.109h-3.815c.061 2.453-.352 3.663-1.758 3.663-1.146 0-1.966-.484-1.991-3.042v-2.828h7.621v-2.625c-.004-5.312-.56-8.552-5.868-8.552zm2.057 7.728H171.1v-.793c0-1.763-.083-3.487 1.817-3.487 1.524 0 1.967.62 1.993 2.592v1.688h.004zm18.405 5.656h-3.81c.057 2.453-.35 3.663-1.76 3.663-1.141 0-1.963-.484-1.988-3.042v-2.828h7.62v-2.625c0-5.314-.557-8.555-5.863-8.555-3.753 0-5.747 2.62-5.574 7.207v5.113c-.086 5.726 1.706 8.172 6.103 8.172 3.898.004 5.421-2.752 5.272-7.105zm-7.558-6.452c0-1.761-.093-3.486 1.816-3.486 1.52 0 1.959.62 1.99 2.592v1.69h-3.806v-.796z" fill="#000"/><path fill="#231F1F" d="M197.248 240.147h3.81v25.882h-3.81z"/><path d="M216.176 257.227v-2.625c0-5.314-.555-8.555-5.863-8.555-3.752 0-5.742 2.62-5.567 7.207v5.113c-.09 5.726 1.7 8.172 6.094 8.172 3.902 0 5.426-2.754 5.282-7.106h-3.815c.062 2.449-.351 3.664-1.757 3.664-1.141 0-1.965-.486-1.996-3.042v-2.83h7.622v.002zm-7.62-4.245c0-1.761-.088-3.486 1.82-3.486 1.528 0 1.963.62 1.995 2.592v1.69h-3.815v-.796zm11.082-6.415v19.464h3.81v-11.25c.06-2.867 1.671-3.484 3.785-3.247v-5.312c-.56.034-1.293-.037-2.373 1.034-.558.554-1.027 1.347-1.498 2.762h-.059v-3.451h-3.665zm8.815 13.04c-.44 5.938 3.345 6.936 5.368 6.936 5.278 0 5.98-3.515 5.658-6.9-.12-1.31-1.644-3.173-2.616-3.828l-3.102-2.484c-.73-.59-1.437-1.106-1.437-2.245 0-1.108.703-1.588 1.614-1.588 1.318 0 1.849.83 1.761 3.005h3.808c.09-4.175-1.61-6.453-5.308-6.453-3.665 0-5.685 1.725-5.685 4.724 0 2.795 1.232 4.589 3.14 6.138l2.084 1.7c.735.588 1.815 1.206 1.875 2.31.265 1.242-.503 2.175-1.587 2.175-.877 0-2.047.1-1.758-3.49h-3.815z" fill="#000"/><path d="M253.691 254.967c6.744-35.855 19.231-55.785 64.202-63.422-44.968-7.64-57.458-27.57-64.202-63.427-6.74 35.857-19.231 55.787-64.197 63.427 44.966 7.637 57.456 27.567 64.197 63.422v-.006.006" fill="#FFB612"/><path d="M253.691 254.967v-.006.002c-6.74 35.854-19.231 55.783-64.197 63.42 44.966 7.64 57.456 27.572 64.197 63.425 6.74-35.853 19.231-55.785 64.202-63.426-44.97-7.636-57.458-27.565-64.202-63.415" fill="#00539B"/><path d="M317.934 191.375c-6.741 35.86-19.232 55.787-64.204 63.43 44.972 7.637 57.459 27.572 64.204 63.42 6.74-35.848 19.23-55.783 64.203-63.42-44.972-7.643-57.46-27.572-64.203-63.43" fill="#C60C30"/></g></svg>