<svg width="512" height="512" viewBox="0 0 512 512" xmlns="http://www.w3.org/2000/svg"><title>pittsburgh-steelers</title><g fill="none"><path d="M90 256.496C90 348.308 164.69 423 256.5 423c91.806 0 166.5-74.692 166.5-166.504C423 164.688 348.306 90 256.5 90 164.69 90 90 164.688 90 256.496" fill="#000"/><path d="M256.685 421.083c90.794 0 164.397-73.61 164.397-164.403 0-90.79-73.603-164.393-164.397-164.393S92.29 165.89 92.29 256.68c0 90.794 73.602 164.403 164.396 164.403" fill="#A5ACAF"/><path d="M256.685 394.226c75.743 0 137.14-61.401 137.14-137.136 0-75.742-61.397-137.144-137.14-137.144-75.742 0-137.143 61.402-137.143 137.144 0 75.735 61.401 137.136 137.143 137.136" fill="#FFF"/><path d="M257.398 257.272c1.584-56.172 54.645-69.36 67.976-68.15-32.863-1.788-65.295-15.672-67.802-67.643-3.959 48.33-23.35 62.07-68.04 67.806 31.921 1.618 64.233 14.25 67.866 67.987" fill="#FFB612"/><path d="M325.563 326.798c1.584-56.173 53.71-70.033 67.046-68.823-32.973-1.218-64.732-16.89-67.235-68.854-3.959 48.331-23.287 62.415-67.977 68.15 31.922 1.619 64.528 15.79 68.166 69.527" fill="#C60C30"/><path d="M258.221 393.657c1.58-56.18 54.007-68.07 67.342-66.86-32.86-1.785-65.659-17.551-68.166-69.523-3.958 48.33-22.776 62.85-67.462 68.577 31.918 1.626 64.65 14.069 68.286 67.806" fill="#002776"/><path d="M219.188 245.265v20.564h5.456v-11.917c.065-1.24-.245-2.858 4.363-2.533v-6.261h-1.33c-1.823.404-2.307 1.255-3.112 2.673l-.023-2.586-5.354.06zm24.124 6.705c-.042-1.86-.382-3.788-1.418-4.835-1.856-1.875-5.33-2.843-8.121-1.486-.84.408-1.452.318-2.855 2.053-.665.82-.854 2.038-.918 3.093-.133 2.23.604 5.172 3.64 5.94 1.694.427 3.63.65 4.53 2.015.495.745.352 1.055.132 1.625-.321.813-2.12.798-2.843.515-.714-.273-1.164-1.108-1.07-1.83l-4.62.03c.09 1.785.102 2.866.786 4.185.654 1.278 1.985 2.208 3.203 2.579 2.476.752 5.21.62 7.229-.628.37-.23 1.414-1.176 1.833-1.935.7-1.27 1.112-2.893.488-5.03-.298-1.024-.325-1.145-.51-1.504-1.104-2.098-2.514-2.503-3.978-2.998.05 0-1.365-.325-1.312-.325-2.582-.288-2.74-1.75-2.397-2.741.28-.82.938-1.093 1.781-1.093.722.008 1.43.51 1.558 1.04.09.378.08.813.08 1.308l4.782.023zm-88.625-6.586c.08-2.605-.484-4.076-1.04-5.06-2.129-3.757-6.96-4.748-10.915-3.013-1.486.65-2.515 1.834-3.24 3.123-.73 1.309-1.135 2.352-1.226 3.842-.189 3.153 1.388 6.476 4.356 8.329 2.08 1.3 3.603 1.47 5.373 3.168.933.893.862 3.214.555 3.743-.858 1.524-3.089.96-3.637.386-.552-.575-.794-2.658-.684-3.486l-5.887.038c-.227 2.59-.05 4.185.737 5.943.798 1.796 1.917 2.466 3.37 3.161 3.152 1.498 7.406 1.373 10.476-1.493a4.064 4.064 0 0 0 1.024-1.52c.715-1.735 1.513-3.698.957-6.866-.26-1.486-.904-2.696-1.233-3.161-1.092-1.543-1.898-2.246-4.824-3.671.068 0-.922-.42-.85-.42-3.093-.99-4.322-2.88-3.362-4.889.53-1.122 2.533-1.565 3.418-.76.597.545.734 1.72.783 2.62l2.064-.014h3.785zm3.005-.104l-2.181.068.022 4.745 2.057-.064.042 10.915c.022 5.796 4.99 4.9 7.618 4.968l.004-6.166c-2.227.037-2.027-.405-2.027-1.513v-8.102l2.121.038-.018-4.866-2.103.045-.019-4.995-5.516 3.029v1.898zm38.952-8.256v28.984h5.554V237.04zm11.936 15.862l4.103.015c.85-3.596-4.79-4.06-4.102-.015zm-.2 7.127c.012 1.845 4.042 2.223 4.14-.106v-.582l4.538-.023.007 2.424c.042 1.61-.624 3.36-3.346 4.298-2.892.9-4.696.36-6.382 0-2.223-.812-3.3-2.578-3.403-5.066V250.92c-.098-1.883.95-3.52 2.768-4.719 3.096-1.35 4.794-.986 7.12-.181 2.222 1.21 3.22 2.707 3.247 4.798v6.367h-8.704l.015 2.828zm-21.896-7.127l4.103.015c.85-3.596-4.79-4.06-4.103-.015zm-.2 7.127c.011 1.845 4.042 2.223 4.144-.106v-.582l4.533-.023.011 2.424c.038 1.61-.627 3.36-3.35 4.298-2.888.9-4.692.36-6.382 0-2.223-.812-3.297-2.578-3.402-5.066V250.92c-.099-1.883.952-3.52 2.767-4.719 3.1-1.35 4.798-.986 7.12-.181 2.223 1.21 3.22 2.707 3.247 4.798v6.367h-8.68l-.008 2.828zm-14.848-7.127l4.103.015c.85-3.596-4.79-4.06-4.103-.015zm-.2 7.127c.011 1.845 4.042 2.223 4.144-.106v-.582l4.533-.023.011 2.424c.038 1.61-.627 3.36-3.35 4.298-2.888.9-4.695.36-6.381 0-2.224-.812-3.301-2.578-3.403-5.066V250.92c-.099-1.883.949-3.52 2.767-4.719 3.097-1.35 4.798-.986 7.12-.181 2.223 1.21 3.221 2.707 3.247 4.798v6.367h-8.68l-.008 2.828z" fill="#000"/></g></svg>