<svg width="512" height="512" viewBox="0 0 512 512" xmlns="http://www.w3.org/2000/svg"><title>san-diego-chargers</title><g fill="none" fill-rule="evenodd"><path d="M237.423 141.556c4.609 4.708 13.537 16.933 13.537 16.933-116.618-5.295-177.758 73.74-177.758 73.74l18.374 1.674C31.81 313.328 47.843 370.071 47.843 370.071c44.074-59.927 72.972-96.76 148.525-125.272 0 0-7.293-11.336-11.781-16.385 107.693-9.786 209.007 55.151 209.007 55.151s-9.84-23.583-12.271-28.883c48.373 41.167 87.59 115.708 87.59 115.708 4.358-67.658-30.489-221.583-231.49-228.834" fill="#024"/><path d="M461.13 342.364c-9.204-101.973-77.965-181.971-207.285-192.6l12.545 16.824c-122.266-8.994-175.835 59.67-175.835 59.67s8.268.842 15.404 1.399c-55.932 66-52.452 121.487-52.452 121.487 42.264-56.064 73.78-83.274 131.392-107.93 0 0-6.798-10.136-16.095-18.451 108.225-15.996 209.748 44.312 209.748 44.312s-10.105-24.225-18.97-37.076c57.332 33.606 101.547 112.365 101.547 112.365" fill="#0073CF"/><path d="M278.672 173.349c-32.247-2.836-114.694-8.047-174.689 48.29 0 0 13.899 1.26 13.825 1.359-20.675 21.965-50.87 68.275-57.298 107.958 45.684-61.032 88.682-80.306 115.324-92.095-5.14-6.817-13.797-14.897-20.426-19.475 65.81-14.7 151.2 2.95 210.79 34.553-6.04-13.305-15.6-26.883-22.81-38.686 58.318 24.881 96.925 84.21 109.123 103.013-6.532-32.815-36.58-144.068-185.955-161.19 3.337 4.477 6.8 9.07 12.116 16.273z" fill="#FFB612"/></g></svg>