<svg width="512" height="512" viewBox="0 0 512 512" xmlns="http://www.w3.org/2000/svg"><title>seattle-seahawks</title><g fill="none" fill-rule="evenodd"><path d="M407.369 317.649c-20.239-4.04-46.814-5.11-58.035-5.11l-267.072.054c-16.616 0-33.8 0-42.619-13.544-8.944-13.745-4.082-27.272 11-54.335 1.124-2.008 46.87-87.792 46.87-87.792s4.673 5.792 9.38 9.476c4.654 3.636 9.436 5.575 22.18 5.575 22.635 0 168.661-.318 170.15-.324 29.64 0 59.582 3.057 78.982 24.28 10.073 1.072 42.585 5.357 69.372 18.14 15.683 7.472 26.028 18.634 29.937 32.265 1.182 4.124 1.77 8.456 1.77 12.953 0 12.937-4.86 27.27-14.382 42.167-20.12 31.478-38.682 42.479-39.513 43.072-11.432 8.022-22.504 8.4-22.504 8.4s9.972-11.315 13.337-22.63c3.366-11.311-8.855-12.648-8.855-12.648h.002" fill="#FFF"/><path d="M444.283 220.97c-30.544-14.568-69.78-17.716-69.78-17.716-17.116-20.865-46.043-23.958-75.277-23.958 0 0-147.246.323-170.151.323-26.66 0-29.338-10.549-29.338-10.549l-35.741 66.755h92.814c29.21 0 30.676-2.92 50.048-17.13 20.58-15.103 37.005-20.562 56.451-20.562 19.435 0 32.3 4.368 53.933 13.93 21.643 9.555 33.139 14.201 46.016 8.738 0 0-10.134 13.655-40.804.816-30.668-12.835-38.877-15.565-57.507-15.565-18.375 0-39.417 8.793-65.767 35.02l31.4 25.203s-7.263 11.194-12.047 18.341c-4.767 7.147-4.321 11.92-1.78 15.409 2.551 3.497 5.762 5.079 17.386 5.079 11.62 0 104.775-.211 115.195-.211 9.063 0 37.404.843 59.533 5.25 29.38 5.862 10.428 30.578 10.428 30.578s19.674-12.919 39.149-43.375c21.724-33.98 16.369-61.814-14.16-76.378v.001" fill="#024"/><path d="M390.32 226.444c-13.89-3.315-2.015-11.343-2.015-11.343-19.99 4.03-27.43 20.295-29.145 24.844-.318.616-.652 1.246-.986 1.915-11.06 22.198-21.022 21.01-39.904 21.01h-32.341c-26.196 0-38.397 12.948-50.953 35.004h14.795c13.52-20.084 23.728-25.5 50.47-27.002 61.114.033 109.834 17.524 135.575 30.888 36.616-61.331-17.723-71.484-45.5-75.317h.003" fill="#FFF"/><path d="M276.577 297.635c6.83-10.301 20.73-13.804 43.134-12.518 55.295 3.195 87.085 13.935 111.788 23.117-30.458-17.786-84.737-30.604-122.46-30.484-18.441.056-34.54 3.27-43.998 19.885h11.536M335.918 236.794c-7.205 10.027-16.697 13.453-43.615 11.618-31.318-2.123-23.238-15.284-19.59-21.765l-.106-.008c.994-1.834 2.704-4.948 4.432-8.08-23.998-1.478-41.522 16.947-41.522 16.947C253.403 253.159 265.337 255 281.52 255h30.258c28.133 0 34.928-12.627 37.504-18.242-4.852.608-9.225.56-13.364.037v-.002" fill="#FFF"/><path d="M322.262 233.807l-1.756-.712c-2.76 2.896-7.516 4.58-12.127 3.987-6.067-.775-9.563-5.173-7.84-9.813a8.422 8.422 0 0 1 1.038-1.93 260.688 260.688 0 0 0-9.28-3.443c-6.23 10.055-9.884 16.721 11.745 18.54 13.473 1.148 17.127-1.155 19.957-5.984-.578-.217-1.143-.408-1.737-.646" fill="#69BE28"/><path d="M213.63 272.018c-11.157 19.317-15.588 23.76-7.749 32.926H82.261c-18.235 0-30.085-.69-36.186-10.064-5.928-9.103-4.708-17.789 11.271-46.45h105.107c18.096 0 22.75 1.027 32.568 8.63 9.82 7.607 18.607 14.957 18.607 14.957l.001.001" fill="#A5ACAF"/></g></svg>