<svg width="512" height="512" viewBox="0 0 512 512" xmlns="http://www.w3.org/2000/svg"><title>san-francisco-49ers</title><g fill="none" fill-rule="evenodd"><path d="M256.574 133.741c113.533 0 205.57 54.324 205.57 121.336s-92.037 121.334-205.57 121.334c-113.531 0-205.568-54.322-205.568-121.334s92.037-121.336 205.568-121.336" fill="#FFF"/><path d="M256.128 139.987c110.077 0 199.312 51.927 199.312 115.982 0 64.053-89.235 115.982-199.312 115.982-110.077 0-199.313-51.929-199.313-115.982 0-64.055 89.236-115.982 199.313-115.982" fill="#090908"/><path d="M257.022 150.248c96.008 0 173.839 47.932 173.839 107.059 0 59.128-77.83 107.06-173.84 107.06s-173.84-47.932-173.84-107.06c0-59.127 77.83-107.06 173.84-107.06" fill="#C6A463"/><path d="M257.468 155.6c88.358 0 159.986 44.737 159.986 99.923 0 55.185-71.628 99.922-159.986 99.922-88.358 0-159.986-44.737-159.986-99.922 0-55.186 71.628-99.923 159.986-99.923" fill="#C81D3C"/><path d="M382.46 242.478h-.438v-3.634h-63.46c-1.36-7.13-5.47-13.74-11.329-18.9-5.771-6.627-14.16-11.609-23.704-13.5l-3.96-.813c-9.161-1.922-16.392-3.443-45.5-3.297 0 0-5.6-.191-11.032-.91a24.082 24.082 0 0 1-3.62-1.208c.4-2.418 4.835-5.75 9.831-6.396.52-.094 32.019-5.88 64.443 15.081l.796.512h21.308v-32.55h-3.644v-3.636h-29.244l-4.927 3.757c-8.417-2.104-49.657-11.111-85.262 4.447-14.963 6.173-24.25 17.825-23.592 29.655.334 5.966 3.196 11.166 8.14 15.204 3.638 4.532 9.357 8.069 16.806 10.212 10.545 3.03 19.469 4.28 28.125 4.775v14.841h3.648v3.636h11.117c4.605 0 5.789 2.549 6.071 3.496-14.188-.926-35.772-4.959-51.653-19.635l-.598-.642h-.111c-.877-.836-1.74-1.7-2.581-2.606l-.95-1.029h-15.994v46.336h3.645v3.631h13.04c1.913.132 7.974-.544 12.156-12.735 6.783 2.356 23.5 7.382 44.09 7.94v28.823c-.72 9.678-22.081 12.71-29.524 13.003l-3.073.118v14.332h3.643v3.63h93.78v-13.709l-2.393-.634a54.5 54.5 0 0 1-1.249-.335v-3.136l-2.93-.251c-5.27-.468-9.328-1.38-12.477-2.496-5.893-3.304-6.903-5.98-7.027-6.412v-15.37h27.487c2.9.439 5.386 1.708 7.496 3.36 3.96 4.866 5.76 10.428 5.791 10.518l.7 2.25 2.362.015h.073c.329.823.505 1.346.507 1.374l.7 2.257h14.77v-55.749h-3.641v-3.642H324.37l-.532 2.553c-3.855 18.524-25.31 18.251-44.393 15.475a104.92 104.92 0 0 0 11.247-3.73c10.217-4.053 17.878-9.566 22.661-16.02h41.187c2.874.09 5.314.804 7.367 2.146 4.321 6.33 3.887 15.634 3.883 15.745l-.179 3.37h3.834l-.007.262-.185 3.372 3.386.008h13.03v-43.16h-3.21" fill="#090908"/><path d="M316.762 253.893H350.9c19.498.62 18.088 24.904 18.088 24.904h9.832v-36.755H319.9s-.14 8.225-3.138 11.85m-69.484 31.395v28.224c-1.014 14.794-32.593 16.022-32.593 16.022v8.054h87.37v-8.054c-25.964-2.242-26.08-15.45-26.08-15.45v-18.847h31.035c14.196 2.022 19.652 19.778 19.652 19.778h9.2v-49.356h-8.889c-6.179 29.731-51.82 16.356-55.197 17.101 0 0-11.242 2.803-24.498 2.528m27.26-48.56c11.86 3.471 12.962 12.504 6.018 20.961-8.885 8.372-22.456 8.717-22.456 8.717s-45.694 4.93-72.361-23.865h-11.385v39.934h9.978s6.082.932 9.982-13.701c0 0 46.92 19.06 91.549 1.372 43.226-17.139 26.775-54.678-2.967-60.562-11.439-2.261-15.987-4.214-48.811-4.045 0 0-5.926-.188-11.696-.968-18.092-4.514-7.802-16.188 2.807-17.558 0 0 32.595-6.415 66.597 15.569h17.156v-26.156h-24.96l-5.3 4.045s-46.267-12.895-84.685 3.892c-25.823 10.657-30.885 37.314-2.682 45.429 24.838 7.146 40.671 4.152 65.84 5.11 7.034.27 13.147.546 17.376 1.827m-37.28 16.192H225.4V242.32c9.19 0 27.93.075 41.191 0 13.344 0 15.121 7.699 9.5 12.906-5.3 4.908-16.402 8.404-29.543 6.016 0 0-1.083-8.323-9.29-8.323" fill="#FFF"/></g></svg>