<svg width="512" height="512" viewBox="0 0 512 512" xmlns="http://www.w3.org/2000/svg"><title>tampa-bay-buccaneers</title><g fill="none" fill-rule="evenodd"><path d="M316.024 196.363c-1.15 2.779-3.354 5.557-4.312 7.09-1.15-1.245-2.683-3.066-3.833-5.174.67-.958 1.82-2.203 3.258-4.12.958-1.341 2.683-4.982 2.683-9.485 0-5.078-2.3-11.21-10.54-16.288 0 0-.096 0-.096-.096-.096-.096-.192-.096-.288-.192a34.34 34.34 0 0 0-3.066-1.724l.862.383c21.273 10.252 16.578 26.444 15.332 29.606m43.408 107.214c-4.695 7.378-30.088 45.703-36.125 54.326l-.096-.096c-.863-.767-2.012-1.725-3.258-2.779 2.012-2.97 25.585-37.846 32.484-48.672 2.396-.863 4.695-1.82 6.995-2.779" fill="#B1BABF"/><path d="M293.41 371.987c-.863 2.108-1.63 5.749-1.342 8.432.096.574.192 1.053.288 1.628-2.013 9.198-5.941 9.39-6.9 9.198-.191 0-.287-.095-.287-.095 3.833-3.354 3.737-9.582 7.666-18.109.191-.287.383-.67.575-1.054" fill="#FFF"/><path d="M316.12 378.598c.096 1.725-1.917 4.216-3.737 4.887-1.342.574-3.067.766-4.696.766-.574 0-1.054 0-1.533-.096a54.892 54.892 0 0 0 1.63-2.778c1.437-2.3 3.257-5.078 4.695-7.09 1.054.479 2.587 1.533 3.258 3.066.287.479.383.766.383 1.245m-10.54-12.36c-1.342-1.15-2.109-2.49-2.684-3.736 0 0-4.983 6.515-9.39 16.192.095.479.287.958.479 1.341 1.341 2.875 2.587 3.737 4.983 3.545 0 0 5.653-9.58 9.582-14.659-.767-.766-1.725-1.629-2.97-2.683" fill="#B1BABF"/><path d="M302.992 362.502c-.862-2.683-.766-5.366-.67-5.845-.096.096-.192.192-.192.288-1.533 2.299-2.97 4.694-4.408 7.09-1.342 2.3-4.025 7.473-4.12 7.665 0 .095-.671 3.928 0 6.898 0-.096.095-.192 0 0 4.407-9.581 9.39-16.096 9.39-16.096" fill="#FFF"/><path d="M327.715 373.616c-1.15-5.174-7.858-10.252-9.391-11.402-3.258-2.874-11.69-9.485-12.553-10.922-.862-1.533-4.791-6.899-10.157-7.953 0 0-.863-.096-1.054.575-.096.383.095.862.766.958.671.192 2.587.383 4.791 2.395 2.204 2.108 2.97 4.791 2.97 7.186-.095 2.3.768 5.558 3.546 7.665 2.875 2.108 6.133 5.653 9.104 6.516.191.095.383.095.575.095 1.916.192 3.737-1.533 3.45-2.586.67 2.107.095 3.64-.863 4.79 3.258 3.162 4.791 6.803 3.833 10.156-1.246 4.216-6.037 9.869-14.661 9.773-6.133-.096-9.774-1.82-11.307-2.778 0 0 .575-1.15.575-1.246-3.642.862-4.887-4.503-4.983-4.695-2.013 9.198-5.941 9.39-6.9 9.198-.191 0-.287-.096-.287-.096s.767 2.97 3.737 4.504a3.417 3.417 0 0 0-3.737 1.34c-1.054 1.534-.575 3.642.958 4.6 1.533 1.054 3.641.575 4.6-.958 1.054-1.533.575-3.641-.959-4.6-.095-.095-.191-.095-.191-.095.383.192.862.287 1.341.383 4.025.67 5.366-1.245 5.366-1.245s-.287-.575-.479-1.342c0 0-3.928 2.779-8.336-1.629.191.096 1.629.575 4.12.096 3.737-.575 4.216-1.724 4.504-1.916v-.096c3.258 1.725 6.707 2.587 11.786 2.683 5.654.096 11.116-1.629 14.278-4.407 3.162-2.875 6.9-8.72 5.558-14.947" fill="#B1BABF"/><path d="M414.914 104.096s.767 14.755-2.012 28.36c-2.683 13.127-4.217 18.109-4.217 18.109-5.749 3.353-14.948 7.473-28.46 9.773-25.2 4.215-48.198-2.587-73.208-12.36-25.01-9.773-58.453-20.408-89.595-16.863-30.089 3.45-51.65 15.617-63.148 23.57-11.499 7.952-13.607 10.06-23.38 12.839 0 0 7.76 3.066 11.69 3.066 0 0-1.917 7.76-1.15 10.251 0 0 16.386-7.473 18.206-3.928 1.917 3.545-5.845 5.845-11.211 7.282-5.366 1.437-19.452 1.15-19.452 1.15s6.611 5.078 8.911 8.623c0 0-12.361 5.365-26.255 3.545 0 0-.48 5.078 10.923 13.51-2.395.862-5.461 2.299-7.378 4.31 0 0 11.882-2.49 19.356 5.845 2.013 2.492 2.588 4.695 2.396 7.474-.383 5.078-2.3 6.994-7.09 10.156-2.684 1.15-5.655 2.491-8.433 4.216-13.128 8.048-22.806 20.408-29.514 34.396-2.875 6.036-5.27 13.127-6.9 19.546-1.628 6.42-2.3 12.168-2.682 15.713-.384 3.545-.959 14.851-.959 14.851s5.846-8.24 8.624-12.264c2.78-3.928 20.22-25.87 45.612-32.193 8.145-2.108 16.195-2.97 23.956-2.97 18.59 0 35.168 5.078 45.037 9.869 14.278 6.898 37.659 23.186 68.418 28.264a147.483 147.483 0 0 0 23.094 1.82c7.762 0 15.81-.574 23.764-1.628-4.504 6.803-8.912 13.126-13.032 18.97-4.216-4.023-9.87-4.407-9.87-4.407-6.9-.67-10.349 3.546-10.349 3.546-1.437 1.532-2.395 3.449-2.874 5.748-.48 2.108.095 4.6.479 5.845 1.341 4.216 4.887 6.036 6.228 6.707-10.061 13.413-13.032 28.84-13.032 28.84l-4.6 4.023 1.63 6.707c-2.588 8.24 1.437 14.468 6.707 16.959 5.27 2.587 10.253 1.054 10.253 1.054 3.067-.862 5.942-2.875 7.858-5.653.287-.48.575-.862.767-1.341a15.71 15.71 0 0 0 2.778-1.917c1.438.192 5.175.288 5.175.288 7.57-.096 15.044-2.204 20.794-7.09 4.503-4.024 9.39-10.827 9.582-20.12 0-1.726.287-8.816-5.462-14.948 36.796-54.038 60.656-88.818 75.988-124.172 40.63-93.992 6.229-133.084 6.037-133.371M349.37 330.117c-7.858 11.88-15.332 22.9-21.465 31.714 7.091 5.845 6.612 13.222 6.612 14.563-.096 7.857-4.312 13.606-8.145 17.055-4.695 4.024-11.211 6.036-18.015 6.036-.191 0-5.078-.191-6.803-.575-.767 1.054-2.108 2.3-4.408 3.258-.288.67-.575 1.437-1.054 2.108-1.82 2.778-4.983 4.407-8.145 4.407 0 0-3.162-.096-5.366-1.629-2.875-1.82-4.408-4.982-4.408-8.144v-.095c0-1.533.383-3.066 1.054-4.408-.288-.766-1.437-5.461-1.437-5.461l2.97-2.683c.288-.096.958-1.245 1.82-4.12.863-2.778 1.917-6.898 4.121-11.785 2.875-6.132 6.708-12.455 9.582-16.863-.287-1.437-1.724-2.108-2.778-2.3-1.15-.287-2.683-1.053-3.833-2.395-1.246-1.437-2.204-3.449-1.63-6.036.48-2.587 2.109-4.407 4.025-5.27 2.108-1.15 4.791-.574 4.791-.574 6.229.575 10.924 6.42 10.924 6.42 6.229-8.72 20.794-30.278 21.081-30.757-19.068 3.641-38.712 4.12-55.002 1.438-29.706-4.887-52.512-20.696-67.268-27.978-14.757-7.186-42.833-14.563-71.868-7.186-28.939 7.378-48.103 34.11-48.103 34.11 8.624-60.937 46.378-71.285 50.02-72.243 5.461-5.174 12.744-20.887-4.408-31.522-5.846-3.64-10.733-8.24-10.733-8.24 3.546.383 11.978-.67 16.674-2.491 5.557-2.204 10.732-2.97 10.732-2.97-4.408-4.216-11.211-6.324-11.211-6.324 6.707-.383 17.248-2.778 23.764-5.653 6.516-2.97 10.061-8.24 9.007-10.54-1.054-2.299-6.9-1.053-6.9-1.053 2.11-3.162 7.188-4.407 7.188-4.407-14.565-.863-25.106 7.09-25.106 7.09 1.629-3.45 6.9-9.677 6.9-9.677-2.013.67-7.57 2.395-7.954 2.49 22.71-17.533 48.103-32.959 83.75-33.246 35.646-.288 70.238 15.713 93.332 23.09 23.093 7.378 35.359 11.115 60.273 7.474 11.978-1.82 22.422-6.707 30.088-11.306 0 0 5.366-13.605 5.75-33.15 0 0 6.42 11.497 6.42 29.413.096 61.608-29.801 106.544-39.288 122.928-9.007 16-20.985 35.354-35.55 57.487" fill="#B1BABF"/><path d="M293.601 378.598c0 .096 0 .096 0 0 0 .096 0 0 0 0m124.283-258.406c-.383 19.546-5.749 33.151-5.749 33.151-7.666 4.6-18.11 9.486-30.089 11.21-24.914 3.737-37.179 0-60.272-7.473-23.094-7.378-57.782-23.378-93.333-23.09-35.55.19-60.943 15.712-83.75 33.246.384-.096 5.942-1.82 7.954-2.491 0 0-5.27 6.228-6.9 9.677 0 0 10.541-7.952 25.107-7.09 0 0-5.08 1.246-7.187 4.407 0 0 5.845-1.245 6.9 1.054 1.053 2.3-2.492 7.57-9.008 10.54-6.516 2.97-17.057 5.27-23.765 5.653 0 0 6.708 2.107 11.116 6.323 0 0-5.175.767-10.732 2.97-4.696 1.82-13.032 2.97-16.674 2.491 0 0 4.887 4.6 10.733 8.24 17.056 10.635 9.87 26.349 4.408 31.523-3.642 1.053-41.396 11.305-50.02 72.242 0 0 19.164-26.732 48.103-34.11 29.035-7.377 57.11 0 71.868 7.187 14.757 7.186 37.562 22.995 67.268 27.977 16.29 2.683 35.934 2.204 55.002-1.437-.287.479-14.852 22.037-21.08 30.756 0 0-4.6-5.845-10.925-6.42 0 0-2.587-.575-4.79.575-1.917.862-3.45 2.683-4.025 5.27-.575 2.587.383 4.599 1.629 6.036 1.15 1.341 2.683 2.108 3.833 2.395 1.054.288 2.587.862 2.874 2.3-2.874 4.407-6.803 10.73-9.582 16.958-2.204 4.791-3.258 9.007-4.12 11.785-.863 2.875-1.534 4.024-1.821 4.12l-2.97 2.683s1.15 4.695 1.437 5.461c-.767 1.342-1.054 2.875-1.15 4.408v.096c0 3.161 1.533 6.227 4.408 8.144 2.204 1.533 5.366 1.628 5.366 1.628 3.162 0 6.228-1.533 8.145-4.311.479-.67.766-1.437 1.054-2.108 2.3-.958 3.641-2.204 4.408-3.258 1.725.384 6.612.575 6.803.575 6.804-.096 13.32-2.012 18.015-6.036 3.833-3.45 7.953-9.198 8.145-17.055 0-1.437.383-8.718-6.612-14.563 6.133-8.815 13.607-19.833 21.465-31.714 14.66-22.228 26.639-41.487 35.742-57.583 9.582-16.384 39.383-61.32 39.287-122.832-.095-18.012-6.516-29.51-6.516-29.51m-80.683 190.571c3.258-.767 6.516-1.629 9.774-2.683.096 0 .192-.096.288-.096-3.258 4.983-28.94 41.775-30.76 44.17-.191-.096-4.6-3.928-4.695-4.024 6.516-9.102 25.01-36.792 25.393-37.367m-39.48 53.367c1.438-2.395 2.876-4.79 4.409-7.09.096-.095.096-.191.191-.287-.095.479-.191 3.162.671 5.844.48 1.246 1.342 2.587 2.683 3.737 1.15 1.054 2.108 1.916 2.97 2.587-3.928 5.078-9.582 14.66-9.582 14.66-2.395.191-3.64-.671-4.982-3.546a5.54 5.54 0 0 1-.48-1.341c-.67-2.97-.095-6.803-.095-6.899.095-.287 2.778-5.365 4.216-7.665m14.852 10.252c1.055.48 2.588 1.533 3.258 3.066.192.384.288.767.288 1.15.096 1.725-1.917 4.216-3.737 4.887-1.342.574-3.067.766-4.696.766-.479 0-1.054 0-1.533-.096.48-.766 1.054-1.724 1.725-2.778 1.437-2.3 3.162-4.983 4.695-6.995m9.583 14.085c-3.162 2.778-8.624 4.599-14.278 4.407-5.079-.096-8.624-.958-11.786-2.683v.096c-.288.192-.767 1.342-4.504 1.916-2.491.384-3.929-.095-4.12-.095 4.408 4.407 8.336 1.628 8.336 1.628.192.767.48 1.342.48 1.342s-1.342 1.916-5.27 1.245a7.059 7.059 0 0 1-1.342-.383c.095 0 .191.096.191.096a3.375 3.375 0 0 1 .959 4.599 3.376 3.376 0 0 1-4.6.958 3.375 3.375 0 0 1-.958-4.599c.862-1.245 2.3-1.725 3.737-1.341-2.97-1.437-3.737-4.503-3.737-4.503 3.833-3.45 3.737-9.582 7.666-18.109.191-.383.383-.767.575-1.246-.863 2.108-1.63 5.75-1.342 8.432.096.575.192 1.15.288 1.629.095.191 1.341 5.557 4.982 4.695 0 .095-.575 1.245-.575 1.245 1.534.958 5.175 2.683 11.308 2.779 8.624.095 13.319-5.557 14.66-9.773 1.055-3.258-.574-6.899-3.832-10.156.958-1.054 1.533-2.683.862-4.79.288.957-1.533 2.682-3.45 2.586-.191 0-.383 0-.575-.096-2.97-.862-6.228-4.407-9.103-6.515-2.779-2.108-3.641-5.366-3.545-7.665.096-2.3-.767-5.078-2.97-7.09-2.205-2.108-4.217-2.3-4.792-2.491-.67-.192-.862-.575-.767-.958.096-.671 1.055-.575 1.055-.575 5.366 1.054 9.294 6.42 10.157 7.952.766 1.437 9.295 8.048 12.553 10.923 1.533 1.15 8.145 6.228 9.39 11.401 1.246 6.516-2.491 12.456-5.653 15.139m1.246-30.564s-.096-.096-.192-.096c-.863-.767-2.012-1.725-3.258-2.779 2.012-2.874 25.585-37.846 32.484-48.672 2.396-.863 4.791-1.82 7.091-2.779-4.695 7.378-30.184 45.607-36.125 54.326m43.695-63.907c-16.194 7.569-53.565 20.025-90.745 13.126-12.936-2.395-29.993-6.42-52.511-20.12-14.757-8.911-30.76-17.534-67.939-17.342-30.855.191-50.595 14.084-56.92 19.354 16.77-54.613 66.215-46.565 66.215-46.565-9.007-4.312-19.836-2.683-19.836-2.683 15.524-24.336-9.486-35.834-9.486-35.834 2.108 0 11.595-2.778 16.386-4.407 4.887-1.725 13.703-2.874 13.703-2.874-3.067-2.875-12.65-5.174-12.65-5.174 9.104 0 17.25-4.408 22.998-10.348 2.013-2.108 7.379-12.456 1.246-16.384-5.653-3.64-16.96.383-16.96.383s33.73-36.313 103.201-20.791c32.964 7.378 70.143 26.636 104.448 26.827 11.499.096 36.988-3.64 52.128-18.97-.863 29.127-6.229 69.847-53.278 141.802m-73.497 84.602c0 .096 0 .096 0 0 0 .096 0 0 0 0" fill="#000"/><path d="M368.152 171.26c-34.305-.191-71.484-19.545-104.448-26.923-69.472-15.522-103.201 20.791-103.201 20.791s11.307-4.12 16.96-.383c6.133 4.024.767 14.372-1.245 16.384-5.75 5.94-13.895 10.348-22.998 10.348 0 0 9.582 2.3 12.649 5.174 0 0-8.912 1.15-13.703 2.874-4.887 1.725-14.278 4.407-16.386 4.407 0 0 25.01 11.402 9.487 35.834 0 0 10.828-1.629 19.835 2.683 0 0-49.445-7.953-66.214 46.565 6.324-5.174 26.064-19.163 56.92-19.354 37.179-.192 53.181 8.431 67.938 17.342 22.519 13.7 39.575 17.725 52.511 20.12 37.18 6.899 74.551-5.557 90.745-13.126 47.05-72.051 52.416-112.675 53.182-141.707-15.044 15.33-40.437 19.067-52.032 18.971m-25.489 83.165c-16.673 11.785-42.737 15.33-42.737 15.33-.288 1.15-2.013 2.3-2.013 2.3s2.684.958 9.2 5.94c6.516 4.887 4.79 4.695 6.899 6.132 2.108 1.437 3.258.958 3.258.958.67 1.246.67 3.162.67 3.162.863.862 5.175 4.887 1.15 9.102-3.928 4.216-8.528.288-8.528.288-1.629.383-3.162-.192-3.162-.192s-8.528 5.366-16.96-.479c-6.9-4.695-6.42-10.348-6.038-12.264a33.596 33.596 0 0 1-7.378 3.162c-6.9 2.108-15.715 3.066-24.435.191-5.75-1.916-10.445-5.27-14.182-9.006-3.737-3.737-6.516-7.856-8.337-11.497-.287-.575-.575-1.15-.766-1.63-.575 1.438-3.45 6.9-12.361 6.42-10.253-.479-13.799-9.868-13.799-9.868s-1.533-.575-2.683-1.725c0 0-6.037.383-6.612-5.366-.575-5.748 5.27-6.419 6.42-6.515 0 0 1.15-1.437 2.492-2.108 0 0 .67 1.054 3.258 1.15 2.587.096.958-.766 9.103-.766 8.24 0 10.924.862 10.924.862s-.67-2.012-.192-3.066c0 0-18.59-18.588-24.818-38.038-6.133-19.45-4.312-26.635 3.258-47.14 0 0 5.558 34.876 22.614 56.817 9.678 12.552 20.698 22.229 28.268 28.36h.48c-1.63-1.82-2.875-3.927-3.45-6.323-1.534-6.036-4.025-11.593-5.175-16-1.15-4.408 1.438-13.318 1.438-13.318-3.45-5.462-1.725-14.468-1.725-14.468s1.82-.862 3.258-2.587c1.437-1.724.958-6.803 2.012-14.18 1.15-7.473 6.037-15.138 16.77-19.546 10.636-4.311 26.734 1.342 26.83 1.437.191 0 16.386 5.174 22.327 15.043 5.94 9.964 5.078 19.067 1.533 25.678-3.546 6.61-6.995 10.347-6.9 12.551.096 2.204 1.055 4.024 1.055 4.024s-4.12 8.24-10.158 10.54c0 0-3.354 8.623-6.9 11.497-3.64 2.874-8.91 5.845-13.798 9.677-1.916 1.533-4.12 2.491-6.42 2.97.192.096.288.192.48.383 9.773-.287 24.243-1.437 39.479-5.557 26.83-7.186 52.32-31.714 52.32-31.714-6.517 20.696-9.296 27.594-25.969 39.38" fill="#D50A0A"/><path d="M281.432 216.675l.383-1.15c.383-1.245-.479-1.724-.575-3.736-.096-1.054-.191-2.012.288-3.162a1.973 1.973 0 0 0-1.15-2.395c-.096 0-.096-.096-.192-.096s-.096 0-.192-.096c-1.054-.287-2.108.288-2.395 1.246-.383 1.15-1.054 1.916-1.725 2.682-1.246 1.533-2.3 1.438-2.683 2.587l-.383 1.15c-.192.67 0 1.437.479 1.916.287.288.575.48.862.575 1.15.383 2.3-.191 2.587-1.15.096-.191.288-.287.384-.191.191.096.287.287.191.383-.383.958.288 2.108 1.438 2.491.383.096.67.096 1.054.096.862-.096 1.437-.479 1.629-1.15m4.983-11.976c0 1.341.479 6.42 2.683 7.76h.096c2.203 1.534 6.899 2.204 9.103 2.013.287 0 .862-.192.862-.192.958-.575 1.82-.958 2.683-1.82a13.852 13.852 0 0 0 2.492-3.833c.287-.575.479-1.246.67-1.916 0 0 .48-2.204 1.342-2.491h.383s-2.874-.671-6.037-.384c-.287 0-.575.096-.958.096-3.641.67-6.995 1.246-9.295.384a6.893 6.893 0 0 1-2.012-1.15c-.192-.096-.288-.288-.383-.383-.767-.767-1.246-1.438-1.342-1.63l-.096-.095c0 .192-.191 2.395-.191 3.64m-26.065-15.904c.576.766-.383 2.778-.383 2.778-.191.575-.383 1.15-.575 1.82-.575 2.109-.766 4.696.096 6.708 0 .096.575 1.054.575 1.054-.096 0-.096.096-.191.096.095 0 .095-.096.191-.096 0 0 .383.479.575.67 1.63 1.533 5.75 3.833 8.433 3.929h.095c2.588.287 6.037-3.545 6.804-4.6.766-1.053 2.012-2.97 2.012-2.97s-.958.288-2.108.48h-.575c-.67 0-1.533 0-2.3-.288-2.3-.766-4.695-3.257-7.186-5.94l-.671-.67c-2.3-2.205-4.887-3.354-5.079-3.354.192.191.192.287.288.383" fill="#000"/><path d="M266.58 246.569c1.437.479 2.778.862 4.215.958 1.438.191 2.875.096 4.6-.192 3.45-.575 7.378-4.12 8.816-5.174 1.437-1.054 7.09-4.694 8.336-5.653 1.246-.862 2.3-1.628 3.642-3.832 1.341-2.204 3.545-7.282 3.545-7.282s-2.108-.383-2.779-.479v.096c-.287.575-2.779 4.982-3.737 5.94h-.096c.575.288 2.108 1.342 2.396 2.491 0 0-2.683 2.492-5.941 3.929-3.354 1.437-8.337 4.599-10.253 5.94-.767.48-1.725.958-3.067 1.15-.766-1.437-3.545-3.162-7.186-4.408-3.738-1.245-7.187-1.533-8.529-.766-1.054-1.054-1.629-2.108-1.916-2.97-.767-2.204-2.875-7.761-4.6-10.923-1.725-3.162-2.395-6.707-2.395-6.707 1.15-.958 3.641-.479 3.641-.479v-.67c0-1.82.575-5.75.575-6.324v-.096c-.575-.383-2.587-1.341-2.587-1.341v.096c-.192.574-1.342 5.46-1.63 7.856-.287 2.491.097 3.737.576 5.27.479 1.437 2.683 7.76 3.258 9.485.095.192.191.48.191.767.575 2.204 1.63 6.42 3.642 8.623 2.204 2.683 4.503 3.737 7.282 4.695m7.571-56.05c2.49 2.874 6.42 6.515 8.815 7.281 2.396.863 7.666.288 11.403-.479 3.737-.575 9.39 0 9.39-.096-2.3-2.874-10.157-2.012-14.564-1.82-3.833.287-4.983-.287-5.27-.383-.288-.096-1.534-.288-4.409-2.875-3.45-2.874-9.199-8.24-12.744-7.377 0 .096 4.791 2.97 7.378 5.749m-14.661 13.605c-.096-.096-1.245-1.82.192-2.683.096 0 .096-.096.192-.096.095 0 .095-.095.191-.095 0 0-.479-.959-.575-1.054-.862-2.108-.67-4.695-.096-6.707.192-.575.384-1.246.575-1.82 0 0 .959-2.013.384-2.78-.096-.095-.096-.19-.192-.19 0 0-2.875 5.365-3.162 8.143-.288 2.587-.48 5.174 2.491 7.282m9.678 1.629s.096.862-1.82 2.108c0 0 2.97.958 5.174-.288 2.204-1.245 5.175-6.803 9.008-5.653 3.737 1.342 2.683 7.57 3.737 9.869 1.054 2.3 3.833 3.257 4.024 3.353-.67-2.108-.191-2.778-.191-2.778-2.204-1.342-2.683-6.42-2.683-7.761 0-1.341.191-3.545.191-3.545-1.725.862-7.857-1.246-8.624-2.874 0 0-1.246 1.916-2.012 2.97-.767 1.15-4.216 4.886-6.804 4.599m37.276-1.533c-.958.287-1.438 2.49-1.438 2.49a15.183 15.183 0 0 1-.67 1.917c-.575 1.437-1.438 2.779-2.492 3.833-.766.862-1.725 1.245-2.683 1.82 0 .096.096.287.096.383.67 1.629-1.437 2.3-1.437 2.3 3.64.191 5.078-2.012 6.516-4.408 1.437-2.395 2.395-8.431 2.395-8.431h-.096c-.095.096-.095.096-.191.096" fill="#B1BABF"/><path d="M255.943 209.01c1.437.671 2.874 1.342 4.216 2.108 2.012 1.15 4.216 2.491 5.079 4.887v.095c.191.575.287 1.342.095 1.917 0-.096 0-.192-.095-.288-.192-.383-.48-.67-.671-.958-.48-.479-.958-.958-1.533-1.437 0 0-.48 1.533-1.15 2.683a26.18 26.18 0 0 0-1.246 2.395c-.862 2.204.096 4.599.383 4.599.288 0 .863-.287 2.013-3.353 0-.096.096-.192.096-.384 0-.191 0-.383-.096-.67.096-.48.766-.48 1.245-.384.192 0 .288 0 .384.096.287-.67.575-1.437.67-2.204.48-1.724.384-4.215-1.629-6.515-2.012-2.3-7.282-4.024-9.199-5.078-2.012-.958-3.737-5.749-3.45-9.006 0 0-.19 1.82-.19 3.64 0 .767 0 1.438.095 2.109 0 .287.096.574.192.862.479 1.82.575 3.066 4.79 4.886m29.131 18.684c.192.096.383.191.48.287.19.288.287.383.287.383-.192 0-.384.096-.671.096-.096 0-.67.192-.67.288-.96 3.161-.672 3.736-.48 3.928.192.096 2.396-1.15 3.066-3.45 0 0 .384-1.916.48-2.682.095-1.246.67-2.683.67-2.779-2.3-.095-3.545.767-3.545.767s-.67 1.15-.863 2.587c.192.096 1.054.479 1.246.575m15.524-5.844c-2.204-.384-7.379-2.205-10.445-1.534-2.492.48-4.025 1.916-4.791 3.354 1.629-1.917 4.695-1.82 6.995-1.533 1.82.191 3.545.574 5.366 1.054 4.504 1.053 5.27.095 6.9-1.054 1.34-1.054 2.49-2.683 3.353-4.12 0 0 0-.096.096-.096-2.013 2.204-5.558 4.311-7.474 3.928m-18.303-9.198c-.096-1.054-.191-1.82.192-2.683.479-1.437-.383-3.066-2.012-3.736.958.479 1.533 1.437 1.15 2.395-.384 1.15-.288 2.108-.288 3.162.096 1.916.958 2.491.575 3.737l-.383 1.15c-.192.67-.863 1.149-1.63 1.245-.383 1.15-1.533 1.437-1.533 1.437 1.725.575 3.546-.192 4.12-1.725l.384-1.15c.288-.862.096-1.628-.096-2.107-.287-.575-.479-.958-.479-1.725m-9.486 1.054l.383-1.15c.383-1.245 1.437-1.054 2.683-2.587.67-.766 1.342-1.437 1.725-2.682.287-.958 1.341-1.438 2.395-1.15-1.724-.48-3.353.287-3.928 1.725-.288.958-.863 1.437-1.533 2.203-.48.575-.863.863-1.342 1.15-.48.287-1.15.766-1.437 1.629l-.384 1.15c-.479 1.533.48 3.257 2.204 3.832 0 0-.766-.958-.383-2.108v-.096c-.383-.479-.67-1.245-.383-1.916" fill="#B1BABF"/><path d="M251.343 218.687s.671 3.545 2.396 6.707c1.725 3.162 3.833 8.72 4.6 10.923.287.958.958 1.916 1.916 2.97 1.437-.767 4.791-.575 8.528.766 3.546 1.15 6.324 2.97 7.187 4.408a8.205 8.205 0 0 0 3.066-1.15c2.013-1.341 6.995-4.503 10.253-5.94 3.354-1.437 5.941-3.929 5.941-3.929-.287-1.15-1.82-2.203-2.395-2.49-.288.095-1.63.287-2.3.766-.767.575-3.45 4.599-6.995 6.132.383-2.012-.958-3.066-1.246-2.97-.287 0-.575.862-.67 1.054-.096.191-.767 1.533-.959 2.203l-.191.67c-.575 0-1.15-.095-1.725-.095a45.715 45.715 0 0 0 1.533-3.066c.287-.862-.575-1.054-.575-1.054-.48-.096-1.054-.191-1.533-.287h-.096c-.67-.096-1.054.287-1.054.575-.096.191-.096.287-.192.479-.191.575-.479 1.15-.766 1.724v.096c-.288.67 0 1.341 0 1.341-.192 0-.671 0-1.438-.191-.383-.096-.862-.288-.862-.288.287-.191.48-.67.48-.67.478-1.246 1.245-3.162 1.245-3.162s.287-.862-.192-.958c-.766-.192-1.437-.383-2.204-.575-.575-.096-.766.383-.862.479a9.94 9.94 0 0 1-.384.958 66.522 66.522 0 0 0-.862 2.395c-.192.48 0 .959 0 .959s-.67-.096-1.054-.192c-.383-.096-.958-.48-.958-.48.096-.095.191-.382.287-.478.384-1.15.671-2.683.958-3.833 0-.191 0-.67-.479-.862-.575-.192-1.245-.48-1.82-.67-.575-.192-.767.287-.863.574-.287 1.15-.575 2.396-.67 3.45-.096.67.191 1.15.191 1.15-.287-.097-.862-.288-1.341-.48-.288-.096-.959-.575-.959-.575.384 0 .575-.766.575-.766a21.89 21.89 0 0 0 .959-2.204v-.192c.287-.766-.288-1.245-.384-1.245l-1.725-.862c-.479-.288-.766.095-.862.383-.287.862-.862 1.724-.958 2.683-.096.574 0 .958 0 .958-1.054-.48-1.438-1.342-1.438-1.342.288-.287.575-1.437.575-2.395 0-1.054.096-2.012-.383-2.3-.479-.383-1.246.48-1.725 1.15-.383.575-.479.958-.479.958v.096c-1.916-3.353-1.629-8.24-1.916-9.102-.288-.862-1.438-2.108-1.438-2.108s-2.587-.958-3.737-.096" fill="#FFF"/><path d="M332.793 249.443l-.096.096s-18.302 10.923-46.187 12.935c.863 1.341 1.725 2.587 2.3 3.928 8.624-.48 17.44-1.725 25.68-4.024 5.271-1.437 10.542-3.354 15.429-5.653 4.982-2.395 9.87-5.174 14.277-8.623 2.78-2.3 5.462-4.695 7.858-7.378 3.354-3.736 6.42-8.144 8.049-12.839l.096-.383c-.096.288-5.366 12.456-27.406 21.941" fill="#B1BABF"/><path d="M281.72 256.533c1.15 1.15 2.107 2.3 3.066 3.545 0 0 2.97-.191 3.353-.287 5.08-.383 10.254-1.054 15.236-1.916 12.457-2.204 21.944-5.462 26.352-7.09 1.054-.384 2.012-.863 3.066-1.246 22.04-9.581 27.31-21.75 27.502-22.037 0 .096-.863.767-2.3 1.916-.575.48-1.246 1.054-2.012 1.63-8.241 6.514-25.585 18.3-53.662 23.377-6.899 1.15-13.894 1.82-20.602 2.108" fill="#FFF"/><path d="M285.84 277.612c-5.654 3.545-18.398 6.898-30.664 2.778-11.978-4.024-20.027-14.276-22.518-20.503a2.58 2.58 0 0 1 1.341-3.258s-1.15.192-2.108.958c0 0-.096.096-.192.383-1.341 4.025 6.804 21.08 22.136 26.253 15.331 5.174 32.005-3.066 33.538-7.57.096-.287.096-.574.096-.574a6.396 6.396 0 0 0-1.054-1.82c.958 1.724.095 2.97-.575 3.353" fill="#DA2429"/><path d="M265.238 250.497c-14.182-4.79-29.514 2.3-32.868 6.515-.096.192-.287.384-.383.575v.096c.958-.862 2.108-.958 2.108-.958-1.725.766-1.725 2.587-1.342 3.257 2.588 6.228 10.541 16.48 22.519 20.6 12.265 4.12 24.914.767 30.664-2.778.67-.48 1.533-1.63.67-3.258 0 0 .671.67 1.054 1.82.192-1.054-.095-2.587-.67-4.311-2.396-6.994-10.062-17.63-21.752-21.558m8.911 16.192v.575c-.479-.287-1.054-.479-1.533-.766-.192 1.15-.48 2.3-.862 3.449-.767-.48-1.534-.862-2.3-1.246.383-1.054.575-2.203.862-3.257l-2.587-1.15a19.396 19.396 0 0 1-.862 3.162 19.445 19.445 0 0 0-2.492-1.054c.288-1.054.575-2.012.863-3.066-.863-.288-1.725-.67-2.588-.958a52.415 52.415 0 0 1-.958 2.97 73.88 73.88 0 0 1-2.491-.862c.383-.958.67-1.917 1.054-2.875a28.188 28.188 0 0 0-2.683-.766 97.716 97.716 0 0 0-1.15 2.97c-.863-.192-1.725-.48-2.587-.67.383-1.055.766-2.013 1.245-2.97-.958-.193-1.82-.48-2.779-.672a29.64 29.64 0 0 0-1.341 3.066c-.862-.191-1.725-.287-2.683-.383.383-1.15.862-2.204 1.341-3.257l-1.724-.288c.095-.192.287-.383.383-.575-5.27-.958-9.966-1.341-13.799-1.341 3.162-.67 8.624-1.054 14.949-.288l.191-.191c.48.096.959.096 1.438.191a30.44 30.44 0 0 1 1.437-1.82c.863.096 1.63.192 2.396.383-.48.575-.863 1.246-1.246 1.916.862.192 1.725.384 2.683.575l1.15-2.012c.767.192 1.533.384 2.204.48-.383.67-.67 1.34-.958 2.011.862.192 1.724.48 2.491.767.288-.67.575-1.437.767-2.108.67.192 1.437.48 2.108.67-.192.671-.384 1.438-.671 2.109a26.24 26.24 0 0 1 2.491.958c.192-.767.288-1.437.48-2.204.67.287 1.437.575 2.108.958-.096.767-.192 1.533-.288 2.204.863.383 1.63.766 2.492 1.15.095-.767.095-1.533.095-2.3.671.383 1.438.767 2.109 1.15v2.3c.479.191.862.478 1.245.766v.383c5.366 3.162 9.39 6.611 11.5 9.006-2.971-2.3-6.9-4.79-11.5-7.09" fill="#FF7900"/><path d="M234.478 256.629c3.833 0 8.529.383 13.799 1.341.383-.574.766-1.15 1.246-1.628-6.42-.767-11.883-.48-15.045.287m39.767 8.048v2.012c4.6 2.3 8.528 4.79 11.499 6.995-2.108-2.396-6.133-5.845-11.499-9.007" fill="#010101"/><path d="M274.245 264.677v-.383c-.383-.287-.862-.479-1.246-.766v-2.3a41.427 41.427 0 0 1-2.108-1.15c0 .767-.096 1.533-.096 2.3a62.477 62.477 0 0 0-2.491-1.15c.096-.766.192-1.533.287-2.204-.67-.287-1.437-.67-2.108-.958-.095.767-.287 1.437-.479 2.204-.766-.288-1.629-.67-2.491-.958.191-.767.383-1.437.575-2.108-.671-.288-1.438-.48-2.108-.67-.288.67-.575 1.34-.767 2.107-.862-.287-1.725-.479-2.491-.766.287-.671.67-1.342.958-2.012-.767-.192-1.437-.384-2.204-.48l-1.15 2.013c-.862-.192-1.82-.384-2.683-.575.383-.671.862-1.246 1.342-1.917-.767-.095-1.63-.287-2.396-.383-.48.575-.958 1.246-1.437 1.82-.48-.095-.959-.095-1.438-.191l-.191.192c-.384.479-.863 1.054-1.246 1.628-.096.192-.288.384-.383.575l1.724.288c-.575 1.054-1.054 2.108-1.341 3.257.862.096 1.82.288 2.683.384.383-1.054.767-2.108 1.341-3.066.863.191 1.821.383 2.78.67-.48.958-.863 2.012-1.246 2.97.862.192 1.724.384 2.587.671.383-.958.766-2.012 1.15-2.97.862.287 1.82.479 2.683.766-.383.959-.67 1.917-1.054 2.97.862.288 1.725.576 2.491.863.288-.958.671-2.012.958-2.97.863.287 1.821.67 2.588.958-.288.958-.575 2.012-.863 3.066.863.287 1.63.67 2.492 1.054l.862-3.162 2.587 1.15a18.081 18.081 0 0 1-.862 3.257c.766.384 1.533.863 2.3 1.246.383-1.15.67-2.3.862-3.45.48.288 1.054.48 1.533.767v-.575c.096-.67.096-1.341.096-2.012m-62.094-55.379l.767 1.437c.48.862 1.15 2.012 2.012 3.353 4.025 6.42 9.295 13.318 16.482 20.504 0 0 8.912 8.72 12.649 12.073 1.437-.384 2.97-.767 4.6-.959-5.271-4.311-10.446-9.102-15.14-14.276-23.957-25.965-28.46-50.014-30.09-56.529 0-.096-2.3 14.18 8.72 34.397" fill="#FFF"/><path d="M234.478 246.952c.288.192 2.3 2.3 2.588 2.204 1.341-.575 2.683-1.15 4.216-1.725-21.081-18.396-29.13-38.23-29.13-38.23l.095.097c-11.02-20.217-8.72-34.397-8.72-34.397l-.095.383c-.959 2.683-1.246 5.653-1.438 8.528-.287 4.79.192 9.677 1.246 14.467 1.054 4.983 2.779 9.869 4.983 14.564 2.204 4.79 4.887 9.294 7.857 13.605 3.737 5.27 7.954 10.252 12.457 14.851 1.82 1.916 3.833 3.737 5.941 5.653" fill="#B1BABF"/><path d="M212.918 210.64l-.767-1.438c.288.479.575.958.767 1.437m-3.066 44.17c-.192.383-.288.766-.288.958 0 .383.192.766.384 1.054 0 0 6.516.383 10.636 1.437.192-.575.383-1.342.67-2.204.192-.575.384-1.054.671-1.437-1.724-.096-8.528-.192-12.073.192" fill="#B1BABF"/><path d="M209.852 254.809c3.545-.384 10.349-.288 12.073 0 .959-1.533 2.492-2.204 3.546-2.587-1.725-.288-3.833-.48-5.654-.671-.862-.096-1.82-.192-2.683-.192-.575 0-1.15 0-1.725-.095-1.15.191-2.491.67-3.45 1.245-1.053.67-1.724 1.629-2.107 2.3" fill="#FFF"/><path d="M208.319 255s.191-.287.191-.383c.383-.767 1.246-1.533 2.012-1.916 1.342-.767 3.354-1.246 4.696-1.342h-.671c-1.629 0-3.258.192-4.887.384-1.437.191-2.779.479-4.12.479-.384 0-.863 0-1.246-.096a15.723 15.723 0 0 1-1.054-.288c.096-.191.862 3.162 5.079 3.162" fill="#FFF"/><path d="M230.262 245.132c-.192.095-.383.287-.287.67.095.383.479 1.437-.096 3.066-.575 1.629-1.82 2.683-2.97 3.258-1.246.575-2.684 1.724-3.163 3.737-.383 2.012-1.437 4.599-1.15 6.323.096.67.767 1.533 2.204 1.533-1.054.862-2.012.767-2.779.383-1.245 2.3-3.066 3.258-6.516 2.587-3.45-.67-7.857-4.024-8.72-9.58 0-.097 1.63-.097 1.821-.097a3.542 3.542 0 0 1-.48-1.054c0-.191.097-.575.288-.862-4.312 0-5.078-3.258-5.078-3.353 0 0-1.342 1.054-1.438 2.97-.191-.767-.766-1.437-1.629-1.533-1.054-.192-2.012.575-2.204 1.629-.191 1.054.575 2.012 1.63 2.203 1.053.192 2.012-.575 2.203-1.629v-.095c0 .191.096.479.096.67.192.671.383 1.15.67 1.533.576.863 1.247.958 1.247.958l.095-.095c0-.096.384-.48.48-.384-.48-.287-2.3-1.724-1.15-4.79 0 0-.096 2.778 2.204 4.216.287 1.15 2.012 8.048 8.815 10.156 7.379 2.3 10.158-1.15 10.828-2.491.288-.575 1.054-2.492 1.054-2.492.671-1.82 2.204-8.91 2.875-9.772.575-.863 2.396-4.12 1.725-7.186-.096-.096-.192-.575-.575-.48" fill="#B1BABF"/><path d="M295.997 275.887c.67.958 1.437 2.396 1.246 4.216 1.533.767 6.995 4.79 9.582 7.282.192-.863.096-1.916-.287-3.162-.384-1.054-1.15-2.204-2.013-3.066-.096-.096-.191-.192-.287-.192-.863-.575-1.63-1.15-2.492-1.724a45.914 45.914 0 0 0-3.64-2.204c-.576-.287-1.15-.67-1.726-.958-.096-.096-.287-.192-.383-.192" fill="#FFF"/><path d="M307.592 285.181a7.76 7.76 0 0 1 .479 2.587c0 .192-.096.48-.096.67.192.097.287.192.48.288.19.192.478.288.766.48.383.19.862.382 1.245.478.288.096.671.096.959.096.958 0 1.82-.383 2.587-.958a4.671 4.671 0 0 1-1.054-.383 6.445 6.445 0 0 1-1.054-.671c-.48-.383-1.82-1.629-2.108-1.916l-1.342-1.342c-.575-.574-1.725-1.628-2.3-2.012-.096-.095-1.533-1.245-1.533-1.245.096 0 2.492 2.49 2.97 3.928" fill="#FFF"/><path d="M310.466 289.588c-.479-.095-.862-.287-1.245-.479-.288-.095-.48-.287-.767-.479-.192-.095-.287-.191-.48-.287-.095.383-.19.67-.287.862-.287.288-.67.48-.958.575.48.383.958.767 1.342 1.15-4.12 3.928-9.583 3.928-12.745 2.395-3.066-1.533-4.024-3.353-3.641-5.94-.862-.192-1.63-.67-1.917-2.012 0 0 .096 0 .096.096.671.574 1.917.766 2.588.095.67-.575 1.15-1.628 1.629-2.682.383-.959.766-2.012 1.245-2.97.192-.384.288-.863.384-1.246.191-1.246-.096-2.491-.671-3.641-.671-1.15-.958-2.779-.48-4.407.576-1.63 1.534-2.3 1.821-2.491.288-.288.288-.48.096-.671-.287-.288-.67 0-.67 0-2.396 2.012-2.971 5.749-2.971 6.802 0 1.054-2.97 7.665-3.641 9.486 0 .096-.575 1.629-.671 2.587-.192 1.437-.096 5.94 7.09 8.527 6.613 2.395 12.17-2.012 13.129-2.778 1.916.095 3.258-.863 3.928-1.533l.48-.48c-.767 2.396-2.205 2.97-3.163 3.067h-.67c0 .095 0 .095.095.191.096.383.096.67.096.67s.192.097.575.097c.48 0 1.342-.096 2.491-.958l.48-.48c-.384.863-.096 2.013.766 2.396.958.479 2.012.191 2.587-.767.575-.958.192-2.012-.766-2.587-.671-.383-1.438-.287-2.012.192.574-.958.574-1.82.574-2.395 0-.096-.095-.575-.095-.575-.767.575-1.63.958-2.588.958a15.724 15.724 0 0 1-1.054-.288" fill="#B1BABF"/><path d="M296.955 281.636c-.287.862-.575 1.533-.766 2.108 3.64 1.629 7.09 3.64 9.39 5.27.288-.096.671-.288.959-.575.191-.192.287-.575.383-.958-2.587-2.492-8.05-6.516-9.582-7.282-.096-.096-.192.862-.384 1.437M286.51 162.254c-20.314-3.45-24.243 11.785-24.339 15.521-.096 2.683.096 4.504 0 5.653-2.97 1.246-6.132 1.725-6.132 1.725.191-1.725.191-5.461.862-8.527.67-2.779 5.366-15.043 21.848-15.139 1.725 0 3.545.096 5.462.384.67.095 1.437.287 2.012.383.192-.096.287 0 .287 0" fill="#B1BABF"/><path d="M347.263 307.984c-3.258 4.983-28.94 41.775-30.76 44.17-.191-.096-4.6-3.928-4.695-4.024 6.516-9.102 25.106-36.792 25.489-37.367 3.258-.767 6.516-1.629 9.774-2.683 0 0 .096 0 .192-.096" fill="#FFF"/><path d="M316.216 246.569c-15.236 4.12-29.801 5.27-39.48 5.557-.191-.096-.287-.192-.479-.383 2.3-.48 4.504-1.438 6.42-2.97 4.792-3.833 10.158-6.803 13.8-9.678 3.64-2.874 6.898-11.497 6.898-11.497 6.037-2.3 10.158-10.54 10.158-10.54s-.959-1.82-1.054-4.024c-.096-2.203 3.353-5.94 6.899-12.551 3.545-6.611 4.408-15.713-1.533-25.678-5.845-9.868-22.135-15.042-22.327-15.042-.096-.096-16.194-5.749-26.83-1.437-10.733 4.407-15.62 12.072-16.674 19.545-1.15 7.474-.67 12.552-2.108 14.18-1.437 1.725-3.258 2.587-3.258 2.587s-1.63 9.007 1.725 14.468c0 0-2.588 8.91-1.438 13.318 1.15 4.407 3.642 10.06 5.175 16 .575 2.396 1.82 4.6 3.45 6.324h-.48c-7.57-6.036-18.59-15.809-28.268-28.36-17.056-21.941-22.614-56.817-22.614-56.817-7.474 20.504-9.39 27.69-3.162 47.14 6.133 19.45 24.818 38.037 24.818 38.037-.479 1.054.192 3.066.192 3.066s-2.683-.862-10.924-.862c-8.145 0-6.612.862-9.103.766-2.492-.095-3.258-1.15-3.258-1.15-1.246.671-2.492 2.109-2.492 2.109-1.15.095-7.09.766-6.42 6.515.67 5.749 6.612 5.365 6.612 5.365 1.054 1.246 2.683 1.725 2.683 1.725s3.546 9.39 13.799 9.869c8.911.383 11.786-5.078 12.36-6.516.192.575.48 1.054.767 1.63 1.821 3.736 4.6 7.76 8.337 11.497 3.737 3.736 8.528 7.09 14.182 9.006 8.72 2.874 17.536 2.012 24.435-.192a33.596 33.596 0 0 0 7.378-3.161c-.383 1.916-.766 7.569 6.037 12.264 8.433 5.844 16.961.479 16.961.479s1.629.575 3.162.191c0 0 4.6 3.929 8.528-.287 3.93-4.216-.287-8.336-1.15-9.102 0 0-.095-1.917-.67-3.162 0 0-1.15.383-3.258-.958-2.108-1.437-.288-1.15-6.9-6.132-6.515-4.887-9.199-5.94-9.199-5.94s1.725-1.15 2.013-2.3c0 0 26.064-3.641 42.737-15.33 16.673-11.785 19.452-18.683 25.872-39.57 0 .383-25.489 24.815-52.32 32zm-65.256-43.403c-.096-.575-.096-1.342-.096-2.108 0-1.82.192-3.641.192-3.641s2.491-1.629 3.737-3.928c1.246-2.3 2.3-6.899 2.3-6.899 4.79-.575 9.199-5.557 9.486-5.94-1.15 1.15-2.683 2.012-4.312 2.683-2.97 1.245-6.133 1.724-6.133 1.724.192-1.724.192-5.461.863-8.527.67-2.779 5.366-15.043 21.848-15.138 1.724 0 3.545.095 5.462.383.67.096 1.341.287 2.012.383h.096c3.737.767 6.803 1.725 7.57 1.916.096 0 .191.096.191.096a7.89 7.89 0 0 1 1.534.575c.191.096.383.096.574.192l.863.287c.383.192.766.288 1.246.48.383.19.862.382 1.341.574l.863.383c21.272 10.252 16.577 26.444 15.427 29.51-1.15 2.779-3.354 5.558-4.312 7.09-1.15-1.245-2.683-3.065-3.833-5.173-.766-1.342-1.341-2.779-1.533-4.216 0 0 .383 7.09 4.025 10.443 0 0-1.917 4.312-2.3 6.899-.384 2.587.575 5.365.575 5.365s-.288.384-.671.959c0 0 0 .095-.096.095-.862 1.533-2.012 3.066-3.354 4.12-1.629 1.246-2.395 2.108-6.899 1.054-1.725-.383-3.545-.766-5.366-1.054-2.3-.287-5.366-.383-6.995 1.533l-.575.863s1.246-.863 3.545-.767c-.096.192-.575 1.533-.67 2.779-.096.766-.48 2.682-.48 2.682-.67 2.3-2.874 3.546-3.066 3.45-.192-.192-.575-.671.48-3.929 0-.191.478-.383.67-.287.192 0 .383-.096.575-.096 0 0-.096-.096-.288-.383-.095-.192-.287-.288-.479-.383-.191-.096-1.054-.48-1.054-.48-.479-.191-.862-.383-.862-.383v.288c0 .191-.096.575-.096.67v.192c-.096.192-.096.383-.192.575-.191.766-.383 1.341-.575 2.012v.096c-.191.67-.958.479-.958.479h-.096c-.479-.288-1.054-.48-1.629-.767 0 0-.67-.383-.575-.958v-.191c0-.096 0-.096.096-.192.192-.67.575-2.012.575-2.3.096-.383.288-1.053.48-1.34-.097-.097-.384-.384-.576-.48-.191-.096-.383-.096-.67-.096-.096.096-.288.384-.288.48 0 .095-.192.766-.479 1.628-.287.767-.575 1.629-.67 2.108-.097.383-.48.48-.672.48-.191 0-.383-.097-.383-.097-.479-.191-1.15-.479-1.725-.67h-.095c-.671-.288-.575-.767-.575-1.054.287-.863.67-1.917.862-2.683.096-.192.096-.383.192-.575 0-.096.287-.67.67-.862-.287-.192-.766-.384-1.054-.48-.479-.191-1.245-.287-1.245-.287.095.288.191.767.095.958-.095.288-.958 3.354-.958 3.45 0 .095-.191.479-.383.574-.192.096-.862-.095-.862-.095h-.096c-.575-.192-1.342-.288-1.82-.384 0 0-.863-.287-.576-1.054 0 0 .575-2.012.863-2.97v-.096c0-.095.191-.479.191-1.053 0-.575-.383-.767-.67-.767-.288 0-.576.48-.671.862l-.288.863v.095s0 .096-.096.096c-.287.767-.479 1.437-.766 2.204-.288.766-1.15.575-1.15.575-.575-.096-1.246-.288-1.725-.383h-.096s-.67-.192-.479-.959v-.095c.288-.671.48-1.246.767-2.012.096-.192.383-.863.575-1.15.191-.288.383-.383.383-.383 0-.192-.192-.48-.67-.575h-.192c-.096 0-.288-.096-.384-.096-.383-.096-1.054-.096-1.245.383.095.192.095.48.095.67 0 .192-.095.288-.095.384-1.15 3.162-1.725 3.45-2.013 3.354-.191 0-1.245-2.396-.383-4.6.48-.958.862-1.724 1.246-2.395.67-1.15 1.15-2.683 1.15-2.683.574.384 1.054.863 1.533 1.438.191.383.575.575.67.958.096.096.096.191.096.287.192-.575.096-1.341-.096-1.916v-.096c-.862-2.3-3.066-3.737-5.078-4.886-1.342-.767-2.779-1.437-4.216-2.108-4.217-1.82-4.312-3.066-4.792-4.982-.191 0-.287-.288-.287-.575zm4.6 30.18c-.096-.287-.192-.574-.192-.766-.575-1.724-2.779-8.048-3.258-9.485-.383-1.246-.767-2.396-.67-4.312 0-.287 0-.575.095-.862.287-2.395 1.437-7.282 1.629-7.857v-.096s1.916.959 2.587 1.246v.096c-.096.575-.575 4.407-.575 6.228v.67s1.15 1.15 1.438 2.108c.287.862 0 5.749 1.916 9.102v-.095s.096-.384.48-.959c.382-.574 1.245-1.437 1.724-1.15.48.384.383 1.342.383 2.3 0 1.054-.383 2.108-.575 2.395 0 0 .384.863 1.438 1.342v-.958c.191-.958.67-1.82.958-2.683.096-.287.383-.67.862-.383 0 0 .863.479 1.725.862.096.096.67.48.383 1.246v.191a21.917 21.917 0 0 1-.958 2.204s-.191.766-.575.766c0 0 .671.48.958.575.48.192 1.055.48 1.342.48 0 0-.287-.48-.192-1.15.192-.959.48-2.3.671-3.45.096-.287.288-.67.863-.575.574.288 1.245.48 1.82.671.48.192.48.767.48.862-.288 1.246-.576 2.683-.959 3.833-.096.192-.192.479-.287.479 0 0 .575.383.958.48.383.095 1.054.287 1.054.287s-.096-.48 0-.959c.287-.766.575-1.533.862-2.395a9.94 9.94 0 0 0 .384-.958c.095-.192.287-.575.862-.48.67.193 1.437.384 2.204.576.575.191.192.958.192.958s-.767 1.916-1.246 3.162c0 0-.192.479-.48.67 0 0 .48.192.863.288.767.191 1.246.096 1.438.191 0 0-.288-.574 0-1.34v-.097c.191-.575.479-1.15.766-1.724.096-.192.096-.288.192-.48.096-.287.479-.67 1.054-.574h.096c.479.096 1.054.191 1.533.287 0 0 .862.192.575 1.054a45.715 45.715 0 0 1-1.533 3.066c.575 0 1.15.096 1.724.096 0 0-.095-.096.192-.67.192-.671.958-2.013.958-2.204.096-.192.288-.959.671-1.054.383 0 1.63.958 1.246 2.97 3.545-1.533 6.228-5.557 6.995-6.132.67-.48 1.916-.767 2.3-.767h.095c.959-.958 3.45-5.365 3.738-5.94v-.096c.67.096 2.778.48 2.778.48s-2.203 5.077-3.45 7.28c-1.34 2.205-2.395 2.971-3.64 3.833-1.246.863-6.804 4.6-8.337 5.653-1.437 1.054-5.366 4.503-8.816 5.174-1.725.288-3.162.383-4.6.192a21.357 21.357 0 0 1-4.12-.958c-2.779-.958-5.078-2.108-7.378-4.6-2.108-1.724-3.067-5.94-3.642-8.143zm-39.671-6.994c-2.971-4.311-5.654-8.814-7.858-13.605-2.108-4.695-3.833-9.485-4.983-14.563-1.054-4.695-1.437-9.582-1.245-14.468.191-2.875.479-5.845 1.437-8.527l.192-.384c1.533 6.516 6.132 30.564 29.992 56.53 4.696 5.173 9.966 9.868 15.14 14.276-1.629.287-3.162.574-4.6.958-3.736-3.354-12.648-12.073-12.648-12.073-7.09-7.186-12.457-14.084-16.481-20.503-.863-1.342-1.438-2.492-2.013-3.354-.287-.479-.575-.958-.766-1.437l-.096-.096c.287.575 8.336 20.12 29.13 38.23-1.533.574-2.875 1.053-4.216 1.724-.192.096-2.3-2.012-2.587-2.204a85.548 85.548 0 0 1-6.037-5.749c-4.408-4.503-8.624-9.39-12.361-14.755zm1.245 24.912c.863 0 1.82.095 2.683.191 1.821.192 3.833.383 5.654.67-1.054.384-2.492 1.055-3.546 2.588-.287.383-.479.862-.67 1.437-.288.862-.48 1.629-.671 2.204-4.12-1.15-10.636-1.438-10.636-1.438-.192-.287-.384-.67-.384-1.053 0-.288.096-.671.288-1.054.383-.767 1.054-1.63 2.204-2.3.958-.67 2.3-1.054 3.45-1.245h1.628zm11.978 1.437c-.575.862-2.204 7.952-2.875 9.773 0 0-.766 1.916-1.054 2.49-.67 1.342-3.45 4.791-10.828 2.492-6.707-2.108-8.528-9.007-8.815-10.156-2.3-1.437-2.204-4.216-2.204-4.216-1.15 3.066.766 4.503 1.15 4.79-.096 0-.48.384-.48.384l-.095.096s-.671-.096-1.246-.958c-.288-.384-.48-.863-.67-1.533-.097-.192-.097-.48-.097-.671v.096c-.191 1.054-1.15 1.724-2.204 1.628-1.054-.191-1.724-1.15-1.629-2.203.192-1.054 1.15-1.725 2.204-1.629.767.096 1.438.766 1.534 1.533.095-1.916 1.437-2.97 1.437-2.97.383.191.766.287 1.054.287.383.096.767.096 1.246.096 1.341 0 2.683-.192 4.12-.479 1.629-.192 3.258-.383 4.887-.383h.67c-1.34.096-3.353.575-4.695 1.341-.766.48-1.533 1.15-2.012 1.916 0 .096-.191.288-.191.384-.192.287-.288.574-.288.862 0 .383.192.766.48 1.054-.192 0-1.821 0-1.821.096.862 5.653 5.27 8.91 8.72 9.58 3.353.672 5.27-.287 6.515-2.586.767.383 1.725.383 2.78-.383-1.534.096-2.109-.863-2.205-1.533-.287-1.725.767-4.312 1.15-6.324.384-2.012 1.917-3.162 3.162-3.737 1.246-.574 2.492-1.628 2.971-3.257.575-1.629.192-2.683.096-3.066s.096-.575.287-.67c.384-.097.575.382.575.382.767 3.354-1.054 6.611-1.629 7.474zm58.453 23.474s0 .287-.096.575c-1.533 4.503-18.11 12.743-33.539 7.569-15.331-5.174-23.476-22.229-22.135-26.253.096-.287.192-.383.192-.383v-.096c.096-.191.192-.383.383-.575 3.354-4.311 18.782-11.306 32.868-6.515 11.69 3.928 19.356 14.564 21.656 21.366.575 1.725.766 3.258.67 4.312zm18.685 6.323c.575.384 1.725 1.533 2.3 2.012l1.341 1.342c.288.287 1.63 1.629 2.109 1.916.383.287.67.48 1.054.67.287.192.67.288 1.054.384 0 0 .095.479.095.575 0 .575 0 1.533-.574 2.395a2.14 2.14 0 0 1 2.012-.191c.958.479 1.246 1.628.766 2.586-.479.959-1.629 1.246-2.587.767-.862-.48-1.246-1.533-.766-2.395l-.48.479c-1.054.862-1.916.958-2.49.958-.384 0-.576-.096-.576-.096s0-.192-.096-.67v-.192h.671c.958-.096 2.396-.671 3.162-3.066 0 .096-.191.287-.479.479-.67.67-2.012 1.629-3.929 1.533-.862.766-6.42 5.174-13.127 2.778-7.283-2.587-7.283-7.09-7.091-8.527.095-.958.67-2.491.67-2.587.575-1.82 3.546-8.431 3.642-9.485 0-1.054.575-4.79 2.97-6.707 0 0 .383-.288.67 0 .193.191.193.479-.095.67-.287.288-1.246.863-1.82 2.492-.575 1.628-.192 3.257.479 4.407.575 1.054.862 2.395.67 3.64-.095.48-.191.863-.383 1.246-.48.959-.862 2.012-1.246 2.97-.479 1.055-.958 2.108-1.629 2.683-.67.671-1.916.48-2.587-.095 0 0-.096 0-.096-.096.288 1.245 1.15 1.82 1.917 2.012-.384 2.587.479 4.407 3.641 5.94 3.162 1.533 8.624 1.533 12.745-2.395-.384-.48-.863-.767-1.342-1.15.288-.096.767-.287.958-.575.096-.191.288-.479.288-.862.096-.192.096-.383.096-.67.095-.863-.096-1.821-.48-2.588-.479-1.341-2.587-3.64-2.874-3.928.096.287 1.341 1.246 1.437 1.341zm-8.145-5.46c1.246.67 2.396 1.436 3.641 2.203.863.575 1.725 1.054 2.492 1.724.096.096.191.192.287.192.767.862 1.63 2.012 2.013 3.066.479 1.246.479 2.3.287 3.162-.096.383-.192.766-.383.958a2.569 2.569 0 0 1-.958.575c-2.3-1.533-5.75-3.641-9.391-5.27.191-.575.479-1.245.766-2.108.192-.575.384-1.533.384-1.533.191-1.82-.575-3.353-1.246-4.216.096.096.192.096.383.192.575.383 1.15.67 1.725 1.054zm61.998-49.153c-1.63 4.695-4.695 9.103-8.05 12.84-2.395 2.682-5.078 5.173-7.857 7.377-4.312 3.449-9.199 6.323-14.182 8.623-4.982 2.395-10.157 4.216-15.523 5.653-8.24 2.3-17.057 3.545-25.68 4.024a59.012 59.012 0 0 0-2.3-3.928c27.788-2.012 46.186-12.935 46.186-12.935l.096-.096c-.958.383-2.012.862-3.066 1.246-4.504 1.724-13.895 4.886-26.352 7.09-5.078.958-10.157 1.533-15.236 1.916-.383 0-3.353.287-3.353.287-.959-1.15-1.917-2.395-3.067-3.545 6.804-.287 13.703-.958 20.507-2.203 28.172-5.078 45.42-16.767 53.66-23.378.767-.575 1.438-1.15 2.013-1.63 1.437-1.149 2.3-1.916 2.3-1.916l-.096.575z" fill="#000"/><path d="M311.137 194.16c.958-1.342 2.683-4.983 2.683-9.486 0-5.078-2.3-11.21-10.54-16.288 0 0-.096 0-.096-.096-.096-.096-.192-.096-.288-.192a34.34 34.34 0 0 0-3.066-1.724c-.48-.192-.862-.383-1.342-.575a6.654 6.654 0 0 0-1.245-.48c-.288-.095-.575-.19-.863-.287-.191-.095-.383-.191-.575-.191a8.74 8.74 0 0 1-1.533-.575c-.096 0-.191-.096-.191-.096-.767-.287-3.833-1.15-7.57-1.916-20.315-3.45-24.244 11.785-24.34 15.521-.096 2.683.096 4.504 0 5.653 1.63-.67 3.162-1.533 4.312-2.682-.287.287-4.695 5.365-9.486 5.94 0 0-1.054 4.599-2.3 6.899-1.246 2.299-3.737 3.928-3.737 3.928-.192 3.257 1.533 8.048 3.545 9.006 1.917.958 7.187 2.683 9.2 5.078 2.012 2.3 2.108 4.79 1.628 6.515a14.87 14.87 0 0 1-.766 2.204h.192c.383.192.67.48.67.575 0 0-.191.096-.383.383-.192.288-.48.958-.575 1.15-.287.67-.479 1.246-.767 2.012v.096c-.191.67.48.958.48.958h.095c.575.096 1.15.192 1.725.383 0 0 .863.192 1.054-.575.288-.766.48-1.437.767-2.203 0 0 0-.096.096-.096v-.096l.287-.862c.096-.288.383-.863.671-.863.287 0 .67.192.67.767s-.19 1.054-.19 1.054v.096c-.288.958-.863 2.97-.863 2.97-.288.766.575 1.054.575 1.054.479.191 1.245.287 1.82.479h.096s.67.192.862.096c.192-.096.384-.48.384-.575 0-.096.862-3.066.958-3.45.096-.287 0-.766-.096-1.053 0 0 .863.191 1.246.287.383.096.862.288 1.054.48-.383.19-.575.766-.67.861-.097.192-.097.384-.192.575-.288.863-.671 1.917-.863 2.683 0 .192-.096.767.575 1.054h.096c.575.192 1.246.48 1.725.67 0 0 .191.097.383.097.287 0 .575-.096.67-.48.097-.383.384-1.245.672-2.012.287-.766.479-1.533.479-1.628 0-.192.191-.384.287-.48.288 0 .48 0 .67.096.193.096.48.384.576.48-.192.287-.383.958-.48 1.34-.095.288-.383 1.725-.574 2.3 0 .096 0 .096-.096.192v.192c-.096.67.575.958.575.958.575.287 1.15.575 1.629.766h.096s.67.192.958-.479v-.096l.575-2.012c.096-.191.096-.383.192-.575v-.191c0-.096.095-.384.095-.671v-.287s.384.191.863.383c.191-1.533.862-2.587.862-2.587.192-.383.383-.67.575-.862.863-1.438 2.3-2.779 4.791-3.354 3.067-.67 8.241 1.15 10.445 1.533 1.917.383 5.462-1.724 7.474-4.12.384-.575.671-.958.671-.958s-1.054-2.778-.575-5.365c.383-2.587 2.3-6.899 2.3-6.899-3.546-3.353-4.025-10.443-4.025-10.443.192 1.437.767 2.874 1.533 4.215.863-.958 2.109-2.3 3.45-4.12m-31.622-2.012c2.875 2.587 4.12 2.779 4.408 2.875.288.096 1.438.67 5.27.383 4.408-.192 12.266-1.054 14.566 1.82 0 .096-5.558-.574-9.391.096-3.737.767-9.103 1.342-11.403.48-2.396-.767-6.324-4.408-8.816-7.282-2.587-2.779-7.378-5.558-7.378-5.653 3.545-.959 9.295 4.407 12.744 7.281m3.258 24.337l-.383 1.15c-.48 1.532-2.3 2.299-4.12 1.724 0 0 1.15-.287 1.533-1.437-.383 0-.67 0-1.054-.096-1.15-.383-1.725-1.533-1.342-2.491.096-.192 0-.383-.191-.383-.192-.096-.384 0-.384.191-.383 1.054-1.533 1.533-2.587 1.15-.383-.096-.67-.383-.862-.575-.384 1.15.383 2.108.383 2.108-1.725-.575-2.779-2.3-2.204-3.832l.383-1.15c.288-.863.959-1.342 1.438-1.629a4.77 4.77 0 0 0 1.341-1.15c.67-.766 1.15-1.245 1.438-2.203.479-1.438 2.203-2.204 3.928-1.725.096 0 .096 0 .192.096.096 0 .096.096.192.096 1.629.67 2.491 2.3 2.012 3.736-.288.958-.192 1.629-.192 2.683 0 .766.192 1.246.384 1.725.191.383.383 1.245.095 2.012m23.956-12.36s-.862 6.036-2.395 8.431c-1.438 2.396-2.875 4.6-6.516 4.312 0 0 2.108-.575 1.437-2.3-.096-.095-.096-.287-.096-.383 0 0-.575.192-.862.192-2.204.287-6.9-.48-9.103-2.012h-.096s-.575.67.191 2.778c-.191-.096-2.97-1.054-4.024-3.353-1.054-2.3 0-8.623-3.737-9.869-3.737-1.245-6.708 4.408-9.008 5.653-2.204 1.246-5.174.288-5.174.288 1.82-1.246 1.82-2.108 1.82-2.108h-.095c-2.683-.096-6.9-2.396-8.433-3.929-.192-.191-.575-.67-.575-.67-.096 0-.096.096-.191.096-.096 0-.096.095-.192.095-1.533.863-.288 2.587-.192 2.683-3.066-2.012-2.874-4.599-2.587-7.377.287-2.779 3.162-8.145 3.162-8.145.192.096 2.78 1.246 5.079 3.354l.67.67c2.492 2.683 4.888 5.174 7.187 5.94.767.288 1.534.288 2.3.288h.575a8.178 8.178 0 0 0 2.108-.479c.767 1.725 6.9 3.737 8.624 2.875l.096.096c.096.191.575.862 1.342 1.628l.383.384a6.915 6.915 0 0 0 2.012 1.15c2.3.766 5.654.19 9.295-.48.288-.096.67-.096.958-.096 3.163-.383 6.037.288 6.037.288" fill="#FFF"/></g></svg>