<svg width="512" height="512" viewBox="0 0 512 512" xmlns="http://www.w3.org/2000/svg"><title>tennessee-titans</title><g fill="none" fill-rule="evenodd"><path d="M185.953 278.378c.39 4.645 2.043 13.912 7.408 24.24 6.605 12.767 20.472 29.776 49.048 39.405a115.291 115.291 0 0 0 15.917 19.802c21.729 21.671 50.591 33.573 81.277 33.536 30.673-.046 59.502-12.039 81.174-33.767 21.646-21.734 33.567-50.599 33.522-81.296-.05-30.69-12.041-59.517-33.77-81.184-17.213-17.162-38.803-28.214-62.56-32.047-32.155-29.128-69.713-18.688-71.31-18.218l-2.365.68c-11.55 3.849-17.516-.557-21.388-3.59-4.296-3.36-8.97-6.777-13.486-9.325-15.343-8.627-37.147-8.937-55.51-1.54-12.095 4.139-18.186-1.197-21.804-3.688-23.949-16.532-53.406-20.477-84.659-13.593C66.407 122.421 58 126.714 58 126.714s14.41 2.086 29.466 8.375c12.365 5.176 22.203 11.808 29.643 23.708 0 0 4.68 6.892 1.636 8.921-3.397 2.272-6.962-3.29-6.962-3.29-.113 3.991-.103 7.985.152 11 1.74 31.767 8.215 50.858 23.54 65.433 6.964 6.642 18.722 13.087 36.902 20.234 8.294 3.32 12.769 7.563 13.576 17.283" fill="#FFF"/><path d="M415.362 204.305c-16.668-16.62-37.823-27.105-60.73-30.328-29.838-28.562-65.946-18.086-65.946-18.086 7.654 1.133 12.734 5.694 10.778 10.739-1.306 3.347-6.862 3.523-9.391 3.548-8.072.086-15.025-4.857-20.582-9.377-5.782-4.704-15.215-13.04-23.663-17.794-15.724-8.858-40.708-7.748-58.769 3.796 10.805.737 23.805 3.842 31.558 10.265 4.335 3.59 9.857 10.8 5.344 14.184-3.978 2.951-13.723 1.416-18.673-1.452-7.891-4.564-14.983-11.473-19.246-16.488-28.601-33.707-69.136-35.582-102.568-27.335 21.942 6.162 36.581 18.664 45.621 40.204 9.047 21.55 16.077 30.717 30.973 36.561 9.327 3.655 11.848 4.329 11.123 8.464-1.08 6.057-12.125 3.143-20.552-.144-10.267-4.005-23.798-15.085-31.859-35.847 1.464 26.875 6.59 45.931 21.733 60.345 6.43 6.114 18.252 12.45 36.744 19.571 11.812 4.535 21.15 7.28 29.943 15.168 10.257 9.188 5.882 15.26-.914 14.11-7.7-1.298-13.193-9.164-13.193-9.164s.011 43.781 54.123 60.633a108.598 108.598 0 0 0 16.28 20.766c20.35 20.276 47.37 31.44 76.089 31.384 28.732-.04 55.716-11.27 75.99-31.61 20.293-20.345 31.436-47.365 31.39-76.1-.05-28.739-11.26-55.729-31.603-76.013" fill="#024"/><path d="M409.638 209.754c-16.145-16.138-36.846-26.034-59.219-28.486-19.235-19.177-38.431-18.284-38.431-18.284 8.42 5.287 4.088 17.05-14.657 19.644-18.564 2.556-42.138-3.727-53.612-17.102-11.832-13.787-20.76-14.42-20.76-14.42 10.252 6.418 10.99 14.116 17.218 25.838 6.229 11.725 19.05 15.939 30.226 16.676 11.772.767 12.047 6.097 2.567 11.729-10.352 6.135-19.515.33-26.171-6.224-10.515-10.37-20.988-12.37-35.464-12.182-14.464.188-33.602 2.086-49.739-3.953-16.145-6.046-26.81-27.303-26.81-27.303 8.004 28.22 25.736 41.596 42.203 44.824 21.76 4.274 36.79 9.447 46 16.9 8.98 7.29 13.758 14.565 17.147 24.589 2.602 7.728 3.073 18.002.495 18.62-2.992.717-3.617-3.424-7.152-10.627-3.901-7.963-8.573-14.2-17.961-19.228-12.749-6.797-25.213-6.4-37.929-6.228-10.073.148-15.978-1.008-15.978-1.008s.423 1.354 16.833 5.037c18.29 4.112 35.965 14.42 47.745 39.545 10.007 21.371 4.777 36.419-17.41 29.618 0 0 10.37 23.037 44.212 31.244 4.365 7.68 9.799 14.812 16.217 21.235 18.763 18.755 43.692 29.094 70.212 29.094 26.526 0 51.462-10.337 70.217-29.094 18.757-18.757 29.08-43.696 29.08-70.228.002-26.531-10.32-51.468-29.079-70.226" fill="#4B92DB"/><path d="M339.42 185.522c25.23 0 48.95 9.825 66.783 27.666 17.838 17.837 27.66 41.563 27.66 66.795 0 52.093-42.375 94.467-94.443 94.467-25.213 0-48.939-9.835-66.78-27.676-17.834-17.84-27.661-41.558-27.661-66.79 0-25.233 9.827-48.959 27.66-66.796 17.844-17.84 41.568-27.666 66.781-27.666" fill="#FFF"/><path d="M339.552 366.301c-47.659.07-86.359-38.522-86.42-86.184-.07-47.677 38.5-86.374 86.169-86.446 47.651-.07 86.344 38.523 86.414 86.18.07 47.677-38.514 86.377-86.163 86.45" fill="#024"/><path fill="#FFF" d="M318.31 262.523h-25.557l-8.43 15.028-11.335-32.146H405.62l-11.32 32.146-8.358-15.028h-25.14l-21.294 93.17-21.197-93.17"/><path fill="#A5ACAF" d="M405.62 245.404H272.988l2.147 6.085h63.238l-20.062 11.034 21.197 93.162V251.489h63.965l2.147-6.085"/><path d="M274.305 170.857c-19.235-.555-27.073-8.174-39.01-17.775-14.629-11.743-30.84-8.48-30.84-8.48 9.71-5.551 28.802-5.783 42.56 6.281 12.285 10.777 18.322 16.62 27.29 19.974zm-164.167-42.375s17.996-.431 33.731 27.798c13.215 23.724 38.432 28.471 56.893 23.25 0 0-24.306-.629-37.62-24.211-13.585-24.105-31.563-30.795-53.004-26.837zm101.886 136.683s-2.553-26.237-39.94-33.841c-37.623-7.662-42.476-27.248-42.476-27.248s.25 28.257 32.638 36.934c22.617 6.056 39.202 9.542 49.778 24.155zm140.361-28.06l-5.082-15.127 12.854-9.455-15.955.156-5.012-15.16-4.787 15.238-15.956.087 13.012 9.256-4.855 15.206 12.816-9.511 12.965 9.31zm-56.946 53.503l-10.561 11.97-14.612-6.42 8.119 13.736-10.617 11.931 15.579-3.473 8.06 13.78 1.502-15.887 15.599-3.409-14.64-6.35 1.571-15.878zm74.786 22.58l15.65 3.148 1.754 15.871 7.84-13.905 15.637 3.236-10.797-11.75 7.904-13.873-14.517 6.636-10.736-11.807 1.813 15.855-14.548 6.589z" fill="#C60C30"/></g></svg>