<?xml version="1.0" encoding="UTF-8"?>
<svg width="512px" height="512px" viewBox="0 0 512 512" version="1.1" xmlns="http://www.w3.org/2000/svg" xmlns:xlink="http://www.w3.org/1999/xlink">
    <!-- Generator: Sketch 42 (36781) - http://www.bohemiancoding.com/sketch -->
    <title>washington-redskins</title>
    <desc>Created with Sketch.</desc>
    <defs></defs>
    <g id="NFL" stroke="none" stroke-width="1" fill="none" fill-rule="evenodd">
        <g id="washington-redskins">
            <g id="Imported-Layers" transform="translate(92.000000, 92.000000)">
                <path d="M101.095851,246.648644 C99.9595294,246.993907 97.6290031,246.415084 97.6290031,246.415084 C98.4099071,252.086539 99.2700186,254.02509 99.2700186,254.02509 L97.9113065,255.554402 L99.5401362,256.715096 C97.7884334,267.93818 102.95418,275.66192 105.342588,283.18561 C103.458873,283.765449 101.306056,283.663901 99.6873808,282.854563 C100.325102,289.223653 99.7412012,301.481511 94.1641858,306.804656 C93.1019938,306.176074 92.3292136,305.996334 91.9159133,305.41548 C91.0882972,307.20374 90.4495604,307.905437 88.7638638,312.473065 C87.8194675,315.532706 87.0009907,319.820062 86.5643344,324.444557 C81.9733498,322.270415 76.9660186,319.992693 72.453226,312.977759 C71.4489164,311.314402 70.7451889,309.978031 68.2917895,307.756161 C67.7241362,308.807183 67.6286811,309.116904 66.4964211,310.093796 C65.2981548,311.133647 62.1948483,312.406043 62.1725077,312.302464 C61.5429102,309.478415 60.7904396,306.863554 58.9737461,303.683071 C57.2321981,300.158341 51.2520372,295.468854 46.365548,284.017288 C44.3620062,279.623307 43.3587121,275.705585 42.5239876,271.184669 C42.150291,271.352223 41.8913437,271.465957 41.644582,271.519777 C39.8278885,271.989944 38.5219814,271.871133 37.8964458,270.605845 C36.3600248,274.419988 34.4478762,276.552495 32.8170155,277.587269 C32.0675913,279.786799 32.1864025,280.368669 30.5565573,282.15896 C29.0627864,284.233585 28.5530155,284.764681 27.5091022,288.694588 C25.8193437,292.685424 23.2897833,294.656471 22.9059319,295.688198 C22.2753189,294.42291 22.0295728,294.659517 21.4030217,293.72426 C15.2573375,301.246935 14.5028359,303.209858 0.583653251,305.879554 C4.09010526,299.505387 6.47445201,288.868235 6.22565944,286.674799 C4.46583282,271.746229 2.8370031,268.624644 1.95150464,257.053251 C1.43056347,251.266031 -0.0469597523,237.038142 1.33510836,218.075071 C2.83294118,195.172954 9.85803096,175.385313 15.884904,160.457759 C23.6604334,139.640421 41.4668731,106.094043 54.4599381,85.596582 L54.5117276,66.9960372 L59.5302291,66.9960372 L64.8026006,55.8897337 L67.179839,57.5134861 L76.2084706,35.2988483 L82.6039628,52.0735604 L93.5437276,45.7065015 C97.9143529,42.0121858 129.015455,0.597869969 194.881511,0.683170279 C258.71356,0.597869969 324.443542,46.6397276 324.443542,120.21226 C324.443542,187.068409 265.229895,238.663926 196.896223,238.663926 C143.940978,238.661895 109.835071,213.789746 91.7473437,191.001362 C92.8999133,202.455975 90.491195,225.248421 101.097882,246.647628 L101.095851,246.648644" id="Fill-1" fill="#FFFFFF"></path>
                <polyline id="Stroke-2" stroke="#FFFFFF" stroke-width="2.584" points="101.054217 246.648644 100.032644 246.758316 98.8932755 246.661845 97.9671579 246.498353 97.5873684 246.417115 98.1722848 249.996681 98.6983034 252.351579 99.0780929 253.63413 99.2253375 254.027121 97.8676409 255.55948 99.4944396 256.718142 99.3228235 264.531245 100.841981 271.342068 103.13595 277.458303 105.297907 283.189672 102.370279 283.543059 99.6457461 282.855579 99.8346254 288.537189 99.2121362 295.221077 97.4259071 301.715071 94.124582 306.805672 92.7567307 306.09382 91.8773251 305.417511 91.2710836 306.632025 90.6242229 307.903406 89.8128545 309.695728 88.7293375 312.475096 87.4386625 317.86831 86.5308235 324.442526 83.025387 322.720272 79.4498824 320.521759 75.8875789 317.421498 72.4268235 312.976743 71.695678 311.771368 70.8883715 310.573102 69.8119628 309.272272 68.2694489 307.75413 67.581969 308.950365 66.475096 310.09278 65.2940929 310.889932 63.8724211 311.626155 62.6650155 312.145065 62.1532136 312.301449 60.996582 308.123765 58.9554675 303.683071 56.9387245 300.72904 53.8344025 296.817412 50.1380557 291.427245 46.3523467 284.017288 43.9903406 277.644136 42.5138328 271.180607 41.6344272 271.515715 39.3140557 271.709672 37.8873065 270.602799 35.3780557 275.135901 32.8027988 277.587269 32.3620805 278.979492 32.0015851 280.025437 31.480644 281.001313 30.5443715 282.15896 29.5816966 283.503455 28.8505511 284.726093 28.2057214 286.303133 27.4999628 288.695604 26.1209412 291.325697 24.7094241 293.300805 23.5416223 294.71943 22.90187 295.688198 22.1483839 294.578279 21.4009907 293.72426 19.3111331 296.29444 17.5127183 298.417808 15.783356 300.169511 13.9057337 301.618601 11.6666006 302.843269 8.846613 303.91257 5.22439628 304.899616 0.59279257 305.883616 2.98627864 300.502588 4.81921981 294.713337 5.94234056 289.708037 6.22972136 286.679876 4.9410774 277.375034 3.76312074 270.602799 2.74256347 264.463207 1.9535356 257.053251 1.44071827 251.18987 0.930947368 242.507517 0.777609907 231.353486 1.33917028 218.080149 3.39551703 201.510563 6.91009288 186.275319 11.2756409 172.538923 15.8828731 160.46182 19.2359876 152.110514 23.3608669 142.865585 28.0706625 133.032693 33.2069598 122.909375 38.5818947 112.806365 44.0319752 103.017139 49.3784768 93.849387 54.4457214 85.6036904 54.4975108 67.004161 59.5129659 67.004161 64.782291 55.8968421 67.1574985 57.5216099 76.1851146 35.3059567 82.5775604 52.0796533 93.5122477 45.7125944 94.6445077 44.5935356 96.4134737 42.7098204 98.8353932 40.1731517 101.916359 37.1013251 105.673635 33.6121362 110.114328 29.8172879 115.253672 25.8325449 121.103851 21.7797647 127.672991 17.7665882 134.970229 13.9148731 143.016892 10.3393684 151.81704 7.15990093 161.383876 4.48614241 171.729585 2.4379195 182.866353 1.13201238 194.80535 0.685201238 206.77278 1.20106502 218.687406 2.77505882 230.444632 5.37570279 241.95408 8.97760991 253.110142 13.5482848 263.815331 19.0664025 273.973176 25.498452 283.480099 32.8231084 292.241659 41.0119381 300.153263 50.0344768 307.117424 59.8683839 313.038687 70.4811641 317.821598 81.8494613 321.357498 93.9438266 323.54992 106.736842 324.305437 120.207183 323.619988 132.553387 321.626601 144.488322 318.393313 155.96426 313.989176 166.920272 308.492384 177.30457 301.975034 187.065362 294.508211 196.151876 286.171121 204.50826 277.033833 212.075616 267.166415 218.811294 256.645028 224.655381 245.545833 229.558118 233.935851 233.460607 221.898353 236.316136 209.497313 238.068854 196.810923 238.667988 177.836681 237.555022 160.596879 234.425313 145.056991 229.59569 131.183505 223.381969 118.94291 216.104025 108.305759 208.068533 99.2395542 199.595368 91.7026625 191.00644 92.0001981 195.805598 92.1575975 201.519703 92.3708483 207.99948 92.8359381 215.094638 93.7407307 222.654885 95.2801981 230.532978 97.6523591 238.580656 101.054217 246.648644"></polyline>
                <path d="M195.030786,233.126514 C262.985684,233.126514 318.075467,182.326118 318.075467,119.651715 C318.075467,56.9783282 262.985684,6.17285449 195.030786,6.17285449 C127.075889,6.17285449 71.9921981,56.9773127 71.9921981,119.651715 C71.9921981,182.328149 127.075889,233.126514 195.030786,233.126514" id="Fill-3" fill="#FFB612"></path>
                <path d="M195.030786,217.290105 C253.491963,217.290105 300.89761,173.576743 300.89761,119.651715 C300.89761,65.7266873 253.491963,22.015356 195.030786,22.015356 C136.566563,22.015356 89.1700557,65.7307492 89.1700557,119.651715 C89.1649783,173.576743 136.566563,217.290105 195.030786,217.290105" id="Fill-4" fill="#FFFFFF"></path>
                <path d="M128.381796,110.397647 C128.381796,110.397647 119.730923,129.720198 120.104619,144.988954 C120.104619,144.988954 122.796656,139.269771 123.747146,140.247678 C123.747146,140.247678 115.969585,164.308458 121.862415,178.07735 C121.862415,178.07735 123.117548,174.256099 125.245994,171.939789 C125.245994,171.939789 128.5067,167.197498 129.770972,163.379294 C129.770972,163.379294 130.390415,164.998985 130.76208,167.891071 C130.76208,167.891071 133.652136,164.537957 134.271579,162.219616 C134.760025,160.412062 136.029375,158.409536 136.909796,156.091195 L137.908012,156.561362 C137.908012,156.561362 143.80795,149.962774 146.062316,143.941994 C146.062316,143.941994 147.81605,143.717573 146.944768,148.459864 C146.944768,148.459864 151.834303,144.062836 151.962254,137.234749 L152.957424,138.282724 C157.09652,143.025015 157.09652,150.313115 156.97974,154.821845 C155.977461,169.280248 147.941969,177.029375 137.911059,185.475121 L138.797573,186.169709 C153.717003,183.629994 163.545833,182.140285 178.685622,186.169709 C184.44644,187.711207 198.369684,193.574588 205.138873,197.511604 C205.138873,197.511604 220.1893,203.523245 230.723889,203.523245 C230.723889,203.523245 231.226551,203.750712 231.226551,203.233833 C231.226551,203.233833 230.094291,199.649189 231.099616,186.170724 C231.099616,186.170724 232.232892,179.930601 233.112297,175.645276 C233.112297,175.645276 234.23948,172.757251 234.36743,166.857313 C234.379616,166.370898 233.857659,162.803517 236.493845,163.151827 C242.20592,163.89922 245.397573,162.690799 249.790539,161.996211 C249.790539,161.996211 254.43839,160.728892 256.326167,160.605003 C256.326167,160.605003 260.729288,161.255926 262.086985,160.835517 C263.584817,160.374489 265.218724,159.210749 267.231406,157.481387 C267.231406,157.481387 269.481709,155.279827 267.975752,150.308037 C267.975752,150.308037 266.474873,145.794229 267.345139,144.406068 C267.345139,144.406068 268.674402,141.338303 270.609907,139.540904 C270.609907,139.540904 271.989944,137.46831 270.109276,136.427443 C270.109276,136.427443 269.110043,135.380483 270.794724,134.976322 C270.794724,134.976322 272.05595,135.08904 272.861226,134.685895 C272.861226,134.685895 273.297882,134.517325 273.363889,133.64909 C273.44208,132.714848 273.872644,128.211195 270.609907,124.273164 C270.609907,124.273164 271.552272,124.509771 272.243814,124.743331 C272.243814,124.743331 276.252929,125.086563 278.329585,124.160446 C280.146279,123.234328 282.779418,122.080743 282.408768,116.523022 C281.385164,111.901573 279.389746,109.119158 277.379096,103.916854 C275.000842,98.365226 274.629176,95.5848421 269.614737,91.7788235 C266.600793,90.5013498 265.218724,88.4216471 267.476136,86.3358514 C269.22987,83.9007307 268.601288,79.5138576 265.478687,76.5029598 C262.463728,73.7246068 260.208347,69.4453746 259.068978,67.2448297 C257.571146,64.9335975 255.936223,62.384743 254.43839,60.8818328 C252.922279,59.1463777 250.672991,58.1126192 246.668954,53.708483 C246.668954,53.708483 244.268359,51.7435294 243.898724,49.6678885 C240.509053,44.8098328 231.099616,37.9786997 220.31522,37.2861424 C217.169263,36.9347864 217.169263,36.9347864 214.912867,36.7042724 C211.159653,35.4328916 199.366885,35.0805201 191.336471,37.1683467 C188.744966,37.6801486 183.561957,38.5534613 183.561957,38.5534613 C180.807975,39.3638142 176.919703,40.0644954 172.655703,42.4864149 C169.521932,43.9883096 164.885251,47.573969 161.370675,49.8872322 C157.600198,53.3632198 149.20218,58.4548359 144.560421,61.3438762 C135.530774,67.4702663 127.752198,75.5717647 123.23839,80.6654118 C123.23839,80.6654118 111.83252,93.847356 106.187467,116.638786 C105.81174,120.108681 104.813523,123.462811 105.42992,127.282031 C105.42992,127.282031 110.45756,117.218625 115.098303,114.086885 C115.098303,114.086885 114.460582,115.946229 114.090947,118.945957 C114.090947,118.945957 116.468186,114.902316 117.466402,114.204681 C117.466402,114.204681 119.224198,112.469226 121.738526,109.700012 C121.738526,109.700012 127.012929,103.333969 128.511777,102.639381 C126.573226,105.995542 126.130477,108.192025 125.943628,111.658873 C126.759059,110.969362 127.25969,110.442328 127.512545,110.040198 C127.512545,110.040198 128.002006,109.113065 128.511777,109.342563 C128.768693,109.943728 128.385858,110.397647 128.385858,110.397647 L128.381796,110.397647" id="Fill-5" fill="#000000"></path>
                <path d="M278.876929,112.482427 C277.744669,110.746972 276.998291,108.782019 276.115839,106.356037 C275.744173,105.368991 274.991703,103.34717 274.11839,101.614762 C274.060508,100.915096 272.482452,97.681808 271.479158,96.4033189 C268.961783,93.0502043 266.901375,92.7597771 265.523368,91.3706006 L265.001412,91.3604458 C263.543183,92.25813 263.519827,94.2362848 262.277895,95.7402105 C262.151975,95.9037028 261.734613,96.1027368 261.447232,95.9829102 C261.054241,95.7970774 260.893796,95.4792322 260.438861,94.886192 C260.026576,94.3205697 259.69756,94.7247307 259.245672,95.1918514 C258.957276,95.1918514 258.744025,95.4030712 258.517573,95.614291 C258.128644,95.9900186 258.433288,96.1860062 258.744025,96.6084458 C259.058824,97.0440867 258.744025,97.0440867 258.942043,97.2674923 C258.883146,97.4472322 258.82831,97.5162848 258.767381,97.5975232 C258.601858,97.8280372 258.198712,97.7721858 257.902192,97.7224272 C257.071529,97.5975232 257.260409,97.6533746 256.518093,97.3263901 C255.606192,96.9273065 255.170551,95.8255108 254.465808,95.4853251 C254.257635,95.3726068 253.542737,95.2517647 252.997424,95.5838266 C252.595294,95.8336347 252.41657,96.3779319 252.759802,96.6693746 C253.350811,97.1649288 253.812854,97.7478142 254.441437,98.1865015 C255.296471,98.7764954 256.230712,99.2121362 256.34343,100.038737 C256.494737,101.091789 254.805994,101.47361 254.010873,100.919158 C253.597573,100.633808 253.113189,100.312916 252.67044,99.8813375 C252.599356,99.8214241 252.529288,99.4680372 252.434848,99.4040619 C252.077399,99.1552693 251.661053,98.8567183 251.463034,98.5967554 C251.105585,98.1012012 250.635418,97.5782291 249.990588,97.3456842 C249.837251,97.2949102 249.715393,97.0958762 249.602675,96.9212136 C249.308186,96.4439381 249.627046,95.8894861 249.413796,95.4467368 C249.235071,95.0862415 249.149771,94.5003096 248.598365,94.7277771 C248.086563,95.1938824 248.154601,95.1938824 247.578824,95.1481858 C246.845647,95.0882724 247.430563,93.8392322 247.430563,94.0057709 C247.441734,94.0748235 247.401115,93.9813994 247.64483,93.5711455 C247.143183,93.42187 246.387666,93.0481734 246.964458,92.3627245 C247.460012,91.7859319 247.946427,92.6328421 248.134291,92.2865635 C248.200297,92.1545511 248.627814,91.428483 248.789276,91.3279505 C249.351851,91.024322 249.515344,91.4355913 249.594551,91.5483096 C249.351851,92.1809536 250.069796,92.6013622 250.763368,92.2571146 L250.876087,91.6193932 C251.515839,90.5917276 252.507963,90.0514923 253.51735,89.3426873 L253.927604,89.1497461 C254.232248,88.5912322 254.581573,87.7839257 253.939789,87.5280248 C253.404632,87.3198514 252.302836,87.5107616 252.531319,86.635418 C252.634898,86.2251641 253.215752,86.0677647 253.544768,85.9327059 C254.73491,85.4178576 255.969734,84.9070712 257.208619,84.4592446 C257.506155,84.3485573 258.015926,83.9281486 258.392669,83.9037771 C259.955492,83.7890279 259.58992,83.8215232 261.502068,84.1302291 C261.840223,84.1810031 262.494192,84.5110341 262.825238,84.616644 C263.838687,84.9476904 265.286762,84.841065 265.953932,83.8276161 C266.618056,82.8375232 266.431207,81.1599505 265.756929,79.995195 C264.963839,78.5846935 263.743232,77.3661176 262.686118,76.3993808 C261.341622,75.153387 259.59195,74.5166811 259.243641,72.806613 C258.812062,70.7147245 257.055282,67.9455108 256.060111,66.2882477 C255.013152,64.579195 254.089065,63.4388111 252.764879,61.8536471 C252.453127,61.4870588 250.516607,59.6663034 250.18556,59.3667368 C247.974861,57.3794427 247.022341,56.7203963 244.667443,55.9374613 C243.459022,55.5393932 238.75735,55.7942786 236.308012,55.5079133 C235.538279,55.4134737 233.175257,55.3616842 232.531443,54.2060681 C231.952619,53.1580929 231.220458,51.6592446 230.002898,50.9473932 C229.56218,50.6955542 228.891963,50.4305139 228.430935,50.2121858 C226.224297,49.190613 223.943529,47.4785139 221.560198,47.5648297 C220.682824,47.5932632 221.523641,48.4675913 221.750093,48.5660929 C222.829548,49.0900805 223.317994,49.6770279 223.91205,50.3106873 C224.526415,50.9768421 225.866848,51.0012136 227.018402,51.4409164 C228.112074,51.8562477 229.019913,52.5031084 230.040471,52.9986625 C231.005176,53.4657833 232.297882,55.0093127 231.230613,55.6419567 C230.264892,56.2126563 229.24535,55.5190836 227.965845,55.8166192 C227.708929,55.8785635 227.322031,56.0359628 225.837399,56.0359628 C223.86026,56.2857709 223.173796,55.4094118 221.651591,54.4122105 C220.129387,53.4079009 219.170774,51.8714799 217.703406,50.9169288 C215.90296,49.7430341 214.078142,48.7671579 212.015703,48.0989721 C211.561783,47.9507121 210.961635,48.1842724 210.557474,47.9872693 C209.849684,47.6206811 209.305387,46.8346997 208.409734,46.7686935 C206.884483,46.6712074 206.884483,46.5554427 205.363294,46.7686935 C205.150043,46.8103282 204.589498,47.3972755 204.405697,47.3952446 C203.504966,47.3617337 202.463084,47.1322353 202.007133,47.5892012 C201.31356,48.3244087 202.168594,48.2421548 203.061201,48.6432693 C203.564879,48.8544892 204.621994,49.3845697 205.225189,49.3713684 C207.762873,49.3266873 209.389672,49.3084087 211.376966,50.301548 C211.589201,50.4142663 212.479777,51.2225882 212.529536,51.5252012 C210.644805,51.4937214 207.665387,50.8062415 205.484136,50.9697337 C209.151034,50.6955542 201.744124,51.0621424 200.128495,51.0042601 C199.643096,50.9890279 199.643096,51.9039752 200.397598,52.4117152 C200.597647,52.5396656 201.719752,52.3518019 201.865981,52.6828483 C202.522997,52.3609412 204.403666,52.5152941 204.947963,52.7082353 C205.890328,53.0179567 205.357201,52.8849288 206.182786,53.2840124 C206.684433,53.530774 207.165771,53.8648669 207.755765,53.8008916 C208.521437,53.7186378 208.569164,52.6747245 209.338898,53.0098328 C209.602923,53.126613 210.190885,53.4576594 210.31782,53.4495356 C214.667121,53.3743901 214.767653,54.6305387 216.795567,54.6021053 C217.32057,54.6021053 218.100458,54.4081486 218.471108,54.639678 C219.284508,55.1636656 220.05018,55.2266254 221.305313,54.7605201 C221.305313,54.7605201 224.197399,61.929808 223.439851,75.003096 C222.688396,80.5547245 222.315715,81.6016842 220.930601,86.1134613 C220.930601,86.1134613 218.933152,93.2807183 219.673437,98.2525077 C220.437077,115.028235 214.906774,128.911876 208.897164,138.16696 C206.636706,140.708706 205.376495,142.094836 207.642031,143.938947 C212.408693,147.992743 216.300012,148.91683 223.061077,150.311084 C225.45761,151.00161 226.956458,151.232124 229.206762,151.232124 C232.71626,151.232124 238.24961,152.617238 240.750737,154.357771 C243.125944,155.51948 249.528545,157.714947 253.412755,157.132062 C256.796334,157.365622 257.805721,157.598167 259.446737,158.175975 C260.567827,158.631926 261.70618,158.631926 262.959282,158.289709 L264.895802,156.957399 C265.143579,156.3867 266.964334,155.633214 266.591653,153.313858 C266.465734,151.582464 265.711232,149.78405 265.346675,148.169437 C264.262142,146.740656 264.33018,145.680495 264.706923,144.180632 C265.840198,142.091789 267.15626,141.054985 267.850848,140.014118 C269.348681,138.449263 268.480446,137.357622 266.402774,136.827542 C265.401511,136.427443 263.46296,136.598043 261.450279,136.427443 C260.38504,136.427443 259.505635,136.021251 258.00374,136.307616 C258.00374,136.307616 256.987245,136.946353 256.436854,137.414489 L255.674229,137.005251 C255.674229,137.005251 256.37491,135.153015 257.801659,134.053251 C259.245672,134.283765 261.35787,134.439133 262.452557,134.174093 C263.751356,133.627765 265.243096,133.405375 266.337783,133.009337 C268.227591,132.841783 269.104966,132.952471 271.359331,133.072297 C271.359331,133.072297 272.486514,128.56052 268.537313,125.144446 C267.596978,124.343232 266.831307,123.296272 265.47361,123.241437 C260.685622,123.765424 258.065684,121.96904 257.304074,121.50395 C256.123071,121.446068 255.754452,121.913189 255.113684,122.610824 C253.475715,125.146477 251.540211,126.016743 251.540211,126.016743 L250.537932,125.899963 C250.537932,125.899963 251.417337,124.515864 253.413771,122.197523 C254.31044,120.344272 255.552372,118.036087 256.68057,116.875393 C257.366019,115.777659 257.563022,113.291765 259.250749,112.598192 C260.070241,112.598192 260.203269,112.421498 260.812557,112.771839 C259.573672,113.866526 256.05605,117.800495 259.699591,120.226477 C261.196409,121.388186 263.46296,121.388186 264.015381,120.170625 C264.290576,119.503455 264.895802,119.073907 265.209585,118.8373 C267.0933,118.491022 268.664248,119.359257 269.28369,119.825362 C270.789647,121.446068 271.671084,122.195492 272.412384,122.538724 C273.236954,123.12161 274.749003,123.000768 275.492334,123.000768 C277.940656,122.609808 279.253672,121.328272 279.693375,120.51995 C281.004359,117.976173 280.758613,115.487232 278.876929,112.482427 Z" id="Fill-6" fill="#5B2B2F"></path>
                <path d="M253.473684,93.3832817 C254.231232,93.7366687 254.539938,93.6269969 256.07839,93.8280619 C256.07839,93.8280619 257.426947,94.027096 258.643492,93.0461424 C258.840495,92.8867121 259.863084,92.412483 259.829573,92.0306625 C259.699591,90.268805 259.990019,93.1761238 259.614291,90.5287678 C259.527975,89.9672074 259.55844,89.4564211 259.312693,88.8593189 C259.19896,88.5495975 258.668879,88.0113932 257.888991,88.2601858 C257.744793,88.3109598 256.503876,89.2441858 256.48052,89.2898824 C255.796087,90.5013498 254.728817,90.6414861 254.253573,91.4630093 L253.370105,92.8054737 C253.28582,93.0146625 253.172087,93.2309598 253.473684,93.3832817" id="Fill-7" fill="#5B2B2F"></path>
                <path d="M265.016644,110.807901 C267.168446,110.157994 268.212359,111.08208 270.587567,112.577882 C271.002898,112.837845 271.345115,113.514155 270.744966,113.883789 C270.548978,114.007678 270.099121,113.985337 269.963046,113.865511 C267.878266,112.026477 267.205003,112.010229 264.927282,111.635517 C264.814563,111.627393 264.459146,110.976471 265.016644,110.808916 L265.016644,110.807901" id="Fill-8" fill="#0C130F"></path>
                <path d="M252.220582,131.149994 C251.892582,132.054786 251.565598,132.860062 251.146204,133.72322 C250.718687,134.622935 250.920768,135.732854 250.257659,136.541176 C249.967232,136.900656 249.161957,136.76052 249.041115,136.33808 C248.612582,134.757994 248.824817,133.091591 249.642279,131.643517 C250.07995,130.896124 251.163467,130.523443 252.095678,130.807777 L252.222613,131.274898 L252.222613,131.147963 L252.220582,131.149994" id="Fill-9" fill="#0C130F"></path>
                <path d="M230.648743,120.512842 C229.936892,120.295529 229.552025,119.684211 229.649511,119.009932 C229.891195,119.071876 229.689115,118.754031 229.90135,118.773325 C231.397152,118.859641 232.796483,119.416124 234.2933,119.448619 C235.998291,119.480099 237.709375,119.183579 239.269152,118.502192 C241.204656,117.649189 242.878167,116.739319 244.739542,115.596904 C245.570204,115.089164 246.764409,114.786551 247.794105,114.58244 C249.419889,114.242254 249.315294,113.399406 250.523715,112.736297 C252.295728,111.786824 252.1627,111.08208 253.153808,111.445622 C253.43408,111.549201 252.865412,112.128025 252.562799,112.385957 C251.894613,112.937362 251.015207,113.489783 250.409981,114.469721 C250.272892,114.666724 249.344743,115.583703 249.165003,115.719777 C247.133028,117.103876 246.679108,118.309251 245.167059,120.009164 C244.312025,120.979963 244.033783,122.244235 243.468161,123.366341 C243.128991,124.029449 242.917771,124.716929 242.476037,125.325201 C242.29122,125.578056 241.610848,125.454167 241.379319,125.670464 C240.126217,126.776322 238.928966,127.838514 238.001833,129.281511 C237.84748,129.515071 237.322477,129.505932 237.246316,129.378997 C236.442056,127.95631 235.321981,126.881932 233.41491,126.830142 C233.076755,126.818972 232.710167,126.114229 232.731492,125.490724 C232.743678,125.352619 232.583232,125.094687 232.401461,125.05813 C232.104941,125.013449 231.969882,124.757548 231.659146,124.743331 C231.333176,124.727084 231.075245,124.264025 231.016347,124.068037 C230.629449,122.944916 230.770601,121.695876 230.520793,120.515889 L230.647728,120.515889 L230.648743,120.512842" id="Fill-10" fill="#000000"></path>
                <path d="M202.849981,152.6213 C202.533152,151.463653 200.510316,151.566217 199.062241,151.701276 C196.860681,151.919604 194.854093,152.266898 192.719554,153.303703 C194.125994,151.342811 195.856372,151.222985 199.139418,150.058229 C199.88478,149.794204 199.704025,148.581721 199.227765,147.872916 C198.675344,147.059517 197.955368,147.017882 197.676111,146.968124 C194.966811,146.481709 194.096545,147.059517 192.661672,147.399703 C187.695975,148.57969 182.810502,152.040446 180.086985,155.352941 C179.295926,156.320693 179.55792,157.340235 179.722427,157.552471 C180.228136,158.179022 181.016149,159.928693 181.23143,159.716458 C183.245127,157.706824 185.688372,155.854588 188.327604,156.436458 C187.201437,156.771567 183.245127,158.621771 181.988978,161.299591 C181.911802,161.470192 182.498749,162.446068 183.245127,162.964978 C184.254514,164.526786 184.62618,165.160446 185.194848,165.450873 C185.545189,165.419393 186.284458,164.742068 186.487554,164.454687 C189.253721,161.056892 192.020904,158.974142 199.669498,158.051071 C201.865981,157.706824 203.118068,157.123938 203.312025,155.273734 C203.312025,155.273734 203.742588,154.351678 202.870291,152.497412" id="Fill-11" fill="#FFFFFF"></path>
                <path d="M193.712693,163.367108 C193.841659,165.10561 193.568495,165.886514 194.093498,167.019789 C194.611393,168.08909 195.678663,169.016223 196.078762,170.124111 C196.39356,170.965944 197.470985,172.041337 197.470985,172.626254 C197.987864,173.081189 198.0427,173.493474 198.0427,173.493474 C198.705808,174.303827 200.694118,175.275641 199.992421,175.746824 C199.169882,176.332755 196.727653,175.920471 195.259269,175.694019 C193.364384,175.406638 194.459071,176.992817 194.865263,177.154279 C196.787567,177.88644 200.823084,178.134217 202.143207,178.806464 C202.943406,179.212656 203.991381,179.828037 204.329536,180.55309 C204.581375,181.096372 205.030217,181.567554 205.424223,182.036706 C206.693573,183.613746 207.148508,184.296149 208.46457,185.291319 C209.117523,185.787889 209.874056,186.632768 209.645573,187.393362 C209.369362,188.282923 208.758043,188.470786 207.839034,188.355022 C207.548607,188.313387 206.630613,188.061548 205.752223,187.711207 C204.00052,187.205498 203.625808,186.608396 202.366613,187.205498 C201.689288,187.527406 202.681412,188.588582 203.45013,188.974464 C206.599133,190.516978 210.40109,190.551505 213.460731,192.187443 C216.07356,193.58982 217.667864,195.294811 217.526712,198.902811 C217.526712,198.968817 218.469077,199.445077 218.524929,199.36587 C219.421598,198.070118 221.685102,199.678638 222.786898,199.36587 C222.889461,199.333375 222.915864,198.789077 222.767604,198.564656 L220.64322,197.096272 C220.137511,196.348879 220.86561,195.545635 220.615802,194.889635 C220.352793,194.230588 219.134217,195.37808 218.679282,194.941424 C216.670663,193.019121 215.360693,190.734291 212.656471,189.622341 C213.787715,186.736347 214.280223,183.496966 214.026353,181.988978 C213.280991,181.414217 212.969238,182.338303 212.78239,182.453053 C212.161932,182.998365 212.406663,184.188508 211.685672,185.095331 C211.558737,185.247653 210.587938,185.067913 210.314774,184.845523 C208.468632,183.392372 206.745362,181.669102 205.882204,179.605647 C205.854786,179.530502 205.484136,179.108062 205.404929,179.006514 C204.050279,177.25278 204.131517,174.804458 205.705511,173.044632 C205.871034,172.852706 206.129981,171.773251 205.969536,171.651393 C205.685201,171.446266 205.056619,171.861598 204.799703,172.097189 C203.941622,172.908557 203.202353,174.527232 201.753263,174.383034 C200.109201,174.221573 199.488743,172.694291 198.48748,171.696074 C198.171666,170.714105 197.576594,170.085523 197.729932,169.956557 C196.351926,168.108384 196.232099,166.602427 194.952594,164.294241 C194.669276,163.7733 194.272223,163.525523 193.714724,163.367108 L193.712693,163.367108" id="Fill-12" fill="#FFFFFF"></path>
                <path d="M203.251096,194.6053 C204.88805,195.375034 203.003319,193.618254 203.003319,193.618254 C202.374737,193.215108 200.901276,191.11408 200.612879,190.617511 C199.910167,189.491344 199.404458,188.621077 198.983034,187.725424 C198.366638,186.33117 197.139938,185.34717 195.117102,183.545709 C194.103653,182.641932 192.536768,181.042551 191.900062,179.875765 C190.909969,178.064149 190.345362,174.815628 187.963046,173.295455 C186.127059,172.116483 186.566762,170.77605 184.984644,168.49122 C184.375356,167.627046 183.133424,167.51839 182.220508,166.66031 C179.925523,164.527802 181.37969,163.705263 179.37818,161.745387 C178.484557,160.890353 178.105783,160.716706 177.342142,159.404706 C176.34291,157.723071 177.096396,155.517449 175.403591,154.744669 C173.902712,154.052111 172.73491,153.806365 171.717399,153.493598 C170.133251,153.014291 167.618923,151.822118 166.196235,150.800545 C164.701449,149.724136 161.637746,147.368223 158.359777,144.746254 C160.361288,158.973127 157.594105,171.121313 142.300978,183.848322 C170.646068,178.98722 183.058279,185.118687 203.249065,194.604285 L203.251096,194.6053" id="Fill-13" fill="#5B2B2F"></path>
                <path d="M213.961362,176.446489 C214.046663,177.610229 214.479257,177.400025 215.178923,178.99839 C215.529263,179.800619 216.513263,181.204012 217.02608,181.60208 C219.929337,183.848322 221.932879,187.31517 221.729783,190.888644 C221.868904,192.634254 221.968421,192.525598 223.820656,193.73808 C224.135455,193.953362 224.324334,193.970625 225.314427,194.828706 L228.771121,198.072149 C228.705115,197.025189 228.883839,195.264347 228.858452,194.712941 C228.692929,189.255752 229.834328,183.617808 227.822663,178.846068 C226.320768,175.27361 222.936173,171.253325 221.604879,167.517375 L220.937709,165.47626 C220.242105,162.57605 220.175084,159.55195 220.175084,159.55195 L215.980136,157.703777 C212.67678,156.485201 208.959108,155.366142 205.634427,154.234898 C205.634427,155.854588 205.877127,157.003096 204.568173,158.625833 C205.448594,160.596879 206.187864,164.936025 207.194204,165.978923 C209.387641,167.882947 211.144421,169.384842 212.590464,173.956533 C212.917449,175.046142 213.90348,175.635121 213.961362,176.44852 L213.961362,176.446489" id="Fill-14" fill="#5B2B2F"></path>
                <path d="M162.997474,53.253548 C162.997474,53.253548 160.495331,53.0260805 154.593362,57.1865015 C148.080074,60.8879257 139.425139,66.2100557 133.145412,73.2656099 C128.575752,77.4849288 122.111207,83.907839 119.730923,88.4216471 C119.730923,88.4216471 115.837573,94.0900557 113.330353,103.343108 C113.330353,103.343108 114.216867,106.351975 116.720025,102.416991 C121.098774,95.5411765 137.786155,72.3922972 161.616421,55.5119752 L162.754774,55.4520619 C150.955913,64.8147864 135.660755,77.4331393 120.793115,98.8932755 C120.239678,99.6883963 119.52478,101.104991 119.455728,101.213647 C118.788557,102.360124 120.493548,102.536817 119.624297,102.341845 C120.980978,102.647505 121.48161,100.910019 122.353907,100.564755 C122.889065,100.347443 123.120594,101.83309 123.974613,101.451269 C127.011913,100.094588 129.258155,97.2025015 130.503133,95.4670464 C130.57117,95.9636161 131.270836,97.4360619 131.270836,97.4360619 C132.642749,97.787418 136.914873,92.3505387 139.167207,88.6470836 C139.800867,89.3355789 139.017932,91.0324458 139.846563,90.3063777 C142.424867,88.0631827 144.725944,85.6595418 146.094811,83.4650898 C147.695207,80.8979567 149.45808,79.7423406 150.083616,75.2336099 C151.084879,75.8104025 151.06457,76.0581796 151.339765,76.2693994 C151.969362,75.5768421 152.008966,74.8467121 153.010229,73.8119381 C154.091715,72.6827245 154.309028,71.8033189 155.632198,71.0051517 C156.106427,70.7147245 157.146279,68.9061548 157.356483,67.9637895 C157.552471,67.0671207 159.70935,64.1598019 159.864718,63.1961115 C161.616421,60.1862291 164.634427,58.5685697 166.760842,56.256322 C168.768446,54.6437399 167.261474,51.7486068 162.998489,53.2525325 L162.997474,53.253548" id="Fill-15" fill="#FFFFFF"></path>
                <path d="M140.923988,143.596731 C141.804409,144.523864 142.548755,143.306303 142.548755,143.306303 C143.999876,141.284483 144.311628,140.760495 145.314923,138.044087 C145.945536,136.249734 146.693944,135.613028 147.320495,128.101523 C149.079307,130.527505 149.327084,135.153015 149.327084,135.153015 L149.830762,135.039282 C149.830762,135.039282 151.463653,130.757003 154.21865,129.370873 C154.21865,129.370873 154.468458,126.478786 157.225486,123.591777 C156.855851,121.853276 156.594873,120.462068 156.230316,117.685746 C155.09704,113.062266 154.468458,105.313139 155.598687,99.9910093 C157.851022,111.090204 159.173176,112.717003 159.173176,112.717003 L159.674824,112.885573 C160.618204,111.559356 160.872074,109.248124 161.132037,107.163344 C162.245003,102.768347 164.255653,103.232421 164.255653,102.302241 C163.62504,98.718613 162.627839,93.0502043 163.248297,88.1891022 C164.507492,93.5102167 165.133028,93.1669845 166.001263,95.138031 C167.131492,97.5609659 167.258427,94.5510836 167.258427,94.5510836 C167.013697,91.4315294 169.397028,88.3038514 167.131492,81.0147368 C166.259195,76.0439628 163.748929,65.3997028 164.754254,62.966613 C165.384867,59.963839 164.252607,61.000644 164.252607,61.000644 C164.252607,61.000644 160.985808,61.6952322 156.102365,74.4242724 C148.956433,95.5919505 142.807703,118.146774 136.15631,136.427443 C138.156805,126.825065 148.819344,92.9313932 151.962254,80.6755666 C151.962254,80.6755666 151.521536,79.8012384 150.836087,80.7832074 C150.013548,81.6534737 149.20218,82.748161 148.760446,83.4996161 C148.821375,83.454935 148.385734,83.5615604 147.889164,83.7991827 L146.310093,85.9916037 C146.310093,85.9916037 143.186477,90.0362601 134.59044,98.2535232 C133.14135,100.343381 132.520892,101.296916 130.954006,104.61652 C130.387368,105.83205 131.264743,106.007728 132.207108,105.31517 C134.521387,103.232421 134.648322,103.232421 137.85013,100.972978 C137.991282,100.874477 140.56857,100.018427 140.56857,99.9767926 C140.161362,100.455084 139.617065,100.768867 139.419046,100.9547 C138.530502,101.72748 136.35839,103.979814 135.769412,104.936396 C134.30509,107.26083 132.71891,110.14987 130.621944,113.65226 C127.992867,118.039133 125.993387,123.127703 125.993387,123.127703 C124.61335,126.714378 124.989077,127.060656 124.989077,127.060656 C126.865684,127.754229 125.843096,128.631604 125.843096,128.631604 C124.989077,130.071554 124.610303,131.221077 126.058378,130.704198 C127.004805,130.527505 127.504421,130.086786 127.891319,129.63896 C128.63465,128.796111 129.256124,128.215257 129.769957,127.631356 C130.610774,126.663604 130.447282,126.369115 131.355121,125.416594 C132.522923,124.16857 133.264223,123.125672 134.462489,122.61387 C132.385833,125.210452 132.264991,127.060656 132.264991,127.060656 L132.7707,127.634402 L133.133226,127.869994 C133.133226,127.869994 131.005796,130.296991 130.011641,135.804954 C129.525226,138.42083 129.624743,138.746799 129.188087,140.19792 C129.399307,140.012087 130.636161,140.19792 131.738972,139.163146 C131.260681,140.771666 131.164211,141.582019 131.164211,141.582019 C130.951975,142.909251 130.951975,142.679752 130.951975,144.18774 C130.951975,145.578947 130.951975,144.988954 131.451591,146.610675 C133.705957,145.685573 134.204557,145.802353 136.333003,143.492136 C137.340359,142.62187 138.112124,140.508656 138.418799,140.652854 C138.976297,140.890477 138.502068,142.066402 138.250229,142.584297 C137.909028,143.312396 137.602353,143.855678 137.478464,144.37865 C137.409412,144.647752 137.122031,145.038712 137.580012,145.401238 C137.778031,145.564731 137.63891,145.539344 138.282724,145.524111 C138.663529,145.514972 139.019963,144.975752 139.019963,144.975752 C139.019963,144.975752 139.222043,144.932087 139.421077,144.529957 C139.56426,144.190786 139.850625,143.999876 140.100433,143.836384 C140.104495,143.833337 140.481238,143.486043 140.921957,143.597746 L140.923988,143.596731" id="Fill-16" fill="#FFFFFF"></path>
                <polyline id="Fill-17" fill="#0C130F" points="82.8588483 72.3425387 80.2277399 72.3425387 88.8826749 54.1786502 78.2201362 61.8709102 75.7707988 50.3634923 70.1958142 66.0414861 67.4946378 64.1354303 63.4245944 72.5720372 60.4076037 72.5720372 60.4076037 81.7093251 78.8456718 81.7093251 82.8588483 72.3435542 82.8588483 72.3425387"></polyline>
                <polyline id="Fill-18" fill="#0C130F" points="67.1879628 81.2462663 76.9660186 87.2579071 77.9682972 84.5943034 72.1983406 81.131517 67.1879628 81.2442353 67.1879628 81.2462663"></polyline>
                <path d="M69.9490526,79.9748854 L75.2122848,84.9487059 C75.2122848,84.9487059 71.0772508,101.024768 71.8276904,109.822885 C79.4844087,116.64691 85.1264149,123.240421 84.2480248,138.044087 C84.2480248,138.044087 84.7476409,138.38935 81.4909969,137.46831 C83.1228731,139.089015 83.6184272,140.360396 84.9994799,143.133672 C85.6250155,147.645449 86.0119133,151.696198 85.6250155,155.860681 C85.6250155,155.860681 86.0119133,166.15257 86.381548,169.390935 C87.8905511,169.852978 87.01013,173.557449 87.1380805,178.418551 C87.1380805,178.418551 87.01013,181.424372 86.4993437,183.740681 C83.3726811,181.424372 83.6184272,181.545214 82.7440991,181.775728 C83.4925077,184.07782 83.9961858,184.07782 85.5092508,185.933102 C85.5092508,199.703009 86.0088669,213.929882 87.0080991,220.179146 C87.5087307,224.688892 88.3871207,229.888149 88.7638638,231.513932 C89.5153189,233.592619 89.5153189,235.436731 91.7737461,239.838836 C91.0233065,239.838836 88.9202477,239.895703 87.5066997,238.224223 C89.5153189,241.690056 89.5153189,241.000545 90.7714675,242.155146 L92.5221548,254.185536 L90.520644,256.262192 L93.2857957,257.880867 C93.2857957,257.880867 92.6561981,263.320793 93.4086687,268.290551 C93.7783034,270.606861 94.5368669,272.922155 96.3007554,276.158489 C92.6561981,276.282378 92.0306625,273.50504 92.0306625,273.50504 C91.0283839,272.457065 89.2716037,270.13974 88.7679257,270.13974 C88.5181176,273.50504 90.5247059,274.777437 91.401065,276.74239 C93.9560124,282.39252 94.2951827,287.849709 92.0306625,298.367034 C89.5214118,296.173598 89.3965077,294.20052 87.5117771,293.164731 C87.266031,299.171294 87.014192,301.02556 85.7610898,303.679009 C83.1289659,308.423331 82.371418,310.868607 82.2485449,315.493102 C77.8576099,312.128817 76.7294118,307.506353 73.7174985,304.846811 C71.5839752,302.882873 67.3250526,299.176372 65.817065,296.749375 C65.5642105,299.633337 65.817065,300.687406 64.5609164,303.453573 C63.5555913,300.24161 63.4357647,299.293152 61.0504025,296.637672 C57.9166316,292.583876 50.8874799,283.564384 49.2627121,273.963022 C48.8798762,272.340285 47.880644,267.599009 46.7544768,261.117201 C45.8720248,263.323839 44.374192,265.055232 42.8672198,265.403542 C42.1086563,265.756929 42.1086563,264.829796 42.1086563,264.829796 C42.7362229,262.739938 42.9890774,260.431752 42.7362229,258.697313 C42.3655728,256.143381 41.6110712,250.483096 40.2269721,249.09392 L39.5953437,249.09392 C39.7212632,252.908062 38.089387,254.645548 37.0881238,255.916929 C36.9642353,252.908062 37.0881238,250.599876 36.3376842,249.09392 C35.9609412,248.043913 35.0835666,247.128966 34.8296966,248.166786 C34.2051765,251.176669 33.9533375,251.754477 33.9533375,254.528768 C33.7055604,258.697313 33.7055604,260.090551 33.1957895,263.555368 C32.9500433,266.102192 32.0696223,269.221746 29.5664644,272.340285 C29.0648173,269.574118 27.1821176,267.372557 27.1821176,267.372557 C27.1821176,270.725672 27.9376347,275.697461 25.6812384,278.363096 C22.9150712,281.829944 22.5373127,283.565399 21.6629845,286.114254 C21.2842105,283.101325 20.2839628,284.029474 19.7863777,282.407752 C17.7736966,290.267567 11.496,296.2853 9.24366563,297.669399 C10.7496223,294.442204 12.0078019,290.733672 12.2576099,288.418378 C12.2576099,288.418378 11.8808669,279.859913 10.4947368,275.00592 C7.06343034,259.860037 5.40312074,224.885895 7.99564087,211.604433 C14.2591207,163.948978 41.1043467,120.218353 63.6784644,80.8898328 L69.9490526,79.9789474 L69.9490526,79.9748854" id="Fill-19" fill="#0C130F"></path>
                <path d="M72.5811765,84.71413 C72.5811765,84.71413 68.6878266,100.09865 69.4453746,110.860706 C74.7177461,115.024173 80.3587368,120.692582 80.6105759,132.373647 C80.1718885,132.551356 80.1099443,132.434576 79.7271084,132.141102 C78.230291,130.358935 74.2140681,129.768941 71.2041858,125.264272 C71.644904,128.099492 80.4937957,139.437325 81.1162848,141.629746 C81.2371269,148.690378 82.3653251,158.92743 81.7347121,160.948235 L78.7258452,159.096 C80.3587368,162.970056 81.7347121,166.385115 83.681387,169.219319 C83.681387,169.219319 83.8722972,179.221796 83.4894613,177.833635 L82.9878142,177.833635 C81.2340805,176.671926 79.4793313,175.287827 78.1663158,174.132211 C77.3447926,173.729065 77.222935,172.749127 75.7129164,171.407678 C73.4615975,169.502638 72.2024025,167.882947 71.2620681,167.533622 C68.8746749,165.978923 67.2478762,165.45595 65.86987,165.05382 C65.4342291,165.05382 64.5527926,164.936025 64.5527926,164.936025 C64.5527926,164.936025 69.0686316,168.463802 71.9525944,172.454638 C75.405226,176.272842 76.8451765,178.524161 78.029226,180.831331 C79.3503653,183.15678 81.233065,185.46395 82.7359752,187.427889 C82.7359752,190.61548 82.4841362,201.192718 82.672,202.987071 L81.7286192,202.350365 C79.4762848,201.078985 77.0289783,198.237672 74.9553684,194.54031 C73.8292012,199.867517 79.9728545,206.107641 82.7958885,208.193437 C83.7362229,218.086241 83.7362229,222.703628 85.497065,233.114328 L85.37013,233.926712 C82.8547864,232.311084 80.2277399,229.759183 77.0899071,225.603839 C76.8400991,229.64748 81.2290031,234.968594 85.8727926,240.05818 C86.4820805,240.739567 86.3185882,241.629127 86.6496347,242.400892 C87.1990093,243.679381 87.7504149,245.266576 88.4389102,246.131765 C89.003517,248.382068 89.2543406,251.396012 89.1284211,252.667393 L87.2477523,256.023554 L89.7539567,258.802923 C90.0017337,261.808743 89.3802601,262.613003 89.7539567,265.971195 C89.7539567,265.971195 86.8750712,265.742712 85.6118142,262.726737 C83.3594799,268.52005 85.8687307,274.998811 87.8732879,278.35091 C89.3782291,282.283864 90.2545882,284.709845 90.0017337,288.990093 L89.4990712,290.256396 C88.0002229,287.484136 85.8677152,285.174935 83.73013,283.669994 L82.8588483,283.446588 C84.9690155,295.616099 84.2419319,299.634353 80.2318019,307.395666 L79.5961115,306.813796 C77.3417461,302.757969 73.0807926,299.634353 70.0739567,296.75039 C69.5682477,296.638687 64.3050155,290.501127 63.9201486,285.526291 L63.2976594,285.647133 C63.0458204,287.382588 62.2892879,291.086043 62.7960124,291.77657 L62.2923344,291.546056 C59.2865139,290.268582 53.8272941,280.445845 52.8910217,274.779467 C52.8910217,274.779467 52.6919876,273.672594 52.2604087,271.417214 C52.0694985,269.221746 50.8204582,262.51044 50.5645573,261.582291 C50.12587,259.096396 48.9793932,255.954502 48.5011022,254.298254 C48.5660929,253.717399 48.1274056,253.544768 47.8115913,254.010873 C47.1190341,254.923789 46.5615356,255.800149 46.1786997,255.223356 C45.8639009,254.647579 46.1198019,253.721461 46.3706254,252.45008 C45.8679628,252.793313 44.7417957,252.938526 44.6118142,252.102786 C43.2297461,246.433362 42.480322,239.376793 42.480322,233.590588 C43.110935,232.09174 44.8616223,229.320495 46.2467368,226.301474 L46.1228483,225.612978 C44.6138452,226.301474 42.1035789,228.618799 41.6049783,229.884087 L40.9743653,229.080842 C40.4747492,226.757424 39.9751331,222.249709 39.9751331,217.512495 C39.7232941,216.642229 40.0949598,216.128396 40.4777957,215.4267 C41.4760124,213.233263 42.6133498,210.777833 43.4846316,208.37013 C44.2411641,205.935009 48.4422043,198.429598 49.7003839,196.686019 L48.8727678,197.378576 C46.5635666,198.137139 40.6006687,204.786502 39.8502291,205.250576 L39.2846068,205.302365 C39.5953437,198.649957 41.6029474,183.848322 42.9809536,174.759777 C44.3640372,171.350811 55.1504644,160.943158 52.6361362,162.791331 C47.751678,164.413053 46.1218328,166.031728 45.1114303,166.494786 L43.6085201,166.958861 C45.1063529,160.500409 48.2238762,137.159604 51.514031,130.866675 C53.8922848,127.048471 56.2806935,126.008619 58.0334118,121.844136 L56.7752322,122.417882 C55.900904,123.234328 52.0075542,125.89387 49.6303158,128.903752 L48.8676904,129.016471 C49.9958885,126.01065 50.375678,122.774316 52.6330898,118.607802 C53.2555789,116.866254 54.2649659,116.174712 55.0225139,114.673833 C56.8970898,112.471257 57.6526068,111.66192 59.4104025,110.853598 C60.2816842,110.513412 61.9166068,109.932557 61.9166068,109.932557 C56.910291,128.876334 55.143356,144.277102 53.6363839,165.337139 C52.1294118,198.886563 55.1809288,239.481387 67.4408173,264.590142 C57.6526068,235.211294 53.8892384,203.284607 55.143356,170.89283 C56.1456347,143.127579 60.6553808,120.915988 70.4476533,83.4407183 L72.57813,84.7070217 L72.5811765,84.71413" id="Fill-20" fill="#FFFFFF"></path>
                <path d="M65.9338452,81.8220433 C62.8010898,85.7590588 41.2241734,123.23839 39.0947121,130.067492 C20.0392322,165.345263 8.7410031,200.5093 9.49550464,235.104669 C9.49550464,250.254613 11.2583777,260.669375 13.2558266,271.770601 C14.1382786,276.046786 15.3883344,281.831975 15.1375108,285.530353 L15.7711703,285.18509 C16.6454985,283.680149 19.0257833,278.942935 19.7863777,275.010997 C20.0392322,273.508087 20.9145759,275.010997 20.9145759,275.010997 C21.2821796,276.046786 22.040743,276.514923 22.1666625,277.550712 C22.1666625,278.480892 22.6591703,278.369189 22.9160867,277.66343 C24.2951084,275.125746 24.6728669,273.613697 24.1671579,270.957201 C23.6685573,268.761734 23.2968916,259.62343 24.4200124,256.266254 C24.4200124,255.336074 25.2963715,256.266254 25.2963715,256.266254 C25.9290155,257.657461 26.9312941,260.203269 29.1815975,262.286019 C29.1815975,262.286019 30.1249783,262.859765 30.1889536,262.286019 C29.9482848,259.856991 29.6933994,244.007381 33.7035294,242.266848 C35.2054241,242.611096 35.3343901,243.544322 36.4615728,244.583158 C37.7227988,243.308731 38.2234303,237.874898 37.8446563,233.708384 C37.9695604,227.233684 36.9622043,220.750861 36.3376842,216.709251 C35.8116656,215.432793 36.3376842,215.199232 37.0891393,214.964656 C37.2739567,214.839752 40.1000372,211.611542 40.1000372,209.881164 C37.7258452,211.383059 37.0891393,211.732384 34.8317276,213.125622 C34.5819195,208.142663 32.1975728,200.279802 29.5684954,194.139195 C32.3285697,196.465659 34.0762105,199.118093 34.9586625,201.319653 C35.9609412,196.232099 36.3376842,193.215108 36.4646192,190.78608 C35.0896594,186.273288 32.4565201,176.44852 32.7042972,169.155344 C34.3341424,174.477474 35.8360372,180.261647 37.4709598,183.734588 C38.2234303,181.181672 38.8479505,176.671926 39.8522601,172.853721 C41.2262043,171.928619 42.8611269,171.002502 43.360743,170.200272 C42.859096,169.383827 40.7204954,170.894861 40.3518762,171.002502 C40.6006687,167.417858 41.2262043,160.478068 38.5971269,149.141251 L38.9677771,148.792941 C40.0949598,149.260062 41.4739814,151.339765 41.976644,153.542341 C44.2371022,151.112297 45.7430588,139.083938 46.3675789,134.342663 C43.9852632,134.342663 42.859096,136.768644 41.2241734,136.533053 C41.4739814,135.028111 41.5999009,135.729808 42.226452,134.342663 C42.857065,132.717895 44.3640372,131.093127 44.9895728,128.900706 C46.3675789,127.048471 46.3675789,124.850972 46.4965449,122.770254 C46.4965449,120.803269 46.2467368,117.913214 47.9974241,115.36639 C48.3802601,116.398118 48.1274056,117.102861 48.9976718,119.297313 C48.9976718,119.297313 52.5152941,112.240743 54.3979938,110.62613 C56.8970898,100.559678 62.9209164,89.2218452 68.5710464,81.8139195" id="Fill-21" fill="#FFFFFF"></path>
                <path d="M67.0600124,88.1830093 C62.9188854,93.6280124 59.9079876,102.18343 58.4,108.314898 C60.2816842,107.387765 60.4076037,107.498452 62.1653994,106.926737 C62.7960124,104.030588 67.7403839,87.2924334 67.0600124,88.1830093" id="Fill-22" fill="#FFFFFF"></path>
                <path d="M25.5756285,220.27257 C25.650774,220.608693 26.2336594,220.399505 25.9269845,220.734613 C26.6784396,220.734613 27.4623901,220.869672 28.1579938,220.672669 C28.5113808,220.578229 28.7510341,220.069474 28.8129783,219.792248 C29.0181053,218.824495 29.5349845,217.590687 28.5926192,216.912347 C27.7639876,216.291889 27.9071703,215.312966 27.3232693,214.837721 C27.0531517,214.619393 26.4773746,214.472149 26.0874303,214.110638 C25.7970031,213.836458 25.269969,214.448793 25.272,214.723988 C25.2872322,215.481536 25.8305139,216.251269 25.8183282,217.065684 C25.8000495,218.307616 25.1745139,218.655926 25.5776594,220.278663 L25.5756285,220.27257" id="Fill-23" fill="#FFB612"></path>
                <path d="M16.5216099,209.641511 C16.4363096,208.301077 15.9580186,206.410254 18.1220062,206.942365 C18.8023777,207.102811 18.9587616,208.032991 18.9750093,208.483864 C19.0105511,209.697362 19.3101176,210.663084 19.8676161,211.726291 C20.1864768,212.327455 19.6482724,212.849412 19.3202724,213.277944 C18.4814861,214.423406 16.7551703,215.070266 15.7701548,213.942068 C15.1669598,213.256619 14.4347988,212.229969 14.9801115,211.292681 C15.4076285,210.556458 15.7478142,210.156359 16.3946749,209.514576" id="Fill-24" fill="#FFB612"></path>
                <path d="M18.6937214,223.412433 C17.5553684,221.902415 18.0884954,220.495975 19.420805,219.600322 C20.2616223,219.036731 21.2821796,219.415505 21.5238638,220.079628 L23.0420062,224.017659 C23.5192817,225.427146 21.5827616,226.79195 20.2199876,226.17657 C19.2491889,225.720619 19.3162105,224.241065 18.6937214,223.412433" id="Fill-25" fill="#FFB612"></path>
                <path d="M19.8594923,228.893994 C19.3162105,228.736594 19.2644211,229.170204 18.9953189,229.392594 C18.4296966,229.839406 18.4276656,230.777709 17.9341424,231.394105 C17.0141176,232.534489 17.2923591,234.148087 17.65387,235.236681 C17.8965697,235.984074 19.1080372,237.072669 20.1377337,236.989399 C21.765548,236.865511 22.9699071,234.072941 21.7279752,233.409833 C20.1133622,232.526365 20.6810155,230.304495 20.0859443,229.098105 C20.0422786,229.010774 19.6553808,229.06561 19.4015108,229.06561" id="Fill-26" fill="#FFB612"></path>
                <path d="M30.2092632,226.040495 C29.7929164,225.528693 29.7756533,224.839183 30.2529288,224.511183 C30.6916161,224.215678 31.453226,224.357845 31.8969907,224.711232 L32.6179814,225.185461 C33.9645077,226.172508 34.7900929,227.495678 34.0609783,229.008743 C33.8629598,229.434229 33.0607307,229.836359 32.5012012,229.449461 C32.0665759,229.149895 31.4623653,229.129585 31.1607678,228.616768 C30.6773994,227.781028 30.873387,226.835616 30.2092632,226.040495" id="Fill-27" fill="#FFB612"></path>
                <path d="M15.3852879,216.689957 C15.1436037,215.951703 14.4652632,216.314229 14.0895356,216.851418 C13.2020062,218.120768 12.757226,219.349498 12.630291,221.201734 C12.8800991,222.237523 14.498774,222.436557 15.2878019,221.974514 C17.0852012,220.936693 15.7996037,216.953981 15.7122724,217.503356 C15.7671084,217.146923 15.3842724,216.61278 15.3842724,216.691988 L15.3852879,216.689957" id="Fill-28" fill="#FFB612"></path>
                <path d="M50.2649907,228.139492 C49.899418,227.883591 49.2931765,228.139492 49.2586502,228.554824 C49.1215604,229.74192 49.1022663,231.993238 51.0580805,231.62665 C51.7536842,231.501746 52.2147121,230.840669 52.0502043,230.169437 C51.812582,229.208793 51.0428483,228.671604 50.2639752,228.138477 L50.2649907,228.139492" id="Fill-29" fill="#FFB612"></path>
                <path d="M54.9534613,232.35678 C54.4772012,231.920124 53.6363839,231.990192 53.2840124,232.236954 C52.5680991,232.748755 52.3010279,233.830241 52.5559133,234.647703 C52.8351703,235.536248 53.1641858,236.485721 53.8780681,237.174217 C54.3380805,237.61595 55.2906006,238.127752 55.5444706,237.808892 C56.1304025,237.04322 56.6767307,236.021647 56.4167678,234.918836 C56.17813,233.937882 55.6906997,233.062539 54.9534613,232.35678" id="Fill-30" fill="#FFB612"></path>
                <path d="M72.8898824,230.97065 C72.5405573,230.999084 72.097808,231.043765 71.9546254,231.241783 C71.2549598,232.256248 72.0226625,233.436235 72.9528421,233.85969 C73.9277028,234.321734 75.1574489,232.803591 74.4344272,231.966836 C73.9744149,231.420508 73.2473313,230.952372 72.3912817,230.97065" id="Fill-31" fill="#FFB612"></path>
                <path d="M64.2816594,241.612879 C63.9201486,241.442279 63.3514799,240.371963 63.6297214,239.655034 C63.8856223,239.013251 64.6776966,238.754303 65.3529907,238.86296 C66.1298328,238.998019 66.627418,239.502712 67.0661053,240.033808 C68.2156285,241.395567 68.5395666,243.524012 67.0488421,244.663381 C66.4426006,245.13761 65.3529907,245.024892 64.9244582,244.357721 C64.37813,243.524012 64.782291,242.854811 64.3639133,241.962204 L64.2816594,241.613895 L64.2816594,241.612879" id="Fill-32" fill="#FFB612"></path>
                <path d="M74.6994675,242.359257 C73.6768793,241.622019 74.1013498,240.139418 72.9721362,239.475294 C72.3415232,239.094489 71.5067988,239.003096 70.9228978,239.452954 C70.3085325,239.945461 70.3115789,240.652235 70.1541796,241.391505 C70.0688793,241.801759 70.3562601,242.164285 70.5512322,242.519703 C71.3758019,244.074402 73.3773127,244.126192 74.9401362,245.003567 C75.1483096,245.120347 75.5545015,244.723294 75.707839,244.473486 C76.1912074,243.696644 75.4113189,242.87309 74.6994675,242.359257" id="Fill-33" fill="#FFB612"></path>
                <path d="M58.1034799,240.903059 C57.5733994,240.31408 56.6625139,240.507022 56.1182167,240.848223 C55.9313684,240.962972 55.7465511,241.268632 55.7465511,241.49813 C55.7343653,243.002056 55.1910836,244.560817 55.7861548,245.98452 C56.1456347,246.843616 56.9742663,247.884483 58.0476285,247.445796 C58.8153313,247.130997 59.2926068,246.272916 59.0346749,245.447331 C58.5584149,243.919034 59.2641734,242.195765 58.1014489,240.903059 L58.1034799,240.903059" id="Fill-34" fill="#FFB612"></path>
                <path d="M86.4891889,241.362056 C86.1622043,240.307988 84.1068731,241.378303 83.3696347,240.703009 C82.722774,240.109969 81.9439009,239.578873 81.8271207,238.644632 C81.3041486,239.743381 81.7204954,240.882749 82.2739319,241.853548 C82.5887307,242.409015 83.3178452,242.706551 83.7869969,243.198043 C84.3231703,243.729139 84.5110341,244.463331 84.8126316,245.133548 C85.1954675,246.008892 84.2652879,246.51257 83.681387,246.61818 C81.8453994,246.929932 81.7925944,244.499889 81.2147864,243.327009 C80.8085944,242.485176 79.6387616,242.15413 79.0172879,241.378303 C78.8669969,241.20161 78.5968793,241.008669 78.4557276,240.78831 C77.9378328,239.933276 76.8837647,239.327034 76.4247678,238.424272 C76.3425139,238.818279 76.4867121,239.211269 76.6136471,239.56161 C77.4879752,242.117573 78.8954303,244.371938 80.1058824,246.781672 C80.4470836,247.450873 80.8217957,248.110935 81.0289536,248.843096 C81.2147864,249.466601 81.1142539,250.215009 80.7212632,250.601907 C80.3343653,251.002006 79.4123096,250.138848 79.2234303,250.42826 C78.5572755,251.509746 79.5961115,252.800421 80.1901672,253.858551 C80.6146378,254.608991 81.3640619,255.356384 81.0116904,256.218526 C80.9446687,256.385065 80.6918142,256.613548 80.4348978,256.678539 C79.544322,256.898898 78.7654489,256.369833 78.2932508,255.90982 C76.4430464,254.124607 74.8304644,252.330254 73.3651269,250.184545 C72.7995046,249.364037 73.107195,248.294737 72.4826749,247.486415 C72.1242105,247.022341 71.4387616,246.271901 70.8162724,246.783703 C70.614192,246.960396 70.3714923,247.195988 70.3268111,247.45595 C70.1308235,248.509003 69.9003096,249.49605 69.2057214,250.274923 C69.0077028,250.496297 68.6228359,250.855777 68.5456594,250.988805 C67.5972012,252.600372 67.3849659,254.4587 67.0813375,256.347492 C67.004161,256.79735 66.8833189,257.359926 66.3796409,257.591455 C65.8536223,257.851418 65.4971889,257.329461 65.209808,256.994353 C64.4481981,256.129164 64.1384768,255.097437 63.6124582,254.108359 C63.2976594,253.490947 63.2844582,252.73543 62.8610031,252.085523 L62.6345511,252.069276 C62.7066502,252.245969 62.5340186,252.404384 62.4548111,252.515071 C61.9521486,253.314254 61.1296099,253.680842 60.2309102,253.99361 C59.737387,254.170303 59.1778576,253.835195 59.0712322,253.442204 C58.4649907,251.196978 56.7884334,249.600644 56.1080619,247.448842 C55.0702415,247.45392 54.0486687,247.672248 53.3682972,246.736991 C51.8714799,244.695876 52.1710464,242.402923 51.9740433,240.161759 C51.638935,240.42883 51.2317276,240.615678 50.9890279,240.980235 C48.6077276,244.511059 47.6937957,248.190142 46.6752693,252.18504 C46.4742043,252.986254 46.3472693,253.283789 46.0741053,254.033214 C45.5125449,255.604161 46.388904,255.828582 47.2703406,254.7867 C48.809808,252.956805 48.4879009,254.466824 48.6463158,254.90348 C49.0281362,257.575207 50.530031,260.22561 51.1474427,264.737387 C51.6602601,269.128322 52.6584768,273.526365 53.1580929,275.724879 C54.4934489,282.947988 59.6815356,290.303108 62.8173375,292.125895 C62.4446563,289.120074 63.569808,287.984768 63.3210155,285.667443 L63.9556904,285.550663 C64.0724706,289.604458 67.3352074,294.809808 71.0945139,297.704941 C74.1043963,300.938229 75.7393189,301.629771 78.2759876,304.986947 C79.0274427,306.141548 79.6265759,306.673659 80.2551579,307.598762 C81.6331641,304.986947 84.1444458,300.364483 84.1444458,295.272867 C84.1444458,291.366316 84.0134489,286.945932 82.8893127,283.467913 C85.1487554,284.402155 87.6600372,287.752223 89.5407059,290.651418 C90.6678885,288.442749 90.040322,282.317375 88.2876037,279.311554 C86.5308235,275.607084 83.6448297,270.518514 85.651418,262.999901 C86.9024892,265.655381 87.7839257,265.540632 89.7925449,266.002675 C90.1703034,263.226353 89.6645944,259.296446 89.7925449,258.832372 C89.030935,257.57013 87.2883715,256.047926 87.2883715,256.047926 L89.1649783,252.70395 C90.0453994,249.34982 88.2936966,246.685201 88.4785139,246.169337 C87.5300557,244.260235 86.8862415,242.626328 86.4902043,241.359009 L86.4891889,241.362056" id="Fill-35" fill="#FFB612"></path>
                <path d="M64.7965077,222.777759 C64.5233437,222.061845 63.7597028,221.531765 64.1658947,220.819913 C64.278613,220.620879 64.6939443,220.670638 64.9975728,220.604632 C65.8891641,220.385288 66.9462786,220.514254 67.5362724,221.097139 C68.0003467,221.558167 68.3151455,222.102464 68.7020433,222.67418 C69.0909721,223.265189 69.1975975,223.970947 69.4534985,224.624916 C69.7408793,225.342861 69.4240495,226.141028 68.8147616,226.482229 C68.1069721,226.877251 67.8053746,227.216421 66.7665387,226.786873 C66.3765944,226.626427 66.1369412,225.852632 65.9511084,225.55408 C65.7124706,225.153981 65.7287183,224.020706 65.4098576,223.64904 C65.1194303,223.329164 64.9630464,223.217461 64.7944768,222.777759 L64.7965077,222.777759" id="Fill-36" fill="#FFB612"></path>
                <path d="M64.1212136,226.685325 C63.8165697,226.416223 63.4144396,226.43044 63.0965944,226.408099 C62.9442724,226.400991 62.5025387,226.432471 62.5198019,226.690402 C62.6233808,228.09278 60.8625387,228.750811 60.3283963,229.855653 C59.7912074,231.00213 60.8930031,232.085647 61.8018576,232.858427 C62.5299567,233.476854 63.6825263,233.057461 64.5649783,232.807653 C66.022192,232.404508 66.2080248,230.522824 65.86987,229.254489 C65.6078762,228.296892 64.9518762,227.439827 64.1212136,226.685325" id="Fill-37" fill="#FFB612"></path>
                <polyline id="Fill-38" fill="#FFFFFF" points="80.7872693 75.2366563 63.5454365 75.2366563 63.5454365 78.937065 79.2863901 78.937065 80.7872693 75.2366563"></polyline>
                <polyline id="Fill-39" fill="#FFFFFF" points="78.8426254 64.883839 79.4712074 67.6032941 82.7359752 61.75413 78.8426254 64.883839"></polyline>
                <polyline id="Fill-40" fill="#FFFFFF" points="66.9330774 72.3963591 68.6847802 68.4085697 73.7083591 72.3963591 66.9330774 72.3963591"></polyline>
                <polyline id="Fill-41" fill="#FFFFFF" points="72.6999876 68.0023777 75.0234056 60.368 76.6451269 71.1229474 72.6999876 68.0023777"></polyline>
                <path d="M9.86920124,221.371319 C9.99816718,222.408124 9.97887307,221.77548 10.5241858,222.6427 C11.0268483,223.420557 10.7465759,224.469548 11.1314427,225.364186 C11.4523344,224.978303 12.0707616,224.80161 12.126613,224.213647 C12.6028731,226.003938 11.195418,227.728223 11.8808669,229.528669 C12.6465387,228.893994 13.7818452,228.749796 14.3880867,227.902885 C14.3362972,228.622861 14.12,229.310341 14.0113437,230.007975 C13.8163715,231.212334 14.3444211,232.422786 14.498774,233.682997 C14.6825759,235.268161 16.8211765,236.464396 16.2118885,238.025189 C15.2207802,240.56592 14.6937461,243.256941 15.5893994,245.655505 C15.7792941,246.160198 16.0555046,247.002031 16.6871331,247.27418 C17.1664396,247.47626 17.8925077,247.48743 18.3616594,247.27418 C18.6185759,247.153337 18.8358885,246.773548 18.8836161,246.415084 C19.0806192,245.299071 18.5424149,244.257189 18.760743,243.19195 C19.0308607,241.80582 19.2959009,240.423752 20.2494365,239.312817 C20.4444087,239.086365 21.1765697,239.15948 21.3431084,239.506774 C21.9737214,240.809635 21.7198514,242.364334 22.5555913,243.562601 C22.8409412,243.967777 23.8300186,244.255158 24.3540062,243.807331 C25.5228235,242.799975 25.0983529,241.228012 25.2496594,239.919059 C25.498452,237.749994 24.3956409,236.587269 24.0818576,234.37657 C23.7924458,232.304991 24.2087926,231.998316 24.9236904,231.145313 C25.6771765,233.084879 25.6832693,235.195046 27.2014118,236.914254 C27.5273808,237.277796 28.1204211,237.289981 28.374291,237.098056 C29.4720248,236.223728 29.2506502,234.321734 28.450452,233.084879 C27.2339071,231.206241 26.2397523,228.240025 28.4362353,226.516755 C28.2971146,227.467245 28.3113313,228.540607 28.8414118,229.249412 C29.5695108,230.223257 30.9211146,232.223752 31.1120248,234.144025 C31.1881858,234.827443 32.2493622,235.101622 32.9002848,234.564433 C33.0150341,234.464916 32.8728669,234.008966 33.2160991,233.971393 C34.2691517,233.836334 34.7647059,234.982811 34.7129164,235.77387 C35.1292632,235.77387 35.6847307,235.907913 35.8979814,235.709895 C36.9104149,234.753313 36.6636533,232.475591 36.728644,231.153437 C36.8373003,228.712223 37.4709598,229.643418 37.9045697,229.405796 C37.9045697,229.405796 38.0924334,230.570551 37.8446563,233.919604 C38.2213994,238.09018 37.7227988,243.52909 36.4615728,244.793362 C35.3343901,243.759604 35.2094861,242.829424 33.7075913,242.478068 C29.6954303,244.218601 29.9482848,260.072272 30.1909845,262.494192 C30.1331022,263.075046 29.1856594,262.494192 29.1856594,262.494192 C26.9343406,260.41652 25.9320619,257.86665 25.3004334,256.485598 C25.3004334,256.485598 24.4230588,255.555418 24.4230588,256.485598 C23.2989226,259.838712 23.6716037,268.974985 24.1722353,271.179591 C24.6728669,273.83304 24.2981548,275.33595 22.9201486,277.878712 C22.6672941,278.580409 22.1717399,278.696173 22.1717399,277.765994 C22.0437895,276.732235 21.2842105,276.271207 20.9186378,275.220186 C20.9186378,275.220186 20.0432941,273.725399 19.7914551,275.220186 C19.0328916,279.150093 16.6505759,283.898477 15.7752322,285.402402 L15.1436037,285.748681 C15.3923963,282.050303 14.143356,276.267146 13.260904,271.982836 C11.2604087,260.875517 9.24874303,250.467864 9.24874303,235.314873 C9.24874303,228.484755 9.65290402,221.146898 9.65290402,221.146898 L9.8712322,221.371319 L9.86920124,221.371319" id="Fill-42" fill="#FFB612"></path>
                <path d="M61.8912198,249.643294 C63.6723715,254.857783 65.9257214,261.911307 67.4387864,264.571864 C67.0579814,261.565028 62.6711084,249.643294 62.7939814,248.843096 C62.9188854,248.028681 61.8912198,249.643294 61.8912198,249.643294" id="Fill-43" fill="#FFB612"></path>
                <path d="M200.154898,53.7917523 C199.780186,53.4048545 198.427567,53.606935 198.19096,53.075839 C198.030514,52.7163591 197.830464,52.3000124 197.590811,52.1202724 C197.180557,51.814613 196.595641,52.2340062 196.025957,52.3193065 C195.252161,52.4299938 194.426576,52.2786873 193.642625,52.0400495 C192.29813,53.4678142 188.711455,52.521387 187.017635,52.6361362 C186.805399,52.6442601 188.083889,53.3134613 188.310341,53.4942167 C189.497437,54.4315046 191.457313,54.3482353 192.904372,54.3939319 C193.141994,54.4040867 193.612161,54.1674799 193.795963,54.1481858 C195.353709,53.9542291 196.902316,54.4497833 198.544347,54.7066997 C199.05818,54.7889536 200.672793,54.2933994 200.154898,53.7947988 L200.154898,53.7917523" id="Fill-44" fill="#FFFFFF"></path>
                <path d="M224.534539,55.7963096 L220.81382,53.8323715 C220.587368,53.4952322 220.299988,53.0849783 219.942539,52.7793189 C219.105783,52.0776223 218.66405,51.236805 217.698328,50.6762601 C216.424916,49.9187121 215.367802,48.9448669 213.961362,48.4716533 L213.475963,48.4462663 C213.370353,48.4239257 213.304347,48.3365944 213.33278,48.2218452 C213.214985,48.2218452 213.051492,48.2655108 212.975331,48.2055975 C212.787467,48.003517 212.489932,47.8907988 212.308161,47.8369783 C211.581077,47.6156037 210.748384,48.0136718 210.105585,47.4917152 C209.743059,47.1911331 209.316557,47.0124087 208.905288,46.7778328 C207.797399,46.1157399 206.525003,46.5168545 205.334861,46.6905015 C205.095207,46.7229969 204.744867,47.0124087 204.494043,47.2144892 C204.042155,47.5770155 203.300854,46.9281238 202.701721,47.1129412 C202.177734,47.271356 201.596879,47.8369783 202.098526,48.2929288 C202.642824,48.7925449 203.34452,49.1388235 204.083789,49.3063777 C206.238638,49.8070093 208.503158,49.315517 210.53818,50.1451641 C211.126142,50.3807554 211.847133,50.6559505 212.086786,51.3495232 C211.882675,51.387096 211.659269,51.560743 211.480545,51.43787 C210.978898,51.1068235 210.438663,51.1119009 209.945139,51.0783901 C206.513833,50.8184272 203.093697,50.5564334 199.663406,50.9981672 C199.663406,51.8034427 200.008669,52.6544149 200.807851,52.7559628 C201.874105,52.8849288 203.01652,52.5792693 204.038093,52.6544149 C205.158167,52.7285449 206.351356,53.3936842 207.469399,53.9765697 C207.620706,54.0547616 207.883715,54.0496842 208.060409,53.9765697 C208.562056,53.7887059 209.001759,53.1225511 209.556211,53.3591579 C209.894365,53.5175728 210.251814,53.6526316 210.609263,53.7094985 C211.39626,53.8323715 211.959851,53.6993437 212.706229,53.8008916 C214.290378,54.0192198 215.645028,54.9971269 217.206836,54.7869226 C218.385808,54.6285077 218.927059,54.9879876 219.504867,55.4774489 C219.165697,55.2022539 221.666824,56.8453003 221.880074,56.4391084 C221.970452,56.2878019 224.507121,56.152743 224.532508,55.7963096 L224.534539,55.7963096" id="Fill-45" fill="#FFFFFF"></path>
                <path d="M233.610898,55.0875046 C232.598464,54.5005573 232.485746,53.3408793 231.944495,52.4817833 C231.532211,51.8257833 230.978774,51.2957028 230.319728,50.982935 C227.371789,49.5724334 223.933375,47.121065 221.740954,47.3079133 C221.049412,47.3698576 220.769139,48.0593684 221.164161,48.4137709 C221.918663,49.0870341 223.248941,49.3165325 223.362675,50.4213746 C226.299443,51.7739938 231.462142,52.6808173 231.218427,55.6358638 C231.200149,55.9222291 233.110266,55.0265759 233.608867,55.0864892 L233.610898,55.0875046" id="Fill-46" fill="#FFFFFF"></path>
                <path d="M63.546452,75.2366563 L82.041387,75.2082229 C81.0309845,77.0574118 80.4298204,78.9543282 80.4298204,78.9543282 L63.5505139,78.9340186 L63.5505139,75.2376718 L63.546452,75.2366563" id="Fill-47" fill="#FFB612"></path>
            </g>
        </g>
    </g>
</svg>