<svg width="512" height="512" viewBox="0 0 512 512" xmlns="http://www.w3.org/2000/svg"><title>washington-redskins</title><g fill="none" fill-rule="evenodd"><path d="M193.096 338.649c-1.136.345-3.467-.234-3.467-.234.78 5.672 1.641 7.61 1.641 7.61l-1.359 1.53 1.63 1.16c-1.753 11.223 3.413 18.947 5.802 26.47-1.884.58-4.037.479-5.656-.33.638 6.369.054 18.627-5.523 23.95-1.062-.629-1.835-.809-2.248-1.39-.828 1.789-1.466 2.49-3.152 7.058-.945 3.06-1.763 7.347-2.2 11.972-4.59-2.175-9.598-4.452-14.11-11.467-1.005-1.664-1.709-3-4.162-5.222-.568 1.051-.663 1.36-1.796 2.338-1.198 1.04-4.301 2.312-4.323 2.208-.63-2.824-1.383-5.438-3.2-8.619-1.74-3.525-7.721-8.214-12.607-19.666-2.004-4.394-3.007-8.311-3.842-12.832-.374.167-.633.281-.88.335-1.816.47-3.122.351-3.748-.914-1.536 3.814-3.448 5.946-5.079 6.981-.75 2.2-.63 2.782-2.26 4.572-1.494 2.075-2.004 2.606-3.048 6.536-1.69 3.99-4.22 5.961-4.603 6.993-.63-1.265-.876-1.028-1.503-1.964-6.146 7.523-6.9 9.486-20.82 12.156 3.507-6.375 5.891-17.012 5.643-19.205-1.76-14.929-3.389-18.05-4.274-29.622-.521-5.787-1.999-20.015-.617-38.978 1.498-22.902 8.523-42.69 14.55-57.617 7.775-20.818 25.582-54.364 38.575-74.861l.052-18.601h5.018l5.273-11.106 2.377 1.623 9.028-22.214 6.396 16.775 10.94-6.367c4.37-3.695 35.471-45.11 101.338-45.024 63.832-.085 129.562 45.957 129.562 119.53 0 66.855-59.214 118.45-127.548 118.45-52.955-.001-87.06-24.873-105.149-47.662 1.153 11.455-1.256 34.247 9.35 55.647h-.001" fill="#FFF"/><path stroke="#FFF" stroke-width="2.584" d="M193.054 338.649l-1.021.11-1.14-.097-.926-.164-.38-.08.585 3.579.526 2.355.38 1.282.147.393-1.357 1.532 1.626 1.16-.171 7.812 1.519 6.811 2.294 6.116 2.162 5.732-2.928.353-2.724-.687.189 5.681-.623 6.684-1.786 6.494-3.301 5.09-1.368-.711-.88-.676-.606 1.214-.647 1.271-.811 1.793-1.084 2.78-1.29 5.392-.908 6.575-3.506-1.723-3.575-2.198-3.562-3.1-3.461-4.445-.731-1.206-.808-1.198-1.076-1.3-1.543-1.519-.687 1.196-1.107 1.143-1.18.797-1.423.736-1.207.52-.512.155-1.156-4.177-2.042-4.44-2.016-2.955-3.105-3.912-3.696-5.39-3.786-7.41-2.362-6.373-1.476-6.463-.88.335-2.32.194-1.427-1.107-2.509 4.533-2.575 2.451-.44 1.392-.361 1.046-.521.976-.937 1.158-.962 1.344-.731 1.223-.645 1.577-.706 2.393-1.38 2.63-1.41 1.975-1.168 1.418-.64.97-.754-1.11-.747-.855-2.09 2.57-1.798 2.124-1.73 1.752-1.877 1.449-2.24 1.224-2.82 1.07-3.622.987-4.631.984 2.393-5.381 1.833-5.79 1.123-5.005.288-3.028-1.289-9.305-1.178-6.772-1.02-6.14-.79-7.41-.512-5.863-.51-8.682-.153-11.155.561-13.273 2.057-16.57 3.514-15.235 4.366-13.736 4.607-12.077 3.353-8.351 4.125-9.245 4.71-9.833 5.136-10.124 5.375-10.103 5.45-9.789 5.346-9.168 5.068-8.245.052-18.6h5.015l5.27-11.107 2.374 1.625 9.028-22.216 6.393 16.774 10.934-6.367 1.133-1.12 1.768-1.883 2.422-2.537 3.081-3.072 3.758-3.489 4.44-3.795 5.14-3.984 5.85-4.053 6.569-4.013 7.297-3.852 8.047-3.576 8.8-3.18 9.567-2.673 10.346-2.048 11.136-1.306 11.94-.447 11.967.516 11.914 1.574 11.758 2.6 11.51 3.603 11.155 4.57 10.705 5.518 10.158 6.432 9.507 7.325 8.762 8.189 7.911 9.022 6.964 9.834 5.922 10.613 4.783 11.368 3.535 12.095 2.193 12.793.755 13.47-.685 12.346-1.993 11.935-3.234 11.476-4.404 10.956-5.497 10.385-6.517 9.76-7.467 9.087-8.337 8.356-9.137 7.568-9.868 6.735-10.521 5.844-11.1 4.903-11.61 3.903-12.037 2.855-12.4 1.753-12.687.599-18.974-1.113-17.24-3.13-15.54-4.83-13.873-6.213-12.241-7.278-10.637-8.035-9.066-8.474-7.537-8.589.297 4.8.158 5.714.213 6.48.465 7.095.905 7.56 1.54 7.878 2.371 8.048 3.402 8.068"/><path d="M287.03 325.127c67.956 0 123.045-50.8 123.045-113.475 0-62.674-55.09-113.48-123.044-113.48-67.955 0-123.039 50.805-123.039 113.48 0 62.676 55.084 113.475 123.039 113.475" fill="#FFB612"/><path d="M287.03 309.29c58.462 0 105.868-43.713 105.868-97.638 0-53.925-47.406-97.637-105.867-97.637-58.464 0-105.86 43.716-105.86 97.637-.006 53.925 47.396 97.638 105.86 97.638" fill="#FFF"/><path d="M220.382 202.398s-8.651 19.322-8.277 34.591c0 0 2.692-5.72 3.642-4.741 0 0-7.777 24.06-1.885 37.83 0 0 1.256-3.822 3.384-6.138 0 0 3.26-4.743 4.525-8.56 0 0 .62 1.619.991 4.511 0 0 2.89-3.353 3.51-5.671.488-1.808 1.757-3.81 2.638-6.129l.998.47s5.9-6.598 8.154-12.619c0 0 1.754-.224.883 4.518 0 0 4.89-4.397 5.017-11.225l.995 1.048c4.14 4.742 4.14 12.03 4.023 16.539-1.003 14.458-9.038 22.207-19.069 30.653l.887.695c14.919-2.54 24.748-4.03 39.888 0 5.76 1.541 19.684 7.405 26.453 11.342 0 0 15.05 6.011 25.585 6.011 0 0 .503.228.503-.29 0 0-1.133-3.584-.127-17.062 0 0 1.133-6.24 2.012-10.526 0 0 1.127-2.888 1.255-8.788.013-.486-.51-4.053 2.127-3.705 5.712.747 8.904-.461 13.297-1.156 0 0 4.647-1.267 6.535-1.391 0 0 4.403.65 5.761.23 1.498-.46 3.132-1.624 5.144-3.354 0 0 2.25-2.201.745-7.173 0 0-1.501-4.514-.63-5.902 0 0 1.328-3.068 3.264-4.865 0 0 1.38-2.073-.5-3.114 0 0-1-1.047.685-1.45 0 0 1.26.112 2.066-.291 0 0 .437-.169.503-1.037.078-.934.509-5.438-2.754-9.376 0 0 .942.237 1.634.47 0 0 4.009.344 6.086-.583 1.816-.926 4.45-2.08 4.079-7.637-1.024-4.621-3.02-7.404-5.03-12.606-2.378-5.552-2.75-8.332-7.764-12.138-3.014-1.278-4.396-3.357-2.139-5.443 1.754-2.435 1.125-6.822-1.997-9.833-3.015-2.778-5.27-7.058-6.41-9.258-1.498-2.311-3.133-4.86-4.63-6.363-1.517-1.736-3.766-2.77-7.77-7.174 0 0-2.4-1.964-2.77-4.04-3.39-4.858-12.8-11.69-23.584-12.382-3.146-.351-3.146-.351-5.402-.582-3.753-1.271-15.546-1.623-23.577.464-2.591.512-7.774 1.385-7.774 1.385-2.754.81-6.642 1.511-10.906 3.933-3.134 1.502-7.77 5.088-11.285 7.401-3.77 3.476-12.169 8.568-16.81 11.457-9.03 6.126-16.809 14.228-21.323 19.321 0 0-11.405 13.182-17.05 35.974-.376 3.47-1.374 6.824-.758 10.643 0 0 5.028-10.063 9.668-13.195 0 0-.637 1.86-1.007 4.859 0 0 2.377-4.044 3.375-4.741 0 0 1.758-1.736 4.273-4.505 0 0 5.274-6.366 6.773-7.06-1.939 3.356-2.382 5.552-2.568 9.019.815-.69 1.316-1.217 1.569-1.619 0 0 .489-.927.999-.697.257.6-.126 1.055-.126 1.055h-.004" fill="#000"/><path d="M370.877 204.482c-1.132-1.735-1.879-3.7-2.761-6.126-.372-.987-1.124-3.009-1.998-4.741-.057-.7-1.636-3.933-2.639-5.212-2.517-3.353-4.578-3.643-5.956-5.032l-.522-.01c-1.458.897-1.481 2.875-2.723 4.38-.126.163-.543.362-.83.242-.394-.186-.554-.504-1.01-1.097-.411-.565-.74-.161-1.192.306-.289 0-.502.211-.728.422-.39.376-.085.572.226.994.315.436 0 .436.198.66-.059.18-.114.248-.175.33-.165.23-.568.174-.865.124-.83-.124-.642-.069-1.384-.396-.912-.399-1.347-1.5-2.052-1.84-.208-.113-.923-.234-1.469.098-.402.25-.58.794-.237 1.085.59.496 1.053 1.079 1.681 1.518.855.59 1.79 1.025 1.902 1.852.152 1.053-1.537 1.435-2.332.88-.413-.285-.898-.606-1.34-1.038-.072-.06-.142-.413-.236-.477-.358-.249-.774-.547-.972-.807-.357-.496-.828-1.019-1.472-1.251-.154-.051-.276-.25-.388-.425-.295-.477.024-1.032-.19-1.474-.178-.36-.263-.947-.815-.72-.511.467-.443.467-1.02.421-.732-.06-.147-1.309-.147-1.142.01.069-.03-.025.214-.435-.502-.15-1.257-.523-.68-1.208.495-.577.981.27 1.17-.076.065-.132.493-.859.654-.959.563-.304.726.108.806.22-.243.633.475 1.053 1.168.71l.113-.639c.64-1.027 1.632-1.568 2.641-2.276l.41-.193c.305-.559.655-1.366.013-1.622-.535-.208-1.637-.017-1.409-.893.104-.41.685-.567 1.014-.702a64.695 64.695 0 0 1 3.664-1.474c.297-.11.807-.53 1.184-.555 1.562-.115 1.197-.082 3.11.226.337.051.991.381 1.322.487 1.014.33 2.462.224 3.129-.79.664-.99.477-2.667-.197-3.832-.793-1.41-2.014-2.629-3.07-3.596-1.345-1.246-3.095-1.882-3.443-3.592-.432-2.092-2.189-4.861-3.184-6.519-1.047-1.709-1.97-2.85-3.295-4.434-.312-.367-2.248-2.188-2.58-2.487-2.21-1.988-3.163-2.647-5.518-3.43-1.208-.398-5.91-.143-8.359-.43-.77-.094-3.133-.145-3.777-1.3-.578-1.049-1.31-2.548-2.528-3.26-.44-.251-1.111-.516-1.572-.735-2.207-1.021-4.487-2.733-6.87-2.647-.878.028-.037.903.19 1.001 1.079.524 1.567 1.111 2.161 1.745.614.666 1.955.69 3.106 1.13 1.094.415 2.002 1.062 3.022 1.558.965.467 2.258 2.01 1.19 2.643-.965.57-1.985-.123-3.264.175-.257.062-.644.219-2.129.219-1.977.25-2.663-.627-4.185-1.624-1.523-1.004-2.481-2.54-3.949-3.495-1.8-1.174-3.625-2.15-5.687-2.818-.454-.148-1.054.085-1.459-.112-.707-.366-1.252-1.152-2.147-1.218-1.526-.098-1.526-.214-3.047 0-.213.041-.774.628-.957.626-.901-.033-1.943-.263-2.399.194-.693.735.162.653 1.054 1.054.504.211 1.561.742 2.164.728 2.538-.044 4.165-.063 6.152.93.212.113 1.103.922 1.153 1.224-1.885-.031-4.865-.719-7.046-.555 3.667-.274-3.74.092-5.356.034-.485-.015-.485.9.27 1.408.2.128 1.322-.06 1.468.27.657-.321 2.538-.167 3.082.026.942.31.41.177 1.235.576.501.247.983.58 1.573.517.765-.082.813-1.126 1.583-.791.264.117.852.448.979.44 4.35-.076 4.45 1.18 6.478 1.152.525 0 1.304-.194 1.675.038.814.524 1.58.587 2.834.12 0 0 2.892 7.17 2.135 20.243-.752 5.552-1.124 6.599-2.51 11.11 0 0-1.997 7.168-1.257 12.14.764 16.775-4.766 30.659-10.776 39.914-2.26 2.542-3.52 3.928-1.255 5.772 4.767 4.054 8.658 4.978 15.42 6.372 2.396.69 3.894.921 6.145.921 3.51 0 9.043 1.385 11.544 3.126 2.375 1.161 8.778 3.357 12.662 2.774 3.383.234 4.393.466 6.034 1.044 1.12.456 2.26.456 3.512.114l1.937-1.333c.248-.57 2.068-1.324 1.696-3.643-.126-1.732-.88-3.53-1.245-5.145-1.085-1.428-1.017-2.489-.64-3.988 1.133-2.09 2.45-3.126 3.144-4.167 1.498-1.565.63-2.656-1.448-3.186-1.001-.4-2.94-.23-4.953-.4-1.065 0-1.944-.407-3.446-.12 0 0-1.017.638-1.567 1.106l-.763-.409s.7-1.852 2.128-2.952c1.444.23 3.556.386 4.65.121 1.3-.546 2.791-.769 3.886-1.165 1.89-.167 2.767-.057 5.021.063 0 0 1.128-4.511-2.822-7.928-.94-.8-1.706-1.848-3.063-1.903-4.788.524-7.408-1.272-8.17-1.737-1.18-.058-1.55.41-2.19 1.107-1.638 2.535-3.574 3.406-3.574 3.406l-1.002-.117s.88-1.384 2.876-3.702c.896-1.854 2.138-4.162 3.267-5.323.685-1.097.882-3.583 2.57-4.277.82 0 .952-.177 1.562.174-1.24 1.095-4.757 5.028-1.113 7.454 1.496 1.162 3.763 1.162 4.315-.055.276-.668.88-1.097 1.195-1.334 1.883-.346 3.454.522 4.074.988 1.506 1.621 2.387 2.37 3.128 2.714.825.583 2.337.462 3.08.462 2.449-.391 3.762-1.673 4.201-2.481 1.311-2.544 1.066-5.033-.816-8.038z" fill="#5B2B2F"/><path d="M345.474 185.383c.757.354 1.066.244 2.604.445 0 0 1.349.2 2.565-.782.197-.16 1.22-.634 1.187-1.015-.13-1.762.16 1.145-.216-1.502-.086-.562-.056-1.073-.301-1.67-.114-.31-.644-.848-1.424-.599-.144.051-1.385.984-1.408 1.03-.685 1.211-1.752 1.351-2.227 2.173l-.884 1.342c-.084.21-.198.426.104.578" fill="#5B2B2F"/><path d="M357.017 202.808c2.151-.65 3.195.274 5.57 1.77.416.26.758.936.158 1.306-.196.124-.646.101-.782-.018-2.085-1.84-2.758-1.856-5.036-2.23-.112-.009-.468-.66.09-.827v-.001M344.22 223.15a25.84 25.84 0 0 1-1.074 2.573c-.427.9-.225 2.01-.888 2.818-.29.36-1.096.22-1.217-.203a6.195 6.195 0 0 1 .601-4.694c.438-.748 1.521-1.12 2.454-.836l.127.467v-.127l-.002.002" fill="#0C130F"/><path d="M322.649 212.513c-.712-.217-1.097-.829-1-1.503.242.062.04-.256.252-.237 1.496.087 2.895.643 4.392.676 1.705.031 3.416-.265 4.976-.947 1.936-.853 3.61-1.763 5.47-2.905.831-.508 2.025-.81 3.055-1.015 1.626-.34 1.521-1.183 2.73-1.846 1.772-.95 1.639-1.654 2.63-1.29.28.103-.289.682-.591.94-.668.551-1.548 1.104-2.153 2.084-.137.197-1.065 1.114-1.245 1.25-2.032 1.384-2.486 2.59-3.998 4.29-.855.97-1.133 2.234-1.699 3.356-.339.663-.55 1.35-.992 1.96-.185.252-.865.128-1.097.344-1.253 1.106-2.45 2.169-3.377 3.612-.155.233-.68.224-.756.097-.804-1.423-1.924-2.497-3.831-2.549-.338-.011-.705-.716-.684-1.34.013-.137-.148-.395-.33-.432-.296-.045-.431-.3-.742-.315-.326-.016-.584-.479-.643-.675-.387-1.123-.245-2.372-.495-3.552h.127v-.003" fill="#000"/><path d="M294.85 244.621c-.317-1.157-2.34-1.055-3.788-.92-2.201.219-4.208.566-6.342 1.603 1.406-1.961 3.136-2.081 6.42-3.246.745-.264.564-1.476.088-2.185-.553-.813-1.273-.855-1.552-.905-2.71-.486-3.58.092-5.014.432-4.966 1.18-9.851 4.64-12.575 7.953-.791.968-.53 1.987-.365 2.2.506.626 1.294 2.376 1.51 2.163 2.013-2.01 4.456-3.861 7.096-3.28-1.127.336-5.083 2.186-6.339 4.864-.077.17.51 1.146 1.256 1.665 1.01 1.562 1.381 2.195 1.95 2.486.35-.032 1.09-.709 1.293-.996 2.766-3.398 5.533-5.48 13.181-6.404 2.197-.344 3.45-.927 3.643-2.777 0 0 .43-.922-.442-2.777m-9.157 10.87c.129 1.739-.145 2.52.38 3.653.518 1.07 1.586 1.996 1.986 3.104.315.842 1.392 1.917 1.392 2.502.517.455.572.867.572.867.663.81 2.651 1.783 1.95 2.254-.823.586-3.265.173-4.734-.053-1.895-.287-.8 1.299-.394 1.46 1.923.732 5.958.98 7.278 1.652.8.407 1.848 1.022 2.187 1.747.251.543.7 1.015 1.094 1.484 1.27 1.577 1.725 2.26 3.04 3.254.654.497 1.41 1.342 1.182 2.102-.277.89-.888 1.078-1.807.962-.29-.042-1.208-.293-2.087-.644-1.751-.506-2.126-1.103-3.385-.506-.678.322.314 1.384 1.083 1.77 3.15 1.542 6.951 1.577 10.01 3.212 2.614 1.403 4.208 3.108 4.067 6.716 0 .066.942.542.998.463.897-1.296 3.16.313 4.262 0 .102-.033.129-.577-.02-.801l-2.124-1.469c-.505-.747.223-1.55-.027-2.206-.263-.66-1.482.488-1.937.051-2.008-1.922-3.318-4.207-6.023-5.319 1.132-2.886 1.624-6.125 1.37-7.633-.745-.575-1.057.35-1.244.464-.62.545-.375 1.736-1.096 2.642-.127.153-1.098-.027-1.371-.25-1.846-1.453-3.57-3.176-4.433-5.24-.027-.074-.398-.497-.477-.598-1.355-1.754-1.273-4.203.3-5.962.166-.192.425-1.272.265-1.394-.285-.205-.913.21-1.17.446-.858.812-1.598 2.43-3.047 2.286-1.644-.161-2.264-1.689-3.266-2.687-.315-.982-.91-1.61-.757-1.74-1.378-1.848-1.498-3.354-2.777-5.662-.284-.52-.68-.768-1.238-.927h-.002" fill="#FFF"/><path d="M295.251 286.605c1.637.77-.248-.987-.248-.987-.628-.403-2.102-2.504-2.39-3-.703-1.127-1.209-1.997-1.63-2.893-.616-1.394-1.843-2.378-3.866-4.18-1.013-.903-2.58-2.502-3.217-3.67-.99-1.81-1.555-5.06-3.937-6.58-1.836-1.179-1.396-2.519-2.978-4.804-.61-.864-1.852-.973-2.764-1.83-2.295-2.133-.841-2.956-2.843-4.916-.893-.855-1.272-1.028-2.036-2.34-1-1.682-.246-3.888-1.938-4.66-1.501-.693-2.67-.939-3.687-1.251-1.584-.48-4.098-1.672-5.52-2.693-1.496-1.077-4.56-3.433-7.837-6.055 2.001 14.227-.766 26.375-16.059 39.102 28.345-4.86 40.757 1.27 60.948 10.756l.002.001m10.71-18.159c.086 1.164.518.954 1.218 2.552.35.803 1.334 2.206 1.847 2.604 2.903 2.246 4.907 5.713 4.704 9.287.139 1.745.238 1.637 2.09 2.85.315.214.504.232 1.494 1.09l3.457 3.243c-.066-1.047.113-2.808.087-3.36-.165-5.456.976-11.094-1.035-15.866-1.502-3.572-4.887-7.593-6.218-11.329l-.667-2.04c-.696-2.9-.763-5.925-.763-5.925l-4.195-1.848c-3.303-1.219-7.02-2.338-10.346-3.47 0 1.62.243 2.77-1.066 4.392.88 1.97 1.62 6.31 2.626 7.353 2.194 1.904 3.95 3.406 5.396 7.978.327 1.09 1.313 1.678 1.371 2.492v-.003" fill="#5B2B2F"/><path d="M254.997 145.254s-2.502-.228-8.404 3.933c-6.513 3.7-15.168 9.023-21.448 16.079-4.57 4.219-11.034 10.642-13.414 15.156 0 0-3.893 5.668-6.4 14.921 0 0 .886 3.009 3.389-.926 4.379-6.876 21.066-30.025 44.896-46.905l1.139-.06c-11.8 9.363-27.094 21.981-41.962 43.441-.553.795-1.268 2.212-1.337 2.32-.667 1.147 1.038 1.324.168 1.129 1.357.306 1.858-1.432 2.73-1.777.535-.218.767 1.268 1.62.886 3.038-1.356 5.284-4.248 6.53-5.984.067.497.767 1.97.767 1.97 1.372.35 5.644-5.086 7.896-8.79.634.689-.15 2.385.68 1.66 2.578-2.244 4.879-4.647 6.248-6.842 1.6-2.567 3.363-3.723 3.989-8.231 1 .576.98.824 1.256 1.035.63-.692.669-1.422 1.67-2.457 1.082-1.13 1.299-2.009 2.622-2.807.474-.29 1.514-2.099 1.724-3.041.196-.897 2.353-3.804 2.509-4.768 1.751-3.01 4.77-4.627 6.896-6.94 2.007-1.612.5-4.507-3.763-3.003" fill="#FFF"/><path d="M232.924 235.597c.88.927 1.625-.29 1.625-.29 1.45-2.023 1.763-2.547 2.766-5.263.63-1.794 1.379-2.431 2.005-9.942 1.76 2.426 2.007 7.051 2.007 7.051l.504-.114s1.633-4.282 4.388-5.668c0 0 .25-2.892 3.006-5.78-.37-1.738-.63-3.129-.995-5.905-1.133-4.624-1.762-12.373-.631-17.695 2.252 11.1 3.574 12.726 3.574 12.726l.502.169c.943-1.327 1.197-3.638 1.457-5.723 1.113-4.395 3.124-3.93 3.124-4.86-.631-3.584-1.628-9.253-1.008-14.114 1.26 5.321 1.885 4.978 2.753 6.949 1.13 2.423 1.257-.587 1.257-.587-.244-3.12 2.139-6.247-.127-13.536-.872-4.971-3.382-15.615-2.377-18.048.63-3.003-.501-1.966-.501-1.966s-3.267.694-8.15 13.423c-7.147 21.168-13.295 43.723-19.947 62.003 2-9.602 12.663-43.496 15.806-55.751 0 0-.44-.875-1.126.107-.822.87-1.634 1.965-2.076 2.717.061-.045-.374.062-.87.3l-1.58 2.192s-3.124 4.044-11.72 12.262c-1.449 2.09-2.07 3.043-3.636 6.363-.567 1.215.31 1.39 1.253.698 2.314-2.083 2.441-2.083 5.643-4.342.141-.099 2.719-.955 2.719-.996-.408.478-.952.792-1.15.978-.888.772-3.06 3.025-3.65 3.981-1.464 2.325-3.05 5.214-5.147 8.716-2.63 4.387-4.629 9.476-4.629 9.476-1.38 3.586-1.004 3.933-1.004 3.933 1.877.693.854 1.57.854 1.57-.854 1.44-1.233 2.59.215 2.073.947-.176 1.446-.617 1.833-1.065.744-.843 1.365-1.424 1.879-2.008.84-.967.677-1.262 1.585-2.214 1.168-1.248 1.91-2.291 3.107-2.803-2.076 2.596-2.197 4.447-2.197 4.447l.506.573.362.236s-2.127 2.427-3.121 7.935c-.487 2.616-.387 2.942-.824 4.393.211-.186 1.448 0 2.551-1.035-.478 1.609-.575 2.419-.575 2.419-.212 1.327-.212 1.098-.212 2.606 0 1.39 0 .801.5 2.423 2.254-.925 2.753-.809 4.881-3.119 1.007-.87 1.78-2.983 2.086-2.84.557.238.083 1.414-.169 1.932-.341.728-.648 1.272-.772 1.795-.069.269-.356.66.102 1.022.198.164.059.138.703.123.38-.009.737-.548.737-.548s.202-.044.401-.446c.143-.34.43-.53.68-.694.003-.003.38-.35.821-.238l.002-.001" fill="#FFF"/><path fill="#0C130F" d="M174.859 164.343h-2.631l8.655-18.164-10.663 7.692-2.45-11.508-5.574 15.678-2.701-1.906-4.07 8.437h-3.017v9.137h18.438l4.013-9.365v-.001"/><path fill="#0C130F" d="M159.188 173.246l9.778 6.012 1.002-2.664-5.77-3.462-5.01.112v.002"/><path d="M161.95 171.975l5.262 4.974s-4.135 16.076-3.384 24.874c7.656 6.824 13.298 13.417 12.42 28.221 0 0 .5.345-2.757-.576 1.632 1.621 2.127 2.892 3.508 5.666.626 4.511 1.013 8.562.626 12.727 0 0 .387 10.292.757 13.53 1.509.462.628 4.166.756 9.028 0 0-.128 3.005-.639 5.322-3.126-2.317-2.88-2.196-3.755-1.965.749 2.302 1.252 2.302 2.765 4.157 0 13.77.5 27.997 1.5 34.246.5 4.51 1.378 9.71 1.755 11.335.751 2.079.751 3.923 3.01 8.325-.75 0-2.854.057-4.267-1.615 2.008 3.466 2.008 2.777 3.264 3.931l1.751 12.03-2.001 2.077 2.765 1.619s-.63 5.44.123 10.41c.37 2.316 1.128 4.631 2.892 7.867-3.645.124-4.27-2.653-4.27-2.653-1.003-1.048-2.76-3.365-3.263-3.365-.25 3.365 1.757 4.637 2.633 6.602 2.555 5.65 2.894 11.108.63 21.625-2.51-2.193-2.634-4.166-4.52-5.202-.245 6.006-.497 7.86-1.75 10.514-2.632 4.744-3.39 7.19-3.512 11.814-4.391-3.364-5.52-7.987-8.532-10.646-2.133-1.964-6.392-5.67-7.9-8.098-.253 2.884 0 3.938-1.256 6.705-1.005-3.212-1.125-4.16-3.51-6.816-3.134-4.054-10.164-13.074-11.788-22.675-.383-1.623-1.382-6.364-2.509-12.846-.882 2.207-2.38 3.938-3.887 4.287-.758.353-.758-.574-.758-.574.627-2.09.88-4.398.627-6.133-.37-2.554-1.125-8.214-2.509-9.603h-.632c.126 3.814-1.506 5.552-2.507 6.823-.124-3.009 0-5.317-.75-6.823-.377-1.05-1.254-1.965-1.508-.927-.625 3.01-.877 3.587-.877 6.362-.247 4.168-.247 5.562-.757 9.026-.246 2.547-1.126 5.667-3.63 8.785-.501-2.766-2.384-4.967-2.384-4.967 0 3.353.756 8.324-1.5 10.99-2.767 3.467-3.145 5.202-4.019 7.751-.379-3.013-1.379-2.085-1.877-3.706-2.012 7.86-8.29 13.877-10.542 15.261 1.506-3.227 2.764-6.935 3.014-9.25 0 0-.377-8.56-1.763-13.413-3.432-15.146-5.092-50.12-2.5-63.402 6.264-47.655 33.11-91.386 55.683-130.714l6.271-.911v-.004" fill="#0C130F"/><path d="M164.581 176.714s-3.893 15.385-3.136 26.147c5.273 4.163 10.914 9.832 11.166 21.513-.44.177-.501.06-.884-.233-1.497-1.782-5.513-2.372-8.523-6.877.44 2.835 9.29 14.173 9.912 16.366.121 7.06 1.25 17.297.619 19.318l-3.01-1.852c1.634 3.874 3.01 7.29 4.956 10.123 0 0 .191 10.003-.192 8.615h-.501a46.693 46.693 0 0 1-4.822-3.702c-.821-.403-.943-1.383-2.453-2.724-2.251-1.905-3.51-3.525-4.45-3.874-2.388-1.555-4.015-2.078-5.393-2.48-.436 0-1.317-.118-1.317-.118s4.516 3.528 7.4 7.519c3.452 3.818 4.892 6.07 6.076 8.376 1.321 2.326 3.204 4.633 4.707 6.597 0 3.187-.252 13.765-.064 15.56l-.943-.638c-2.253-1.271-4.7-4.112-6.774-7.81-1.126 5.328 5.018 11.568 7.84 13.653.941 9.893.941 14.51 2.702 24.921l-.127.813c-2.515-1.616-5.142-4.168-8.28-8.323-.25 4.043 4.139 9.365 8.783 14.454.61.682.446 1.571.777 2.343.549 1.278 1.1 2.866 1.789 3.73.565 2.251.815 5.265.69 6.536l-1.881 3.357 2.506 2.779c.248 3.006-.374 3.81 0 7.168 0 0-2.879-.228-4.142-3.244-2.253 5.793.257 12.272 2.261 15.624 1.505 3.933 2.382 6.359 2.129 10.64l-.503 1.265c-1.499-2.772-3.631-5.081-5.769-6.586l-.871-.223c2.11 12.17 1.383 16.187-2.627 23.949l-.636-.582c-2.254-4.056-6.515-7.18-9.522-10.064-.506-.111-5.769-6.249-6.154-11.224l-.622.121c-.252 1.736-1.009 5.439-.502 6.13l-.504-.23c-3.005-1.278-8.465-11.101-9.401-16.768 0 0-.199-1.106-.63-3.362-.192-2.195-1.44-8.907-1.696-9.835-.44-2.486-1.586-5.627-2.064-7.284.065-.58-.374-.753-.69-.287-.692.913-1.25 1.79-1.632 1.212-.315-.575-.06-1.502.192-2.773-.503.343-1.63.489-1.76-.347-1.381-5.67-2.13-12.726-2.13-18.512.63-1.5 2.38-4.27 3.766-7.29l-.124-.688c-1.51.688-4.02 3.006-4.518 4.271l-.63-.803c-.5-2.324-1-6.831-1-11.569-.252-.87.12-1.384.503-2.085.998-2.194 2.135-4.65 3.007-7.057.756-2.435 4.957-9.94 6.215-11.684l-.827.693c-2.31.758-8.272 7.408-9.023 7.872l-.565.051c.31-6.652 2.318-21.454 3.696-30.542 1.383-3.41 12.17-13.817 9.655-11.969-4.884 1.622-6.514 3.24-7.525 3.704l-1.502.464c1.497-6.459 4.615-29.8 7.905-36.092 2.378-3.819 4.767-4.858 6.52-9.023l-1.259.574c-.874.816-4.767 3.476-7.145 6.486l-.762.112c1.128-3.005 1.508-6.242 3.765-10.408.623-1.742 1.632-2.433 2.39-3.934 1.874-2.203 2.63-3.012 4.387-3.82.872-.34 2.507-.921 2.507-.921-5.007 18.943-6.774 34.344-8.28 55.404-1.508 33.55 1.544 74.144 13.804 99.253-9.788-29.379-13.552-61.305-12.298-93.697 1.003-27.765 5.512-49.977 15.305-87.452l2.13 1.266.003.007" fill="#FFF"/><path d="M157.934 173.822c-3.133 3.937-24.71 41.416-26.84 48.245-19.055 35.278-30.353 70.442-29.598 105.038 0 15.15 1.762 25.564 3.76 36.666.882 4.276 2.132 10.061 1.882 13.76l.633-.346c.874-1.505 3.255-6.242 4.015-10.174.253-1.503 1.129 0 1.129 0 .367 1.036 1.126 1.504 1.252 2.54 0 .93.492.818.75.112 1.378-2.537 1.756-4.05 1.25-6.706-.498-2.195-.87-11.334.253-14.69 0-.93.876 0 .876 0 .633 1.39 1.635 3.936 3.886 6.019 0 0 .943.574 1.007 0-.24-2.429-.496-18.279 3.515-20.02 1.501.345 1.63 1.278 2.758 2.317 1.26-1.274 1.761-6.708 1.383-10.875.125-6.474-.883-12.957-1.507-16.999-.526-1.276 0-1.51.751-1.744.185-.125 3.011-3.353 3.011-5.084-2.374 1.502-3.01 1.851-5.268 3.245-.25-4.983-2.634-12.846-5.264-18.987 2.76 2.327 4.508 4.98 5.39 7.18 1.003-5.087 1.38-8.104 1.507-10.533-1.375-4.513-4.008-14.337-3.76-21.63 1.63 5.321 3.131 11.106 4.766 14.579.752-2.553 1.377-7.063 2.381-10.881 1.374-.925 3.01-1.851 3.509-2.654-.502-.816-2.64.695-3.01.803.25-3.585.875-10.525-1.754-21.862l.37-.348c1.128.467 2.507 2.547 3.01 4.75 2.26-2.43 3.766-14.46 4.39-19.2-2.382 0-3.508 2.426-5.143 2.19.25-1.505.376-.803 1.002-2.19.631-1.625 2.138-3.25 2.764-5.442 1.378-1.853 1.378-4.05 1.507-6.13 0-1.968-.25-4.858 1.5-7.405.383 1.032.13 1.737 1 3.931 0 0 3.518-7.056 5.401-8.67 2.5-10.067 8.523-21.405 14.173-28.813" fill="#FFF"/><path d="M159.06 180.183c-4.141 5.445-7.152 14-8.66 20.132 1.882-.927 2.008-.817 3.765-1.388.631-2.896 5.575-19.635 4.895-18.744" fill="#FFF"/><path d="M117.576 312.273c.075.336.658.127.351.462.751 0 1.535.135 2.231-.062.353-.095.593-.604.655-.88.205-.969.722-2.202-.22-2.88-.829-.621-.686-1.6-1.27-2.075-.27-.219-.846-.366-1.236-.727-.29-.275-.817.338-.815.613.015.758.559 1.527.546 2.342-.018 1.242-.643 1.59-.24 3.213l-.002-.006m-9.054-10.631c-.086-1.34-.564-3.232 1.6-2.7.68.16.837 1.091.853 1.542.036 1.213.335 2.18.893 3.242.318.601-.22 1.123-.548 1.552-.839 1.145-2.565 1.792-3.55.664-.603-.685-1.335-1.712-.79-2.65.428-.736.768-1.136 1.415-1.777m2.299 13.897c-1.139-1.51-.606-2.916.727-3.812.84-.563 1.861-.184 2.103.48l1.518 3.938c.477 1.41-1.46 2.774-2.822 2.159-.97-.456-.904-1.936-1.526-2.765m1.166 5.482c-.544-.157-.596.276-.865.499-.565.446-.567 1.385-1.06 2.001-.92 1.14-.643 2.754-.281 3.843.243.747 1.454 1.836 2.484 1.752 1.628-.123 2.832-2.916 1.59-3.58-1.615-.883-1.047-3.105-1.642-4.31-.044-.088-.43-.033-.684-.033m10.808-3.026c-.417-.511-.434-1.2.043-1.529.439-.295 1.2-.153 1.644.2l.721.474c1.347.988 2.172 2.31 1.443 3.824-.198.425-1 .827-1.56.44-.434-.3-1.039-.32-1.34-.832-.484-.836-.288-1.781-.952-2.577m-14.824-9.35c-.241-.738-.92-.376-1.295.161-.888 1.27-1.333 2.498-1.46 4.35.25 1.037 1.869 1.236 2.658.774 1.797-1.038.512-5.021.424-4.472.055-.356-.328-.89-.328-.811l.001-.002m34.88 11.45c-.366-.256-.972 0-1.006.415-.137 1.187-.157 3.438 1.8 3.072.695-.125 1.156-.786.991-1.458-.237-.96-1.007-1.497-1.786-2.03h.001m4.688 4.218c-.476-.437-1.317-.367-1.669-.12-.716.512-.983 1.593-.728 2.41.28.89.608 1.839 1.322 2.527.46.442 1.413.954 1.666.635.586-.766 1.133-1.787.873-2.89a5.203 5.203 0 0 0-1.464-2.562m17.937-1.387c-.35.03-.792.074-.935.272-.7 1.014.068 2.194.998 2.618.975.462 2.204-1.056 1.481-1.893-.46-.546-1.187-1.015-2.043-.996m-8.109 10.642c-.362-.17-.93-1.241-.652-1.958.256-.642 1.048-.9 1.723-.792.777.135 1.274.64 1.713 1.17 1.15 1.363 1.474 3.491-.017 4.63-.606.475-1.696.362-2.125-.305-.546-.834-.142-1.503-.56-2.396l-.082-.348v-.001m10.418.747c-1.023-.738-.599-2.22-1.728-2.885-.63-.38-1.465-.472-2.05-.022-.613.492-.61 1.2-.768 1.939-.085.41.202.772.397 1.128.825 1.554 2.826 1.606 4.39 2.484.207.116.614-.28.767-.53.483-.777-.297-1.6-1.009-2.115m-16.596-1.456c-.53-.589-1.44-.396-1.985-.055-.187.115-.371.42-.371.65-.013 1.504-.556 3.063.04 4.487.359.859 1.187 1.9 2.26 1.46.768-.314 1.246-1.172.988-1.998-.477-1.528.23-3.251-.934-4.544h.002" fill="#FFB612"/><path d="M178.49 333.362c-.328-1.054-2.383.016-3.12-.659-.647-.593-1.426-1.124-1.543-2.058-.523 1.098-.107 2.238.447 3.209.315.555 1.044.853 1.513 1.344.536.531.724 1.265 1.026 1.936.382.875-.548 1.379-1.132 1.484-1.836.312-1.888-2.118-2.466-3.291-.406-.842-1.576-1.173-2.198-1.949-.15-.176-.42-.37-.561-.59-.518-.855-1.572-1.461-2.031-2.364-.082.394.062.787.189 1.138.874 2.556 2.281 4.81 3.492 7.22.341.669.716 1.329.923 2.061.186.624.085 1.372-.308 1.759-.387.4-1.309-.463-1.498-.174-.666 1.082.373 2.372.967 3.43.425.751 1.174 1.498.822 2.36-.067.167-.32.396-.577.46-.89.22-1.67-.308-2.142-.768-1.85-1.785-3.463-3.58-4.928-5.725-.565-.821-.258-1.89-.882-2.699-.359-.464-1.044-1.214-1.667-.702-.202.176-.445.412-.49.672-.195 1.053-.426 2.04-1.12 2.819-.198.221-.583.58-.66.714-.949 1.611-1.161 3.47-1.465 5.358-.077.45-.198 1.013-.701 1.244-.526.26-.883-.262-1.17-.597-.762-.865-1.072-1.897-1.598-2.886-.314-.617-.328-1.373-.751-2.022l-.226-.017c.072.177-.101.335-.18.446-.503.8-1.325 1.166-2.224 1.479-.494.176-1.053-.159-1.16-.552-.606-2.245-2.283-3.841-2.963-5.993-1.038.005-2.06.223-2.74-.712-1.497-2.041-1.197-4.334-1.394-6.575-.335.267-.742.454-.985.818-2.381 3.531-3.295 7.21-4.314 11.205-.2.801-.328 1.099-.6 1.848-.562 1.571.314 1.796 1.195.754 1.54-1.83 1.218-.32 1.376.116.382 2.672 1.884 5.323 2.501 9.834.513 4.391 1.511 8.79 2.011 10.988 1.335 7.223 6.524 14.578 9.66 16.4-.373-3.005.752-4.14.503-6.458l.635-.116c.116 4.053 3.38 9.259 7.139 12.154 3.01 3.233 4.644 3.925 7.181 7.282.751 1.155 1.35 1.687 1.98 2.612 1.377-2.612 3.888-7.235 3.888-12.326 0-3.907-.13-8.327-1.255-11.805 2.26.934 4.771 4.284 6.652 7.183 1.127-2.208.5-8.334-1.253-11.34-1.757-3.704-4.643-8.792-2.637-16.311 1.251 2.655 2.133 2.54 4.142 3.003.377-2.777-.128-6.707 0-7.17-.762-1.263-2.505-2.785-2.505-2.785l1.877-3.344c.88-3.354-.871-6.019-.686-6.535-.949-1.909-1.593-3.543-1.989-4.81v.003m-21.693-18.584c-.274-.716-1.037-1.246-.631-1.958.113-.2.528-.15.832-.215.891-.22 1.948-.09 2.538.492.464.461.78 1.005 1.166 1.577.389.591.496 1.297.751 1.95a1.506 1.506 0 0 1-.638 1.858c-.708.395-1.01.734-2.048.305-.39-.16-.63-.934-.816-1.233-.239-.4-.222-1.533-.541-1.905-.29-.32-.447-.432-.616-.871h.003m-.676 3.907c-.304-.269-.707-.255-1.024-.277-.153-.007-.594.024-.577.282.103 1.403-1.657 2.06-2.192 3.166-.537 1.146.565 2.23 1.474 3.002.728.619 1.88.2 2.763-.05 1.457-.403 1.643-2.285 1.305-3.554-.262-.957-.918-1.814-1.749-2.569" fill="#FFB612"/><path fill="#FFF" d="M172.787 167.237h-17.242v3.7h15.741l1.501-3.7m-1.944-10.353l.628 2.72 3.265-5.85-3.893 3.13m-11.91 7.512l1.752-3.987 5.023 3.987h-6.775m5.767-4.394l2.323-7.634 1.622 10.755-3.945-3.12"/><path d="M101.87 313.371c.128 1.037.109.404.654 1.272.503.778.223 1.827.607 2.721.321-.386.94-.562.996-1.15.476 1.79-.932 3.514-.246 5.315.766-.635 1.9-.78 2.507-1.626-.052.72-.268 1.407-.377 2.105-.195 1.204.333 2.415.488 3.675.184 1.585 2.322 2.781 1.713 4.342-.991 2.54-1.518 5.232-.623 7.63.19.505.467 1.347 1.098 1.62.48.201 1.206.212 1.675 0 .257-.122.474-.501.522-.86.197-1.116-.342-2.158-.123-3.223.27-1.386.535-2.768 1.488-3.88.195-.226.928-.153 1.094.195.63 1.303.377 2.857 1.213 4.056.285.405 1.274.692 1.798.244 1.169-1.007.744-2.579.896-3.888.248-2.169-.854-3.332-1.168-5.542-.29-2.072.127-2.379.842-3.232.753 1.94.76 4.05 2.277 5.77.326.363.92.375 1.173.183 1.098-.874.877-2.776.076-4.013-1.216-1.879-2.21-4.845-.014-6.568-.139.95-.125 2.024.405 2.732.729.974 2.08 2.975 2.271 4.895.076.683 1.137.958 1.788.42.115-.1-.027-.555.316-.593 1.053-.135 1.549 1.012 1.497 1.803.416 0 .972.134 1.185-.064 1.012-.957.766-3.234.83-4.557.11-2.44.743-1.51 1.177-1.747 0 0 .187 1.165-.06 4.514.376 4.17-.122 9.61-1.383 10.873-1.128-1.033-1.253-1.964-2.754-2.315-4.013 1.74-3.76 17.594-3.517 20.016-.058.581-1.005 0-1.005 0-2.252-2.077-3.254-4.627-3.886-6.008 0 0-.877-.93-.877 0-1.124 3.353-.751 12.489-.25 14.694.5 2.653.125 4.156-1.253 6.699-.253.701-.748.817-.748-.113-.128-1.034-.888-1.495-1.253-2.546 0 0-.876-1.495-1.128 0-.758 3.93-3.14 8.678-4.016 10.182l-.631.347c.248-3.699-1-9.482-1.883-13.766-2-11.107-4.012-21.515-4.012-36.668 0-6.83.404-14.168.404-14.168l.218.224h-.002m52.022 28.272c1.781 5.215 4.035 12.268 5.548 14.929-.381-3.007-4.768-14.929-4.645-15.729.125-.814-.903.8-.903.8" fill="#FFB612"/><path d="M292.155 145.792c-.375-.387-1.727-.185-1.964-.716-.16-.36-.36-.776-.6-.956-.41-.305-.995.114-1.565.2-.774.11-1.6-.041-2.383-.28-1.345 1.428-4.932.481-6.625.596-.213.008 1.066.677 1.292.858 1.187.938 3.147.854 4.594.9.238.01.708-.227.892-.246 1.558-.194 3.106.302 4.748.559.514.082 2.129-.414 1.61-.912v-.003m24.381 2.004l-3.721-1.964c-.227-.337-.514-.747-.871-1.053-.837-.701-1.279-1.542-2.245-2.103-1.273-.757-2.33-1.731-3.737-2.204l-.485-.026c-.106-.022-.172-.11-.143-.224-.118 0-.282.044-.358-.016-.188-.202-.485-.315-.667-.369-.727-.221-1.56.177-2.202-.345-.363-.3-.79-.48-1.2-.714-1.109-.662-2.381-.261-3.571-.087-.24.032-.59.321-.841.523-.452.363-1.193-.286-1.792-.101-.524.158-1.105.724-.603 1.18.544.5 1.246.846 1.985 1.013 2.155.501 4.42.01 6.454.84.588.235 1.31.51 1.549 1.204-.204.037-.428.21-.606.088-.502-.331-1.042-.326-1.536-.36-3.431-.26-6.851-.522-10.282-.08 0 .805.346 1.656 1.145 1.758 1.066.129 2.209-.177 3.23-.102 1.12.075 2.313.74 3.431 1.323.152.078.415.073.591 0 .502-.188.942-.854 1.496-.618.338.159.696.294 1.053.35.787.123 1.35-.01 2.097.092 1.584.218 2.939 1.196 4.5.986 1.18-.158 1.721.201 2.299.69-.34-.275 2.162 1.368 2.375.962.09-.151 2.627-.286 2.653-.643h.002m9.075-.708c-1.012-.587-1.124-1.747-1.666-2.606-.412-.656-.965-1.186-1.624-1.5-2.948-1.41-6.387-3.86-8.579-3.674-.692.062-.972.751-.577 1.106.755.673 2.085.903 2.199 2.007 2.936 1.353 8.1 2.26 7.855 5.215-.018.286 1.892-.61 2.39-.55l.003.002" fill="#FFF"/><path d="M155.546 167.237l18.495-.029a24 24 0 0 0-1.611 3.746l-16.88-.02v-3.696l-.004-.001" fill="#FFB612"/></g></svg>