<svg width="512" height="512" viewBox="0 0 512 512" xmlns="http://www.w3.org/2000/svg"><title>central</title><defs><linearGradient x1="83.174%" y1="89.727%" x2="16.883%" y2="1.729%" id="a"><stop stop-color="#939BA0" offset="0%"/><stop stop-color="#98A0A4" offset="1.2%"/><stop stop-color="#C1C5C7" offset="11.8%"/><stop stop-color="#DADCDD" offset="20.2%"/><stop stop-color="#E3E4E5" offset="25.3%"/><stop stop-color="#E3E4E5" offset="75.3%"/><stop stop-color="#DBDDDE" offset="80.1%"/><stop stop-color="#C5C9CB" offset="87.5%"/><stop stop-color="#A2A9AD" offset="96.6%"/><stop stop-color="#939BA0" offset="100%"/></linearGradient><linearGradient x1="-9.732%" y1="50.001%" x2="118.559%" y2="50.001%" id="b"><stop stop-color="#FFF" offset="11.2%"/><stop stop-color="#DCDEE0" offset="23.7%"/><stop stop-color="#A7AEB2" offset="44%"/><stop stop-color="#939BA0" offset="53.9%"/></linearGradient><linearGradient x1="50.003%" y1="100%" x2="50.003%" y2="0%" id="c"><stop stop-color="#FFF" offset="0%"/><stop stop-color="#FFF" offset="34.8%"/><stop stop-color="#939BA0" offset="56.2%"/><stop stop-color="#939BA0" offset="100%"/></linearGradient><linearGradient x1="-.001%" y1="50%" y2="50%" id="d"><stop stop-color="#FFF" offset="15.2%"/><stop stop-color="#FAFAFA" offset="21.2%"/><stop stop-color="#EBECED" offset="28.6%"/><stop stop-color="#D2D5D7" offset="36.7%"/><stop stop-color="#AFB5B8" offset="45.3%"/><stop stop-color="#939BA0" offset="51.1%"/></linearGradient><linearGradient x1=".002%" y1="50%" y2="50%" id="e"><stop stop-color="#FFF" offset="24.7%"/><stop stop-color="#FAFAFA" offset="33.7%"/><stop stop-color="#EBECED" offset="44.8%"/><stop stop-color="#D2D5D7" offset="57%"/><stop stop-color="#AFB5B9" offset="69.9%"/><stop stop-color="#939BA0" offset="78.6%"/></linearGradient><linearGradient x1="0%" y1="50.001%" y2="50.001%" id="f"><stop stop-color="#FFF" offset="19.7%"/><stop stop-color="#FAFBFB" offset="32.7%"/><stop stop-color="#EDEEEF" offset="47.3%"/><stop stop-color="#D7DADC" offset="62.6%"/><stop stop-color="#B8BDC0" offset="78.3%"/><stop stop-color="#939BA0" offset="93.3%"/></linearGradient><linearGradient x1="0%" y1="50%" y2="50%" id="g"><stop stop-color="#FFF" offset="24.7%"/><stop stop-color="#FAFAFA" offset="33.7%"/><stop stop-color="#EBECED" offset="44.8%"/><stop stop-color="#D2D5D7" offset="57%"/><stop stop-color="#AFB5B8" offset="69.9%"/><stop stop-color="#939BA0" offset="78.6%"/></linearGradient><linearGradient x1="0%" y1="50%" y2="50%" id="h"><stop stop-color="#FFF" offset="38.8%"/><stop stop-color="#FAFAFA" offset="46.7%"/><stop stop-color="#EBECED" offset="56.6%"/><stop stop-color="#D2D5D7" offset="67.3%"/><stop stop-color="#AFB5B8" offset="78.8%"/><stop stop-color="#939BA0" offset="86.5%"/></linearGradient></defs><g fill="none"><path d="M397.662 350.829v6.674h-1.67v-6.674h-1.931v-1.658h5.532v1.658h-1.931zm9.043 6.674v-4.918l-1.405 3.064h-1.475l-1.405-3.064v4.918h-1.668v-8.332h1.668l2.143 4.45 2.142-4.45h1.668v8.332h-1.668z" fill="#582C83"/><path d="M417.072 182.101c-10.784-3.711-27.896-12.335-27.903-19.674V98.663H123.843l-.008 167.106c-.006 7.333-17.118 15.96-27.906 19.675l-5.682 1.956 5.683 1.956c10.787 3.713 27.9 12.34 27.905 19.68l.008 48.864 132.922 78.227 132.404-78.25V205.694c.007-7.333 17.118-15.962 27.903-19.68l5.681-1.957-5.681-1.955z" fill="#FFF"/><path d="M387.1 162.427v-61.695H125.912v165.039h-.008c-.008 11.552-29.301 21.629-29.301 21.629s29.293 10.082 29.301 21.636h.008v47.68l130.85 77.01L387.1 356.698V205.691c.01-11.55 29.298-21.634 29.298-21.634s-29.287-10.078-29.298-21.63z" fill="#582C83"/><path d="M136.593 111.48l-.017 152.619c0 15.098-12.342 23.3-21.587 23.3 9.245 0 21.588 8.24 21.588 21.554l.016 40.218 6.922-5.362V119.488h225.988l6.927-8.008H136.593z" fill="#FFF"/><path d="M376.43 162.507v-51.023l-6.927 8.004v224.321l-112.766 66.65-113.222-66.649-6.922 5.365 120.161 70.722 119.676-70.726V207.365c0-15.098 12.346-23.308 21.587-23.308-9.241 0-21.587-8.233-21.587-21.55z" fill="#BDBEBD"/><path d="M259.26 336.1l14.389-4.861v-22.772l-13.309 4.493-1.08 23.14zm20.836-16.96l6.614-2.234v50.436l13.393-4.521v-63.288l-20.007 6.755v12.852zm26.452-8.93l21.965-7.421-24.804 58.813 15.587-5.265 30.741-73.67-43.49 14.69v12.852zm-152.986-6.572v36.788l207.822-70.188v-36.79l-207.822 70.19zm43.008 12.725l-7.346-2.855-7.35 7.821 2.808-9.59-7.35-2.853 9.082-3.067 2.811-9.584 2.807 7.686 9.075-3.064-7.348 7.818 2.81 7.688zm47.577-16.069l-7.35-2.859-7.343 7.82 2.805-9.582-7.345-2.859 9.08-3.065 2.803-9.586 2.807 7.69 9.086-3.065-7.345 7.815 2.802 7.69v.001zm47.577-16.068l-7.345-2.857-7.345 7.82 2.803-9.584-7.345-2.859 9.08-3.069 2.807-9.583 2.807 7.69 9.08-3.068-7.35 7.82 2.808 7.69zm47.583-16.074l-7.35-2.853-7.35 7.815 2.812-9.58-7.345-2.854 9.078-3.07 2.805-9.583 2.807 7.686 9.083-3.065-7.345 7.82 2.805 7.684zM157.333 227.65v29.418c0 14.562 9.918 24.733 24.118 24.733 3.486 0 7.095-.622 10.725-1.848l22.124-7.474v-18.004l-24.422 8.25c-1.609.542-3.186.818-4.687.818-5.527 0-9.1-3.666-9.1-9.342v-31.618c0-4.18 3.73-9.104 7.98-10.54l30.229-10.211v-18.003l-32.527 10.987c-13.476 4.551-24.44 19.281-24.44 32.835zm66.01 41.776l55.81-18.851V232.57L242.1 245.086V219.66l32.422-10.952v-18.004l-32.421 10.952v-9.213l37.053-12.515v-18.004l-55.812 18.85v88.652zm83.611-75.85l25.003 39.166 16.682-5.636v-88.65l-18.758 6.336v47.61l-25.003-39.164-16.682 5.632v88.65l18.758-6.334v-47.61z" fill="#D0D3D4"/><path d="M234.401 163.038a3.388 3.388 0 1 0 0 6.773 3.387 3.387 0 0 0 0-6.773zm0 6.047a2.658 2.658 0 0 1-1.881-4.541 2.657 2.657 0 0 1 1.881-.777 2.657 2.657 0 0 1 1.881 4.54 2.658 2.658 0 0 1-1.88.778zm1.391-3.445a1.148 1.148 0 0 0-1.149-1.148h-1.631v3.867h.725v-1.57h.52l.733 1.569h.802l-.764-1.637a1.15 1.15 0 0 0 .764-1.081zm-1.149.423h-.906v-.847h.906a.424.424 0 0 1 0 .847zm-74.682-54.31c0 10.496-5.352 12.884-5.352 24.54 0 16.793 12.985 27.78 25.052 30.884 6.096 1.485 7.937 1.586 13.443 2.94.451.483 5.617 6.047 5.617 6.047s5.166-5.564 5.617-6.047c5.504-1.355 7.346-1.455 13.443-2.94 12.065-3.104 25.052-14.091 25.052-30.885 0-11.655-5.354-14.043-5.354-24.538 0-3.79.801-7.53 2.381-11.116l3.421-7.763-8.061-2.376c-2.458-.727-4.266-2.631-5.373-5.658l-3.563-9.747-7.945 6.577c-2.105 1.745-4.239 2.63-6.343 2.63-2.814 0-6.016-1.369-8.157-3.488l-5.118-5.063-5.118 5.063c-2.142 2.12-5.344 3.487-8.156 3.487-2.106 0-4.24-.884-6.346-2.629l-7.946-6.577-3.56 9.747c-1.105 3.027-2.914 4.931-5.374 5.658l-8.06 2.376 3.42 7.763c1.58 3.585 2.38 7.326 2.38 11.116z" fill="#010101"/><path d="M234.847 91.763c-2.881-.85-4.981-3.028-6.239-6.47l-2.919-7.992-6.507 5.387c-2.141 1.774-4.588 2.932-7.185 2.932-3.485 0-6.931-1.74-9.085-3.87l-4.19-4.145-4.192 4.146c-2.154 2.13-5.6 3.87-9.082 3.87-2.6 0-5.048-1.16-7.187-2.933l-6.507-5.387-2.92 7.992c-1.259 3.442-3.357 5.621-6.238 6.47l-6.622 1.953 2.814 6.39c1.418 3.22 2.492 7.176 2.492 11.648 0 10.915-5.352 13.083-5.352 24.538 0 3.494.594 6.762 1.66 9.767 3.608 10.186 12.638 17.33 22.403 19.842 6.248 1.579 9.16 1.735 13.819 3.037.607.639 4.911 5.29 4.911 5.29s4.304-4.651 4.912-5.29c4.658-1.302 7.568-1.458 13.82-3.037 12.642-3.254 24.061-14.271 24.061-29.609 0-5.52-1.245-8.885-2.531-12.11-1.385-3.467-2.823-6.772-2.823-12.428 0-4.472 1.075-8.429 2.493-11.647l2.815-6.39-6.62-1.955h-.001z" fill="#FFF"/><path d="M164.12 114.922c-.88 8.7-5.186 12.189-5.186 21.37 0 11.266 7.72 23.09 21.806 26.652 6.692 1.693 11.314 2.124 14.714 3.349.436.41 3.267 3.479 3.267 3.479s2.828-3.07 3.265-3.48c3.402-1.224 8.023-1.655 14.715-3.348 14.087-3.562 21.805-15.386 21.805-26.652 0-10.226-5.344-13.387-5.344-24.559 0-8.709 4.157-16.066 4.157-16.066s-10.217-.891-12.986-13.31c0 0-6.127 6.31-12.337 6.31-8.007 0-13.275-6.806-13.275-6.806s-5.267 6.806-13.274 6.806c-6.213 0-12.34-6.31-12.34-6.31-2.768 12.419-12.986 13.31-12.986 13.31s4.159 7.357 4.159 16.066c0 1.065-.053 2.13-.16 3.19v-.001z" fill="#010101"/><path d="M27.711 84.988c7.45 1.89 12.32 2.106 15.593 3.684 0 0 1.189 1.09 1.639 1.59.45-.5 1.64-1.59 1.64-1.59 3.27-1.578 8.14-1.793 15.59-3.684 9.407-2.388 19.55-10.674 19.55-23.696 0-9.313-5.345-12.732-5.345-24.559 0-7.97 3.015-14.114 3.015-14.114S72.439 21.214 69.2 12.413c0 0-4.615 4.306-10.982 4.306-7.978 0-13.275-5.6-13.275-5.6s-5.299 5.601-13.274 5.601c-6.368 0-10.984-4.306-10.984-4.306-3.239 8.8-10.193 10.205-10.193 10.205s3.015 6.144 3.015 14.114c0 11.827-5.346 15.246-5.346 24.56 0 13.021 10.146 21.308 19.55 23.695z" fill="url(#a)" transform="translate(153.778 75)"/><path d="M181.662 156.497c.223.064.446.124.67.181 5.898 1.502 13.116 2.275 15.296 3.516.491.36 1.093 1 1.093 1s.6-.64 1.092-1c2.18-1.24 9.397-2.014 15.297-3.516 8.176-2.079 16.98-9.34 16.98-20.386 0-5.505-2.415-9.128-4-14.66l-46.428 34.865zm-15.695-24.954l48.771-36.625c-.907.143-1.824.215-2.743.216-5.959 0-10.612-2.602-13.274-4.557-2.662 1.955-7.317 4.557-13.274 4.557-3.932 0-7.28-1.332-9.64-2.652-2.198 3.665-4.953 5.796-7.148 7 .942 2.825 2.04 7.193 2.04 12.251 0 9.735-3.326 14.299-4.732 19.81zm11.374 23.235l49.814-37.406a36.978 36.978 0 0 1-.412-5.639c0-5.058 1.095-9.425 2.04-12.251-1.882-1.03-4.173-2.742-6.17-5.514l-57.248 42.991c.273 8.455 5.735 14.614 11.976 17.819z" fill="#010101"/><path d="M186.626 136.994l-5.348-8.19-5.94 4.46s2.08.057 2.08 2.236v15.426l4.193-3.149v-10.906l4.777 7.316 4.428-3.324V121.64l-4.19 3.145v12.208zm16.994-17.864l-4.73 3.55v-7.105l-6.383 4.795s2.078.059 2.078 2.239v15.423l4.306-3.234v-7.028l4.729-3.55v7.03l4.098-3.078v-19.224l-4.098 3.081v7.102zm11.98-1.785V103.03l-6.385 4.796s2.078.057 2.078 2.235v15.427l11.889-8.93c-.256-3.075 0-4.904 0-4.904l-7.581 5.692z" fill="#D1D3D3"/><path d="M158.934 136.292c0-9.181 4.305-12.67 5.187-21.37-1.21 7.622-6.262 13.87-6.262 21.37 0 2.883.398 5.512 1.117 7.9 3.175 10.56 12.617 16.435 21.764 18.752-14.087-3.562-21.806-15.386-21.806-26.652zm77.816-12.039c-1.712-4.154-3.588-7.907-3.588-12.52 0 11.172 5.344 14.333 5.344 24.56 0 11.265-7.718 23.089-21.805 26.65 12.705-3.21 22.804-12.515 22.804-26.65 0-4.792-1.32-8.557-2.755-12.04z" fill="#FFF"/><path d="M234.847 91.763c-2.881-.85-4.981-3.028-6.239-6.47l-2.919-7.992-1.355 5.055c2.769 12.42 12.986 13.311 12.986 13.311l4.148-1.95-6.62-1.955h-.001z" fill="#D1D3D3"/><path d="M7.502 36.754c0 10.915-5.353 13.083-5.353 24.538 0 3.494.594 6.762 1.66 9.767a6.321 6.321 0 0 1 1.389-1.867c-.719-2.388-1.117-5.017-1.117-7.9 0-7.5 5.051-13.749 6.262-21.37.1-.991.159-2.046.159-3.189 0-8.709-4.158-16.066-4.158-16.066l-4.148-1.95 2.813 6.39c1.418 3.218 2.493 7.175 2.493 11.647z" fill="url(#b)" transform="translate(153.778 75)"/><path d="M79.384 36.733c0 4.613 1.876 8.366 3.588 12.52l2.232-.072c-1.385-3.466-2.822-6.771-2.822-12.427 0-4.472 1.075-8.429 2.493-11.647l2.815-6.39-4.149 1.95s-4.157 7.357-4.157 16.066z" fill="url(#c)" transform="translate(153.778 75)"/><path d="M41.676 91.293c-3.4-1.225-8.021-1.656-14.714-3.349-9.146-2.318-18.589-8.193-21.764-18.752A6.32 6.32 0 0 0 3.81 71.06c3.607 10.186 12.638 17.33 22.403 19.842 6.248 1.579 9.16 1.735 13.818 3.037.607.639 4.912 5.29 4.912 5.29v-4.456s-2.83-3.07-3.267-3.479z" fill="url(#d)" transform="translate(153.778 75)"/><path d="M31.67 13.667c8.006 0 13.273-6.806 13.273-6.806V2.605l-4.191 4.146c-2.154 2.13-5.6 3.87-9.083 3.87-2.6 0-5.047-1.16-7.186-2.933l-6.508-5.387 1.355 5.055s6.127 6.31 12.34 6.31z" fill="url(#e)" transform="translate(153.778 75)"/><path d="M85.727 61.292c0 14.136-10.1 23.44-22.804 26.652-6.692 1.693-11.313 2.124-14.715 3.349-.437.41-3.265 3.479-3.265 3.479v4.456s4.304-4.652 4.911-5.29c4.659-1.302 7.568-1.458 13.821-3.037 12.641-3.254 24.06-14.271 24.06-29.61 0-5.52-1.245-8.884-2.531-12.11l-2.232.072c1.434 3.483 2.755 7.248 2.755 12.039z" fill="url(#f)" transform="translate(153.778 75)"/><path d="M58.218 13.667c6.21 0 12.337-6.31 12.337-6.31L71.91 2.3l-6.508 5.387c-2.14 1.774-4.588 2.932-7.185 2.932-3.484 0-6.93-1.74-9.085-3.87l-4.19-4.145V6.86s5.269 6.806 13.274 6.806h.001z" fill="url(#g)" transform="translate(153.778 75)"/><path d="M19.33 7.356l-1.355-5.055-2.92 7.992c-1.258 3.442-3.357 5.621-6.237 6.47l-6.623 1.953 4.148 1.951s10.218-.891 12.987-13.31z" fill="url(#h)" transform="translate(153.778 75)"/></g></svg>