<svg width="512" height="512" viewBox="0 0 512 512" xmlns="http://www.w3.org/2000/svg"><title>new-york-rangers</title><g fill="none" fill-rule="evenodd"><path d="M341.118 91.203l-12.383 12.04-12.341-12.04H195.627l-12.362 12.04-12.384-12.04H84.58l25.8 45.795v222.481c0 4.494 0 39.432 42.226 39.432h66.757c23.973 0 35.647 21.908 35.647 21.908h1.935s11.674-21.909 35.647-21.909h66.8c42.205 0 42.205-34.937 42.205-39.43V136.996l25.779-45.795h-86.259z" fill="#0038A8"/><g fill="#FFF"><path d="M399.491 136.417l24.274-43.086H342l-13.266 12.9-13.222-12.9H196.488l-13.222 12.9-13.244-12.9H88.257l24.295 43.086v223.041c0 11.201 3.913 37.26 40.055 37.26h66.757c21.436 0 33.347 16.49 36.615 21.693 3.268-5.203 15.179-21.694 36.614-21.694h66.8c36.164 0 40.055-26.058 40.055-37.259V136.417h.043zm2.559 254.667a8.256 8.256 0 1 0 .042 16.512 8.256 8.256 0 0 0-.042-16.512zm0 14.728a6.482 6.482 0 1 1 0-12.964 6.482 6.482 0 0 1 0 12.964z"/><path d="M405.447 397.427a2.795 2.795 0 0 0-2.774-2.795h-3.999v9.417h1.763v-3.827h1.268l1.807 3.827h1.935l-1.85-3.999a2.752 2.752 0 0 0 1.85-2.623zm-2.774 1.032h-2.236v-2.064h2.236c.538 0 1.01.452 1.01 1.032 0 .58-.451 1.032-1.01 1.032z"/></g><path d="M345.999 103.2l-17.265 16.77-17.221-16.77H200.509l-17.243 16.77L166 103.2h-60.91l17.287 30.68v225.6c0 12.512 5.246 27.412 30.229 27.412h66.757c16.964 0 29.068 9.524 36.615 17.135 7.568-7.61 19.65-17.135 36.614-17.135h66.8c24.94 0 30.187-14.9 30.187-27.413V133.86l17.307-30.681h-60.888v.021z" fill="#0038A8"/><path fill="#CE1126" d="M233.081 201.82l149.145 108.037V201.82z"/><path d="M129.795 186.62h252.431v6.084H129.795v-6.084zm0 172.838c0 17.737 12.169 20.038 22.833 20.038h66.758c15.2 0 27.498 7.977 36.614 15.308 9.137-7.331 21.414-15.308 36.614-15.308h24.188l-187.007-135.45v115.412zm0-127.968L334.11 379.496h8.685l-213-154.284v6.278zm77.293-29.67l175.139 126.871v-6.277L215.773 201.82h-8.686zm72.218 120.25l14.77 10.707 4.3-5.934-8.75-6.322 6.987-9.632 8.73 6.343 4.321-5.956-8.729-6.32 6.966-9.633 8.686 6.343 4.343-5.934-14.792-10.707-26.832 37.044zm-73.981-110.08l-13.653-9.89-26.853 37.066 6.041 4.386 12.019-16.598 3.375 2.45-5.676 21.157 6.042 4.386 5.74-21.436a9.051 9.051 0 0 0 10.793-3.074l4.193-5.805a9.03 9.03 0 0 0-2.021-12.642zm119.54 143.082l5.762-21.457a9.03 9.03 0 0 0 10.793-3.075l4.192-5.783a9.073 9.073 0 0 0-2.021-12.663l-13.695-9.89-26.832 37.044 6.041 4.386 12.019-16.577 3.354 2.43-5.676 21.199 6.063 4.386zm-76.927-112.187l-26.811 37.044 6.02 4.365 16.125-22.231-6.385 29.305 6.063 4.364 26.832-37.066-6.063-4.365-16.125 22.231L254 247.25l-6.063-4.364zm-57.233 15.029l6.041 4.364 7.611-6.127 10.084 7.288-3.44 9.18 6.041 4.365 16.684-44.397-6.063-4.365-36.958 29.692zm99.781 15.759l-5.031-3.677a9.073 9.073 0 0 0-12.685 2.022l-16.211 22.381a9.051 9.051 0 0 0 2.042 12.663l5.053 3.677a9.417 9.417 0 0 0 4.236 1.656l-.13 1.333 3.225 2.321 14.362-19.823-11.803-8.513-3.655 5.052 5.719 4.128-4.537 6.3a3.117 3.117 0 0 1-4.364.688l-2.601-1.871a3.117 3.117 0 0 1-.667-4.365l14.577-20.124a3.117 3.117 0 0 1 4.365-.688l2.558 1.871a3.11 3.11 0 0 1 .71 4.364l-3.57 4.924 6.042 4.364 4.365-6.02a9.052 9.052 0 0 0-2-12.663zm75.615 54.76a12.341 12.341 0 0 0-17.264 2.774c-7.267 10.04 6.751 22.21 2.946 27.477a5.526 5.526 0 0 1-8.945-6.472l1.72-2.386-6.041-4.386-1.634 2.3a12.9 12.9 0 0 0 2.903 18.125c5.805 4.214 13.889 2.924 18.103-2.903 7.224-9.933-6.794-22.123-2.903-27.476a4.837 4.837 0 0 1 6.794-1.097 4.88 4.88 0 0 1 1.14 6.858l-1.462 2 6.041 4.364 1.376-1.892c4.005-5.54 2.763-13.277-2.773-17.286zM187.157 171.677h-10.772v-11.89h10.772v-7.31h-10.772V140.61h10.772v-7.353h-18.254v45.752h18.254v-7.331zm135.987-13.137h4.15l7.804 20.468h7.482l-7.933-20.726a9.073 9.073 0 0 0 6.966-8.815v-7.138a9.073 9.073 0 0 0-9.073-9.073h-16.878v45.752h7.482V158.54zm-183.524-6.987l12.019 27.455h7.46v-45.752h-7.46v27.477l-12.018-27.477h-7.461v45.752h7.46v-27.455zm154.306 27.455h6.257a9.073 9.073 0 0 0 9.073-9.051v-27.628a9.073 9.073 0 0 0-9.073-9.073h-6.257a9.073 9.073 0 0 0-9.073 9.073v27.628c0 4.988 4.064 9.051 9.073 9.051zm64.371-18.941l3.354-5.375 10.707 24.316h7.482l-13.825-31.325 8.988-14.427h-7.461l-9.245 14.835v-14.835h-7.482v45.752h7.482v-18.941zm-94.858 18.941h7.46v-18.941l9.869-26.81h-7.46l-6.128 16.662-6.149-16.663h-7.439l9.847 26.811v18.941zm-52.783 0l3.892-23.972 3.934 23.972h8.923l7.482-45.752h-7.482l-4.472 27.37-4.45-27.37h-7.827l-4.472 27.37-4.472-27.37h-7.46l7.46 45.752h8.944z" fill="#FFF"/><path d="M295.431 171.677h3.182a3.143 3.143 0 0 0 3.139-3.139v-24.811a3.139 3.139 0 0 0-3.139-3.139h-3.182a3.118 3.118 0 0 0-3.117 3.139v24.811a3.124 3.124 0 0 0 3.117 3.139zm-78.711 85.678l5.998-15.932-13.287 10.664 7.289 5.268zm-16.921-40.313l-6.385-4.622-6.235 8.578 6.385 4.644a3.16 3.16 0 0 0 4.386-.71l2.537-3.504a3.16 3.16 0 0 0-.688-4.386zm134.354-68.993v-4.322a3.139 3.139 0 0 0-3.14-3.139h-7.847v10.6h7.848a3.139 3.139 0 0 0 3.139-3.14zm2.042 177.009l2.516-3.526a3.139 3.139 0 0 0-.667-4.364l-6.364-4.623-6.256 8.579 6.385 4.622a3.16 3.16 0 0 0 4.386-.688z" fill="#0038A8"/></g></svg>