<svg width="512" height="512" viewBox="0 0 512 512" xmlns="http://www.w3.org/2000/svg"><title>pittsburgh-penguins</title><g fill="none" fill-rule="evenodd"><path d="M397.585 146.554h-21.143a18.71 18.71 0 0 0-4.43-6.982c-6.15-6.15-14.417-7.14-19.204-2.353a10.047 10.047 0 0 0-2.274 3.58 22.586 22.586 0 0 0-5.32-2.809c-2.967-6.23-7.16-15.07-16.594-15.07a19.58 19.58 0 0 0-8.741 2.235c-6.982-5.518-22.032-15.822-37.42-15.822-16.87 0-40.246 15.466-47.11 15.466-4.983 0-16.197-24.722-33.581-24.722-9.355 0-18.829 6.328-30.102 13.152-10.759 6.447-13.626 14.24-16.732 22.467-1.068 2.67-5.755 7.575-9.018 10.858H91.923l91.946 159.9h-62.952l-20.054 36.095h92.36c3.165 0 6.686-1.088 9.83-2.75l41.691 72.545 40.603-70.586h33.8V321.96h-2.274c-.02-6.882-5.241-14.378-7.832-17.68l-.495-2.868 7.773-13.508 45.191-16.673c7.358-2.71 10.74-9.295 12.342-14.418 0 0 4.984-.04 9.513-5.26 3.184.81 7.238 1.66 10.383 1.66 6.843 0 14.022-3.895 15.881-11.193 0 0 7.239-4.45 10.443-18.136l-56.267-18.61 33.78-58.72z" fill="#FFF"/><path d="M353.758 215.815l7.06 2.333-.04 4.55c-3.757-.14-6.783-.851-6.783 10.145 0 8.208 1.562 10.858 1.562 13.172 0 3.936-.336 4.885-12.677 4.885 0 0-1.938-2.354-8.682-4.964l-.416-1.78 52.272-90.917h-15.841c1.186-2.255.02-5.993-2.908-8.94-3.362-3.342-7.733-4.39-9.77-2.353-.93.93-1.226 2.333-.95 3.916l-6.486 6.823c.158-1.029.514-6.448-9.691-9.375-3.066-6.091-5.656-13.706-11.768-13.706-5.003 0-9.335 3.798-9.335 3.798s-18.67-17.385-36.825-17.385c-15.783 0-37.518 15.466-47.11 15.466-10.206 0-19.244-24.722-33.583-24.722-7.733 0-16.83 6.19-26.64 12.183-9.81 5.953-11.63 13.251-14.022 19.224-1.582 3.956-6.606 9.276-12.46 15.05h-45.192L195.3 312.903c-.657.138-1.326.21-1.997.218h-68.43l-12.638 22.744h81.028a16.277 16.277 0 0 0 10.502-4.608l1.286-1.385 39.733 69.103 36.726-63.862h30.972v-6.447h-7.436l-1.306-4.134h1.128l5.36-2.491c0-6.19-7.457-14.893-7.457-14.893l-1.226-6.942 10.185-17.68L359.196 265c8.406-3.105 9.355-15.367 9.355-15.367s7.733 3.64 11.966-5.795c0 0 8.583 2.75 13.23 2.75 4.035 0 9.692-2.176 9.692-8.248 0 0 6.21-3.738 8.267-10.126l-55.911-18.531-2.037 6.13z" fill="#000"/><g fill="#FCB514"><path d="M282.895 275.266c0-.97-14.537-4.826-20.252-7.021-5.261 2.057 1.542 3.105 1.542 9.888 0 4.015-1.977 8.722-1.977 8.722l-2.888.831s-5.795 10.68-9.493 9.098c-5.32 9.354-7.476 11.49-15.921 11.49a13.172 13.172 0 0 1-7.18-2.096l-18.392 20.054 36.41 63.348 31.347-54.487h-22.546c0-5.815 3.698-10.581 3.698-10.581 0-9.256 5.696-11.194 9.949-11.59 8.979-.791 12.657-.02 12.657-4.41 0-3.105-.277-6.784-.277-6.784h3.323c0-12.084-3.402-15.05-3.402-21.201 0-2.374 3.402-3.363 3.402-5.261zm14.437 22.902l7.041-12.282-7.871 3.857.83 8.425zm23.635-124.658l-1.662-3.718c-8.563 1.444-16.217-2.887-18.413-4.034-2.175-1.108.218-5.894.218-5.894s-.593-1.028-1.958-1.978h-8.94c-1.68 1.503-2.076 3.837-.711 5.261 9.493 9.85 17.127 20.43 23.199 30.616l9.928-10.423-1.661-9.83zm-40.703 154.324l1.919-3.322h-3.145l1.226 3.322zm78.26-169.928l-1.266 1.424c5.202 6.15 3.046 12.42 3.046 12.42 0 4.747-2.512 4.668-2.512 4.668 0 11.055-5.795 9.097-5.795 9.097 0 14.537-16.02 8.663-16.02 8.663a21.162 21.162 0 0 1-6.565-1.918l-10.858 12.103c7.04 13.686 11.233 25.85 13.508 33.424l45.923-79.881h-19.46zM214.643 281.061c-2.927-7.08-1.642-8.683-1.642-8.683s-9.414-7.733-6.625-17.364c0 0-24.247-35.145-24.247-55.99 0-10.78 5.22-9.731 5.22-18.552 0-7.238-4.944-12.638-8.504-12.638-4.074 0-16.77 8.386-35.362 19.343l7.021-16.139-16.93 17.385s-3.302-16.97 5.815-26.087l4.51-4.43h-32.356l88.286 153.533a14.794 14.794 0 0 0 4.134-2.77l13.923-14.041a38.724 38.724 0 0 1-3.243-13.567z"/><path d="M266.737 328.645h3.065l1.325-4.133h-6.724z"/></g><g transform="translate(97.778 117.778)" fill="#FFF"><path d="M189.805 206.734l-2.393 4.134h9.75l1.167-4.134h-8.524zm106.68-95.308l-2.433 3.363 6.23 2.056-.87-4.43-2.927-.989zm-23.852-7.89l-2.294 3.381 16.059 5.34-.099-4.213-13.666-4.509z"/><ellipse transform="rotate(-103.455 300.168 114.097)" cx="292.356" cy="107.927" rx="2.077" ry="3.718"/><ellipse transform="rotate(142.064 156.457 198.144)" cx="150.287" cy="190.332" rx="3.718" ry="2.077"/><path d="M108.183 192.89a20.173 20.173 0 0 1-12.677 5.3h-.416l-7.733 17.088h8.109a13.449 13.449 0 0 0 8.405-3.718l22.507-24.544-5.122-7.298-13.073 13.172zm-88.94 22.388H30.28l9.494-17.088H28.737l-9.493 17.088zm181.36-8.544l-1.8 6.31h-17.542l-2.314-6.31h-3.323l-1.997 6.31h-5.934l-3.58-6.31h-1.898a18.769 18.769 0 0 0-4.074 8.406h54.368v-2.077h-6.863l-2.037-6.309h-3.006v-.02zm64.554-101.518l3.006.99 3.6-5.262 16.652 5.518.198 6.507 3.283 1.088 3.758-5.202 5.617 1.86 1.364 6.902 2.314.771a19.718 19.718 0 0 0 6.072-6.645l-51.64-17.088-.652 1.998 6.507 2.155-.08 6.408zM156.38 137.513l47.268-49.661c-17.286-23.99-42.482-45.607-65.246-45.607-20.292 0-33.998 14.932-33.998 30.734 0 28.46 25.573 50.59 51.976 64.534zm13.152 6.27c15.94 6.862 30.635 10.501 38.348 10.501 7.12 0 16.87-1.977 16.87-17.424 0-10.126-5.478-24.385-14.279-38.783l-40.94 45.705zM41.593 48.296c-3.304 3.718-3.72 14.477-3.72 14.477l26.898-23.16L53.993 59.45s18.195-8.267 19.856-12.4c0 0-3.738-9.098-12.005-17.385 0 0-16.93 14.912-20.252 18.63zm37.003-31.031c0-2.927 4.133-5.874 4.647-7.278 0 0-2.67-3.62-6.447-1.8-.574 8.247-2.69 12.163-3.62 17.167 3.086 2.551 2.058-3.877 6.488-3.877 1.483 0 3.639 1.84 3.639 3.956 0 2.472-1.345 3.777-1.345 3.777l3.105-.257s1.325-1.325 1.325-3.975c.02-6.012-7.792-6.131-7.792-7.713zm149.181 49.147l-76.024 79.9c-2.77 2.888 4.529 7.952 7.1 5.005l72.8-81.246c2.67-2.987-1.067-6.468-3.876-3.66zm-94.852 86.329s1.127-4.154-2.117-4.154c-6.645 0-13.013 5.499-13.013 8.327 0 1.463.593 2.749.593 2.749s8.663-8.327 14.537-6.922zm13.013-.178c0-2.888-2.512-3.363-5.24-3.363-2.73 0-4.154 1.84-4.154 2.987 0 2.986 3.046 6.25 4.39 6.25.752.02 5.004-2.334 5.004-5.874zm4.134.989c-1.681 0-2.63 2.017-2.63 5.478 0 1.147 1.423 2.017 2.254 2.017.554 0 1.84-1.266 1.84-5.182 0-1.206-.416-2.313-1.464-2.313zm6.13 3.362c-2.887 0-1.839 6.427-1.839 8.563 0 2.097-.81 3.185-.81 3.185.593 1.068.514 4.054 2.452 4.054 1.107 0 2.71-1.661 2.71-5.815 0-6.25.098-9.987-2.512-9.987zm4.985 1.661l-.416 3.817 2.591.415.673-2.195c-.712-.395-1.326-2.452-2.848-2.037zm-40.782 5.973c1.424 16.395 11.274 23.377 11.274 23.377l1.938-1.009s-4.945-9.394-10.364-26.838l-2.848 4.47zm6.804-6.645c4.311 17.641 9.592 27.945 11.807 28.519 0 0 1.503-2.552 1.503-17.78 0 0-3.777-16-13.31-10.74zm17.127 6.645c.791 18.057-2.096 17.74-2.096 20.51 0 4.489 7.673-1.247 7.673-12.639-.02-13.468-5.577-7.871-5.577-7.871zm-31.683-27.985c-5.103 7.06 3.263 14.417 3.263 14.417s3.065.218 4.766-1.483c0 0-2.63-9.632-8.03-12.934zm12.222 6.526c0-1.028-1.444-.91-1.444-8.405 0-5.953-6.704-3.718-6.704-.554 0 3.164 5.439 7.06 5.439 9.375 0 0 2.71 1.008 2.71-.416zm5.32-3.916c0-11.945-4.094-9.888-4.094-5.597 0 4.786 2.69 6.982 4.094 5.597zm3.936-8.722c-1.483 3.283-.415 8.149-.415 11.51 0 3.482 2.314 3.363 3.401 2.77-1.325-2.65 2.275-11.768-2.986-14.28zm5.32 1.78c-.692 4.253.653 11.827.653 11.827s2.749 1.167 3.698-.277c-.217-1.503-.217-4.885-.217-6.882 0-5.103-4.134-4.668-4.134-4.668zm7.595 3.936c-1.048 6.606 1.226 10.087 1.226 10.087.83-.475 1.444-.159 1.444-5.756 0-5.577-2.67-4.33-2.67-4.33zM247.219 37.4c4.707-2.393-.218-8.563-3.58-6.645-13.983 9.078-15.466 22.962-15.466 22.962s1.246 2.037 4.608 1.483c0 0 7.476-14.398 14.438-17.8zm-10.917 17.919s.336 1.661 2.432 1.661c3.975 0 12.045-8.564 12.045-15.525 0-1.424-2.116-1.484-2.116-1.484-7.377 4.767-12.361 15.348-12.361 15.348zm18.452-16.594c5.004 0 8.94-5.181 8.94-6.27 0-1.087-1.108-1.838-3.066-1.838-1.958 0-7.16 5.616-7.16 7.199-.02.336.238.91 1.286.91zm-28.025 25.058s1.444-1.068 3.837-.93c-1.503-4.765-4.193-3.599-4.193-3.599-1.068 1.602.356 4.53.356 4.53zm18.967 12.46c1.74-7.535-5.973-15.367-5.973-15.367-5.439-.415-5.597 1.503-5.597 1.503s3.876 13.864 11.57 13.864zm-1.919-17.78s1.82 11.689 7.08 11.689c.495-1.8-1.64-11.689-7.08-11.689zm4.648-4.074s3.026 8.682 6.25 8.682c0 0 1.226-5.775-4.233-10.442-1.7 0-2.017 1.76-2.017 1.76zm11.886 2.275c0-4.213-6.744-11.65-6.744-11.65l-1.621 3.244 6.506 9.77c0 .02 1.86.93 1.86-1.364zm-5.24-14.359l6.11 10.72s-.158-6.112-4.766-11.67c0 0-1.345-.157-1.345.95zm-35.481 7.18s-7.615-4.016-13.607-5.716l-.416 1.226c.02.02 3.323 5.023 14.023 4.49zm3.54-1.76c.554.236 2.254-1.524 1.088-2.295-1.405-.91-12.085-6.823-15.348-7.753-1.82 1.86-.81 2.987-.81 2.987l15.07 7.06zm2.57-4.886c.851.455 2.236-2.294 1.346-2.887a114.967 114.967 0 0 0-16.376-9.494c-1.464 1.958-.989 3.699-.989 3.699l16.02 8.682zm4.115-6.368c0-2.75-12.005-12.005-13.884-12.005-1.88 0-2.73 2.314-2.73 2.314l15.23 10.877c.494.356 1.384-.87 1.384-1.186zm3.915-3.56l-11.154-12.777c-1.483-1.68-4.054 1.504-4.054 1.504l12.618 12.36c1.167 1.128 3.204-.494 2.59-1.087zm2.987-4.767l-9.375-12.756a2.842 2.842 0 0 0-2.867 2.037l10.205 10.858c1.305 1.384 2.037-.139 2.037-.139zm.138-6.783l-2.947-6.33c-.296-.612-2.353-.513-2.353.693-.02.91 2.136 5.637 5.3 5.637zm-53.28 244.173a6.25 6.25 0 1 0-12.5 0 6.25 6.25 0 0 0 12.5 0zm-11.175 0a4.915 4.915 0 1 1 9.83 0 4.915 4.915 0 0 1-9.83 0z"/><path d="M179.896 269.112l-1.404-3.026a2.156 2.156 0 0 0 1.404-2.017 2.096 2.096 0 0 0-2.136-2.096h-3.006v7.14h1.345v-2.908h.969l1.345 2.907h1.483zm-2.156-4.252h-1.66v-1.542h1.66c.43 0 .78.342.791.771a.771.771 0 0 1-.79.771z"/></g></g></svg>