<svg width="512" height="512" viewBox="0 0 512 512" xmlns="http://www.w3.org/2000/svg"><title>san-jose-sharks</title><g fill="none" fill-rule="evenodd"><path d="M448.838 204.241l-5.978 10.671 1.004 6.188a1142.096 1142.096 0 0 1-39.344 69.98c-2.405-5.44-5.558-8.64-11.699-11.932 0 0 28.114-51.02 35.726-91.485-21.272 10.53-43.548 20.945-43.548 20.945l38.107-61.668s-73.272 16.042-131.25 21.832c-62.485-92.069-119.295-108.32-119.295-108.32s39.368 64.446 46.653 109.488a1160.495 1160.495 0 0 1-144.676-22.976L143.91 259.23c-40.582 2.382-108.88 4.577-108.88 4.577 17.395 17.419 73.412 39.485 147.478 57.791l13.216 21.412c-43.548 32.83-69.816 78.06-69.816 78.06l4.39 8.078s21.621-1.307 48.147-2.241c0 0 7.215-23.327 36.893-52.164l33.507 54.172 42.007-67.925 4.553-.514 2.522 1.518c-.677.677-1.168 2.031-2.172 3.619 3.48 2.382 3.573 2.755 3.76 6.982 0 0 4.623 1.634 10.367-.257l1.588-2.872 1.938.887c.28 2.031.817 4.273.817 4.273 5.347 2.498 9.854-.84 9.854-.84 14.243 2.942 23.91 1.284 27.11.49 14.103 3.876 23.256 1.26 27.015-.397 6.492 2.685 13.193 4.413 31.826 4.413 8.593 0 17.746-.537 17.746-6.958 0-8.99-8.592-42.007-17.302-60.267 0 0 6.398 4.507 12.165 5.651l7.963-5.767c-3.62-4.273-2.942-5.488-2.429-8.803-2.848-2.405-6.818-2.966-6.818-2.966 7.776-8.966 24.074-29.818 43.524-67.178 4.11-.63 9.34-3.012 9.994-9.48.677-7.005 1.098-10.04 1.098-16.718-12.306-5.628-27.133-1.565-27.133-1.565z" fill="#FFF"/><path d="M400.62 162.771l-35.165 56.204c3.83-1.798 7.892-3.643 11.932-5.487l37.547-60.734s-63.84 13.964-122.004 19.848l4.11 6.538c39.905-4.203 81.538-11.932 103.58-16.369z" fill="#000"/><path d="M406.248 311.277c-4.857-20.197-5.628-23.863-16.392-29.304l-1.751-2.288c19.777-35.422 34.067-77.686 34.067-82.73 0-1.237-.537-1.587-1.307-1.213-31.453 15.948-65.987 30.168-73.646 35.515l-2.032 2.825a436.785 436.785 0 0 0-37.056-29.63C272.966 135.428 219.027 86.93 184.259 69.557c0 7.215 34.395 60.173 39.672 104.678-62.228-4.25-141.15-21.482-141.15-21.482l67.97 109.955c-55.852 3.433-104.817 4.6-104.817 4.6 0 3.877 62.32 33.671 154.343 54.5 20.151 4.553 35.119 3.829 44.926 3.829a462.803 462.803 0 0 0-5.488-5.884c13.333 8.125 25.522 16.228 36.473 23.536l-9.06.047c-22.135 0-38.854-1.167-49.432-1.961l-9.62-15.225a229.81 229.81 0 0 1-10.04-2.031c-4.203-.934-8.22-1.915-10.975-2.569l13.917 22.487c-13.03 9.34-46.373 37.663-70.54 77.148l2.1 3.9s23.35-1.448 43.082-2.009c0 0 8.85-25.241 40.512-54.475l32.667 52.864 39.648-64.142c2.545-.28 5.16-.56 7.799-.888 2.732 1.705 5.394 3.34 7.939 4.787a9.013 9.013 0 0 0-3.41 3.41s2.289 1.564 2.43 4.646c0 0 1.96.327 4.015-.28 0 0 1.401-2.125 2.592-4.67a85.989 85.989 0 0 0 7.332 3.409c-.023 2.218.374 3.853.374 3.853s2.498.77 5.557-1.939c17.56 4.017 28.067.608 28.067.608 17.839 5.277 26.899-.63 26.899-.63 6.981 3.058 12.819 4.786 31.943 4.786 10.39 0 13.823-1.261 13.823-3.012.093-8.383-8.733-42.544-17.56-60.127z" fill="#000"/><path d="M411.385 305.066l.653 2.335s5.698 3.9 9.854 5.067l3.292-2.405s-1.89-2.428-1.284-6c-4.343-2.78-12.515 1.003-12.515 1.003zm40.068-97.416l-4.483 7.986.98 6.094c-20.08 39.508-42.426 75.257-42.426 75.257l2.755 6.702 3.27-2.265 2.24.187s21.413-20.478 48.685-73.343c0 0 7.916.257 8.523-6.117.654-6.468 1.098-10.975 1.098-13.567-9.854-3.572-20.642-.934-20.642-.934z" fill="#000"/><g fill="#FFF"><path d="M304.909 339.998c-7.169 2.312-10.228.677-10.228.677 1.401-1.424 2.312-4.156 2.312-4.156-6.328 1.751-8.313 0-8.313 0 1.028-.607 2.055-3.036 2.055-3.036-8.242 0-12.749 1.355-12.749 1.355 6.842.864 11.301 3.876 15.108 7.752 5.347-.397 8.639-.864 10.95-1.261l.865-1.331zm26.549 24.004c4.856-2.872 8.382-5.604 8.382-5.604-15.971.7-21.972-1.238-21.972-1.238 2.849-2.848 6.398-5.324 8.663-7.565-1.705.28-3.48.467-5.207.584-.024.77-.888 1.657-3.316 3.152a738.88 738.88 0 0 1-14.103 2.078 47.399 47.399 0 0 0 4.273 4.063c1.074-.374 2.241-.7 3.455-1.12a10.741 10.741 0 0 1-.63 3.221c1.891 1.308 4.04 2.475 6.445 3.456a12.212 12.212 0 0 1 1.657-4.67c.818.234 1.261 2.569 1.705 3.246 1.19 1.728 2.732 2.008 3.035 3.432 6.702 1.541 15.178 1.962 26.41.537l3.105-2.498c-16.392.303-21.902-1.074-21.902-1.074z"/><path d="M291.015 335.818s3.48.234 7.496-1.214c0 0 .233 2.685-1.611 5.114 0 0 3.409-.024 10.39-1.635 0 0-.583 1.425-1.447 2.966 1.06-.226 2.138-.35 3.222-.374 2.265 0 2.522.49 4.483.49 3.713 0 4.18.771 4.717 5.114.77 1.098 1.611 1.845 2.241 2.499 2.756-.234 5.931-.514 9.13-.981 0 0-3.549 4.927-8.92 8.57 0 0 14.875 1.4 22.58.443 0 0-3.316 4.04-7.916 6.375 0 0 10.274.653 21.319.467 0 0-2.172 2.405-4.343 4.156 0 0 13.636 3.059 23.35.747-35.049-13.94-54.312-35.025-83.617-35.025a11.658 11.658 0 0 1-1.074 2.288zm-141.29 63.092l-7.846 10.087s23.163-3.596 37.056-1.494l3.853-6.608c-7.589-3.946-33.063-1.985-33.063-1.985z"/><path d="M153.32 394.38l-2.428 3.059s23.934-1.821 32.62 2.218l5.674-8.523c-7.729-1.284-35.866 3.246-35.866 3.246zm4.133-5.067l-2.755 3.386s28.65-4.46 35.422-2.825l.49-.678c-7.098-2.335-33.157.117-33.157.117zm9.644-11.091l-8.313 9.527s23.187-2.429 32.737.28l9.62-11.138c-9.76-1.611-34.044 1.33-34.044 1.33zm12.469-12.516l-11.021 10.928s20.314-2.755 33.717-1.004l5.254-5.814c-5.02-4.273-27.95-4.11-27.95-4.11z"/><path d="M181.667 363.792l-.583.513s19.824-.327 27.412 4.437l1.145-1.214c-6.141-3.48-27.974-3.736-27.974-3.736zm10.951-9.48l-9.456 8.149s22.042.397 27.46 4.04l8.125-8.01c-7.145-4.086-26.129-4.18-26.129-4.18zm-12.655 54.055l.28 2.008 3.199-5.534-.35-1.938-3.13 5.464zm4.226-7.215l.304 1.914 5.323-7.775-.373-2.172-5.254 8.033zm6.375-9.62l.35 2.311.537-.677-.467-2.242-.42.607zm1.517-2.055l.49 2.335 9.014-10.181-.374-2.779-9.13 10.625zm10.321-11.932l.374 2.802 5.487-5.838-.7-2.685-5.16 5.72zm6.235-6.888l.7 2.685 1.074-1.098-.373-3.105-1.401 1.518zm2.591-2.78l.374 3.13 7.192-7.029-.094-3.666-7.472 7.566zm68.93 45.837a7.705 7.705 0 1 0-15.411 0 7.705 7.705 0 0 0 15.41 0zm-13.777 0a6.071 6.071 0 1 1 12.142 0 6.071 6.071 0 0 1-12.142 0z"/><path d="M275.604 418.127l-1.728-3.713a2.615 2.615 0 0 0-.863-5.067h-3.736v8.803h1.657v-3.595h1.191l1.658 3.572h1.821zm-2.591-5.23h-2.079v-1.938h2.079c.513 0 .957.467.957.98a.977.977 0 0 1-.957.958z"/></g><g fill="#EA7200"><path d="M304.628 367.668c2.709-3.643 4.53-5.978 4.997-7.426-2.405 1.028-5.464 1.588-7.121 4.133 0-.023 1.19 1.168 2.124 3.293zm13.917 2.498s1.798-.233 3.41-1.798c0 0-1.705-2.592-2.686-5.02-1.191 3.035-.724 6.818-.724 6.818zm-8.336-63.955c1.448 11.488 4.203 16.368 4.203 16.368s4.343 3.409 12.586 6.771c-8.336-15.41-16.789-23.14-16.789-23.14zm-90.341 51.323l3.316-1.868s13.66 2.218 95.408-6.235c-1.962-1.424-2.919-1.144-2.919-4.39 0-1.05.163-1.237-1.588-1.237-1.798 0-2.545-.49-4.646-.49-2.639 0-6.515 2.638-46.584 2.638-31.872 0-54.195-2.662-55.69-2.662-1.447 0-4.343 2.709-12.865 9.574 0 .047 16.788-.164 25.568 4.67zm-41.633 51.206c-12.306-2.358-37.664 1.892-37.664 1.892l-6.818 9.807 39.695-1.868 4.787-9.83zM451.36 220.33c-13.263 23.84-27.74 55.455-43.501 74.976l4.553-2.849.98-.98-.817 2.685 1.915-.934-2.895 5.137 2.685-2.195s13.52-15.177 47.704-76.915c-7.589-1.144-10.624 1.074-10.624 1.074zm1.377-9.27l-2.755 4.39s6.678-1.262 15.598-.515l3.222-4.53c-9.807-1.868-16.065.654-16.065.654z"/><path d="M410.59 295.773s-1.26 1.027-3.222 1.565l1.658 3.525 1.028-.794-.42-1.284 1.727-3.269-.77.257zm11.863 9.153c-2.802-1.447-8.22.677-8.22.677s5.488 1.308 8.593 2.709c.023.023-.514-1.26-.373-3.386zm-146.825 53.659c-2.359.21-4.624.42-6.865.583-17.536 1.425-31.36 1.822-38.621 1.962-3.596.07-5.604.07-5.604.07l-.56.49-1.565 1.378 26.432 42.193 29.351-46.887c-.864.047-1.704.14-2.568.21zm86.371-137.999l3.456-1.611 35.165-56.204c-22.019 4.414-63.675 12.166-103.58 16.369l1.167 1.961c.91 1.471 1.775 2.966 2.662 4.483a1187.768 1187.768 0 0 0 85.625-13.122l-32.877 52.14c2.498-1.214 5.324-2.592 8.382-4.016zM208.076 326.128a229.81 229.81 0 0 1-10.04-2.031l10.414 16.625 2.475.163 6.748.49-9.597-15.247z"/></g><path d="M268.763 359.168c-17.536 1.425-31.36 1.822-38.621 1.962-3.596.07-5.604.07-5.604.07l-.56.49 24.867 39.742 26.783-42.847c-2.335.21-4.624.42-6.865.583zm-57.815-18.283l6.748.49-9.62-15.224a229.81 229.81 0 0 1-7.238-1.424l10.11 16.158zm175.546-168.423l-32.877 52.14c2.475-1.237 5.324-2.592 8.359-4.04l34.301-54.802c-21.692 4.25-60.5 11.302-98.07 15.341.91 1.471 1.775 2.966 2.662 4.483a1160.262 1160.262 0 0 0 85.625-13.122zM224.63 185.117c0-2.428-.093-4.88-.35-7.378-21.365 2.265-34.138 7.308-38.994 9.62 7.472-2.101 20.804-2.732 39.344-2.242zm162.493 98.607s-26.012-36.519-76.028-73.342c4.25 8.78 8.22 17.863 11.769 27.25.49 1.307.42 2.451-.677 2.451-10.975 0-49.642-21.272-87.633-17.465 19.73 18.796 39.368 45.158 20.338 35.515 0 0 19.847 12.259 43.174 36.87 17.372 0 20.852 2.918 21.879 5.347 1.961 4.67 4.833 13.029 16.228 26.432 5.23 0 6.188-.35 8.103-5.02 0 0 1.424 5.977-1.214 10.367 23.723 18.75 69.77 37.594 76.798 37.594 2.848 0-2.99-25.779-16.322-56.764-4.39-19.544-6.771-25.055-16.415-29.235zm-216.151-22.322s6.795 4.016 17.933 12.399c-2.732-4.74-9.947-9.9-17.863-14.687l-17.302 1.284 1.284 2.055 15.948-1.051zm102.063 30.378a70.914 70.914 0 0 0 .14 26.736c-.467-4.95 3.41-21.575 3.41-21.575l-3.55-5.16zm-8.686-8.5a78.176 78.176 0 0 0 1.12 30.613c-.817-6.258 2.429-24.681 2.429-24.681l-3.55-5.931zm-8.616-7.705c-2.802 18.19 1.564 32.714 1.564 32.714-.84-8.266 1.985-27.553 1.985-27.553l-3.55-5.16zm-19.614-29.981s-33.438-27.693-74.977-34.651c-1.495 0-4.484 6.304-4.484 6.304s4.39-3.97 5.721-3.97c35.539 6.865 73.74 32.317 73.74 32.317z" fill="#006D75"/><path d="M248.845 390.76l19.941-31.592c-17.536 1.425-31.359 1.822-38.62 1.962l18.68 29.63z" fill="#FFF"/></g></svg>