<svg width="512" height="512" viewBox="0 0 512 512" xmlns="http://www.w3.org/2000/svg"><title>toronto-maple-leafs</title><g fill="none" fill-rule="evenodd"><path d="M255.418 270.049h3.517c1.29 0 2.331-1.04 2.331-2.331v-15.984c0-1.29-1.04-2.34-2.33-2.352h-3.518a2.352 2.352 0 0 0-2.331 2.352v15.984a2.29 2.29 0 0 0 2.33 2.33zm7.7 26.411h-4.766v8.95h4.766a1.665 1.665 0 0 0 1.645-1.645v-5.66c0-.909-.737-1.645-1.645-1.645zm-29.637 11.76h5.058l-2.54-11.24-2.518 11.24zm-5.577-44.831l4.87-.79a2.29 2.29 0 0 0 1.52-.937c.37-.495.52-1.12.415-1.728l-1.061-6.597a2.393 2.393 0 0 0-2.685-1.957c-1.627.25-3.25.521-4.87.812l-.395.062 1.81 11.218.396-.083zm27.972 68.93l-2.872 11.24h5.723l-2.851-11.24zm82.584-62.749l-3.122-1.602a2.352 2.352 0 0 0-3.164 1.02l-7.326 14.194a2.29 2.29 0 0 0-.145 1.769 2.31 2.31 0 0 0 1.165 1.373l3.122 1.603a2.29 2.29 0 0 0 3.143-.978l7.326-14.194a2.393 2.393 0 0 0-1-3.185z" fill="#FFF"/><path d="M403.436 220.994c.167-.27.021-.645-.27-.75a60.481 60.481 0 0 0-12.82-3.413.5.5 0 0 1-.375-.728c3.454-6.951 5.702-14.923 7.367-23.56.063-.374-.27-.707-.624-.603a144.106 144.106 0 0 0-24.122 9.22.479.479 0 0 1-.687-.333c-1.082-4.808-2.393-10.22-5.036-14.902-.146-.27-.5-.333-.75-.167a130.057 130.057 0 0 0-20.958 18.773.52.52 0 0 1-.811-.083 23.227 23.227 0 0 0-6.327-6.868c-.209-.146-.52-.125-.687.083-10.074 12.467-22.748 26.598-39.107 38.316-.333.25-.812-.083-.687-.479 3.705-12.154 9.303-23.726 14.756-34.361a.5.5 0 0 0-.333-.708 54.258 54.258 0 0 0-8.262-.978.479.479 0 0 1-.375-.77 127.747 127.747 0 0 0 15.505-33.841.479.479 0 0 0-.478-.625 69.098 69.098 0 0 0-18.482 3.56c-.354.124-.687-.167-.624-.542 1.686-9.657.895-20.5-.937-30.532-.062-.312-.374-.5-.666-.374a84.166 84.166 0 0 0-12.966 6.43.5.5 0 0 1-.75-.457 93.99 93.99 0 0 0-2.31-27.202.479.479 0 0 0-.624-.333 57.089 57.089 0 0 0-9.76 4.828.5.5 0 0 1-.73-.27c-3.121-9.158-8.137-18.045-13.548-26.89-.208-.333-.687-.333-.874 0-5.411 8.845-10.427 17.732-13.55 26.89a.5.5 0 0 1-.728.27 57.089 57.089 0 0 0-9.76-4.828c-.271-.083-.563.062-.625.333a93.323 93.323 0 0 0-2.31 27.202.5.5 0 0 1-.75.458 82.313 82.313 0 0 0-12.966-6.431.52.52 0 0 0-.666.374c-1.831 10.032-2.622 20.875-.936 30.532.062.375-.27.666-.625.541a69.93 69.93 0 0 0-18.481-3.559.479.479 0 0 0-.479.625c3.351 11.176 8.617 23.622 15.506 33.84.208.313 0 .75-.375.77a54.903 54.903 0 0 0-8.263.98.5.5 0 0 0-.333.707c5.453 10.656 11.052 22.248 14.777 34.424.125.395-.333.707-.645.478-14.486-10.135-28.41-24.996-39.148-38.378a.5.5 0 0 0-.687-.083c-2.706 1.935-4.745 4.266-6.327 6.868a.52.52 0 0 1-.812.083 130.057 130.057 0 0 0-20.958-18.773.5.5 0 0 0-.75.167c-2.663 4.703-3.954 10.115-5.036 14.902-.062.312-.395.457-.687.333a142.753 142.753 0 0 0-24.121-9.22.5.5 0 0 0-.625.603c1.665 8.637 3.913 16.63 7.368 23.56a.52.52 0 0 1-.375.728 60.148 60.148 0 0 0-12.82 3.414c-.292.104-.437.478-.27.749 5.202 8.95 11.217 16.338 18.127 22.103a.5.5 0 0 1-.063.811 40.335 40.335 0 0 0-7.638 5.89.52.52 0 0 0 0 .75 183.675 183.675 0 0 0 28.68 23.06c.291.187.312.624.042.853-3.83 2.956-7.202 6.036-10.074 9.49-.187.209-.145.542.063.73 7.513 6.66 16.13 12.05 26.12 16.129.374.145.436.645.103.895-3.558 2.664-6.451 5.62-9.095 8.824a.52.52 0 0 0 .167.791c7.139 3.663 15.817 6.036 24.788 7.66a.396.396 0 0 1 .041.77 166.979 166.979 0 0 0-32.113 13.756.52.52 0 0 0-.063.874c7.41 5.495 14.943 10.282 23.726 13.716a.515.515 0 0 1 .146.874 162.254 162.254 0 0 0-30.386 33.28.52.52 0 0 0 .5.81 249.292 249.292 0 0 0 33.424-6.16c.416-.104.77.312.562.687a129.87 129.87 0 0 0-5.723 13.34c-.125.355.166.75.54.709 11.031-1.187 21.042-2.602 29.055-4.413a.5.5 0 0 1 .52.77 66.059 66.059 0 0 0-7.7 16.858.52.52 0 0 0 .603.666c19.335-3.683 36.922-9.22 52.531-16.712.416-.208.895.083.937.562.936 13.861 6.202 23.497 13.382 31.24a.708.708 0 0 0 .999.041l10.094-9.324a.75.75 0 0 0 .063-1.061c-1.998-2.29-11.198-12.717-9.553-20.646a1.54 1.54 0 0 1 2.122-1.062c11.635 5.266 35.777 13.32 54.717 16.962a.52.52 0 0 0 .582-.645 66.62 66.62 0 0 0-7.721-16.879c-.25-.374.083-.874.52-.77 7.992 1.811 18.024 3.205 29.054 4.413a.52.52 0 0 0 .541-.708 131.868 131.868 0 0 0-5.723-13.34c-.187-.396.146-.813.562-.688 9.803 2.685 21.187 4.6 33.425 6.16.437.063.75-.436.5-.81a162.254 162.254 0 0 0-30.387-33.28.5.5 0 0 1 .146-.874c8.783-3.413 16.317-8.221 23.726-13.716a.52.52 0 0 0-.062-.874 166.23 166.23 0 0 0-32.114-13.757.395.395 0 0 1 .042-.77c8.99-1.623 17.649-3.996 24.787-7.659a.52.52 0 0 0 .167-.79 53.863 53.863 0 0 0-9.095-8.825.52.52 0 0 1 .104-.895c9.99-4.08 18.606-9.47 26.12-16.13a.541.541 0 0 0 .062-.728 65.56 65.56 0 0 0-10.073-9.49.52.52 0 0 1 .041-.854 184.877 184.877 0 0 0 28.68-23.06.52.52 0 0 0 0-.75 41.209 41.209 0 0 0-7.638-5.89.5.5 0 0 1-.063-.811c6.785-5.765 12.78-13.133 17.982-22.103zm-93.906 36.463a234.68 234.68 0 0 0-6.493-2.04l1.644-4.89a332.011 332.011 0 0 1 18.794 6.327l-1.645 4.89c-2.12-.79-4.25-1.553-6.389-2.289l-.395-.124-8.221 24.475a496.91 496.91 0 0 0-5.141-1.727l8.22-24.476-.374-.146zm-9.615 33.946h15.568v5.057H305.2v5.87h6.993v5.057H305.2v5.869h10.282v5.057h-15.568v-26.91zm-2.789 54.424h5.328v1.145a1.665 1.665 0 0 0 1.665 1.644h4.37c.912 0 1.654-.733 1.666-1.644v-1.686a1.81 1.81 0 0 0-.895-1.457l-9.574-4.266c-1.79-.916-2.58-2.748-2.58-4.746v-2.768c0-2.934 2.413-5.328 5.369-5.328h7.576c2.976 0 5.37 2.394 5.37 5.328v2.498h-5.329v-1.124a1.665 1.665 0 0 0-1.665-1.644h-4.37c-.912 0-1.654.733-1.665 1.644v.604c0 .603.437 1.207.895 1.456l9.573 4.267c1.79.916 2.581 2.747 2.581 4.745v3.85a5.37 5.37 0 0 1-5.37 5.329h-7.575a5.349 5.349 0 0 1-5.37-5.328v-2.519zm-8.908-80.794l2.976-17.545 5.328 1.02-5.161 30.553c-1.404-.29-2.813-.561-4.225-.812-1.977-5.87-3.975-11.8-5.994-17.649l-.52-1.52-2.976 17.546-5.37-.791 5.161-30.553c1.416.187 2.852.396 4.267.624l5.994 17.608.52 1.52zm-1.415 72.636v5.057h-8.242v10.948h-5.328V326.72h16.9v5.058h-11.572v5.869h8.242v.02zm-8.762-19.314v-26.952h5.286v21.874h9.74v5.057h-15.026v.02zm-51.844-126.81a90.326 90.326 0 0 0 28.367 27.097c.021.02.063.02.084-.02l.02-.063c-.104-8.367-.02-16.817.23-25.183a.916.916 0 0 0-.354-.729 55.361 55.361 0 0 1-15.464-18.273l.146-.083c4.329 6.639 9.72 12.362 15.588 16.525.063.041.188 0 .188-.104.104-3.06.208-5.578.333-7.992.437-6.993.77-14.257 1.02-21.583a1.082 1.082 0 0 0-.25-.707 103.521 103.521 0 0 1-12.488-18.315l.146-.084c3.725 5.807 7.93 11.197 12.508 16.026l.063.02c.041 0 .104-.04.104-.103.353-11.322.478-22.665.374-33.737h.167c.915 10.427 1.373 32.654 1.04 51.698l.042.104c.042.042.104.062.166.02 4.975-2.455 10.011-5.93 15.402-10.634l.104.124a63.208 63.208 0 0 1-15.506 12.405.5.5 0 0 0-.25.416l-.124 4.641a510.24 510.24 0 0 0-.021 38.899c0 .104.125.145.208.104 12.612-9.012 22.061-18.69 28.076-28.763l.146.083c-4.912 10.198-15.172 21.687-28.16 31.51a.416.416 0 0 0-.166.333l.27 7.264a.333.333 0 0 1-.062.187.27.27 0 0 1-.187.083l-2.747-.02c-.125 0-.23-.105-.25-.23a538.58 538.58 0 0 1-.292-10.822.291.291 0 0 0-.145-.25 87.683 87.683 0 0 1-28.513-29.803l.187-.042zm9.012 146.124v5.057h-8.242v5.87h11.572v5.057h-16.9V326.7h16.9v5.057h-11.572v5.87h8.242v.04zm-2.872-24.392l-1.145 5.057h-5.432l6.64-26.952h7.2l6.64 26.952h-5.433l-1.144-5.057h-7.326zm19.896 13.444h7.264l7.284 26.953h-5.494l-1.29-5.058h-8.284l-1.29 5.058h-5.495l7.305-26.953zm-4.745-57.234v-19.23c0-3.29 2.643-5.974 5.89-6.016l3.788-.02 3.788.02a5.973 5.973 0 0 1 5.869 6.015v19.231a5.723 5.723 0 0 1-5.87 5.744c-4.162-.041-7.034 0-7.658 0a5.723 5.723 0 0 1-5.807-5.744zm17.233 40.98h-6.348v7.867h-5.286v-26.952h11.634a5.325 5.325 0 0 1 5.328 5.328v8.429a5.328 5.328 0 0 1-5.328 5.328zm-32.738-64.477a6.036 6.036 0 0 1 6.764 4.995l1.582 9.823a5.723 5.723 0 0 1-3.434 6.182l-.458.187.291.416 5.765 8.2c-1.748.23-3.517.479-5.265.75l-5.849-8.263-.145-.208-.25.041-2.248.375-.395.062 1.477 9.179a488.28 488.28 0 0 0-5.328.978l-4.932-30.594c4.08-.77 8.262-1.499 12.425-2.123zm-17.358 102.626v5.058H198.85V326.72h5.328v21.874h10.448v.021zm-.978-30.261V305.93l-4.766 10.78-4.766-10.78v12.425h-5.266v-26.952h4.205l5.848 13.507 5.848-13.507h4.204v26.952h-5.307zm-52.26-77.048a.458.458 0 0 0-.312-.125h-.812c-7.93 0-15.09-2.019-21.895-6.181l.084-.146a42.395 42.395 0 0 0 20.958 4.475 170.472 170.472 0 0 0-4.121-3.996c-8.658-8.45-15.818-16.068-21.874-23.29l.125-.104c7.2 7.535 13.465 13.737 19.126 18.94l.084-.021a27.68 27.68 0 0 0-1.166-13.799l.146-.062c2.248 4.62 3.163 9.678 2.706 15.047a.66.66 0 0 0 .228.562c5.12 4.517 9.99 9.075 14.444 13.508l.021-.021a30.178 30.178 0 0 0-5.224-17.212l.125-.104c4.662 5.453 7.076 11.884 7.201 19.168a.8.8 0 0 0 .23.562l2.06 2.123c.041.042.062.125.062.187-.02.063-.062.125-.125.146l-1.873.895-.104.02c-.062 0-.146-.02-.187-.083a388.819 388.819 0 0 0-9.907-10.49zm25.37 51.698l-11.863-22.935-.354.187a272.932 272.932 0 0 0-5.973 3.247l-2.372-4.579a327.412 327.412 0 0 1 17.607-9.116l2.373 4.579a330.713 330.713 0 0 0-6.098 2.997l-.375.187 11.863 22.936-4.808 2.497zm9.387-38.066a415.638 415.638 0 0 1 7.18-2.435 5.87 5.87 0 0 1 1.79-.291c2.54 0 4.89 1.685 5.703 4.1l6.18 18.21a5.64 5.64 0 0 1-.29 4.392 5.848 5.848 0 0 1-3.435 2.935c-2.4.79-4.794 1.601-7.18 2.435a5.723 5.723 0 0 1-7.41-3.56l-6.18-18.21a5.994 5.994 0 0 1 3.642-7.576zm99.317 120.15c-3.205 0-6.181-.312-8.991-.79-.042 0-.083.041-.042.083 2.748 2.664 8.2 5.39 11.28 6.598l1.458.562-1.54-.25c-3.601-.604-11.156-4.184-15.256-7.742l-.167-.084c-6.722-1.54-12.487-3.58-18.231-3.58-7.472 0-12.925 1.707-15.63 9.158-.15-1.498-.01-3.01.416-4.454.02-.062 0-.104-.042-.146-1.457-.978-7.014-4.412-12.508-4.412-8.263 0-18.898 9.283-27.077 10.22 3.954-1.333 8.387-4.31 12.862-7.035.041-.021.02-.084-.02-.105-7.535-1.477-17.026.146-27.099 2.706 9.636-3.746 19.48-5.723 29.741-4.225l.146-.02c3.871-2.186 7.68-3.893 11.197-3.893 6.514 0 12.113 3.393 13.82 4.496.041.02.104.02.124-.02 2.602-3.81 7.95-5.37 13.591-5.37 8.929 0 22.686 6.618 33.633 6.618 12.009 0 15.443-1.082 19.043-1.852-3.35 1.415-8.74 3.538-20.708 3.538zm49.617-101.106l-8.824 17.087a5.703 5.703 0 0 1-7.847 2.414 294.994 294.994 0 0 0-6.743-3.476 5.661 5.661 0 0 1-2.58-7.784l8.824-17.087a6.098 6.098 0 0 1 5.37-3.267c.915 0 1.79.208 2.622.624a255.986 255.986 0 0 1 6.722 3.476 5.932 5.932 0 0 1 2.456 8.012zm4.412-31.365c.791.042 1.582.083 2.373.083 5.474 0 10.802-1.228 16.754-3.85l.083.146a39.96 39.96 0 0 1-20.937 5.702.895.895 0 0 0-.666.292 325.076 325.076 0 0 0-6.057 6.472c-.062.063-.124.104-.208.104l-.125-.041-1.914-.978a.166.166 0 0 1-.104-.146c-.021-.062 0-.125.062-.187 4.85-4.995 10.157-10.074 15.776-15.11a.728.728 0 0 0 .25-.604 38.15 38.15 0 0 1 1.956-16.192l.167.042a44.539 44.539 0 0 0-.458 14.901c0 .042.041.063.062.063l.042-.02a1008.576 1008.576 0 0 0 21.083-20.564l.125.104c-5.724 6.681-11.947 13.424-18.523 20.084a350.579 350.579 0 0 0-9.72 9.595l-.02.062c-.063 0-.042.021 0 .042z" fill="#FFF"/><path d="M205.593 278.853c.261-.001.521-.044.77-.125l3.309-1.124a2.352 2.352 0 0 0 1.353-1.166 2.373 2.373 0 0 0 .125-1.769l-5.141-15.13a2.373 2.373 0 0 0-2.227-1.603c-.248 0-.495.041-.729.125l-3.33 1.124a2.331 2.331 0 0 0-1.456 2.976l5.14 15.13a2.29 2.29 0 0 0 2.186 1.562z" fill="#FFF"/><path d="M254.564 221.43c.084.063.146.147.146.25.063 3.851.167 7.39.291 10.823 0 .125.105.23.25.23l2.748.02a.25.25 0 0 0 .187-.083c.041-.042.062-.125.062-.188l-.27-7.263c0-.131.061-.255.166-.333 12.987-9.844 23.269-21.333 28.16-31.51l-.146-.084c-6.036 10.074-15.485 19.751-28.076 28.763-.083.042-.208 0-.208-.104a510.24 510.24 0 0 1 .02-38.898l.125-4.642a.5.5 0 0 1 .25-.416c5.557-3.122 10.614-7.18 15.505-12.404l-.104-.125c-5.37 4.704-10.406 8.18-15.4 10.635-.063.021-.126.021-.167-.02a.167.167 0 0 1-.042-.105c.333-19.043-.104-41.27-1.04-51.698h-.167c.104 11.072-.042 22.415-.375 33.737 0 .063-.062.104-.104.104l-.062-.02a108.308 108.308 0 0 1-12.509-16.026l-.145.083c3.08 5.932 7.16 11.905 12.487 18.315.167.208.25.458.25.708-.25 7.326-.604 14.59-1.02 21.582a437.858 437.858 0 0 0-.333 7.992c0 .104-.125.146-.187.104-5.848-4.162-11.239-9.865-15.589-16.525l-.145.084c3.85 7.221 9.053 13.361 15.463 18.273a.895.895 0 0 1 .354.728 597.319 597.319 0 0 0-.229 25.183l-.02.063-.084.02a90.326 90.326 0 0 1-28.367-27.097l-.146.083a87.246 87.246 0 0 0 28.471 29.762zm-83.083 30.45l.104-.021 1.873-.895c.063-.02.104-.083.125-.146a.166.166 0 0 0-.062-.187l-2.06-2.123a.812.812 0 0 1-.23-.562 29.637 29.637 0 0 0-7.2-19.168l-.126.104c3.517 5.307 5.224 10.926 5.224 17.212l-.02.02a330.71 330.71 0 0 0-14.445-13.507.666.666 0 0 1-.228-.562 28.388 28.388 0 0 0-2.706-15.047l-.146.062c1.561 4.496 1.957 9.012 1.166 13.799l-.084.02a430.506 430.506 0 0 1-19.126-18.939l-.125.105c6.056 7.221 13.216 14.839 21.874 23.289 1.29 1.186 2.622 2.497 4.12 3.996a42.104 42.104 0 0 1-20.957-4.475l-.084.146c6.806 4.162 13.965 6.181 21.895 6.181h.812a.416.416 0 0 1 .312.125c2.872 2.934 6.119 6.369 9.907 10.49a.25.25 0 0 0 .187.083zm187.687-18.981a379.641 379.641 0 0 0 18.523-20.084l-.125-.105c-6.764 6.806-13.673 13.529-21.083 20.563l-.041.021c-.021 0-.063-.02-.063-.062a43.977 43.977 0 0 1 .458-14.902l-.166-.042a38.19 38.19 0 0 0-1.957 16.192.728.728 0 0 1-.25.604c-5.619 5.016-10.926 10.094-15.775 15.11-.042.041-.063.104-.063.187.02.063.042.125.104.146l1.915.978c.038.023.08.037.125.042a.25.25 0 0 0 .208-.104c1.79-1.957 3.767-4.08 6.056-6.473a.895.895 0 0 1 .666-.291 39.898 39.898 0 0 0 20.938-5.703l-.083-.146a40.605 40.605 0 0 1-19.127 3.767c-.042 0-.063-.041-.063-.041 0-.021-.02-.042.021-.063 3.268-3.288 6.535-6.535 9.782-9.594zm-95.654 133.907c-5.64 0-10.99 1.54-13.59 5.37-.022.041-.084.062-.126.02-1.706-1.102-7.305-4.495-13.82-4.495-3.516 0-7.325 1.707-11.196 3.892-.042.02-.104.042-.146.02-10.26-1.518-20.105.48-29.741 4.226 10.052-2.54 19.543-4.163 27.098-2.706.042 0 .062.063.02.104-4.474 2.727-8.907 5.703-12.861 7.035 8.158-.937 18.814-10.219 27.077-10.219 5.515 0 11.051 3.434 12.508 4.412.042.042.062.084.042.146a11.655 11.655 0 0 0-.417 4.454c2.685-7.451 8.138-9.158 15.63-9.158 5.745 0 11.51 2.04 18.232 3.58a.416.416 0 0 1 .167.083c4.1 3.58 11.655 7.139 15.255 7.743l1.54.25-1.456-.563c-3.08-1.207-8.554-3.933-11.28-6.597-.042-.042 0-.083.04-.083 2.81.478 5.787.79 8.992.79 11.967 0 17.357-2.143 20.73-3.517-3.601.77-7.015 1.852-19.044 1.852-10.948-.02-24.726-6.639-33.654-6.639zm-2.56-91.575c3.33 0 5.869-2.518 5.869-5.744v-19.23a6.015 6.015 0 0 0-5.87-6.016l-3.787-.02-3.788.02a6.015 6.015 0 0 0-5.89 6.015v19.231c0 3.226 2.54 5.744 5.807 5.744.624 0 3.517-.062 7.659 0zm-7.888-23.476c0-1.29 1.04-2.352 2.33-2.352h3.518c1.29 0 2.331 1.061 2.331 2.352v15.984c0 1.29-1.04 2.33-2.33 2.33h-3.518c-1.29 0-2.34-1.04-2.352-2.33v-15.984h.02zm-34.133 39.648h-4.204l-5.848 13.507-5.848-13.507h-4.184v26.952h5.266v-12.446l4.766 10.78 4.766-10.78v12.446h5.286v-26.952zm10.865-13.674l-1.478-9.179.395-.062 2.248-.375.25-.041.146.208 5.848 8.262c1.748-.27 3.517-.52 5.265-.749l-5.765-8.2-.291-.416.458-.188a5.744 5.744 0 0 0 3.434-6.18l-1.582-9.824a6.036 6.036 0 0 0-6.764-4.995 317.014 317.014 0 0 0-12.446 2.123l4.933 30.594 5.349-.978zm-3.726-25.558l4.87-.812a2.373 2.373 0 0 1 2.685 1.957l1.062 6.597a2.227 2.227 0 0 1-.417 1.728c-.368.494-.912.83-1.52.936l-4.87.791-.395.063-1.81-11.218.395-.042zm43.977 52.968v-8.43a5.328 5.328 0 0 0-5.328-5.327h-11.634v26.952h5.286v-7.867h6.348a5.328 5.328 0 0 0 5.328-5.328zm-5.286-1.374a1.665 1.665 0 0 1-1.645 1.644h-4.766v-8.949h4.766c.904.011 1.633.74 1.645 1.644v5.661zm-65.914 22.956v26.953h15.776v-5.058h-10.448v-21.895h-5.328zm143.773-60.772a293.618 293.618 0 0 0-6.722-3.476 5.661 5.661 0 0 0-2.623-.624 6.098 6.098 0 0 0-5.37 3.267l-8.824 17.087a5.723 5.723 0 0 0 2.58 7.784 294.995 294.995 0 0 1 6.744 3.476 5.87 5.87 0 0 0 2.768.687 5.682 5.682 0 0 0 5.078-3.101l8.825-17.087a5.952 5.952 0 0 0-2.456-8.013zm-3.163 6.806l-7.326 14.194a2.29 2.29 0 0 1-3.143.978l-3.122-1.603a2.31 2.31 0 0 1-1.165-1.373 2.29 2.29 0 0 1 .145-1.77l7.326-14.193a2.352 2.352 0 0 1 3.164-1.02l3.122 1.602a2.393 2.393 0 0 1 .999 3.185zm-135.365 11.863a6.452 6.452 0 0 0 1.977-.333 291.167 291.167 0 0 1 7.18-2.435 5.848 5.848 0 0 0 3.435-2.935 5.661 5.661 0 0 0 .291-4.391l-6.181-18.211a6.098 6.098 0 0 0-5.703-4.1 5.87 5.87 0 0 0-1.79.291c-2.404.78-4.797 1.592-7.18 2.435a6.015 6.015 0 0 0-3.642 7.576l6.181 18.21a5.723 5.723 0 0 0 5.432 3.893zm-4.391-25.454l3.33-1.124a2.331 2.331 0 0 1 2.955 1.478l5.14 15.13a2.184 2.184 0 0 1-.124 1.77 2.206 2.206 0 0 1-1.353 1.165l-3.31 1.124a2.331 2.331 0 0 1-2.975-1.457l-5.141-15.13a2.373 2.373 0 0 1 1.478-2.956zm-19.627 8.242a330.695 330.695 0 0 1 6.099-2.997l-2.373-4.579a327.412 327.412 0 0 0-17.607 9.116l2.372 4.579a272.932 272.932 0 0 1 5.973-3.247l.354-.187 11.863 22.935 4.808-2.498-11.863-22.935.374-.187zm97.382-22.145l-5.161 30.553c1.769.25 3.58.5 5.37.79l2.975-17.544.52 1.52 5.995 17.648 4.225.812 5.161-30.553-5.328-1.02-2.976 17.545-.52-1.54a3482.25 3482.25 0 0 0-5.994-17.607l-4.267-.604zm25.058 108.413h7.576a5.349 5.349 0 0 0 5.37-5.328v-3.85c0-1.999-.77-3.83-2.58-4.746l-9.575-4.267a1.77 1.77 0 0 1-.895-1.456v-.604a1.665 1.665 0 0 1 1.665-1.644h4.371c.911 0 1.654.733 1.665 1.644v1.124h5.328v-2.498a5.37 5.37 0 0 0-5.37-5.328h-7.575a5.349 5.349 0 0 0-5.37 5.328v2.768c0 1.998.77 3.83 2.58 4.746l9.574 4.266c.524.306.86.852.895 1.457v1.686a1.665 1.665 0 0 1-1.665 1.644h-4.37a1.665 1.665 0 0 1-1.665-1.644v-1.145h-5.328v2.519a5.328 5.328 0 0 0 5.37 5.328zm12.967-40.397H305.2v-5.87h6.993v-5.057H305.2v-5.89h10.282v-5.057h-15.568v26.952h15.568v-5.079zm-25.35 18.523v-5.079h-16.9v26.953h5.328v-10.927h8.242v-5.078h-8.242v-5.87h11.572zm16.712-48.015l8.221-24.475.396.125c2.123.728 4.266 1.498 6.39 2.289l1.643-4.891a332.011 332.011 0 0 0-18.793-6.327l-1.644 4.89a297.5 297.5 0 0 1 6.493 2.04l.395.125-8.22 24.476 5.12 1.748zm-55.132 64.831h8.304l1.29 5.058h5.495l-7.284-26.953h-7.264l-7.284 26.953h5.494l1.25-5.058zm4.163-16.296l2.85 11.218h-5.723l2.873-11.218zm-15.069-13.965h5.432l-6.639-26.952h-7.2l-6.64 26.952h5.432l1.145-5.058h7.326l1.144 5.058zm-7.326-10.136L236 297.001l2.518 11.218h-5.037zm59.607 5.058h-9.76v-21.874h-5.287v26.952h15.047v-5.078zm-54.57 18.523v-5.079h-16.9v26.953h16.9v-5.058h-11.55v-5.869h8.24v-5.078h-8.24v-5.87h11.55z" fill="#002868"/><path d="M326.659 400.294v5.494h-1.374v-5.494h-1.581v-1.374h4.558v1.374h-1.603zm7.45 5.473v-4.037l-1.165 2.518h-1.207l-1.165-2.518v4.037h-1.374v-6.847h1.374l1.769 3.663 1.769-3.663h1.373v6.847h-1.373z" fill="#FFF"/></g></svg>