<svg width="512" height="512" viewBox="0 0 512 512" xmlns="http://www.w3.org/2000/svg"><title>winnipeg-jets</title><g fill="none" fill-rule="evenodd"><path d="M445 256.5C445 360.623 360.646 445 256.524 445c-76.244.01-144.985-45.911-174.169-116.348-29.183-70.437-13.062-151.518 40.847-205.433C177.111 69.303 258.19 53.172 328.63 82.346 399.07 111.521 445 180.256 445 256.5" fill="#8E9090"/><path d="M432.347 256.5c0 97.111-78.724 175.835-175.835 175.835S80.677 353.611 80.677 256.5 159.4 80.665 256.512 80.665c97.11 0 175.835 78.724 175.835 175.835" fill="#041E41"/><path d="M273.536 127.99L256.5 85.13l-18.025 42.86c-64.377 8.756-112.385 63.729-112.393 128.699 0 71.747 58.694 129.923 130.442 129.923 71.724 0 129.405-58.176 129.405-129.924-.029-64.962-48.027-119.922-112.393-128.698" fill="#FFF"/><path d="M245.685 327.329l-.024.023 1.32 2.97-1.296-2.993zm-68.544-95.051l.095 12.747.023.118v-.118l-.117-12.747zm62.559-27.615l-2.64 30.089-49.127 23.444 49.128-23.444 2.663-30.09 1.743-8.2-1.767 8.2zm96.182 27.261l-10.485 26.272 10.485-26.201v-.07zm-22.832 55.56v-.023l-32.752 2.215 32.752-2.191z"/><path d="M270.001 187.957l-13.501 5.961-13.171-6.126-24.741-16.211 9.967 59-26.343-26.296-.73 20.735-38.525-14.538 14.02 38.973-20.759.118 21.041 18.331v22.432l7.823-3.888 14.585.966 14.114 12.323-8.317 10.344 13.878 2.262 50.66-124.386zM212.085 329.45v19.627l31.008-15.292 2.356-5.89 11.075 53.698 11.192-54.146 2.52 6.338 31.01 15.292V329.45L289.7 312.837l.165.236 18.213-2.946-8.294-10.344 14.138-12.323 14.35-.966 7.799 3.888v-22.29l21.23-18.52-20.76-.118 14.044-38.973-38.572 14.539-.707-20.735-26.319 26.295 9.967-59-24.953 16.376-57.916 141.493zm33.6-2.121l1.296 2.992-1.296-2.992z" fill="#7B303E"/><path d="M234.54 289.77l-32.045-2.144 13.548 11.828c-.212.59-7.351 9.402-7.351 9.402l15.857 2.568 9.99-14.35v-7.304zm8.388-100.164l-21.937-14.397.047.26 17.46 42.648 1.178-13.454 3.252-15.057zm-14.373 43.402l-.07-.047-24.647-24.6-.73 19.11-36.876-13.878 36.004 37.747 30.254-14.444-3.935-3.888zm19.98 100.848l7.989 40.457-.024-22.22-7.964-18.237zm-87.675-82.563l16.352 14.279v-14.374l-16.352.095zm131.526-75.942l-22.008 14.514 2.45 11.357 19.558-25.871zm55.207 38.218l-36.805 13.926-10.768 18.614 7.351 3.487 40.222-36.027z" fill="#AC162C"/><path fill="#55565A" d="M335.906 231.924l-10.51 26.272-49.104-23.444-2.662-30.09-17.106-78.203-16.8 78.204-2.663 30.089-49.128 23.445-10.791-25.92.117 12.748v45.334l7.8-3.911 49.528 3.322v7.328l-22.502 32.352v19.627l31.032-15.316 2.568-6.432 10.815 24.764 11.169-24.764 2.568 6.432 31.008 15.316V329.45l-22.478-32.352v-7.328l49.528-3.322 7.8 3.911v-45.334z"/><path fill="#8E9090" d="M243.07 205.134l-2.781 31.856h-.024l-1.531 18.05-3.228-15.788-49.34 23.563-5.514-13.313v35.367l3.7-1.861 53.628 3.581v11.57l-22.502 32.35v13.102l24.952-12.3 3.865-9.731-2.145-10.745 3.63 8.435 10.72 24.364V140.172z"/><g fill="#041E41"><path d="M401.339 411.046c5.355.02 9.711-4.305 9.731-9.66.02-5.355-4.306-9.712-9.66-9.731-5.356-.02-9.712 4.305-9.732 9.66-.02 5.355 4.306 9.712 9.66 9.731zm0-17.294a7.587 7.587 0 1 1 .094 15.174 7.587 7.587 0 0 1-.094-15.174z"/><path d="M399.454 402.399h1.484l2.097 4.477h2.333l-2.215-4.69a3.299 3.299 0 0 0-1.084-6.385h-4.689v11.075h2.097l-.023-4.477zm0-4.5h2.615c.636 0 1.178.542 1.178 1.201a1.178 1.178 0 0 1-1.178 1.225h-2.615V397.9z"/></g></g></svg>