<svg width="512" height="512" viewBox="0 0 512 512" xmlns="http://www.w3.org/2000/svg" xmlns:xlink="http://www.w3.org/1999/xlink"><title>cleveland-cavaliers</title><defs><path d="M4.9 81.9c.4-.8.7-1.6.8-2.5-.3.8-.5 1.7-.8 2.5m-.4 1.4C1 95.4-.5 108.2.3 121.4c1.2 19.8 7.3 38.2 17.1 53.9-5.5-23.3-5.8-51.1 4-75.1 6.1-15 16.7-28.3 20.9-44.3l.1-.5C29.3 62.5 16.6 71.7 4.5 83.3m46.6-32.1c-.9 3.9-2.2 8.1-3.6 13.1-3.9 13.5-16.5 31.6-20.9 44.9-8.1 24.9-5.8 62.1 6.2 85.8 22.3 22.7 53.9 36.1 88.2 34.1 5.2-.3 10.4-1 15.4-1.9-63.7-45.9-74-129.7-67-182.9-6.1 1.8-12.3 4.1-18.3 6.9M77.4 42c-6.5 52 4.8 136 68.6 182.8 23-6.6 43-20.2 57.5-38.2-9.5-29.3-43.4-63.8-70.9-90-25.1-22.7-35-42.1-36.4-57.8-6.2.7-12.5 1.7-18.8 3.2m27.9-3.7c1.7 14 11.6 31.9 35.8 53.8 27 25.7 59.1 57.1 69 85.6 13-19.8 20.1-43.9 18.6-69.4-.2-3.6-.6-7.2-1.1-10.7-31.2-37.8-74-59.3-118.2-59.3h-4.1M9.8 68.7C21 59.3 32.4 51.8 44 45.9c.6-6.8.1-14.3-3.8-18-13 11.1-23.4 25-30.4 40.8m36.8-45.9c4 7.7 5.5 13.6 5.5 19.2 6.2-2.7 12.4-4.9 18.7-6.7C73 23 76.2 12.8 79.7 5.9c-12 3.8-23.2 9.6-33.1 16.9m58.7 7.2c43.2-1.3 85 17.6 118 49.7-13.4-41.5-49.8-72.2-93.4-78.1-11.4 4.5-22.8 13.9-24.6 28.4M107.9.7c-6.7.4-13.1 1.3-19.4 2.8-4 6.3-7.5 16.7-9.8 29.8 5.9-1.3 11.8-2.2 17.7-2.8 1.6-13.8 10.2-24 19.8-30h-1.5c-2.3 0-4.5 0-6.8.2" id="a"/><path d="M15.7 88.4c-.1.9-.4 1.7-.8 2.5.3-.8.5-1.7.8-2.5m-5.4 42.1c-.8-13.2.8-26.1 4.2-38.1 12.1-11.6 24.8-20.8 37.8-27.8l-.1.5c-4.2 16-14.8 29.4-20.9 44.3-9.8 24-9.5 51.7-4 75.1-9.7-15.9-15.9-34.2-17-54M42.8 204c-12-23.7-14.3-61-6.2-85.8 4.3-13.3 17-31.4 20.9-44.9 1.4-5 2.7-9.2 3.6-13.1 6.1-2.8 12.2-5.1 18.4-7-7 53.2 3.3 137.1 67 182.9-5 1-10.1 1.6-15.4 1.9-2.2.1-4.4.2-6.6.2-31.8.1-60.8-13-81.7-34.2M87.4 51c6.3-1.5 12.6-2.5 18.9-3.2 1.4 15.6 11.3 35 36.4 57.8 27.5 26.1 61.4 60.7 70.9 90-14.5 18-34.5 31.6-57.5 38.2C92.2 187 80.9 103 87.4 51m63.7 50.1c-24.2-21.9-34.1-39.8-35.8-53.8 45.6-1.4 90.1 20.3 122.2 59.3.5 3.5.9 7.1 1.1 10.7 1.5 25.5-5.5 49.6-18.6 69.4-9.8-28.5-41.9-59.9-68.9-85.6M50.2 36.9c3.9 3.7 4.4 11.2 3.8 18-11.6 5.8-23 13.4-34.2 22.8 7-15.8 17.4-29.7 30.4-40.8m6.4-5.1c9.9-7.3 21.1-13.1 33.1-16.9-3.5 7-6.7 17.1-8.9 29.4-6.2 1.8-12.5 4-18.7 6.7 0-5.6-1.5-11.5-5.5-19.2m83.3-21.3c43.6 5.9 80 36.6 93.4 78.1-33-32.1-74.8-51-118-49.7 1.8-14.4 13.2-23.8 24.6-28.4m-41.4 2c6.3-1.5 12.7-2.4 19.4-2.8 2.8-.2 5.5-.2 8.3-.2-9.6 6-18.2 16.2-19.8 30-5.9.5-11.8 1.5-17.7 2.8 2.3-13.1 5.8-23.5 9.8-29.8M117.4.3C49.1 4.2-3 62.7.9 131c3.9 68.2 62.4 120.4 130.7 116.4C199.8 243.5 252 185 248 116.8 244.2 51 189.6.1 124.5.1c-2.3 0-4.7.1-7.1.2" id="c"/><path d="M27.9 3.5C20.1 7.9 9.3 19.2 9.3 19.2s-.7 1.7.9 4.4c.8 1.5 1.6 2.4 2.1 3.2.1-1.1.5-2.4 1.4-3.5 7.3-9.4 20.1-19.5 37-18.8-16.7 2.9-28 13.7-35.1 23.4-1.1 1.2-1.9 1.4-2.5 1-.2 2-1.5 4.5-3.2 4.8C8 34 .7 40 .7 40v3.6l.7 11.2s1.4 8 3.9 11.2c2.6 3.3 10 14 21.8 15.2 0 0 .9-28.6 4.4-37.1 3.6-8.5 8.4-18.4 16-22.5 7.7-4.1 19.4-8.2 25.5-11.4 6.1-3.2 8.9-6.8 8.9-6.8s-12.6-.5-22.8-2.2C54.7.5 49.8 0 45.1 0c-6.4 0-12.7.9-17.2 3.5" id="e"/><path d="M83.2 104.6c7.1-5.7 14.2-10.9 21.4-15.7l34.6 9.5c-.6.5-1.1 1.1-1.7 1.7-76.9 80.3-26.3 93.7 29.7 62.8 1.2-.6-7.9 7.9-7.9 7.9C97 231.9 29.1 185.9 112 98c-8.9 2.5-26.7 6.6-28.7 6.6-.1.1-.1 0-.1 0zm48.3-31.3c51.6-26 99.7-27.3 120.3-7.2-.7-.3-40.7 23.3-44.8 26.4 19.8-38.7-15.8-29.9-45.5-11.3l-30-7.9zm231.6 42.3c44.8-6.7 92.7-17.8 75.7-43.4-3.2-3-4.9-3.8-7.5-7.3-11.1-14.9 7.9-31.9 29.2-30.5 1.5.1 5.3.7 5.2.8l-5.2 13.3c-4.3-6.8-18.2-8.4-20-.2-1.4 6.2 8.4 8.4 14.2 19.3 7.8 14.7-.3 29.6-14.5 36.9-5.5 2.8-11.1 5.2-16.9 7.3-4.7 1.2-9.6 2.6-15.8 4.3-5.6 1.6-7.3 2.6-28.8 6-36.5 5.5-75 7.2-107.1 22.3 13.9-14.4 50.8-22.6 91.5-28.8zM252.9 46.7c-44.1-19.2-97.6-4.1-139.7 20.7l-32.4-8.2C51.4 51.6 25.5 45.2 0 51c19.5 17.4 45.3 24.3 74.7 31.9l11.4 3c-11.3 8.9-20.9 18.2-28.2 27.1l-7.3 8.9 26.5-4.2c-61.3 96.8 39.5 132.8 107.4 48.2l70.4-18.5c-9.8 13-9.8 32.3-9.8 32.3l4.2-3.3c21.3-17.9 45.9-26.9 65-30.8l45.2 11.8-.1.8c-1.6 24.9 9.9 41.8 35.6 45.9 1.5.3 2.6.5 4.5.8-.4-5.4-.5-9.4-.2-14.8 19.4 13.9 40.8 11.4 58.5-4l1.3 3.2c19 4.7 28.5-27.4 27-34.6 0-.2-10.2-1.7-21.5 2.2l-47.8-12.8c8.8-6.6 38-13.8 38.4-29.3v-.7c15.7-12.5 21.2-30 15.8-54l20.1-50.2s-52 12.5-60.4 14.5L438.5.9 252.9 46.7z" id="g"/><path d="M9 19.9c2.2 1.4 3.6 4.7 3.4 8.5-.3 4.7-3 8.3-6.2 8.4l.1.3c.4 7 2.8 13.8 6.3 17.4 1.3-12.1 7.8-28.7 26.1-38.9-18.2 15.8-21.8 38.6-20.5 54.2C9.7 68.1 2.6 53.8.1 46.2c1.9 12.9 10 28.3 22.3 29.2-2.5-24.8 7.1-50.5 23.3-59 6.7-3.5 16-5.9 26.3-12.5C61 3 57.5 2 53.6 1.3c-3-.5-6-.8-9-.8C30.9.5 18.4 6.6 9 19.9" id="i"/><path d="M191.5 44.7C150.3 26 99.5 39 58.5 62L138 82c-.3 1-.7 2.1-1.2 2.9l-35.1 10.7c-1.7.7-3.2 1.4-4.5 2.1L30.5 80.2C18.3 89.5 8 99.2.3 108.7l23.8-3.1c-68.1 109.2 42.1 123 94.3 49.6l86.6-21.7c-7.9 7.8-12.6 19.1-15.1 28.9 25.6-22.1 59.1-29 79.1-30.5 12.2-.9 25.6-2.2 36-3.4l2.9-3.7c9.5-13 23.3-19.4 37.9-20.8 11.4-1.1 15.4.6 20.1 1.4 2.2.6 10.2 2.7 18.3 3.1 21-12.2 27.2-30 21.1-55.7l16.3-43.4c-.1.1-41.1 10-58.6 14.2L370.8.1 191.5 44.7z" id="k"/><path d="M191.5 44.7C150.3 26 99.5 39 58.5 62L138 82c-.3 1-.7 2.1-1.2 2.9l-35.1 10.7c-1.7.7-3.2 1.4-4.5 2.1L30.5 80.2C18.3 89.5 8 99.2.3 108.7l23.8-3.1c-68.1 109.2 42.1 123 94.3 49.6l86.6-21.7c-7.9 7.8-12.6 19.1-15.1 28.9 25.6-22.1 59.1-29 79.1-30.5 12.2-.9 25.6-2.2 36-3.4l2.9-3.7c9.5-13 23.3-19.4 37.9-20.8 11.4-1.1 15.4.6 20.1 1.4 2.2.6 10.2 2.7 18.3 3.1 21-12.2 27.2-30 21.1-55.7l16.3-43.4c-.1.1-41.1 10-58.6 14.2L370.8.1 191.5 44.7z" id="m"/></defs><g fill="none" fill-rule="evenodd"><path d="M160.8 263.3c-4.1-71.6 50.6-133 122.2-137.1 71.6-4.1 133 50.6 137.1 122.2 4.1 71.6-50.6 133-122.2 137.1-71.6 4.2-132.9-50.6-137.1-122.2" fill="#FFB819"/><path d="M414 248.8c3.9 68.2-48.2 126.7-116.4 130.7-68.2 3.9-126.7-48.2-130.7-116.4-3.9-68.2 48.2-126.8 116.4-130.7 68.3-4 126.8 48.1 130.7 116.4" fill="#041E41"/><path d="M305.9 142.5c43.6 5.9 80 36.6 93.4 78.1-33-32.1-74.8-51-118-49.7 1.8-14.4 13.2-23.8 24.6-28.4m-41.4 2c6.3-1.5 12.8-2.4 19.4-2.8 2.8-.2 5.6-.2 8.3-.2-9.6 6-18.2 16.2-19.8 30-5.9.5-11.8 1.5-17.7 2.8 2.3-13.1 5.8-23.5 9.8-29.8m-41.9 19.3c9.9-7.3 21.1-13.1 33.1-16.9-3.5 7-6.7 17.1-8.9 29.4-6.2 1.8-12.5 4-18.7 6.7 0-5.6-1.5-11.5-5.5-19.2m-36.8 45.9c7-15.7 17.4-29.7 30.4-40.8 3.9 3.7 4.4 11.2 3.8 18-11.6 5.8-23 13.4-34.2 22.8m-4.9 13.2c.3-.8.5-1.7.8-2.5-.1.9-.3 1.7-.8 2.5m12.5 93.5c-9.8-15.7-16-34.1-17.1-53.9-.8-13.2.8-26.1 4.2-38.1 12.1-11.6 24.8-20.8 37.8-27.8l-.1.5c-4.2 16-14.8 29.4-20.9 44.4-9.7 23.8-9.4 51.5-3.9 74.9m119 51.7c-5 1-10.1 1.6-15.4 1.9-34.3 1.9-65.9-11.4-88.2-34.1-12-23.7-14.3-61-6.2-85.8 4.3-13.3 17-31.4 20.9-44.9 1.4-4.9 2.7-9.2 3.6-13.1 6.1-2.8 12.2-5.1 18.4-7-7.1 53.3 3.2 137.1 66.9 183m67.2-40.5c-14.5 18-34.5 31.6-57.5 38.2C258.2 319 246.9 235 253.4 183c6.3-1.5 12.6-2.5 18.9-3.2 1.4 15.6 11.3 35 36.4 57.8 27.5 26.2 61.4 60.7 70.9 90m25.1-78.3c1.5 25.5-5.5 49.6-18.6 69.4-9.9-28.4-42-59.9-69-85.6-24.2-21.9-34.1-39.8-35.8-53.8 45.6-1.4 90 20.3 122.2 59.2.6 3.6.9 7.2 1.2 10.8" fill="#860038"/><path d="M475.6 330l-47.8-12.8c8.8-6.6 38-13.8 38.4-29.3v-.7c15.7-12.5 21.2-30 15.8-54l20.1-50.2s-52 12.5-60.4 14.5l7.8-23.5-185.7 45.7c-44.1-19.2-97.6-4.1-139.7 20.7l-32.4-8.2c-29.4-7.6-55.3-14-80.8-8.2 19.5 17.4 45.3 24.3 74.7 31.9l11.4 3c-11.3 8.9-20.9 18.2-28.2 27.1l-7.3 8.9 26.5-4.2c-61.3 96.8 39.5 132.8 107.4 48.2l70.4-18.5c-9.8 13-9.8 32.3-9.8 32.3l4.2-3.3c21.3-17.9 45.9-26.9 65-30.8l45.2 11.8-.1.8c-1.6 24.9 9.9 41.8 35.6 45.9 1.5.3 2.6.5 4.5.8-.4-5.4-.5-9.4-.2-14.8 19.4 13.9 40.8 11.4 58.5-4l1.3 3.2c19 4.7 28.5-27.4 27-34.6 0 0-10.1-1.5-21.4 2.3" fill="#FFB819"/><g transform="translate(176 141)"><mask id="b" fill="#fff"><use xlink:href="#a"/></mask><path d="M299.6 189l-47.8-12.8c8.8-6.6 38-13.8 38.4-29.3v-.7c15.7-12.5 21.2-30 15.8-54L326.1 42s-52 12.5-60.4 14.5l7.8-23.5L87.8 78.7C43.7 59.5-9.8 74.6-51.9 99.4l-32.4-8.2c-29.4-7.6-55.3-14-80.8-8.2 19.5 17.4 45.3 24.3 74.7 31.9l11.4 3c-11.3 8.9-20.9 18.2-28.2 27.1l-7.3 8.9 26.5-4.2c-61.3 96.8 39.5 132.8 107.4 48.2l70.4-18.5c-9.8 13-9.8 32.3-9.8 32.3l4.2-3.3c21.3-17.9 45.9-26.9 65-30.8l45.2 11.8-.1.8c-1.6 24.9 9.9 41.8 35.6 45.9 1.5.3 2.6.5 4.5.8-.4-5.4-.5-9.4-.2-14.8 19.4 13.9 40.8 11.4 58.5-4l1.3 3.2c19 4.7 28.5-27.4 27-34.6 0 0-10.1-1.5-21.4 2.3" fill="#FFB819" mask="url(#b)"/></g><g transform="translate(166 132)"><mask id="d" fill="#fff"><use xlink:href="#c"/></mask><path d="M309.6 198l-47.8-12.8c8.8-6.6 38-13.8 38.4-29.3v-.7c15.7-12.5 21.2-30 15.8-54L336.1 51s-52 12.5-60.4 14.5l7.8-23.5L97.8 87.7C53.7 68.5.2 83.6-41.9 108.4l-32.4-8.2c-29.4-7.6-55.3-14-80.8-8.2 19.5 17.4 45.3 24.3 74.7 31.9l11.4 3c-11.3 8.9-20.9 18.2-28.2 27.1l-7.3 8.9 26.5-4.2c-61.3 96.8 39.5 132.8 107.4 48.2l70.4-18.5c-9.8 13-9.8 32.3-9.8 32.3l4.2-3.3c21.3-17.9 45.9-26.9 65-30.8l45.2 11.8-.1.8c-1.6 24.9 9.9 41.8 35.6 45.9 1.5.3 2.6.5 4.5.8-.4-5.4-.5-9.4-.2-14.8 19.4 13.9 40.8 11.4 58.5-4l1.3 3.2c19 4.7 28.5-27.4 27-34.6 0 0-10.1-1.5-21.4 2.3" fill="#FFB819" mask="url(#d)"/></g><path d="M493.9 331.8c-10.5-1.9-17.5 2.5-17.7 2.5-.2 0-36.6-9.8-50-13.4l-7.1-1.9c4.5-6.2 13.3-8.8 22.1-12.7 3.8-1.7 9-3.7 12.9-6.4 7-4.9 8-8.2 8.1-8.2-12.8.4-25-3.1-27.1-3.5-5.7-1.2-11.3-1.4-16.7-.8l-.6.1c-14.6 1.8-27.7 9.5-35.5 20.9L381 310c-1 1.1-2.5 2.9-2.5 2.9l4.3 1.1c2.9.5 1.3 6.9-2.6 5.9l-18.8-4.9c-7.3.6-15 1.2-20.2 1.6-2.7.2-5.6.5-8.8 1l41.6 11c-3 27.2 11.6 43.9 32.2 45.6-.1-2.8-.1-8.6 0-19 0 0 29.6 31.8 63.6-2.4l2.9 6.5c15.2 1.4 21.8-27.4 21.2-27.5" fill="#041E41" fill-rule="nonzero"/><g transform="translate(376 290)"><mask id="f" fill="#fff"><use xlink:href="#e"/></mask><path d="M56.6 3.3C39.3.2 23.4 5.7 12 21.9c2.2 1.4 3.6 4.7 3.4 8.5-.3 4.7-3 8.3-6.2 8.4l.1.3c.4 7 2.8 13.8 6.3 17.4 1.3-12.1 7.8-28.7 26.1-38.9-18.2 15.8-21.8 38.6-20.5 54.2-8.5-1.7-15.6-16-18.1-23.6 1.9 12.9 10 28.3 22.3 29.2-2.5-24.8 7.1-50.5 23.3-59 6.7-3.5 16-5.8 26.4-12.5C64 5 60.6 4 56.6 3.3" fill="#FFB819" fill-rule="nonzero" mask="url(#f)"/></g><path d="M493.7 189.5c-.1.1-41.1 10-58.7 14.2l7.8-23.5-179.4 44.5c-41.2-18.7-92-5.7-133 17.3l79.5 20c-.3 1-.7 2.1-1.2 2.9L88.1 234.6c-24.5-6.3-46.7-12.3-67.8-8.2 16.5 13.9 38.8 19.2 63.3 25.6l90.2 23.7c-1.6.7-3.2 1.4-4.5 2.1l-66.7-17.5c-12.1 9.3-22.5 19-30.2 28.5l23.8-3.1c-68.1 109.2 42.1 123 94.3 49.6l86.6-21.7c-7.9 7.8-12.6 19.1-15.1 28.9 25.6-22.1 59.1-29 79.1-30.5 12.2-.9 25.6-2.2 36-3.4l2.9-3.7c9.5-13 23.3-19.4 37.9-20.8 11.4-1.1 15.4.6 20.1 1.4 2.2.6 10.2 2.7 18.3 3.1 21-12.2 27.2-30 21.1-55.7l16.3-43.4zm-302.9 80.8l-89.6-23.4c-25.6-7.1-32.2-12.8-33.9-14.3l52.1 13.4 84.6 21.7c-3.9 1-9.7 2-13.2 2.6z" fill="#041E41" fill-rule="nonzero"/><g transform="translate(11 173)"><mask id="h" fill="#fff"><use xlink:href="#g"/></mask><path d="M482.7 16.5c-.1.1-41.1 10-58.7 14.2l7.8-23.5-179.4 44.5c-41.2-18.7-92-5.7-133 17.3l79.5 20c-.3 1-.7 2.1-1.2 2.9L77.1 61.6c-24.5-6.3-46.7-12.3-67.8-8.2C25.8 67.3 48.1 72.6 72.6 79l90.2 23.7c-1.6.7-3.2 1.4-4.5 2.1L91.6 87.3c-12.1 9.3-22.5 19-30.2 28.5l23.8-3.1c-68.1 109.2 42.1 123 94.3 49.6l86.6-21.7c-7.9 7.8-12.6 19.1-15.1 28.9 25.6-22.1 59.1-29 79.1-30.5 12.2-.9 25.6-2.2 36-3.4l2.9-3.7c9.5-13 23.3-19.4 37.9-20.8 11.4-1.1 15.4.6 20.1 1.4 2.2.6 10.2 2.7 18.3 3.1 21-12.2 27.2-30 21.1-55.7l16.3-43.4zM179.8 97.3L90.2 73.9C64.6 66.8 58 61.1 56.3 59.6L108.4 73 193 94.7c-3.9 1-9.7 2-13.2 2.6z" fill="#041E41" fill-rule="nonzero" mask="url(#h)"/></g><g fill="#FFB819"><path d="M478.2 337.9c3.6-1.8 7.7-2.5 11.7-3.1-5.6 2.1-8.3 5.3-8.7 5.2-1.2 3.1-1.2 6.3-8.3 9.8 2.3-3.5 5.5-7.5 5.3-11.9m-70 5.9c7.6 16.7 29.7 20.6 43 17.7-5.9 5.2-34.9 4.1-43.7-12.9l.7-4.8z"/><path d="M416.3 322.6l57.3 14.8c1.9.5 1.1 5.7-1.4 5.1l-58.9-15c.4-1.4 2.5-4.6 3-4.9m48.8 25.3c-20.7 20.4-53.1 6.4-53-10.2.5 0 21.2 15.2 53 10.2" fill-rule="nonzero"/></g><g transform="translate(379 292)"><mask id="j" fill="#fff"><use xlink:href="#i"/></mask><path d="M10.7 21.3c-2.6 3.1-1.3 8.1 1.8 4.7 7.1-9.8 18.4-20.5 35.1-23.4-16.8-.8-29.6 9.3-36.9 18.7" fill="#FFF" fill-rule="nonzero" mask="url(#j)"/></g><g fill="#FFF"><path d="M325.6 218.8l3.8-.8.4 9.7 7.6-11.5 5.1-1.4-14.9 20-2-16zm98.4-23l-.6-.1-3 .7-5.6 14.2 2.4-.6c.1 0 .5-.2 1.2-.5l.9-.4 5.2-13.1-.5-.2zm-7.1 16.1l-7.6 1.9 7.1-18.2 7.7-1.9c1.3-.3 2.5-.3 3.7-.2 1.2.1 1.9.4 1.6 1l-5.2 13.4c-.2.6-1.3 1.4-2.9 2.2-1.6.8-3.1 1.5-4.4 1.8zm-139.6 34.9c-1.2.3-2.4.4-3.7.4-1.7 0-2.6-.3-2.3-1.1l5.4-13.7c.2-.6 1.4-1.3 2.9-2.1 1.6-.8 3-1.4 4.3-1.7l7.6-1.9-1.3 3.2-4.7 1.1.5-1.2-1.3.3c-1.3.3-2.2.6-2.8.9-.5.2-.7.4-.7.5l-5.2 13.4s0 .2.8.1c.6 0 1-.1 1.2-.1.6-.2 1.2-.4 1.8-.7.6-.4.9-.7 1-.9l-.3-.6 5.1-1.2-.6 1.5c-.3.7-1.6 1.6-3.5 2.4-1.4.5-2.9 1.1-4.2 1.4zm19.6-21.1l4.7-1.1-6.3 16.1 7.7-1.9-.8 2-12.4 3 7.1-18.1zm16-4.1l10.7-2.6-.8 1.9-6 1.5-2.2 5.5 6-1.5-.8 2-6 1.5-2.6 6.7 6-1.5-.8 2-10.7 2.6 7.2-18.1zm33.4-8.2l10.7-2.6-.8 2-6 1.5-2.2 5.5 6-1.5-.8 2-6 1.5-2.6 6.7 6-1.5-.8 2-10.7 2.6 7.2-18.2zm15.1-3.9l4.7-1.1-6.3 16.1 7.7-1.9-.8 2-12.4 3 7.1-18.1zm21 4.7l-4.4 1.1-2.7 6.8-4.8 1.2 6.3-15.9c.3-.8 1.6-1.6 3.4-2.5 1.6-.7 3.1-1.3 4.6-1.7 1.4-.3 2.7-.5 4-.4 1.4.1 2.1.4 1.9 1.1l-6.3 16-4.7 1.2 2.7-6.9zm3.4-8.9l-.6-.1c-.6 0-1.1 0-1.2.1-.3.1-.8.3-1.7.7l-.7.4-2.9 7 4.4-1.1 2.7-7zm15.3 5.4l-1.9-7.1-4.7 14-4.7 1.2 7.1-18.1 4.7-1.2 1.5 6.3 2.9-7.4 4.7-1.1-7.1 18.1-4.7 1.2 2.2-5.9z"/><path d="M227.5 269.7l7.4 4.5c-3.8 10.8-20.3 33.7-29.7 40.7l16.5-43.8-12.6 3.4-20.7 52.8 26.6-6.8c.6-.2 23.9-18.7 37.2-56.9l-24.7 6.1zM150.4 316c-.1 0-9.7 19.7-11.6 23.7l13.1-3.4 8.9-18.4 10.6-3.1-7.3 18.5 14-3.6 21.5-53.3c-7.2 2.4-32.8 2.8-49.2 39.6zm24.5-8.5l-10.4 3s8.7-17 17.6-19.7l-7.2 16.7zm241.3-57.8c-.7-1-1.3-3.2-1.3-3.3.4-.2.9-.4 1.3-.7 8.5-4.9 17.9-19.4 17.6-29.3-12 3.2-32.1 8.4-32.2 8.6l-19.2 52.9 12.5-3.2 8.3-22.7c1 2.1 6.5 15.2 17.2 16.3 12.4 1.3 19.6-11 19.6-11-3.3 2.8-18.1 3.8-23.8-7.6m-10.1-5l6.1-16.9 9.5-2.5c-1.4 3.6-3.9 13.4-15.6 19.4M245.3 292c-.2 0-9.6 19.3-11.5 23.4l13.3-3.4 8.6-18.1 10.6-3.1-7.3 18.3 13.9-3.5 21.6-53c-6.4 1.6-32.8 2.6-49.2 39.4zm24.6-8.6l-10.4 3s8.7-17 17.6-19.6l-7.2 16.6zm72.5-43.7l-20.7 53.1 13.1-3.3 20.7-53.1zm14.1 38l6.6-15.5 18.1-9.8-14.5 1.1 6.3-16.9c7.9-2.5 11.9-.1 15.3 4.9l6-14.9-31.9 8.1-20.5 53 32.5-8.5 7-16.4c-7.2 8.1-15.3 13.3-24.9 14.9m-58.4 14.9l17.3-46-13.8 3.5-20.4 53.1 35-9 7.7-18.8c-9.3 11.1-14.2 15.3-25.8 17.2" fill-rule="nonzero"/></g><g transform="translate(72 180)"><mask id="l" fill="#fff"><use xlink:href="#k"/></mask><path d="M404.7 28.3l-5.2 13.3c-4.3-6.8-18.2-8.4-20-.2-1.4 6.2 8.4 8.4 14.2 19.3 7.8 14.7-.3 29.6-14.5 36.9-5.5 2.8-11.1 5.2-16.9 7.3-4.7 1.2-9.6 2.6-15.8 4.3-5.6 1.6-7.3 2.6-28.8 6-36.5 5.5-75 7.2-107.1 22.3 14-14.3 50.8-22.5 91.5-28.8 44.8-6.7 92.7-17.8 75.7-43.4-3.2-3-4.9-3.8-7.5-7.3-11.1-14.9 7.9-31.9 29.2-30.5 1.4 0 5.3.6 5.2.8" fill="#FFF" fill-rule="nonzero" mask="url(#l)"/></g><g transform="translate(72 180)"><mask id="n" fill="#fff"><use xlink:href="#m"/></mask><path d="M190.8 59.1c-.2-.7-40.7 23.3-44.8 26.4 25.9-50.6-43.1-19.9-69.5 7.6-76.9 80.3-26.3 93.7 29.7 62.8 1.2-.6-7.9 7.9-7.9 7.9C36 224.9-31.9 178.9 51 91c-9.4 2.7-28.8 7.1-28.9 6.6 67.6-54.5 141.7-64.9 168.7-38.5" fill="#FFF" fill-rule="nonzero" mask="url(#n)"/></g></g></svg>