<svg width="512" height="512" viewBox="0 0 512 512" xmlns="http://www.w3.org/2000/svg" xmlns:xlink="http://www.w3.org/1999/xlink"><title>sacramento-kings</title><defs><path id="a" d="M.01 322.782h282.373V.598H.01z"/><path id="c" d="M.01 322.782h282.373V.598H.01z"/><path id="e" d="M.01 322.782h282.373V.598H.01z"/><path id="g" d="M.01 322.782h282.373V.598H.01z"/><path id="i" d="M.01 322.782h282.373V.598H.01z"/><path id="k" d="M.01 322.782h282.373V.598H.01z"/><path id="m" d="M.01 322.782h282.373V.598H.01z"/><path id="o" d="M.01 322.782h282.373V.598H.01z"/><path id="q" d="M.01 322.782h282.373V.598H.01z"/><path id="s" d="M.01 322.782h282.373V.598H.01z"/><path id="u" d="M.01 322.782h282.373V.598H.01z"/><path id="w" d="M.01 322.782h282.373V.598H.01z"/><path id="y" d="M.01 322.782h282.373V.598H.01z"/><path id="A" d="M.01 322.782h282.373V.598H.01z"/></defs><g fill="none" fill-rule="evenodd"><path d="M396.382 92.593l-40.474 40.579-33.617-33.7-.16.15-.183-.16-33.628 33.71-33.67-33.732-33.64 33.732-33.66-33.732-.01.022-33.66 33.72-39.67-39.784s.342 165.739.342 179.67c0 78.141 62.574 141.72 140.522 141.72 77.97 0 141.38-63.579 141.38-141.72 0-13.931.128-180.475.128-180.475" fill-rule="nonzero" fill="#FFF"/><path d="M217.133 313.296c40.045 0 69.827 16.743 91.575 28.956 14.805 8.328 26.514 14.907 36.756 14.907 4.51 0 8.645-1.256 12.663-3.853 12.748-16.248 21.565-35.46 25.507-55.625H196.457c1.243 5.72 2.678 11.28 4.285 16.517a151.269 151.269 0 0 1 16.391-.902m-90.202-15.626c3.332 16.925 9.92 32.83 19.626 47.297 5.86-10.292 17.591-23.074 40.624-28.526-1.768-5.924-3.343-12.224-4.682-18.77h-55.568zm28.817 59.478c24.897 29.224 60.743 46.074 98.527 46.321a121.581 121.581 0 0 1-10.402-5.989c-16.016-10.367-38.042-30.554-52.258-67.989-22.39 4.894-31.86 17.601-35.867 27.657" fill="#63717A" fill-rule="nonzero"/><path d="M205.4 327.53c10.092 25.414 25.347 44.946 45.36 58.061 13.23 8.693 25.914 12.632 34.27 14.414 20.933-4.894 40.474-14.993 56.65-29.267-12.759-1.406-25.85-8.758-39.67-16.528-21.565-12.117-48.423-27.217-84.686-27.217-3.921 0-7.917.204-11.924.536" fill="#63717A" fill-rule="nonzero"/><path d="M259.927 231.651c-.225 0-.439.022-.664.054l-.021-.054h-45.948v55.53h19.369v-44.615h14.559v44.614h18.458v-47.834c0-4.239-2.582-7.695-5.753-7.695m15.081 0h-1.157v47.62c0 4.25 2.56 7.684 5.72 7.684.011 0 .044-.01.076-.01v.01h46.515v-33.55l-18.608-.02v22.784h-14.548v-33.871h33.156V231.65h-51.154zm-113.27.011l-10.542 22.366h-6.085v-22.366h-19.283v55.497h19.283v-22.356h6.085l10.542 22.356H181l-13.585-27.743L181 231.662z" fill="#5A2F80" fill-rule="nonzero"/><g transform="translate(114 92)"><mask id="b" fill="#fff"><use xlink:href="#a"/></mask><path fill="#5A2F80" fill-rule="nonzero" mask="url(#b)" d="M72.13 195.153h19.958v-55.507H72.13z"/></g><g transform="translate(114 92)"><mask id="d" fill="#fff"><use xlink:href="#c"/></mask><path d="M270.816 154.597l.021-14.95h-.021v-.086l-51.187.086v25.328c0 4.229 2.572 7.685 5.721 7.685h26.086v12.106H219.63v10.195h51.208v-25.317c0-3.95-2.228-7.212-5.11-7.62v-.043h-26.89v-11.634h13.456v4.25h18.523z" fill="#5A2F80" fill-rule="nonzero" mask="url(#d)"/></g><g transform="translate(114 92)"><mask id="f" fill="#fff"><use xlink:href="#e"/></mask><path fill="#5A2F80" fill-rule="nonzero" mask="url(#f)" d="M216.362 83.15h-16.348l33.714-33.785-25.487-25.543-33.938 33.72-33.65-33.72L81.475 83.15H65.127l33.65-33.839-25.433-25.489-33.65 33.72L11.83 29.855v99.499h258.986V28.566z"/></g><g transform="translate(114 92)"><mask id="h" fill="#fff"><use xlink:href="#g"/></mask><path d="M68.41 118.66a2.615 2.615 0 0 0 2.604 2.607h14.559v-3.907h-11.86v-12.707h11.86v-3.906H68.41v17.912z" fill="#FFF" fill-rule="nonzero" mask="url(#h)"/></g><g transform="translate(114 92)"><mask id="j" fill="#fff"><use xlink:href="#i"/></mask><path d="M58.932 100.774c1.564-.215 2.913 1.062 2.913 2.597v17.912h-5.302v-5.377h-6.567v5.377h-5.293v-20.542l14.249.033zm-8.956 11.236h6.567v-7.351h-6.567v7.351z" fill="#FFF" fill-rule="nonzero" mask="url(#j)"/></g><g transform="translate(114 92)"><mask id="l" fill="#fff"><use xlink:href="#k"/></mask><path d="M258.6 100.741a2.606 2.606 0 0 1 2.593 2.608v15.294c0 1.449-1.168 2.619-2.593 2.619h-12.01a2.615 2.615 0 0 1-2.603-2.608v-15.305a2.615 2.615 0 0 1 2.604-2.608H258.6zm-9.267 16.582h6.546v-12.675h-6.546v12.675z" fill="#FFF" fill-rule="nonzero" mask="url(#l)"/></g><g transform="translate(114 92)"><mask id="n" fill="#fff"><use xlink:href="#m"/></mask><path d="M20.934 110.358a2.618 2.618 0 0 0 2.614 2.608h9.245v4.4h-11.86v3.906h17.163v-9.605c0-1.33-.996-2.447-2.336-2.597l-.139-.011h-9.395v-4.4h11.87v-3.918H20.934v9.617z" fill="#FFF" fill-rule="nonzero" mask="url(#n)"/></g><g transform="translate(114 92)"><mask id="p" fill="#fff"><use xlink:href="#o"/></mask><path d="M129.98 100.741a2.638 2.638 0 0 1 2.625 2.63v17.912h-5.303v-5.377h-6.567v5.377h-5.303v-20.542h14.548zm-9.245 11.27h6.567v-7.352h-6.567v7.351z" fill="#FFF" fill-rule="nonzero" mask="url(#p)"/></g><g transform="translate(114 92)"><mask id="r" fill="#fff"><use xlink:href="#q"/></mask><path fill="#FFF" fill-rule="nonzero" mask="url(#r)" d="M220.907 104.657h5.946v16.624h5.282v-16.624h5.935v-3.907h-17.163z"/></g><g transform="translate(114 92)"><mask id="t" fill="#fff"><use xlink:href="#s"/></mask><path d="M165.978 100.747h-26.343v20.52h5.292v-16.614h6.503v16.614h5.367v-16.614h6.492v16.614h5.292v-17.912a2.615 2.615 0 0 0-2.603-2.608" fill="#FFF" fill-rule="nonzero" mask="url(#t)"/></g><g transform="translate(114 92)"><mask id="v" fill="#fff"><use xlink:href="#u"/></mask><path d="M212.925 100.747h-14.548v20.52h5.292v-16.614h6.567v16.614h5.303v-17.912a2.625 2.625 0 0 0-2.614-2.608" fill="#FFF" fill-rule="nonzero" mask="url(#v)"/></g><g transform="translate(114 92)"><mask id="x" fill="#fff"><use xlink:href="#w"/></mask><path d="M175.796 118.66a2.608 2.608 0 0 0 2.603 2.607h14.549v-3.907h-11.849v-4.4h11.849v-3.896h-11.849v-4.41h11.849v-3.907h-17.152v17.912z" fill="#FFF" fill-rule="nonzero" mask="url(#x)"/></g><g transform="translate(114 92)"><mask id="z" fill="#fff"><use xlink:href="#y"/></mask><path d="M105.994 113.813l3.139 7.449h-5.164l-3.171-7.449h-3.835v7.47H91.67v-20.542l14.249.033c1.585-.204 2.903 1.062 2.903 2.586v10.453h-2.828zm-9.031-3.906h6.567v-5.248h-6.567v5.248z" fill="#FFF" fill-rule="nonzero" mask="url(#z)"/></g><g transform="translate(114 97)"><mask id="B" fill="#fff"><use xlink:href="#A"/></mask><path mask="url(#B)" d="M-100.398-80.966h485.795v485.795h-485.795z"/></g></g></svg>