<?xml version="1.0" encoding="UTF-8" standalone="no"?>
<svg
   xmlns:dc="http://purl.org/dc/elements/1.1/"
   xmlns:cc="http://creativecommons.org/ns#"
   xmlns:rdf="http://www.w3.org/1999/02/22-rdf-syntax-ns#"
   xmlns:svg="http://www.w3.org/2000/svg"
   xmlns="http://www.w3.org/2000/svg"
   viewBox="0 0 335.85333 155.90668"
   height="155.90668"
   width="335.85333"
   xml:space="preserve"
   id="svg2"
   version="1.1"><metadata
     id="metadata8"><rdf:RDF><cc:Work
         rdf:about=""><dc:format>image/svg+xml</dc:format><dc:type
           rdf:resource="http://purl.org/dc/dcmitype/StillImage" /></cc:Work></rdf:RDF></metadata><defs
     id="defs6"><clipPath
       id="clipPath32"
       clipPathUnits="userSpaceOnUse"><path
         id="path30"
         d="m 1225.95,239.727 c 4.89,0.789 9.88,1.679 15.03,2.722 -4.97,-1.004 -9.99,-1.883 -15.03,-2.722 z" /></clipPath><linearGradient
       id="linearGradient40"
       spreadMethod="pad"
       gradientTransform="matrix(86.9731,-185.727,-185.727,-86.9731,1150.42,418.437)"
       gradientUnits="userSpaceOnUse"
       y2="0"
       x2="1"
       y1="0"
       x1="0"><stop
         id="stop34"
         offset="0"
         style="stop-opacity:1;stop-color:#e6e7e6" /><stop
         id="stop36"
         offset="0.540868"
         style="stop-opacity:1;stop-color:#aeb4b7" /><stop
         id="stop38"
         offset="1"
         style="stop-opacity:1;stop-color:#a7a5a6" /></linearGradient></defs><g
     transform="matrix(1.3333333,0,0,-1.3333333,0,155.90667)"
     id="g10"><g
       transform="scale(0.1)"
       id="g12"><path
         id="path14"
         style="fill:#b2b5b7;fill-opacity:1;fill-rule:nonzero;stroke:none"
         d="m 1198.7,470.367 -5.09,8 -4.78,-0.976 2.89,-14.219 2.97,0.605 -2.34,11.524 6.61,-10.672 1.74,0.351 2.02,12.43 2.35,-11.523 2.88,0.586 -2.9,14.218 -4.64,-0.937 -1.71,-9.387" /><path
         id="path16"
         style="fill:#b2b5b7;fill-opacity:1;fill-rule:nonzero;stroke:none"
         d="m 1175.64,471.922 4.39,0.898 2.35,-11.55 3.27,0.664 -2.35,11.55 4.34,0.879 -0.55,2.676 -11.99,-2.441 0.54,-2.676" /><path
         id="path18"
         style="fill:#0c2950;fill-opacity:1;fill-rule:nonzero;stroke:none"
         d="m 598.238,299.766 -8.785,-0.93 c 0.586,-8.074 -5.39,-11.16 -11.015,-12.481 l -29.829,-6.062 c -1.308,4.676 -0.773,8.543 11.403,12.723 14.726,5.039 36.136,9.66 32.968,25.226 -2.453,12.051 -18.046,15.196 -35.199,11.699 -4.48,-0.91 -9.121,-2.785 -13.023,-4.777 -1.266,-0.684 -2.672,-1.57 -4.11,-1.863 -1.695,-0.344 -2.093,0.34 -2.644,1.765 l -6.934,-1.406 1.563,-21.531 8.715,0.84 c -0.985,7.051 5.25,14.89 15.976,17.066 9.641,1.965 16.406,-0.164 17.504,-5.562 1.258,-6.145 -9.672,-9.993 -19.203,-13.301 -16.52,-5.754 -25.082,-12.102 -15.422,-35.82 l 59.492,12.097 -1.457,22.317" /><path
         id="path20"
         style="fill:#0c2950;fill-opacity:1;fill-rule:nonzero;stroke:none"
         d="m 682.563,302.84 c 10.816,2.207 17.867,10.383 15.015,24.394 -2.851,14.012 -12.519,18.704 -23.336,16.504 -10.812,-2.207 -17.879,-10.293 -15.027,-24.304 2.851,-14.016 12.531,-18.789 23.348,-16.594 z m -10.254,50.402 c 21.804,4.442 38.488,-4.457 42.175,-22.57 3.68,-18.106 -8.199,-32.82 -30,-37.254 -21.804,-4.434 -38.484,4.461 -42.168,22.574 -3.687,18.117 8.192,32.817 29.993,37.25" /><path
         id="path22"
         style="fill:#0c2950;fill-opacity:1;fill-rule:nonzero;stroke:none"
         d="m 812.813,329.004 -7.942,-1.621 c -5.152,-1.047 -6.391,0.242 -7.172,4.09 l -9.152,44.992 -8.277,-1.68 c -2.051,-6.816 -8.227,-11.484 -17.274,-13.332 l -4.305,-0.867 1.602,-7.871 10.898,2.215 c 4.313,0.879 5.539,-0.41 6.325,-4.258 l 4.562,-22.461 c 0.942,-4.59 -1.629,-5.801 -5.008,-6.484 l -10.476,-2.129 1.594,-7.86 46.226,9.403 -1.601,7.863" /><path
         id="path24"
         style="fill:#0c2950;fill-opacity:1;fill-rule:nonzero;stroke:none"
         d="m 884.574,386.617 c -9.129,-1.851 -14.308,-7.097 -12.957,-13.726 1.348,-6.653 7.555,-9.473 16.684,-7.618 8.281,1.688 14.922,9.696 14.156,13.457 -0.852,4.18 -8.164,9.864 -17.883,7.887 z m 37.344,-12.711 c 1.969,-9.668 -0.555,-32.297 -31.906,-38.672 -7.016,-1.425 -16.848,-1.984 -26.688,0.118 l 2.239,9.765 c 6.972,-1.828 15.359,-2.004 21.937,-0.578 13.488,2.91 19.695,13.477 18.32,21.984 -4.086,-5.863 -12.379,-10.109 -19.898,-11.632 -15.043,-3.067 -28.391,0.703 -30.988,13.496 -2.856,14.004 9.718,23.996 27.296,27.566 16.399,3.332 35.387,-0.906 39.688,-22.047" /><g
         id="g26"><g
           clip-path="url(#clipPath32)"
           id="g28"><path
             id="path42"
             style="fill:url(#linearGradient40);fill-opacity:1;fill-rule:nonzero;stroke:none"
             d="m 1225.95,239.727 c 4.89,0.789 9.88,1.679 15.03,2.722 -4.97,-1.004 -9.99,-1.883 -15.03,-2.722" /></g></g><path
         id="path44"
         style="fill:#b2b5b7;fill-opacity:1;fill-rule:nonzero;stroke:none"
         d="m 1352.94,290.508 c 0.01,0.008 0.02,0.027 0.02,0.039 -171.76,9.59 -190.96,143.769 -194.75,181.363 -2.79,-20.711 -4.1,-38.355 0.77,-63.902 15.75,-82.5 78.82,-116.281 145.47,-133.77 18.8,1.883 41.97,11.973 48.49,16.27" /><path
         id="path46"
         style="fill:#77828a;fill-opacity:1;fill-rule:nonzero;stroke:none"
         d="m 1304.45,274.238 c -0.04,0 -0.07,-0.011 -0.11,-0.011 -17.96,-16.043 -39.18,-26.864 -63.36,-31.778 -5.15,-1.043 -10.14,-1.933 -15.03,-2.722 -39.68,-6.379 -71.53,-4.414 -112.06,2.324 -31.7,5.262 -76.75,16.961 -160.742,-0.539 80.212,0.031 99.672,-13.516 160.282,-25.215 37.84,-7.305 76.99,-11.18 132.83,0.168 39.12,7.937 76.65,28.504 106.73,74.07 -0.02,-0.008 -0.04,-0.019 -0.05,-0.027 -6.52,-4.297 -29.69,-14.387 -48.49,-16.27" /><path
         id="path48"
         style="fill:#ed114c;fill-opacity:1;fill-rule:nonzero;stroke:none"
         d="m 982.758,1047.86 c 0.125,2.24 -0.379,4.68 -1.195,7.06 -3.086,-1.42 -6.2,-2.83 -9.333,-4.24 2.047,-5.23 1.696,-8.25 1.696,-8.25 8.453,-0.48 12.543,-4.84 14.551,-8.83 2.945,2.25 5.785,4.48 8.519,6.68 -6.535,6.55 -14.238,7.58 -14.238,7.58" /><path
         id="path50"
         style="fill:#ed114c;fill-opacity:1;fill-rule:nonzero;stroke:none"
         d="m 1020.76,1069.04 c 0,0 -2.03,0.14 -1.46,0.94 0.13,0.89 0.15,1.82 0.13,2.76 -2.96,-1.4 -5.89,-2.79 -8.79,-4.17 0.42,-2.87 0.52,-4.76 0.52,-4.76 3.11,-0.07 6.42,-1.44 9.63,-3.34 2.26,1.98 4.49,3.93 6.69,5.85 -3.85,1.98 -6.72,2.72 -6.72,2.72" /><path
         id="path52"
         style="fill:#ed114c;fill-opacity:1;fill-rule:nonzero;stroke:none"
         d="m 1003.13,1065.02 c -3.267,-1.56 -6.525,-3.09 -9.771,-4.62 0.727,-3.86 0.883,-6.63 0.883,-6.63 4.348,-1.39 7.998,-3.86 11.048,-6.67 3,2.52 5.89,5 8.69,7.42 -5.45,3.71 -10.66,4.39 -10.66,4.39 0.5,1.63 0.31,3.81 -0.19,6.11" /><path
         id="path54"
         style="fill:#ed114c;fill-opacity:1;fill-rule:nonzero;stroke:none"
         d="m 965.484,1034.79 c 0,0 0.063,5.37 -2.629,11.74 -2.656,-1.17 -5.351,-2.33 -8.07,-3.48 2.403,-5.02 3.207,-9.95 -0.644,-15.74 0,0 9.98,2.64 17.816,-3.58 0.488,-0.39 0.879,-0.8 1.297,-1.21 2.66,1.85 5.234,3.68 7.723,5.49 -0.329,0.34 -0.641,0.69 -0.981,1.01 -9.289,8.02 -14.512,5.77 -14.512,5.77" /><path
         id="path56"
         style="fill:#ed114c;fill-opacity:1;fill-rule:nonzero;stroke:none"
         d="m 816.02,981.965 c 2.128,3.738 4.871,10.711 7.023,23.505 -7.582,-1.13 -13.871,-1.91 -18.473,-2.42 -2.543,-15.933 -5.996,-23.257 -8.265,-26.523 8.566,-1.035 19.168,-6.773 21.976,-27.394 6.02,2.07 11.84,4.148 17.5,6.219 -4.293,15.851 -13.441,23.273 -19.761,26.613" /><path
         id="path58"
         style="fill:#ed114c;fill-opacity:1;fill-rule:nonzero;stroke:none"
         d="m 854.504,988.09 c 3.133,7.621 3.742,16.41 3.5,23.73 -6.008,-1.28 -11.738,-2.41 -17.125,-3.39 0.703,-8.664 0.215,-19.582 -5.32,-26.063 0,0 15.336,-2.601 22.968,-18.363 5.692,2.258 11.153,4.5 16.411,6.711 -7.418,12.605 -20.434,17.375 -20.434,17.375" /><path
         id="path60"
         style="fill:#ed114c;fill-opacity:1;fill-rule:nonzero;stroke:none"
         d="m 892.402,999.203 c 1.661,4.877 2.75,11.787 1.973,21.667 -4.687,-1.35 -9.305,-2.6 -13.844,-3.77 0.715,-11.99 -1.41,-19.377 -3.777,-24.01 4.832,-1.82 12.652,-5.637 19.734,-12.914 5.028,2.297 9.805,4.551 14.328,6.734 -6.722,7.008 -13.992,10.61 -18.414,12.293" /><path
         id="path62"
         style="fill:#ed114c;fill-opacity:1;fill-rule:nonzero;stroke:none"
         d="m 920.883,1009.5 c 0,0 0.586,10.65 -0.832,19.51 -3.785,-1.32 -7.551,-2.57 -11.297,-3.77 1.043,-6.17 1.836,-15.24 0.312,-21.06 4.801,-1.02 11.985,-3.5 17.426,-9.414 4.145,2.144 7.985,4.203 11.567,6.164 -3.836,3.34 -9.352,6.71 -17.176,8.57" /><path
         id="path64"
         style="fill:#ed114c;fill-opacity:1;fill-rule:nonzero;stroke:none"
         d="m 943.254,1037.96 c -3.684,-1.55 -7.375,-3.05 -11.07,-4.48 0.867,-5.4 1.234,-11.77 -0.192,-17.39 0,0 11.149,-0.77 21.285,-6.49 4.047,2.42 7.438,4.53 10.243,6.34 -4.852,2.48 -11.532,4.96 -19.891,5.9 0,0 1.473,6.25 -0.375,16.12" /><path
         id="path66"
         style="fill:#ed114c;fill-opacity:1;fill-rule:nonzero;stroke:none"
         d="m 766.691,979.105 c 0,0 5.516,6.219 9.559,20.975 l -20.262,-1.037 c -3.633,-13.906 -8.379,-21.23 -12.148,-25.047 12.027,-1.308 24.578,-9.687 26.906,-37.676 l 16.621,4.227 c -1.047,35.594 -20.676,38.558 -20.676,38.558" /><path
         id="path68"
         style="fill:#ed114c;fill-opacity:1;fill-rule:nonzero;stroke:none"
         d="m 602.434,980.617 c 6.964,12.793 15.632,20.723 -1.774,22.083 -8.047,0.73 -11.93,-0.98 -19.957,-14.43 -2.176,-3.641 -5.867,-7.801 -7.937,-13.106 -1.559,-3.437 3.265,-8.621 9.937,-9.766 1.367,-4.125 2.039,-10.738 3.195,-19.429 2.942,-22.012 0.719,-36.348 11.536,-35.063 10.726,1.282 11.632,4.567 9.894,21.949 -1.527,15.313 -4.808,28.461 -1.719,33.211 -2.113,2.176 -4.355,5.789 -4.933,11.454 0.605,1.136 1.242,2.16 1.758,3.097" /><path
         id="path70"
         style="fill:#ed114c;fill-opacity:1;fill-rule:nonzero;stroke:none"
         d="m 660.176,999.582 c -8.297,0.34 -11.078,1.938 -14.633,-6.703 -2.285,-5.555 -8.059,-16.008 -11.309,-21.16 -1.246,-3.25 0.368,-5.235 5.993,-6.184 5.625,-0.945 9.296,-4.805 10.195,-13.394 1.57,-15.086 2.41,-24.047 3.43,-29.278 1.32,-6.75 3.98,-6.496 9.902,-5.765 10.859,1.84 12.008,2.629 10.5,15.234 -3.387,28.352 -4.699,32.582 -11.652,36.016 -4.711,2.336 -5.137,2.425 -0.559,10.59 1.801,3.222 6.141,9.332 7.793,12.539 3.894,7.566 1.75,7.636 -9.66,8.105" /><path
         id="path72"
         style="fill:#ed114c;fill-opacity:1;fill-rule:nonzero;stroke:none"
         d="m 722.531,999.219 -13.992,-0.164 c 0,0 -1,-0.102 -1.445,-2.157 -1.453,-6.738 -4.239,-16.441 -11.453,-25.226 8.691,-6.649 23.422,-22.84 19.535,-46.887 l 13.629,2.238 c 3.375,0.536 3.961,3.211 4.039,6.723 0.269,12.652 -3.664,29.481 -17.649,40.34 0,0 5.934,9.227 9.469,22.32 0.77,2.875 -2.133,2.813 -2.133,2.813" /><path
         id="path74"
         style="fill:#ed114c;fill-opacity:1;fill-rule:nonzero;stroke:none"
         d="m 461.703,1022.51 c -2.914,0.95 -13.488,1.46 -22.726,-8.82 -11.043,-12.28 -34.731,-36.772 -22.231,-39.686 2.352,-0.809 2.324,-3.703 2.352,-5.691 0.144,-12.133 -7.227,-39.34 1.73,-53.442 1.012,-1.894 2.887,-2.75 6.902,-3.277 4.008,-0.528 8.973,5.875 8.614,11.812 -0.364,5.938 -2.18,42.301 6.875,50.586 1.625,1.488 0.414,2.188 -1.477,3.281 -1.996,1.153 -4.379,4.653 12.184,23.057 4.879,5.42 22.554,19.77 7.777,22.18" /><path
         id="path76"
         style="fill:#ed114c;fill-opacity:1;fill-rule:nonzero;stroke:none"
         d="m 500.836,995.223 c 6.648,7.967 19.57,19.407 6.687,21.327 -5.812,0.96 -11.312,2.59 -22.429,-9.62 -11.117,-12.227 -28.965,-30.364 -16.403,-32.985 3.204,-0.672 6.489,-10.066 5.395,-15.664 -1.09,-5.597 -8.574,-50.054 4.543,-51.168 l 5.535,-0.472 c 3.664,0.461 6.91,2.043 8.641,9.336 1.726,7.293 2.117,38.211 2.351,42.753 0.231,4.543 -0.418,6.469 1.52,10.204 2.515,4.945 -3.746,6.656 -7.637,7.804 -2.492,0.731 3.777,8.41 11.797,18.485" /><path
         id="path78"
         style="fill:#ed114c;fill-opacity:1;fill-rule:nonzero;stroke:none"
         d="m 558.102,1009.24 c -5.817,0.96 -10.348,3.19 -21.465,-9.02 -11.117,-12.224 -29.231,-28.384 -17.09,-32.54 4.191,-1.438 8.414,-4.075 7.84,-11.387 -0.567,-7.309 0.449,-38.844 2.316,-42.961 1.867,-4.113 3.211,-5.629 11.625,-4.699 4.145,0.457 6.875,3.457 7.942,10.222 1,6.348 2.476,20.036 -0.704,34.426 -2.804,11.25 4.192,13.66 0.704,16.938 -3.493,3.269 -6.368,7.094 2.312,16.636 4.906,5.399 21.293,19.985 6.52,22.385" /><path
         id="path80"
         style="fill:#ed114c;fill-opacity:1;fill-rule:nonzero;stroke:none"
         d="m 414.496,1022.18 c 3.984,3.61 -17.129,12.77 -59.465,-41.938 -1.679,-4.019 0.551,-6.961 3.215,-7.176 2.668,-0.222 5.543,-4.265 3.602,-7.429 -1.946,-3.157 -3.137,-46.532 6.937,-45.664 10.078,0.871 11.195,8.3 11.879,19.168 0.684,10.855 3.223,32.562 7.441,35.472 4.219,2.914 -1.582,7.817 -1.937,11.371 -0.355,3.555 9.879,19.476 28.328,36.196" /><path
         id="path82"
         style="fill:#ed114c;fill-opacity:1;fill-rule:nonzero;stroke:none"
         d="m 305.289,983.918 c -1.742,-4.27 0.231,-7.402 2.731,-7.637 2.492,-0.234 5.031,-4.539 3.07,-7.898 -1.957,-3.36 -4.891,-49.492 4.625,-48.574 9.504,0.918 10.867,8.816 11.965,20.371 1.093,11.55 2.039,35.211 6.125,38.304 4.086,3.094 1.183,7.731 1,11.512 -0.188,3.781 10.101,20.704 28.144,38.464 3.899,3.84 -31.195,6.79 -57.66,-44.542" /><path
         id="path84"
         style="fill:#ed114c;fill-opacity:1;fill-rule:nonzero;stroke:none"
         d="m 306.617,1025.44 c 3.547,3.92 -28.027,6.6 -49.621,-45.002 -1.332,-4.278 -1.238,-8.247 1.887,-9.254 4.398,-1.418 4.851,-4.536 3.953,-8.317 -1.445,-6.09 -4.676,-49.191 7.406,-48.062 10.828,1.015 9.625,10.769 9.582,22.226 -0.039,11.453 -0.094,32.899 3.723,36.086 3.812,3.192 -0.926,9.656 -1.484,13.387 -0.563,3.73 8.128,20.786 24.554,38.936" /><path
         id="path86"
         style="fill:#ed114c;fill-opacity:1;fill-rule:nonzero;stroke:none"
         d="m 238.488,971.02 c -2.449,0.015 -8.246,13.558 16.731,46.36 2.414,2.89 -0.75,4.03 -5.625,3.28 -5.883,-0.9 -19.539,-5.72 -33.481,-45.316 -2.832,-8.039 -3.5,-14.219 -0.633,-14.403 2.86,-0.191 4.833,-2.168 3.086,-6.953 -6.441,-17.633 4.192,-48.847 13.918,-45.918 3.204,0.727 5.512,7.852 3.938,22.563 -1.582,14.719 -0.266,27.187 4.043,31.918 4.305,4.734 0.34,8.449 -1.977,8.469" /><path
         id="path88"
         style="fill:#ed114c;fill-opacity:1;fill-rule:nonzero;stroke:none"
         d="m 213.879,1010.98 c 1.23,1.67 0.644,3.83 -4.289,2.89 -5.867,-0.84 -17.543,-4.53 -32.074,-57.968 -1.516,-5.562 -1.309,-7.836 0.64,-7.953 1.953,-0.121 4.203,-0.672 2.66,-7.48 -4.664,-20.555 1.188,-48.891 13.934,-43.867 2.91,1.086 5.121,3.984 4.063,11.093 -1.063,7.102 -5.551,35.493 0.445,44.547 5.996,9.059 2.715,8.5 0.191,12.817 -2.519,4.312 -1.644,22.453 14.43,45.921" /><path
         id="path90"
         style="fill:#ed114c;fill-opacity:1;fill-rule:nonzero;stroke:none"
         d="m 159.414,947.863 c -2.769,0.977 -11.797,12.504 15.41,54.967 l -7.426,-3.139 c -12.503,-6.23 -21.332,-26.015 -25.421,-43.808 -4.09,-17.797 4.101,-22.68 4.101,-22.68 -8.375,-22.008 5.121,-54.859 16.145,-49.66 1.277,0.645 2.09,2.355 1.285,6.301 -0.805,3.949 -13.235,44.207 0.019,54.871 0.512,1.262 -1.343,2.168 -4.113,3.148" /><path
         id="path92"
         style="fill:#ed114c;fill-opacity:1;fill-rule:nonzero;stroke:none"
         d="m 132.848,980.105 c -8.121,-4.476 -16.953,-15.007 -20.883,-35.214 -1.828,-9.364 -4.371,-21.684 1.262,-33.145 -3.192,-12.461 -5.059,-31.93 14.308,-46.566 2.117,-2.223 10.348,0.945 6.621,7.89 -10.156,18.93 -14.863,41.227 -6.754,54.555 -5.765,3.176 -15.238,8.695 5.446,52.48" /><path
         id="path94"
         style="fill:#ed114c;fill-opacity:1;fill-rule:nonzero;stroke:none"
         d="m 105.816,959.555 c -4.414,-2.551 -13.1402,-9.36 -18.898,-36.207 -5.3399,-24.883 -0.8867,-36.5 1.707,-39.539 -2.2187,-8.879 -2.5195,-27.922 10.4102,-42.239 2.6838,-2.972 4.9058,-3.168 7.1948,-1.156 2.29,2.008 4.262,3.051 2.383,9.09 -2.054,6.617 -19.0505,33.199 -7.797,58.008 -11.5738,6.285 -0.39,37.855 5,52.043" /><path
         id="path96"
         style="fill:#ed114c;fill-opacity:1;fill-rule:nonzero;stroke:none"
         d="m 75.2852,872.918 c -11.2305,6.957 -1.9336,48.629 2.7812,55.426 -10.4062,-6.989 -26.375,-51.684 -12.4219,-74.766 -3.1718,-13.203 -2.5586,-25.363 18.8438,-40.687 1.6484,-1.18 2.6601,-0.387 4.1289,1.132 1.4726,1.516 4.0234,5.086 1.4766,7.817 -4.4336,4.75 -23.0782,27.672 -14.8086,51.078" /><path
         id="path98"
         style="fill:#ed114c;fill-opacity:1;fill-rule:nonzero;stroke:none"
         d="m 56.9961,892.469 c 0.1055,0.172 0.1836,0.336 0.2852,0.508 -0.0821,-0.125 -0.1797,-0.301 -0.2852,-0.508" /><path
         id="path100"
         style="fill:#ed114c;fill-opacity:1;fill-rule:nonzero;stroke:none"
         d="m 56.207,843.91 c -11.5,9.735 -2.0234,42.973 0.7891,48.559 C 37.8477,860.215 44.0352,829.754 48.5,819.086 c -2.1016,-10.527 4.0586,-27.5 10.6641,-34.008 6.6015,-6.504 8.6211,-5.172 12.6523,-2.848 4.0352,2.321 2.0039,9.696 -8.8164,25.614 -10.8164,15.918 -8.9922,30.937 -6.793,36.066" /><path
         id="path102"
         style="fill:#ed114c;fill-opacity:1;fill-rule:nonzero;stroke:none"
         d="m 40.2969,844.48 c 0.0976,0.325 0.1679,0.618 0.2656,0.938 -0.0898,-0.238 -0.1797,-0.563 -0.2656,-0.938" /><path
         id="path104"
         style="fill:#ed114c;fill-opacity:1;fill-rule:nonzero;stroke:none"
         d="m 43.2383,810.262 c -5.1094,-0.563 -4.5078,27.394 -2.9414,34.218 -12.8203,-42.89 -3.6446,-62.339 1.3828,-66.605 -1.8399,-12.648 11.3008,-23.727 15.1523,-25.754 3.8516,-2.019 4.4961,0.774 6.336,4.356 1.8437,3.589 0.8203,6.718 -1.1836,8.296 -18.8203,16.016 -22.4961,36.743 -18.7461,45.489" /><path
         id="path106"
         style="fill:#ed114c;fill-opacity:1;fill-rule:nonzero;stroke:none"
         d="m 51.5,649.73 1.1133,15.575 C 44.375,671.223 38.8438,681.496 38.8438,681.496 36.0391,676.301 42.6563,650.148 51.5,649.73" /><path
         id="path108"
         style="fill:#ed114c;fill-opacity:1;fill-rule:nonzero;stroke:none"
         d="m 38.3125,723.723 c -5.7031,5.715 -7.2812,15.035 -7.2812,15.035 -3.2618,-36.492 14.4531,-56.567 22.289,-63.563 l 1.5039,21.008 c -17.7226,8.473 -16.5117,27.52 -16.5117,27.52" /><path
         id="path110"
         style="fill:#ed114c;fill-opacity:1;fill-rule:nonzero;stroke:none"
         d="m 38.5547,766.543 c -4.6367,0.711 -7.2813,14.953 -7.0742,22.203 -8.043,-52.391 14.0703,-69.949 24.7148,-73.285 l 1.0156,14.187 c -21.5625,10.727 -21.1992,32.743 -18.6562,36.895" /><path
         id="path112"
         style="fill:#ed114c;fill-opacity:1;fill-rule:nonzero;stroke:none"
         d="m 678.555,191.336 -9.727,-3.867 c -1.703,-0.684 -1.726,-2.039 0.274,-3.496 7.386,-5.34 17.695,-11.66 27.347,-12.957 -3.73,-3.028 -3.054,-24.145 -2.625,-31.446 0.43,-7.308 1.934,-6.211 3.289,-5.238 1.364,0.977 9.039,6.367 9.039,6.367 0,0 1.961,0.77 1.844,3.621 -0.113,2.852 -1.101,27.907 3.957,31.918 0,0 -15.898,6.621 -28.144,14.453 -0.848,0.481 -2.731,1.641 -5.254,0.645" /><path
         id="path114"
         style="fill:#ed114c;fill-opacity:1;fill-rule:nonzero;stroke:none"
         d="m 647.113,175.684 c -2.152,1.98 -3.269,1.511 -4.609,0.945 -1.332,-0.566 -10.102,-4.336 -10.102,-4.336 -3.183,-1.375 -0.953,-3.734 0.957,-5.563 1.907,-1.839 13.805,-15.57 25.403,-19.289 -3.547,-4.492 -7.285,-14.921 2.207,-36.75 0.558,-1.921 2.004,-2.382 3.203,-1.461 1.199,0.918 8.562,6.7 8.562,6.7 0,0 2.121,1.492 0.954,4.582 -1.172,3.078 -10,24.918 -0.668,36.269 0,0 -9.426,4.09 -25.907,18.903" /><path
         id="path116"
         style="fill:#ed114c;fill-opacity:1;fill-rule:nonzero;stroke:none"
         d="m 529.285,77.7617 c -22.547,6.4766 -32.133,27.1993 -33.484,29.7893 -2.383,4.539 -6,2.75 -11.082,1.008 -5.09,-1.727 -6.082,-3.399 -5.246,-6.899 3.711,-9.1209 12.191,-23.9608 33.394,-31.1717 -1.105,-2.207 -2.094,-19.1992 16.895,-35.25 1.726,-1.4492 4.265,-1.5 6.785,-0.5977 2.516,0.8985 5.894,4.1289 3.019,7.3789 -14.039,14.5118 -13.558,32.1094 -10.281,35.7422" /><path
         id="path118"
         style="fill:#ed114c;fill-opacity:1;fill-rule:nonzero;stroke:none"
         d="m 569.43,96.0117 c 0,0 -23.895,10.3983 -35.782,28.7073 -0.589,0.91 -2.304,1.57 -3.312,1.152 -2.402,-1.012 -6.68,-2.812 -8.18,-3.422 -2.121,-0.867 -2.898,-1.89 -1.687,-3.597 11.722,-23.5434 31.265,-29.2504 31.265,-29.2504 -5.5,-5 -8.023,-25.2696 10.805,-39.8907 1.262,-1.2421 3.781,-1.3007 7.629,0.6289 3.84,1.9415 4.426,4.7618 1.895,8.6797 -2.532,3.9219 -16.52,25.3203 -2.633,36.9922" /><path
         id="path120"
         style="fill:#ed114c;fill-opacity:1;fill-rule:nonzero;stroke:none"
         d="m 567.535,139.68 c -2.215,1.949 -2.851,1.652 -3.769,1.211 -0.918,-0.442 -9.368,-4.332 -9.368,-4.332 0,0 -3.187,-1.477 -1.085,-3.68 0,0 13.156,-20.168 34.121,-27.027 -2.246,-2.082 -3.457,-12.4731 2.058,-28.5825 5.52,-16.0898 9.867,-11.0507 10.457,-10.7109 0.594,0.332 6.305,3.6523 6.305,3.6523 0,0 2.949,1.5704 2.223,3.7305 -0.735,2.168 -13.887,32.2576 -6.832,41.8786 -16.606,3.86 -34.11,23.86 -34.11,23.86" /><path
         id="path122"
         style="fill:#ed114c;fill-opacity:1;fill-rule:nonzero;stroke:none"
         d="m 608.363,159.121 c -1.468,1.91 -4.691,0.969 -15.644,-4.57 -2.235,-1.039 -3.731,-3.442 -1.875,-4.832 1.851,-1.367 18.008,-17.098 32.222,-22.18 -3.746,-3.328 -6.175,-12.07 -0.625,-29.9296 2.176,-7.0196 5.473,-14.0391 8.106,-12.3008 2.633,1.7422 8.676,5.832 8.676,5.832 1.804,1.2383 1.152,2.8594 0.09,6.6602 -1.067,3.7892 -11.559,30.5272 -2.051,38.3902 0,0 -18.907,11.079 -28.899,22.93" /><path
         id="path124"
         style="fill:#ed114c;fill-opacity:1;fill-rule:nonzero;stroke:none"
         d="m 725.195,205.645 c -2.527,1.992 -3.183,1.765 -4.808,1.199 -1.633,-0.574 -11.871,-4.227 -11.871,-4.227 -1.707,-0.617 -2.664,-1.965 -1.266,-2.875 1.402,-0.894 18.738,-10.582 25.113,-12.293 -2.75,-2.801 -7.375,-15.254 -6.675,-30.461 -0.004,-2.648 0.843,-2.789 2.003,-2.066 1.157,0.719 10.118,6.219 10.118,6.219 0,0 1.886,0.55 2.328,3.078 0.445,2.519 0.937,24.219 6.816,29.461 0,0 -16.836,8.144 -21.758,11.965" /><path
         id="path126"
         style="fill:#ed114c;fill-opacity:1;fill-rule:nonzero;stroke:none"
         d="m 768.66,219.793 c -0.668,0.82 -1.59,2.168 -3.551,1.594 l -11.687,-3.574 c -2.688,-0.84 -3.078,-3.333 14.762,-15.735 0,0 -7.34,-7.254 -7.871,-25.371 -0.29,-2.312 0.371,-2.578 0.902,-2.297 0.527,0.285 10.172,5.356 10.172,5.356 1.793,0.918 2.203,2.363 2.347,3.554 0.145,1.18 0.957,19.043 9.723,25.664 -7.848,2.137 -14.133,9.989 -14.797,10.809" /><path
         id="path128"
         style="fill:#ed114c;fill-opacity:1;fill-rule:nonzero;stroke:none"
         d="m 904.273,247.93 6.899,-8.086 -2.805,-9.903 c 3.254,0.821 6.356,1.571 9.246,2.227 l 2.258,8.008 -6.273,8.25 c -3.153,-0.145 -6.262,-0.313 -9.325,-0.496" /><path
         id="path130"
         style="fill:#ed114c;fill-opacity:1;fill-rule:nonzero;stroke:none"
         d="m 922.18,248.746 5.261,-7.488 -2.39,-7.473 c 2.523,0.52 4.883,0.981 7.074,1.379 l 2.051,6.379 -4.61,7.391 c -2.492,-0.047 -4.949,-0.11 -7.386,-0.188" /><path
         id="path132"
         style="fill:#ed114c;fill-opacity:1;fill-rule:nonzero;stroke:none"
         d="m 945.102,249.031 c -2.84,0.02 -5.653,0.02 -8.438,0 l 4.969,-6.113 -2.141,-6.512 c 2.703,0.41 5.059,0.723 7.039,0.946 l 2.157,6.906 -3.586,4.773" /><path
         id="path134"
         style="fill:#ed114c;fill-opacity:1;fill-rule:nonzero;stroke:none"
         d="m 882.945,246.258 c 2.02,-3.125 4.969,-7.606 7.106,-10.496 0,0 -2.379,-5.012 -4.988,-12.297 4.031,1.223 7.859,2.324 11.519,3.34 1.078,3.828 2.379,7.55 3.879,10.324 0,0 -4.172,5.437 -7.336,10.027 -3.461,-0.273 -6.855,-0.578 -10.18,-0.898" /><path
         id="path136"
         style="fill:#ed114c;fill-opacity:1;fill-rule:nonzero;stroke:none"
         d="m 854.758,242.793 c 2.062,-3.848 5.187,-8.801 9.285,-12.805 0,0 -4.012,-7.011 -7.906,-15.965 4.293,1.493 8.414,2.887 12.402,4.207 1.598,4.649 3.922,9.598 7.359,14.317 0,0 -5.21,5.281 -9.273,11.863 -4.074,-0.515 -8.051,-1.051 -11.867,-1.617" /><path
         id="path138"
         style="fill:#ed114c;fill-opacity:1;fill-rule:nonzero;stroke:none"
         d="m 802.363,232.07 c -5.457,-1.465 -9.832,-2.773 -13.054,-3.789 3.562,-5.129 8.992,-11.281 15.945,-14.054 0,0 -6.422,-8.016 -10.039,-23.993 4.43,1.895 8.73,3.692 12.961,5.438 3.656,15.215 9.769,22.863 9.769,22.863 -6.715,2.684 -12.015,8.516 -15.582,13.535" /><path
         id="path140"
         style="fill:#ed114c;fill-opacity:1;fill-rule:nonzero;stroke:none"
         d="m 824.141,237.273 c 3.336,-4.578 7.902,-10.203 12.285,-13.449 0,0 -5.258,-7.32 -7.344,-19.793 4.094,1.582 8.066,3.086 11.938,4.532 2.527,10.527 6.847,17.91 6.847,17.91 -4.222,3.507 -8.351,8.894 -11.336,13.261 -4.363,-0.808 -8.511,-1.629 -12.39,-2.461" /><path
         id="path142"
         style="fill:#ed114c;fill-opacity:1;fill-rule:nonzero;stroke:none"
         d="m 347.867,41.6289 c -9.258,-0.4297 -16.707,32.9727 -17.207,39.5899 -0.504,6.6328 -2.472,10.0429 -7.363,9.5625 -2.652,-0.2422 -4.406,-0.7618 -5.215,-3.6329 -2.137,-7.5586 1.762,-24.0781 9.418,-39.6992 -6.156,-4.75 9.332,-29.7383 24.848,-39.68748 15.519,-9.95313 25.593,-7.500001 25.593,-7.500001 C 368.953,4.78125 336.57,29.3789 347.867,41.6289" /><path
         id="path144"
         style="fill:#ed114c;fill-opacity:1;fill-rule:nonzero;stroke:none"
         d="m 406.129,10.6094 c -11.918,7.4101 -28.309,25.789 -23,33.1719 -7.461,1.8789 -12.051,11.9296 -14.856,27.7382 -2.812,15.8203 -5.73,15.3594 -11.089,15.6016 -3.313,-0.1328 -5.657,-0.8125 -6.672,-4.7617 -1.973,-7.6485 1.406,-23.2383 14.961,-40.5508 -5.95,-7.7188 31.187,-45.73829 53.16,-41.257819 0,0 -0.59,2.648439 -12.504,10.058619" /><path
         id="path146"
         style="fill:#ed114c;fill-opacity:1;fill-rule:nonzero;stroke:none"
         d="m 416.34,48.6719 c -8.942,2.0976 -11.457,40.2383 -21.406,39.7969 -2.801,-0.1094 -5.039,-0.3672 -6.504,-2.2383 -5.567,-7.1289 -1.606,-26.0391 10.453,-41.4414 0.922,-13.3282 16.625,-27.7696 33.398,-35.80082 7.699,-3.67969 17.074,-2.86719 24.746,-0.35937 -9.086,0.99218 -49.394,27.73049 -40.687,40.04299" /><path
         id="path148"
         style="fill:#ed114c;fill-opacity:1;fill-rule:nonzero;stroke:none"
         d="m 461.777,52.1797 c -21.132,5.8906 -27.996,42.3086 -34.316,41.1484 0,0 -1.5,-0.1679 -7.242,-1.3593 -9.246,-1.918 4.383,-32.8868 22.629,-42.8282 -3.629,-8.8593 20.613,-38.2617 35.906,-34.5625 5.211,1.2617 6.437,1.9024 8.531,3.0117 -28.93,19.3907 -28.769,30.7618 -25.508,34.5899" /><path
         id="path150"
         style="fill:#ed114c;fill-opacity:1;fill-rule:nonzero;stroke:none"
         d="m 494.219,62.8516 c 0,0 -19.832,6.3672 -33.953,31.6601 -3.157,5.6483 -3.301,6.1483 -8.864,4.1992 -4.004,-1.0703 -5.156,-23.6406 27.832,-40.4492 -1.461,-5.7031 8.207,-24.1406 15.106,-30.2812 6.894,-6.1407 9.359,-5.2891 11.715,-4.461 2.351,0.8321 5.523,1.9922 5.523,1.9922 2.652,0.9766 2.617,2.4571 -1.25,7.2578 -3.867,4.8125 -18.418,21.7188 -16.109,30.0821" /><path
         id="path152"
         style="fill:#ed114c;fill-opacity:1;fill-rule:nonzero;stroke:none"
         d="m 310.039,45.0703 c -9.605,5.0117 -15.758,25.2813 -13.238,42.8281 0.871,6.0704 -0.496,7.6211 -5.254,8.3125 -11.211,-1.6523 -15.883,-22.4296 -0.902,-42.6211 2.097,-22.5507 21.32,-51.66792 43.707,-49.10152 0,0 -36.997,23.83202 -24.313,40.58202" /><path
         id="path154"
         style="fill:#ed114c;fill-opacity:1;fill-rule:nonzero;stroke:none"
         d="m 279.145,52.6719 c -7.469,2.3476 -15.372,21.0781 -12.879,37.5195 2.328,15.3476 -2.629,17.2186 -5.039,17.4496 -11.465,2.039 -15.375,-22.7426 -1.098,-39.3324 -3.68,-24.3594 25.215,-56 42.012,-55.3984 0,0 -29.953,24.9804 -22.996,39.7617" /><path
         id="path156"
         style="fill:#ed114c;fill-opacity:1;fill-rule:nonzero;stroke:none"
         d="m 244.027,72.1211 c -6.054,3.2891 -13.265,18.5586 -8.441,30.1879 4.828,11.621 3.715,18.992 -0.063,20.363 -6.996,1.699 -21.285,-15.262 -6.984,-38.2306 -6.766,-24.1523 28.008,-54.1328 37.715,-55.4805 0,0 -31.348,29.8477 -22.227,43.1602" /><path
         id="path158"
         style="fill:#ed114c;fill-opacity:1;fill-rule:nonzero;stroke:none"
         d="m 216.676,89.1602 c -15.539,14.6918 3.066,48.0698 -8.055,53.9218 -14.351,5.668 -15,-23.953 -7.668,-36.633 -0.387,-25.2888 15.317,-49.1287 34.16,-55.9295 0,0 -25.265,21.6719 -18.437,38.6407" /><path
         id="path160"
         style="fill:#ed114c;fill-opacity:1;fill-rule:nonzero;stroke:none"
         d="m 193.109,111.809 c -15.859,18.91 1.856,34.769 0.704,45.992 -0.379,3.738 -2.895,6.609 -6.157,7.308 -3.265,0.68 -13.734,-17.418 -7.468,-28.058 -4.336,-5.153 0.316,-35.551 21.953,-52.2307 0,0 -11.965,16.9097 -9.032,26.9887" /><path
         id="path162"
         style="fill:#ed114c;fill-opacity:1;fill-rule:nonzero;stroke:none"
         d="m 173.359,145.059 c 0,0 -9.148,12.492 -0.015,28.222 9.133,15.731 -2.43,17.11 -2.43,17.11 0,0 -28.668,-15.129 6.938,-69.86 0,0 -9.489,19.391 -4.493,24.528" /><path
         id="path164"
         style="fill:#ed114c;fill-opacity:1;fill-rule:nonzero;stroke:none"
         d="m 161.738,202.527 c 2.848,4.953 -0.172,18.645 -11.695,16.465 0,0 -16.488,-19.187 6.828,-58.742 -5.492,8.559 -7.215,35.969 4.867,42.277" /><path
         id="path166"
         style="fill:#ed114c;fill-opacity:1;fill-rule:nonzero;stroke:none"
         d="m 149.039,233.965 -7.316,14.715 c 0,0 -8.215,-8.797 0.293,-34.657 0,0 -2.055,14.59 7.023,19.942" /><path
         id="path168"
         style="fill:#b2b5b7;fill-opacity:1;fill-rule:nonzero;stroke:none"
         d="m 1363.25,1147.79 c -38.87,27.71 -152.83,43.31 -300.74,-48.22 -6.91,-4.27 -20.05,-14.3 -35.75,-26.57 154.22,98.05 258.09,76.57 299.96,59.64 7.92,-3.01 14.45,-6.54 19.54,-10.17 8.09,-5.33 11.68,-14.24 8.84,-20.91 5.09,-3.13 18.89,-10.04 31.58,-2.35 0.14,0.99 0.26,1.99 0.36,3.04 1.5,16.33 -5.82,32.72 -23.79,45.54" /><path
         id="path170"
         style="fill:#77828a;fill-opacity:1;fill-rule:nonzero;stroke:none"
         d="m 1252.61,1025.22 c 54.48,26.63 83.9,33.25 99.26,38.37 0,0 13.78,4.11 22.53,11.53 0,0 10.45,8.08 12.28,24.09 -12.69,-7.69 -26.49,-0.78 -31.58,2.35 v 0 c -2.9,-6.18 -10.99,-8.02 -10.99,-8.02 -16.63,-4.37 -48.01,-11.66 -104.68,-40.4 -102.08,-51.74 -165.47,-156.398 -136.9,-278.187 1.38,104.801 55.47,195.184 122.03,234.777 0,0 11.22,7.06 28.05,15.49 v 0" /><path
         id="path172"
         style="fill:#0c2950;fill-opacity:1;fill-rule:nonzero;stroke:none"
         d="m 455.902,728.254 c 1.164,3.926 1.176,6.23 0.828,8.68 -0.089,0.597 -0.39,1.632 -0.816,2.796 -4.723,-8.05 -11.742,-16.875 -14.648,-20.14 -6.52,-7.41 -13.383,-11.992 -20.383,-13.641 -2.852,-0.664 -5.801,-0.886 -8.77,-0.664 -4.703,0.242 -8.855,2.063 -12.312,5.399 -4.164,4.054 -6.832,9.961 -7.922,17.546 -0.742,5.161 -0.719,11.125 0.086,17.719 1.402,12.383 5.32,23.035 11.625,31.676 5.402,7.492 11.359,12.105 17.703,13.676 3.902,1.023 7.066,0.719 9.391,-0.91 2.312,-1.629 3.789,-4.551 4.39,-8.711 0.473,-3.309 0.16,-7.071 -0.933,-11.18 -1.211,-4.539 -3.114,-8.02 -5.828,-10.648 -2.415,-2.34 -4.844,-4.418 -7.145,-6.129 0,0 0.031,-0.008 0.055,-0.008 2.98,-0.621 6.105,-0.559 9.289,0.191 2.886,0.684 5.543,1.867 7.89,3.539 3.969,2.723 7.133,6.621 9.426,11.606 2.426,5.394 3.277,10.836 2.508,16.148 -0.238,1.656 -0.625,3.301 -1.145,4.887 -2.253,6.242 -6.261,10.574 -11.906,12.844 -4.988,2.066 -10.824,2.336 -17.363,0.804 -0.66,-0.152 -1.317,-0.324 -1.977,-0.519 -2.574,-0.742 -5.125,-1.762 -7.609,-3.031 -9.215,-4.762 -17.586,-13.012 -24.891,-24.528 -8.195,-12.996 -12.519,-26.816 -12.855,-41.078 -0.094,-4.203 0.125,-8.183 0.652,-11.851 1.598,-11.098 5.86,-19.567 12.672,-25.164 6.805,-5.602 15.469,-8.102 25.738,-7.434 2.352,0.168 4.653,0.516 6.844,1.023 9.828,2.301 18.688,8.196 26.352,17.504 5.394,6.586 9.117,13.184 11.054,19.598" /><path
         id="path174"
         style="fill:#0c2950;fill-opacity:1;fill-rule:nonzero;stroke:none"
         d="m 521.23,760.18 c 0.098,6.156 1.758,9.851 5.071,14.429 1.773,2.532 3.683,4.106 5.672,4.688 2.961,0.844 4.937,-0.274 5.422,-3.098 0.457,-2.679 -0.75,-4.328 -3.817,-8.636 -1.234,-1.661 -3.019,-3.379 -5.336,-5.102 -2.367,-1.77 -4.25,-2.84 -5.738,-3.273 l -1.293,-0.372 z m 88.387,45.703 -16.621,-4.805 -9.324,-42.23 c -0.121,-2.711 -1.817,-3.614 -2.82,-3.899 l -1.114,-0.328 c -2.019,-0.578 -3.433,0.293 -3.785,2.34 l -8.176,36.816 -15.586,-4.511 11.223,-39.672 -33.172,-9.59 c -3.367,-0.977 -7.683,-0.414 -9.094,7.824 -0.21,1.242 -0.296,2.387 -0.25,3.387 l 0.04,0.933 0.882,0.223 c 4.559,1.586 7.207,3.195 11.657,6.266 5.089,3.582 8.589,7.457 10.375,11.484 l 0.07,0.133 c 1.199,2.687 1.605,5.246 1.199,7.625 -0.141,0.805 -0.363,1.543 -0.707,2.269 -0.84,1.805 -2.258,3.145 -4.324,4.079 -2.91,1.312 -5.219,1.293 -9.492,-0.141 -7.844,-2.656 -14.426,-8.598 -19.571,-17.656 -5.164,-9.078 -7.074,-17.793 -5.683,-25.922 0.597,-3.516 1.82,-6.453 3.621,-8.711 l 2.207,-2.785 -3.434,0.898 c -1.945,0.512 -3.734,1.301 -5.32,2.348 l -19.027,-5.512 7.824,84.438 -15.781,-4.575 -8.95,-82.535 c -0.179,-1.668 -0.16,-3.191 0.079,-4.551 0.855,-5.023 3.968,-6.57 9.808,-4.882 l 111.793,32.336 c 3.883,1.128 6.508,2.832 7.797,5.086 0.594,0.996 1.48,3.406 2.402,9.277 l 0.032,0.113 11.222,44.43" /><path
         id="path176"
         style="fill:#0c2950;fill-opacity:1;fill-rule:nonzero;stroke:none"
         d="m 872.805,841.301 -0.547,-0.324 c -1.09,-0.657 -2.137,-1.129 -3.145,-1.414 -2.383,-0.692 -4.519,-0.364 -6.375,0.996 -2.496,1.824 -4.039,4.402 -4.601,7.668 -0.328,1.941 -0.348,4.207 -0.047,6.734 0.996,8.492 4.469,13.875 10.324,16.008 3.109,1.144 5.547,0.965 7.242,-0.489 l 0.399,-0.351 z m -135.446,-39.18 -0.539,-0.324 c -1.093,-0.656 -2.14,-1.129 -3.144,-1.422 -2.383,-0.687 -4.516,-0.355 -6.375,1.004 -2.492,1.812 -4.043,4.394 -4.602,7.656 -0.336,1.953 -0.344,4.215 -0.047,6.738 0.996,8.489 4.473,13.879 10.321,16.016 3.105,1.133 5.543,0.965 7.242,-0.496 l 0.398,-0.348 z m -106.105,-10.48 c 0.098,6.16 1.797,10.238 5.109,14.816 1.778,2.527 3.688,4.098 5.668,4.676 2.965,0.851 4.938,-0.27 5.426,-3.086 0.457,-2.688 -0.785,-4.719 -3.852,-9.02 -1.234,-1.672 -3.023,-3.382 -5.343,-5.109 -2.367,-1.766 -4.239,-2.832 -5.731,-3.266 l -1.297,-0.375 z m 267.391,137.41 -16.368,-4.735 -5.515,-46.949 -1.532,1.188 c -3.062,2.351 -7.675,2.433 -13.714,0.199 -5.321,-2.016 -9.84,-5.492 -13.43,-10.336 -4.629,-6.223 -6.941,-13.902 -6.875,-22.828 0.016,-1.77 0.156,-3.457 0.43,-5.035 0.839,-4.91 2.597,-8.688 5.234,-11.207 l 2.59,-2.469 -3.77,0.496 c -0.129,0.016 -0.254,0.031 -0.382,0.055 -2.305,0.41 -4.395,1.156 -6.231,2.23 l -14.359,-4.16 2.48,25.762 c 0.258,2.414 0.235,4.547 -0.074,6.363 -0.723,4.195 -2.738,6.84 -6.172,8.078 -2.812,1.078 -5.84,0.93 -9.281,-0.445 -4.199,-1.699 -10.024,-7.16 -17.313,-16.227 l -2.199,-2.734 1.188,12.738 -16.075,-4.648 -4.054,-43.789 -19.746,-5.707 5.14,44.097 -16.601,-4.8 -0.688,-6.004 -1.539,1.187 c -3.059,2.356 -7.676,2.43 -13.719,0.199 -5.312,-2.019 -9.836,-5.5 -13.422,-10.332 -4.636,-6.226 -6.945,-13.914 -6.871,-22.84 0.004,-1.757 0.153,-3.449 0.418,-5.031 0.852,-4.949 2.629,-8.738 5.305,-11.258 l 2.566,-2.421 -3.644,0.429 c -0.231,0.031 -0.449,0.051 -0.672,0.094 -2.301,0.41 -4.387,1.156 -6.223,2.223 l -19.25,-5.567 7.832,84.438 -15.785,-4.575 -8.945,-82.535 c -0.059,-0.504 -0.09,-1.031 -0.109,-1.64 l -0.024,-0.918 -26.937,-7.797 c -3.375,-0.969 -7.688,-0.402 -9.094,7.832 -0.219,1.269 -0.301,2.371 -0.254,3.383 l 0.047,0.929 0.871,0.235 c 4.976,1.965 7.168,3.148 11.621,6.219 5.152,3.628 8.668,7.539 10.441,11.613 1.207,2.695 1.61,5.254 1.2,7.629 -0.508,2.968 -2.149,5.047 -5.028,6.347 -2.91,1.317 -5.164,1.344 -9.453,-0.097 -7.84,-2.657 -14.426,-8.598 -19.57,-17.649 -5.16,-9.082 -7.07,-17.808 -5.684,-25.929 0.817,-4.782 2.758,-8.446 5.77,-10.907 2.98,-2.449 6.613,-3.004 11.101,-1.707 l 154.981,44.84 c 0.941,0.274 1.363,0.817 1.457,1.867 l 2.687,30.84 13.496,14.074 c 0.836,0.86 1.848,1.469 3.004,1.797 1.926,0.563 3.266,-0.218 3.586,-2.09 0.09,-0.507 0.075,-1.125 -0.027,-1.894 l -3.066,-24.387 c -0.247,-1.887 -0.247,-3.566 0,-5 0.367,-2.144 1.476,-8.66 12.773,-5.398 l 39.051,11.301 c 0.351,0.101 0.636,0.195 0.847,0.281 l 0.086,0.039 0.094,0.019 c 0.473,0.114 0.949,0.235 1.445,0.379 l 53.739,15.547 c 3.379,0.977 5.929,2.52 7.574,4.578 1.469,1.84 2.516,4.727 3.105,8.594 l -38.187,-11.051 9.723,84.977" /><path
         id="path178"
         style="fill:#0c2950;fill-opacity:1;fill-rule:nonzero;stroke:none"
         d="m 522.027,544.922 -8.621,-11.145 7.106,-12.16 18.508,-31.695 -32.821,11.336 -14.164,4.894 -9.172,-11.855 -18.718,-24.192 2.808,27.688 1.668,16.445 -15.625,5.399 -29.266,10.117 35.606,12.434 12.559,4.382 1.339,13.235 3.696,36.472 14.574,-24.968 8.676,-14.864 16.246,5.672 25.883,9.035 z m -83.359,-116.895 -21.605,-4.394 -18.836,92.539 47.707,-16.496 z m -346.7617,-9.101 1.2109,64.246 21.8628,-49.199 z m 652.5897,63.476 -13.516,66.426 c -3.246,15.965 -11.742,23.223 -25.316,30.371 l -0.203,0.106 -0.211,0.078 -84.691,32.765 c -4.739,2.84 -5.172,4.153 -5.758,7.036 l -5.895,28.964 45.774,9.313 6,-29.488 0.429,-2.094 1.989,-0.781 50.179,-19.637 6.719,-2.625 -1.441,7.07 -15.446,75.922 c -4.004,19.684 -22.832,32.524 -41.964,28.633 l -81.711,-16.625 c -19.129,-3.891 -31.442,-23.07 -27.438,-42.75 l 11.063,-54.344 -53.371,-18.633 -47.211,80.879 -10.227,-100.929 -59.16,-20.653 -7.735,38.004 c -0.57,12.957 7.313,26.403 7.387,26.535 l 4.504,7.59 -8.641,-1.754 -83.39,-16.968 10.676,-5.02 c 0.117,-0.059 13.074,-6.395 17.41,-20.684 l 35.176,-172.89 C 369,383.34 359.766,369.754 359.668,369.617 l -1.68,-2.449 -13.078,64.277 -5.066,-10.129 c -0.063,-0.125 -6.848,-13.25 -19.946,-17.461 l -32.636,-6.64 -31.703,155.781 c -0.575,12.957 7.308,26.406 7.39,26.543 l 4.492,7.59 -8.636,-1.758 -83.383,-16.965 10.668,-5.019 c 0.117,-0.059 13.082,-6.407 17.41,-20.684 l 35.176,-172.89 c 0.406,-10.071 -5.145,-20.536 -7.617,-24.688 -4.711,3.535 -17.481,13.547 -23.063,22.207 l -93.074,203.945 c -2.551,8.594 3.246,22.094 5.715,26.614 l 4.054,7.422 -8.285,-1.688 -90.3122,-18.371 -8.9649,-1.828 7.4961,-5.242 c 0.1211,-0.09 12.6914,-9.075 15.1797,-21.719 l 0.0937,-3.379 -4.2109,-167.481 c -1.8828,-1.085 -5.3125,-2.777 -9.4648,-3.625 -7.4219,-1.503 -14.0313,0.286 -19.64457,5.313 L 0.492188,392.742 0.0351563,384.59 C -0.0078125,383.797 -0.933594,365.047 10.8906,352.48 c 5.918,-6.289 13.875,-9.875 23.6953,-10.664 l -0.25,-9.824 C 32.1914,319.48 21.2695,300.75 21.1563,300.566 l -4.4454,-7.597 8.6211,1.758 73.3438,14.921 5.8872,1.2 -3.458,4.914 c -0.097,0.144 -9.9878,14.304 -11.4019,26.109 l 0.5078,16.672 45.7071,29.785 15.637,-33.973 c 3.254,-11.3 -0.871,-28.234 -0.91,-28.41 l -1.493,-6.023 6.086,1.23 76.227,15.516 8.855,1.797 v 0 l 248.403,50.539 -12.614,61.988 23.356,30.188 86.621,-29.922 -47.219,80.859 35.274,45.617 c 4.742,-4.765 10.449,-8.222 16.148,-11.32 l 0.219,-0.117 0.234,-0.086 84.067,-32.531 c 3.691,-2.059 4.656,-3.719 5.129,-6.035 l 8.609,-42.305 -45.813,-9.317 -5.683,27.93 -0.426,2.102 -1.992,0.769 -50.293,19.68 -6.719,2.625 1.442,-7.07 15.14,-74.414 c 4.004,-19.688 22.828,-32.54 41.957,-28.641 l 81.156,16.512 c 16.567,3.371 28.778,18.711 28.438,35.722 0.039,2.707 -0.797,8.907 -1.258,11.164" /><path
         id="path180"
         style="fill:#0c2950;fill-opacity:1;fill-rule:nonzero;stroke:none"
         d="m 1138.7,660.145 -16.96,-14.715 -11.98,58.906 7.89,1.602 c 9.38,1.914 18.58,-4.172 20.48,-13.555 l 3.55,-17.438 c 1.4,-6.847 0.47,-11.41 -2.98,-14.8 z M 965.02,584.324 c -2.571,-0.527 -5.125,-1.172 -7.649,-1.953 l 1.402,37.641 16.106,-34.309 c -3.309,-0.254 -6.602,-0.715 -9.859,-1.379 z m 301.24,-60.789 -3.14,0.535 c -21.3,3.692 -34.76,29.075 -34.89,29.328 -18.28,32.832 -23.39,46.485 -23.39,46.485 -5.8,15.683 -13.2,26.722 -23.67,35.18 11.69,14.007 16.12,32.808 12.15,52.273 l -3.17,15.625 c -7.75,38.066 -45.02,62.734 -83.08,54.992 l -70.59,-14.359 -9.33,-1.903 7.97,-5.207 c 0.14,-0.089 13.29,-8.777 18.04,-20.203 l 35.32,-173.539 c 0.57,-13.008 -7.45,-26.406 -7.53,-26.543 l -0.39,-0.633 -1.25,0.664 c -0.16,0.094 -16.54,8.965 -24.28,20.723 l -77.139,164.434 c 0.101,12.551 6.968,25 7.035,25.125 l 4.144,7.437 -8.336,-1.699 -85.675,-17.426 -8.243,-1.679 6.598,-5.227 c 0.113,-0.09 10.809,-8.641 15.996,-19.688 l -6.769,-182.128 c -2.543,-14.032 -13.637,-28.516 -13.75,-28.661 l -5.344,-6.925 -6.75,4.316 c -0.141,0.09 -14.008,9.055 -18.481,20.918 l -31.5,154.824 17.004,3.473 c 12.078,0.41 22.582,-6.164 23.754,-6.918 l 10.571,-7.121 -1.793,8.801 -11.372,55.902 -0.777,3.832 -3.832,-0.781 -138.793,-28.239 -3.836,-0.781 0.785,-3.832 11.371,-55.898 1.786,-8.789 6.961,10.679 c 0.761,1.133 7.824,11.278 18.988,15.59 l 17.176,3.496 31.48,-154.66 c 0.543,-12.887 -8.711,-26.504 -8.805,-26.637 l -5.488,-7.98 9.488,1.934 73.989,15.05 9.468,1.934 v 0 l 7.825,1.59 70.984,14.433 7.152,1.465 -5.168,5.149 c -0.093,0.086 -9.449,9.597 -10.898,21.882 l 0.535,14.493 c 6.137,3.23 12.676,5.566 19.477,6.953 7.636,1.554 15.394,1.875 23.093,0.957 l 5.769,-12.293 c 3.49,-11.953 -1.89,-24.445 -1.94,-24.563 l -3.036,-6.914 7.386,1.496 70.2,14.286 1.93,0.39 6.82,1.387 3.79,0.773 67.42,13.719 8.74,1.777 -7.24,5.227 c -0.12,0.086 -12.77,9.324 -17.27,21.316 l -7.84,38.586 9.73,8.43 c 3.36,-1.672 6.4,-4.852 9.21,-9.641 l 8.23,-16.339 0.84,-1.942 12.62,-26.133 c 10.38,-20.175 24.23,-32.883 41.24,-37.832 9.41,-2.746 19.5,-3.058 29.99,-0.929 10.91,2.226 18.76,6.472 20.22,7.304 l 2.81,1.641 9.24,5.41 -10.54,1.828" /><path
         id="path182"
         style="fill:#0c2950;fill-opacity:1;fill-rule:nonzero;stroke:none"
         d="m 1870.58,679.434 -2.24,-2.594 -4.37,-5.094 -4.06,2.934 c -0.12,0.093 -12.75,9.332 -17.24,21.324 l -35.59,174.875 c -2.3,11.32 7.13,21.414 7.23,21.512 l 2.56,2.718 3.87,4.118 4.64,-2.286 3.05,-1.503 c -0.02,-0.004 11.8,-7.231 16.27,-19.125 l 35.12,-172.629 c 0.48,-12.512 -9.15,-24.133 -9.24,-24.25 z m -359.4,21.543 1.18,31.652 16.2,-34.555 z m 502.97,2.375 -11.44,56.261 -1.86,9.117 -6.89,-11.027 c -0.73,-1.098 -7.8,-11.57 -18.92,-15.867 l -46.89,-9.543 -9.64,47.402 35.14,7.153 2.96,0.601 0.17,3.02 2.26,41.32 0.28,5.055 -4.96,-1.004 -45.4,-9.238 -8.6,42.304 46.79,9.516 c 12.1,0.363 22.75,-6.731 23.74,-7.402 l 10.74,-7.793 -1.92,9.449 -11.5,56.484 -0.78,3.828 -3.83,-0.777 -137.27,-27.93 -1.02,-0.207 0.01,0.004 -12.08,-2.453 -70.59,-14.359 -2.76,-0.563 -0.34,-2.793 -16.77,-135.996 -68.53,118.637 -1.41,2.437 -2.76,-0.562 -70.62,-14.363 -12.02,-2.45 11.22,-4.961 3.38,-1.496 c 0.55,-0.234 12.78,-5.664 15.09,-16.996 l 35.56,-174.707 c 0.37,-8.394 -2.63,-16.984 -4.76,-21.945 -5.22,3.496 -14.14,10.211 -19.38,18.195 l -77.4,165.012 c 0.45,12.246 6.96,24.25 7.02,24.371 l 4.06,7.398 -8.27,-1.687 -85.67,-17.426 -8.32,-1.695 6.7,-5.223 c 0.12,-0.094 11.32,-8.922 16.3,-20.387 l -3.65,-98.031 c -1.03,-0.168 -2.02,-0.347 -3,-0.543 l -0.01,-0.004 c -13.56,-2.758 -22.96,-8.824 -27.96,-18.027 -7.98,-14.691 -1.42,-31.703 -1.14,-32.422 l 2.9,-7.344 4.09,6.754 c 3.17,5.254 7.8,8.535 13.76,9.746 3.73,0.754 7.3,0.559 9.8,0.219 l -1.55,-41.851 c -2.54,-13.895 -14.14,-28.407 -14.26,-28.555 l -6.8,-8.445 10.63,2.156 72.12,14.672 7.43,1.515 -5.53,5.18 c -0.1,0.09 -9.94,9.477 -11.39,21.848 l 1.07,28.324 42.5,-7.086 5.37,-11.445 c 3.46,-11.875 -1.43,-24.286 -1.48,-24.414 l -2.71,-6.739 7.11,1.442 70.99,14.441 11.5,2.34 -0.02,0.004 57.08,11.613 8.4,1.707 -6.8,5.227 c -0.12,0.093 -12.19,9.472 -16.7,21.523 l -15.78,77.578 57.39,-97.168 0.42,-0.707 1.41,-2.394 2.73,0.558 25.93,5.274 2.72,0.551 0.37,2.761 14.96,112.625 15.76,-77.359 c 0.56,-12.945 -7.44,-26.406 -7.52,-26.539 l -4.58,-7.621 8.71,1.765 71.17,14.485 2.51,0.508 -0.01,-0.004 11.18,2.273 139.01,28.281 3.83,0.782 -0.78,3.832" /><path
         id="path184"
         style="fill:#0c2950;fill-opacity:1;fill-rule:nonzero;stroke:none"
         d="m 1439.53,559.668 -40.2,196.953 -1.38,6.777 -5.1,-4.679 -73.3,-67.352 -7.99,-7.344 10.84,0.555 c 0.22,0.012 21.02,0.957 37.1,-8.301 l 9.98,-49.066 -31.75,-6.457 c -12.33,-2.508 -24.49,5.855 -27.09,18.652 l -24.22,119.102 c -2.61,12.801 5.31,25.25 17.64,27.762 l 31.75,6.457 7.46,-36.684 1.36,-6.672 5.08,4.535 40.9,36.485 1.68,1.496 -0.45,2.203 -12.74,62.574 -0.78,3.832 -3.83,-0.781 -81.98,-16.68 c -42.79,-8.707 -70.31,-51.664 -61.34,-95.765 l 24.24,-119.098 c 8.97,-44.102 51.08,-72.891 93.88,-64.188 l 33.48,6.817 c 21.46,4.363 40.64,-7.824 47.88,-13.274 l 2.9,-1.914 7.87,-5.195 -1.89,9.25" /><path
         id="path186"
         style="fill:#0c2950;fill-opacity:1;fill-rule:nonzero;stroke:none"
         d="m 1982.42,928.84 -2.21,-0.449 -0.4,1.902 1.82,0.367 c 0.78,0.16 1.74,0.356 1.92,-0.523 0.16,-0.836 -0.26,-1.121 -1.13,-1.297 z m 2.79,1.484 c -0.42,2.063 -1.71,2.156 -3.49,1.789 l -3.8,-0.773 1.58,-7.777 1.61,0.328 -0.63,3.121 1.37,0.277 2.43,-2.754 1.8,0.367 -2.51,2.739 c 1.33,0.375 1.93,1.265 1.64,2.683" /><path
         id="path188"
         style="fill:#0c2950;fill-opacity:1;fill-rule:nonzero;stroke:none"
         d="m 1983.04,922.203 c -3.2,-0.648 -6.31,1.336 -6.99,4.664 -0.69,3.375 1.41,6.383 4.61,7.031 3.16,0.645 6.31,-1.293 7,-4.668 0.68,-3.332 -1.46,-6.378 -4.62,-7.027 z m -2.72,13.367 c -4.16,-0.851 -6.76,-4.855 -5.91,-9.035 0.84,-4.133 4.8,-6.793 8.96,-5.941 4.15,0.844 6.75,4.828 5.91,8.965 -0.86,4.179 -4.81,6.855 -8.96,6.011" /><path
         id="path190"
         style="fill:#ed114c;fill-opacity:1;fill-rule:nonzero;stroke:none"
         d="m 1151.39,676.922 c 2.08,-10.215 0.19,-18.016 -5.76,-23.852 l -0.13,-0.129 -0.13,-0.117 -22.19,-19.265 -7.76,-6.743 -2.05,10.071 -14.1,69.304 -1.2,5.872 5.88,1.199 11.72,2.386 c 14.74,2.997 29.17,-6.554 32.17,-21.293 z m 68.03,-128.055 c 0,0 -15.45,25.293 -23.65,46.992 l -0.03,0.071 -0.12,0.316 c -5.7,15.5 -13,25.793 -23.68,33.375 l -5.7,4.055 4.87,5.019 c 11.57,11.883 16.12,28.895 12.5,46.668 l -3.18,15.621 c -6.65,32.715 -38.68,53.918 -71.39,47.262 l -58.3,-11.859 c 4.37,-4.324 9.08,-10.074 11.75,-16.739 l 0.2,-0.503 0.11,-0.528 35.45,-174.195 0.09,-0.43 0.02,-0.449 c 0.4,-7.656 -1.5,-15.223 -3.66,-21.133 l 47.98,9.766 c -4.29,4.562 -8.98,10.734 -11.58,17.859 l -0.15,0.422 -0.09,0.43 -8.36,41.113 -0.7,3.43 2.65,2.293 13.26,11.496 2.54,2.199 3.2,-1.016 c 6.99,-2.218 12.72,-7.558 17.52,-16.312 l 3.3,-6.707 7.3,-14.914 10.66,-22.039 c 8.97,-17.453 20.79,-28.481 35.07,-32.637 7.87,-2.297 16.36,-2.539 25.25,-0.734 2.24,0.461 4.32,1.007 6.21,1.593 -18.57,9.61 -29.21,29.961 -29.34,30.215" /><path
         id="path192"
         style="fill:#ed114c;fill-opacity:1;fill-rule:nonzero;stroke:none"
         d="m 435.699,398.758 1.922,18.945 -28.289,-5.762 -1.195,5.879 -20.782,102.11 -28.042,9.687 24.335,8.496 -8.062,39.61 -0.09,0.437 -0.023,0.442 c -0.41,7.656 1.472,15.23 3.593,21.125 l -47.253,-9.618 c 4.281,-4.3 8.652,-10.336 11.031,-18.332 l 0.078,-0.254 35.414,-174.062 0.019,-0.449 c 0.399,-7.649 -1.796,-15.246 -4.285,-21.223 l 102.965,20.949 -7.117,34.989 c -4.145,-4.2 -9.836,-8.477 -17.09,-10.829 l -17.129,-22.14" /><path
         id="path194"
         style="fill:#ed114c;fill-opacity:1;fill-rule:nonzero;stroke:none"
         d="m 1854.1,879.434 0.16,-0.422 0.09,-0.434 35.25,-173.215 0.09,-0.441 0.02,-0.449 c 0.41,-8.114 -2.22,-15.66 -5.11,-21.36 l 118.65,24.137 -7.53,37.016 c -4.12,-4.254 -10.01,-9.012 -17.49,-11.817 l -0.44,-0.164 -0.47,-0.094 -51.02,-10.382 -5.88,-1.196 -1.2,5.875 -11.2,55.067 -1.19,5.875 5.87,1.195 34.44,7.008 1.58,28.945 -41.61,-8.465 -5.88,-1.191 -1.19,5.871 -10.17,49.969 -1.2,5.871 5.88,1.195 50.95,10.367 0.47,0.094 0.48,0.024 c 8.03,0.324 15.33,-1.805 20.81,-4.153 l -7.56,37.141 -117.82,-23.969 c 4.45,-4.199 9.44,-10.223 12.22,-17.898" /><path
         id="path196"
         style="fill:#ed114c;fill-opacity:1;fill-rule:nonzero;stroke:none"
         d="m 848.754,493.035 -0.086,0.442 -32.34,158.949 -1.195,5.875 5.875,1.195 21.14,4.32 0.465,0.094 0.473,0.02 c 7.922,0.347 15.309,-1.657 20.875,-3.899 l -7.492,36.828 -127.039,-25.843 7.484,-36.793 c 4.207,4.203 10.16,8.894 17.52,11.656 l 0.445,0.164 0.465,0.098 21.328,4.336 5.871,1.195 1.195,-5.871 32.321,-158.789 0.089,-0.434 0.024,-0.445 c 0.406,-7.656 -1.793,-15.274 -4.285,-21.262 l 49.211,10.012 c -4.621,4.519 -9.598,10.613 -12.192,17.734 l -0.152,0.418" /><path
         id="path198"
         style="fill:#ed114c;fill-opacity:1;fill-rule:nonzero;stroke:none"
         d="m 946.918,567.93 0.34,9.109 2.215,59.453 0.922,24.707 10.503,-22.379 25.454,-54.25 4.003,-8.535 -9.425,-0.012 c -4.657,0 -9.344,-0.476 -13.938,-1.406 -3.922,-0.801 -7.816,-1.941 -11.578,-3.398 z m 54.542,-21.856 3.18,-0.469 1.37,-2.921 6.79,-14.485 0.19,-0.386 0.13,-0.411 c 2.35,-7.793 1.86,-15.547 0.74,-21.437 l 48.22,9.805 c -5.4,4.152 -11.39,9.66 -15.51,16.015 l -0.22,0.344 -0.17,0.367 -77.625,165.465 -0.547,1.168 -0.02,1.285 c -0.113,7.207 1.606,14.281 3.504,19.848 l -63.297,-12.879 c 3.743,-4.188 7.891,-9.703 10.645,-15.965 l 0.555,-1.258 -0.047,-1.379 -6.817,-183.324 -0.015,-0.41 -0.071,-0.391 c -1.312,-7.547 -4.582,-14.988 -7.804,-20.918 l 47.703,9.707 c -3.18,4.981 -6.528,11.914 -7.395,19.914 l -0.043,0.426 0.016,0.442 0.637,17.003 0.121,3.348 2.918,1.652 c 7.586,4.286 15.754,7.333 24.277,9.071 9.449,1.926 19.063,2.179 28.585,0.773" /><path
         id="path200"
         style="fill:#ed114c;fill-opacity:1;fill-rule:nonzero;stroke:none"
         d="m 1336.73,693.691 c 8.66,-1.144 19.75,-3.804 29.43,-9.863 l 2.19,-1.363 0.52,-2.524 11.1,-54.586 1.19,-5.875 -5.87,-1.195 -35.57,-7.242 c -17.7,-3.598 -35.09,8.242 -38.78,26.391 l -24.24,119.101 c -3.69,18.153 7.69,35.848 25.39,39.445 l 35.58,7.235 5.87,1.195 1.2,-5.871 6.16,-30.293 30.54,27.246 -10.85,53.321 -76.1,-15.485 c -37.44,-7.617 -61.49,-45.336 -53.61,-84.082 l 24.23,-119.101 c 7.89,-38.747 44.76,-64.071 82.2,-56.454 l 33.49,6.817 c 18.48,3.758 35.21,-2.617 46.15,-8.77 l -35.2,172.504 -55.02,-50.551" /><path
         id="path202"
         style="fill:#ed114c;fill-opacity:1;fill-rule:nonzero;stroke:none"
         d="m 1833.11,693.301 -0.1,0.433 -35.64,175.164 c -1.56,7.688 0.31,14.645 2.82,19.957 l -51.33,-10.437 -17.67,-143.301 -2.19,-17.769 -8.95,15.496 -72.23,125.015 -51.36,-10.453 c 4.38,-3.906 8.81,-9.582 10.38,-17.269 l 35.61,-174.996 0.09,-0.438 0.03,-0.441 c 0.4,-7.66 -1.37,-15.207 -3.38,-21.074 l 47.39,9.64 c -4.12,4.586 -8.68,10.793 -11.27,17.918 l -0.15,0.418 -0.09,0.438 -20.49,100.687 -7.12,34.988 18.17,-30.742 67.48,-114.242 17.54,3.57 17.48,131.465 4.69,35.375 7.12,-34.969 20.45,-100.461 0.09,-0.433 0.03,-0.445 c 0.41,-7.657 -1.51,-15.223 -3.65,-21.129 l 47.95,9.757 c -4.27,4.567 -8.97,10.731 -11.56,17.856 l -0.14,0.422" /><path
         id="path204"
         style="fill:#ed114c;fill-opacity:1;fill-rule:nonzero;stroke:none"
         d="m 1501.15,697.902 1.91,51.211 0.92,24.715 10.5,-22.39 26.22,-55.903 4.85,-10.336 -11.26,1.879 -28.13,4.688 -5.2,0.871 z m 54.48,-40.297 3.11,-0.515 1.34,-2.852 6.37,-13.57 0.18,-0.391 0.13,-0.422 c 2.32,-7.703 1.95,-15.39 0.97,-21.214 l 43.89,8.929 3.82,0.782 c -5.29,4.199 -11.21,9.769 -15.36,16.191 l -0.22,0.344 -0.17,0.367 -77.9,166.086 -0.59,1.25 0.02,1.379 c 0.09,6.84 1.75,13.535 3.57,18.851 l -63.31,-12.879 c 3.92,-4.375 8.28,-10.214 10.99,-16.894 l 0.48,-1.192 -0.05,-1.289 -3.8,-102.175 -0.19,-5.118 -5.09,-0.609 c -1.93,-0.23 -3.78,-0.527 -5.53,-0.883 -10.53,-2.14 -17.66,-6.508 -21.2,-12.984 -2.46,-4.508 -2.96,-9.531 -2.71,-13.828 3.4,2.386 7.3,4.058 11.6,4.933 7.7,1.563 14.65,0.2 17.28,-0.461 l 4.72,-1.187 -0.19,-4.852 -1.69,-45.48 -0.02,-0.41 -0.06,-0.399 c -1.31,-7.461 -4.68,-14.867 -8.02,-20.797 l 48.22,9.809 c -3.34,4.988 -6.83,11.93 -7.68,20.02 l -0.05,0.433 0.01,0.438 1.25,33.054 0.25,6.809 6.72,-1.117 48.91,-8.157" /><path
         id="path206"
         style="fill:#ed114c;fill-opacity:1;fill-rule:nonzero;stroke:none"
         d="m 340.117,405.32 c -4.215,-4.277 -10.004,-8.64 -17.445,-10.976 l -0.293,-0.086 -42.848,-8.723 -1.195,5.879 -32.551,159.902 -0.086,0.43 -0.023,0.449 c -0.41,7.657 1.469,15.227 3.594,21.125 l -47.258,-9.609 c 4.281,-4.316 8.652,-10.344 11.031,-18.34 l 0.078,-0.254 35.414,-174.074 0.02,-0.438 c 0.394,-7.648 -1.797,-15.246 -4.282,-21.222 l 102.965,20.945 -7.121,34.992" /><path
         id="path208"
         style="fill:#ed114c;fill-opacity:1;fill-rule:nonzero;stroke:none"
         d="m 123.219,427.469 -32.1018,-20.918 -9.5117,-6.199 0.2148,11.347 1.6914,89.344 0.5078,27.07 11,-24.746 30.4065,-68.418 2.086,-4.676 z m 16.918,-24.531 2.914,-6.329 17.652,-38.359 0.176,-0.383 0.121,-0.398 c 2.406,-8.02 1.867,-17.801 0.945,-24.805 l 54.813,11.152 c -6.039,5.129 -13.227,11.965 -17.305,18.418 l -0.215,0.34 -0.172,0.375 -93.3,204.434 -0.153,0.34 -0.109,0.343 c -2.43,7.696 -0.649,16.637 1.652,23.528 L 39.4727,577.828 c 4.2382,-4.898 8.664,-11.695 10.1601,-19.851 l 0.086,-0.457 0.0117,-0.461 0.1093,-3.797 0.004,-0.168 -0.004,-0.156 -4.2695,-169.688 -0.0703,-2.977 -2.4141,-1.75 c -0.6445,-0.468 -6.5117,-4.578 -14.8828,-6.281 -5.9922,-1.219 -11.7461,-0.887 -17.0586,0.949 1.0821,-4.597 3.1446,-9.843 7.0391,-13.953 4.7578,-5.031 11.6406,-7.609 20.4609,-7.648 l 6.1328,-0.027 -0.1523,-6.133 -0.3516,-13.965 -0.0117,-0.41 -0.0664,-0.403 C 42.9688,323.113 39.1758,314.043 35.7813,307 l 52.4765,10.676 c -3.4023,6.109 -7.5508,15 -8.4687,23.379 l -0.043,0.418 0.0117,0.422 0.5742,19.003 0.0938,3.145 2.6367,1.719 51.2385,33.379 5.836,3.797" /><path
         id="path210"
         style="fill:#ed114c;fill-opacity:1;fill-rule:nonzero;stroke:none"
         d="m 663.125,704.715 -81.707,-16.621 c -13.762,-2.801 -22.59,-16.719 -19.676,-31.024 l 11.363,-55.851 c 0.352,-1.699 1.133,-4.973 1.735,-6.461 l 0.043,-0.11 0.043,-0.117 c 3.394,-9.562 10.949,-14.386 19.769,-19.191 l 83.953,-32.488 0.368,-0.137 0.339,-0.188 c 5.993,-3.269 9.176,-7.246 10.325,-12.898 l 9.39,-46.152 1.2,-5.891 -5.895,-1.199 -53.512,-10.891 -5.89,-1.199 -1.2,5.898 -5.812,28.563 -36.953,14.465 12.937,-63.606 c 2.914,-14.304 16.477,-23.672 30.235,-20.871 l 81.152,16.508 c 11.953,2.43 20.758,13.543 20.481,25.84 l -0.008,0.136 0.008,0.137 c 0.031,1.531 -0.625,6.934 -1.055,9.051 l -13.52,66.426 c -2.476,12.199 -8.406,17.304 -19.898,23.39 l -84.68,32.758 -0.465,0.18 -0.429,0.254 c -6.805,4.035 -9.407,7.379 -10.707,13.773 l -6.68,32.813 -1.195,5.894 5.89,1.203 53.473,10.879 5.894,1.196 1.204,-5.895 6.125,-30.129 36.843,-14.414 -13.25,65.106 c -2.91,14.304 -16.472,23.668 -30.238,20.863" /><path
         id="path212"
         style="fill:#ffffff;fill-opacity:1;fill-rule:nonzero;stroke:none"
         d="m 2452.93,1021.89 c -5.88,3.89 -12.92,5.26 -19.82,3.86 l -397.56,-80.887 c -6.92,-1.41 -12.86,-5.418 -16.75,-11.297 -3.89,-5.878 -5.26,-12.918 -3.86,-19.828 l 36.17,-177.769 c 1.41,-6.903 5.41,-12.852 11.29,-16.742 5.88,-3.891 12.92,-5.258 19.84,-3.852 l 397.56,80.887 c 14.25,2.902 23.5,16.855 20.6,31.113 l -36.17,177.775 c -1.41,6.91 -5.42,12.85 -11.3,16.74" /><path
         id="path214"
         style="fill:#ed114c;fill-opacity:1;fill-rule:nonzero;stroke:none"
         d="m 2452.93,1021.89 c -5.88,3.89 -12.92,5.26 -19.82,3.86 l -111.16,-22.62 85.66,-93.677 5.99,0.457 4.41,-4.176 0.94,-4.621 4.28,0.11 4.7,-4.364 0.9,-4.386 4.29,0.117 c 0,0 5.03,-3.535 5.08,-3.789 -0.05,0.254 2.03,-9.973 2.03,-9.973 0,0 10.71,-6.445 19.39,-7.976 6.04,-1.043 8.61,-9.907 12.77,-14.129 5.78,-5.93 12.22,-7.653 11.8,-11.797 -0.79,-11.074 -7.93,-30.793 -17.72,-33.793 0,0 -24.83,-5.074 -39.45,-8.059 l 3.45,-16.851 49.33,10.039 c 14.25,2.902 23.5,16.855 20.6,31.113 l -36.17,177.775 c -1.41,6.91 -5.42,12.85 -11.3,16.74" /><path
         id="path216"
         style="fill:#0c2950;fill-opacity:1;fill-rule:nonzero;stroke:none"
         d="m 2284.06,995.422 -248.51,-50.559 c -6.92,-1.41 -12.86,-5.418 -16.75,-11.297 -3.89,-5.878 -5.26,-12.918 -3.86,-19.828 l 36.17,-177.769 c 1.41,-6.903 5.41,-12.852 11.29,-16.742 5.88,-3.891 12.92,-5.258 19.84,-3.852 l 161.43,32.848 c -5.42,5.918 -11.52,12.664 -13.41,14.711 l -19.22,-3.922 c -9.75,47.73 1.16,77.597 19.35,86.64 2.58,1.036 -1.32,13.938 -5.53,17.133 0,0 -9.2,-2.129 -11.25,-2.039 -2.58,0.231 -1.37,3.012 -1.37,3.012 l 5.04,21.32 -2.32,5.11 -33.36,-6.805 c -0.49,-0.098 23.6,24.847 23.6,24.847 -8.88,50.954 42.19,65.43 77.88,50.899 21.04,-8.649 27.47,-32.699 29.49,-50.043 -0.05,-1.027 -4.83,-1.234 -4.83,-1.234 0,0 0.62,-19.157 8.89,-17.461 l 36.53,7.445 c 14.76,3.516 31.16,-3.535 31.16,-3.535 l 1.07,13.402 -101.33,87.719" /><path
         id="path218"
         style="fill:#ffffff;fill-opacity:1;fill-rule:nonzero;stroke:none"
         d="m 2102.38,757.578 c -9.8,-2.004 -19.37,4.324 -21.37,14.129 -2,9.805 4.32,19.371 14.14,21.379 9.8,2 19.36,-4.328 21.36,-14.133 2.01,-9.808 -4.32,-19.379 -14.13,-21.375" /><path
         id="path220"
         style="fill:#ed114c;fill-opacity:1;fill-rule:nonzero;stroke:none"
         d="m 2511.64,795.32 -2.26,-0.457 -0.4,1.953 1.88,0.379 c 0.8,0.168 1.8,0.368 1.98,-0.523 0.18,-0.852 -0.25,-1.156 -1.2,-1.352 z m 2.91,1.539 c -0.44,2.164 -1.8,2.215 -3.63,1.84 l -3.93,-0.801 1.63,-8.007 1.7,0.343 -0.64,3.188 1.37,0.281 2.5,-2.812 1.89,0.382 -2.56,2.801 c 1.36,0.371 1.96,1.317 1.67,2.785" /><path
         id="path222"
         style="fill:#ed114c;fill-opacity:1;fill-rule:nonzero;stroke:none"
         d="m 2512.29,788.465 c -3.29,-0.668 -6.49,1.371 -7.19,4.805 -0.71,3.488 1.44,6.625 4.72,7.289 3.31,0.675 6.58,-1.36 7.28,-4.844 0.7,-3.438 -1.5,-6.574 -4.81,-7.25 z m -2.81,13.789 c -4.27,-0.875 -6.97,-4.984 -6.08,-9.332 0.86,-4.231 4.95,-7.012 9.23,-6.141 4.29,0.875 7.01,5.039 6.15,9.274 -0.89,4.343 -5,7.066 -9.3,6.199" /></g></g></svg>