<svg width="780" height="671" viewBox="0 0 780 671" xmlns="http://www.w3.org/2000/svg" xmlns:xlink="http://www.w3.org/1999/xlink"><title>diamond_1b_2b</title><defs><path id="a" d="M216.165 245.021l342.996 2.539 2.023 342.792-344.984.72z"/><mask id="f" x="-4" y="-4" width="353.018" height="354.05"><path fill="#fff" d="M212.165 241.021h353.018v354.05H212.165z"/><use xlink:href="#a"/></mask><path id="b" d="M179.555 331.3l169.803 1.256 1 169.702-170.785.356z"/><mask id="g" x="-4" y="-4" width="178.804" height="179.314"><path fill="#fff" d="M175.555 327.3h178.804v179.314H175.555z"/><use xlink:href="#b"/></mask><path id="c" d="M303.504 209.3l169.802 1.256 1.001 169.702-170.786.356z"/><mask id="h" x="-4" y="-4" width="178.804" height="179.314"><path fill="#fff" d="M299.504 205.3h178.804v179.314H299.504z"/><use xlink:href="#c"/></mask><path id="d" d="M427.555 331.3l169.803 1.256 1 169.702-170.785.356z"/><mask id="i" x="-4" y="-4" width="178.804" height="179.314"><path fill="#fff" d="M423.555 327.3h178.804v179.314H423.555z"/><use xlink:href="#d"/></mask><path id="e" d="M303.555 455.3l169.803 1.256 1 169.702-170.785.356z"/><mask id="j" x="-4" y="-4" width="178.804" height="179.314"><path fill="#fff" d="M299.555 451.3h178.804v179.314H299.555z"/><use xlink:href="#e"/></mask></defs><g fill="none" fill-rule="evenodd"><path d="M777.729 278.912l-386.69 388.4-388.235-388.4s17.117-52.242 61.48-110.719c8.852-11.67 33.965-43.22 63.876-68.912 29.911-25.691 62.338-43.702 71.92-48.834 19.546-10.467 48.698-22.43 70.27-29.23C309.705 8.809 353.41 2.563 381.896 2.563c29.474 0 70.513 2.492 113.883 14.154 43.37 11.662 101.084 37.529 144.19 73.082 32.406 26.728 65.874 61.564 88.394 94.578 11.173 16.38 24.973 39.317 34.469 58.736 9.496 19.42 14.897 35.8 14.897 35.8z" stroke="#070707" stroke-width="4" fill="#F5F5F5"/><g transform="rotate(-45 392.089 416.632)"><use fill="#F5F5F5" xlink:href="#a"/><use stroke="#070707" mask="url(#f)" stroke-width="8" xlink:href="#a"/></g><g transform="scale(-1 1) rotate(-45 1.414 1060.034)"><use fill="#BA0021" xlink:href="#b"/><use stroke="#070707" mask="url(#g)" stroke-width="8" xlink:href="#b"/></g><g transform="rotate(-45 392.32 293.543)"><use fill="#BA0021" xlink:href="#c"/><use stroke="#070707" mask="url(#h)" stroke-width="8" xlink:href="#c"/></g><g transform="rotate(-45 516.371 415.543)"><use fill="#BA0021" xlink:href="#d"/><use stroke="#070707" mask="url(#i)" stroke-width="8" xlink:href="#d"/></g><g transform="scale(1 -1) rotate(-45 -918.443 -3.414)"><use fill="#F5F5F5" xlink:href="#e"/><use stroke="#070707" mask="url(#j)" stroke-width="8" xlink:href="#e"/></g></g></svg>