<?xml version="1.0" encoding="utf-8"?>
<!-- Generator: Adobe Illustrator 23.0.2, SVG Export Plug-In . SVG Version: 6.00 Build 0)  -->
<svg version="1.1" id="Layer_1" xmlns="http://www.w3.org/2000/svg" xmlns:xlink="http://www.w3.org/1999/xlink" x="0px" y="0px"
	 viewBox="0 0 108 178.22" style="enable-background:new 0 0 108 178.22;" xml:space="preserve">
<g>
	<g>
		<g>
			<g>
				<path style="fill:#FFFFFF;" d="M95.591,150.725l0-10.518h0l0,0c0-1.811-1.775-3.23-5.566-4.428v-0.809
					c0-1.379-1.314-2.168-2.323-2.6c-0.202-0.564-0.662-1.189-1.604-1.774c-0.249-0.154-0.534-0.313-0.851-0.475
					c-0.264-1.056-1.079-2.063-2.565-2.541c-2.27-3.577-4.316-6.849-6.238-9.975c-0.037-0.181-1.228-2.174-1.275-2.261l-0.291-0.465
					l0.161,1.579h0h0c-1.033,0-4.31,2.572-4.587,3.05l-0.403,0.698l-1.162-1.837l1.487,2.561c1.012,1.787,2.035,3.612,3.096,5.522
					c-6.449-1.369-13.504-2.138-19.802-2.138c-7.639,0-14.492,1.053-19.056,1.984c0.742-1.336,2.565-4.539,3.628-6.412l0.251-1.284
					c0-0.857-0.84,0.713-3.077-0.523c-1.977-1.092-2.386-1.174-2.784-1.174h-0.001c-0.282,0-0.546,0.078-0.771,0.216
					c-1.897,3.062-4.673,7.508-6.425,10.271c-1.394,0.239-2.199,0.854-2.643,1.367c-0.347,0.4-0.586,0.867-0.708,1.365
					c-0.315,0.16-0.598,0.318-0.846,0.472c-0.942,0.584-1.402,1.21-1.604,1.774c-1.009,0.431-2.323,1.221-2.323,2.599v0.211l0,0.001
					v0.597c-3.791,1.199-5.567,2.617-5.567,4.428l0,0.392h0v10.126c-0.841,0.747-1.267,1.579-1.267,2.479
					c0,1.81,1.389,4.462,13.396,6.574c7.972,1.402,18.554,2.175,29.796,2.175c11.243,0,21.824-0.772,29.796-2.175
					c12.007-2.112,13.396-4.764,13.396-6.574C96.858,152.304,96.432,151.473,95.591,150.725z"/>
			</g>
			<g>
				<path style="fill:#FFFFFF;" d="M8.25,1.396c1.233,0,2.559,0.818,4.027,3.504c0.744,1.363,6.066,10.29,13.138,22.581
					l6.211,10.319l24.081,45.588l21.731-46.911c0.678-1.195,1.348-2.372,2.007-3.527l11.716-20.243
					c2.509-4.285,4.165-7.091,4.556-7.807c1.468-2.688,2.793-3.505,4.027-3.505c1.259,0,2.422,0.852,3.544,1.437
					c1.941,1.288,4.745,2.261,2.449,6.6L91.303,33.373L57.122,86.344l4.564,8.64H56.33c-0.772-1.182-1.551-2.355-2.333-3.517
					c-0.225,0.335-0.447,0.676-0.672,1.013l-1.701,2.504h-5.318c1.113-2.059,2.202-4.126,3.258-6.187l0.086-0.02
					c-2.998-4.931-23.967-40.858-24.105-40.858h0l-1.619-2.492l-9.434-15.49L2.857,10.46C-0.462,5.237,2.62,4.217,4.706,2.832
					C5.828,2.248,6.991,1.396,8.25,1.396 M8.25,0c-1.36,0-2.504,0.648-3.513,1.22C4.51,1.35,4.285,1.478,4.061,1.594L3.996,1.628
					L3.934,1.669c-0.21,0.14-0.431,0.275-0.654,0.412C2.058,2.83,0.538,3.763,0.109,5.622c-0.355,1.538,0.158,3.365,1.57,5.587
					l11.613,19.444l9.441,15.5l1.641,2.527l0.231,0.356c1.155,1.882,6.875,11.627,11.965,20.298
					c4.714,8.031,9.574,16.311,11.441,19.429c-0.94,1.824-1.925,3.69-2.934,5.557l-1.113,2.06h2.342h5.41h0.763l0.412-0.641
					l1.119-1.741c0.385,0.581,0.77,1.164,1.152,1.75l0.413,0.632h0.755h5.501h2.316l-1.082-2.048l-4.183-7.919l33.595-52.285
					l14.454-23.975l0.02-0.033l0.018-0.034c2.645-4.997-0.424-6.88-2.257-8.005c-0.223-0.137-0.443-0.272-0.653-0.411l-0.061-0.041
					l-0.065-0.034c-0.224-0.117-0.449-0.245-0.676-0.374C102.247,0.649,101.103,0,99.743,0c-1.978,0-3.696,1.384-5.252,4.231
					c-0.274,0.502-1.231,2.134-2.679,4.604l-1.856,3.167L78.236,32.251c-0.664,1.163-1.334,2.342-2.013,3.537l-0.028,0.05
					l-0.024,0.052L55.624,80.244L32.86,37.149l-0.018-0.035l-0.02-0.033l-6.211-10.319c-4.317-7.504-7.954-13.706-10.361-17.81
					c-1.487-2.536-2.469-4.211-2.748-4.721C11.946,1.384,10.228,0,8.25,0L8.25,0z"/>
			</g>
		</g>
		<g>
			<polygon style="fill:#DBD9D6;" points="80.516,32.145 77.602,37.714 82.772,36.492 85.899,30.861 			"/>
			<polygon style="fill:#DBD9D6;" points="29.631,43.474 31.939,47.789 35.315,46.932 33.52,42.832 			"/>
			<path style="fill:#BDBBBB;" d="M36.234,46.526l-1.333,0.395c-0.512-0.917-1.6-2.862-2.105-3.763l-2.452,0.382l2.394,4.125
				l-3.703,0.733c-0.7,0.013-0.292,0.309-1.054,0.479l-1.076-0.365c-0.132,0.03-0.635,0.331-0.765,0.365l-2.216-3.451l10.486-2.352
				L36.234,46.526z"/>
			<path style="fill:#BDBBBB;" d="M12.276,4.901c-2.967-5.43-5.35-3.225-7.57-2.068C2.62,4.217-0.462,5.237,2.857,10.46
				l11.633,19.477l10.924-2.455C18.342,15.19,13.021,6.263,12.276,4.901"/>
			<polygon style="fill:#999899;" points="32.738,47.665 30.572,43.933 28.122,44.484 30.43,48.398 			"/>
			<path style="fill:#999899;" d="M21.528,28.356L6.901,3.159C6.636,3.293,6.365,3.445,6.088,3.603
				C5.853,3.736,5.62,3.868,5.389,3.99C5.171,4.134,4.943,4.273,4.713,4.415C4.659,4.447,4.611,4.478,4.559,4.51l14.397,24.424
				L21.528,28.356z"/>
			<path style="fill:#DBD9D6;" d="M24.058,27.787c-3.959-6.88-7.206-12.422-9.124-15.695c-1.252-2.136-3.536-6.003-3.834-6.548
				c-0.677-1.238-1.704-2.73-2.753-2.802C7.909,2.711,7.42,2.896,6.901,3.159l14.628,25.197L24.058,27.787z"/>
			<path style="fill:#BDBBBB;" d="M103.287,2.833c-2.22-1.157-4.603-3.363-7.571,2.068c-0.391,0.716-2.047,3.521-4.556,7.807
				l14.575-3.275C108.032,5.094,105.228,4.121,103.287,2.833"/>
			<path style="fill:#BDBBBB;" d="M76.794,37.609c0.678-1.195,1.992-3.503,2.651-4.658l1.757-0.395
				c-0.657,1.15-1.931,3.385-2.613,4.587l-1.272,0.571L76.794,37.609z"/>
			<polygon style="fill:#BDBBBB;" points="87.772,31.079 85.124,35.571 90.591,34.487 93.604,29.769 			"/>
			<path style="fill:#999899;" d="M99.738,10.78l3.696-6.271c-0.052-0.032-0.099-0.062-0.153-0.095
				c-0.23-0.141-0.459-0.281-0.677-0.425c-0.231-0.122-0.464-0.254-0.699-0.387c-0.277-0.157-0.548-0.31-0.813-0.444l-4.885,8.414
				L99.738,10.78z"/>
			<polygon style="fill:#999899;" points="85.075,35.655 87.772,31.08 84.45,31.825 81.902,36.216 			"/>
			<path style="fill:#DBD9D6;" d="M96.207,11.573l4.885-8.414c-0.519-0.263-1.008-0.448-1.445-0.418
				c-1.05,0.072-2.077,1.564-2.753,2.803c-0.298,0.545-2.583,4.412-3.834,6.548c-0.042,0.071-0.084,0.144-0.128,0.217L96.207,11.573
				z"/>
			<path style="fill:#BDBBBB;" d="M84.633,144.526v10.044c-1.6,0.312-3.369,0.601-5.286,0.861v-10.044
				c-6.991,0.947-15.934,1.515-25.681,1.515c-2.81,0-5.552-0.047-8.2-0.137v10.044c-1.809-0.061-3.573-0.143-5.286-0.242v-10.044
				c-1.728-0.1-3.403-0.219-5.014-0.356v10.044c-4.239-0.36-8.042-0.839-11.249-1.412c-2.133-0.38-4.001-0.802-5.556-1.256v-10.044
				c-3.325-0.971-5.224-2.094-5.224-3.29v11.744c0,3.697,18.146,6.695,40.529,6.695c22.383,0,40.528-2.997,40.528-6.695v-11.744
				C94.195,141.853,90.598,143.36,84.633,144.526"/>
			<path style="fill:#807F83;" d="M21.953,136.885v3.668c1.309,0.366,2.98,0.705,4.955,1.01v-3.669
				c6.413,0.991,16.02,1.621,26.759,1.621c19.309,0,34.961-2.035,34.961-4.545c0-0.56-0.78-1.096-2.204-1.591
				c-0.659,2.648-13.226,5.053-32.757,5.053c-19.531,0-32.098-2.406-32.758-5.053c-1.424,0.495-2.204,1.031-2.204,1.591
				C18.704,135.654,19.87,136.303,21.953,136.885"/>
			<path style="fill:#FFFFFF;" d="M45.466,156.808v-10.044c-1.809-0.061-3.573-0.143-5.286-0.242v10.044
				C41.893,156.665,43.657,156.746,45.466,156.808"/>
			<path style="fill:#FFFFFF;" d="M84.633,154.569v-10.044c-1.6,0.313-3.369,0.602-5.286,0.861v10.044
				C81.264,155.17,83.033,154.882,84.633,154.569"/>
			<path style="fill:#BDBBBB;" d="M18.705,134.97v3.668c0,0.685,1.164,1.334,3.249,1.916v-3.669
				C19.868,136.303,18.705,135.654,18.705,134.97"/>
			<path style="fill:#BDBBBB;" d="M36.936,142.63c1.432,0.102,2.926,0.191,4.471,0.266v-3.668c-1.545-0.075-3.038-0.165-4.471-0.266
				V142.63z"/>
			<path style="fill:#BDBBBB;" d="M46.12,139.408v3.668c2.431,0.07,4.955,0.106,7.546,0.106c8.647,0,16.56-0.408,22.663-1.084
				v-3.668c-6.103,0.676-14.016,1.084-22.663,1.084C51.075,139.515,48.55,139.478,46.12,139.408"/>
			<path style="fill:#BDBBBB;" d="M81.042,137.797v3.668c4.749-0.776,7.586-1.758,7.586-2.827v-3.668
				C88.628,136.039,85.79,137.021,81.042,137.797"/>
			<path style="fill:#807F83;" d="M18.361,143.496v10.044c1.556,0.454,3.424,0.876,5.557,1.256v-10.044
				c7.403,1.321,17.99,2.148,29.748,2.148c22.383,0,40.528-2.997,40.528-6.694c0-1.236-2.03-2.394-5.567-3.388v1.819v1.417
				c0,2.51-15.653,4.544-34.961,4.544s-34.961-2.035-34.961-4.544v-3.236c-3.536,0.993-5.567,2.151-5.567,3.388
				C13.138,141.402,15.037,142.524,18.361,143.496"/>
			<path style="fill:#807F83;" d="M94.195,151.402v0.549c0,3.697-18.145,6.695-40.528,6.695s-40.529-2.997-40.529-6.695v-0.549
				c-0.826,0.577-1.267,1.18-1.267,1.802c0,4.061,18.712,7.352,41.796,7.352c23.083,0,41.795-3.292,41.795-7.352
				C95.462,152.582,95.021,151.979,94.195,151.402"/>
			<path style="fill:#807F83;" d="M21.953,136.885v3.668c1.309,0.366,2.98,0.705,4.955,1.01v-3.669
				c6.413,0.991,16.02,1.621,26.759,1.621c19.309,0,34.961-2.035,34.961-4.545c0-0.56-0.78-1.096-2.204-1.591
				c-0.659,2.648-13.226,5.053-32.757,5.053c-19.531,0-32.098-2.406-32.758-5.053c-1.424,0.495-2.204,1.031-2.204,1.591
				C18.704,135.654,19.87,136.303,21.953,136.885"/>
			<path style="fill:#FFFFFF;" d="M46.12,143.077v-3.668c-1.616-0.046-3.189-0.107-4.712-0.182v3.669
				C42.931,142.969,44.504,143.03,46.12,143.077"/>
			<path style="fill:#FFFFFF;" d="M81.042,141.465v-3.668c-1.41,0.23-2.99,0.443-4.713,0.633v3.668
				C78.052,141.908,79.631,141.695,81.042,141.465"/>
			<path style="fill:#999899;" d="M23.918,154.796c3.207,0.572,7.01,1.052,11.248,1.412v-10.044
				c-4.238-0.359-8.041-0.839-11.248-1.412V154.796z"/>
			<path style="fill:#999899;" d="M53.666,143.183c-6.061,0-11.76-0.201-16.73-0.553v-3.669c-3.836-0.272-7.236-0.635-10.029-1.067
				v3.669c-5.118-0.791-8.203-1.811-8.203-2.925v1.417c0,2.51,15.653,4.545,34.962,4.545c19.309,0,34.961-2.035,34.961-4.545v-1.417
				C88.628,141.148,72.975,143.183,53.666,143.183"/>
			<path style="fill:#BDBBBB;" d="M85.361,131.783c-0.381-0.236-0.857-0.484-1.42-0.739c0.078-0.99-0.592-1.941-2.145-2.252
				c-2.048-3.223-4.345-6.874-6.762-10.812c0.489-0.771,0.772-1.684,0.772-2.661V99.969c0-0.434-0.066-0.877-0.202-1.351
				c-0.236-0.835-0.672-1.588-1.261-2.178c-0.942-0.939-2.193-1.457-3.524-1.457h-9.132l-4.226-7.996l-5.813,1.34l-3.026,5.213
				c0.883-1.673,1.767-3.382,2.648-5.128l-1.707,0.384c-1.056,2.061-2.145,4.127-3.258,6.187h-9.809
				c-1.154,0-2.244,0.395-3.154,1.142l1.168,1.168c-0.044,0.032-0.088,0.064-0.13,0.098c-0.521,0.428-0.906,1.004-1.095,1.671
				c-0.081,0.29-0.139,0.59-0.139,0.906v10.65v3.323v1.375c0,1.847,1.499,3.347,3.35,3.347h34.323c0.924,0,1.762-0.374,2.368-0.981
				l1.157,1.157c-0.064,0.064-0.129,0.125-0.196,0.185l5.827,9.991c-0.426,0.405-0.924,0.743-1.404,1.017
				c-1.595-2.918-3.526-6.408-5.666-10.189c-0.419,0.194-0.87,0.331-1.342,0.402c0.008-0.002,0.017-0.002,0.025-0.004
				c1.649,2.911,3.196,5.693,4.618,8.275c-6.13-1.537-14.311-2.807-22.539-2.807c-7.891,0-15.739,1.169-21.776,2.62
				c1.384-2.512,2.885-5.21,4.482-8.03c0.041,0.002,0.082,0.002,0.124,0.002c-0.534,0-1.048-0.084-1.53-0.24
				c-2.092,3.698-3.979,7.109-5.543,9.972c-0.482-0.274-0.979-0.612-1.405-1.017l5.612-9.623c-0.4-0.282-0.757-0.621-1.059-1.006
				c0.025,0.033,0.051,0.065,0.077,0.096c-2.281,3.709-4.449,7.154-6.393,10.216c-2.066,0.132-2.952,1.212-2.863,2.343
				c-0.563,0.255-1.04,0.503-1.42,0.739c-5.142,3.189,8.268,6.648,31.695,6.648C77.093,138.431,90.504,134.972,85.361,131.783
				 M51.663,94.983c0.772-1.182,1.551-2.355,2.334-3.517c0.782,1.161,1.561,2.335,2.333,3.517H51.663z"/>
			<path style="fill:#FFFFFF;" d="M74.169,110.619v-10.65c0-0.317-0.057-0.615-0.141-0.906c-0.158-0.559-0.443-1.064-0.842-1.464
				c-0.607-0.605-1.445-0.978-2.368-0.978H36.497c-0.807,0-1.538,0.296-2.115,0.771c-0.522,0.428-0.906,1.004-1.095,1.671
				c-0.081,0.291-0.139,0.59-0.139,0.906v10.65v3.323v1.376c0,1.846,1.499,3.347,3.35,3.347h34.323c1.849,0,3.35-1.5,3.35-3.347
				v-1.29V110.619z"/>
			<path style="fill:#E31937;" d="M72.397,98.394c-0.421-0.424-0.979-0.658-1.578-0.658h-9.595l5.52,9.21l0.507,0.066l0.294,0.419
				v0.401l0.359,0.061l0.315,0.444v0.377l0.358,0.064c0,0,0.356,0.377,0.356,0.398c0-0.021,0.001,0.863,0.001,0.863
				s0.778,0.715,1.474,0.987c0.482,0.188,0.544,0.965,0.82,1.388c0.377,0.589,0.882,0.839,0.778,1.177
				c-0.252,0.904-1.177,2.418-2.039,2.503c0,0-2.146,0-3.406,0.001v1.457h4.258c1.233,0,2.235-1.004,2.235-2.232V99.97
				C73.053,99.372,72.819,98.812,72.397,98.394"/>
			<path style="fill:#002B5C;" d="M49.572,116.103l-1.663,0.001c-0.001-4.12,1.405-6.414,3.067-6.856
				c0.229-0.04,0.126-1.178-0.168-1.515c0,0-0.8,0.023-0.969-0.018c-0.21-0.065-0.062-0.275-0.062-0.275l0.775-1.684l-0.103-0.462
				h-2.88c-0.042,0,2.373-1.66,2.373-1.66c0.123-4.373,4.604-4.712,7.316-2.905c1.6,1.073,1.727,3.174,1.602,4.646
				c-0.024,0.084-0.422,0.023-0.422,0.023s-0.271,1.596,0.444,1.596h3.154c1.281-0.045,2.523,0.817,2.523,0.817l0.314-1.094
				l-6.922-8.98H36.496c-0.597,0-1.16,0.233-1.578,0.657c-0.423,0.419-0.655,0.978-0.655,1.576v15.348
				c0,0.596,0.232,1.157,0.655,1.578c0.418,0.423,0.981,0.654,1.578,0.654h13.938C50.084,116.967,49.692,116.304,49.572,116.103
				 M38.875,111.326c0.848,0,1.534,0.685,1.537,1.531c0,0.845-0.686,1.533-1.533,1.535c-0.848,0-1.532-0.687-1.534-1.534
				C37.344,112.013,38.03,111.326,38.875,111.326"/>
			<path style="fill:#E20074;" d="M14.491,29.937c2.821,4.685,6.016,9.947,9.434,15.49l69.679-15.658l12.131-20.336L14.491,29.937z"
				/>
			<polygon style="fill:#FFFFFF;" points="29.632,36.951 31.652,36.501 31.652,34.504 29.632,34.954 			"/>
			<polygon style="fill:#FFFFFF;" points="35.759,35.587 37.777,35.137 37.777,33.14 35.759,33.589 			"/>
			<polygon style="fill:#FFFFFF;" points="41.815,34.238 43.833,33.789 43.833,31.792 41.815,32.241 			"/>
			<polygon style="fill:#FFFFFF;" points="47.871,32.89 49.889,32.44 49.889,30.443 47.871,30.892 			"/>
			<path style="fill:#FFFFFF;" d="M55.456,34.525l2.553-9.215v6.793c0,0.741-0.043,1.022-0.216,1.232
				c-0.131,0.157-0.433,0.311-0.765,0.384l-0.13,0.029v0.456l3.606-0.803v-0.456l-0.188,0.042c-0.331,0.074-0.635,0.056-0.764-0.043
				c-0.173-0.134-0.216-0.395-0.216-1.136v-5.809c0-0.742,0.043-1.022,0.216-1.231c0.144-0.162,0.433-0.311,0.764-0.384l0.188-0.042
				v-0.457l-2.798,0.623L55.6,31.981l-2.062-6.547l-2.785,0.62v0.457l0.26-0.058c0.765-0.17,0.909-0.031,0.909,0.925v5.522
				c0,0.885-0.043,1.238-0.173,1.537c-0.144,0.304-0.447,0.557-0.764,0.627l-0.232,0.052v0.456l2.971-0.662v-0.455l-0.187,0.041
				c-0.375,0.084-0.678-0.006-0.85-0.254c-0.173-0.245-0.217-0.493-0.217-1.464v-6.236l2.538,8.082L55.456,34.525"/>
			<path style="fill-rule:evenodd;clip-rule:evenodd;fill:#FFFFFF;" d="M63.544,26.417c0.52-0.115,0.966,0.098,1.212,0.586
				c0.23,0.447,0.331,1.11,0.331,2.095c0,2.026-0.504,3.138-1.528,3.366c-1.025,0.229-1.513-0.662-1.513-2.716
				c0-0.957,0.099-1.65,0.33-2.215C62.607,26.969,63.067,26.524,63.544,26.417 M63.602,25.947c-1.789,0.398-2.957,2.029-2.957,4.156
				c0,2.068,1.168,3.207,2.914,2.819c1.758-0.392,2.926-2.051,2.926-4.134C66.485,26.718,65.317,25.565,63.602,25.947"/>
			<path style="fill-rule:evenodd;clip-rule:evenodd;fill:#FFFFFF;" d="M70.381,24.994c0.922-0.205,1.398,0.659,1.398,2.544
				c0,1.969-0.489,3.105-1.427,3.314c-1.041,0.232-1.588-0.688-1.588-2.6c0-0.942,0.13-1.642,0.435-2.209
				C69.47,25.497,69.932,25.095,70.381,24.994 M68.88,21.918l-2.048,0.556v0.443l0.101-0.023c0.606-0.135,0.736,0.035,0.736,0.978
				v6.521c0,0.828-0.029,1.063-0.144,1.444l0.475-0.106c0.361-0.65,0.448-0.769,0.592-0.801c0.072-0.016,0.143-0.004,0.247,0.058
				c0.705,0.413,1.008,0.476,1.657,0.33c1.557-0.346,2.682-2.082,2.682-4.151c0-1.968-1.037-3.065-2.596-2.718
				c-0.807,0.179-1.399,0.683-1.701,1.449V21.918z"/>
			<path style="fill-rule:evenodd;clip-rule:evenodd;fill:#FFFFFF;" d="M75.153,20.551c-0.446,0.099-0.807,0.522-0.807,0.964
				c0,0.428,0.361,0.704,0.793,0.608c0.447-0.099,0.792-0.519,0.792-0.961C75.932,20.733,75.586,20.454,75.153,20.551
				 M75.845,23.322L73.74,23.89v0.444l0.16-0.036c0.605-0.134,0.735,0.036,0.735,0.977v3.382c0,0.942-0.13,1.186-0.735,1.321
				l-0.232,0.052v0.44l3.145-0.7v-0.44l-0.232,0.052c-0.605,0.134-0.737-0.036-0.737-0.993V23.322z"/>
			<path style="fill:#FFFFFF;" d="M79.494,19.555l-2.106,0.569v0.443l0.158-0.036c0.606-0.135,0.736,0.036,0.736,0.978v6.335
				c0,0.956-0.13,1.186-0.736,1.321l-0.231,0.052v0.441l3.145-0.7v-0.441l-0.231,0.052c-0.606,0.135-0.735-0.037-0.735-0.993V19.555
				"/>
			<path style="fill-rule:evenodd;clip-rule:evenodd;fill:#FFFFFF;" d="M82.263,24.732c0.014-1.502,0.519-2.556,1.326-2.736
				c0.807-0.18,1.284,0.627,1.269,2.158L82.263,24.732 M86.2,24.355c-0.072-2.096-1.111-3.192-2.684-2.842
				c-1.514,0.337-2.61,2.023-2.61,4.021c0,2.156,1.082,3.284,2.754,2.911c1.082-0.242,1.831-0.965,2.452-2.344l-0.432-0.132
				c-0.505,1.169-1.009,1.695-1.789,1.868c-1.139,0.254-1.629-0.523-1.644-2.602L86.2,24.355z"/>
			<polygon style="fill:#FFFFFF;" points="87.917,23.972 89.936,23.523 89.936,21.526 87.917,21.975 			"/>
			<path style="fill:#FFFFFF;" d="M89.938,19.801h0.099c0.103,0,0.153,0.04,0.153,0.118c0,0.084-0.054,0.126-0.163,0.126h-0.089
				V19.801 M90.189,20.142c0.11-0.044,0.166-0.121,0.166-0.227c0-0.077-0.031-0.141-0.088-0.187
				c-0.061-0.046-0.136-0.069-0.227-0.069h-0.275v0.868h0.172v-0.346h0.099l0.231,0.346h0.192L90.189,20.142z M89.477,19.527
				c-0.159,0.158-0.238,0.345-0.238,0.567c0,0.22,0.079,0.411,0.238,0.568c0.16,0.159,0.349,0.236,0.571,0.236
				c0.224,0,0.414-0.077,0.572-0.236c0.159-0.157,0.239-0.348,0.239-0.568c0-0.22-0.08-0.409-0.239-0.563
				c-0.158-0.156-0.348-0.235-0.572-0.235C89.826,19.295,89.634,19.374,89.477,19.527 M89.58,20.56
				c-0.131-0.127-0.194-0.283-0.194-0.463s0.064-0.335,0.195-0.463c0.129-0.13,0.283-0.193,0.467-0.193
				c0.182,0,0.34,0.063,0.469,0.193c0.131,0.128,0.196,0.283,0.196,0.463c0,0.18-0.065,0.336-0.196,0.462
				c-0.129,0.13-0.287,0.194-0.469,0.194C89.864,20.752,89.707,20.688,89.58,20.56"/>
			<path style="fill:#FFFFFF;" d="M34.491,29.79c1.645-0.338,2.625,0.529,2.77,2.48l0.532-0.204l-0.101-3.46l-7.961,1.773
				l-0.101,3.505l0.535-0.033c0.143-2.016,1.11-3.315,2.768-3.713v7.292c0,1.328-0.231,1.593-1.674,1.929v0.555l4.904-1.092v-0.555
				c-1.442,0.307-1.673,0.145-1.673-1.183V29.79"/>
			<path style="fill:#DBD9D6;" d="M56.253,88.17l3.118,5.37c-0.973-1.842-1.946-3.729-2.916-5.66
				C56.387,87.977,56.321,88.073,56.253,88.17"/>
			<path style="fill:#BDBBBB;" d="M76.428,116.128c0,0.352,0.277,0.632,0.628,0.632c0.351,0,0.628-0.28,0.628-0.632
				c0-0.352-0.277-0.633-0.628-0.633C76.705,115.495,76.428,115.776,76.428,116.128 M77.548,116.128
				c0,0.283-0.219,0.497-0.491,0.497c-0.273,0-0.491-0.214-0.491-0.497c0-0.284,0.218-0.494,0.491-0.494
				C77.328,115.633,77.548,115.843,77.548,116.128"/>
			<path style="fill:#BDBBBB;" d="M76.792,116.454h0.138v-0.261h0.115l0.153,0.261h0.15l-0.16-0.261
				c0.116-0.009,0.179-0.074,0.179-0.194c0-0.175-0.104-0.201-0.255-0.201h-0.32V116.454z M76.929,115.916h0.151
				c0.065,0,0.153,0,0.153,0.071c0,0.071-0.045,0.088-0.119,0.088h-0.185V115.916z"/>
			<path style="fill:#BDBBBB;" d="M87.975,58.223c-0.351,0-0.627,0.281-0.627,0.633c0,0.353,0.277,0.632,0.627,0.632
				s0.629-0.279,0.629-0.632C88.604,58.505,88.326,58.223,87.975,58.223 M87.975,59.353c-0.272,0-0.491-0.214-0.491-0.497
				c0-0.284,0.219-0.494,0.491-0.494c0.272,0,0.491,0.21,0.491,0.494C88.466,59.139,88.247,59.353,87.975,59.353"/>
			<path style="fill:#BDBBBB;" d="M88.286,58.726c0-0.174-0.104-0.201-0.255-0.201h-0.32v0.656h0.137v-0.261h0.116l0.153,0.261h0.15
				l-0.16-0.261C88.224,58.912,88.286,58.848,88.286,58.726 M88.033,58.803h-0.185v-0.159H88c0.065,0,0.153,0,0.153,0.071
				C88.152,58.786,88.107,58.803,88.033,58.803"/>
			<polygon style="fill:#BDBBBB;" points="92.943,134.136 92.643,134.934 92.352,134.136 91.918,134.136 91.918,135.365 
				92.171,135.365 92.171,134.383 92.179,134.383 92.52,135.365 92.756,135.365 93.117,134.383 93.117,135.365 93.367,135.365 
				93.367,134.136 			"/>
			<polygon style="fill:#BDBBBB;" points="90.711,134.353 91.084,134.353 91.084,135.365 91.333,135.365 91.333,134.353 
				91.702,134.353 91.702,134.136 90.711,134.136 			"/>
			<path style="fill:#999899;" d="M59.371,93.541l-3.118-5.37c-0.428,0.615-0.856,1.236-1.282,1.86l2.334,3.96
				c0.216,0.329,0.433,0.66,0.651,0.993h2.182C59.882,94.505,59.627,94.025,59.371,93.541"/>
			<path style="fill:#999899;" d="M48.622,93.541c-0.256,0.485-0.511,0.965-0.767,1.442h2.183c0.217-0.333,0.434-0.665,0.65-0.993
				l3.701-6.279l-2.741,0.616L48.622,93.541z"/>
			<path style="fill:#999899;" d="M26.171,134.203c-1.846-1.044-2.317-1.9-2.321-2.515c-1.812,0.78-2.219,1.955,1.11,3.28
				c0.731,0.291,1.692,0.214,2.664-0.057C27.19,134.737,26.708,134.507,26.171,134.203"/>
			<path style="fill:#999899;" d="M83.597,131.928c-0.127,0.587-1.022,1.281-2.62,2.185c-0.599,0.339-1.132,0.589-1.606,0.769
				c0.47,0.068,0.891,0.103,1.215,0.134C83.777,135.313,86.982,132.831,83.597,131.928"/>
			<path style="fill:#999899;" d="M46.034,129.985c0.783-0.071,1.622-0.128,2.497-0.168l1.128,0.704c0,0,0.397,0.257,0.892,0.163
				c0.495-0.093,0.495-0.513,0.495-0.513s-0.627,0.373-1.123,0.094l-1.816-1.119c-1.275,0.061-2.532,0.284-3.644,0.41
				L46.034,129.985z"/>
			<polygon style="fill:#999899;" points="45.73,128.797 45.532,128.331 44.376,129.1 45.433,129.007 			"/>
			<polygon style="fill:#999899;" points="51.243,128.517 51.111,128.051 49.428,128.633 50.748,128.704 			"/>
			<path style="fill:#999899;" d="M40.613,129.403c0,0,0.198-0.233-0.33-0.373l-0.627,0.932l0.627-0.116L40.613,129.403z"/>
			<path style="fill:#999899;" d="M56.393,128.261l-2.113,0.419l1.387,0.163C55.667,128.844,56.79,128.727,56.393,128.261"/>
			<path style="fill:#999899;" d="M61.543,129.24c0.429-0.07,0-0.513,0-0.513l-2.377,0.419l0.957,0.257L61.543,129.24z"/>
			<path style="fill:#999899;" d="M66.396,130.312c0.463,0,0.495-0.327,0.396-0.536l-3.07,0.21l1.023,0.35L66.396,130.312z"/>
			<path style="fill:#999899;" d="M49.697,129.215l0.712,0.542c0.776-0.011,1.586-0.002,2.414,0.022l1.028,0.788
				c0.264,0.233,1.354,0.396,1.585-0.187c0,0-0.892,0.163-1.255-0.163c-0.206-0.185-0.804-0.64-1.284-0.998l-0.425,0.003
				C51.523,129.2,50.594,129.197,49.697,129.215"/>
			<path style="fill:#999899;" d="M57.545,130.111l0.433,0.597c0.264,0.536,1.221,0.466,1.518,0.163c0,0-0.924,0.14-1.089-0.233
				c-0.099-0.223-0.35-0.678-0.537-1.009c-1.21-0.131-2.855-0.298-3.789-0.346l0.708,0.581
				C55.683,129.92,56.606,130.005,57.545,130.111"/>
			<path style="fill:#999899;" d="M61.764,130.731l0.143,0.886c0.033,0.373,0.495,0.676,0.991,0.629
				c0.495-0.046,0.594-0.419,0.561-0.676c0,0-0.759,0.233-0.99,0l-0.358-1.339c-1.229-0.205-2.286-0.378-3.332-0.516l0.31,0.586
				C59.926,130.42,60.788,130.565,61.764,130.731"/>
			<path style="fill:#999899;" d="M65.801,131.705l0.05-0.558c-0.87-0.242-1.741-0.459-2.61-0.65l0.058,0.576
				C64.124,131.259,64.96,131.472,65.801,131.705"/>
			<path style="fill:#999899;" d="M69.631,134.041c-0.165,0.466,0.033,0.769,0.396,0.839c0.363,0.07,0.924,0,1.056-0.56
				C70.556,134.39,69.862,134.367,69.631,134.041"/>
			<path style="fill:#999899;" d="M77.342,130.588c-0.257-0.469-0.52-0.947-0.786-1.433c-1.044,0.204-2.924,0.605-2.924,0.605
				s-15.541,4.229-18.538,5.408c0,0-6.254-1.748-12.859-3.331l0.656-0.267v-0.536l-1.188,0.349l-1.651-0.21l0.036,0.16
				c-0.352-0.08-0.703-0.159-1.05-0.236c0.799-0.195,2.222-0.506,4.13-0.78c0.937,0.232,2.458,0.606,2.992,0.716
				c0.792,0.163,1.453-0.583,0.826-0.816c-0.363,0.397-1.09,0.279-1.09,0.279l-3.048-0.731c-2.108,0.312-3.781,0.714-4.849,1.104
				c-1.366-0.293-5.152-1.271-7.157-1.747c-0.34,0.615-0.668,1.216-0.993,1.809c0.801,0.628,1.79,1.521,1.809,1.711
				c0.246,0.014,0.737,0.045,1.423,0.093l-1.677,0.722l1.387-0.024l1.54-0.606c4.888,0.373,14.746,1.306,19.024,3.007l-6.228,2.501
				c1.18,0.036,2.392,0.061,3.635,0.077l4.86-1.919l4.481,1.845c1.46-0.043,2.868-0.1,4.225-0.171l-6.505-2.38
				c0,0,8.714-1.635,13.399-2.353l-0.072,0.442c0.561,0.279,2.41,1.189,2.41,1.189l0.297-0.583
				c-0.545-0.402-1.743-0.883-2.305-1.099c1.104-0.165,1.948-0.272,2.336-0.282c0.286,0.258,0.706,0.488,1.195,0.692
				C74.799,133.11,75.93,131.186,77.342,130.588"/>
			<path style="fill:#999899;" d="M73.296,135.882c0,0-0.628,0.909,0.198,1.002c0.825,0.093,0.991-0.21,1.188-0.675
				C74.22,136.651,73.163,136.161,73.296,135.882"/>
			<polygon style="fill:#999899;" points="75.21,134.973 75.046,135.579 76.531,136.487 77.587,136.441 77.687,136.044 
				76.762,135.998 			"/>
			<path style="fill:#999899;" d="M34.572,133.505c0,0.256-0.099,0.28-0.561,0.327l-3.367,0.023l-0.688,0.372
				c0.02,0.185,0.024,0.373,0.011,0.56l0.842-0.442c0,0,2.08,0.023,2.971,0C34.671,134.32,34.902,133.691,34.572,133.505"/>
			<path style="fill:#999899;" d="M30.544,135.765c-0.463,0.093-3.169,0.14-3.169,0.14l1.023,0.373l2.08-0.116
				c0.529-0.024,1.354-0.396,0.958-0.955C31.436,135.206,31.007,135.672,30.544,135.765"/>
			<path style="fill:#807F83;" d="M28.176,132.698c0.275,0.319,0.038,0.734-0.212,0.631c-0.25-0.103-0.575-0.161-0.803-0.008
				c-0.228,0.153-1.52-0.03-2.207-0.789c-0.687-0.76-0.352-1.902,0.557-1.92c0,0,0.611,0.242,0.933,0.699
				C26.765,131.767,27.814,132.278,28.176,132.698"/>
			<path style="fill:#807F83;" d="M78.476,132.698c-0.275,0.319-0.038,0.734,0.212,0.631s0.575-0.161,0.803-0.008
				c0.228,0.153,1.52-0.03,2.207-0.789c0.687-0.76,0.352-1.902-0.556-1.92c0,0-0.611,0.242-0.933,0.699
				C79.888,131.767,78.838,132.278,78.476,132.698"/>
			<polygon style="fill:#DBD9D6;" points="51.27,88.413 51.648,88.328 48.622,93.541 			"/>
			<path style="fill:#FFFFFF;" d="M26.397,129.185c0.958,1.445,3.046,2.288,3.754,2.542c0.015,0.319-0.209,0.548-0.374,0.672
				c-0.804-0.28-2.979-1.149-3.9-2.617C25.85,129.581,26.008,129.148,26.397,129.185"/>
			<path style="fill:#FFFFFF;" d="M81.073,128.993c-0.959,1.445-3.046,2.288-3.754,2.542c-0.014,0.319,0.209,0.548,0.375,0.672
				c0.804-0.28,2.979-1.149,3.9-2.617C81.621,129.39,81.462,128.957,81.073,128.993"/>
			<path style="fill:#999899;" d="M74.148,119.026c0.067-0.06,0.132-0.121,0.196-0.185l-1.157-1.157
				c-0.606,0.606-1.444,0.981-2.368,0.981H36.496c-1.851,0-3.35-1.501-3.35-3.347v-1.376v-3.323V99.97
				c0-0.317,0.058-0.616,0.14-0.907c0.189-0.667,0.574-1.243,1.095-1.671c0.042-0.034,0.087-0.065,0.13-0.098l-1.168-1.168
				c-0.79,0.648-1.354,1.51-1.633,2.494c-0.137,0.487-0.2,0.916-0.2,1.349v15.349c0,1.683,0.839,3.173,2.121,4.076l-5.611,9.623
				c0.425,0.405,0.923,0.743,1.404,1.018c1.564-2.863,3.451-6.275,5.543-9.973c0.482,0.156,0.996,0.241,1.53,0.241h34.323
				c0.744,0,1.45-0.164,2.085-0.457c2.141,3.781,4.071,7.27,5.666,10.189c0.481-0.275,0.979-0.613,1.404-1.018L74.148,119.026z"/>
			<path style="fill:#FFFFFF;" d="M36.555,91.796L82.034,81.36l0.006-10.267l4.87-13.285l15.05-3.445V31.355l-27.408,6.259
				c-0.229-0.321-0.502-0.605-0.819-0.85c-0.507-0.389-1.097-0.651-1.746-0.779c-0.647-0.13-1.324-0.116-2.018,0.043l-13.258,3.025
				l2.601,2.015l-16.61,3.797l-1.68,3.81l-1.686-3.049l-9.528,2.184c-0.236-0.014-0.462-0.037-0.72-0.034
				c-1.511,0.028-3.374,0.452-4.867,1.107c-0.773,0.341-1.465,0.738-2.049,1.177c-0.262,0.195-0.494,0.405-0.721,0.617v-3.559
				l-17.76,4.052l1.748,1.71c0.619,0.605,1.251,1.514,1.276,1.828v19.255l-2.14,2.634l15.272-3.486l1.325,0.838
				c0.552,0.349,1.351,1.114,1.351,1.582V95.46l-2.05,2.602l11.795-2.692C32.268,95.371,35.1,94.862,36.555,91.796z"/>
			<g>
				<g>
					<g>
						<polygon style="fill:#BDBBBB;" points="41.196,72.507 41.196,78.004 44.468,77.257 44.468,78.229 44.468,79.58 45.617,80.365 
							45.552,75.965 42.28,76.712 42.28,73.306 						"/>
						<polygon style="fill:#BDBBBB;" points="41.206,85.82 45.642,84.808 45.642,85.78 45.642,87.257 46.726,88.043 46.726,83.516 
							42.28,84.531 42.28,81.126 41.261,80.312 						"/>
						<path style="fill:#BDBBBB;" d="M37.822,73.899v-0.972c0-0.416-0.075-0.781-0.225-1.098c-0.15-0.315-0.366-0.583-0.65-0.801
							l8.695-1.984v0.972v1.476l1.07,0.789l0.014-0.003l-0.019-4.521l-12.145,2.785c0,0,2.266,0.938,2.266,2.606v17.153l0.993-1.26
							V73.899z"/>
						<polygon style="fill:#807F83;" points="41.196,72.507 42.28,73.306 46.726,72.292 46.712,72.281 45.642,71.492 						"/>
						<polygon style="fill:#807F83;" points="41.196,85.822 41.206,85.82 41.261,80.312 41.261,80.312 						"/>
						<polygon style="fill:#807F83;" points="41.261,80.312 42.28,81.126 45.617,80.365 45.552,80.32 44.468,79.58 						"/>
						<polygon style="fill:#807F83;" points="37.822,89.041 36.829,90.301 46.726,88.043 45.642,87.257 						"/>
						<path style="fill:#E20074;" d="M41.206,85.82l4.437-1.012v0.972v1.477l-7.82,1.784V73.899v-0.972
							c0-0.416-0.075-0.781-0.225-1.098c-0.15-0.315-0.366-0.583-0.65-0.801l8.695-1.984v0.972v1.476l-4.446,1.015v5.497
							l3.272-0.747v0.972v1.351l-3.207,0.732l0,0L41.206,85.82z"/>
					</g>
					<g>
						<polygon style="fill:none;" points="54.014,74.034 54.014,70.63 53.069,70.846 53.069,74.25 						"/>
						<polygon style="fill:#BDBBBB;" points="51.985,85.81 53.069,86.596 53.069,78.664 51.985,77.865 						"/>
						<path style="fill:#BDBBBB;" d="M58.964,75.105c0.015-0.024,0.029-0.047,0.043-0.071c0.32-0.539,0.482-1.105,0.482-1.689
							l-0.025-4.738c0-0.5-0.099-0.965-0.294-1.386c-0.193-0.409-0.465-0.752-0.81-1.018c-0.344-0.266-0.749-0.446-1.201-0.535
							c-0.461-0.092-0.95-0.079-1.455,0.036l-10.058,2.295l0.001,0.001c0,0,1.972,1.148,1.972,2.713v17.128l0.993-1.26V71.462V70.49
							c0-0.416-0.074-0.786-0.225-1.11c-0.15-0.325-0.366-0.596-0.65-0.815l7.921-1.807c0.366-0.083,0.715-0.092,1.048-0.026
							c0.334,0.065,0.625,0.195,0.875,0.388c0.249,0.192,0.446,0.439,0.588,0.74c0.14,0.301,0.212,0.634,0.212,1l0.025,4.743
							c0,0.366-0.1,0.717-0.299,1.054c-0.2,0.337-0.45,0.616-0.75,0.832c0.299,0.067,0.55,0.221,0.75,0.466
							c0.2,0.247,0.299,0.554,0.299,0.92v0.972v6.497l1.084,0.756v-8.477c0-0.579-0.162-1.072-0.482-1.467
							C58.993,75.139,58.979,75.122,58.964,75.105z"/>
						<path style="fill:#BDBBBB;" d="M55.008,78.897v-0.972c0-0.174-0.064-0.309-0.17-0.419l-0.823,0.943v7.901l0.993-1.229V78.897z
							"/>
						<path style="fill:#BDBBBB;" d="M54.014,74.034l-0.945,0.216v-3.404l-1.084-0.799v5.496l2.273-0.519
							c0.216-0.049,0.395-0.166,0.536-0.347c0.141-0.183,0.213-0.374,0.213-0.574v-3.025v-0.972c0-0.153-0.048-0.269-0.119-0.368
							l-0.874,0.893V74.034z"/>
						<path style="fill:#807F83;" d="M54.794,77.45c-0.141-0.119-0.32-0.153-0.536-0.104l-2.273,0.519l1.084,0.799l0.945-0.216
							l0.823-0.943C54.821,77.488,54.813,77.466,54.794,77.45z"/>
						<polygon style="fill:#807F83;" points="48.611,86.579 47.618,87.839 53.069,86.596 51.985,85.81 						"/>
						<polygon style="fill:#807F83;" points="55.008,85.12 54.014,86.35 55.053,86.113 56.092,85.876 57.412,85.574 58.45,85.337 
							59.489,85.101 58.405,84.345 						"/>
						<path style="fill:#807F83;" d="M54.258,69.528l-2.273,0.519l1.084,0.799l0.945-0.216l0.874-0.893
							c-0.03-0.042-0.052-0.088-0.094-0.121C54.653,69.508,54.474,69.478,54.258,69.528z"/>
						<path style="fill:#E20074;" d="M51.985,77.865l2.273-0.519c0.216-0.049,0.395-0.015,0.536,0.104
							c0.019,0.016,0.027,0.039,0.043,0.056c0.106,0.11,0.17,0.246,0.17,0.419v0.972v6.223l3.397-0.775v-6.497v-0.972
							c0-0.366-0.1-0.673-0.299-0.92c-0.2-0.246-0.45-0.399-0.75-0.466c0.299-0.217,0.55-0.496,0.75-0.832
							c0.2-0.337,0.299-0.688,0.299-1.054L58.38,68.86c0-0.366-0.072-0.699-0.212-1c-0.141-0.302-0.338-0.548-0.588-0.74
							c-0.249-0.193-0.54-0.323-0.875-0.388c-0.333-0.067-0.682-0.058-1.048,0.026l-7.921,1.807c0.284,0.219,0.5,0.49,0.65,0.815
							c0.151,0.324,0.225,0.694,0.225,1.11v0.972v15.117l3.374-0.77V77.865z M55.008,70.105v0.972v3.025
							c0,0.2-0.072,0.391-0.213,0.574c-0.141,0.181-0.32,0.298-0.536,0.347l-2.273,0.519v-5.496l2.273-0.519
							c0.216-0.049,0.395-0.02,0.536,0.088c0.042,0.033,0.065,0.079,0.094,0.121C54.959,69.836,55.008,69.952,55.008,70.105z"/>
					</g>
					<g>
						<polygon style="fill:none;" points="66.876,71.1 66.876,67.696 65.932,67.911 65.932,71.315 						"/>
						<polygon style="fill:none;" points="66.876,78.921 66.876,75.514 65.932,75.73 65.932,79.136 						"/>
						<path style="fill:#BDBBBB;" d="M66.876,78.921l-0.944,0.215V75.73l-1.084-0.799v5.497l2.273-0.519
							c0.215-0.049,0.396-0.161,0.536-0.336c0.141-0.174,0.212-0.368,0.212-0.585v-3.997c0-0.201-0.071-0.359-0.212-0.476
							c-0.009-0.007-0.021-0.007-0.029-0.014l-0.751,1.013V78.921z"/>
						<path style="fill:#BDBBBB;" d="M72.327,70.421v-4.749c0-0.134-0.027-0.791-0.041-0.92c-0.121-0.202-0.288-0.525-0.482-0.707
							c-0.257-0.241-2.482-1.45-2.482-1.45l-10.814,2.467c0,0,1.973,0.76,1.973,2.713v17.128l0.013-0.003l0.98-1.257V68.528v-0.972
							c0-0.416-0.073-0.786-0.224-1.11c-0.15-0.325-0.366-0.596-0.65-0.815l7.902-1.803c0.366-0.083,0.714-0.092,1.046-0.025
							c0.331,0.066,0.622,0.196,0.873,0.388c0.248,0.193,0.448,0.438,0.597,0.738c0.15,0.299,0.225,0.631,0.225,0.997v0.972v3.07
							v0.707c0,0.366-0.1,0.717-0.299,1.054c-0.197,0.336-0.445,0.614-0.742,0.83c0.297,0.068,0.545,0.222,0.742,0.468
							c0.2,0.247,0.299,0.554,0.299,0.92v4.772c0,0.366-0.075,0.728-0.225,1.087c-0.15,0.36-0.349,0.691-0.597,1
							c-0.003,0.003-0.006,0.006-0.008,0.009l0.794,0.535c0.335-0.417,0.604-0.868,0.799-1.338c0.213-0.508,0.321-1.028,0.321-1.545
							v-4.772c0-0.578-0.161-1.071-0.477-1.461c-0.016-0.02-0.031-0.039-0.047-0.057c0.015-0.024,0.029-0.048,0.044-0.073
							C72.165,71.565,72.327,70.998,72.327,70.421z"/>
						<path style="fill:#BDBBBB;" d="M66.876,71.1l-0.944,0.215v-3.405l-1.084-0.799v5.496l2.273-0.519
							c0.215-0.049,0.396-0.167,0.536-0.347c0.141-0.183,0.212-0.374,0.212-0.574v-3.025v-0.972c0-0.186-0.063-0.325-0.168-0.432
							l-0.825,0.957V71.1z"/>
						<path style="fill:#807F83;" d="M67.12,66.593l-2.273,0.519l1.084,0.799l0.944-0.215l0.825-0.957
							c-0.017-0.018-0.025-0.042-0.044-0.057C67.517,66.573,67.335,66.544,67.12,66.593z"/>
						<path style="fill:#807F83;" d="M69.547,81.591c-0.333,0.217-0.68,0.367-1.046,0.451l-7.027,1.603l-0.98,1.257l-0.013,0.017
							l8.02-1.83c0.661-0.151,1.165-0.433,1.498-0.651c0.331-0.217,0.879-0.637,1.207-1.089l-0.794-0.535
							C70.163,81.117,69.875,81.376,69.547,81.591z"/>
						<path style="fill:#807F83;" d="M64.847,74.93l1.084,0.799l0.944-0.215l0.751-1.013c-0.136-0.102-0.305-0.136-0.507-0.09
							L64.847,74.93z"/>
						<path style="fill:#E20074;" d="M69.547,81.591c0.328-0.215,0.616-0.474,0.865-0.777c0.003-0.003,0.006-0.006,0.008-0.009
							c0.248-0.309,0.448-0.64,0.597-1c0.15-0.358,0.225-0.721,0.225-1.087v-4.772c0-0.366-0.1-0.673-0.299-0.92
							c-0.197-0.246-0.445-0.4-0.742-0.468c0.297-0.216,0.545-0.494,0.742-0.83c0.2-0.337,0.299-0.688,0.299-1.054v-0.707v-3.07
							v-0.972c0-0.366-0.075-0.698-0.225-0.997c-0.15-0.3-0.349-0.545-0.597-0.738c-0.251-0.192-0.542-0.323-0.873-0.388
							c-0.333-0.067-0.68-0.058-1.046,0.025l-7.902,1.803c0.284,0.219,0.501,0.49,0.65,0.815c0.151,0.324,0.224,0.694,0.224,1.11
							v0.972v15.117l7.027-1.603C68.867,81.958,69.215,81.808,69.547,81.591z M67.657,74.515c0.141,0.116,0.212,0.274,0.212,0.476
							v3.997c0,0.216-0.071,0.411-0.212,0.585c-0.14,0.175-0.322,0.287-0.536,0.336l-2.273,0.519V74.93l2.273-0.519
							c0.202-0.046,0.371-0.012,0.507,0.09C67.636,74.508,67.648,74.508,67.657,74.515z M67.869,67.171v0.972v3.025
							c0,0.2-0.071,0.39-0.212,0.574c-0.14,0.18-0.322,0.298-0.536,0.347l-2.273,0.519v-5.496l2.273-0.519
							c0.215-0.049,0.396-0.02,0.536,0.088c0.02,0.016,0.027,0.04,0.044,0.057C67.806,66.846,67.869,66.984,67.869,67.171z"/>
					</g>
					<g>
						<path style="fill:#BDBBBB;" d="M77.584,60.711c0,0,0.887,0.64,0.887,1.823v0.004c0.005,0.198-0.054,0.451-0.196,0.811
							l-0.309,0.889l-1.411-3.292l-7.608,1.736c0,0,2.812,1.436,3.338,2.605c0.025,0.057,0.071,0.104,0.097,0.157l2.875,6.605v9.485
							l0.012-0.003l0.951-1.253l0.03-0.27v-8.379l-2.948-6.773c-0.184-0.374-0.43-0.703-0.737-0.992
							c-0.308-0.287-0.653-0.53-1.037-0.727l4.272-0.975l2.137,4.984l1.264-3.637c0.183-0.458,0.272-0.863,0.262-1.22
							c-0.008-0.356-0.096-0.657-0.262-0.904l4.269-0.974l-3.848,10.497v8.595l-0.032,0.007l0.001,0.01l1.08,0.776l0.035-0.008
							v-9.434l4.343-11.849L77.584,60.711z"/>
						<polygon style="fill:#807F83;" points="79.591,79.511 76.251,80.273 76.251,80.007 76.221,80.277 75.27,81.53 75.258,81.547 
							80.687,80.308 80.672,80.298 79.592,79.521 						"/>
						<path style="fill:#E20074;" d="M79.591,79.511l0.032-0.007v-8.595l3.848-10.497l-4.269,0.974
							c0.166,0.246,0.254,0.548,0.262,0.904c0.01,0.357-0.079,0.762-0.262,1.22l-1.264,3.637L75.8,62.162l-4.272,0.975
							c0.384,0.196,0.729,0.439,1.037,0.727c0.308,0.289,0.553,0.618,0.737,0.992l2.948,6.773v8.379v0.266L79.591,79.511z"/>
					</g>
					<g>
						<polygon style="fill:none;" points="29.307,90.14 30.326,89.908 30.326,75.429 29.307,75.662 						"/>
						<path style="fill:#BDBBBB;" d="M35.725,72.91c-0.044-0.312-0.115-0.615-0.244-0.893c-0.194-0.409-0.465-0.75-0.807-1.014
							c-0.344-0.266-0.75-0.447-1.204-0.535c-0.462-0.091-0.951-0.079-1.455,0.036l-10.135,2.312c0,0,1.976,1.229,1.976,2.712v20.38
							l0.014-0.003l0.979-1.182V76.355v-0.972c0-0.416-0.073-0.787-0.225-1.112c-0.151-0.323-0.366-0.594-0.65-0.812l7.995-1.824
							c0.366-0.083,0.715-0.092,1.049-0.027c0.334,0.065,0.625,0.194,0.875,0.388c0.249,0.193,0.445,0.439,0.588,0.739
							c0.14,0.302,0.211,0.635,0.211,1.001v16.043c0,0.367-0.071,0.729-0.211,1.086c-0.127,0.317-0.304,0.614-0.516,0.893
							l0.711,0.575c0.337-0.417,0.607-0.873,0.804-1.367c0.196-0.5,0.296-1.011,0.296-1.516V74.669v-1.261
							C35.776,73.236,35.749,73.074,35.725,72.91z"/>
						<path style="fill:#BDBBBB;" d="M34.184,92.852c-0.03,0.03-0.06,0.061-0.09,0.09C34.126,92.913,34.153,92.881,34.184,92.852z"
							/>
						<path style="fill:#BDBBBB;" d="M31.319,74.981c0-0.191-0.064-0.332-0.173-0.439l-0.82,0.888v14.479l-1.019,0.232V75.662
							l-1.084-0.725v16.569l2.348-0.536c0.215-0.049,0.395-0.162,0.536-0.336c0.141-0.172,0.212-0.367,0.212-0.585V75.953V74.981z"
							/>
						<path style="fill:#BDBBBB;" d="M32.808,93.776c-0.03,0.014-0.059,0.027-0.091,0.041C32.748,93.804,32.778,93.79,32.808,93.776
							z"/>
						<path style="fill:#BDBBBB;" d="M33.468,93.421c0.012-0.008,0.023-0.019,0.035-0.027c-0.031,0.02-0.062,0.039-0.094,0.059
							C33.429,93.441,33.449,93.434,33.468,93.421z"/>
						<path style="fill:#807F83;" d="M30.326,75.429l0.82-0.888c-0.015-0.015-0.022-0.037-0.039-0.05
							c-0.141-0.108-0.322-0.139-0.536-0.09l-2.348,0.536l1.084,0.725L30.326,75.429z"/>
						<path style="fill:#807F83;" d="M33.893,91.862c-0.25,0.306-0.541,0.568-0.875,0.786c-0.334,0.218-0.683,0.368-1.049,0.451
							l-7.12,1.625l-0.979,1.182l-0.014,0.017l8.113-1.851c0.255-0.058,0.516-0.154,0.748-0.254c0.032-0.014,0.06-0.027,0.091-0.041
							c0.147-0.066,0.282-0.132,0.382-0.187c0.078-0.043,0.146-0.091,0.22-0.137c0.031-0.019,0.063-0.039,0.094-0.059
							c0.213-0.137,0.411-0.28,0.571-0.433c0.007-0.006,0.013-0.013,0.02-0.02c0.03-0.029,0.06-0.06,0.09-0.09
							c0.251-0.25,0.492-0.517,0.492-0.517l-0.711-0.575C33.939,91.792,33.92,91.829,33.893,91.862z"/>
						<path style="fill:#E20074;" d="M33.019,92.647c0.334-0.217,0.625-0.479,0.875-0.786c0.027-0.033,0.046-0.069,0.071-0.103
							c0.212-0.28,0.389-0.576,0.516-0.893c0.14-0.358,0.211-0.719,0.211-1.086V73.736c0-0.366-0.071-0.699-0.211-1.001
							c-0.143-0.3-0.338-0.547-0.588-0.739c-0.25-0.194-0.541-0.323-0.875-0.388c-0.334-0.065-0.683-0.056-1.049,0.027l-7.995,1.824
							c0.284,0.218,0.499,0.489,0.65,0.812c0.151,0.325,0.225,0.696,0.225,1.112v0.972v18.369l7.12-1.625
							C32.335,93.016,32.685,92.865,33.019,92.647z M31.107,90.634c-0.141,0.174-0.322,0.287-0.536,0.336l-2.348,0.536V74.937
							l2.348-0.536c0.215-0.049,0.395-0.018,0.536,0.09c0.017,0.013,0.024,0.035,0.039,0.05c0.109,0.107,0.173,0.248,0.173,0.439
							v0.972V90.05C31.319,90.267,31.249,90.462,31.107,90.634z"/>
					</g>
				</g>
				<g>
					<g>
						<polygon style="fill:none;" points="26.435,65.55 27.454,65.317 27.454,53.941 26.435,54.173 						"/>
						<path style="fill:#BDBBBB;" d="M30.291,68.784c-0.146,0.088-0.294,0.172-0.449,0.256
							C29.997,68.957,30.146,68.872,30.291,68.784z"/>
						<path style="fill:#BDBBBB;" d="M27.837,69.844c-0.024,0.008-0.047,0.017-0.072,0.025
							C27.789,69.862,27.813,69.852,27.837,69.844z"/>
						<path style="fill:#BDBBBB;" d="M32.571,50.388c-0.333-0.514-1.07-0.845-1.07-0.845c-0.181-0.084-0.364-0.167-0.573-0.227
							c-0.512-0.151-1.122-0.222-1.815-0.208c-1.329,0.024-3.039,0.417-4.354,0.993c-0.681,0.3-1.286,0.647-1.79,1.026
							c-0.545,0.405-0.996,0.848-1.341,1.319c-0.422,0.577-0.644,1.189-0.644,1.769v13.791c0,0.582,0.223,1.092,0.645,1.476
							c0.18,0.164,0.391,0.303,0.628,0.424l0.539-0.899l0-0.003c-0.163-0.087-0.309-0.184-0.431-0.296
							c-0.256-0.232-0.387-0.516-0.387-0.849V54.069c0-0.333,0.13-0.674,0.387-1.025c0.256-0.35,0.602-0.688,1.035-1.01
							c0.431-0.324,0.941-0.615,1.53-0.874c0.591-0.26,1.218-0.465,1.882-0.617c0.664-0.151,1.446-0.267,2.044-0.279
							c0.597-0.012,1.113,0.045,1.544,0.173c0.432,0.125,0.777,0.305,1.034,0.537c0.258,0.234,0.387,0.516,0.387,0.849v13.791
							c0,0.333-0.129,0.675-0.387,1.025c-0.113,0.155-0.25,0.306-0.398,0.455l0,0.008l0.635,0.633
							c0.222-0.218,0.417-0.442,0.587-0.675c0.423-0.575,0.647-1.188,0.647-1.773V51.496C32.905,51.082,32.904,50.901,32.571,50.388
							z"/>
						<polygon style="fill:#BDBBBB;" points="27.454,53.941 27.454,65.317 26.435,65.55 26.435,54.173 25.351,53.449 25.351,66.915 
							28.447,66.209 28.447,52.742 						"/>
						<path style="fill:#BDBBBB;" d="M24.036,70.363c-0.151-0.013-0.294-0.03-0.437-0.051
							C23.741,70.334,23.886,70.351,24.036,70.363z"/>
						<polygon style="fill:#807F83;" points="27.454,53.941 28.447,52.742 25.351,53.449 26.435,54.173 						"/>
						<path style="fill:#807F83;" d="M31.036,67.094c-0.187,0.189-0.394,0.374-0.636,0.556c-0.431,0.322-0.947,0.615-1.544,0.876
							c-0.599,0.261-1.38,0.503-2.044,0.655c-0.664,0.151-1.292,0.231-1.882,0.241c-0.589,0.01-1.099-0.05-1.53-0.175
							c-0.226-0.066-0.426-0.148-0.604-0.243l0,0.003l-0.539,0.899l-0.002,0.003c0,0,0.279,0.152,0.713,0.279
							c0.167,0.049,0.393,0.09,0.632,0.124c0.142,0.021,0.286,0.037,0.437,0.051c0.249,0.022,0.499,0.037,0.724,0.034
							c0.591-0.01,1.387-0.092,2.051-0.243c0.333-0.076,0.872-0.224,1.253-0.352c0.024-0.008,0.047-0.017,0.072-0.025
							c0.354-0.12,0.698-0.251,0.978-0.373c0.226-0.099,0.478-0.228,0.728-0.364c0.155-0.084,0.303-0.168,0.449-0.256
							c0.242-0.145,0.469-0.289,0.635-0.414c0.433-0.325,0.744-0.635,0.744-0.635l0,0l-0.635-0.633L31.036,67.094z"/>
						<path style="fill:#E20074;" d="M24.929,69.422c0.591-0.01,1.218-0.09,1.882-0.241c0.664-0.151,1.446-0.394,2.044-0.655
							c0.597-0.261,1.113-0.555,1.544-0.876c0.241-0.181,0.449-0.367,0.636-0.556c0.148-0.149,0.285-0.3,0.398-0.455
							c0.258-0.35,0.387-0.692,0.387-1.025V51.823c0-0.333-0.129-0.615-0.387-0.849c-0.256-0.233-0.601-0.413-1.034-0.537
							c-0.431-0.128-0.947-0.185-1.544-0.173c-0.599,0.012-1.38,0.128-2.044,0.279c-0.664,0.152-1.292,0.357-1.882,0.617
							c-0.589,0.259-1.099,0.55-1.53,0.874c-0.434,0.322-0.779,0.66-1.035,1.01c-0.256,0.351-0.387,0.693-0.387,1.025V67.86
							c0,0.332,0.13,0.616,0.387,0.849c0.123,0.112,0.268,0.209,0.431,0.296c0.178,0.095,0.378,0.176,0.604,0.243
							C23.83,69.372,24.34,69.432,24.929,69.422z M25.351,66.915V53.449l3.096-0.707v13.467L25.351,66.915z"/>
					</g>
					<g>
						<polygon style="fill:#BDBBBB;" points="44.033,54.105 41.935,59.955 42.679,60.743 42.69,60.74 43.04,59.764 43.04,66.437 
							43.054,66.434 44.033,65.252 						"/>
						<polygon style="fill:#BDBBBB;" points="38.188,55.439 38.188,66.585 39.257,67.3 39.272,67.296 39.272,60.623 39.623,61.44 
							39.632,61.438 40.287,60.331 						"/>
						<path style="fill:#BDBBBB;" d="M48.49,44.903c-0.046-0.045-4.834,1.103-4.834,1.103l-2.499,5.668l-2.501-4.527l-7.017,1.601
							c0,0,2.184,0.435,2.184,3.096V68.54l0.014-0.003l0.979-1.182V52.213V51.24c0-1.436-0.725-1.933-0.725-1.933l3.871-0.883
							l3.149,5.699l3.146-7.135l3.148-0.718v0.972v17.241l1.069,0.715l0.015-0.003V44.903z"/>
						<polygon style="fill:#807F83;" points="44.033,65.252 43.054,66.434 43.04,66.45 48.49,65.207 48.474,65.197 47.406,64.482 
													"/>
						<polygon style="fill:#807F83;" points="40.287,60.331 39.632,61.438 39.623,61.454 42.69,60.755 42.679,60.743 41.935,59.955 
													"/>
						<polygon style="fill:#807F83;" points="34.816,67.355 33.837,68.536 33.823,68.553 39.272,67.31 39.257,67.3 38.188,66.585 
													"/>
						<path style="fill:#E20074;" d="M38.188,55.439l2.098,4.892l1.648-0.376l2.098-5.85v11.147l3.372-0.769V47.242V46.27
							l-3.148,0.718l-3.146,7.135l-3.149-5.699l-3.871,0.883c0,0,0.725,0.448,0.725,1.933v0.972v15.142l3.372-0.769V55.439z"/>
					</g>
					<g>
						
							<line style="fill:none;stroke:#BCBABA;stroke-width:0;stroke-linecap:round;stroke-linejoin:round;" x1="86.991" y1="36.138" x2="86.991" y2="36.143"/>
						<path style="fill:#BDBBBB;" d="M77.968,58.026c-0.065-0.005-0.124-0.014-0.186-0.02C77.844,58.013,77.905,58.02,77.968,58.026
							z"/>
						<path style="fill:#BDBBBB;" d="M77.037,57.874c0.019,0.005,0.044,0.006,0.063,0.011c-0.062-0.018-0.124-0.037-0.187-0.057
							C76.958,57.84,76.992,57.862,77.037,57.874z"/>
						<path style="fill:#BDBBBB;" d="M76.394,57.634c-0.071-0.029-0.117-0.048-0.144-0.06
							C76.295,57.597,76.347,57.613,76.394,57.634z"/>
						<path style="fill:#BDBBBB;" d="M81.94,57.5c-0.025,0.008-0.048,0.018-0.072,0.026C81.892,57.518,81.916,57.508,81.94,57.5z"/>
						<path style="fill:#BDBBBB;" d="M85.757,55.413c-0.012,0.012-0.019,0.018-0.037,0.034
							C85.732,55.436,85.745,55.424,85.757,55.413z"/>
						<path style="fill:#BDBBBB;" d="M78.832,58.061c0.014,0,0.029-0.003,0.043-0.003c-0.047,0-0.097-0.001-0.146-0.001
							C78.764,58.056,78.795,58.061,78.832,58.061z"/>
						<path style="fill:#BDBBBB;" d="M84.348,56.468c-0.131,0.077-0.262,0.151-0.399,0.225
							C84.086,56.62,84.219,56.545,84.348,56.468z"/>
						<path style="fill:#BDBBBB;" d="M81.542,53.003l-1.071,0.244V37.631l-6.684,1.525c0.151,0.226,0.24,0.633,0.24,1.075
							l0.004,0.382c0,0,0.622,0.147,0.843,0.566c0.104,0.198,0.148,0.433,0.148,0.709v13.814c0,0.586,0.225,1.098,0.647,1.475
							c0.157,0.143,0.345,0.264,0.547,0.373l0.597-0.863l-0.001-0.007c-0.153-0.081-0.293-0.17-0.409-0.275
							c-0.259-0.232-0.388-0.514-0.388-0.848V41.741c0-0.416-0.078-0.786-0.237-1.109c-0.159-0.321-0.37-0.592-0.637-0.815
							l4.248-0.969v0.972v14.793l3.148-0.718V39.102V38.13l3.372-0.769v15.938c0,0.334-0.129,0.675-0.388,1.025
							c-0.126,0.172-0.274,0.339-0.442,0.501l0.722,0.539c0.2-0.2,0.386-0.405,0.542-0.618c0.425-0.576,0.651-1.19,0.651-1.776
							V36.143l-5.45,1.243V53.003z"/>
						<path style="fill:#807F83;" d="M84.484,55.322c-0.432,0.316-0.945,0.604-1.537,0.864c-0.59,0.259-1.22,0.465-1.886,0.618
							c-0.683,0.156-1.469,0.273-2.059,0.283c-0.592,0.01-1.109-0.042-1.551-0.159c-0.243-0.063-0.451-0.148-0.639-0.248
							l0.001,0.007l-0.597,0.863l-0.005,0.007c0,0,0.027,0.012,0.04,0.018c0.027,0.012,0.073,0.031,0.144,0.06
							c0.133,0.056,0.316,0.126,0.52,0.193c0.062,0.021,0.125,0.04,0.187,0.057c0.024,0.007,0.048,0.016,0.072,0.022
							c0.167,0.044,0.382,0.075,0.61,0.099c0.062,0.007,0.121,0.015,0.186,0.02c0.251,0.021,0.51,0.029,0.76,0.03
							c0.049,0,0.099,0.001,0.146,0.001c0.022,0,0.047,0.001,0.068,0c0.59-0.01,1.434-0.126,2.117-0.282
							c0.335-0.076,0.726-0.191,1.107-0.318c0.025-0.008,0.048-0.017,0.072-0.026c0.351-0.12,0.692-0.249,0.967-0.369
							c0.232-0.102,0.489-0.232,0.742-0.369c0.138-0.074,0.269-0.148,0.399-0.225c0.243-0.143,0.473-0.286,0.644-0.412
							c0.314-0.227,0.595-0.484,0.728-0.609c0.018-0.017,0.024-0.023,0.037-0.034c0.022-0.021,0.047-0.045,0.047-0.045l-0.004-0.003
							l-0.722-0.539C84.902,54.996,84.705,55.162,84.484,55.322z"/>
						<path style="fill:#E20074;" d="M79.001,57.086c0.59-0.01,1.376-0.127,2.059-0.283c0.667-0.152,1.296-0.358,1.886-0.618
							c0.592-0.26,1.105-0.547,1.537-0.864c0.221-0.16,0.418-0.327,0.594-0.497c0.168-0.163,0.316-0.33,0.442-0.501
							c0.259-0.35,0.388-0.691,0.388-1.025V37.36l-3.372,0.769v0.972v14.793l-3.148,0.718V39.82v-0.972l-4.248,0.969
							c0.267,0.223,0.478,0.494,0.637,0.815c0.159,0.323,0.237,0.693,0.237,1.109v13.815c0,0.334,0.129,0.617,0.388,0.848
							c0.116,0.105,0.256,0.194,0.409,0.275c0.187,0.099,0.396,0.185,0.639,0.248C77.892,57.044,78.409,57.097,79.001,57.086z"/>
					</g>
					<g>
						<path style="fill:#BDBBBB;" d="M100.627,33.027l-5.45,1.243v3.445l-1.835-3.027l-5.529,1.261l-2.209,0.504l1.399,1.287
							c0,0,0.466,0.093,0.81,0.611c0.126,0.19,0.146,0.449,0.146,0.725v17.11l0.014-0.003l0.979-1.182V39.904v-0.972
							c0-0.416-0.076-0.785-0.226-1.108c-0.15-0.324-0.366-0.596-0.65-0.814l4.573-1.043l3.522,6.091v-5.922v-0.972l3.372-0.769
							v0.972v17.221l1.069,0.715l0.015-0.004V33.027z"/>
						<polygon style="fill:#BDBBBB;" points="96.171,49.303 92.325,42.661 92.325,54.234 93.393,54.948 93.409,54.945 
							93.409,46.801 95.177,49.691 95.177,54.541 95.191,54.538 96.171,53.356 						"/>
						<polygon style="fill:#807F83;" points="96.171,53.356 95.191,54.538 95.177,54.555 100.627,53.311 100.612,53.301 
							99.543,52.586 						"/>
						<polygon style="fill:#807F83;" points="88.952,55.003 87.973,56.185 87.959,56.202 93.409,54.958 93.393,54.948 
							92.325,54.234 						"/>
						<path style="fill:#E20074;" d="M92.325,42.661l3.846,6.642v4.053l3.372-0.769V35.365v-0.972l-3.372,0.769v0.972v5.922
							l-3.522-6.091l-4.573,1.043c0.284,0.218,0.5,0.49,0.65,0.814c0.15,0.323,0.226,0.693,0.226,1.108v0.972v15.099l3.372-0.769
							V42.661z"/>
					</g>
					<g>
						<polygon style="fill:#BDBBBB;" points="12.413,72.466 13.482,73.181 13.497,73.177 13.497,64.273 12.413,63.548 						"/>
						<polygon style="fill:#BDBBBB;" points="15.662,62.807 14.669,64.006 14.669,72.91 14.683,72.907 15.662,71.725 						"/>
						<path style="fill:#BDBBBB;" d="M20.117,48.788l-5.448,1.243v9.559l-1.172,0.267v-9.559l-7.126,1.626
							c0,0,1.677,1.64,1.677,2.781V74.42l0.014-0.003l0.979-1.182V55.53v-0.972c0-0.416-0.075-0.787-0.226-1.111
							c-0.148-0.324-0.366-0.596-0.649-0.814l4.247-0.969v0.972v8.587l3.249-0.741v-8.587v-0.972l3.371-0.769v0.972v19.83
							l1.069,0.714l0.015-0.003V48.788z"/>
						<polygon style="fill:#807F83;" points="9.041,73.235 8.062,74.417 8.048,74.434 13.497,73.191 13.482,73.181 12.413,72.466 
													"/>
						<polygon style="fill:#807F83;" points="15.662,71.725 14.683,72.907 14.669,72.924 20.117,71.68 20.102,71.67 19.033,70.956 
													"/>
						<polygon style="fill:#807F83;" points="12.413,63.548 13.497,64.273 14.669,64.006 15.662,62.807 						"/>
						<path style="fill:#E20074;" d="M12.413,63.548l3.249-0.741v8.918l3.371-0.769v-19.83v-0.972l-3.371,0.769v0.972v8.587
							l-3.249,0.741v-8.587v-0.972l-4.247,0.969c0.283,0.218,0.5,0.49,0.649,0.814c0.151,0.325,0.226,0.696,0.226,1.111v0.972
							v17.705l3.372-0.769V63.548z"/>
					</g>
					<g>
						<polygon style="fill:none;" points="67.334,42.596 67.334,47.447 68.353,47.214 68.353,42.364 67.408,42.579 						"/>
						<path style="fill:#BDBBBB;" d="M73.528,48.158c0.015-0.025,0.03-0.05,0.045-0.074c0.319-0.539,0.48-1.106,0.48-1.685
							l-0.023-5.339l-0.004-0.83c0-0.442-0.089-0.848-0.24-1.224c-0.021-0.053-0.03-0.112-0.054-0.163
							c-0.194-0.411-0.465-0.755-0.81-1.021c-0.344-0.263-0.748-0.442-1.198-0.531c-0.461-0.093-0.951-0.08-1.458,0.035
							l-10.502,2.396l1.773,1.368c0.188,0.145,0.328,0.32,0.426,0.532c0.097,0.21,0.145,0.448,0.145,0.727v19.736l0.014-0.003
							l0.979-1.182V43.176v-0.972c0-0.416-0.075-0.785-0.225-1.109c-0.151-0.325-0.366-0.596-0.65-0.815l7.994-1.824
							c0.366-0.083,0.715-0.093,1.049-0.026c0.331,0.066,0.624,0.194,0.875,0.387c0.249,0.193,0.445,0.441,0.588,0.742
							c0.14,0.299,0.211,0.634,0.211,1l0.014,3.209l0.013,2.066c0,0.003-0.004,0.012-0.004,0.015l0.004,0.882
							c0,0.366-0.101,0.719-0.299,1.054c-0.201,0.337-0.451,0.616-0.75,0.834c0.299,0.065,0.549,0.22,0.75,0.465
							c0.198,0.247,0.299,0.554,0.299,0.92v0.972v7.669l1.078,0.726l0.006-0.001v-9.694c0-0.574-0.161-1.065-0.484-1.468
							C73.555,48.191,73.542,48.174,73.528,48.158z"/>
						<polygon style="fill:#BDBBBB;" points="66.474,60.132 67.543,60.846 67.558,60.843 67.558,51.735 66.474,51.01 						"/>
						<path style="fill:#BDBBBB;" d="M69.57,51.054c0-0.165-0.06-0.295-0.157-0.402l-0.837,0.838v9.13l0.006-0.001l0.988-1.197
							V51.054z"/>
						<path style="fill:#BDBBBB;" d="M69.418,41.822c-0.003-0.162-0.057-0.286-0.143-0.388l-0.848,0.912l-0.075,0.017v4.85
							l-1.019,0.233v-4.85l0.075-0.017l-1.084-0.786v6.927l2.347-0.535c0.216-0.049,0.395-0.165,0.536-0.347
							c0.143-0.184,0.214-0.374,0.214-0.574v-4.457C69.421,42.685,69.419,42.211,69.418,41.822z"/>
						<path style="fill:#807F83;" d="M69.357,50.578c-0.141-0.119-0.32-0.153-0.536-0.103l-2.346,0.535l1.084,0.725l1.019-0.246
							l0.837-0.838C69.393,50.628,69.382,50.599,69.357,50.578z"/>
						<polygon style="fill:#807F83;" points="72.969,58.65 69.57,59.425 69.57,59.42 68.582,60.617 68.577,60.624 74.053,59.375 
							74.047,59.37 72.969,58.644 						"/>
						<polygon style="fill:#807F83;" points="72.969,45.833 72.956,43.767 72.965,45.849 						"/>
						<polygon style="fill:#807F83;" points="63.1,60.901 62.121,62.083 62.107,62.1 67.558,60.856 67.543,60.846 66.474,60.132 
													"/>
						<path style="fill:#807F83;" d="M68.353,42.364l0.075-0.017l0.848-0.912c-0.024-0.028-0.038-0.063-0.068-0.087
							c-0.141-0.109-0.32-0.139-0.536-0.09l-2.347,0.535l1.084,0.786L68.353,42.364z"/>
						<path style="fill:#807F83;" d="M69.421,41.836c0-0.005-0.003-0.008-0.003-0.013c0.001,0.389,0.003,0.863,0.003,0.986V41.836z"
							/>
						<path style="fill:#E20074;" d="M66.474,51.01l2.346-0.535c0.216-0.049,0.395-0.015,0.536,0.103
							c0.025,0.021,0.036,0.05,0.057,0.073c0.096,0.108,0.157,0.237,0.157,0.402v8.366v0.005l3.399-0.775v-0.005v-7.669v-0.972
							c0-0.366-0.101-0.673-0.299-0.92c-0.201-0.245-0.451-0.4-0.75-0.465c0.299-0.218,0.549-0.497,0.75-0.834
							c0.198-0.335,0.299-0.688,0.299-1.054l-0.004-0.882l-0.009-2.081l-0.014-3.209c0-0.366-0.071-0.7-0.211-1
							c-0.143-0.301-0.338-0.549-0.588-0.742c-0.251-0.192-0.543-0.321-0.875-0.387c-0.334-0.067-0.683-0.057-1.049,0.026
							l-7.994,1.824c0.284,0.219,0.499,0.49,0.65,0.815c0.15,0.323,0.225,0.693,0.225,1.109v0.972v17.726l3.374-0.77V51.01z
							 M69.207,47.839c-0.141,0.182-0.32,0.298-0.536,0.347l-2.347,0.535v-6.927l2.347-0.535c0.216-0.049,0.395-0.019,0.536,0.09
							c0.03,0.023,0.044,0.059,0.068,0.087c0.086,0.101,0.14,0.225,0.143,0.388c0,0.005,0.003,0.008,0.003,0.013v0.972v4.457
							C69.421,47.464,69.35,47.655,69.207,47.839z"/>
					</g>
					<g>
						<polygon style="fill:#BDBBBB;" points="53.809,52.753 57.082,52.007 57.082,52.979 57.082,54.33 58.151,55.044 58.166,55.041 
							58.166,50.641 54.894,51.388 54.894,47.981 53.809,47.256 						"/>
						<polygon style="fill:#BDBBBB;" points="53.809,60.572 58.256,59.557 58.256,60.53 58.256,62.007 58.256,62.007 59.325,62.721 
							59.34,62.718 59.34,58.191 54.894,59.206 54.894,55.801 53.809,55.076 						"/>
						<path style="fill:#BDBBBB;" d="M59.34,42.427l-10.327,2.356l-1.92,0.438l1.242,1.196c0,0,0.671,0.15,0.967,0.697
							c0.104,0.193,0.141,0.431,0.141,0.708v17.153l0.014-0.003l0.979-1.182V48.649v-0.972c0-0.416-0.075-0.781-0.224-1.098
							c-0.15-0.315-0.366-0.583-0.65-0.801l8.695-1.984v0.972v1.476l1.069,0.715l0.015-0.003V42.427z"/>
						<polygon style="fill:#807F83;" points="58.256,62.007 50.436,63.791 49.457,64.973 49.443,64.99 59.34,62.731 59.325,62.721 
							58.256,62.007 						"/>
						<polygon style="fill:#807F83;" points="53.809,55.076 54.894,55.801 58.166,55.055 58.151,55.044 57.082,54.33 						"/>
						<polygon style="fill:#807F83;" points="53.809,47.256 54.894,47.981 59.34,46.966 59.325,46.956 58.256,46.242 						"/>
						<path style="fill:#E20074;" d="M58.256,60.53v-0.972l-4.446,1.014v-4.524v-0.972l3.272-0.747v-1.351v-0.972l-3.272,0.747
							v-4.525v-0.972l4.446-1.014v-1.476v-0.972l-8.695,1.984c0.284,0.218,0.5,0.486,0.65,0.801c0.15,0.317,0.224,0.682,0.224,1.098
							v0.972v15.142l7.82-1.784V60.53z"/>
					</g>
				</g>
			</g>
		</g>
	</g>
	<g>
		<g>
			<path style="fill:#E20074;" d="M25.551,101.681h-3.794l-1.843,1.843v8.169l1.843,1.844h3.794l1.847-1.844v-8.169L25.551,101.681z
				 M25.067,111.176l-0.051,0.037h-2.727l-0.05-0.037v-7.135l0.05-0.034h2.727l0.051,0.034V111.176z"/>
			<polygon style="fill:#E20074;" points="13.033,109.991 13.033,111.213 10.205,111.213 10.205,108.807 10.258,108.774 
				13.515,108.774 15.357,106.929 15.357,103.524 13.515,101.681 9.72,101.681 7.876,103.524 7.876,105.228 10.205,105.228 
				10.205,104.041 10.258,104.007 12.982,104.007 13.033,104.041 13.033,106.41 12.982,106.443 9.72,106.443 7.876,108.291 
				7.876,113.538 15.357,113.538 15.357,109.991 			"/>
			<polygon style="fill:#E20074;" points="83.541,111.213 83.541,101.681 81.835,101.681 80.285,103.631 80.285,104.837 
				81.216,104.837 81.216,111.213 80.285,111.213 80.285,113.538 84.473,113.538 84.473,111.213 			"/>
		</g>
	</g>
	<path style="fill:#E20074;" d="M95.325,113.544l1.849-1.846v-8.178l-1.849-1.846h-4.092l-1.847,1.846v3.406l1.847,1.85h3.557
		l0.052,0.033v2.372l-0.052,0.034h-3.023l-0.051-0.034v-1.189h-2.329v1.706l1.847,1.846H95.325z M94.789,106.443h-3.023
		l-0.051-0.033v-2.371l0.051-0.037h3.023l0.052,0.037v2.371L94.789,106.443z"/>
	<g>
		<g>
			<g>
				<path style="fill:#F5333F;" d="M63.593,165.498c0,0-17.732,0.002-18.743,0c-1.921-0.002-3.192,1.008-3.369,2.52
					c-0.067,0.558-0.13,1.051-0.13,1.051h24.974c0,0,0.047-0.367,0.083-0.664C66.597,166.88,65.949,165.498,63.593,165.498"/>
				<path style="fill:#F5333F;" d="M66.16,170.428c0,0-0.056,0.504-0.131,1.054c-0.151,1.087-0.961,1.899-2.469,1.899h-5.318
					l-0.597,4.839h-4.233l0.957-7.792H66.16"/>
				<polygon style="fill:#F5333F;" points="40.932,165.498 40.496,169.068 29.17,169.068 29.609,165.498 				"/>
				<polyline style="fill:#F5333F;" points="29.005,170.428 40.327,170.428 39.966,173.381 32.877,173.381 32.697,174.84 
					39.788,174.84 39.371,178.22 28.047,178.22 29.005,170.428 				"/>
				<path style="fill:#F5333F;" d="M67.625,165.498c0,0,6.979,0,9.237,0c1.459,0,2.972,0.678,2.673,3.022
					c-0.053,0.417-0.069,0.548-0.069,0.548H67.188L67.625,165.498"/>
				<polyline style="fill:#F5333F;" points="67.019,170.428 71.256,170.431 70.299,178.218 66.063,178.22 67.019,170.428 				"/>
				<polyline style="fill:#F5333F;" points="75.066,170.428 79.302,170.431 78.344,178.218 74.109,178.22 75.066,170.428 				"/>
				<path style="fill:#F5333F;" d="M50.487,170.431c-0.731,0-7.855-0.003-9.302-0.003c-0.31,2.035,0.707,2.953,2.15,2.953
					c0.784,0,5.729-0.002,5.729-0.002l-0.178,1.462h-8.242l-0.415,3.38c0,0,8.973,0.002,9.337,0c0.3-0.023,2.399-0.078,3.112-1.796
					c0.232-0.556,0.437-2.554,0.493-2.975C53.503,171.013,51.816,170.431,50.487,170.431"/>
			</g>
		</g>
	</g>
</g>
</svg>
