<?xml version="1.0" encoding="UTF-8"?>
<svg width="198px" height="131px" viewBox="0 0 198 131" version="1.1" xmlns="http://www.w3.org/2000/svg" xmlns:xlink="http://www.w3.org/1999/xlink">
    <!-- Generator: Sketch 49.1 (51147) - http://www.bohemiancoding.com/sketch -->
    <title>ux-full-transparent</title>
    <desc>Created with Sketch.</desc>
    <defs></defs>
    <g id="ux-full-transparent" stroke="none" stroke-width="1" fill="none" fill-rule="evenodd">
        <g id="ux" transform="translate(6.000000, 6.000000)" fill="#070707">
            <path d="M96,0 L186,0 L186,119 L96,119 L96,0 Z M122.7,30.4 L131.8,58.8 L138.2,53.9 L128.8,25 L123.2,25 L122.7,30.4 Z M138.6,55.9 L134.5,59.6 L138.1,63 L142,63 L146.5,59.6 L143.2,55.9 L138.6,55.9 Z M116,93.8 L121.6,93.8 L137,64.9 L131.7,60 L116.6,88.4 L116,93.8 Z M165,25 L159.4,25 L144,53.9 L149.4,58.8 L164.5,30.4 L165,25 Z M158.4,88.4 L149.3,60 L142.8,64.9 L152.2,93.8 L157.8,93.8 L158.4,88.4 Z" id="Combined-Shape"></path>
            <path d="M0,0 L89,0 L89,119 L0,119 L0,0 Z M29.557,65 C29.157,64.467 28.607,63.783 27.907,62.95 C27.207,62.117 26.657,61.533 26.257,61.2 L25.457,61.2 C25.324,61.2 24.924,61.483 24.257,62.05 C23.59,62.617 23.157,63.1 22.957,63.5 L22.657,64.6 L20.057,89.1 C19.924,89.833 20.024,90.683 20.357,91.65 C20.69,92.617 21.224,93.333 21.957,93.8 L27.657,86.2 L29.657,67.1 L29.557,65 Z M56.757,67.1 L55.057,83.7 L61.357,88.9 L61.757,88.9 L64.357,64.6 L64.257,63.5 C64.124,63.1 63.774,62.617 63.207,62.05 C62.64,61.483 62.29,61.2 62.157,61.2 L61.357,61.2 C60.957,61.533 60.307,62.117 59.407,62.95 C58.677826,63.6200946 57.9610382,64.3035435 57.257,65 L56.757,67.1 Z M58.257,93.8 C58.857,93.8 59.474,93.55 60.107,93.05 C60.74,92.55 61.19,92 61.457,91.4 L55.357,86.7 L29.557,86.7 L24.557,93.4 L24.557,93.8 L58.257,93.8 Z M58.457,54.2 C58.79,54.733 59.324,55.417 60.057,56.25 C60.79,57.083 61.357,57.667 61.757,58 L62.557,58 C62.69,58 63.09,57.717 63.757,57.15 C64.424,56.583 64.857,56.1 65.057,55.7 L65.357,54.6 L67.957,29.7 C68.09,28.967 67.99,28.117 67.657,27.15 C67.324,26.183 66.79,25.467 66.057,25 L60.357,32.6 L58.357,52.1 L58.457,54.2 Z M31.257,52.1 L33.257,32.6 L29.157,25 C28.357,25.467 27.707,26.183 27.207,27.15 C26.707,28.117 26.39,28.967 26.257,29.7 L23.657,54.6 L23.757,55.7 C23.89,56.1 24.24,56.583 24.807,57.15 C25.374,57.717 25.724,58 25.857,58 L26.657,58 C27.057,57.667 27.707,57.083 28.607,56.25 C29.336174,55.5799054 30.0529618,54.8964565 30.757,54.2 L31.257,52.1 Z" id="Combined-Shape"></path>
        </g>
    </g>
</svg>