<?xml version="1.0" encoding="UTF-8"?>
<svg width="648px" height="131px" viewBox="0 0 648 131" version="1.1" xmlns="http://www.w3.org/2000/svg" xmlns:xlink="http://www.w3.org/1999/xlink">
    <!-- Generator: Sketch 49.1 (51147) - http://www.bohemiancoding.com/sketch -->
    <title>uxscoreboard-full-transparent</title>
    <desc>Created with Sketch.</desc>
    <defs></defs>
    <g id="uxscoreboard-full-transparent" stroke="none" stroke-width="1" fill="none" fill-rule="evenodd">
        <g id="uxscoreboard" transform="translate(7.000000, 6.000000)" fill="#070707">
            <g id="Group">
                <path d="M96,0 L186,0 L186,119 L96,119 L96,0 Z M122.7,30.4 L131.8,58.8 L138.2,53.9 L128.8,25 L123.2,25 L122.7,30.4 Z M138.6,55.9 L134.5,59.6 L138.1,63 L142,63 L146.5,59.6 L143.2,55.9 L138.6,55.9 Z M116,93.8 L121.6,93.8 L137,64.9 L131.7,60 L116.6,88.4 L116,93.8 Z M165,25 L159.4,25 L144,53.9 L149.4,58.8 L164.5,30.4 L165,25 Z M158.4,88.4 L149.3,60 L142.8,64.9 L152.2,93.8 L157.8,93.8 L158.4,88.4 Z" id="Combined-Shape"></path>
                <path d="M0,0 L89,0 L89,119 L0,119 L0,0 Z M29.557,65 C29.157,64.467 28.607,63.783 27.907,62.95 C27.207,62.117 26.657,61.533 26.257,61.2 L25.457,61.2 C25.324,61.2 24.924,61.483 24.257,62.05 C23.59,62.617 23.157,63.1 22.957,63.5 L22.657,64.6 L20.057,89.1 C19.924,89.833 20.024,90.683 20.357,91.65 C20.69,92.617 21.224,93.333 21.957,93.8 L27.657,86.2 L29.657,67.1 L29.557,65 Z M56.757,67.1 L55.057,83.7 L61.357,88.9 L61.757,88.9 L64.357,64.6 L64.257,63.5 C64.124,63.1 63.774,62.617 63.207,62.05 C62.64,61.483 62.29,61.2 62.157,61.2 L61.357,61.2 C60.957,61.533 60.307,62.117 59.407,62.95 C58.677826,63.6200946 57.9610382,64.3035435 57.257,65 L56.757,67.1 Z M58.257,93.8 C58.857,93.8 59.474,93.55 60.107,93.05 C60.74,92.55 61.19,92 61.457,91.4 L55.357,86.7 L29.557,86.7 L24.557,93.4 L24.557,93.8 L58.257,93.8 Z M58.457,54.2 C58.79,54.733 59.324,55.417 60.057,56.25 C60.79,57.083 61.357,57.667 61.757,58 L62.557,58 C62.69,58 63.09,57.717 63.757,57.15 C64.424,56.583 64.857,56.1 65.057,55.7 L65.357,54.6 L67.957,29.7 C68.09,28.967 67.99,28.117 67.657,27.15 C67.324,26.183 66.79,25.467 66.057,25 L60.357,32.6 L58.357,52.1 L58.457,54.2 Z M31.257,52.1 L33.257,32.6 L29.157,25 C28.357,25.467 27.707,26.183 27.207,27.15 C26.707,28.117 26.39,28.967 26.257,29.7 L23.657,54.6 L23.757,55.7 C23.89,56.1 24.24,56.583 24.807,57.15 C25.374,57.717 25.724,58 25.857,58 L26.657,58 C27.057,57.667 27.707,57.083 28.607,56.25 C29.336174,55.5799054 30.0529618,54.8964565 30.757,54.2 L31.257,52.1 Z" id="Combined-Shape"></path>
                <path d="M197.798,84.07 L197.798,79.513 C201.828,80.877 206.137,81.559 210.725,81.559 C215.065,81.559 218.165,80.97 220.025,79.792 C221.885,78.614 222.815,76.63 222.815,73.84 C222.815,72.104 222.459,70.74 221.745,69.748 C221.032,68.756 219.994,67.95 218.63,67.33 C217.266,66.71 215.127,65.904 212.213,64.912 L209.888,64.075 C206.54,62.959 204.045,62.014 202.401,61.238 C200.758,60.463 199.379,59.317 198.263,57.798 C197.147,56.278 196.589,54.217 196.589,51.613 C196.589,47.707 197.875,44.793 200.449,42.871 C203.022,40.949 207.129,39.988 212.771,39.988 C216.987,39.988 220.893,40.515 224.489,41.569 L224.489,46.126 C220.936614,45.0166386 217.236576,44.4522261 213.515,44.452 C209.175,44.452 206.106,44.994 204.308,46.08 C202.51,47.165 201.611,48.978 201.611,51.52 C201.611,53.194 201.983,54.511 202.727,55.472 C203.471,56.434 204.571,57.224 206.029,57.844 C207.486,58.464 209.857,59.301 213.143,60.355 C216.863,61.533 219.73,62.633 221.745,63.656 C223.761,64.68 225.295,65.981 226.349,67.562 C227.403,69.144 227.93,71.236 227.93,73.84 C227.93,81.9 222.412,85.93 211.376,85.93 C206.044,85.93 201.518,85.31 197.798,84.07 L197.798,84.07 Z M238.16,62.959 C238.16,55.395 240.16,49.676 244.159,45.8 C248.158,41.925 253.691,39.988 260.759,39.988 C263.425,39.988 265.641,40.174 267.409,40.546 C269.176,40.918 270.958,41.538 272.756,42.406 L272.756,46.591 C269.47,45.041 265.75,44.266 261.596,44.266 C249.32,44.266 243.182,50.496 243.182,62.959 C243.182,69.469 244.577,74.227 247.367,77.234 C250.157,80.242 254.776,81.745 261.224,81.745 C265.254,81.745 269.129,80.939 272.849,79.327 L272.849,83.605 C269.191,85.155 264.913,85.93 260.015,85.93 C245.445,85.93 238.16,78.273 238.16,62.959 L238.16,62.959 Z M284.846,80.164 C281.498,76.32 279.824,70.585 279.824,62.959 C279.824,55.395 281.529,49.676 284.939,45.8 C288.349,41.925 293.65,39.988 300.842,39.988 C308.034,39.988 313.35,41.925 316.792,45.801 C320.232,49.676 321.953,55.395 321.953,62.959 C321.953,70.585 320.263,76.32 316.885,80.164 C313.505,84.008 308.158,85.93 300.842,85.93 C293.526,85.93 288.194,84.008 284.846,80.164 L284.846,80.164 Z M313.164,77.095 C315.614,74.119 316.838,69.407 316.838,62.959 C316.838,56.573 315.598,51.892 313.118,48.916 C310.638,45.94 306.546,44.452 300.842,44.452 C295.138,44.452 291.046,45.94 288.566,48.916 C286.086,51.892 284.846,56.573 284.846,62.959 C284.846,69.407 286.07,74.119 288.519,77.095 C290.969,80.071 295.076,81.559 300.842,81.559 C306.608,81.559 310.715,80.071 313.164,77.095 L313.164,77.095 Z M334.043,40.918 L338.507,40.918 L339.065,47.056 C341.297,45.506 343.885,44.111 346.83,42.871 C349.673291,41.6643147 352.613404,40.6998881 355.619,39.988 L355.619,44.173 C352.829,44.855 349.838,45.863 346.644,47.196 C343.451,48.529 340.956,49.846 339.158,51.148 L339.158,85 L334.043,85 L334.043,40.918 L334.043,40.918 Z M366.639,80.304 C363.012,76.552 361.199,70.678 361.199,62.68 C361.199,47.552 367.988,39.988 381.566,39.988 C387.642,39.988 392.199,41.615 395.237,44.871 C398.275,48.126 399.794,52.388 399.794,57.658 L399.794,65.656 L366.314,65.656 C366.5,69.562 367.213,72.677 368.453,75.003 C369.693,77.328 371.63,79.033 374.266,80.118 C376.901,81.203 380.481,81.745 385.007,81.745 C389.099,81.745 393.067,80.97 396.911,79.42 L396.911,83.605 C393.129,85.155 388.82,85.93 383.984,85.93 C376.048,85.93 370.267,84.055 366.64,80.304 L366.639,80.304 Z M395.144,61.657 L395.144,57.472 C395.144,48.668 390.649,44.266 381.659,44.266 C376.079,44.266 372.127,45.707 369.801,48.591 C367.476,51.474 366.314,55.829 366.314,61.657 L395.144,61.657 L395.144,61.657 Z M423.695,84.535 C421.153,83.605 418.797,82.117 416.627,80.071 L416.162,85 L411.884,85 L411.884,22.318 L416.999,22.318 L416.999,44.638 C421.277,41.538 426.454,39.988 432.53,39.988 C445.674,39.988 452.246,47.521 452.246,62.587 C452.246,70.461 450.541,76.32 447.131,80.164 C443.721,84.008 438.854,85.93 432.53,85.93 C429.182,85.93 426.237,85.465 423.695,84.535 L423.695,84.535 Z M443.457,77.002 C445.969,73.84 447.224,69.035 447.224,62.587 C447.224,56.139 445.922,51.474 443.318,48.59 C440.714,45.707 436.653,44.266 431.135,44.266 C425.555,44.266 420.843,45.878 416.999,49.102 L416.999,75.793 C420.719,79.761 425.493,81.745 431.321,81.745 C436.901,81.745 440.946,80.164 443.457,77.002 L443.457,77.002 Z M465.173,80.164 C461.825,76.32 460.151,70.585 460.151,62.959 C460.151,55.395 461.856,49.676 465.266,45.8 C468.676,41.925 473.977,39.988 481.169,39.988 C488.361,39.988 493.677,41.925 497.119,45.801 C500.559,49.676 502.28,55.395 502.28,62.959 C502.28,70.585 500.59,76.32 497.212,80.164 C493.832,84.008 488.485,85.93 481.169,85.93 C473.853,85.93 468.521,84.008 465.173,80.164 L465.173,80.164 Z M493.491,77.095 C495.941,74.119 497.165,69.407 497.165,62.959 C497.165,56.573 495.925,51.892 493.445,48.916 C490.965,45.94 486.873,44.452 481.169,44.452 C475.465,44.452 471.373,45.94 468.893,48.916 C466.413,51.892 465.173,56.573 465.173,62.959 C465.173,69.407 466.397,74.119 468.846,77.095 C471.296,80.071 475.403,81.559 481.169,81.559 C486.935,81.559 491.042,80.071 493.491,77.095 L493.491,77.095 Z M514.51,82.768 C511.626,80.66 510.185,77.498 510.185,73.282 C510.185,69.128 511.487,65.889 514.091,63.564 C516.695,61.238 520.849,60.076 526.553,60.076 L543.014,60.076 L543.014,55.891 C543.014,52.977 542.642,50.699 541.898,49.056 C541.154,47.412 539.79,46.219 537.806,45.475 C535.822,44.731 532.97,44.359 529.25,44.359 C524.414,44.359 519.733,45.165 515.207,46.777 L515.207,42.406 C519.361,40.794 524.352,39.988 530.18,39.988 C536.318,39.988 540.813,41.228 543.665,43.708 C546.517,46.188 547.943,50.218 547.943,55.798 L547.943,85 L543.758,85 L543.293,79.513 C541.295265,81.712528 538.788781,83.3887817 535.993,84.395 C533.171,85.419 529.684,85.93 525.53,85.93 C521.066,85.93 517.393,84.876 514.51,82.768 L514.51,82.768 Z M543.014,74.77 L543.014,64.168 L526.739,64.168 C522.523,64.168 519.547,64.912 517.811,66.4 C516.075,67.888 515.207,70.182 515.207,73.282 C515.207,76.258 516.199,78.397 518.183,79.699 C520.167,81.001 523.05,81.652 526.832,81.652 C533.714,81.652 539.108,79.358 543.014,74.77 L543.014,74.77 Z M561.428,40.918 L565.892,40.918 L566.45,47.056 C568.682,45.506 571.27,44.111 574.215,42.871 C577.058291,41.6643147 579.998404,40.6998881 583.004,39.988 L583.004,44.173 C580.214,44.855 577.223,45.863 574.029,47.196 C570.836,48.529 568.341,49.846 566.543,51.148 L566.543,85 L561.428,85 L561.428,40.918 L561.428,40.918 Z M592.443,80.397 C588.94,76.707 587.189,71.019 587.189,63.331 C587.189,55.519 588.956,49.676 592.49,45.801 C596.024,41.925 600.984,39.988 607.37,39.988 C610.408,39.988 613.12,40.344 615.508,41.058 C617.895,41.771 620.204,42.964 622.436,44.638 L622.436,22.318 L627.551,22.318 L627.551,85 L623.273,85 L622.808,80.071 C620.638,82.117 618.282,83.605 615.74,84.535 C613.198,85.465 610.253,85.93 606.905,85.93 C600.767,85.93 595.947,84.086 592.443,80.396 L592.443,80.397 Z M622.436,75.793 L622.436,49.102 C618.716,45.878 614.159,44.266 608.765,44.266 C603.247,44.266 599.109,45.816 596.35,48.916 C593.59,52.016 592.211,56.821 592.211,63.331 C592.211,69.593 593.513,74.227 596.117,77.234 C598.721,80.242 602.72,81.745 608.114,81.745 C613.942,81.745 618.716,79.761 622.436,75.793 L622.436,75.793 Z" id="Shape"></path>
            </g>
        </g>
    </g>
</svg>