<svg width="288" height="92" viewBox="0 0 288 92" xmlns="http://www.w3.org/2000/svg"><title>all-star-game</title><g fill="none"><path d="M91.062 66.879c-2.649 1.162-4.926 2.773-4.988 6.49h8.489v-2.091H88.8c.202-.836.945-1.564 2.866-2.447 1.844-.852 2.788-1.611 2.788-3.361 0-.487-.087-.911-.242-1.283-.004-.009-.005-.02-.009-.029-.517-1.199-1.822-1.802-3.776-1.802-1.72 0-3.253.635-4.399 1.797l.004.005.025.029 1.365 1.592c.759-.728 1.797-1.301 3.082-1.301 1.301 0 1.782.542 1.782 1.1-.001.465-.296.898-1.224 1.301m19.678 1.038c0-1.503-.347-2.773-.987-3.73l-.018-.029c-.766-1.127-1.951-1.802-3.549-1.802-1.59 0-2.772.677-3.538 1.802-.007.009-.012.02-.018.029-.648.965-.998 2.249-.998 3.761 0 3.299 1.58 5.592 4.539 5.592 2.958 0 4.569-2.323 4.569-5.623m-4.553 3.501c-1.657 0-2.355-1.565-2.355-3.501s.682-3.439 2.34-3.439c1.657 0 2.369 1.534 2.369 3.47-.001 1.936-.697 3.47-2.354 3.47m77.17 1.952V62.527h-1.797c-.217.898-1.007 1.347-2.215 1.409v1.596h1.859v7.838h2.153zm17.197-10.844h-8.132v2.06h5.514c-2.014 2.309-3.191 5.267-3.191 8.783h2.215c0-3.748 1.394-6.598 3.594-8.752v-2.091z" fill="#F60"/><path d="M115.276 13.773V9.219c0-.673.035-2.253.035-2.732a52.99 52.99 0 0 1-.867 2.14c-.837 1.919-1.674 3.842-2.511 5.768-.836-1.748-1.673-3.491-2.509-5.232a43.242 43.242 0 0 1-.866-1.954c0 .478.035 2.051.036 2.725v4.553c-.807.095-1.613.194-2.419.296V2.38c.794-.1 1.589-.197 2.383-.291.86 1.77 1.72 3.544 2.58 5.322.318.656.689 1.556.848 1.982.159-.478.513-1.419.831-2.161.831-1.958 1.663-3.913 2.494-5.865a287.53 287.53 0 0 1 2.442-.223v12.402c-.826.073-1.651.148-2.477.227m11.866-.899V.471c.828-.046 1.655-.089 2.483-.128v12.402c-.828.04-1.655.083-2.483.129m20.16-.453l-.976-2.773c-1.515-.012-3.03-.012-4.545-.001l-.976 2.773c-.888.009-1.776.023-2.663.04A6645.98 6645.98 0 0 1 142.9.002c.804-.003 1.609-.002 2.414.001 1.574 4.141 3.148 8.295 4.722 12.46-.911-.018-1.822-.032-2.734-.042m-2.627-7.388c-.248-.727-.497-1.471-.622-1.932-.124.461-.372 1.205-.621 1.932l-.799 2.253c.947-.005 1.894-.005 2.841 0l-.799-2.253m22.829 8.286V8.765c0-.673.035-2.247.035-2.725a44.038 44.038 0 0 1-.868 1.988l-2.516 5.331c-.839-1.892-1.678-3.782-2.517-5.668a51.033 51.033 0 0 1-.869-2.105c0 .479.035 2.058.035 2.731v4.554c-.809-.046-1.619-.087-2.429-.126V.342c.798.038 1.596.08 2.394.124.863 1.92 1.726 3.844 2.588 5.772.32.711.692 1.675.851 2.128.16-.449.514-1.329.833-2.015.833-1.814 1.666-3.625 2.498-5.432.815.064 1.63.131 2.444.201v12.403c-.826-.07-1.653-.139-2.479-.204m11.85 1.162V2.078c.824.098 1.648.198 2.472.302v12.403a297.53 297.53 0 0 0-2.472-.302" fill="#000"/><path d="M124.544 80.607a2.039 2.039 0 1 0 .003 4.075 2.039 2.039 0 0 0-.003-4.075" fill="#FFF"/><path d="M167.005 61.062H121.38a4.451 4.451 0 0 0-4.452 4.451h.022v20.829a4.45 4.45 0 0 0 4.43 4.024h45.625a4.453 4.453 0 0 0 4.451-4.451V65.513a4.453 4.453 0 0 0-4.451-4.451zm-8.326 14.875s-1.647-1.145-3.351-1.088l-4.195.002c-.948.001-.588-2.123-.588-2.123s.532.083.561-.028c.166-1.957-.004-4.753-2.128-6.177-3.606-2.402-9.561-1.949-9.725 3.862 0 0-3.212 2.211-3.156 2.211l3.83-.002.139.613-1.033 2.238s-.195.28.084.363c.225.056 1.285.027 1.285.027.392.447.533 1.957.225 2.012-2.209.589-4.078 3.636-4.075 9.113h2.206c.162.268.682 1.148 1.148 1.923H121.38a2.952 2.952 0 0 1-2.099-.87 2.948 2.948 0 0 1-.869-2.098V65.513c0-.791.309-1.538.869-2.098a2.956 2.956 0 0 1 2.099-.87h28.52l9.199 11.939-.42 1.453zm11.293 9.978a2.971 2.971 0 0 1-2.967 2.968h-5.663l-.001-1.935 4.529-.002c1.145-.113 2.374-2.126 2.708-3.328.141-.447-.532-.782-1.034-1.564-.364-.559-.447-1.594-1.092-1.845-.922-.363-1.956-1.313-1.956-1.313v-1.145c0-.028-.477-.531-.477-.531l-.474-.083v-.504l-.421-.586-.473-.084-.002-.531-.391-.558-.673-.085-7.338-12.244h12.758c.793 0 1.536.31 2.098.87.56.56.869 1.307.869 2.098v20.402z" fill="#FFF"/><path d="M167.005 62.545h-12.758l7.338 12.244.673.084.391.559.001.531.474.084.421.586v.504l.474.083s.476.502.476.531v1.145s1.034.95 1.957 1.313c.644.251.728 1.286 1.092 1.845.502.781 1.175 1.117 1.034 1.563-.334 1.202-1.563 3.216-2.708 3.328l-4.529.003.001 1.935h5.663a2.971 2.971 0 0 0 2.967-2.968V65.513a2.95 2.95 0 0 0-.87-2.098 2.948 2.948 0 0 0-2.097-.87" fill="#F60"/><path d="M121.381 62.545c-.792 0-1.538.31-2.099.871a2.943 2.943 0 0 0-.869 2.097v20.402c0 .793.308 1.538.869 2.099.561.56 1.307.869 2.099.869h18.525c-.465-.775-.986-1.655-1.148-1.923h-2.206c-.002-5.476 1.867-8.524 4.075-9.113.308-.055.168-1.565-.225-2.012 0 0-1.06.029-1.285-.027-.279-.083-.083-.363-.083-.363l1.032-2.237-.139-.614-3.829.002c-.056 0 3.155-2.211 3.155-2.211.165-5.811 6.119-6.264 9.726-3.861 2.124 1.423 2.294 4.219 2.127 6.176-.029.111-.56.028-.56.028s-.361 2.124.587 2.123l4.195-.002c1.705-.057 3.352 1.088 3.352 1.088l.419-1.453-9.199-11.939h-28.519zm3.166 22.138a2.04 2.04 0 0 1-2.04-2.036c0-1.126.913-2.037 2.037-2.04a2.038 2.038 0 1 1 .003 4.076z" fill="#000"/><path d="M171.448 90.297c0-.302-.179-.351-.439-.351h-.556v1.139h.237v-.457h.199l.263.457h.264l-.274-.457c.197-.015.306-.123.306-.331m-.434.129h-.324v-.279h.266c.114 0 .253 0 .253.129 0 .123-.067.15-.195.15" fill="#F60"/><path d="M170.912 89.421c-.609 0-1.088.489-1.088 1.1 0 .605.479 1.091 1.088 1.091.608 0 1.086-.486 1.086-1.091 0-.611-.478-1.1-1.086-1.1m0 1.955a.843.843 0 0 1-.849-.855.84.84 0 0 1 .849-.856c.462 0 .85.362.85.856a.847.847 0 0 1-.85.855" fill="#F60"/><path d="M159.642 29.644c.086.01.163.03.246.044.159.026.32.051.466.09.092.024.173.06.26.089.124.043.25.085.363.138.085.041.161.092.24.139.099.059.198.117.288.187.073.057.138.124.204.189.078.076.155.152.223.238.059.075.111.159.162.242.057.093.112.189.159.292a3.518 3.518 0 0 1 .271.997c.008.062.05.603.056.668.012-.145-.006-.782-.006-.938 0-2.349-1.417-3.318-3.728-3.318h-6.824v.898h6.824c.279 0 .544.016.796.045" fill="#C4CED4"/><path fill="#F60" d="M274.54 39.202h7.495v1.572h-7.495zm-5.22 11.41h18.681v1.593H269.32z"/><path fill="#0077C8" d="M274.539 29.619h12.902v1.572h-12.902z"/><path fill="#000" d="M288 49.714v-4.21h-13.461v-7.2h7.495v-4.172h-7.495v-5.411h12.902v-4.21h-18.122v25.203z"/><path fill="#F60" d="M33.885 50.628h18.308V52.2H33.885zm19.912.001h18.308v1.572H53.797zm56.845-.001h5.22V52.2h-5.22zm15.019 1.573l2.051-5.817h9.545l2.051 5.817h6.341l-.598-1.572h-5.743l-2.051-5.817h-9.545l-2.051 5.817h-5.591l-.601 1.572zm42.235-18.533c-.212 3.279-1.653 5.498-4.939 6.83l-.007-.013-.002.001.629 1.279c2.888-1.364 4.367-3.737 4.367-7.388 0-.281-.018-.55-.038-.816l-.01.107"/><path fill="#0077C8" d="M103.147 29.673h7.495v1.572h-7.495zm12.715 0h7.495v1.572h-7.495zm17.54 4.301c-.379-1.131-.722-2.193-.918-2.921-.065.243-.147.522-.24.829-.282.922-.673 2.089-1.065 3.236l-1.668 4.726h-.007l-.003.009h.902s2.016-6.012 2.081-6.254c.261.969 2.082 6.254 2.082 6.254h.883l-1.66-4.735c-.13-.383-.261-.767-.387-1.144m26.219-2.76c.08.009.153.026.231.038.16.025.318.052.466.09.085.022.163.05.244.077a2.733 2.733 0 0 1 .593.256 2.748 2.748 0 0 1 .492.349c.09.081.171.172.248.265.049.06.1.117.144.182.076.111.138.235.198.361.029.063.065.12.091.186.077.2.14.415.18.65l.008.061c.036-.236.058-.545.058-.812 0-.226-.024-.428-.05-.629a3.696 3.696 0 0 0-.157-.7 3.133 3.133 0 0 0-.113-.296 2.631 2.631 0 0 0-.16-.292 2.386 2.386 0 0 0-.162-.243 2.637 2.637 0 0 0-.222-.238c-.067-.065-.131-.131-.205-.189-.089-.069-.189-.128-.288-.187-.079-.047-.154-.098-.24-.138-.113-.054-.239-.096-.363-.138-.086-.03-.168-.065-.259-.09-.147-.039-.307-.064-.467-.09-.083-.013-.159-.034-.246-.044a6.96 6.96 0 0 0-.796-.044h-6.824v1.571h6.824c.272 0 .529.017.775.044"/><path fill="#F60" d="M74.924 36.157l3.04-2.225H74.2l-1.666-5.128-1.666 5.128h-3.764l3.045 2.241-.311.957-.007-.006-1.156 3.557 3.859-2.804 3.859 2.804-1.159-3.568v.001z"/><path fill="#000" d="M51.276 49.73h.917v-4.247H39.105V24.527h-5.22V49.73h1.142zm19.817 0h1.012v-4.247H59.016V24.527h-5.22V49.73h.842z"/><path fill="#C4CED4" d="M53.797 49.73h18.308v1H53.797zm75.714-9.886l1.669-4.727c.391-1.146.782-2.313 1.064-3.235.094-.307.175-.586.241-.829.195.727.538 1.79.917 2.921.127.377.257.761.388 1.143l1.659 4.736h.8s-3.503-9.164-3.764-10.134c-.261.97-3.696 10.125-3.696 10.125h.722zm33.08-.087l.359.729.007.013c3.286-1.332 4.731-3.551 4.943-6.83l.003-.063.002-.044c.008-.252.008-.42.019-.681a6.99 6.99 0 0 0 .004-.409c-.157 3.587-1.826 5.876-5.337 7.285"/><path d="M7.047 49.563l2.55-5.371h13.642l2.551 5.371h5.749L16.438 19.436 1.336 49.563h5.711zm9.354-19.367l5.034 10.072h-9.941l4.907-10.072z" fill="#000"/><path fill="#C4CED4" d="M16.401 31.743l4.085 8.525h.949l-5.034-10.072-4.907 10.072h.893z"/><path fill="#0077C8" d="M12.388 40.268h.968l3.046-6.466 3.098 6.466h.987l-4.085-8.525z"/><path fill="#C4CED4" d="M70.15 36.173l-3.045-2.242h-1.628l4.355 3.193.007.006zm2.385 1.704l-3.859 2.804-.503 1.548 4.362-3.17 4.362 3.17-.503-1.548z"/><path fill="#F60" d="M262.251 50.633l-5.838-15.446-7.563 14.899-7.594-14.828-5.67 15.375h-10.71l-2.055-5.838h-9.546l-2.05 5.817h-5.594l-.617 1.572h6.52l2.05-5.817h8.956l2.058 5.832 11.798.006 4.86-13.954 7.594 14.33 7.563-14.402 5.068 14.026h7.295l-.639-1.572zM192.772 52a17.84 17.84 0 0 1-3.335-.312 17.418 17.418 0 0 1-3.108-.895 16.77 16.77 0 0 1-5.267-3.289c-2.625-2.429-4.376-5.667-4.773-9.271-.03-.274-.031-.557-.045-.835-.013.256-.04.509-.04.767 0 8.454 7.432 15.332 16.568 15.332 8.972 0 14.328-6.266 14.328-16.762l-.005-1.345-.012.076C207.004 45.821 201.677 52 192.772 52"/><path d="M219.354 35.1c-.522-1.529-1.044-3.095-1.305-4.064-.261.969-.784 2.535-1.305 4.064l-1.635 4.728h.831l.804-2.258c.521-1.528 1.044-3.094 1.305-4.064.261.97.783 2.536 1.305 4.064l.804 2.258h.864l-1.668-4.728z" fill="#0077C8"/><path d="M207.1 35.014h-.011c-.226 10.088-5.539 16.088-14.317 16.088-8.951 0-16.257-6.605-16.549-14.823-.001-.03-.007-.059-.007-.089-.005.16-.012.318-.012.479 0 .246.028.486.04.729.014.279.016.561.046.836.396 3.603 2.147 6.842 4.772 9.271a16.77 16.77 0 0 0 5.267 3.289c.991.388 2.031.69 3.109.894 1.077.205 2.192.313 3.334.313 8.905 0 14.241-6.179 14.321-16.534 0-.078.007-.15.007-.228v-.225z" fill="#C4CED4"/><path d="M210.635 49.713l2.248-5.817h10.425l2.124 5.832 9.345.006 6.48-16.761 7.594 14.405 7.563-14.477 6.63 16.833h4.726l-10.986-26.973-7.867 15.881-8.039-15.95-10.69 26.78-9.492-24.962h-5.071l-9.649 25.203h4.659zm7.414-20.088c.261.97 3.621 10.203 3.621 10.203h-7.099c-.001 0 3.217-9.233 3.478-10.203z" fill="#000"/><path d="M215.109 39.828l1.635-4.728c.522-1.528 1.044-3.094 1.305-4.064.261.97.783 2.536 1.305 4.064l1.669 4.728h.647s-3.36-9.233-3.621-10.203c-.261.97-3.477 10.203-3.477 10.203h.537z" fill="#C4CED4"/><path fill="#F60" d="M167.945 50.629h-6.005l-4.661-9.396h-5.257v1.571h5.257l4.661 9.397h6.779zm-21.143-.001h5.22V52.2h-5.22z"/><path d="M152.022 40.334h5.847l4.661 9.397h4.971l-3.924-7.966-.629-1.278.003-.001-.359-.729c3.51-1.409 5.18-3.698 5.337-7.285-.164-5.326-4.151-7.944-8.971-7.944h-12.156v25.203h5.22v-9.397zm0-6.665v-4.968h6.824c2.312 0 3.729.969 3.729 3.318v.899c0 .267-.022.515-.058.751-.002.016-.001.035-.004.051-.284 1.735-1.548 2.591-3.667 2.591h-6.824v-2.642z" fill="#000"/><path fill="#C4CED4" d="M157.869 40.334h-5.847v.899h5.257l4.661 9.396h6.004l-.443-.899h-4.971zm-11.067 10.295h5.22v-.899h-5.22z"/><path d="M125.063 49.731l2.051-5.817h10.762l2.051 5.817h4.782l-3.657-9.622-5.323-14.009-.597-1.572h-5.072l-9.649 25.203h4.652zm7.421-20.012c.261.97 3.764 10.134 3.764 10.134h-6.747l.003-.009h-.716s3.435-9.155 3.696-10.125zm-16.622-.045v-.899h7.495v-4.247h-20.21v4.247h7.495v20.956h5.22z" fill="#000"/><path fill="#C4CED4" d="M103.147 28.775h7.495v1h-7.495zm12.715-.001h7.495v1h-7.495zm-5.22 20.956h5.22v1h-5.22zM274.54 38.303h7.495v1h-7.495zm-.001-9.583h12.902v1h-12.902zm-6.769 21.015h-4.726l-6.631-16.833-7.562 14.477-7.595-14.406-6.48 16.762-9.344-.006-2.124-5.832h-10.425l-2.249 5.817h-4.658l-.344.898h5.593l2.051-5.817h9.545l2.055 5.839h10.711l5.669-15.375 7.595 14.828 7.562-14.899 5.838 15.446h5.885zm1.55-.022h18.681v1H269.32zm-124.611.017h-4.782l-2.051-5.817h-10.762l-2.051 5.817h-4.651l-.344.899h5.593l2.051-5.817h9.545l2.051 5.817h5.742z"/><path fill="#F60" d="M32.103 50.686h-6.65l-2.55-5.371H9.934l-2.55 5.371H.783L0 52.183h7.759l2.55-5.371h12.219l2.551 5.371h7.776z"/><path fill="#C4CED4" d="M32.103 50.686l-.563-1.123h-5.749l-2.551-5.371H9.598l-2.55 5.371H1.337l-.563 1.123h6.611l2.55-5.371h12.968l2.551 5.371zm1.782-.956h18.308v1H33.885z"/><path d="M193.514 40.254v1.497h6.975c.092-.239.171-.484.236-.733.064-.25.113-.504.145-.764h-7.356z" fill="#F60"/><path d="M193.514 35.014v4.342h7.436a5.777 5.777 0 0 1-.074.89l-.006.009a6.043 6.043 0 0 1-.145.763c-.065.25-.144.494-.236.734-1.085 2.825-4.14 4.854-7.678 4.854-5.551 0-9.936-4.048-10.289-9.332-.015-.227-.034-.452-.034-.683v-.899c0-6.009 4.038-10.207 9.821-10.207 4.286 0 6.98 1.786 7.947 2.562.215.161.266.173.49.371l2.537-3.872-.006-.006c-1.377-1.061-5.229-3.551-11.046-3.551-9.002 0-15.808 6.548-16.008 15.29.292 8.218 7.598 14.823 16.549 14.823 8.778 0 14.091-6 14.317-16.088h-13.575z" fill="#000"/><path d="M200.869 40.254l.006-.008c.047-.29.072-.587.075-.891h-7.437v.899h7.356z" fill="#C4CED4"/><path d="M203.84 25.008l-.031.048-2.894 4.424a10.076 10.076 0 0 0-.659-.535c-.967-.777-3.662-2.562-7.947-2.562-.358 0-.709.017-1.052.048-.133.012-.26.037-.392.054-.206.027-.415.049-.616.087-.164.031-.321.076-.482.114-.159.038-.321.07-.476.115-.185.054-.361.122-.54.186-.122.043-.247.08-.366.128-.197.08-.385.172-.574.264-.092.044-.188.083-.279.131a9.017 9.017 0 0 0-.595.351c-.066.041-.135.078-.199.12a9.08 9.08 0 0 0-.603.444c-.043.035-.09.066-.133.101-.207.17-.403.352-.594.54-.026.025-.054.048-.079.074a8.715 8.715 0 0 0-.573.64l-.035.04a9.24 9.24 0 0 0-.535.734l-.007.011c-.704 1.077-1.202 2.332-1.465 3.721a12.369 12.369 0 0 0-.212 1.952v-.001c-.003.119-.015.233-.015.353 0 .231.02.457.035.683a11.47 11.47 0 0 1 .571-2.96c.495-1.463 1.283-2.729 2.308-3.743l.038-.035c.327-.32.678-.615 1.052-.882l.045-.034a9.075 9.075 0 0 1 1.167-.692c.064-.032.13-.061.194-.091a9.446 9.446 0 0 1 1.204-.475c.031-.009.06-.022.091-.032a10.138 10.138 0 0 1 1.664-.345c.471-.061.952-.103 1.45-.104h.002c1.793 0 3.308.313 4.534.734.408.14.785.292 1.129.449.551.25 1.019.512 1.403.754.191.121.362.238.511.345.329.229 1.242.958 1.593 1.279l1.4-2.126 2.045-3.104s-.389-.535-1.083-1.203" fill="#0077C8"/><path d="M200.745 28.418a2.736 2.736 0 0 0-.248-.2c-.067-.048-.134-.091-.242-.171a9.767 9.767 0 0 0-1.047-.728 11.697 11.697 0 0 0-1.202-.637 13.108 13.108 0 0 0-3.456-1.027 14.627 14.627 0 0 0-2.242-.17c-.072 0-.141.008-.213.009-5.666.104-9.608 4.263-9.608 10.198v.868l.001-.004c.002-.107.011-.211.014-.318.018-.677.093-1.327.212-1.952a10.416 10.416 0 0 1 1.155-3.19c.101-.179.198-.361.309-.531l.003-.003a.018.018 0 0 1 .005-.007c.102-.156.216-.301.326-.449.071-.094.135-.194.208-.285l.035-.041c.182-.222.373-.437.574-.64.025-.025.053-.048.078-.074.191-.188.388-.369.595-.54.024-.02.05-.038.076-.057l.057-.044c.083-.065.171-.124.256-.188.114-.086.226-.176.346-.256.065-.042.134-.079.199-.12.195-.122.391-.243.596-.351.09-.047.186-.086.279-.131.189-.091.377-.184.573-.264.119-.047.245-.085.366-.128.103-.037.207-.07.31-.106.077-.027.152-.056.231-.08.069-.02.141-.034.212-.051.088-.02.176-.043.264-.064.16-.038.317-.083.482-.114.201-.038.409-.06.616-.087.131-.016.258-.041.391-.054.344-.031.695-.048 1.052-.048.804 0 1.551.063 2.242.17a13.24 13.24 0 0 1 3.752 1.171 11.758 11.758 0 0 1 1.42.827l.18.127c.134.097.255.189.353.268.094.069.191.156.286.232.125.099.247.19.373.302l1.447-2.212 1.479-2.258a6.14 6.14 0 0 0-.557-.465l-2.538 3.873zm-100.211-4.723l-.153.24-2.172 3.337-.075-.074c-1.556-1.557-3.57-2.523-5.372-2.523-1.759 0-3.605.662-3.739 2.629-.015.219-.041.615.027 1.115a.384.384 0 0 1 .034.07c-.005-.058-.026-.109-.027-.169.095-1.564 1.184-2.282 2.388-2.544.064-.014.13-.021.195-.032.14-.025.279-.05.419-.064.21-.021.422-.032.632-.032 1.126 0 2.363.377 3.512 1.041a9.293 9.293 0 0 1 1.931 1.482l.196.196 2.929-4.498s-.21-.184-.243-.217l-.295-.265h-.001l.007.006-.193.302zm-17.51 6.323l.007.045.002.013c.045.234.101.459.165.678l.023.082c.064.211.139.414.22.611l.037.094c.082.191.173.376.269.555h.001l.014.027.038.071c.097.175.202.343.313.507l.067.099c.111.16.229.314.351.464h.001l.056.068.025.029c.123.146.251.288.384.426h.001l.009.009.086.087c.133.134.27.264.412.39l.094.081.014.012v.001c.143.123.288.244.437.36.039.031.079.06.119.09a12.701 12.701 0 0 0 .587.422c.154.106.31.21.469.31l.01.006.132.081c.157.097.315.193.475.286.054.032.109.062.163.093.156.089.313.177.471.264l.002.001.02.01.153.082c.154.082.309.165.464.245.079.042.159.082.239.122.133.069.267.138.4.205l.634.316c.352.175.696.347 1.033.519.107.055.208.111.313.166.228.119.457.239.674.36.126.07.241.143.363.213.185.109.37.217.544.329.123.08.235.164.352.246.155.109.309.217.45.33.112.09.212.186.316.279.125.114.249.229.36.349.094.101.176.208.259.315.096.123.188.25.269.381.07.114.129.235.186.356a3.433 3.433 0 0 1 .27.828c.046.233.089.467.089.725 0 .145-.027.276-.042.412.002.002.005.002.008.002.074-.477.118-.914.106-1.359-.07-2.734-2.611-3.961-5.55-5.424-3.399-1.692-7.222-3.613-7.476-8.261-.002-.028-.007-.053-.008-.081-.012.187-.02.376-.02.57a8.856 8.856 0 0 0 .14 1.503" fill="#C4CED4"/><path d="M102.122 43.029a8.248 8.248 0 0 1-.072.783 6.691 6.691 0 0 1-.15.795 7.452 7.452 0 0 1-.704 1.768 7.836 7.836 0 0 1-1.094 1.505c-2.11 2.287-5.566 3.463-8.996 3.463-2.886 0-5.798-1.173-7.883-2.479-.947-.593-1.723-1.214-2.249-1.764l-.096-.101-.032-.034-.727.97.173.186c1.68 1.761 6.156 4.752 10.814 4.719 5.488-.04 11.043-3.01 11.043-8.764 0-.373-.009-.72-.027-1.047" fill="#F60"/><path d="M98.134 28.172a9.284 9.284 0 0 0-1.931-1.482c-1.149-.664-2.386-1.041-3.513-1.041-.21 0-.421.011-.631.032-.14.014-.28.039-.419.064-.065.011-.131.018-.195.032-1.204.262-2.293.98-2.388 2.544.001.06.022.111.027.169.015.185.033.369.086.538.427-1.367 2.013-1.878 3.52-1.882 2.526-.007 4.158 1.442 5.03 2.141.219.175.817.751.817.751l3.545-5.392s-.058-.063-.17-.174a13.984 13.984 0 0 0-.653-.602l-2.929 4.498-.196-.196z" fill="#0077C8"/><path d="M87.365 35.635l.003.002-.133-.082.13.08m.479.289l.15.085.011.006-.163-.092.002.001m.792.44l.015.008-.153-.081.138.073m.479.254l.206.105.033.017-.239-.122z" fill="#FFF"/><path d="M95.824 43.069c.016-.137.042-.267.042-.412a3.66 3.66 0 0 0-.089-.725 3.282 3.282 0 0 0-.27-.829 3.63 3.63 0 0 0-.186-.355 4.117 4.117 0 0 0-.269-.382c-.083-.106-.165-.213-.258-.314a6.298 6.298 0 0 0-.361-.349c-.104-.093-.204-.189-.316-.279a8.827 8.827 0 0 0-.449-.33c-.117-.082-.229-.166-.353-.246-.173-.112-.359-.22-.544-.329-.121-.071-.237-.143-.363-.213a26.237 26.237 0 0 0-.674-.36c-.105-.055-.206-.111-.313-.166a98.934 98.934 0 0 0-1.033-.519l-.634-.317a37.72 37.72 0 0 1-.433-.221l-.206-.105c-.155-.08-.31-.163-.464-.246l-.015-.008-.138-.073-.02-.011h-.001a27.169 27.169 0 0 1-.483-.271l-.149-.085-.002-.001a20.667 20.667 0 0 1-.476-.286l-.002-.002-.13-.079-.009-.006h-.001a15.208 15.208 0 0 1-.469-.31l-.131-.088c-.155-.108-.306-.22-.456-.334l-.118-.09a10.877 10.877 0 0 1-.452-.373l-.093-.08v-.001a8.969 8.969 0 0 1-.413-.39l-.001-.001-.085-.086-.009-.009v-.001a7.725 7.725 0 0 1-.385-.425h-.001l-.023-.029-.057-.068v-.001a7.318 7.318 0 0 1-.352-.463l-.067-.099a7.404 7.404 0 0 1-.313-.507l-.038-.071-.014-.027a6.609 6.609 0 0 1-.269-.555l-.038-.094a6.782 6.782 0 0 1-.22-.611l-.022-.082a7.378 7.378 0 0 1-.166-.678v-.001l-.002-.012-.007-.045a7.865 7.865 0 0 1-.103-.762v-.001a7.976 7.976 0 0 0-.037.757c0 3.131 1.557 5.081 3.584 6.53.405.29.83.559 1.264.815.217.127.436.251.658.372.663.364 1.339.7 1.998 1.029l.113.056c.3.149.595.297.884.444.143.073.278.147.418.221.185.097.37.194.547.292.159.088.308.179.46.268.145.086.291.171.428.259.155.098.299.2.443.302a6.962 6.962 0 0 1 1.023.861 3.9 3.9 0 0 1 .536.669c.09.136.176.273.247.418.051.106.089.218.13.329.057.153.115.306.15.47l.014.08c.01-.054.013-.099.022-.151.011-.067.013-.139.021-.208" fill="#0077C8"/><path fill="#C4CED4" d="M74.924 36.157l.31.957v-.001l4.358-3.181h-1.628zM80.975 47.1c.525.55 1.301 1.171 2.249 1.765 2.084 1.305 4.997 2.478 7.882 2.478 3.43 0 6.887-1.176 8.997-3.463.422-.457.79-.959 1.093-1.504a7.444 7.444 0 0 0 .704-1.768c.066-.257.115-.523.151-.796.038-.254.058-.517.072-.783.006-.126.007-.943.005-.914-.32 5.419-5.699 8.254-11.022 8.254-3.701 0-7.439-1.927-9.424-3.591l-.419-.388.003-.003-.005-.004-.415.582.033.034.096.101z"/><path d="M81.682 46.778c1.985 1.664 5.723 3.591 9.424 3.591 5.323 0 10.702-2.835 11.022-8.255.07-5.792-4.709-7.937-8.334-9.631-2.205-1.031-4.206-1.923-4.623-3.456a4.572 4.572 0 0 1-.122-.608 5.313 5.313 0 0 1-.026-1.115c.134-1.966 1.979-2.629 3.739-2.629 1.802 0 3.816.967 5.372 2.523l.075.074 2.325-3.577.193-.302-.007-.005c-.944-.84-2.892-2.162-5.448-2.768-.144-.034-.293-.061-.44-.09-.382-.075-.772-.13-1.176-.167-.096-.009-.193-.014-.29-.021-.239-.015-.469-.05-.714-.05-4.703 0-9.448 2.659-9.74 7.734.254 4.648 4.077 6.569 7.476 8.261 2.94 1.463 5.481 2.69 5.551 5.424.011.446-.033.882-.106 1.359-.011.069-.018.134-.03.206-.009.053-.012.097-.022.152l-.002.012c-.358 1.604-1.859 2.508-4.248 2.508-3.623 0-6.369-2.174-7.382-3.109l-.185-.171-2.699 3.718-.002.003.419.389z" fill="#000"/></g></svg>