<svg width="512" height="512" viewBox="0 0 512 512" xmlns="http://www.w3.org/2000/svg"><title>milwaukee-brewers-3</title><g fill="none" fill-rule="evenodd"><path d="M392.42 337.264h-4.029v11.016h-2.707v-11.016h-4.028v-2.374h10.83v2.374h-.067zm18.356 11.016h-2.708v-10.686h-.066l-3.896 10.686h-2.64l-3.764-10.686h-.067v10.686h-2.773v-13.39h4.754l3.104 8.772h.066l3.235-8.772h4.689v13.39h.066z" fill="#FFF"/><path d="M155.303 399.663c-5.282 2.573-10.564 5.277-15.715 8.114l19.875 5.606c4.953-2.44 9.971-4.749 15.055-6.991l-19.215-6.729zm46.354-18.667l18.554 9.17c5.349-1.518 10.697-2.837 16.112-4.09l-17.696-10.093c-5.745 1.518-11.358 3.233-16.97 5.013zm43.646-11.279l17.3 11.345c5.48-.857 10.961-1.517 16.508-2.11l-16.31-12.203a387.25 387.25 0 0 0-17.498 2.968zm-.793-3.43a498.132 498.132 0 0 1 17.763-3.034l11.82-15.699c-6.34.66-12.612 1.517-18.82 2.507l-10.762 16.226zm-84.783 31.332l19.546 6.794c5.084-2.111 10.234-4.156 15.45-6.069l-18.818-7.85a324.216 324.216 0 0 0-16.178 7.125zm20.668-8.971l19.083 7.981c5.216-1.847 10.499-3.496 15.847-5.079l-18.29-9.036a357.568 357.568 0 0 0-16.64 6.134zm41.929-17.348c5.745-1.517 11.622-2.836 17.499-4.09l10.762-16.358c-6.272 1.056-12.48 2.309-18.62 3.628l-9.64 16.82zm.925 3.43l17.96 10.29c5.415-1.187 10.895-2.177 16.376-3.1l-17.102-11.213c-5.745 1.187-11.49 2.506-17.234 4.023zm55.399-27.638l-11.62 15.501c5.942-.791 11.885-1.385 17.893-1.913l12.744-14.973c-3.962.198-7.99.396-11.951.726-2.443.198-4.754.462-7.066.66zm-11.093 18.998l16.574 12.4c1.32-.132 2.641-.264 3.962-.33 4.226-.33 8.386-.528 12.612-.725l-15.518-13.193c-5.942.462-11.753 1.122-17.63 1.847zm-67.153 11.608a371.106 371.106 0 0 1 17.234-5.145l9.773-17.084c-6.207 1.452-12.348 3.035-18.423 4.816l-8.584 17.413zM325.2 361.274l-2.905 1.715c28.987.462 57.578 3.298 84.915 9.762l.066-.395c-27.337-7.454-55.73-12.467-85.113-12.929l3.037 1.847zm-182.244 24.801l-5.283 18.668c5.283-2.903 10.565-5.607 15.98-8.246l6.47-18.535a450.591 450.591 0 0 0-17.167 8.113zm35.986-.659c5.547-2.177 11.226-4.288 16.904-6.2l8.716-17.612a414.143 414.143 0 0 0-18.092 5.936l-7.528 17.876zm3.17-16.359c-5.943 2.177-11.886 4.552-17.696 6.992l-6.405 18.338c5.414-2.573 10.895-4.947 16.441-7.256l7.66-18.074zm119.581 4.75l4.094 3.364c27.205-.792 54.145.395 79.897 5.145l.066-.33c-27.139-5.87-55.135-9.367-84.057-8.18zm16.574-12.665l-20.602-10.356-9.706 11.412 11.82 9.96zm-144.871-11.807c-24.894 8.443-53.155 23.152-69.068 32.65l8.65 8.642c18.356-10.818 43.976-24.274 68.936-32.453l27.865-101.646-2.84-30.013-33.543 122.82zM120.307 195.91c0-22.89 18.225-42.612 41.467-44.788a44.906 44.906 0 0 1 21.328 3.1l-18.686 4.617 22.714-5.607c-9.31-7.98-21.526-11.939-34.006-10.751-23.242 2.176-41.467 21.833-41.467 44.787 0 6.333 2.245 12.401 6.141 17.216 1.585-.725 3.236-1.187 4.952-1.583-.462.132-.99.198-1.452.33-.66-2.44-.99-4.881-.99-7.322zm39.751 24.537c1.386-5.013 3.433-12.4 5.414-19.657l-5.414 19.657zm-30.44 39.445c-9.64 0-19.876-4.684-28.063-12.929 1.452 1.451 7.197 7.256 8.65 8.707 8.253 8.18 18.422 12.929 28.063 12.929 3.103 0 6.14-.528 8.98-1.452l4.952-18.007c-5.348 6.53-13.47 10.752-22.582 10.752zm234.276 84.364c-19.017 4.485-35.987.198-47.74-12.005 1.65 1.715 7.461 7.388 8.65 8.641 1.783 1.847 3.764 3.496 5.81 5.013a312.76 312.76 0 0 0-28.393-.33l-3.037 3.628c12.216-.528 24.3-.528 36.317-.132 10.433 5.739 23.176 7.19 37.109 3.892l2.84-.66c5.282.726 10.564 1.386 15.78 2.375l.067-.264a529.209 529.209 0 0 0-14.065-2.77l-.594-8.971-8.65-8.64.594 9.234-4.688.99zm55.532-275.124l-2.51 9.037c-2.905 10.356-8.385 14.313-12.413 17.15-2.906 2.044-4.49 3.232-5.415 6.332l-51.306 184.098c-3.367 11.609-2.575 29.814 4.557 40.434 2.046 3.034 4.49 5.079 7.263 6.266-5.745-10.752-6.207-27.242-3.104-37.994l51.306-184.163c.925-3.1 2.51-4.222 5.415-6.333 4.028-2.836 9.508-6.794 12.413-17.15l2.51-9.036-8.716-8.641zM250.85 330.206c-10.961 1.386-24.96 3.958-33.544 6.267l8.848 8.64c7.462-1.978 24.365-5.078 33.412-6.266l48.532-84.958c.66-1.847 5.217-18.733 12.81-46.305L250.85 330.206zm6.537-73.216l6.735-11.808c-2.18-23.02-4.556-48.02-4.556-48.02-1.981-20.975-9.905-38.85-23.045-52.175-1.519-1.583-7.858-7.85-9.508-9.498 13.668 13.39 21.922 31.595 23.903 53.033-.066.066 4.094 43.402 6.47 68.467z" fill="#B6922E"/><path d="M352.339 326.183c-7.132-10.62-7.924-28.825-4.557-40.434l51.306-184.164c.925-3.1 2.51-4.222 5.415-6.332 4.028-2.837 9.508-6.794 12.413-17.15l2.51-9.037-63.72 15.633-98.32 172.29c-2.376-25.065-6.47-68.401-6.47-68.401-2.047-21.438-10.235-39.643-23.903-53.033a71.057 71.057 0 0 0-6.273-5.54c-16.442-12.995-38.1-18.932-60.88-16.755-20.734 1.979-40.081 11.741-54.41 27.572-14.262 15.699-22.12 35.75-22.12 56.33 0 20.383 6.537 38.06 18.29 49.867 8.254 8.18 18.49 12.929 28.064 12.929 9.112 0 17.234-4.222 22.582-10.818l-23.177 84.364c-.924 3.035-2.839 10.818-6.207 13.06-2.443 1.65-6.074 4.882-9.112 9.433-.132.132-.198.33-.33.462-.66 1.055-1.387 2.11-1.98 3.298-.925 1.913-1.85 3.892-2.51 6.2l-4.49 16.095c15.847-9.499 44.108-24.208 69.068-32.65l33.543-122.887 2.84 30.013 7.461 79.945c8.65-2.309 22.583-4.881 33.544-6.267l69.992-122.622c-7.66 27.572-16.31 58.838-17.234 62.004-.066.198-.066.33-.066.33-6.537 23.02-1.585 47.492 12.612 62.333 11.753 12.269 28.723 16.49 47.74 12.005l4.622-1.121-.594-9.235-4.754-.528c-1.189-.131-2.311-.395-3.368-.857-.066-.066-.132-.066-.264-.132-2.773-1.121-5.217-3.166-7.263-6.2zm10.3 12.73c-44.504 10.488-63.785-32.189-53.749-67.478l29.12-104.944-90.594 158.636c-9.905 1.32-20.734 3.628-25.224 4.552l-12.611-133.77-40.741 149.139c-19.875 7.19-39.75 16.556-55.532 25.329 6.14-22.493 14.79-13.588 19.743-31.464l43.91-159.098c2.972-10.95-11.687-3.76-8.187-16.49l28.855-7.058c-10.433-13.193-27.073-21.042-45.099-19.327-26.346 2.44-46.42 24.406-46.42 50.262a32.58 32.58 0 0 0 10.566 24.076c3.697-2.44 8.121-3.825 12.876-3.825 12.942 0 23.506 10.487 23.506 23.482 0 12.994-10.498 23.482-23.506 23.482-17.3 0-40.873-18.997-40.873-57.254 0-39.577 31.232-74.603 71.51-78.428 42.987-4.024 80.558 22.229 85.114 70.38l8.122 85.75 105.78-185.417 52.297-12.797c-4.292 15.501-14.593 12.467-17.762 23.35L342.5 284.298c-5.679 19.525-.396 52.44 20.14 54.616zm-191.752-161.34c.264.131.528.197.858.329-.066.132-3.103 11.28-6.273 22.888-1.98 7.256-4.028 14.644-5.414 19.657-1.057 3.76-1.717 6.332-1.717 6.332-.925-6.134-3.698-11.873-8.188-16.358-5.48-5.475-12.744-8.51-20.535-8.51-1.783 0-3.566.265-5.349.594-.528.066-.99.198-1.519.33-1.65.396-3.367.924-4.952 1.583-3.962-4.815-6.14-10.883-6.14-17.216 0-22.888 18.224-42.61 41.466-44.787 12.48-1.187 24.63 2.77 34.006 10.751l-22.714 5.607-.859 3.1c-3.235 11.346 4.49 14.512 7.33 15.7z" fill="#0A2351"/><path d="M393.872 100.068c3.17-10.884 13.536-7.85 17.762-23.35l-52.296 12.796-105.847 185.35-8.122-85.749c-4.556-48.151-42.127-74.404-85.113-70.38-40.279 3.76-71.511 38.85-71.511 78.428 0 38.257 23.573 57.254 40.873 57.254 12.942 0 23.506-10.488 23.506-23.482 0-12.995-10.498-23.482-23.506-23.482-4.755 0-9.179 1.45-12.876 3.825-6.537-5.936-10.565-14.511-10.565-24.076 0-25.856 20.139-47.755 46.42-50.262 17.96-1.715 34.665 6.134 45.098 19.327l-28.855 7.058c-3.5 12.73 11.159 5.606 8.187 16.49l-43.91 159.098c-4.952 17.876-13.602 8.971-19.743 31.464 15.781-8.773 35.657-18.14 55.532-25.33l40.807-149.204 12.611 133.77c4.49-.924 15.253-3.232 25.224-4.552l90.528-158.636-29.12 104.944c-10.036 35.29 9.245 77.966 53.75 67.478-20.602-2.11-25.885-35.025-20.206-54.55l51.372-184.23z" fill="#FFF"/><path d="M87.688 442.208c14.99-11.873 30.902-22.624 47.674-32.057l-1.849-3.034c-16.903 9.499-32.883 20.316-47.938 32.255l2.113 2.836z" fill="#B6922E"/></g></svg>