<svg width="512" height="512" viewBox="0 0 512 512" xmlns="http://www.w3.org/2000/svg"><title>new-york-mets-2</title><path d="M297.96 221.028v31.784l-14.853-18.03c4.461-5.201 9.46-9.91 14.852-13.754zM245 253.795c-14.798-39.007-38.16-56.403-53.987-64.421v-23.407l60.09 73.811c-2.165 4.326-4.2 8.997-6.103 14.017zm83.125 43.197V213.36c13.058 5.354 16.362 24.975 6.124 34.436 0 0 25.659-2.653 25.659-29.186 0-20.928-16.975-33.02-31.783-35.886v-58.63c.11-6.737 17.39-15.011 24.805-1.224 12.644-16.516-5.577-49.164-39.898-27.9-34.29-21.264-52.512 11.384-39.857 27.9 7.416-13.787 24.675-5.513 24.784 1.225v65.8c-9.013 4.702-20.277 12.442-30.997 25.315l-75.84-91.952c1.433-6.558 17.589-13.618 24.687-.388 12.654-16.516-5.557-49.164-39.868-27.9-34.321-21.264-52.532 11.384-39.878 27.9 7.416-13.787 24.686-5.513 24.796 1.225v58.832c-14.548 3.205-30.768 15.236-30.768 35.683 0 26.534 25.659 29.186 25.659 29.186-9.986-9.21-7.11-28.049 5.107-33.977v83.173c-.109 6.738-17.38 15.018-24.795 1.236-12.655 16.505 5.556 49.153 39.877 27.891 34.312 21.263 52.523-11.386 39.868-27.89-7.416 13.78-24.675 5.501-24.795-1.237v-76.68c21.777 14.835 37.023 44.3 38.85 61.39v96.928c0 15.696-17.391 26.992-24.784 13.213-12.666 16.515 5.545 45.992 39.866 24.729 34.3 21.263 52.511-8.214 39.857-24.729-7.405 13.78-24.785 1.182-24.785-13.213v-95.539c.416-6.398 2.932-14.82 7.098-23.629l30.823 37.881c-.657 6.662-17.468 14.448-24.763.887-12.655 16.504 5.567 49.152 39.856 27.89 34.321 21.264 52.542-11.386 39.899-27.89-7.415 13.78-24.695 5.5-24.804-1.238zm53.715 3.284h-1.621v-6.269h-.027l-2.284 6.27h-1.559l-2.219-6.27h-.026v6.27h-1.609v-7.878h2.79l1.818 5.153h.051l1.896-5.153h2.79v7.877zm-10.798-6.476h-2.376v6.476h-1.608V293.8h-2.375v-1.401h6.36v1.401h-.001z" fill="#FF5910" fill-rule="evenodd"/></svg>