<svg width="512" height="512" viewBox="0 0 512 512" xmlns="http://www.w3.org/2000/svg"><title>st-louis-cardinals-2</title><g fill="none" fill-rule="evenodd"><path d="M360.1 357.686l-2.925 11.263c-.3.75-2.1 2.553-9.3 6.757-6.9 4.055-17.1 4.656-17.25 4.656l-114.9-.002v-20.423c22.5 4.956 45.9 7.208 71.1 7.058 55.5-.3 85.35-34.239 85.35-66.075v-.135c0-28.983-21.3-60.82-60.75-63.973v-6.758h31.65v-36.656H243.1v36.792h32.1v5.105c-22.8 0-51.3-3.453-59.4-4.355v-55.713c26.25-3.003 82.05 6.157 109.05 16.068l5.25 1.953 18.9-39.645h-9.75l1.05.3-1.2-.36c-4.5-.15-9.3-.751-13.5-1.803l-4.5-1.05c-22.95-5.497-70.2-16.46-105.3-13.005v-5.707h14.85V94.285h-67.8v37.543H178v11.413c-27.6 5.856-55.05 26.88-55.05 61.72s27.3 55.293 55.05 60.218v42.95c-2.4-1.352-5.25-2.854-5.25-2.854l-1.65-1.051-13.8-9.01-22.95 32.887 3.75 3.604c1.2 1.201 1.35 1.201 7.35 3.003 0 0 5.1 1.652 5.4 1.652.9.45 11.7 5.707 27.15 12.464v31.386h-26.25v38.444h180c3.15-.15 18.6-.901 28.05-6.007 17.4-9.31 25.35-18.17 25.5-18.32l3.75-3.905-28.95-32.737v.001zM178 223.884c-9.6-2.403-15.3-10.061-15.3-21.625 0-10.211 7.05-18.17 15.3-21.925v43.55zm36.6 44c12.15 1.351 39.9 4.205 61.65 4.355v39.795h34.05v-37.843a26.411 26.411 0 0 1 13.95 7.058c5.1 4.956 7.95 11.864 7.95 19.372 0 9.16-5.1 16.67-14.55 21.925-9.75 5.406-24 8.11-41.4 8.11-27 0-52.5-7.059-61.8-10.062.15-5.556.15-43.85.15-52.71z" fill="#006"/><path d="M305.35 242.655v-18.62H337v-24.479h-87.75v24.478h31.95v17.42c-28.8.75-71.85-5.106-71.85-5.106v-66.676c24-4.955 85.95 4.505 117.45 15.768l12.3-25.83s-6.9-.15-15-1.951c-21.45-4.956-78.3-19.222-114.75-13.215v-18.772h15v-25.228H169v25.228h15.15v22.526c-26.7 3.754-55.05 23.276-55.05 56.764 0 34.09 28.2 52.11 55.05 55.113v57.966c-4.95-1.502-10.05-4.806-16.2-8.41-3.6-2.252-9.15-6.006-9.15-5.856l-16.5 23.727c.15.15 7.35 2.252 10.8 3.454 8.7 4.204 19.2 9.61 31.05 14.116v41.747H157.9v25.98h173.85s16.2-.45 25.2-5.256c16.05-8.56 23.7-16.97 23.7-16.97l-17.55-19.822c-1.05 3.904-7.05 7.659-12.42 10.662-8.25 4.805-19.95 5.406-19.95 5.421H209.5v-33.938c22.05 5.406 46.8 8.56 77.4 8.259 49.5-.3 79.2-28.983 79.2-60.068 0-27.797-20.1-58.432-60.75-58.432zm-121.2-70.43v58.867c-17.4-.45-27.6-12.164-27.6-28.682.15-16.369 14.25-28.383 27.6-30.185zm97.2 95.058v39.795h24v-38.143c18.6-.15 31.95 14.717 31.95 31.987 0 18.17-16.5 35.14-60.9 35.14-34.65 0-66.9-11.414-66.9-11.414v-62.47s43.95 5.255 71.85 5.105z" fill="#FFF"/></g></svg>