<svg width="512" height="512" viewBox="0 0 512 512" xmlns="http://www.w3.org/2000/svg"><title>houston-texans</title><g fill="none"><path d="M300.373 224.649s-25.283-6.336-72.322-29.673c-108.77-53.962-74.593-80.751 9.247-95.841C103.123 40.743-2.694 142.786 120.673 241.65l-33.215 23.505c27.807 17.026 81.254 54.168 72.883 108.878l-25.531 18.733 81.527 37.639 67.765-30.19c.5-30.305 55.092-45.792 78.414-107.43 128.377-29.428 96.073-138.224-11.924-149.165 77.072 61.791 14.102 71.89-50.219 81.029z" fill="#FFF"/><path d="M246.062 328.831l-24.758-28.128-28.426 4.228 13.139-21.618-24.752-28.152 32.881 14.78 13.11-21.625 7.169 30.745 32.875 14.761-28.437 4.252 7.2 30.757zm40.616-100.134c-161.158-62.19-171.83-113.2-71.237-130.832-125.804-34.156-199.185 56.94-74.71 143.806l-33.4 23.847c35.466 23.676 73.05 58.738 60.3 113.912l-16.829 12.003 64.64 29.27c60.152-65.82 91.615-129.774 71.236-192.006z" fill="#031F2F"/><path d="M368.487 151.577c55.31 43.266 16.906 70.9-50.523 78.41 17.059 71.841-35.248 137.642-90.627 188.594l50.776-22.982c3.756-29.199 55.274-44.383 79.69-109.173 114.656-25.558 95.943-107.773 10.684-134.849" fill="#A71930"/></g></svg>