<svg width="512" height="512" viewBox="0 0 512 512" xmlns="http://www.w3.org/2000/svg"><title>kansas-city-chiefs</title><g fill="none"><path d="M444.74 265.715c-9.556 5.062-17.466 3.618-26.072 12.393-7.181 7.323-15.027 16.25-20.337 17.856-2.318.703-8.445 2.62-12.634 5.218-4.147 2.577-5.315 2.495-9.036 5.805-4.411 3.93-6.882 6.75-15 9.552-5.002 1.722-10.912 2.525-16.157 4.095-3.881 1.167-6.986 2.78-10.442 4.737-5.27 2.98-11.614 9.969-20.328 11.587-17.263 3.21-12.678 2.859-24.987 8.425-3.057 1.383-9.365 2.889-13.794 2.889-7.403 0-13.177 1.219-19.694 4.685-4.746 2.524-9.578 7.162-18.896 8.398-11.501 1.523-12.144.083-26.429 3.137-4.333.928-9.799 4.086-13.937 5.578-4.637 1.675-15.57 1.887-23.298 1.18-7.542-.69-13.082-.703-23.984 1.271-8.445 1.527-12.99 1.7-21.188 1.492-1.845-.052-3.235-1.349-4.433-3.288-1.424-2.308-1.593-4.333-1.28-6.88.66-5.349.542-5.609 1.81-10.563.382-1.505 2.28-11.322 2.613-12.827 2.11-9.44 2.766-18.966-4.68-23.261-2.327-1.34-8.11-2.208-12.296-1.466-12.609 2.238-9.964 4.355-18.023 1.51-1.354-.478-4.78-1.098-6.773-1.016-4.038.16-9.782 2.985-14.866 3.783-3.57.564-4.503-3.41-4.412-6.251.152-4.403.613-8.633.413-13.556-.517-12.889-2.77-13.583-4.325-21.352-1.41-7.05-1.003-19.014-1.341-18.675.351-9.87 4.828-20.502 7.376-24.18 2.666-3.848 3.24-5.423 5.267-10.134 2.145-4.98 1.854-9.388.764-14.984-.021-.13-1.32-4.268-.85-4.268-.374-2.638.264-5.527 1.106-7.318 1.36-2.903 2.423-4.308 4.594-5.245 1.342-.586 2.757-1.289 4.186-1.388 4.689-.33 5.63 2.668 14.393-.998 4.532-1.904 9.04.646 11.267 1.462 6.074 2.204 5.019 2.204 8.887 2.334 3.673.117 7.216-.811 10.629-2.88 1.963-1.198 3.447-1.853 4.607-3.545 1.003-1.457 2.323-5.479 2.679-7.557.438-2.529 1.141-4.116.438-10.107-1.94-7.401-2.644-8.989-3.973-13.674-1.076-3.817-2.379-7.474-2.926-10.975-.013-.065-.156-4.251-.156-4.251-.474-3.501 1.91-6.013 4.94-6.039 10.855-.087 21.032 3.002 32.508 2.928 9.465-.06 13.49-1.995 24.63 2.057 3.878 1.405 6.175 4.576 12.25 6.29 11.548 3.253 20.731-4.53 30.613.117 8.215 3.86 6.487 1.531 14.207 6.45 3.603 2.295 10.303 6.17 19.907 7.583 6.656.98 17.202-1.765 28.074 6.113 6.113 4.429 11.705 6.216 19.52 7.027 9.21.95 10.104-.347 17.363 4.907 5.345 3.865 3.873 3.006 9.262 7.014 2.44 1.813 4.354 3.661 7.884 5.245 2.015.906 9.76 1.987 9.522 1.974 6.882.351 8.818-.213 14.284 1.726-.117-.121 7.056 4.581 5.805 3.766 3.291 2.147 7.073 7.687 10.247 12.268 3.882 3.522 4.233 5.57 13.85 7.279-1.858-.33 8.654 3.292 10.238 4.173 4.13 2.295 5.185 3.705 8.853 7.878 3.786 4.316 5.297 5.47 12.943 10.576 2.966 1.987 3.495 2.694 9.157 6.715 2.332 1.657 5.284 4.338 6.335 6.542 2.674 5.596-1.06 7.587-6.873 10.663m7.928-25.842c-3.526-3.171-6.439-4.945-7.407-5.704-5.293-4.165-.834-.877-5.914-4.087-3.586-2.264-4.602-4.086-8.293-6.168-6.62-3.731-7.307-4.833-12.6-11.18-4.584-8.454-11.788-9.634-19.004-11.244-6.968-1.548-11.914-7.105-13.09-9.018-3.708-5.996-9.704-8.963-12.878-10.685-9.878-5.349-21.262-4.494-30.154-12.398-13.407-9.513-16.937-7.752-31.03-8.186-7.773-.234-17.976-5.197-21.293-7.956-2.792-2.32-6.013-3.848-8.892-4.737-9.934-3.054-16.742 2.2-30.631-4.555-4.056-1.978-7.72-4.69-11.71-6.984-2.484-1.427-4.381-2.117-8.267-2.954-7.355-1.592-13.75-.573-22.656.182-4.176.36-6.656-1.857-10.494-3.93-3.53-1.9-7.294-3.302-11.953-4.165-6.04-1.12-12.89-.33-19.903 1.072-13.889 2.789-26.64-4.234-40.035-2.985-2.267.213-6.765 3.058-8.272 6.242-2.023 4.278-2.023 6.746-1.723 10.971.404 5.735 1.085 6.143 2.205 9.874 2.436 8.099 3.67 12.506 5.606 17.968 2.257 6.346 2.18 14.072-3.17 16.536-2.583 1.189-6.869 1.215-9.296-.629-3.764-2.867-5.826-6.906-10.077-7.739-5.675-1.119-12.474 4.694-18.505 6.277-6.04 1.592-6.808-1.691-11.006-3.635-2.792-1.293-5.48.59-7.043 1.458-2.826 1.574-3.512 4.824-4.168 8.285-.525 2.772-.755 5.35-.07 8.373 1 4.385 2.463 7.023 2.571 10.081.274 7.687-.96 13.327-4.138 17.383-2.023 2.577-4.663 9.704-5.496 12.333-2.788 8.81-2.453 7.275-3.8 15.456-.694 4.173-.577 8.858-.946 12.767-.07.716.465 9.604.894 12.255 1.064 6.568 2.297 10.797 3.678 16.332 1.993 8 2.853 12.967 2.653 19.157-.2 6.334-4.199 12.29-.4 16.758 2.362 2.78 8.515 5.288 13.516 3.08 5.072-2.238 8.775-4.885 12.761-5.427 7.342-1.01 12.062 2.13 15.248 1.757 2.81-.33 7.75-3.15 10.078-3.345 1.854-.156 5.87-.334 7.285.72 2.232 1.675 3.617 3.527 3.244 9.314-.01.083-1.36 6.165-1.377 6.212-2.31 7.614-4.806 14.676-6.004 19.899-1.247 5.457-7.238 17.265 4.923 22.102 5.12 2.035 10.533 1.64 17.241-.087 3.4-.876 4.807-1.015 7.985-1.544 0-.239 4.759-.152 4.759-.386l4.233-.178c7.485-.842 9.274-.33 15.982.547 6.23.815 12.196 2.017 18.379 1.314 3.096-.351 6.152-.941 9.179-1.913 8.661-2.763 12.686-6.52 23.124-7.939 8.645-1.17 8.649.27 16.225-.09 7.942-.378 12.357-3.757 15.7-5.57 4.056-2.204 5.115-2.382 7.829-3.831 9.812-5.245 21.335-4.594 32.36-7.284 7.75-1.891 10.78-5.54 19.437-7.856 3.44-.92 7.216-.859 10.894-1.37 2.822-.396 7.802-2.894 10.59-5.467 4.776-4.416 4.25-4.594 7.967-6.689 6.191-3.496 13.212-3.388 19.438-6.277 5.8-2.685 11.758-4.971 16.351-9.6 6.687-6.741 17.242-8.628 25.92-11.778 5.107-1.856 11.82-5.136 17.455-14.862 5.527-9.53 10.416-10.893 20.242-13.851 6.534-1.965 9.352-3.358 14.388-8.1 4.533-4.268 6.161-7.014 8.193-10.003 2.332-3.435 6.917-9.066 2.05-13.378-2.137-1.896-4.299-5.418-8.888-8.94" fill="#000"/><path d="M343.255 309.828c-4.337 3.384-9.981 5.674-15.096 8.138-6.348 2.612-16.933 6.312-27.158 7.366-9.352 1.232-23.459 1.41-34.743.53-11.64-1.233-26.633-5.779-32.98-8.95-7.764-3.7-11.819-6.52-16.578-11.418-4.94-5.149-7.763-9.552-10.055-16.953-3.526-10.927-1.355-24.648 4.585-34.535 4.055-7.049 9.309-11.491 16.086-16.25l-2.54-2.607-30.267 17.34-.034 4.441h8.115v17.513l-5.467 5.11H142.2v-14.589c-.351-.139 6.635-8.034 6.635-8.034h2.609v-56.32h-8.536v-10.43l7.125-8.316h52.132v13.179l-8.041 8.108v21.885l49.731-28.41v-8.91l5.644-5.713h53.053l-.035 13.075-6.49 6.168-13.265.07-21.974 13.114 3.877 3.943c23.815-7.891 46.562-9.444 77.25 4.121l8.644-5.353 14.424.035v38.413l-6.843 6.693h-13.542c-10.09-16.562-27.197-31.71-61.762-24.314l17.988 19.382h3.986v15.864l-6.7 6.338h-51.993l-.282-14.628 3.842-4.047-2.292-2.473c-7.585 5.817-12.7 18.328 5.293 32.462 24.687 17.586 86.415 7.188 92.836-15.544h20.39c-.179 14.802-11.71 26.649-22.648 34.505M445.28 248.51c-5.662-4.017-6.191-4.728-9.157-6.715-7.646-5.106-9.157-6.26-12.943-10.576-3.668-4.173-4.724-5.583-8.853-7.874-1.584-.885-12.096-4.507-10.238-4.173-9.617-1.713-9.968-3.761-13.85-7.283-3.174-4.581-6.956-10.121-10.247-12.268 1.25.815-5.922-3.887-5.805-3.761-5.466-1.944-7.402-1.38-14.284-1.731.239.013-7.507-1.068-9.522-1.974-3.53-1.584-5.444-3.432-7.884-5.245-5.389-4.008-3.917-3.15-9.262-7.014-7.259-5.254-8.153-3.957-17.362-4.907-7.816-.81-13.408-2.598-19.521-7.027-10.872-7.878-21.418-5.132-28.074-6.113-9.604-1.414-16.304-5.288-19.907-7.582-7.72-4.92-5.992-2.59-14.207-6.451-9.882-4.646-19.065 3.136-30.614-.117-6.074-1.714-8.37-4.88-12.248-6.29-11.141-4.052-15.166-2.117-24.631-2.057-11.471.074-21.653-3.015-32.507-2.928-3.03.026-5.415 2.538-4.941 6.039 0 0 .143 4.186.156 4.251.547 3.5 1.85 7.158 2.926 10.975 1.329 4.685 2.032 6.273 3.973 13.674.703 5.99 0 7.578-.438 10.107-.356 2.078-1.676 6.1-2.68 7.557-1.159 1.692-2.643 2.347-4.606 3.544-3.413 2.07-6.956 2.998-10.629 2.88-3.868-.125-2.813-.125-8.887-2.333-2.228-.816-6.735-3.366-11.267-1.462-8.762 3.67-9.704.668-14.393.998-1.429.1-2.844.802-4.186 1.388-2.17.937-3.23 2.342-4.594 5.245-.842 1.791-1.48 4.68-1.107 7.318-.469 0 .83 4.138.851 4.268 1.09 5.6 1.38 10.004-.764 14.988-2.028 4.711-2.6 6.282-5.267 10.134-2.548 3.674-7.025 14.307-7.376 24.176.338-.339-.07 11.626 1.341 18.675 1.555 7.77 3.808 8.463 4.325 21.352.2 4.923-.26 9.153-.408 13.556-.096 2.841.838 6.815 4.407 6.251 5.084-.798 10.828-3.622 14.866-3.783 1.993-.082 5.419.538 6.773 1.015 8.059 2.846 5.414.73 18.023-1.51 4.186-.741 9.969.127 12.296 1.467 7.446 4.299 6.79 13.821 4.68 23.265-.334 1.5-2.231 11.318-2.613 12.823-1.268 4.954-1.15 5.214-1.81 10.563-.313 2.547-.144 4.572 1.28 6.88 1.198 1.94 2.588 3.236 4.433 3.288 8.197.209 12.743.035 21.188-1.492 10.902-1.974 16.442-1.96 23.984-1.27 7.729.706 18.661.494 23.298-1.18 4.138-1.493 9.604-4.651 13.937-5.58 14.285-3.053 14.928-1.609 26.43-3.136 9.317-1.236 14.149-5.874 18.895-8.398 6.517-3.462 12.291-4.685 19.694-4.685 4.429 0 10.737-1.506 13.794-2.89 12.309-5.565 7.724-5.214 24.987-8.424 8.714-1.618 15.057-8.602 20.328-11.587 3.456-1.956 6.56-3.57 10.442-4.737 5.245-1.57 11.155-2.373 16.156-4.095 8.12-2.802 10.59-5.622 15.001-9.552 3.721-3.31 4.89-3.228 9.036-5.805 4.19-2.598 10.316-4.515 12.634-5.218 5.31-1.605 13.156-10.533 20.337-17.851 8.606-8.78 16.516-7.336 26.073-12.398 5.813-3.076 9.547-5.067 6.873-10.663-1.05-2.204-4.003-4.885-6.335-6.542" fill="#FFF"/><path d="M362.161 278.496c-1.906 10.042-6.49 14.098-12.17 20.618-7.585 7.05-9.135 7.93-16.716 11.982-13.051 6.52-26.632 9.336-42.15 9.691-21.696.88-40.917-3.704-52.736-8.632-7.233-2.647-17.988-9.345-24.687-20.793-5.47-11.105-2.792-22.909-.851-28.722 2.436-7.049 6.313-14.276 17.636-21.993l14.25 15.365c-7.229 6.273-12.522 17.725-1.198 30.765 13.546 16.918 44.408 21.673 76.507 12.16 16.577-4.933 23.806-11.808 29.064-20.441h13.051zM191.303 250.09v11.492h7.758v9.795h-47.616v-9.795h8.11v-67.947h-8.11v-8.528h47.616v8.528l-8.114.07v36.934l64.905-37.004h-5.718v-8.528l49.102-.07v8.529l-10.937.139-33.241 19.595 44.742 48.282 1.55.03v9.839h-49.38v-9.939l6.878.07-30.653-32.635-36.892 21.143zm151.316-24.457l8.115-5.284h11.354l-.14 34.114-12.625.139c-12.878-19.348-42.15-26.15-69.487-19.625l-12.7-13.92c9.7-3.003 37.04-12.338 75.483 4.576zm-89.945 65.235c-17.988-14.133-12.878-26.644-5.293-32.462l2.297 2.469-3.847 4.051.287 14.628h51.989l6.7-6.342v-15.86h-3.987l-17.988-19.386c34.565-7.397 51.676 7.752 61.762 24.319h13.542l6.843-6.694v-38.417l-14.423-.035-8.64 5.357c-30.688-13.565-53.44-12.016-77.25-4.12l-3.882-3.948 21.979-13.11 13.264-.074 6.49-6.168.031-13.07H249.5l-5.644 5.708v8.915l-49.731 28.41v-21.886l8.036-8.108v-13.179h-52.127l-7.125 8.316v10.429h8.536v56.316h-2.614s-6.982 7.9-6.63 8.039v14.588h54.92l5.466-5.114v-17.513h-8.11l.034-4.438 30.263-17.339 2.54 2.603c-6.774 4.763-12.027 9.201-16.087 16.25-5.94 9.891-8.11 23.612-4.58 34.535 2.292 7.401 5.11 11.808 10.05 16.958 4.764 4.897 8.815 7.717 16.578 11.413 6.348 3.175 21.34 7.722 32.98 8.954 11.289.88 25.395.702 34.743-.53 10.23-1.054 20.81-4.758 27.163-7.365 5.114-2.469 10.754-4.755 15.096-8.139 10.933-7.86 22.465-19.703 22.643-34.504h-20.39c-6.421 22.731-68.144 33.125-92.836 15.543z" fill="#000"/><path fill="#A71930" d="M258.848 261.58l-6.877-.07v9.94h49.38v-9.835l-1.55-.035-44.743-48.282 33.241-19.59 10.937-.144v-8.528l-49.102.07v8.528h5.719l-64.906 37.003v-36.93l8.115-.073v-8.529h-47.617v8.529h8.11v67.946h-8.11v9.8h47.617v-9.8h-7.763v-11.487l36.896-21.143z"/><path d="M320.045 298.936c-32.099 9.513-62.96 4.759-76.507-12.16-11.323-13.04-6.03-24.492 1.199-30.765l-14.25-15.36c-11.32 7.712-15.2 14.94-17.636 21.989-1.941 5.813-4.62 17.617.85 28.722 6.7 11.452 17.455 18.15 24.688 20.792 11.818 4.932 31.04 9.513 52.736 8.633 15.517-.356 29.098-3.171 42.15-9.691 7.58-4.052 9.13-4.933 16.716-11.982 5.679-6.52 10.268-10.572 12.17-20.619h-13.052c-5.257 8.633-12.487 15.509-29.064 20.441m29.278-44.333l12.626-.139.139-34.114h-11.354l-8.115 5.284c-38.442-16.914-65.783-7.579-75.482-4.577l12.7 13.92c27.335-6.524 56.608.278 69.486 19.626" fill="#A71930"/></g></svg>