<svg width="512" height="512" viewBox="0 0 512 512" xmlns="http://www.w3.org/2000/svg"><title>minnesota-vikings</title><g fill="none"><path d="M176.14 104.665c.366 7.685-1.923 46.652 37.897 54.198 6.52.863 8.435 1.636 15.074.975 0 0-19.181-16-19.201-44.145 0-.577 0 0 0 0 .66-25.034 3.069-38.832-14.314-55.64-6.17-4.994-.159-18.323 14.776-6.992 3.677 2.73 12.18 7.626 20.013 26.65 7.276 20.297 6.241 37.43 24.161 49.08l3.794-10.826c11.519 1.107 42.092 3.801 72.312 21.404 30.072 16.692 51.84 43.182 61.477 75.893 6.576-5.616 5.88-5.38 10.95-10.698 10.875 12.76 4.256 29.61-6.082 37.526.24 3.507.574 6.217.988 8.279.843 1.842 3.112 1.735 6.006 2.742 1.35.569 2.138 1.79 2.416 3.912.534 4.346-.004 8.752-2.205 10.3 6.627 3.809 7.153 17.388 5.716 24.711l-6.265 1.552-1.354 5.35c5.875 1.444 6.76 2.968 9.104 7.812 0 0 3.116 6.264 3.176 12.298 0 0 2.01 9.794-8.542 11.792l-41.25 8.254c-2.83 12.88-12.187 35.688-17.979 43.624-3.092 4.485-5.998 10.686-19.826 18.654-5.955 2.714-10.381 3.912-15.46.609-2.806-2.217-1.807-7.092-.45-8.35 4.422-5.48 7.105-7.697 9.255-11.036 6.106-9.425 7.726-24.799 7.296-33.28-8.682 3.132-12.316 6.57-17.407 9.906 1.604 6.535 2.329 13.719-.987 26.506 1.97 4.708.191 20.278-2.054 23.294 2.393 11.056-3.224 20.803-6.309 23.048.777 4.565-2.324 9.134-3.228 11.032-.14 3.327-3.323 9.624-5.82 12.529-3.315 6.28-10.762 13.535-14.368 14.558-4.936 2.07-9.506 1.115-12.813-4.648-1.39-3.2-1.553-3.666-1.023-9.094 0 0 4.943-27.175 5.214-41.554.39-6.257-.255-13.456-.617-15.82-4.207-28.075-22.183-67.488-67.11-77.608-9.031-1.672-21.777-1.413-25.845-.972-17.951 1.99-30.068 6.213-48.569 16.246-7.519 4.565-9.804 5.751-13.597 8.31-4.482 2.723-7.05 4.02-9.696 3.761-9.171-.891-6.281-9.567-4.582-11.744 0 0 9.697-12.461 18.999-22.821 12.029-12.974 35.959-40.01 63.074-55.953 0 0 16.423-9.492 30.744-14.957-.314-8.334.506-20.098 1.596-23.891 0 0-37.527-14.778-56.16-50.517-5.03-9.178-12.824-28.958-10.034-51.591.932-18.12 14.02-40.424 1.672-65.577-3.077-7.606 3.865-16.206 13.004-9.11 4.55 3.502 11.754 13.488 13.653 30.713 2.058 15.907.565 26.924.78 31.306" fill="#FFF"/><path d="M396.404 267.905c4.601 3.375 9.103 10.05 7.75 18.618 0 .8-3.583.557-7.694 2.16 2.953.467-.438 8.482-2.154 14.289-.637 1.934-1.357 1.241 2.448 1.305 5.537-.927 10.807 3.534 11.846 16.306-.14 2.794-2.436 3.514-4.956 4.41-8.474 1.974-40.44 7.283-43.402 8.516-6.38 18.292-16.185 58.93-42.897 64.085-2.197.123-1.15-1.246-1.15-1.246 10.074-6.837 20.097-23.923 17.187-55.794-18.955 5.604-24.54 11.84-30.004 16.286 1.27 4.374 1.174 5.162 1.548 11.131.095 5.727-.728 13.261-2.002 17.114 1.863 6.05.497 18.829-1.89 22.753 1.862 9.36-.574 16.083-6.067 22.435.004 2.408-.525 8.361-3.109 9.754-.298 4.884-3.264 10.237-5.373 11.884-.944 1.99-2.389 4.729-8.682 10.627-3.948 2.822-9.417 4.362-7.805-5.524 3.069-15.128 6.71-46.446 4.585-58.549-8.86-54.337-46.622-85.615-90.144-84.93-26.852.676-42.364 6.646-73.734 25.069-9.744 7.788-7.98 2.033-5.242.163 25.618-27.163 51.873-67.698 113.235-91.673-1.89-17.297 1.425-26.32 1.41-32.747-19.632-3.613-80.608-43.213-64.448-111.079 4.637-16.488 8.88-37.996-1.5-54.775-.498-1.667.796-2.81 2.264-2.133 4.455 2.96 15.504 14.351 13.518 56.658-2.289 35.882 17.028 67.32 66.74 62.99 3.797-4.752 1.564-2.922 4.068-5.326-8.71-4.278-27.752-22.47-23.7-55.491-.17-23.108-2.046-35.226-16.853-48.686-.577-.625-1.027-3.089 1.966-1.716 15.576 9.644 19.875 20.405 24.564 33.722 2.288 6.706 4.832 39.13 31.21 49.896 2.217-6.332 3.232-8.334 4.26-13.428 40.536 3.37 106.121 25.073 126.099 99.028 3.785-.187 11.965-6.309 13.724-9.202.784 14.045-8.052 23.895-12.904 23.35 3.849 10.364.589 16.84 6.114 18.463 2.85.903 2.567.768 4.414 1.254 1.82-.088-.398 9.786-2.802 8.883-1.453.426-1.119.963-.438 1.15" fill="#000"/><path d="M229.094 119.512c-2.364-.788-5.115-18.75-5.509-18.491-1.043.326-.541 10.12.581 14.073 1.179 6.77 1.97 7.665 1.7 8.238-3.375-1.118-4.096-18.972-5.31-18.466-.963-.773.514 10.097.971 15.374.876 5.93 2.946 27.509 15.799 29.885 4.55.561 11.408-.505 12.657-9.082-.963-6.842-13.963-5.628-22.529-36.384-1.178-1.851-.298 3.275.1 6.535.68 5.098 2.575 7.641 1.54 8.318" fill="#FFF"/><path d="M248.996 213.68c-6.221 3.248-3.948 3.53 2.954 1.266 12.701-6.972 10.93-3.172 5.552.581-7.16 3.539-3.463 5.298 4.383.235 9.676-5.233 9.577-1.13 2.798 2.555-2.512 1.7-4.82 4.123 2.993.967 12.865-5.846 10.29-1.245 3.085 1.887-2.91 1.258-3.837 3.443 1.139 1.345 12.204-6.232 11.929-3.152 3.638 2.249-1.76 1.146-1.33 2.646 2.894.155 7.327-4.12 5.262.45 2.177 2.678-1.688 1.497-1.537 3.527 1.684 1.007 8.143-5.022 5.234-.501 3.872.729-2.71 2.463-1.074 2.626.566 1.524 7.38-4.513 6.965-1.958 4.62.816-.68.62-.314 1.72 1.868.282 2.332-1.818 6.484-1.309 3.909.88-1.107 1.672 2.288.18 7.331-4.517 16.392-20.27 14.302-58.859-57.286-57.816-56.565 2.893-78.72-15.283-81.01-66.146-2.841 15.008-1.993 37.49 7.818 49.136.303.836-.143 1.186-1.047.37-16.582-16.986-7.3-56.594-9.939-53.104-4.796 39.05-.692 44.073 8.45 61.151.793.9.51 1.568-.123.987-14.066-12.903-12.474-43.078-13.676-42.672-3.766 40.48 26.812 70.58 37.535 75.61 0 0 1.839.525 5.525.78 3.312.004 1.692.497 4.92 0 3.984-.613 3.594.943 2.348 1.29-2.01.86-1.847 1.177-4.247 1.89-1.282.645.868 1.106 3.423.716 2.197-.728 1.843-.27 4.24-.983 2.901-.744 3.566-.465 2.706.836-1.206.852-.506.84-1.887 1.473-2.933 1.305-3.307 2.407.968 1.126 7.232-2.527 9.497-1.345 6.464.49-3.388 1.388-2.691 2.28-2.15 1.946 2.166-.438 6.142-.952 8.88-2.022 4.2-1.493 6.23-.04 2.663 2.034-2.619.883-4.541 1.85-6.062 2.766-.704.815-1.206 3.267 8.487-1.266 6.046-2.67 9.413-.94 4.08 1.102-5.163 1.974-7.408 2.3-7.022 3.256.876 1.007 4.275.322 7.149-1.03 1.158-.459 5.704-2.31 7.754-3.463 3.136-1.02 2.03 1.452.943 2.12-1.083.67-1.763 1.29-3.877 2.134-4.506 1.954-7.316 4.824 1.823 2.332 3.718-.847 6.715-3.192 8.419-3.984 2.607-.784 4.852-1.11 1.747 2.118-1.222.955-2.062 1.257-3.479 2.185" fill="#FFF"/><path d="M404.497 319.682c.103 2.416-15.293-2.985-36.887-.418 8.43-18.741 19.727-26.578 25.801-28.647 3.26-.402-.648 6.949-2.42 13.153-1.273 3.857 6.409 1.787 8.682 2.878 2.153.458 7.51 9.146 4.824 13.034m-10.347 2.542c-3.897-.979-20.054-.27-28.48.613 0 0-1.708 4.915 1.727 4.736 11.802-2.11 25.2-3.661 26.752-5.349m-16.053-58.074c.485 1.771 2.141 2.17 4.66 1.274 3.308-.792 10.238-1.648 12.551-1.672.649-1.218.748-2.01 1.003-4.087-9.155.179-6.89-14.996-9.943-20.39-.27-1.034-8.51-4.258-9.712 4.331-5.071-.498-18.159-1.33-7.392 2.153 1.158 2.4.693 14.9-3.367 16.393-10.831 3.988-12.71 15.196-12.216 19.378 6.631-6.614 11.67-9.21 21.888-13.977-2.977-5.182-.358-10.98 3.371-11.932 7.157.585 5.696 1.003 5.696 1.003 1.636.601 1.58 2.707.148 2.933-2.277.522-8.057.207-6.687 4.593" fill="#E9BF9B"/><path d="M336.857 296.72c.951 3.28 1.735 2.225 1.907.84.616-34.45-6.954-36.58-13.618-39.505 10.772-13.328 12.403-19.254 15.33-27.572 1.333-2.699 1.973-3.825 6.14-3.013-.46 2.953-.978 6.754-1.794 12.978.219 1.083.505 1.214 1.787 1.37 15.17-9.075 19.154-5.572 24.579-5.21 2.834 1.05 3.781 2.722 1.095 2.949-3.288.597-13.06.1-16.292 2.71-.287 2.73 7.646 3.952 10.524 5.007.697 1.695.98 6.746.096 9.05-13.355 6.583-17.65 16.198-15.894 28.05-12.718 15.3-13.828 26.005-16.014 33.161-24.36 2.225-21.788-18.733-21.7-24.345.17-3.793 1.524-4.227-.447-5.369-2.826.955-5.047 2.686-5.704 1.508 2.918-22.124 4.681-19.294 15.102-28.157 4.701 2.59 10.46 4.696 12.407 13.372 1.48 9.21 2.64 19.386 2.496 22.176" fill="#E9BF9B"/><path d="M334.117 320.67c-.155 2.089-.816 9.941-.944 13.432-24.07 12.103-29.112 18.813-30.665 19.223 4.132-14.845-.481-29.639-2.344-33.209 1.37-4.648 4.362-20.838 5.059-24.066.613-3.435 4.689-1.839 4.956.505.262 10.977.398 23.732 23.938 24.115" fill="#E9BF9B"/><path d="M265.17 128.556c-1.806 9.814-4.867 17.567-22.345 37.3 28.58.198 70.13 3.494 74.402 36.531 13.99-1.286 36.301-1.365 57.811 1.68-9.378-25.842-42.26-67.006-109.867-75.511M116.962 330.137c59.786-66.719 107.595-80.119 133.945-88.724 5.832-1.695 7.284 1.477 5.159 2.138-90.376 28.145-103.853 69.246-115.404 75.053-7.014 3.148-18.589 10.757-21.845 12.771-3.714 2.456-3.252-.497-1.855-1.238" fill="#FFB612"/><path d="M249.638 247.679c12.542-4.88 12.594-1.214 10.241-.45-46.232 19.72-62.779 51.504-70.871 58.54-2.898 2.356-2.675 2.985-10.998 4.57-8.18 1.205-17.375 1.898-23.158 3.88-7.965 2.734-6.6 1.396-4.036-2.3 32.277-38.084 75.062-56.32 98.822-64.24" fill="#FFB612"/><path d="M191.276 309.36c-.243-2.138-.123-1.421 4.311-7.3 12.57-14.916 38.63-42.425 63.488-52.367 4.028-1.314 5.58-1.278 9.25.278 18.625 11.825 46.838 2.747 52.617-20.635 8.36-1.43 13.653-1.632 18.036-1.8-5.987 20.19-15.7 24.867-27.29 34.686-8.713 5.953-39.004 25.825-45.321 52.741-25.1-3.868-31.78-14.59-34.415-32.376.116-.534-.629-1.023-1.09-.132-3.475 6.647-20.727 27.816-32.982 28.715-2.743.271-5.314-.047-6.604-1.81" fill="#FFB612"/><path d="M231.967 298.4c-1.401 3.239-11.762 11.597-17.8 14.172-1.764 1.29-8.933.808-6.811-.936 15.448-9.746 19.747-16.946 22.358-20.241 1.043 2.94 2.102 4.974 2.253 7.004m1.563 2.798c-2.83 5.075-16.886 13.285-16.663 13.914 15.631 6.73 24.993 13.906 29.463 19.171 2.034 3.06 3.817-.831 1.294-1.548-4.988-4.322-13.804-6.913-11.802-28.138-.78-1.003-1.087-1.743-2.293-3.399" fill="#FFB612"/><path d="M265.361 319.053c-.653 5.34-1.513 13.969-1.513 13.969s-26.53-4.664-24.26-24.759c6.671 5.341 13.115 9.241 25.773 10.79m-1.555 34.738c2.305 2.487 8.904 2.698 11.87 3.865.637-4.339 1.321-7.463 2.388-10.448-4.048-3-6.062-4.557-15.504-10.232-6.508-4.21-13.262-1.528-7.909 6.352 5.39 7.928 6.086 7.673 9.155 10.463m15.51 5.317c3.499 1.119 9.744 8.155 9.887 8.537 5.688-9.54 15.623-21.766 9.975-43.632-.585-3.382-1.934-1.798-3.26.402-2.746 4.378-16.284 23.088-16.602 34.693m4.214 20.436c-3.324-1.564-9.522-4.227-11.611-6.794-3.356-2.921-4.291-6.746-4.645-9.607-.693-6.607 8.012-2.699 11.025-1.103 5.943 3.777 7.432 6.535 9.008 8.784-1.5 2.424-2.679 5.492-3.777 8.72m16.718-20.078c-1.313-.76-8.888 12.087-13.808 21.686 3.467 2.838 5.955 5.449 8.124 8.226 9.294-16.023 7.356-27.198 5.684-29.912m50.447-125.171c.446-2.408.836-8.027 6.715-9.313 21.582 3.256 34.292 6.018 41.233-2.71-1.353 5.699-4.561 13.842-16.893 12.926-10.464-.585-17.346-4.636-31.055-.903m-50.19 61.78c-4.28 32.392-14.935 30.884-20.97 47.301-3.92-3.188-6.989-5.978-12.733-9.086 2.062-36.38 28.862-51.958 36.855-60.61 2.34-1.918 3.268-2.105 2.372 1.095-3.483 12.019-2.71 15.525-4.482 12.795-1.97-3.55-2.897-1.755-1.902.772.696 1.691 1.29.963.86 7.733m37.565 57.802c6.018-40.01 14.266-47.524 15.567-45.86 1.895 1.738-4.82-.797-11.38 33.024-1.62 21.376-9.935 40.026-9.465 39.481 1.978 1.85 9.485-19.207 13.087-33.021 5.17-19.231 6.735-20.544 8.905-23.49 3.283-.597-2.36 3.726-7.165 24.011-5.135 24.66-17.574 43.409-19.759 43.238 10.803-4.597 21.22-35.083 29.411-59.715 10.142-30.27 31.653-46.899 44.828-47.886.14-2.798-1.075-17.396-17.315-15.971-24.87 6.372-50.504 25.503-48.123 86.212.238 1.338 1.027 1.43 1.409-.023m-46.548 41.501c-1.422 2.58-2.58 4.649-3.432 4.649-1.321-.263-9.09-5.636-10.906-8.871-2.078-1.855-2.396-10.726.314-10.694 2.313-.872 8.45 3.084 14.402 9.388 1.5 2.496 1.464 2.794-.378 5.528m8.418-6.444c-1.09-.31-7.852 11.824-9.843 13.945 2.38 2.699 3.897 6.699 4.243 7.144 7.81-6.367 6.564-19.97 5.6-21.09m-1.188 21.533c-2.922 2.953-8.952 9.536-9.243 10.308 1.373 1.874 4.02 8.115 4.24 7.144 3.183-2.225 6.873-15.92 5.003-17.452m-9.342 26.6c-2.396-6.615-3.307-6.638-10.305-14.558-.497-1.27.283-5.588 1.612-5.775 1.008-.43 11.01 8.827 10.811 18.236.096.86-1.202 2.813-2.117 2.097m-2.807 6.529c-2.77-6.459-7.666-10.323-9.095-11.752-.63-1.835.267-4.239 1.222-4.665 4.709-.326 9.78 12.74 9.995 15.072 0 1.206-1.712 2.098-2.122 1.345m-6.984 12.741c-2.755-3.701-5.175-6.507-5.147-5.898-4.084 8.728-2.982 15.692 2.264 10.562 2.019-1.711 3.463-4.493 2.882-4.664m2.997-2.34c-.7-6.157-5.04-9.25-6.13-9.73-.47-.267-1.91 1.615-1.592 2.757 2.472 3.164 4.088 3.065 5.768 7.781.792.903 2.105.016 1.954-.808m-3.712-17.568c-1.09-1.337-3.51 2.83-2.181 3.849 2.583 1.87 5.692 5.97 6.874 9.022.76.749 2.165-1.29 1.799-1.99-1.7-5.774-4.144-9.185-6.492-10.88m.812-36.667c-1.878 2.416-1.624 10.977.518 12.346 2.105 2.463 6.181 5.727 7.288 6.69 1.962-1.942 2.396-2.993 4.458-5.859-.557-2.869-10.592-15.943-12.264-13.177m-53.98-182.214l-1.015 8.254s9.783-4.064 12.315-5.46c-3.992-.995-9.585-2.432-11.3-2.794" fill="#FFB612"/><path d="M262.446 227.575c27.23 21.806 51.745 10.169 54.655-20.886 9.955-.987 29.71-2.476 59.77 1.218 4.147 8.736 4.573 11.796 6.237 16.218-11.28-1.29-40.059-6.428-64.582.398-3.045 10.065-6.007 23.553-31.43 26.251-19.197 1.055-24.973-12.401-28.762-15.876-9.02 1.5-24.523 7.626-32.624 9.843-2.973-2.774-3.168-14.24-.764-15.044 12.148-4.931 15.396-6.038 18.103-6.834.541-.314 7.053-1.723 19.397 4.712" fill="#3B0083"/></g></svg>