<svg width="512" height="512" viewBox="0 0 512 512" xmlns="http://www.w3.org/2000/svg"><title>new-orleans-saints</title><g fill="none"><path d="M394.001 211.7c-31.342-18.214-62.183-14-85.58-3.575-1.028-7.695-3.038-16.133-6.385-26.012-4.96-14.696-10.399-28.734-15.19-41.128-6.3-16.275-11.095-30.22-13.73-39.549L256.07 43l-17.7 58.47c-2.704 9.294-7.372 23.313-13.638 39.604-4.764 12.397-10.167 26.458-15.093 41.147-3.312 9.898-5.315 18.344-6.328 26.047-23.42-10.372-54.276-14.524-85.572 3.755-25.584 14.962-39.287 40.958-35.763 67.856 3.216 24.471 19.95 43.697 43.658 50.21l17.659 4.852 4.32-17.79c.625-2.414 6.995-24.686 27.052-24.282 13.911.285 25.461 12.586 31.238 20.535-1.864 5.627-2.857 12.367-1.91 19.627l-7.853-10.48-14.207 10.591c-12.798 9.532-31.373 33.083-19.892 60.878 5.003 12.116 15.767 20.377 30.306 23.273 8.885 1.768 18.983 1.352 28.341-.7 3.682 11.82 10.395 26.115 22.604 38.89l12.882 13.456 12.837-13.487c12.185-12.802 18.852-27.125 22.526-38.948 9.359 2.022 19.45 2.415 28.342.624 14.523-2.92 25.264-11.207 30.248-23.343 11.42-27.822-7.225-51.33-20.035-60.831l-14.23-10.545-7.83 10.487c.94-7.26-.08-13.992-1.956-19.626 5.757-7.957 17.277-20.289 31.191-20.605 20.062-.45 26.474 21.81 27.14 24.352l4.356 17.781c-.023-.134 17.616-5.025 17.616-5.025 23.709-6.56 40.385-25.839 43.54-50.322 3.466-26.893-10.303-52.859-35.918-67.752" fill="#000"/><path d="M250.19 103.973c-2.157 10.176-7.73 24.657-14.18 41.437-4.722 12.285-10.075 26.208-14.916 40.65-4.645 13.876-6.54 24.217-6.54 33.86 0 3.086.354 6.101.72 9.132-17.862-12.262-53.051-29.027-91.43-6.597-21.317 12.467-32.763 33.857-29.882 55.844 2.565 19.557 15.925 34.947 34.877 40.154l5.623 1.54 1.402-5.677c.347-1.394 8.793-34.13 39.04-33.517 24.349.489 40.262 24.159 44.564 31.434-2.049 3.782-3.743 8.997-3.743 14.981 0 6.417 2.18 13.715 7.756 21.032-2.226 3.012-5.865 6.706-10.11 7.056-6.061.497-12.193-5.88-16.263-11.327l-3.405-4.536-4.548 3.393c-9.305 6.936-24.622 25.591-15.952 46.577 3.466 8.388 10.899 13.93 21.498 16.037 10.953 2.172 24.775.196 34.596-4.279 1.902 11.077 7.294 29.832 22.734 45.966l4.117 4.31 4.11-4.318c15.4-16.18 20.747-34.947 22.622-46.035 9.836 4.452 23.686 6.401 34.639 4.19 10.575-2.13 17.99-7.694 21.432-16.083 8.608-21-6.732-39.626-16.052-46.539l-4.556-3.377-3.393 4.552c-4.063 5.446-10.183 11.846-16.245 11.357-4.248-.346-7.895-4.024-10.121-7.024 5.53-7.306 7.702-14.578 7.702-20.978 0-6.02-1.713-11.254-3.781-15.048 4.286-7.279 20.153-31.003 44.486-31.546 30.252-.677 38.779 32.043 39.122 33.437l1.417 5.654 5.623-1.54c18.933-5.25 32.258-20.663 34.78-40.227 2.832-21.995-8.66-43.366-30.005-55.779-38.459-22.36-73.629-5.476-91.445 6.832.331-2.95.67-5.877.67-8.884 0-9.748-1.883-20.258-6.566-34.12-4.869-14.415-10.253-28.314-14.997-40.58-6.498-16.769-12.097-31.25-14.277-41.425l-5.592-26.089-5.53 26.1z" fill="#FFF"/><path d="M256.174 443.198c21.775-22.872 22.041-51.73 22.041-51.73 9.636 9.605 47.078 16.029 55.478-4.43 9.209-22.46-14.184-39.814-14.184-39.814-22.665 30.39-37.878.647-37.878.647 17.266-18.656 4.314-35.474 4.314-35.474 1.128-3.378 20.269-36.8 50.922-37.481 35.331-.798 44.767 37.75 44.767 37.75 37.046-10.267 44.205-61.913 3.44-85.607-51.735-30.082-96.803 15.744-96.803 15.744 4.194-17.15 5.384-29.967-3.07-55.015-11.465-33.954-25.522-64.294-29.447-82.634-3.893 18.344-17.885 48.73-29.266 82.714-8.396 25.065-7.16 37.882-2.946 55.016 0 0-45.172-45.71-96.83-15.517-40.72 23.802-33.437 75.417 3.632 85.603 0 0 9.347-38.574 44.68-37.854 30.66.612 49.874 33.988 51.01 37.358 0 0-12.918 16.857 4.39 35.466 0 0-15.143 29.786-37.874-.55 0 0-23.362 17.407-14.095 39.845 8.453 20.435 45.876 13.923 55.49 4.294 0 0 .33 28.854 22.152 51.677" fill="#000"/><path d="M348.839 225.442c-42.099.046-76.618 47.856-76.618 47.856 1.498-7.822 19.495-43.019 3.208-85.087-16.287-42.064-19.61-59.013-19.61-59.013l-.078.481v-.47s-3.293 16.954-19.476 59.06c-16.195 42.106 1.891 77.265 3.4 85.075 0 0-34.63-47.721-76.729-47.667-42.09.042-77.138 47.952-38.24 76.24 0 0 11.385-35.343 50.618-35.42 28.858-.058 57.762 30.895 58.987 46.23 0 0-13.21 18.657 5.157 34.266 0 0-19.842 41.736-47.352 11.673 0 0-21.151 26.462 6.509 32.871 21.948 5.076 43.57-17.188 43.57-17.188s-2.361 35.174 13.895 54.392v-.174l.085.166c16.21-19.257 13.768-54.43 13.768-54.43s21.671 22.222 43.62 17.084c27.645-6.47 6.424-32.886 6.424-32.886-27.433 30.124-47.363-11.562-47.363-11.562 18.316-15.656 5.06-34.273 5.06-34.273 1.186-15.328 30.014-46.358 58.883-46.366 39.237 0 50.706 35.31 50.706 35.31 38.833-28.381 3.667-76.222-38.424-76.168" fill="#B3995D"/></g></svg>