<svg width="512" height="512" viewBox="0 0 512 512" xmlns="http://www.w3.org/2000/svg"><title>oakland-raiders</title><g fill="none"><path d="M256.315 68c-48.043 43.543-110.774 42.238-175.194 34.14-13.9 157.823 40.158 313.594 174.17 341.804 135.297-27.123 188.725-182.597 175.682-340.492C371.002 109.5 308.85 111.954 256.315 68" fill="#FFF"/><path d="M261.242 312.368c.168.096-.02.268.063.323.084.067.223.054.332-.03-.16-.025-.013-.142-.06-.205-.087-.151-.23-.042-.335-.088z" fill="#000"/><path d="M256.098 83.386c-40.049 32.57-103.212 40.653-163.53 31.837-8.997 143.92 37.947 284.55 162.31 317 124.534-31.774 172.787-171.785 164.575-315.75-61.54 6.928-123.486-.302-163.355-33.087" fill="#000"/><path d="M303.974 331.458c-1.46 4.43-3.737 8.812-5.067 10.788 0 0 1.867 3.376 2.517 6.685 9.667 7.444 20.337 14.432 47.489 7.813-4.84-1.48-35.159-16.587-42.96-23.952l-1.98-1.334zm-100.011 4.162s4.534 7.193 6.128 8.103c0 0 1.954 1.736 1.224 7.838-10.917 8.166-37.583 11.475-51.113 6.161 0 0 32.634-12.863 41.656-20.987l2.105-1.115zm84.537-2.58c-.63.679-1.175 1.392-1.863 2.029-.247.23-.453.642-.767.877-.76.574-1.434 1.107-2.252 1.631-.835.533-1.43 1.984-.717 2.621.612.55 1.79 1.141 2.55-.016.415-.617 1.3-.747 1.795-1.187 1.405-1.254 2.42-2.924 2.784-4.857.13-.68-.44-1.002-.897-1.476.117.54-.608.377-.654.788.008-.142.016-.272.02-.41m-69.205 1.965c.78 2.164 2.596 3.087 3.141 3.955.86 1.384 1.262 2.844 2.097 4.165-1.422.81-2.512 3.104-3.909 2.407-.704-.344-.914-1.853-1.338-2.91-1.07-2.676.428-4.895.009-7.617.071 0-.067-.008 0 0" fill="#FFF"/><path d="M245.302 181.862c-16.353 0-33.255 4.09-38.338 19.73 0 0-8.61 31.484-8.053 36.425-4.576 1.392-13.815 5.825-11.043 30.948 0 0 9.91 45.145 14.36 53.973l2.857.155s2.6-2.726 2.126 6.254c0 0-1.501 5.242 3.246 8.363 0 0 1.846-7.57 3.074 3.841.24 11.064 3.72 22.715 19.901 34.207 0 0 7.63-4.92 8.468-5.284 0 0-11.24-4.274-17.04-10.72 0 0 1.631 7.864-4.857-1.074 0 0-3.116-3.032-4.903-23.596.151-2.856-.239-3.288-2.537-6.274-8.925-18.19-16.013-60.152.75-75.686 17.662-1.124 59.82-2.064 75.636.818 6.472 1.564 9.65 3.644 11.114 14.78 3.15 14.079 1.057 42.225-6.265 64.764 0 0-1.078 4.857-3.658 7.18-2.105 1.112-9.755 6.447-13.45 14.44-1.376 2.794-4.383 5.5-9.412 7.693-5.07 3.007-23.746 7.759-16.394 15.924 0 0-2.122.96-5.86 1.993 0 0 .99 4.554 3.075 3.846 0 0 3.762-1.439 5.113-3.825 10.984 1.396 25.034-1.145 33.628-8.88 3.397-2.277 9.7-5.259 10.439-11.168 0 0 3.632-6.77-2.324-18.131 2.257-3.98 5.93-11.567 5.415-17.326.218-.318 19.225-22.098 21.528-52.056 0 0-2.663-17.645-1.909-.818 0 0-.234 2.94-1.908 11.45 0 0-3.556 13.051-1.635.545 0 0 .708-19.884-1.636-37.621 0 0-.592-6.602 2.999 2.999.482 1.77-.546-2.177-.546-2.177s1.728 12.12 2.181 3.544c-2.18-10.083-2.73-12.54-5.729-13.63-1.862-14.827-7.356-29.166-7.356-29.166l-1.363 1.635c5.033 14 8.312 60.52 7.088 73.87 0 0-3.226 26.314-5.998 24.536 0 0 4.467-44.399 2.462-60.881-.944-20.929-3.955-26-5.159-34.253 0 0-6.63-17.271.244-7.906l.822-.541c-5.872-15.036-14.722-22.355-41.434-22.9l3.65 65.331-24.029.08 2.66-65.41z" fill="#A5ACAF"/><path d="M214.895 267.147c-.122-.009 5.355-.91 5.276-.91 5.913.025 19.838-.063 22.849 1.123 1.543.604 4.253-.813 5.595-1.346 5.02-1.988 5.65-2.42 10.938-5.57.868-.515 7.096-4.265 5.964-4.39-14.453-1.582-43.929-1.402-49.75.335 0 0-2.454.41-3.146 1.182-2.751 3.07-2.168 3.318-4.085 7.562 1.246-2.764-.654 3.494-.822 4.052-.495 1.615 2.265 1.53 2.823.763 1.015-1.405 1.212-3.015 4.358-2.801" fill="#FFF"/><path d="M295.544 311.88c-.658 3.108-1.052 6.334-2.126 9.307-.994 2.743-1.472 4.626-4.903 7.52-.709-5.972-2.395-8.93-2.072-11.165-2.302.898-1.992 4.325-2.235 7.458-.39 4.99.96 8.656.646 7.197.15.696-1.737 2.071-2.416 3.153-2.14 3.38-4.5 6.535-7.407 9.274-.432.406-.54 1.237-.994 1.43-1.602.688-2.017 1.728-2.957 2.818-.767.893-2.797 1.598-3.85 2.173-.662.369-2.676.91-3.22 1.023-1.217.247-2.32.206-4.157.105-1.774-.088-4.194-2.273-6.103-2.735-5.557-1.359-6.857 3.67-15.497 1.812-3.565-.767-4.282-3.15-6.509-5.67-.432-.49-2.558-3.07-2.89-3.43.898.964-5.926-5.457-7.234-10.406-1.46-5.537-.71-5.981-.055-10.65.248-1.752-.084-6.152-1.707-6.437-1.514 1.556-.42 2.621-.872 4.865-.432 2.19 1.585 2.277.033 7.168-.444 1.4-1.203 1.057-1.644.121-1.614-3.48-.78-11.013-4.437-13.958-.843-.67-.893-2.709-.185-3.242 1.116-.843 2.228.491 3.679.156.251-.06.096-1.82-.101-2.047-1.2-1.41-3.859-.83-3.833-1.023.352-2.844.297-5.398-.667-6.795-1.334-1.908-3.288-2.235-4.085-4.102-1.682-3.946-1.103-6.203-1.254-7.234-.206-1.393-.541-3.653-.143-5.117-.403.088-.247-3.28-.226-3.498.247-2.466.687-2.328 1.065-4.655.071-1.426 3.598-2.265 3.632 1.015-.864 4.324.42 7.725.537 12.091.012.524.872 1.028 1.451 1.195 9.516 2.73 16.638 1.682 26.1 1.493 2.533-.05 4.055-3.212 4.596-5.695.898-4.085.902-5.478.931-9.978.479-1.203 1.582-.872 2.45.126 1.623 1.866.365 2.563.767 4.957.31 1.858-2.084 4.593-2.084 4.593.268.017-.81 6.308-.537 6.32.487.03-.365 5.65-.495 5.503-.365 3.053 1.74 1.933 1.422 4.169-.055 1.023-.579 2.44-.55 2.63.302 2.063-4.303 1.619-3.569 1.656-1.019-.054-1.812-.503-1.774-1.32.063-1.167-.256-2.04-.243-3.084-2.248-.121-1.321 1.69-1.443 4.014-.054 1.028.62 1.888 2.345 2.173 1.824.302 2.017.516 2.868-.05.445-.303 1.892-.621 2.118-1.326.848 3.326 1.85 3.783 4.308 3.712 1.048-.034 3.46.382 4.404-2.026.239-.604 1.874-.516 2.105-1.111 4.257.834 1.652 2.57 6.811.91 1.556-.495 2.827-2.735 1.485-4.509-.16-.214-.994-.197-1.011-.08-.566 4.438-2.307 3.13-3.976 3.029-5.473-.32-2.52-2.588-7.168.033-.549.31-2.176 2.55-4.34.797-2.932-2.613.239-4.492.595-7.34.319-2.592.197-10.732.071-13.098-.285-5.582 1.141-2.189 2.085-4.596-.797.197-.37-6.833-.44-7.193-.483-2.483-3.41-1.518-4.17-2.466 0 0-.34-1.959.105-2.047 3.31-.642 7.5-2.466 10.515-3.95 6.962-3.423 10.884-5.554 14.251-7.642 1.003-.621 1.41-1.942 1.946-1.95 6.35-.072 12.474-1.355 18.119 1.778 3.942 2.189 4.898 4.349 5.93 8.086-.457.071.378 3.988.39 4.324.072 2.458-.054 6.945-.025 8.183.193 8.11.654 10.887-.453 16.356-.008.047-.851 2-1.124 1.984-.667.994-1.82 2.458-3.183 3.607-.432.36-.248 1.556.059 1.35.847-.574 2.5-.893 3.757-1.442-.041 3.472-.398 7.553-1.212 11.403" fill="#FFF"/><path d="M284.486 273.02c.147.004-2.164-1.753-4.148-2.881-.914-.52-4.71 2.063-5.641 2.16-3.913.41-6.161.608-10.288.713-1.01.025-2.475.041-3.079-.902-.377-.579-.318-1.703.118-2.26 1.25-1.599 3.695 1.127 5.196-2.924-.008.017 4.664-.193 6.094-.26 4.886-.222 12.088-.185 11.446.398.587-.532 1.53 2.114 2.512 2.794 1.841 1.27 1.317-.416 2.14 2.16-.567-.537.51 1.551-.055 1.019-.017.268-.349 1.48-.495 1.614-.147.13-1.95-.515-2.223-.524.138 0-1.716-1.115-1.577-1.107m-23.51 3.268c2.852-1.66-2.139-2.164-1.258 2.743-.076-.457.93-.147 1.015-.369.134-.335.197-1.564.243-2.374m-2.838 11.108c.646 3.309.059 2.869-.31 5.918-.328 2.764 2.03 3.405 2.03.31 0-11.668-.785-8.43-1.72-6.228m32.496 16.711c-.273.637-.7.68-1.234 1.027-.402.269-.85.848-.645 1.288.104.226.587.444.914.436.348-.008.675-.424.793-.734.234-.608.138-1.338.172-2.017m-29.363-4.26a.72.72 0 0 0 .764-.68.724.724 0 1 0-1.447-.075.719.719 0 0 0 .683.755m25.799-19.417c-1.052.528-1.975.414-2.982.976 1.573-.876-8.501-1.43-4.697-1.078-2.71-.255-4.92-.838-7.738-.822.008-.138-.533.42-.524.281-1.401.328-2.131-.754-3.18-1.434-.733-.47-1.388.025-2.063-.071.143-.264-.24-.436-.138-.6.172-.281.65-.428.83-.453 1.212-.155 2.626-.046 3.787-.449 4.077-1.417 7.26.525 11.442.395 1.317-.042 3.124-.307 4.357.562.252.18.248.608.432.746.55.411 1.531.16 1.85.5.654.695-.646 1.081-1.376 1.446m-4.005 5.918c-.26-.058-.365-.402-.591-.402-2.378 0-4.505-.613-6.698-1.552-.751-.323-1.477.268-2.257.365-1.032.138-2.118-.285-3.011.033-.65.231-1.216 1.208-.663 1.514.839.47 2.206.395 3.31-.348 1.279-.86 2.897-.574 4.403-.222.399.088.801.365 1.22.352 1.46-.058 2.848.357 4.287.26m-15.142-3.867c.05-.326-.567-.238-.382-.628-.994-.29-1.913.604-2.86.21-.537-.21-.864-.776-1.393-1.053-.042.776-.331 1.85.344 2.143 1.35.591 2.823-1.12 4.261-.26.009-.134.004-.273.03-.411" fill="#000"/><path d="M187.04 222.445l-8.854 8.75s7.754 12.078 8.757 12.54c1.585-2.991 4.265-7.143 7.755-7.374l.645-4.47-8.304-9.446zm-32.767-34.879l4.706.042c6.194 6.87 21.515 26.926 21.515 26.926l-2.344 5.607c5.993-5.012 9.44-8.308 11.66-11.466 4.34-4.685 8.24-.999 4.802 2.092-2.278 4.387-13.182 13.228-20.262 19.41-20.199 18.178-58.39-10.85-26.414-38.853l6.337-3.758z" fill="#FFF"/><path d="M148.183 198.297c3.502-4.316 6.652-1.9 3.858.612-2.11 1.904 1.854 6.178 4.438 5.146 2.05-.813 4.5 2.458 3.9 3.687-1.59 3.25 1.456 6.647 3.804 5.52 1.296-.617 4.01 1.534 3.095 3.442-1.392 2.89 1.468 6.157 4.673 4.547 3.426-1.737 1.484 2.94 1.484 2.94-17.35 14.646-42.7-13.295-25.252-25.894" fill="#000"/><path d="M150.001 191.94a5.564 5.564 0 0 0 5.851-5.268 5.568 5.568 0 0 0-11.118-.583 5.57 5.57 0 0 0 5.267 5.85" fill="#FFF"/><path d="M151.857 182.933c3.384 1.816.461 6.778-1.762 6.254-2.394-.566-.562-1.057-.562-1.057 2.236.327 4.27-3.255 1.464-4.425-1.065-.444.86-.772.86-.772" fill="#000"/><path d="M352.8 187.746l-4.702.188c-5.973 7.067-20.66 27.58-20.66 27.58l2.516 5.537c-6.148-4.815-9.7-8.007-12.016-11.094-4.48-4.55-8.262-.742-4.73 2.24 2.415 4.316 13.588 12.813 20.86 18.769 20.753 17.535 58.093-14.462 25.257-41.45l-6.526-1.77z" fill="#FFF"/><path d="M359.893 196.003c-2.91-3.024-5.255-1.304-4.437 1.22.927 2.827-2.588 8.191-4.345 7.08-2.32-1.476-4.656 2.416-3.783 3.8 1.455 2.32-1.342 6.887-3.628 5.64-1.263-.687-3.85 1.838-2.986 3.532 1.442 2.835-1.653 5.423-4.53 4.69-3.72-.953-1.388 2.985-1.388 2.985 17.8 14.1 42.93-16.906 25.097-28.947" fill="#000"/><path d="M357.28 190.195c-3.061.256-5.83-.23-6.085-3.288-.256-3.062 2.092-7.545 5.154-7.805a5.57 5.57 0 0 1 6.01 5.083 5.567 5.567 0 0 1-5.079 6.01" fill="#FFF"/><path d="M355.142 181.248c-4.358 2.52-1.229 7.054 1.959 6.194 2.374-.637.524-1.065.524-1.065-3.12.55-5.39-2.655-1.598-4.378 1.053-.483-.885-.751-.885-.751" fill="#000"/><path d="M321.95 223.944c1.19.68 8.421 7.201 10.208 8.313-1.053 4.45-8.124 18.202-9.68 20.58-.184-8.195-1.333-17.468-5.838-17.497l-.847-3.326 6.157-8.07z" fill="#FFF"/><path d="M292.87 354.337c.36-2.483-1.808-4.802-3.334-2.844-.835 1.066-.906 3.033-1.909 4.044-2.71 2.738-4.416 3.254-5.997 4.944-1.716 1.816-2.244 3.007-.621 5.44.134.206.398 2.684 2.18 4.022 2.182 1.636 5.298-.084 8.59-4.202.734-.919.6-2.223.768-3.263.428-2.66-.071-5.423.323-8.141m-14.024 15.474c-.214 6.786-10.12 9.504-14.096 7.243-.667-.377-2.768-2.26-2.34-3.565.427-1.27 1.895-2.088 2.969-2.5 1.212-.465 2.265-.054 3.43-1.086 1.624-1.438 2.744-1.698 4.635-3.498 1.082-1.035 3.175-.868 4.173-.083 1.007.792 1.623 1.442 1.141 3.35.155-.272 0 0 .088.139" fill="#000"/><path d="M289.937 359.653c-4.223 2.81-9.336 5.243-4.5 7.835 1.107.595 4.207-1.602 4.974-4.156-.042.146-.268-3.817-.474-3.679m-14.45 13.222c-.746.608-3.447 1.984-3.074 1.778-1.786.998-3.862 1.556-5.922 1.22-1.837-.343-1.078-1.925-.68-1.979 5.18-.684 6.174-3.615 9.475-4.907.96.235 1.154 1.69 1.02 2.114-.093.314-.315 1.157-.819 1.774" fill="#FFF"/><path d="M236.606 311.446c-1.3 1.649.017 1.904-3.124 4.95-.902.876-2.538 1.505-3.343 2.637-.134.19-.117.932-.147 1.481 1.997.654 5.641-.927 9.479-.973 2.31-.034 4.576.73 6.916 1.204 4.119.843 7.927-.06 12.88-.328 5.943-.327 7.084 1.087 8.963.877 3.674-.42 5.913-2.24 4.328-1.778.39-.113-3.058.335-2.793-.189-1.02-.18-1.649.377-2.513.474-2.013.235-4.013.117-6.165-.612-3.1-1.04-6.534.499-9.78.503-5.285.012-11.14-1.921-17.729-1.242-.637.068 5.385-4.81 4.932-4.244 1.754-2.16 2.118-5.133 2.47-4.169-.104-.293-1.74-1.933-4.374 1.41m7.094 16.948c4.526-.378 13.006 1.916 16.97.482-.026.41 3.33-1.049 3.241.583-.117 2.244-5.59 1.803-7.033 1.476-3.947-.893-5.352.353-13.522.105-.348-.008-4.122.6-5.196-2.32-.29-.771 2.093-.918 5.54-.326m26.815-14.135c-.423 1.053.655 1.724 1.225 1.166.445-.432.365-1.619-.583-1.958.105.532-.512.47-.642.792m-1.773-2.166c-.415-.26-.847-.655-1.212-.747-1.405-.336-2.534-1.111-3.98-1.342-.357-.059-.516-.68.07-.969.903-.44 1.88.017 2.798.323 1.208.398 1.393 1.858 2.382 2.462.29.176 1.074.28.856.692-.218.415-1.027.235-1.12-.428.072 0 .139.009.206.009" fill="#000"/><path d="M272.969 318.106c.318 0 .578-.344.578-.772 0-.423-.26-.767-.578-.767-.32 0-.58.344-.58.767 0 .428.26.772.58.772m89.836-167.449c3.192 2.172 5.784 3.422 8.283 3.422 1.712 0 2.638-.646 2.638-1.711 0-1.527-1.669-1.711-4.395-2.315-5.65-1.2-8.518-4.303-8.518-9.114 0-6.941 5.414-12.033 13.836-12.033 3.796 0 7.357.973 11.152 3.012l-3.611 8.652c-2.315-1.715-4.718-2.592-6.799-2.592-1.665 0-2.591.6-2.591 1.573 0 1.619 2.218 1.85 6.156 2.73 4.392.969 7.357 4.257 7.357 8.883 0 7.08-5.645 12.448-14.302 12.448-4.35 0-8.745-1.25-13.002-3.703l3.796-9.252zm-223.797-6.017h1.85c2.269 0 3.519-1.153 3.519-3.192 0-2.038-1.204-3.284-3.52-3.284h-1.849v6.476zm-11.66-14.99h14.944c8.841 0 13.375 4.073 13.375 11.152 0 4.719-2.546 8.003-6.387 8.468l8.84 13.463h-13.328l-5.784-10.921v10.921h-11.66V129.65zm60.175 20.781l-1.015-3.749c-.466-1.762-1.162-4.072-1.342-7.264h-.231c-.189 3.192-.88 5.502-1.342 7.264l-1.023 3.75h4.953zm-8.93-21.058h13.233l11.567 33.087h-12.77l-1.066-4.165h-8.971l-1.02 4.165h-12.77l11.798-33.087zm35.439 33.359h12.08V129.65h-12.08zm43.942-16.519c0-4.35-2.407-6.384-7.222-6.384h-.508v12.817c5.276-.092 7.73-1.946 7.73-6.433zm-17.926-16.563h9.626c5.733 0 10.036.554 13.094 2.08 5.687 2.873 8.883 8.192 8.883 14.483 0 5.46-2.454 10.229-6.85 13.232-4.302 2.965-9.394 3.288-16.008 3.288h-8.745V129.65zm42.865 0h22.115v8.979h-10.455v3.187h9.487v8.468h-9.487v3.473h10.736v8.975h-22.396zm47.441 14.99h1.85c2.269 0 3.519-1.153 3.519-3.192 0-2.038-1.204-3.284-3.52-3.284h-1.849v6.476zm-11.66-14.99h14.944c8.841 0 13.375 4.073 13.375 11.152 0 4.719-2.546 8.003-6.387 8.468l8.84 13.463h-13.324l-5.788-10.921v10.921h-11.66V129.65z" fill="#FFF"/></g></svg>