<svg width="512" height="512" viewBox="0 0 512 512" xmlns="http://www.w3.org/2000/svg"><title>tampa-bay-buccaneers</title><g fill="none"><path d="M362.07 312.766c-3.763 5.702-33.393 48.044-35.434 50.792-.165-.132-5.254-4.483-5.436-4.639 7.552-10.481 28.905-42.32 29.332-42.97 3.79-.92 7.537-1.924 11.216-3.076a4.61 4.61 0 0 0 .322-.107" fill="#FFF"/><path d="M376.153 307.642c-5.37 8.48-34.661 52.567-41.588 62.58-.049-.041-.124-.09-.164-.123-1.014-.921-2.322-2.033-3.772-3.242 2.363-3.364 29.44-43.585 37.379-56.048 2.775-.98 5.477-2.05 8.145-3.167" fill="#B1BAC0"/><path d="M300.047 386.462c-.98 2.451-1.918 6.663-1.532 9.732.082.667.214 1.275.371 1.868v.008c-2.315 10.62-6.794 10.793-7.98 10.637a1.988 1.988 0 0 1-.296-.058c4.42-3.916 4.28-11.007 8.794-20.863.206-.452.437-.913.66-1.374a.117.117 0 0 1-.017.05" fill="#FFF"/><path d="M326.224 394.013c.124 1.992-2.208 4.904-4.274 5.67-1.5.617-3.485.921-5.403.912-.61 0-1.21-.024-1.795-.082.543-.913 1.203-2.024 1.935-3.217 1.647-2.69 3.69-5.825 5.46-8.136 1.21.6 2.948 1.777 3.763 3.48.214.453.314.888.314 1.373m-12.112-14.199c-1.507-1.382-2.462-2.862-3.064-4.327-.008.007-5.716 7.464-10.787 18.617.132.551.304 1.078.527 1.556 1.564 3.331 2.948 4.244 5.715 4.08 0 0 6.464-11.016 11.026-16.906a94.486 94.486 0 0 1-3.417-3.02" fill="#B1BAC0"/><path d="M311.048 375.487c-1.04-3.06-.835-6.144-.766-6.713l-.245.37c-1.74 2.699-3.452 5.414-5.082 8.177-1.566 2.65-4.637 8.573-4.752 8.804-.016.123-.765 4.541.056 7.97l.008-.02c.03-.079.074-.181-.006.03 5.071-11.155 10.779-18.61 10.787-18.618" fill="#FFF"/><path d="M339.533 388.305c-1.366-5.997-9-11.847-10.763-13.13-3.771-3.332-13.52-10.942-14.444-12.588-.995-1.793-5.509-7.905-11.685-9.14 0 0-1.03-.147-1.178.65-.074.486.132.939.864 1.136.726.19 3.007.42 5.551 2.813 2.544 2.394 3.45 5.553 3.402 8.22-.067 2.665.881 6.424 4.117 8.85 3.252 2.428 7.09 6.525 10.46 7.463.205.057.401.09.607.107 2.232.197 4.348-1.81 4.01-2.938.735 2.436.067 4.205-1.028 5.472 3.739 3.677 5.55 7.872 4.38 11.649-1.49 4.854-6.917 11.377-16.84 11.245-7.065-.09-11.216-2.056-13.027-3.183l.65-1.456c-4.142.994-5.657-5.134-5.723-5.405-2.314 10.62-6.794 10.793-7.98 10.637-.19-.025-.296-.058-.296-.058s.889 3.472 4.347 5.134a3.796 3.796 0 0 0-4.273 1.547 3.828 3.828 0 0 0 1.079 5.306 3.848 3.848 0 0 0 5.32-1.086 3.82 3.82 0 0 0-1.088-5.298c-.09-.058-.173-.09-.263-.14.469.173.947.33 1.507.42 4.61.765 6.126-1.457 6.126-1.457s-.312-.633-.528-1.522c0 0-4.56 3.21-9.601-1.884.173.058 1.837.634 4.702.165 4.274-.635 4.86-1.975 5.147-2.221a.502.502 0 0 1 .034-.124c3.697 2.007 7.781 2.944 13.595 3.06 6.522.124 12.764-1.916 16.437-5.116 3.665-3.192 8.005-9.972 6.382-17.128" fill="#B1BAC0"/><path d="M364.467 338.224a2114.606 2114.606 0 0 1-24.728 36.5c8.128 6.712 7.64 15.17 7.64 16.773-.155 8.992-4.948 15.704-9.337 19.628-5.46 4.648-12.92 6.902-20.792 6.96-.23 0-5.863-.173-7.798-.617-.831 1.217-2.437 2.698-5.048 3.76a10.911 10.911 0 0 1-1.202 2.426 11.254 11.254 0 0 1-9.347 5.018s-3.68-.107-6.224-1.858a11.206 11.206 0 0 1-5.056-9.354v-.1a11.063 11.063 0 0 1 1.268-5.091c-.379-.897-1.705-6.252-1.705-6.252l3.467-3.052c.28-.165 1.136-1.456 2.099-4.755 1.022-3.217 2.24-7.996 4.793-13.565 3.253-7.075 7.765-14.396 11.058-19.464-.32-1.62-2.025-2.369-3.252-2.665-1.375-.37-3.07-1.168-4.421-2.74-1.417-1.645-2.504-3.965-1.895-6.959.602-2.953 2.455-5.084 4.62-6.08v-.007c2.453-1.276 5.485-.667 5.485-.667 7.22.667 12.557 7.362 12.557 7.362 7.188-10.019 23.913-34.87 24.267-35.414-21.92 4.188-44.566 4.755-63.373 1.637-34.198-5.667-60.507-23.856-77.504-32.148-16.996-8.284-49.375-16.774-82.774-8.284-33.39 8.49-55.443 39.223-55.443 39.223 9.972-70.187 53.492-82.016 57.667-83.2 6.34-5.932 14.657-24.03-5.04-36.238-6.727-4.17-12.376-9.452-12.376-9.452 4.125.485 13.8-.79 19.17-2.912 6.448-2.542 12.377-3.39 12.377-3.39-5.09-4.845-12.863-7.271-12.863-7.271 7.765-.486 19.903-3.151 27.42-6.549 7.52-3.389 11.645-9.452 10.426-12.117-1.211-2.674-8.005-1.21-8.005-1.21 2.43-3.635 8.251-5.091 8.251-5.091-16.74-.971-28.935 8.135-28.935 8.135 1.86-3.99 7.98-11.163 7.98-11.163-2.324.765-8.754 2.773-9.158 2.896 26.211-20.22 55.468-37.997 96.46-38.26 40.984-.272 80.913 18.08 107.519 26.587 26.622 8.506 40.745 12.8 69.49 8.555 13.76-2.04 25.809-7.675 34.636-12.956 0 0 6.176-15.688 6.645-38.212 0 0 7.402 13.261 7.435 33.91.074 70.861-34.296 122.613-45.282 141.452-10.499 18.533-24.3 40.728-41.172 66.27zm73.296-227.59c-3.112 15.07-4.826 20.812-4.826 20.812-6.588 3.859-17.251 8.605-32.839 11.196-29.092 4.846-55.492-2.961-84.313-14.264-28.83-11.303-67.401-23.478-103.189-19.373-34.7 3.982-59.527 18.024-72.726 27.18-13.2 9.147-15.63 11.566-26.945 14.799 0 0 8.894 3.496 13.473 3.496 0 0-2.158 8.893-1.35 11.846 0 0 18.856-8.613 21.014-4.574 2.157 4.04-6.737 6.738-12.93 8.342-6.192 1.62-22.363 1.34-22.363 1.34s7.584 5.866 10.26 9.938c0 0-14.296 6.22-30.196 4.064 0 0-.527 5.882 12.541 15.515-2.784.995-6.308 2.607-8.49 4.935 0 0 13.694-2.821 22.3 6.754 2.264 2.838 3.005 5.38 2.75 8.589-.47 5.816-2.702 8.037-8.185 11.656-3.138 1.275-6.474 2.871-9.693 4.837-15.143 9.296-26.22 23.445-33.993 39.61-3.367 7-6.06 15.137-7.963 22.516-1.902 7.42-2.6 14.01-3.045 18.122C56.61 322.075 56 335.015 56 335.015s6.793-9.51 9.98-14.067c3.171-4.54 23.263-29.78 52.53-37.092 9.362-2.378 18.683-3.373 27.592-3.373 21.42-.017 40.548 5.791 51.87 11.328 16.437 7.946 43.438 26.702 78.838 32.568 8.334 1.373 17.317 2.056 26.631 2.056 8.934 0 18.182-.65 27.421-1.908a1094.788 1094.788 0 0 1-14.988 21.791c-4.824-4.59-11.37-5.067-11.37-5.067-7.94-.749-11.916 4.08-11.916 4.08a13.087 13.087 0 0 0-3.277 6.647c-.56 2.46.106 5.322.568 6.778 1.515 4.805 5.623 6.993 7.221 7.692-11.602 15.44-14.97 33.218-14.97 33.226l-5.296 4.665 1.91 7.732c-2.947 9.485 1.681 16.601 7.684 19.546 6.094 2.994 11.783 1.259 11.783 1.259a16.056 16.056 0 0 0 9.932-8.088 16.699 16.699 0 0 0 3.202-2.22c1.673.19 5.955.321 5.955.321 8.778-.074 17.358-2.558 23.904-8.111 5.156-4.607 10.828-12.463 11.027-23.198 0-2.016.37-10.144-6.349-17.226 42.4-62.191 69.928-102.23 87.5-142.966C479.94 123.41 440.053 78 440.053 78s.931 17.037-2.289 32.634z" fill="#B1BAC0"/><path d="M300.295 394.015l-.025.057c-.008.009-.008.017-.008.025l.025-.05c0-.016.008-.024.008-.032m84.684-97.351c-18.66 8.687-61.717 23.09-104.595 15.096-14.921-2.78-34.56-7.437-60.533-23.166-17.037-10.308-35.433-20.162-78.319-19.974-35.524.173-58.342 16.256-65.604 22.237 19.277-62.833 76.26-53.644 76.26-53.644-10.4-4.986-22.884-3.078-22.884-3.078 17.853-28.06-10.91-41.196-10.91-41.196 2.42 0 13.34-3.151 18.914-5.093 5.583-1.933 15.827-3.274 15.827-3.274-3.574-3.282-14.616-5.932-14.616-5.932 10.433 0 19.878-5.05 26.449-11.886 2.29-2.377 8.556-14.28 1.45-18.896-6.539-4.245-19.508.47-19.517.477.017-.017 38.826-41.79 118.916-23.94 37.995 8.475 80.822 30.702 120.364 30.941 13.291.081 42.614-4.228 60.113-21.825-.923 33.432-7.156 80.257-61.315 163.153m-50.412 73.56c-.048-.042-.123-.09-.165-.123-1.012-.922-2.32-2.032-3.771-3.242 2.363-3.365 29.439-43.582 37.377-56.054 2.776-.98 5.476-2.049 8.144-3.167-5.368 8.48-34.66 52.574-41.585 62.586m-1.416 35.209c-3.673 3.2-9.915 5.24-16.436 5.117-5.814-.115-9.898-1.054-13.596-3.06a.505.505 0 0 0-.032.122c-.289.248-.873 1.589-5.146 2.221-2.867.47-4.53-.106-4.703-.164 5.04 5.093 9.601 1.884 9.601 1.884.215.888.527 1.522.527 1.522s-1.514 2.221-6.126 1.456a7.83 7.83 0 0 1-1.507-.42c.09.05.173.082.263.14a3.82 3.82 0 0 1 1.088 5.298 3.849 3.849 0 0 1-5.32 1.085 3.828 3.828 0 0 1-1.079-5.306 3.8 3.8 0 0 1 4.275-1.546c-3.46-1.661-4.349-5.133-4.349-5.133 4.422-3.916 4.282-11.007 8.795-20.861.205-.453.436-.914.658-1.374a.114.114 0 0 1-.016.048c-.98 2.453-1.919 6.664-1.532 9.732.083.667.215 1.275.37 1.868v.008c.067.272 1.582 6.4 5.724 5.405l-.65 1.456c1.81 1.127 5.961 3.092 13.027 3.184 9.922.131 15.349-6.392 16.839-11.246 1.17-3.775-.642-7.972-4.38-11.649 1.094-1.266 1.761-3.035 1.029-5.47.338 1.127-1.78 3.135-4.01 2.936a3.093 3.093 0 0 1-.61-.106c-3.368-.938-7.205-5.035-10.458-7.462-3.236-2.426-4.183-6.185-4.117-8.851.05-2.666-.857-5.825-3.401-8.219-2.545-2.393-4.825-2.623-5.55-2.813-.733-.197-.939-.65-.865-1.135.15-.797 1.179-.65 1.179-.65 6.175 1.234 10.687 7.347 11.684 9.14.922 1.646 10.672 9.255 14.443 12.587 1.762 1.282 9.396 7.132 10.763 13.128 1.622 7.158-2.717 13.936-6.382 17.128m-11.002-16.272c1.21.6 2.948 1.777 3.764 3.48a3.1 3.1 0 0 1 .313 1.374c.124 1.99-2.207 4.903-4.274 5.668-1.499.617-3.483.921-5.402.913-.61 0-1.21-.025-1.794-.083.542-.912 1.202-2.024 1.934-3.217 1.647-2.689 3.69-5.824 5.46-8.135m-17.194-11.837c1.63-2.764 3.343-5.48 5.08-8.178l.247-.37c-.074.568-.271 3.653.767 6.712.6 1.465 1.556 2.945 3.062 4.327a92.875 92.875 0 0 0 3.418 3.02c-4.561 5.89-11.026 16.905-11.026 16.905-2.767.164-4.15-.748-5.714-4.08a8.17 8.17 0 0 1-.528-1.555v-.008c-.824-3.43-.074-7.849-.057-7.972.115-.23 3.186-6.153 4.75-8.801m45.579-61.377c3.788-.922 7.535-1.925 11.215-3.078.107-.032.215-.065.322-.106-3.764 5.7-33.392 48.05-35.434 50.797-.164-.131-5.253-4.483-5.434-4.639 7.551-10.48 28.903-42.324 29.331-42.974m92.953-219.355c-.47 22.523-6.647 38.21-6.647 38.21-8.826 5.282-20.874 10.917-34.634 12.957-28.746 4.245-42.87-.049-69.492-8.556-26.605-8.505-66.535-26.858-107.518-26.586-40.992.262-70.25 18.04-96.46 38.26.403-.124 6.835-2.13 9.157-2.896 0 0-6.119 7.174-7.98 11.164 0 0 12.196-9.108 28.937-8.136 0 0-5.822 1.456-8.251 5.091 0 0 6.793-1.463 8.004 1.21 1.218 2.665-2.907 8.728-10.425 12.118-7.518 3.397-19.656 6.063-27.421 6.548 0 0 7.773 2.426 12.862 7.271 0 0-5.929.848-12.377 3.39-5.369 2.123-15.044 3.397-19.17 2.912 0 0 5.65 5.282 12.377 9.452 19.697 12.208 11.38 30.306 5.04 36.237-4.175 1.185-47.695 13.014-57.667 83.202 0 0 22.052-30.734 55.443-39.224 33.4-8.49 65.778 0 82.774 8.284 16.996 8.292 43.306 26.48 77.504 32.149 18.807 3.118 41.453 2.55 63.373-1.638-.354.544-17.079 25.395-24.267 35.414 0 0-5.336-6.696-12.558-7.361 0 0-3.03-.61-5.484.665v.008c-2.166.996-4.019 3.127-4.62 6.08-.608 2.994.478 5.315 1.895 6.96 1.35 1.571 3.046 2.369 4.421 2.74 1.227.295 2.932 1.043 3.253 2.664-3.294 5.067-7.807 12.39-11.06 19.463-2.552 5.57-3.77 10.349-4.792 13.566-.963 3.298-1.82 4.59-2.1 4.755l-3.466 3.052s1.326 5.355 1.705 6.251a11.07 11.07 0 0 0-1.269 5.093v.099c0 3.636 1.795 7.206 5.056 9.353 2.545 1.752 6.225 1.86 6.225 1.86 3.632 0 7.197-1.795 9.347-5.02.518-.78.915-1.603 1.202-2.425 2.61-1.062 4.216-2.543 5.048-3.76 1.935.444 7.568.617 7.798.617 7.872-.058 15.333-2.312 20.792-6.96 4.39-3.924 9.182-10.636 9.338-19.628 0-1.604.487-10.06-7.642-16.773a2114.216 2114.216 0 0 0 24.729-36.5c16.872-25.543 30.674-47.738 41.173-66.271 10.985-18.839 45.356-70.59 45.282-141.453-.033-20.647-7.435-33.908-7.435-33.908M300.27 394.072c-.008.009-.008.017-.008.025l.025-.05c0-.016.008-.024.008-.032l-.025.057" fill="#000"/><path d="M356.784 251.09c-19.17 13.55-49.185 17.687-49.185 17.687-.338 1.3-2.323 2.665-2.323 2.665s3.073 1.135 10.616 6.803c7.533 5.668 5.492 5.389 7.897 7.01 2.404 1.612 3.771 1.16 3.771 1.16.725 1.455.815 3.619.815 3.619 1.005.946 5.92 5.635 1.35 10.488-4.579 4.854-9.865.346-9.865.346-1.869.395-3.688-.222-3.688-.222s-9.783 6.153-19.5-.551c-7.906-5.446-7.427-11.904-6.966-14.133-2.668 1.53-5.535 2.723-8.474 3.644-7.93 2.484-18.05 3.513-28.104.173-6.604-2.221-12.072-6.072-16.387-10.34-4.323-4.278-7.519-9-9.602-13.253-.312-.65-.61-1.292-.872-1.917-.692 1.645-4.002 7.889-14.254 7.445-11.801-.51-15.893-11.312-15.893-11.312s-1.82-.608-3.072-2.04c0 0-6.933.412-7.659-6.219-.715-6.63 6.045-7.403 7.42-7.552 0 0 1.367-1.678 2.825-2.402 0 0 .823 1.193 3.714 1.35 2.89.156 1.095-.856 10.532-.831 9.437.016 12.565.97 12.565.97s-.757-2.287-.239-3.529c0 0-21.434-21.388-28.54-43.747-7.107-22.36-4.933-30.652 3.696-54.228 0 0 6.4 40.169 26.039 65.407 11.206 14.405 23.814 25.633 32.583 32.626.199 0 .405.008.601.008-1.868-2.081-3.293-4.524-4-7.321-1.755-6.91-4.63-13.335-5.946-18.452-1.318-5.125 1.614-15.367 1.614-15.367-3.936-6.301-2.018-16.675-2.018-16.675s2.132-1.011 3.755-2.978c1.614-1.974 1.054-7.798 2.372-16.37 1.317-8.572 6.9-17.44 19.269-22.483 12.301-5.018 30.78 1.563 30.945 1.621.164.05 18.882 5.931 25.667 17.35 6.818 11.475 5.913 21.923 1.787 29.548-4.125 7.634-8.094 11.937-7.987 14.487.099 2.542 1.194 4.631 1.194 4.631s-4.727 9.436-11.686 12.101c0 0-3.845 9.93-7.996 13.22-4.133 3.29-10.308 6.68-15.884 11.139-2.199 1.76-4.727 2.846-7.419 3.397.18.132.354.263.536.395 11.206-.296 27.972-1.654 45.52-6.367 30.905-8.309 60.26-36.492 60.26-36.492-7.344 24.004-10.622 31.934-29.784 45.491m29.397-95.754c-39.542-.239-82.37-22.466-120.365-30.94-80.088-17.85-118.898 23.923-118.914 23.94.007-.01 12.977-4.723 19.515-.478 7.107 4.615.84 16.519-1.449 18.896-6.57 6.836-16.017 11.887-26.449 11.887 0 0 11.043 2.649 14.616 5.931 0 0-10.243 1.341-15.826 3.274-5.575 1.942-16.494 5.092-18.915 5.092 0 0 28.763 13.138 10.91 41.198 0 0 12.484-1.909 22.884 3.076 0 0-56.984-9.188-76.26 53.644 7.263-5.98 30.08-22.063 65.605-22.235 42.886-.19 61.282 9.666 78.319 19.973 25.972 15.729 45.611 20.385 60.532 23.165 42.878 7.996 85.935-6.408 104.595-15.096 54.16-82.896 60.392-129.72 61.314-163.152-17.498 17.596-46.82 21.907-60.112 21.825" fill="#D50909"/><path d="M286.29 207.609l.462-1.357c.46-1.39-.569-2.017-.626-4.263-.083-1.16-.164-2.286.287-3.627.364-1.087-.244-2.29-1.38-2.79-.077-.03-.152-.062-.233-.09-.066-.024-.14-.04-.213-.057-1.212-.305-2.439.296-2.8 1.382-.455 1.349-1.22 2.188-1.977 3.06-1.408 1.76-2.611 1.638-3.072 3.028l-.46 1.357c-.265.782.015 1.605.592 2.206.28.287.61.534 1.021.674 1.285.427 2.644-.173 3.03-1.341a.387.387 0 0 1 .486-.23c.205.074.322.287.256.486-.396 1.159.32 2.459 1.596 2.886.412.133.824.133 1.212.083.831-.124 1.557-.617 1.819-1.407m5.724-13.723c.008 1.523.528 7.404 3.106 8.944h.007c.017.007.032.015.059.023 2.575 1.762 7.944 2.584 10.499 2.27.336-.04.97-.237.987-.237l.01.008c1.127-.633 2.14-1.11 3.062-2.073 1.227-1.276 2.198-2.848 2.898-4.46.306-.716.56-1.447.767-2.196 0 0 .544-2.493 1.597-2.862l.33-.05.074.008-.009-.024s-3.277-.823-7.007-.396c-.355.042-.71.091-1.071.148-4.159.757-8.038 1.391-10.696.495-.874-.29-1.632-.783-2.275-1.317-.008-.017-.024-.025-.032-.032a13.445 13.445 0 0 1-.494-.446v-.008a12.877 12.877 0 0 1-1.582-1.826c-.016-.025-.048-.066-.048-.066-.01.041-.19 2.583-.182 4.097m-30.041-18.362c.617.93-.453 3.242-.453 3.242a16.57 16.57 0 0 0-.667 2.065c-.619 2.394-.85 5.363.14 7.75.04.081.667 1.167.634 1.2-.058.05-.116.099-.182.14a1.51 1.51 0 0 0 .182-.132c.008 0 .387.534.634.782 1.845 1.785 6.628 4.36 9.75 4.517.024 0 .05.016.074.016 2.98.33 6.935-4.048 7.865-5.266.923-1.208 2.338-3.372 2.338-3.372s-1.087.361-2.454.526v.009a8.83 8.83 0 0 1-.666.049c-.018.01-.034.01-.042.01-.832.039-1.745-.027-2.61-.314-2.66-.889-5.37-3.735-8.235-6.846a17.705 17.705 0 0 0-.767-.765c-2.635-2.509-5.624-3.817-5.813-3.89.016.017.025.025.025.032l.016.009c.074.074.157.155.23.238" fill="#000"/><path d="M269.148 242.064c.007.003.02.005.032.008.01.005.02.01.03.01 1.607.54 3.132.941 4.74 1.123 1.609.18 3.305.138 5.258-.207 3.94-.7 8.453-4.744 10.149-5.942 1.701-1.198 8.126-5.44 9.582-6.465 1.457-1.028 2.675-1.886 4.169-4.409 1.5-2.532 4.031-8.413 4.031-8.413s-2.43-.479-3.234-.577l-.037.066c-.359.634-3.256 5.74-4.311 6.807l-.09.014c.633.363 2.47 1.514 2.782 2.868 0 0-3.087 2.838-6.887 4.51-3.805 1.673-9.56 5.298-11.827 6.809-.859.57-2.027 1.063-3.503 1.335-.92-1.64-4.122-3.666-8.226-5.043-4.288-1.44-8.228-1.718-9.834-.826-1.171-1.198-1.885-2.395-2.252-3.45-.893-2.57-3.3-8.933-5.32-12.556-2.024-3.627-2.773-7.75-2.773-7.75 1.29-1.077 4.193-.575 4.193-.575a5.97 5.97 0 0 1-.03-.802c.03-2.143.62-6.599.703-7.224l.012-.072c-.697-.407-2.932-1.49-2.932-1.49l-.016.071c-.17.694-1.53 6.33-1.843 9.067-.335 2.916.115 4.332.662 6.03.544 1.696 3.105 8.95 3.734 10.928.081.248.168.558.266.916.68 2.504 1.862 7.377 4.245 9.94 2.702 2.908 5.31 4.218 8.527 5.299m8.743-64.59c2.882 3.324 7.42 7.486 10.153 8.366 2.719.947 8.844.362 13.16-.55 4.34-.7 10.78.024 10.78-.067-2.66-3.29-11.718-2.351-16.824-2.114-4.422.346-5.749-.312-6.053-.428-.296-.082-1.754-.361-5.09-3.306-3.92-3.267-10.58-9.47-14.682-8.449 0 .106 5.534 3.397 8.556 6.548m-16.906 15.656c-.108-.149-1.45-2.074.263-3.077.066-.04.132-.083.198-.132.066-.041.123-.09.18-.14.034-.033-.592-1.119-.633-1.201-.99-2.386-.759-5.355-.14-7.75.18-.698.395-1.39.667-2.064 0 0 1.07-2.312.453-3.242a6.418 6.418 0 0 0-.23-.239l-.017-.008-.05-.033s-3.368 6.162-3.665 9.354c-.305 3.2-.519 6.187 2.974 8.531m11.1 1.975s.058.995-2.067 2.41c0 0 3.426 1.094 6.002-.32 2.588-1.416 6.004-7.873 10.354-6.467 4.315 1.505 3.145 8.712 4.348 11.395 1.16 2.607 4.388 3.8 4.585 3.866-.823-2.394-.18-3.159-.18-3.159h-.007c-2.579-1.539-3.098-7.42-3.106-8.943-.009-1.514.172-4.056.181-4.096-1.935.995-9.01-1.374-9.907-3.324 0 0-1.415 2.164-2.338 3.372-.93 1.218-4.885 5.595-7.865 5.266m42.921-1.801c-1.053.369-1.597 2.862-1.597 2.862a17.23 17.23 0 0 1-.767 2.197c-.7 1.611-1.67 3.183-2.899 4.46-.921.962-1.934 1.439-3.062 2.072.033.148.073.288.132.427.781 1.917-1.664 2.625-1.664 2.625 4.216.23 5.838-2.287 7.535-5.019 1.696-2.722 2.726-9.666 2.726-9.666l-.074-.009-.33.05" fill="#B1BAC0"/><path d="M256.883 198.855c1.656.724 3.294 1.498 4.867 2.386 2.355 1.333 4.892 2.904 5.872 5.578.008.024.008.05.024.074.264.675.288 1.513.108 2.204a.86.86 0 0 0-.1-.328c-.214-.42-.583-.724-.823-1.12 0-.007-.008-.015-.025-.033-.527-.6-1.095-1.15-1.762-1.604v.025l-.016-.033s-.51 1.785-1.31 3.101a23.908 23.908 0 0 0-1.45 2.749.109.109 0 0 1-.015.048c-.997 2.584.164 5.316.436 5.332.321.025 1.005-.287 2.298-3.915.032-.083.097-.256.14-.445.032-.173-.025-.486-.1-.74 0 0 .009-.018.017-.042.157-.593.915-.542 1.393-.485.163.017.327.041.485.082.288-.716.65-1.703.824-2.533.543-2.016.478-4.855-1.861-7.528-2.348-2.675-8.385-4.665-10.64-5.8-2.264-1.136-4.3-6.59-4.028-10.358 0 0-.214 2.098-.214 4.212 0 .847.026 1.703.116 2.419.05.362.116.69.19.971.65 2.237.724 3.653 5.574 5.783m33.509 21.415c.173.099.453.205.56.378.247.354.313.494.313.494-.24.041-.478.074-.717.115-.132-.008-.724.206-.724.386-1.153 3.686-.8 4.336-.527 4.509.23.148 2.8-1.324 3.565-3.99 0-.016.43-2.238.519-3.118.157-1.424.75-3.043.823-3.242l-.016.009c0-.009.016-.024.016-.024-2.61-.124-4.068.904-4.068.904s-.74 1.292-.947 3.019c0 .008 1.005.452 1.203.56m17.903-6.656c-2.495-.461-8.507-2.501-11.99-1.785-2.866.592-4.587 2.213-5.543 3.85.009-.008.016-.025.033-.025.016-.016.024-.016.033-.033 1.927-2.22 5.427-2.13 8.071-1.793 2.067.255 4.117.691 6.143 1.176 5.163 1.218 6.077.14 7.937-1.258 1.6-1.201 2.909-3.052 3.88-4.78a.52.52 0 0 0 .058-.09c-2.339 2.755-6.424 5.141-8.622 4.738m-21.106-10.645v-.017l-.01-.032c-.082-1.136-.164-1.992.19-3.061.56-1.674-.473-3.543-2.335-4.287 1.135.5 1.743 1.703 1.38 2.79-.452 1.34-.37 2.467-.288 3.628.057 2.245 1.087 2.871.625 4.262l-.462 1.357c-.261.79-.987 1.283-1.819 1.406 0 .017-.008.033-.015.05-.438 1.291-1.787 1.637-1.787 1.637v.009c2.008.665 4.117-.198 4.701-1.95l.437-1.3c.346-.955.074-1.884-.15-2.468-.221-.626-.427-1.112-.467-2.024m-10.912 1.283l.461-1.357c.46-1.39 1.664-1.267 3.072-3.028.757-.872 1.523-1.712 1.976-3.06.362-1.087 1.59-1.687 2.8-1.382-1.96-.551-3.91.328-4.48 1.99-.354 1.07-.946 1.712-1.713 2.558v.009l-.024.033c-.585.7-1.039.963-1.598 1.325-.545.329-1.31.912-1.614 1.884l-.438 1.3c-.584 1.744.57 3.702 2.57 4.376 0 0-.872-1.085-.436-2.386a.16.16 0 0 1 .017-.057c-.576-.6-.857-1.423-.593-2.205" fill="#B1BAC0"/><path d="M251.627 209.976s.75 4.123 2.772 7.75c2.02 3.623 4.428 9.986 5.32 12.555.367 1.056 1.082 2.253 2.253 3.451 1.607-.891 5.545-.613 9.835.826 4.103 1.377 7.304 3.403 8.225 5.043 1.477-.271 2.644-.765 3.503-1.335 2.267-1.51 8.022-5.136 11.827-6.808 3.8-1.673 6.887-4.51 6.887-4.51-.312-1.356-2.148-2.506-2.78-2.868-.379.069-1.882.369-2.635.923-.86.633-3.989 5.283-8.085 7.031.387-2.3-1.103-3.493-1.486-3.453-.38.045-.682.948-.761 1.176-.08.232-.87 1.787-1.14 2.517-.27.731-.188.789-.188.789a37.124 37.124 0 0 1-1.968-.106 59.337 59.337 0 0 0 1.715-3.527c.381-.977-.663-1.191-.663-1.191l-.006-.007a53.947 53.947 0 0 1-1.75-.297c-.023-.003-.038 0-.063-.001-.731-.13-1.175.328-1.269.607-.072.186-.14.368-.22.552-.267.645-.556 1.29-.835 1.934-.012.037-.022.079-.042.112-.33.815-.05 1.496-.05 1.496-.228-.016-.772.002-1.686-.178-.434-.087-1.012-.342-1.012-.342.322-.264.518-.765.518-.765l.007.003c.582-1.424 1.482-3.633 1.482-3.633s.356-.951-.265-1.135a54.79 54.79 0 0 1-2.505-.687c-.63-.134-.905.384-.974.552-.129.335-.354.85-.43 1.082-.321.91-.638 1.814-.954 2.716 0 .014 0 .023-.003.035-.196.582-.041 1.128-.041 1.128s-.808-.164-1.232-.275c-.428-.112-1.065-.558-1.065-.558.103-.107.227-.396.315-.602.386-1.35.75-3.04 1.075-4.451.024-.198.028-.784-.566-1.033a56.435 56.435 0 0 1-2.11-.816c-.618-.195-.888.313-.985.613-.28 1.278-.607 2.805-.82 3.913a2.162 2.162 0 0 0 .264 1.323c-.326-.08-.988-.365-1.519-.59-.347-.146-1.119-.653-1.119-.653.395-.035.621-.875.621-.875.44-.911.733-1.7 1.077-2.563.013-.041.032-.077.045-.119.01-.025.014-.045.03-.079.34-.914-.298-1.4-.404-1.478-.918-.458-1.954-.998-1.964-.998-.526-.281-.878.09-.99.45-.364 1.03-.934 1.965-1.132 3.098-.09.641-.038 1.091-.038 1.091-1.253-.596-1.713-1.537-1.713-1.537.299-.36.698-1.622.708-2.803.013-1.182.087-2.285-.467-2.677-.553-.392-1.476.601-1.951 1.304-.471.7-.58 1.108-.58 1.108v.092c-2.22-3.861-1.911-9.474-2.21-10.504-.307-1.024-1.61-2.39-1.61-2.39s-2.904-.503-4.193.574m33.173-14.494c.081.027.157.06.233.09a2.909 2.909 0 0 0-.233-.09" fill="#FFF"/><path d="M345.413 245.401l-.16.129s-21.107 12.552-53.172 14.846a44.883 44.883 0 0 1 2.694 4.506c9.977-.558 20.074-1.945 29.616-4.589 6.1-1.69 12.105-3.835 17.833-6.536 5.766-2.72 11.42-5.972 16.393-9.98 3.243-2.615 6.281-5.433 9.069-8.528 3.835-4.256 7.338-9.323 9.23-14.772 0 0 .153-.45.15-.449-.154.359-6.26 14.368-31.653 25.373" fill="#B1BAC0"/><path d="M286.539 253.556a50.24 50.24 0 0 1 3.525 4.046s3.41-.251 3.881-.29c5.882-.493 11.762-1.208 17.573-2.256 14.375-2.593 25.244-6.263 30.407-8.202a108 108 0 0 0 3.488-1.453c25.394-11.004 31.499-25.014 31.653-25.372-.03.06-1.049.9-2.686 2.225a155.2 155.2 0 0 1-2.341 1.891c-9.543 7.528-29.444 21.067-61.85 26.884-7.853 1.41-15.856 2.183-23.65 2.527" fill="#FFF"/><path d="M291.317 277.815c-6.56 4.13-21.199 7.952-35.298 3.228-13.838-4.643-23.033-16.46-25.978-23.654-.345-.747-.434-2.764 1.586-3.699 0 0-1.277.183-2.427 1.125 0 0-.1.15-.204.458-1.55 4.616 7.827 24.264 25.534 30.202 17.716 5.94 36.875-3.554 38.605-8.7.119-.374.143-.674.143-.674-.402-1.26-1.172-2.044-1.172-2.044.985 1.856-.025 3.218-.789 3.758" fill="#D50909"/><path d="M277.904 265.192c-.01.222-.02.445-.034.67-.582-.297-1.172-.59-1.772-.883a24.381 24.381 0 0 1-.995 3.961 66.552 66.552 0 0 0-2.704-1.482c.401-1.243.716-2.5.955-3.767-.976-.442-1.974-.877-2.99-1.3a43.719 43.719 0 0 1-.966 3.598 69.087 69.087 0 0 0-2.827-1.233c.37-1.163.707-2.325 1.013-3.483-.996-.383-2.009-.756-3.037-1.116-.35 1.123-.714 2.257-1.09 3.4a68.1 68.1 0 0 0-2.917-.979c.39-1.137.784-2.26 1.181-3.365a99.192 99.192 0 0 0-3.096-.932 71.263 71.263 0 0 0-1.294 3.379 70.265 70.265 0 0 0-2.995-.723 43.388 43.388 0 0 1 1.393-3.435c-1.07-.27-2.13-.521-3.178-.753a31.036 31.036 0 0 0-1.498 3.556 63.355 63.355 0 0 0-3.055-.45 24.35 24.35 0 0 1 1.579-3.719c-.659-.126-1.311-.244-1.957-.355.141-.213.284-.422.428-.63-6.013-1.072-11.474-1.517-15.887-1.555 3.656-.811 9.91-1.192 17.276-.316.057-.07.111-.143.168-.213.56.066 1.126.14 1.696.221a30.537 30.537 0 0 1 1.614-2.13c.952.122 1.884.262 2.793.415-.517.71-1.012 1.44-1.482 2.19 1.009.183 2.032.391 3.066.625.422-.772.86-1.528 1.314-2.264.869.187 1.725.387 2.564.603a81.025 81.025 0 0 0-1.133 2.335 74.64 74.64 0 0 1 2.905.841c.306-.816.614-1.62.921-2.41.817.253 1.628.524 2.432.814-.233.815-.473 1.641-.72 2.476.96.341 1.9.7 2.824 1.07.183-.85.352-1.696.503-2.533.806.335 1.606.688 2.413 1.065a50.914 50.914 0 0 1-.316 2.572c.964.43 1.905.873 2.82 1.328.074-.867.12-1.732.133-2.595.822.426 1.647.877 2.482 1.352.039.87.041 1.74.005 2.605.503.275.997.551 1.483.83l.01.408c6.219 3.642 10.846 7.563 13.205 10.37-3.458-2.548-7.953-5.376-13.233-8.063m-10.307-18.617c-16.318-5.47-34.024 2.612-37.917 7.523-.158.2-.307.41-.433.63-.013.023-.028.07-.047.087a5.465 5.465 0 0 1 2.427-1.125c-2.02.935-1.932 2.952-1.586 3.699 2.945 7.194 12.14 19.01 25.978 23.654 14.1 4.724 28.739.902 35.298-3.227.764-.54 1.774-1.903.79-3.76 0 0 .769.785 1.17 2.045.171-1.224-.095-2.956-.776-4.984-2.63-7.816-11.391-20.012-24.904-24.542" fill="#FF7900"/><path d="M232.16 253.596c4.414.039 9.875.483 15.888 1.555a33.59 33.59 0 0 1 1.389-1.872c-7.366-.876-13.62-.494-17.276.317m45.77 9.289c.018.764.008 1.534-.027 2.307 5.28 2.687 9.775 5.516 13.233 8.062-2.36-2.806-6.986-6.727-13.206-10.369" fill="#000"/><path d="M277.931 262.885c-.003-.136-.005-.272-.01-.408a78.282 78.282 0 0 0-1.482-.83 30.19 30.19 0 0 0-.005-2.604 71.903 71.903 0 0 0-2.482-1.353 38.34 38.34 0 0 1-.133 2.595 76.574 76.574 0 0 0-2.82-1.328c.127-.86.233-1.72.316-2.572a59.127 59.127 0 0 0-2.413-1.065 75.55 75.55 0 0 1-.503 2.534 74.499 74.499 0 0 0-2.825-1.071c.248-.835.488-1.661.721-2.476-.804-.29-1.615-.56-2.432-.814-.307.79-.615 1.594-.921 2.41a72.826 72.826 0 0 0-2.904-.84c.37-.793.747-1.574 1.133-2.337a68.39 68.39 0 0 0-2.565-.602 51.412 51.412 0 0 0-1.314 2.263 75.182 75.182 0 0 0-3.066-.625c.47-.75.965-1.48 1.483-2.189a71.653 71.653 0 0 0-2.794-.415 30.719 30.719 0 0 0-1.614 2.13 79.516 79.516 0 0 0-1.696-.222c-.057.07-.112.142-.168.213a33.48 33.48 0 0 0-1.389 1.872c-.144.208-.287.417-.427.629.645.112 1.297.23 1.956.356a24.341 24.341 0 0 0-1.578 3.719c1.02.126 2.04.274 3.054.45a30.93 30.93 0 0 1 1.498-3.556c1.048.231 2.108.483 3.178.754a43.388 43.388 0 0 0-1.393 3.434 67 67 0 0 1 2.996.723 72.103 72.103 0 0 1 1.293-3.38c1.026.292 2.059.602 3.096.932-.397 1.107-.792 2.23-1.18 3.366.98.304 1.949.63 2.916.978.376-1.141.739-2.276 1.09-3.399 1.028.36 2.041.733 3.037 1.117a73.275 73.275 0 0 1-1.013 3.482c.95.388 1.892.802 2.827 1.233.376-1.196.697-2.397.967-3.6 1.016.425 2.013.86 2.989 1.302a30.93 30.93 0 0 1-.956 3.767c.913.474 1.818.968 2.705 1.482.447-1.298.773-2.62.994-3.96.6.29 1.191.585 1.773.88.013-.222.024-.446.034-.668.035-.773.045-1.543.027-2.307m-71.496-63.801l.912 1.639c.596.967 1.342 2.26 2.302 3.83 4.608 7.37 10.733 15.298 18.937 23.55.026.023 10.225 10.073 14.57 13.9a50.947 50.947 0 0 1 5.278-1.136c-6.056-5.004-12.023-10.48-17.478-16.383-27.576-29.843-32.844-57.592-34.617-65.044 0 0-2.623 16.37 10.096 39.644" fill="#FFF"/><path d="M232.13 242.441c.294.26 2.692 2.646 2.93 2.533a48.135 48.135 0 0 1 4.867-1.975c-24.316-21.19-33.564-44.045-33.564-44.045l.072.13c-12.719-23.273-10.095-39.645-10.095-39.645l-.16.47c-1.066 3.134-1.467 6.556-1.64 9.846-.294 5.569.229 11.169 1.407 16.614 1.253 5.786 3.255 11.36 5.711 16.74 2.514 5.506 5.622 10.733 9.082 15.695 4.263 6.114 9.124 11.804 14.395 17.07a157.79 157.79 0 0 0 6.995 6.567" fill="#B1BAC0"/><path d="M207.348 200.723l-.913-1.64c.297.544.599 1.09.913 1.64m-3.562 50.855c-.214.439-.36.85-.354 1.159.013.473.236.899.45 1.215 0 0 7.538.402 12.276 1.7.189-.674.433-1.5.758-2.503.203-.64.477-1.177.783-1.66a.478.478 0 0 0-.045.045c-1.969-.34-9.756-.442-13.868.044" fill="#B1BAC0"/><path d="M203.786 251.578c4.112-.486 11.9-.384 13.868-.044l.045-.046c1.135-1.794 2.822-2.595 4.044-3a101.463 101.463 0 0 0-6.48-.778 74.821 74.821 0 0 0-3.067-.214 69.686 69.686 0 0 0-1.945-.065c-1.346.26-2.89.742-3.972 1.452-1.254.814-2.064 1.827-2.493 2.695" fill="#FFF"/><path d="M202.054 251.69c.047-.053.22-.378.251-.437.474-.894 1.403-1.745 2.272-2.253.01-.005.018-.013.027-.016 1.52-.914 3.911-1.467 5.421-1.55.044-.005-.532-.017-.822-.015-1.875.009-3.75.193-5.606.451-1.647.23-3.225.517-4.747.503a7.63 7.63 0 0 1-1.4-.122c-.007-.002-.019 0-.027-.003.008.003.02 0 .026.003a5.992 5.992 0 0 1-1.253-.376c.018.068.904 3.815 5.858 3.815" fill="#FFF"/><path d="M227.274 240.357c-.269.075-.456.293-.381.72.07.426.506 1.664-.129 3.566-.637 1.911-2.065 3.143-3.474 3.758-1.404.615-3.133 2.007-3.62 4.281-.478 2.275-1.711 5.27-1.37 7.246.13.753.877 1.794 2.597 1.72-1.174.972-2.284.9-3.187.49-1.423 2.625-3.565 3.705-7.464 2.95-3.99-.774-9.043-4.596-10.092-11.05.002-.137 1.925-.127 2.102-.127h.025c-.235-.307-.489-.752-.505-1.235-.006-.27.107-.615.279-.986-4.955 0-5.841-3.747-5.858-3.814 0 0-1.572 1.26-1.64 3.413a2.189 2.189 0 0 0-1.823-1.754 2.186 2.186 0 0 0-2.493 1.833 2.192 2.192 0 0 0 4.333.659c.004-.03.004-.058.008-.087.028.255.077.52.152.796.208.761.49 1.303.782 1.714.698.986 1.457 1.129 1.457 1.129.008.001.107-.14.116-.15.051-.06.495-.523.554-.486-.503-.324-2.639-1.942-1.339-5.476 0 0-.074 3.19 2.567 4.888.29 1.32 2.361 9.212 10.107 11.667 8.457 2.685 11.716-1.343 12.476-2.86.344-.694 1.208-2.847 1.208-2.847.734-2.098 2.594-10.263 3.291-11.215.695-.954 2.792-4.775 1.943-8.285 0 0-.172-.577-.622-.458" fill="#B1BAC0"/><path d="M303.043 275.742c.73 1.057 1.601 2.788 1.43 4.895 1.765.914 8.042 5.523 11.027 8.392.184-.95.148-2.249-.363-3.653-.435-1.218-1.37-2.53-2.29-3.55-.118-.09-.237-.178-.358-.266a67.63 67.63 0 0 0-2.877-1.94 102.455 102.455 0 0 0-4.15-2.522c-.667-.382-1.339-.755-2.01-1.131-.142-.08-.272-.148-.409-.225" fill="#FFF"/><path d="M316.421 286.46c.362.895.562 2.003.504 2.968a4.64 4.64 0 0 1-.103.728l.013.022a8.954 8.954 0 0 0 1.367.865c.463.238.948.423 1.455.546.361.088.766.143 1.139.143 1.086 0 2.095-.422 2.954-1.066a.3.3 0 0 0 .039-.028 5.857 5.857 0 0 1-1.195-.435 7.874 7.874 0 0 1-1.215-.758c-.522-.39-2.066-1.844-2.439-2.221a178.37 178.37 0 0 0-1.533-1.524c-.622-.611-1.975-1.861-2.605-2.339a383.509 383.509 0 0 1-1.796-1.432c.059.05 2.813 2.95 3.415 4.531" fill="#FFF"/><path d="M319.657 291.589a6.55 6.55 0 0 1-1.456-.546 9.132 9.132 0 0 1-.853-.499 11.19 11.19 0 0 1-.532-.38c-.088.396-.206.741-.375.952-.302.376-.777.577-1.145.683.008.003.016.011.023.017.552.443 1.12.832 1.593 1.365-4.732 4.511-11.067 4.518-14.721 2.73-3.57-1.75-4.622-3.907-4.17-6.869-.965-.213-1.896-.808-2.244-2.293.032.03.074.047.108.074.822.665 2.165.909 2.997.12.749-.713 1.331-1.882 1.856-3.139.479-1.151.893-2.333 1.423-3.464.214-.457.366-.958.448-1.457.238-1.406-.056-2.903-.749-4.143-.746-1.338-1.149-3.183-.5-5.092.647-1.896 1.738-2.623 2.05-2.919.318-.292.3-.583.13-.806-.288-.364-.768-.008-.768-.008-2.8 2.287-3.434 6.6-3.453 7.78-.018 1.183-3.468 8.81-4.148 10.922-.029.089-.618 1.9-.754 3.002-.21 1.685-.145 6.842 8.218 9.802 7.659 2.707 14.052-2.369 15.085-3.252 2.151.158 3.714-.961 4.474-1.71.347-.34.55-.604.55-.604-.827 2.712-2.551 3.38-3.606 3.53a3.5 3.5 0 0 1-.765.03c.022.07.032.124.048.185.122.455.096.728.096.728s.25.119.68.147c.607.036 1.58-.112 2.826-1.067.213-.167.373-.343.542-.516a2.146 2.146 0 0 0 .906 2.817 2.165 2.165 0 0 0 2.936-.873 2.158 2.158 0 0 0-.871-2.932 2.16 2.16 0 0 0-2.344.18c.636-1.046.71-2.122.674-2.796a6.875 6.875 0 0 0-.086-.641c-.009.007-.02.012-.03.019-.858.643-1.868 1.066-2.954 1.066-.373 0-.777-.056-1.14-.143" fill="#B1BAC0"/><path d="M304.082 282.368a72.202 72.202 0 0 1-.913 2.453c4.205 1.891 8.195 4.247 10.819 6.042.37-.123.801-.327 1.097-.698.19-.243.322-.657.415-1.135-2.985-2.87-9.262-7.478-11.027-8.393 0 0-.167 1.09-.391 1.731m-11.981-137.422c-23.444-3.99-27.964 13.581-28.047 17.85-.057 3.119.149 5.225.05 6.475-3.41 1.423-7.057 1.941-7.057 1.941.198-1.974.19-6.334 1.037-9.773.799-3.232 6.202-17.349 25.19-17.431 1.968 0 4.076.14 6.34.46.816.14 1.607.297 2.372.453l.115.025" fill="#B1BAC0"/><path d="M376.917 220.48c-1.894 5.446-5.393 10.513-9.23 14.766-2.792 3.102-5.83 5.915-9.067 8.531-4.974 4.006-10.63 7.264-16.395 9.979-5.731 2.706-11.734 4.845-17.836 6.539-9.544 2.64-19.64 4.032-29.611 4.59a46.34 46.34 0 0 0-2.693-4.507c32.057-2.295 53.171-14.849 53.171-14.849l.156-.131c-1.128.493-2.28.979-3.492 1.456-5.154 1.941-16.024 5.61-30.402 8.201-5.812 1.053-11.693 1.76-17.572 2.254-.47.042-3.879.297-3.879.297a49.519 49.519 0 0 0-3.532-4.048c7.798-.345 15.803-1.119 23.658-2.525 32.403-5.824 52.306-19.357 61.841-26.884.873-.69 1.647-1.316 2.347-1.892 1.639-1.324 2.652-2.163 2.685-2.23l-.009.025-.14.428zm-71.458 56.622a95.596 95.596 0 0 1 4.15 2.517 63.2 63.2 0 0 1 2.882 1.942c.114.09.239.172.353.263.923 1.02 1.861 2.336 2.29 3.554.51 1.398.552 2.698.362 3.652-.09.477-.222.889-.412 1.135-.296.37-.725.576-1.095.699-2.626-1.793-6.612-4.154-10.82-6.046.255-.65.56-1.457.914-2.452.222-.64.387-1.727.387-1.727.173-2.106-.7-3.841-1.425-4.894.132.073.264.14.404.222.676.378 1.342.748 2.01 1.135zm9.345 6.26c.626.477 1.985 1.728 2.602 2.337.511.509 1.03 1.011 1.533 1.521.378.379 1.917 1.834 2.445 2.222.395.295.79.559 1.21.765.379.18.775.329 1.194.436l-.008.008c.008 0 .082.518.082.633.041.675-.033 1.752-.666 2.797.65-.493 1.564-.6 2.338-.18a2.16 2.16 0 0 1 .873 2.936 2.169 2.169 0 0 1-2.94.872 2.146 2.146 0 0 1-.906-2.813c-.165.172-.329.345-.534.51-1.253.954-2.224 1.102-2.834 1.07-.428-.026-.675-.149-.675-.149s.024-.271-.099-.724c-.016-.066-.024-.115-.05-.19.149.016.429.016.766-.032 1.054-.148 2.784-.815 3.599-3.522-.041.059-.23.297-.544.602-.757.748-2.32 1.866-4.471 1.71-1.03.88-7.427 5.957-15.086 3.25-8.357-2.961-8.423-8.12-8.217-9.807.14-1.093.724-2.91.757-2.993.676-2.115 4.125-9.74 4.143-10.925.023-1.184.658-5.495 3.457-7.783 0 0 .478-.353.767.01.173.222.189.518-.133.806-.312.296-1.4 1.02-2.05 2.92-.642 1.908-.247 3.751.503 5.092.691 1.242.988 2.74.75 4.146a5.773 5.773 0 0 1-.445 1.455c-.536 1.128-.948 2.313-1.426 3.464-.526 1.26-1.11 2.427-1.86 3.135-.832.79-2.174.55-2.997-.116-.033-.033-.075-.049-.108-.074.355 1.48 1.285 2.082 2.248 2.287-.452 2.97.601 5.125 4.167 6.869 3.656 1.794 9.988 1.785 14.723-2.722-.469-.536-1.038-.93-1.59-1.366-.007-.008-.015-.017-.024-.017.362-.106.84-.312 1.145-.682.165-.215.288-.56.371-.955.008 0 .016.009.024.009-.008 0-.016-.017-.016-.017.049-.222.09-.46.107-.733.058-.961-.148-2.072-.511-2.96-.56-1.49-3.014-4.13-3.368-4.492.239.188 1.63 1.292 1.754 1.39zm-21.524-7.264s-.026.304-.15.675c-1.729 5.149-20.881 14.642-38.603 8.703-17.704-5.939-27.084-25.583-25.535-30.207a2.21 2.21 0 0 1 .205-.452c.025-.017.033-.066.05-.09a4.05 4.05 0 0 1 .436-.626c3.888-4.91 21.592-12.997 37.912-7.527 13.513 4.533 22.275 16.724 24.91 24.54.676 2.03.948 3.767.775 4.984zM225.954 249.1c-.7.954-2.561 9.114-3.294 11.212 0 0-.865 2.155-1.203 2.846-.766 1.521-4.018 5.553-12.475 2.862-7.75-2.45-9.824-10.348-10.112-11.664-2.644-1.694-2.57-4.886-2.57-4.886-1.283 3.512.824 5.133 1.334 5.47-.082 0-.494.428-.543.486a1.286 1.286 0 0 1-.115.156s-.766-.148-1.458-1.135c-.296-.412-.576-.946-.782-1.711a6.054 6.054 0 0 1-.157-.798c0 .033 0 .057-.007.09a2.19 2.19 0 0 1-4.332-.658 2.188 2.188 0 0 1 2.496-1.834 2.18 2.18 0 0 1 1.82 1.752c.064-2.155 1.637-3.414 1.637-3.414.412.173.833.296 1.252.378a8.72 8.72 0 0 0 1.408.124c1.516.008 3.097-.272 4.744-.502 1.86-.263 3.73-.444 5.608-.453.287-.008.864.009.823.017-1.516.082-3.904.633-5.427 1.546-.008 0-.017.009-.025.017-.873.51-1.795 1.357-2.273 2.254-.033.057-.206.378-.247.436-.172.37-.288.716-.279.987.017.477.271.93.502 1.234h-.025c-.173 0-2.1-.008-2.1.123 1.046 6.458 6.103 10.283 10.087 11.048 3.904.757 6.045-.32 7.47-2.945.905.412 2.01.485 3.186-.485-1.72.066-2.47-.97-2.594-1.728-.346-1.974.89-4.968 1.368-7.239.485-2.278 2.214-3.669 3.623-4.286 1.407-.617 2.832-1.842 3.466-3.76.642-1.9.206-3.142.133-3.561-.075-.428.114-.65.378-.724.452-.115.625.46.625.46.85 3.513-1.251 7.33-1.942 8.285zm-13.761-1.605c1.03.05 2.05.124 3.072.214 2.05.181 4.439.453 6.481.782-1.228.403-2.908 1.2-4.044 2.994a7.235 7.235 0 0 0-.79 1.662 56.76 56.76 0 0 0-.75 2.509c-4.742-1.3-12.278-1.703-12.278-1.703-.214-.32-.436-.74-.453-1.217-.007-.305.14-.716.355-1.16.429-.864 1.236-1.876 2.495-2.69 1.078-.716 2.626-1.193 3.97-1.456.65.016 1.3.033 1.942.065zm-1.45-28.693c-3.466-4.96-6.57-10.184-9.081-15.696-2.463-5.38-4.463-10.95-5.716-16.74-1.177-5.438-1.704-11.04-1.407-16.61.172-3.29.576-6.712 1.638-9.846l.164-.47c1.77 7.454 7.041 35.201 34.61 65.046 5.46 5.899 11.43 11.377 17.482 16.379a51.2 51.2 0 0 0-5.277 1.135c-4.349-3.825-14.543-13.87-14.568-13.894-8.21-8.251-14.328-16.181-18.94-23.552-.963-1.571-1.704-2.863-2.296-3.833-.321-.552-.618-1.095-.915-1.638l-.066-.115c.288.7 9.618 23.174 33.556 44.028a48.672 48.672 0 0 0-4.867 1.982c-.238.107-2.635-2.278-2.93-2.534a155.246 155.246 0 0 1-6.992-6.572c-5.27-5.265-10.137-10.958-14.394-17.07zm45.637 8.02c-.098-.353-.19-.666-.271-.912-.627-1.975-3.187-9.23-3.731-10.925-.485-1.489-.881-2.764-.749-5.01.016-.32.04-.658.082-1.02.313-2.74 1.671-8.374 1.844-9.074a.604.604 0 0 1 .017-.065s2.24 1.077 2.932 1.489c0 0 0 .024-.009.074-.082.625-.675 5.075-.708 7.222 0 .33.008.6.033.798 0 0 1.302 1.366 1.606 2.394.304 1.028-.009 6.639 2.215 10.505v-.09s.107-.412.576-1.11c.478-.708 1.4-1.695 1.952-1.309.551.395.477 1.497.47 2.682-.01 1.176-.413 2.443-.71 2.797 0 0 .463.946 1.714 1.538 0 0-.05-.444.04-1.086.198-1.135.767-2.073 1.129-3.101.115-.362.461-.732.989-.452.007 0 1.045.543 1.967 1.003.107.074.742.56.404 1.473-.017.04-.025.057-.033.082-.008.041-.033.074-.04.115-.347.864-.644 1.654-1.08 2.567 0 0-.222.839-.618.872 0 0 .767.51 1.12.658.527.222 1.187.51 1.515.584 0 0-.353-.543-.263-1.316.215-1.11.535-2.64.815-3.916.099-.296.37-.806.988-.617.692.288 1.4.56 2.108.823.601.246.594.83.568 1.028-.32 1.415-.69 3.101-1.07 4.45-.09.206-.213.502-.321.6 0 0 .642.453 1.071.56.42.115 1.226.28 1.226.28s-.155-.551.042-1.127c.008-.016.008-.025.008-.041.312-.897.625-1.802.947-2.715.083-.23.304-.748.436-1.078.066-.172.338-.69.972-.55.832.246 1.663.476 2.503.682.618.181.263 1.135.263 1.135s-.897 2.205-1.482 3.628c0 0-.197.502-.518.765 0 0 .577.255 1.004.346.922.18 1.467.164 1.688.18 0 0-.28-.682.05-1.496a.275.275 0 0 0 .04-.116c.28-.641.569-1.291.84-1.933.076-.18.15-.37.223-.551.091-.28.535-.74 1.269-.609h.058c.584.115 1.169.206 1.754.296l.007.009s1.038.213.659 1.192a62.216 62.216 0 0 1-1.713 3.53c.65.049 1.31.082 1.969.106 0 0-.083-.057.188-.79.265-.731 1.055-2.286 1.137-2.517.083-.23.379-1.135.757-1.176.388-.041 1.878 1.152 1.492 3.455 4.091-1.752 7.22-6.4 8.085-7.033.75-.56 2.256-.856 2.635-.922.05-.016.083-.016.083-.016 1.054-1.07 3.953-6.178 4.314-6.812.025-.04.033-.065.033-.065.808.098 3.237.575 3.237.575s-2.528 5.882-4.027 8.416c-1.498 2.526-2.717 3.381-4.174 4.41-1.45 1.028-7.881 5.264-9.578 6.465-1.696 1.201-6.209 5.24-10.152 5.94-1.952.345-3.649.386-5.255.205-1.614-.18-3.137-.576-4.743-1.118-.008 0-.015-.009-.033-.009-.008-.008-.024-.008-.024-.008-3.22-1.086-5.83-2.394-8.53-5.298-2.381-2.566-3.567-7.436-4.242-9.945zm-5.262-34.723c-.09-.715-.115-1.57-.115-2.418 0-2.114.214-4.212.214-4.212s2.84-1.826 4.29-4.5c1.466-2.665 2.668-7.938 2.668-7.938 5.476-.617 10.598-6.442 10.911-6.803-1.359 1.307-3.138 2.286-4.982 3.043-3.41 1.423-7.057 1.942-7.057 1.942.198-1.975.19-6.335 1.037-9.773.799-3.233 6.202-17.35 25.19-17.432 1.968 0 4.076.14 6.34.46.816.14 1.607.297 2.372.453l.115.025c4.323.897 7.79 1.941 8.697 2.23.09.032.173.057.263.09.444.14 1.054.337 1.787.609.206.082.428.164.666.255.305.115.626.238.964.378.445.173.915.37 1.408.592.486.222.996.453 1.524.708l.955.403c24.548 11.796 19.137 30.429 17.729 33.991-1.277 3.2-3.813 6.359-4.924 8.16-1.3-1.423-3.055-3.545-4.373-5.922-.865-1.547-1.532-3.192-1.787-4.837 0 0 .477 8.11 4.595 12.01 0 0-2.215 4.944-2.676 7.947-.453 3.01.717 6.178.717 6.178s-.298.477-.725 1.135c-.017.033-.041.057-.058.09-.971 1.728-2.28 3.579-3.886 4.78-1.861 1.398-2.768 2.476-7.94 1.258-2.025-.485-4.074-.92-6.142-1.176-2.643-.337-6.143-.428-8.07 1.793-.008.017-.016.017-.033.033a4.09 4.09 0 0 0-.659 1.037s1.458-1.028 4.069-.905c0 0-.017.016-.017.025l.017-.009c-.075.198-.668 1.818-.824 3.242-.09.88-.52 3.1-.52 3.126-.765 2.665-3.334 4.13-3.564 3.981-.272-.173-.627-.823.526-4.508 0-.18.593-.395.725-.387.239-.04.478-.074.716-.115 0 0-.066-.14-.312-.485-.107-.181-.388-.288-.56-.387-.197-.107-1.203-.55-1.203-.56-.51-.221-.946-.394-.946-.394.008.09.008.214-.017.346a6.469 6.469 0 0 1-.164.723.58.58 0 0 1-.033.181c-.058.23-.124.461-.182.691-.23.84-.436 1.522-.7 2.345a.193.193 0 0 0-.033.058c-.263.781-1.054.526-1.054.526-.008 0-.09-.033-.09-.033-.576-.288-1.21-.592-1.87-.905 0 0-.74-.386-.625-1.151-.008-.017 0-.033.008-.058.008-.033 0-.058.017-.082.024-.066.041-.148.065-.206.206-.74.642-2.328.7-2.698.074-.436.362-1.234.544-1.547-.124-.123-.437-.46-.709-.592-.23-.115-.477-.165-.815-.14-.123.107-.328.428-.338.6-.008.1-.27.922-.56 1.827-.295.913-.633 1.917-.782 2.37-.164.493-.519.6-.806.6-.24 0-.429-.074-.429-.074-.576-.23-1.358-.51-1.975-.74-.042-.01-.075-.034-.117-.042-.74-.28-.691-.913-.641-1.168.32-.954.732-2.164 1.045-3.11.066-.222.148-.444.214-.674 0-.008.01-.017.017-.033.025-.099.305-.806.732-1.02-.28-.214-.839-.436-1.259-.584-.503-.165-1.4-.321-1.45-.33.15.322.182.88.107 1.16-.107.37-1.095 3.818-1.136 3.95-.049.13-.222.542-.494.64-.264.1-1.004-.139-1.004-.139-.05-.008-.083-.016-.124-.025-.625-.189-1.515-.329-2.108-.493 0 0-.972-.28-.667-1.168 0 0 .635-2.32.947-3.422 0-.025.008-.066.016-.1a5.65 5.65 0 0 0 .214-1.241c.05-.7-.42-.864-.766-.864-.328 0-.691.592-.773.938-.091.37-.297.987-.297.987l-.025.057v.009a1.485 1.485 0 0 0-.066.156 79.81 79.81 0 0 0-.906 2.534c-.32.847-1.268.674-1.268.674a79.781 79.781 0 0 0-2.025-.403.3.3 0 0 1-.09-.033s-.791-.271-.528-1.053c0-.024 0-.05.017-.074.28-.814.518-1.472.848-2.287.091-.214.42-.995.61-1.3.198-.304.46-.468.46-.468.01-.181-.262-.519-.757-.691a3.14 3.14 0 0 0-.198-.05 3.153 3.153 0 0 0-.486-.082c-.477-.058-1.235-.107-1.39.485l-.018.041c.074.255.132.568.099.74-.041.19-.107.363-.14.445-1.293 3.628-1.976 3.94-2.298 3.916-.271-.017-1.432-2.748-.435-5.33.007-.017.016-.034.016-.05.51-1.152.996-1.991 1.449-2.748.798-1.316 1.309-3.101 1.309-3.101l.017.033v-.025c.666.453 1.236 1.004 1.762 1.604.017.017.025.025.025.033.239.395.61.7.824 1.119a.874.874 0 0 1 .098.329c.18-.691.156-1.53-.107-2.205-.017-.024-.017-.05-.024-.074-.981-2.673-3.517-4.245-5.872-5.577-1.573-.889-3.212-1.662-4.867-2.386-4.85-2.13-4.923-3.545-5.575-5.783a8.299 8.299 0 0 1-.19-.97zm75.19 49.992c-17.548 4.713-34.314 6.07-45.52 6.367-.182-.132-.355-.263-.536-.395 2.692-.551 5.22-1.637 7.42-3.397 5.575-4.46 11.75-7.848 15.884-11.139 4.15-3.29 7.995-13.22 7.995-13.22 6.959-2.665 11.686-12.1 11.686-12.1s-1.096-2.09-1.195-4.632c-.107-2.55 3.863-6.852 7.989-14.487 4.124-7.625 5.03-18.073-1.787-29.548-6.786-11.419-25.504-17.3-25.668-17.35-.164-.057-18.643-6.638-30.945-1.62-12.37 5.042-17.952 13.91-19.27 22.482-1.317 8.572-.757 14.396-2.371 16.37-1.622 1.967-3.755 2.978-3.755 2.978s-1.919 10.374 2.018 16.675c0 0-2.932 10.242-1.614 15.367 1.317 5.117 4.19 11.542 5.945 18.452.708 2.797 2.133 5.24 4.002 7.321-.198 0-.404-.008-.602-.008-8.77-6.992-21.376-18.221-32.584-32.626-19.64-25.238-26.037-65.407-26.037-65.407-8.63 23.576-10.803 31.869-3.698 54.228 7.107 22.359 28.541 43.747 28.541 43.747-.519 1.243.24 3.53.24 3.53s-3.13-.955-12.567-.971c-9.436-.025-7.642.987-10.532.83-2.89-.156-3.713-1.349-3.713-1.349-1.457.724-2.824 2.403-2.824 2.403-1.375.148-8.136.92-7.42 7.551.725 6.63 7.658 6.22 7.658 6.22 1.251 1.43 3.072 2.04 3.072 2.04s4.092 10.8 15.892 11.31c10.253.445 13.562-5.8 14.254-7.445.263.626.56 1.267.873 1.917 2.083 4.253 5.279 8.976 9.602 13.253 4.314 4.269 9.782 8.12 16.387 10.34 10.053 3.34 20.174 2.312 28.104-.172 2.94-.921 5.806-2.114 8.474-3.644-.462 2.228-.94 8.687 6.966 14.133 9.717 6.704 19.499.55 19.499.55s1.82.618 3.689.223c0 0 5.287 4.508 9.865-.346 4.57-4.854-.345-9.542-1.35-10.488 0 0-.091-2.164-.815-3.62 0 0-1.368.453-3.772-1.16-2.404-1.621-.362-1.341-7.896-7.009-7.544-5.667-10.615-6.803-10.615-6.803s1.984-1.365 2.322-2.665c0 0 30.016-4.138 49.186-17.687 19.16-13.557 22.439-21.487 29.784-45.491 0 0-29.357 28.183-60.261 36.492z" fill="#000"/><path d="M326.094 184.202c-1.277 3.2-3.813 6.359-4.924 8.16-1.301-1.423-3.055-3.545-4.373-5.922.725-1.095 2.133-2.584 3.697-4.755 1.112-1.555 3.138-5.767 3.138-10.917 0-5.857-2.619-12.94-12.163-18.74-.033-.024-.066-.049-.107-.065a5.238 5.238 0 0 0-.362-.214 43.744 43.744 0 0 0-3.59-1.941l.955.403c24.547 11.796 19.137 30.429 17.729 33.991" fill="#B1BAC0"/><path d="M315.406 193.234l.008.025s-1.03 6.943-2.734 9.666c-1.696 2.731-3.31 5.248-7.534 5.018 0 0 2.445-.707 1.663-2.624a2.573 2.573 0 0 1-.133-.428l-.007-.008c-.017 0-.65.197-.988.238-2.553.313-7.923-.51-10.5-2.27-.025-.008-.04-.016-.058-.025 0 0-.641.765.182 3.16-.197-.067-3.425-1.26-4.586-3.867-1.203-2.682-.033-9.888-4.35-11.394-4.346-1.406-7.764 5.051-10.35 6.466-2.577 1.415-6.002.321-6.002.321 2.124-1.415 2.067-2.41 2.067-2.41-.026 0-.05-.017-.074-.017-3.121-.156-7.906-2.73-9.75-4.516-.247-.247-.626-.781-.634-.781-.058.049-.115.09-.181.131-.066.05-.132.09-.198.132-1.714 1.003-.37 2.928-.263 3.076-3.492-2.344-3.278-5.33-2.973-8.53.296-3.192 3.664-9.354 3.664-9.354l.05.033c0-.008-.009-.016-.025-.033.19.074 3.178 1.382 5.814 3.891.262.247.518.502.765.766 2.866 3.11 5.575 5.955 8.235 6.844.864.288 1.779.354 2.61.312.008 0 .025 0 .04-.008.232-.008.454-.024.668-.05v-.007a13.891 13.891 0 0 0 2.454-.527c.897 1.95 7.971 4.319 9.907 3.324a12.986 12.986 0 0 0 1.63 1.892v.008c.156.148.321.296.494.444.007.008.025.017.033.033.642.535 1.4 1.028 2.273 1.316 2.66.897 6.538.263 10.696-.493.362-.058.717-.107 1.07-.148 3.74-.428 7.017.394 7.017.394m-27.602 14.224l-.438 1.3c-.584 1.752-2.692 2.615-4.702 1.95v-.01s1.352-.345 1.787-1.636a.108.108 0 0 0 .018-.05c-.388.05-.8.05-1.211-.082-1.277-.428-1.993-1.727-1.597-2.887.065-.198-.05-.412-.256-.486a.387.387 0 0 0-.486.23c-.387 1.169-1.745 1.77-3.03 1.342-.412-.14-.741-.387-1.022-.675a.167.167 0 0 0-.015.058c-.438 1.3.436 2.385.436 2.385-2.002-.674-3.154-2.632-2.57-4.376l.436-1.3c.305-.97 1.072-1.555 1.614-1.884.561-.362 1.014-.625 1.599-1.324l.024-.033v-.008c.766-.848 1.358-1.49 1.713-2.559.568-1.661 2.52-2.542 4.479-1.99.074.016.149.033.214.057.083.033.157.058.239.09 1.862.75 2.891 2.617 2.33 4.287-.353 1.069-.271 1.925-.188 3.06l.008.033v.016c.04.913.246 1.399.47 2.024.22.584.493 1.513.148 2.468m-3.788-28.085c3.335 2.945 4.791 3.225 5.089 3.307.304.115 1.63.773 6.051.428 5.106-.239 14.164-1.177 16.832 2.114 0 .09-6.447-.633-10.787.066-4.315.913-10.442 1.497-13.159.55-2.734-.88-7.27-5.042-10.153-8.365-3.022-3.15-8.556-6.441-8.556-6.548 4.1-1.02 10.762 5.182 14.683 8.448m36.479 2.312c1.11-1.555 3.136-5.767 3.136-10.917 0-5.857-2.617-12.94-12.161-18.74-.033-.024-.066-.049-.107-.065a5.257 5.257 0 0 0-.364-.214 43.61 43.61 0 0 0-3.589-1.941c-.528-.255-1.038-.486-1.523-.708a69.551 69.551 0 0 0-1.408-.592c-.339-.14-.66-.263-.964-.379-.231-.09-.453-.172-.667-.255a37.236 37.236 0 0 0-1.788-.608c-.09-.033-.173-.058-.262-.09-.907-.289-4.374-1.334-8.697-2.23-23.443-3.99-27.964 13.581-28.046 17.851-.058 3.118.147 5.224.049 6.474 1.845-.757 3.624-1.736 4.982-3.044-.313.362-5.435 6.187-10.91 6.804 0 0-1.203 5.273-2.668 7.938-1.45 2.673-4.29 4.5-4.29 4.5-.272 3.767 1.762 9.221 4.026 10.357 2.256 1.135 8.292 3.126 10.638 5.8 2.339 2.673 2.405 5.51 1.861 7.526-.173.831-.534 1.818-.823 2.534.075.017.14.033.197.05.495.172.767.51.758.69 0 0-.263.165-.46.47-.19.304-.52 1.085-.61 1.3a43.16 43.16 0 0 0-.849 2.286c-.015.025-.015.05-.015.074-.265.782.526 1.053.526 1.053 0 .008.083.033.091.033a81.25 81.25 0 0 1 2.026.403s.947.173 1.268-.675c.305-.896.568-1.637.905-2.533.017-.05.041-.107.066-.157v-.008l.026-.057s.205-.617.296-.988c.082-.345.445-.937.774-.937.345 0 .815.164.765.863-.049.7-.189 1.16-.214 1.243a.55.55 0 0 0-.016.098c-.313 1.103-.947 3.422-.947 3.422-.305.889.667 1.169.667 1.169.593.164 1.483.304 2.108.493.04.008.074.017.124.025 0 0 .74.238 1.004.14.272-.099.445-.51.494-.642.04-.132 1.03-3.578 1.136-3.949.075-.28.042-.839-.107-1.16.05.009.948.165 1.45.33.42.148.98.37 1.26.584-.428.214-.708.921-.733 1.02-.008.016-.017.024-.017.033-.066.23-.148.452-.214.674-.312.946-.724 2.155-1.045 3.11-.05.255-.099.888.641 1.168.042.008.075.033.116.041.618.23 1.4.51 1.976.74 0 0 .19.074.429.074.287 0 .642-.107.806-.6.15-.453.487-1.456.782-2.37.29-.904.552-1.727.56-1.826.01-.172.215-.493.338-.6.338-.025.585.025.816.14.272.131.585.469.708.592-.182.313-.47 1.11-.543 1.547-.059.37-.495 1.958-.701 2.698-.024.057-.041.14-.065.206-.017.024-.01.049-.017.082-.008.024-.016.04-.008.057-.116.765.626 1.152.626 1.152.658.313 1.293.617 1.87.905 0 0 .082.033.089.033 0 0 .79.255 1.055-.527a.163.163 0 0 1 .033-.057c.263-.823.47-1.506.699-2.345.058-.23.124-.46.182-.69a.556.556 0 0 0 .033-.182c.016-.057.13-.469.164-.724a1.28 1.28 0 0 0 .017-.345s.436.173.946.395a8.78 8.78 0 0 1 .948-3.02c.165-.394.403-.731.658-1.036-.008 0-.016.008-.016.008.946-1.628 2.667-3.24 5.526-3.833 3.482-.716 9.493 1.324 11.988 1.785 2.199.403 6.292-1.983 8.63-4.738a79.6 79.6 0 0 0 .726-1.136s-1.17-3.167-.717-6.178c.46-3.002 2.676-7.946 2.676-7.946-4.117-3.9-4.594-12.01-4.594-12.01.254 1.645.922 3.29 1.786 4.836.724-1.094 2.132-2.583 3.698-4.754" fill="#FFF"/></g></svg>