<svg width="512" height="512" viewBox="0 0 512 512" xmlns="http://www.w3.org/2000/svg"><title>tennessee-titans</title><g fill="none"><path d="M175.383 282.643c.447 5.36 2.352 16.022 8.517 27.921 7.619 14.694 23.58 34.286 56.497 45.383a133.307 133.307 0 0 0 18.331 22.801c25.023 24.951 58.264 38.667 93.598 38.612 35.339-.05 68.538-13.859 93.486-38.888 24.95-25.02 38.669-58.264 38.613-93.606-.055-35.342-13.862-68.543-38.88-93.494-19.825-19.772-44.696-32.492-72.057-36.906-37.04-33.543-80.283-21.524-82.142-20.984-.618.175-1.545.442-2.697.793-13.31 4.427-20.19-.65-24.65-4.142-4.939-3.874-10.33-7.808-15.531-10.732-17.668-9.939-42.778-10.294-63.927-1.766-13.931 4.745-20.955-1.393-25.11-4.262-27.591-19.038-61.514-23.581-97.503-15.658C37.694 103.056 28 107.986 28 107.986s16.602 2.408 33.946 9.658c14.24 5.95 25.562 13.587 34.135 27.303 0 0 5.396 7.923 1.891 10.262-3.924 2.615-8.01-3.787-8.01-3.787-.134 4.608-.134 9.192.17 12.674 1.993 36.587 9.454 58.563 27.098 75.356 8.029 7.637 21.573 15.067 42.5 23.29 9.547 3.82 14.712 8.713 15.653 19.901" fill="#FFF"/><path d="M439.58 197.348c-19.194-19.14-43.557-31.214-69.93-34.922-34.38-32.897-75.95-20.842-75.95-20.842 8.809 1.31 14.66 6.563 12.401 12.384-1.494 3.846-7.895 4.049-10.819 4.081-9.283.102-17.302-5.599-23.703-10.801-6.66-5.415-17.52-15.021-27.246-20.491-18.114-10.188-46.877-8.92-67.698 4.372 12.446.844 27.425 4.428 36.362 11.825 4.985 4.133 11.345 12.439 6.143 16.317-4.57 3.413-15.804 1.652-21.509-1.655-9.08-5.253-17.252-13.214-22.154-18.988-32.945-38.824-79.629-40.991-118.122-31.481 25.263 7.093 42.123 21.487 52.536 46.3 10.417 24.812 18.51 35.374 35.67 42.098 10.746 4.206 13.651 4.986 12.807 9.75-1.236 6.973-13.96 3.625-23.671-.166-11.825-4.617-27.407-17.37-36.69-41.287 1.687 30.947 7.595 52.89 25.036 69.494 7.406 7.047 21.02 14.339 42.316 22.534 13.595 5.235 24.359 8.403 34.481 17.48 11.815 10.575 6.784 17.562-1.051 16.238-8.864-1.494-15.19-10.547-15.19-10.547s.013 50.418 62.325 69.83a124.483 124.483 0 0 0 18.765 23.9c23.427 23.364 54.546 36.2 87.625 36.149 33.08-.051 64.162-12.974 87.529-36.408 23.353-23.429 36.196-54.55 36.146-87.632-.047-33.087-12.982-64.172-36.41-87.532" fill="#024"/><path d="M432.996 203.622c-18.59-18.586-42.45-29.983-68.201-32.8-22.16-22.088-44.267-21.054-44.267-21.054 9.703 6.087 4.699 19.628-16.879 22.612-21.38 2.952-48.528-4.294-61.75-19.698-13.627-15.874-23.915-16.598-23.915-16.598 11.82 7.384 12.663 16.248 19.834 29.752 7.176 13.504 21.947 18.356 34.813 19.2 13.554.89 13.886 7.024 2.957 13.508-11.922 7.066-22.473.388-30.142-7.167-12.105-11.945-24.17-14.233-40.836-14.02-16.666.212-38.696 2.402-57.295-4.557-18.598-6.964-30.86-31.44-30.86-31.44 9.195 32.496 29.634 47.9 48.597 51.617 25.055 4.917 42.376 10.88 52.973 19.463 10.349 8.394 15.86 16.765 19.747 28.318 3.002 8.906 3.537 20.73.577 21.437-3.45.825-4.165-3.935-8.237-12.236-4.496-9.169-9.864-16.364-20.692-22.138-14.674-7.826-29.035-7.374-43.677-7.171-11.598.16-18.4-1.167-18.4-1.167s.489 1.563 19.383 5.806c21.061 4.728 41.43 16.599 54.984 45.535 11.534 24.614 5.516 41.941-20.037 34.1 0 0 11.934 26.534 50.916 35.984a114.972 114.972 0 0 0 18.673 24.457c21.6 21.603 50.317 33.497 80.865 33.497 30.547 0 59.259-11.894 80.869-33.497 21.6-21.602 33.49-50.326 33.49-80.876 0-30.545-11.89-59.264-33.49-80.867" fill="#4B92DB"/><path d="M352.128 175.711c29.049 0 56.368 11.314 76.913 31.86 20.545 20.547 31.857 47.864 31.857 76.92 0 59.983-48.791 108.787-108.77 108.787-29.053 0-56.372-11.317-76.917-31.864-20.545-20.546-31.857-47.863-31.857-76.924 0-29.055 11.312-56.372 31.857-76.919 20.545-20.546 47.864-31.86 76.917-31.86" fill="#FFF"/><path d="M352.268 383.892c-54.883.083-99.45-44.354-99.533-99.25-.083-54.893 44.355-99.459 99.242-99.542 54.888-.078 99.454 44.363 99.537 99.255.083 54.892-44.35 99.458-99.246 99.537" fill="#024"/><path fill="#FFF" d="M327.823 264.385h-29.455l-9.702 17.309-13.056-37.016h152.755l-13.032 37.016-9.63-17.31h-28.956l-24.524 107.3z"/><path fill="#A5ACAF" d="M428.366 244.675H275.611l2.472 7.015h72.845l-23.104 12.692 24.4 107.285V251.69h73.675z"/><path d="M277.135 158.824c-22.154-.632-31.184-9.418-44.94-20.468-16.837-13.527-35.514-9.759-35.514-9.759 11.183-6.401 33.176-6.664 49.017 7.227 14.153 12.41 21.098 19.144 31.437 23m-189.08-48.795s20.724-.499 38.843 32.007c15.228 27.326 44.272 32.796 65.531 26.777 0 0-28.001-.728-43.321-27.88-15.652-27.75-36.363-35.47-61.053-30.904M205.39 267.434s-2.933-30.209-45.988-38.972c-43.34-8.818-48.924-31.375-48.924-31.375s.29 32.528 37.585 42.527c26.046 6.978 45.156 10.99 57.327 27.82m161.665-32.316l-5.857-17.424 14.818-10.732h-18.378l-5.778-17.425-5.51 17.425-18.378.216 14.974 10.659-5.585 17.511 14.766-10.948zm-65.578 61.605l-12.165 13.78-16.828-7.383 9.343 15.828-12.22 13.73 17.938-3.999 9.279 15.866 1.739-18.3 17.962-3.916-16.87-7.31zm86.133 26.001l18.021 3.643 2.02 18.269 9.034-16.009 17.995 3.722-12.428-13.54 9.094-15.967-16.708 7.642-12.373-13.597 2.098 18.264z" fill="#C60C30"/></g></svg>