<svg width="512" height="512" viewBox="0 0 512 512" xmlns="http://www.w3.org/2000/svg"><title>washington-redskins</title><g fill="none"><path d="M184.955 360.85c-1.3.436-3.992-.285-3.992-.285.895 7.093 1.879 9.527 1.879 9.527l-1.558 1.91 1.878 1.448c-2.025 14.042 3.937 23.713 6.683 33.128-2.168.722-4.655.606-6.51-.409.725 7.965.062 23.312-6.378 29.973-1.234-.795-2.114-1.015-2.592-1.737-.968 2.246-1.693 3.11-3.644 8.833-1.088 3.836-2.029 9.192-2.538 14.98-5.294-2.72-11.067-5.572-16.273-14.359-1.157-2.068-1.967-3.75-4.802-6.517-.651 1.304-.77 1.698-2.074 2.925-1.373 1.3-4.963 2.894-4.99 2.751-.722-3.535-1.593-6.807-3.691-10.786-2.005-4.414-8.897-10.28-14.539-24.616-2.317-5.502-3.47-10.395-4.427-16.068-.435.216-.725.363-1.014.432-2.098.579-3.606.436-4.327-1.154-1.777 4.793-3.976 7.452-5.861 8.756-.864 2.752-.722 3.477-2.603 5.723-1.736 2.6-2.314 3.253-3.517 8.177-1.956 4.997-4.875 7.455-5.31 8.76-.722-1.594-1.011-1.305-1.736-2.462-7.092 9.412-7.956 11.874-24.017 15.204 4.049-7.969 6.798-21.286 6.51-24.037-2.026-18.674-3.907-22.586-4.93-37.065-.6-7.24-2.305-25.044-.713-48.796 1.736-28.664 9.838-53.423 16.783-72.1 8.974-26.063 29.517-68.052 44.51-93.706l.054-23.284h5.789l6.077-13.896 2.746 2.026 10.424-27.8 7.377 20.997 12.61-7.973c5.045-4.627 40.924-56.46 116.914-56.348 73.622-.112 149.442 57.513 149.442 149.599 0 83.688-68.293 148.259-147.128 148.266-61.085-.007-100.44-31.133-121.306-59.658 1.334 14.336-1.446 42.857 10.794 69.641" fill="#FFF"/><path d="M292.364 59.845c-58.406 0-108.534 35.46-130.067 86.04l-20.965.026v4.626h19.107a141.117 141.117 0 0 0-9.4 50.726c0 78.1 63.278 141.417 141.325 141.417 78.053 0 141.328-63.316 141.328-141.417 0-78.102-63.275-141.418-141.328-141.418" fill="#FFB612"/><path fill="#FFF" d="M152.379 153.985l5.586 3.612 1.24-3.612zm139.985 168.959c67.16 0 121.603-54.483 121.603-121.683 0-67.201-54.443-121.684-121.603-121.684-67.157 0-121.6 54.483-121.6 121.684 0 67.2 54.443 121.683 121.6 121.683"/><path d="M215.817 189.738s-9.942 24.076-9.511 43.106c0 0 3.098-7.139 4.177-5.913 0 0-8.931 29.985-2.158 47.14 0 0 1.44-4.756 3.89-7.642 0 0 3.744-5.91 5.183-10.666 0 0 .722 2.017 1.156 5.625 0 0 3.31-4.18 4.032-7.066.564-2.259 2.016-4.756 3.026-7.642l1.155.58s6.766-8.222 9.362-15.714c0 0 2.02-.289 1.01 5.62 0 0 5.617-5.478 5.763-13.985l1.152 1.299c4.753 5.913 4.753 14.992 4.611 20.613-1.155 18.024-10.375 27.68-21.898 38.208l1.006.86c17.145-3.17 28.441-5.018 45.812 0 6.62 1.914 22.62 9.23 30.4 14.132 0 0 17.29 7.496 29.388 7.496 0 0 .576.285.576-.365 0 0-1.294-4.468-.142-21.263 0 0 1.294-7.78 2.304-13.117 0 0 1.298-3.6 1.44-10.954.011-.596-.576-5.05 2.45-4.619 6.565.945 10.229-.572 15.27-1.44 0 0 5.33-1.584 7.495-1.73 0 0 5.065.811 6.624.289 1.728-.577 3.601-2.018 5.905-4.177 0 0 2.596-2.74.868-8.94 0 0-1.728-5.622-.722-7.355 0 0 1.513-3.82 3.748-6.051 0 0 1.582-2.598-.576-3.893 0 0-1.156-1.294.79-1.802 0 0 1.44.146 2.378-.36 0 0 .506-.216.575-1.296.077-1.164.576-6.777-3.167-11.68 0 0 1.079.288 1.87.576 0 0 4.611.434 6.988-.718 2.085-1.153 5.118-2.598 4.68-9.517-1.151-5.768-3.455-9.226-5.763-15.715-2.738-6.916-3.168-10.378-8.931-15.135-3.456-1.587-5.042-4.176-2.45-6.778 2.02-3.023 1.298-8.502-2.304-12.249-3.46-3.462-6.047-8.795-7.345-11.534-1.728-2.886-3.605-6.055-5.333-7.93-1.728-2.164-4.32-3.458-8.932-8.938 0 0-2.737-2.447-3.167-5.044-3.89-6.056-14.695-14.562-27.086-15.427-3.601-.43-3.601-.43-6.193-.718-4.324-1.587-17.866-2.022-27.085.576-2.988.642-8.932 1.729-8.932 1.729-3.171 1.007-7.637 1.875-12.536 4.903-3.598 1.87-8.931 6.343-12.967 9.225-4.32 4.322-13.973 10.666-19.302 14.27-10.371 7.642-19.303 17.732-24.494 24.075 0 0-13.109 16.437-19.594 44.836-.43 4.322-1.582 8.502-.86 13.263 0 0 5.763-12.541 11.093-16.437 0 0-.722 2.309-1.152 6.055 0 0 2.738-5.045 3.886-5.91 0 0 2.02-2.162 4.9-5.624 0 0 6.05-7.927 7.779-8.791-2.235 4.18-2.738 6.92-2.953 11.246.937-.865 1.513-1.514 1.8-2.021 0 0 .577-1.153 1.153-.865.288.723-.142 1.3-.142 1.3" fill="#000"/><path d="M389.631 202.35c1.517-3.17 1.225-6.271-.937-10.018-1.294-2.163-2.161-4.614-3.167-7.642-.434-1.225-1.298-3.746-2.308-5.91-.073-.864-1.87-4.902-3.022-6.485-2.884-4.18-5.26-4.541-6.842-6.274 0 .004-.576-.039-.603-.02-1.682 1.126-1.69 3.59-3.122 5.46-.157.208-.633.458-.948.304-.461-.227-.66-.623-1.175-1.364-.484-.707-.853-.196-1.356.38-.338 0-.58.265-.84.527-.461.465-.089.714.257 1.237.364.542.004.542.222.83-.065.219-.134.303-.195.403-.18.292-.65.22-.995.158-.956-.158-.737-.089-1.578-.492-1.052-.5-1.555-1.871-2.361-2.302-.254-.138-1.068-.288-1.69.123-.468.315-.668.996-.269 1.357.676.61 1.202 1.344 1.928 1.89.979.738 2.043 1.272 2.177 2.305.173 1.314-1.766 1.787-2.68 1.107-.472-.357-1.03-.768-1.548-1.295-.084-.088-.157-.519-.257-.595-.422-.32-.902-.688-1.117-1.015-.411-.614-.956-1.272-1.697-1.556-.162-.061-.323-.319-.442-.526-.338-.6.035-1.295-.219-1.84-.203-.45-.295-1.18-.944-.892-.576.576-.507.576-1.168.519-.829-.077-.165-1.63-.153-1.426.004.089-.046-.03.242-.538-.58-.184-1.456-.653-.784-1.51.565-.722 1.125.338 1.329-.088.08-.165.572-1.08.76-1.191.638-.38.837.13.926.269-.288.791.556 1.314 1.343.887.081-.046.039-.653.127-.799.737-1.283 1.874-1.952 3.041-2.84.1-.08.438-.165.473-.234.337-.695.737-1.706.007-2.017-.614-.261-1.877-.027-1.624-1.11.119-.519.803-.711 1.167-.884a68.885 68.885 0 0 1 4.209-1.837c.337-.134.929-.653 1.363-.687 1.781-.15 1.378-.108 3.578.284.38.065 1.125.473 1.502.61 1.167.408 2.833.27 3.609-.99.756-1.238.541-3.32-.223-4.78-.921-1.752-2.327-3.266-3.536-4.473-1.555-1.556-3.56-2.347-3.959-4.48-.487-2.6-2.507-6.059-3.66-8.122-1.2-2.133-2.253-3.554-3.785-5.53-.346-.452-2.58-2.723-2.964-3.096-2.542-2.478-3.617-3.297-6.336-4.276-1.39-.5-6.792-.173-9.6-.534-.882-.112-3.6-.181-4.33-1.622-.668-1.318-1.51-3.181-2.9-4.061-.506-.319-1.29-.653-1.823-.922-2.519-1.28-5.142-3.412-7.89-3.3-1 .042-.024 1.121.226 1.256 1.225.65 1.804 1.371 2.48 2.167.703.826 2.246.857 3.567 1.402 1.26.523 2.304 1.33 3.475 1.944 1.118.584 2.592 2.51 1.371 3.293-1.11.719-2.285-.146-3.76.22-.287.068-.717.272-2.449.272-2.27.307-3.045-.776-4.792-2.017-1.747-1.249-2.845-3.174-4.538-4.365-2.081-1.46-4.163-2.674-6.536-3.504-.522-.18-1.209.107-1.666-.142-.833-.461-1.448-1.437-2.457-1.514-1.763-.135-1.763-.277-3.518.004-.238.038-.89.772-1.11.764-1.024-.038-2.222-.319-2.733.254-.822.914.169.807 1.198 1.299.58.272 1.793.926 2.496.914 2.91-.054 4.776-.08 7.053 1.164.246.135 1.271 1.145 1.333 1.522-2.174-.043-5.599-.896-8.098-.692 4.212-.338-4.29.115-6.16.042-.537-.023-.548 1.118.316 1.756.226.162 1.512-.073 1.697.335.76-.396 2.906-.2 3.54.03 1.079.392.46.223 1.413.719.588.307 1.125.726 1.809.645.875-.103.944-1.398 1.823-.98.296.143.968.546 1.114.546 4.995-.096 5.103 1.468 7.445 1.441.607-.008 1.505-.238 1.92.046.94.653 1.824.722 3.264.146 0 0 3.313 8.941 2.45 25.228-.864 6.92-1.295 8.219-2.88 13.84 0 0-2.308 8.94-1.44 15.138.86 20.906-5.476 38.204-12.391 49.738-2.592 3.17-4.032 4.9-1.444 7.208 5.476 5.045 9.941 6.198 17.724 7.927 2.734.864 4.466 1.153 7.058 1.153 4.032 0 10.375 1.729 13.255 3.892 2.733 1.444 10.086 4.184 14.552 3.462 3.886.288 5.042.572 6.912 1.294 1.297.577 2.595.577 4.035.146 1.225-.868.649-.507 2.23-1.66.289-.718 2.378-1.655 1.948-4.537-.142-2.16-1.01-4.4-1.44-6.417-1.24-1.782-1.152-3.1-.718-4.971 1.294-2.598 2.807-3.897 3.598-5.195 1.727-1.944.721-3.312-1.66-3.962-1.147-.503-3.378-.288-5.686-.503-1.225 0-2.235-.507-3.962-.146 0 0-1.152.792-1.801 1.372l-.864-.504s.79-2.309 2.45-3.677c1.658.289 4.066.477 5.33.143 1.497-.677 3.213-.953 4.465-1.441 2.161-.22 3.167-.073 5.763.069 0 0 1.298-5.621-3.24-9.87-1.083-1.015-1.947-2.31-3.533-2.38-5.476.646-8.501-1.586-9.361-2.166-1.371-.07-1.801.507-2.523 1.371-1.874 3.174-4.105 4.254-4.105 4.254l-1.155-.146s1.01-1.73 3.317-4.61c1.006-2.31 2.446-5.196 3.744-6.636.79-1.368 1.01-4.469 2.956-5.33.933 0 1.08-.219 1.801.212-1.44 1.375-5.475 6.274-1.298 9.298 1.728 1.445 4.324 1.445 4.969-.07.322-.83 1.006-1.37 1.367-1.655 2.162-.434 3.962.645 4.684 1.222 1.728 2.02 2.738 2.958 3.602 3.388.933.723 2.665.58 3.529.58 2.81-.507 4.323-2.09 4.826-3.104" fill="#5B2B2F"/><path d="M359.532 168.53c.856.447 1.213.304 2.984.558 0 0 1.543.25 2.948-.976.22-.192 1.406-.791 1.367-1.272-.153-2.186.185 1.445-.253-1.856-.088-.699-.07-1.34-.338-2.086-.138-.384-.737-1.056-1.632-.741-.169.057-1.593 1.218-1.628 1.28-.795 1.505-2.012 1.686-2.553 2.7-.476.895-.764 1.11-1.018 1.683-.111.25-.223.526.123.71" fill="#5B2B2F"/><path d="M372.78 190.256c2.48-.814 3.67.346 6.416 2.206.472.322.856 1.168.177 1.625-.238.157-.757.119-.903-.023-2.4-2.298-3.175-2.306-5.79-2.774-.123-.023-.53-.826.1-1.034m-14.699 25.357a32.584 32.584 0 0 1-1.225 3.205c-.491 1.122-.26 2.493-1.021 3.508-.334.445-1.26.273-1.394-.25a8.22 8.22 0 0 1 .683-5.848c.496-.937 1.751-1.398 2.811-1.045-.104.23.242.346.146.576v-.146zm-24.778-13.263c-.822-.262-1.256-1.038-1.156-1.872.28.084.05-.311.288-.296 1.728.12 3.337.8 5.046.834 1.97.046 3.94-.327 5.732-1.176 2.216-1.053 4.14-2.19 6.274-3.612.956-.637 2.327-1.01 3.514-1.279 1.866-.419 1.74-1.468 3.133-2.286 2.02-1.195 1.878-2.063 3.018-1.614.322.127-.33.845-.684 1.168-.748.692-1.762 1.387-2.468 2.601-.146.246-1.214 1.387-1.437 1.549-2.315 1.733-2.849 3.235-4.576 5.36-.976 1.195-1.306 2.774-1.959 4.176-.388.826-.63 1.68-1.136 2.44-.215.319-.995.17-1.267.43-1.44 1.387-2.807 2.705-3.875 4.503-.172.292-.79.273-.864.127-.936-1.779-2.215-3.116-4.411-3.177-.392-.012-.807-.892-.784-1.68.004-.165-.176-.487-.384-.526-.326-.065-.48-.384-.848-.403-.369-.02-.665-.596-.741-.838-.438-1.398-.273-2.95-.56-4.43h.145z" fill="#000"/><path d="M301.374 242.366c-.372-1.44-2.703-1.314-4.362-1.14-2.538.264-4.838.699-7.291 1.997 1.624-2.443 3.601-2.597 7.38-4.042.86-.33.656-1.848.1-2.732-.638-1.014-1.456-1.064-1.778-1.13-3.107-.602-4.117.116-5.752.539-5.718 1.467-11.331 5.778-14.45 9.913-.905 1.206-.61 2.474-.418 2.74.572.787 1.482 2.962 1.724 2.7 2.32-2.513 5.126-4.818 8.152-4.1-1.298.439-5.832 2.74-7.272 6.075-.092.212.572 1.426 1.44 2.071 1.152 1.948 1.582 2.74 2.23 3.1.415-.034 1.256-.879 1.49-1.24 3.195-4.238 6.363-6.828 15.152-7.984 2.519-.435 3.959-1.153 4.177-3.462 0 0 .503-1.153-.506-3.458m-10.515 13.549c.142 2.167-.173 3.139.441 4.549.588 1.337 1.809 2.497 2.274 3.865.36 1.057 1.605 2.398 1.605 3.12.576.576.656 1.087.66 1.091.76 1 3.022 2.213 2.23 2.809-.944.71-3.754.207-5.444-.07-2.17-.36-.91 1.618-.441 1.818 2.204.91 6.838 1.222 8.355 2.06.917.507 2.115 1.275 2.511 2.178.292.676.814 1.26 1.256 1.856 1.462 1.952 1.98 2.813 3.49 4.05.752.614 1.636 1.675 1.363 2.62-.319 1.107-1.014 1.341-2.073 1.195-.346-.046-1.39-.361-2.396-.795-2.02-.646-2.454-1.387-3.886-.646-.795.408.353 1.737 1.236 2.21 3.625 1.932 7.98 1.967 11.485 4.01 3.018 1.753 4.85 3.87 4.676 8.358 0 .084 1.08.687 1.149.588 1.04-1.614 3.636.388 4.891-.004.116-.035.162-.715-.019-.995-.603-.907-1.893-.953-2.438-1.833-.584-.922.261-1.929-.03-2.736-.3-.826-1.694.603-2.216.058-2.312-2.402-3.82-5.245-6.927-6.628 1.298-3.608 1.874-7.646 1.586-9.517-.864-.719-1.225.43-1.44.576-.714.676-.434 2.163-1.267 3.297-.135.188-1.248-.043-1.57-.32-2.124-1.813-4.098-3.953-5.085-6.523-.038-.1-.464-.627-.556-.757-1.563-2.179-1.463-5.23.345-7.427.196-.235.48-1.583.288-1.737-.303-.246-1.033.269-1.328.569-.983 1.006-1.82 3.016-3.494 2.839-1.878-.2-2.596-2.098-3.756-3.347-.36-1.225-1.048-2.013-.867-2.159-1.582-2.31-1.728-4.184-3.184-7.062-.33-.653-.79-.968-1.424-1.16" fill="#FFF"/><path d="M301.824 294.687c1.877.956-.288-1.226-.288-1.226-.722-.503-2.411-3.128-2.757-3.738-.787-1.41-1.39-2.49-1.855-3.612-.722-1.733-2.12-2.951-4.446-5.203-1.163-1.122-2.972-3.123-3.702-4.572-1.144-2.263-1.793-6.301-4.523-8.207-2.108-1.468-1.59-3.139-3.425-5.986-.699-1.087-2.12-1.207-3.168-2.27-2.634-2.667-.963-3.693-3.275-6.137-1.013-1.076-1.447-1.287-2.33-2.912-1.137-2.094-.27-4.845-2.216-5.81-1.728-.857-3.06-1.164-4.247-1.556-1.8-.595-4.703-2.09-6.34-3.362-1.712-1.337-5.233-4.269-9.007-7.542 2.308 17.732-.86 32.87-18.438 48.727 32.557-6.055 46.821 1.583 70.017 13.406m12.31-22.633c.096 1.448.595 1.187 1.398 3.192.395.984 1.532 2.748 2.123 3.243 3.33 2.79 5.633 7.112 5.399 11.57.161 2.178.28 2.032 2.407 3.557.365.262.565.28 1.72 1.36.43.362 3.526 3.677 3.96 4.039-.074-1.3.13-3.497.11-4.188-.203-6.805 1.114-13.836-1.19-19.776-1.731-4.457-5.62-9.464-7.145-14.113l-.76-2.544c-.807-3.619-.884-7.384-.884-7.384l-4.815-2.306c-3.786-1.529-8.078-2.912-11.895-4.33 0 2.017.288 3.458-1.229 5.48 1.01 2.447 1.874 7.856 3.03 9.155 2.519 2.379 4.534 4.25 6.19 9.944.364 1.372 1.512 2.09 1.581 3.1" fill="#5B2B2F"/><path d="M255.579 118.521s-2.884-.288-9.653 4.9c-7.492 4.618-17.433 11.245-24.636 20.04-5.26 5.26-12.675 13.264-15.413 18.885 0 0-4.465 7.066-7.349 18.596 0 0 1.006 3.75 3.89-1.152 5.038-8.568 24.202-37.408 51.575-58.456l1.298-.073c-13.55 11.669-31.121 27.391-48.193 54.133-.633.995-1.462 2.759-1.535 2.901-.768 1.422 1.19 1.645.2 1.403 1.554.38 2.13-1.783 3.129-2.21.618-.269.867 1.583 1.854 1.103 3.483-1.683 6.078-5.287 7.518-7.45.073.615.864 2.451.864 2.451 1.586.43 6.482-6.343 9.077-10.958.722.865-.18 2.978.78 2.071 2.964-2.797 5.598-5.794 7.176-8.533 1.84-3.197 3.855-4.638 4.577-10.26 1.156.72 1.13 1.034 1.444 1.3.718-.869.768-1.772 1.92-3.067 1.248-1.402 1.497-2.501 3.014-3.5.541-.353 1.735-2.609 1.977-3.788.223-1.115 2.711-4.742 2.884-5.937 2.016-3.75 5.472-5.767 7.921-8.649 2.308-2.02.576-5.62-4.32-3.75" fill="#FFF"/><path d="M230.223 231.113c1.01 1.153 1.87-.365 1.87-.365 1.659-2.52 2.02-3.17 3.176-6.555.718-2.236 1.581-3.031 2.3-12.398 2.02 3.027 2.307 8.794 2.307 8.794l.576-.146s1.87-5.333 5.042-7.062c0 0 .288-3.607 3.455-7.208-.43-2.167-.721-3.892-1.152-7.354-1.297-5.767-2.015-15.426-.718-22.058 2.592 13.84 4.105 15.857 4.105 15.857l.576.219c1.083-1.66 1.37-4.542 1.655-7.135 1.298-5.48 3.605-4.903 3.605-6.06-.721-4.464-1.877-11.526-1.151-17.585 1.44 6.631 2.157 6.201 3.167 8.649 1.298 3.027 1.44-.719 1.44-.719-.288-3.892 2.45-7.784-.142-16.867-1.01-6.198-3.893-19.461-2.738-22.489.718-3.75-.576-2.451-.576-2.451s-3.747.868-9.365 16.725c-8.213 26.38-15.274 54.49-22.907 77.271 2.304-11.968 14.548-54.21 18.154-69.487 0 0-.507-1.083-1.298.142-.937 1.08-1.874 2.452-2.377 3.39.07-.066-.434.068-1.01.36l-1.8 2.736s-3.602 5.049-13.47 15.285c-1.655 2.593-2.373 3.788-4.178 7.926-.649 1.514.357 1.733 1.44.865 2.665-2.594 2.81-2.594 6.482-5.406.165-.123 3.129-1.191 3.129-1.238-.465.588-1.083.98-1.325 1.215-1.01.96-3.505 3.773-4.189 4.96-1.674 2.9-3.506 6.501-5.91 10.862-3.013 5.464-5.317 11.807-5.317 11.807-1.586 4.469-1.156 4.903-1.156 4.903 2.166.864.983 1.963.983 1.963-.983 1.783-1.413 3.224.246 2.578 1.079-.215 1.655-.776 2.104-1.325.845-1.053 1.57-1.771 2.15-2.501.972-1.203.791-1.568 1.824-2.763 1.34-1.556 2.204-2.855 3.571-3.504-2.377 3.243-2.519 5.552-2.519 5.552l.576.722.434.285s-2.45 3.031-3.606 9.893c-.545 3.25-.43 3.662-.936 5.464.245-.234 1.658 0 2.933-1.287-.557 2.005-.664 3.02-.664 3.02-.25 1.652-.25 1.364-.25 3.239 0 1.737 0 1.01.576 3.028 2.592-1.153 3.168-1.007 5.61-3.885 1.163-1.087 2.043-3.727 2.384-3.539.65.288.104 1.756-.18 2.41-.392.902-.745 1.579-.895 2.232-.076.33-.407.822.123 1.275.23.196.07.17.81.15.43-.011.834-.68.834-.68s.245-.054.464-.557c.18-.426.503-.65.791-.868 0 0 .43-.43.937-.285" fill="#FFF"/><path d="M145.367 162.058c-4.754 6.778-8.213 17.444-9.941 25.082 2.162-1.148 2.308-1.006 4.323-1.729.722-3.604 6.397-24.467 5.618-23.353m27.95 234.984c2.933 7.047 3.313 13.84.721 26.957-2.884-2.74-3.026-5.19-5.191-6.49-.284 7.497-.572 9.806-2.012 13.122-3.026 5.913-3.894 8.94-4.036 14.704-5.041-4.18-6.34-9.943-9.799-13.263-2.446-2.452-7.345-7.066-9.073-10.094-.288 3.608 0 4.907-1.44 8.365-1.16-3.996-1.298-5.187-4.035-8.507-3.602-5.045-11.67-16.291-13.543-28.252-.434-2.02-1.582-7.934-2.88-16.003-1.01 2.74-2.738 4.899-4.465 5.33-.868.437-.868-.72-.868-.72.722-2.593 1.01-5.478.722-7.638-.434-3.173-1.294-10.235-2.88-11.968h-.722c.142 4.76-1.728 6.92-2.884 8.507-.142-3.747 0-6.632-.86-8.507-.434-1.299-1.44-2.448-1.731-1.149-.718 3.746-1.006 4.469-1.006 7.927-.288 5.19-.288 6.92-.868 11.246-.284 3.17-1.294 7.062-4.178 10.954-.572-3.458-2.738-6.197-2.738-6.197 0 4.18.868 10.377-1.727 13.697-3.168 4.323-3.598 6.482-4.608 9.656-.434-3.746-1.586-2.598-2.166-4.615-2.3 9.806-9.503 17.302-12.099 19.03 1.728-4.037 3.168-8.652 3.46-11.534 0 0-.434-10.666-2.02-16.721-3.943-18.862-5.848-62.444-2.88-79 7.154-58.987 37.61-113.14 63.433-161.893h-3.21v-11.389h3.455l4.68-10.524 3.1 2.379 6.408-19.534 2.81 14.343 12.246-9.587-9.941 22.635h3.413c-.545 1.187-1.094 2.37-1.609 3.573l-20.965.031v4.626h19.107c-.438 1.13-.826 2.302-1.233 3.447h-6.827l5.587 3.611a138.156 138.156 0 0 0-1.044 3.382l-2.496-1.622c-1.022 4.603-4.32 20.376-3.583 29.662 8.79 8.503 15.27 16.722 14.265 35.176 0 0 .572.426-3.176-.726 1.878 2.02 2.454 3.608 4.036 7.066.722 5.62 1.152 10.67.722 15.857 0 0 .43 12.833.864 16.867 1.732.576.722 5.187.864 11.246 0 0-.142 3.746-.722 6.632-3.598-2.886-3.31-2.74-4.32-2.451.864 2.881 1.44 2.881 3.172 5.19 0 17.156.572 34.884 1.728 42.672.572 5.618 1.582 12.107 2.016 14.125.863 2.597.863 4.906 3.46 10.381-.869 0-3.28.066-4.904-2.017 2.307 4.323 2.307 3.458 3.747 4.899l2.016 14.996-2.3 2.594 3.168 2.017s-.722 6.778.142 12.975c.434 2.886 1.298 5.767 3.314 9.806-4.178.142-4.896-3.32-4.896-3.32-1.156-1.295-3.172-4.177-3.747-4.177-.288 4.177 2.02 5.764 3.025 8.215" fill="#000"/><path d="M111.8 338.11c-.266-6.189-1.168-11.945-1.728-15.887-.607-1.587 0-1.875.86-2.163.203-.161 3.463-4.18 3.463-6.347-2.738 1.879-3.463 2.309-6.051 4.038-.292-6.198-3.026-16-6.056-23.641 3.172 2.885 5.188 6.201 6.198 8.937 1.155-6.34 1.586-10.09 1.728-13.118-1.582-5.625-4.608-17.874-4.32-26.96 1.87 6.635 3.598 13.843 5.475 18.17.86-3.175 1.582-8.796 2.738-13.552 1.582-1.157 3.456-2.31 4.028-3.32-.572-1.007-3.022.868-3.456 1.01.288-4.468 1.01-13.117-2.016-27.245l.434-.434c1.298.576 2.88 3.174 3.456 5.913 2.596-3.028 4.323-18.02 5.045-23.933-2.737 0-4.035 3.027-5.909 2.74.288-1.876.434-1.007 1.156-2.74.718-2.017 2.446-4.035 3.168-6.774 1.585-2.31 1.585-5.045 1.727-7.642 0-2.448-.288-6.056 1.728-9.226.43 1.295.142 2.164 1.152 4.903 0 0 4.036-8.795 6.194-10.812 2.883-12.545 9.799-26.669 16.28-35.898h-3.026c-3.597 4.903-28.379 51.613-30.829 60.116-19.014 38.18-31.263 76.241-33.601 113.826.146 1.291.157.488.787 1.568.576.983.257 2.282.687 3.396.38-.484 1.09-.707 1.156-1.444.542 2.244-1.087 4.38-.292 6.631.88-.795 2.189-.968 2.88-2.017-.065.892-.307 1.748-.434 2.617-.219 1.506.384 3.012.557 4.58.219 1.982 2.676 3.473 1.974 5.413-1.137 3.159-1.747 6.525-.715 9.514.212.622.526 1.671 1.256 2.01.557.26 1.382.268 1.931-.005.285-.142.538-.626.603-1.064.215-1.39-.403-2.682-.157-4.015.318-1.729.618-3.462 1.716-4.845.223-.277 1.064-.188 1.26.25.721 1.613.433 3.565 1.386 5.052.326.507 1.47.869 2.073.304 1.34-1.253.849-3.22 1.022-4.841.287-2.705-.98-4.158-1.333-6.909-.33-2.582.146-2.966.968-4.023.856 2.417.864 5.041 2.61 7.19.37.449 1.06.464 1.348.218 1.268-1.087 1.006-3.458.085-4.99-1.402-2.34-2.538-6.049-.012-8.185-.153 1.172-.142 2.52.465 3.4.83 1.21 2.384 3.708 2.607 6.094.08.865 1.302 1.2 2.05.523.139-.127-.026-.688.358-.738 1.217-.165 1.781 1.268 1.724 2.256.484 0 1.12.161 1.355-.085 1.167-1.195.876-4.042.952-5.683.142-3.027.791-1.848 1.294-2.132m52.298 14.037c.787.776 2.845-.273 3.452.595-.089-.5-.22-.987-.573-1.402-5.333-6.34-10.37-12.975-10.083-18.016 3.598 5.187 6.628 8.357 9.508 10.378l.145-1.01c-2.02-12.976-2.02-18.743-3.098-31.065-3.245-2.598-10.302-10.382-9.008-17.014 2.377 4.615 5.191 8.142 7.783 9.732l1.079.792c-.215-2.232.077-15.423.077-19.388-1.736-2.451-3.894-5.333-5.407-8.219-1.367-2.885-3.025-5.694-6.988-10.45-3.31-4.976-8.497-9.372-8.497-9.372s1.006.142 1.513.142c1.585.508 3.455 1.157 6.193 3.101 1.079.434 2.519 2.452 5.115 4.83 1.727 1.66 1.873 2.882 2.806 3.385 1.517 1.445 3.53 3.174 5.549 4.614h.576c.43 1.733.219-10.735.219-10.735-2.235-3.535-3.817-7.788-5.695-12.618-.288-1.729 1.01 1.084 3.46 2.306.718-2.52-.58-15.281-.722-24.076-.718-2.74-10.878-16.863-11.38-20.395 3.459 5.622 8.066 6.34 9.794 8.576.434.362.507.504 1.01.289-.284-14.563-6.77-21.625-12.82-26.815-.868-13.406 3.597-32.583 3.597-32.583l-2.446-1.583c-11.239 46.71-16.426 74.39-17.574 108.986-1.271 35.625 2.058 70.75 10.559 103.694.369 1.222.76 2.52 1.148 3.827.311.388.672.814 1.194.545.584-.292.718-.995.807-1.56.36-2.35.587-4.66 1.685-6.67.092-.165.534-.61.757-.883.794-.976 1.06-2.21 1.29-3.524.05-.322.326-.614.564-.83.714-.637 1.494.296 1.905.873.725 1.006.372 2.34 1.017 3.358 1.686 2.678 3.54 4.91 5.66 7.142.538.565 1.444 1.226 2.461.953.292-.08.576-.36.66-.576.408-1.068-.46-2.002-.936-2.928-.68-1.33-1.882-2.935-1.106-4.288.203-.36 1.263.726 1.716.227.45-.492.557-1.422.354-2.194-.242-.914-.676-1.733-1.064-2.567-1.394-3.012-3.01-5.817-4.016-9.002-.135-.434-.315-.922-.208-1.422.522 1.13 1.736 1.89 2.335 2.947.153.273.464.504.633.738.71.972 2.058 1.383 2.527 2.428.664 1.472.726 4.492 2.83 4.1.68-.127 1.75-.75 1.301-1.84-.341-.838-.564-1.749-1.175-2.417-.552-.607-1.374-.976-1.743-1.672-.637-1.206-1.117-2.64-.514-3.995.134 1.16 1.033 1.817 1.774 2.55" fill="#FFF"/><path d="M121.954 366.455c1.167-4.976 2.215-9.555 4.945-13.963.284-.453.753-.683 1.137-1.018.234 2.801-.12 5.652 1.605 8.2.787 1.16 1.958.891 3.148.88.776 2.681 2.707 4.68 3.402 7.476.123.492.768.907 1.336.696 1.03-.4 1.974-.865 2.558-1.864.03-.053.084-.123.134-.196-9.392-30.991-11.738-72.883-10.267-108.45 1.728-26.247 3.755-45.447 9.51-69.057 0 0-1.877.722-2.883 1.156-2.02 1.007-2.88 2.017-5.042 4.757-.863 1.875-2.015 2.736-2.737 4.903-2.596 5.187-3.026 9.225-4.324 12.971l.864-.142c2.742-3.75 7.207-7.062 8.213-8.077l1.44-.718c-2.016 5.19-4.753 6.486-7.491 11.242-3.77 7.842-7.353 36.936-9.077 44.982l1.728-.577c1.155-.576 3.025-2.597 8.647-4.614 2.88-2.31-9.507 10.666-11.093 14.923-1.582 11.315-3.89 29.77-4.25 38.057l.648-.073c.864-.576 7.706-8.864 10.371-9.801l.937-.869c-1.444 2.167-6.262 11.535-7.13 14.563-1.002 3.004-2.308 6.055-3.456 8.794-.434.865-.868 1.514-.58 2.594 0 5.913.58 11.534 1.156 14.416l.722 1.01c.572-1.582 3.456-4.468 5.183-5.332l.143.864c-1.582 3.746-3.598 7.208-4.32 9.083 0 7.208.864 16.003 2.45 23.065.145 1.037 1.44.86 2.015.43l.358-.31z" fill="#FFF"/><path d="M169.744 400.27c-2.016-4.611-5.334-10.958-3.026-20.326 1.44 3.312 2.45 3.17 4.754 3.75.43-3.462-.146-8.36 0-8.94-.864-1.588-2.884-3.459-2.884-3.459l2.166-4.18c1.006-4.184-1.01-7.496-.795-8.15-1.083-2.374-1.828-4.414-2.273-5.99-.377-1.314-2.738.016-3.59-.826-.742-.737-1.64-1.394-1.774-2.55-.603 1.355-.123 2.789.514 3.995.369.692 1.194 1.064 1.743 1.668.61.672.834 1.579 1.175 2.42.45 1.088-.622 1.71-1.301 1.84-2.105.393-2.162-2.627-2.826-4.103-.469-1.041-1.82-1.456-2.53-2.428-.166-.23-.48-.465-.634-.734-.6-1.057-1.813-1.821-2.335-2.95-.104.499.077.987.211 1.42 1.002 3.19 2.619 5.995 4.017 9.003.384.838.821 1.656 1.06 2.567.207.772.095 1.706-.354 2.194-.453.5-1.509-.588-1.716-.223-.772 1.348.426 2.958 1.106 4.284.476.926 1.347 1.86.937 2.932-.081.21-.365.495-.66.572-1.015.277-1.925-.384-2.458-.953-2.124-2.232-3.974-4.46-5.664-7.139-.645-1.022-.292-2.355-1.017-3.358-.411-.58-1.19-1.514-1.905-.876-.238.22-.51.511-.564.834-.23 1.314-.496 2.543-1.29 3.523-.223.27-.665.719-.753.88-1.098 2.013-1.329 4.323-1.69 6.674-.084.561-.218 1.268-.806 1.56-.522.269-.883-.158-1.19-.546.26.876.514 1.749.764 2.598.03.103.061.207.088.311.234.807.45 1.58.645 2.313.035.127.07.246.1.373a68.4 68.4 0 0 1 .488 1.936c.019.085.03.158.046.242.134.577.234 1.095.276 1.48a20.043 20.043 0 0 1-.64-1.391c-.078-.177-.158-.388-.235-.58a56.849 56.849 0 0 1-.469-1.184c-.092-.254-.192-.523-.288-.795-.1-.273-.203-.561-.303-.85a138.924 138.924 0 0 1-3.644-10.443c-.05.073-.103.143-.138.2-.58 1-1.524 1.464-2.557 1.86-.565.215-1.21-.204-1.333-.696-.695-2.797-2.63-4.795-3.402-7.477-1.194.012-2.361.28-3.148-.876-1.728-2.55-1.375-5.402-1.605-8.203-.384.338-.853.565-1.137 1.022-2.73 4.403-3.782 8.983-4.945 13.959-.238 1.007-.377 1.38-.691 2.317-.65 1.948.36 2.236 1.366.937 1.77-2.278 1.41-.4 1.59.143.43 3.315 2.158 6.635 2.88 12.252.576 5.48 1.728 10.959 2.304 13.698 1.528 9.002 7.491 18.162 11.093 20.44-.434-3.745.864-5.16.576-8.045l.721-.142c.143 5.049 3.886 11.53 8.21 15.138 3.46 4.039 5.333 4.9 8.244 9.083.86 1.441 1.555 2.102 2.277 3.259 1.582-3.259 4.465-9.026 4.465-15.37 0-4.864-.142-10.377-1.44-14.704 2.588 1.153 5.476 5.334 7.634 8.941 1.297-2.743.576-10.381-1.44-14.131m-90.072-72.211c.146 1.295.123.5.752 1.579.576.984.258 2.282.688 3.397.384-.485 1.09-.707 1.155-1.445.542 2.244-1.082 4.384-.288 6.635.876-.795 2.185-.968 2.88-2.02-.069.895-.307 1.748-.438 2.616-.218 1.506.384 3.012.557 4.58.22 1.983 2.676 3.477 1.974 5.414-1.133 3.162-1.747 6.528-.714 9.513.215.623.53 1.675 1.255 2.01.56.26 1.386.269 1.932-.004.284-.142.537-.627.602-1.065.215-1.39-.403-2.681-.157-4.015.319-1.729.618-3.462 1.72-4.845.22-.276 1.06-.184 1.256.25.722 1.614.434 3.57 1.386 5.052.326.508 1.47.869 2.073.304 1.344-1.253.853-3.216 1.026-4.837.284-2.705-.983-4.158-1.337-6.913-.33-2.582.146-2.966.968-4.022.86 2.416.868 5.04 2.615 7.188.365.45 1.056.465 1.344.223 1.267-1.09 1.006-3.462.088-4.995-1.405-2.34-2.538-6.043-.015-8.184-.154 1.176-.139 2.52.464 3.4.833 1.211 2.385 3.712 2.611 6.098.077.861 1.298 1.195 2.047.52.138-.128-.027-.685.357-.739 1.217-.165 1.782 1.268 1.724 2.256.484 0 1.121.161 1.355-.085 1.168-1.195.88-4.038.953-5.682.142-3.028.864-1.875 1.367-2.164 0 0 .215 1.441-.073 5.622.434 5.19-.142 11.968-1.586 13.555-1.294-1.299-1.44-2.455-3.168-2.885-4.608 2.163-4.32 21.912-4.035 24.94-.07.718-1.152 0-1.152 0-2.592-2.598-3.744-5.768-4.466-7.497 0 0-1.006-1.156-1.006 0-1.298 4.18-.868 15.57-.292 18.309.58 3.315.142 5.187-1.44 8.36-.288.865-.864 1.01-.864-.142-.142-1.298-1.01-1.875-1.44-3.174 0 0-1.01-1.87-1.297 0-.864 4.9-3.602 10.813-4.608 12.688l-.722.43c.288-4.61-1.152-11.819-2.158-17.156-2.307-13.836-4.611-26.81-4.611-45.696 0-8.506.46-17.662.46-17.662l.258.288z" fill="#FFB612"/><path fill="#FFF" d="M158.91 133.009l.719 3.388 3.747-7.28zm-13.686 9.373l2.013-4.976 5.763 4.976zm6.626-5.48l2.665-9.514 1.873 13.406zm146.43-17.72c-.441-.477-1.992-.23-2.269-.884-.188-.446-.407-.972-.68-1.19-.48-.381-1.144.141-1.804.245-.902.142-1.835-.05-2.726-.342-1.555 1.775-5.68.6-7.626.734-.238.015 1.225.849 1.486 1.072 1.375 1.164 3.617 1.064 5.28 1.118.268.008.818-.277 1.029-.304 1.793-.245 3.57.365 5.452.696.591.104 2.442-.515 1.859-1.145m27.995 2.51l-4.281-2.451c-.25-.42-.584-.93-.995-1.31-.96-.88-1.467-1.922-2.572-2.625-1.475-.933-2.688-2.155-4.293-2.747-.173-.061-.38.012-.569-.035-.115-.026-.184-.134-.145-.272-.146 0-.342.05-.407-.027-.227-.246-.569-.388-.776-.458-.833-.272-1.793.223-2.527-.426-.43-.38-.917-.596-1.378-.891-1.283-.826-2.734-.323-4.116-.108-.265.042-.668.403-.964.657-.522.442-1.367-.365-2.058-.13-.595.195-1.26.898-.691 1.475.614.622 1.443 1.045 2.28 1.256 2.485.63 5.08.016 7.427 1.05.668.295 1.493.637 1.766 1.494-.234.054-.484.269-.695.115-.572-.407-1.206-.407-1.759-.45-3.947-.322-7.879-.645-11.803-.1-.008 1.003.4 2.064 1.31 2.19 1.216.162 2.537-.218 3.712-.13 1.287.096 2.646.926 3.928 1.652.185.108.484.096.688.008.576-.246 1.079-1.076 1.712-.772.388.184.799.357 1.221.426.895.158 1.544-.008 2.404.123 1.816.269 3.36 1.487 5.176 1.222 1.34-.2 1.958.257 2.626.864-.38-.342 2.484 1.706 2.742 1.207.1-.204 2.995-.365 3.037-.807m10.424-.878c-1.155-.742-1.29-2.179-1.916-3.254-.48-.823-1.106-1.48-1.854-1.868-3.39-1.756-7.338-4.81-9.86-4.576-.795.073-1.118.926-.665 1.368.868.85 2.404 1.134 2.538 2.505 3.375 1.687 9.292 2.813 9.02 6.501-.027.358 2.165-.757 2.737-.676"/><path d="M97.708 326.69c.096.41.756.157.403.575.868 0 1.763.162 2.569-.08.403-.12.687-.75.756-1.095.238-1.218.826-2.74-.257-3.597-.96-.76-.787-1.986-1.459-2.585-.307-.273-.971-.454-1.42-.903-.342-.338-.941.422-.938.764.016.945.634 1.902.622 2.92-.015 1.549-.733 1.983-.276 4M87.31 313.43c-.096-1.668-.649-4.024 1.843-3.363.783.212.96 1.372.975 1.925.043 1.514.388 2.732 1.03 4.05.364.75-.254 1.387-.63 1.936-.972 1.418-2.95 2.229-4.086.811-.683-.853-1.52-2.125-.902-3.289.491-.926.875-1.425 1.624-2.217m2.643 17.32c-1.313-1.887-.699-3.627.837-4.75.96-.706 2.139-.237 2.404.604.545 1.721 1.217 3.166 1.75 4.891.542 1.76-1.673 3.474-3.236 2.69-1.118-.565-1.037-2.405-1.755-3.435m1.343 6.84c-.626-.203-.691.346-1.002.611-.642.557-.65 1.73-1.21 2.498-1.056 1.421-.745 3.427-.326 4.79.28.93 1.67 2.283 2.856 2.183 1.855-.157 3.249-3.635 1.824-4.468-1.858-1.088-1.205-3.87-1.889-5.376-.046-.107-.491-.034-.783-.034m12.42-3.769c-.488-.637-.5-1.494.046-1.898.507-.376 1.375-.2 1.893.246.146.127.676.465.822.584 1.555 1.23 2.495 2.886 1.662 4.768-.234.538-1.144 1.034-1.79.554-.502-.377-1.197-.396-1.547-1.042-.552-1.037-.326-2.213-1.086-3.212m-17.027-11.654c-.285-.922-1.06-.469-1.494.204-1.018 1.579-1.532 3.108-1.674 5.417.284 1.299 2.142 1.537 3.052.968 2.062-1.294.58-6.259.484-5.575.062-.441-.368-1.11-.368-1.014m40.069 14.266c-.43-.319-1.114 0-1.167.519-.146 1.483-.177 4.284 2.073 3.834.795-.157 1.325-.98 1.137-1.821-.265-1.187-1.152-1.864-2.043-2.532m5.378 5.272c-.538-.55-1.518-.469-1.91-.165-.829.641-1.132 1.986-.84 3.004.319 1.103.699 2.298 1.52 3.155.523.545 1.62 1.183 1.909.784.68-.946 1.313-2.237 1.002-3.6-.273-1.219-.826-2.302-1.682-3.178m20.605-1.738c-.4.031-.91.089-1.068.342-.806 1.26.066 2.728 1.14 3.266 1.126.569 2.539-1.325 1.706-2.378-.534-.669-1.367-1.253-2.35-1.23m-9.32 13.265c-.407-.216-1.06-1.549-.737-2.444.292-.803 1.198-1.122 1.981-.984.88.158 1.455.796 1.966 1.453 1.317 1.694 1.686 4.35-.02 5.775-.694.587-1.95.45-2.449-.38-.618-1.038-.165-1.884-.645-2.99.1 0-.188-.43-.096-.43m11.973.931c-1.175-.923-.687-2.767-1.981-3.597-.722-.473-1.686-.592-2.358-.016-.699.6-.699 1.491-.872 2.402-.1.515.223.972.442 1.41.956 1.944 3.252 1.998 5.053 3.093.238.146.707-.35.883-.657.545-.968-.357-1.994-1.167-2.636m-19.06-1.812c-.614-.738-1.655-.492-2.285-.07-.215.15-.422.515-.426.807-.011 1.876-.633 3.804.05 5.587.407 1.072 1.363 2.375 2.6 1.817.875-.388 1.428-1.46 1.128-2.482-.545-1.905.261-4.053-1.067-5.66m7.683-22.587c-.318-.896-1.186-1.556-.718-2.444.127-.246.61-.184.956-.277 1.03-.28 2.239-.115 2.91.619.53.572.892 1.252 1.337 1.967.46.742.56 1.614.872 2.432.326.892-.043 1.89-.741 2.31-.81.487-1.152.914-2.35.388-.446-.2-.73-1.172-.933-1.541-.285-.496-.258-1.914-.626-2.37-.33-.408-.515-.539-.707-1.084m-.78 4.862c-.338-.33-.806-.322-1.167-.345-.177-.012-.683.038-.664.353.119 1.748-1.909 2.567-2.515 3.95-.626 1.418.641 2.77 1.69 3.742.829.773 2.157.238 3.179-.069 1.67-.507 1.881-2.859 1.493-4.415-.3-1.214-1.056-2.278-2.016-3.216" fill="#FFB612"/></g></svg>