<svg xmlns="http://www.w3.org/2000/svg" viewBox="0 0 24 16"><g fill="#111"><path d="M19.663,11.282l-0.086-0.184c0.051-0.018,0.086-0.066,0.086-0.122c0-0.071-0.058-0.13-0.129-0.13 H19.35v0.436h0.082v-0.177h0.059l0.083,0.177H19.663z M19.534,11.023h-0.103v-0.096h0.103c0.026,0,0.048,0.021,0.048,0.048 C19.582,11.002,19.56,11.023,19.534,11.023z"/><path d="M19.889,11.064c0-0.211-0.171-0.383-0.382-0.383c-0.211,0-0.382,0.172-0.382,0.383 c0,0.211,0.171,0.381,0.382,0.381C19.718,11.445,19.889,11.275,19.889,11.064z M19.207,11.064c0-0.166,0.134-0.301,0.3-0.301 c0.165,0,0.3,0.135,0.3,0.301c0,0.165-0.135,0.3-0.3,0.3C19.341,11.364,19.207,11.229,19.207,11.064z"/></g><path fill="#a4a9ad" d="M14.162,2.26c-5.481,0-9.844,3.001-9.844,3.001s5.379-0.433,5.379,0.681 c0,0.976-4.258,2.565-4.258,2.565s3.358,0.088,3.358,0.899c0,1.369-6.979,3.212-6.979,3.212s2.445,1.123,6.265,1.123 c6.841,0,14.1-3.879,14.1-6.902C22.183,4.055,18.099,2.26,14.162,2.26z"/><path fill="#111" d="M14.162,2.505c-3.958,0-7.355,1.608-8.866,2.452c0,0,4.646-0.327,4.646,0.984c0,0.817-1.997,1.799-3.392,2.386 c1.146,0.109,2.492,0.385,2.492,1.078c0,1.277-4.277,2.643-6.433,3.249c0.973,0.325,2.918,0.842,5.474,0.842 c6.874,0,13.856-3.874,13.856-6.658C21.938,4.161,17.901,2.505,14.162,2.505z"/><path fill="#f95602" d="M6.802,12.601l-0.807,0.214c0,0,0.722,0.08,1.858,0.08c8.155,0,13.57-4.962,13.57-5.752 c0-0.087-0.028-0.16-0.028-0.16C18.505,10.421,12.765,12.792,6.802,12.601z"/><path d="M14.26,3.177c-3.045,0-6.362,1.181-6.362,1.181s3.413-0.171,3.413,1.256 c0,1.331-2.412,2.308-2.412,2.308s1.464,0.343,1.464,1.188c0,1.924-4.746,3.118-4.746,3.118 c9.958,0.483,15.646-4.841,15.646-5.825C21.263,5.487,18.492,3.177,14.26,3.177z" fill="#fff"/><path fill="#b5985a" d="M14.26,3.372c-1.909,0-3.944,0.476-5.169,0.821c0,0,2.415,0.098,2.415,1.42 c0,1.076-1.347,1.905-2.078,2.276c0.477,0.193,1.13,0.576,1.13,1.22c0,1.432-2.28,2.449-3.729,2.952 c9.029,0,14.237-4.8,14.237-5.659C21.066,5.623,18.393,3.372,14.26,3.372z"/><path d="M12.592,4.812c0,0,2.668,0.602,3.861,1.399l-5.202,1.347l4.933-0.161 c-1.1,0.804-5.107,2.727-5.107,2.727s4.926-0.733,8.041-3.578C16.346,4.056,12.592,4.812,12.592,4.812z" fill="#fff"/><path fill="#111" d="M13.734,4.907c0,0,2.064,0.527,3.19,1.384l-3.913,1.014l3.8-0.124c-1.062,0.893-4.189,2.4-4.189,2.4 c1.645-0.436,4.243-1.342,6.185-3.031C17.077,5.103,14.986,4.88,13.734,4.907z"/></svg>