<svg xmlns="http://www.w3.org/2000/svg" viewBox="0 0 24 16"><g fill="#111"><path d="M19.663 11.282l-.086-.184a.13.13 0 0 0-.043-.252h-.184v.436h.082v-.177h.059l.083.177h.089zm-.129-.259h-.103v-.096h.103a.048.048 0 0 1 0 .096z"/><path d="M19.889 11.064a.383.383 0 1 0-.766 0 .383.383 0 0 0 .766 0zm-.682 0a.3.3 0 1 1 .6-.001.3.3 0 0 1-.6.001z"/></g><path fill="#a4a9ad" d="M14.162 2.26c-5.481 0-9.844 3.001-9.844 3.001s5.379-.433 5.379.681c0 .976-4.258 2.565-4.258 2.565s3.358.088 3.358.899c0 1.369-6.979 3.212-6.979 3.212s2.445 1.123 6.265 1.123c6.841 0 14.1-3.879 14.1-6.902 0-2.784-4.084-4.579-8.021-4.579z"/><path fill="#111" d="M14.162 2.505c-3.958 0-7.355 1.608-8.866 2.452 0 0 4.646-.327 4.646.984 0 .817-1.997 1.799-3.392 2.386 1.146.109 2.492.385 2.492 1.078 0 1.277-4.277 2.643-6.433 3.249.973.325 2.918.842 5.474.842 6.874 0 13.856-3.874 13.856-6.658-.001-2.677-4.038-4.333-7.777-4.333z"/><path fill="#f95602" d="M6.802 12.601l-.807.214s.722.08 1.858.08c8.155 0 13.57-4.962 13.57-5.752a.498.498 0 0 0-.028-.16c-2.89 3.438-8.63 5.809-14.593 5.618z"/><path d="M14.26 3.177c-3.045 0-6.362 1.181-6.362 1.181s3.413-.171 3.413 1.256c0 1.331-2.412 2.308-2.412 2.308s1.464.343 1.464 1.188c0 1.924-4.746 3.118-4.746 3.118 9.958.483 15.646-4.841 15.646-5.825 0-.916-2.771-3.226-7.003-3.226z" fill="#fff"/><path fill="#b5985a" d="M14.26 3.372c-1.909 0-3.944.476-5.169.821 0 0 2.415.098 2.415 1.42 0 1.076-1.347 1.905-2.078 2.276.477.193 1.13.576 1.13 1.22 0 1.432-2.28 2.449-3.729 2.952 9.029 0 14.237-4.8 14.237-5.659 0-.779-2.673-3.03-6.806-3.03z"/><path d="M12.592 4.812s2.668.602 3.861 1.399l-5.202 1.347 4.933-.161c-1.1.804-5.107 2.727-5.107 2.727s4.926-.733 8.041-3.578c-2.772-2.49-6.526-1.734-6.526-1.734z" fill="#fff"/><path fill="#111" d="M13.734 4.907s2.064.527 3.19 1.384l-3.913 1.014 3.8-.124c-1.062.893-4.189 2.4-4.189 2.4 1.645-.436 4.243-1.342 6.185-3.031-1.73-1.447-3.821-1.67-5.073-1.643z"/></svg>