<svg width="512" height="512" viewBox="0 0 512 512" xmlns="http://www.w3.org/2000/svg"><title>anaheim-ducks</title><g fill="none" fill-rule="evenodd"><g fill="#111"><path d="M407.867 320.952l-1.705-3.646a2.576 2.576 0 0 0-.852-4.994h-3.646v8.64h1.625v-3.507h1.169l1.645 3.507h1.764zm-2.557-5.133h-2.041v-1.902h2.041a.951.951 0 0 1 0 1.902z"/><path d="M412.346 316.632a7.59 7.59 0 1 0-15.181 0 7.59 7.59 0 0 0 15.18 0zm-13.516 0a5.945 5.945 0 1 1 11.89-.02 5.945 5.945 0 0 1-11.89.02z"/></g><path d="M298.847 142.153c-108.624 0-195.09 59.474-195.09 59.474s106.602-8.581 106.602 13.496c0 19.343-84.386 50.834-84.386 50.834s66.55 1.744 66.55 17.816c0 27.132-138.312 63.656-138.312 63.656s48.456 22.256 124.161 22.256c135.576 0 279.437-76.874 279.437-136.785 0-55.174-80.938-90.747-158.962-90.747z" fill="#A4A9AD"/><path d="M298.847 147.008c-78.44 0-145.763 31.868-175.708 48.594 0 0 92.075-6.48 92.075 19.501 0 16.192-39.577 35.653-67.223 47.287 22.712 2.16 49.387 7.63 49.387 21.364 0 25.307-84.763 52.38-127.49 64.389 19.283 6.44 57.829 16.687 108.484 16.687 136.23 0 274.6-76.776 274.6-131.95-.019-53.053-80.025-85.872-154.125-85.872z" fill="#111"/><path d="M152.985 347.093l-15.993 4.24s14.309 1.586 36.822 1.586c161.617 0 268.933-98.338 268.933-113.994a9.87 9.87 0 0 0-.555-3.171c-57.275 68.135-171.031 115.124-289.207 111.339z" fill="#F95602"/><path d="M300.79 160.326c-60.347 0-126.084 23.405-126.084 23.405s67.64-3.389 67.64 24.892c0 26.378-47.802 45.74-47.802 45.74s29.014 6.798 29.014 23.544c0 38.13-94.057 61.793-94.057 61.793 197.349 9.573 310.075-95.94 310.075-115.44 0-18.154-54.916-63.934-138.787-63.934z" fill="#FFF"/><path d="M300.79 164.19c-37.834 0-78.164 9.434-102.441 16.271 0 0 47.86 1.942 47.86 28.142 0 21.324-26.694 37.754-41.181 45.106 9.453 3.825 22.394 11.416 22.394 24.178 0 28.38-45.185 48.535-73.902 58.504 178.939 0 282.152-95.128 282.152-112.151 0-15.439-52.974-60.05-134.883-60.05z" fill="#B5985A"/><path d="M267.732 192.729s52.875 11.93 76.518 27.725L241.156 247.15l97.763-3.19c-21.8 15.934-101.211 54.044-101.211 54.044s97.624-14.527 159.358-70.91c-54.936-49.347-129.334-34.364-129.334-34.364z" fill="#FFF"/><path d="M290.365 194.611s40.904 10.445 63.22 27.429l-77.549 20.095 75.31-2.457c-21.048 17.698-83.02 47.564-83.02 47.564 32.602-8.641 84.09-26.596 122.576-60.07-34.285-28.676-75.725-33.096-100.537-32.56z" fill="#111"/></g></svg>