<?xml version="1.0" encoding="UTF-8"?>
<svg width="512px" height="512px" viewBox="0 0 512 512" version="1.1" xmlns="http://www.w3.org/2000/svg" xmlns:xlink="http://www.w3.org/1999/xlink">
    <!-- Generator: Sketch 41.2 (35397) - http://www.bohemiancoding.com/sketch -->
    <title>anaheim-ducks</title>
    <desc>Created with Sketch.</desc>
    <defs></defs>
    <g id="NHL" stroke="none" stroke-width="1" fill="none" fill-rule="evenodd">
        <g id="anaheim-ducks">
            <g id="ana" transform="translate(38.000000, 137.000000)">
                <g id="Group" transform="translate(356.727273, 158.545455)" fill="#111111">
                    <path d="M13.1394545,25.4069091 L11.4350909,21.7603636 C12.6005358,21.3318366 13.2944966,20.1329664 13.0856327,18.9089267 C12.8767687,17.684887 11.8245131,16.7839823 10.5829091,16.7661818 L6.93636364,16.7661818 L6.93636364,25.4069091 L8.56145455,25.4069091 L8.56145455,21.8990909 L9.73072727,21.8990909 L11.3756364,25.4069091 L13.1394545,25.4069091 L13.1394545,25.4069091 Z M10.5829091,20.274 L8.54163636,20.274 L8.54163636,18.3714545 L10.5829091,18.3714545 C11.1082825,18.3714545 11.5341818,18.7973539 11.5341818,19.3227273 C11.5341818,19.8481007 11.1082825,20.274 10.5829091,20.274 Z" id="Shape"></path>
                    <path d="M17.6183636,21.0865455 C17.6183636,16.8945034 14.2200421,13.4961818 10.028,13.4961818 C5.83595792,13.4961818 2.43763636,16.8945034 2.43763636,21.0865455 C2.43763672,25.2785873 5.83595817,28.6769085 10.028,28.6769085 C14.2200418,28.6769085 17.6183633,25.2785873 17.6183636,21.0865455 L17.6183636,21.0865455 Z M4.10236364,21.0865455 C4.096891,17.8029616 6.75432521,15.1366545 10.0379091,15.1311818 C13.321493,15.1257092 15.9878001,17.7831434 15.9932727,21.0667273 C15.9987454,24.3503111 13.3413111,27.0166183 10.0577273,27.0220909 C6.7741434,27.0275635 4.10783628,24.3701293 4.10236364,21.0865455 L4.10236364,21.0865455 Z" id="Shape"></path>
                </g>
                <path d="M260.846909,5.15272727 C152.223455,5.15272727 65.7567273,64.6270909 65.7567273,64.6270909 C65.7567273,64.6270909 172.358727,56.0458182 172.358727,78.1232727 C172.358727,97.4658182 87.9729091,128.956909 87.9729091,128.956909 C87.9729091,128.956909 154.522364,130.700909 154.522364,146.773455 C154.522364,173.904545 16.2112727,210.429455 16.2112727,210.429455 C16.2112727,210.429455 64.6667273,232.685273 140.372182,232.685273 C275.948364,232.685273 419.808545,155.810545 419.808545,95.9001818 C419.808545,40.7263636 338.871091,5.15272727 260.846909,5.15272727 L260.846909,5.15272727 Z" id="Shape" fill="#A4A9AD"></path>
                <path d="M260.846909,10.0081818 C182.406545,10.0081818 115.084182,41.8758182 85.1389091,58.6023636 C85.1389091,58.6023636 177.214182,52.1218182 177.214182,78.1034545 C177.214182,94.2949091 137.637273,113.756364 109.990909,125.389636 C132.702545,127.549818 159.377818,133.019636 159.377818,146.753636 C159.377818,172.061455 74.6154545,199.133091 31.8874545,211.142909 C51.1705455,217.583818 89.7169091,227.829818 140.372182,227.829818 C276.602364,227.829818 414.972909,151.054182 414.972909,95.8803636 C414.953091,42.8270909 334.947091,10.0081818 260.846909,10.0081818 L260.846909,10.0081818 Z" id="Shape" fill="#111111"></path>
                <path d="M114.985091,210.092545 L98.9918182,214.333636 C98.9918182,214.333636 113.300545,215.919091 135.814,215.919091 C297.431273,215.919091 404.746727,117.581273 404.746727,101.924909 C404.73654,100.844693 404.549078,99.7734779 404.191818,98.754 C346.917273,166.888909 233.160909,213.877818 114.985091,210.092545 L114.985091,210.092545 Z" id="Shape" fill="#F95602"></path>
                <path d="M262.789091,23.326 C202.442727,23.326 136.705818,46.7312727 136.705818,46.7312727 C136.705818,46.7312727 204.345273,43.3423636 204.345273,71.6229091 C204.345273,98.0009091 156.543818,117.363273 156.543818,117.363273 C156.543818,117.363273 185.557636,124.160909 185.557636,140.907273 C185.557636,179.037455 91.5005455,202.700364 91.5005455,202.700364 C288.85,212.272545 401.575818,106.760545 401.575818,87.2594545 C401.575818,69.106 346.659636,23.326 262.789091,23.326 L262.789091,23.326 Z" id="Shape" fill="#FFFFFF"></path>
                <path d="M262.789091,27.1905455 C224.956182,27.1905455 184.626182,36.624 160.348909,43.4612727 C160.348909,43.4612727 208.209818,45.4034545 208.209818,71.6030909 C208.209818,92.9274545 181.514727,109.356727 167.027636,116.709273 C176.480909,120.534182 189.422182,128.124545 189.422182,140.887455 C189.422182,169.267091 144.236727,189.422182 115.520182,199.390727 C294.458545,199.390727 397.671636,104.263455 397.671636,87.2396364 C397.671636,71.8012727 344.697636,27.1905455 262.789091,27.1905455 L262.789091,27.1905455 Z" id="Shape" fill="#B5985A"></path>
                <path d="M229.732364,55.7287273 C229.732364,55.7287273 282.607273,67.6592727 306.250364,83.4543636 L203.156182,110.149455 L300.919273,106.958727 C279.119273,122.892545 199.707818,161.002909 199.707818,161.002909 C199.707818,161.002909 297.332182,146.476182 359.065818,90.0934545 C304.129818,40.7461818 229.732364,55.7287273 229.732364,55.7287273 L229.732364,55.7287273 Z" id="Shape" fill="#FFFFFF"></path>
                <path d="M252.364727,57.6114545 C252.364727,57.6114545 293.269455,68.0556364 315.584727,85.0398182 L238.036182,105.135455 L313.345273,102.678 C292.298364,120.375636 230.326909,150.241636 230.326909,150.241636 C262.927818,141.600909 314.415455,123.645636 352.902364,90.1727273 C318.616909,61.4958182 277.177091,57.0763636 252.364727,57.6114545 L252.364727,57.6114545 Z" id="Shape" fill="#111111"></path>
            </g>
        </g>
    </g>
</svg>