<svg xmlns="http://www.w3.org/2000/svg" viewBox="0 0 24 16"><g fill="#FFF"><path d="M14.404 13.358a.314.314 0 1 0 0 .63.315.315 0 1 0 0-.63zm0 .564a.248.248 0 1 1 0-.496c.137 0 .247.111.247.248 0 .138-.11.248-.247.248z"/><path d="M14.533 13.601a.106.106 0 0 0-.106-.107h-.152v.361h.067v-.146h.048l.069.146h.074l-.071-.153a.11.11 0 0 0 .071-.101zm-.106.039h-.085v-.078h.085c.021 0 .039.018.039.039s-.018.039-.039.039z"/></g><path fill="#FFF" d="M19.017 7.431s.195-.856-.741-1.56c.008.745-.315 1.054-.315 1.054l-.095-.047-.209-.562.908-1.899.099.367.262-.519s.239-.452.198-1.014l.222-.465-.129-1.88c-.091-.366-.376-.635-.741-.751-.351-.111-.699-.053-.96.16l-3.982 3.079c-2.027.076-3.608.972-4.585 2.594L4.371 9.673c.244.539 1.386 1.971 3.157 1.638l.916-.165s.75 4.102 4.316 4.755c0 0-1.206-1.961-.914-3.579 0 0 .823 2.37 2.408 2.037-1.277-1.562-.579-3.119-.579-3.119s.645 1.05 2.104.923c0 0-.993-1.054-.659-2.469l2.403.088 1.254-.525.852-1.546-.612-.28z"/><path fill="#111" d="M18.459 6.343c-.038.443-.44.858-.44.858l-.331-.163-.273-.733 1.184-2.474c.085.166.13.333.13.333.172-.339.196-.682.171-.959l.221-.463-.123-1.801c-.06-.242-.295-.482-.589-.575a.807.807 0 0 0-.762.126L13.615 3.61c-2.051.058-3.566.955-4.495 2.527L4.653 9.73s.828 1.568 2.729 1.381l1.228-.221c.132.57.868 3.862 3.716 4.659-.482-.928-1.106-2.579-.494-3.933.815 2.618 2.011 2.545 2.011 2.545-1.156-1.641-.214-3.385-.214-3.385.471.806 1.151 1.164 1.706 1.164 0 0-.814-1.072-.385-2.476l2.533.093 1.137-.477.697-1.269-.547-.248c.171-.773-.311-1.22-.311-1.22z"/><path fill="#8c2633" d="M18.544 7.63h.002c.023-.093.127-.568-.017-.893-.125.381-.349.59-.447.668l-.56-.271.003.003 1.146.741-.7.164h-.002l-.626-.232h.002l-.004-.002c.037-.189.096-.604-.037-.905-.129.391-.35.618-.47.719l-.604-.224-.508-1.326 1.844-2.98c.105.11.218.26.31.458.091-.293.004-.669-.056-.867l.224-.362.525-.38.098.493-.876 2.427.694-1.497c.03.024.094.074.237.37.073-.234-.038-.755-.038-.755l.203-.387-.096-1.507c-.08.128-.163.404-.198.514-.169-1.16-.619-.299-.73-.993l-.373.289c-.029.146-.076.44-.085.885 0 0-.262-.275-.345-.537a5.772 5.772 0 0 0-.093.97s-.292-.309-.382-.6a6.44 6.44 0 0 0-.1 1.057s-.314-.332-.415-.647c-.04.201-.097.586-.111 1.159 0 0-.366-.388-.466-.745L13.64 3.87c-.123.146-.702.735-.914 1.62 0 0-.001-.625.049-.817-.163.117-.775.597-1.109.944 0 0 .04-.63.299-.989-.547.399-1.381 1.245-1.381 1.245.69-1.193 1.243-1.548 1.52-1.779C10.71 4.535 9.5 5.513 8.97 7.165c0 0 .01-.33.061-.603L5.077 9.689s.609 1.12 2.323 1.077l2.238-.355s-.223-.598-.201-1.02c.272.942.742 1.292.742 1.292l-1.256.166c.228.825.727 3.146 3 4.237a4.85 4.85 0 0 1-.533-2.803c.144-.968.637-1.557.637-1.557.08 1.136.619 1.995.971 2.443.092.128.193.246.308.348 0 0-.458-.828-.123-2.313.029-.084.284-.796.545-1.057.338.955 1.163 1.323 1.163 1.323-.589-1.218-.077-2.386-.077-2.386l2.672.1.996-.418.513-.932-.451-.204z"/><path d="M14.947 5.482l2.792-3.169-2.936 3.007s-.73.124-1.788.959c.529 1.018-2.001 4.193-3.072 3.351.219.646 1.015.382 1.015.382-.106.247-1.146 2.03.221 4.148-2.228-3.605 2.983-7.141 3.268-7.254-.068-.488-.796-.629-.796-.629.344-.445 1.404-.821 1.296-.795zM8.72 7.292c-.167.141-.611.499-1.11.899a795.13 795.13 0 0 1-1.977 1.578c.285.511.954.65 1.345.688.179.018.299.014.299.014l1.904-.337s-2.749-.626-.461-2.842z" fill="#111"/><path fill="#8c2633" d="M16.89 6.162l.414.589-.234-.583.234-.602z"/><path d="M18.544 7.63h.002c.023-.094.127-.568-.017-.893-.125.381-.349.59-.447.668l-.56-.271.003.002 1.146.742-.7.164h-.002l-.626-.232h.002l-.004-.002c.037-.189.096-.604-.037-.904a1.6 1.6 0 0 1-.47.719l-.604-.225-.508-1.326 1.844-2.98c.105.11.218.26.31.458.091-.293.004-.669-.056-.867l.224-.362.525-.38.098.493-.876 2.427.694-1.497c.03.024.094.074.237.37.073-.234-.038-.755-.038-.755l.203-.387-.3-.748-.849.469-2.792 3.169c.107-.027-.952.349-1.298.794 0 0 .728.141.796.629-.284.113-5.495 3.649-3.268 7.254.194.303.438.613.744.927a4.85 4.85 0 0 1-.533-2.803c.149-1.353.807-2.27.807-2.27s-.021 2.008.801 3.156c.092.128.193.246.308.348 0 0-.458-.828-.123-2.313a6.978 6.978 0 0 1 .711-1.824c-.233 1.095.755 1.875.997 2.091-.589-1.218-.077-2.386-.077-2.386l2.672.1.926-.907.07.489.513-.932-.448-.205zM5.633 9.769c.285.511.954.65 1.345.688-.113-.111-.49-.506-.374-.796 0 0 .318.25.751.296 0 0-.359-.996.254-1.766-.896.719-1.976 1.578-1.976 1.578zm7.307-5.392c.041-.128-.214-.102-.214-.102.176-.115.355-.183.446-.212.063-.078.116-.141.143-.17-.125.01-.449.08-1.086.534a2.97 2.97 0 0 1 .711-.05z" fill="#e2d6b5"/><path fill="#111" d="M16.175 5.008l-.852 1.033.739 1.366-.501-1.366z"/></svg>