<?xml version="1.0" encoding="UTF-8"?>
<svg width="512px" height="512px" viewBox="0 0 512 512" version="1.1" xmlns="http://www.w3.org/2000/svg" xmlns:xlink="http://www.w3.org/1999/xlink">
    <!-- Generator: Sketch 41.2 (35397) - http://www.bohemiancoding.com/sketch -->
    <title>arizona-coyotes</title>
    <desc>Created with Sketch.</desc>
    <defs></defs>
    <g id="NHL" stroke="none" stroke-width="1" fill="none" fill-rule="evenodd">
        <g id="arizona-coyotes">
            <g id="ari" transform="translate(78.000000, 78.000000)">
                <g id="Group" transform="translate(223.125000, 290.062500)" fill="#FFFFFF">
                    <path d="M9.01425,7.987875 C5.13255115,7.987875 1.9858125,11.1346137 1.9858125,15.0163125 C1.9858125,18.8980113 5.13255115,22.04475 9.01425,22.04475 C12.8959488,22.04475 16.0426875,18.8980113 16.0426875,15.0163125 C16.0426875,11.1346137 12.8959488,7.987875 9.01425,7.987875 Z M9.01425,20.572125 C5.95818234,20.572125 3.48075,18.0946927 3.48075,15.038625 C3.48075,11.9825573 5.95818234,9.505125 9.01425,9.505125 C12.0710625,9.505125 14.5254375,11.9818125 14.5254375,15.038625 C14.5254375,18.11775 12.0710625,20.572125 9.01425,20.572125 L9.01425,20.572125 Z" id="Shape"></path>
                    <path d="M11.8925625,13.4098125 C11.8985168,12.7786853 11.6519658,12.1713585 11.2077718,11.722974 C10.7635778,11.2745895 10.1585927,11.0223469 9.5274375,11.022375 L6.1359375,11.022375 L6.1359375,19.0771875 L7.630875,19.0771875 L7.630875,15.8195625 L8.701875,15.8195625 L10.2414375,19.0771875 L11.8925625,19.0771875 L10.308375,15.663375 C11.2479436,15.3072763 11.8755704,14.4144551 11.8925625,13.4098125 L11.8925625,13.4098125 Z M9.5274375,14.28 L7.630875,14.28 L7.630875,12.539625 L9.5274375,12.539625 C9.996,12.539625 10.397625,12.94125 10.397625,13.4098125 C10.397625,13.878375 9.996,14.28 9.5274375,14.28 Z" id="Shape"></path>
                </g>
                <path d="M335.066812,165.804187 C335.066812,165.804187 339.41775,146.704687 318.53325,130.996687 C318.71175,147.6195 311.504812,154.514062 311.504812,154.514062 L309.385125,153.465375 L304.721812,140.92575 L324.981563,98.5543125 L327.1905,106.743 L333.036375,95.1628125 C333.036375,95.1628125 338.369063,85.0775625 337.45425,72.5379375 L342.407625,62.162625 L339.529313,20.215125 C337.498875,12.04875 331.139813,6.0466875 322.99575,3.4584375 C315.164063,0.98175 307.399313,2.275875 301.57575,7.0284375 L212.727375,75.728625 C167.499938,77.424375 132.223875,97.416375 110.424563,133.60725 L8.2779375,215.828812 C13.7221875,227.85525 39.2030625,259.80675 78.7185,252.376688 L99.15675,248.695125 C99.15675,248.695125 115.891125,340.221 195.4575,354.791063 C195.4575,354.791063 168.548625,311.03625 175.063875,274.934625 C175.063875,274.934625 193.427063,327.81525 228.792375,320.385187 C200.299313,285.533062 215.873438,250.7925 215.873438,250.7925 C215.873438,250.7925 230.265,274.220625 262.818938,271.386937 C262.818938,271.386937 240.662625,247.869562 248.115,216.297375 L301.731938,218.260875 L329.711813,206.546812 L348.722063,172.051687 L335.066813,165.804187 L335.066812,165.804187 Z" id="Shape" fill="#FFFFFF"></path>
                <path d="M322.616437,141.528188 C321.768562,151.412625 312.798937,160.672312 312.798937,160.672312 L305.4135,157.035375 L299.322187,140.680312 L325.740187,85.4791875 C327.63675,89.1830625 328.640812,92.90925 328.640812,92.90925 C332.478562,85.3453125 333.014063,77.692125 332.45625,71.5115625 L337.387312,61.180875 L334.642875,20.9960625 C333.304125,15.5964375 328.060687,10.2414375 321.500812,8.166375 C315.72382,6.15458223 309.320567,7.21338782 304.498687,10.97775 L214.534687,80.548125 C168.77175,81.84225 134.968312,101.856562 114.24,136.931812 L14.5700625,217.100625 C14.5700625,217.100625 33.0448125,252.086625 75.460875,247.914188 L102.860625,242.983125 C105.805875,255.70125 122.227875,329.154 185.773875,346.937062 C175.01925,326.231062 161.09625,289.393125 174.7515,259.182 C192.936187,317.596125 219.621937,315.967312 219.621937,315.967312 C193.828687,279.3525 214.847062,240.4395 214.847062,240.4395 C225.35625,258.423375 240.52875,266.41125 252.912187,266.41125 C252.912187,266.41125 234.749812,242.49225 244.321875,211.1655 L300.839438,213.240562 L326.20875,202.5975 L341.760562,174.282937 L329.555625,168.749437 C333.371062,151.501875 322.616437,141.528187 322.616437,141.528187 L322.616437,141.528188 Z" id="Shape" fill="#111111"></path>
                <path d="M324.513,170.244375 L324.557625,170.244375 C325.070812,168.169313 327.391312,157.570875 324.178312,150.319313 C321.38925,158.820375 316.39125,163.483688 314.204625,165.224063 L301.709625,159.177375 L301.776563,159.244313 L327.346688,175.777875 L311.727938,179.437125 L311.683313,179.437125 L297.715688,174.260625 L297.760313,174.260625 L297.671063,174.216 C298.496625,169.998938 299.813063,160.73925 296.8455,154.023188 C293.967188,162.747375 289.036125,167.812313 286.358625,170.065875 L272.881875,165.067875 L261.547125,135.4815 L302.691375,68.99025 C305.034188,71.444625 307.5555,74.7915 309.60825,79.209375 C311.638688,72.6718125 309.6975,64.2823125 308.35875,59.8644375 L313.35675,51.7873125 L325.070813,43.3085625 L327.257438,54.308625 L307.711687,108.461062 L323.196562,75.05925 C323.865937,75.59475 325.293938,76.710375 328.484625,83.314875 C330.113437,78.09375 327.63675,66.4689375 327.63675,66.4689375 L332.166187,57.834 L330.024187,24.2090625 C328.239187,27.0650625 326.38725,33.2233125 325.606312,35.6776875 C321.8355,9.7951875 311.794875,29.00625 309.318187,13.521375 L300.995625,19.9696875 C300.348562,23.2273125 299.299875,29.7871875 299.099062,39.71625 C299.099062,39.71625 293.253187,33.5803125 291.40125,27.7344375 C290.100733,34.8774245 289.406573,42.1175938 289.326187,49.3775625 C289.326187,49.3775625 282.810937,42.483 280.802812,35.9900625 C279.411194,43.7766868 278.664909,51.6649246 278.571562,59.574375 C278.571562,59.574375 271.565437,52.166625 269.311875,45.1381875 C268.419375,49.623 267.147562,58.2133125 266.835187,70.998375 C266.835187,70.998375 258.668812,62.341125 256.437562,54.3755625 L215.0925,86.349375 C212.348063,89.607 199.429125,102.749063 194.698875,122.495625 C194.698875,122.495625 194.676563,108.550313 195.792188,104.266313 C192.15525,106.876875 178.5,117.586875 171.047625,125.329313 C171.047625,125.329313 171.940125,111.272438 177.719063,103.26225 C165.514125,112.164938 146.9055,131.041313 146.9055,131.041313 C162.301125,104.4225 174.639938,96.5015625 180.8205,91.347375 C149.716875,101.187188 122.71875,123.008813 110.893125,159.869063 C110.893125,159.869063 111.11625,152.505938 112.254188,146.414625 L24.0305625,216.185812 C24.0305625,216.185812 37.618875,241.175813 75.8625,240.216375 L125.797875,232.295437 C125.797875,232.295437 120.822187,218.952562 121.313063,209.536687 C127.382063,230.555062 137.868937,238.364437 137.868937,238.364437 L109.844437,242.068313 C114.931687,260.476125 126.065625,312.263438 176.781937,336.606375 C166.636535,317.423064 162.493006,295.632609 164.889375,274.064438 C168.102375,252.465938 179.102437,239.323875 179.102437,239.323875 C180.887437,264.670875 192.913875,283.837313 200.767875,293.833313 C202.820625,296.689313 205.074187,299.322188 207.640125,301.598063 C207.640125,301.598063 197.421,283.123313 204.895688,249.98925 C205.54275,248.115 211.232438,232.2285 217.056,226.404938 C224.597625,247.713375 243.005437,255.924375 243.005437,255.924375 C229.863375,228.74775 241.287375,202.68675 241.287375,202.68675 L300.906375,204.918 L323.129625,195.591375 L334.575938,174.796125 L324.513,170.244375 L324.513,170.244375 Z" id="Shape" fill="#8C2633"></path>
                <path d="M244.254938,122.317125 L306.551437,51.6088125 L241.041937,118.7025 C241.041937,118.7025 224.753812,121.46925 201.147187,140.100187 C212.9505,162.814312 156.499875,233.6565 132.603187,214.869375 C137.489625,229.28325 155.250375,223.39275 155.250375,223.39275 C152.88525,228.903937 129.68025,268.687125 160.181438,315.945 C110.469188,235.508437 226.739625,156.611437 233.098688,154.090125 C231.581438,143.201625 215.337938,140.055562 215.337938,140.055562 C223.013438,130.1265 246.664688,121.737 244.254938,122.317125 L244.254938,122.317125 Z M105.315,162.70275 C101.588813,165.848813 91.6820625,173.836688 80.548125,182.761687 C65.8628653,194.521444 51.1589092,206.257834 36.4363125,217.970812 C42.795375,229.3725 57.7224375,232.473937 66.446625,233.321812 C70.4405625,233.723437 73.1180625,233.634187 73.1180625,233.634187 L115.601062,226.114875 C115.601062,226.114875 54.264,212.14725 105.315,162.70275 L105.315,162.70275 Z" id="Shape" fill="#111111"></path>
                <polygon id="Shape" fill="#8C2633" points="287.608125 137.489625 296.8455 150.631687 291.624375 137.6235 296.8455 124.191375"></polygon>
                <path d="M324.513,170.244375 L324.557625,170.244375 C325.070812,168.147 327.391312,157.570875 324.178312,150.319313 C321.38925,158.820375 316.39125,163.483688 314.204625,165.224063 L301.709625,159.177375 L301.776563,159.222 L327.346688,175.777875 L311.727938,179.437125 L311.683313,179.437125 L297.715688,174.260625 L297.760312,174.260625 L297.671062,174.216 C298.496625,169.998938 299.813063,160.73925 296.8455,154.0455 C294.877524,160.248981 291.251204,165.796478 286.358625,170.088188 L272.881875,165.067875 L261.547125,135.4815 L302.691375,68.99025 C305.034188,71.444625 307.5555,74.7915 309.60825,79.209375 C311.638688,72.6718125 309.6975,64.2823125 308.35875,59.8644375 L313.35675,51.7873125 L325.070812,43.3085625 L327.257437,54.308625 L307.711687,108.461063 L323.196562,75.05925 C323.865937,75.59475 325.293937,76.710375 328.484625,83.314875 C330.113437,78.09375 327.63675,66.4689375 327.63675,66.4689375 L332.166187,57.834 L325.472437,41.14425 L306.529125,51.6088125 L244.232625,122.317125 C246.620062,121.714688 222.991125,130.104188 215.271,140.03325 C215.271,140.03325 231.5145,143.179313 233.03175,154.067813 C226.695,156.589125 110.424562,235.486125 160.1145,315.922687 C164.443125,322.683375 169.887375,329.60025 176.715,336.606375 C166.569598,317.423064 162.426068,295.632609 164.822437,274.064438 C168.147,243.875625 182.828625,223.415063 182.828625,223.415063 C182.828625,223.415063 182.360062,268.218563 200.700937,293.833313 C202.753687,296.689313 205.00725,299.322188 207.573187,301.598063 C207.573187,301.598063 197.354062,283.123313 204.82875,249.98925 C208.178116,235.745182 213.518724,222.044383 220.692937,209.29125 C215.494125,233.723438 237.538875,251.127188 242.9385,255.946688 C229.796437,228.770063 241.220437,202.709063 241.220437,202.709063 L300.839437,204.940313 L321.500812,184.702875 L323.062687,195.613688 L334.509,174.818438 L324.513,170.244375 L324.513,170.244375 Z M36.4363125,217.970813 C42.795375,229.3725 57.7224375,232.473938 66.446625,233.321813 C63.9253125,230.845125 55.5135,222.031688 58.10175,215.561063 C58.10175,215.561063 65.197125,221.139188 74.8584375,222.165563 C74.8584375,222.165563 66.84825,199.942313 80.5258125,182.761688 C60.5338125,198.804375 36.4363125,217.970813 36.4363125,217.970813 Z M199.47375,97.6618125 C200.388563,94.8058125 194.698875,95.3859375 194.698875,95.3859375 C198.625875,92.82 202.619813,91.30275 204.65025,90.6556875 C206.055938,88.9153125 207.2385,87.509625 207.840937,86.8625625 C205.051875,87.0856875 197.822625,88.6475625 183.609562,98.7774375 C188.833668,97.7700819 194.160076,97.3955103 199.47375,97.6618125 L199.47375,97.6618125 Z" id="Shape" fill="#E2D6B5"></path>
                <polygon id="Shape" fill="#111111" points="271.654687 111.741 252.644438 134.789813 269.133375 165.268687 257.954813 134.789813"></polygon>
            </g>
        </g>
    </g>
</svg>