<svg xmlns="http://www.w3.org/2000/svg" viewBox="0 0 24 16"><g fill="#FFF"><path d="M14.404,13.358c-0.175,0-0.315,0.141-0.315,0.315s0.141,0.315,0.315,0.315s0.315-0.141,0.315-0.315 S14.579,13.358,14.404,13.358z M14.404,13.922c-0.138,0-0.249-0.11-0.249-0.248c0-0.137,0.111-0.248,0.249-0.248 c0.137,0,0.247,0.111,0.247,0.248C14.651,13.812,14.541,13.922,14.404,13.922z"/><path d="M14.533,13.601c0-0.06-0.047-0.107-0.106-0.107h-0.152v0.361h0.067v-0.146h0.048l0.069,0.146h0.074 l-0.071-0.153C14.503,13.687,14.533,13.646,14.533,13.601z M14.427,13.64h-0.085v-0.078h0.085c0.021,0,0.039,0.018,0.039,0.039 S14.448,13.64,14.427,13.64z"/></g><path fill="#FFF" d="M19.017,7.431c0,0,0.195-0.856-0.741-1.56c0.008,0.745-0.315,1.054-0.315,1.054l-0.095-0.047l-0.209-0.562 l0.908-1.899c0.045,0.167,0.099,0.367,0.099,0.367l0.262-0.519c0,0,0.239-0.452,0.198-1.014l0.222-0.465l-0.129-1.88 c-0.091-0.366-0.376-0.635-0.741-0.751c-0.351-0.111-0.699-0.053-0.96,0.16l-3.982,3.079C11.507,3.47,9.926,4.366,8.949,5.988 L4.371,9.673c0.244,0.539,1.386,1.971,3.157,1.638l0.916-0.165c0,0,0.75,4.102,4.316,4.755c0,0-1.206-1.961-0.914-3.579 c0,0,0.823,2.37,2.408,2.037c-1.277-1.562-0.579-3.119-0.579-3.119s0.645,1.05,2.104,0.923c0,0-0.993-1.054-0.659-2.469 l2.403,0.088l1.254-0.525l0.852-1.546L19.017,7.431z"/><path fill="#111" d="M18.459,6.343c-0.038,0.443-0.44,0.858-0.44,0.858l-0.331-0.163l-0.273-0.733l1.184-2.474 c0.085,0.166,0.13,0.333,0.13,0.333c0.172-0.339,0.196-0.682,0.171-0.959l0.221-0.463l-0.123-1.801 c-0.06-0.242-0.295-0.482-0.589-0.575c-0.278-0.089-0.561-0.038-0.762,0.126l-4.032,3.118c-2.051,0.058-3.566,0.955-4.495,2.527 L4.653,9.73c0,0,0.828,1.568,2.729,1.381L8.61,10.89c0.132,0.57,0.868,3.862,3.716,4.659c-0.482-0.928-1.106-2.579-0.494-3.933 c0.815,2.618,2.011,2.545,2.011,2.545c-1.156-1.641-0.214-3.385-0.214-3.385c0.471,0.806,1.151,1.164,1.706,1.164 c0,0-0.814-1.072-0.385-2.476l2.533,0.093l1.137-0.477l0.697-1.269L18.77,7.563C18.941,6.79,18.459,6.343,18.459,6.343z"/><path fill="#8c2633" d="M18.544,7.63h0.002c0.023-0.093,0.127-0.568-0.017-0.893c-0.125,0.381-0.349,0.59-0.447,0.668l-0.56-0.271 l0.003,0.003l1.146,0.741l-0.7,0.164h-0.002L17.343,7.81c0.002,0,0.002,0,0.002,0l-0.004-0.002 c0.037-0.189,0.096-0.604-0.037-0.905c-0.129,0.391-0.35,0.618-0.47,0.719L16.23,7.398l-0.508-1.326l1.844-2.98 c0.105,0.11,0.218,0.26,0.31,0.458c0.091-0.293,0.004-0.669-0.056-0.867l0.224-0.362l0.525-0.38l0.098,0.493l-0.876,2.427 l0.694-1.497c0.03,0.024,0.094,0.074,0.237,0.37c0.073-0.234-0.038-0.755-0.038-0.755l0.203-0.387l-0.096-1.507 c-0.08,0.128-0.163,0.404-0.198,0.514c-0.169-1.16-0.619-0.299-0.73-0.993L17.49,0.895c-0.029,0.146-0.076,0.44-0.085,0.885 c0,0-0.262-0.275-0.345-0.537c-0.032,0.163-0.082,0.485-0.093,0.97c0,0-0.292-0.309-0.382-0.6c-0.035,0.182-0.088,0.533-0.1,1.057 c0,0-0.314-0.332-0.415-0.647c-0.04,0.201-0.097,0.586-0.111,1.159c0,0-0.366-0.388-0.466-0.745L13.64,3.87 c-0.123,0.146-0.702,0.735-0.914,1.62c0,0-0.001-0.625,0.049-0.817c-0.163,0.117-0.775,0.597-1.109,0.944 c0,0,0.04-0.63,0.299-0.989c-0.547,0.399-1.381,1.245-1.381,1.245c0.69-1.193,1.243-1.548,1.52-1.779 c-1.394,0.441-2.604,1.419-3.134,3.071c0,0,0.01-0.33,0.061-0.603L5.077,9.689c0,0,0.609,1.12,2.323,1.077l2.238-0.355 c0,0-0.223-0.598-0.201-1.02c0.272,0.942,0.742,1.292,0.742,1.292s-1.256,0.165-1.256,0.166c0.228,0.825,0.727,3.146,3,4.237 c-0.529-1.021-0.622-1.991-0.533-2.803c0.144-0.968,0.637-1.557,0.637-1.557c0.08,1.136,0.619,1.995,0.971,2.443 c0.092,0.128,0.193,0.246,0.308,0.348c0,0-0.458-0.828-0.123-2.313c0.029-0.084,0.284-0.796,0.545-1.057 c0.338,0.955,1.163,1.323,1.163,1.323c-0.589-1.218-0.077-2.386-0.077-2.386s2.651,0.099,2.672,0.1l0.996-0.418l0.513-0.932 L18.544,7.63z"/><g fill="#111"><path d="M14.947 5.482l2.792-3.169L14.803 5.32c0 0-.73.124-1.788.959.529 1.018-2.001 4.193-3.072 3.351.219.646 1.015.382 1.015.382-.106.247-1.146 2.03.221 4.148-2.228-3.605 2.983-7.141 3.268-7.254-.068-.488-.796-.629-.796-.629C13.995 5.832 15.055 5.456 14.947 5.482zM8.72 7.292C8.553 7.433 8.109 7.791 7.61 8.191 6.713 8.91 5.633 9.769 5.633 9.769c.285.511.954.65 1.345.688.179.018.299.014.299.014l1.904-.337C9.181 10.134 6.432 9.508 8.72 7.292z"/></g><path fill="#8c2633" d="M16.89 6.162L17.304 6.751 17.07 6.168 17.304 5.566z"/><g fill="#e2d6b5"><path d="M18.544 7.63h.002c.023-.094.127-.568-.017-.893-.125.381-.349.59-.447.668l-.56-.271.003.002 1.146.742-.7.164h-.002l0 0L17.343 7.81c.002 0 .002 0 .002 0l-.004-.002c.037-.189.096-.604-.037-.904-.129.389-.35.617-.47.719L16.23 7.398l-.508-1.326 1.844-2.98c.105.11.218.26.31.458.091-.293.004-.669-.056-.867l.224-.362.525-.38.098.493-.876 2.427.694-1.497c.03.024.094.074.237.37.073-.234-.038-.755-.038-.755l.203-.387-.3-.748-.849.469-2.792 3.169c.107-.027-.952.349-1.298.794 0 0 .728.141.796.629-.284.113-5.495 3.649-3.268 7.254.194.303.438.613.744.927-.529-1.021-.622-1.991-.533-2.803.149-1.353.807-2.27.807-2.27s-.021 2.008.801 3.156c.092.128.193.246.308.348 0 0-.458-.828-.123-2.313.118-.528.336-1.139.711-1.824-.233 1.095.755 1.875.997 2.091-.589-1.218-.077-2.386-.077-2.386s2.651.099 2.672.1l.926-.907.07.489.513-.932L18.544 7.63zM5.633 9.769c.285.511.954.65 1.345.688-.113-.111-.49-.506-.374-.796 0 0 .318.25.751.296 0 0-.359-.996.254-1.766C6.713 8.91 5.633 9.769 5.633 9.769zM12.94 4.377c.041-.128-.214-.102-.214-.102.176-.115.355-.183.446-.212.063-.078.116-.141.143-.17-.125.01-.449.08-1.086.534C12.488 4.378 12.769 4.363 12.94 4.377z"/></g><path fill="#111" d="M16.175 5.008L15.323 6.041 16.062 7.407 15.561 6.041z"/></svg>