<svg width="512" height="512" viewBox="0 0 512 512" xmlns="http://www.w3.org/2000/svg"><title>arizona-coyotes</title><g fill="none" fill-rule="evenodd"><g fill="#FFF"><path d="M310.14 376.05a7.028 7.028 0 1 0 0 14.057 7.028 7.028 0 0 0 0-14.057zm0 12.585a5.533 5.533 0 1 1 0-11.067c3.056 0 5.51 2.476 5.51 5.533a5.5 5.5 0 0 1-5.51 5.534z"/><path d="M313.018 381.472a2.365 2.365 0 0 0-2.366-2.387h-3.391v8.055h1.495v-3.258h1.07l1.54 3.258h1.652l-1.585-3.414a2.454 2.454 0 0 0 1.585-2.254zm-2.366.87h-1.896v-1.74h1.896c.469 0 .87.402.87.87 0 .469-.401.87-.87.87z"/></g><path d="M413.067 243.804s4.35-19.1-16.534-34.807c.179 16.622-7.028 23.517-7.028 23.517l-2.12-1.049-4.663-12.54 20.26-42.37 2.208 8.188 5.846-11.58s5.333-10.085 4.418-22.625l4.954-10.375-2.879-41.948c-2.03-8.166-8.39-14.168-16.533-16.757-7.832-2.476-15.597-1.182-21.42 3.57l-88.849 68.7c-45.227 1.696-80.503 21.688-102.302 57.88l-102.147 82.22c5.444 12.027 30.925 43.979 70.44 36.549l20.439-3.682s16.734 91.526 96.3 106.096c0 0-26.908-43.755-20.393-79.856 0 0 18.363 52.88 53.728 45.45-28.493-34.852-12.919-69.592-12.919-69.592s14.392 23.428 46.946 20.594c0 0-22.156-23.517-14.704-55.09l53.617 1.964 27.98-11.714 19.01-34.495-13.655-6.248z" fill="#FFF"/><path d="M400.616 219.528c-.847 9.885-9.817 19.144-9.817 19.144l-7.385-3.637-6.092-16.355 26.418-55.2c1.897 3.703 2.9 7.43 2.9 7.43 3.839-7.565 4.374-15.218 3.816-21.398l4.931-10.331-2.744-40.185c-1.339-5.4-6.582-10.755-13.142-12.83a18.006 18.006 0 0 0-17.002 2.812l-89.964 69.57c-45.763 1.294-79.567 21.309-100.295 56.384L92.57 295.1s18.475 34.986 60.89 30.813l27.4-4.93c2.946 12.717 19.368 86.17 82.914 103.953-10.755-20.706-24.678-57.544-11.023-87.755 18.185 58.414 44.87 56.785 44.87 56.785-25.792-36.615-4.774-75.528-4.774-75.528 10.51 17.984 25.682 25.972 38.065 25.972 0 0-18.162-23.919-8.59-55.246l56.517 2.076 25.37-10.644 15.552-28.314-12.205-5.534c3.815-17.247-6.94-27.22-6.94-27.22z" fill="#111"/><path d="M402.513 248.244h.045c.513-2.075 2.833-12.673-.38-19.925-2.789 8.501-7.787 13.165-9.973 14.905l-12.495-6.047.067.067 25.57 16.534-15.62 3.66h-.044l-13.967-5.177h.044l-.089-.045c.826-4.217 2.142-13.477-.825-20.193-2.879 8.724-7.81 13.79-10.487 16.043l-13.477-4.998-11.335-29.586 41.144-66.492c2.343 2.455 4.865 5.802 6.917 10.22 2.03-6.538.09-14.928-1.25-19.346l4.999-8.077 11.714-8.478 2.186 11-19.545 54.152 15.485-33.402c.669.536 2.097 1.651 5.288 8.256 1.628-5.221-.848-16.846-.848-16.846l4.53-8.635-2.143-33.625c-1.785 2.856-3.637 9.014-4.418 11.469-3.77-25.883-13.811-6.672-16.288-22.157l-8.322 6.449c-.647 3.257-1.696 9.817-1.897 19.746 0 0-5.846-6.136-7.698-11.982a128.788 128.788 0 0 0-2.075 21.644s-6.515-6.895-8.523-13.388a143.693 143.693 0 0 0-2.231 23.584s-7.007-7.407-9.26-14.436c-.893 4.485-2.164 13.075-2.477 25.86 0 0-8.166-8.657-10.397-16.622l-41.345 31.973c-2.745 3.258-15.664 16.4-20.394 36.147 0 0-.022-13.946 1.093-18.23-3.637 2.61-17.292 13.32-24.744 21.063 0 0 .892-14.057 6.671-22.067-12.205 8.903-30.814 27.78-30.814 27.78 15.396-26.62 27.735-34.54 33.915-39.695-31.103 9.84-58.101 31.662-69.927 68.522 0 0 .223-7.363 1.361-13.454l-88.223 69.77s13.588 24.99 51.831 24.031l49.936-7.92s-4.976-13.343-4.485-22.76c6.07 21.02 16.556 28.828 16.556 28.828l-28.025 3.704c5.088 18.408 16.222 70.195 66.938 94.538a108.216 108.216 0 0 1-11.893-62.542c3.213-21.598 14.213-34.74 14.213-34.74 1.785 25.347 13.812 44.513 21.666 54.51 2.053 2.855 4.306 5.488 6.872 7.764 0 0-10.219-18.475-2.744-51.609.647-1.874 6.336-17.76 12.16-23.584 7.542 21.308 25.95 29.52 25.95 29.52-13.143-27.177-1.719-53.238-1.719-53.238l59.62 2.231 22.223-9.327 11.446-20.795-10.063-4.552z" fill="#8C2633"/><path d="M322.255 200.317l62.296-70.708-65.51 67.093s-16.287 2.767-39.894 21.398c11.804 22.714-44.647 93.556-68.544 74.77 4.887 14.413 22.647 8.523 22.647 8.523-2.365 5.51-25.57 45.294 4.931 92.552C188.47 313.508 304.74 234.611 311.1 232.09c-1.518-10.888-17.761-14.034-17.761-14.034 7.675-9.93 31.327-18.319 28.917-17.739zm-138.94 40.386c-3.726 3.146-13.633 11.134-24.767 20.059a17741.027 17741.027 0 0 1-44.112 35.209c6.36 11.402 21.286 14.503 30.01 15.35 3.995.402 6.672.313 6.672.313l42.483-7.52s-61.337-13.967-10.286-63.411z" fill="#111"/><path fill="#8C2633" d="M365.608 215.49l9.238 13.142-5.222-13.008 5.221-13.433z"/><path d="M402.513 248.244h.045c.513-2.097 2.833-12.673-.38-19.925-2.789 8.501-7.787 13.165-9.973 14.905l-12.495-6.047.067.045 25.57 16.556-15.62 3.66h-.044l-13.967-5.177h.044l-.089-.045c.826-4.217 2.142-13.477-.825-20.17a35.7 35.7 0 0 1-10.487 16.042l-13.477-5.02-11.335-29.586 41.144-66.492c2.343 2.455 4.865 5.802 6.917 10.22 2.03-6.538.09-14.928-1.25-19.346l4.999-8.077 11.714-8.478 2.186 11-19.545 54.152 15.485-33.402c.669.536 2.097 1.651 5.288 8.256 1.628-5.221-.848-16.846-.848-16.846l4.53-8.635-6.695-16.69-18.943 10.465-62.296 70.708c2.387-.602-21.242 7.787-28.962 17.716 0 0 16.243 3.146 17.76 14.035-6.336 2.521-122.606 81.418-72.917 161.855 4.33 6.76 9.773 13.677 16.601 20.683a108.216 108.216 0 0 1-11.893-62.542c3.325-30.188 18.007-50.649 18.007-50.649s-.469 44.804 17.872 70.418c2.053 2.856 4.306 5.49 6.872 7.765 0 0-10.219-18.475-2.744-51.609a155.697 155.697 0 0 1 15.864-40.698c-5.199 24.432 16.846 41.836 22.246 46.656-13.143-27.177-1.719-53.238-1.719-53.238l59.62 2.231 20.66-20.237 1.563 10.91 11.446-20.795-9.996-4.574zm-288.077 47.727c6.36 11.402 21.286 14.503 30.01 15.35-2.52-2.476-10.933-11.29-8.344-17.76 0 0 7.095 5.578 16.756 6.605 0 0-8.01-22.224 5.668-39.404a15505.74 15505.74 0 0 1-44.09 35.209zm163.038-120.31c.915-2.855-4.775-2.275-4.775-2.275 3.927-2.566 7.92-4.083 9.951-4.73 1.406-1.74 2.589-3.146 3.19-3.793-2.788.223-10.017 1.785-24.23 11.914a66.268 66.268 0 0 1 15.864-1.115z" fill="#E2D6B5"/><path fill="#111" d="M349.655 189.741l-19.01 23.049 16.488 30.479-11.178-30.48z"/></g></svg>