<?xml version="1.0" encoding="UTF-8"?>
<svg width="512px" height="512px" viewBox="0 0 512 512" version="1.1" xmlns="http://www.w3.org/2000/svg" xmlns:xlink="http://www.w3.org/1999/xlink">
    <!-- Generator: Sketch 42 (36781) - http://www.bohemiancoding.com/sketch -->
    <title>atlantic</title>
    <desc>Created with Sketch.</desc>
    <defs>
        <linearGradient x1="83.1743864%" y1="89.7272241%" x2="16.8831567%" y2="1.72865038%" id="linearGradient-1">
            <stop stop-color="#939BA0" offset="0%"></stop>
            <stop stop-color="#98A0A4" offset="1.2%"></stop>
            <stop stop-color="#C1C5C7" offset="11.8%"></stop>
            <stop stop-color="#DADCDD" offset="20.2%"></stop>
            <stop stop-color="#E3E4E5" offset="25.3%"></stop>
            <stop stop-color="#E3E4E5" offset="75.3%"></stop>
            <stop stop-color="#DBDDDE" offset="80.1%"></stop>
            <stop stop-color="#C5C9CB" offset="87.5%"></stop>
            <stop stop-color="#A2A9AD" offset="96.6%"></stop>
            <stop stop-color="#939BA0" offset="100%"></stop>
        </linearGradient>
        <linearGradient x1="-9.73183593%" y1="50.0006918%" x2="118.559081%" y2="50.0006918%" id="linearGradient-2">
            <stop stop-color="#FFFFFF" offset="11.2%"></stop>
            <stop stop-color="#DCDEE0" offset="23.7%"></stop>
            <stop stop-color="#A7AEB2" offset="44%"></stop>
            <stop stop-color="#939BA0" offset="53.9%"></stop>
        </linearGradient>
        <linearGradient x1="50.0033979%" y1="100%" x2="50.0033979%" y2="0%" id="linearGradient-3">
            <stop stop-color="#FFFFFF" offset="0%"></stop>
            <stop stop-color="#FFFFFF" offset="34.8%"></stop>
            <stop stop-color="#939BA0" offset="56.2%"></stop>
            <stop stop-color="#939BA0" offset="100%"></stop>
        </linearGradient>
        <linearGradient x1="-0.00137215621%" y1="50%" x2="100%" y2="50%" id="linearGradient-4">
            <stop stop-color="#FFFFFF" offset="15.2%"></stop>
            <stop stop-color="#FAFAFA" offset="21.2%"></stop>
            <stop stop-color="#EBECED" offset="28.6%"></stop>
            <stop stop-color="#D2D5D7" offset="36.7%"></stop>
            <stop stop-color="#AFB5B8" offset="45.3%"></stop>
            <stop stop-color="#939BA0" offset="51.1%"></stop>
        </linearGradient>
        <linearGradient x1="0.00209292591%" y1="50%" x2="100%" y2="50%" id="linearGradient-5">
            <stop stop-color="#FFFFFF" offset="24.7%"></stop>
            <stop stop-color="#FAFAFA" offset="33.7%"></stop>
            <stop stop-color="#EBECED" offset="44.8%"></stop>
            <stop stop-color="#D2D5D7" offset="57%"></stop>
            <stop stop-color="#AFB5B9" offset="69.9%"></stop>
            <stop stop-color="#939BA0" offset="78.6%"></stop>
        </linearGradient>
        <linearGradient x1="0%" y1="50.0005639%" x2="100%" y2="50.0005639%" id="linearGradient-6">
            <stop stop-color="#FFFFFF" offset="19.7%"></stop>
            <stop stop-color="#FAFBFB" offset="32.7%"></stop>
            <stop stop-color="#EDEEEF" offset="47.3%"></stop>
            <stop stop-color="#D7DADC" offset="62.6%"></stop>
            <stop stop-color="#B8BDC0" offset="78.3%"></stop>
            <stop stop-color="#939BA0" offset="93.3%"></stop>
        </linearGradient>
        <linearGradient x1="0%" y1="50%" x2="100%" y2="50%" id="linearGradient-7">
            <stop stop-color="#FFFFFF" offset="24.7%"></stop>
            <stop stop-color="#FAFAFA" offset="33.7%"></stop>
            <stop stop-color="#EBECED" offset="44.8%"></stop>
            <stop stop-color="#D2D5D7" offset="57%"></stop>
            <stop stop-color="#AFB5B8" offset="69.9%"></stop>
            <stop stop-color="#939BA0" offset="78.6%"></stop>
        </linearGradient>
        <linearGradient x1="0%" y1="50%" x2="100%" y2="50%" id="linearGradient-8">
            <stop stop-color="#FFFFFF" offset="38.8%"></stop>
            <stop stop-color="#FAFAFA" offset="46.7%"></stop>
            <stop stop-color="#EBECED" offset="56.6%"></stop>
            <stop stop-color="#D2D5D7" offset="67.3%"></stop>
            <stop stop-color="#AFB5B8" offset="78.8%"></stop>
            <stop stop-color="#939BA0" offset="86.5%"></stop>
        </linearGradient>
    </defs>
    <g id="NHL" stroke="none" stroke-width="1" fill="none" fill-rule="evenodd">
        <g id="atlantic" fill-rule="nonzero">
            <g id="atl" transform="translate(90.000000, 75.000000)">
                <path d="M308.522221,275.790611 L308.522221,283 L306.889743,283 L306.889743,275.790611 L305,275.790611 L305,274 L310.411964,274 L310.411964,275.790611 L308.522221,275.790611 Z M317.368074,283 L317.368074,277.687915 L315.993415,280.997223 L314.551402,280.997223 L313.176742,277.687915 L313.176742,283 L311.544816,283 L311.544816,274 L313.176742,274 L315.272408,278.806056 L317.368074,274 L319,274 L319,283 L317.368074,283 L317.368074,283 Z" id="Shape" fill="#111111"></path>
                <path d="M327.310243,109.323813 C316.510106,105.617377 299.37244,97.0056597 299.365658,89.6762032 L299.365658,26 L33.6456474,26 L33.6377339,192.877025 C33.6320815,200.199718 16.4938511,208.813689 5.69032209,212.524071 L0,214.477616 L5.69088733,216.431161 C16.4938511,220.138725 33.6320815,228.75326 33.6377339,236.084971 L33.6456474,284.880754 L166.764817,363 L299.365658,284.858773 L299.365658,132.883022 C299.37244,125.560329 316.50954,116.94354 327.310243,113.230339 L333,111.275667 L327.310243,109.323813 L327.310243,109.323813 Z" id="Shape" fill="#FFFFFF"></path>
                <path d="M298.59126,88.0659742 L298.59126,26 L36.4195046,26 L36.4195046,192.032784 L36.4115732,192.032784 C36.4030752,203.654681 7,213.792328 7,213.792328 C7,213.792328 36.4030752,223.935653 36.4115732,235.558686 L36.4195046,235.558686 L36.4195046,283.526551 L167.762305,361 L298.59126,283.508382 L298.59126,131.591309 C298.602024,119.971115 328,109.827222 328,109.827222 C328,109.827222 298.602024,99.6878716 298.59126,88.0659742 L298.59126,88.0659742 Z" id="Shape" fill="#FFB81C"></path>
                <path d="M47.5673934,37 L47.5504897,190.459185 C47.5504897,205.640184 35.2288407,213.888432 26,213.888432 C35.2288407,213.888432 47.5510532,222.173569 47.5510532,235.560656 L47.5673934,276 L54.477614,270.608617 L54.477614,45.0518883 L280.084708,45.0518883 L287,37 L47.5673934,37 Z" id="Shape" fill="#8D9093"></path>
                <path d="M285.447597,88.2855279 L285.447597,37 L278.531873,45.0444772 L278.531873,270.520735 L165.949195,337.51285 L52.9106532,270.521303 L46,275.913598 L165.9661,347 L285.447597,275.910195 L285.447597,133.373745 C285.447597,118.198162 297.773399,109.946049 307,109.946049 C297.773399,109.946049 285.447597,101.671243 285.447597,88.2860952 L285.447597,88.2855279 Z" id="Shape" fill="#010101"></path>
                <g id="Group" transform="translate(63.000000, 75.000000)" fill="#010101">
                    <path d="M105.910894,188.512713 L120.281496,183.615866 L120.281496,160.679587 L106.989789,165.204651 L105.910894,188.512713 Z M126.719913,171.429457 L133.326309,169.179432 L133.326309,219.978966 L146.701442,215.425478 L146.701442,151.681189 L126.719913,158.484703 L126.719913,171.429457 Z M153.138168,162.43447 L175.075686,154.960724 L150.302829,214.197571 L165.870136,208.894832 L196.572401,134.692868 L153.138168,149.489716 L153.138168,162.43447 Z M0.347794038,155.815711 L0.347794038,192.869509 L207.904737,122.175039 L207.904737,85.1195349 L0.347794038,155.815142 L0.347794038,155.815711 Z M43.3006396,168.632558 L35.9648347,165.757209 L28.6239566,173.634574 L31.4282927,163.976176 L24.0874146,161.101964 L33.1582439,158.0123 L35.9653984,148.359587 L38.768607,156.100517 L47.8321084,153.014832 L40.4940488,160.888786 L43.3006396,168.632558 L43.3006396,168.632558 Z M90.817084,152.448062 L83.476206,149.568165 L76.1432195,157.444961 L78.9447371,147.793385 L71.6089322,144.914057 L80.6775068,141.827235 L83.476206,132.17168 L86.2799783,139.916589 L95.3541897,136.829767 L88.0183848,144.700879 L90.817084,152.447494 L90.817084,152.448062 Z M138.333528,136.263566 L130.997724,133.385943 L123.662482,141.262739 L126.461182,131.610026 L119.12594,128.730129 L128.193951,125.639328 L130.997724,115.986615 L133.801496,123.73323 L142.87007,120.64186 L135.529756,128.518656 L138.333528,136.263566 L138.333528,136.263566 Z M185.85561,120.074522 L178.514732,117.200879 L171.173854,125.07199 L173.983263,115.422119 L166.647458,112.547907 L175.713214,109.455401 L178.514732,99.8038243 L181.318504,107.545323 L190.389897,104.458501 L183.054092,112.335297 L185.85561,120.074522 L185.85561,120.074522 Z" id="Shape"></path>
                    <path d="M36.4535501,41.8994832 L8.76136585,140.622067 L29.1639675,133.672455 L35.7534526,109.263256 L55.5145799,102.532506 L62.1074472,122.451886 L80.9762602,116.022997 L53.2812575,36.1669767 L36.4535501,41.8994832 L36.4535501,41.8994832 Z M50.1223631,86.2365891 L41.1490515,89.2921447 L45.6348618,72.6795866 L50.1217995,86.2365891 L50.1223631,86.2365891 Z M110.170667,106.079793 L110.170667,34.9237209 L130.984759,27.8354005 L130.984759,9.70160207 L70.6191003,30.2616537 L70.6191003,48.3948837 L91.4331924,41.3065633 L91.4331924,112.462636 L110.170667,106.079793 Z M158.749659,71.4005168 L158.749659,0.244444444 L140.015566,6.62444444 L140.015566,95.9131783 L196.912867,76.5338501 L196.912867,58.4006202 L158.749659,71.4005168 Z" id="Shape"></path>
                </g>
                <g id="Group" transform="translate(64.000000, 0.000000)">
                    <path d="M81.7546289,88.3909333 C79.8579187,88.3909332 78.320154,89.9129819 78.319522,91.7909333 C78.319522,93.6671667 79.8585094,95.1909333 81.7546289,95.1909333 C83.6267176,95.1570905 85.1264656,93.6448158 85.1264656,91.7909333 C85.1264656,89.9370509 83.6267176,88.4247762 81.7546289,88.3909333 Z M81.7546289,94.4616333 C81.0390537,94.4622354 80.3526119,94.1810522 79.8466236,93.6800683 C79.3406354,93.1790843 79.0566435,92.4994314 79.0572516,91.7909333 C79.0567951,91.0826374 79.3408905,90.4032464 79.8468953,89.9025649 C80.3529002,89.4018834 81.0392583,89.1210303 81.7546289,89.1219333 C82.4698539,89.1213316 83.1559764,89.4022996 83.6618243,89.902932 C84.1676723,90.4035645 84.4517381,91.0827818 84.451434,91.7909333 C84.4518897,92.4992871 84.1679275,93.1787664 83.6620961,93.6797013 C83.1562647,94.1806363 82.4700584,94.4619343 81.7546289,94.4616333 L81.7546289,94.4616333 Z M83.1654151,91.0027 C83.1652634,90.6969132 83.042392,90.4037186 82.8238473,90.1876542 C82.6053025,89.9715897 82.3089984,89.850366 82.0001572,89.8506667 L80.3455597,89.8506667 L80.3455597,93.7323333 L81.081,93.7323333 L81.081,92.1558667 L81.6086855,92.1558667 L82.3521384,93.7317667 L83.1654151,93.7317667 L82.3899119,92.0884333 C82.8540399,91.9249758 83.1644129,91.490442 83.1654151,91.0027 L83.1654151,91.0027 Z M82.0001572,91.4271333 L81.081,91.4271333 L81.081,90.5777 L82.0001572,90.5777 C82.2365283,90.5777 82.4294025,90.7681 82.4294025,91.0027 C82.4287723,91.2370703 82.2368692,91.4268221 82.0001572,91.4271333 Z M6.26984277,36.9007667 C6.26984277,47.4385 0.843037736,49.8360667 0.843037736,61.5377333 C0.843037736,78.3983333 14.0099937,89.4290667 26.2457736,92.5463 C32.4280503,94.0366333 34.2944088,94.1380667 39.8774591,95.4975 C40.3353208,95.9831333 45.5732579,101.569333 45.5732579,101.569333 C45.5732579,101.569333 50.8117673,95.9831333 51.2690566,95.4975 C56.8503899,94.1375 58.7184654,94.0366333 64.9007421,92.5463 C77.1353774,89.4296333 90.3046226,78.3983333 90.3046226,61.5377333 C90.3046226,49.8360667 84.8755283,47.4385 84.8755283,36.9007667 C84.8755283,33.0956 85.6882327,29.3403 87.2901761,25.7408333 L90.7590503,17.9469 L82.5845031,15.5612333 C80.0925912,14.8313667 78.2594277,12.9194333 77.136522,9.8804 L73.5239937,0.0940666667 L65.4667736,6.698 C63.3319937,8.45013333 61.1685975,9.33753333 59.0349623,9.33753333 C56.1813396,9.33753333 52.9345283,7.96393333 50.7631195,5.83666667 L45.5732579,0.752533333 L40.3833962,5.83666667 C38.2119874,7.96393333 34.9646038,9.33753333 32.1138428,9.33753333 C29.9779182,9.33753333 27.8139497,8.44956667 25.6785975,6.698 L17.620805,0.0940666667 L14.0099937,9.8804 C12.8899497,12.9194333 11.0556415,14.8313667 8.56144025,15.5612333 L0.388610063,17.9469 L3.85691195,25.7408333 C5.45771069,29.3403 6.26984277,33.0956 6.26984277,36.9007667 L6.26984277,36.9007667 Z" id="Shape" fill="#010101"></path>
                    <path d="M82.206195,16.83 C79.2850377,15.9771667 77.1554088,13.7904 75.8802642,10.3343 L72.9201887,2.30973333 L66.3218302,7.71913333 C64.1504214,9.4996 61.669956,10.6629667 59.0355346,10.6629667 C55.5025597,10.6629667 52.0073585,8.9165 49.8233585,6.7779 L45.5738302,2.61573333 L41.3243019,6.7779 C39.1397296,8.9165 35.6451006,10.6629667 32.1144151,10.6629667 C29.4782767,10.6629667 26.9960943,9.4996 24.8269748,7.71856667 L18.228044,2.30973333 L15.2673962,10.3337333 C13.9911069,13.7904 11.863195,15.9777333 8.94203774,16.83 L2.2263522,18.7912333 L5.07997484,25.2070333 C6.5182327,28.4387333 7.60737107,32.4110667 7.60737107,36.9007667 C7.60737107,47.8595333 2.17999371,50.0361 2.17999371,61.5377333 C2.17999371,65.0454 2.78208176,68.3264 3.86320755,71.3439 C7.52209434,81.5705333 16.6787547,88.7422667 26.5811572,91.2645 C32.9168176,92.8500333 35.8700252,93.007 40.5934403,94.3137333 C41.2092642,94.9552 45.5738302,99.6251 45.5738302,99.6251 C45.5738302,99.6251 49.9383962,94.9552 50.5542201,94.3137333 C55.2782075,93.007 58.2285535,92.8500333 64.5693648,91.2650667 C77.3877736,87.9976667 88.9676667,76.9363333 88.9676667,61.5377333 C88.9676667,55.9951667 87.7045409,52.6172667 86.4002075,49.3782 C84.9962893,45.8977333 83.5385723,42.5793333 83.5385723,36.9007667 C83.5385723,32.4110667 84.628283,28.4387333 86.0665409,25.2070333 L88.9207358,18.7912333 L82.2073396,16.8294333 L82.206195,16.83 Z" id="Shape" fill="#FFFFFF"></path>
                    <path d="M10.4878931,40.0814667 C9.59449057,48.8166333 5.22877987,52.3192 5.22877987,61.5377333 C5.22877987,72.8484 13.0559245,84.7195 27.3400629,88.2957333 C34.126717,89.9957333 38.8135031,90.4286667 42.2606289,91.6583333 C42.7030377,92.0697333 45.5732579,95.1512667 45.5732579,95.1512667 C45.5732579,95.1512667 48.441761,92.0697333 48.8841698,91.6583333 C52.3347296,90.4286667 57.0197987,89.9957333 63.8058805,88.2963 C78.0905912,84.7195 85.9165912,72.8489667 85.9165912,61.5377333 C85.9165912,51.2703 80.4983711,48.0969667 80.4983711,36.8803667 C80.4983711,28.1367 84.7135597,20.7502 84.7135597,20.7502 C84.7135597,20.7502 74.3532956,19.8548667 71.5448868,7.38593333 C71.5448868,7.38593333 65.3322767,13.7212667 59.0349623,13.7212667 C50.9159308,13.7212667 45.5732579,6.88896667 45.5732579,6.88896667 C45.5732579,6.88896667 40.2323019,13.7212667 32.1138428,13.7212667 C25.8136667,13.7212667 19.6010566,7.38593333 19.6010566,7.38593333 C16.7932201,19.8548667 6.43238365,20.7502 6.43238365,20.7502 C6.43238365,20.7502 10.6492893,28.1361333 10.6492893,36.8803667 C10.6496538,37.949591 10.5957873,39.0181589 10.4878931,40.0820333 L10.4878931,40.0814667 Z" id="Shape" fill="#010101"></path>
                    <path d="M28.1001132,85.3281 C35.6548302,87.2264333 40.5928679,87.4423333 43.9117925,89.0273 C43.9117925,89.0273 45.1171132,90.1209667 45.5732579,90.6236 C46.0305472,90.1209667 47.2375849,89.0273 47.2375849,89.0273 C50.5519308,87.4423333 55.4916855,87.2264333 63.0464025,85.3281 C72.5842327,82.9311 82.8706667,74.6118667 82.8706667,61.5377333 C82.8706667,52.1871667 77.4495849,48.7548667 77.4495849,36.8803667 C77.4495849,28.8779 80.506956,22.7091667 80.506956,22.7091667 C80.506956,22.7091667 73.4558868,21.2993 70.1707296,12.4627 C70.1707296,12.4627 65.4908113,16.7863667 59.0349623,16.7863667 C50.9445472,16.7863667 45.5732579,11.1627667 45.5732579,11.1627667 C45.5732579,11.1627667 40.2008239,16.7869333 32.1138428,16.7869333 C25.6557044,16.7869333 20.9752138,12.4632667 20.9752138,12.4632667 C17.6912013,21.2993 10.6395597,22.7091667 10.6395597,22.7091667 C10.6395597,22.7091667 13.6969308,28.8779 13.6969308,36.8803667 C13.6969308,48.7548667 8.27527673,52.1871667 8.27527673,61.5377333 C8.27527673,74.6118667 18.5634277,82.9316667 28.1006855,85.3281 L28.1001132,85.3281 Z" id="Shape" fill="url(#linearGradient-1)"></path>
                    <g transform="translate(11.446541, 15.300000)" id="Shape" fill="#010101">
                        <path d="M16.8287044,66.5232667 C17.0547736,66.5873 17.2808428,66.6479333 17.5074843,66.7051667 C23.4888742,68.2130667 30.8083648,68.9894 33.0192642,70.2355 C33.5171887,70.5970333 34.126717,71.2385 34.126717,71.2385 C34.126717,71.2385 34.735673,70.5970333 35.2341698,70.2355 C37.4450692,68.9894 44.7634151,68.2130667 50.746522,66.7051667 C59.0372516,64.6181333 67.9638365,57.3285333 67.9638365,46.2371667 C67.9638365,40.7104667 65.5154214,37.0730333 63.9077547,31.5185667 L16.8287044,66.5232667 Z M0.913433962,41.4692333 L50.3693585,4.69823333 C49.4491815,4.84096305 48.5192488,4.91314418 47.5878491,4.91413333 C41.5452201,4.91413333 36.826956,2.30236667 34.126717,0.339433333 C31.4276226,2.30236667 26.7076415,4.91413333 20.6673019,4.91413333 C16.679327,4.91413333 13.284283,3.5768 10.891956,2.25193333 C8.66274214,5.93186667 5.86921384,8.07103333 3.64286164,9.27973333 C4.5986478,12.1164667 5.71239623,16.5013333 5.71239623,21.5803667 C5.71239623,31.3542333 2.33967296,35.9363 0.913433962,41.4692333 L0.913433962,41.4692333 Z M12.4475409,64.7972 L62.9599811,27.2413667 C62.6984277,25.5544 62.5421824,23.6872333 62.5421824,21.5803667 C62.5421824,16.5013333 63.6524969,12.1170333 64.6105723,9.27973333 C62.702434,8.24556667 60.3793585,6.52686667 58.3538931,3.74396667 L0.302761006,46.9075333 C0.579767296,55.3962 6.1181761,61.5796667 12.4475409,64.7972 L12.4475409,64.7972 Z"></path>
                    </g>
                    <g transform="translate(21.748428, 27.766667)" id="Shape" fill="#D1D3D3">
                        <path d="M11.5610063,34.476 L6.13706289,26.2519667 L0.115037736,30.7303333 C0.115037736,30.7303333 2.22349057,30.7881333 2.22349057,32.9760333 L2.22349057,48.4630333 L6.47473585,45.3021667 L6.47473585,34.3524667 L11.3194843,41.6976 L15.8093899,38.3599333 L15.8093899,19.0615333 L11.5610063,22.219 L11.5610063,34.476 L11.5610063,34.476 Z M28.7926289,16.5404333 L23.9971006,20.1042 L23.9971006,12.971 L17.5240818,17.7854 C17.5240818,17.7854 19.6308176,17.8437667 19.6308176,20.0328 L19.6308176,35.5181 L23.997673,32.2711 L23.997673,25.2144 L28.7926289,21.6500667 L28.7926289,28.7090333 L32.9488679,25.6178667 L32.9488679,6.3172 L28.7926289,9.41063333 L28.7926289,16.541 L28.7926289,16.5404333 Z M40.9419874,14.7480667 L40.9419874,0.374566667 L34.4661069,5.18953333 C34.4661069,5.18953333 36.5739874,5.24733333 36.5739874,7.4341 L36.5739874,22.9222333 L48.6294843,13.9575667 C48.3696478,10.8692333 48.6294843,9.03323333 48.6294843,9.03323333 L40.9419874,14.7480667 L40.9419874,14.7480667 Z"></path>
                    </g>
                    <g transform="translate(4.006289, 36.833333)" id="Shape" fill="#FFFFFF">
                        <path d="M1.22249057,24.7044 C1.22249057,15.4858667 5.58762893,11.9833 6.4821761,3.24813333 C5.25453459,10.9009667 0.13163522,17.1739667 0.13163522,24.7044 C0.13163522,27.5989333 0.535698113,30.2384667 1.26484277,32.6360333 C4.48418239,43.2372333 14.0592138,49.1362333 23.3337736,51.4629667 C9.04963522,47.8861667 1.22249057,36.0156333 1.22249057,24.7044 Z M80.1297925,12.6168333 C78.3939245,8.44616667 76.4920818,4.6784 76.4920818,0.0470333333 C76.4920818,11.2636333 81.9103019,14.4369667 81.9103019,24.7044 C81.9103019,36.0150667 74.0843019,47.8861667 59.7995912,51.4624 C72.682673,48.2380667 82.9238931,38.8965667 82.9238931,24.7044 C82.9238931,19.8939667 81.5846478,16.1137333 80.1297925,12.6174 L80.1297925,12.6168333 Z"></path>
                    </g>
                    <path d="M82.206195,16.83 C79.2850377,15.9771667 77.1554088,13.7904 75.8802642,10.3343 L72.9201887,2.30973333 L71.5460314,7.38593333 C74.3538679,19.8548667 84.7141321,20.7502 84.7141321,20.7502 L88.9207358,18.7912333 L82.2073396,16.8294333 L82.206195,16.83 Z" id="Shape" fill="#D1D3D3"></path>
                    <path d="M7.60679874,36.9007667 C7.60679874,47.8595333 2.17942138,50.0361 2.17942138,61.5377333 C2.17942138,65.0454 2.78150943,68.3264 3.86263522,71.3439 C4.21075704,70.6381853 4.68815039,70.0025761 5.27055975,69.4693667 C4.54198742,67.0718 4.13792453,64.4317 4.13792453,61.5377333 C4.13792453,54.0073 9.26025157,47.7337333 10.4878931,40.0814667 C10.5886226,39.0864 10.6492893,38.0278667 10.6492893,36.8803667 C10.6492893,28.1367 6.43295597,20.7502 6.43295597,20.7502 L2.2263522,18.7912333 L5.07940252,25.2070333 C6.51766038,28.4387333 7.60679874,32.4110667 7.60679874,36.9007667 L7.60679874,36.9007667 Z" id="Shape" fill="url(#linearGradient-2)"></path>
                    <path d="M80.4983711,36.8803667 C80.4983711,41.5117333 82.4002138,45.2795 84.1360818,49.4501667 L86.3996352,49.3782 C84.995717,45.8977333 83.538,42.5793333 83.538,36.9007667 C83.538,32.4110667 84.6277107,28.4387333 86.0659686,25.2070333 L88.9201635,18.7912333 L84.7135597,20.7502 C84.7135597,20.7502 80.4983711,28.1361333 80.4983711,36.8803667 L80.4983711,36.8803667 Z" id="Shape" fill="url(#linearGradient-3)"></path>
                    <path d="M42.2606289,91.6583333 C38.8135031,90.4286667 34.1272893,89.9957333 27.3400629,88.2963 C18.0655031,85.969 8.4904717,80.07 5.27113208,69.4693667 C4.6887029,70.0025585 4.21130661,70.6381716 3.86320755,71.3439 C7.52152201,81.5705333 16.6787547,88.7422667 26.5805849,91.2645 C32.9162453,92.8500333 35.8694528,93.007 40.5928679,94.3137333 C41.2086918,94.9552 45.5732579,99.6251 45.5732579,99.6251 L45.5732579,95.1512667 C45.5732579,95.1512667 42.7030377,92.0697333 42.2606289,91.6589 L42.2606289,91.6583333 Z" id="Shape" fill="url(#linearGradient-4)"></path>
                    <path d="M32.1138428,13.7212667 C40.2323019,13.7212667 45.5732579,6.88896667 45.5732579,6.88896667 L45.5732579,2.61573333 L41.3237296,6.7779 C39.1391572,8.9165 35.6445283,10.6629667 32.1138428,10.6629667 C29.4777044,10.6629667 26.995522,9.4996 24.8264025,7.71913333 L18.2274717,2.30973333 L19.6010566,7.38593333 C19.6010566,7.38593333 25.814239,13.7212667 32.1138428,13.7212667 Z" id="Shape" fill="url(#linearGradient-5)"></path>
                    <path d="M86.9301824,61.5377333 C86.9301824,75.7299 76.6889623,85.0714 63.8058805,88.2957333 C57.0197987,89.9957333 52.3347296,90.4286667 48.8841698,91.6583333 C48.441761,92.0697333 45.5732579,95.1512667 45.5732579,95.1512667 L45.5732579,99.6251 C45.5732579,99.6251 49.9378239,94.9546333 50.5536478,94.3137333 C55.2776352,93.007 58.2279811,92.8500333 64.5687925,91.2645 C77.3872013,87.9976667 88.9670943,76.9363333 88.9670943,61.5371667 C88.9670943,55.9951667 87.7039686,52.6172667 86.3996352,49.3782 L84.1360818,49.4501667 C85.5909371,52.9470667 86.9301824,56.7273 86.9301824,61.5371667 L86.9301824,61.5377333 Z" id="Shape" fill="url(#linearGradient-6)"></path>
                    <path d="M59.0349623,13.7212667 C65.3328491,13.7212667 71.5448868,7.38593333 71.5448868,7.38593333 L72.9196164,2.30973333 L66.3212579,7.71913333 C64.1498491,9.4996 61.6688113,10.6629667 59.0349623,10.6629667 C55.5019874,10.6629667 52.0067862,8.9165 49.8227862,6.7779 L45.5732579,2.61573333 L45.5732579,6.88896667 C45.5732579,6.88896667 50.9165031,13.7212667 59.0343899,13.7212667 L59.0349623,13.7212667 Z" id="Shape" fill="url(#linearGradient-7)"></path>
                    <path d="M19.6010566,7.38593333 L18.2274717,2.30973333 L15.2668239,10.3337333 C13.9905346,13.7904 11.8626226,15.9777333 8.94146541,16.83 L2.22577987,18.7912333 L6.43238365,20.7502 C6.43238365,20.7502 16.7932201,19.8548667 19.6010566,7.38593333 L19.6010566,7.38593333 Z" id="Shape" fill="url(#linearGradient-8)"></path>
                </g>
            </g>
        </g>
    </g>
</svg>