<svg width="512" height="512" viewBox="0 0 512 512" xmlns="http://www.w3.org/2000/svg"><title>atlantic</title><defs><linearGradient x1="83.174%" y1="89.727%" x2="16.883%" y2="1.729%" id="a"><stop stop-color="#939BA0" offset="0%"/><stop stop-color="#98A0A4" offset="1.2%"/><stop stop-color="#C1C5C7" offset="11.8%"/><stop stop-color="#DADCDD" offset="20.2%"/><stop stop-color="#E3E4E5" offset="25.3%"/><stop stop-color="#E3E4E5" offset="75.3%"/><stop stop-color="#DBDDDE" offset="80.1%"/><stop stop-color="#C5C9CB" offset="87.5%"/><stop stop-color="#A2A9AD" offset="96.6%"/><stop stop-color="#939BA0" offset="100%"/></linearGradient><linearGradient x1="-9.732%" y1="50.001%" x2="118.559%" y2="50.001%" id="b"><stop stop-color="#FFF" offset="11.2%"/><stop stop-color="#DCDEE0" offset="23.7%"/><stop stop-color="#A7AEB2" offset="44%"/><stop stop-color="#939BA0" offset="53.9%"/></linearGradient><linearGradient x1="50.003%" y1="100%" x2="50.003%" y2="0%" id="c"><stop stop-color="#FFF" offset="0%"/><stop stop-color="#FFF" offset="34.8%"/><stop stop-color="#939BA0" offset="56.2%"/><stop stop-color="#939BA0" offset="100%"/></linearGradient><linearGradient x1="-.001%" y1="50%" y2="50%" id="d"><stop stop-color="#FFF" offset="15.2%"/><stop stop-color="#FAFAFA" offset="21.2%"/><stop stop-color="#EBECED" offset="28.6%"/><stop stop-color="#D2D5D7" offset="36.7%"/><stop stop-color="#AFB5B8" offset="45.3%"/><stop stop-color="#939BA0" offset="51.1%"/></linearGradient><linearGradient x1=".002%" y1="50%" y2="50%" id="e"><stop stop-color="#FFF" offset="24.7%"/><stop stop-color="#FAFAFA" offset="33.7%"/><stop stop-color="#EBECED" offset="44.8%"/><stop stop-color="#D2D5D7" offset="57%"/><stop stop-color="#AFB5B9" offset="69.9%"/><stop stop-color="#939BA0" offset="78.6%"/></linearGradient><linearGradient x1="0%" y1="50.001%" y2="50.001%" id="f"><stop stop-color="#FFF" offset="19.7%"/><stop stop-color="#FAFBFB" offset="32.7%"/><stop stop-color="#EDEEEF" offset="47.3%"/><stop stop-color="#D7DADC" offset="62.6%"/><stop stop-color="#B8BDC0" offset="78.3%"/><stop stop-color="#939BA0" offset="93.3%"/></linearGradient><linearGradient x1="0%" y1="50%" y2="50%" id="g"><stop stop-color="#FFF" offset="24.7%"/><stop stop-color="#FAFAFA" offset="33.7%"/><stop stop-color="#EBECED" offset="44.8%"/><stop stop-color="#D2D5D7" offset="57%"/><stop stop-color="#AFB5B8" offset="69.9%"/><stop stop-color="#939BA0" offset="78.6%"/></linearGradient><linearGradient x1="0%" y1="50%" y2="50%" id="h"><stop stop-color="#FFF" offset="38.8%"/><stop stop-color="#FAFAFA" offset="46.7%"/><stop stop-color="#EBECED" offset="56.6%"/><stop stop-color="#D2D5D7" offset="67.3%"/><stop stop-color="#AFB5B8" offset="78.8%"/><stop stop-color="#939BA0" offset="86.5%"/></linearGradient></defs><g fill="none"><path d="M398.522 350.79V358h-1.632v-7.21H395V349h5.412v1.79h-1.89zm8.846 7.21v-5.312l-1.375 3.31h-1.442l-1.374-3.31V358h-1.632v-9h1.632l2.095 4.806 2.096-4.806H409v9h-1.632z" fill="#111"/><path d="M417.31 184.324c-10.8-3.707-27.938-12.318-27.944-19.648V101h-265.72l-.008 166.877c-.006 7.323-17.144 15.937-27.948 19.647L90 289.478l5.69 1.953c10.804 3.708 27.942 12.322 27.948 19.654l.008 48.796L256.765 438l132.6-78.141V207.883c.007-7.323 17.145-15.94 27.945-19.653l5.69-1.954-5.69-1.952z" fill="#FFF"/><path d="M388.591 163.066V101H126.42v166.033h-.008C126.403 278.655 97 288.793 97 288.793s29.403 10.143 29.412 21.766h.008v47.968L257.762 436l130.83-77.492V206.591c.01-11.62 29.408-21.764 29.408-21.764s-29.398-10.14-29.409-21.761z" fill="#FFB81C"/><path d="M137.567 112l-.017 153.46c0 15.18-12.321 23.428-21.55 23.428 9.229 0 21.551 8.286 21.551 21.673l.016 40.439 6.91-5.391V120.052h225.608L377 112H137.567z" fill="#8D9093"/><path d="M375.448 163.286V112l-6.916 8.044v225.477l-112.583 66.992-113.038-66.992-6.911 5.393L255.966 422l119.482-71.09V208.374c0-15.176 12.325-23.428 21.552-23.428-9.227 0-21.552-8.275-21.552-21.66z" fill="#010101"/><path d="M258.91 338.513l14.371-4.897V310.68l-13.291 4.525-1.08 23.308zm20.81-17.084l6.606-2.25v50.8l13.375-4.554v-63.744l-19.981 6.804v12.944zm26.418-8.995l21.938-7.473-24.773 59.237 15.567-5.303 30.702-74.202-43.434 14.797v12.944zm-152.79-6.618v37.054l207.557-70.695V235.12l-207.557 70.695zm42.953 12.817l-7.336-2.876-7.341 7.878 2.804-9.659-7.34-2.874 9.07-3.09 2.807-9.652 2.804 7.74 9.063-3.085-7.338 7.874 2.807 7.744zm47.516-16.185l-7.34-2.88-7.334 7.877 2.802-9.652-7.336-2.879 9.069-3.087 2.798-9.655 2.804 7.745 9.074-3.087-7.336 7.87 2.8 7.747v.001zm47.517-16.184l-7.336-2.878-7.336 7.877 2.8-9.653-7.336-2.88 9.068-3.09 2.804-9.653 2.803 7.746 9.07-3.091-7.341 7.877 2.804 7.745zm47.522-16.19l-7.341-2.873-7.341 7.871 2.81-9.65-7.337-2.874 9.066-3.093 2.802-9.651 2.804 7.741 9.07-3.086-7.335 7.876 2.802 7.74zM189.454 191.9l-27.693 98.722 20.403-6.95 6.59-24.409 19.76-6.73 6.593 19.919 18.87-6.429-27.696-79.856-16.827 5.732zm13.668 44.337l-8.973 3.055 4.486-16.612 4.487 13.557zm60.049 19.843v-71.156l20.814-7.089v-18.133l-60.366 20.56v18.133l20.814-7.088v71.156l18.738-6.383zm48.579-34.68v-71.156l-18.734 6.38v89.29l56.897-19.38V208.4l-38.163 13zM235.755 163.39c-1.897 0-3.435 1.523-3.435 3.4s1.539 3.4 3.435 3.4c1.872-.033 3.371-1.545 3.371-3.4 0-1.853-1.5-3.365-3.371-3.4zm0 6.072c-.716 0-1.402-.28-1.908-.782a2.655 2.655 0 0 1 0-3.777 2.708 2.708 0 0 1 1.908-.781c.715 0 1.401.28 1.907.78a2.655 2.655 0 0 1 0 3.778 2.71 2.71 0 0 1-1.907.782zm1.41-3.46c0-.305-.123-.598-.341-.814a1.17 1.17 0 0 0-.824-.337h-1.654v3.881h.735v-1.576h.528l.743 1.576h.813l-.775-1.644c.464-.163.774-.598.775-1.085zm-1.165.425h-.919v-.85h.92c.236 0 .428.191.428.426a.428.428 0 0 1-.429.424zm-75.73-54.526c0 10.537-5.427 12.935-5.427 24.637 0 16.86 13.167 27.891 25.403 31.008 6.182 1.49 8.048 1.592 13.631 2.951.458.486 5.696 6.072 5.696 6.072l5.696-6.072c5.581-1.36 7.45-1.46 13.632-2.95 12.234-3.117 25.404-14.149 25.404-31.01 0-11.7-5.43-14.099-5.43-24.636 0-3.805.813-7.56 2.415-11.16l3.47-7.794-8.175-2.386c-2.492-.73-4.326-2.642-5.448-5.68l-3.613-9.787-8.057 6.604c-2.135 1.752-4.298 2.64-6.432 2.64-2.854 0-6.1-1.374-8.272-3.501l-5.19-5.084-5.19 5.084c-2.171 2.127-5.418 3.5-8.27 3.5-2.135 0-4.3-.887-6.434-2.639l-8.058-6.604-3.611 9.786c-1.12 3.04-2.954 4.951-5.449 5.681l-8.172 2.386 3.468 7.794c1.6 3.6 2.413 7.355 2.413 11.16z" fill="#010101"/><path d="M236.206 91.83c-2.921-.853-5.05-3.04-6.326-6.496l-2.96-8.024-6.598 5.41c-2.172 1.78-4.652 2.943-7.286 2.943-3.533 0-7.029-1.746-9.213-3.885l-4.25-4.162-4.249 4.162c-2.184 2.138-5.679 3.885-9.21 3.885-2.636 0-5.118-1.163-7.287-2.944l-6.599-5.41-2.96 8.025c-1.277 3.456-3.405 5.644-6.326 6.496l-6.716 1.961 2.854 6.416c1.438 3.232 2.527 7.204 2.527 11.694 0 10.959-5.427 13.135-5.427 24.637 0 3.507.602 6.788 1.683 9.806 3.66 10.227 12.816 17.398 22.718 19.92 6.336 1.586 9.289 1.743 14.012 3.05.616.641 4.98 5.311 4.98 5.311s4.365-4.67 4.981-5.311c4.724-1.307 7.675-1.464 14.015-3.049 12.819-3.267 24.399-14.329 24.399-29.727 0-5.543-1.263-8.92-2.568-12.16-1.404-3.48-2.861-6.799-2.861-12.477 0-4.49 1.09-8.462 2.528-11.694l2.854-6.416-6.714-1.962v.001z" fill="#FFF"/><path d="M164.488 115.081c-.894 8.736-5.26 12.238-5.26 21.457 0 11.31 7.828 23.181 22.112 26.758 6.787 1.7 11.474 2.133 14.92 3.362.443.412 3.313 3.493 3.313 3.493s2.869-3.081 3.311-3.493c3.45-1.23 8.136-1.662 14.922-3.362 14.285-3.577 22.11-15.447 22.11-26.758 0-10.268-5.418-13.441-5.418-24.658 0-8.743 4.216-16.13 4.216-16.13s-10.36-.895-13.17-13.364c0 0-6.212 6.335-12.509 6.335-8.12 0-13.462-6.832-13.462-6.832s-5.34 6.832-13.46 6.832c-6.3 0-12.512-6.335-12.512-6.335-2.808 12.469-13.169 13.364-13.169 13.364s4.217 7.386 4.217 16.13c0 1.07-.053 2.138-.161 3.202z" fill="#010101"/><path d="M28.1 85.328c7.555 1.898 12.493 2.114 15.812 3.7 0 0 1.205 1.093 1.661 1.596.458-.503 1.665-1.597 1.665-1.597 3.314-1.585 8.254-1.8 15.808-3.699 9.538-2.397 19.825-10.716 19.825-23.79 0-9.35-5.421-12.783-5.421-24.658 0-8.002 3.057-14.17 3.057-14.17s-7.051-1.41-10.336-10.247c0 0-4.68 4.323-11.136 4.323-8.09 0-13.462-5.623-13.462-5.623s-5.372 5.624-13.46 5.624c-6.457 0-11.138-4.324-11.138-4.324C17.691 21.3 10.64 22.71 10.64 22.71s3.057 6.169 3.057 14.171c0 11.875-5.422 15.307-5.422 24.658 0 13.074 10.288 21.394 19.826 23.79z" fill="url(#a)" transform="translate(154 75)"/><path d="M182.275 156.823c.226.064.452.125.679.182 5.981 1.508 13.3 2.284 15.512 3.53.498.362 1.107 1.003 1.107 1.003s.61-.641 1.108-1.003c2.21-1.246 9.529-2.022 15.512-3.53 8.29-2.087 17.217-9.376 17.217-20.468 0-5.527-2.448-9.164-4.056-14.718l-47.079 35.004zM166.36 131.77L215.816 95c-.92.142-1.85.214-2.782.215-6.042 0-10.76-2.612-13.46-4.575-2.7 1.963-7.42 4.575-13.46 4.575-3.988 0-7.383-1.337-9.776-2.662-2.229 3.68-5.022 5.819-7.249 7.028.956 2.836 2.07 7.221 2.07 12.3 0 9.774-3.373 14.356-4.799 19.89zm11.534 23.328l50.513-37.556a36.766 36.766 0 0 1-.418-5.66c0-5.08 1.11-9.464 2.068-12.301-1.908-1.034-4.231-2.753-6.257-5.536l-58.05 43.164c.276 8.488 5.815 14.672 12.144 17.89z" fill="#010101"/><path d="M187.31 137.243l-5.425-8.224-6.022 4.478s2.109.058 2.109 2.246v15.487l4.251-3.161v-10.95l4.845 7.345 4.49-3.337v-19.299l-4.249 3.158v12.257zm17.231-17.936l-4.795 3.564v-7.133l-6.473 4.814s2.106.058 2.106 2.247v15.486l4.367-3.247v-7.057l4.795-3.564v7.059l4.156-3.091v-19.301l-4.156 3.093v7.13zm12.15-1.792V103.14l-6.476 4.815s2.107.058 2.107 2.245v15.488l12.056-8.965c-.26-3.088 0-4.924 0-4.924l-7.688 5.715z" fill="#D1D3D3"/><path d="M159.229 136.538c0-9.219 4.365-12.721 5.26-21.457-1.228 7.653-6.351 13.926-6.351 21.457 0 2.894.404 5.534 1.133 7.931 3.22 10.602 12.795 16.5 22.07 18.827-14.285-3.577-22.112-15.447-22.112-26.758zm78.907-12.088c-1.736-4.17-3.638-7.938-3.638-12.57 0 11.217 5.419 14.39 5.419 24.658 0 11.31-7.826 23.181-22.111 26.758 12.883-3.225 23.124-12.566 23.124-26.758 0-4.81-1.34-8.59-2.794-12.087z" fill="#FFF"/><path d="M236.206 91.83c-2.921-.853-5.05-3.04-6.326-6.496l-2.96-8.024-1.374 5.076c2.808 12.469 13.168 13.364 13.168 13.364l4.207-1.959-6.714-1.962v.001z" fill="#D1D3D3"/><path d="M7.607 36.9c0 10.96-5.428 13.136-5.428 24.638 0 3.507.603 6.788 1.684 9.806a6.352 6.352 0 0 1 1.408-1.875c-.729-2.397-1.133-5.037-1.133-7.931 0-7.53 5.122-13.804 6.35-21.457.1-.995.161-2.053.161-3.2 0-8.744-4.216-16.13-4.216-16.13l-4.207-1.96 2.853 6.416c1.439 3.232 2.528 7.204 2.528 11.694z" fill="url(#b)" transform="translate(154 75)"/><path d="M80.498 36.88c0 4.632 1.902 8.4 3.638 12.57l2.264-.072c-1.404-3.48-2.862-6.799-2.862-12.477 0-4.49 1.09-8.462 2.528-11.694l2.854-6.416-4.206 1.96s-4.216 7.385-4.216 16.13z" fill="url(#c)" transform="translate(154 75)"/><path d="M42.26 91.658c-3.446-1.23-8.133-1.662-14.92-3.362C18.066 85.97 8.49 80.07 5.271 69.47a6.35 6.35 0 0 0-1.408 1.875C7.522 81.57 16.68 88.742 26.581 91.264c6.335 1.586 9.288 1.743 14.012 3.05.616.641 4.98 5.311 4.98 5.311v-4.474s-2.87-3.081-3.312-3.492z" fill="url(#d)" transform="translate(154 75)"/><path d="M32.114 13.721c8.118 0 13.46-6.832 13.46-6.832V2.616l-4.25 4.162c-2.185 2.138-5.68 3.885-9.21 3.885-2.636 0-5.118-1.163-7.288-2.944l-6.599-5.41 1.374 5.077s6.213 6.335 12.513 6.335z" fill="url(#e)" transform="translate(154 75)"/><path d="M86.93 61.538c0 14.192-10.241 23.533-23.124 26.758-6.786 1.7-11.471 2.133-14.922 3.362-.442.412-3.31 3.493-3.31 3.493v4.474s4.364-4.67 4.98-5.311c4.724-1.307 7.674-1.464 14.015-3.05 12.818-3.266 24.398-14.328 24.398-29.727 0-5.542-1.263-8.92-2.567-12.159l-2.264.072c1.455 3.497 2.794 7.277 2.794 12.087z" fill="url(#f)" transform="translate(154 75)"/><path d="M59.035 13.721c6.298 0 12.51-6.335 12.51-6.335L72.92 2.31l-6.6 5.41c-2.171 1.78-4.652 2.943-7.286 2.943-3.533 0-7.028-1.747-9.212-3.885l-4.25-4.162v4.273s5.344 6.832 13.461 6.832h.001z" fill="url(#g)" transform="translate(154 75)"/><path d="M19.601 7.386L18.227 2.31l-2.96 8.024c-1.276 3.456-3.404 5.644-6.326 6.496l-6.715 1.961 4.206 1.96s10.361-.896 13.17-13.365z" fill="url(#h)" transform="translate(154 75)"/></g></svg>