<?xml version="1.0" encoding="UTF-8"?>
<svg width="512px" height="512px" viewBox="0 0 512 512" version="1.1" xmlns="http://www.w3.org/2000/svg" xmlns:xlink="http://www.w3.org/1999/xlink">
    <!-- Generator: Sketch 41.2 (35397) - http://www.bohemiancoding.com/sketch -->
    <title>boston-bruins</title>
    <desc>Created with Sketch.</desc>
    <defs></defs>
    <g id="NHL" stroke="none" stroke-width="1" fill="none" fill-rule="evenodd">
        <g id="boston-bruins">
            <g id="bos" transform="translate(80.000000, 80.000000)">
                <g id="Group" transform="translate(286.812500, 286.812500)" fill="#FFFFFF">
                    <path d="M25.3056875,34.3954375 C30.3197254,34.4137147 34.3992228,30.3638504 34.4175,25.3498125 C34.4357772,20.3357746 30.3859129,16.2562772 25.371875,16.238 C20.3578371,16.2197228 16.2783397,20.2695871 16.2600625,25.283625 C16.2417853,30.2976629 20.2916496,34.3771603 25.3056875,34.3954375 L25.3056875,34.3954375 Z M25.3056875,18.2015625 C29.2291874,18.1771929 32.4295679,21.3380626 32.4539375,25.2615625 C32.4783071,29.1850624 29.3174374,32.3854429 25.3939375,32.4098125 C21.4704376,32.4341821 18.2700571,29.2733124 18.2456875,25.3498125 C18.2213179,21.4263126 21.3821876,18.2259321 25.3056875,18.2015625 Z" id="Shape"></path>
                    <path d="M23.5406875,26.2985 L24.930625,26.2985 L26.8941875,30.490375 L29.078375,30.490375 L27.0045,26.0999375 C28.3889071,25.5792583 29.2098871,24.1502299 28.9623653,22.6920041 C28.7148436,21.2337782 27.4683021,20.1556944 25.989625,20.121 L21.5991875,20.121 L21.5991875,30.490375 L23.56275,30.490375 L23.5406875,26.2985 L23.5406875,26.2985 Z M23.5406875,22.0845625 L25.989625,22.0845625 C26.5853125,22.0845625 27.09275,22.592 27.09275,23.20975 C27.1047651,23.5098847 26.9938695,23.8019406 26.7856768,24.0184609 C26.5774842,24.2349812 26.29,24.3572404 25.989625,24.357 L23.5406875,24.357 L23.5406875,22.0845625 Z" id="Shape"></path>
                </g>
                <path d="M176.5,353 C273.978258,353 353,273.978258 353,176.5 C353,79.0217417 273.978258,5.96882185e-15 176.5,0 C80.1097493,1.52411131 2.76873474,80.0977005 2.76873474,176.5 C2.76873474,272.902299 80.1097493,351.475889 176.5,353 L176.5,353 Z" id="Shape" fill="#FCB514"></path>
                <path d="M176.5,346.425375 C221.5706,346.437083 264.798587,328.538042 296.668315,296.668315 C328.538042,264.798587 346.437083,221.5706 346.425375,176.5 C346.425375,82.6528068 270.347193,6.574625 176.5,6.574625 C82.6528068,6.574625 6.574625,82.6528068 6.574625,176.5 C6.574625,270.347193 82.6528068,346.425375 176.5,346.425375 L176.5,346.425375 Z" id="Shape" fill="#111111"></path>
                <path d="M285.378437,81.2120625 C281.169262,76.3998777 276.63587,71.8812283 271.81,67.68775 L242.378625,97.075 L256.145625,110.422812 L285.378438,81.2120625 L285.378437,81.2120625 Z M186.097187,32.167125 C182.903426,31.9311399 179.702438,31.8060438 176.5,31.7920625 C173.278875,31.7920625 170.101875,31.9244375 166.902813,32.1450625 L166.902813,78.6528125 L186.075125,78.6528125 L186.075125,32.167125 L186.097187,32.167125 Z M95.3320625,81.7856875 L81.19,67.6656875 C76.3583125,71.8575625 71.8575625,76.4024375 67.643625,81.2120625 L95.3320625,108.878437 L95.3320625,81.7856875 Z M81.234125,285.356375 L95.354125,271.236375 L95.354125,244.121563 L67.68775,271.81 C71.879625,276.597563 76.4024375,281.142438 81.234125,285.356375 Z M107.532625,166.924875 L32.167125,166.924875 C31.9465,170.079812 31.7920625,173.278875 31.7920625,176.5 C31.7920625,179.721125 31.9465,182.920187 32.167125,186.097187 L107.532625,186.097187 L107.532625,166.924875 L107.532625,166.924875 Z M247.739813,176.5 L257.60175,186.097187 L320.854938,186.097187 C321.075563,182.920187 321.23,179.721125 321.23,176.5 C321.23,173.278875 321.075562,170.079812 320.877,166.924875 L257.623813,166.924875 L247.739813,176.5 Z M242.378625,255.947062 L271.787937,285.356375 C276.619625,281.1645 281.142437,276.619625 285.334313,271.81 L256.123562,242.59925 L242.378625,255.947062 L242.378625,255.947062 Z M166.902812,320.832875 C170.096599,321.06842 173.297572,321.193515 176.5,321.207937 C179.721125,321.207937 182.920187,321.0535 186.097187,320.832875 L186.097187,274.36925 L166.924875,274.36925 L166.924875,320.832875 L166.902812,320.832875 Z" id="Shape" fill="#FCB514"></path>
                <polygon id="Shape" fill="#FCB514" points="114.967688 228.545437 102.745063 240.415062 102.745063 266.912125 220.470563 266.912125 250.254938 237.944062 250.254938 189.29625 237.105688 176.5 250.254938 163.681688 250.254938 115.055937 220.470563 86.0658125 102.745063 86.0658125 102.745063 112.584937 114.967688 124.454562"></polygon>
                <path d="M159.0265,274.36925 L103.384875,274.36925 L87.323375,290.43075 C108.057335,306.706991 132.857673,316.985777 159.0265,320.148937 L159.0265,274.36925 L159.0265,274.36925 Z M223.471063,274.36925 L193.995563,274.36925 L193.995563,320.126875 C220.164679,316.964816 244.965302,306.685911 265.698688,290.408688 L236.730625,261.440625 L223.471063,274.36925 L223.471063,274.36925 Z M107.532625,220.757375 L107.532625,193.9735 L32.873125,193.9735 C36.026359,220.144931 46.3062137,244.947847 62.5913125,265.676625 L107.532625,220.757375 L107.532625,220.757375 Z M107.532625,132.264688 L62.5913125,87.323375 C46.3150719,108.057335 36.0362858,132.857673 32.873125,159.0265 L107.532625,159.0265 L107.532625,132.264688 L107.532625,132.264688 Z M236.708562,91.559375 L265.676625,62.5913125 C244.941963,46.3200365 220.140971,36.0486102 193.9735,32.8951875 L193.9735,78.674875 L223.449,78.674875 L236.708562,91.559375 L236.708562,91.559375 Z M257.667937,193.995563 L257.667937,232.957938 L290.408687,265.676625 C306.687176,244.950171 316.973237,220.158322 320.148937,193.995563 L257.667937,193.995563 L257.667937,193.995563 Z M159.0265,78.6528125 L159.0265,32.8951875 C132.857005,36.0408855 108.054006,46.313143 87.323375,62.5913125 L103.406937,78.674875 L159.0265,78.674875 L159.0265,78.6528125 Z M257.667938,159.0265 L320.148938,159.0265 C316.98265,132.854581 306.695793,108.053182 290.408688,87.323375 L257.667938,120.064125 L257.667938,159.0265 L257.667938,159.0265 Z" id="Shape" fill="#FFFFFF"></path>
                <polygon id="Shape" fill="#111111" points="108.878438 243.018438 108.878438 260.822875 217.999563 260.822875 244.143625 235.36275 244.143625 191.899625 228.324813 176.5 244.121562 161.122437 244.121562 117.659313 217.9775 92.1991875 108.878438 92.1991875 108.878438 109.981563 121.101063 121.851188 121.101063 231.148813"></polygon>
                <path d="M216.102187,223.71375 L216.102187,200.879062 L204.12225,189.208 L147.223062,189.208 L147.223062,235.340688 L204.100187,235.340688 L216.102187,223.71375 L216.102187,223.71375 Z M216.102187,152.120937 L216.102187,129.308312 L204.12225,117.63725 L147.223062,117.63725 L147.223062,163.769937 L204.100187,163.769937 L216.102187,152.120937 L216.102187,152.120937 Z" id="Shape" fill="#FCB514"></path>
                <path d="M209.990875,131.911687 L201.629188,123.770625 L153.356437,123.770625 L153.356437,157.636563 L201.629188,157.636563 L209.990875,149.517562 L209.990875,131.911687 Z M209.990875,203.482438 L201.629188,195.363437 L153.356437,195.363437 L153.356437,229.207313 L201.629188,229.207313 L209.990875,221.110375 L209.990875,203.482438 L209.990875,203.482438 Z" id="Shape" fill="#111111"></path>
                <path d="M202.555812,146.40675 L202.555812,135.044563 L198.606625,131.205688 L160.769437,131.205688 L160.769437,150.223563 L198.606625,150.223563 L202.555812,146.40675 Z M202.555812,217.955437 L202.555812,206.59325 L198.606625,202.776437 L160.769437,202.776437 L160.769437,221.794312 L198.606625,221.794312 L202.555812,217.955437 Z" id="Shape" fill="#FFFFFF"></path>
            </g>
        </g>
    </g>
</svg>