<svg xmlns="http://www.w3.org/2000/svg" viewBox="0 0 24 16"><g fill="#FFF"><path d="M18.147 14.559a.411.411 0 1 0 .003-.823.411.411 0 0 0-.003.823zm0-.734a.322.322 0 1 1 .004.644.322.322 0 0 1-.004-.644z"/><path d="M18.067 14.192h.063l.089.19h.099l-.094-.199a.14.14 0 0 0-.046-.271h-.199v.47h.089l-.001-.19zm0-.191h.111c.027 0 .05.023.05.051a.05.05 0 0 1-.05.052h-.111v-.103z"/></g><path fill="#fcb514" d="M12 16a8 8 0 1 0 0-16 8.001 8.001 0 0 0 0 16z"/><path fill="#111" d="M12 15.702A7.7 7.7 0 0 0 19.702 8 7.702 7.702 0 1 0 12 15.702z"/><path fill="#fcb514" d="M16.935 3.681a6.355 6.355 0 0 0-.615-.613L14.986 4.4l.624.605 1.325-1.324zm-4.5-2.223A6.275 6.275 0 0 0 12 1.441c-.146 0-.29.006-.435.016v2.108h.869V1.458zM8.321 3.707l-.641-.64c-.219.19-.423.396-.614.614l1.255 1.254V3.707zm-.639 9.227l.64-.64v-1.229L7.068 12.32c.19.217.395.423.614.614zm1.192-5.368H5.458c-.01.143-.017.288-.017.434s.007.291.017.435h3.416v-.869zM15.229 8l.447.435h2.867c.01-.144.017-.289.017-.435s-.007-.291-.016-.434h-2.867L15.229 8zm-.243 3.601l1.333 1.333c.219-.19.424-.396.614-.614l-1.324-1.324-.623.605zm-3.421 2.941a6.3 6.3 0 0 0 .435.017c.146 0 .291-.007.435-.017v-2.106h-.869v2.106h-.001z"/><path fill="#fcb514" d="M9.211 10.359l-.554.538v1.201h5.336l1.35-1.313V8.58L14.747 8l.596-.581V5.215l-1.35-1.314H8.657v1.202l.554.538v4.718z"/><path fill="#FFF" d="M11.208 12.436H8.686l-.728.728a6.533 6.533 0 0 0 3.25 1.347v-2.075zm2.921 0h-1.336v2.074a6.532 6.532 0 0 0 3.25-1.347L14.73 11.85l-.601.586zm-5.255-2.43V8.792H5.49a6.524 6.524 0 0 0 1.347 3.25l2.037-2.036zm0-4.011L6.837 3.958a6.533 6.533 0 0 0-1.347 3.25h3.384V5.995zm5.855-1.845l1.313-1.313a6.53 6.53 0 0 0-3.25-1.346v2.075h1.336l.601.584zm.95 4.643v1.766l1.484 1.483a6.535 6.535 0 0 0 1.348-3.249h-2.832zm-4.471-5.228V1.491a6.523 6.523 0 0 0-3.25 1.346l.729.729h2.521zm4.471 3.643h2.832a6.53 6.53 0 0 0-1.348-3.25l-1.484 1.484v1.766z"/><path fill="#111" d="M8.935 11.015v.807h4.946l1.185-1.154v-1.97L14.349 8l.716-.697v-1.97L13.88 4.179H8.935v.806l.554.538v4.954l-.554.538z"/><path fill="#fcb514" d="M13.795 10.14V9.105l-.543-.529h-2.579v2.091h2.578l.544-.527zm0-3.245V5.861l-.543-.529h-2.579v2.091h2.578l.544-.528z"/><path fill="#111" d="M13.518 5.979l-.379-.369h-2.188v1.535h2.188l.379-.368v-.798zm0 3.244l-.379-.368h-2.188v1.534h2.188l.379-.367v-.799z"/><path fill="#FFF" d="M13.181 6.636v-.515l-.179-.174h-1.715v.862h1.715zm0 3.243v-.515l-.179-.173h-1.715v.862h1.715z"/></svg>