<svg xmlns="http://www.w3.org/2000/svg" viewBox="0 0 24 16"><g fill="#FFF"><path d="M18.147,14.559c0.229,0,0.413-0.184,0.413-0.411s-0.185-0.41-0.413-0.41c-0.226,0-0.41,0.183-0.41,0.41 S17.921,14.559,18.147,14.559z M18.147,13.825c0.18,0,0.324,0.144,0.324,0.322c0,0.178-0.145,0.323-0.324,0.323 c-0.178,0-0.322-0.146-0.322-0.323C17.825,13.969,17.97,13.825,18.147,13.825z"/><path d="M18.067,14.192h0.063l0.089,0.19h0.099l-0.094-0.199c0.054-0.019,0.094-0.07,0.094-0.132 c0-0.076-0.062-0.139-0.14-0.139h-0.199v0.47h0.089L18.067,14.192L18.067,14.192z M18.067,14.001h0.111 c0.027,0,0.05,0.023,0.05,0.051c0,0.029-0.022,0.052-0.05,0.052h-0.111V14.001z"/></g><path fill="#fcb514" d="M12,16c4.419,0,8-3.582,8-8c0-4.417-3.581-8-8-8C7.582,0,4,3.583,4,8C4,12.418,7.582,16,12,16z"/><path fill="#111" d="M12,15.702c4.255,0,7.702-3.447,7.702-7.702c0-4.254-3.447-7.702-7.702-7.702C7.746,0.298,4.297,3.746,4.297,8 C4.297,12.255,7.746,15.702,12,15.702z"/><path fill="#fcb514" d="M16.935 3.681c-.191-.218-.396-.423-.615-.613L14.986 4.4l.624.605L16.935 3.681zM12.435 1.458C12.291 1.448 12.146 1.441 12 1.441c-.146 0-.29.006-.435.016v2.108h.869V1.458zM8.321 3.707l-.641-.64c-.219.19-.423.396-.614.614l1.255 1.254V3.707L8.321 3.707zM7.682 12.934l.64-.64v-1.229l-1.254 1.255C7.258 12.537 7.463 12.743 7.682 12.934zM8.874 7.566H5.458C5.448 7.709 5.441 7.854 5.441 8s.007.291.017.435h3.416V7.566zM15.229 8l.447.435h2.867C18.553 8.291 18.56 8.146 18.56 8s-.007-.291-.016-.434h-2.867L15.229 8zM14.986 11.601l1.333 1.333c.219-.19.424-.396.614-.614l-1.324-1.324L14.986 11.601zM11.565 14.542c.145.01.289.017.435.017.146 0 .291-.007.435-.017v-2.106h-.869V14.542L11.565 14.542z"/><path fill="#fcb514" d="M9.211,10.359l-0.554,0.538v1.201h5.336l1.35-1.313V8.58L14.747,8l0.596-0.581V5.215l-1.35-1.314H8.657 v1.202l0.554,0.538V10.359L9.211,10.359z"/><path fill="#FFF" d="M11.208 12.436H8.686l-.728.728c.918.72 2.032 1.199 3.25 1.347V12.436zM14.129 12.436h-1.336v2.074c1.217-.147 2.331-.627 3.25-1.347l-1.313-1.313L14.129 12.436zM8.874 10.006V8.792H5.49c.147 1.218.627 2.332 1.347 3.25L8.874 10.006zM8.874 5.995L6.837 3.958C6.117 4.876 5.638 5.99 5.49 7.208h3.384V5.995zM14.729 4.15l1.313-1.313c-.919-.719-2.033-1.2-3.25-1.346v2.075h1.336L14.729 4.15zM15.679 8.793v1.766l1.484 1.483c.72-.918 1.2-2.032 1.348-3.249H15.679L15.679 8.793zM11.208 3.565V1.491C9.99 1.637 8.876 2.118 7.958 2.837l.729.729H11.208zM15.679 7.208h2.832c-.147-1.217-.628-2.332-1.348-3.25l-1.484 1.484V7.208L15.679 7.208z"/><path fill="#111" d="M8.935,11.015v0.807h4.946l1.185-1.154v-1.97L14.349,8l0.716-0.697V5.333L13.88,4.179H8.935v0.806l0.554,0.538v4.954 L8.935,11.015z"/><path fill="#fcb514" d="M13.795 10.14V9.105l-.543-.529h-2.579v2.091h2.578L13.795 10.14zM13.795 6.895V5.861l-.543-.529h-2.579v2.091h2.578L13.795 6.895z"/><path fill="#111" d="M13.518 5.979L13.139 5.61h-2.188v1.535h2.188l.379-.368V5.979zM13.518 9.223l-.379-.368h-2.188v1.534h2.188l.379-.367V9.223z"/><path fill="#FFF" d="M13.181 6.636L13.181 6.121 13.002 5.947 11.287 5.947 11.287 6.809 13.002 6.809zM13.181 9.879L13.181 9.364 13.002 9.191 11.287 9.191 11.287 10.053 13.002 10.053z"/></svg>