<svg xmlns="http://www.w3.org/2000/svg" viewBox="0 0 24 16"><path fill="#adafaa" d="M20,8c0-4.411-3.589-8-8-8S4,3.589,4,8s3.589,8,8,8S20,12.411,20,8z"/><path fill="#002654" d="M12,0.1C7.644,0.1,4.1,3.644,4.1,8s3.544,7.9,7.9,7.9s7.9-3.544,7.9-7.9S16.356,0.1,12,0.1z"/><path fill="#adafaa" d="M12,0.862C8.064,0.862,4.862,4.064,4.862,8S8.064,15.138,12,15.138S19.138,11.936,19.138,8 S15.936,0.862,12,0.862z"/><g fill="#002654"><path d="M17.994,13.928c-0.207,0-0.375,0.167-0.375,0.374s0.168,0.374,0.375,0.374s0.374-0.168,0.374-0.374 C18.368,14.096,18.2,13.928,17.994,13.928z M17.994,14.597c-0.162,0-0.294-0.132-0.294-0.294c0-0.163,0.132-0.294,0.294-0.294 c0.163,0,0.294,0.132,0.294,0.294S18.156,14.597,17.994,14.597z"/><path d="M18.147,14.216c0-0.071-0.057-0.127-0.127-0.127h-0.18v0.428h0.081v-0.174h0.057l0.081,0.174h0.089 l-0.085-0.181C18.112,14.318,18.147,14.271,18.147,14.216z M18.02,14.262h-0.1v-0.093h0.1c0.026,0,0.047,0.021,0.047,0.047 C18.067,14.241,18.046,14.262,18.02,14.262z"/></g><g fill="#002654"><path d="M12 10.112c2.208-1.674 3.923-3.262 4.951-4.273-.012 0-.023.001-.035.001-.604 0-.743-.691-.93-.691-.076.007-.36.097-.532.172.113.039.22-.001.353.085C15.98 5.39 16.11 5.474 16.11 5.688c0 .213-.047.496-.453.496-.555 0-.569-.544-.947-.544-.115 0-.514.174-.849.174-.427 0-.699-.309-1.061-.309-.139 0-.175.121-.175.184 0 .163.199.219.199.395 0 .056-.023.119-.095.161.05.036.095.083.095.159 0 .03-.01.056-.021.081.078-.061.147-.107.226-.107.254 0 .367.431.367.595 0 .267-.252.292-.474.292-.207 0-.662.192-.849.192-.188 0-.467-.159-.498-.361C11.501 7.194 11.358 7.26 11.18 7.26c-.196 0-.572-.217-.791-.217C10.22 7.059 9.914 7.036 9.914 6.635c0-.024.004-.045.009-.065C9.675 6.7 9.332 6.591 9.332 6.591 8.91 6.8 8.85 6.567 8.851 6.478 8.762 6.545 8.652 6.675 8.503 6.675c-.245 0-.306-.243-.449-.377C7.997 6.239 7.846 6.181 7.767 6.093c-.135-.135-.263-.36-.72-.726C6.92 5.266 6.812 4.904 6.812 4.577c0-.607.092-1.223 1.193-1.503C9.13 2.79 8.917 1.352 11.016 1.352c.591 0 1.078.112 1.569.29-.134-.068-.194-.142-.167-.239.025-.091.099-.264 1.822.21 1.041.286 1.858.559 1.783.834-.09.326-.708-.034-1.973-.381-.506-.139-.915-.232-1.198-.321.878.355 1.831.891 3.46 1.357.571.147.937.16.937.458 0 .066-.028.109-.063.143.326-.022.443.404-.259.404-.398 0-.686-.155-.686-.367 0-.107.056-.173.128-.216-.162-.046-.363-.089-.536-.103.025.087.055.199.055.34 0 .271-.062.397-.085.552.119-.022.241-.08.334-.08.403 0 .174.591.672.652.192.036.186.174.186.174.187-.035.316-.021.316.355 0 .024-.001.047-.003.069.461-.466.712-.742.72-.752.05-.053.109-.074.164-.071-1.19-2.2-3.519-3.698-6.192-3.698S6.998 2.46 5.807 4.659C5.861 4.657 5.92 4.678 5.97 4.731 5.996 4.759 8.311 7.314 12 10.112zM12.564 7.712c2.101-.777 2.905-1.194 3.013-.902.106.288-1.014.887-2.743 1.526-1.035.383-1.219.174-1.273.028C11.493 8.18 11.552 8.086 12.564 7.712zM18.373 5.017c-.006.182-.06.466-.301.716-.027.03-2.291 2.529-5.383 4.892.161.118.358.26.548.395.004-.023.011-.047.027-.071.069-.11.262-.152.439-.041.272.172.281.43.229.726.008.001.017.001.025.003.07.012.125.058.163.123 0 0 .092-.01.174.121 0 0 .097-.009.175.121 0 0 .092-.013.175.121 0 0 .096-.008.175.121 0 0 .096-.01.175.121 0 0 .094-.01.175.121 0 0 .095-.009.175.121 0 0 .091-.011.175.121.004.001.008-.002.012-.001.119.021.198.127.216.273.158-.144.315-.227.518-.099.142.09.266.305.167.563 1.589-1.292 2.606-3.261 2.606-5.463C19.037 6.934 18.799 5.923 18.373 5.017zM15.059 13.266c0 0-.097.009-.175-.121 0 0-.092.012-.175-.121 0 0-.095.008-.175-.121 0 0-.096.009-.175-.121 0 0-.094.01-.175-.12 0 0-.095.009-.175-.121 0 0-.091.011-.175-.12-.004-.001-.008.001-.012.001-.008-.002-.016-.004-.025-.006-.013.341.092.681.545.967.414.261.7.207.928.056-.014-.015-.027-.032-.038-.051C15.233 13.387 15.141 13.397 15.059 13.266z"/><path d="M11.265 6.078c-.232 0-.325.183-.328.221 0 .041.035.092.04.15 0 0 .092-.094.197-.094.203 0 .38.331.436.511.02-.085.041-.197.041-.344C11.651 6.247 11.451 6.078 11.265 6.078zM7.735 12.9c.203-.128.36-.045.518.099.017-.146.096-.253.216-.273.004-.001.008.002.012.001.083-.132.175-.121.175-.121.08-.13.175-.121.175-.121.081-.131.175-.121.175-.121.079-.131.175-.121.175-.121.079-.129.175-.121.175-.121.083-.133.175-.121.175-.121.078-.13.175-.121.175-.121.083-.131.174-.121.174-.121.039-.065.094-.111.163-.123.008-.002.017-.002.025-.003-.052-.296-.043-.554.229-.726.177-.111.369-.069.439.041.015.024.023.048.027.071.189-.135.387-.277.548-.395-3.093-2.362-5.357-4.86-5.384-4.89C5.686 5.484 5.632 5.2 5.626 5.018 5.201 5.923 4.962 6.934 4.962 8c0 2.203 1.017 4.172 2.606 5.463C7.47 13.205 7.593 12.99 7.735 12.9zM9.991 12.54c-.08.13-.175.121-.175.121-.081.13-.175.12-.175.12-.079.131-.175.121-.175.121-.079.129-.175.121-.175.121-.082.133-.175.121-.175.121-.078.13-.175.121-.175.121-.082.131-.174.121-.174.121-.011.019-.024.036-.038.051.229.151.514.205.929-.056.453-.286.557-.626.545-.967-.008.002-.016.004-.025.006-.004 0-.008-.002-.012-.001C10.082 12.552 9.991 12.54 9.991 12.54z"/><path d="M13.985 13.827c-.829-.523-.829-1.254-.734-1.819C12.86 11.747 12.347 11.393 12 11.14c-.347.252-.86.607-1.251.868.095.565.094 1.296-.734 1.819C9 14.467 8.381 13.847 8.177 13.68c-.051.037-.124.075-.205.087 1.142.8 2.531 1.27 4.028 1.27s2.886-.47 4.028-1.27c-.081-.012-.154-.051-.205-.087C15.619 13.847 15.001 14.467 13.985 13.827zM9.937 5.7c-.131 0-.171.125-.171.166 0 .296.226.177.36.358.048-.124-.075-.176-.075-.312 0-.039.016-.071.016-.098C10.068 5.742 10.004 5.7 9.937 5.7z"/><path d="M12.8 5.43c.386 0 .655.309 1.061.309.341 0 .711-.174.849-.174.431 0 .425.544.947.544.268 0 .378-.122.378-.42 0-.199-.12-.205-.228-.205-.041 0-.095-.064-.219-.064-.142 0-.261-.061-.293-.098.105-.081.598-.247.687-.247.279 0 .342.69.935.69.158 0 .321-.042.321-.351 0-.238-.046-.311-.164-.293-.089.019-.17.029-.17.029.045-.088.028-.164-.105-.191-.555-.086-.336-.651-.66-.651-.112 0-.415.154-.415.045 0-.115.091-.296.091-.593 0-.197-.078-.421-.078-.421.283.001.686.107.868.184-.116.021-.285.062-.285.216 0 .163.268.291.61.291.556 0 .496-.251.292-.251-.211 0-.288-.018-.318-.034.097-.036.271-.04.271-.185 0-.244-.324-.232-.881-.385-2.491-.684-3.569-1.746-5.276-1.746-2.074 0-1.807 1.419-2.993 1.72-1.05.265-1.137.827-1.137 1.428 0 .324.108.653.206.731C7.339 5.517 7.508 5.655 7.821 6.04 7.877 6.104 8.04 6.175 8.108 6.243c.142.142.2.355.395.355.173 0 .296-.244.53-.308C8.977 6.344 8.926 6.407 8.926 6.482c0 .172.196.128.4.032.456.119.618-.009.741-.159.024-.029.019-.072-.007-.099-.148-.137-.368-.059-.368-.39 0-.065.058-.242.246-.242.107 0 .247.087.197.252-.032.104.077.178.077.258 0 .296-.223.315-.223.502 0 .338.249.346.394.333.232 0 .627.217.796.217.213 0 .374-.099.374-.23 0-.103-.207-.525-.379-.525-.095 0-.167.117-.222.117-.04 0-.06-.014-.063-.019.052-.083-.027-.134-.027-.23 0-.069.126-.297.403-.297.222 0 .461.199.461.519 0 .284-.083.474-.083.541 0 .171.267.32.428.32.175 0 .615-.191.849-.191.249 0 .398-.039.398-.216 0-.158-.11-.52-.291-.52-.158 0-.392.358-.69.358.014-.039.066-.113.089-.127.191-.094.321-.173.321-.281 0-.094-.128-.127-.198-.186.13-.012.198-.042.198-.135 0-.134-.199-.192-.199-.395C12.549 5.561 12.635 5.43 12.8 5.43zM16.224 12.964c-.212-.134-.375.021-.563.216.002-.009.004-.018.006-.028.031-.181-.033-.332-.149-.352-.014-.003-.028.002-.042.004-.061-.16-.174-.12-.174-.12-.058-.159-.175-.121-.175-.121-.062-.159-.175-.121-.175-.121-.057-.159-.175-.121-.175-.121-.064-.162-.175-.121-.175-.121-.059-.159-.175-.121-.175-.121-.057-.158-.175-.121-.175-.121-.062-.164-.176-.121-.176-.121-.026-.069-.072-.116-.132-.126-.039-.007-.078.003-.112.025.064-.324.09-.601-.169-.765-.136-.086-.285-.06-.334.017-.06.095.057.177.102.235.175.222-.747 1.691.594 2.537 1.023.645 1.579-.015 1.794-.178.104.082.32.221.489-.046C16.441 13.329 16.406 13.079 16.224 12.964zM15.401 13.433c-.255.211-.584.338-1.099.013-.543-.343-.614-.764-.57-1.168.026.037.061.061.103.068.014.003.028-.002.042-.004.061.16.174.12.174.12.058.159.175.121.175.121.062.159.175.121.175.121.057.159.175.121.175.121.064.162.175.121.175.121.059.159.175.121.175.121.057.158.175.121.175.121.062.163.176.121.176.121C15.302 13.374 15.345 13.42 15.401 13.433zM9.974 13.763c1.341-.846.419-2.315.594-2.537.046-.058.162-.14.102-.235-.048-.077-.198-.103-.334-.017-.259.164-.234.44-.169.765-.035-.022-.074-.032-.113-.025-.06.01-.105.057-.132.126 0 0-.114-.043-.176.121 0 0-.118-.038-.175.121 0 0-.116-.038-.175.121 0 0-.111-.041-.175.121 0 0-.118-.038-.175.121 0 0-.113-.038-.175.121 0 0-.117-.038-.175.121 0 0-.113-.04-.174.12-.014-.002-.028-.006-.042-.004-.115.02-.179.171-.148.352.001.01.004.019.005.028-.188-.195-.351-.35-.563-.216-.182.114-.217.365-.085.574.168.267.385.128.489.046C8.396 13.748 8.951 14.408 9.974 13.763zM10.267 12.278c.044.404-.026.826-.569 1.168-.514.325-.844.198-1.099-.013.056-.013.099-.059.124-.125 0 0 .114.043.176-.121 0 0 .118.037.175-.121 0 0 .116.038.175-.121 0 0 .111.041.175-.121 0 0 .118.038.175-.121 0 0 .113.038.175-.121 0 0 .118.038.175-.121 0 0 .113.04.174-.12.014.002.028.006.042.004C10.206 12.339 10.241 12.315 10.267 12.278z"/><path d="M11.437,10.627c-0.273,0.2-0.592,0.429-0.878,0.63l0.129,0.698c0.415-0.273,0.917-0.621,1.312-0.909 c0.395,0.288,0.897,0.636,1.312,0.909l0.13-0.698c-0.286-0.201-0.605-0.43-0.878-0.63c3.127-2.377,5.426-4.914,5.453-4.944 c0.36-0.375,0.274-0.828,0.27-0.843c-0.011-0.098-0.116-0.148-0.2-0.059C18.06,4.81,15.722,7.391,12,10.207 C8.277,7.391,5.94,4.81,5.914,4.781C5.829,4.692,5.725,4.742,5.713,4.84C5.71,4.856,5.624,5.308,5.984,5.683 C6.011,5.713,8.31,8.25,11.437,10.627z"/><path d="M12.808 8.265c1.322-.489 2.782-1.201 2.698-1.429-.069-.188-1.107.278-2.915.946-.844.312-1.011.411-.958.555C11.67 8.44 11.831 8.627 12.808 8.265zM15.951 2.426c.052-.189-.8-.485-1.73-.741-1.271-.349-1.733-.318-1.731-.26.004.18.489.266 1.582.567C15.261 2.319 15.892 2.641 15.951 2.426z"/></g><g fill="#fcb514"><path d="M12,0.201C7.692,0.201,4.2,3.692,4.2,8s3.492,7.8,7.8,7.8s7.8-3.492,7.8-7.8S16.308,0.201,12,0.201z M12,15.238c-3.998,0-7.238-3.24-7.238-7.238c0-3.997,3.241-7.238,7.238-7.238c3.998,0,7.238,3.24,7.238,7.238 C19.238,11.998,15.998,15.238,12,15.238z"/><path d="M13.848 12.272c.028.005.057-.008.083-.034.022.197.135.169.175.121.023.197.135.168.175.121.023.197.135.169.175.121.022.196.135.168.175.121.022.196.135.168.175.121.023.197.135.169.175.121.022.197.135.169.175.121.022.196.135.168.175.121.007.084.041.146.091.155.071.012.147-.086.17-.22s-.015-.252-.086-.264c-.028-.005-.057.008-.083.033-.023-.197-.135-.169-.175-.121-.022-.196-.135-.168-.175-.121-.022-.196-.135-.168-.175-.121-.022-.197-.135-.168-.175-.121-.022-.196-.135-.168-.175-.121-.023-.197-.135-.169-.175-.121-.022-.197-.135-.169-.175-.121-.022-.197-.135-.169-.175-.121-.007-.084-.041-.146-.091-.155-.071-.012-.147.087-.17.22C13.739 12.141 13.778 12.259 13.848 12.272zM8.578 13.36c.05-.009.084-.071.092-.155.04.048.153.076.175-.121.04.048.152.076.175-.121.04.048.153.075.175-.121.04.048.153.076.175-.121.04.048.153.076.175-.121.04.047.153.076.175-.121.04.048.152.076.175-.121.04.048.153.076.175-.121.026.025.056.038.083.034.071-.012.11-.131.086-.264-.023-.134-.099-.232-.17-.22-.05.009-.084.071-.091.155-.04-.048-.153-.076-.175.121-.04-.048-.153-.076-.175.121-.04-.048-.153-.076-.175.121-.04-.048-.153-.076-.175.121-.04-.047-.153-.076-.175.121-.04-.048-.153-.076-.175.121-.04-.047-.153-.075-.175.121-.04-.048-.153-.076-.175.121-.026-.026-.055-.039-.083-.033-.071.012-.109.13-.086.264C8.431 13.274 8.507 13.372 8.578 13.36z"/><path d="M16.184 13.028c-.44-.278-.737 1.23-1.922.482-1.307-.824-.025-2.086-.64-2.474-.105-.066-.207-.04-.229-.006-.022.036.045.081.098.148.228.288-.741 1.69.575 2.52 1.126.71 1.674-.256 1.767-.198.075.048.259.24.412-.003C16.381 13.281 16.29 13.095 16.184 13.028zM10.509 11.178c.053-.067.12-.112.098-.148-.022-.034-.124-.06-.229.006-.614.388.668 1.649-.639 2.474-1.185.748-1.482-.76-1.922-.482-.106.067-.198.253-.061.469.153.243.336.05.412.003.093-.058.641.908 1.767.198C11.25 12.868 10.281 11.466 10.509 11.178z"/></g><g fill="#fff"><path d="M18.212,4.851c-0.012-0.078-0.069-0.019-0.069-0.019S15.797,7.438,12,10.302 c-3.797-2.864-6.142-5.47-6.142-5.47S5.8,4.773,5.788,4.851c0,0-0.085,0.431,0.252,0.781c0,0,2.327,2.584,5.523,4.996 c-0.299,0.22-0.606,0.442-0.921,0.663l0.1,0.537c0.43-0.284,0.85-0.577,1.258-0.875c0.408,0.298,0.828,0.592,1.258,0.875 l0.1-0.537c-0.315-0.221-0.622-0.443-0.921-0.663c3.195-2.412,5.523-4.996,5.523-4.996C18.297,5.282,18.212,4.851,18.212,4.851z"/><path d="M7.141 5.249c.478.382.622.627.733.737C7.968 6.079 8.06 6.088 8.162 6.19 8.313 6.341 8.36 6.523 8.503 6.523c.148 0 .311-.323.63-.323.214 0-.131.143-.131.283 0 .119.262-.044.319-.044.096 0 .467.166.685-.129-.099-.098-.39-.058-.39-.444 0-.106.09-.318.322-.318.187 0 .328.164.269.351-.018.059.081.128.081.235 0 .324-.223.36-.223.502 0 .286.202.264.313.257.261 0 .664.217.8.217.167 0 .299-.072.299-.155s-.195-.449-.303-.449c-.062 0-.128.117-.222.117-.104 0-.164-.065-.127-.13.021-.037-.039-.097-.039-.194 0-.118.163-.373.479-.373.263 0 .537.228.537.595 0 .305-.083.481-.083.541 0 .113.215.245.352.245s.65-.192.815-.192.356.012.356-.14-.105-.444-.216-.444-.365.358-.69.358c-.039 0-.082-.008-.082-.062 0-.055.087-.179.132-.206s.284-.129.284-.216c0-.049-.219-.11-.219-.206 0-.099.219-.02.219-.115 0-.086-.199-.165-.199-.395 0-.165.113-.336.326-.336.413 0 .672.309 1.061.309.329 0 .69-.174.849-.174.482 0 .469.544.947.544.223 0 .301-.084.301-.345 0-.142-.069-.129-.152-.129s-.095-.063-.219-.063c-.181 0-.381-.094-.381-.186 0-.095.677-.311.775-.311.347 0 .379.69.935.69.141 0 .245-.03.245-.275s-.039-.223-.084-.217-.269.069-.269-.002c0-.07.106-.141-.022-.162-.59-.098-.418-.65-.648-.65-.11 0-.491.207-.491-.031 0-.131.091-.31.091-.593 0-.312-.178-.497-.006-.497.376 0 1.033.191 1.033.283 0 .066-.37.028-.37.193 0 .098.212.216.535.216s.453-.1.292-.1-.408-.005-.408-.116c0-.112.286-.062.286-.179 0-.173-.292-.16-.826-.312-2.66-.757-3.585-1.743-5.255-1.743-2.055 0-1.726 1.401-2.974 1.717C7.055 3.472 6.964 3.976 6.964 4.577 6.964 4.914 7.078 5.199 7.141 5.249zM8.085 5.77c-.11 0-.082-.077-.082-.077C8.146 5.5 8.073 5.04 8.25 5.04c.1 0-.043.102-.043.221 0 .134.197.095.197.251C8.404 5.612 8.243 5.77 8.085 5.77zM8.51 6.423c0 0-.082-.059-.082-.102 0-.098.166-.126.166-.096C8.594 6.308 8.51 6.423 8.51 6.423zM8.644 4.645c0 .068-.139.231-.227.231-.067 0-.174-.261-.174-.283s.031-.066.129-.066C8.47 4.528 8.644 4.577 8.644 4.645zM7.844 3.612c.394 0 .599.233.599.487 0 .255-.214.44-.451.44-.151 0-.196-.127-.196-.191 0-.088.13-.165.13-.269 0-.129-.157-.218-.315-.218-.267 0-.447.229-.447.116C7.163 3.842 7.433 3.612 7.844 3.612zM12.617 7.854c-.676.25-.951.354-.913.458.021.057.161.222 1.078-.117.914-.339 2.715-1.164 2.652-1.332C15.403 6.78 14.131 7.294 12.617 7.854zM14.092 1.919c1.115.307 1.758.59 1.786.487s-.858-.423-1.677-.648c-.818-.225-1.668-.336-1.641-.311C12.646 1.53 12.976 1.613 14.092 1.919z"/></g><path fill="#cf0a2c" d="M8.212,5.467c-0.027,0-0.052,0.045-0.052,0.061c0,0.017,0.042,0.075,0.074,0.075 c0.018,0,0.041-0.008,0.041-0.024C8.274,5.514,8.272,5.467,8.212,5.467z"/></svg>