<svg xmlns="http://www.w3.org/2000/svg" viewBox="0 0 24 16"><path fill="#adafaa" d="M20 8c0-4.411-3.589-8-8-8S4 3.589 4 8s3.589 8 8 8 8-3.589 8-8z"/><path fill="#002654" d="M12 .1C7.644.1 4.1 3.644 4.1 8s3.544 7.9 7.9 7.9 7.9-3.544 7.9-7.9S16.356.1 12 .1z"/><path fill="#adafaa" d="M12 .862C8.064.862 4.862 4.064 4.862 8S8.064 15.138 12 15.138 19.138 11.936 19.138 8 15.936.862 12 .862z"/><g fill="#002654"><path d="M17.994 13.928a.374.374 0 1 0-.001.749.374.374 0 0 0 .001-.749zm0 .669a.294.294 0 1 1 .001-.589.294.294 0 0 1-.001.589z"/><path d="M18.147 14.216a.127.127 0 0 0-.127-.127h-.18v.428h.081v-.174h.057l.081.174h.089l-.085-.181a.128.128 0 0 0 .084-.12zm-.127.046h-.1v-.093h.1c.026 0 .047.021.047.047a.047.047 0 0 1-.047.046z"/></g><g fill="#002654"><path d="M12 10.112a51.815 51.815 0 0 0 4.951-4.273l-.035.001c-.604 0-.743-.691-.93-.691-.076.007-.36.097-.532.172.113.039.22-.001.353.085.173-.016.303.068.303.282 0 .213-.047.496-.453.496-.555 0-.569-.544-.947-.544-.115 0-.514.174-.849.174-.427 0-.699-.309-1.061-.309-.139 0-.175.121-.175.184 0 .163.199.219.199.395a.18.18 0 0 1-.095.161c.05.036.095.083.095.159 0 .03-.01.056-.021.081.078-.061.147-.107.226-.107.254 0 .367.431.367.595 0 .267-.252.292-.474.292-.207 0-.662.192-.849.192-.188 0-.467-.159-.498-.361-.074.098-.217.164-.395.164-.196 0-.572-.217-.791-.217-.169.016-.475-.007-.475-.408 0-.024.004-.045.009-.065-.248.13-.591.021-.591.021-.422.209-.482-.024-.481-.113-.089.067-.199.197-.348.197-.245 0-.306-.243-.449-.377-.057-.059-.208-.117-.287-.205-.135-.135-.263-.36-.72-.726-.127-.101-.235-.463-.235-.79 0-.607.092-1.223 1.193-1.503 1.125-.284.912-1.722 3.011-1.722.591 0 1.078.112 1.569.29-.134-.068-.194-.142-.167-.239.025-.091.099-.264 1.822.21 1.041.286 1.858.559 1.783.834-.09.326-.708-.034-1.973-.381-.506-.139-.915-.232-1.198-.321.878.355 1.831.891 3.46 1.357.571.147.937.16.937.458a.189.189 0 0 1-.063.143c.326-.022.443.404-.259.404-.398 0-.686-.155-.686-.367a.24.24 0 0 1 .128-.216 2.97 2.97 0 0 0-.536-.103c.025.087.055.199.055.34 0 .271-.062.397-.085.552.119-.022.241-.08.334-.08.403 0 .174.591.672.652.192.036.186.174.186.174.187-.035.316-.021.316.355a.763.763 0 0 1-.003.069c.461-.466.712-.742.72-.752a.208.208 0 0 1 .164-.071C17.002 2.46 14.673.962 12 .962S6.998 2.46 5.807 4.659a.212.212 0 0 1 .163.072c.026.028 2.341 2.583 6.03 5.381zm.564-2.4c2.101-.777 2.905-1.194 3.013-.902.106.288-1.014.887-2.743 1.526-1.035.383-1.219.174-1.273.028-.068-.184-.009-.278 1.003-.652zm5.809-2.695a1.07 1.07 0 0 1-.301.716c-.027.03-2.291 2.529-5.383 4.892.161.118.358.26.548.395a.179.179 0 0 1 .027-.071c.069-.11.262-.152.439-.041.272.172.281.43.229.726.008.001.017.001.025.003.07.012.125.058.163.123 0 0 .092-.01.174.121 0 0 .097-.009.175.121 0 0 .092-.013.175.121 0 0 .096-.008.175.121 0 0 .096-.01.175.121 0 0 .094-.01.175.121 0 0 .095-.009.175.121 0 0 .091-.011.175.121.004.001.008-.002.012-.001.119.021.198.127.216.273.158-.144.315-.227.518-.099a.46.46 0 0 1 .167.563 7.028 7.028 0 0 0 1.941-8.447zm-3.314 8.249s-.097.009-.175-.121c0 0-.092.012-.175-.121 0 0-.095.008-.175-.121 0 0-.096.009-.175-.121 0 0-.094.01-.175-.12 0 0-.095.009-.175-.121 0 0-.091.011-.175-.12-.004-.001-.008.001-.012.001l-.025-.006c-.013.341.092.681.545.967.414.261.7.207.928.056a.282.282 0 0 1-.038-.051c.001-.001-.091.009-.173-.122z"/><path d="M11.265 6.078c-.232 0-.325.183-.328.221 0 .041.035.092.04.15 0 0 .092-.094.197-.094.203 0 .38.331.436.511.02-.085.041-.197.041-.344 0-.275-.2-.444-.386-.444zM7.735 12.9c.203-.128.36-.045.518.099.017-.146.096-.253.216-.273.004-.001.008.002.012.001.083-.132.175-.121.175-.121.08-.13.175-.121.175-.121.081-.131.175-.121.175-.121.079-.131.175-.121.175-.121.079-.129.175-.121.175-.121.083-.133.175-.121.175-.121.078-.13.175-.121.175-.121.083-.131.174-.121.174-.121a.241.241 0 0 1 .163-.123c.008-.002.017-.002.025-.003-.052-.296-.043-.554.229-.726.177-.111.369-.069.439.041a.195.195 0 0 1 .027.071c.189-.135.387-.277.548-.395-3.093-2.362-5.357-4.86-5.384-4.89a1.07 1.07 0 0 1-.301-.716 7.025 7.025 0 0 0 1.942 8.445.461.461 0 0 1 .167-.563zm2.256-.36c-.08.13-.175.121-.175.121-.081.13-.175.12-.175.12-.079.131-.175.121-.175.121-.079.129-.175.121-.175.121-.082.133-.175.121-.175.121-.078.13-.175.121-.175.121-.082.131-.174.121-.174.121a.282.282 0 0 1-.038.051c.229.151.514.205.929-.056.453-.286.557-.626.545-.967l-.025.006c-.004 0-.008-.002-.012-.001-.084.133-.175.121-.175.121z"/><path d="M13.985 13.827c-.829-.523-.829-1.254-.734-1.819A41.738 41.738 0 0 1 12 11.14c-.347.252-.86.607-1.251.868.095.565.094 1.296-.734 1.819-1.015.64-1.634.02-1.838-.147a.48.48 0 0 1-.205.087c1.142.8 2.531 1.27 4.028 1.27s2.886-.47 4.028-1.27a.493.493 0 0 1-.205-.087c-.204.167-.822.787-1.838.147zM9.937 5.7c-.131 0-.171.125-.171.166 0 .296.226.177.36.358.048-.124-.075-.176-.075-.312 0-.039.016-.071.016-.098.001-.072-.063-.114-.13-.114z"/><path d="M12.8 5.43c.386 0 .655.309 1.061.309.341 0 .711-.174.849-.174.431 0 .425.544.947.544.268 0 .378-.122.378-.42 0-.199-.12-.205-.228-.205-.041 0-.095-.064-.219-.064-.142 0-.261-.061-.293-.098.105-.081.598-.247.687-.247.279 0 .342.69.935.69.158 0 .321-.042.321-.351 0-.238-.046-.311-.164-.293-.089.019-.17.029-.17.029.045-.088.028-.164-.105-.191-.555-.086-.336-.651-.66-.651-.112 0-.415.154-.415.045 0-.115.091-.296.091-.593 0-.197-.078-.421-.078-.421.283.001.686.107.868.184-.116.021-.285.062-.285.216 0 .163.268.291.61.291.556 0 .496-.251.292-.251-.211 0-.288-.018-.318-.034.097-.036.271-.04.271-.185 0-.244-.324-.232-.881-.385-2.491-.684-3.569-1.746-5.276-1.746-2.074 0-1.807 1.419-2.993 1.72-1.05.265-1.137.827-1.137 1.428 0 .324.108.653.206.731.245.209.414.347.727.732.056.064.219.135.287.203.142.142.2.355.395.355.173 0 .296-.244.53-.308-.056.054-.107.117-.107.192 0 .172.196.128.4.032.456.119.618-.009.741-.159.024-.029.019-.072-.007-.099-.148-.137-.368-.059-.368-.39 0-.065.058-.242.246-.242.107 0 .247.087.197.252-.032.104.077.178.077.258 0 .296-.223.315-.223.502 0 .338.249.346.394.333.232 0 .627.217.796.217.213 0 .374-.099.374-.23 0-.103-.207-.525-.379-.525-.095 0-.167.117-.222.117-.04 0-.06-.014-.063-.019.052-.083-.027-.134-.027-.23 0-.069.126-.297.403-.297.222 0 .461.199.461.519 0 .284-.083.474-.083.541 0 .171.267.32.428.32.175 0 .615-.191.849-.191.249 0 .398-.039.398-.216 0-.158-.11-.52-.291-.52-.158 0-.392.358-.69.358a.371.371 0 0 1 .089-.127c.191-.094.321-.173.321-.281 0-.094-.128-.127-.198-.186.13-.012.198-.042.198-.135 0-.134-.199-.192-.199-.395.001-.128.087-.259.252-.259zm3.424 7.534c-.212-.134-.375.021-.563.216l.006-.028c.031-.181-.033-.332-.149-.352-.014-.003-.028.002-.042.004-.061-.16-.174-.12-.174-.12-.058-.159-.175-.121-.175-.121-.062-.159-.175-.121-.175-.121-.057-.159-.175-.121-.175-.121-.064-.162-.175-.121-.175-.121-.059-.159-.175-.121-.175-.121-.057-.158-.175-.121-.175-.121-.062-.164-.176-.121-.176-.121-.026-.069-.072-.116-.132-.126a.155.155 0 0 0-.112.025c.064-.324.09-.601-.169-.765-.136-.086-.285-.06-.334.017-.06.095.057.177.102.235.175.222-.747 1.691.594 2.537 1.023.645 1.579-.015 1.794-.178.104.082.32.221.489-.046.133-.207.098-.457-.084-.572zm-.823.469c-.255.211-.584.338-1.099.013-.543-.343-.614-.764-.57-1.168a.156.156 0 0 0 .103.068c.014.003.028-.002.042-.004.061.16.174.12.174.12.058.159.175.121.175.121.062.159.175.121.175.121.057.159.175.121.175.121.064.162.175.121.175.121.059.159.175.121.175.121.057.158.175.121.175.121.062.163.176.121.176.121.025.065.068.111.124.124zm-5.427.33c1.341-.846.419-2.315.594-2.537.046-.058.162-.14.102-.235-.048-.077-.198-.103-.334-.017-.259.164-.234.44-.169.765a.158.158 0 0 0-.113-.025c-.06.01-.105.057-.132.126 0 0-.114-.043-.176.121 0 0-.118-.038-.175.121 0 0-.116-.038-.175.121 0 0-.111-.041-.175.121 0 0-.118-.038-.175.121 0 0-.113-.038-.175.121 0 0-.117-.038-.175.121 0 0-.113-.04-.174.12-.014-.002-.028-.006-.042-.004-.115.02-.179.171-.148.352l.005.028c-.188-.195-.351-.35-.563-.216-.182.114-.217.365-.085.574.168.267.385.128.489.046.218.161.773.821 1.796.176zm.293-1.485c.044.404-.026.826-.569 1.168-.514.325-.844.198-1.099-.013.056-.013.099-.059.124-.125 0 0 .114.043.176-.121 0 0 .118.037.175-.121 0 0 .116.038.175-.121 0 0 .111.041.175-.121 0 0 .118.038.175-.121 0 0 .113.038.175-.121 0 0 .118.038.175-.121 0 0 .113.04.174-.12.014.002.028.006.042.004a.152.152 0 0 0 .102-.067z"/><path d="M11.437 10.627c-.273.2-.592.429-.878.63l.129.698c.415-.273.917-.621 1.312-.909.395.288.897.636 1.312.909l.13-.698c-.286-.201-.605-.43-.878-.63 3.127-2.377 5.426-4.914 5.453-4.944a.999.999 0 0 0 .27-.843c-.011-.098-.116-.148-.2-.059-.027.029-2.365 2.61-6.087 5.426C8.277 7.391 5.94 4.81 5.914 4.781c-.085-.089-.189-.039-.201.059-.003.016-.089.468.271.843.027.03 2.326 2.567 5.453 4.944z"/><path d="M12.808 8.265c1.322-.489 2.782-1.201 2.698-1.429-.069-.188-1.107.278-2.915.946-.844.312-1.011.411-.958.555.037.103.198.29 1.175-.072zm3.143-5.839c.052-.189-.8-.485-1.73-.741-1.271-.349-1.733-.318-1.731-.26.004.18.489.266 1.582.567 1.189.327 1.82.649 1.879.434z"/></g><g fill="#fcb514"><path d="M12 .201A7.8 7.8 0 1 0 19.8 8 7.799 7.799 0 0 0 12 .201zm0 15.037A7.239 7.239 0 1 1 12.001.763 7.239 7.239 0 0 1 12 15.238z"/><path d="M13.848 12.272c.028.005.057-.008.083-.034.022.197.135.169.175.121.023.197.135.168.175.121.023.197.135.169.175.121.022.196.135.168.175.121.022.196.135.168.175.121.023.197.135.169.175.121.022.197.135.169.175.121.022.196.135.168.175.121.007.084.041.146.091.155.071.012.147-.086.17-.22s-.015-.252-.086-.264c-.028-.005-.057.008-.083.033-.023-.197-.135-.169-.175-.121-.022-.196-.135-.168-.175-.121-.022-.196-.135-.168-.175-.121-.022-.197-.135-.168-.175-.121-.022-.196-.135-.168-.175-.121-.023-.197-.135-.169-.175-.121-.022-.197-.135-.169-.175-.121-.022-.197-.135-.169-.175-.121-.007-.084-.041-.146-.091-.155-.071-.012-.147.087-.17.22-.023.134.016.252.086.265zm-5.27 1.088c.05-.009.084-.071.092-.155.04.048.153.076.175-.121.04.048.152.076.175-.121.04.048.153.075.175-.121.04.048.153.076.175-.121.04.048.153.076.175-.121.04.047.153.076.175-.121.04.048.152.076.175-.121.04.048.153.076.175-.121.026.025.056.038.083.034.071-.012.11-.131.086-.264-.023-.134-.099-.232-.17-.22-.05.009-.084.071-.091.155-.04-.048-.153-.076-.175.121-.04-.048-.153-.076-.175.121-.04-.048-.153-.076-.175.121-.04-.048-.153-.076-.175.121-.04-.047-.153-.076-.175.121-.04-.048-.153-.076-.175.121-.04-.047-.153-.075-.175.121-.04-.048-.153-.076-.175.121-.026-.026-.055-.039-.083-.033-.071.012-.109.13-.086.264.022.133.098.231.169.219z"/><path d="M16.184 13.028c-.44-.278-.737 1.23-1.922.482-1.307-.824-.025-2.086-.64-2.474-.105-.066-.207-.04-.229-.006-.022.036.045.081.098.148.228.288-.741 1.69.575 2.52 1.126.71 1.674-.256 1.767-.198.075.048.259.24.412-.003.136-.216.045-.402-.061-.469zm-5.675-1.85c.053-.067.12-.112.098-.148-.022-.034-.124-.06-.229.006-.614.388.668 1.649-.639 2.474-1.185.748-1.482-.76-1.922-.482-.106.067-.198.253-.061.469.153.243.336.05.412.003.093-.058.641.908 1.767.198 1.315-.83.346-2.232.574-2.52z"/></g><g fill="#fff"><path d="M18.212 4.851c-.012-.078-.069-.019-.069-.019S15.797 7.438 12 10.302c-3.797-2.864-6.142-5.47-6.142-5.47s-.058-.059-.07.019c0 0-.085.431.252.781 0 0 2.327 2.584 5.523 4.996-.299.22-.606.442-.921.663l.1.537c.43-.284.85-.577 1.258-.875.408.298.828.592 1.258.875l.1-.537a50.286 50.286 0 0 1-.921-.663c3.195-2.412 5.523-4.996 5.523-4.996.337-.35.252-.781.252-.781z"/><path d="M7.141 5.249c.478.382.622.627.733.737.094.093.186.102.288.204.151.151.198.333.341.333.148 0 .311-.323.63-.323.214 0-.131.143-.131.283 0 .119.262-.044.319-.044.096 0 .467.166.685-.129-.099-.098-.39-.058-.39-.444 0-.106.09-.318.322-.318.187 0 .328.164.269.351-.018.059.081.128.081.235 0 .324-.223.36-.223.502 0 .286.202.264.313.257.261 0 .664.217.8.217.167 0 .299-.072.299-.155s-.195-.449-.303-.449c-.062 0-.128.117-.222.117-.104 0-.164-.065-.127-.13.021-.037-.039-.097-.039-.194 0-.118.163-.373.479-.373.263 0 .537.228.537.595 0 .305-.083.481-.083.541 0 .113.215.245.352.245s.65-.192.815-.192.356.012.356-.14-.105-.444-.216-.444-.365.358-.69.358c-.039 0-.082-.008-.082-.062 0-.055.087-.179.132-.206s.284-.129.284-.216c0-.049-.219-.11-.219-.206 0-.099.219-.02.219-.115 0-.086-.199-.165-.199-.395 0-.165.113-.336.326-.336.413 0 .672.309 1.061.309.329 0 .69-.174.849-.174.482 0 .469.544.947.544.223 0 .301-.084.301-.345 0-.142-.069-.129-.152-.129s-.095-.063-.219-.063c-.181 0-.381-.094-.381-.186 0-.095.677-.311.775-.311.347 0 .379.69.935.69.141 0 .245-.03.245-.275s-.039-.223-.084-.217-.269.069-.269-.002c0-.07.106-.141-.022-.162-.59-.098-.418-.65-.648-.65-.11 0-.491.207-.491-.031 0-.131.091-.31.091-.593 0-.312-.178-.497-.006-.497.376 0 1.033.191 1.033.283 0 .066-.37.028-.37.193 0 .098.212.216.535.216s.453-.1.292-.1-.408-.005-.408-.116c0-.112.286-.062.286-.179 0-.173-.292-.16-.826-.312-2.66-.757-3.585-1.743-5.255-1.743-2.055 0-1.726 1.401-2.974 1.717-.987.252-1.078.756-1.078 1.357 0 .337.114.622.177.672zm.944.521c-.11 0-.082-.077-.082-.077.143-.193.07-.653.247-.653.1 0-.043.102-.043.221 0 .134.197.095.197.251 0 .1-.161.258-.319.258zm.425.653s-.082-.059-.082-.102c0-.098.166-.126.166-.096 0 .083-.084.198-.084.198zm.134-1.778c0 .068-.139.231-.227.231-.067 0-.174-.261-.174-.283s.031-.066.129-.066c.098.001.272.05.272.118zm-.8-1.033c.394 0 .599.233.599.487 0 .255-.214.44-.451.44-.151 0-.196-.127-.196-.191 0-.088.13-.165.13-.269 0-.129-.157-.218-.315-.218-.267 0-.447.229-.447.116-.001-.135.269-.365.68-.365zm4.773 4.242c-.676.25-.951.354-.913.458.021.057.161.222 1.078-.117.914-.339 2.715-1.164 2.652-1.332-.031-.083-1.303.431-2.817.991zm1.475-5.935c1.115.307 1.758.59 1.786.487s-.858-.423-1.677-.648c-.818-.225-1.668-.336-1.641-.311.086.083.416.166 1.532.472z"/></g><path fill="#cf0a2c" d="M8.212 5.467c-.027 0-.052.045-.052.061 0 .017.042.075.074.075.018 0 .041-.008.041-.024-.001-.065-.003-.112-.063-.112z"/></svg>