<svg width="512" height="512" viewBox="0 0 512 512" xmlns="http://www.w3.org/2000/svg"><title>buffalo-sabres</title><g fill="none" fill-rule="evenodd"><path d="M427 256.5C427 162.49 350.51 86 256.5 86S86 162.49 86 256.5 162.49 427 256.5 427 427 350.51 427 256.5z" fill="#ADAFAA"/><path d="M256.5 88.131c-92.837 0-168.369 75.532-168.369 168.369S163.663 424.869 256.5 424.869 424.869 349.337 424.869 256.5 349.337 88.131 256.5 88.131z" fill="#002654"/><path d="M256.5 104.371c-83.886 0-152.129 68.243-152.129 152.129S172.614 408.629 256.5 408.629 408.629 340.386 408.629 256.5 340.386 104.371 256.5 104.371z" fill="#ADAFAA"/><g fill="#002654"><path d="M384.247 382.84a7.982 7.982 0 1 0-.021 15.964 7.982 7.982 0 0 0 .021-15.963zm0 14.259a6.277 6.277 0 1 1 .021-12.553 6.277 6.277 0 0 1-.02 12.553z"/><path d="M387.508 388.978a2.707 2.707 0 0 0-2.707-2.706h-3.836v9.122h1.726v-3.709h1.215l1.726 3.709h1.897l-1.811-3.858a2.728 2.728 0 0 0 1.79-2.557zm-2.707.98h-2.131v-1.981h2.131a1 1 0 0 1 1.002 1.002c-.012.544-.457.98-1.002.98z"/></g><g fill="#002654"><path d="M256.5 301.512a1104.307 1104.307 0 0 0 105.518-91.068l-.746.021c-12.873 0-15.835-14.727-19.82-14.727-1.62.15-7.673 2.067-11.339 3.666 2.409.831 4.69-.021 7.524 1.811 3.687-.34 6.457 1.45 6.457 6.01 0 4.54-1.001 10.572-9.654 10.572-11.829 0-12.127-11.594-20.183-11.594-2.451 0-10.955 3.708-18.094 3.708-9.1 0-14.898-6.586-22.613-6.586-2.962 0-3.73 2.58-3.73 3.922 0 3.474 4.242 4.667 4.242 8.418a3.836 3.836 0 0 1-2.025 3.432c1.065.767 2.025 1.769 2.025 3.388 0 .64-.214 1.194-.448 1.727 1.662-1.3 3.133-2.28 4.817-2.28 5.413 0 7.821 9.185 7.821 12.68 0 5.69-5.37 6.223-10.102 6.223-4.412 0-14.109 4.092-18.094 4.092-4.007 0-9.953-3.388-10.614-7.693-1.577 2.088-4.625 3.495-8.418 3.495-4.178 0-12.191-4.625-16.858-4.625-3.602.34-10.124-.15-10.124-8.696 0-.511.085-.959.192-1.385-5.286 2.77-12.596.448-12.596.448-8.994 4.454-10.272-.512-10.251-2.409-1.897 1.428-4.241 4.199-7.417 4.199-5.221 0-6.521-5.179-9.57-8.035-1.214-1.257-4.432-2.493-6.116-4.369-2.877-2.877-5.605-7.672-15.345-15.473-2.707-2.152-5.008-9.867-5.008-16.837 0-12.936 1.96-26.065 25.426-32.032 23.976-6.053 19.437-36.7 64.172-36.7 12.595 0 22.974 2.387 33.439 6.18-2.856-1.45-4.135-3.026-3.56-5.094.533-1.939 2.11-5.626 38.832 4.476 22.186 6.095 39.599 11.914 38 17.775-1.918 6.948-15.09-.725-42.05-8.12-10.784-2.963-19.5-4.945-25.532-6.842 18.713 7.566 39.023 18.99 73.741 28.921 12.17 3.133 19.97 3.41 19.97 9.762a4.028 4.028 0 0 1-1.342 3.047c6.947-.469 9.441 8.61-5.52 8.61-8.483 0-14.62-3.303-14.62-7.821a5.115 5.115 0 0 1 2.727-4.604 63.298 63.298 0 0 0-11.423-2.195c.533 1.854 1.172 4.241 1.172 7.246 0 5.776-1.321 8.461-1.812 11.765 2.537-.47 5.137-1.705 7.119-1.705 8.589 0 3.708 12.596 14.322 13.896 4.092.767 3.964 3.708 3.964 3.708 3.985-.746 6.735-.448 6.735 7.566 0 .49-.02.981-.064 1.47 9.825-9.931 15.174-15.813 15.345-16.027a4.433 4.433 0 0 1 3.495-1.513c-25.362-46.887-74.999-78.813-131.967-78.813-56.968 0-106.605 31.926-131.988 78.792a4.518 4.518 0 0 1 3.474 1.534c.554.597 49.892 55.05 128.514 114.683zm12.02-51.15c44.778-16.56 61.913-25.447 64.215-19.224 2.259 6.138-21.611 18.904-58.46 32.523-22.059 8.163-25.98 3.708-27.131.597-1.45-3.922-.192-5.925 21.376-13.896zm123.805-57.437a22.804 22.804 0 0 1-6.416 15.26c-.575.639-48.826 53.899-114.725 104.26a1022.41 1022.41 0 0 0 11.68 8.419c.08-.54.277-1.056.575-1.513 1.47-2.345 5.584-3.24 9.356-.874 5.797 3.666 5.989 9.164 4.88 15.473.171.02.363.02.534.064 1.491.255 2.664 1.236 3.473 2.621 0 0 1.961-.213 3.709 2.579 0 0 2.067-.192 3.73 2.579 0 0 1.96-.277 3.73 2.578 0 0 2.045-.17 3.729 2.58 0 0 2.046-.214 3.73 2.578 0 0 2.003-.213 3.73 2.579 0 0 2.024-.192 3.729 2.579 0 0 1.94-.235 3.73 2.578.085.022.17-.042.255-.02 2.537.447 4.22 2.706 4.604 5.817 3.367-3.069 6.713-4.837 11.04-2.11a9.804 9.804 0 0 1 3.559 12c53.555-43.352 70.626-117.646 41.368-180.027zm-70.63 175.807s-2.067.191-3.73-2.58c0 0-1.96.257-3.73-2.578 0 0-2.024.17-3.73-2.579 0 0-2.045.192-3.729-2.579 0 0-2.003.214-3.73-2.557 0 0-2.024.192-3.73-2.579 0 0-1.939.235-3.729-2.557-.085-.022-.17.02-.256.02l-.532-.127c-.278 7.268 1.96 14.514 11.615 20.61 8.823 5.562 14.919 4.41 19.778 1.193a6.01 6.01 0 0 1-.81-1.087c.021-.022-1.94.192-3.687-2.6z"/><path d="M240.835 215.537c-4.944 0-6.926 3.9-6.99 4.71 0 .874.746 1.961.852 3.197 0 0 1.961-2.003 4.199-2.003 4.326 0 8.099 7.054 9.292 10.89.426-1.81.874-4.198.874-7.33 0-5.862-4.263-9.464-8.227-9.464zm-75.233 145.394c4.327-2.728 7.673-.959 11.04 2.11.362-3.111 2.046-5.392 4.604-5.818.085-.021.17.042.255.021 1.77-2.813 3.73-2.579 3.73-2.579 1.705-2.77 3.73-2.578 3.73-2.578 1.726-2.792 3.73-2.58 3.73-2.58 1.683-2.791 3.73-2.578 3.73-2.578 1.683-2.75 3.729-2.579 3.729-2.579 1.769-2.834 3.73-2.579 3.73-2.579 1.662-2.77 3.73-2.579 3.73-2.579 1.768-2.791 3.708-2.578 3.708-2.578a5.136 5.136 0 0 1 3.473-2.622c.17-.042.363-.042.533-.064-1.108-6.308-.916-11.807 4.88-15.473 3.773-2.365 7.865-1.47 9.357.874.29.462.485.976.575 1.513 4.029-2.877 8.248-5.903 11.68-8.418-65.92-50.34-114.171-103.579-114.747-104.218a22.804 22.804 0 0 1-6.415-15.26c-29.256 62.372-12.173 136.657 41.389 179.984a9.825 9.825 0 0 1 3.56-11.999zm48.081-7.672c-1.705 2.77-3.73 2.579-3.73 2.579-1.726 2.77-3.73 2.557-3.73 2.557-1.683 2.792-3.729 2.579-3.729 2.579-1.684 2.75-3.73 2.579-3.73 2.579-1.747 2.834-3.73 2.579-3.73 2.579-1.662 2.77-3.729 2.578-3.729 2.578-1.748 2.792-3.708 2.58-3.708 2.58a6.01 6.01 0 0 1-.81 1.086c4.88 3.218 10.954 4.37 19.8-1.193 9.654-6.096 11.87-13.342 11.614-20.61l-.532.128c-.086 0-.17-.042-.256-.021-1.79 2.834-3.73 2.579-3.73 2.579z"/><path d="M298.805 380.688c-17.668-11.147-17.668-26.726-15.643-38.767a889.542 889.542 0 0 1-26.662-18.5c-7.395 5.371-18.329 12.937-26.662 18.5 2.025 12.041 2.003 27.62-15.643 38.767-21.632 13.64-34.825.426-39.173-3.133a10.23 10.23 0 0 1-4.369 1.854c24.34 17.05 53.942 27.067 85.847 27.067 31.905 0 61.508-10.017 85.847-27.067a10.507 10.507 0 0 1-4.37-1.854c-4.347 3.56-17.518 16.773-39.172 3.133zM212.532 207.48c-2.792 0-3.644 2.664-3.644 3.538 0 6.309 4.816 3.772 7.672 7.63 1.023-2.643-1.598-3.751-1.598-6.65 0-.83.34-1.513.34-2.088.022-1.535-1.342-2.43-2.77-2.43z"/><path d="M273.55 201.727c8.227 0 13.96 6.585 22.613 6.585 7.267 0 15.153-3.708 18.094-3.708 9.186 0 9.058 11.594 20.183 11.594 5.712 0 8.056-2.6 8.056-8.951 0-4.241-2.558-4.37-4.86-4.37-.873 0-2.024-1.363-4.667-1.363-3.026 0-5.562-1.3-6.244-2.089 2.238-1.726 12.745-5.264 14.641-5.264 5.947 0 7.29 14.706 19.928 14.706 3.367 0 6.84-.896 6.84-7.481 0-5.072-.98-6.628-3.494-6.245-1.897.405-3.623.618-3.623.618.959-1.875.596-3.495-2.238-4.07-11.829-1.833-7.161-13.875-14.067-13.875-2.387 0-8.844 3.282-8.844.96 0-2.452 1.94-6.31 1.94-12.639 0-4.199-1.663-8.973-1.663-8.973 6.031.022 14.62 2.28 18.5 3.922-2.473.448-6.075 1.321-6.075 4.603 0 3.474 5.712 6.202 13 6.202 11.85 0 10.572-5.35 6.224-5.35-4.497 0-6.138-.383-6.777-.724 2.067-.767 5.775-.852 5.775-3.942 0-5.2-6.905-4.945-18.776-8.206-53.09-14.578-76.064-37.211-112.445-37.211-44.202 0-38.512 30.242-63.788 36.657-22.378 5.648-24.232 17.626-24.232 30.434 0 6.906 2.301 13.917 4.39 15.58 5.221 4.454 8.823 7.395 15.494 15.6 1.194 1.365 4.668 2.878 6.117 4.327 3.026 3.026 4.262 7.566 8.418 7.566 3.687 0 6.309-5.2 11.296-6.564-1.194 1.15-2.28 2.493-2.28 4.092 0 3.665 4.177 2.728 8.524.682 9.719 2.536 13.172-.192 15.793-3.39.511-.617.405-1.534-.15-2.109-3.153-2.92-7.842-1.257-7.842-8.312 0-1.385 1.236-5.157 5.243-5.157 2.28 0 5.264 1.854 4.198 5.37-.682 2.217 1.641 3.794 1.641 5.499 0 6.308-4.752 6.713-4.752 10.699 0 7.203 5.306 7.374 8.397 7.097 4.944 0 13.363 4.625 16.964 4.625 4.54 0 7.971-2.11 7.971-4.902 0-2.195-4.411-11.19-8.077-11.19-2.025 0-3.56 2.494-4.731 2.494-.853 0-1.28-.298-1.343-.405 1.108-1.769-.576-2.856-.576-4.902 0-1.47 2.686-6.33 8.59-6.33 4.73 0 9.824 4.242 9.824 11.062 0 6.053-1.769 10.102-1.769 11.53 0 3.644 5.69 6.82 9.122 6.82 3.73 0 13.107-4.07 18.095-4.07 5.306 0 8.482-.832 8.482-4.604 0-3.368-2.344-11.083-6.202-11.083-3.367 0-8.355 7.63-14.706 7.63a7.907 7.907 0 0 1 1.897-2.707c4.07-2.003 6.841-3.687 6.841-5.988 0-2.004-2.728-2.707-4.22-3.965 2.771-.255 4.22-.895 4.22-2.877 0-2.856-4.24-4.092-4.24-8.418.02-2.728 1.853-5.52 5.37-5.52zm72.974 160.568c-4.518-2.856-7.992.448-11.999 4.604l.128-.597c.66-3.858-.703-7.076-3.176-7.502-.298-.064-.596.043-.895.085-1.3-3.41-3.708-2.557-3.708-2.557-1.236-3.389-3.73-2.58-3.73-2.58-1.321-3.388-3.73-2.578-3.73-2.578-1.214-3.389-3.73-2.579-3.73-2.579-1.363-3.452-3.729-2.579-3.729-2.579-1.257-3.388-3.73-2.578-3.73-2.578-1.214-3.368-3.73-2.58-3.73-2.58-1.32-3.494-3.75-2.578-3.75-2.578-.554-1.47-1.535-2.472-2.814-2.685a3.303 3.303 0 0 0-2.387.532c1.364-6.905 1.919-12.808-3.601-16.304-2.899-1.832-6.074-1.278-7.119.363-1.278 2.024 1.215 3.772 2.174 5.008 3.73 4.732-15.92 36.04 12.66 54.07 21.802 13.747 33.652-.32 38.234-3.794 2.217 1.748 6.82 4.71 10.422-.98 2.835-4.412 2.089-9.74-1.79-12.19zm-17.54 9.996c-5.435 4.497-12.447 7.203-23.423.277-11.572-7.31-13.085-16.283-12.148-24.893a3.325 3.325 0 0 0 2.195 1.45c.299.063.597-.043.896-.086 1.3 3.41 3.708 2.557 3.708 2.557 1.236 3.39 3.73 2.58 3.73 2.58 1.321 3.388 3.73 2.578 3.73 2.578 1.214 3.389 3.729 2.579 3.729 2.579 1.364 3.452 3.73 2.579 3.73 2.579 1.257 3.388 3.73 2.578 3.73 2.578 1.214 3.368 3.73 2.58 3.73 2.58 1.32 3.473 3.75 2.578 3.75 2.578.533 1.385 1.45 2.366 2.643 2.643zm-115.663 7.033c28.58-18.03 8.93-49.339 12.66-54.07.98-1.236 3.452-2.984 2.173-5.008-1.023-1.641-4.22-2.196-7.118-.363-5.52 3.496-4.987 9.378-3.602 16.304a3.367 3.367 0 0 0-2.408-.532c-1.279.213-2.238 1.214-2.813 2.685 0 0-2.43-.916-3.751 2.579 0 0-2.515-.81-3.73 2.579 0 0-2.472-.81-3.73 2.578 0 0-2.365-.873-3.73 2.58 0 0-2.514-.81-3.73 2.578 0 0-2.407-.81-3.729 2.579 0 0-2.493-.81-3.73 2.579 0 0-2.408-.853-3.708 2.557-.298-.042-.597-.128-.895-.085-2.45.426-3.815 3.644-3.154 7.502l.106.597c-4.006-4.156-7.48-7.46-11.999-4.604-3.879 2.43-4.624 7.78-1.811 12.234 3.58 5.69 8.205 2.728 10.422.98 4.646 3.431 16.474 17.498 38.277 3.75zm6.244-31.65c.938 8.611-.554 17.605-12.126 24.894-10.955 6.926-17.988 4.22-23.423-.277 1.194-.277 2.11-1.258 2.643-2.664 0 0 2.43.916 3.75-2.58 0 0 2.516.79 3.73-2.578 0 0 2.473.81 3.73-2.579 0 0 2.366.874 3.73-2.578 0 0 2.515.81 3.73-2.58 0 0 2.408.81 3.73-2.578 0 0 2.514.81 3.73-2.579 0 0 2.407.853 3.707-2.557.299.042.597.127.896.085a3.24 3.24 0 0 0 2.173-1.428z"/><path d="M244.501 312.488a1226.047 1226.047 0 0 1-18.712 13.427l2.749 14.876c8.845-5.818 19.544-13.235 27.962-19.373 8.418 6.138 19.117 13.555 27.962 19.373l2.77-14.876a1226.04 1226.04 0 0 1-18.712-13.427c66.644-50.66 115.642-104.73 116.217-105.37a21.291 21.291 0 0 0 5.755-17.966c-.235-2.088-2.473-3.154-4.263-1.257-.575.618-50.404 55.626-129.729 115.642-79.346-60.016-129.154-115.024-129.708-115.642-1.811-1.897-4.028-.831-4.284 1.257-.064.341-1.896 9.975 5.776 17.967.575.64 49.573 54.71 116.217 105.369z"/><path d="M273.72 262.148c28.176-10.422 59.292-25.597 57.502-30.456-1.47-4.007-23.593 5.925-62.126 20.162-17.988 6.65-21.547 8.76-20.418 11.828.789 2.196 4.22 6.18 25.042-1.534zm66.986-124.444c1.108-4.028-17.05-10.336-36.87-15.792-27.09-7.439-36.936-6.778-36.893-5.542.085 3.837 10.422 5.67 33.717 12.084 25.34 6.97 38.788 13.832 40.046 9.25z"/></g><g fill="#FCB514"><path d="M256.5 90.284c-67.239 0-127.856 40.505-153.585 102.626-25.73 62.121-11.503 133.625 36.045 181.167 47.548 47.541 119.053 61.759 181.171 36.022 62.118-25.738 102.615-86.36 102.607-153.599A166.216 166.216 0 0 0 256.5 90.284zm0 320.476c-55.857 1.133-107.962-28.019-136.22-76.213-28.259-48.195-28.254-107.9.01-156.091 28.266-48.19 80.375-77.336 136.231-76.195 83.966 1.716 151.136 70.277 151.13 154.26-.006 83.983-67.185 152.535-151.151 154.239z"/><path d="M295.885 347.547c.597.107 1.215-.17 1.77-.725.468 4.199 2.877 3.602 3.73 2.58.49 4.198 2.876 3.58 3.729 2.578.49 4.199 2.877 3.602 3.73 2.579.468 4.177 2.877 3.58 3.73 2.579.468 4.177 2.876 3.58 3.729 2.578.49 4.199 2.877 3.602 3.73 2.58.468 4.198 2.877 3.601 3.73 2.578.468 4.177 2.876 3.58 3.729 2.579.15 1.79.874 3.112 1.94 3.303 1.513.256 3.132-1.833 3.622-4.688.49-2.856-.32-5.371-1.832-5.627-.597-.106-1.215.17-1.77.703-.49-4.198-2.877-3.601-3.729-2.578-.469-4.178-2.877-3.58-3.73-2.58-.469-4.176-2.877-3.58-3.73-2.578-.468-4.199-2.877-3.58-3.73-2.579-.468-4.177-2.876-3.58-3.729-2.579-.49-4.198-2.877-3.601-3.73-2.579-.468-4.198-2.877-3.601-3.73-2.578-.468-4.199-2.876-3.602-3.729-2.58-.149-1.79-.874-3.11-1.94-3.303-1.512-.255-3.132 1.855-3.622 4.69-.49 2.855.34 5.37 1.832 5.647zM183.57 370.735c1.065-.192 1.79-1.513 1.96-3.303.853 1.023 3.261 1.62 3.73-2.58.853 1.024 3.24 1.62 3.73-2.578.852 1.023 3.26 1.598 3.73-2.579.852 1.023 3.26 1.62 3.73-2.579.852 1.023 3.26 1.62 3.729-2.578.852 1.001 3.26 1.62 3.73-2.58.852 1.024 3.239 1.62 3.73-2.578.852 1.023 3.26 1.62 3.729-2.579.554.533 1.193.81 1.769.725 1.513-.256 2.344-2.792 1.833-5.627-.49-2.856-2.11-4.944-3.623-4.689-1.066.192-1.79 1.514-1.94 3.304-.852-1.023-3.26-1.62-3.73 2.579-.852-1.023-3.26-1.62-3.73 2.578-.852-1.023-3.26-1.62-3.729 2.58-.852-1.024-3.26-1.62-3.73 2.578-.852-1.002-3.26-1.62-3.73 2.579-.852-1.023-3.26-1.62-3.729 2.579-.852-1.002-3.26-1.599-3.73 2.579-.852-1.023-3.26-1.62-3.73 2.578-.554-.554-1.172-.83-1.768-.703-1.514.256-2.323 2.77-1.833 5.627.469 2.834 2.088 4.923 3.602 4.667z"/><path d="M345.671 363.66c-9.377-5.926-15.707 26.214-40.962 10.272-27.856-17.562-.533-44.458-13.64-52.727-2.238-1.407-4.412-.853-4.88-.128-.47.767.958 1.726 2.088 3.154 4.86 6.138-15.793 36.018 12.255 53.708 23.998 15.131 35.677-5.456 37.659-4.22 1.598 1.023 5.52 5.115 8.78-.064 2.9-4.604.96-8.568-1.3-9.996zM224.724 324.23c1.13-1.428 2.558-2.387 2.089-3.154-.47-.725-2.643-1.279-4.88.128-13.087 8.269 14.236 35.144-13.62 52.727-25.255 15.942-31.585-16.198-40.962-10.273-2.26 1.428-4.22 5.392-1.3 9.996 3.26 5.179 7.16 1.065 8.78.064 1.983-1.236 13.662 19.351 37.66 4.22 28.026-17.69 7.374-47.57 12.233-53.708z"/></g><g fill="#FFF"><path d="M388.893 189.387c-.255-1.662-1.47-.405-1.47-.405s-50 55.54-130.923 116.58c-80.924-61.04-130.901-116.58-130.901-116.58s-1.237-1.257-1.492.405c0 0-1.812 9.186 5.37 16.645 0 0 49.595 55.071 117.71 106.477a1071.719 1071.719 0 0 1-19.63 14.13l2.132 11.445a693.558 693.558 0 0 0 26.811-18.648c8.696 6.35 17.647 12.617 26.811 18.648l2.131-11.445a1071.715 1071.715 0 0 1-19.628-14.13c68.093-51.406 117.708-106.477 117.708-106.477 7.183-7.46 5.371-16.645 5.371-16.645z"/><path d="M152.943 197.87c10.187 8.14 13.256 13.362 15.622 15.707 2.003 1.982 3.964 2.174 6.138 4.347 3.218 3.219 4.22 7.097 7.267 7.097 3.154 0 6.628-6.883 13.427-6.883 4.56 0-2.792 3.047-2.792 6.03 0 2.537 5.584-.937 6.799-.937 2.046 0 9.953 3.538 14.599-2.75-2.11-2.088-8.312-1.235-8.312-9.462 0-2.259 1.918-6.777 6.863-6.777 3.985 0 6.99 3.495 5.733 7.48-.384 1.258 1.726 2.728 1.726 5.009 0 6.905-4.753 7.672-4.753 10.699 0 6.095 4.305 5.626 6.671 5.477 5.563 0 14.152 4.625 17.05 4.625 3.56 0 6.373-1.535 6.373-3.304s-4.156-9.569-6.458-9.569c-1.322 0-2.728 2.494-4.732 2.494-2.216 0-3.495-1.386-2.706-2.77.447-.79-.831-2.068-.831-4.136 0-2.514 3.474-7.95 10.208-7.95 5.605 0 11.445 4.86 11.445 12.682 0 6.5-1.769 10.251-1.769 11.53 0 2.408 4.582 5.221 7.502 5.221s13.853-4.092 17.37-4.092c3.516 0 7.587.256 7.587-2.983 0-3.24-2.238-9.463-4.603-9.463-2.366 0-7.78 7.63-14.706 7.63-.831 0-1.748-.17-1.748-1.322 0-1.172 1.855-3.815 2.814-4.39.959-.575 6.052-2.75 6.052-4.603 0-1.045-4.667-2.345-4.667-4.39 0-2.11 4.667-.427 4.667-2.452 0-1.833-4.24-3.516-4.24-8.418 0-3.517 2.407-7.161 6.947-7.161 8.802 0 14.322 6.585 22.613 6.585 7.011 0 14.705-3.708 18.094-3.708 10.273 0 9.995 11.594 20.183 11.594 4.753 0 6.415-1.79 6.415-7.353 0-3.026-1.47-2.75-3.24-2.75-1.769 0-2.024-1.342-4.667-1.342-3.858 0-8.12-2.003-8.12-3.964 0-2.025 14.428-6.628 16.517-6.628 7.396 0 8.078 14.705 19.927 14.705 3.005 0 5.222-.639 5.222-5.86 0-5.222-.831-4.753-1.79-4.625-.96.128-5.733 1.47-5.733-.043 0-1.492 2.259-3.005-.47-3.453-12.574-2.088-8.908-13.853-13.81-13.853-2.344 0-10.464 4.412-10.464-.66 0-2.792 1.94-6.607 1.94-12.639 0-6.65-3.794-10.592-.129-10.592 8.014 0 22.016 4.07 22.016 6.031 0 1.407-7.886.597-7.886 4.114 0 2.088 4.519 4.603 11.403 4.603s9.654-2.13 6.223-2.13-8.696-.108-8.696-2.473c0-2.387 6.096-1.322 6.096-3.815 0-3.687-6.223-3.41-17.604-6.65-56.692-16.133-76.406-37.147-111.998-37.147-43.797 0-36.785 29.858-63.383 36.593-21.035 5.371-22.975 16.112-22.975 28.921 0 7.183 2.43 13.257 3.773 14.322zm20.119 11.103c-2.345 0-1.748-1.64-1.748-1.64 3.048-4.114 1.492-13.918 5.264-13.918 2.131 0-.916 2.174-.916 4.71 0 2.856 4.198 2.025 4.198 5.35 0 2.13-3.431 5.498-6.798 5.498zm9.057 13.917s-1.747-1.257-1.747-2.174c0-2.088 3.538-2.685 3.538-2.046 0 1.77-1.79 4.22-1.79 4.22zm2.856-37.893c0 1.449-2.962 4.923-4.838 4.923-1.428 0-3.708-5.563-3.708-6.032 0-.469.66-1.406 2.75-1.406 2.088.021 5.796 1.065 5.796 2.515zm-17.05-22.016c8.397 0 12.766 4.966 12.766 10.379 0 5.435-4.56 9.377-9.611 9.377-3.219 0-4.178-2.706-4.178-4.07 0-1.876 2.77-3.517 2.77-5.733 0-2.75-3.345-4.646-6.713-4.646-5.69 0-9.526 4.88-9.526 2.472-.022-2.877 5.733-7.78 14.492-7.78zm101.725 90.407c-14.407 5.328-20.268 7.545-19.458 9.761.447 1.215 3.43 4.732 22.974-2.493 19.48-7.225 57.864-24.808 56.521-28.388-.66-1.77-27.77 9.185-60.037 21.12zm31.436-126.49c23.763 6.544 37.467 12.575 38.064 10.38.597-2.195-18.286-9.015-35.741-13.81-17.434-4.796-35.55-7.162-34.974-6.629 1.833 1.77 8.866 3.538 32.65 10.06z"/></g><path d="M175.768 202.515c-.575 0-1.108.96-1.108 1.3 0 .363.895 1.599 1.577 1.599.384 0 .874-.17.874-.512-.021-1.385-.064-2.387-1.343-2.387z" fill="#CF0A2C"/></g></svg>