<?xml version="1.0" encoding="UTF-8"?>
<svg width="512px" height="512px" viewBox="0 0 512 512" version="1.1" xmlns="http://www.w3.org/2000/svg" xmlns:xlink="http://www.w3.org/1999/xlink">
    <!-- Generator: Sketch 41.2 (35397) - http://www.bohemiancoding.com/sketch -->
    <title>buffalo-sabres</title>
    <desc>Created with Sketch.</desc>
    <defs></defs>
    <g id="NHL" stroke="none" stroke-width="1" fill="none" fill-rule="evenodd">
        <g id="buffalo-sabres">
            <g id="buf" transform="translate(86.000000, 86.000000)">
                <path d="M341,170.5 C341,76.4905625 264.509438,0 170.5,0 C76.4905625,0 0,76.4905625 0,170.5 C0,264.509437 76.4905625,341 170.5,341 C264.509438,341 341,264.509437 341,170.5 Z" id="Shape" fill="#ADAFAA"></path>
                <path d="M170.5,2.13125 C77.66275,2.13125 2.13125,77.66275 2.13125,170.5 C2.13125,263.33725 77.66275,338.86875 170.5,338.86875 C263.33725,338.86875 338.86875,263.33725 338.86875,170.5 C338.86875,77.66275 263.33725,2.13125 170.5,2.13125 Z" id="Shape" fill="#002654"></path>
                <path d="M170.5,18.371375 C86.614,18.371375 18.371375,86.614 18.371375,170.5 C18.371375,254.386 86.614,322.628625 170.5,322.628625 C254.386,322.628625 322.628625,254.386 322.628625,170.5 C322.628625,86.614 254.386,18.371375 170.5,18.371375 Z" id="Shape" fill="#ADAFAA"></path>
                <g id="Group" transform="translate(277.062500, 277.062500)" fill="#002654">
                    <path d="M21.184625,19.778 C18.3330985,19.7741929 15.6961483,21.2919462 14.2670881,23.759537 C12.8380278,26.2271278 12.8339656,29.2696704 14.2564318,31.7410683 C15.678898,34.2124662 18.311786,35.7372554 21.1633125,35.7410625 C25.5713903,35.7469476 29.1496143,32.1782653 29.1554996,27.7701875 C29.1613849,23.3621097 25.5927028,19.7838855 21.184625,19.778 L21.184625,19.778 Z M21.184625,34.0360625 C18.9422363,34.0322555 16.8722146,32.8324376 15.7543173,30.8885684 C14.6364199,28.9446993 14.6404821,26.552099 15.7649735,24.6120369 C16.889465,22.6719749 18.9635488,21.4791927 21.2059375,21.483 C24.6723698,21.4888855 27.4776974,24.3037552 27.4718121,27.7701875 C27.4659268,31.2366198 24.6510573,34.0419476 21.184625,34.0360625 L21.184625,34.0360625 Z" id="Shape"></path>
                    <path d="M24.4454375,25.916 C24.4454375,25.1981418 24.1602695,24.5096853 23.6526671,24.0020829 C23.1450647,23.4944805 22.4566082,23.2093125 21.73875,23.2093125 L17.9025,23.2093125 L17.9025,32.3310625 L19.6288125,32.3310625 L19.6288125,28.6226875 L20.843625,28.6226875 L22.5699375,32.3310625 L24.46675,32.3310625 L22.6551875,28.4735 C23.7289545,28.0804416 24.4436518,27.0594454 24.4454375,25.916 L24.4454375,25.916 Z M21.73875,26.896375 L19.6075,26.896375 L19.6075,24.9143125 L21.73875,24.9143125 C22.292875,24.9143125 22.7404375,25.361875 22.7404375,25.916 C22.7288418,26.4608761 22.2837494,26.8964984 21.73875,26.896375 Z" id="Shape"></path>
                </g>
                <g id="Group" fill="#002654">
                    <path d="M170.5,215.512 C207.555282,187.408099 242.798193,156.991424 276.018188,124.443687 L275.27225,124.465 C262.3995,124.465 259.437063,109.738062 255.451625,109.738062 C253.831875,109.88725 247.779125,111.805375 244.113375,113.403812 C246.521688,114.235 248.802125,113.3825 251.636688,115.215375 C255.32375,114.874375 258.094375,116.664625 258.094375,121.2255 C258.094375,125.765062 257.092688,131.7965 248.439813,131.7965 C236.611375,131.7965 236.313,120.2025 228.256875,120.2025 C225.805938,120.2025 217.30225,123.910875 210.162563,123.910875 C201.062125,123.910875 195.265125,117.325312 187.55,117.325312 C184.587563,117.325312 183.820313,119.904125 183.820313,121.246812 C183.820313,124.72075 188.0615,125.91425 188.0615,129.66525 C188.080004,131.097284 187.299291,132.420387 186.036813,133.096562 C187.102438,133.863812 188.0615,134.8655 188.0615,136.48525 C188.0615,137.124625 187.848375,137.67875 187.613938,138.211562 C189.276313,136.9115 190.746875,135.931125 192.430563,135.931125 C197.843938,135.931125 200.25225,145.116812 200.25225,148.612062 C200.25225,154.3025 194.8815,154.835312 190.150125,154.835312 C185.738438,154.835312 176.04125,158.927312 172.055813,158.927312 C168.049063,158.927312 162.102875,155.538625 161.442188,151.2335 C159.865063,153.322125 156.817375,154.72875 153.02375,154.72875 C148.8465,154.72875 140.833,150.103937 136.165563,150.103937 C132.56375,150.444937 126.042125,149.95475 126.042125,141.408437 C126.042125,140.896937 126.127375,140.449375 126.233938,140.023125 C120.948438,142.79375 113.63825,140.470687 113.63825,140.470687 C104.644375,144.925 103.365625,139.959187 103.386938,138.062375 C101.490125,139.490312 99.14575,142.260937 95.9701875,142.260937 C90.748625,142.260937 89.4485625,137.082 86.400875,134.226125 C85.1860625,132.968687 81.967875,131.732562 80.2841875,129.857062 C77.407,126.979875 74.679,122.184562 64.9391875,114.384187 C62.2325,112.231625 59.93075,104.5165 59.93075,97.5473125 C59.93075,84.610625 61.8915,71.482125 85.3565625,65.514625 C109.333125,59.461875 104.793563,28.8145 149.5285,28.8145 C162.124188,28.8145 172.503375,31.2015 182.967813,34.995125 C180.111938,33.545875 178.833188,31.96875 179.408625,29.9014375 C179.941438,27.962 181.518563,24.2749375 218.24,34.3770625 C240.426313,40.4724375 257.838625,46.29075 256.240188,52.1516875 C254.322063,59.0995625 241.150938,51.4270625 214.190625,44.031625 C203.4065,41.0691875 194.689688,39.087125 188.65825,37.1903125 C207.370625,44.75625 227.681438,56.17975 262.3995,66.111375 C274.568938,69.2443125 282.369313,69.521375 282.369313,75.8725 C282.38233,77.0345155 281.89286,78.1455348 281.026625,78.9201875 C287.9745,78.4513125 290.468063,87.5304375 275.506688,87.5304375 C267.024313,87.5304375 260.886313,84.227 260.886313,79.70875 C260.856454,77.783038 261.910822,76.0037922 263.614313,75.10525 C259.881929,74.0244412 256.057953,73.2896098 252.190813,72.9100625 C252.723625,74.76425 253.363,77.15125 253.363,80.1563125 C253.363,85.932 252.041625,88.617375 251.551438,91.9208125 C254.087625,91.4519375 256.68775,90.2158125 258.669813,90.2158125 C267.25875,90.2158125 262.378188,102.8115 272.991813,104.111562 C277.083813,104.878812 276.955938,107.819937 276.955938,107.819937 C280.941375,107.074 283.690688,107.372375 283.690688,115.385875 C283.691583,115.876776 283.670248,116.367466 283.62675,116.856437 C293.451813,106.924812 298.80125,101.042562 298.97175,100.829437 C299.849737,99.8247322 301.133563,99.2689296 302.467,99.31625 C277.105125,52.42875 227.468313,20.502625 170.5,20.502625 C113.531687,20.502625 63.894875,52.42875 38.5116875,99.2949375 C39.8388527,99.2713171 41.1092665,99.8324815 41.985625,100.829437 C42.53975,101.426187 91.8781875,155.879625 170.5,215.512 Z M182.52025,164.362 C227.297812,147.802187 244.433063,138.914875 246.734812,145.138125 C248.993938,151.276125 225.123938,164.042312 188.274625,177.661 C166.216187,185.823687 162.294688,181.369375 161.143812,178.25775 C159.694563,174.33625 160.952,172.332875 182.52025,164.362 L182.52025,164.362 Z M306.324563,106.924812 C306.172987,112.635345 303.883675,118.081017 299.9095,122.184562 C299.334063,122.823937 251.082563,176.083875 185.184313,226.445312 C188.615625,228.960187 192.814188,231.986562 196.863563,234.86375 C196.944911,234.323995 197.141141,233.807982 197.439,233.350562 C198.909563,231.006187 203.022875,230.111062 206.795188,232.47675 C212.592188,236.1425 212.784,241.641125 211.67575,247.949625 C211.84625,247.970937 212.038063,247.970937 212.208563,248.013562 C213.700438,248.269312 214.872625,249.249687 215.6825,250.635 C215.6825,250.635 217.64325,250.421875 219.390875,253.213812 C219.390875,253.213812 221.458188,253.022 223.120563,255.792625 C223.120563,255.792625 225.081313,255.515562 226.85025,258.371438 C226.85025,258.371438 228.89625,258.200938 230.579938,260.95025 C230.579938,260.95025 232.625938,260.737125 234.309625,263.529063 C234.309625,263.529063 236.313,263.315938 238.039313,266.107875 C238.039313,266.107875 240.064,265.916063 241.769,268.686688 C241.769,268.686688 243.708438,268.45225 245.498688,271.2655 C245.583938,271.286813 245.669188,271.222875 245.754438,271.244188 C248.290625,271.69175 249.974313,273.950875 250.357938,277.0625 C253.725313,273.9935 257.071375,272.224563 261.397813,274.952563 C265.315003,277.576114 266.810063,282.616346 264.957,286.9515 C318.51159,243.600029 335.583384,169.305623 306.324563,106.924813 L306.324563,106.924812 Z M235.694938,282.731625 C235.694938,282.731625 233.627625,282.923438 231.96525,280.152812 C231.96525,280.152812 230.0045,280.408563 228.235562,277.574 C228.235562,277.574 226.210875,277.7445 224.505875,274.995187 C224.505875,274.995187 222.459875,275.187 220.776187,272.416375 C220.776187,272.416375 218.772812,272.6295 217.0465,269.858875 C217.0465,269.858875 215.021812,270.050687 213.316812,267.280062 C213.316812,267.280062 211.377375,267.5145 209.587125,264.722562 C209.501875,264.70125 209.416625,264.743875 209.331375,264.743875 L208.798562,264.616 C208.5215,271.883562 210.759312,279.129812 220.413875,285.225188 C229.23725,290.78775 235.332625,289.636875 240.191875,286.418687 C239.881793,286.088074 239.610107,285.723443 239.382,285.33175 C239.403312,285.310437 237.442562,285.523562 235.694937,282.731625 L235.694938,282.731625 Z" id="Shape"></path>
                    <path d="M154.835313,129.537375 C149.890813,129.537375 147.90875,133.437563 147.844813,134.247438 C147.844813,135.12125 148.59075,136.208188 148.697313,137.444313 C148.697313,137.444313 150.658062,135.440938 152.895875,135.440938 C157.222312,135.440938 160.994625,142.495375 162.188125,146.331625 C162.614375,144.520062 163.061937,142.133062 163.061937,139.000125 C163.061937,133.139187 158.799438,129.537375 154.835313,129.537375 Z M79.6021875,274.93125 C83.928625,272.20325 87.2746875,273.972188 90.6420625,277.041187 C91.004375,273.929562 92.6880625,271.649125 95.2455625,271.222875 C95.3308125,271.201563 95.4160625,271.2655 95.5013125,271.244188 C97.27025,268.430938 99.231,268.665375 99.231,268.665375 C100.936,265.89475 102.960688,266.086563 102.960688,266.086563 C104.687,263.294625 106.690375,263.50775 106.690375,263.50775 C108.374063,260.715812 110.420063,260.928937 110.420063,260.928937 C112.10375,258.179625 114.14975,258.350125 114.14975,258.350125 C115.918688,255.515562 117.879438,255.771312 117.879438,255.771312 C119.541813,253.000687 121.609125,253.1925 121.609125,253.1925 C123.378063,250.400562 125.3175,250.613687 125.3175,250.613687 C126.029772,249.268231 127.302193,248.30806 128.791438,247.99225 C128.961938,247.949625 129.15375,247.949625 129.32425,247.928312 C128.216,241.619812 128.407813,236.121187 134.204813,232.455437 C137.977125,230.08975 142.069125,230.984875 143.561,233.32925 C143.850149,233.791049 144.045671,234.305198 144.136438,234.842437 C148.1645,231.96525 152.384375,228.938875 155.815688,226.424 C89.896125,176.083875 41.644625,122.84525 41.0691875,122.205875 C37.0950124,118.102329 34.8057007,112.656657 34.654125,106.946125 C5.39842923,169.317941 22.4809203,243.603027 76.043,286.930187 C74.1989259,282.594518 75.6922507,277.560135 79.6021875,274.93125 L79.6021875,274.93125 Z M127.683187,267.25875 C125.978187,270.029375 123.9535,269.837562 123.9535,269.837562 C122.227187,272.608188 120.223812,272.395062 120.223812,272.395062 C118.540125,275.187 116.494125,274.973875 116.494125,274.973875 C114.810437,277.723187 112.764437,277.552688 112.764437,277.552688 C111.016812,280.38725 109.03475,280.1315 109.03475,280.1315 C107.372375,282.902125 105.305062,282.710313 105.305062,282.710313 C103.557437,285.50225 101.596687,285.289125 101.596687,285.289125 C101.36858,285.680818 101.096895,286.045449 100.786812,286.376063 C105.667375,289.59425 111.741437,290.745125 120.586125,285.182563 C130.240687,279.087188 132.457187,271.840938 132.201437,264.573375 L131.668625,264.70125 C131.583375,264.70125 131.498125,264.658625 131.412875,264.679938 C129.622625,267.5145 127.683187,267.25875 127.683187,267.25875 L127.683187,267.25875 Z" id="Shape"></path>
                    <path d="M212.805313,294.687937 C195.13725,283.5415 195.13725,267.962063 197.161938,255.9205 C188.162877,249.916718 179.274086,243.749275 170.5,237.42125 C163.104563,242.792 152.17125,250.357937 143.838063,255.9205 C145.86275,267.962062 145.841438,283.5415 128.194688,294.687937 C106.5625,308.327937 93.3700625,295.114187 89.0223125,291.555 C87.7314549,292.507027 86.2348242,293.142183 84.65325,293.409187 C108.992125,310.459187 138.595188,320.476062 170.5,320.476062 C202.404813,320.476062 232.007875,310.459187 256.34675,293.409187 C254.768036,293.132451 253.273557,292.498209 251.977688,291.555 C247.629937,295.114187 234.458813,308.327937 212.805313,294.687937 Z M126.532313,121.48125 C123.740375,121.48125 122.887875,124.145313 122.887875,125.019125 C122.887875,131.327625 127.7045,128.791438 130.560375,132.649 C131.583375,130.00625 128.961938,128.898 128.961938,125.9995 C128.961938,125.168312 129.302938,124.486312 129.302938,123.910875 C129.32425,122.376375 127.96025,121.48125 126.532313,121.48125 Z" id="Shape"></path>
                    <path d="M187.55,115.726875 C195.776625,115.726875 201.509688,122.312438 210.162563,122.312438 C217.430125,122.312438 225.31575,118.604062 228.256875,118.604062 C237.442563,118.604062 237.314688,130.198062 248.439813,130.198062 C254.151563,130.198062 256.495938,127.597938 256.495938,121.246812 C256.495938,117.005625 253.938438,116.87775 251.636688,116.87775 C250.762875,116.87775 249.612,115.51375 246.96925,115.51375 C243.942875,115.51375 241.406688,114.213687 240.724688,113.425125 C242.9625,111.698812 253.469563,108.160938 255.366375,108.160938 C261.312563,108.160938 262.65525,122.866562 275.293563,122.866562 C278.660938,122.866562 282.134875,121.971438 282.134875,115.385875 C282.134875,110.3135 281.1545,108.757688 278.639625,109.141312 C276.742813,109.54625 275.0165,109.759375 275.0165,109.759375 C275.975563,107.883875 275.61325,106.264125 272.778688,105.688688 C260.95025,103.855813 265.617688,91.81425 258.712438,91.81425 C256.325438,91.81425 249.86775,95.096375 249.86775,92.7733125 C249.86775,90.322375 251.807187,86.4648125 251.807187,80.135 C251.807187,75.9364375 250.144813,71.1624375 250.144813,71.1624375 C256.17625,71.18375 264.765188,73.442875 268.644063,75.0839375 C266.171813,75.5315 262.57,76.4053125 262.57,79.6874375 C262.57,83.161375 268.28175,85.889375 275.570625,85.889375 C287.420375,85.889375 286.141625,80.5399375 281.793875,80.5399375 C277.296938,80.5399375 275.655875,80.1563125 275.0165,79.8153125 C277.083813,79.0480625 280.792188,78.9628125 280.792188,75.8725 C280.792188,70.67225 273.886938,70.928 262.015875,67.6671875 C208.926438,53.0894375 185.951563,30.4555625 149.571125,30.4555625 C105.369,30.4555625 111.059438,60.698 85.7828125,67.1130625 C63.4046875,72.760875 61.5505,84.7385 61.5505,97.5473125 C61.5505,104.452563 63.85225,111.464375 65.940875,113.12675 C71.1624375,117.581063 74.76425,120.522188 81.4350625,128.7275 C82.6285625,130.0915 86.1025,131.604688 87.55175,133.053938 C90.578125,136.080313 91.81425,140.619875 95.9701875,140.619875 C99.65725,140.619875 102.278687,135.419625 107.265812,134.055625 C106.072313,135.2065 104.985375,136.549188 104.985375,138.147625 C104.985375,141.813375 109.162625,140.875625 113.510375,138.829625 C123.228875,141.365813 126.6815,138.637813 129.302937,135.440938 C129.814437,134.822875 129.707875,133.906438 129.15375,133.331 C125.9995,130.411188 121.31075,132.073563 121.31075,125.019125 C121.31075,123.633813 122.546875,119.8615 126.553625,119.8615 C128.834063,119.8615 131.817813,121.715688 130.752187,125.23225 C130.070188,127.44875 132.39325,129.025875 132.39325,130.730875 C132.39325,137.039375 127.640562,137.444313 127.640562,141.42975 C127.640562,148.633375 132.947375,148.803875 136.037688,148.526813 C140.982187,148.526813 149.400625,153.151625 153.002437,153.151625 C157.542,153.151625 160.973312,151.041688 160.973312,148.24975 C160.973312,146.054563 156.561625,137.060688 152.895875,137.060688 C150.871187,137.060688 149.336687,139.55425 148.1645,139.55425 C147.312,139.55425 146.88575,139.255875 146.821812,139.149313 C147.930062,137.380375 146.246375,136.293438 146.246375,134.247438 C146.246375,132.776875 148.93175,127.917625 154.835313,127.917625 C159.566688,127.917625 164.660375,132.158813 164.660375,138.978813 C164.660375,145.031563 162.891438,149.080938 162.891438,150.508875 C162.891438,154.153313 168.581875,157.328875 172.013188,157.328875 C175.742875,157.328875 185.120375,153.258188 190.1075,153.258188 C195.414313,153.258188 198.589875,152.427 198.589875,148.654688 C198.589875,145.287313 196.2455,137.572188 192.387938,137.572188 C189.020563,137.572188 184.033438,145.202063 177.682313,145.202063 C178.116849,144.176285 178.763239,143.253908 179.579125,142.495375 C183.649813,140.492 186.420438,138.808313 186.420438,136.506563 C186.420438,134.503188 183.692438,133.799875 182.200563,132.542438 C184.971188,132.286688 186.420438,131.647313 186.420438,129.66525 C186.420438,126.809375 182.17925,125.57325 182.17925,121.246813 C182.200563,118.518813 184.033438,115.726875 187.55,115.726875 L187.55,115.726875 Z M260.524,276.29525 C256.00575,273.439375 252.531812,276.742813 248.525062,280.89875 L248.652937,280.302 C249.313625,276.444437 247.949625,273.22625 245.477375,272.8 C245.179,272.736062 244.880625,272.842625 244.58225,272.88525 C243.282187,269.47525 240.873875,270.32775 240.873875,270.32775 C239.63775,266.939062 237.144187,267.748937 237.144187,267.748937 C235.822812,264.36025 233.4145,265.170125 233.4145,265.170125 C232.199687,261.781437 229.684812,262.591312 229.684812,262.591312 C228.320812,259.138687 225.955125,260.0125 225.955125,260.0125 C224.697687,256.623812 222.225437,257.433687 222.225437,257.433687 C221.010625,254.066312 218.49575,254.854875 218.49575,254.854875 C217.174375,251.359625 214.74475,252.276062 214.74475,252.276062 C214.190625,250.8055 213.21025,249.803812 211.9315,249.590687 C211.096969,249.456362 210.242696,249.647048 209.5445,250.1235 C210.9085,243.21825 211.462625,237.314687 205.942687,233.819437 C203.044187,231.986562 199.868625,232.540687 198.824312,234.18175 C197.545562,236.206437 200.039125,237.954062 200.998187,239.190187 C204.727875,243.921562 185.07775,275.229625 213.657812,293.26 C235.4605,307.006562 247.31025,292.940312 251.892437,289.466375 C254.108937,291.214 258.712437,294.176437 262.31425,288.486 C265.148812,284.074312 264.402875,278.746187 260.524,276.29525 L260.524,276.29525 Z M242.983812,286.290812 C237.549125,290.78775 230.537312,293.494437 219.561375,286.567875 C207.988687,279.257687 206.4755,270.285125 207.41325,261.674875 C207.914642,262.439186 208.708596,262.963349 209.608437,263.124125 C209.906812,263.188062 210.205187,263.0815 210.503562,263.038875 C211.803625,266.448875 214.211937,265.596375 214.211937,265.596375 C215.448062,268.985062 217.941625,268.175187 217.941625,268.175187 C219.263,271.563875 221.671312,270.754 221.671312,270.754 C222.886125,274.142687 225.401,273.332812 225.401,273.332812 C226.765,276.785437 229.130687,275.911625 229.130687,275.911625 C230.388125,279.300312 232.860375,278.490437 232.860375,278.490437 C234.075187,281.857812 236.590063,281.06925 236.590063,281.06925 C237.911438,284.543187 240.341063,283.648062 240.341063,283.648062 C240.873875,285.033375 241.790312,286.01375 242.983813,286.290812 L242.983812,286.290812 Z M127.320875,293.323937 C155.900937,275.293562 136.250812,243.9855 139.9805,239.254125 C140.960875,238.018 143.433125,236.270375 142.154375,234.245687 C141.131375,232.604625 137.9345,232.0505 135.036,233.883375 C129.516062,237.378625 130.048875,243.260875 131.434187,250.187437 C130.727696,249.711636 129.867141,249.521247 129.025875,249.654625 C127.747125,249.86775 126.788062,250.869438 126.212625,252.34 C126.212625,252.34 123.783,251.423563 122.461625,254.918813 C122.461625,254.918813 119.94675,254.108937 118.731937,257.497625 C118.731937,257.497625 116.259687,256.68775 115.00225,260.076437 C115.00225,260.076437 112.636562,259.202625 111.272562,262.65525 C111.272562,262.65525 108.757687,261.845375 107.542875,265.234062 C107.542875,265.234062 105.134562,264.424188 103.813187,267.812875 C103.813187,267.812875 101.319625,267.003 100.0835,270.391688 C100.0835,270.391688 97.6751875,269.539188 96.375125,272.949187 C96.07675,272.906563 95.778375,272.821313 95.48,272.863938 C93.0290625,273.290188 91.6650625,276.508375 92.32575,280.365938 L92.4323125,280.962688 C88.4255625,276.80675 84.951625,273.503313 80.433375,276.359188 C76.5545,278.788813 75.8085625,284.13825 78.6218125,288.592563 C82.2023125,294.283 86.827125,291.320563 89.043625,289.572938 C93.68975,293.00425 105.518187,307.0705 127.320875,293.323938 L127.320875,293.323937 Z M133.565438,261.674875 C134.503187,270.285125 133.011313,279.279 121.438625,286.567875 C110.484,293.494437 103.450875,290.78775 98.0161875,286.290812 C99.2096875,286.01375 100.126125,285.033375 100.658938,283.62675 C100.658938,283.62675 103.088563,284.543187 104.409938,281.047937 C104.409938,281.047937 106.924813,281.8365 108.139625,278.469125 C108.139625,278.469125 110.611875,279.279 111.869313,275.890312 C111.869313,275.890312 114.235,276.764125 115.599,273.3115 C115.599,273.3115 118.113875,274.121375 119.328688,270.732687 C119.328688,270.732687 121.737,271.542562 123.058375,268.153875 C123.058375,268.153875 125.57325,268.96375 126.788063,265.575062 C126.788063,265.575062 129.196375,266.427562 130.496438,263.017562 C130.794813,263.060187 131.093188,263.145437 131.391563,263.102812 C132.283839,262.951393 133.07209,262.43362 133.565438,261.674875 L133.565438,261.674875 Z" id="Shape"></path>
                    <path d="M158.501062,226.487938 C152.68275,230.750437 145.884062,235.631 139.788687,239.914813 L142.538,254.790938 C151.382687,248.972625 162.081562,241.555875 170.5,235.417875 C178.918437,241.555875 189.617312,248.972625 198.462,254.790938 L201.232625,239.914813 C195.13725,235.631 188.338562,230.750438 182.52025,226.487938 C249.164438,175.828125 298.161875,121.758313 298.737313,121.118938 C303.348805,116.353115 305.476281,109.710663 304.491688,103.1525 C304.25725,101.063875 302.019438,99.99825 300.229188,101.895063 C299.65375,102.513125 249.825125,157.520688 170.5,217.536687 C91.1535625,157.520688 41.34625,102.513125 40.792125,101.895062 C38.9805625,99.99825 36.7640625,101.063875 36.5083125,103.1525 C36.444375,103.4935 34.6115,113.12675 42.284,121.118938 C42.8594375,121.758313 91.856875,175.828125 158.501063,226.487937 L158.501062,226.487938 Z" id="Shape"></path>
                    <path d="M187.7205,176.147812 C215.895625,165.726 247.011875,150.5515 245.221625,145.69225 C243.751063,141.6855 221.628688,151.617125 183.095688,165.853875 C165.107938,172.503375 161.54875,174.613312 162.678313,177.682312 C163.466875,179.8775 166.898188,183.862937 187.7205,176.147812 L187.7205,176.147812 Z M254.705688,51.704125 C255.813938,47.6760625 237.655687,41.3675625 217.835063,35.9115625 C190.746875,28.4735 180.9005,29.1341875 180.943125,30.3703125 C181.028375,34.2065625 191.364938,36.0394375 214.6595,42.4545 C240.000063,49.4236875 253.44825,56.2863125 254.705688,51.704125 Z" id="Shape"></path>
                </g>
                <g id="Group" fill="#FCB514">
                    <path d="M170.5,4.2838125 C103.261268,4.28381305 42.6436955,44.788586 16.9145383,106.909899 C-8.81461894,169.031212 5.41186261,240.534596 52.9598737,288.076511 C100.507885,335.618427 172.013093,349.83574 234.131106,324.098618 C296.24912,298.361497 336.74612,237.738731 336.7375,170.5 C336.7375,126.413033 319.222562,84.1320655 288.046371,52.9598709 C256.870179,21.7876764 214.586966,4.2781596 170.5,4.2838125 L170.5,4.2838125 Z M170.5,324.759875 C114.64339,325.893278 62.5381994,296.741208 34.2797988,248.546725 C6.02139821,200.352241 6.02552297,140.646345 34.2905823,92.4557658 C62.5556416,44.2651869 114.66486,15.1203173 170.521312,16.2614375 C254.486953,17.9768148 321.657069,86.5379371 321.651267,170.521098 C321.645465,254.504258 254.465877,323.056099 170.5,324.759875 L170.5,324.759875 Z" id="Shape"></path>
                    <path d="M209.8855,261.547 C210.48225,261.653563 211.100313,261.3765 211.654438,260.822375 C212.123313,265.020937 214.531625,264.424188 215.384125,263.401187 C215.874313,267.59975 218.261313,266.981687 219.113813,265.98 C219.604,270.178562 221.991,269.581813 222.8435,268.558813 C223.312375,272.736063 225.720688,272.139313 226.573188,271.137625 C227.042063,275.314875 229.450375,274.718125 230.302875,273.716438 C230.793063,277.915 233.180063,277.31825 234.032563,276.29525 C234.501438,280.493813 236.90975,279.897063 237.76225,278.874063 C238.231125,283.051313 240.639438,282.454563 241.491938,281.452875 C241.641125,283.243125 242.36575,284.5645 243.431375,284.756313 C244.944563,285.012063 246.564313,282.923438 247.0545,280.067563 C247.544688,277.211688 246.734813,274.696813 245.221625,274.441063 C244.624875,274.3345 244.006813,274.611563 243.452688,275.144375 C242.9625,270.945813 240.5755,271.542563 239.723,272.565563 C239.254125,268.388313 236.845813,268.985063 235.993313,269.98675 C235.524438,265.8095 233.116125,266.40625 232.263625,267.407938 C231.79475,263.209375 229.386438,263.827438 228.533938,264.829125 C228.065063,260.651875 225.65675,261.248625 224.80425,262.250313 C224.314063,258.05175 221.927063,258.6485 221.074563,259.6715 C220.605688,255.472938 218.197375,256.069687 217.344875,257.092687 C216.876,252.894125 214.467688,253.490875 213.615187,254.513875 C213.466,252.723625 212.741375,251.40225 211.67575,251.210437 C210.162563,250.954687 208.542813,253.064625 208.052625,255.899187 C207.562438,258.755063 208.393625,261.269938 209.8855,261.547 Z M97.568625,284.735 C98.63425,284.543187 99.358875,283.221813 99.529375,281.431563 C100.381875,282.454563 102.790188,283.051313 103.259063,278.85275 C104.111563,279.87575 106.498563,280.4725 106.98875,276.273937 C107.84125,277.296938 110.249563,277.872375 110.718438,273.695125 C111.570938,274.718125 113.97925,275.314875 114.448125,271.116312 C115.300625,272.139312 117.708938,272.736063 118.177813,268.5375 C119.030313,269.539187 121.438625,270.15725 121.9075,265.958687 C122.76,266.981687 125.147,267.578437 125.637188,263.379875 C126.489688,264.402875 128.898,264.999625 129.366875,260.801062 C129.921,261.333875 130.560375,261.610937 131.135813,261.525687 C132.649,261.269937 133.480188,258.73375 132.968688,255.899187 C132.4785,253.043312 130.85875,250.954687 129.345563,251.210437 C128.279938,251.40225 127.555313,252.723625 127.406125,254.513875 C126.553625,253.490875 124.145313,252.894125 123.676438,257.092687 C122.823938,256.069687 120.415625,255.472937 119.94675,259.6715 C119.09425,258.6485 116.685938,258.05175 116.217063,262.250312 C115.364563,261.227312 112.95625,260.630562 112.487375,264.829125 C111.634875,263.827437 109.226563,263.209375 108.757688,267.407938 C107.905188,266.384937 105.496875,265.788187 105.028,269.98675 C104.1755,268.985062 101.767188,268.388312 101.298313,272.565562 C100.445813,271.542563 98.0375,270.945812 97.568625,275.144375 C97.0145,274.59025 96.3964375,274.313188 95.7996875,274.441063 C94.2865,274.696813 93.476625,277.211688 93.9668125,280.067563 C94.4356875,282.902125 96.0554375,284.99075 97.568625,284.735 L97.568625,284.735 Z" id="Shape"></path>
                    <path d="M259.6715,277.65925 C250.294,271.734375 243.964188,303.873625 218.708875,287.931875 C190.853438,270.370375 218.176063,243.474 205.068875,235.20475 C202.831063,233.798125 200.657188,234.35225 200.188313,235.076875 C199.719438,235.844125 201.147375,236.803187 202.276938,238.231125 C207.136188,244.369125 186.484375,274.24925 214.531625,291.938625 C238.5295,307.0705 250.20875,286.482625 252.190812,287.71875 C253.78925,288.74175 257.71075,292.83375 260.971563,287.654812 C263.870063,283.051312 261.930625,279.087187 259.6715,277.65925 L259.6715,277.65925 Z M138.723063,238.231125 C139.852625,236.803188 141.280563,235.844125 140.811688,235.076875 C140.342813,234.35225 138.168938,233.798125 135.931125,235.20475 C122.84525,243.474 150.167875,270.349063 122.312438,287.931875 C97.057125,303.873625 90.7273125,271.734375 81.3498125,277.65925 C79.0906875,279.087188 77.1299375,283.051312 80.04975,287.654812 C83.3105625,292.83375 87.21075,288.720438 88.8305,287.71875 C90.8125625,286.482625 102.491813,307.0705 126.489688,291.938625 C154.515625,274.24925 133.863813,244.369125 138.723063,238.231125 L138.723063,238.231125 Z" id="Shape"></path>
                </g>
                <g id="Group" transform="translate(21.312500, 21.312500)" fill="#FFFFFF">
                    <path d="M281.58075,82.0744375 C281.325,80.4120625 280.110188,81.6695 280.110188,81.6695 C280.110188,81.6695 230.111063,137.209875 149.1875,198.248875 C68.2639375,137.209875 18.286125,81.6695 18.286125,81.6695 C18.286125,81.6695 17.05,80.4120625 16.79425,82.0744375 C16.79425,82.0744375 14.9826875,91.260125 22.165,98.7195 C22.165,98.7195 71.7591875,153.791 139.873938,205.19675 C133.5015,209.8855 126.958562,214.616875 120.245125,219.326937 L122.376375,230.77175 C131.54075,224.719 140.492,218.474438 149.1875,212.123312 C157.883,218.474438 166.83425,224.740313 175.998625,230.77175 L178.129875,219.326937 C171.533997,214.690855 164.990643,209.980493 158.501063,205.19675 C226.5945,153.791 276.21,98.7195 276.21,98.7195 C283.392313,91.260125 281.58075,82.0744375 281.58075,82.0744375 L281.58075,82.0744375 Z" id="Shape"></path>
                    <path d="M45.6300625,90.5568125 C55.8174375,98.6981875 58.8864375,103.91975 61.252125,106.264125 C63.2555,108.246187 65.21625,108.438 67.390125,110.611875 C70.6083125,113.830062 71.61,117.708937 74.6576875,117.708937 C77.8119375,117.708937 81.285875,110.825 88.0845625,110.825 C92.6454375,110.825 85.292625,113.872687 85.292625,116.856437 C85.292625,119.392625 90.8765,115.918688 92.0913125,115.918688 C94.1373125,115.918688 102.04425,119.456563 106.690375,113.169375 C104.580438,111.08075 98.3785,111.93325 98.3785,103.706625 C98.3785,101.4475 100.296625,96.92925 105.241125,96.92925 C109.226562,96.92925 112.231625,100.4245 110.974187,104.409938 C110.590562,105.667375 112.7005,107.137938 112.7005,109.418375 C112.7005,116.323625 107.947812,117.090875 107.947812,120.11725 C107.947812,126.212625 112.252937,125.74375 114.618625,125.594563 C120.181187,125.594563 128.770125,130.219375 131.668625,130.219375 C135.227812,130.219375 138.041062,128.684875 138.041062,126.915937 C138.041062,125.147 133.885125,117.346625 131.583375,117.346625 C130.262,117.346625 128.855375,119.840188 126.852,119.840188 C124.6355,119.840188 123.35675,118.454875 124.145312,117.069563 C124.592875,116.281 123.314125,115.00225 123.314125,112.934938 C123.314125,110.420063 126.788062,104.985375 133.522812,104.985375 C139.128,104.985375 144.967625,109.844625 144.967625,117.666313 C144.967625,124.166625 143.198687,127.917625 143.198687,129.196375 C143.198687,131.604688 147.780875,134.417937 150.700687,134.417937 C153.6205,134.417937 164.553812,130.325938 168.070375,130.325938 C171.586937,130.325938 175.657625,130.581687 175.657625,127.342188 C175.657625,124.102688 173.419812,117.879438 171.054125,117.879438 C168.688438,117.879438 163.275062,125.509313 156.3485,125.509313 C155.517313,125.509313 154.600875,125.338813 154.600875,124.187938 C154.600875,123.01575 156.455062,120.373 157.414125,119.797562 C158.373187,119.222125 163.466875,117.04825 163.466875,115.194062 C163.466875,114.14975 158.799438,112.849687 158.799438,110.803687 C158.799438,108.69375 163.466875,110.377437 163.466875,108.35275 C163.466875,106.519875 159.225687,104.836187 159.225687,99.9343125 C159.225687,96.41775 161.634,92.7733125 166.173563,92.7733125 C174.975625,92.7733125 180.495563,99.358875 188.786125,99.358875 C195.797937,99.358875 203.49175,95.6505 206.880437,95.6505 C217.153063,95.6505 216.876,107.2445 227.063375,107.2445 C231.816062,107.2445 233.478437,105.45425 233.478437,99.8916875 C233.478437,96.8653125 232.007875,97.142375 230.238938,97.142375 C228.47,97.142375 228.21425,95.7996875 225.5715,95.7996875 C221.713938,95.7996875 217.451437,93.7963125 217.451437,91.8355625 C217.451437,89.810875 231.88,85.207375 233.968625,85.207375 C241.364062,85.207375 242.046062,99.913 253.895813,99.913 C256.900875,99.913 259.117375,99.273625 259.117375,94.0520625 C259.117375,88.8305 258.286188,89.299375 257.327125,89.42725 C256.368063,89.555125 251.594063,90.8978125 251.594063,89.384625 C251.594063,87.89275 253.853188,86.3795625 251.125188,85.932 C238.550813,83.843375 242.216563,72.078875 237.314688,72.078875 C234.970313,72.078875 226.85025,76.4905625 226.85025,71.4181875 C226.85025,68.62625 228.789688,64.8113125 228.789688,58.779875 C228.789688,52.130375 224.996063,48.1875625 228.661813,48.1875625 C236.675313,48.1875625 250.677625,52.25825 250.677625,54.219 C250.677625,55.625625 242.792,54.81575 242.792,58.3323125 C242.792,60.4209375 247.31025,62.9358125 254.194188,62.9358125 C261.078125,62.9358125 263.84875,60.8045625 260.417438,60.8045625 C256.986125,60.8045625 251.721938,60.698 251.721938,58.3323125 C251.721938,55.9453125 257.817313,57.0109375 257.817313,54.517375 C257.817313,50.8303125 251.594063,51.107375 240.213188,47.867875 C183.521938,31.7343125 163.807875,10.7201875 128.216,10.7201875 C84.4188125,10.7201875 91.430625,40.579 64.832625,47.31375 C43.7971875,52.6845 41.85775,63.426 41.85775,76.2348125 C41.85775,83.417125 44.287375,89.4911875 45.6300625,90.5568125 L45.6300625,90.5568125 Z M65.7490625,101.660625 C63.4046875,101.660625 64.0014375,100.019562 64.0014375,100.019562 C67.049125,95.90625 65.4933125,86.1025 69.265625,86.1025 C71.396875,86.1025 68.3491875,88.276375 68.3491875,90.8125625 C68.3491875,93.6684375 72.54775,92.83725 72.54775,96.162 C72.54775,98.29325 69.1164375,101.660625 65.7490625,101.660625 L65.7490625,101.660625 Z M74.806875,115.577688 C74.806875,115.577688 73.05925,114.32025 73.05925,113.403813 C73.05925,111.315188 76.597125,110.718437 76.597125,111.357812 C76.597125,113.12675 74.806875,115.577688 74.806875,115.577688 Z M77.66275,77.6840625 C77.66275,79.1333125 74.7003125,82.60725 72.8248125,82.60725 C71.396875,82.60725 69.1164375,77.0446875 69.1164375,76.5758125 C69.1164375,76.1069375 69.777125,75.1691875 71.86575,75.1691875 C73.954375,75.1905 77.66275,76.2348125 77.66275,77.6840625 Z M60.61275,55.66825 C69.009875,55.66825 73.3789375,60.6340625 73.3789375,66.0474375 C73.3789375,71.482125 68.8180625,75.4249375 63.767,75.4249375 C60.5488125,75.4249375 59.58975,72.71825 59.58975,71.35425 C59.58975,69.47875 62.360375,67.8376875 62.360375,65.6211875 C62.360375,62.871875 59.0143125,60.9750625 55.6469375,60.9750625 C49.9565,60.9750625 46.12025,65.855625 46.12025,63.4473125 C46.0989375,60.570125 51.8533125,55.66825 60.61275,55.66825 L60.61275,55.66825 Z M162.337313,146.075875 C147.930063,151.404 142.069125,153.6205 142.879,155.837 C143.326563,157.051812 146.310313,160.568375 165.853875,153.343437 C185.3335,146.1185 223.717313,128.535687 222.374625,124.955187 C221.713938,123.18625 194.604438,134.140875 162.337313,146.075875 L162.337313,146.075875 Z M193.77325,19.5861875 C217.536687,26.129125 231.240625,32.1605625 231.837375,29.965375 C232.434125,27.7701875 213.55125,20.9501875 196.096313,16.154875 C178.662688,11.3595625 160.547063,8.993875 161.1225,9.5266875 C162.955375,11.295625 169.9885,13.0645625 193.77325,19.5861875 Z" id="Shape"></path>
                </g>
                <path d="M89.76825,116.515437 C89.1928125,116.515437 88.66,117.4745 88.66,117.8155 C88.66,118.177813 89.555125,119.413937 90.237125,119.413937 C90.62075,119.413937 91.1109375,119.243437 91.1109375,118.902437 C91.089625,117.517125 91.047,116.515437 89.76825,116.515437 Z" id="Shape" fill="#CF0A2C"></path>
            </g>
        </g>
    </g>
</svg>