<?xml version="1.0" encoding="UTF-8"?>
<svg width="512px" height="512px" viewBox="0 0 512 512" version="1.1" xmlns="http://www.w3.org/2000/svg" xmlns:xlink="http://www.w3.org/1999/xlink">
    <!-- Generator: Sketch 41.2 (35397) - http://www.bohemiancoding.com/sketch -->
    <title>carolina-hurricanes</title>
    <desc>Created with Sketch.</desc>
    <defs></defs>
    <g id="NHL" stroke="none" stroke-width="1" fill="none" fill-rule="evenodd">
        <g id="carolina-hurricanes">
            <g id="car" transform="translate(53.000000, 127.000000)">
                <g id="Group" transform="translate(331.367157, 184.092865)" fill="#111111">
                    <path d="M9.57282898,1.71206364 C5.5700571,2.05126887 2.49380978,5.39923131 2.49380978,9.41635004 C2.49380978,13.4334688 5.5700571,16.7814312 9.57282898,17.1206364 C13.5756009,16.7814312 16.6518482,13.4334688 16.6518482,9.41635004 C16.6518482,5.39923131 13.5756009,2.05126887 9.57282898,1.71206364 L9.57282898,1.71206364 Z M9.57282898,15.4638007 C7.96988655,15.4687102 6.43118089,14.8341163 5.29772412,13.7006596 C4.16426734,12.5672028 3.5296735,11.0284971 3.53458301,9.42555469 C3.53458301,6.98331217 5.00575441,4.78154857 7.26209229,3.84694282 C9.51843016,2.91233707 12.1155874,3.42894377 13.8425137,5.15587001 C15.5694399,6.88279626 16.0860466,9.4799535 15.1514408,11.7362914 C14.2168351,13.9926293 12.0150715,15.4638007 9.57282898,15.4638007 L9.57282898,15.4638007 Z" id="Shape"></path>
                    <path d="M12.720817,7.62144461 C12.720817,6.17770673 11.5504362,5.00732593 10.1066983,5.00732593 L6.38802242,5.00732593 L6.38802242,13.8069649 L8.0448582,13.8069649 L8.0448582,10.2539726 L9.22305254,10.2539726 L10.8982976,13.8069649 L12.720817,13.8069649 L10.990344,10.088289 C12.0307367,9.71461476 12.7236081,8.72690448 12.720817,7.62144461 Z M10.1251076,8.57872751 L8.06326749,8.57872751 L8.06326749,6.66416171 L10.1251076,6.66416171 C10.6405676,6.66416171 11.0823905,7.0875753 11.0823905,7.62144461 C11.0823905,8.15013736 10.6538003,8.57872751 10.1251076,8.57872751 L10.1251076,8.57872751 Z" id="Shape"></path>
                </g>
                <path d="M386.687063,82.6024685 C381.624509,47.2566384 350.733726,36.2662944 332.158756,32.8237578 L348.045971,22.3856924 C348.045971,22.3856924 265.038498,4.3630009 157.693948,38.2729066 C59.6092697,69.2373265 10.1251076,117.819434 18.3356494,175.127542 C23.3982031,210.473373 54.2889859,221.482126 72.863956,224.906253 L56.9767417,235.344319 C56.9767417,235.344319 139.984215,253.36701 247.328764,219.475514 C345.413443,188.474275 394.879195,139.910577 386.687063,82.6024685 L386.687063,82.6024685 Z" id="Shape" fill="#A4A9AD"></path>
                <path d="M381.753374,84.1488486 C375.052394,37.4260795 317.339281,36.6344801 317.339281,36.6344801 L333.999685,25.6809547 C333.999685,25.6809547 255.207939,12.8865005 158.43032,43.4459161 C72.9744117,70.4339301 14.8378849,114.873948 23.2509288,173.544344 C29.9519091,220.285522 87.6650223,221.058712 87.6650223,221.058712 L71.004618,232.030647 C71.004618,232.030647 149.796364,244.825101 246.573983,214.265686 C332.029891,187.277672 390.166418,142.856063 381.753374,84.1488486 L381.753374,84.1488486 Z" id="Shape" fill="#FFFFFF"></path>
                <path d="M372.788052,86.9838787 C364.246143,27.3377905 271.831524,39.9849703 224.059426,55.0621759 C198.470518,63.1438527 181.754886,71.3359852 181.754886,71.3359852 C268.388988,40.3347467 329.102815,62.4627091 329.102815,62.4627091 C300.347509,60.4560969 273.341086,69.7527865 273.341086,69.7527865 C273.341086,69.7527865 302.372531,75.6069397 306.220072,102.539726 C311.319444,138.106467 281.036168,178.827809 187.701085,208.301077 C136.817817,224.372384 94.0162262,226.912865 94.0162262,226.912865 C94.0162262,226.912865 154.398686,235.786141 245.543063,207.012427 C329.894414,180.374189 380.022901,137.388505 372.788052,86.9838787 Z" id="Shape" fill="#CE1126"></path>
                <path d="M202.612607,163.492873 C228.496064,155.31915 250.513571,143.150612 262.332333,131.497533 C268.867629,125.054283 272.310166,118.813535 271.555385,113.474842 C271.255958,111.462709 270.343074,109.591941 268.941266,108.11774 C259.939125,98.3424085 229.600621,98.4528642 194.862298,109.40639 C154.656416,122.145616 123.802452,144.549718 125.937929,159.44283 C128.073406,174.391171 162.406725,176.176872 202.612607,163.492873 L202.612607,163.492873 Z" id="Shape" fill="#CE1126"></path>
                <path d="M199.133252,147.237473 C215.922521,141.954008 228.86425,132.970276 228.035832,127.20817 C227.207414,121.446063 212.940217,121.096287 196.150948,126.379752 C179.361678,131.700036 166.41995,140.646949 167.248368,146.409056 C168.058376,152.171162 182.343983,152.539348 199.133252,147.237473 Z" id="Shape" fill="#111111"></path>
                <path d="M75.9198975,195.267302 C104.675203,197.273914 131.700036,187.977224 131.700036,187.977224 C131.700036,187.977224 102.668591,182.123071 98.8026406,155.171876 C93.7032683,119.623544 123.986545,78.9022019 217.321627,49.410525 C268.223304,33.3392178 311.024895,30.7987363 311.024895,30.7987363 C311.024895,30.7987363 250.642436,21.9070509 159.479649,50.699175 C75.1098889,77.3558219 24.9998111,120.341506 32.2162514,170.727723 C40.7581603,230.373811 133.191188,217.745041 180.944877,202.649426 C206.515376,194.586158 223.249417,186.375617 223.249417,186.375617 C136.633724,217.395264 75.9198975,195.267302 75.9198975,195.267302 L75.9198975,195.267302 Z" id="Shape" fill="#111111"></path>
                <path d="M189.431558,87.0759251 C157.38099,97.1826234 140.62854,109.995487 134.829614,123.434266 L123.194945,150.385461 C123.194945,150.385461 137.333277,125.054283 194.53093,107.013182 C237.645479,93.3903104 263.989168,96.832847 268.941266,108.136149 C270.340372,109.682529 271.260837,111.44982 271.555385,113.493251 C272.310166,118.813535 268.867629,125.072692 262.332333,131.515943 C251.526081,146.685195 230.907681,163.032641 212.811352,174.078213 C227.262642,169.51271 292.155377,138.732383 287.442599,105.871807 C283.061189,75.3676189 245.138059,69.4766472 189.431558,87.0759251 L189.431558,87.0759251 Z" id="Shape" fill="#111111"></path>
            </g>
        </g>
    </g>
</svg>