<svg xmlns="http://www.w3.org/2000/svg" viewBox="0 0 24 16"><g fill="#111"><path d="M19.52 11.093a.42.42 0 0 0 0 .837.42.42 0 0 0 0-.837zm0 .747a.327.327 0 0 1-.328-.328.328.328 0 1 1 .328.328z"/><path d="M19.691 11.414a.142.142 0 0 0-.142-.142h-.202v.478h.09v-.193h.064l.091.193h.099l-.094-.202a.142.142 0 0 0 .094-.134zm-.141.052h-.112v-.104h.112c.028 0 .052.023.052.052a.052.052 0 0 1-.052.052z"/></g><path fill="#a4a9ad" d="M22.005 5.487c-.275-1.92-1.953-2.517-2.962-2.704l.863-.567s-4.509-.979-10.34.863C4.238 4.761 1.55 7.4 1.996 10.513c.275 1.92 1.953 2.518 2.962 2.704l-.863.567s4.509.979 10.34-.862c5.328-1.684 8.015-4.322 7.57-7.435z"/><path fill="#fff" d="M21.737 5.571c-.364-2.538-3.499-2.581-3.499-2.581l.905-.595s-4.28-.695-9.537.965c-4.642 1.466-7.8 3.88-7.343 7.067.364 2.539 3.499 2.581 3.499 2.581l-.905.596s4.28.695 9.537-.965c4.642-1.466 7.8-3.879 7.343-7.068z"/><path fill="#ce1126" d="M21.25 5.725c-.464-3.24-5.484-2.553-8.079-1.734-1.39.439-2.298.884-2.298.884 4.706-1.684 8.004-.482 8.004-.482-1.562-.109-3.029.396-3.029.396s1.577.318 1.786 1.781c.277 1.932-1.368 4.144-6.438 5.745-2.764.873-5.089 1.011-5.089 1.011s3.28.482 8.231-1.081c4.582-1.447 7.305-3.782 6.912-6.52z"/><path fill="#ce1126" d="M12.006 9.881c1.406-.444 2.602-1.105 3.244-1.738.355-.35.542-.689.501-.979a.537.537 0 0 0-.142-.291c-.489-.531-2.137-.525-4.024.07-2.184.692-3.86 1.909-3.744 2.718.116.812 1.981.909 4.165.22z"/><path fill="#111" d="M11.817 8.998c.912-.287 1.615-.775 1.57-1.088s-.82-.332-1.732-.045c-.912.289-1.615.775-1.57 1.088.044.313.82.333 1.732.045z"/><path fill="#111" d="M5.124 11.607c1.562.109 3.03-.396 3.03-.396s-1.577-.318-1.787-1.782c-.277-1.931 1.368-4.143 6.438-5.745 2.765-.873 5.09-1.011 5.09-1.011s-3.28-.483-8.232 1.081C5.08 5.202 2.358 7.537 2.75 10.274c.464 3.24 5.485 2.554 8.079 1.734 1.389-.438 2.298-.884 2.298-.884-4.705 1.685-8.003.483-8.003.483z"/><path fill="#111" d="M11.29 5.73c-1.741.549-2.651 1.245-2.966 1.975l-.632 1.464s.768-1.376 3.875-2.356c2.342-.74 3.773-.553 4.042.061.076.084.126.18.142.291.041.289-.146.629-.501.979-.587.824-1.707 1.712-2.69 2.312.785-.248 4.31-1.92 4.054-3.705-.238-1.657-2.298-1.977-5.324-1.021z"/></svg>