<svg xmlns="http://www.w3.org/2000/svg" viewBox="0 0 24 16"><g fill="#111"><path d="M19.52,11.093c-0.23,0-0.418,0.188-0.418,0.419c0,0.23,0.188,0.418,0.418,0.418 c0.231,0,0.419-0.188,0.419-0.418C19.938,11.28,19.751,11.093,19.52,11.093z M19.52,11.84c-0.182,0-0.328-0.146-0.328-0.328 c0-0.183,0.146-0.329,0.328-0.329s0.329,0.146,0.329,0.329C19.849,11.693,19.701,11.84,19.52,11.84z"/><path d="M19.691,11.414c0-0.078-0.063-0.142-0.142-0.142h-0.202v0.478h0.09v-0.193h0.064l0.091,0.193h0.099 l-0.094-0.202C19.652,11.528,19.691,11.476,19.691,11.414z M19.55,11.466h-0.112v-0.104h0.112c0.028,0,0.052,0.023,0.052,0.052 C19.602,11.443,19.578,11.466,19.55,11.466z"/></g><path fill="#a4a9ad" d="M22.005,5.487c-0.275-1.92-1.953-2.517-2.962-2.704l0.863-0.567c0,0-4.509-0.979-10.34,0.863 C4.238,4.761,1.55,7.4,1.996,10.513c0.275,1.92,1.953,2.518,2.962,2.704l-0.863,0.567c0,0,4.509,0.979,10.34-0.862 C19.763,11.238,22.45,8.6,22.005,5.487z"/><path fill="#fff" d="M21.737,5.571c-0.364-2.538-3.499-2.581-3.499-2.581l0.905-0.595c0,0-4.28-0.695-9.537,0.965 c-4.642,1.466-7.8,3.88-7.343,7.067c0.364,2.539,3.499,2.581,3.499,2.581l-0.905,0.596c0,0,4.28,0.695,9.537-0.965 C19.036,11.173,22.194,8.76,21.737,5.571z"/><path fill="#ce1126" d="M21.25,5.725c-0.464-3.24-5.484-2.553-8.079-1.734c-1.39,0.439-2.298,0.884-2.298,0.884 c4.706-1.684,8.004-0.482,8.004-0.482c-1.562-0.109-3.029,0.396-3.029,0.396s1.577,0.318,1.786,1.781 c0.277,1.932-1.368,4.144-6.438,5.745c-2.764,0.873-5.089,1.011-5.089,1.011s3.28,0.482,8.231-1.081 C18.92,10.798,21.643,8.463,21.25,5.725z"/><path fill="#ce1126" d="M12.006,9.881c1.406-0.444,2.602-1.105,3.244-1.738c0.355-0.35,0.542-0.689,0.501-0.979 c-0.016-0.111-0.065-0.207-0.142-0.291c-0.489-0.531-2.137-0.525-4.024,0.07C9.401,7.635,7.725,8.852,7.841,9.661 C7.957,10.473,9.822,10.57,12.006,9.881z"/><path fill="#111" d="M11.817,8.998c0.912-0.287,1.615-0.775,1.57-1.088s-0.82-0.332-1.732-0.045c-0.912,0.289-1.615,0.775-1.57,1.088 C10.129,9.266,10.905,9.286,11.817,8.998z"/><path fill="#111" d="M5.124,11.607c1.562,0.109,3.03-0.396,3.03-0.396s-1.577-0.318-1.787-1.782c-0.277-1.931,1.368-4.143,6.438-5.745 c2.765-0.873,5.09-1.011,5.09-1.011S14.615,2.19,9.663,3.754C5.08,5.202,2.358,7.537,2.75,10.274 c0.464,3.24,5.485,2.554,8.079,1.734c1.389-0.438,2.298-0.884,2.298-0.884C8.422,12.809,5.124,11.607,5.124,11.607z"/><path fill="#111" d="M11.29,5.73C9.549,6.279,8.639,6.975,8.324,7.705L7.692,9.169c0,0,0.768-1.376,3.875-2.356 c2.342-0.74,3.773-0.553,4.042,0.061c0.076,0.084,0.126,0.18,0.142,0.291c0.041,0.289-0.146,0.629-0.501,0.979 c-0.587,0.824-1.707,1.712-2.69,2.312c0.785-0.248,4.31-1.92,4.054-3.705C16.376,5.094,14.316,4.774,11.29,5.73z"/></svg>