<svg width="512" height="512" viewBox="0 0 512 512" xmlns="http://www.w3.org/2000/svg"><title>carolina-hurricanes</title><g fill="none" fill-rule="evenodd"><g fill="#111"><path d="M393.94 312.805a7.732 7.732 0 0 0 0 15.409 7.732 7.732 0 0 0 0-15.41zm0 13.752a6.02 6.02 0 0 1-6.038-6.039 6.038 6.038 0 1 1 6.038 6.039z"/><path d="M397.088 318.714a2.614 2.614 0 0 0-2.614-2.614h-3.719v8.8h1.657v-3.553h1.178l1.675 3.553h1.823l-1.73-3.719a2.614 2.614 0 0 0 1.73-2.467zm-2.596.958h-2.062v-1.915h2.062a.957.957 0 0 1 0 1.915z"/></g><path d="M439.687 209.602c-5.062-35.345-35.953-46.336-54.528-49.778l15.887-10.438s-83.008-18.023-190.352 15.887c-98.085 30.964-147.569 79.546-139.358 136.855 5.062 35.345 35.953 46.354 54.528 49.778l-15.887 10.438s83.007 18.023 190.352-15.868c98.084-31.002 147.55-79.565 139.358-136.874z" fill="#A4A9AD"/><path d="M434.753 211.149c-6.7-46.723-64.414-47.515-64.414-47.515L387 152.681s-78.791-12.794-175.569 17.765c-85.456 26.988-143.592 71.428-135.18 130.098 6.702 46.742 64.415 47.515 64.415 47.515l-16.66 10.972s78.791 12.794 175.569-17.765c85.456-26.988 143.592-71.41 135.18-130.117z" fill="#FFF"/><path d="M425.788 213.984c-8.542-59.646-100.956-46.999-148.729-31.922-25.588 8.082-42.304 16.274-42.304 16.274 86.634-31.001 147.348-8.873 147.348-8.873-28.755-2.007-55.762 7.29-55.762 7.29s29.032 5.854 32.88 32.787c5.098 35.566-25.185 76.288-118.52 105.761-50.883 16.071-93.685 18.612-93.685 18.612s60.383 8.873 151.527-19.9c84.351-26.639 134.48-69.624 127.245-120.03z" fill="#CE1126"/><path d="M255.613 290.493c25.883-8.174 47.9-20.342 59.72-31.995 6.535-6.444 9.977-12.684 9.222-18.023a9.886 9.886 0 0 0-2.614-5.357c-9.002-9.776-39.34-9.665-74.079 1.288-40.206 12.74-71.06 35.144-68.924 50.037 2.135 14.948 36.469 16.734 76.675 4.05z" fill="#CE1126"/><path d="M252.133 274.237c16.79-5.283 29.731-14.267 28.903-20.029-.829-5.762-15.096-6.112-31.885-.828-16.79 5.32-29.731 14.267-28.903 20.03.81 5.761 15.096 6.13 31.885.827z" fill="#111"/><path d="M128.92 322.267c28.755 2.007 55.78-7.29 55.78-7.29s-29.031-5.854-32.897-32.805c-5.1-35.548 25.184-76.27 118.519-105.761 50.901-16.072 93.703-18.612 93.703-18.612s-60.383-8.892-151.545 19.9C128.11 204.356 78 247.342 85.216 297.728c8.542 59.646 100.975 47.017 148.729 31.921 25.57-8.063 42.304-16.273 42.304-16.273-86.615 31.02-147.33 8.891-147.33 8.891z" fill="#111"/><path d="M242.432 214.076c-32.051 10.107-48.803 22.92-54.602 36.358l-11.635 26.951s14.138-25.33 71.336-43.372c43.114-13.623 69.458-10.18 74.41 1.123 1.4 1.547 2.32 3.314 2.614 5.357.755 5.32-2.687 11.58-9.223 18.023-10.806 15.17-31.424 31.517-49.52 42.562 14.45-4.565 79.343-35.346 74.63-68.206-4.38-30.504-42.304-36.395-98.01-18.796z" fill="#111"/></g></svg>