<svg xmlns="http://www.w3.org/2000/svg" viewBox="0 0 24 16"><g fill="#a4a9ad"><path d="M16.885 11.849a.313.313 0 1 0 0 .627.313.313 0 0 0 0-.627zm0 .561a.246.246 0 0 1-.246-.246.247.247 0 1 1 .246.246z"/><path d="M17.016 12.091a.107.107 0 0 0-.106-.106h-.152v.358h.068v-.146h.047l.068.146h.075l-.072-.151a.112.112 0 0 0 .072-.101zm-.109.038h-.084v-.078h.084a.04.04 0 0 1 .038.04c0 .02-.015.038-.038.038z"/></g><path fill="#a4a9ad" d="M17.299 11.285l3.374-7.764s-2.441 1.446-5.23 2.551l4.793-3.563-3.017.519c-.433-.259-1.934-1.036-4.357-1.036l-.394.01L11.957.5l-.773 1.603c-4.418.568-7.857 3.178-7.857 5.994 0 1.259.54 2.913 3.026 3.808l-1.254 3.1 3.318-2.617c.713.097 1.503.146 2.356.146.997 0 1.978-.076 2.92-.221l3.631 3.188-1.239-3.737c0-.001.729-.238 1.214-.479z"/><path fill="#002654" d="M20.05 4.223s-2.845 1.656-6.014 2.751l-.111-.308 5.435-3.769-6.04 1.546 3.379-1.362s-1.43-.799-3.837-.799c-.2 0-.401.005-.602.014l-.35-1.027-1.88 3.898-2.869.817 2.664-1.093.874-1.78.183-.373.158-.324c-4.01.575-7.42 2.965-7.42 5.683 0 1.523.838 2.919 3.133 3.637l-1.186 2.585 2.763-2.237c.715.104 1.526.159 2.442.159 1.147 0 2.158-.097 3.013-.235l3.064 2.722-1.145-3.152c.891-.262 1.369-.502 1.369-.502l2.977-6.851z"/><path fill="#ce1126" d="M15.708 3.054s-1.137-.553-3.354-.481l.101.3c.246-.028 1.581-.155 3.253.181zm-3.253 7.273c-1.297-.245-2.073-.496-2.073-.496s.599-.231 1.483-.638a32.66 32.66 0 0 0 2.832-1.463c.823-.481 1.648-1.024 2.361-1.61 0 0-4.15 2.265-7.597 2.265-2.317 0-3.387-1.075-3.387-1.795 0-2.146 3.778-3.257 4.625-3.479l.183-.373C7.25 3.453 5.9 4.879 5.9 4.879s-1.214.734-1.674 2.097c-.107.317-.173.67-.173 1.054 0 1.642 1.075 3.787 6.589 3.787 3.913 0 5.995-1.037 5.995-1.037a26.651 26.651 0 0 1-4.182-.453z"/><path fill="#a4a9ad" d="M8.526 7.868l.237-.516-1.387-.382s-.395.704 1.15.898z"/><path d="M17.002 4.018l-4.419 1.071-.778-2.433-1.233 2.943-3.353.838 2.347.574-.45.9.125.003.173.002c.161 0 .326-.006.493-.016.409-.024.833-.078 1.265-.155.329-.058.662-.131.996-.214.441-.109.886-.238 1.326-.378l-.254-.677 3.762-2.458zm-1.741 7.833a1.007 1.007 0 0 0-.293.15.553.553 0 0 0-.174.269 1.581 1.581 0 0 0-.038.151l1.025.809-.52-1.379zm-7.943.057a.37.37 0 0 0-.098-.022.472.472 0 0 0-.087-.01l-.558 1.114 1.047-.78c-.067-.121-.144-.246-.304-.302z" fill="#a4a9ad"/><g fill="#fff"><path d="M8.763 9.595c1.367 0 2.51-.245 3.103-.401a32.66 32.66 0 0 0 2.832-1.463c-.859.326-3.579 1.295-5.506 1.295-2.922 0-3.836-1.693-3.836-2.648 0-.854.546-1.499.546-1.499s-1.008.703-1.008 1.875c-.001 1.929 1.924 2.841 3.869 2.841z"/><path d="M9.887 10.497c-5.431 0-5.673-2.894-5.661-3.521-.107.317-.173.67-.173 1.054 0 0 .056 3.201 6.262 3.201 2.019 0 3.839-.426 4.416-.575a26.71 26.71 0 0 1-2.276-.329c-.431.068-1.288.17-2.568.17zm6.835-2.321c-.177-.371-.692-.435-1.151-.144-.459.292-.69.826-.515 1.196.177.372.69.436 1.15.145.461-.293.69-.826.516-1.197z"/><path d="M12.125 9.558l-.004-.131-.115.143-.179.024.112.059-.112.146.191-.1.131.095-.024-.156.178-.1zm1.378-.654l-.003-.133-.119.148-.189.024.116.063-.116.149.2-.102.135.098-.022-.161.183-.105zm1.002.108l-.004-.123-.107.134-.17.023.105.058-.105.135.178-.093.125.088-.019-.145.166-.097zm-1.384.752v-.121l-.109.131-.17.018.103.062-.108.132.182-.09.122.092-.018-.147.169-.092zm.993.138l-.001-.123-.112.134-.169.019.104.059-.108.135.183-.092.12.094-.017-.149.169-.091zm.82-1.86l-.006-.155-.136.171-.216.027.134.074-.134.173.229-.119.158.113-.028-.187.211-.121zm1.351-.803l-.123.226.257-.172.231.119-.084-.221.237-.172-.266.053-.047-.186-.129.223-.265.057zm2.153-1.11l-.319.037-.026-.236-.184.26-.32.043.212.111-.178.266.328-.183.252.173-.065-.284zm-1.686 3.891v-.187l-.172.204-.261.027.16.092-.167.208.279-.139.19.14-.027-.225.26-.143zm.5-1.232l-.004-.172-.154.19-.24.033.149.08-.149.192.254-.132.178.126-.031-.207.234-.136zm.43-1.213l-.006-.186-.166.206-.26.034.161.088-.161.211.276-.144.191.137-.033-.226.256-.148zm-2.315 2.309l-.127.154-.196.019.119.071-.124.155.209-.106.143.106-.022-.169.193-.105-.194.015zM11.805 3.07l-.633 2.873 1.241-.805zm4.478 1.322l-5.111 1.552s1.878.41 1.935.417c.058.008 3.176-1.969 3.176-1.969z"/><path d="M12.169 7.532l-.996-1.589v1.803c.328-.059.661-.131.996-.214zm-2.928.382l.173.002c.161 0 .326-.006.493-.016l1.265-1.958-1.484 1.095-.447.877z"/><path d="M10.636 5.649l-2.756.744 3.292-.45zm4.158 6.622l.681.537-.507-.808a.57.57 0 0 0-.174.271zm-7.999.448l.522-.811a.37.37 0 0 0-.098-.022l-.424.833z"/></g><path fill="#ce1126" d="M15.64 8.138c-.375.236-.571.678-.438.986.13.308.54.367.913.13.375-.236.569-.677.439-.985-.134-.309-.542-.367-.914-.131z"/></svg>