<svg width="512" height="512" viewBox="0 0 512 512" xmlns="http://www.w3.org/2000/svg"><title>columbus-blue-jackets</title><g fill="none" fill-rule="evenodd"><g fill="#A4A9AD"><path d="M360.442 338.12a6.67 6.67 0 1 0 0 13.342 6.67 6.67 0 0 0 0-13.342zm0 11.937a5.234 5.234 0 0 1-5.234-5.234 5.256 5.256 0 1 1 5.234 5.234z"/><path d="M363.23 343.27a2.277 2.277 0 0 0-2.256-2.256h-3.234v7.618h1.447v-3.107h1l1.446 3.107h1.596l-1.532-3.213a2.383 2.383 0 0 0 1.532-2.15zm-2.32.808h-1.787v-1.66h1.787c.453.023.81.398.809.852 0 .425-.32.808-.809.808z"/></g><path d="M369.25 326.12l71.792-165.2s-51.939 30.767-111.283 54.279l101.985-75.813-64.195 11.043c-9.214-5.51-41.151-22.044-92.708-22.044l-8.383.213-10.873-31.96-16.448 34.11c-94.005 12.085-167.18 67.62-167.18 127.538 0 26.789 11.49 61.982 64.387 81.026l-26.682 65.961 70.6-55.684c15.17 2.064 31.98 3.107 50.13 3.107 21.214 0 42.088-1.617 62.131-4.703l77.26 67.834-26.363-79.515c0-.022 15.511-5.064 25.83-10.192z" fill="#A4A9AD"/><path d="M427.786 175.856s-60.535 35.236-127.964 58.535l-2.362-6.553 115.644-80.196-128.517 32.895 71.897-28.98s-30.427-17.001-81.643-17.001c-4.255 0-8.532.106-12.809.298L254.585 113l-40.002 82.941-61.046 17.384 56.684-23.256 18.597-37.875 3.893-7.936 3.362-6.894c-85.324 12.234-157.88 63.088-157.88 120.921 0 32.406 17.83 62.11 66.663 77.387l-25.236 55.003 58.79-47.598c15.214 2.213 32.47 3.383 51.96 3.383 24.407 0 45.918-2.064 64.11-5l65.196 57.918-24.363-67.067c18.958-5.575 29.13-10.682 29.13-10.682l63.343-145.774z" fill="#002654"/><path d="M335.398 150.982s-24.193-11.766-71.366-10.234l2.15 6.383c5.234-.596 33.64-3.298 69.216 3.851zm-69.217 154.754c-27.597-5.213-44.108-10.554-44.108-10.554s12.745-4.915 31.554-13.575a694.932 694.932 0 0 0 60.26-31.13c17.51-10.234 35.065-21.788 50.236-34.257 0 0-88.303 48.194-161.647 48.194-49.3 0-72.068-22.873-72.068-38.193 0-45.663 80.387-69.302 98.41-74.026l3.893-7.936c-77.28 15.213-106.005 45.555-106.005 45.555s-25.832 15.618-35.62 44.62a69.876 69.876 0 0 0-3.68 22.427c0 34.938 22.873 80.578 140.199 80.578 83.26 0 127.56-22.065 127.56-22.065a567.074 567.074 0 0 1-88.984-9.638z" fill="#CE1126"/><path d="M182.581 253.414l5.043-10.98-29.512-8.128s-8.405 14.98 24.469 19.108z" fill="#A4A9AD"/><path d="M362.931 171.494l-94.026 22.789-16.554-51.77-26.236 62.621-71.344 17.831 49.939 12.214-9.575 19.15 2.66.063 3.68.043c3.426 0 6.937-.128 10.49-.34 8.703-.511 17.725-1.66 26.917-3.299 7-1.234 14.086-2.787 21.193-4.553 9.383-2.32 18.852-5.064 28.214-8.043l-5.405-14.405 80.047-52.3zm-37.044 166.669a21.427 21.427 0 0 0-6.235 3.192 11.767 11.767 0 0 0-3.702 5.723 33.64 33.64 0 0 0-.808 3.213l21.81 17.214-11.065-29.342zm-169.01 1.213a7.873 7.873 0 0 0-2.085-.468c-.609-.128-1.229-.2-1.85-.213l-11.874 23.703 22.278-16.596c-1.426-2.575-3.064-5.235-6.469-6.426z" fill="#A4A9AD"/><g fill="#FFF"><path d="M187.624 290.16c29.087 0 53.407-5.213 66.025-8.532a694.932 694.932 0 0 0 60.258-31.13c-18.277 6.937-76.153 27.555-117.155 27.555-62.174 0-81.622-36.023-81.622-56.343 0-18.172 11.618-31.896 11.618-31.896S105.3 204.773 105.3 229.71c-.021 41.045 40.939 60.45 82.324 60.45z"/><path d="M211.54 309.353c-115.56 0-120.709-61.578-120.453-74.92a69.876 69.876 0 0 0-3.681 22.428s1.191 68.11 133.24 68.11c42.96 0 81.686-9.065 93.964-12.235a568.33 568.33 0 0 1-48.429-7c-9.17 1.446-27.405 3.617-54.64 3.617zm145.434-49.386c-3.766-7.894-14.725-9.256-24.491-3.064-9.767 6.213-14.682 17.576-10.958 25.448 3.766 7.916 14.682 9.277 24.47 3.086 9.808-6.235 14.681-17.576 10.979-25.47z"/><path d="M259.16 289.373l-.085-2.787-2.447 3.042-3.81.511 2.384 1.255-2.383 3.107 4.064-2.128 2.787 2.022-.51-3.32 3.787-2.128-3.787.426zm29.32-13.916l-.063-2.83-2.532 3.15-4.022.51 2.468 1.34-2.468 3.171 4.256-2.17 2.872 2.085-.468-3.426 3.894-2.234-3.937.404zm21.32 2.298l-.084-2.617-2.277 2.851-3.617.49 2.234 1.234-2.234 2.872 3.787-1.978 2.66 1.872-.404-3.085 3.532-2.064-3.596.425zm-29.448 16.001v-2.574l-2.319 2.787-3.617.383 2.191 1.32-2.298 2.808 3.873-1.915 2.596 1.957-.383-3.127 3.596-1.958-3.639.32zm21.13 2.937l-.022-2.618-2.383 2.852-3.596.404 2.213 1.255-2.298 2.873 3.894-1.958 2.553 2-.362-3.17 3.596-1.936-3.596.298zm17.447-39.577l-.128-3.298-2.893 3.638-4.596.575 2.85 1.574-2.85 3.681 4.872-2.532 3.362 2.405-.596-3.98 4.49-2.574-4.511.51zm28.746-17.086l-2.617 4.809 5.468-3.66 4.916 2.532-1.788-4.703 5.043-3.66-5.66 1.128-1-3.957-2.745 4.745-5.638 1.213 4.021 1.553zm45.811-23.619l-6.787.788-.554-5.022-3.915 5.532-6.809.915 4.511 2.362-3.787 5.66 6.98-3.894 5.361 3.681-1.383-6.043 6.383-3.979zm-35.874 82.792v-3.979l-3.66 4.341-5.553.575 3.404 1.957-3.553 4.426 5.936-2.958 4.043 2.98-.574-4.788 5.532-3.043-5.575.49zm10.639-26.214l-.085-3.66-3.277 4.043-5.107.702 3.17 1.703-3.17 4.085 5.405-2.809 3.787 2.681-.66-4.404 4.98-2.894-5.043.553zm9.15-25.81l-.128-3.958-3.532 4.384-5.533.723 3.426 1.873-3.426 4.49 5.873-3.065 4.064 2.915-.702-4.809 5.447-3.149-5.49.596zm-49.259 49.13l-2.702 3.277-4.17.405 2.532 1.51-2.639 3.298 4.447-2.255 3.043 2.255-.468-3.596 4.106-2.234-4.127.32-.022-2.98zm-75.791-144.986l-13.469 61.13 26.406-17.128-12.937-44.002zm95.282 28.129l-108.751 33.023s39.96 8.724 41.172 8.873c1.235.17 67.579-41.896 67.579-41.896z"/><path d="M260.096 246.264l-21.193-33.81v38.364c6.98-1.256 14.065-2.788 21.193-4.554zm-62.301 8.128l3.68.043c3.426 0 6.937-.128 10.49-.34l26.917-41.662-31.576 23.299-9.511 18.66z"/><path d="M227.477 206.198l-58.641 15.83 70.046-9.574-11.405-6.256zM315.95 347.1l14.49 11.426-10.788-17.193a12.128 12.128 0 0 0-3.702 5.767zm-170.2 9.532l11.106-17.256a7.873 7.873 0 0 0-2.085-.468l-9.022 17.724z"/></g><path d="M333.951 259.159c-7.98 5.021-12.15 14.426-9.32 20.98 2.767 6.553 11.49 7.808 19.427 2.766 7.98-5.022 12.107-14.406 9.341-20.96-2.851-6.574-11.533-7.808-19.448-2.786z" fill="#CE1126"/></g></svg>