<?xml version="1.0" encoding="UTF-8"?>
<svg width="512px" height="512px" viewBox="0 0 512 512" version="1.1" xmlns="http://www.w3.org/2000/svg" xmlns:xlink="http://www.w3.org/1999/xlink">
    <!-- Generator: Sketch 41.2 (35397) - http://www.bohemiancoding.com/sketch -->
    <title>columbus-blue-jackets</title>
    <desc>Created with Sketch.</desc>
    <defs></defs>
    <g id="NHL" stroke="none" stroke-width="1" fill="none" fill-rule="evenodd">
        <g id="columbus-blue-jackets">
            <g id="cbj" transform="translate(65.000000, 86.000000)">
                <g id="Group" transform="translate(276.611111, 234.055556)" fill="#A4A9AD">
                    <path d="M18.8308333,18.0648333 C15.1467719,18.0648333 12.16025,21.0513552 12.16025,24.7354167 C12.16025,28.4194781 15.1467719,31.406 18.8308333,31.406 C22.5148948,31.406 25.5014167,28.4194781 25.5014167,24.7354167 C25.5014167,21.0513552 22.5148948,18.0648333 18.8308333,18.0648333 Z M18.8308333,30.0016667 C15.9399909,30.0016667 13.5965,27.6581758 13.5965,24.7673333 C13.5878957,22.637789 14.8652197,20.713541 16.8310278,19.89462 C18.7968358,19.075699 21.062519,19.5239927 22.5683465,21.0298202 C24.074174,22.5356477 24.5224677,24.8013308 23.7035467,26.7671389 C22.8846257,28.732947 20.9603776,30.010271 18.8308333,30.0016667 L18.8308333,30.0016667 Z" id="Shape"></path>
                    <path d="M21.6182222,23.2140556 C21.6066788,21.9732209 20.6036125,20.9701545 19.3627778,20.9586111 L16.1285556,20.9586111 L16.1285556,28.5760556 L17.5754444,28.5760556 L17.5754444,25.4695 L18.5755,25.4695 L20.0223889,28.5760556 L21.6182222,28.5760556 L20.0862222,25.3631111 C20.9831499,25.0207422 21.5870538,24.1735994 21.6182222,23.2140556 Z M19.2989444,24.0226111 L17.5116111,24.0226111 L17.5116111,22.3629444 L19.2989444,22.3629444 C19.7523031,22.3856404 20.1080677,22.7601295 20.1075,23.2140556 C20.1075,23.6396111 19.7883333,24.0226111 19.2989444,24.0226111 Z" id="Shape"></path>
                </g>
                <path d="M304.250944,240.119722 L376.042167,74.9190556 C376.042167,74.9190556 324.103111,105.686722 264.759389,129.198667 L366.743778,53.3859444 L302.548722,64.4291111 C293.335444,58.9181667 261.3975,42.3853333 209.841444,42.3853333 L201.458,42.5981111 L190.585056,10.6388889 L174.137333,44.7471667 C80.1321111,56.8329444 6.95783333,112.367944 6.95783333,172.286167 C6.95783333,199.074889 18.4478333,234.268333 71.3443889,253.311944 L44.6620556,319.273056 L115.261722,263.589111 C130.432778,265.653056 147.242222,266.695667 165.392167,266.695667 C186.606111,266.695667 207.479611,265.078556 227.523278,261.993278 L304.782889,329.826833 L278.419722,250.311778 C278.419722,250.2905 293.931222,245.247667 304.250944,240.119722 L304.250944,240.119722 Z" id="Shape" fill="#A4A9AD"></path>
                <path d="M362.786111,89.8560556 C362.786111,89.8560556 302.250833,125.092056 234.821556,148.391222 L232.459722,141.837667 L348.104444,61.6417222 L219.586667,94.5371667 L291.484278,65.5568333 C291.484278,65.5568333 261.057056,48.5558889 209.841444,48.5558889 C205.585889,48.5558889 201.309056,48.6622778 197.032222,48.8537778 L189.585,27.0015 L149.582778,109.942278 L88.5368333,127.326222 L145.220833,104.069611 L163.817611,66.1951667 L167.711444,58.2585556 L171.073333,51.3645556 C85.7494444,63.5992778 13.1922222,114.453167 13.1922222,172.286167 C13.1922222,204.692222 31.023,234.396 79.8555,249.673444 L54.6200556,304.6765 L113.410556,257.078111 C128.624167,259.291 145.880444,260.461278 165.370889,260.461278 C189.7765,260.461278 211.288333,258.397333 229.480833,255.461 L294.675944,313.379111 L270.312889,246.311556 C289.271389,240.736778 299.442167,235.630111 299.442167,235.630111 L362.786111,89.8560556 L362.786111,89.8560556 Z" id="Shape" fill="#002654"></path>
                <path d="M270.398,64.9823333 C270.398,64.9823333 246.205167,53.2157222 199.032333,54.7477222 L201.181389,61.1310556 C206.415722,60.5352778 234.821556,57.833 270.398,64.9823333 Z M201.181389,219.735611 C173.584111,214.522556 157.072556,209.181833 157.072556,209.181833 C157.072556,209.181833 169.817944,204.266667 188.6275,195.606611 C209.208415,186.21711 229.318583,175.828278 248.886167,164.477222 C266.397778,154.242611 283.951944,142.688778 299.123,130.22 C299.123,130.22 210.820222,178.414167 137.475722,178.414167 C88.1751111,178.414167 65.4078889,155.540556 65.4078889,140.220556 C65.4078889,94.5584444 145.795333,70.9188333 163.817611,66.1951667 L167.711444,58.2585556 C90.4305556,73.4721667 61.7055556,103.814278 61.7055556,103.814278 C61.7055556,103.814278 35.8743333,119.432167 26.0865556,148.433778 C23.8098333,155.178833 22.4055,162.689889 22.4055,170.860556 C22.4055,205.798667 45.2791111,251.4395 162.604778,251.4395 C245.864722,251.4395 290.165056,229.374444 290.165056,229.374444 C260.296206,228.510965 230.542331,225.287984 201.181389,219.735611 L201.181389,219.735611 Z" id="Shape" fill="#CE1126"></path>
                <path d="M117.581,167.413556 L122.623833,156.434222 L93.1115556,148.306111 C93.1115556,148.306111 84.7068333,163.285667 117.581,167.413556 Z" id="Shape" fill="#A4A9AD"></path>
                <path d="M297.931444,85.4941111 L203.904944,108.282611 L187.350833,56.5137778 L161.115333,119.134278 L89.7709444,136.965056 L139.709889,149.1785 L130.134889,168.3285 L132.794611,168.392333 L136.475667,168.434889 C139.901389,168.434889 143.412222,168.307222 146.965611,168.094444 C155.668222,167.583778 164.69,166.434778 173.882,164.796389 C180.882389,163.562278 187.967889,162.009 195.074667,160.242944 C204.458167,157.923667 213.926778,155.178833 223.289,152.199944 L217.884444,137.794889 L297.931444,85.4941111 L297.931444,85.4941111 Z M260.886833,252.162944 C258.647713,252.877688 256.541451,253.955979 254.652444,255.354611 C252.880606,256.855414 251.592427,258.84691 250.950111,261.078333 C250.627985,262.135385 250.35814,263.207666 250.141556,264.291278 L271.951278,281.505 L260.886833,252.162944 L260.886833,252.162944 Z M91.8774444,253.375778 C91.2068785,253.125686 90.5053424,252.968199 89.7922222,252.907667 C89.1830938,252.779527 88.5633717,252.708295 87.9410556,252.694889 L76.0680556,276.398333 L98.3458889,259.801667 C96.9202778,257.227056 95.2818889,254.567333 91.8774444,253.375778 Z" id="Shape" fill="#A4A9AD"></path>
                <g id="Group" transform="translate(21.277778, 63.833333)" fill="#FFFFFF">
                    <path d="M101.346056,140.326944 C130.432778,140.326944 154.753278,135.113889 167.371,131.794556 C187.951915,122.405055 208.062083,112.016222 227.629667,100.665167 C209.352056,107.601722 151.4765,128.219889 110.474222,128.219889 C48.3005556,128.219889 28.8526667,92.1966111 28.8526667,71.8763333 C28.8526667,53.7051111 40.4703333,39.9809444 40.4703333,39.9809444 C40.4703333,39.9809444 19.0223333,54.9392222 19.0223333,79.8767778 C19.0010556,120.921611 59.9607778,140.326944 101.346056,140.326944 L101.346056,140.326944 Z" id="Shape"></path>
                    <path d="M125.262278,159.5195 C9.70266667,159.5195 4.55344444,97.9416111 4.80877778,84.6004444 C2.53205556,91.3455 1.12772222,98.8565556 1.12772222,107.027222 C1.12772222,107.027222 2.31927778,175.137389 134.369167,175.137389 C177.329,175.137389 216.054556,166.073056 228.331833,162.902667 C212.09608,161.26553 195.938367,158.929903 179.903611,155.902278 C170.732889,157.349167 152.497833,159.5195 125.262278,159.5195 L125.262278,159.5195 Z M270.695889,110.133778 C266.929722,102.239722 255.971667,100.877944 246.205167,107.069778 C236.438667,113.282889 231.5235,124.645222 235.247111,132.518 C239.013278,140.433333 249.928778,141.795111 259.716556,135.603278 C269.525611,129.368889 274.398222,118.027833 270.695889,110.133778 L270.695889,110.133778 Z" id="Shape"></path>
                    <path d="M172.881944,139.539667 L172.796833,136.752278 L170.349889,139.795 L166.541167,140.305667 L168.924278,141.561056 L166.541167,144.667611 L170.605222,142.539833 L173.392611,144.561222 L172.881944,141.241889 L176.669389,139.114111 L172.881944,139.539667 Z M202.202722,125.624 L202.138889,122.794056 L199.606833,125.943167 L195.585333,126.453833 L198.053556,127.794333 L195.585333,130.964722 L199.840889,128.794389 L202.713389,130.879611 L202.245278,127.453889 L206.139111,125.219722 L202.202722,125.624 Z M223.523056,127.922 L223.437944,125.304833 L221.161222,128.156056 L217.544,128.645444 L219.778167,129.879556 L217.544,132.752056 L221.331444,130.773222 L223.991167,132.645667 L223.586889,129.560389 L227.119,127.496444 L223.523056,127.922 Z M194.074611,143.922889 L194.074611,141.348278 L191.755333,144.135667 L188.138111,144.518667 L190.329722,145.837889 L188.031722,148.646556 L191.904278,146.731556 L194.500167,148.689111 L194.117167,145.561278 L197.713111,143.603722 L194.074611,143.922889 Z M215.203444,146.859222 L215.182167,144.242056 L212.799056,147.093278 L209.203111,147.497556 L211.416,148.752944 L209.118,151.625444 L213.011833,149.667889 L215.565167,151.668 L215.203444,148.497611 L218.799389,146.561333 L215.203444,146.859222 Z M232.651222,107.282556 L232.523556,103.9845 L229.629778,107.623 L225.033778,108.1975 L227.885,109.772056 L225.033778,113.453111 L229.906389,110.921056 L233.268278,113.325444 L232.6725,109.3465 L237.162111,106.771889 L232.651222,107.282556 Z M261.3975,90.1965 L258.780333,95.0052778 L264.248722,91.3455 L269.163889,93.8775556 L267.376556,89.1751667 L272.419389,85.5153889 L266.7595,86.6431111 L265.759444,82.6854444 L263.014611,87.4303889 L257.376,88.6432222 L261.3975,90.1965 Z M307.208556,66.5781667 L300.420944,67.3654444 L299.867722,62.3438889 L295.952611,67.8761111 L289.143722,68.7910556 L293.654611,71.1528889 L289.867167,76.8127778 L296.846278,72.9189444 L302.208278,76.6 L300.825222,70.5571111 L307.208556,66.5781667 Z M271.334222,149.37 L271.334222,145.391056 L267.674444,149.731722 L262.120944,150.306222 L265.525389,152.263778 L261.972,156.689556 L267.9085,153.731944 L271.951278,156.710833 L271.376778,151.923333 L276.909,148.880611 L271.334222,149.37 Z M281.973111,123.155778 L281.888,119.496 L278.611222,123.538778 L273.504556,124.240944 L276.674944,125.943167 L273.504556,130.0285 L278.909111,127.219833 L282.696556,129.900833 L282.036944,125.496333 L287.015944,122.602556 L281.973111,123.155778 Z M291.122556,97.3458333 L290.994889,93.3881667 L287.462778,97.7713889 L281.930556,98.4948333 L285.356278,100.367278 L281.930556,104.856889 L287.803222,101.792889 L291.867278,104.707944 L291.165111,99.8991667 L296.612222,96.7500556 L291.122556,97.3458333 Z M241.8645,146.476222 L239.162222,149.753 L234.991778,150.157278 L237.523833,151.668 L234.885389,154.966056 L239.332444,152.710611 L242.375167,154.966056 L241.907056,151.370111 L246.013667,149.135944 L241.885778,149.455111 L241.8645,146.476222 Z M166.073056,1.48944444 L152.604222,62.6205 L179.009944,45.4918889 L166.073056,1.48944444 Z M261.354944,29.6186667 L152.604222,62.6417778 C152.604222,62.6417778 192.563889,71.3656667 193.776722,71.5146111 C195.010833,71.6848333 261.354944,29.6186667 261.354944,29.6186667 L261.354944,29.6186667 Z" id="Shape"></path>
                    <path d="M173.818167,96.4308889 L152.6255,62.6205 L152.6255,100.984333 C159.604611,99.7289444 166.690111,98.1969444 173.818167,96.4308889 L173.818167,96.4308889 Z M111.516833,104.559 L115.197889,104.601556 C118.623611,104.601556 122.134444,104.473889 125.687833,104.261111 L152.604222,62.5992222 L121.028,85.8983889 L111.516833,104.559 L111.516833,104.559 Z" id="Shape"></path>
                    <path d="M141.199333,56.3648333 L82.5577778,72.1955 L152.604222,62.6205 L141.199333,56.3648333 Z M229.672333,197.266278 L244.1625,208.692444 L233.374667,191.5 C231.611931,193.026247 230.326505,195.028259 229.672333,197.266278 L229.672333,197.266278 Z M59.4713889,206.798722 L70.5783889,189.542444 C69.907823,189.292353 69.2062868,189.134865 68.4931667,189.074333 L59.4713889,206.798722 Z" id="Shape"></path>
                </g>
                <path d="M268.951111,173.158556 C260.971944,178.180111 256.8015,187.584889 259.631444,194.138444 C262.397556,200.692 271.121444,201.947389 279.058056,196.904556 C287.037222,191.883 291.165111,182.4995 288.399,175.945944 C285.547778,169.371111 276.866444,168.137 268.951111,173.158556 L268.951111,173.158556 Z" id="Shape" fill="#CE1126"></path>
            </g>
        </g>
    </g>
</svg>