<?xml version="1.0" encoding="UTF-8"?>
<svg width="512px" height="512px" viewBox="0 0 512 512" version="1.1" xmlns="http://www.w3.org/2000/svg" xmlns:xlink="http://www.w3.org/1999/xlink">
    <!-- Generator: Sketch 41.2 (35397) - http://www.bohemiancoding.com/sketch -->
    <title>calgary-flames</title>
    <desc>Created with Sketch.</desc>
    <defs></defs>
    <g id="NHL" stroke="none" stroke-width="1" fill="none" fill-rule="evenodd">
        <g id="calgary-flames">
            <g id="cgy" transform="translate(85.000000, 104.000000)">
                <g id="Group" transform="translate(133.388889, 266.777778)" fill="#FFFFFF">
                    <path d="M13.377,6.70755556 C8.93057082,6.70755556 5.32602778,10.3120986 5.32602778,14.7585278 C5.32602778,19.204957 8.93057082,22.8095 13.377,22.8095 C17.8234292,22.8095 21.4279722,19.204957 21.4279722,14.7585278 C21.4279722,10.3120986 17.8234292,6.70755556 13.377,6.70755556 Z M13.377,21.4565556 C11.5983274,21.4732567 9.8901186,20.7622032 8.64864902,19.4883475 C7.40717944,18.2144917 6.74034261,16.4885419 6.80283333,14.7108889 C6.67206302,12.2881057 7.89025581,9.99124763 9.96935783,8.74052231 C12.0484599,7.48979699 14.6483735,7.48979699 16.7274755,8.74052231 C18.8065775,9.99124763 20.0247703,12.2881057 19.894,14.7108889 C19.9615078,16.4800717 19.3041906,18.2001976 18.0740466,19.4735045 C16.8439026,20.7468115 15.1474584,21.4630351 13.377,21.4565556 L13.377,21.4565556 Z" id="Shape"></path>
                    <path d="M17.0737778,12.7481667 C17.0737778,10.8997778 15.9876111,10.0994444 13.7962222,10.0994444 L10.2518889,10.0994444 L10.2518889,19.3985556 L11.662,19.3985556 L11.662,15.3587778 L13.2817222,15.3587778 L15.7208333,19.3985556 L17.3024444,19.3985556 L14.6727778,15.3016111 C16.0257222,15.1491667 17.0737778,14.406 17.0737778,12.7481667 Z M11.662,14.1773333 L11.662,11.2999444 L13.5866111,11.2999444 C14.5584444,11.2999444 15.6065,11.5286111 15.6065,12.6719444 C15.6065,14.0820556 14.5393889,14.1773333 13.3388889,14.1773333 L11.662,14.1773333 L11.662,14.1773333 Z" id="Shape"></path>
                </g>
                <path d="M316.226944,49.9446111 C298.505278,26.5825 270.379278,13.7581111 237.032056,13.7581111 C211.230833,13.7581111 190.269722,24.1815 173.405556,32.5468889 C163.134611,37.6537778 154.273778,42.0556111 147.813944,42.0556111 C143.755111,42.0556111 137.390556,34.2809444 134.170167,28.7738889 L132.931556,26.6396667 L130.835444,27.8592222 C124.221661,31.5415097 119.999117,38.398631 119.687944,45.962 C110.198278,42.0937222 98.4028889,41.9603333 96.8403333,41.9603333 C82.3962222,42.0556111 69.8005,51.0498333 69.2478889,51.45 C64.4550018,54.9321946 60.5509192,59.4956624 57.8526667,64.7698333 C48.5345,67.8949444 39.1782222,76.6605 38.7208889,77.0797222 C36.4913889,79.3282778 35.5576667,80.1095556 35.5576667,80.1095556 C30.1268333,84.2065 22.6951667,84.5495 22.638,84.5495 L20.0273889,84.6257222 L20.2941667,87.2172778 C20.9992222,94.1725556 24.6769444,100.975389 24.9627778,101.413667 C29.0597222,107.606722 35.1575,110.750889 39.3497222,112.256278 C36.8725,114.085611 33.0804444,116.353222 28.2593889,117.8205 C21.3231667,119.954722 11.4333333,121.536333 11.3380556,121.555389 L9.01327778,121.898389 L9.29911111,124.242222 C9.64211111,127.024333 10.8235556,129.120444 10.976,129.406278 C20.7705556,145.412944 41.7316667,146.232333 45.8476667,146.232333 L46.4383889,146.232333 C48.2296111,146.422889 50.7830556,146.327611 52.9363333,146.118 C51.2817718,150.178595 49.8691869,154.333631 48.706,158.561278 C47.5245556,163.477611 45.2188333,165.402222 45.0663889,165.516556 C42.1127778,167.917556 33.8617222,172.833889 33.7855,172.891056 L31.4416667,174.282111 L33.0995,176.454444 C36.3008333,180.627611 42.8178333,182.952389 46.0572778,183.905167 C46.3812222,188.8215 47.4673889,194.385722 48.2677222,197.949111 C46.4816226,197.692831 44.6793905,197.565465 42.875,197.568 C34.7954444,197.568 30.4507778,200.178611 30.2602222,200.292944 L27.4209444,202.027 L29.9172222,204.199333 C33.4043889,207.248222 36.0912222,211.421389 36.1102778,211.478556 L36.2817778,211.707222 C40.2834444,216.566389 41.2171667,226.570556 41.2171667,226.646778 C42.3414444,241.967444 47.5055,251.266556 49.6587778,254.563167 C52.9935,259.612889 59.3771111,264.357722 59.5105,264.453 C64.1981667,268.416556 72.4301667,270.322111 72.6588333,270.379278 C73.3067222,270.550778 73.9546111,270.703222 74.6406111,270.817556 C73.0468051,271.536806 71.4327763,272.210377 69.8005,272.837444 L67.3804444,273.771167 L68.4666111,276.134056 C71.4011667,282.517667 79.233,286.176333 80.3953889,286.690833 C87.3887778,290.597222 98.5553333,291.111722 99.0317222,291.130778 L99.1460556,291.130778 C112.218167,291.016444 122.679667,280.897944 123.041722,280.535889 C133.903389,270.665111 139.7725,268.226 149.338389,268.969167 C155.131278,269.407444 160.371556,271.656 166.412167,274.2285 C175.825611,278.249222 187.506667,283.260833 206.143,283.260833 C266.796833,283.260833 317.770444,224.969889 325.640389,172.662389 L326.078667,169.880278 L240.443,169.880278 L239.9285,171.6715 C239.852278,171.938278 231.715556,199.530722 213.136389,199.530722 C198.444556,199.530722 189.316944,187.640056 189.316944,168.470167 C189.316944,143.183444 211.059333,96.4592222 242.043667,96.4592222 C245.664222,96.4592222 248.255778,97.6406667 249.989833,100.041667 C253.686611,105.205722 253.267389,116.4485 248.884611,129.387222 L247.779389,132.626667 L329.699222,132.588556 L330.175611,130.797333 C338.331389,101.794778 333.205444,72.3348889 316.226944,49.9446111 L316.226944,49.9446111 Z M77.9943889,184.743611 C71.8775556,182.971444 69.1145,178.588667 69.1145,178.588667 C72.4301667,177.654944 74.0498889,172.872 76.4508889,172.319389 C80.3001111,171.404722 78.7566111,175.196778 88.9894444,180.303667 C92.7433889,182.075833 93.2578889,182.228278 96.1543333,182.780889 C89.0656667,186.287111 84.7972222,186.725389 77.9943889,184.743611 L77.9943889,184.743611 Z" id="Shape" fill="#FFFFFF"></path>
                <path d="M327.888944,130.130389 C343.933722,72.6207222 306.184667,16.1972222 237.013,16.1972222 C195.319444,16.1972222 165.554667,44.5137778 147.794889,44.5137778 C140.496611,44.5137778 132.035944,29.9743889 132.035944,29.9743889 C119.726056,37.0821111 122.374778,50.0017778 122.374778,50.0017778 C112.713611,44.3041667 96.8593889,44.3994444 96.8593889,44.3994444 C83.0250556,44.5137778 70.6961111,53.4127222 70.6961111,53.4127222 C65.9090444,56.8342555 62.0885038,61.4359718 59.6057778,66.7706667 C50.4019444,69.4575 40.4358889,78.8328333 40.4358889,78.8328333 C37.9967778,81.3100556 37.0249444,82.0532222 37.0249444,82.0532222 C30.87,86.7027778 22.7142222,86.9695556 22.7142222,86.9695556 C23.3811667,93.5246667 26.9826667,100.060722 26.9826667,100.060722 C33.1376111,109.359833 44.4375556,111.151056 44.4375556,111.151056 C44.4375556,111.151056 38.6827778,117.210722 28.9835,120.183389 C21.7995556,122.374778 11.7001111,123.956389 11.7001111,123.956389 C11.9859444,126.338333 13.034,128.129556 13.034,128.129556 C23.1906111,144.726944 46.5146111,143.774167 46.5146111,143.774167 C50.4972222,144.250556 57.2238333,143.126278 57.2238333,143.126278 C54.3845556,147.108889 51.0688889,159.152 51.0688889,159.152 C49.6397222,165.116389 46.6098889,167.384 46.6098889,167.384 C42.8815249,170.106816 39.021271,172.644281 35.0431667,174.987167 C38.7399444,179.827278 48.4201667,182.018667 48.4201667,182.018667 C48.6107222,189.888611 51.5071667,200.978944 51.5071667,200.978944 C38.3778889,198.215889 31.5369444,202.389056 31.5369444,202.389056 C35.329,205.723778 38.1873333,210.163722 38.1873333,210.163722 C42.7416111,215.651722 43.6943889,226.456222 43.6943889,226.456222 C44.6471667,239.356833 48.6297778,248.446333 51.7358333,253.191167 C54.88,257.936 61.1492778,262.585556 61.1492778,262.585556 C65.3986667,266.187056 73.3638889,267.978278 73.3638889,267.978278 C78.8709444,269.502722 84.1112222,268.378444 84.1112222,268.378444 C80.5668889,271.313 70.6961111,275.105056 70.6961111,275.105056 C73.4591667,281.0885 81.5196667,284.499444 81.5196667,284.499444 C88.0557222,288.196222 99.1460556,288.672611 99.1460556,288.672611 C111.379722,288.596389 121.441056,278.725611 121.441056,278.725611 C132.207444,268.950111 138.895944,265.710667 149.567056,266.530056 C165.211667,267.730556 176.168611,280.821722 206.181111,280.821722 C266.796833,280.821722 315.693389,222.816611 323.296556,172.319389 L242.3295,172.319389 C242.3295,172.319389 233.887889,201.988889 213.193556,201.988889 C197.415556,201.988889 186.915944,189.202611 186.915944,168.470167 C186.915944,141.354111 209.534889,94.0201111 242.100833,94.0201111 C257.345278,94.0201111 257.25,112.484944 251.266556,130.1685 L327.888944,130.130389 Z M77.9943889,184.743611 C71.8775556,182.971444 69.1145,178.588667 69.1145,178.588667 C72.4301667,177.654944 74.0498889,172.872 76.4508889,172.319389 C80.3001111,171.404722 78.7566111,175.196778 88.9894444,180.303667 C92.7433889,182.075833 93.2578889,182.228278 96.1543333,182.780889 C89.0656667,186.287111 84.7972222,186.725389 77.9943889,184.743611 L77.9943889,184.743611 Z" id="Shape" fill="#111111"></path>
                <path d="M325.240222,126.776611 C339.265111,66.5229444 297.952667,19.3032778 237.165444,19.3032778 C198.387389,19.3032778 167.307778,47.1625 148.557111,47.9818889 C140.706222,48.3439444 131.292778,35.1003333 131.292778,35.1003333 C120.678833,43.0655556 128.434444,57.6811667 128.434444,57.6811667 C112.713611,46.1144444 95.0491111,47.9056667 95.0491111,47.9056667 C68.6952778,50.4781667 62.2735556,69.4575 62.2735556,69.4575 C46.8957222,75.117 41.5792222,83.2727778 41.5792222,83.2727778 C32.1086111,90.1137222 26.6015556,89.4467778 26.6015556,89.4467778 C30.2030556,109.264556 50.8783333,108.311778 50.8783333,108.311778 C42.7225556,124.051667 16.1781667,126.528889 16.1781667,126.528889 C25.6487778,141.716167 48.2105556,140.363222 48.2105556,140.363222 C55.9471111,141.182611 66.4276667,137.009444 71.6107778,134.665611 C68.1617222,136.494944 66.542,137.924111 66.542,137.924111 C56.5759444,144.9175 56.7855556,157.703778 51.6596111,166.812333 C49.6778333,170.890222 43.9611667,172.852944 40.7788889,175.349222 C44.2088889,177.083278 48.1152778,178.512444 51.8311111,179.160333 C51.7358333,185.505833 54.8037778,200.902722 56.8617778,207.038611 C49.4682222,201.531556 37.9967778,204.008778 37.9967778,204.008778 C50.7068333,219.824889 44.7233889,229.619444 51.107,244.311278 C53.2602778,251.609556 59.8916111,257.859778 66.5801111,262.299722 C83.8825556,270.093444 95.8494444,259.841556 95.8494444,259.841556 C93.8676667,269.4265 75.8411111,276.6295 75.8411111,276.6295 C80.0714444,281.240944 90.4186111,284.747167 96.6116667,285.128278 C121.059944,286.728944 122.336667,260.127389 149.433667,262.890444 C165.1545,264.510167 179.5605,277.715667 205.8,277.715667 C271.427333,277.715667 314.092722,211.288 319.237722,175.539778 L244.844833,175.539778 C244.844833,175.539778 235.717222,205.361722 213.593722,205.361722 C190.708,205.361722 183.466889,185.715444 183.466889,168.031889 C183.466889,141.106389 205.8,90.2471111 242.272333,90.2471111 C259.460444,90.2471111 262.109167,109.112111 256.030444,126.757556 L325.240222,126.757556 L325.240222,126.776611 Z M77.9943889,184.743611 C71.8775556,182.971444 69.1145,178.588667 69.1145,178.588667 C72.4301667,177.654944 74.0498889,172.872 76.4508889,172.319389 C80.3001111,171.404722 78.7566111,175.196778 88.9894444,180.303667 C92.7433889,182.075833 93.2578889,182.228278 96.1543333,182.780889 C89.0656667,186.287111 84.7972222,186.725389 77.9943889,184.743611 L77.9943889,184.743611 Z" id="Shape" fill="#F3BC52"></path>
                <g id="Group" transform="translate(19.055556, 19.055556)" fill="#CE1126">
                    <path d="M46.1144444,79.5378889 C54.2702222,77.9753333 59.682,69.6480556 68.1236111,68.4666111 C72.8684444,67.2661111 77.6132778,69.2478889 81.7102222,69.9148333 C81.5768333,69.4956111 81.0432778,69.3812778 81.0432778,68.9811111 C72.3348889,58.8245 58.5005556,52.7648333 44.9139444,57.7764444 C33.5758889,59.8725556 27.5162222,72.9446667 15.9113889,74.2595 C15.7970556,74.6596667 16.4449444,74.9264444 16.4449444,75.3266111 C23.5526667,83.5014444 36.9868333,82.9678889 46.1144444,79.5378889 L46.1144444,79.5378889 Z M95.011,215.994722 L95.011,215.480222 C80.7765,210.220889 70.3721667,225.751167 56.4044444,217.709722 C44.0183333,213.631833 43.8849444,196.615222 31.3463889,192.537333 C32.4135,195.700556 33.8617222,198.597 34.3952778,201.893611 C35.0622222,215.613611 38.759,230.515056 51.1451111,237.222611 C56.2901111,240.004722 63.6646111,240.004722 68.943,237.489389 C79.0615,232.211 83.9587778,220.091667 95.011,215.994722 Z" id="Shape"></path>
                    <path d="M218.224222,7.48883333 C182.037722,7.31733333 152.234833,36.2627222 128.682167,36.2627222 C122.717778,36.2627222 117.649,32.6231111 114.142778,28.126 C115.190833,41.0456667 127.195833,51.8501667 138.667278,56.2138889 C132.855333,56.595 127.843722,54.3655 122.717778,53.165 C107.282778,48.9346667 96.3258333,34.1666111 78.6613333,35.6148333 C66.2752222,35.2146667 55.3182778,42.7606667 49.2586111,53.0316111 C52.2884444,50.2495 55.8518333,48.5535556 59.682,47.7722778 C68.7905556,46.1716111 76.6795556,50.2495 82.6248889,56.4616111 C89.9993889,68.1807778 98.1742222,79.5378889 110.312611,87.7127222 C101.604222,87.7127222 93.9629444,84.4161111 86.3216667,81.7673889 C70.6198889,77.2893333 52.0216667,79.2711111 40.1691111,90.4757778 C34.1094444,100.384667 23.9528333,108.407056 12.7481667,110.769944 L12.7481667,111.170111 L16.0447778,112.618333 C28.9644444,118.1635 43.218,112.751722 54.0034444,106.025111 C61.5113333,103.643167 70.4865,104.958 75.7648889,110.922389 C79.4616667,117.229778 86.3216667,123.556222 92.3813333,128.186722 C90.7997222,128.834611 89.2181111,127.500722 87.3697222,127.500722 C76.9653889,122.355722 61.2636111,115.381389 50.7258889,125.004444 C40.8360556,132.531389 45.8476667,147.032667 35.2908889,154.159444 C42.6844444,154.807333 46.8957222,149.414611 51.1260556,144.136222 C61.6637778,136.3425 68.3903889,150.348333 76.832,153.625889 C85.7881111,157.989611 97.6597222,156.541389 104.119556,165.783333 C97.2595556,167.098167 90.2661667,168.298667 84.3398889,171.823944 C75.2313333,177.521556 61.9305556,178.436222 52.0407222,173.691389 C46.8957222,170.909278 43.3323333,167.098167 39.9213889,162.334278 C39.9213889,162.486722 39.9213889,162.734444 39.7689444,162.848778 C40.4358889,182.361667 47.677,203.627667 67.8568333,210.468611 C81.5768333,216.795056 96.3258333,206.505056 109.798111,213.117333 C102.671333,214.698944 96.0781111,218.510056 91.8668333,224.703111 C84.8734444,233.811667 85.0068333,246.331167 76.3175,254.105833 C74.7358889,255.554056 72.3539444,256.354389 70.7913889,257.535833 C72.4873333,258.317111 74.2213889,258.736333 76.1841111,258.984056 C85.8071667,260.565667 93.982,254.372611 99.3747222,247.112444 C107.168444,239.5855 118.982889,235.012167 128.396333,235.641 C147.394722,236.917722 161.572056,250.713944 186.649167,250.809222 C236.612833,251.018833 280.7455,203.399 290.101778,164.373222 L231.143889,164.373222 C231.143889,164.373222 220.415611,194.214222 194.442889,194.214222 C162.0675,194.214222 156.388944,163.954 156.388944,148.938222 C156.388944,113.666389 184.038556,63.2453889 223.1215,63.2453889 C241.662556,63.2453889 252.562333,82.1866111 246.540778,100.194111 L299.801056,100.194111 C309.576556,56.7665 277.506056,7.75561111 218.224222,7.48883333 L218.224222,7.48883333 Z" id="Shape"></path>
                </g>
                <path d="M64.9222778,178.455278 C68.6762222,183.219167 71.6679444,186.858778 77.6513889,188.097389 C88.1700556,191.070056 95.6398333,187.773444 103.662222,182.742778 C100.232222,181.065889 98.2504444,180.780056 94.9347778,179.122222 C83.3108889,175.463556 81.4243889,166.812333 75.3266111,168.698833 C71.4583333,171.137944 68.8858333,176.206722 64.4458889,177.654944 L64.9222778,178.455278 Z M88.9703889,180.303667 C92.7243333,182.075833 93.2388333,182.228278 96.1352778,182.780889 C89.0656667,186.287111 84.7972222,186.725389 77.9943889,184.743611 C71.8775556,182.971444 69.1145,178.588667 69.1145,178.588667 C72.4301667,177.654944 74.0498889,172.872 76.4508889,172.319389 C80.3001111,171.404722 78.7375556,175.196778 88.9703889,180.303667 L88.9703889,180.303667 Z" id="Shape" fill="#111111"></path>
                <path d="M69.1145,178.588667 C69.1145,178.588667 71.8966111,182.952389 77.9943889,184.743611 C84.7972222,186.725389 89.0656667,186.287111 96.1543333,182.780889 C93.6397808,182.37957 91.2148887,181.541176 88.9894444,180.303667 C78.7375556,175.196778 80.3001111,171.404722 76.4508889,172.319389 C74.0498889,172.872 72.4301667,177.654944 69.1145,178.588667 Z M77.0035,174.682278 C77.1485481,174.655927 77.2948234,174.636847 77.4417778,174.625111 C77.6323333,174.7585 78.0325,175.177722 78.3564444,175.558833 C79.7856111,177.083278 82.1675556,179.655778 87.9413889,182.514111 C88.3034444,182.685611 88.6464444,182.857111 88.9513333,182.971444 C85.6356667,183.809889 82.9107222,183.638389 78.6803889,182.399778 C76.5210928,181.778011 74.5329277,180.669853 72.8684444,179.160333 C73.7479671,178.372213 74.545967,177.497606 75.2503889,176.549722 C75.8220556,175.863722 76.6414444,174.834722 77.0035,174.682278 L77.0035,174.682278 Z" id="Shape" fill="#FFFFFF"></path>
            </g>
        </g>
    </g>
</svg>