<svg width="512" height="512" viewBox="0 0 512 512" xmlns="http://www.w3.org/2000/svg"><title>calgary-flames</title><g fill="none" fill-rule="evenodd"><g fill="#FFF"><path d="M231.766 377.485a8.051 8.051 0 1 0 0 16.102 8.051 8.051 0 0 0 0-16.102zm0 14.75a6.517 6.517 0 0 1-6.574-6.746 6.555 6.555 0 1 1 13.09 0 6.498 6.498 0 0 1-6.516 6.745z"/><path d="M235.463 383.526c0-1.848-1.086-2.649-3.278-2.649h-3.544v9.3h1.41v-4.04h1.62l2.439 4.04h1.581l-2.63-4.098c1.354-.152 2.402-.895 2.402-2.553zm-5.412 1.43v-2.878h1.925c.971 0 2.02.228 2.02 1.372 0 1.41-1.068 1.505-2.268 1.505h-1.677z"/></g><path d="M401.227 153.945c-17.722-23.362-45.848-36.187-79.195-36.187-25.801 0-46.762 10.424-63.626 18.789-10.271 5.107-19.132 9.509-25.592 9.509-4.059 0-10.423-7.775-13.644-13.282l-1.238-2.134-2.097 1.22a21.742 21.742 0 0 0-11.147 18.102c-9.49-3.868-21.285-4.002-22.848-4.002-14.444.096-27.04 9.09-27.592 9.49a37.673 37.673 0 0 0-11.395 13.32c-9.318 3.125-18.675 11.89-19.132 12.31-2.23 2.248-3.163 3.03-3.163 3.03-5.431 4.096-12.863 4.44-12.92 4.44l-2.61.076.266 2.591c.705 6.956 4.383 13.758 4.669 14.197 4.097 6.193 10.195 9.337 14.387 10.842a37.087 37.087 0 0 1-11.09 5.564c-6.937 2.135-16.827 3.716-16.922 3.735l-2.325.343.286 2.344c.343 2.782 1.525 4.878 1.677 5.164 9.795 16.007 30.756 16.826 34.872 16.826h.59c1.792.19 4.345.096 6.498-.114a111.037 111.037 0 0 0-4.23 12.443c-1.181 4.917-3.487 6.841-3.64 6.956-2.953 2.4-11.204 7.317-11.28 7.374l-2.344 1.391 1.658 2.172c3.2 4.174 9.718 6.498 12.957 7.451.324 4.917 1.41 10.48 2.21 14.044a37.597 37.597 0 0 0-5.392-.381c-8.08 0-12.424 2.61-12.615 2.725l-2.84 1.734 2.497 2.172c3.487 3.05 6.174 7.222 6.193 7.28l.172.228c4.001 4.86 4.935 14.864 4.935 14.94 1.124 15.32 6.288 24.62 8.442 27.916 3.334 5.05 9.718 9.795 9.852 9.89 4.687 3.964 12.92 5.87 13.148 5.926a21.45 21.45 0 0 0 1.982.439 91.81 91.81 0 0 1-4.84 2.02l-2.42.933 1.086 2.363c2.934 6.384 10.766 10.042 11.928 10.557 6.994 3.906 18.16 4.42 18.637 4.44h.114c13.072-.115 23.534-10.233 23.896-10.595 10.861-9.87 16.73-12.31 26.296-11.567 5.793.438 11.034 2.687 17.074 5.26 9.414 4.02 21.095 9.032 39.731 9.032 60.654 0 111.627-58.291 119.497-110.599l.439-2.782h-85.636l-.514 1.791c-.077.267-8.213 27.86-26.793 27.86-14.691 0-23.82-11.89-23.82-31.06 0-25.288 21.743-72.012 52.728-72.012 3.62 0 6.212 1.182 7.946 3.583 3.697 5.164 3.277 16.406-1.105 29.345l-1.106 3.24 81.92-.038.477-1.792c8.155-29.002 3.03-58.462-13.95-80.852zM162.994 288.744c-6.116-1.773-8.88-6.155-8.88-6.155 3.316-.934 4.936-5.717 7.337-6.27 3.85-.914 2.306 2.878 12.538 7.985 3.754 1.772 4.269 1.924 7.165 2.477-7.088 3.506-11.357 3.944-18.16 1.963z" fill="#FFF"/><path d="M412.889 234.13c16.045-57.51-21.704-113.933-90.876-113.933-41.694 0-71.458 28.317-89.218 28.317-7.298 0-15.76-14.54-15.76-14.54-12.309 7.108-9.66 20.028-9.66 20.028-9.661-5.698-25.516-5.603-25.516-5.603-13.834.115-26.163 9.014-26.163 9.014a34.11 34.11 0 0 0-11.09 13.358c-9.204 2.687-19.17 12.062-19.17 12.062-2.44 2.477-3.411 3.22-3.411 3.22-6.155 4.65-14.31 4.917-14.31 4.917.666 6.555 4.268 13.09 4.268 13.09 6.155 9.3 17.455 11.091 17.455 11.091s-5.755 6.06-15.454 9.032c-7.184 2.192-17.284 3.773-17.284 3.773.286 2.382 1.334 4.174 1.334 4.174 10.157 16.597 33.48 15.644 33.48 15.644 3.983.477 10.71-.648 10.71-.648-2.84 3.983-6.155 16.026-6.155 16.026-1.43 5.964-4.46 8.232-4.46 8.232a140.554 140.554 0 0 1-11.566 7.603c3.697 4.84 13.377 7.032 13.377 7.032.19 7.87 3.087 18.96 3.087 18.96-13.13-2.763-19.97 1.41-19.97 1.41 3.792 3.335 6.65 7.775 6.65 7.775 4.555 5.488 5.507 16.292 5.507 16.292.953 12.9 4.936 21.99 8.042 26.735 3.144 4.745 9.413 9.395 9.413 9.395 4.25 3.601 12.215 5.392 12.215 5.392 5.507 1.525 10.747.4 10.747.4-3.544 2.935-13.415 6.727-13.415 6.727 2.763 5.983 10.824 9.394 10.824 9.394 6.536 3.697 17.626 4.174 17.626 4.174 12.234-.077 22.295-9.947 22.295-9.947 10.766-9.776 17.455-13.015 28.126-12.196 15.645 1.2 26.602 14.292 56.614 14.292 60.616 0 109.512-58.005 117.116-108.503H327.33s-8.442 29.67-29.136 29.67c-15.778 0-26.278-12.786-26.278-33.519 0-27.116 22.619-74.45 55.185-74.45 15.244 0 15.149 18.465 9.166 36.148l76.622-.038zm-249.895 54.614c-6.116-1.773-8.88-6.155-8.88-6.155 3.316-.934 4.936-5.717 7.337-6.27 3.85-.914 2.306 2.878 12.538 7.985 3.754 1.772 4.269 1.924 7.165 2.477-7.088 3.506-11.357 3.944-18.16 1.963z" fill="#111"/><path d="M410.24 230.777c14.025-60.254-27.287-107.474-88.075-107.474-38.778 0-69.857 27.86-88.608 28.679-7.85.362-17.264-12.882-17.264-12.882-10.614 7.966-2.859 22.581-2.859 22.581-15.72-11.567-33.385-9.775-33.385-9.775-26.354 2.572-32.775 21.551-32.775 21.551-15.378 5.66-20.695 13.816-20.695 13.816-9.47 6.84-14.977 6.174-14.977 6.174 3.601 19.818 24.276 18.865 24.276 18.865-8.155 15.74-34.7 18.217-34.7 18.217 9.47 15.187 32.033 13.834 32.033 13.834 7.736.82 18.217-3.354 23.4-5.697-3.45 1.829-5.069 3.258-5.069 3.258-9.966 6.993-9.756 19.78-14.882 28.888-1.982 4.078-7.699 6.04-10.881 8.537 3.43 1.734 7.336 3.163 11.052 3.811-.095 6.346 2.973 21.743 5.03 27.879-7.393-5.507-18.864-3.03-18.864-3.03 12.71 15.816 6.726 25.61 13.11 40.302 2.153 7.299 8.785 13.549 15.473 17.989 17.303 7.793 29.27-2.458 29.27-2.458-1.982 9.584-20.009 16.787-20.009 16.787 4.23 4.612 14.578 8.118 20.77 8.5 24.449 1.6 25.726-25.002 52.823-22.239 15.72 1.62 30.126 14.826 56.366 14.826 65.627 0 108.293-66.428 113.438-102.176h-74.393s-9.128 29.822-31.251 29.822c-22.886 0-30.127-19.647-30.127-37.33 0-26.926 22.333-77.785 58.805-77.785 17.188 0 19.837 18.865 13.758 36.51h69.21v.02zm-247.246 57.967c-6.116-1.773-8.88-6.155-8.88-6.155 3.316-.934 4.936-5.717 7.337-6.27 3.85-.914 2.306 2.878 12.538 7.985 3.754 1.772 4.269 1.924 7.165 2.477-7.088 3.506-11.357 3.944-18.16 1.963z" fill="#F3BC52"/><g fill="#CE1126"><path d="M150.17 202.593c8.156-1.562 13.568-9.89 22.01-11.07 4.744-1.201 9.489.78 13.586 1.447-.134-.419-.667-.533-.667-.933-8.709-10.157-22.543-16.217-36.13-11.205-11.338 2.096-17.397 15.168-29.002 16.483-.114.4.534.667.534 1.067 7.107 8.175 20.541 7.641 29.669 4.211zm48.897 136.457v-.514c-14.235-5.26-24.64 10.27-38.607 2.23-12.386-4.079-12.52-21.095-25.058-25.173 1.067 3.163 2.515 6.06 3.049 9.356.667 13.72 4.364 28.622 16.75 35.33 5.145 2.781 12.52 2.781 17.798.266 10.118-5.278 15.015-17.398 26.068-21.495z"/><path d="M322.28 130.544c-36.187-.171-65.99 28.774-89.542 28.774-5.965 0-11.033-3.64-14.54-8.136 1.048 12.92 13.053 23.724 24.525 28.087-5.812.382-10.824-1.848-15.95-3.048-15.435-4.23-26.392-18.999-44.056-17.55-12.386-.4-23.343 7.145-29.403 17.416 3.03-2.782 6.593-4.478 10.424-5.26 9.108-1.6 16.997 2.478 22.942 8.69 7.375 11.72 15.55 23.076 27.688 31.251-8.708 0-16.35-3.296-23.99-5.945-15.703-4.478-34.3-2.496-46.153 8.708-6.06 9.91-16.217 17.932-27.421 20.294v.4l3.296 1.449c12.92 5.545 27.174.133 37.959-6.593 7.508-2.382 16.483-1.067 21.761 4.897 3.697 6.307 10.557 12.634 16.617 17.264-1.582.648-3.163-.686-5.012-.686-10.404-5.145-26.106-12.12-36.644-2.496-9.89 7.527-4.878 22.028-15.435 29.155 7.394.648 11.605-4.745 15.836-10.023 10.537-7.794 17.264 6.212 25.706 9.49 8.956 4.363 20.827 2.915 27.287 12.157-6.86 1.315-13.853 2.515-19.78 6.04-9.108 5.698-22.409 6.613-32.299 1.868-5.145-2.782-8.708-6.593-12.12-11.357 0 .152 0 .4-.151.514.666 19.513 7.908 40.78 28.087 47.62 13.72 6.327 28.47-3.963 41.942 2.649-7.127 1.581-13.72 5.393-17.932 11.586-6.993 9.108-6.86 21.628-15.549 29.402-1.582 1.449-3.963 2.249-5.526 3.43 1.696.782 3.43 1.2 5.393 1.449 9.623 1.581 17.798-4.612 23.19-11.872 7.794-7.527 19.608-12.1 29.022-11.471 18.998 1.276 33.176 15.072 58.253 15.168 49.963.21 94.096-47.41 103.452-86.436H335.2s-10.728 29.84-36.7 29.84c-32.376 0-38.054-30.26-38.054-45.275 0-35.272 27.65-85.693 66.732-85.693 18.541 0 29.44 18.941 23.42 36.949h53.26c9.775-43.428-22.295-92.439-81.577-92.706z"/></g><path d="M149.922 282.455c3.754 4.764 6.746 8.404 12.73 9.642 10.518 2.973 17.988-.324 26.01-5.354-3.43-1.677-5.412-1.963-8.727-3.62-11.624-3.66-13.51-12.31-19.608-10.424-3.869 2.439-6.441 7.508-10.881 8.956l.476.8zm24.048 1.849c3.754 1.772 4.269 1.924 7.165 2.477-7.07 3.506-11.338 3.944-18.14 1.963-6.117-1.773-8.88-6.155-8.88-6.155 3.315-.934 4.935-5.717 7.336-6.27 3.85-.914 2.287 2.878 12.52 7.985z" fill="#111"/><path d="M154.115 282.589s2.782 4.363 8.88 6.155c6.802 1.981 11.07 1.543 18.16-1.963a21.819 21.819 0 0 1-7.166-2.477c-10.251-5.107-8.689-8.9-12.538-7.985-2.401.553-4.02 5.336-7.336 6.27zm7.889-3.907a4.42 4.42 0 0 1 .438-.057c.19.133.59.553.914.934 1.43 1.524 3.812 4.097 9.585 6.955.362.172.705.343 1.01.457-3.315.839-6.04.667-10.27-.571a14.71 14.71 0 0 1-5.813-3.24 17.607 17.607 0 0 0 2.382-2.61c.572-.686 1.391-1.715 1.754-1.868z" fill="#FFF"/></g></svg>