<svg xmlns="http://www.w3.org/2000/svg" viewBox="0 0 24 16"><g fill="#FFF"><path d="M10.702 14.352a.422.422 0 1 0 0 .845.422.422 0 1 0 0-.845zm0 .774a.342.342 0 0 1-.345-.354.344.344 0 1 1 .687 0 .341.341 0 0 1-.342.354z"/><path d="M10.896 14.669c0-.097-.057-.139-.172-.139h-.186v.488h.074v-.212h.085l.128.212h.083l-.138-.215c.071-.008.126-.047.126-.134zm-.284.075v-.151h.101c.051 0 .106.012.106.072 0 .074-.056.079-.119.079h-.088z"/></g><path fill="#FFF" d="M19.595 2.621c-.93-1.226-2.406-1.899-4.156-1.899-1.354 0-2.454.547-3.339.986-.539.268-1.004.499-1.343.499-.213 0-.547-.408-.716-.697l-.065-.112-.11.064a1.141 1.141 0 0 0-.585.95c-.498-.203-1.117-.21-1.199-.21-.758.005-1.419.477-1.448.498a1.977 1.977 0 0 0-.598.699c-.489.164-.98.624-1.004.646-.117.118-.166.159-.166.159-.285.215-.675.233-.678.233l-.137.004.014.136c.037.365.23.722.245.745.215.325.535.49.755.569-.13.096-.329.215-.582.292-.364.112-.883.195-.888.196l-.122.018.015.123c.018.146.08.256.088.271.514.84 1.614.883 1.83.883h.031c.094.01.228.005.341-.006a5.827 5.827 0 0 0-.222.653c-.062.258-.183.359-.191.365-.155.126-.588.384-.592.387l-.123.073.087.114c.168.219.51.341.68.391.017.258.074.55.116.737a1.973 1.973 0 0 0-.283-.02c-.424 0-.652.137-.662.143l-.149.091.131.114c.183.16.324.379.325.382l.009.012c.21.255.259.78.259.784.059.804.33 1.292.443 1.465.175.265.51.514.517.519.246.208.678.308.69.311.034.009.068.017.104.023a4.818 4.818 0 0 1-.254.106l-.127.049.057.124c.154.335.565.527.626.554.367.205.953.232.978.233h.006c.686-.006 1.235-.537 1.254-.556.57-.518.878-.646 1.38-.607.304.023.579.141.896.276.494.211 1.107.474 2.085.474 3.183 0 5.858-3.059 6.271-5.804l.023-.146h-4.494l-.027.094c-.004.014-.431 1.462-1.406 1.462-.771 0-1.25-.624-1.25-1.63 0-1.327 1.141-3.779 2.767-3.779.19 0 .326.062.417.188.194.271.172.861-.058 1.54l-.058.17 4.299-.002.025-.094c.428-1.522.159-3.068-.732-4.243zM7.093 9.695c-.321-.093-.466-.323-.466-.323.174-.049.259-.3.385-.329.202-.048.121.151.658.419.197.093.224.101.376.13-.372.184-.596.207-.953.103z"/><path fill="#111" d="M20.207 6.829C21.049 3.811 19.068.85 15.438.85c-2.188 0-3.75 1.486-4.682 1.486-.383 0-.827-.763-.827-.763-.646.373-.507 1.051-.507 1.051-.507-.299-1.339-.294-1.339-.294-.726.006-1.373.473-1.373.473a1.79 1.79 0 0 0-.582.701c-.483.141-1.006.633-1.006.633-.128.13-.179.169-.179.169-.323.244-.751.258-.751.258.035.344.224.687.224.687.323.488.916.582.916.582s-.302.318-.811.474c-.377.115-.907.198-.907.198.015.125.07.219.07.219.533.871 1.757.821 1.757.821.209.025.562-.034.562-.034-.149.209-.323.841-.323.841-.075.313-.234.432-.234.432a7.376 7.376 0 0 1-.607.399c.194.254.702.369.702.369.01.413.162.995.162.995-.689-.145-1.048.074-1.048.074.199.175.349.408.349.408.239.288.289.855.289.855.05.677.259 1.154.422 1.403.165.249.494.493.494.493.223.189.641.283.641.283.289.08.564.021.564.021-.186.154-.704.353-.704.353.145.314.568.493.568.493.343.194.925.219.925.219.642-.004 1.17-.522 1.17-.522.565-.513.916-.683 1.476-.64.821.063 1.396.75 2.971.75 3.181 0 5.747-3.044 6.146-5.694h-4.249s-.443 1.557-1.529 1.557c-.828 0-1.379-.671-1.379-1.759 0-1.423 1.187-3.907 2.896-3.907.8 0 .795.969.481 1.897l4.021-.002zM7.093 9.695c-.321-.093-.466-.323-.466-.323.174-.049.259-.3.385-.329.202-.048.121.151.658.419.197.093.224.101.376.13-.372.184-.596.207-.953.103z"/><path fill="#f3bc52" d="M20.068 6.653c.736-3.162-1.432-5.64-4.622-5.64-2.035 0-3.666 1.462-4.65 1.505-.412.019-.906-.676-.906-.676-.557.418-.15 1.185-.15 1.185-.825-.607-1.752-.513-1.752-.513-1.383.135-1.72 1.131-1.72 1.131-.807.297-1.086.725-1.086.725-.497.359-.786.324-.786.324.189 1.04 1.274.99 1.274.99-.428.826-1.821.956-1.821.956.497.797 1.681.726 1.681.726.406.043.956-.176 1.228-.299-.181.096-.266.171-.266.171-.523.367-.512 1.038-.781 1.516-.104.214-.404.317-.571.448.18.091.385.166.58.2-.005.333.156 1.141.264 1.463-.388-.289-.99-.159-.99-.159.667.83.353 1.344.688 2.115.113.383.461.711.812.944.908.409 1.536-.129 1.536-.129-.104.503-1.05.881-1.05.881.222.242.765.426 1.09.446 1.283.084 1.35-1.312 2.772-1.167.825.085 1.581.778 2.958.778 3.444 0 5.683-3.486 5.953-5.362h-3.904s-.479 1.565-1.64 1.565c-1.201 0-1.581-1.031-1.581-1.959 0-1.413 1.172-4.082 3.086-4.082.902 0 1.041.99.722 1.916h3.632zM7.093 9.695c-.321-.093-.466-.323-.466-.323.174-.049.259-.3.385-.329.202-.048.121.151.658.419.197.093.224.101.376.13-.372.184-.596.207-.953.103z"/><g fill="#ce1126"><path d="M6.42 5.174c.428-.082.712-.519 1.155-.581.249-.063.498.041.713.076-.007-.022-.035-.028-.035-.049-.457-.533-1.183-.851-1.896-.588-.595.11-.913.796-1.522.865-.006.021.028.035.028.056.373.429 1.078.401 1.557.221zm2.566 7.161v-.027c-.747-.276-1.293.539-2.026.117-.65-.214-.657-1.107-1.315-1.321.056.166.132.318.16.491.035.72.229 1.502.879 1.854.27.146.657.146.934.014.531-.277.788-.913 1.368-1.128z"/><path d="M15.452 1.393c-1.899-.009-3.463 1.51-4.699 1.51-.313 0-.579-.191-.763-.427.055.678.685 1.245 1.287 1.474-.305.02-.568-.097-.837-.16-.81-.222-1.385-.997-2.312-.921-.65-.021-1.225.375-1.543.914.159-.146.346-.235.547-.276.478-.084.892.13 1.204.456.387.615.816 1.211 1.453 1.64-.457 0-.858-.173-1.259-.312-.824-.235-1.8-.131-2.422.457-.318.52-.851.941-1.439 1.065v.021l.173.076c.678.291 1.426.007 1.992-.346.394-.125.865-.056 1.142.257.194.331.554.663.872.906-.083.034-.166-.036-.263-.036-.546-.27-1.37-.636-1.923-.131-.519.395-.256 1.156-.81 1.53.388.034.609-.249.831-.526.553-.409.906.326 1.349.498.47.229 1.093.153 1.432.638-.36.069-.727.132-1.038.317-.478.299-1.176.347-1.695.098-.27-.146-.457-.346-.636-.596 0 .008 0 .021-.008.027.035 1.024.415 2.14 1.474 2.499.72.332 1.494-.208 2.201.139-.374.083-.72.283-.941.608-.367.478-.36 1.135-.816 1.543-.083.076-.208.118-.29.18.089.041.18.063.283.076.505.083.934-.242 1.217-.623.409-.395 1.029-.635 1.523-.602.997.067 1.741.791 3.057.796 2.622.011 4.938-2.488 5.429-4.536H16.13s-.563 1.566-1.926 1.566c-1.699 0-1.997-1.588-1.997-2.376 0-1.851 1.451-4.497 3.502-4.497.973 0 1.545.994 1.229 1.939h2.795c.513-2.279-1.17-4.851-4.281-4.865z"/></g><path fill="#111" d="M6.407 9.365c.197.25.354.441.668.506.552.156.944-.017 1.365-.281-.18-.088-.284-.103-.458-.19-.61-.192-.709-.646-1.029-.547-.203.128-.338.394-.571.47l.025.042zm1.262.097c.197.093.224.101.376.13-.371.184-.595.207-.952.103-.321-.093-.466-.323-.466-.323.174-.049.259-.3.385-.329.202-.048.12.151.657.419z"/><path fill="#FFF" d="M6.627 9.372s.146.229.466.323c.357.104.581.081.953-.103a1.145 1.145 0 0 1-.376-.13c-.538-.268-.456-.467-.658-.419-.126.029-.211.28-.385.329zm.414-.205a.232.232 0 0 1 .023-.003c.01.007.031.029.048.049.075.08.2.215.503.365.019.009.037.018.053.024-.174.044-.317.035-.539-.03a.772.772 0 0 1-.305-.17.924.924 0 0 0 .125-.137c.03-.036.073-.09.092-.098z"/></svg>