<svg xmlns="http://www.w3.org/2000/svg" viewBox="0 0 24 16"><g fill="#FFF"><path d="M10.702,14.352c-0.232,0-0.429,0.179-0.429,0.421c0,0.246,0.197,0.424,0.429,0.424 c0.23,0,0.427-0.178,0.427-0.424C11.129,14.53,10.932,14.352,10.702,14.352z M10.702,15.126c-0.193,0-0.345-0.149-0.345-0.354 c0-0.2,0.152-0.352,0.345-0.352c0.191,0,0.342,0.151,0.342,0.352C11.044,14.977,10.893,15.126,10.702,15.126z"/><path d="M10.896,14.669c0-0.097-0.057-0.139-0.172-0.139h-0.186v0.488h0.074v-0.212h0.085l0.128,0.212h0.083 l-0.138-0.215C10.841,14.795,10.896,14.756,10.896,14.669z M10.612,14.744v-0.151h0.101c0.051,0,0.106,0.012,0.106,0.072 c0,0.074-0.056,0.079-0.119,0.079H10.612z"/></g><path fill="#FFF" d="M19.595,2.621c-0.93-1.226-2.406-1.899-4.156-1.899c-1.354,0-2.454,0.547-3.339,0.986 c-0.539,0.268-1.004,0.499-1.343,0.499c-0.213,0-0.547-0.408-0.716-0.697L9.976,1.398l-0.11,0.064 C9.428,1.716,9.295,2.117,9.281,2.412c-0.498-0.203-1.117-0.21-1.199-0.21C7.324,2.207,6.663,2.679,6.634,2.7 C6.277,2.962,6.098,3.272,6.036,3.399c-0.489,0.164-0.98,0.624-1.004,0.646C4.915,4.163,4.866,4.204,4.866,4.204 C4.581,4.419,4.191,4.437,4.188,4.437L4.051,4.441l0.014,0.136c0.037,0.365,0.23,0.722,0.245,0.745 c0.215,0.325,0.535,0.49,0.755,0.569c-0.13,0.096-0.329,0.215-0.582,0.292C4.119,6.295,3.6,6.378,3.595,6.379L3.473,6.397 l0.015,0.123c0.018,0.146,0.08,0.256,0.088,0.271c0.514,0.84,1.614,0.883,1.83,0.883c0.014,0,0.024,0,0.031,0 c0.094,0.01,0.228,0.005,0.341-0.006C5.665,7.931,5.57,8.27,5.556,8.321C5.494,8.579,5.373,8.68,5.365,8.686 C5.21,8.812,4.777,9.07,4.773,9.073L4.65,9.146l0.087,0.114c0.168,0.219,0.51,0.341,0.68,0.391 c0.017,0.258,0.074,0.55,0.116,0.737c-0.097-0.014-0.191-0.02-0.283-0.02c-0.424,0-0.652,0.137-0.662,0.143l-0.149,0.091 l0.131,0.114c0.183,0.16,0.324,0.379,0.325,0.382l0.009,0.012c0.21,0.255,0.259,0.78,0.259,0.784 c0.059,0.804,0.33,1.292,0.443,1.465c0.175,0.265,0.51,0.514,0.517,0.519c0.246,0.208,0.678,0.308,0.69,0.311 c0.034,0.009,0.068,0.017,0.104,0.023c-0.104,0.047-0.199,0.085-0.254,0.106l-0.127,0.049l0.057,0.124 c0.154,0.335,0.565,0.527,0.626,0.554c0.367,0.205,0.953,0.232,0.978,0.233h0.003h0.003c0.686-0.006,1.235-0.537,1.254-0.556 c0.57-0.518,0.878-0.646,1.38-0.607c0.304,0.023,0.579,0.141,0.896,0.276c0.494,0.211,1.107,0.474,2.085,0.474 c3.183,0,5.858-3.059,6.271-5.804l0.023-0.146h-4.494l-0.027,0.094c-0.004,0.014-0.431,1.462-1.406,1.462 c-0.771,0-1.25-0.624-1.25-1.63c0-1.327,1.141-3.779,2.767-3.779c0.19,0,0.326,0.062,0.417,0.188 c0.194,0.271,0.172,0.861-0.058,1.54l-0.058,0.17l4.299-0.002l0.025-0.094C20.755,5.342,20.486,3.796,19.595,2.621z M7.093,9.695 C6.772,9.602,6.627,9.372,6.627,9.372c0.174-0.049,0.259-0.3,0.385-0.329c0.202-0.048,0.121,0.151,0.658,0.419 c0.197,0.093,0.224,0.101,0.376,0.13C7.674,9.776,7.45,9.799,7.093,9.695z"/><path fill="#111" d="M20.207,6.829c0.842-3.018-1.139-5.979-4.769-5.979c-2.188,0-3.75,1.486-4.682,1.486c-0.383,0-0.827-0.763-0.827-0.763 C9.283,1.946,9.422,2.624,9.422,2.624C8.915,2.325,8.083,2.33,8.083,2.33C7.357,2.336,6.71,2.803,6.71,2.803 C6.282,3.116,6.128,3.504,6.128,3.504C5.645,3.645,5.122,4.137,5.122,4.137c-0.128,0.13-0.179,0.169-0.179,0.169 C4.62,4.55,4.192,4.564,4.192,4.564c0.035,0.344,0.224,0.687,0.224,0.687c0.323,0.488,0.916,0.582,0.916,0.582 S5.03,6.151,4.521,6.307C4.144,6.422,3.614,6.505,3.614,6.505c0.015,0.125,0.07,0.219,0.07,0.219 c0.533,0.871,1.757,0.821,1.757,0.821C5.65,7.57,6.003,7.511,6.003,7.511C5.854,7.72,5.68,8.352,5.68,8.352 C5.605,8.665,5.446,8.784,5.446,8.784C5.282,8.919,4.839,9.183,4.839,9.183c0.194,0.254,0.702,0.369,0.702,0.369 c0.01,0.413,0.162,0.995,0.162,0.995c-0.689-0.145-1.048,0.074-1.048,0.074c0.199,0.175,0.349,0.408,0.349,0.408 c0.239,0.288,0.289,0.855,0.289,0.855c0.05,0.677,0.259,1.154,0.422,1.403c0.165,0.249,0.494,0.493,0.494,0.493 c0.223,0.189,0.641,0.283,0.641,0.283c0.289,0.08,0.564,0.021,0.564,0.021c-0.186,0.154-0.704,0.353-0.704,0.353 c0.145,0.314,0.568,0.493,0.568,0.493c0.343,0.194,0.925,0.219,0.925,0.219c0.642-0.004,1.17-0.522,1.17-0.522 c0.565-0.513,0.916-0.683,1.476-0.64c0.821,0.063,1.396,0.75,2.971,0.75c3.181,0,5.747-3.044,6.146-5.694h-4.249 c0,0-0.443,1.557-1.529,1.557c-0.828,0-1.379-0.671-1.379-1.759c0-1.423,1.187-3.907,2.896-3.907c0.8,0,0.795,0.969,0.481,1.897 L20.207,6.829z M7.093,9.695C6.772,9.602,6.627,9.372,6.627,9.372c0.174-0.049,0.259-0.3,0.385-0.329 c0.202-0.048,0.121,0.151,0.658,0.419c0.197,0.093,0.224,0.101,0.376,0.13C7.674,9.776,7.45,9.799,7.093,9.695z"/><path fill="#f3bc52" d="M20.068,6.653c0.736-3.162-1.432-5.64-4.622-5.64c-2.035,0-3.666,1.462-4.65,1.505 C10.384,2.537,9.89,1.842,9.89,1.842C9.333,2.26,9.74,3.027,9.74,3.027C8.915,2.42,7.988,2.514,7.988,2.514 c-1.383,0.135-1.72,1.131-1.72,1.131C5.461,3.942,5.182,4.37,5.182,4.37C4.685,4.729,4.396,4.694,4.396,4.694 C4.585,5.734,5.67,5.684,5.67,5.684C5.242,6.51,3.849,6.64,3.849,6.64C4.346,7.437,5.53,7.366,5.53,7.366 C5.936,7.409,6.486,7.19,6.758,7.067C6.577,7.163,6.492,7.238,6.492,7.238C5.969,7.605,5.98,8.276,5.711,8.754 C5.607,8.968,5.307,9.071,5.14,9.202c0.18,0.091,0.385,0.166,0.58,0.2c-0.005,0.333,0.156,1.141,0.264,1.463 c-0.388-0.289-0.99-0.159-0.99-0.159c0.667,0.83,0.353,1.344,0.688,2.115c0.113,0.383,0.461,0.711,0.812,0.944 c0.908,0.409,1.536-0.129,1.536-0.129c-0.104,0.503-1.05,0.881-1.05,0.881c0.222,0.242,0.765,0.426,1.09,0.446 c1.283,0.084,1.35-1.312,2.772-1.167c0.825,0.085,1.581,0.778,2.958,0.778c3.444,0,5.683-3.486,5.953-5.362h-3.904 c0,0-0.479,1.565-1.64,1.565c-1.201,0-1.581-1.031-1.581-1.959c0-1.413,1.172-4.082,3.086-4.082c0.902,0,1.041,0.99,0.722,1.916 H20.068z M7.093,9.695C6.772,9.602,6.627,9.372,6.627,9.372c0.174-0.049,0.259-0.3,0.385-0.329 c0.202-0.048,0.121,0.151,0.658,0.419c0.197,0.093,0.224,0.101,0.376,0.13C7.674,9.776,7.45,9.799,7.093,9.695z"/><g fill="#ce1126"><path d="M6.42 5.174c.428-.082.712-.519 1.155-.581C7.824 4.53 8.073 4.634 8.288 4.669 8.281 4.647 8.253 4.641 8.253 4.62 7.796 4.087 7.07 3.769 6.357 4.032c-.595.11-.913.796-1.522.865C4.829 4.918 4.863 4.932 4.863 4.953 5.236 5.382 5.941 5.354 6.42 5.174zM8.986 12.335v-.027c-.747-.276-1.293.539-2.026.117-.65-.214-.657-1.107-1.315-1.321.056.166.132.318.16.491.035.72.229 1.502.879 1.854.27.146.657.146.934.014C8.149 13.186 8.406 12.55 8.986 12.335z"/><path d="M15.452,1.393c-1.899-0.009-3.463,1.51-4.699,1.51c-0.313,0-0.579-0.191-0.763-0.427 c0.055,0.678,0.685,1.245,1.287,1.474C10.972,3.97,10.709,3.853,10.44,3.79C9.63,3.568,9.055,2.793,8.128,2.869 c-0.65-0.021-1.225,0.375-1.543,0.914c0.159-0.146,0.346-0.235,0.547-0.276c0.478-0.084,0.892,0.13,1.204,0.456 c0.387,0.615,0.816,1.211,1.453,1.64c-0.457,0-0.858-0.173-1.259-0.312C7.706,5.056,6.73,5.16,6.108,5.748 C5.79,6.268,5.257,6.689,4.669,6.813v0.021L4.842,6.91C5.52,7.201,6.268,6.917,6.834,6.564c0.394-0.125,0.865-0.056,1.142,0.257 C8.17,7.152,8.53,7.484,8.848,7.727C8.765,7.761,8.682,7.691,8.585,7.691c-0.546-0.27-1.37-0.636-1.923-0.131 C6.143,7.955,6.406,8.716,5.852,9.09C6.24,9.124,6.461,8.841,6.683,8.564C7.236,8.155,7.589,8.89,8.032,9.062 c0.47,0.229,1.093,0.153,1.432,0.638c-0.36,0.069-0.727,0.132-1.038,0.317c-0.478,0.299-1.176,0.347-1.695,0.098 c-0.27-0.146-0.457-0.346-0.636-0.596c0,0.008,0,0.021-0.008,0.027c0.035,1.024,0.415,2.14,1.474,2.499 c0.72,0.332,1.494-0.208,2.201,0.139c-0.374,0.083-0.72,0.283-0.941,0.608c-0.367,0.478-0.36,1.135-0.816,1.543 c-0.083,0.076-0.208,0.118-0.29,0.18c0.089,0.041,0.18,0.063,0.283,0.076c0.505,0.083,0.934-0.242,1.217-0.623 c0.409-0.395,1.029-0.635,1.523-0.602c0.997,0.067,1.741,0.791,3.057,0.796c2.622,0.011,4.938-2.488,5.429-4.536H16.13 c0,0-0.563,1.566-1.926,1.566c-1.699,0-1.997-1.588-1.997-2.376c0-1.851,1.451-4.497,3.502-4.497c0.973,0,1.545,0.994,1.229,1.939 h2.795C20.246,3.979,18.563,1.407,15.452,1.393z"/></g><path fill="#111" d="M6.407,9.365c0.197,0.25,0.354,0.441,0.668,0.506C7.627,10.027,8.019,9.854,8.44,9.59C8.26,9.502,8.156,9.487,7.982,9.4 c-0.61-0.192-0.709-0.646-1.029-0.547C6.75,8.981,6.615,9.247,6.382,9.323L6.407,9.365z M7.669,9.462 c0.197,0.093,0.224,0.101,0.376,0.13C7.674,9.776,7.45,9.799,7.093,9.695C6.772,9.602,6.627,9.372,6.627,9.372 c0.174-0.049,0.259-0.3,0.385-0.329C7.214,8.995,7.132,9.194,7.669,9.462z"/><path fill="#FFF" d="M6.627,9.372c0,0,0.146,0.229,0.466,0.323C7.45,9.799,7.674,9.776,8.046,9.592 c-0.152-0.029-0.179-0.037-0.376-0.13C7.132,9.194,7.214,8.995,7.012,9.043C6.886,9.072,6.801,9.323,6.627,9.372z M7.041,9.167 c0.013-0.002,0.02-0.003,0.023-0.003c0.01,0.007,0.031,0.029,0.048,0.049c0.075,0.08,0.2,0.215,0.503,0.365 c0.019,0.009,0.037,0.018,0.053,0.024c-0.174,0.044-0.317,0.035-0.539-0.03c-0.139-0.04-0.24-0.111-0.305-0.17 C6.874,9.359,6.914,9.31,6.949,9.265C6.979,9.229,7.022,9.175,7.041,9.167z"/></svg>