<svg xmlns="http://www.w3.org/2000/svg" viewBox="0 0 24 16"><path d="M18.674,10.715c-0.184,0-0.332,0.15-0.332,0.334c0,0.186,0.148,0.332,0.332,0.332s0.334-0.146,0.334-0.332 C19.008,10.865,18.857,10.715,18.674,10.715z M18.674,11.312c-0.145,0-0.262-0.117-0.262-0.264c0-0.145,0.117-0.262,0.262-0.262 s0.262,0.117,0.262,0.262C18.936,11.195,18.818,11.312,18.674,11.312z"/><path d="M18.811,10.973c0-0.062-0.051-0.111-0.111-0.111h-0.16v0.381h0.07v-0.156h0.051l0.072,0.156h0.078 l-0.076-0.162C18.777,11.064,18.811,11.023,18.811,10.973z M18.699,11.016h-0.092v-0.084h0.092c0.02,0,0.039,0.02,0.039,0.041 C18.738,10.996,18.721,11.016,18.699,11.016z"/><path d="M20.539,10.295c0-0.629,0.617-2.965-3.869-6.498l0.754-0.168l-0.389-1.28l-0.748,0.499V2.073h-1.469 C13.859,1.382,13.398,0.5,11.89,0.5c-0.63,0-1.292,0.125-1.436,0.125c-0.111,0-0.447-0.071-1.018-0.071 c-1.649,0-1.801,1.23-1.595,1.662C5.672,3.702,4.598,4.772,4.598,5.16c0,0.149,0.088,0.343,0.088,0.623 c0,0.61-1.318,1.954-1.318,2.666c0,0.663,0.846,0.709,0.846,0.709c0.048,0.195-0.28,0.846,0.014,1.178 C3.82,10.779,4.296,11,4.296,11.352c0,0.238-0.166,0.312-0.166,0.752c0,0.502,0.235,1.105,1.473,1.105 c0.489,0,0.922-0.076,1.266-0.076c0.097,1.039,0.54,1.447,0.613,1.707c0.06,0.209,0.196,0.66,0.471,0.66 c0.359,0,2.34-0.648,3.844-1.561c0.753,0.279,1.712,0.188,2.06,0.188c0.381,0,0.537,0.232,0.762,0.232 c0.135,0,1.156-1.143,1.094-3.643c0.641,1.084,1.02,1.789,1.057,2.193c0.832-0.297,1.531-2.262,1.229-3.514 c0,0,1.047,1.699,2.635,1.449C20.629,10.848,20.539,10.535,20.539,10.295z"/><path fill="#D18A00" d="M10.561,11.848c0.384-0.59,0.165-1.605-0.566-1.324c-0.422-0.689-0.9-1.623-0.9-2.776 c0-1.229,0.251-1.551,0.251-2.637c0-1.85-0.856-2.216-1.405-2.588C6.633,3.408,4.898,4.621,4.898,5.266 c0,0.19,0.084,0.369,0.084,0.556c0,0.668-1.3,1.965-1.3,2.593c0,0.236,0.188,0.433,0.49,0.433c0.302,0,1.071-0.109,1.36-0.143 c0.289-0.029,0.321-0.17,0.321-0.246c0-0.188-0.297-0.449-0.522-0.449c-0.188,0-0.205,0.11-0.205,0.138 c0,0.123,0.177,0.158,0.177,0.158c0.225-0.03,0.226,0.167,0.012,0.167c-0.176,0-0.373-0.13-0.373-0.354 c0-0.225,0.18-0.281,0.314-0.281c0.562,0,0.885,0.508,0.792,0.832C6.745,9.016,6.725,9.523,6.61,9.523 c-0.241,0-0.074-0.641-0.981-0.641c-0.254,0-0.786,0.076-0.912,0.09C4.594,8.986,4.556,9.004,4.541,9.109 C4.525,9.211,4.394,9.586,4.394,9.816c0,0.34,0.227,0.363,0.373,0.363c0.382,0,1.029-0.092,1.029-0.244 c0-0.1-0.164-0.07-0.224-0.07c-0.115,0-0.167-0.07-0.167-0.111c0-0.102,0.165-0.15,0.361-0.15c0.325,0,0.359,0.213,0.343,0.311 c-0.036,0.219,0.316,0.166,0.316,0.631c0,0.053-0.004,0.186-0.115,0.186c-0.112,0-0.113-0.139-0.113-0.217 c0-0.076-0.127-0.199-0.236-0.199c-0.115,0-0.533,0.215-1.433,0.133c-0.355,0.447,0.064,0.479,0.064,0.93 c0,0.502-0.154,0.471-0.154,0.777c0,0.611,0.67,0.77,1.339,0.77c1.384,0,2.946-0.32,3.496-1.311 c-0.188,0.875-0.893,1.188-2.092,1.461c0.136,0.971,0.337,1.195,0.483,1.457c0.146,0.264,0.178,0.631,0.436,0.631 c0.309,0,2.13-0.656,3.355-1.395L10.561,11.848z"/><path d="M8.831 9.928C8.565 9.639 8.166 8.799 8.959 8.08 8.353 7.917 7.519 9.539 8.831 9.928zM7.882 4.328c.037.043.099.049.144.014.032-.028.054-.095.012-.144-.012-.015-.278-.33-.65-.635.044-.033.102-.076.164-.123.158.132.77.657 1.155 1.136C8.744 4.62 8.807 4.626 8.851 4.591 8.895 4.556 8.9 4.493 8.867 4.449 8.49 3.981 7.923 3.489 7.72 3.314 7.787 3.266 7.845 3.221 7.875 3.2c.413.3.647.588.65.591.035.044.099.051.142.016C8.711 3.771 8.72 3.708 8.685 3.664 8.672 3.648 8.408 3.325 7.932 2.991 7.896 2.965 7.849 2.966 7.812 2.993L7.164 3.478C7.104 3.522 7.116 3.601 7.162 3.64 7.567 3.955 7.879 4.324 7.882 4.328zM7.688 5.178c-.617 0-.82-.662-1.595-.662-.416 0-.63.163-.63.301 0 .138.161.259.161.259.078.17-.462.356-.178.47l.349.136c-.113.198-.04.565-.018.657C5.063 6.345 5.132 6.567 5.751 6.576c.002.102-.071.375.04.375.117 0 .267-.137.324-.397.52-.064 1.106-.243 1.106-.243C7.325 6.282 7.43 6.187 7.229 6.068L6.273 5.505c0 0-.082-.048-.028-.173l.073-.169c.021-.051.073-.058.098-.058.272 0 .681.407 1.221.407.234 0 .495-.137.495-.269C8.132 5.111 7.811 5.178 7.688 5.178z"/><g fill="#FFF"><path d="M6.209 5.843C6.156 6.041 6.193 6.268 6.206 6.328c.613-.037.864-.149.864-.149L6.209 5.843zM5.265 10.938c-.067.033.206.6.157.854.041.115.211.537.498.391.286-.146.044-.529-.025-.631C5.659 11.441 5.332 10.902 5.265 10.938zM7.792 6.915C7.555 6.978 7.338 7.213 6.909 7.328 6.75 7.369 6.472 7.329 6.389 7.329c.065.088.236.241.236.241S6.562 7.726 6.549 7.833c.071-.042.279-.168.438-.209.43-.113.734-.014.971-.076.111-.031.315-.087.233-.402C8.109 6.833 7.902 6.884 7.792 6.915z"/></g><g fill="#CF0A2C"><path d="M10.31 10.615c-.262-.076-.573.199-.694.613-.12.414-.005.811.256.889.262.076.572-.197.693-.613C10.686 11.09 10.57 10.691 10.31 10.615zM5.57 10.797c-.128-.178-.197-.018-.333.055-.136.068-.309.031-.236.238.077.225-.086.682-.015.82.058.111.182.154.283.104.091-.049.135-.129.153-.223.049-.254-.098-.605-.031-.641.066-.035.267.291.502.4.086.039.177.051.269.006.101-.053.138-.182.082-.293C6.172 11.125 5.707 10.99 5.57 10.797zM7.423 7.763C7.353 7.782 7.246 7.842 7.07 7.889c-.175.047-.395.048-.43-.087C6.636 7.791 6.636 7.778 6.639 7.766c.013-.109.172-.254.172-.254s-.21-.047-.275-.136c-.007-.01-.014-.021-.017-.032C6.483 7.21 6.677 7.102 6.852 7.056 7.026 7.009 7.15 7.009 7.221 6.992 7.363 6.954 7.482 6.86 7.453 6.748 7.396 6.539 7.125 6.59 6.975 6.629c-.75.198-.916.506-.861.72C6.17 7.562 6.413 7.617 6.413 7.617S6.229 7.785 6.285 7.998C6.34 8.21 6.637 8.396 7.387 8.199c.151-.04.413-.129.359-.337C7.715 7.747 7.564 7.726 7.423 7.763zM15.104 3.618c-2.188 1.638-3.365 4.08-3.723 4.916 0 0-.047.098.008.205l.693 1.35c.029.057.091.066.138.023l1.14-1.029c.078-.072.104-.186.104-.186.52-2.975 1.221-4.429 1.658-5.088C15.107 3.762 15.1 3.711 15.1 3.661 15.104 3.646 15.104 3.632 15.104 3.618z"/></g><g fill="#00833E"><path d="M16.92 2.746L16.332 3.135 16.469 3.583 17.129 3.437zM15.307 4.112c-.043-.038-.08-.082-.109-.131-.701 1.124-1.596 3.936-1.596 6.343 0 2.463.754 3.771 1.025 3.771.209 0 .947-1.318.947-3.018 0-.465-.389-2.326-.389-5.821C15.186 4.508 15.242 4.308 15.307 4.112zM11.554 8.607l.621 1.342 1.13-1.047c0 0 .545-3.178 1.516-4.93C12.258 6.458 11.554 8.607 11.554 8.607zM15.705 3.206c-.254 0-.457.206-.457.457 0 .253.205.457.457.457s.457-.204.457-.457S15.957 3.206 15.705 3.206z"/></g><path fill="#FFD100" d="M13.92,4.041c0.152,0,0.133-0.205-0.01-0.205c-2.19,0-3.445,0.278-3.638,0.324 c-0.122-1.073-0.739-1.416-0.739-2.11c0-0.27,0.178-0.324,0.324-0.324c0.512,0,0.896,0.6,1.606,0.6 c0.66,0,0.802-0.468,1.179-0.468c0.564,0,0.316,1.502,1.316,1.502c0.316,0,0.523-0.126,0.523-0.126 c0.137-0.075,0.008-0.236-0.107-0.176c0,0-0.201,0.103-0.398,0.103c-0.846,0-0.477-1.507-1.355-1.507 c-0.421,0-0.562,0.464-1.169,0.464c-0.679,0-0.948-0.607-1.621-0.607c-0.382,0-0.519,0.255-0.519,0.512 c0,0.769,0.759,1.354,0.759,2.408c0,1.073-0.366,2.016-0.366,3.506c0,1.737,1.65,2.249,1.65,3.868c0,0.916,0.352,1.48,0.744,1.48 c0.216,0,0.417-0.127,0.513-0.463c0.057,0.023,0.107,0.035,0.152,0.035c0.111,0,0.521-0.119,0.521-0.602 c0-1.381-2.372-2.094-2.372-4.257c0-1.04,0.167-2.704,0.422-2.704c0.134,0,0.301,0.582,0.62,0.582 c0.396,0,0.258-1.149,0.434-1.149c0.142,0,0.353,0.537,0.604,0.537c0.203,0,0.27-0.417,0.357-0.744 c0.033-0.153-0.182-0.195-0.213-0.041c-0.055,0.243-0.17,0.565-0.17,0.565c-0.131-0.129-0.338-0.523-0.59-0.523 c-0.402,0-0.343,1.147-0.434,1.147c-0.168,0-0.274-0.596-0.641-0.596c-0.472,0-0.611,1.642-0.611,2.934 c0,2.273,2.374,3.035,2.374,4.226c0,0.299-0.219,0.402-0.307,0.402c-0.035,0-0.07-0.01-0.107-0.021 c0.012-0.082,0.018-0.174,0.018-0.275c0-0.701-0.386-0.834-0.543-0.834c-0.156,0-0.245,0.137-0.245,0.363 c0,0.303,0.268,0.639,0.529,0.832c-0.04,0.189-0.122,0.363-0.298,0.363c-0.341,0-0.535-0.791-0.535-1.264 c0-1.709-1.649-2.203-1.649-3.91c0-1.454,0.367-2.386,0.367-3.352c0-0.059-0.001-0.117-0.004-0.175 C10.517,4.311,11.93,3.995,13.92,4.041z"/><path d="M12.165,11.719c-0.031,0-0.062,0.045-0.062,0.162c0,0.133,0.149,0.408,0.335,0.59c0.006-0.094,0.005-0.172,0.005-0.213 C12.443,12.104,12.356,11.719,12.165,11.719z"/><path fill="#FFD100" d="M15.023,4.582c0,0-1.248,2.627-1.248,5.688c0,2.027,0.629,3.576,0.803,3.576 c0.137,0,0.777-0.965,0.777-2.979C15.355,10.055,14.916,6.965,15.023,4.582z"/><g fill="#00833E"><path d="M14.428 8.438l-.451.348c-.053.436-.088.887-.094 1.35l.496-.338C14.383 9.402 14.396 8.949 14.428 8.438zM14.762 6.382c-.088.743-.145 1.411-.182 2.002l.504.372c-.068-.741-.139-1.571-.17-2.364C14.91 6.279 14.785 6.173 14.762 6.382zM14.525 9.875l.699.482c-.025-.387-.076-.891-.129-1.451l-.523-.389C14.541 9.031 14.529 9.484 14.525 9.875zM14.609 6.387c.018-.137-.096-.115-.119-.035-.189.64-.377 1.421-.494 2.277l.439-.338C14.473 7.725 14.527 7.088 14.609 6.387zM13.992 11.742c.035.234.076.451.123.648.072.078.273.221.443-.289.289.479.471.416.527.375.039-.176.074-.369.102-.584l-.693-.461L13.992 11.742zM14.568 11.342l.635.424c.029-.271.047-.57.047-.896 0-.1-.006-.223-.014-.365l-.711-.488C14.523 10.621 14.549 11.064 14.568 11.342zM14.377 9.938l-.494.338c0 .484.035.936.092 1.342l.445-.277C14.396 11.043 14.375 10.574 14.377 9.938z"/></g><g fill="#CF0A2C"><path d="M12.396,7.164c-0.303,0.499-0.549,1.029-0.657,1.274c-0.043,0.105-0.061,0.164-0.061,0.164l0.533,1.15 l0.982-0.914c0.012-0.051,0.1-0.54,0.252-1.201c0.221-0.936,0.59-2.307,0.996-3.139C13.545,5.466,12.822,6.485,12.396,7.164z"/><circle cx="15.705" cy="3.662" r=".292"/></g><path fill="#FFF" d="M13.725,5.563c-0.025-0.013-0.059-0.003-0.07,0.023c-0.203,0.402-0.379,0.784-0.533,1.14l-0.624,0.276 c-0.035,0.055-0.067,0.107-0.099,0.16l0.66-0.292c-0.172,0.404-0.311,0.771-0.428,1.09l-0.832,0.337 c-0.023,0.054-0.042,0.099-0.058,0.139l0.842-0.342c-0.258,0.735-0.364,1.187-0.367,1.194c-0.006,0.027,0.011,0.059,0.04,0.062 c0.029,0.006,0.057-0.012,0.063-0.041c0.002-0.006,0.104-0.439,0.352-1.15l0.447,0.751l0.076-0.072c0,0,0,0,0.002-0.002 l-0.479-0.806c0.104-0.292,0.23-0.625,0.383-0.99l0.346,0.595c0.012-0.05,0.021-0.1,0.035-0.151l-0.328-0.567 c0.168-0.396,0.363-0.828,0.596-1.284C13.762,5.609,13.75,5.579,13.725,5.563z"/><g fill="#FF671B"><path d="M16.037 2.316L15.074 2.316 15.689 2.982 16.037 2.982zM19.607 7.112c-1.049-1.686-2.881-3.103-3.301-3.417-.006.097-.1.257-.146.336l0 0c-.057.061-.123.133-.156.152.072.291.184.707.332 1.19.221.536.467 1.197.676 1.886C17.25 7.829 17.527 8.397 17.84 8.9c1.299 2.088 2.596 1.801 2.596 1.801C20.213 10.346 20.867 9.141 19.607 7.112z"/></g><path fill="#FFF" d="M19.219,7.232c-0.828-1.333-2.592-2.918-2.992-3.271c-0.023,0.044-0.055,0.085-0.09,0.122 c0.252,0.716,1.234,3.404,2.139,4.858c0.883,1.422,1.746,1.352,1.746,1.352S20.312,8.994,19.219,7.232z"/><g fill="#FF671B"><path d="M16.27,4.145c0.141,0.392,0.418,1.147,0.762,1.982l0.092-0.506l-0.449-0.722 c-0.016-0.025-0.008-0.059,0.018-0.074c0.027-0.015,0.059-0.008,0.072,0.018l0.432,0.69l0.666,0.165 C17.227,5.017,16.584,4.424,16.27,4.145z"/><path d="M17.273 5.663l.795 1.278L19.1 7.246c-.291-.459-.691-.948-1.107-1.405L17.273 5.663zM17.105 6.309c.193.464.406.947.625 1.4l.258-.696-.781-1.257L17.105 6.309zM19.932 10.184c.023-.201.059-.738-.16-1.479L19.088 8.58l.402.648c.018.023.008.057-.018.072-.023.016-.059.008-.074-.018l-.406-.656-.258.771C19.27 10.035 19.746 10.158 19.932 10.184zM18.152 7.077l.859 1.381.725.132c-.115-.362-.289-.771-.553-1.208L18.152 7.077zM18.654 9.301L18.92 8.51l-.859-1.383-.264.715c.188.382.379.739.568 1.043C18.463 9.041 18.559 9.18 18.654 9.301z"/></g><g fill="#D18A00"><path d="M6.121,5.038L5.732,5.142C5.65,5.163,5.646,5.21,5.724,5.248L6.019,5.39 c0.03,0.015,0.066,0.001,0.08-0.029L6.2,5.129C6.229,5.06,6.193,5.019,6.121,5.038z"/><ellipse transform="rotate(-73.776 10.092 11.367)" cx="10.092" cy="11.367" rx=".496" ry=".275"/></g><path fill="#FFD100" d="M17.012,7.26c-0.209-0.688-0.455-1.349-0.676-1.886c-0.148-0.484-0.26-0.9-0.332-1.19 c-0.051,0.028-0.104,0.05-0.162,0.063c-0.043,0.01-0.09,0.016-0.137,0.016c-0.043,0-0.084-0.005-0.125-0.013 c-0.057-0.012-0.107-0.032-0.158-0.058c-0.186,4.312,0.242,5.058,0.32,6.29c1.088,1.715,1.127,2.215,1.127,2.215 s1.271-0.891,0.979-3.535c-0.041-0.061-0.082-0.125-0.121-0.188c-0.178-0.289-0.346-0.596-0.5-0.912"/><path fill="#001970" d="M17.371,8.787c-0.037-0.238-0.086-0.48-0.145-0.725c-0.062-0.268-0.137-0.537-0.215-0.801 c-0.209-0.688-0.457-1.349-0.676-1.886c-0.217-0.526-0.404-0.931-0.494-1.126c-0.045,0.01-0.09,0.016-0.137,0.016 c-0.043,0-0.086-0.005-0.125-0.013c-0.041,0.464-0.189,2.448,0.094,4.234c0.404,2.562,1.377,3.49,1.377,3.49 S17.723,11.008,17.371,8.787z"/><g fill="#FFD100"><path d="M16.123 7.156l-.336-2.124c-.016-.096-.143-.084-.148.055-.027.645-.039 1.554.039 2.482L16.123 7.156zM16.477 9.396l-.166-1.05-.467.464c.074.391.162.738.256 1.049L16.477 9.396zM15.689 7.71c.023.254.057.508.096.758.012.071.021.141.033.208l.473-.465L16.145 7.29 15.689 7.71zM15.898 5.015c0 0 .174 1.1.34 2.153l.75.422c-.279-1.003-.672-1.984-.953-2.636C16.004 4.871 15.879 4.889 15.898 5.015zM16.768 10.611c-.008-.035-.201-.824-.262-1.074l-.367.449c.133.412.275.752.41 1.021C16.619 10.879 16.754 10.637 16.768 10.611zM16.26 7.309c.049.305.098.608.141.887l.84.479c-.053-.305-.125-.618-.209-.932L16.26 7.309zM16.422 8.336c.08.496.143.892.166 1.041l.77.416c-.01-.293-.039-.617-.094-.977L16.422 8.336zM17.26 11.062l-.416-.357-.234.424c.174.322.326.535.422.652C17.094 11.648 17.188 11.412 17.26 11.062zM17.359 9.922l-.742-.4c.057.229.219.898.26 1.066l.406.35C17.332 10.66 17.365 10.322 17.359 9.922z"/></g></svg>