<?xml version="1.0" encoding="UTF-8"?>
<svg width="512px" height="512px" viewBox="0 0 512 512" version="1.1" xmlns="http://www.w3.org/2000/svg" xmlns:xlink="http://www.w3.org/1999/xlink">
    <!-- Generator: Sketch 41.2 (35397) - http://www.bohemiancoding.com/sketch -->
    <title>chicago-blackhawks</title>
    <desc>Created with Sketch.</desc>
    <defs></defs>
    <g id="NHL" stroke="none" stroke-width="1" fill="none" fill-rule="evenodd">
        <g id="chicago-blackhawks">
            <g id="chi" transform="translate(69.000000, 90.000000)">
                <path d="M325.666537,222.630914 C323.19465,222.638337 320.914492,223.963933 319.684976,226.108362 C318.455461,228.252791 318.463381,230.890263 319.705754,233.027269 C320.948126,235.164275 323.236205,236.476152 325.708092,236.468729 C329.529299,236.457254 332.617697,233.350251 332.606222,229.529044 C332.594747,225.707837 329.487744,222.619439 325.666537,222.630914 L325.666537,222.630914 Z M325.666537,235.035082 C324.215548,235.035124 322.824586,234.455892 321.80249,233.425994 C320.780394,232.396096 320.211756,231.000769 320.222832,229.549822 C320.222832,226.543346 322.660062,224.106117 325.666537,224.106117 C328.673013,224.106117 331.110242,226.543346 331.110242,229.549822 C331.115763,230.999096 330.545331,232.391203 329.524436,233.419891 C328.503541,234.44858 327.115812,235.029582 325.666537,235.035082 L325.666537,235.035082 Z" id="Shape" fill="#000000"></path>
                <path d="M328.513055,227.991509 C328.513055,226.717773 327.480488,225.685207 326.206752,225.685207 L322.882352,225.685207 L322.882352,233.601434 L324.336777,233.601434 L324.336777,230.360144 L325.39643,230.360144 L326.89241,233.601434 L328.513055,233.601434 L326.933965,230.235479 C327.865157,229.874974 328.488101,228.989738 328.513055,227.991509 L328.513055,227.991509 Z M326.185975,228.884942 L324.274445,228.884942 L324.274445,227.139632 L326.185975,227.139632 C326.601525,227.139632 326.996297,227.555182 326.996297,227.991509 C326.996297,228.469392 326.64308,228.884942 326.185975,228.884942 Z" id="Shape" fill="#000000"></path>
                <path d="M364.416575,213.904364 C364.416575,200.835316 377.236293,152.299076 284.028427,78.8921681 L299.694662,75.4015481 L291.612215,48.8063479 L276.070645,59.1743204 L276.070645,43.0717578 L245.548497,43.0717578 C225.622874,28.7145052 216.044447,10.3887501 184.711976,10.3887501 C171.622151,10.3887501 157.867446,12.9859376 154.875486,12.9859376 C152.569184,12.9859376 145.587944,11.5107351 133.723991,11.5107351 C99.4618932,11.5107351 96.3037132,37.0670603 100.583878,46.0429403 C55.5174804,76.9183056 33.2024452,99.1502307 33.2024452,107.211901 C33.2024452,110.307748 35.0308653,114.338583 35.0308653,120.156283 C35.0308653,132.830558 7.64612006,160.755519 7.64612006,175.549099 C7.64612006,189.324581 25.2238852,190.280346 25.2238852,190.280346 C26.2212052,194.331959 19.4061851,207.858112 25.5147702,214.756242 C17.0375501,223.960674 26.9276402,228.552502 26.9276402,235.866182 C26.9276402,240.811227 23.4785752,242.348762 23.4785752,251.490862 C23.4785752,261.921167 28.3612877,274.45 54.0838329,274.45 C64.2440305,274.45 73.240688,272.87091 80.3881481,272.87091 C82.4035656,294.458732 91.6079982,302.935952 93.1247557,308.338102 C94.3714057,312.6806 97.1971457,322.051252 102.910958,322.051252 C110.370081,322.051252 151.530309,308.587432 182.779669,289.617575 C198.425126,295.414497 218.350749,293.523745 225.581319,293.523745 C233.497547,293.523745 236.738837,298.344125 241.413774,298.344125 C244.218737,298.344125 265.432564,274.595442 264.144359,222.651692 C277.462737,245.174502 285.33741,259.822639 286.106177,268.216749 C303.393057,262.045832 317.91653,221.218044 311.641725,195.204614 C311.641725,195.204614 333.395767,230.505587 366.390438,225.311212 C365.204288,221.619452 364.539908,217.780035 364.416575,213.904364 L364.416575,213.904364 Z" id="Shape" fill="#000000"></path>
                <path d="M157.098679,246.171822 C165.077239,233.913097 160.526966,212.823934 145.338614,218.662412 C136.570509,204.346714 126.638863,184.940529 126.638863,160.984071 C126.638863,135.448523 131.854016,128.758168 131.854016,106.193803 C131.854016,67.755428 114.068476,60.1508629 102.661628,52.4216329 C75.4846581,70.8097205 39.4356953,96.0128282 39.4356953,109.414316 C39.4356953,113.362041 41.1810053,117.081213 41.1810053,120.966606 C41.1810053,134.845976 14.1702551,161.794394 14.1702551,174.842664 C14.1702551,179.746154 18.0764251,183.839321 24.3512302,183.839321 C30.6260352,183.839321 46.6039328,181.574574 52.6086304,180.868139 C58.6133279,180.265591 59.2782079,177.335964 59.2782079,175.756874 C59.2782079,171.850704 53.1072904,166.427776 48.4323529,166.427776 C44.5261828,166.427776 44.1729653,168.713301 44.1729653,169.295071 C44.1729653,171.850704 47.8505829,172.577916 47.8505829,172.577916 C52.5255204,171.954591 52.5462979,176.047759 48.0999129,176.047759 C44.4430728,176.047759 40.3499053,173.346684 40.3499053,168.692524 C40.3499053,164.017586 44.0898553,162.854046 46.8740403,162.854046 C58.5509954,162.854046 65.262128,173.409016 63.3298205,180.140926 C77.8117381,187.329941 77.3961881,197.864134 75.0067756,197.864134 C69.999398,197.864134 73.4692405,184.545756 54.6240479,184.545756 C49.3465629,184.545756 38.2929328,186.124846 35.6749678,186.415731 C33.1193352,186.706616 32.3297902,187.080611 32.0181277,189.262249 C31.6856877,191.381554 28.9638352,199.173116 28.9638352,203.951941 C28.9638352,211.016292 33.6803277,211.494174 36.7138428,211.494174 C44.6508478,211.494174 58.0938904,209.582644 58.0938904,206.424464 C58.0938904,204.346714 54.6863804,204.970039 53.4397304,204.970039 C51.0503179,204.970039 49.9698879,203.515614 49.9698879,202.663736 C49.9698879,200.544431 53.3981754,199.547111 57.4705654,199.547111 C64.223253,199.547111 64.929688,203.972719 64.597248,206.008914 C63.849258,210.559187 71.162938,209.457979 71.162938,219.119517 C71.162938,220.220724 71.079828,222.984132 68.7735255,222.984132 C66.4464455,222.984132 66.425668,220.096059 66.425668,218.475414 C66.425668,216.896324 63.7869255,214.340692 61.522178,214.340692 C59.1327654,214.340692 50.4477704,218.807854 31.7480202,217.104099 C24.3720077,226.391642 33.0777802,227.056522 33.0777802,236.427174 C33.0777802,246.857479 29.8780452,246.213377 29.8780452,252.571292 C29.8780452,265.266344 43.7989703,268.569967 57.6991179,268.569967 C86.4551781,268.569967 118.909633,261.921167 130.337258,241.330664 C126.431088,259.510977 111.782951,266.014334 86.8707281,271.686592 C89.6964682,291.861545 93.8727457,296.515705 96.9062607,301.95941 C99.9397757,307.44467 100.604656,315.070012 105.965251,315.070012 C112.385498,315.070012 150.221326,301.439972 175.673764,286.0854 L157.098679,246.171822 L157.098679,246.171822 Z" id="Shape" fill="#D18A00"></path>
                <path d="M121.153603,206.279022 C115.626788,200.274324 107.336566,182.821224 123.813123,167.882201 C111.221958,164.495469 93.8935232,198.196574 121.153603,206.279022 Z M101.435756,89.9250207 C102.191186,90.8134581 103.515298,90.9421912 104.427716,90.2159057 C105.092596,89.6341357 105.549701,88.2420431 104.677046,87.2239456 C100.55764,82.4509259 96.0395496,78.037099 91.1716707,74.030233 L94.5791807,71.4746005 C97.8620257,74.2172305 110.577856,85.1254181 118.577193,95.0778407 C119.345961,95.9920507 120.654943,96.1167157 121.569153,95.3895032 C122.465461,94.6609518 122.613305,93.3488348 121.901593,92.4390982 C114.068476,82.7152281 102.287633,72.492698 98.0698007,68.8566355 C99.4618932,67.8593155 100.666988,66.924328 101.290313,66.4880005 C109.871421,72.7212505 114.733356,78.7051706 114.795688,78.7675031 C115.139374,79.2078824 115.64591,79.491319 116.201016,79.5538661 C116.756121,79.6164132 117.313029,79.4528012 117.746093,79.0999431 C118.668914,78.3822228 118.836255,77.0527869 118.120088,76.1287606 C113.522616,70.8195219 108.264781,66.1202882 102.474631,62.145503 C101.726671,61.6036522 100.710818,61.620583 99.9813307,62.187058 L86.5175106,72.2641455 C85.2708606,73.1783555 85.5201906,74.819778 86.4759556,75.6301006 C94.8908432,82.1750131 101.373423,89.8419107 101.435756,89.9250207 L101.435756,89.9250207 Z M97.4049207,107.585896 C84.5852031,107.585896 80.3673706,93.8311907 64.264808,93.8311907 C55.6213679,93.8311907 51.1749829,97.2179232 51.1749829,100.085218 C51.1749829,102.952513 54.5201604,105.466591 54.5201604,105.466591 C56.1408054,108.998766 44.9209553,112.863381 50.8217654,115.232016 L58.0731129,118.057756 C55.7252554,122.171701 57.2420129,129.797043 57.6991179,131.708573 C42.8639828,131.833238 44.2976303,136.445844 57.1589029,136.632841 C57.2004579,138.752146 55.6837004,144.424404 57.9900029,144.424404 C60.4209704,144.424404 63.5375955,141.577886 64.721913,136.175736 C75.5262131,134.845976 87.7018281,131.126803 87.7018281,131.126803 C89.8626882,130.524256 92.0443257,128.550393 87.8680481,126.077871 L68.004758,114.380138 C68.004758,114.380138 66.301003,113.382818 67.422988,110.785631 L68.9397455,107.274233 C69.376073,106.214581 70.456503,106.069138 70.9759405,106.069138 C76.6274206,106.069138 85.1254181,114.525581 96.3452682,114.525581 C101.207203,114.525581 106.630131,111.679063 106.630131,108.936433 C106.630131,106.193803 99.9605532,107.585896 97.4049207,107.585896 Z" id="Shape" fill="#000000"></path>
                <path d="M66.674998,121.402933 C65.9456323,124.720185 65.9243922,128.154001 66.6126655,131.480021 C79.3492731,130.711253 84.5644256,128.384173 84.5644256,128.384173 L66.674998,121.402933 L66.674998,121.402933 Z M47.0610378,227.264297 C45.6689453,227.949954 51.3412029,239.730797 50.3231054,245.008282 C51.1749829,247.397694 54.7071579,256.165799 60.6703004,253.132284 C66.6126655,250.098769 61.5845105,242.140987 60.1508629,240.021682 C55.2473729,237.715379 48.4531304,226.516307 47.0610378,227.264297 L47.0610378,227.264297 Z M99.5657807,143.676414 C94.6415132,144.985396 90.1327957,149.868109 81.2192481,152.257521 C77.9156256,153.109399 72.1394805,152.278299 70.414948,152.278299 C71.7654855,154.106719 75.3184381,157.285676 75.3184381,157.285676 C75.3184381,157.285676 74.0094555,160.526966 73.739348,162.750159 C75.2145506,161.877504 79.5362706,159.259539 82.8398931,158.407661 C91.7742182,156.059804 98.0905782,158.116776 103.014846,156.828571 C105.321148,156.184469 109.559758,155.020929 107.856003,148.476016 C106.152248,141.972659 101.851306,143.032311 99.5657807,143.676414 L99.5657807,143.676414 Z" id="Shape" fill="#FFFFFF"></path>
                <path d="M151.883526,220.553164 C146.439821,218.974074 139.978019,224.687887 137.463941,233.289772 C134.970641,241.891657 137.360054,250.140324 142.782981,251.760969 C148.226686,253.340059 154.667711,247.667802 157.181789,239.024362 C159.695866,230.422477 157.285676,222.132254 151.883526,220.553164 L151.883526,220.553164 Z M53.3981754,224.334669 C50.7386554,220.636274 49.3050079,223.960674 46.4792678,225.477432 C43.6535278,226.890302 40.0590203,226.121534 41.5757778,230.422477 C43.1756453,235.097414 39.7889128,244.592732 41.2641153,247.460027 C42.4692103,249.766329 45.0456203,250.659762 47.1441478,249.620887 C48.8793248,248.668729 50.0591732,246.949081 50.3231054,244.987504 C51.3412029,239.710019 48.2869104,232.417117 49.6790029,231.669127 C51.0503179,230.941914 55.2265954,237.715379 60.1093079,239.980127 C61.8507274,240.891968 63.9181111,240.938081 65.6984555,240.104792 C67.796983,239.003584 68.5657505,236.323287 67.4022105,234.016984 C65.9062305,231.149689 56.2446929,228.344727 53.3981754,224.334669 L53.3981754,224.334669 Z M91.8988832,161.295734 C90.4444582,161.690506 88.2212656,162.937156 84.5644256,163.913699 C80.9283631,164.890241 76.3573131,164.911019 75.6301006,162.106056 C75.5505395,161.86406 75.5433185,161.604106 75.6093231,161.358066 C75.8794306,159.093319 79.1830531,156.080581 79.1830531,156.080581 C79.1830531,156.080581 74.819778,155.104039 73.4692405,153.254841 C73.3155567,153.054264 73.1961984,152.82959 73.116023,152.589961 C72.368033,149.805776 76.3988681,147.561806 80.0349306,146.606041 C83.6502156,145.629499 86.2266256,145.629499 87.7018281,145.276281 C90.6522332,144.486736 93.1247557,142.533651 92.5222082,140.206571 C91.3378907,135.864073 85.7071881,136.923726 82.5905631,137.734049 C67.007438,141.847994 63.558373,148.247464 64.7011355,152.693849 C65.8646755,157.119456 70.913608,158.262219 70.913608,158.262219 C70.913608,158.262219 67.090548,161.752839 68.254088,166.178446 C69.3968505,170.583276 75.5677681,174.447891 91.1508932,170.354724 C94.2882957,169.523624 99.7320007,167.674426 98.6100157,163.352706 C97.9659132,160.963294 94.8285107,160.526966 91.8988832,161.295734 L91.8988832,161.295734 Z M251.490862,75.1729956 C206.029692,109.206541 181.574574,159.945196 174.136229,177.315186 C174.136229,177.315186 173.159686,179.351381 174.302449,181.574574 L188.701256,209.624199 C189.303804,210.808517 190.592009,210.995514 191.568551,210.102082 L215.254902,188.722034 C216.875547,187.226054 217.415762,184.857419 217.415762,184.857419 C228.220062,123.044356 242.785089,92.8338707 251.864857,79.1414981 C251.556285,78.1458466 251.402127,77.1087845 251.407752,76.0664281 C251.490862,75.7547656 251.490862,75.4638806 251.490862,75.1729956 L251.490862,75.1729956 Z" id="Shape" fill="#CF0A2C"></path>
                <path d="M289.222802,57.0550154 L277.005632,65.137463 L279.85215,74.445783 L293.5653,71.412268 L289.222802,57.0550154 Z M255.708694,85.4370806 C254.816215,84.6536869 254.052027,83.7352592 253.443947,82.7152281 C238.878919,106.069138 220.283057,164.495469 220.283057,214.506912 C220.283057,265.681894 235.949292,292.858865 241.579994,292.858865 C245.922492,292.858865 261.256287,265.474119 261.256287,230.152369 C261.256287,220.490832 253.173839,181.823904 253.173839,109.206541 C253.194617,93.6649707 254.358157,89.5094707 255.708694,85.4370806 L255.708694,85.4370806 Z M177.730736,178.831944 L190.633564,206.715349 L214.112139,184.961306 C214.112139,184.961306 225.435877,118.930411 245.610829,82.5282306 C192.358096,134.181096 177.730736,178.831944 177.730736,178.831944 L177.730736,178.831944 Z M263.978139,66.6126655 C260.585789,66.6126654 257.451128,68.4224627 255.754953,71.3603242 C254.058778,74.2981857 254.058778,77.9177804 255.754953,80.8556419 C257.451128,83.7935034 260.585789,85.6033007 263.978139,85.6033006 C269.222259,85.6033006 273.473457,81.3521021 273.473457,76.1079831 C273.473457,70.863864 269.222259,66.6126655 263.978139,66.6126655 L263.978139,66.6126655 Z" id="Shape" fill="#00833E"></path>
                <path d="M226.890302,83.9618781 C230.048482,83.9618781 229.653709,79.7024906 226.682527,79.7024906 C181.179801,79.7024906 155.104039,85.4786356 151.093981,86.4344006 C148.559126,64.140143 135.739408,57.0134604 135.739408,42.5938753 C135.739408,36.9839503 139.437804,35.8619653 142.471319,35.8619653 C153.109399,35.8619653 161.087959,48.3284654 175.839984,48.3284654 C189.553134,48.3284654 192.503539,38.6045953 200.336656,38.6045953 C212.055167,38.6045953 206.902347,69.8124005 227.679847,69.8124005 C234.245537,69.8124005 238.546479,67.1944355 238.546479,67.1944355 C241.392997,65.636123 238.712699,62.2909455 236.323287,63.5375955 C236.323287,63.5375955 232.147009,65.677678 228.053842,65.677678 C210.476077,65.677678 218.142974,34.3659853 199.900329,34.3659853 C191.153001,34.3659853 188.223374,44.0067453 175.611431,44.0067453 C161.503509,44.0067453 155.914361,31.3948027 141.931104,31.3948027 C133.994098,31.3948027 131.147581,36.6930653 131.147581,42.0328828 C131.147581,58.0107804 146.917704,70.165618 146.917704,92.0651032 C146.917704,114.359361 139.313139,133.952543 139.313139,164.911019 C139.313139,201.001536 173.596014,211.639617 173.596014,245.278389 C173.596014,264.310579 180.909694,276.02909 189.054474,276.02909 C193.542414,276.02909 197.718691,273.390347 199.713331,266.409107 C200.710151,266.850392 201.782084,267.097218 202.871511,267.136319 C209.254853,266.553448 214.035823,261.029179 213.696589,254.628264 C213.696589,225.934537 164.412359,211.120179 164.412359,166.178446 C164.412359,144.569846 167.882201,109.996086 173.180464,109.996086 C175.964649,109.996086 179.434491,122.088591 186.062514,122.088591 C194.290404,122.088591 191.423109,98.2152432 195.079949,98.2152432 C198.030354,98.2152432 202.414406,109.372761 207.629559,109.372761 C211.847392,109.372761 213.239484,100.708543 215.047127,93.9143007 C215.732784,90.7353432 211.265622,89.8626882 210.621519,93.0624232 C209.478757,98.1113557 207.089344,104.801711 207.089344,104.801711 C204.367492,102.121413 200.066549,93.9350782 194.830619,93.9350782 C186.478064,93.9350782 187.703936,117.766871 185.813184,117.766871 C182.322564,117.766871 180.120149,105.383481 172.494806,105.383481 C162.687826,105.383481 159.799754,139.500136 159.799754,166.344666 C159.799754,213.571924 209.125539,229.404379 209.125539,254.150382 C209.125539,260.362854 204.575267,262.502937 202.746846,262.502937 C201.98873,262.464555 201.24004,262.317616 200.523654,262.066609 C200.772984,260.362854 200.897649,258.451324 200.897649,256.352797 C200.897649,241.787769 192.877534,239.024362 189.615466,239.024362 C186.374176,239.024362 184.524979,241.870879 184.524979,246.566594 C184.524979,252.862177 190.093349,259.843417 195.516276,263.853474 C194.685176,267.780422 192.981421,271.395707 189.324581,271.395707 C182.239454,271.395707 178.208619,254.960704 178.208619,245.132947 C178.208619,209.624199 143.946521,199.360114 143.946521,163.892921 C143.946521,133.682436 151.571864,114.317806 151.571864,94.2467407 C151.575555,93.0342056 151.547842,91.8217783 151.488754,90.6106782 C156.184469,89.5718032 185.543076,83.0061131 226.890302,83.9618781 L226.890302,83.9618781 Z" id="Shape" fill="#FFD100"></path>
                <path d="M190.425789,243.491524 C189.781686,243.491524 189.137584,244.426512 189.137584,246.857479 C189.137584,249.620887 192.233431,255.334699 196.098046,259.116204 C196.222711,257.163119 196.201934,255.542474 196.201934,254.690597 C196.201934,251.490862 194.394291,243.491524 190.425789,243.491524 L190.425789,243.491524 Z" id="Shape" fill="#000000"></path>
                <path d="M249.807884,95.2025057 C249.807884,95.2025057 223.877564,149.784999 223.877564,213.384927 C223.877564,255.500919 236.946612,287.685267 240.561897,287.685267 C243.408414,287.685267 256.706014,267.634979 256.706014,225.789094 C256.706014,208.917764 247.584692,144.715289 249.807884,95.2025057 L249.807884,95.2025057 Z" id="Shape" fill="#FFD100"></path>
                <path d="M237.445272,175.320546 L228.074619,182.551116 C226.973412,191.610106 226.246199,200.980759 226.121534,210.600742 L236.427174,203.577946 C236.510284,195.350056 236.780392,185.937849 237.445272,175.320546 L237.445272,175.320546 Z M244.384957,132.602006 C242.740292,146.429914 241.479306,160.300761 240.603452,174.198561 L251.075312,181.927791 C249.476957,165.588116 248.299176,149.210029 247.543137,132.809781 C247.460027,130.461923 244.862839,128.259508 244.384957,132.602006 L244.384957,132.602006 Z M239.460689,205.177814 L253.984162,215.192569 C253.464724,207.151677 252.405072,196.679816 251.303864,185.044416 L240.437232,176.961969 C239.793129,187.641604 239.543799,197.053811 239.460689,205.177814 Z M241.205999,132.705893 C241.579994,129.859376 239.211359,130.316481 238.733477,131.978681 C234.806529,145.276281 230.900359,161.503509 228.469392,179.289049 L237.590714,172.266254 C238.380259,160.506189 239.502244,147.270921 241.205999,132.705893 L241.205999,132.705893 Z M228.386282,243.969407 C229.113494,248.831342 229.965372,253.340059 230.941914,257.433227 C232.437894,259.053872 236.614172,262.025054 240.146347,251.428529 C246.151044,261.380952 249.932549,260.071969 251.096089,259.220092 C251.906412,255.563252 252.633624,251.553194 253.215394,247.086032 L238.816587,237.507604 L228.386282,243.969407 L228.386282,243.969407 Z M240.354122,235.658407 L253.547834,244.468067 C254.574152,235.773721 254.803659,227.003765 254.233492,218.267639 L239.460689,208.128219 C239.419134,220.677829 239.959349,229.882262 240.354122,235.658407 L240.354122,235.658407 Z M236.385619,206.486797 L226.121534,213.509592 C226.121534,223.565902 226.848747,232.957332 228.033064,241.392997 L237.279052,235.637629 C236.591354,225.936552 236.293304,216.211781 236.385619,206.486797 L236.385619,206.486797 Z" id="Shape" fill="#00833E"></path>
                <g id="Group" transform="translate(166.220001, 62.332500)" fill="#CF0A2C">
                    <path d="M29.0053902,86.5175106 C23.9194247,95.0543088 19.3606322,103.894342 15.3545726,112.988046 C14.4611401,115.169683 14.0871451,116.395556 14.0871451,116.395556 L25.1615527,140.289681 L45.5650578,121.299046 C45.8143878,120.239393 47.6428078,110.079196 50.8009879,96.3452682 C55.3928154,76.8975281 63.059713,48.4115754 71.495378,31.1246952 C55.714348,48.289827 41.4947532,66.8274504 29.0053902,86.5175106 L29.0053902,86.5175106 Z" id="Shape"></path>
                    <ellipse id="Oval" cx="97.7581382" cy="13.7547051" rx="6.06703004" ry="6.06703004"></ellipse>
                </g>
                <path d="M222.838689,115.585233 C222.319252,115.315126 221.612817,115.522901 221.384264,116.063116 C217.166432,124.415671 213.509592,132.352676 210.309857,139.749466 L197.344696,145.484056 C196.64582,146.583955 195.960114,147.692168 195.287724,148.808456 L209.000874,142.741426 C205.427144,151.135536 202.539071,158.760879 200.108104,165.388901 L182.821224,172.390919 C182.409226,173.349279 182.007504,174.312025 181.616129,175.278991 L199.110784,168.173086 C193.750189,183.444549 191.547774,192.835979 191.485441,192.981421 C191.360776,193.542414 191.713994,194.207294 192.316541,194.269626 C192.603166,194.331112 192.902477,194.275777 193.148173,194.115879 C193.39387,193.955982 193.565672,193.704719 193.625524,193.417749 C193.667079,193.293084 195.786384,184.296426 200.939204,169.523624 L210.226747,185.127526 L211.805837,183.631546 L211.847392,183.589991 L201.894969,166.843326 C204.055829,160.776296 206.673794,153.857389 209.852752,146.273601 L217.041767,158.636214 C217.291097,157.597339 217.478094,156.558464 217.768979,155.498811 L210.953959,143.717969 C214.444579,135.490078 218.496192,126.514198 223.337349,117.039658 C223.607457,116.540998 223.358127,115.917673 222.838689,115.585233 L222.838689,115.585233 Z" id="Shape" fill="#FFFFFF"></path>
                <path d="M270.876269,48.1206904 L250.867537,48.1206904 L263.645699,61.9585055 L270.876269,61.9585055 L270.876269,48.1206904 Z M345.051945,147.769581 C323.256347,112.738716 285.191967,83.2969981 276.465417,76.7728631 C276.340752,78.7882806 274.387667,82.1126806 273.431902,83.7541031 C272.247584,85.0215306 270.876269,86.5175106 270.190612,86.9122831 C271.686592,92.9585357 274.013672,101.601976 277.088742,111.637508 C281.68057,122.774248 286.791835,136.508176 291.134332,150.823874 C296.079377,162.667049 301.834745,174.468669 308.338102,184.919751 C335.328075,228.303172 362.276493,222.340029 362.276493,222.340029 C357.64311,214.964017 371.231595,189.927129 345.051945,147.769581 L345.051945,147.769581 Z" id="Shape" fill="#FF671B"></path>
                <path d="M336.990275,150.262881 C319.786505,122.566473 283.134995,89.6341357 274.823995,82.2996781 C274.31911,83.2259059 273.689959,84.0787554 272.95402,84.8345331 C278.18995,99.7112232 298.593455,155.561144 317.397092,185.771629 C335.743625,215.317234 353.674608,213.862809 353.674608,213.862809 C353.674608,213.862809 359.700083,186.872836 336.990275,150.262881 L336.990275,150.262881 Z" id="Shape" fill="#FFFFFF"></path>
                <g id="Group" transform="translate(270.107502, 83.110001)" fill="#FF671B">
                    <path d="M5.60992504,3.01273752 C8.53955256,11.1575176 14.2949201,26.8445302 21.4423802,44.1937428 L23.3539102,33.6803277 L14.0248126,18.6789726 C13.865634,18.4267574 13.8155649,18.1207631 13.8860557,17.8309676 C13.9565465,17.5411721 14.141568,17.292362 14.3988076,17.1414376 C14.9598001,16.8297751 15.6246801,16.9752176 15.8947876,17.5154326 L24.8706677,31.8519077 L38.7084828,35.2801953 C28.1523252,24.0460024 17.1088766,13.2798532 5.60992504,3.01273752 L5.60992504,3.01273752 Z" id="Shape"></path>
                    <path d="M26.4497577,34.5529828 L42.9678703,61.1066279 L64.4102505,67.4437655 C58.3639979,57.9068929 50.0529979,47.7466954 41.4095578,38.2513778 L26.4497577,34.5529828 L26.4497577,34.5529828 Z M22.9591377,47.9752479 C26.9691952,57.6160079 31.3948027,67.6515405 35.9450753,77.0637481 L41.3056703,62.602608 L25.0784427,36.4852903 L22.9591377,47.9752479 Z M81.6971306,128.488061 C82.1750131,124.311783 82.9230031,113.154266 78.3727306,97.7581382 L64.1609205,95.1609507 L72.5134755,108.624771 C72.8874705,109.102653 72.6796955,109.809088 72.1394805,110.120751 C71.661598,110.453191 70.913608,110.286971 70.6019455,109.746756 L62.1662805,96.1167157 L56.8056854,112.136168 C67.9424255,125.392213 77.8325156,127.947846 81.6971306,128.488061 Z M44.7131803,63.932368 L62.561053,92.6260957 L77.6247406,95.3687257 C74.7984212,86.5783014 70.9416078,78.1532912 66.134783,70.2695055 L44.7131803,63.932368 L44.7131803,63.932368 Z M55.1434854,110.141528 L60.6703004,93.7065257 L42.8224278,64.971243 L37.3371678,79.8271556 C41.2433378,87.7641606 45.2118403,95.1817282 49.1387879,101.498088 C51.1749829,104.739378 53.1696229,107.627451 55.1434854,110.141528 L55.1434854,110.141528 Z" id="Shape"></path>
                </g>
                <g id="Group" transform="translate(41.555000, 103.887501)" fill="#D18A00">
                    <path d="M23.2915777,0.789545006 L15.2091301,2.95040502 C13.5053751,3.38673252 13.4222651,4.36327503 15.0429101,5.15282004 L21.1722727,8.10322506 C21.472458,8.24472194 21.8166714,8.26068964 22.1286671,8.14759119 C22.4406628,8.03449274 22.6946875,7.80166374 22.8344727,7.50067756 L24.9330002,2.68029752 C25.5355477,1.24665001 24.7875577,0.394772503 23.2915777,0.789545006 L23.2915777,0.789545006 Z" id="Shape"></path>
                    <ellipse id="Oval" transform="translate(110.311017, 133.516690) rotate(-73.776000) translate(-110.311017, -133.516690) " cx="110.227907" cy="128.841752" rx="10.3056401" ry="5.71381254"></ellipse>
                </g>
                <path d="M291.134332,150.844651 C287.065377,137.57089 282.378402,124.494509 277.088742,111.658286 C274.013672,101.601976 271.686592,92.9585357 270.190612,86.9330606 C266.444783,89.0206354 261.8999,89.083108 258.098107,87.0992806 C254.233492,176.691861 263.126262,192.191876 264.746907,217.789757 C287.352827,253.423169 288.16315,263.811919 288.16315,263.811919 C288.16315,263.811919 314.571352,245.299167 308.504322,190.363456 C303.752989,183.008234 299.444402,175.376277 295.601495,167.508206" id="Shape" fill="#FFD100"></path>
                <path d="M298.593455,182.571894 C297.79544,177.511612 296.790351,172.486165 295.580717,167.508206 C294.257448,161.917437 292.767732,156.367377 291.113555,150.865429 C287.026021,137.597848 282.339351,124.522315 277.067965,111.679063 C272.559247,100.750098 268.673854,92.3352107 266.803879,88.2835981 C265.014024,88.6881456 263.158824,88.7093883 261.360174,88.3459306 C260.508297,97.9866907 257.433227,139.209251 263.313259,176.317866 C271.707369,229.549822 291.923877,248.831342 291.923877,248.831342 C291.923877,248.831342 305.907135,228.718722 298.593455,182.571894 L298.593455,182.571894 Z" id="Shape" fill="#001970"></path>
                <path d="M272.663135,148.683791 L265.681894,104.552381 C265.349454,102.557741 262.710712,102.807071 262.606824,105.695143 C262.045832,119.096631 261.796502,137.983379 263.417147,157.264899 L272.663135,148.683791 Z M280.01837,195.225391 L276.569305,173.409016 L266.866212,183.049776 C268.403747,191.173779 270.232167,198.383571 272.185252,204.845374 L280.01837,195.225391 L280.01837,195.225391 Z M263.645699,160.194526 C264.123582,165.472011 264.830017,170.749496 265.640339,175.943871 C265.889669,177.419074 266.076667,178.873499 266.325997,180.265591 L276.153755,170.604054 L273.12024,151.467976 L263.645699,160.194526 L263.645699,160.194526 Z M267.988197,104.199163 L275.052547,148.933121 L290.635672,157.701226 C285.235959,139.032729 278.621534,120.737216 270.834714,102.931736 C270.190612,101.207203 267.593424,101.581198 267.988197,104.199163 L267.988197,104.199163 Z M286.064622,220.470054 L280.620917,198.155019 L272.995575,207.484117 C275.758982,216.044447 278.709387,223.108797 281.51435,228.697944 L286.064622,220.470054 Z M275.509652,151.862749 C276.52775,158.199886 277.545847,164.495469 278.43928,170.292391 L295.89238,180.244814 C294.73231,173.728825 293.283383,167.267581 291.549882,160.880184 L275.509652,151.862749 L275.509652,151.862749 Z M278.875607,173.201241 L282.324672,194.830619 L298.323347,203.474059 C298.070917,196.675077 297.418762,189.896831 296.370262,183.174441 L278.875607,173.201241 Z M296.287152,229.840707 L287.643712,222.423139 L282.781777,231.232799 C286.397062,237.923154 289.555242,242.348762 291.549882,244.779729 C292.838087,242.016322 294.791172,237.112832 296.287152,229.840707 Z M298.344125,206.154357 L282.92722,197.843356 C284.111537,202.601404 287.477492,216.501552 288.32937,219.992172 L296.765035,227.264297 C297.783132,221.488152 298.46879,214.465357 298.344125,206.154357 Z" id="Shape" fill="#FFD100"></path>
            </g>
        </g>
    </g>
</svg>