<svg xmlns="http://www.w3.org/2000/svg" viewBox="0 0 24 16"><path d="M19.585,9.032c0,0.212,0.172,0.385,0.387,0.385c0.213,0,0.388-0.171,0.388-0.385c0-0.215-0.174-0.389-0.388-0.389 C19.757,8.644,19.585,8.817,19.585,9.032z M20.275,9.032c0,0.166-0.135,0.303-0.304,0.303c-0.168,0-0.304-0.137-0.304-0.303 c0-0.169,0.136-0.305,0.304-0.305S20.275,8.863,20.275,9.032z"/><path d="M19.812,9.253h0.083V9.072h0.06l0.083,0.181h0.092l-0.087-0.188C20.095,9.047,20.13,9,20.13,8.94 c0-0.071-0.058-0.131-0.131-0.131h-0.187C19.812,8.809,19.812,9.253,19.812,9.253z M19.896,8.894H20 c0.025,0,0.048,0.021,0.048,0.047c0,0.028-0.021,0.05-0.048,0.05h-0.104V8.894z"/><path d="M18.959,9.22c0.58-0.794,0.915-1.63,0.915-2.456c0-1.883-1.877-3.313-5.139-3.313 c-0.118,0-0.237,0.002-0.356,0.006c-0.301-0.592-0.984-0.87-1.438-0.952l-0.848-1.341l-1.923,3.14 c-3.435,1.264-6.215,3.736-6.215,6.12c0,0.857,0.391,1.622,1.123,2.198l-1.42,2.321c0,0,2.934-0.426,6.311-0.607l0.247-0.655 c1.344-0.13,2.694-0.481,3.938-0.99c-0.007,0.052-0.03,0.256,0.056,0.429l0.222,0.446c0.355,0.706,0.995,1.367,2.097,1.367 c3.078,0,3.987-2.562,3.987-2.562C20.515,10.938,19.858,9.9,18.959,9.22z" fill="#2a6190"/><g fill="#adafaa"><path d="M12.554,11.493c-1.563,0-2.609,0.783-4.032,0.783c-1.981,0-2.589-1.398-2.589-2.366 c0-2.981,3.514-4.778,3.514-4.778l0.07-0.113C9.505,5.024,9.476,5.039,9.43,5.062C8.847,5.349,5.692,7.036,5.692,9.91 c0,0.46,0.106,0.876,0.292,1.231c0.041,0.08,0.088,0.159,0.137,0.232l-1.998,3.263c0,0,2.464-0.352,5.676-0.529l0.745-1.971 c0.652-0.192,1.288-0.386,2.108-0.386c1.739,0,2.856,0.933,2.856,0.933S14.872,11.493,12.554,11.493z"/><path d="M12.674,2.526l-0.579-0.913L7.947,8.39c0,0.081,0.007,0.228,0.038,0.396 c0.088,0.481,0.376,1.161,1.313,1.161c1.875,0,4.584-1.733,6.646-1.733c0.015,0,0.029,0,0.045,0.002 c0.094,0,0.191,0.004,0.289,0.011L12.674,2.526z"/></g><g fill="#75263d"><path d="M12.099 2.064L7.985 8.785c.088.481.376 1.161 1.313 1.161 1.875 0 4.584-1.733 6.646-1.733.015 0 .029 0 .045.002L12.099 2.064M6.275 11.578l-1.687 2.756c0 0 2.101-.281 5.044-.457l.627-1.66c-.559.16-1.15.298-1.896.298C7.526 12.515 6.769 12.17 6.275 11.578z"/></g><path d="M19.974,12.72c-0.029-0.483-0.399-1.164-0.399-1.164c-0.196,0.299-0.518,0.649-0.613,0.75l-0.002,0.896l-0.058,0.006 L18.78,13.22l-0.31-0.478c-2.239,1.572-3.921,0.605-3.921,0.605l0.504,0.775c0.899,1.151,3.836,0.736,5.088-1.396L19.974,12.72z"/><g fill="#fff"><path d="M10.709 12.379l-.2.528c1.183-.041 2.381-.281 3.49-.667C12.781 11.674 10.9 12.312 10.709 12.379zM9.43 5.062C6.793 6.086 4.75 7.921 4.75 9.766c0 .798.355 1.417.919 1.89l.315-.514C5.798 10.786 5.692 10.37 5.692 9.91 5.692 7.035 8.846 5.348 9.43 5.062zM18.608 8.979c.315-.519.491-1.059.491-1.6 0-2.057-2.376-2.94-4.573-3.114-.015.169-.054.354-.122.555l2.176 3.44C17.26 8.351 17.976 8.587 18.608 8.979zM13.554 3.921c.311.066.548.245.691.558.179-.682-.045-1.681-1.572-1.951-.099-.017-.202-.031-.31-.042-.09-.009-.183-.017-.281-.021l-.118.568-.398.122-.245.89L11 4.304 10.529 5.07c1.035-.73 2.011-1.178 2.724-1.179C13.361 3.892 13.46 3.9 13.554 3.921z"/><path d="M15.945,8.402c-2.259,0-4.74,1.761-6.688,1.761c-0.579,0-0.753-0.215-0.753-0.215l-0.084,0.13 c0,0-2.388-1.146,0.873-4.694c0,0-2.807,1.464-3.031,4.426l0.17-0.142c0,0-0.089,1.994,2.169,1.994 c1.814,0,2.458-0.674,4.143-0.674c3.593,0,4.169,2.048,4.169,2.048s-2.355,0.693-2.511-0.606c0,0-0.359,1.523,2.659,0.758 c0,0,0.191-0.299,0.168-0.688c0,0,0.279,0.279,0.326,0.492c0,0,0.229-0.261-0.138-0.964c0,0,0.313,0.286,0.518,0.703l0.126-0.106 c0,0,0.01-0.305-0.598-1.123l-0.412,0.259c0,0-0.961-1.814-4.531-1.582c0,0,2.974-1.055,4.703,1.094l0.373-0.255 c0,0,1.038,1.008,1.305,2.188l0.057-0.005l0.003-0.895l0.004-1.069l0.299,0.352c0,0,0.146-0.265-0.027-0.817 c0,0,0.699,0.683,0.906,1.957l0.056-0.708C20.196,11.407,19.182,8.402,15.945,8.402z"/></g><g fill="#adafaa"><path d="M12.124 6.911l-.845 2.247c0 0-1.177.444-1.954.571 1.557.119 4.263-1.645 6.029-1.645-.797-.249-2.708.505-2.708.505L12.124 6.911zM11.05 4.539c1.907-1.065 2.688-.779 2.98-.523-.908-.952-2.821.28-2.821.28L11.05 4.539zM17.363 13.903l.138-.228c-1.865.617-2.637-.021-2.637-.021C15.495 14.363 16.853 14.054 17.363 13.903z"/><path d="M15.146,14.034c0.538,0.657,2.173,0.589,3.452-0.177l0.096-0.253 C17.893,14.153,16.107,14.665,15.146,14.034z"/></g><g fill="#2a6190"><path d="M12.103 7.644c-.161.427-.344.913-.518 1.374l.839-.345C12.324 8.354 12.211 7.993 12.103 7.644zM13.914 3.715c-.645-.614-2.168-.112-2.168-.112l-.042.163C13.238 3.193 13.914 3.715 13.914 3.715z"/><path d="M17.018 8.705c0 0 1.069.332 1.549 1.276l-.207.363-.025.374-.337-.362-.177.111c0 0-.92-1.299-3.199-1.299-2.369 0-3.458 1.403-5.491 1.403-2.583 0-1.847-2.594-1.674-3.12 0 0-.503.938-.503 1.799 0 .464.079 1.636 2.041 1.636 1.798 0 3.596-1.517 5.695-1.517 1.463 0 2.713 1.041 3.038 1.452l.235-.124.482.508.104-.768.291-.448C18.838 9.992 18.418 8.969 17.018 8.705zM19.264 11.588l-.299-.352-.004 1.069c.095-.101.417-.451.613-.75 0 0 .37.681.399 1.164l.168.008c-.206-1.274-.907-1.957-.907-1.957C19.409 11.323 19.264 11.588 19.264 11.588z"/></g></svg>