<svg xmlns="http://www.w3.org/2000/svg" viewBox="0 0 24 16"><path d="M19.585 9.032c0 .212.172.385.387.385a.386.386 0 1 0 0-.774.388.388 0 0 0-.387.389zm.69 0a.304.304 0 1 1-.607-.001.304.304 0 0 1 .607.001z"/><path d="M19.812 9.253h.083v-.181h.06l.083.181h.092l-.087-.188a.128.128 0 0 0 .087-.125.131.131 0 0 0-.131-.131h-.187v.444zm.084-.359H20a.048.048 0 0 1 0 .097h-.104v-.097z"/><path d="M18.959 9.22c.58-.794.915-1.63.915-2.456 0-1.883-1.877-3.313-5.139-3.313-.118 0-.237.002-.356.006-.301-.592-.984-.87-1.438-.952l-.848-1.341-1.923 3.14c-3.435 1.264-6.215 3.736-6.215 6.12 0 .857.391 1.622 1.123 2.198l-1.42 2.321s2.934-.426 6.311-.607l.247-.655a14.096 14.096 0 0 0 3.938-.99.788.788 0 0 0 .056.429l.222.446c.355.706.995 1.367 2.097 1.367 3.078 0 3.987-2.562 3.987-2.562-.001-1.433-.658-2.471-1.557-3.151z" fill="#2a6190"/><g fill="#adafaa"><path d="M12.554 11.493c-1.563 0-2.609.783-4.032.783-1.981 0-2.589-1.398-2.589-2.366 0-2.981 3.514-4.778 3.514-4.778l.07-.113-.087.043c-.583.287-3.738 1.974-3.738 4.848a2.635 2.635 0 0 0 .429 1.463l-1.998 3.263s2.464-.352 5.676-.529l.745-1.971c.652-.192 1.288-.386 2.108-.386 1.739 0 2.856.933 2.856.933s-.636-1.19-2.954-1.19z"/><path d="M12.674 2.526l-.579-.913L7.947 8.39c0 .081.007.228.038.396.088.481.376 1.161 1.313 1.161 1.875 0 4.584-1.733 6.646-1.733a4.075 4.075 0 0 1 .334.013l-3.604-5.701z"/></g><path d="M12.099 2.064L7.985 8.785c.088.481.376 1.161 1.313 1.161 1.875 0 4.584-1.733 6.646-1.733.015 0 .029 0 .045.002l-3.89-6.151m-5.824 9.514l-1.687 2.756s2.101-.281 5.044-.457l.627-1.66c-.559.16-1.15.298-1.896.298-.837 0-1.594-.345-2.088-.937z" fill="#75263d"/><path d="M19.974 12.72c-.029-.483-.399-1.164-.399-1.164a6.462 6.462 0 0 1-.613.75l-.002.896-.058.006-.122.012-.31-.478c-2.239 1.572-3.921.605-3.921.605l.504.775c.899 1.151 3.836.736 5.088-1.396l-.167-.006z"/><g fill="#fff"><path d="M10.709 12.379l-.2.528a11.996 11.996 0 0 0 3.49-.667c-1.218-.566-3.099.072-3.29.139zM9.43 5.062C6.793 6.086 4.75 7.921 4.75 9.766c0 .798.355 1.417.919 1.89l.315-.514a2.642 2.642 0 0 1-.292-1.232c0-2.875 3.154-4.562 3.738-4.848zm9.178 3.917c.315-.519.491-1.059.491-1.6 0-2.057-2.376-2.94-4.573-3.114a2.398 2.398 0 0 1-.122.555l2.176 3.44c.68.091 1.396.327 2.028.719zm-5.054-5.058a.939.939 0 0 1 .691.558c.179-.682-.045-1.681-1.572-1.951a4.56 4.56 0 0 0-.591-.063l-.118.568-.398.122-.245.89-.321.259-.471.766c1.035-.73 2.011-1.178 2.724-1.179.108.001.207.009.301.03z"/><path d="M15.945 8.402c-2.259 0-4.74 1.761-6.688 1.761-.579 0-.753-.215-.753-.215l-.084.13s-2.388-1.146.873-4.694c0 0-2.807 1.464-3.031 4.426l.17-.142s-.089 1.994 2.169 1.994c1.814 0 2.458-.674 4.143-.674 3.593 0 4.169 2.048 4.169 2.048s-2.355.693-2.511-.606c0 0-.359 1.523 2.659.758 0 0 .191-.299.168-.688 0 0 .279.279.326.492 0 0 .229-.261-.138-.964 0 0 .313.286.518.703l.126-.106s.01-.305-.598-1.123l-.412.259s-.961-1.814-4.531-1.582c0 0 2.974-1.055 4.703 1.094l.373-.255s1.038 1.008 1.305 2.188l.057-.005.003-.895.004-1.069.299.352s.146-.265-.027-.817c0 0 .699.683.906 1.957l.056-.708c-.003-.614-1.017-3.619-4.254-3.619z"/></g><g fill="#adafaa"><path d="M12.124 6.911l-.845 2.247s-1.177.444-1.954.571c1.557.119 4.263-1.645 6.029-1.645-.797-.249-2.708.505-2.708.505l-.522-1.678zM11.05 4.539c1.907-1.065 2.688-.779 2.98-.523-.908-.952-2.821.28-2.821.28l-.159.243zm6.313 9.364l.138-.228c-1.865.617-2.637-.021-2.637-.021.631.709 1.989.4 2.499.249z"/><path d="M15.146 14.034c.538.657 2.173.589 3.452-.177l.096-.253c-.801.549-2.587 1.061-3.548.43z"/></g><g fill="#2a6190"><path d="M12.103 7.644l-.518 1.374.839-.345-.321-1.029zm1.811-3.929c-.645-.614-2.168-.112-2.168-.112l-.042.163c1.534-.573 2.21-.051 2.21-.051z"/><path d="M17.018 8.705s1.069.332 1.549 1.276l-.207.363-.025.374-.337-.362-.177.111s-.92-1.299-3.199-1.299c-2.369 0-3.458 1.403-5.491 1.403-2.583 0-1.847-2.594-1.674-3.12 0 0-.503.938-.503 1.799 0 .464.079 1.636 2.041 1.636 1.798 0 3.596-1.517 5.695-1.517 1.463 0 2.713 1.041 3.038 1.452l.235-.124.482.508.104-.768.291-.448c-.002.003-.422-1.02-1.822-1.284zm2.246 2.883l-.299-.352-.004 1.069c.095-.101.417-.451.613-.75 0 0 .37.681.399 1.164l.168.008c-.206-1.274-.907-1.957-.907-1.957.175.553.03.818.03.818z"/></g></svg>