<?xml version="1.0" encoding="UTF-8"?>
<svg width="512px" height="512px" viewBox="0 0 512 512" version="1.1" xmlns="http://www.w3.org/2000/svg" xmlns:xlink="http://www.w3.org/1999/xlink">
    <!-- Generator: Sketch 41.2 (35397) - http://www.bohemiancoding.com/sketch -->
    <title>colorado-avalanche</title>
    <desc>Created with Sketch.</desc>
    <defs></defs>
    <g id="NHL" stroke="none" stroke-width="1" fill="none" fill-rule="evenodd">
        <g id="colorado-avalanche">
            <g id="col" transform="translate(77.000000, 117.000000)">
                <path d="M329.85196,159.745007 C329.85196,163.961384 333.272794,167.402107 337.548837,167.402107 C341.799705,167.402107 345.245714,163.956098 345.245714,159.70523 C345.245714,155.454362 341.799705,152.008353 337.548837,152.008353 C335.502222,152.013621 333.541523,152.831691 332.098078,154.282597 C330.654632,155.733503 329.846678,157.698392 329.85196,159.745007 L329.85196,159.745007 Z M343.575074,159.745007 C343.699916,161.984387 342.574859,164.10887 340.652369,165.26405 C338.729879,166.41923 336.325889,166.415269 334.407216,165.253762 C332.488543,164.092254 331.370492,161.964075 331.502711,159.725119 C331.691626,156.526103 334.343699,154.030149 337.548283,154.035429 C340.752867,154.040708 343.396701,156.545387 343.575074,159.745007 L343.575074,159.745007 Z" id="Shape" fill="#000000"></path>
                <path d="M334.366666,164.140381 L336.017417,164.140381 L336.017417,160.54055 L337.210732,160.54055 L338.861483,164.140381 L340.691232,164.140381 L338.960926,160.40133 C340.021574,160.043224 340.723816,159.034255 340.691232,157.915259 C340.691232,157.224263 340.416735,156.561568 339.928127,156.07296 C339.439519,155.584353 338.776824,155.309856 338.085829,155.309856 L334.366666,155.309856 L334.366666,164.140381 L334.366666,164.140381 Z M336.037306,157.000384 L338.105717,157.000384 C338.638449,157.000384 339.070313,157.432248 339.070313,157.96498 C339.070313,158.497711 338.638449,158.929576 338.105717,158.929576 L336.037306,158.929576 L336.037306,157.000384 Z" id="Shape" fill="#000000"></path>
                <path d="M317.401714,163.484059 C328.937086,147.692533 335.599757,131.065687 335.599757,114.637727 C335.599757,77.1875464 298.268908,48.746889 233.392388,48.746889 C231.045536,48.746889 228.678796,48.7866661 226.312056,48.8662204 C220.325596,37.092186 206.741702,31.5631631 197.71229,29.9323003 L180.846782,3.26172574 L142.601058,65.7118406 C74.2838149,90.8509951 18.9935859,140.015544 18.9935859,187.429899 C18.9935859,204.474405 26.7700174,219.689162 41.3284518,231.144979 L13.0866801,277.306354 C13.0866801,277.306354 71.4397492,268.833822 138.603456,265.233991 L143.515933,252.206976 C170.436442,249.458089 196.817149,242.826068 221.837128,232.517291 C221.405073,235.409566 221.790869,238.365035 222.950888,241.049488 L227.366151,249.919791 C234.426593,263.961122 247.155279,277.107468 269.072485,277.107468 C330.289509,277.107468 348.36822,226.152948 348.36822,226.152948 C348.348332,197.652625 335.28154,177.008287 317.401714,163.484059 L317.401714,163.484059 Z" id="Shape" fill="#2A6190"></path>
                <g id="Group" transform="translate(19.888572, 0.000000)" fill="#ADAFAA">
                    <path d="M170.126841,208.690782 C139.041004,208.690782 118.237558,224.263533 89.9361208,224.263533 C50.5368604,224.263533 38.4446089,196.45931 38.4446089,177.207173 C38.4446089,117.919341 108.33305,82.1795779 108.33305,82.1795779 L109.72525,79.9321693 L107.994944,80.7873779 C96.3999066,86.4953979 33.6514632,120.047418 33.6514632,177.207173 C33.5661892,187.535026 36.534527,197.657819 42.1836604,206.304153 L2.44629431,271.200562 C2.44629431,271.200562 51.4517347,264.199785 115.333827,260.679508 L130.150813,221.479133 C143.118161,217.660528 155.767293,213.802145 172.075922,213.802145 C206.662148,213.802145 228.877682,232.358182 228.877682,232.358182 C228.877682,232.358182 216.22855,208.690782 170.126841,208.690782 L170.126841,208.690782 Z" id="Shape"></path>
                    <path d="M172.51347,30.3499603 L160.997987,12.1916944 L78.5001921,146.976544 C78.5001921,148.587518 78.6394121,151.511138 79.2559578,154.852419 C81.0061521,164.418821 86.7340608,177.94305 105.369652,177.94305 C142.660724,177.94305 196.538865,143.476156 237.549099,143.476156 C239.765964,143.471452 241.982089,143.557709 244.191882,143.734707 L172.51347,30.3499603 L172.51347,30.3499603 Z" id="Shape"></path>
                </g>
                <path d="M180.966113,21.1614402 L99.1445294,154.83253 C100.894724,164.398933 106.622632,177.923162 125.258224,177.923162 C162.549296,177.923162 216.427436,143.456267 257.437671,143.456267 C257.735999,143.456267 258.014439,143.456267 258.332657,143.496044 L180.966113,21.1614402 L180.966113,21.1614402 Z M65.135072,210.38131 L31.5830517,265.194214 C31.5830517,265.194214 73.3689406,259.605525 131.901007,256.105137 L144.371141,223.090108 C133.25343,226.272279 121.499284,229.016902 106.66241,229.016902 C90.0156751,229.016902 74.9600264,222.155345 65.135072,210.38131 L65.135072,210.38131 Z" id="Shape" fill="#75263D"></path>
                <path d="M337.588614,233.094059 C337.011846,223.487879 329.653074,209.943762 329.653074,209.943762 C325.968082,215.213917 321.892738,220.200065 317.46138,224.860191 L317.421603,242.680351 L316.268066,242.799682 L313.84166,243.038345 L307.676203,233.531608 C263.145691,264.796442 229.693113,245.564194 229.693113,245.564194 L239.716954,260.977837 C257.596779,283.869582 316.009514,275.615825 340.910006,233.213391 L337.588614,233.094059 L337.588614,233.094059 Z" id="Shape" fill="#000000"></path>
                <g id="Group" transform="translate(19.888572, 19.888572)" fill="#FFFFFF">
                    <path d="M133.432427,206.423485 L129.454713,216.92465 C153.121978,215.97282 176.51557,211.501895 198.865827,203.658973 C174.641547,192.402042 137.231144,205.09095 133.432427,206.423485 Z M107.994944,60.8988062 C55.5487805,81.2647036 14.9164287,117.760232 14.9164287,154.454647 C14.9164287,170.325727 21.9768716,182.636753 33.194026,192.044047 L39.4589261,181.821322 C35.5657093,174.245187 33.5726599,165.836156 33.6514632,157.318601 C33.6514632,100.138958 96.380018,66.5869377 107.994944,60.8988062 L107.994944,60.8988062 Z M290.532254,138.802341 C296.797154,128.480173 300.297543,117.740344 300.297543,106.980627 C300.297543,66.0698349 253.042297,48.5082261 209.347105,45.0476147 C208.978652,48.8101647 208.164133,52.51556 206.920699,56.0857719 L250.198231,124.502458 C263.722459,126.312318 277.962677,131.006021 290.532254,138.802341 L290.532254,138.802341 Z M190.015413,38.205946 C196.16695,39.3679414 201.327071,43.5348692 203.758416,49.303769 C207.31847,35.7397632 202.86343,15.8710801 172.493582,10.5011658 C168.60695,9.82834016 164.680563,9.40979134 160.739436,9.2481858 L158.392584,20.5448945 L150.476933,22.9713002 L145.604233,40.6721289 L139.220001,45.823269 L129.852484,61.0579148 C150.437156,46.5392576 169.848401,37.6291775 184.028953,37.6092889 C186.176919,37.6291775 188.145887,37.788286 190.015413,38.205946 L190.015413,38.205946 Z" id="Shape"></path>
                    <path d="M237.568988,127.326635 C192.640705,127.326635 143.297158,162.35041 104.554221,162.35041 C93.038738,162.35041 89.5781265,158.074367 89.5781265,158.074367 L87.9074865,160.659881 C87.9074865,160.659881 40.4135775,137.867578 105.270209,67.3029263 C105.270209,67.3029263 49.442989,96.4197951 44.987949,155.329744 L48.3690061,152.505567 C48.3690061,152.505567 46.5989233,192.163379 91.5073179,192.163379 C127.585187,192.163379 140.393427,178.758482 173.90567,178.758482 C245.365308,178.758482 256.821125,219.490276 256.821125,219.490276 C256.821125,219.490276 209.983539,233.273056 206.880922,207.437802 C206.880922,207.437802 199.740925,237.728096 259.764634,222.513339 C259.764634,222.513339 263.563351,216.566656 263.105914,208.830002 C263.105914,208.830002 268.654825,214.378913 269.589588,218.615179 C269.589588,218.615179 274.144071,213.424262 266.844965,199.442596 C266.844965,199.442596 273.070088,205.130728 277.147245,213.424262 L279.653205,211.316073 C279.653205,211.316073 279.852091,205.250059 267.759839,188.981207 L259.565748,194.132347 C259.565748,194.132347 240.452831,158.054479 169.45063,162.668627 C169.45063,162.668627 228.599242,141.686184 262.986582,184.426724 L270.40502,179.355139 C270.40502,179.355139 291.049357,199.402819 296.359605,222.871333 L297.493254,222.771891 L297.55292,204.971619 L297.632474,183.710736 L303.579157,190.711513 C303.579157,190.711513 306.482888,185.441042 303.042166,174.46255 C303.042166,174.46255 316.944277,188.046445 321.061211,213.384485 L322.174971,199.303376 C322.115306,187.091793 301.948294,127.326635 237.568988,127.326635 L237.568988,127.326635 Z" id="Shape"></path>
                </g>
                <g id="Group" transform="translate(119.331430, 39.777143)" fill="#ADAFAA">
                    <path d="M62.1318977,77.7842035 L45.3260547,122.473824 C45.3260547,122.473824 21.9172059,131.30435 6.46378577,133.830198 C37.4302918,136.196938 91.2487665,101.113498 126.371984,101.113498 C110.520792,96.1612437 72.5137321,111.157227 72.5137321,111.157227 L62.1318977,77.7842035 L62.1318977,77.7842035 Z M40.7715718,30.6085117 C78.6990778,9.42718294 94.2320523,15.1153144 100.039515,20.2067887 C81.9806921,1.27286858 43.9338547,25.7755888 43.9338547,25.7755888 L40.7715718,30.6085117 L40.7715718,30.6085117 Z M166.328124,216.845096 L169.072747,212.310502 C131.980561,224.581751 116.626584,211.892842 116.626584,211.892842 C129.176273,225.993839 156.184953,219.84827 166.328124,216.845096 Z" id="Shape"></path>
                    <path d="M122.235161,219.450499 C132.935213,232.517291 165.453027,231.164868 190.89051,215.930222 L192.799813,210.898413 C176.869067,221.817239 141.348078,232.000188 122.235161,219.450499 L122.235161,219.450499 Z" id="Shape"></path>
                </g>
                <g id="Group" transform="translate(59.665715, 39.777143)" fill="#2A6190">
                    <path d="M121.379952,92.3625265 L111.077672,119.689424 L127.764184,112.827867 L121.379952,92.3625265 Z M157.398156,14.2203287 C144.570027,2.00874573 114.279732,11.9928087 114.279732,11.9928087 L113.444412,15.2346458 C143.953481,3.83849432 157.398156,14.2203287 157.398156,14.2203287 L157.398156,14.2203287 Z" id="Shape"></path>
                    <path d="M219.132282,113.464301 C219.132282,113.464301 240.393165,120.067307 249.939679,138.842118 L245.822745,146.06167 L245.325531,153.499996 L238.623082,146.300333 L235.102805,148.507964 C235.102805,148.507964 216.805319,122.67271 171.479264,122.67271 C124.363238,122.67271 102.704584,150.576376 62.2711177,150.576376 C10.8989372,150.576376 25.5369259,98.9854209 28.9776488,88.5240322 C28.9776488,88.5240322 18.9736973,107.179512 18.9736973,124.303573 C18.9736973,133.53187 20.5448945,156.841276 59.566272,156.841276 C95.3259237,156.841276 131.085575,126.670313 172.831687,126.670313 C201.928667,126.670313 226.789382,147.374316 233.253168,155.548519 L237.926982,153.082336 L247.513274,163.18573 L249.581685,147.911307 L255.369259,139.001227 C255.329482,139.060893 246.976282,118.714884 219.132282,113.464301 Z M263.802014,170.803053 L257.855331,163.802276 L257.775777,185.063159 C259.665191,183.054413 266.069311,176.093413 269.967471,170.14673 C269.967471,170.14673 277.326242,183.690847 277.903011,193.297027 L281.244291,193.456136 C277.147245,168.118096 263.205357,154.534201 263.205357,154.534201 C266.685857,165.532581 263.802014,170.803053 263.802014,170.803053 L263.802014,170.803053 Z" id="Shape"></path>
                </g>
            </g>
        </g>
    </g>
</svg>