<?xml version="1.0" encoding="UTF-8"?>
<svg width="512px" height="512px" viewBox="0 0 512 512" version="1.1" xmlns="http://www.w3.org/2000/svg" xmlns:xlink="http://www.w3.org/1999/xlink">
    <!-- Generator: Sketch 41.2 (35397) - http://www.bohemiancoding.com/sketch -->
    <title>dallas-stars</title>
    <desc>Created with Sketch.</desc>
    <defs></defs>
    <g id="NHL" stroke="none" stroke-width="1" fill="none" fill-rule="evenodd">
        <g id="dallas-stars">
            <g id="dal" transform="translate(26.000000, 72.000000)">
                <g id="Group" transform="translate(276.000000, 322.000000)" fill="#FFFFFF">
                    <path d="M33.235,16.146 C33.235,11.5921361 29.5433639,7.9005 24.9895,7.9005 C20.4356361,7.9005 16.744,11.5921361 16.744,16.146 C16.5828724,19.1957432 18.1182662,22.0853703 20.7358298,23.658665 C23.3533934,25.2319597 26.6256066,25.2319597 29.2431702,23.658665 C31.8607338,22.0853703 33.3961276,19.1957432 33.235,16.146 L33.235,16.146 Z M18.515,16.146 C18.3715812,13.740793 19.57329,11.4543049 21.6356333,10.2083796 C23.6979765,8.96245423 26.2810235,8.96245423 28.3433667,10.2083796 C30.40571,11.4543049 31.6074188,13.740793 31.464,16.146 C31.2597075,19.5720904 28.4216759,22.2459356 24.9895,22.2459356 C21.5573241,22.2459356 18.7192925,19.5720904 18.515,16.146 L18.515,16.146 Z" id="Shape"></path>
                    <path d="M28.382,20.838 L26.519,16.859 C27.8040155,16.4039483 28.5760686,15.0911661 28.3491998,13.7469684 C28.122331,12.4027707 26.9621842,11.4160982 25.599,11.408 L21.62,11.408 L21.62,20.838 L23.391,20.838 L23.391,17.02 L24.656,17.02 L26.45,20.838 L28.382,20.838 L28.382,20.838 Z M25.599,15.249 L23.391,15.249 L23.391,13.202 L25.599,13.202 C26.174,13.202 26.634,13.662 26.634,14.237 C26.6214944,14.7996129 26.1617518,15.249139 25.599,15.249 L25.599,15.249 Z" id="Shape"></path>
                </g>
                <path d="M67.252,286.35 L30.544,286.35 L80.546,202.63 L0,137.747 L119.324,137.747 L132.112,116.311 L169.947,116.311 L240.189,0 L251.988,116.909 C271.768,118.91 287.914,126.04 299.092,137.747 L447.879,137.747 L306.498,213.463 C304.886131,216.924997 303.113193,220.309696 301.185,223.606 C291.847,239.729 280.485,252.264 266.639,261.878 L276.575,360.502 L184,285.936 C179.584,286.166 175.03,286.327 170.453,286.373 L17.94,368 L67.252,286.35 L67.252,286.35 Z" id="Shape" fill="#FFFFFF"></path>
                <path d="M80.914,278.599 L44.16,278.599 L90.62,200.836 L21.896,145.452 L123.74,145.452 L136.528,124.039 L174.317,124.039 L234.853,23.805 L244.95,124.131 C267.283,125.097 284.717,132.411 295.665,145.452 L417.105,145.452 L300.518,207.92 C298.77,211.83 296.746,215.832 294.423,219.765 C284.855,236.256 273.01,248.837 258.428,258.083 L267.007,342.93 L186.507,278.093 C180.665,278.438 174.616,278.599 168.452,278.599 L39.077,347.898 L80.914,278.599 L80.914,278.599 Z" id="Shape" fill="#111111"></path>
                <path d="M355.557,160.885 L287.569,160.885 C280.324,147.499 263.741,139.472 239.936,139.472 L230.989,139.472 L224.112,71.415 L183.011,139.472 L145.291,139.472 L132.48,160.885 L65.642,160.885 L110.745,197.248 L71.369,263.143 L135.953,263.143 L102.925,272.09 L81.374,307.74 L164.588,263.166 L168.038,263.166 C176.433,263.166 184.184,262.821 191.429,262.269 L247.917,307.763 L242.972,260.337 C227.7,261.947 212.911,260.682 206.08,260.498 C245.824,254.15 266.708,236.808 281.129,212.037 C290.973,195.201 293.71,180.09 290.444,168.107 C296.079,175.007 299,182.068 300.081,190.923 L355.557,160.885 L355.557,160.885 Z" id="Shape" fill="#FFFFFF"></path>
                <path d="M242.972,260.268 L247.917,307.694 L223.284,261.119 C229.333,261.165 236.118,261.05 242.972,260.268 L242.972,260.268 Z M224.112,71.392 L207.989,139.449 L230.989,139.449 L224.112,71.392 L224.112,71.392 Z M121.992,178.434 L65.642,160.885 L110.745,197.248 L121.992,178.434 Z M156.469,172.615 L212.405,172.615 C228.528,172.615 238.142,175.605 240.557,183.862 L263.925,172.454 C257.577,157.642 239.384,156.009 227.999,156.009 L160.954,156.009 L160.816,155.963 L107.41,245.502 L143.543,227.838 L170.476,183.862 L156.469,172.615 Z M287.569,160.885 L263.925,172.477 C265.466,176.502 267.628,186.116 261.763,200.422 C255.047,216.706 235.083,245.502 180.55,245.502 L107.41,245.502 L71.369,263.166 L135.953,263.166 L127.65,265.42 L81.374,307.717 L164.588,263.143 L168.038,263.143 C176.433,263.143 184.184,262.775 191.429,262.246 L206.08,260.452 C245.824,254.104 266.708,236.762 281.129,211.991 C290.973,195.155 293.71,180.044 290.444,168.061 C290.467,168.061 289.294,164.243 287.569,160.885 L287.569,160.885 Z M295.642,175.858 C298.034,180.435 299.46,185.311 300.081,190.877 L355.534,160.862 L295.642,175.858 L295.642,175.858 Z" id="Shape" fill="#8F8F8C"></path>
                <path d="M212.382,172.615 L156.469,172.615 L170.476,183.885 L143.543,227.838 L180.596,227.838 C192.947,227.838 207.207,227.355 219.075,220.409 C234.025,211.623 242.926,196.121 240.856,185.265 C239.108,175.927 229.425,172.615 212.382,172.615 L212.382,172.615 Z" id="Shape" fill="#111111"></path>
            </g>
        </g>
    </g>
</svg>