<svg xmlns="http://www.w3.org/2000/svg" viewBox="0 0 24 16"><g fill="#FFF"><path d="M16.445,14.702c0-0.199-0.16-0.359-0.358-0.359c-0.199,0-0.359,0.161-0.359,0.359 c0,0.198,0.16,0.359,0.359,0.359C16.285,15.06,16.445,14.9,16.445,14.702z M15.805,14.702c0-0.156,0.126-0.282,0.282-0.282 c0.155,0,0.281,0.126,0.281,0.282c0,0.155-0.126,0.282-0.281,0.282C15.931,14.984,15.805,14.857,15.805,14.702z"/><path d="M16.234,14.906l-0.081-0.173c0.047-0.017,0.081-0.062,0.081-0.115c0-0.067-0.055-0.122-0.121-0.122 h-0.173v0.41h0.077V14.74h0.055l0.078,0.166H16.234z M16.113,14.663h-0.096v-0.089h0.096c0.025,0,0.045,0.02,0.045,0.045 C16.157,14.643,16.138,14.663,16.113,14.663z"/></g><path fill="#FFF" d="M5.924,12.45H4.328l2.174-3.64L3,5.989h5.188l0.556-0.932h1.645L13.443,0l0.513,5.083 c0.86,0.087,1.562,0.397,2.048,0.906h6.469l-6.147,3.292c-0.068,0.146-0.146,0.296-0.231,0.441c-0.406,0.701-0.9,1.246-1.502,1.664 l0.432,4.288L11,12.432c-0.192,0.01-0.39,0.017-0.589,0.019L3.78,16L5.924,12.45z"/><path fill="#111" d="M6.518,12.113H4.92l2.02-3.381L3.952,6.324H8.38l0.556-0.931h1.643l2.632-4.358l0.439,4.362 c0.971,0.042,1.729,0.36,2.205,0.927h5.28L16.066,9.04c-0.076,0.17-0.164,0.344-0.265,0.515c-0.416,0.717-0.931,1.264-1.565,1.666 l0.373,3.689l-3.5-2.819c-0.254,0.015-0.517,0.022-0.785,0.022l-5.625,3.013L6.518,12.113z"/><path fill="#FFF" d="M18.459,6.995h-2.956c-0.315-0.582-1.036-0.931-2.071-0.931h-0.389l-0.299-2.959l-1.787,2.959h-1.64 L8.76,6.995H5.854l1.961,1.581l-1.712,2.865h2.808L7.475,11.83l-0.937,1.55l3.618-1.938h0.15c0.365,0,0.702-0.015,1.017-0.039 l2.456,1.978l-0.215-2.062c-0.664,0.07-1.307,0.015-1.604,0.007c1.728-0.276,2.636-1.03,3.263-2.107 c0.428-0.732,0.547-1.389,0.405-1.91C15.873,7.609,16,7.916,16.047,8.301L18.459,6.995z"/><path fill="#8F8F8C" d="M13.564,11.316l0.215,2.062l-1.071-2.025C12.971,11.355,13.266,11.35,13.564,11.316 M12.744,3.104 l-0.701,2.959h1L12.744,3.104z M8.304,7.758l-2.45-0.763l1.961,1.581L8.304,7.758z M9.803,7.505h2.432 c0.701,0,1.119,0.13,1.224,0.489l1.016-0.496c-0.276-0.644-1.067-0.715-1.562-0.715H9.998L9.992,6.781L7.67,10.674l1.571-0.768 l1.171-1.912L9.803,7.505z M15.503,6.995l-1.028,0.504c0.067,0.175,0.161,0.593-0.094,1.215c-0.292,0.708-1.16,1.96-3.531,1.96 H7.67l-1.567,0.768h2.808L8.55,11.54l-2.012,1.839l3.618-1.938h0.15c0.365,0,0.702-0.016,1.017-0.039l0.637-0.078 c1.728-0.276,2.636-1.03,3.263-2.107c0.428-0.732,0.547-1.389,0.405-1.91C15.629,7.307,15.578,7.141,15.503,6.995 M15.854,7.646 c0.104,0.199,0.166,0.411,0.193,0.653l2.411-1.305L15.854,7.646z"/><path fill="#111" d="M12.234,7.505H9.803l0.609,0.49L9.241,9.906h1.611c0.537,0,1.157-0.021,1.673-0.323 c0.65-0.382,1.037-1.056,0.947-1.528C13.396,7.649,12.975,7.505,12.234,7.505z"/></svg>
