<svg xmlns="http://www.w3.org/2000/svg" viewBox="0 0 24 16"><g fill="#FFF"><path d="M16.445 14.702a.358.358 0 1 0-.717 0 .359.359 0 1 0 .717 0zm-.64 0a.282.282 0 1 1 .563 0 .282.282 0 0 1-.563 0z"/><path d="M16.234 14.906l-.081-.173a.122.122 0 0 0-.04-.237h-.173v.41h.077v-.166h.055l.078.166h.084zm-.121-.243h-.096v-.089h.096c.025 0 .045.02.045.045a.045.045 0 0 1-.045.044z"/></g><path fill="#FFF" d="M5.924 12.45H4.328l2.174-3.64L3 5.989h5.188l.556-.932h1.645L13.443 0l.513 5.083c.86.087 1.562.397 2.048.906h6.469l-6.147 3.292a5.324 5.324 0 0 1-.231.441c-.406.701-.9 1.246-1.502 1.664l.432 4.288L11 12.432c-.192.01-.39.017-.589.019L3.78 16l2.144-3.55z"/><path fill="#111" d="M6.518 12.113H4.92l2.02-3.381-2.988-2.408H8.38l.556-.931h1.643l2.632-4.358.439 4.362c.971.042 1.729.36 2.205.927h5.28L16.066 9.04c-.076.17-.164.344-.265.515-.416.717-.931 1.264-1.565 1.666l.373 3.689-3.5-2.819c-.254.015-.517.022-.785.022l-5.625 3.013 1.819-3.013z"/><path fill="#FFF" d="M18.459 6.995h-2.956c-.315-.582-1.036-.931-2.071-.931h-.389l-.299-2.959-1.787 2.959h-1.64l-.557.931H5.854l1.961 1.581-1.712 2.865h2.808l-1.436.389-.937 1.55 3.618-1.938h.15c.365 0 .702-.015 1.017-.039l2.456 1.978-.215-2.062c-.664.07-1.307.015-1.604.007 1.728-.276 2.636-1.03 3.263-2.107.428-.732.547-1.389.405-1.91.245.3.372.607.419.992l2.412-1.306z"/><path fill="#8F8F8C" d="M13.564 11.316l.215 2.062-1.071-2.025c.263.002.558-.003.856-.037m-.82-8.212l-.701 2.959h1l-.299-2.959zm-4.44 4.654l-2.45-.763 1.961 1.581.489-.818zm1.499-.253h2.432c.701 0 1.119.13 1.224.489l1.016-.496c-.276-.644-1.067-.715-1.562-.715H9.998l-.006-.002-2.322 3.893 1.571-.768 1.171-1.912-.609-.489zm5.7-.51l-1.028.504c.067.175.161.593-.094 1.215-.292.708-1.16 1.96-3.531 1.96H7.67l-1.567.768h2.808l-.361.098-2.012 1.839 3.618-1.938h.15c.365 0 .702-.016 1.017-.039l.637-.078c1.728-.276 2.636-1.03 3.263-2.107.428-.732.547-1.389.405-1.91.001 0-.05-.166-.125-.312m.351.651c.104.199.166.411.193.653l2.411-1.305-2.604.652z"/><path fill="#111" d="M12.234 7.505H9.803l.609.49-1.171 1.911h1.611c.537 0 1.157-.021 1.673-.323.65-.382 1.037-1.056.947-1.528-.076-.406-.497-.55-1.238-.55z"/></svg>