<?xml version="1.0" encoding="UTF-8"?>
<svg width="512px" height="512px" viewBox="0 0 512 512" version="1.1" xmlns="http://www.w3.org/2000/svg" xmlns:xlink="http://www.w3.org/1999/xlink">
    <!-- Generator: Sketch 41.2 (35397) - http://www.bohemiancoding.com/sketch -->
    <title>detroit-red-wings</title>
    <desc>Created with Sketch.</desc>
    <defs></defs>
    <g id="NHL" stroke="none" stroke-width="1" fill="none" fill-rule="evenodd">
        <g id="detroit-red-wings">
            <g id="det" transform="translate(45.000000, 103.000000)">
                <g id="Group" transform="translate(211.000628, 230.182503)" fill="#CE1126">
                    <path d="M8.5167526,14.7124983 C5.77211645,14.7159247 3.23779606,16.1833369 1.86844541,18.5619748 C0.499094766,20.9406126 0.502750811,23.8691045 1.87803635,26.2443159 C3.25332189,28.6195273 5.79129833,30.0806069 8.53593448,30.0771804 C12.7787742,30.0718833 16.2139813,26.6280881 16.2086844,22.3852484 C16.2033874,18.1424087 12.7595923,14.7072015 8.5167526,14.7124983 Z M8.5167526,28.4083572 C5.19028145,28.4083572 2.49364378,25.7117195 2.49364378,22.3852484 C2.49364378,19.0587772 5.19028145,16.3621396 8.5167526,16.3621396 C11.8432238,16.3621396 14.5398614,19.0587772 14.5398614,22.3852484 C14.5398614,25.7117195 11.8432238,28.4083572 8.5167526,28.4083572 L8.5167526,28.4083572 Z" id="Shape"></path>
                    <path d="M11.681762,20.601334 C11.6713149,19.164919 10.509442,18.003046 9.07302698,17.992599 L5.37092506,17.992599 L5.37092506,26.7587159 L7.02056633,26.7587159 L7.02056633,23.210069 L8.2098426,23.210069 L9.87866574,26.7778978 L11.7009439,26.7778978 L9.95539324,23.0757959 C10.9941899,22.6963984 11.6842984,21.7072429 11.681762,20.601334 L11.681762,20.601334 Z M9.09220886,21.5604278 L7.03974821,21.5604278 L7.03974821,19.6422402 L9.09220886,19.6422402 C9.61011949,19.6422402 10.0513026,20.0642415 10.0513026,20.601334 C10.0513026,21.1384265 9.61011949,21.5604278 9.09220886,21.5604278 L9.09220886,21.5604278 Z" id="Shape"></path>
                </g>
                <path d="M381.64259,94.4323718 C398.82955,79.7390553 415.498599,56.0494394 415.498599,28.907086 C415.498599,24.9748015 410.703131,23.8622528 408.746579,26.5285334 C391.041708,50.7168781 374.334295,59.9049963 364.244629,63.3960976 C381.02877,50.6976962 397.486818,29.9429072 401.706831,6.40674633 C401.98941,4.78976144 401.190273,3.17637147 399.732767,2.42127782 C398.275261,1.66618416 396.496361,1.94396469 395.338448,3.10746379 C374.79466,23.6512522 346.482212,45.5761355 270.445259,45.5761355 C252.069022,45.5761355 231.064869,45.039043 217.484101,45.039043 C155.756827,45.039043 133.064668,83.2301566 127.943108,93.8185517 C122.867522,93.074736 117.746467,92.6837668 112.616789,92.6484574 C54.0303856,92.7119074 6.55551629,140.195359 6.5026557,198.781773 C6.56610577,257.357583 54.040969,304.823864 112.616789,304.876725 C155.349213,305.031353 193.954421,279.393011 210.386808,239.946077 C211.556902,240.061168 212.784542,240.272169 213.839545,240.272169 C227.28604,240.272169 230.105775,236.339885 230.105775,233.02142 C230.105775,231.237506 228.341043,229.108318 227.477858,227.842314 C247.196826,227.746405 252.989752,226.806493 261.525687,223.871666 C262.861165,223.440773 263.757129,222.186423 263.731603,220.783384 C263.731603,217.867739 257.746857,213.053088 253.430936,209.293441 C281.014472,208.833076 301.328078,203.903334 301.328078,197.458224 C301.328078,196.211402 301.212987,194.619306 293.88551,188.845562 C309.461193,184.606367 336.795365,174.113881 336.795365,167.265952 C336.795365,164.638035 334.512722,163.007576 331.82726,161.127752 C356.07315,151.997179 376.425119,135.922768 376.425119,130.149023 C376.425119,125.487828 369.596372,125.10419 366.181998,124.835644 C378.26658,117.105348 395.069902,103.9274 395.069902,98.230383 C395.089084,92.3607292 385.84342,94.6817361 381.64259,94.4323718 Z" id="Shape" fill="#CE1126"></path>
                <path d="M374.545296,95.928558 C393.861444,81.4654241 412.218499,56.4714407 412.218499,28.8879041 C412.218499,28.3124478 411.662224,28.2165385 411.41286,28.4659028 C381.54668,69.2273877 354.404327,68.8245683 354.404327,68.8245683 C353.21505,68.8245683 352.946504,67.1557452 353.905598,66.5035614 C373.164201,55.1670732 393.82308,31.7843673 398.465094,5.83129007 C398.541822,5.48601632 398.023911,5.06401506 397.659455,5.42847069 C375.71539,27.3533541 345.599846,48.8754181 270.445259,48.8754181 C246.372005,48.8754181 233.827059,48.3383256 217.484101,48.3383256 C152.342453,48.3383256 132.297393,91.6509998 129.918841,97.3863805 C76.6413217,88.3088888 25.4285284,122.021563 12.7036914,174.547494 C-0.0211455702,227.073425 30.0847876,280.486227 81.6097445,296.797994 C133.134701,313.10976 188.493915,286.753507 208.315165,236.474158 C210.252534,236.819432 212.093994,236.992068 213.820363,236.992068 C224.293667,236.992068 226.825675,234.65188 226.825675,233.02142 C226.825675,231.908872 220.112018,224.600577 223.449665,224.600577 C246.678915,224.600577 251.896386,223.737393 260.43232,220.802566 C256.346581,214.395819 241.538173,206.090067 249.153377,206.090067 C285.982578,206.090067 298.067159,198.973592 298.067159,197.477405 C298.067159,195.712673 286.327852,187.272648 286.327852,187.272648 C303.284629,184.472094 333.534446,170.910508 333.534446,167.285134 C333.534446,165.194309 324.902603,161.664844 326.30288,159.650748 C353.176687,150.711994 373.164201,133.333215 373.164201,130.168205 C373.164201,127.636198 357.396699,127.923926 357.396699,127.923926 L357.396699,126.255103 C371.054194,119.157809 391.808983,102.028394 391.808983,98.2687468 C391.808983,95.8518305 372.320198,99.8800243 374.545296,95.928558 L374.545296,95.928558 Z" id="Shape" fill="#FFFFFF"></path>
                <path d="M137.879319,179.350533 C134.510529,174.998953 130.087028,171.578992 125.027463,169.414322 L124.202642,170.239143 L125.929011,181.97845 C126.446922,182.400452 126.964832,182.841635 127.463561,183.321182 L136.057041,183.378727 L137.879319,179.350533 L137.879319,179.350533 Z M100.628117,170.392598 L110.123146,177.509073 C110.804206,177.425505 111.489463,177.380675 112.175606,177.3748 L120.634813,169.030685 L120.462176,167.879772 C113.875479,166.215357 106.930388,166.685528 100.628117,169.222503 L100.628117,170.392598 L100.628117,170.392598 Z M121.229451,173.154788 L116.587438,177.739256 C118.563171,178.103712 120.423813,178.755895 122.169363,179.61908 L121.229451,173.154788 L121.229451,173.154788 Z M124.701371,216.467462 C123.071851,217.581171 121.296876,218.465432 119.426355,219.095379 L124.643825,222.9893 L124.701371,216.467462 Z M82.1943354,245.834913 L97.3480168,230.930596 C91.4352109,228.126902 86.4106173,223.746147 82.8273372,218.270558 L70.109754,235.323245 C73.6200371,239.370621 77.6865947,242.919268 82.1943354,245.834913 Z M130.302478,186.697192 C131.127299,187.886468 131.837028,189.210017 132.412485,190.57193 C132.892032,189.670382 133.601761,188.366015 134.4074,186.735555 L130.302478,186.697192 L130.302478,186.697192 Z M101.817394,232.71451 L100.704845,232.330873 L85.1483441,247.638009 C91.2656019,251.090869 97.9833599,253.34965 104.944039,254.29412 L101.817394,232.71451 L101.817394,232.71451 Z M130.187387,211.959721 L129.40093,212.074813 C128.990877,212.612374 128.548898,213.124814 128.077381,213.609363 L127.96229,225.482943 L128.902202,226.173491 C131.760301,224.466304 134.349854,222.317934 136.536588,219.805108 C133.39076,216.947009 131.108117,214.223183 130.187387,211.959721 L130.187387,211.959721 Z M100.532208,181.076902 C102.143486,179.964353 103.9274,179.081987 105.807224,178.448985 L100.589754,174.574246 L100.532208,181.076902 Z M81.0050591,215.143913 C80.8132403,214.779457 80.6406035,214.453365 80.4871485,214.088909 L58.6581744,213.897091 C60.576362,220.764202 63.7605533,227.094221 67.9613839,232.618601 L81.0050591,215.143913 Z M124.605461,227.151766 L115.091251,220.054473 C114.416981,220.144432 113.738108,220.195668 113.057973,220.207928 L104.617947,228.532861 L104.771403,229.702956 C111.358174,231.382884 118.310134,230.905525 124.605461,228.341043 L124.605461,227.151766 L124.605461,227.151766 Z M104.004127,224.408758 L108.646141,219.82429 C106.698884,219.468499 104.812671,218.835455 103.045034,217.944466 L104.004127,224.408758 L104.004127,224.408758 Z M127.923926,230.930596 L127.732107,252.75957 C134.599218,250.841382 140.929237,247.638009 146.472799,243.45636 L128.959747,230.412685 L127.923926,230.930596 Z M94.9119186,210.866354 C93.798112,209.230014 92.9139067,207.448695 92.2840017,205.572157 L88.3900811,210.789627 L94.9119186,210.866354 L94.9119186,210.866354 Z M97.7891999,214.242364 L85.9156192,214.146455 L85.2442535,215.067185 C88.6969911,220.860111 93.933643,225.482943 100.206116,228.149224 L101.050119,227.324403 L99.3237499,215.585096 C98.7951905,215.157379 98.2832947,214.70947 97.7891999,214.242364 L97.7891999,214.242364 Z M97.156198,183.954183 L97.2521074,172.080603 L96.3313774,171.370873 C90.4991638,174.862288 85.925364,180.114434 83.2685204,186.3711 L84.0741591,187.19592 L95.8134668,185.488733 C96.2546499,184.970823 96.695833,184.43373 97.156198,183.954183 L97.156198,183.954183 Z M86.9898042,190.149929 L91.5550905,194.811125 C91.938728,192.81621 92.5717299,190.955568 93.4349142,189.210017 L86.9898042,190.149929 L86.9898042,190.149929 Z M81.7339704,190.917204 C80.0277955,197.501566 80.5057301,204.46191 83.0958835,210.751263 L84.246796,210.770445 L91.3440898,201.256235 C91.2700715,200.580725 91.225272,199.902333 91.2098167,199.222956 L82.865701,190.744567 L81.7339704,190.917204 L81.7339704,190.917204 Z M105.346859,233.63524 L108.396777,254.677757 C113.746936,255.078737 119.126932,254.717057 124.375279,253.603572 L124.567098,232.350055 C118.399169,234.531628 111.750327,234.976211 105.346859,233.63524 Z M143.748973,156.50492 C143.748973,155.047097 143.710609,153.608457 143.653064,152.131452 L143.039244,151.709451 L127.885562,166.613768 C132.316575,168.704593 136.268042,171.754511 139.471415,175.418249 C141.811604,169.260867 143.748973,162.393756 143.748973,156.50492 L143.748973,156.50492 Z M96.2738318,167.170043 C96.6072044,166.974564 96.9532465,166.801543 97.309653,166.652132 L97.5014718,144.803976 C90.6343605,146.722164 84.3043416,149.906355 78.7607797,154.107186 L96.2738318,167.170043 L96.2738318,167.170043 Z M119.88672,163.909124 L116.836802,142.885789 C111.480282,142.483763 106.093808,142.845445 100.839118,143.959974 L100.666481,165.213491 C106.8368,163.045732 113.480099,162.59489 119.88672,163.909124 L119.88672,163.909124 Z M156.715921,233.347512 C150.59482,230.217362 144.793612,226.49765 139.394687,222.241206 C137.260496,224.669198 134.80871,226.798381 132.105575,228.571225 L149.158262,241.269627 C151.920452,238.891074 154.452459,236.224793 156.715921,233.347512 L156.715921,233.347512 Z M140.085235,149.906355 C133.95609,146.464765 127.234261,144.206803 120.270358,143.250244 L123.416185,164.829854 C123.799823,164.944945 124.164278,165.060036 124.528734,165.213491 L140.085235,149.906355 L140.085235,149.906355 Z M56.56735,198.781773 C56.56735,202.809967 56.9893513,206.742251 57.7949901,210.540263 L79.0485078,210.712899 C76.8546774,204.54797 76.4033457,197.897465 77.7441403,191.49266 L56.7208051,194.56176 C56.6214187,195.966263 56.570237,197.373761 56.56735,198.781773 L56.56735,198.781773 Z M57.1044426,191.128205 L78.7032341,187.982377 L79.0676897,186.869828 L63.7605533,171.294146 C60.3022466,177.422734 58.0432666,184.154104 57.1044426,191.128205 L57.1044426,191.128205 Z M65.5444677,168.359319 L80.4487847,183.513 C83.2493385,177.566619 87.6803517,172.56015 93.1088224,168.992321 L76.0753172,156.274737 C72.0093953,159.782828 68.4635457,163.851836 65.5444677,168.359319 L65.5444677,168.359319 Z" id="Shape" fill="#CE1126"></path>
                <ellipse id="Oval" fill="#CE1126" cx="112.616789" cy="198.781773" rx="11.5666708" ry="11.5666708"></ellipse>
                <path d="M112.616789,129.439294 C79.7627246,129.432743 51.4133782,152.482704 44.7163905,184.646969 C38.0194028,216.811235 54.8131357,249.260528 84.9395811,262.367278 C115.066027,275.474029 150.255301,265.640357 169.222503,238.814347 C166.517037,237.86607 163.860279,236.784161 161.262025,235.57261 C141.497496,261.69252 104.63215,267.539979 77.7549836,248.818221 C50.8778176,230.096462 43.5847207,193.489669 61.2347281,165.896852 C78.8847356,138.304036 115.176309,129.576591 143.442063,146.127525 C143.332301,142.993925 143.38352,139.856754 143.595518,136.728407 C133.976906,131.921907 123.369462,129.426038 112.616789,129.439294 L112.616789,129.439294 Z" id="Shape" fill="#CE1126"></path>
                <path d="M189.670382,241.518991 C185.201005,242.593176 179.408079,241.92181 173.212333,240.118714 C154.664643,267.258525 120.325815,278.744627 89.1817572,268.226364 C58.0376998,257.708102 37.6943679,227.754229 39.3995717,194.926216 C37.1361104,198.378954 37.7882942,204.056789 33.7601004,204.056789 C30.5759091,204.056789 32.3406416,199.702503 30.0004529,199.702503 C28.5618122,199.702503 28.3508116,201.697418 26.5477153,201.697418 C26.3175328,201.697418 26.1448959,201.620691 26.0106228,201.620691 C25.6078034,201.620691 25.4543484,202.483875 24.7062553,202.483875 C23.7663434,202.483875 23.1333415,201.352144 22.3660665,201.352144 C21.522064,201.352144 21.2535178,202.963422 20.1601509,202.963422 C19.0092384,202.963422 17.9158715,201.045234 17.4555065,200.162868 C18.054123,245.475038 50.5099707,284.084714 95.0447527,292.463512 C139.579535,300.842311 183.847685,276.667531 200.872597,234.671062 C193.674238,232.384247 186.685544,229.483522 179.983535,226.000854 C180.597355,232.350055 189.670382,241.518991 189.670382,241.518991 L189.670382,241.518991 Z M26.8354434,162.355392 C29.0413591,164.158488 27.2766266,167.342679 28.8495403,169.548595 C37.0014886,146.229856 54.504856,127.364688 77.1486616,117.491698 C99.7924672,107.618707 125.526924,107.631627 148.160804,117.52735 C148.966443,115.609162 149.887173,113.633429 150.942176,111.60015 C127.349271,101.219333 100.555349,100.848971 76.6845329,110.573717 C52.8137166,120.298463 33.9064511,139.287057 24.284254,163.199394 C25.0707109,163.717305 25.9338953,161.588117 26.8354434,162.355392 Z M228.878135,64.5086464 L281.263836,64.5086464 C348.189399,64.5086464 377.499305,40.5696661 389.027612,19.373694 C389.679795,18.0885083 388.874157,17.8199621 387.608153,18.9708746 C373.029928,32.0337316 351.296863,54.8601632 262.523144,54.8601632 L225.060942,54.8601632 C166.153403,54.8601632 143.959974,81.4270603 138.186229,99.1511131 C141.121056,99.8992062 144.036701,100.781572 146.856437,101.798212 C157.329741,82.9232466 177.298073,64.5086464 228.878135,64.5086464 L228.878135,64.5086464 Z" id="Shape" fill="#CE1126"></path>
                <path d="M227.650495,78.0126866 C175.22643,78.0126866 145.014977,114.017066 148.486896,148.410169 C151.057267,174.056336 136.728407,194.86867 136.728407,194.86867 C136.728407,194.86867 156.735102,185.814825 156.735102,149.311717 C156.735102,114.726796 191.147387,89.5409936 220.150382,89.5409936 C248.194284,89.5409936 280.745926,89.7136304 296.877883,89.7136304 C382.448228,89.7136304 403.164654,50.1797856 406.09948,42.4686718 C406.617391,41.3177592 405.869298,41.5479417 405.58157,42.0850343 C387.723244,66.1774695 362.710079,79.950056 294.844604,79.950056 C251.22502,79.950056 237.41407,78.0126866 227.650495,78.0126866 L227.650495,78.0126866 Z" id="Shape" fill="#CE1126"></path>
                <path d="M247.196826,107.974776 C233.040602,107.974776 231.621143,111.926242 231.621143,111.926242 C231.160778,112.482516 231.390961,113.767702 230.412685,114.151339 C227.170948,115.398161 223.60312,112.712699 220.821748,116.318891 C219.133743,118.486443 215.048003,115.820163 212.420086,117.354713 C211.825448,117.699986 212.420086,119.215355 212.880451,119.407173 C214.108091,119.944266 216.160552,119.790811 216.927827,120.423813 C217.752648,121.095178 217.656738,122.03509 218.424013,122.591365 C219.363925,123.281912 221.109476,123.588822 221.895933,124.663007 C222.490571,125.487828 222.701571,127.137469 223.583938,127.195015 C244.837455,128.403473 266.647248,128.403473 286.82658,120.59645 C289.090042,116.990257 267.030885,107.974776 247.196826,107.974776 L247.196826,107.974776 Z M163.678941,154.836097 C163.947488,156.888557 163.429577,160.053567 163.851578,160.091931 C178.740921,161.634713 193.769877,159.108893 207.336889,152.783636 C211.154083,151.172359 192.490118,141.447148 176.933617,141.447148 C171.888784,141.447148 168.47441,143.595518 168.47441,143.595518 C167.572862,144.094247 166.882314,146.146707 165.865675,147.642894 C165.117582,148.774624 166.556223,150.520175 165.961584,151.249086 C164.849036,152.610999 163.467941,153.43582 163.678941,154.836097 L163.678941,154.836097 Z M183.91582,118.831717 C183.186908,118.946808 182.649816,120.097721 182.112723,120.864996 C180.769992,122.764001 176.530798,122.342 176.54998,124.49037 C176.607525,128.422655 172.234058,129.132384 171.54351,131.95212 C170.987236,134.177217 169.79796,135.84604 169.625323,138.224593 C185.316097,138.30132 201.467236,137.303863 215.374095,129.305021 C219.037833,127.65538 196.230584,117.047803 183.91582,118.831717 L183.91582,118.831717 Z M233.846241,105.385223 C232.71451,100.839118 227.19013,99.9759337 223.430483,97.7891999 C221.934296,96.9068337 220.169564,97.309653 218.443195,98.0577462 C214.721911,99.6690237 209.907261,96.9260155 206.051704,99.7073874 C204.958337,100.513026 204.382881,101.990031 202.963422,102.354486 C201.179507,102.814851 199.414775,102.891579 197.611679,103.121761 C196.959495,103.217671 195.712673,103.658854 195.808582,104.406947 C196.173038,107.61032 193.180665,108.281686 190.821295,109.106506 C188.51947,109.912145 189.325109,112.962063 189.248381,115.206343 C204.555517,115.37898 220.43811,113.211428 233.846241,105.385223 Z M155.929464,180.885083 C159.842566,182.918362 178.851805,180.194536 188.768834,174.037154 C178.60244,165.386128 162.297846,162.259483 162.297846,162.259483 C160.034385,168.397683 157.694196,174.555065 155.929464,180.885083 L155.929464,180.885083 Z" id="Shape" fill="#CE1126"></path>
                <path d="M153.052182,184.472094 C151.191541,185.469552 149.062352,188.270105 150.750357,189.401836 C153.781094,191.454297 158.787563,196.038765 181.863359,196.038765 C204.344517,196.038765 212.899633,189.094926 217.138828,184.779004 C217.138828,181.97845 197.381496,176.300615 194.715215,177.854347 C193.909577,178.257167 193.813667,179.062805 193.698576,179.427261 C192.797028,179.791717 190.073202,179.83008 189.401836,180.309627 C187.867286,181.441358 188.174196,183.263636 187.752195,183.359545 C184.241912,184.241912 179.906808,182.035996 176.588343,183.551364 C175.686795,183.954183 175.763523,186.428645 174.593428,186.524555 C172.214876,186.697192 169.567777,185.258551 167.265952,185.987462 C166.863133,186.140917 165.635493,186.313554 164.810672,186.831465 C163.525486,186.179281 162.873303,186.025826 161.223661,185.623007 C160.015203,185.335278 158.825927,186.160099 157.348923,185.910735 C155.948646,185.680552 154.394914,183.781547 153.052182,184.472094 Z M244.204454,168.244228 C248.36692,166.076676 253.37339,165.884857 256.404126,161.760754 C237.778525,152.016361 216.026279,153.033001 213.37918,154.567551 C212.707814,154.951188 211.959721,156.313101 211.115719,156.831012 C209.849715,157.675014 208.641257,157.253013 207.797254,158.116198 C207.298526,158.614926 207.8548,159.957658 207.490344,160.456386 C207.029979,161.10857 205.994158,161.223661 205.361156,161.588117 C204.689791,161.952573 203.327877,161.357934 202.292056,161.799118 C201.256235,162.240301 201.217871,163.199394 200.546506,163.525486 C198.03368,164.79149 194.427487,163.333668 192.701119,163.333668 C191.818752,163.391213 192.048935,164.772308 192.317481,165.060036 C193.449212,166.153403 196.671767,166.479495 196.537494,168.129136 C196.518312,168.47441 195.731855,169.586959 195.252308,169.663686 C196.978677,173.308243 212.861269,178.142075 233.769513,171.198236 C237.241433,170.162415 240.866807,169.970596 244.204454,168.244228 Z M268.009161,141.408784 C269.716348,140.23869 271.903081,140.219508 272.919721,138.60823 C275.164,135.673403 253.392572,130.839571 244.549727,130.839571 C235.78361,130.839571 219.555744,133.045487 216.793554,134.023762 C215.642641,134.503309 215.585096,136.843498 214.223183,137.016135 C211.614448,137.342227 209.044076,137.649137 206.435341,137.879319 C205.572157,137.936865 205.783157,139.31796 206.051704,139.548142 C207.518915,140.59377 208.560699,142.132614 208.986531,143.883246 C209.063258,144.075065 210.827991,143.902428 211.211628,144.247702 C212.918815,145.705524 214.127273,147.796349 216.256461,148.314259 C226.57631,150.788721 236.531703,151.479269 247.081735,149.023989 C248.213465,148.755442 249.038286,147.834712 250.035744,147.719621 C253.737846,147.240074 257.593402,147.029074 260.470684,144.286065 C262.523144,142.310332 265.745699,142.924152 268.009161,141.408784 L268.009161,141.408784 Z M293.022326,96.8109243 C293.636146,96.4272868 293.137417,94.4707355 292.638688,94.4131899 C290.260136,94.0487342 287.689765,93.1088224 285.138575,95.3914655 C284.275391,96.1779224 282.664113,94.4899174 281.474837,95.2188286 C280.496561,95.7942849 279.537468,97.3480168 278.655101,97.7508362 C276.199821,98.8442031 273.821269,96.2930136 271.116624,96.5999237 C270.310986,96.6766512 270.521986,98.4605655 269.716348,98.6332024 C267.395341,99.1894768 265.362062,96.6382874 264.057694,97.5014718 C262.043598,98.8058393 260.355592,100.455481 257.919494,99.3621137 C255.579306,98.2879287 252.510206,96.1011949 250.898928,97.4822899 C248.117556,99.8992062 244.760728,96.388923 242.305448,97.3288349 C240.252987,98.1344737 234.690243,99.4580231 238.488255,101.663939 C250.265926,108.799596 274.85709,107.380138 293.022326,96.8109243 Z M176.24307,230.585322 C175.62925,229.453591 174.037154,230.067411 172.924605,229.396046 C172.118966,228.935681 171.735329,227.266858 170.968054,226.614674 C170.354234,226.135127 168.915593,227.247676 168.1675,226.806493 C167.093315,226.192673 166.287676,224.83076 165.462856,223.929211 C164.542126,222.89339 163.698123,221.800023 162.777393,220.783384 C161.979947,219.803779 161.027425,218.961413 159.957658,218.28974 C159.382201,217.944466 158.231289,218.692559 157.540741,218.519923 C156.293919,218.174649 155.545826,216.007097 154.548369,215.105549 C153.972912,214.587638 153.033001,214.510911 152.51509,214.012182 C151.977997,213.513453 151.862906,212.573541 151.306632,211.959721 C150.596902,211.134901 149.503536,210.847173 148.697897,210.194989 C147.60453,209.312622 146.818073,207.087525 145.97407,205.840703 C145.130068,204.593881 143.92161,204.459608 143.115971,203.385423 C142.118514,202.02351 141.543057,199.760049 140.315417,198.378954 C139.106959,196.997859 136.018677,199.203774 135.097947,201.064416 C133.563397,204.114334 133.659307,207.989073 135.999495,210.61699 C147.546984,223.50721 162.508847,234.191515 179.657443,237.030432 C178.353076,235.208154 177.029526,231.985599 176.24307,230.585322 L176.24307,230.585322 Z M214.184819,226.2694 C212.420086,225.789853 210.904718,224.83076 209.293441,224.159394 C208.295983,223.756575 207.356071,225.310306 206.301068,224.658123 C204.152698,223.372937 202.292056,221.531477 200.584869,220.169564 C199.222956,219.076197 196.49913,216.352371 195.329035,216.908645 C194.887852,217.119646 194.216487,219.651653 193.103938,218.807651 C190.418475,216.812736 188.692107,214.645184 186.179281,212.45845 C185.028368,211.441811 183.954183,214.741093 182.496361,214.050546 C179.158715,212.420086 177.815983,208.813894 175.22643,206.224341 C172.234058,203.25115 169.356776,199.779231 165.232673,198.666682 C164.542126,198.494045 164.925763,199.491502 164.273579,199.990231 C161.127752,202.464693 157.636651,198.24468 154.586732,196.844404 C151.786179,195.559218 149.311717,193.487575 146.146707,193.257393 C145.475342,193.199847 145.513705,194.235669 145.743888,194.523397 C163.755669,215.815278 188.768834,231.812962 216.218098,231.17996 C216.851099,231.160778 218.174649,231.237506 217.100464,229.913956 C216.198916,228.878135 215.259004,226.57631 214.184819,226.2694 L214.184819,226.2694 Z M239.677531,210.732081 C238.871892,210.61699 237.644252,211.710357 236.934523,211.576084 C234.805335,211.173264 233.11733,209.255077 230.527777,207.912346 C229.453591,207.356071 228.916499,209.868897 228.072496,209.811351 C223.775756,209.561987 217.599193,205.035064 213.781999,202.733239 C213.110634,202.33042 209.005712,203.136059 208.334347,203.270332 C205.879067,203.769061 202.752421,199.472321 200.815052,198.55159 C199.357229,197.880225 197.304769,197.151314 195.923674,198.187135 C194.024668,199.587412 191.780389,198.839319 189.727928,198.800955 C188.922289,198.781773 188.21256,200.48896 187.234284,200.79587 C184.414548,201.697418 181.287903,199.740867 178.525713,201.121962 C178.448985,201.160326 178.08453,201.735782 178.103712,201.946782 C178.29553,203.673151 180.213718,203.960879 181.498903,204.747336 C201.313781,217.292283 231.88969,221.35884 248.923195,217.560829 C249.326014,217.445738 248.712194,215.987915 247.580464,215.105549 C246.391187,214.184819 244.645637,213.858727 243.897544,213.321634 C242.151993,212.15154 241.250445,210.981446 239.677531,210.732081 L239.677531,210.732081 Z M279.537468,192.451754 C277.446643,193.084756 275.835366,191.550206 274.089815,192.20239 C273.686996,192.375027 273.41845,193.02721 273.073176,193.02721 C269.793075,193.084756 267.606341,189.555291 264.268695,189.823837 C263.424693,189.900565 263.443874,191.358387 262.753327,191.511842 C260.700866,191.991389 258.859406,189.516927 256.998764,190.399294 C255.907164,190.969551 254.625719,191.053123 253.469299,190.629476 C251.819658,190.149929 250.6112,188.672925 249.019104,188.442742 C247.638009,188.21256 246.21855,189.612837 244.645637,189.152472 C240.713352,187.982377 237.663434,184.261093 233.42424,185.14346 C231.352597,185.584643 229.549501,184.165184 228.11086,185.028368 C226.518765,185.96828 226.077581,187.100011 224.485486,188.059105 C223.392119,188.711289 220.860111,188.615379 219.728381,189.305927 C218.846014,189.823837 218.635014,191.166569 217.656738,191.569388 C215.796096,192.336663 213.628544,191.79957 211.882994,192.758664 C211.671993,192.873755 211.556902,193.852031 212.304995,194.04385 C228.456134,199.510684 254.581848,205.552975 285.809941,197.439042 C286.749853,197.132132 286.960853,196.575857 286.193578,195.674309 C284.46721,193.73694 282.107839,191.703661 279.537468,192.451754 L279.537468,192.451754 Z M316.903761,165.0984 C314.141571,166.383586 310.938197,164.964127 307.888279,165.673856 C307.101822,165.865675 307.696461,167.016588 306.910004,167.131679 C303.917631,167.534498 300.810167,166.786405 297.990432,167.879772 C295.784516,168.742956 293.137417,167.764681 290.720501,167.803045 C289.799771,167.841408 289.780589,169.069048 289.646316,170.085688 C289.512043,170.910508 288.265221,171.428419 287.862402,171.313328 C284.870029,170.41178 281.992748,170.124051 278.962011,169.663686 C271.327625,168.531956 263.769966,166.095858 256.595945,168.244228 C254.255756,168.973139 251.148292,169.529413 249.364378,171.370873 C248.67383,172.080603 247.944919,173.48088 247.024189,173.806971 C242.63154,175.418249 237.836071,175.725159 233.481785,177.278891 C232.158236,177.739256 229.64541,179.599898 230.585322,179.849262 C230.585322,179.849262 244.089362,183.762365 258.821042,183.762365 C287.171854,183.762365 308.770646,176.780162 324.576511,168.1675 C323.655781,166.978224 318.994585,164.139306 316.903761,165.0984 Z M348.016762,134.062126 C346.271212,134.637582 343.892659,132.987941 342.415655,134.081308 C340.190557,135.711767 337.581822,135.424039 335.318361,135.193857 C334.224994,135.078765 332.517807,134.695128 331.558713,135.443221 C330.944893,135.922768 331.846441,136.709225 332.421898,137.246317 C326.667335,139.22205 320.337316,137.361409 314.889664,139.567324 C314.486844,139.739961 314.23748,141.734876 313.240022,141.945877 C308.233553,142.943334 303.572357,140.986783 298.604252,141.888331 C297.35743,142.118514 297.913704,144.784794 296.609337,144.84234 C292.159142,145.072522 287.824038,144.688885 283.393025,144.497066 C278.118009,144.266884 273.245813,146.185071 268.258525,147.719621 C266.762339,148.160804 266.321156,150.520175 264.72906,150.769539 C260.413138,151.421723 256.039671,150.654448 252.107386,152.610999 C251.819658,152.745272 251.819658,154.04964 252.107386,154.222277 C256.922037,156.946103 262.446417,158.806745 265.745699,163.218576 C299.256435,162.873303 335.337543,158.480653 363.247171,135.596676 C363.784264,135.155493 360.484981,134.464945 358.720249,134.042944 C356.974698,133.640125 355.555239,133.640125 353.445233,132.949577 C351.565409,132.354939 349.83904,133.467488 348.016762,134.062126 L348.016762,134.062126 Z M382.812684,102.527123 C380.124078,101.850661 377.330941,101.694402 374.583659,102.066758 C373.989021,102.201031 373.624566,103.179307 373.068291,103.275216 C369.462099,103.850672 366.891728,105.596223 363.208807,105.692133 C362.023211,105.855328 360.870865,106.204917 359.794434,106.727954 C358.451702,107.360956 356.629424,105.807224 355.574421,106.977318 C354.903055,107.725411 356.07315,109.547689 354.864692,110.123146 C351.642137,111.638514 347.901671,108.933869 344.775025,110.967148 C343.854295,111.561786 345.753301,113.556701 344.564025,113.921157 C340.056284,115.340616 332.230079,108.320049 329.295252,115.609162 C328.834887,116.740893 327.415428,116.222982 326.533062,116.011981 C325.669878,115.781799 324.480601,115.398161 323.962691,115.820163 C321.181319,118.064442 319.570041,118.96599 315.676121,117.872623 C314.678663,117.584895 314.659481,120.519722 312.760476,120.059357 C310.592924,119.541446 308.482917,117.949351 306.488002,118.850899 C305.567272,119.253718 306.238638,121.689816 304.895907,121.82409 C299.467436,122.342 293.866329,121.555543 288.859859,123.799823 C287.632219,124.336915 287.517128,126.581195 285.790759,126.849741 C281.973566,127.482743 278.175555,127.04156 274.607726,128.192472 C274.051451,128.365109 274.166543,130.072296 275.029727,130.187387 C277.31237,130.532661 279.901923,130.168205 281.666656,131.223208 C283.815026,132.508394 285.196121,136.114587 287.286945,136.210496 C330.350255,137.035317 361.444075,121.613089 382.793502,103.831491 C383.656686,103.083397 383.234685,102.776487 382.812684,102.527123 L382.812684,102.527123 Z M372.243471,77.2645934 C371.610469,77.5715034 371.821469,79.6815097 370.574648,80.256966 C368.464641,81.2352416 366.047725,81.1968778 363.784264,81.8874254 C362.940261,82.1559716 362.978625,83.2877022 362.268896,83.7288854 C361.079619,84.4961604 359.44916,83.8631585 358.566794,84.5153423 C353.119141,88.5051723 346.654849,86.7212579 340.612558,87.7187154 C340.708468,92.2648199 333.534446,89.4834479 330.580438,91.4591811 C327.377065,93.626733 327.799066,93.0320949 323.003597,93.0704586 C321.526593,93.0896405 322.332231,95.2763743 321.123773,95.314738 C317.30658,95.3722836 312.376838,94.1638255 309.537921,95.007828 C309.02001,95.161283 308.866555,97.5590174 307.849916,97.8275637 C305.778273,98.383838 303.572357,98.6140206 301.596624,99.2470224 C300.062074,99.7265693 302.056989,102.642214 300.004529,103.294398 C296.494245,104.406947 292.638688,103.601308 289.128405,105.596223 C287.728128,106.401862 285.69485,105.634587 283.910935,105.979861 C282.376385,106.267589 281.781747,107.878866 283.028569,108.569414 C284.179482,109.202416 286.059305,109.029779 287.171854,109.586053 C289.780589,110.871239 291.909777,112.712699 294.710331,112.885336 C340.190557,115.68589 399.021369,83.3644297 408.286214,44.1950405 C408.612306,42.6221268 407.883395,42.9098549 407.557303,43.7922211 C397.659455,67.2900183 372.243471,77.2645934 372.243471,77.2645934 Z" id="Shape" fill="#CE1126"></path>
            </g>
        </g>
    </g>
</svg>