<svg width="512" height="512" viewBox="0 0 512 512" xmlns="http://www.w3.org/2000/svg"><title>detroit-red-wings</title><g transform="translate(45 103)" fill="none" fill-rule="evenodd"><g fill="#CE1126"><path d="M219.517 244.895a7.682 7.682 0 1 0 .02 15.365 7.682 7.682 0 0 0-.02-15.365zm0 13.696a6.023 6.023 0 1 1 0-12.046 6.023 6.023 0 0 1 0 12.046z"/><path d="M222.682 250.784a2.628 2.628 0 0 0-2.608-2.609h-3.702v8.766h1.65v-3.548h1.188l1.67 3.567h1.822l-1.746-3.702a2.628 2.628 0 0 0 1.726-2.474zm-2.59.959h-2.052v-1.918h2.053c.518 0 .959.422.959.959 0 .537-.441.959-.96.959z"/></g><path d="M381.643 94.432c17.187-14.693 33.856-38.383 33.856-65.525 0-3.932-4.796-5.045-6.752-2.378-17.705 24.188-34.413 33.376-44.502 36.867 16.784-12.698 33.242-33.453 37.462-56.99a3.76 3.76 0 0 0-6.369-3.299c-20.543 20.544-48.856 42.47-124.893 42.47-18.376 0-39.38-.538-52.96-.538-61.728 0-84.42 38.191-89.542 48.78a110.967 110.967 0 0 0-15.326-1.17C54.03 92.711 6.556 140.194 6.503 198.781c.063 58.576 47.538 106.042 106.114 106.095 42.732.154 81.337-25.484 97.77-64.93 1.17.114 2.398.325 3.453.325 13.446 0 16.266-3.932 16.266-7.25 0-1.784-1.765-3.914-2.628-5.18 19.719-.096 25.512-1.036 34.048-3.97a3.184 3.184 0 0 0 2.206-3.089c0-2.915-5.985-7.73-10.301-11.49 27.583-.46 47.897-5.39 47.897-11.835 0-1.247-.115-2.839-7.442-8.612 15.575-4.24 42.91-14.732 42.91-21.58 0-2.628-2.283-4.258-4.969-6.138 24.246-9.13 44.598-25.205 44.598-30.979 0-4.661-6.829-5.045-10.243-5.313 12.085-7.73 28.888-20.909 28.888-26.606.02-5.87-9.227-3.548-13.427-3.798z" fill="#CE1126"/><path d="M374.545 95.929c19.316-14.464 37.673-39.458 37.673-67.041 0-.576-.556-.671-.805-.422-29.866 40.761-57.009 40.359-57.009 40.359-1.189 0-1.457-1.67-.498-2.321 19.258-11.337 39.917-34.72 44.56-60.673.076-.345-.442-.767-.807-.403-21.944 21.925-52.06 43.447-127.214 43.447-24.073 0-36.618-.537-52.96-.537-65.143 0-85.188 43.313-87.566 49.048-53.278-9.077-104.49 24.636-117.215 77.161-12.725 52.526 17.38 105.94 68.906 122.251 51.525 16.312 106.884-10.044 126.705-60.324 1.938.345 3.779.518 5.505.518 10.474 0 13.006-2.34 13.006-3.97 0-1.113-6.714-8.421-3.376-8.421 23.229 0 28.446-.864 36.982-3.798-4.085-6.407-18.894-14.713-11.279-14.713 36.83 0 48.914-7.116 48.914-8.613 0-1.764-11.74-10.204-11.74-10.204 16.958-2.8 47.207-16.362 47.207-19.988 0-2.09-8.631-5.62-7.231-7.634 26.874-8.939 46.861-26.318 46.861-29.483 0-2.532-15.767-2.244-15.767-2.244v-1.669c13.657-7.097 34.412-24.227 34.412-27.986 0-2.417-19.489 1.611-17.264-2.34z" fill="#FFF"/><path d="M137.88 179.35a32.34 32.34 0 0 0-12.853-9.936l-.824.825 1.726 11.74c.518.421 1.036.863 1.535 1.342l8.593.058 1.822-4.028zm-37.252-8.957l9.495 7.116a18.127 18.127 0 0 1 2.053-.134l8.459-8.344-.173-1.151a32.072 32.072 0 0 0-19.834 1.343v1.17zm20.601 2.762l-4.642 4.584a21.276 21.276 0 0 1 5.582 1.88l-.94-6.464zm3.472 43.312a21.522 21.522 0 0 1-5.275 2.628l5.218 3.894.057-6.522zm-42.507 29.368l15.154-14.904a35.563 35.563 0 0 1-14.52-12.66L70.11 235.323a56.968 56.968 0 0 0 12.084 10.512zm48.108-59.138a21.573 21.573 0 0 1 2.11 3.875c.48-.902 1.19-2.206 1.995-3.836l-4.105-.039zm-28.485 46.018l-1.112-.384-15.557 15.307a55.436 55.436 0 0 0 19.796 6.656l-3.127-21.58zm28.37-20.755l-.786.115a16.88 16.88 0 0 1-1.324 1.534l-.115 11.874.94.69a31.613 31.613 0 0 0 7.635-6.368c-3.146-2.858-5.429-5.582-6.35-7.845zm-29.655-30.883a21.191 21.191 0 0 1 5.275-2.628l-5.217-3.875-.058 6.503zm-19.527 34.067c-.192-.365-.364-.69-.518-1.055l-21.829-.192a55.64 55.64 0 0 0 9.303 18.722l13.044-17.475zm43.6 12.008l-9.514-7.098c-.674.09-1.353.142-2.033.154l-8.44 8.325.153 1.17a31.765 31.765 0 0 0 19.834-1.362v-1.19zm-20.6-2.743l4.641-4.585a20.716 20.716 0 0 1-5.601-1.88l.96 6.465zm23.919 6.522l-.192 21.829c6.867-1.919 13.197-5.122 18.74-9.304l-17.512-13.043-1.036.518zm-33.012-20.065a21.656 21.656 0 0 1-2.628-5.294l-3.894 5.218 6.522.076zm2.877 3.376l-11.873-.096-.672.921a32.065 32.065 0 0 0 14.962 13.082l.844-.825-1.726-11.739a26.49 26.49 0 0 1-1.535-1.343zm-.633-30.288l.096-11.873-.92-.71a32.11 32.11 0 0 0-13.063 15l.805.825 11.74-1.707c.44-.518.882-1.055 1.342-1.535zM86.99 190.15l4.565 4.661a21.888 21.888 0 0 1 1.88-5.601l-6.445.94zm-5.256.767a31.4 31.4 0 0 0 1.362 19.834l1.15.02 7.098-9.515a23.594 23.594 0 0 1-.134-2.033l-8.344-8.478-1.132.172zm23.613 42.718l3.05 21.043c5.35.4 10.73.04 15.978-1.074l.192-21.254a35.697 35.697 0 0 1-19.22 1.285zm38.402-77.13c0-1.458-.038-2.897-.096-4.374l-.614-.422-15.153 14.905c4.43 2.09 8.382 5.14 11.585 8.804 2.34-6.157 4.278-13.024 4.278-18.913zM96.274 167.17a8.69 8.69 0 0 1 1.036-.518l.191-21.848a55.91 55.91 0 0 0-18.74 9.303l17.513 13.063zm23.613-3.26l-3.05-21.024a56.663 56.663 0 0 0-15.998 1.074l-.173 21.253a36.1 36.1 0 0 1 19.22-1.304zm36.829 69.438a105.73 105.73 0 0 1-17.321-11.107 35.966 35.966 0 0 1-7.29 6.33l17.053 12.699a56.803 56.803 0 0 0 7.558-7.922zm-16.63-83.442a56.05 56.05 0 0 0-19.816-6.656l3.146 21.58c.384.115.748.23 1.113.383l15.556-15.307zm-83.519 48.876c0 4.028.422 7.96 1.228 11.758l21.254.173a35.582 35.582 0 0 1-1.305-19.22l-21.023 3.069c-.1 1.404-.15 2.812-.154 4.22zm.537-7.654l21.6-3.146.364-1.112-15.307-15.576a55.397 55.397 0 0 0-6.657 19.834zm8.44-22.769l14.905 15.154c2.8-5.946 7.231-10.953 12.66-14.52l-17.034-12.718a56.587 56.587 0 0 0-10.53 12.084z" fill="#CE1126"/><ellipse fill="#CE1126" cx="112.617" cy="198.782" rx="11.567" ry="11.567"/><path d="M112.617 129.44c-32.854-.007-61.204 23.043-67.9 55.207-6.698 32.164 10.096 64.614 40.223 77.72 30.126 13.107 65.315 3.273 84.283-23.553a86.683 86.683 0 0 1-7.961-3.241c-19.765 26.12-56.63 31.967-83.507 13.245-26.877-18.722-34.17-55.328-16.52-82.921 17.65-27.593 53.941-36.32 82.207-19.77-.11-3.133-.058-6.27.154-9.399a69.112 69.112 0 0 0-30.98-7.289z" fill="#CE1126"/><path d="M189.67 241.519c-4.469 1.074-10.262.403-16.458-1.4-18.547 27.14-52.886 38.626-84.03 28.107-31.144-10.518-51.488-40.472-49.782-73.3-2.264 3.453-1.612 9.13-5.64 9.13-3.184 0-1.42-4.353-3.76-4.353-1.438 0-1.65 1.994-3.452 1.994-.23 0-.403-.076-.537-.076-.403 0-.557.863-1.305.863-.94 0-1.573-1.132-2.34-1.132-.844 0-1.112 1.611-2.206 1.611-1.15 0-2.244-1.918-2.704-2.8.598 45.312 33.054 83.922 77.589 92.3 44.535 8.38 88.803-15.795 105.828-57.792a131.933 131.933 0 0 1-20.89-8.67c.614 6.35 9.687 15.518 9.687 15.518zM26.835 162.355c2.206 1.803.442 4.988 2.015 7.194a88.735 88.735 0 0 1 119.31-52.022 80.784 80.784 0 0 1 2.782-5.927 95.2 95.2 0 0 0-126.658 51.6c.787.517 1.65-1.612 2.551-.845zM228.878 64.51h52.386c66.925 0 96.235-23.94 107.764-45.135.652-1.285-.154-1.554-1.42-.403-14.578 13.063-36.311 35.89-125.085 35.89h-37.462c-58.908 0-81.101 26.566-86.875 44.29 2.935.748 5.85 1.63 8.67 2.647 10.474-18.875 30.442-37.29 82.022-37.29z" fill="#CE1126"/><path d="M227.65 78.013c-52.424 0-82.635 36.004-79.163 70.397 2.57 25.646-11.759 46.459-11.759 46.459s20.007-9.054 20.007-45.557c0-34.585 34.412-59.771 63.415-59.771 28.044 0 60.596.173 76.728.173 85.57 0 106.287-39.534 109.221-47.245.518-1.151-.23-.921-.517-.384C387.723 66.177 362.71 79.95 294.845 79.95c-43.62 0-57.43-1.937-67.195-1.937z" fill="#CE1126"/><path d="M247.197 107.975c-14.156 0-15.576 3.951-15.576 3.951-.46.557-.23 1.842-1.208 2.225-3.242 1.247-6.81-1.438-9.591 2.168-1.688 2.167-5.774-.499-8.402 1.036-.595.345 0 1.86.46 2.052 1.228.537 3.28.384 4.048 1.017.825.671.729 1.611 1.496 2.167.94.69 2.685.998 3.472 2.072.595.825.806 2.474 1.688 2.532 21.253 1.208 43.063 1.208 63.243-6.599 2.263-3.606-19.796-12.621-39.63-12.621zm-83.518 46.861c.268 2.053-.25 5.218.173 5.256a82.731 82.731 0 0 0 43.485-7.308c3.817-1.612-14.847-11.337-30.403-11.337-5.045 0-8.46 2.149-8.46 2.149-.901.498-1.592 2.55-2.608 4.047-.748 1.132.69 2.877.096 3.606-1.113 1.362-2.494 2.187-2.283 3.587zm20.237-36.004c-.73.115-1.266 1.266-1.803 2.033-1.343 1.899-5.582 1.477-5.563 3.625.058 3.933-4.316 4.642-5.006 7.462-.557 2.225-1.746 3.894-1.919 6.273 15.691.076 31.842-.921 45.75-8.92 3.663-1.65-19.144-12.257-31.46-10.473zm49.93-13.447c-1.131-4.546-6.656-5.41-10.416-7.596-1.496-.882-3.26-.48-4.987.269-3.721 1.611-8.536-1.132-12.391 1.65-1.094.805-1.67 2.282-3.089 2.646-1.783.46-3.548.538-5.351.768-.653.096-1.9.537-1.803 1.285.364 3.203-2.628 3.875-4.988 4.7-2.302.805-1.496 3.855-1.573 6.1 15.308.172 31.19-1.996 44.598-9.822zm-77.917 75.5c3.914 2.033 22.923-.69 32.84-6.848-10.167-8.65-26.471-11.778-26.471-11.778-2.264 6.139-4.604 12.296-6.369 18.626z" fill="#CE1126"/><path d="M153.052 184.472c-1.86.998-3.99 3.798-2.302 4.93 3.031 2.052 8.038 6.637 31.113 6.637 22.482 0 31.037-6.944 35.276-11.26 0-2.8-19.758-8.478-22.424-6.925-.805.403-.901 1.209-1.016 1.573-.902.365-3.626.403-4.297.883-1.535 1.131-1.228 2.954-1.65 3.05-3.51.882-7.845-1.324-11.164.191-.901.403-.824 2.878-1.995 2.974-2.378.172-5.025-1.266-7.327-.538-.403.154-1.63.327-2.455.844-1.286-.652-1.938-.805-3.587-1.208-1.209-.288-2.398.537-3.875.288-1.4-.23-2.954-2.13-4.297-1.439zm91.152-16.228c4.163-2.167 9.17-2.36 12.2-6.483-18.625-9.745-40.378-8.728-43.025-7.193-.671.383-1.42 1.745-2.263 2.263-1.266.844-2.475.422-3.319 1.285-.498.499.058 1.842-.307 2.34-.46.653-1.496.768-2.129 1.132-.671.365-2.033-.23-3.069.211s-1.074 1.4-1.745 1.726c-2.513 1.266-6.12-.191-7.846-.191-.882.057-.652 1.438-.384 1.726 1.132 1.093 4.355 1.42 4.22 3.07-.019.344-.805 1.457-1.285 1.534 1.727 3.644 17.61 8.478 38.518 1.534 3.471-1.036 7.097-1.227 10.434-2.954zm23.805-26.835c1.707-1.17 3.894-1.19 4.91-2.8 2.245-2.936-19.526-7.77-28.37-7.77-8.765 0-24.993 2.206-27.755 3.185-1.151.48-1.209 2.82-2.57 2.992-2.61.326-5.18.633-7.789.863-.863.058-.652 1.439-.383 1.67a7.5 7.5 0 0 1 2.935 4.334c.076.192 1.841.02 2.225.365 1.707 1.458 2.915 3.548 5.044 4.066 10.32 2.475 20.276 3.165 30.826.71 1.131-.269 1.956-1.19 2.954-1.304 3.702-.48 7.557-.69 10.435-3.434 2.052-1.976 5.275-1.362 7.538-2.877zm25.013-44.598c.614-.384.115-2.34-.383-2.398-2.379-.364-4.95-1.304-7.5.978-.864.787-2.475-.901-3.664-.172-.978.575-1.938 2.129-2.82 2.532-2.455 1.093-4.834-1.458-7.538-1.151-.806.077-.595 1.86-1.4 2.033-2.322.556-4.355-1.995-5.66-1.132-2.013 1.305-3.701 2.954-6.138 1.861-2.34-1.074-5.409-3.26-7.02-1.88-2.781 2.417-6.138-1.093-8.594-.153-2.052.805-7.615 2.129-3.817 4.335 11.778 7.136 36.37 5.716 54.534-4.853zM176.243 230.585c-.614-1.131-2.206-.518-3.318-1.189-.806-.46-1.19-2.13-1.957-2.781-.614-.48-2.052.633-2.8.191-1.075-.613-1.88-1.975-2.705-2.877-.92-1.036-1.765-2.129-2.686-3.146a11.567 11.567 0 0 0-2.82-2.493c-.575-.346-1.726.403-2.416.23-1.247-.345-1.995-2.513-2.993-3.414-.575-.518-1.515-.595-2.033-1.094-.537-.499-.652-1.438-1.208-2.052-.71-.825-1.803-1.113-2.61-1.765-1.092-.882-1.879-3.107-2.723-4.354-.844-1.247-2.052-1.381-2.858-2.456-.997-1.361-1.573-3.625-2.8-5.006-1.209-1.381-4.297.825-5.218 2.685-1.535 3.05-1.439 6.925.901 9.553 11.548 12.89 26.51 23.575 43.658 26.413-1.304-1.822-2.627-5.044-3.414-6.445zm37.942-4.316c-1.765-.48-3.28-1.438-4.892-2.11-.997-.402-1.937 1.151-2.992.5-2.148-1.286-4.009-3.128-5.716-4.49-1.362-1.093-4.086-3.817-5.256-3.26-.441.21-1.113 2.743-2.225 1.899-2.686-1.995-4.412-4.163-6.925-6.35-1.15-1.016-2.225 2.283-3.683 1.593-3.337-1.63-4.68-5.237-7.27-7.827-2.992-2.973-5.87-6.445-9.993-7.557-.69-.173-.307.825-.96 1.323-3.145 2.475-6.636-1.745-9.686-3.146-2.8-1.285-5.275-3.356-8.44-3.587-.672-.057-.633.979-.403 1.266 18.012 21.292 43.025 37.29 70.474 36.657.633-.02 1.957.058.882-1.266-.901-1.036-1.841-3.338-2.915-3.645zm25.493-15.537c-.806-.115-2.034.978-2.743.844-2.13-.403-3.818-2.32-6.407-3.664-1.074-.556-1.612 1.957-2.456 1.9-4.296-.25-10.473-4.777-14.29-7.079-.671-.403-4.776.403-5.448.537-2.455.5-5.582-3.798-7.519-4.718-1.458-.672-3.51-1.4-4.891-.365-1.9 1.4-4.144.652-6.196.614-.806-.02-1.515 1.688-2.494 1.995-2.82.901-5.946-1.055-8.708.326-.077.038-.441.614-.422.825.192 1.726 2.11 2.014 3.395 2.8 19.815 12.545 50.39 16.612 67.424 12.814.403-.115-.21-1.573-1.343-2.455-1.189-.921-2.934-1.247-3.682-1.784-1.746-1.17-2.648-2.34-4.22-2.59zm39.86-18.28c-2.091.633-3.703-.902-5.448-.25-.403.173-.672.825-1.017.825-3.28.058-5.467-3.472-8.804-3.203-.844.077-.825 1.534-1.516 1.688-2.052.48-3.894-1.995-5.754-1.113a4.373 4.373 0 0 1-3.53.23c-1.65-.48-2.858-1.956-4.45-2.186-1.381-.23-2.8 1.17-4.373.71-3.933-1.17-6.983-4.892-11.222-4.01-2.071.442-3.874-.978-5.313-.115-1.592.94-2.033 2.072-3.626 3.031-1.093.652-3.625.556-4.757 1.247-.882.518-1.093 1.86-2.071 2.263-1.86.768-4.028.23-5.774 1.19-.211.115-.326 1.093.422 1.285 16.151 5.467 42.277 11.509 73.505 3.395.94-.307 1.15-.863.384-1.765-1.727-1.937-4.086-3.97-6.657-3.222zm37.366-27.354c-2.762 1.286-5.966-.134-9.016.576-.786.192-.192 1.343-.978 1.458-2.992.402-6.1-.346-8.92.748-2.205.863-4.853-.115-7.27-.077-.92.038-.94 1.266-1.074 2.283-.134.825-1.38 1.342-1.784 1.227-2.992-.901-5.87-1.189-8.9-1.65-7.634-1.131-15.192-3.567-22.366-1.419-2.34.73-5.448 1.285-7.232 3.127-.69.71-1.42 2.11-2.34 2.436-4.392 1.611-9.188 1.918-13.542 3.472-1.324.46-3.837 2.32-2.897 2.57 0 0 13.504 3.913 28.236 3.913 28.35 0 49.95-6.982 65.756-15.595-.921-1.189-5.582-4.028-7.673-3.069zm31.113-31.036c-1.746.576-4.124-1.074-5.601.02-2.225 1.63-4.834 1.342-7.098 1.112-1.093-.115-2.8-.499-3.76.25-.613.479.288 1.265.864 1.802-5.755 1.976-12.085.115-17.532 2.321-.403.173-.653 2.168-1.65 2.379-5.006.997-9.668-.96-14.636-.058-1.247.23-.69 2.897-1.995 2.954-4.45.23-8.785-.153-13.216-.345-5.275-.23-10.147 1.688-15.134 3.223-1.497.44-1.938 2.8-3.53 3.05-4.316.652-8.69-.116-12.622 1.841-.287.134-.287 1.439 0 1.611 4.815 2.724 10.34 4.585 13.639 8.997 33.51-.346 69.592-4.738 97.501-27.622.537-.442-2.762-1.132-4.527-1.554-1.745-.403-3.165-.403-5.275-1.093-1.88-.595-3.606.517-5.428 1.112zm34.796-31.535a21.752 21.752 0 0 0-8.23-.46c-.594.134-.958 1.112-1.515 1.208-3.606.576-6.176 2.321-9.86 2.417a11.356 11.356 0 0 0-3.414 1.036c-1.342.633-3.165-.92-4.22.25-.67.747.5 2.57-.71 3.145-3.222 1.516-6.962-1.19-10.089.844-.92.595.978 2.59-.211 2.954-4.508 1.42-12.334-5.601-15.269 1.688-.46 1.132-1.88.614-2.762.403-.863-.23-2.052-.614-2.57-.192-2.782 2.244-4.393 3.146-8.287 2.053-.997-.288-1.017 2.647-2.916 2.186-2.167-.518-4.277-2.11-6.272-1.208-.92.403-.25 2.839-1.592 2.973-5.429.518-11.03-.268-16.036 1.976-1.228.537-1.343 2.781-3.07 3.05-3.816.633-7.614.192-11.182 1.342-.557.173-.441 1.88.422 1.995 2.282.346 4.872-.019 6.637 1.036 2.148 1.285 3.53 4.892 5.62 4.987 43.063.825 74.157-14.597 95.507-32.379.863-.748.44-1.055.019-1.304zm-10.57-25.262c-.633.307-.422 2.417-1.668 2.992-2.11.978-4.527.94-6.79 1.63-.845.269-.806 1.4-1.516 1.842-1.19.767-2.82.134-3.702.786-5.448 3.99-11.912 2.206-17.954 3.204.095 4.546-7.079 1.764-10.033 3.74-3.203 2.168-2.78 1.573-7.576 1.611-1.477.02-.672 2.206-1.88 2.245-3.817.057-8.747-1.151-11.586-.307-.518.153-.671 2.551-1.688 2.82-2.072.556-4.278.786-6.253 1.419-1.535.48.46 3.395-1.592 4.047-3.51 1.113-7.366.307-10.877 2.302-1.4.806-3.433.039-5.217.384-1.535.288-2.13 1.899-.882 2.59 1.15.632 3.03.46 4.143 1.016 2.609 1.285 4.738 3.127 7.538 3.3 45.48 2.8 104.311-29.522 113.576-68.691.326-1.573-.403-1.285-.729-.403-9.898 23.498-35.314 33.473-35.314 33.473z" fill="#CE1126"/></g></svg>