<svg xmlns="http://www.w3.org/2000/svg" viewBox="0 0 24 16"><g fill="#CE1126"><path d="M12.444,12.767c-0.221,0-0.4,0.18-0.4,0.4c0,0.222,0.18,0.4,0.4,0.4c0.222,0,0.4-0.179,0.4-0.4 C12.845,12.946,12.666,12.767,12.444,12.767z M12.444,13.481c-0.174,0-0.314-0.141-0.314-0.314s0.141-0.314,0.314-0.314 s0.314,0.141,0.314,0.314S12.618,13.481,12.444,13.481z"/><path d="M12.609,13.074c0-0.075-0.062-0.136-0.136-0.136H12.28v0.457h0.086V13.21h0.062l0.087,0.186h0.095 l-0.091-0.193C12.571,13.184,12.609,13.134,12.609,13.074z M12.474,13.124h-0.107v-0.1h0.107c0.027,0,0.05,0.022,0.05,0.05 S12.501,13.124,12.474,13.124z"/></g><path fill="#CE1126" d="M20.896,4.923c0.896-0.766,1.765-2.001,1.765-3.416c0-0.205-0.25-0.263-0.352-0.124 c-0.923,1.261-1.794,1.74-2.32,1.922c0.875-0.662,1.733-1.744,1.953-2.971c0.023-0.224-0.22-0.289-0.332-0.172 c-1.071,1.071-2.547,2.214-6.511,2.214c-0.958,0-2.053-0.028-2.761-0.028c-3.218,0-4.401,1.991-4.668,2.543 C7.405,4.854,7.138,4.83,6.871,4.83c-3.051,0-5.532,2.482-5.532,5.533c0,3.05,2.481,5.531,5.532,5.531 c2.245,0,4.229-1.325,5.097-3.385c0.061,0.006,0.125,0.017,0.18,0.017c0.701,0,0.848-0.205,0.848-0.378 c0-0.093-0.092-0.204-0.137-0.27c1.028-0.005,1.33-0.054,1.775-0.207c0.072-0.022,0.115-0.09,0.115-0.161 c0-0.152-0.312-0.403-0.537-0.599c1.438-0.024,2.497-0.281,2.497-0.617c0-0.065-0.006-0.148-0.388-0.449 c0.812-0.221,2.237-0.768,2.237-1.125c0-0.137-0.119-0.222-0.259-0.32c1.264-0.476,2.325-1.314,2.325-1.615 c0-0.243-0.356-0.263-0.534-0.277c0.63-0.403,1.506-1.09,1.506-1.387C21.597,4.815,21.115,4.936,20.896,4.923z"/><path fill="#FFF" d="M20.526,5.001c1.007-0.754,1.964-2.057,1.964-3.495c0-0.03-0.029-0.035-0.042-0.022 c-1.557,2.125-2.972,2.104-2.972,2.104c-0.062,0-0.076-0.087-0.026-0.121c1.004-0.591,2.081-1.81,2.323-3.163 c0.004-0.018-0.023-0.04-0.042-0.021c-1.144,1.143-2.714,2.265-6.632,2.265c-1.255,0-1.909-0.028-2.761-0.028 c-3.396,0-4.441,2.258-4.565,2.557C7.48,5.027,7.179,5.001,6.871,5.001c-2.961,0-5.361,2.4-5.361,5.362 c0,2.961,2.4,5.361,5.361,5.361c2.267,0,4.205-1.408,4.989-3.396c0.101,0.018,0.197,0.027,0.287,0.027 c0.546,0,0.678-0.122,0.678-0.207c0-0.058-0.35-0.439-0.176-0.439c1.211,0,1.483-0.045,1.928-0.198 c-0.213-0.334-0.985-0.767-0.588-0.767c1.92,0,2.55-0.371,2.55-0.449c0-0.092-0.612-0.532-0.612-0.532 c0.884-0.146,2.461-0.853,2.461-1.042c0-0.109-0.45-0.293-0.377-0.398c1.401-0.466,2.443-1.372,2.443-1.537 c0-0.132-0.822-0.117-0.822-0.117V6.582c0.712-0.37,1.794-1.263,1.794-1.459C21.426,4.997,20.41,5.207,20.526,5.001z"/><path fill="#CE1126" d="M8.188 9.35c-.174-.225-.404-.404-.67-.518L7.475 8.875l.09.612c.027.022.054.045.08.07l.448.003C8.123 9.495 8.155 9.424 8.188 9.35zM6.246 8.883l.495.371C6.776 9.25 6.812 9.247 6.848 9.247l.441-.435L7.28 8.752C7.149 8.719 7.012 8.701 6.871 8.701c-.222 0-.432.043-.625.121V8.883zM7.32 9.027L7.078 9.266c.103.019.2.053.291.098L7.32 9.027zM7.501 11.285c-.085.058-.177.104-.275.137l.272.203L7.501 11.285zM5.285 12.816l.79-.777c-.309-.146-.571-.376-.757-.66l-.663.889C4.838 12.479 5.05 12.664 5.285 12.816zM7.793 9.733c.043.062.08.131.11.202.025-.047.062-.115.104-.2L7.793 9.733zM6.308 12.132c-.019-.007-.038-.013-.058-.02L5.439 12.91c.312.176.662.297 1.032.347L6.308 12.132zM7.787 11.05l-.041.006c-.021.028-.045.055-.069.08l-.006.619.049.036c.149-.089.284-.201.398-.332C7.954 11.31 7.835 11.168 7.787 11.05zM6.241 9.44c.084-.058.177-.104.275-.137L6.244 9.101 6.241 9.44zM5.223 11.216c-.01-.019-.019-.036-.027-.055l-1.138-.01c.1.358.266.688.485.976L5.223 11.216zM7.496 11.842L7 11.472c-.035.005-.07.007-.106.008l-.44.434.008.061c.132.032.269.051.41.051.221 0 .432-.044.624-.122L7.496 11.842zM6.422 11.699l.242-.239c-.103-.019-.201-.052-.292-.098L6.422 11.699zM7.669 12.039l-.01 1.138c.358-.1.688-.267.977-.485l-.913-.68C7.705 12.021 7.688 12.03 7.669 12.039zM5.948 10.993c-.058-.085-.104-.178-.137-.276l-.203.272L5.948 10.993zM6.098 11.169l-.619-.005-.035.048c.18.302.453.543.78.682l.044-.043-.09-.612C6.15 11.216 6.123 11.193 6.098 11.169zM6.065 9.59L6.07 8.971 6.022 8.934C5.72 9.115 5.479 9.389 5.341 9.716l.042.043L5.995 9.67C6.018 9.643 6.041 9.615 6.065 9.59zM5.535 9.913l.238.243c.02-.104.053-.201.098-.292L5.535 9.913zM5.261 9.953c-.033.132-.051.269-.051.41 0 .221.043.432.122.624l.06.001.37-.496c-.004-.035-.006-.07-.007-.106L5.32 9.944 5.261 9.953zM6.492 12.18l.159 1.097c.072.005.146.008.22.008.21 0 .415-.022.613-.064l.01-1.108c-.195.069-.404.107-.623.107C6.741 12.219 6.614 12.205 6.492 12.18zM8.494 8.159c0-.076-.002-.151-.005-.228C8.479 7.923 8.468 7.916 8.457 7.909l-.79.777c.231.109.437.268.604.459C8.393 8.824 8.494 8.466 8.494 8.159zM6.019 8.715c.018-.01.036-.02.054-.027l.01-1.139C5.725 7.649 5.395 7.815 5.106 8.034L6.019 8.715zM7.25 8.545L7.091 7.449c-.073-.005-.146-.008-.22-.008-.211 0-.416.022-.614.064L6.248 8.613c.194-.068.404-.107.623-.107C7.001 8.506 7.128 8.52 7.25 8.545zM9.17 12.165c-.338-.174-.655-.38-.903-.579-.111.126-.238.237-.38.33l.889.662C8.92 12.454 9.052 12.315 9.17 12.165zM8.303 7.815C7.989 7.639 7.641 7.519 7.27 7.468l.164 1.125c.02.006.039.012.058.02L8.303 7.815zM3.949 10.363c0 .21.022.415.064.613l1.108.009c-.069-.194-.106-.404-.106-.622 0-.131.013-.257.038-.38l-1.096.16C3.952 10.216 3.949 10.289 3.949 10.363zM3.977 9.964L5.103 9.8c.006-.019.013-.038.019-.058L4.324 8.93C4.147 9.244 4.027 9.593 3.977 9.964zM4.417 8.777l.777.79c.146-.31.377-.571.66-.757L4.966 8.147C4.755 8.33 4.569 8.541 4.417 8.777z"/><circle fill="#CE1126" cx="6.871" cy="10.363" r=".603"/><path fill="#CE1126" d="M6.871,6.748c-1.996,0-3.614,1.619-3.614,3.615c0,1.996,1.618,3.614,3.614,3.614 c1.219,0,2.296-0.604,2.951-1.527c-0.138-0.048-0.277-0.105-0.415-0.169c-0.581,0.767-1.501,1.262-2.536,1.262 c-1.756,0-3.18-1.424-3.18-3.18c0-1.758,1.424-3.181,3.18-3.181c0.587,0,1.136,0.159,1.607,0.436 c-0.004-0.157-0.005-0.319,0.008-0.49C8,6.885,7.451,6.748,6.871,6.748z"/><path fill="#CE1126" d="M10.888 12.591c-.233.056-.535.021-.858-.073-.688 1.008-1.846 1.669-3.158 1.669-2.112 0-3.824-1.712-3.824-3.823 0-.068.002-.135.006-.202-.118.18-.084.476-.294.476-.166 0-.074-.227-.196-.227-.075 0-.086.104-.18.104-.012 0-.021-.004-.028-.004-.021 0-.029.045-.068.045-.049 0-.082-.059-.122-.059-.044 0-.058.084-.115.084-.06 0-.117-.1-.141-.146.038 2.709 2.245 4.893 4.963 4.893 2.079 0 3.86-1.279 4.599-3.094-.557-.168-1.089-.452-1.089-.452C10.415 12.113 10.888 12.591 10.888 12.591zM2.399 8.464c.115.094.023.26.105.375.63-1.805 2.347-3.1 4.366-3.1.659 0 1.287.139 1.854.388.042-.1.09-.203.145-.309-.611-.27-1.288-.42-1.999-.42C4.785 5.398 3 6.685 2.266 8.508 2.307 8.535 2.352 8.424 2.399 8.464zM12.932 3.363h2.731c3.489 0 5.017-1.248 5.618-2.353.034-.067-.008-.081-.074-.021-.76.681-1.893 1.871-6.521 1.871h-1.953c-3.071 0-4.228 1.385-4.529 2.309.153.039.305.085.452.138C9.202 4.323 10.243 3.363 12.932 3.363z"/><path fill="#CE1126" d="M12.868,4.067c-2.733,0-4.308,1.877-4.127,3.67c0.134,1.337-0.613,2.422-0.613,2.422 s1.043-0.472,1.043-2.375c0-1.803,1.794-3.116,3.306-3.116c1.462,0,3.159,0.009,4,0.009c4.461,0,5.541-2.061,5.694-2.463 c0.027-0.06-0.012-0.048-0.027-0.02c-0.931,1.256-2.235,1.974-5.773,1.974C14.097,4.168,13.377,4.067,12.868,4.067z"/><path fill="#CE1126" d="M13.887 5.629c-.738 0-.812.206-.812.206-.024.029-.012.096-.063.116-.169.065-.355-.075-.5.113-.088.113-.301-.026-.438.054-.031.018 0 .097.024.107.064.028.171.02.211.053.043.035.038.084.078.113.049.036.14.052.181.108.031.043.042.129.088.132 1.108.063 2.245.063 3.297-.344C16.071 6.099 14.921 5.629 13.887 5.629zM9.533 8.072C9.547 8.179 9.52 8.344 9.542 8.346c.771.084 1.554-.053 2.267-.381.199-.084-.774-.591-1.585-.591-.263 0-.441.112-.441.112C9.736 7.512 9.7 7.619 9.647 7.697c-.039.059.036.15.005.188C9.594 7.956 9.522 7.999 9.533 8.072zM10.588 6.195c-.038.006-.066.066-.094.106-.07.099-.291.077-.29.189.003.205-.225.242-.261.389-.029.116-.091.203-.1.327.818.004 1.66-.048 2.385-.465C12.419 6.655 11.23 6.102 10.588 6.195zM13.191 5.494c-.059-.237-.347-.282-.543-.396-.078-.046-.17-.025-.26.014-.194.084-.445-.059-.646.086-.057.042-.087.119-.161.138-.093.024-.185.028-.279.04-.034.005-.099.028-.094.067.019.167-.137.202-.26.245-.12.042-.078.201-.082.318C11.664 6.015 12.492 5.902 13.191 5.494zM9.129 9.43c.204.106 1.195-.036 1.712-.357-.53-.451-1.38-.614-1.38-.614C9.343 8.779 9.221 9.1 9.129 9.43z"/><path fill="#CE1126" d="M8.979 9.617c-.097.052-.208.198-.12.257.158.107.419.346 1.622.346 1.172 0 1.618-.362 1.839-.587 0-.146-1.03-.442-1.169-.361-.042.021-.047.063-.053.082-.047.019-.189.021-.224.046-.08.059-.064.154-.086.159-.183.046-.409-.069-.582.01-.047.021-.043.15-.104.155C9.978 9.733 9.84 9.658 9.72 9.696 9.699 9.704 9.635 9.713 9.592 9.74 9.525 9.706 9.491 9.698 9.405 9.677 9.342 9.662 9.28 9.705 9.203 9.692 9.13 9.68 9.049 9.581 8.979 9.617zM13.731 8.771c.217-.113.478-.123.636-.338-.971-.508-2.105-.455-2.243-.375-.035.02-.074.091-.118.118-.066.044-.129.022-.173.067-.026.026.003.096-.016.122-.024.034-.078.04-.111.059-.035.019-.106-.012-.16.011s-.056.073-.091.09c-.131.066-.319-.01-.409-.01C11 8.518 11.012 8.59 11.026 8.605c.059.057.227.074.22.16-.001.018-.042.076-.067.08.09.19.918.442 2.008.08C13.368 8.871 13.557 8.861 13.731 8.771zM14.972 7.372c.089-.061.203-.062.256-.146.117-.153-1.018-.405-1.479-.405-.457 0-1.303.115-1.447.166-.06.025-.063.147-.134.156-.136.017-.27.033-.406.045-.045.003-.034.075-.02.087.089.071.116.115.153.226.004.01.096.001.116.019.089.076.152.185.263.212.538.129 1.057.165 1.607.037.059-.014.102-.062.154-.068.193-.025.394-.036.544-.179C14.686 7.419 14.854 7.451 14.972 7.372zM16.276 5.047c.032-.02.006-.122-.02-.125-.124-.019-.258-.068-.391.051-.045.041-.129-.047-.191-.009-.051.03-.101.111-.147.132-.128.057-.252-.076-.393-.06-.042.004-.031.097-.073.106-.121.029-.227-.104-.295-.059-.105.068-.193.154-.32.097-.122-.056-.282-.17-.366-.098-.145.126-.32-.057-.448-.008-.107.042-.397.111-.199.226C14.047 5.672 15.329 5.598 16.276 5.047zM10.188 12.021c-.032-.059-.115-.027-.173-.062-.042-.024-.062-.111-.102-.145-.032-.025-.107.033-.146.01-.056-.032-.098-.103-.141-.15-.048-.054-.092-.111-.14-.164-.044-.051-.091-.097-.147-.13-.03-.018-.09.021-.126.012-.065-.018-.104-.131-.156-.178-.03-.027-.079-.031-.106-.057-.028-.026-.034-.075-.063-.107-.037-.043-.094-.058-.136-.092-.057-.046-.098-.162-.142-.227s-.107-.072-.149-.128c-.052-.071-.082-.189-.146-.261-.063-.072-.224.043-.272.14-.08.159-.075.361.047.498.602.672 1.382 1.229 2.276 1.377C10.298 12.262 10.229 12.094 10.188 12.021zM12.166 11.796c-.092-.025-.171-.075-.255-.11-.052-.021-.101.06-.156.026-.112-.067-.209-.163-.298-.234-.071-.057-.213-.199-.274-.17-.023.011-.058.143-.116.099-.14-.104-.23-.217-.361-.331-.06-.053-.116.119-.192.083-.174-.085-.244-.273-.379-.408-.156-.155-.306-.336-.521-.394-.036-.009-.016.043-.05.069-.164.129-.346-.091-.505-.164-.146-.067-.275-.175-.44-.187-.035-.003-.033.051-.021.066.939 1.11 2.243 1.944 3.674 1.911.033-.001.102.003.046-.066C12.271 11.932 12.222 11.812 12.166 11.796zM13.495 10.986c-.042-.006-.106.051-.143.044-.111-.021-.199-.121-.334-.191-.056-.029-.084.102-.128.099-.224-.013-.546-.249-.745-.369-.035-.021-.249.021-.284.028-.128.026-.291-.198-.392-.246-.076-.035-.183-.073-.255-.019-.099.073-.216.034-.323.032-.042-.001-.079.088-.13.104-.147.047-.31-.055-.454.017-.004.002-.023.032-.022.043.01.09.11.105.177.146 1.033.654 2.627.866 3.515.668.021-.006-.011-.082-.07-.128-.062-.048-.153-.065-.192-.093C13.624 11.06 13.577 10.999 13.495 10.986zM15.573 10.033c-.109.033-.193-.047-.284-.013-.021.009-.035.043-.053.043-.171.003-.285-.181-.459-.167-.044.004-.043.08-.079.088-.107.025-.203-.104-.3-.058-.068.033-.117.031-.184.012-.086-.025-.149-.102-.232-.114-.072-.012-.146.061-.228.037-.205-.061-.364-.255-.585-.209-.108.023-.202-.051-.277-.006-.083.049-.106.108-.189.158-.057.034-.189.029-.248.065-.046.027-.057.097-.108.118-.097.04-.21.012-.301.062-.011.006-.017.057.022.067.842.285 2.204.6 3.832.177.049-.016.06-.045.02-.092C15.83 10.1 15.707 9.994 15.573 10.033zM17.521 8.607C17.377 8.674 17.21 8.6 17.051 8.637c-.041.01-.01.07-.051.076-.156.021-.318-.018-.465.039-.115.045-.253-.006-.379-.004C16.108 8.75 16.107 8.814 16.1 8.867c-.007.043-.072.07-.093.064-.156-.047-.306-.062-.464-.086-.398-.059-.792-.186-1.166-.074C14.255 8.809 14.093 8.838 14 8.934c-.036.037-.074.11-.122.127-.229.084-.479.1-.706.181-.069.024-.2.121-.151.134 0 0 .704.204 1.472.204 1.478 0 2.604-.364 3.428-.813C17.873 8.705 17.63 8.557 17.521 8.607zM19.143 6.989c-.091.03-.215-.056-.292.001-.116.085-.252.07-.37.058-.057-.006-.146-.026-.196.013-.032.025.015.066.045.094C18.03 7.258 17.7 7.161 17.416 7.276 17.395 7.285 17.382 7.389 17.33 7.4c-.261.052-.504-.05-.763-.003-.065.012-.036.151-.104.154-.232.012-.458-.008-.689-.018-.275-.012-.529.088-.789.168-.078.023-.101.146-.184.159-.225.034-.453-.006-.658.096-.015.007-.015.075 0 .084.251.142.539.239.711.469 1.747-.018 3.628-.247 5.083-1.44.028-.023-.144-.059-.236-.081-.091-.021-.165-.021-.275-.057C19.328 6.9 19.238 6.958 19.143 6.989zM20.957 5.345c-.018-.011-.282-.058-.429-.024-.031.007-.05.058-.079.063-.188.03-.322.121-.514.126-.04.001-.126.029-.178.054-.07.033-.165-.048-.22.013-.035.039.026.134-.037.164-.168.079-.363-.062-.526.044-.048.031.051.135-.011.154-.235.074-.643-.292-.796.088-.024.059-.098.032-.144.021-.045-.012-.107-.032-.134-.01-.145.117-.229.164-.432.107-.052-.015-.053.138-.152.114-.113-.027-.223-.11-.327-.063-.048.021-.013.148-.083.155-.283.027-.575-.014-.836.103-.064.028-.07.145-.16.159-.199.033-.397.01-.583.07-.029.009-.023.098.022.104.119.018.254-.001.346.054.112.067.184.255.293.26 2.245.043 3.866-.761 4.979-1.688C21.001 5.374 20.979 5.358 20.957 5.345zM20.406 4.028c-.033.016-.022.126-.087.156-.11.051-.236.049-.354.085-.044.014-.042.073-.079.096-.062.04-.147.007-.193.041-.284.208-.621.115-.936.167.005.237-.369.092-.523.195-.167.113-.145.082-.395.084-.077.001-.035.115-.098.117-.199.003-.456-.06-.604-.016-.027.008-.035.133-.088.147-.108.029-.223.041-.326.074-.08.025.024.177-.083.211-.183.058-.384.016-.567.12-.073.042-.179.002-.272.02-.08.015-.111.099-.046.135.06.033.158.024.216.053.136.067.247.163.393.172 2.371.146 5.438-1.539 5.921-3.581.017-.082-.021-.067-.038-.021C21.731 3.508 20.406 4.028 20.406 4.028z"/></svg>