<svg xmlns="http://www.w3.org/2000/svg" viewBox="0 0 24 16"><g fill="#FFF"><path d="M18.56,14.148c0-0.228-0.185-0.411-0.411-0.411c-0.228,0-0.411,0.184-0.411,0.411s0.184,0.412,0.411,0.412 C18.375,14.561,18.56,14.376,18.56,14.148 M17.825,14.148c0-0.179,0.145-0.323,0.323-0.323s0.323,0.145,0.323,0.323 s-0.145,0.323-0.323,0.323S17.825,14.327,17.825,14.148"/><path d="M18.317,14.384l-0.093-0.199c0.054-0.02,0.093-0.07,0.093-0.131c0-0.077-0.063-0.14-0.14-0.14h-0.198v0.47 h0.088v-0.191h0.063l0.089,0.191H18.317z M18.178,14.104h-0.11v-0.103h0.11c0.028,0,0.051,0.022,0.051,0.052 C18.229,14.082,18.206,14.104,18.178,14.104"/></g><path fill="#FFF" d="M12,16c4.419,0,8-3.581,8-7.999C20,3.582,16.419,0,12,0C7.582,0,4,3.582,4,8.001C4,12.419,7.582,16,12,16"/><path fill="#0038A8" d="M12.445,0.384c0.913,1.432,1.325,1.959,1.325,2.761c0,0.962-0.809,1.741-1.771,1.741 s-1.771-0.779-1.771-1.741c0-0.802,0.412-1.329,1.325-2.761C7.548,0.614,4.37,3.936,4.37,8.001c0,4.214,3.416,7.63,7.63,7.63 s7.63-3.416,7.63-7.63C19.63,3.936,16.452,0.614,12.445,0.384"/><path fill="#FFF" d="M12,14.936c3.83,0,6.936-3.104,6.936-6.935c0-3.214-2.186-5.917-5.151-6.704 c0.157,0.196,0.681,0.918,0.681,1.848c0,1.344-1.105,2.437-2.465,2.437S9.535,4.488,9.535,3.145c0-0.93,0.524-1.651,0.681-1.848 C7.25,2.084,5.065,4.787,5.065,8.001C5.065,11.831,8.17,14.936,12,14.936"/><path fill="#0038A8" d="M13.443,8.832h-0.497v0.795c0,0.159-0.13,0.288-0.289,0.288s-0.288-0.129-0.288-0.288V8.614h0.577V7.863 h-0.577V7.278c0-0.159,0.129-0.288,0.288-0.288s0.289,0.129,0.289,0.288v0.364h0.497V5.96H11.34v1.03 c0.203,0,0.369,0.165,0.369,0.368v2.346c0,0.117-0.095,0.211-0.211,0.211v4.25c0,0.304-0.159,0.442-0.234,0.491 c0.24,0.03,0.486,0.045,0.736,0.045c0.305,0,0.604-0.022,0.896-0.066c0,0,0.547-0.108,0.547-0.591V8.832z"/><path fill="#0038A8" d="M11.34,8.832h-0.498v0.873c0,0.116-0.094,0.21-0.209,0.21c-0.117,0-0.211-0.094-0.211-0.21V7.201 c0-0.116,0.095-0.211,0.211-0.211V5.96H9.551v1.03c0.116,0,0.211,0.095,0.211,0.211v2.503c0,0.117-0.095,0.211-0.211,0.211v3.702 c0,0.31-0.169,0.411-0.25,0.441c0.477,0.243,0.995,0.424,1.541,0.531c0,0,0.498,0.075,0.498-0.425V8.832z"/><path fill="#0038A8" d="M9.393 13.617V9.915c-.117 0-.211-.094-.211-.211V7.201c0-.116.094-.211.211-.211V5.96H8.311v1.03c.117 0 .211.095.211.211v2.503c0 .117-.094.211-.211.211v2.521c0 .527-.27.61-.411.618.334.325.709.611 1.119.85C9.018 13.904 9.393 14.047 9.393 13.617M17.746 7.643V6.509c0-.302-.246-.549-.548-.549H16.55c-.302 0-.549.247-.549.549v1.515c0 .08.049.19.109.244l.867.775c.06.054.109.164.109.244v.335c0 .162-.132.293-.294.293-.163 0-.294-.131-.294-.293v-.79h-.498v4.317c1.076-.999 1.745-2.397 1.745-3.945V8.98c0-.08-.048-.19-.108-.244l-.867-.775c-.061-.054-.109-.164-.109-.244V7.202c0-.117.096-.212.213-.212s.213.095.213.212v.44H17.746z"/><path fill="#0038A8" d="M8.153 12.437V6.509c0-.302-.247-.549-.549-.549H6.802c-.302 0-.549.247-.549.549v2.695c0 1.35.509 2.585 1.352 3.541C7.77 12.96 8.153 13.021 8.153 12.437M15.632 9.704V8.477c0-.211-.235-.307-.235-.307s.235-.097.235-.307V6.509c0-.302-.246-.549-.549-.549h-1.481l-.001 1.03c.117 0 .212.095.212.211v2.503c0 .117-.095.211-.212.211v4.129c0 .214-.086.375-.202.493.389-.094.763-.223 1.116-.388 0 0 .254-.123.254-.585V9.915c-.164 0-.296-.132-.296-.296V8.703c0-.125.102-.227.227-.227s.227.102.227.227v4.908c0 .14-.019.256-.048.353.294-.162.571-.351.829-.56 0 0 .137-.113.137-.649v-2.84C15.727 9.915 15.632 9.821 15.632 9.704"/><path fill="#FFF" d="M7.203 6.99c-.16 0-.29.129-.29.289v2.347c0 .16.129.289.29.289s.29-.129.29-.289V7.279C7.493 7.119 7.363 6.99 7.203 6.99M14.722 7.863c.139 0 .25-.112.25-.25V7.24c0-.139-.111-.25-.25-.25-.138 0-.249.111-.249.25v.373C14.473 7.751 14.584 7.863 14.722 7.863"/><path fill="#D14414" d="M13.29,3.17c0-0.904-0.784-1.387-1.29-2.648c-0.506,1.262-1.29,1.744-1.29,2.648 c0,0.617,0.511,1.219,1.29,1.219C12.78,4.389,13.29,3.787,13.29,3.17"/></svg>