<svg width="512" height="512" viewBox="0 0 512 512" xmlns="http://www.w3.org/2000/svg"><title>edmonton-oilers</title><g fill="none" fill-rule="evenodd"><g fill="#FFF"><path d="M409.43 399.825a9.581 9.581 0 1 0-19.163 0 9.581 9.581 0 0 0 19.163 0m-17.135 0a7.53 7.53 0 1 1 15.06 0 7.53 7.53 0 0 1-15.06 0"/><path d="M403.765 405.327l-2.168-4.64a3.264 3.264 0 0 0-1.096-6.317h-4.616v10.957h2.052v-4.453h1.469l2.074 4.453h2.285zm-3.24-6.527h-2.565v-2.402h2.565a1.166 1.166 0 0 1 1.189 1.213 1.166 1.166 0 0 1-1.19 1.188z"/></g><path d="M256.5 443C359.501 443 443 359.501 443 256.5S359.501 70 256.5 70 70 153.499 70 256.5 153.499 443 256.5 443" fill="#FFF"/><path d="M266.874 78.952c21.284 33.384 30.89 45.67 30.89 64.366 0 22.426-18.86 40.587-41.287 40.587s-41.287-18.16-41.287-40.587c0-18.697 9.605-30.983 30.89-64.366-96.048 5.624-170.215 86.6-167.402 182.771 2.814 96.171 81.587 172.674 177.799 172.674s174.985-76.503 177.798-172.674c2.813-96.17-71.353-177.147-167.4-182.771" fill="#0038A8"/><path d="M256.5 418.195c81.268.118 149.993-60.11 160.539-140.692 10.546-80.58-40.365-156.467-118.926-177.267 3.66 4.57 15.876 21.401 15.876 43.082 0 31.332-25.76 56.812-57.466 56.812-31.705 0-57.488-25.503-57.488-56.812 0-21.68 12.215-38.49 15.875-43.082-78.402 20.944-129.141 96.75-118.616 177.215 10.525 80.466 79.055 140.671 160.206 140.744" fill="#FFF"/><path d="M290.14 275.896h-11.586v18.533a6.737 6.737 0 0 1-13.452 0v-23.615h13.452v-17.508h-13.452v-13.638a6.726 6.726 0 0 1 13.452 0v8.486h11.586v-39.212h-49.026v24.012a8.626 8.626 0 0 1 8.602 8.58v54.69a4.919 4.919 0 0 1-4.919 4.92v99.078c0 7.087-3.707 10.304-5.455 11.446a140.085 140.085 0 0 0 38.046-.49s12.752-2.517 12.752-13.777V275.896z" fill="#0038A8"/><path d="M241.114 275.896h-11.61v20.352a4.896 4.896 0 0 1-9.791 0v-58.375c0-2.704 2.215-4.919 4.919-4.919v-24.012h-25.224v24.012c2.704 0 4.919 2.215 4.919 4.92v58.35a4.919 4.919 0 0 1-4.92 4.92v86.302c0 7.227-3.94 9.582-5.827 10.281a137.31 137.31 0 0 0 35.924 12.38s11.61 1.747 11.61-9.909V275.896z" fill="#0038A8"/><path d="M195.724 387.446v-86.303a4.896 4.896 0 0 1-4.919-4.918v-58.352a4.92 4.92 0 0 1 4.92-4.919v-24.011H170.5v24.011a4.92 4.92 0 0 1 4.92 4.92v58.35a4.896 4.896 0 0 1-4.92 4.92v58.77c0 12.286-6.294 14.22-9.581 14.407a134.567 134.567 0 0 0 26.086 19.816c-.023 0 8.72 3.334 8.72-6.69zm194.73-139.269v-26.436c-.013-7.054-5.722-12.773-12.776-12.799h-15.106c-7.063.013-12.786 5.736-12.799 12.8v35.318c0 1.864 1.143 4.429 2.541 5.688l20.212 18.067c1.4 1.259 2.541 3.823 2.541 5.688v7.81a6.854 6.854 0 1 1-13.707 0v-18.417h-11.61v100.64c25.084-23.29 40.68-55.88 40.68-91.968v-5.222c0-1.865-1.119-4.43-2.517-5.688L367.7 255.591a8.649 8.649 0 0 1-2.541-5.688v-12.006a4.966 4.966 0 0 1 9.93 0v10.257h15.364v.023z" fill="#0038A8"/><path d="M166.817 359.938V221.74c-.013-7.063-5.736-12.786-12.799-12.799h-18.696c-7.064.013-12.786 5.736-12.799 12.8v62.826c0 31.472 11.866 60.263 31.519 82.55 3.846 5.012 12.775 6.434 12.775-7.18m174.354-63.713V267.62c0-4.919-5.478-7.157-5.478-7.157s5.478-2.261 5.478-7.157v-31.565c-.013-7.063-5.735-12.786-12.799-12.799h-34.525l-.024 24.012c2.728 0 4.943 2.215 4.943 4.92v58.35a4.919 4.919 0 0 1-4.943 4.92V397.4a15.922 15.922 0 0 1-4.709 11.493 137.847 137.847 0 0 0 26.017-9.045s5.921-2.868 5.921-13.638v-85.068a6.877 6.877 0 0 1-6.9-6.9v-21.354a5.292 5.292 0 1 1 10.584 0v114.417c0 3.264-.443 5.968-1.12 8.23 6.855-3.777 13.312-8.183 19.327-13.055 0 0 3.194-2.635 3.194-15.13v-66.208a4.919 4.919 0 0 1-4.966-4.918" fill="#0038A8"/><path d="M144.67 232.954a6.76 6.76 0 0 0-6.76 6.738v54.714a6.73 6.73 0 0 0 6.76 6.737 6.73 6.73 0 0 0 6.76-6.737v-54.714a6.76 6.76 0 0 0-6.76-6.738m175.287 20.352a5.828 5.828 0 0 0 5.828-5.828v-8.696a5.805 5.805 0 0 0-5.828-5.828 5.805 5.805 0 0 0-5.805 5.828v8.696c0 3.217 2.588 5.828 5.805 5.828" fill="#FFF"/><path d="M286.573 143.9c0-21.074-18.277-32.334-30.073-61.73-11.796 29.42-30.073 40.656-30.073 61.73 0 14.384 11.913 28.419 30.073 28.419 18.184 0 30.073-14.035 30.073-28.418" fill="#D14414"/></g></svg>