<?xml version="1.0" encoding="UTF-8"?>
<svg width="512px" height="512px" viewBox="0 0 512 512" version="1.1" xmlns="http://www.w3.org/2000/svg" xmlns:xlink="http://www.w3.org/1999/xlink">
    <!-- Generator: Sketch 41.2 (35397) - http://www.bohemiancoding.com/sketch -->
    <title>edmonton-oilers</title>
    <desc>Created with Sketch.</desc>
    <defs></defs>
    <g id="NHL" stroke="none" stroke-width="1" fill="none" fill-rule="evenodd">
        <g id="edmonton-oilers">
            <g id="edm" transform="translate(70.000000, 70.000000)">
                <g id="Group" transform="translate(303.062500, 303.062500)" fill="#FFFFFF">
                    <path d="M36.3675,26.76275 C36.3675,21.4710682 32.0777443,17.1813125 26.7860625,17.1813125 C21.4943807,17.1813125 17.204625,21.4710682 17.204625,26.76275 C17.204625,32.0544318 21.4943807,36.3441875 26.7860625,36.3441875 C32.0777443,36.3441875 36.3675,32.0544318 36.3675,26.76275 M19.2328125,26.76275 C19.2328125,22.6040804 22.6040804,19.2328125 26.76275,19.2328125 C30.9214196,19.2328125 34.2926875,22.6040804 34.2926875,26.76275 C34.2926875,30.9214196 30.9214196,34.2926875 26.76275,34.2926875 C22.6040804,34.2926875 19.2328125,30.9214196 19.2328125,26.76275" id="Shape"></path>
                    <path d="M30.7025625,32.2645 L28.5345,27.6253125 C30.0008081,27.0731833 30.8678722,25.5569777 30.6001337,24.0132088 C30.3323952,22.46944 29.0054087,21.3337524 27.4388125,21.307625 L22.8229375,21.307625 L22.8229375,32.2645 L24.8744375,32.2645 L24.8744375,27.8118125 L26.343125,27.8118125 L28.4179375,32.2645 L30.7025625,32.2645 L30.7025625,32.2645 Z M27.462125,25.737 L24.89775,25.737 L24.89775,23.3358125 L27.462125,23.3358125 C27.7835444,23.3291226 28.0934554,23.4554811 28.3185648,23.6850044 C28.5436742,23.9145277 28.6639917,24.2268336 28.6510625,24.5480625 C28.6574735,24.8653103 28.5342706,25.1714604 28.3098968,25.3958343 C28.0855229,25.6202081 27.7793728,25.743411 27.462125,25.737 L27.462125,25.737 Z" id="Shape"></path>
                </g>
                <path d="M186.5,373 C289.501106,373 373,289.501106 373,186.5 C373,83.4988942 289.501106,6.30699873e-15 186.5,0 C83.4988942,-6.30699873e-15 2.07056594e-14,83.4988942 0,186.5 C-1.03528297e-14,289.501106 83.4988942,373 186.5,373" id="Shape" fill="#FFFFFF"></path>
                <path d="M196.874062,8.952 C218.158375,42.3355 227.763125,54.6211875 227.763125,73.3178125 C227.763125,95.7444375 208.903312,113.904875 186.476687,113.904875 C164.050062,113.904875 145.19025,95.7444375 145.19025,73.3178125 C145.19025,54.6211875 154.795,42.3355 176.079312,8.952 C80.0317922,14.5759273 5.86519765,95.5522511 8.6783641,191.723145 C11.4915305,287.894039 90.2646575,364.396609 186.476687,364.396609 C282.688717,364.396609 361.461844,287.894039 364.275011,191.723145 C367.088177,95.5522511 292.921583,14.5759273 196.874062,8.952" id="Shape" fill="#0038A8"></path>
                <path d="M186.5,348.1955 C267.768123,348.31306 336.492999,288.084404 347.039017,207.503369 C357.585036,126.922335 306.674118,51.0363811 228.112812,30.2363125 C231.772875,34.8055625 243.988625,51.6371875 243.988625,73.3178125 C243.988625,104.649813 218.228312,130.130375 186.523313,130.130375 C154.818313,130.130375 129.034687,104.6265 129.034687,73.3178125 C129.034687,51.6371875 141.250438,34.828875 144.9105,30.2363125 C66.5083183,51.1796624 15.7686285,126.985305 26.2936697,207.451133 C36.8187109,287.916961 105.348779,348.121955 186.5,348.1955" id="Shape" fill="#FFFFFF"></path>
                <path d="M220.139937,205.896 L208.553625,205.896 L208.553625,224.429437 C208.343889,227.990315 205.395018,230.770609 201.827969,230.770609 C198.260919,230.770609 195.312048,227.990315 195.102312,224.429437 L195.102312,200.813875 L208.553625,200.813875 L208.553625,183.306187 L195.102312,183.306187 L195.102312,169.668375 C195.102312,165.953898 198.113491,162.942719 201.827969,162.942719 C205.542446,162.942719 208.553625,165.953898 208.553625,169.668375 L208.553625,178.154125 L220.139937,178.154125 L220.139937,138.9425 L171.11375,138.9425 L171.11375,162.954375 C175.850306,162.967107 179.690477,166.796871 179.716062,171.533375 L179.716062,226.2245 C179.716062,227.529083 179.197819,228.780234 178.275339,229.702714 C177.352859,230.625194 176.101708,231.143438 174.797125,231.143438 L174.797125,330.221562 C174.797125,337.308562 171.090437,340.525688 169.342,341.668 C181.987244,343.235899 194.787287,343.071192 207.388,341.178437 C207.388,341.178437 220.139938,338.660687 220.139938,327.40075 L220.139938,205.896 L220.139937,205.896 Z" id="Shape" fill="#0038A8"></path>
                <path d="M171.11375,205.896 L159.504125,205.896 L159.504125,226.247813 C159.504125,228.951592 157.312279,231.143437 154.6085,231.143437 C151.904721,231.143437 149.712875,228.951592 149.712875,226.247813 L149.712875,167.873312 C149.712875,165.169062 151.927563,162.954375 154.631813,162.954375 L154.631813,138.9425 L129.407688,138.9425 L129.407688,162.954375 C132.111938,162.954375 134.326625,165.169062 134.326625,167.873312 L134.326625,226.2245 C134.326625,228.941154 132.124342,231.143438 129.407688,231.143438 L129.407688,317.446313 C129.407688,324.673188 125.467875,327.02775 123.579563,327.727125 C134.922859,333.498386 147.013449,337.664579 159.504125,340.106063 C159.504125,340.106063 171.11375,341.8545 171.11375,330.19825 L171.11375,205.896 Z" id="Shape" fill="#0038A8"></path>
                <path d="M125.724313,317.446312 L125.724313,231.143437 C124.417827,231.149674 123.16305,230.633433 122.239215,229.709598 C121.31538,228.785763 120.799139,227.530985 120.805375,226.2245 L120.805375,167.873312 C120.805375,165.169062 122.99675,162.954375 125.724313,162.954375 L125.724313,138.9425 L100.500187,138.9425 L100.500187,162.954375 C103.22775,162.954375 105.419125,165.169062 105.419125,167.873312 L105.419125,226.2245 C105.425361,227.530985 104.90912,228.785763 103.985285,229.709598 C103.06145,230.633433 101.806673,231.149674 100.500187,231.143437 L100.500187,289.91425 C100.500187,302.199937 94.2058125,304.134875 90.91875,304.321375 C98.705125,311.897937 107.447312,318.565312 117.005437,324.137 C116.982125,324.137 125.724313,327.470687 125.724313,317.446312 L125.724313,317.446312 Z M320.453625,178.177437 L320.453625,151.741062 C320.440846,144.687004 314.732399,138.96814 307.678375,138.9425 L292.571875,138.9425 C285.508745,138.95533 279.786143,144.677933 279.773313,151.741062 L279.773313,187.0595 C279.773313,188.9245 280.915625,191.488875 282.314375,192.74775 L302.526313,210.814937 C303.925063,212.073813 305.067375,214.638187 305.067375,216.503187 L305.067375,224.312875 C305.067375,228.098166 301.998791,231.16675 298.2135,231.16675 C294.428209,231.16675 291.359625,228.098166 291.359625,224.312875 L291.359625,205.896 L279.75,205.896 L279.75,306.536063 C304.83425,283.246875 320.430313,250.656 320.430313,214.56825 L320.430313,209.34625 C320.430313,207.48125 319.311313,204.916875 317.912563,203.658 L297.700625,185.590812 C296.176407,184.076217 295.270569,182.04847 295.159562,179.902562 L295.159562,167.896625 C295.159562,165.154221 297.382721,162.931062 300.125125,162.931062 C302.867529,162.931062 305.090687,165.154221 305.090687,167.896625 L305.090687,178.154125 L320.453625,178.154125 L320.453625,178.177437 Z" id="Shape" fill="#0038A8"></path>
                <path d="M96.8168125,289.937562 L96.8168125,151.741062 C96.8039821,144.677933 91.0813795,138.95533 84.01825,138.9425 L65.321625,138.9425 C58.2584955,138.95533 52.5358929,144.677933 52.5230625,151.741062 L52.5230625,214.56825 C52.5230625,246.040125 64.389125,274.831063 84.0415625,297.117813 C87.888125,302.13 96.8168125,303.552063 96.8168125,289.937563 M271.171,226.2245 L271.171,197.620063 C271.171,192.701125 265.692563,190.463125 265.692563,190.463125 C265.692563,190.463125 271.171,188.201813 271.171,183.306187 L271.171,151.741062 C271.15817,144.677933 265.435567,138.95533 258.372437,138.9425 L223.846625,138.9425 L223.823313,162.954375 C226.550875,162.954375 228.765563,165.169062 228.765563,167.873312 L228.765563,226.2245 C228.765577,227.533133 228.244135,228.787829 227.316607,229.710982 C226.389079,230.634135 225.13193,231.14964 223.823313,231.143438 L223.823313,327.40075 C223.874139,331.711287 222.174989,335.858223 219.114188,338.893812 C228.066677,336.7549 236.782427,333.724693 245.130938,329.848563 C245.130938,329.848563 251.052312,326.981125 251.052312,316.21075 L251.052312,231.143438 C249.220286,231.149658 247.4615,230.424641 246.166054,229.129196 C244.870609,227.83375 244.145592,226.074964 244.151813,224.242937 L244.151813,202.888687 C244.151813,199.966031 246.521094,197.59675 249.44375,197.59675 C252.366406,197.59675 254.735688,199.966031 254.735688,202.888688 L254.735688,317.306438 C254.735688,320.570188 254.29275,323.274438 253.616688,325.53575 C260.470563,321.759125 266.928125,317.353062 272.94275,312.48075 C272.94275,312.48075 276.136563,309.846438 276.136563,297.350937 L276.136563,231.143438 C274.82392,231.15588 273.560757,230.643135 272.628169,229.719303 C271.69558,228.795471 271.170941,227.537202 271.171,226.2245" id="Shape" fill="#0038A8"></path>
                <path d="M74.6699375,162.954375 C70.9452326,162.954353 67.9221563,165.967005 67.9093125,169.691688 L67.9093125,224.406125 C67.9093125,228.136125 70.916625,231.143437 74.6699375,231.143437 C78.42325,231.143437 81.4305625,228.136125 81.4305625,224.406125 L81.4305625,169.691688 C81.4177187,165.967005 78.3946424,162.954353 74.6699375,162.954375 M249.956625,183.306188 C253.17541,183.306188 255.78475,180.696847 255.78475,177.478062 L255.78475,168.7825 C255.790978,167.234884 255.178945,165.748857 254.084607,164.654518 C252.990268,163.56018 251.504241,162.948147 249.956625,162.954375 C248.413045,162.954363 246.933025,163.569138 245.843738,164.662799 C244.754452,165.75646 244.145613,167.238933 244.151813,168.7825 L244.151813,177.478062 C244.151813,180.695188 246.7395,183.306188 249.956625,183.306188" id="Shape" fill="#FFFFFF"></path>
                <path d="M216.573125,73.900625 C216.573125,52.826125 198.296125,41.5661875 186.5,12.169125 C174.703875,41.5895 156.426875,52.826125 156.426875,73.900625 C156.426875,88.2844375 168.339562,102.318562 186.5,102.318562 C204.68375,102.318562 216.573125,88.2844375 216.573125,73.900625" id="Shape" fill="#D14414"></path>
            </g>
        </g>
    </g>
</svg>