<svg xmlns="http://www.w3.org/2000/svg" viewBox="0 0 24 16"><g fill="#FFF"><path d="M18.56 14.148a.411.411 0 1 0-.822 0 .411.411 0 0 0 .822 0m-.735 0a.323.323 0 1 1 .646 0 .323.323 0 0 1-.646 0"/><path d="M18.317 14.384l-.093-.199a.14.14 0 0 0-.047-.271h-.198v.47h.088v-.191h.063l.089.191h.098zm-.139-.28h-.11v-.103h.11a.05.05 0 0 1 .051.052.05.05 0 0 1-.051.051"/></g><path fill="#FFF" d="M12 16a8 8 0 1 0 0-16 8 8 0 0 0 0 16"/><path fill="#0038A8" d="M12.445.384c.913 1.432 1.325 1.959 1.325 2.761 0 .962-.809 1.741-1.771 1.741s-1.771-.779-1.771-1.741c0-.802.412-1.329 1.325-2.761a7.63 7.63 0 1 0 .892 0"/><path fill="#FFF" d="M12 14.936a6.935 6.935 0 0 0 1.785-13.639c.157.196.681.918.681 1.848 0 1.344-1.105 2.437-2.465 2.437S9.535 4.488 9.535 3.145c0-.93.524-1.651.681-1.848A6.937 6.937 0 0 0 12 14.936"/><path fill="#0038A8" d="M13.443 8.832h-.497v.795a.289.289 0 0 1-.577 0V8.614h.577v-.751h-.577v-.585a.288.288 0 0 1 .577 0v.364h.497V5.96H11.34v1.03a.37.37 0 0 1 .369.368v2.346a.211.211 0 0 1-.211.211v4.25c0 .304-.159.442-.234.491a6.009 6.009 0 0 0 1.632-.021s.547-.108.547-.591V8.832z"/><path fill="#0038A8" d="M11.34 8.832h-.498v.873a.21.21 0 1 1-.42 0V7.201c0-.116.095-.211.211-.211V5.96H9.551v1.03c.116 0 .211.095.211.211v2.503a.211.211 0 0 1-.211.211v3.702c0 .31-.169.411-.25.441a5.89 5.89 0 0 0 1.541.531s.498.075.498-.425V8.832z"/><path fill="#0038A8" d="M9.393 13.617V9.915a.21.21 0 0 1-.211-.211V7.201c0-.116.094-.211.211-.211V5.96H8.311v1.03c.117 0 .211.095.211.211v2.503a.21.21 0 0 1-.211.211v2.521c0 .527-.27.61-.411.618.334.325.709.611 1.119.85-.001 0 .374.143.374-.287m8.353-5.974V6.509a.55.55 0 0 0-.548-.549h-.648a.55.55 0 0 0-.549.549v1.515c0 .08.049.19.109.244l.867.775c.06.054.109.164.109.244v.335a.294.294 0 0 1-.588 0v-.79H16v4.317c1.076-.999 1.745-2.397 1.745-3.945V8.98c0-.08-.048-.19-.108-.244l-.867-.775a.371.371 0 0 1-.109-.244v-.515a.213.213 0 0 1 .426 0v.44h.659z"/><path fill="#0038A8" d="M8.153 12.437V6.509a.55.55 0 0 0-.549-.549h-.802a.55.55 0 0 0-.549.549v2.695c0 1.35.509 2.585 1.352 3.541.165.215.548.276.548-.308m7.479-2.733V8.477c0-.211-.235-.307-.235-.307s.235-.097.235-.307V6.509a.55.55 0 0 0-.549-.549h-1.481l-.001 1.03c.117 0 .212.095.212.211v2.503a.211.211 0 0 1-.212.211v4.129a.683.683 0 0 1-.202.493 5.913 5.913 0 0 0 1.116-.388s.254-.123.254-.585V9.915a.295.295 0 0 1-.296-.296v-.916a.227.227 0 0 1 .454 0v4.908c0 .14-.019.256-.048.353.294-.162.571-.351.829-.56 0 0 .137-.113.137-.649v-2.84a.211.211 0 0 1-.213-.211"/><path fill="#FFF" d="M7.203 6.99a.29.29 0 0 0-.29.289v2.347c0 .16.129.289.29.289s.29-.129.29-.289V7.279a.29.29 0 0 0-.29-.289m7.519.873a.25.25 0 0 0 .25-.25V7.24a.249.249 0 0 0-.25-.25.249.249 0 0 0-.249.25v.373c0 .138.111.25.249.25"/><path fill="#D14414" d="M13.29 3.17c0-.904-.784-1.387-1.29-2.648-.506 1.262-1.29 1.744-1.29 2.648 0 .617.511 1.219 1.29 1.219.78 0 1.29-.602 1.29-1.219"/></svg>