<svg xmlns="http://www.w3.org/2000/svg" viewBox="0 0 24 16"><path d="M19.046 1.605C17.028.555 14.592 0 12 0 9.408 0 6.97.555 4.954 1.605l-.109.057v3.074c0 .818.117 2.974 1.199 5.318 1.213 2.63 2.967 4.393 5.863 5.897L12 16l.093-.049c2.896-1.504 4.65-3.268 5.863-5.897 1.082-2.344 1.2-4.5 1.2-5.318V1.662l-.11-.057zm-.093 3.13c0 .806-.115 2.927-1.18 5.234-1.307 2.833-3.231 4.483-5.773 5.803-2.563-1.33-4.474-2.988-5.773-5.803-1.065-2.307-1.18-4.428-1.18-5.233V1.785C7.21.658 9.677.202 12 .202c2.345 0 4.803.463 6.953 1.582v2.952z" fill="#fff"/><path d="M11.686 6.153zm-1.285.309l.044.09zm1.422-.322s-.03 0-.088.007a.942.942 0 0 1 .088-.007z"/><path d="M14.834 7.53c.31-.174.728-.562.728-.562.223-.66.416-1.545.416-1.545 0-.087-.106-.23-.106-.23a1.569 1.569 0 0 0-.35-.09c-.36.058-.829.411-1.203.704.195 0 .534-.062.534-.062a9.82 9.82 0 0 1-.31.63c.155.01.456-.057.456-.057-.117.359-.34.796-.34.796l.175.417zM5.898 5.219c.113 2.218 1.031 6.223 4.82 8.839.506-.271.844-.728 1.045-1.083.4.482.44 1.156.44 1.157.428-2-1.445-3.543-1.445-3.543s1.351.657 2.283 1.725c0 0 .027-.18-.03-.473-.065-.342-.167-.583-.167-.583s.974.791 1.5 1.969l.035-.032c1.336-1.382 1.374-3.453 1.374-3.453-.291-1.208-.802-1.628-.802-1.628.101.553.165 1.16.165 1.16a3.73 3.73 0 0 1-.908 1.198c-.524.058-.94.006-1.667-.24-.63-.214-1.099-.546-1.099-.546s-.24-.014-.517.015a5.543 5.543 0 0 0-.517.087c.313-.553.499-1.115.533-1.37a4.9 4.9 0 0 0-.68-.61c-.518.024-.93.054-.93.054l.175-.708s-.12.099-.253.232c-.143.143-.3.32-.3.32-.311.127-.748.195-.748.195-.223-.058-.436-.204-.436-.204.524-.776 1.378-1.087 1.378-1.087C8.99 6.425 9 6.28 9 6.28c.218-.144.417-.262.593-.36a.769.769 0 0 0-.05.195s.3-.241.482-.35c.203-.123.402-.227.402-.227.132-.425.358-.77.416-.818 0 0 .12-.02.18-.012.012.139.171.36.236.445-.33.108-.616.322-.616.322s.725-.193 1.366-.214c.868-.03 1.404.166 1.404.166-.13.189-.307.387-.307.387 1.436-.487 1.586-.86 2.365-1.026.284.046.541.138.541.138.185.194.229.393.229.393-.107.83-.442 1.762-.442 1.762-.262.32-.714.611-.714.611.452-.058 1.122-.262 1.122-.262.416.304.963.964 1.19 1.249.471-1.31.657-2.539.704-3.46-.19-.095-2.548-1.246-6.102-1.246-3.554 0-5.912 1.15-6.102 1.246zm2.85 5.311a1.487 1.487 0 0 1-.465-.679c.01-.281.145-.456.145-.456.631.447 1.602.845 1.602.845-.757.072-1.281.29-1.281.29zM8.61 8.335c.051-.04.12-.096.167-.13 0 0 .275-.04.576-.06.233-.018.448-.008.448-.008l.193.226c-.102.01-.26.036-.433.092 0 0 .383.106.646.286-.004.035-.009.07-.015.104a2.48 2.48 0 0 0-.567.01s.266.124.487.3a2.86 2.86 0 0 1-.041.112 2.221 2.221 0 0 0-.502-.045s.203.126.388.298c-.047.091-.082.146-.082.146-.563-.168-1.263-.488-1.442-.571l-.01-.555c.06-.076.094-.122.187-.205zm-.817-.22c.04.063.088.135.145.209.061.08.128.15.204.22l.202.57c-.144.137-.333.436-.333.436-.233-.398-.418-.913-.418-.913l.2-.521zM12 14.828zm.237-8.524a6.716 6.716 0 0 0-.414-.163s-.03 0-.088.007a1.942 1.942 0 0 0-.18.028c-.228.045-.6.147-1.11.376l-.044-.09-.058-.12-.585.805c.199.037.404.05.593.049.416-.002.751-.067.751-.067a6 6 0 0 0 .653-.651l.07-.082c.136-.039.243-.058.412-.092zm-1.28.616c-.33.16-.612.03-.612.03l.078-.132c.047.051.182.104.281.064.099-.04.137-.143.15-.192a3.06 3.06 0 0 1 .355-.046s-.05.178-.252.276zm-5.91-5.134v2.95c0 .806.115 2.927 1.18 5.234 1.299 2.815 3.21 4.472 5.773 5.803 2.542-1.32 4.466-2.97 5.773-5.803 1.065-2.307 1.18-4.428 1.18-5.233V1.785C16.803.665 14.345.202 12 .202c-2.324 0-4.79.456-6.953 1.583zm13.529 2.95c0 .78-.112 2.836-1.146 5.076-1.203 2.608-3.03 4.29-5.43 5.536-2.39-1.242-4.223-2.919-5.43-5.536-1.034-2.24-1.146-4.295-1.146-5.075V2.013C7.324 1.024 9.812.58 12 .58c2.18 0 4.672.443 6.576 1.434v2.723z" fill="#002654"/><path d="M11.644 6.6a5.914 5.914 0 0 1-.542.528s-.335.065-.75.067c.415-.002.75-.067.75-.067a6.05 6.05 0 0 0 .542-.527z" fill="#bf910c"/><path fill="none" d="M10.401 6.462l.044.09"/><path d="M5.424 2.013v2.723c0 .78.112 2.835 1.145 5.075 1.208 2.617 3.04 4.294 5.43 5.536C14.4 14.1 16.228 12.42 17.43 9.811c1.034-2.24 1.146-4.295 1.146-5.075V2.013C16.672 1.023 14.18.58 12 .58c-2.188 0-4.676.445-6.576 1.434zm11.973 6.664c-.227-.284-.773-.945-1.19-1.248 0 0-.67.204-1.12.262 0 0 .45-.291.713-.611 0 0 .335-.932.441-1.762 0 0-.043-.2-.228-.394 0 0-.257-.092-.541-.138-.779.167-.929.54-2.366 1.027 0 0 .177-.199.307-.387 0 0-.535-.196-1.404-.167-.64.022-1.365.215-1.365.215s.286-.214.615-.322c-.064-.085-.223-.307-.234-.446-.062-.007-.181.012-.181.012-.058.05-.285.394-.416.818 0 0-.199.105-.403.227-.182.11-.48.35-.48.35s.005-.08.048-.194a8.544 8.544 0 0 0-.592.36s-.01.145.146.33c0 0-.855.31-1.379 1.087 0 0 .214.145.437.204 0 0 .437-.068.747-.195 0 0 .158-.177.301-.32.133-.134.252-.233.252-.233l-.174.709s.412-.03.93-.055a4.9 4.9 0 0 1 .68.61c-.034.255-.22.818-.533 1.37 0 0 .283-.062.517-.087.277-.029.517-.014.517-.014s.468.332 1.099.546c.727.246 1.143.298 1.667.24 0 0 .582-.48.907-1.199 0 0-.063-.606-.165-1.16 0 0 .512.42.803 1.629 0 0-.038 2.071-1.374 3.453l-.036.032A11.831 11.831 0 0 1 12 14.827s.175-.367.204-.697c0 0-.041-.674-.44-1.157-.202.356-.54.812-1.046 1.083-3.788-2.616-4.707-6.62-4.82-8.839.19-.095 2.549-1.246 6.102-1.246 3.554 0 5.912 1.15 6.102 1.246-.047.922-.233 2.15-.705 3.46zm-2.854-2.301s.242-.457.31-.631c0 0-.34.062-.534.062.374-.293.844-.646 1.204-.704 0 0 .244.036.35.09 0 0 .105.143.105.23 0 0-.193.885-.416 1.545 0 0-.418.388-.728.563l-.175-.418s.223-.437.34-.796c0 0-.301.068-.456.059zm-2.718.019c.005.087 0 .155 0 .155-.145.253-.422.554-.6.719a3.756 3.756 0 0 1-1.04.077l-.427-.2.585-.804s.803-.321 1.48-.201a10.111 10.111 0 0 0 .414.162c-.17.034-.276.053-.412.092l-.07.082.07-.082zm.753.6c.029-.12.009-.494.009-.494s.214.07.544.333c0 0-.043.243-.11.488l-1.146.525s.382-.412.703-.852zm5.536-4.702v2.43C16.28 3.888 14.008 3.51 12 3.51c-2.015 0-4.284.38-6.115 1.212V2.293S8.292 1.04 12 1.04c3.707 0 6.114 1.253 6.114 1.253z" fill="#bf910c"/><path d="M10.704 6.88c-.1.041-.234-.012-.281-.063l-.078.132s.281.13.612-.03a.48.48 0 0 0 .252-.276c-.124.01-.246.025-.355.046-.013.049-.051.152-.15.192zm1.662-5.075a16.027 16.027 0 0 0-.355-.004v.313c.119 0 .237.002.355.004v-.313zm2.485 1.208c.116.022.233.045.35.07v-.946a14.772 14.772 0 0 0-.35-.07v.946zm-8.966 1.71C7.716 3.888 9.985 3.51 12 3.51c2.008 0 4.28.378 6.114 1.213v-2.43S15.707 1.04 12 1.04c-3.708 0-6.115 1.253-6.115 1.253v2.43zm10.377-2.368c.048-.078.097-.155.146-.231.227.067.452.14.676.218l.145.326V3.98a15.008 15.008 0 0 0-.311-.108v-.633a15.17 15.17 0 0 0-.342-.11v.632c-.104-.032-.21-.063-.314-.093V2.355zm-1.732-.666c.281.047.562.102.841.164l.148.308V3.2l-.148.24c-.28-.063-.56-.117-.841-.164V1.689zm-1.08-.14c.109.01.216.022.324.034V3.17a16.092 16.092 0 0 0-.323-.034V1.549zm-1.764-.065c.285-.005.57-.004.854.007l.151.28v.405l-.151.268a8.807 8.807 0 0 0-.107-.004l.258.643-.345-.012-.258-.636h-.077v.633c-.108 0-.216 0-.325.003V1.484zm-1.76.41l.15-.293a14.9 14.9 0 0 1 .699-.071l.151.262v1.039l-.151.285c-.234.019-.467.043-.7.072l-.15-.254v-1.04zm-1.593.029l.318-.075v1.267c.173-.039.347-.074.52-.107v.32c-.28.053-.56.113-.838.181V1.923zm-1.562.47c.272-.097.545-.187.821-.27v.32c-.17.052-.34.105-.51.162v.314c.121-.041.243-.08.364-.118v.32a14.41 14.41 0 0 0-.364.118v.633c-.104.035-.208.07-.311.108V2.394zm10.147.212a15.17 15.17 0 0 0-.342-.11v.313c.115.035.228.072.342.11v-.313zm-6.316-.74c-.118.01-.236.022-.354.036v.946c.118-.014.236-.026.354-.036v-.947z" fill="#ce1126"/><path d="M9.172 3.009a15.71 15.71 0 0 0-.52.106V1.849c-.107.023-.213.048-.32.074V3.51c.28-.069.56-.129.84-.181v-.32zm2.84-.575h.076l.258.637.345.012-.258-.643.107.004.151-.269V1.77l-.15-.28c-.285-.01-.57-.012-.855-.006V3.07l.325-.003v-.633zm0-.633c.118 0 .236.002.354.004v.313a14.795 14.795 0 0 0-.355-.004v-.313zm-4.93 1.438c.12-.041.242-.08.364-.118v-.32a14.41 14.41 0 0 0-.364.118v-.314c.17-.057.34-.11.51-.161v-.32c-.276.082-.55.172-.821.27V3.98c.103-.037.207-.073.31-.108v-.633zm9.494-.11c.115.035.228.071.342.11v.633c.104.035.208.07.311.108V2.668l-.145-.326a16.6 16.6 0 0 0-.676-.218l-.146.23v1.313c.105.03.21.062.314.094v-.633zm0-.634c.115.035.228.072.342.11v.314a15.17 15.17 0 0 0-.342-.11v-.314zm-5.801.621l.151-.285V1.792l-.151-.263c-.234.019-.467.043-.7.072l-.15.294v1.038l.15.255c.233-.03.467-.053.7-.072zm-.526-1.215c.117-.014.235-.026.353-.036v.946c-.118.01-.236.022-.353.036V1.9zm3.525-.318a16.092 16.092 0 0 0-.323-.034v1.587c.108.01.216.021.323.034V1.583zM15.52 3.2V2.16l-.148-.308c-.28-.062-.56-.117-.841-.164v1.587c.281.047.562.101.841.164l.148-.24zm-.319-.117a14.772 14.772 0 0 0-.35-.07v-.946c.118.022.234.045.35.07v.946zM8.01 9.55s.19-.3.334-.437l-.202-.568a1.808 1.808 0 0 1-.204-.221 2.699 2.699 0 0 1-.144-.208l-.2.521s.184.515.417.913zm.273.3s.116.403.465.68c0 0 .524-.219 1.282-.291 0 0-.971-.398-1.602-.845 0 0-.136.175-.145.456zm2.82-2.722s-.336.065-.752.067a3.28 3.28 0 0 1-.593-.049l.427.2c.308.014.67.01 1.04-.078.178-.165.455-.466.6-.718 0 0 .005-.068 0-.155l-.07.081a6.72 6.72 0 0 1-.653.652zm-1.345.018zm.116 2.52s.035-.055.082-.146c-.185-.172-.387-.298-.387-.298a2.27 2.27 0 0 1 .502.045c.014-.036.027-.073.04-.112-.22-.176-.486-.3-.486-.3a2.48 2.48 0 0 1 .567-.01c.006-.035.01-.07.014-.104a2.559 2.559 0 0 0-.645-.286c.172-.056.331-.081.433-.093L9.8 8.137s-.216-.01-.449.008c-.3.02-.575.06-.575.06-.046.034-.116.09-.167.13-.094.083-.127.13-.187.205l.01.554c.178.084.878.404 1.441.572z" fill="#fff"/><path d="M13.13 6.834c-.33-.262-.543-.333-.543-.333s.02.375-.01.494c-.32.44-.703.852-.703.852l1.147-.525c.067-.245.11-.488.11-.488z" fill="#002654"/><path d="M12.844 11.257s.102.24.168.583c.056.293.029.473.029.473-.932-1.068-2.284-1.725-2.284-1.725s1.873 1.543 1.446 3.543c-.029.33-.203.696-.203.696.34-.176.66-.363.964-.558.507-.325.965-.675 1.38-1.043-.526-1.178-1.5-1.969-1.5-1.969zm-2.4-4.706c.511-.23.883-.33 1.111-.376a2.51 2.51 0 0 1 .18-.028c.058-.007.088-.007.088-.007-.678-.12-1.48.201-1.48.201l.058.12.044.09zm3.697 8.674v.318h-.08v-.318h-.092v-.079h.264v.079h-.092zm.43.318v-.234l-.066.145h-.07l-.067-.145v.234h-.08v-.397h.08l.102.212.102-.212h.08v.397h-.08z" fill="#fff"/></svg>