<svg xmlns="http://www.w3.org/2000/svg" viewBox="0 0 24 16"><path d="m87.296 135.693c-9.249-4.815-20.417-7.36-32.296-7.36-11.881 0-23.048 2.545-32.295 7.36l-0.498 0.259 0 14.087c0 3.75 0.535 13.631 5.493 24.375 5.563 12.054 13.6 20.138 26.873 27.031l0.427 0.222 0.427-0.221c13.274-6.895 21.311-14.979 26.874-27.031 4.958-10.743 5.494-20.625 5.494-24.375l0-14.087-0.499-0.26zm-0.428 14.347c0 3.689-0.527 13.411-5.408 23.987C75.468 187.009 66.651 194.573 55 200.625 43.252 194.524 34.494 186.927 28.54 174.027 23.659 163.45 23.132 153.729 23.132 150.04l0-13.526c9.917-5.164 21.218-7.256 31.868-7.256 10.75 0 22.016 2.126 31.868 7.255l0 13.527z" fill="#fff" transform="translate(0 -28) scale(.21818)"/><path d="M53.56 156.537c-.167.024-.366.056-.598.102.232-.045.431-.078.598-.102zM47.672 157.95L47.873 158.362 47.873 158.362zM54.188 156.477l0 0c0 0-.135.001-.403.031.267-.03.402-.031.403-.031z" transform="translate(0 -28) scale(.21818)"/><path d="m67.989 162.851c1.423-0.801 3.336-2.58 3.336-2.58 1.023-3.025 1.907-7.08 1.907-7.08 0-0.4-0.484-1.051-0.484-1.051-0.484-0.25-1.601-0.417-1.601-0.417-1.652 0.267-3.803 1.885-5.516 3.229 0.89 0 2.447-0.287 2.447-0.287-0.312 0.801-1.424 2.892-1.424 2.892 0.712 0.044 2.091-0.267 2.091-0.267-0.534 1.646-1.557 3.649-1.557 3.649l0.801 1.912zM27.034 152.25c0.516 10.165 4.726 28.523 22.088 40.513 2.323-1.244 3.872-3.336 4.792-4.966 1.83 2.213 2.02 5.301 2.02 5.303 1.957-9.164-6.628-16.236-6.628-16.236 0 0 6.194 3.012 10.465 7.905 0 0 0.124-0.825-0.133-2.169-0.3-1.568-0.767-2.669-0.767-2.669 0 0 4.463 3.626 6.871 9.023l0 0 0 0c0.055-0.048 0.109-0.097 0.163-0.145 6.123-6.335 6.298-15.828 6.298-15.828-1.335-5.538-3.679-7.461-3.679-7.461 0.467 2.534 0.756 5.314 0.756 5.314-1.49 3.292-4.159 5.494-4.159 5.494-2.402 0.267-4.306 0.027-7.64-1.101-2.892-0.979-5.038-2.502-5.038-2.502 0 0-1.101-0.067-2.369 0.067-1.073 0.113-2.369 0.4-2.369 0.4 1.435-2.536 2.286-5.112 2.44-6.283-0.976-1.033-2.032-2.016-3.112-2.793-2.376 0.111-4.266 0.248-4.266 0.248l0.801-3.247c0 0-0.546 0.455-1.157 1.066-0.656 0.656-1.378 1.47-1.378 1.47-1.424 0.578-3.425 0.89-3.425 0.89-1.023-0.267-2.002-0.934-2.002-0.934 2.402-3.559 6.317-4.982 6.317-4.982-0.712-0.845-0.667-1.512-0.667-1.512 0.998-0.66 1.91-1.203 2.715-1.648-0.197 0.522-0.224 0.89-0.224 0.89 0 0 1.37-1.105 2.204-1.605 0.934-0.561 1.844-1.04 1.844-1.04 0.604-1.947 1.64-3.525 1.907-3.75 0 0 0.546-0.087 0.829-0.054 0.053 0.637 0.78 1.652 1.076 2.041-1.511 0.493-2.82 1.477-2.82 1.477 0 0 3.32-0.886 6.258-0.984 3.981-0.133 6.435 0.764 6.435 0.764-0.598 0.863-1.408 1.773-1.408 1.773 6.586-2.232 7.273-3.939 10.843-4.706 1.301 0.211 2.48 0.634 2.48 0.634 0.845 0.89 1.046 1.802 1.046 1.802-0.489 3.803-2.024 8.076-2.024 8.076-1.201 1.468-3.27 2.802-3.27 2.802 2.069-0.267 5.138-1.203 5.138-1.203 1.908 1.393 4.414 4.42 5.453 5.723 2.164-6.002 3.015-11.635 3.23-15.855-0.869-0.438-11.678-5.714-27.966-5.714-16.29-0.002-27.099 5.274-27.968 5.712zm13.064 24.345c-1.601-1.268-2.135-3.114-2.135-3.114 0.045-1.29 0.667-2.089 0.667-2.089 2.891 2.046 7.34 3.87 7.34 3.87-3.47 0.332-5.872 1.333-5.872 1.333zm-0.635-10.059c0.235-0.184 0.554-0.437 0.764-0.595 0 0 1.262-0.18 2.639-0.273 1.068-0.084 2.057-0.039 2.057-0.039l0.882 1.034c-0.465 0.052-1.194 0.168-1.982 0.425 0 0 1.753 0.485 2.958 1.309-0.018 0.16-0.04 0.32-0.067 0.477-0.385-0.038-1.479-0.12-2.597 0.044 0 0 1.219 0.571 2.229 1.377-0.061 0.178-0.123 0.35-0.187 0.514-0.399-0.084-1.276-0.235-2.301-0.206 0 0 0.929 0.578 1.777 1.364-0.216 0.419-0.376 0.671-0.376 0.671-2.579-0.77-5.789-2.238-6.607-2.62l-0.043-2.542c0.273-0.346 0.427-0.557 0.854-0.94zm-3.743-1.004c0.18 0.286 0.402 0.615 0.663 0.954 0.28 0.364 0.586 0.687 0.934 1.012l0.926 2.606c-0.66 0.629-1.527 2-1.527 2-1.068-1.824-1.913-4.182-1.913-4.182l0.917-2.39zM55 196.294c1.556-0.808 3.028-1.664 4.42-2.559-1.392 0.895-2.864 1.751-4.42 2.559l0 0zM56.089 157.222c-0.222-0.095-0.452-0.188-0.672-0.276-0.66-0.263-1.229-0.469-1.229-0.469 0 0-0.136 0.001-0.403 0.031-0.067 0.008-0.142 0.017-0.225 0.029-0.167 0.024-0.366 0.056-0.598 0.102-1.045 0.205-2.75 0.67-5.089 1.723l0 0 0 0-0.201-0.413-0.268-0.55-2.68 3.689 0 0 0 0 0 0c0.911 0.17 1.854 0.226 2.72 0.222 1.906-0.009 3.441-0.307 3.441-0.307 0.997-0.841 1.882-1.753 2.487-2.415 0.202-0.221 0.372-0.414 0.506-0.568 0.178-0.205 0.29-0.339 0.321-0.375 0.623-0.178 1.112-0.267 1.89-0.423zm-5.871 2.827c-1.512 0.734-2.803 0.133-2.803 0.133 0 0 0.189-0.319 0.356-0.602 0.217 0.234 0.834 0.477 1.29 0.291 0.451-0.184 0.626-0.655 0.685-0.879 0.501-0.096 1.059-0.167 1.628-0.211 0 0-0.226 0.816-1.156 1.268zM23.132 136.514l0 13.526c0 3.689 0.527 13.411 5.408 23.987 5.954 12.9 14.712 20.497 26.46 26.598 11.651-6.051 20.469-13.616 26.46-26.598 4.881-10.577 5.408-20.298 5.408-23.987l0-13.526C77.015 131.385 65.749 129.259 55 129.259 44.35 129.258 33.048 131.35 23.132 136.514Zm62.007 13.526c0 3.574-0.511 12.997-5.249 23.262C74.373 185.255 66.002 192.962 55 198.676 44.042 192.985 35.646 185.297 30.11 173.302 25.372 163.037 24.861 153.614 24.861 150.04l0-12.477c8.709-4.535 20.112-6.575 30.139-6.575 9.992 0 21.413 2.032 30.139 6.575l0 12.477z" fill="#002654" transform="translate(0 -28) scale(.21818)"/><path d="m53.371 158.588c-0.605 0.663-1.489 1.575-2.487 2.415 0 0-1.535 0.298-3.441 0.307 1.906-0.009 3.441-0.307 3.441-0.307 0.998-0.841 1.882-1.753 2.487-2.415z" fill="#bf910c" transform="translate(0 -28) scale(.21818)"/><path fill="none" d="M47.672 157.95L47.873 158.362" transform="translate(0 -28) scale(.21818)"/><path d="m24.861 137.563 0 12.477c0 3.574 0.511 12.997 5.249 23.262 5.536 11.995 13.931 19.683 24.89 25.374 11.002-5.714 19.373-13.421 24.89-25.374 4.737-10.265 5.249-19.688 5.249-23.262l0-12.477C76.413 133.02 64.992 130.988 55 130.988c-10.026 0-21.43 2.04-30.139 6.575zm54.876 30.542c-1.04-1.303-3.545-4.33-5.453-5.723 0 0-3.069 0.936-5.138 1.203 0 0 2.069-1.334 3.27-2.802 0 0 1.535-4.272 2.024-8.076 0 0-0.2-0.912-1.046-1.802 0 0-1.179-0.423-2.48-0.634-3.57 0.767-4.257 2.474-10.843 4.706 0 0 0.81-0.91 1.408-1.773 0 0-2.454-0.898-6.435-0.764-2.939 0.098-6.258 0.984-6.258 0.984 0 0 1.309-0.983 2.82-1.477-0.296-0.389-1.023-1.404-1.076-2.041-0.283-0.034-0.829 0.054-0.829 0.054-0.267 0.224-1.303 1.803-1.907 3.75 0 0-0.91 0.479-1.844 1.04-0.834 0.5-2.204 1.605-2.204 1.605 0 0 0.027-0.368 0.224-0.89-0.806 0.444-1.718 0.988-2.715 1.648 0 0-0.045 0.667 0.667 1.512 0 0-3.915 1.424-6.317 4.982 0 0 0.979 0.667 2.002 0.934 0 0 2.002-0.311 3.425-0.89 0 0 0.723-0.814 1.378-1.47 0.611-0.611 1.157-1.066 1.157-1.066l-0.801 3.247c0 0 1.89-0.137 4.266-0.248 1.08 0.777 2.136 1.76 3.112 2.793-0.155 1.172-1.006 3.748-2.44 6.283 0 0 1.296-0.287 2.369-0.4 1.268-0.133 2.369-0.067 2.369-0.067 0 0 2.146 1.523 5.038 2.502 3.334 1.128 5.238 1.368 7.64 1.101 0 0 2.669-2.202 4.159-5.494 0 0-0.289-2.78-0.756-5.314 0 0 2.344 1.922 3.679 7.461 0 0-0.175 9.494-6.298 15.828-0.054 0.049-0.109 0.097-0.163 0.145l0 0c-1.899 1.684-3.999 3.288-6.32 4.78-1.392 0.895-2.864 1.751-4.42 2.559l0 0 0 0c0 0 0.8-1.681 0.934-3.194l0 0c0-0.002-0.189-3.09-2.02-5.303-0.92 1.63-2.469 3.722-4.792 4.966-17.362-11.99-21.572-30.348-22.088-40.513 0.869-0.438 11.679-5.714 27.966-5.714 16.288 0 27.097 5.276 27.966 5.714-0.215 4.223-1.066 9.855-3.23 15.858zM66.654 157.556c0 0 1.112-2.091 1.424-2.892 0 0-1.557 0.287-2.447 0.287 1.713-1.344 3.865-2.962 5.516-3.229 0 0 1.118 0.167 1.601 0.417 0 0 0.484 0.651 0.484 1.051 0 0-0.884 4.055-1.907 7.08 0 0-1.913 1.779-3.336 2.58l-0.801-1.913c0 0 1.023-2.004 1.557-3.649 0 0.001-1.379 0.312-2.091 0.268zm-12.455 0.089c0.022 0.4 0 0.712 0 0.712-0.667 1.156-1.935 2.536-2.747 3.292-1.701 0.4-3.358 0.423-4.771 0.356l-1.957-0.915 0 0 0 0 2.68-3.689 0 0c0 0 3.68-1.47 6.784-0.922l0 0 0 0c0 0 0.569 0.206 1.229 0.469 0.22 0.088 0.45 0.181 0.672 0.276-0.778 0.154-1.267 0.243-1.89 0.421-0.032 0.036-0.144 0.171-0.322 0.375 0.178-0.205 0.29-0.339 0.322-0.375zm3.449 2.749c0.133-0.545 0.043-2.264 0.043-2.264 0 0 0.98 0.326 2.492 1.527 0 0-0.196 1.113-0.5 2.235l-5.257 2.41c-0.001 0 1.752-1.891 3.222-3.908zm25.377-21.548 0 11.135C74.618 146.156 64.206 144.422 55 144.422c-9.236 0-19.634 1.739-28.025 5.557l0-11.133c0 0 11.032-5.744 28.025-5.744 16.993 0 28.025 5.744 28.025 5.744z" fill="#bf910c" transform="translate(0 -28) scale(.21818)"/><path d="m49.061 159.871c-0.456 0.186-1.073-0.057-1.29-0.291-0.167 0.283-0.356 0.602-0.356 0.602 0 0 1.29 0.601 2.803-0.133 0.931-0.452 1.157-1.268 1.157-1.268-0.57 0.044-1.127 0.115-1.628 0.211-0.06 0.224-0.235 0.695-0.686 0.879zM56.679 136.609c-0.542-0.013-1.084-0.019-1.626-0.02l0 1.435c0.542 0 1.084 0.007 1.626 0.02l0-1.435zM68.066 142.143c0.535 0.1 1.069 0.207 1.602 0.32l0-4.336c-0.533-0.113-1.067-0.22-1.602-0.32l0 4.336zM26.975 149.979c8.391-3.818 18.788-5.557 28.025-5.557 9.206 0 19.618 1.734 28.025 5.559l0-11.135c0 0-11.032-5.744-28.025-5.744-16.993 0-28.025 5.744-28.025 5.744l0 11.133zm47.558-10.852c0.224-0.354 0.448-0.707 0.671-1.059 1.039 0.31 2.073 0.643 3.1 1.002 0.221 0.496 0.442 0.993 0.663 1.491 0 2.005 0 4.01 0 6.015-0.474-0.171-0.95-0.336-1.426-0.496l0-2.902c-0.521-0.175-1.043-0.344-1.566-0.506l0 2.902c-0.479-0.149-0.96-0.292-1.442-0.43l0-6.017zm-7.938-3.049c1.29 0.215 2.576 0.465 3.856 0.751 0.227 0.469 0.453 0.94 0.68 1.412 0 1.586 0 3.173 0 4.759-0.226 0.366-0.453 0.733-0.68 1.1-1.28-0.286-2.566-0.537-3.856-0.751l0-7.271zm-4.946-0.643c0.495 0.047 0.989 0.099 1.483 0.156l0 7.271c-0.494-0.057-0.988-0.109-1.483-0.156l0-7.271zm-8.086-0.298c1.304-0.026 2.609-0.017 3.913 0.029 0.231 0.426 0.461 0.854 0.692 1.282l0 1.858c-0.231 0.409-0.462 0.818-0.693 1.229-0.163-0.006-0.326-0.011-0.488-0.015 0.394 0.978 0.788 1.96 1.181 2.945-0.527-0.023-1.054-0.041-1.581-0.053-0.394-0.976-0.788-1.949-1.182-2.919-0.117-0.001-0.235-0.001-0.352-0.001l0 2.902c-0.496-0.001-0.993 0.005-1.49 0.014 0-2.424 0-4.847 0-7.271zm-8.071 1.882c0.229-0.449 0.459-0.898 0.688-1.345 1.066-0.134 2.136-0.244 3.206-0.329 0.23 0.4 0.461 0.802 0.692 1.205l0 4.759c-0.231 0.435-0.461 0.871-0.692 1.308-1.071 0.085-2.14 0.195-3.206 0.329-0.23-0.39-0.459-0.778-0.688-1.165l0-4.762zm-7.3 0.128c0.486-0.118 0.972-0.232 1.46-0.341l0 5.804c0.793-0.176 1.589-0.339 2.386-0.487l0 1.467c-1.288 0.24-2.57 0.516-3.846 0.828l0-7.271zm-7.159 2.158c1.246-0.448 2.501-0.861 3.764-1.237l0 1.467c-0.782 0.233-1.561 0.48-2.337 0.741l0 1.435c0.554-0.186 1.111-0.366 1.668-0.538l0 1.467c-0.558 0.172-1.114 0.351-1.668 0.538l0 2.902c-0.477 0.16-0.952 0.326-1.427 0.496 0-2.423 0-4.847 0-7.271zM77.541 140.276c-0.521-0.175-1.043-0.344-1.566-0.506l0 1.435c0.524 0.162 1.046 0.331 1.566 0.506l0-1.435zM48.592 136.88c-0.541 0.049-1.08 0.105-1.62 0.166l0 4.336c0.539-0.062 1.079-0.117 1.62-0.166 0-1.445 0-2.89 0-4.336z" fill="#ce1126" transform="translate(0 -28) scale(.21818)"/><path d="M42.038 142.124c-.798.149-1.593.311-2.386.487l0-5.804c-.487.108-.974.222-1.46.341l0 7.272c1.276-.312 2.559-.588 3.846-.828l0-1.468zM55.053 139.491c.117 0 .235 0 .352.001.394.97.788 1.943 1.182 2.919.527.012 1.054.03 1.581.053-.393-.985-.787-1.967-1.181-2.945.163.004.326.01.488.015.231-.411.462-.82.693-1.229l0-1.858c-.23-.428-.461-.856-.692-1.282-1.304-.046-2.608-.055-3.913-.029 0 2.424 0 4.848 0 7.271.497-.01.993-.015 1.49-.014l0-2.902zm0-2.902c.542.001 1.084.007 1.626.02l0 1.435c-.542-.013-1.084-.02-1.626-.02l0-1.435zM32.459 143.178c.554-.186 1.111-.366 1.668-.538l0-1.467c-.558.172-1.114.351-1.668.538l0-1.435c.776-.261 1.555-.508 2.337-.741l0-1.467c-1.263.376-2.518.789-3.764 1.237 0 2.424 0 4.848 0 7.271.474-.171.95-.336 1.427-.496l0-2.902zM75.975 142.672c.524.163 1.046.331 1.566.506l0 2.902c.477.16.952.326 1.426.496 0-2.005 0-4.01 0-6.015-.221-.498-.441-.995-.663-1.491-1.028-.358-2.061-.692-3.1-1.002-.223.352-.447.705-.671 1.059l0 6.016c.482.138.962.282 1.442.43l0-2.901zm0-2.902c.524.162 1.046.331 1.566.506l0 1.435c-.521-.175-1.043-.344-1.566-.506l0-1.435zM49.386 142.616c.23-.437.461-.873.692-1.308l0-4.759c-.231-.403-.461-.804-.692-1.205-1.071.085-2.14.195-3.206.329-.23.447-.459.895-.688 1.345l0 4.761c.229.387.459.776.688 1.165 1.067-.133 2.136-.243 3.206-.328zm-2.413-5.569c.539-.062 1.079-.117 1.62-.166 0 1.446 0 2.891 0 4.336-.541.049-1.08.104-1.62.166l0-4.336zM63.133 135.591c-.494-.057-.988-.109-1.483-.156l0 7.272c.495.047.989.099 1.483.156l0-7.272zM71.131 143c0-1.586 0-3.172 0-4.759-.226-.472-.453-.942-.68-1.412-1.28-.286-2.566-.537-3.856-.751l0 7.271c1.29.214 2.576.465 3.856.751.227-.367.453-.734.68-1.1zm-1.462-.537c-.533-.113-1.067-.22-1.602-.32l0-4.336c.535.101 1.069.207 1.602.32l0 4.336zM36.717 172.104c0 0 .867-1.371 1.527-2l-.926-2.606c-.348-.325-.654-.648-.934-1.012-.261-.339-.483-.668-.663-.954l-.916 2.39c-.001 0 .844 2.358 1.912 4.182zM37.962 173.481c0 0 .534 1.846 2.135 3.114 0 0 2.402-1.001 5.872-1.333 0 0-4.449-1.824-7.34-3.87.001 0-.622.799-.667 2.089zM50.885 161.003c0 0-1.535.298-3.441.307-.866.004-1.809-.051-2.72-.222l1.957.915c1.413.067 3.069.045 4.771-.356.812-.756 2.08-2.135 2.747-3.292 0 0 .022-.311 0-.712-.032.036-.144.171-.322.375-.134.154-.304.347-.506.568-.605.664-1.489 1.576-2.486 2.417zM44.724 161.088L44.724 161.088 44.724 161.088zM45.258 172.637c0 0 .16-.252.376-.671-.848-.787-1.777-1.364-1.777-1.364 1.025-.029 1.901.122 2.301.206.064-.164.127-.336.187-.514-1.009-.805-2.229-1.377-2.229-1.377 1.118-.164 2.213-.082 2.597-.044.027-.157.049-.317.067-.477-1.205-.824-2.958-1.309-2.958-1.309.789-.256 1.517-.372 1.982-.425l-.882-1.034c0 0-.99-.045-2.057.039-1.377.092-2.639.273-2.639.273-.21.158-.529.411-.764.595-.428.383-.582.594-.856.94l.043 2.542c.819.382 4.029 1.851 6.609 2.62z" fill="#fff" transform="translate(0 -28) scale(.21818)"/><path d="m60.183 159.657c-1.512-1.201-2.492-1.527-2.492-1.527 0 0 0.091 1.719-0.043 2.264-1.47 2.017-3.223 3.908-3.223 3.908l5.257-2.41c0.305-1.122 0.501-2.235 0.501-2.235z" fill="#002654" transform="translate(0 -28) scale(.21818)"/><path d="M58.87 179.931c0 0 .467 1.101.767 2.669.257 1.344.133 2.169.133 2.169-4.27-4.893-10.465-7.905-10.465-7.905 0 0 8.585 7.073 6.628 16.236l0 0C55.8 194.613 55 196.294 55 196.294l0 0c1.556-.808 3.028-1.664 4.42-2.559 2.321-1.492 4.421-3.096 6.32-4.78l0 0c-2.407-5.398-6.87-9.024-6.87-9.024zM47.873 158.362l0 0c2.338-1.053 4.044-1.518 5.089-1.723.232-.046.432-.078.598-.102.083-.012.158-.021.225-.029.267-.031.402-.031.402-.031l0 0c-3.104-.548-6.784.922-6.784.922l0 0 .268.55.202.413zM64.813 198.116l0 1.457-.364 0 0-1.457-.422 0 0-.362 1.208 0 0 .362-.422 0zm1.975 1.457l0-1.074-.307.669-.322 0-.307-.669 0 1.074-.364 0 0-1.819.364 0 .468.971.468-.971.364 0 0 1.819-.364 0z" fill="#fff" transform="translate(0 -28) scale(.21818)"/></svg>