<svg width="512" height="512" viewBox="0 0 512 512" xmlns="http://www.w3.org/2000/svg"><title>florida-panthers</title><g fill="none" fill-rule="evenodd"><path d="M418.939 108.116C372.272 83.834 315.94 71 256 71S139.681 83.834 93.061 108.116l-2.52 1.318v71.086c0 18.916 2.705 68.774 27.727 122.979 28.05 60.818 68.611 101.588 135.581 136.368L256 441l2.15-1.133c66.97-34.78 107.532-75.573 135.583-136.368 25.02-54.205 27.75-104.063 27.75-122.979v-71.086l-2.544-1.318zm-2.15 72.38c0 18.64-2.66 67.688-27.288 121.037-30.225 65.513-74.717 103.67-133.501 134.195-59.27-30.757-103.461-69.098-133.5-134.195-24.629-53.35-27.288-102.397-27.288-121.013v-68.242C145.232 86.216 202.28 75.671 256 75.671c54.228 0 111.07 10.707 160.788 36.584v68.265-.023z" fill="#FFF"/><path d="M219.023 220.434l1.018 2.081-1.018-2.081zm32.884-7.446s-.694 0-2.035.161c.675-.085 1.354-.14 2.035-.161z" fill="#000"/><path d="M321.536 245.131c7.169-4.024 16.835-12.996 16.835-12.996 5.157-15.262 9.62-35.728 9.62-35.728 0-2.012-2.451-5.319-2.451-5.319a36.283 36.283 0 0 0-8.094-2.081c-8.325 1.341-19.17 9.504-27.82 16.28 4.51 0 12.35-1.434 12.35-1.434-2.216 4.94-4.607 9.8-7.17 14.569 3.585.231 10.546-1.318 10.546-1.318-2.706 8.302-7.863 18.407-7.863 18.407l4.047 9.643v-.023zM114.891 191.69c2.613 51.292 23.842 143.907 111.463 204.402 11.701-6.267 19.517-16.835 24.165-25.044 9.25 11.146 10.175 26.732 10.175 26.755 9.898-46.25-33.415-81.931-33.415-81.931s31.242 15.193 52.794 39.89c0 0 .625-4.162-.694-10.938-1.503-7.909-3.862-13.482-3.862-13.482s22.524 18.292 34.688 45.533l.81-.74c30.894-31.958 31.773-79.85 31.773-79.85-6.73-27.935-18.546-37.648-18.546-37.648 2.335 12.788 3.815 26.825 3.815 26.825a86.256 86.256 0 0 1-20.997 27.704c-12.118 1.341-21.738.139-38.55-5.55-14.568-4.949-25.414-12.626-25.414-12.626s-5.55-.324-11.955.347a128.182 128.182 0 0 0-11.956 2.012c7.238-12.789 11.54-25.785 12.326-31.682a113.312 113.312 0 0 0-15.725-14.106c-11.98.555-21.507 1.249-21.507 1.249l4.047-16.373s-2.775 2.29-5.85 5.365c-3.307 3.307-6.938 7.4-6.938 7.4-7.192 2.937-17.297 4.51-17.297 4.51-5.157-1.342-10.083-4.718-10.083-4.718 12.118-17.945 31.866-25.137 31.866-25.137-3.63-4.278-3.399-7.631-3.399-7.631a210.86 210.86 0 0 1 13.713-8.325 17.783 17.783 0 0 0-1.156 4.51s6.937-5.574 11.146-8.094c4.695-2.845 9.296-5.25 9.296-5.25 3.053-9.828 8.28-17.806 9.62-18.916 0 0 2.775-.462 4.163-.277.277 3.214 3.954 8.325 5.457 10.29-7.63 2.498-14.245 7.446-14.245 7.446s16.766-4.463 31.59-4.948c20.072-.694 32.467 3.838 32.467 3.838-3.007 4.371-7.1 8.95-7.1 8.95 33.208-11.262 36.676-19.888 54.69-23.726 6.568 1.063 12.511 3.19 12.511 3.19 4.279 4.487 5.296 9.089 5.296 9.089-2.474 19.194-10.221 40.746-10.221 40.746-6.059 7.4-16.511 14.13-16.511 14.13 10.452-1.342 25.946-6.06 25.946-6.06 9.62 7.03 22.27 22.293 27.519 28.884 10.892-30.294 15.193-58.714 16.28-80.013-4.394-2.196-58.923-28.813-141.11-28.813-82.185 0-136.714 26.593-141.108 28.813h.023zm65.906 122.817a34.387 34.387 0 0 1-10.753-15.702c.232-6.498 3.353-10.545 3.353-10.545 14.592 10.337 37.047 19.541 37.047 19.541-17.506 1.665-29.623 6.706-29.623 6.706h-.024zm-3.19-50.76c1.179-.924 2.774-2.22 3.861-3.005 0 0 6.36-.925 13.32-1.388 5.388-.416 10.36-.185 10.36-.185l4.463 5.226c-2.358.232-6.012.833-10.013 2.128 0 0 8.857 2.451 14.939 6.614a40.11 40.11 0 0 1-.347 2.405 57.35 57.35 0 0 0-13.112.23s6.151 2.868 11.262 6.938c-.298.87-.614 1.734-.948 2.59a51.36 51.36 0 0 0-11.609-1.04s4.695 2.913 8.973 6.891c-1.087 2.104-1.897 3.376-1.897 3.376-13.019-3.885-29.207-11.285-33.346-13.204l-.231-12.835c1.387-1.757 2.174-2.82 4.324-4.74zm-18.894-5.087c.925 1.457 2.035 3.122 3.353 4.833 1.41 1.85 2.96 3.47 4.718 5.088l4.671 13.181c-3.33 3.168-7.7 10.083-7.7 10.083-5.389-9.204-9.667-21.113-9.667-21.113l4.625-12.049v-.023zm102.768-41.879a155.308 155.308 0 0 0-9.574-3.77s-.694 0-2.035.162c-1.397.151-2.786.367-4.163.648-5.272 1.04-13.875 3.4-25.668 8.695l-1.018-2.081-1.341-2.775-13.528 18.615c4.602.856 9.342 1.157 13.713 1.133 9.62-.046 17.367-1.549 17.367-1.549a138.75 138.75 0 0 0 15.1-15.054l1.62-1.897c3.144-.901 5.619-1.34 9.527-2.127zm-29.6 14.245c-7.632 3.7-14.153.694-14.153.694l1.804-3.053c1.087 1.18 4.209 2.405 6.498 1.48 2.29-.925 3.168-3.307 3.469-4.44a70.763 70.763 0 0 1 8.21-1.064s-1.157 4.117-5.828 6.383zM95.21 112.301v68.219c0 18.639 2.66 67.687 27.288 121.036C152.54 366.653 196.731 404.971 256 435.751c58.784-30.525 103.276-68.682 133.5-134.195 24.629-53.35 27.288-102.397 27.288-121.013v-68.265C367.07 86.378 310.228 75.671 256 75.671c-53.743 0-110.769 10.545-160.788 36.607v.023zM408.07 180.52c0 18.037-2.59 65.582-26.501 117.382-27.82 60.31-70.069 99.207-125.569 128.02-55.269-28.72-97.657-67.501-125.569-128.02-23.911-51.8-26.501-99.321-26.501-117.359v-62.992C147.868 94.68 205.403 84.412 256 84.412c50.413 0 108.04 10.245 152.07 33.162v62.97-.024z" fill="#002654"/><path d="M247.768 223.625a136.761 136.761 0 0 1-12.534 12.21s-7.747 1.503-17.344 1.55c9.597-.047 17.344-1.55 17.344-1.55a139.906 139.906 0 0 0 12.534-12.187v-.023z" fill="#BF910C"/><path d="M219.023 220.434l1.018 2.081"/><path d="M103.93 117.55v62.97c0 18.037 2.59 65.56 26.478 117.36 27.935 60.517 70.3 99.298 125.569 128.02 55.523-28.838 97.795-67.688 125.592-128.02 23.911-51.8 26.501-99.323 26.501-117.36v-62.97C364.04 94.658 306.413 84.413 256 84.413c-50.597 0-108.132 10.291-152.07 33.162v-.023zm276.876 154.106c-5.25-6.568-17.876-21.853-27.52-28.86 0 0-15.493 4.717-25.9 6.058 0 0 10.407-6.729 16.489-14.129 0 0 7.747-21.552 10.198-40.746 0 0-.994-4.625-5.272-9.112 0 0-5.943-2.127-12.511-3.19-18.014 3.861-21.483 12.487-54.714 23.749 0 0 4.093-4.602 7.1-8.95 0 0-12.372-4.532-32.468-3.862-14.8.51-31.566 4.972-31.566 4.972s6.614-4.949 14.222-7.446c-1.48-1.966-5.156-7.1-5.41-10.314-1.435-.162-4.186.278-4.186.278-1.342 1.156-6.591 9.111-9.62 18.916 0 0-4.602 2.428-9.32 5.25-4.209 2.543-11.1 8.093-11.1 8.093s.116-1.85 1.11-4.486a197.58 197.58 0 0 0-13.69 8.325s-.231 3.353 3.376 7.631c0 0-19.771 7.169-31.889 25.137 0 0 4.949 3.353 10.106 4.717 0 0 10.105-1.572 17.274-4.509 0 0 3.654-4.093 6.96-7.4 3.076-3.099 5.828-5.388 5.828-5.388l-4.024 16.396s9.528-.694 21.507-1.272a113.312 113.312 0 0 1 15.725 14.106c-.787 5.897-5.088 18.916-12.326 31.681 0 0 6.544-1.434 11.956-2.012 6.405-.67 11.955-.323 11.955-.323s10.823 7.677 25.415 12.626c16.811 5.689 26.431 6.891 38.549 5.55 0 0 13.459-11.1 20.974-27.727 0 0-1.457-14.014-3.815-26.825 0 0 11.84 9.713 18.57 37.67 0 0-.88 47.892-31.775 79.851l-.832.74A273.592 273.592 0 0 1 256 413.874s4.047-8.487 4.718-16.118c0 0-.949-15.586-10.176-26.755-4.67 8.232-12.487 18.777-24.188 25.044-87.598-60.495-108.85-153.088-111.463-204.402 4.394-2.197 58.946-28.814 141.109-28.814 82.186 0 136.715 26.594 141.109 28.814-1.087 21.321-5.388 49.719-16.303 80.013zm-66-53.211s5.597-10.568 7.17-14.592c0 0-7.863 1.434-12.35 1.434 8.65-6.776 19.518-14.939 27.843-16.28 0 0 5.643.832 8.094 2.081 0 0 2.428 3.307 2.428 5.319 0 0-4.463 20.465-9.62 35.728 0 0-9.666 8.972-16.835 13.02l-4.047-9.667s5.157-10.106 7.863-18.407c0 0-6.96 1.572-10.545 1.364zm-62.853.44c.116 2.011 0 3.584 0 3.584-3.353 5.85-9.759 12.811-13.875 16.627a86.857 86.857 0 0 1-24.05 1.78l-9.874-4.625 13.528-18.592s18.57-7.423 34.225-4.648a233.817 233.817 0 0 0 9.574 3.746c-3.932.786-6.383 1.225-9.528 2.127l-1.619 1.897 1.62-1.897zm17.413 13.874c.67-2.775.208-11.423.208-11.423s4.95 1.618 12.58 7.7c0 0-.994 5.62-2.543 11.285l-26.502 12.14s8.834-9.527 16.257-19.702zm128.02-108.733v56.193C354.975 160.91 302.435 152.17 256 152.17c-46.597 0-99.067 8.787-141.41 28.027v-56.17S170.253 95.05 256 95.05c85.724 0 141.386 28.976 141.386 28.976z" fill="#BF910C"/><path d="M226.03 230.1c-2.313.948-5.411-.278-6.498-1.457l-1.804 3.053s6.498 3.006 14.153-.694a11.1 11.1 0 0 0 5.827-6.383c-2.867.232-5.689.578-8.21 1.064-.3 1.133-1.179 3.515-3.468 4.44v-.023zm38.434-117.36a370.624 370.624 0 0 0-8.21-.092v7.238c2.752 0 5.481.046 8.21.093v-7.238zm57.465 27.936c2.683.508 5.389 1.04 8.094 1.618v-21.876a341.603 341.603 0 0 0-8.094-1.619v21.877zm-207.338 39.543c42.342-19.309 94.812-28.05 141.409-28.05 46.435 0 98.975 8.741 141.386 28.05v-56.193S341.724 95.05 256 95.05c-85.748 0-141.41 28.976-141.41 28.976v56.193zm239.968-54.76a300.778 300.778 0 0 1 3.376-5.341 341.48 341.48 0 0 1 15.632 5.04l3.354 7.54v30.34a347.059 347.059 0 0 0-7.192-2.498v-14.638a350.806 350.806 0 0 0-7.909-2.544v14.615a431.096 431.096 0 0 0-7.261-2.15v-30.364zm-40.053-15.4a374.716 374.716 0 0 1 19.448 3.792l3.423 7.122V145l-3.423 5.55a356.096 356.096 0 0 0-19.448-3.793v-36.699zm-24.975-3.238c2.52.23 4.995.508 7.493.786v36.7c-2.487-.288-4.977-.55-7.47-.787v-36.7h-.023zm-40.792-1.503c6.59-.116 13.181-.093 19.749.161l3.491 6.475v9.366l-3.491 6.198c-.825-.036-1.65-.067-2.475-.093l5.966 14.87-7.978-.278-5.966-14.708h-1.78v14.639c-2.498 0-4.996 0-7.516.069v-36.7zm-40.7 9.48l3.469-6.775a344.563 344.563 0 0 1 16.164-1.642l3.492 6.059v24.027l-3.492 6.59c-5.411.44-10.8.995-16.188 1.666l-3.468-5.874v-24.05h.023zm-36.838.671l7.353-1.734v29.3c4.001-.902 8.025-1.712 12.025-2.475v7.4a375.669 375.669 0 0 0-19.378 4.186v-36.677zm-36.122 10.87a395.809 395.809 0 0 1 18.986-6.245v7.4c-3.931 1.203-7.862 2.429-11.794 3.747v7.26c2.798-.947 5.62-1.85 8.418-2.728v7.4a333.231 333.231 0 0 0-8.418 2.729v14.638c-2.405.81-4.81 1.619-7.192 2.498v-36.7zm234.65 4.902a350.806 350.806 0 0 0-7.909-2.544v7.238c2.66.81 5.272 1.665 7.909 2.544v-7.238zM223.67 114.128c-2.728.231-5.457.509-8.186.833v21.876c2.729-.324 5.457-.601 8.186-.833v-21.899.023z" fill="#CE1126"/><path d="M190.603 140.583c-4.022.75-8.031 1.567-12.025 2.451v-29.276c-2.475.532-4.926 1.11-7.4 1.711v36.7a342.549 342.549 0 0 1 19.425-4.186v-7.4zm65.675-13.297h1.757l5.966 14.73 7.978.278-5.966-14.869 2.475.093 3.491-6.221v-9.366l-3.468-6.475a352.282 352.282 0 0 0-19.772-.138v36.676l7.515-.07v-14.638h.023zm0-14.638c2.728 0 5.457.046 8.186.093v7.238a342.135 342.135 0 0 0-8.21-.093v-7.238h.023zM142.27 145.902c2.775-.948 5.597-1.85 8.418-2.729v-7.4a333.231 333.231 0 0 0-8.418 2.729v-7.261a385.355 385.355 0 0 1 11.794-3.724v-7.4a343.584 343.584 0 0 0-18.986 6.244v36.676a439.832 439.832 0 0 1 7.17-2.497v-14.638h.022zm219.549-2.544c2.66.81 5.272 1.642 7.909 2.544v14.638c2.405.81 4.81 1.619 7.192 2.497v-30.34l-3.353-7.538a383.875 383.875 0 0 0-15.633-5.042l-3.376 5.32v30.362c2.428.694 4.856 1.434 7.261 2.174v-14.638.023zm0-14.661c2.66.81 5.272 1.665 7.909 2.544v7.26a350.806 350.806 0 0 0-7.909-2.543v-7.261zm-134.148 14.36l3.492-6.59V112.44l-3.492-6.082c-5.411.44-10.8.994-16.188 1.665l-3.468 6.799v24.004l3.468 5.896c5.388-.693 10.8-1.225 16.188-1.665zm-12.164-28.096c2.706-.324 5.434-.602 8.163-.833v21.876c-2.728.232-5.457.51-8.163.833v-21.9.024zm81.516-7.354c-2.487-.287-4.977-.55-7.47-.786v36.699c2.498.231 4.995.486 7.47.786v-36.7zM337.4 145v-24.05l-3.422-7.123a379.523 379.523 0 0 0-19.449-3.792v36.7a351.862 351.862 0 0 1 19.448 3.792l3.423-5.55V145zm-7.377-2.706a341.603 341.603 0 0 0-8.094-1.618v-21.877c2.73.51 5.412 1.041 8.094 1.62v21.875zm-166.292 149.55s4.394-6.938 7.724-10.106l-4.671-13.135a41.81 41.81 0 0 1-4.718-5.11 62.414 62.414 0 0 1-3.33-4.81l-4.625 12.048s4.255 11.909 9.643 21.113h-.023zm6.313 6.937s2.683 9.32 10.753 15.725c0 0 12.118-5.064 29.647-6.73 0 0-22.455-9.203-37.046-19.54 0 0-3.145 4.047-3.354 10.545zm65.213-62.946s-7.77 1.503-17.39 1.55a75.85 75.85 0 0 1-13.713-1.134l9.874 4.625c7.123.324 15.494.231 24.05-1.804 4.116-3.815 10.522-10.776 13.875-16.603 0 0 .116-1.573 0-3.585l-1.619 1.874a155.4 155.4 0 0 1-15.1 15.077h.023zm-28.42 58.691s.809-1.272 1.895-3.376c-4.278-3.977-8.949-6.891-8.949-6.891 3.896-.085 7.79.264 11.609 1.04.324-.832.624-1.688.925-2.59-5.088-4.07-11.239-6.937-11.239-6.937a57.35 57.35 0 0 1 13.112-.231c.139-.81.231-1.62.324-2.405a59.177 59.177 0 0 0-14.916-6.614c3.978-1.295 7.654-1.873 10.013-2.15l-4.486-5.204s-4.995-.231-10.383.185a194.395 194.395 0 0 0-13.297 1.388c-1.064.786-2.682 2.08-3.862 3.006-2.174 1.92-2.937 3.006-4.324 4.74l.231 12.812c4.116 1.942 20.304 9.342 33.323 13.227h.023z" fill="#FFF"/><path d="M282.131 229.036c-7.631-6.059-12.557-7.7-12.557-7.7s.463 8.671-.23 11.423c-7.4 10.175-16.258 19.703-16.258 19.703l26.525-12.14c1.549-5.666 2.543-11.286 2.543-11.286h-.023z" fill="#002654"/><path d="M275.518 331.318s2.358 5.55 3.885 13.482c1.294 6.776.67 10.938.67 10.938-21.552-24.697-52.817-39.89-52.817-39.89s43.313 35.681 33.438 81.931c-.67 7.632-4.694 16.095-4.694 16.095a277.463 277.463 0 0 0 22.292-12.903 257.2 257.2 0 0 0 31.913-24.12c-12.164-27.241-34.687-45.533-34.687-45.533zm-55.5-108.826c11.816-5.319 20.419-7.631 25.691-8.695a58.044 58.044 0 0 1 4.163-.648c1.341-.161 2.035-.161 2.035-.161-15.679-2.775-34.225 4.648-34.225 4.648l1.341 2.775 1.018 2.08h-.023zm85.493 200.586v7.354h-1.85v-7.354h-2.128v-1.827h6.105v1.827h-2.127zm9.943 7.354v-5.411l-1.526 3.353h-1.619l-1.549-3.353v5.41h-1.85v-9.18h1.85l2.359 4.903 2.359-4.903h1.85v9.18h-1.874z" fill="#FFF"/></g></svg>