<?xml version="1.0" encoding="UTF-8"?>
<svg width="512px" height="512px" viewBox="0 0 512 512" version="1.1" xmlns="http://www.w3.org/2000/svg" xmlns:xlink="http://www.w3.org/1999/xlink">
    <!-- Generator: Sketch 41.2 (35397) - http://www.bohemiancoding.com/sketch -->
    <title>florida-panthers</title>
    <desc>Created with Sketch.</desc>
    <defs></defs>
    <g id="NHL" stroke="none" stroke-width="1" fill="none" fill-rule="evenodd">
        <g id="florida-panthers">
            <g id="fla" transform="translate(71.000000, 71.000000)">
                <path d="M347.93875,37.115625 C301.2725,12.834375 244.94,0 185,0 C125.06,0 68.68125,12.834375 22.06125,37.115625 L19.540625,38.43375 L19.540625,109.52 C19.540625,128.43625 22.24625,178.29375 47.2675,232.49875 C75.318125,293.3175 115.879375,334.086875 182.849375,368.866875 L185,370 L187.150625,368.866875 C254.120625,334.086875 294.681875,293.294375 322.7325,232.49875 C347.75375,178.29375 350.4825,128.43625 350.4825,109.52 L350.4825,38.43375 L347.93875,37.115625 Z M345.788125,109.496875 C345.788125,128.135625 343.12875,177.18375 318.500625,230.533125 C288.27625,296.04625 243.78375,334.2025 185,364.7275 C125.730625,333.97125 81.53875,295.63 51.499375,230.533125 C26.87125,177.18375 24.211875,128.135625 24.211875,109.52 L24.211875,41.278125 C74.23125,15.21625 131.280625,4.67125 185,4.67125 C239.228125,4.67125 296.069375,15.378125 345.788125,41.255 L345.788125,109.52 L345.788125,109.496875 Z" id="Shape" fill="#FFFFFF"></path>
                <path d="M148.023125,149.43375 L149.040625,151.515 L148.023125,149.43375 Z M180.906875,141.9875 C180.906875,141.9875 180.213125,141.9875 178.871875,142.149375 C179.547306,142.063644 180.226385,142.009627 180.906875,141.9875 L180.906875,141.9875 Z" id="Shape" fill="#000000"></path>
                <path d="M250.53625,174.13125 C257.705,170.1075 267.37125,161.135 267.37125,161.135 C272.528125,145.8725 276.99125,125.406875 276.99125,125.406875 C276.99125,123.395 274.54,120.088125 274.54,120.088125 C271.931251,119.084949 269.215323,118.386568 266.44625,118.006875 C258.12125,119.348125 247.275625,127.51125 238.626875,134.286875 C243.13625,134.286875 250.975625,132.853125 250.975625,132.853125 C248.760475,137.793278 246.369363,142.652634 243.806875,147.421875 C247.39125,147.653125 254.351875,146.10375 254.351875,146.10375 C251.64625,154.405625 246.489375,164.51125 246.489375,164.51125 L250.53625,174.154375 L250.53625,174.13125 Z M43.89125,120.689375 C46.504375,171.980625 67.733125,264.59625 155.35375,325.09125 C167.055,318.824375 174.87125,308.25625 179.519375,300.046875 C188.769375,311.193125 189.694375,326.779375 189.694375,326.8025 C199.591875,280.5525 156.27875,244.870625 156.27875,244.870625 C156.27875,244.870625 187.520625,260.06375 209.073125,284.76125 C209.073125,284.76125 209.6975,280.59875 208.379375,273.823125 C206.87625,265.914375 204.5175,260.34125 204.5175,260.34125 C204.5175,260.34125 227.04125,278.633125 239.205,305.874375 L240.014375,305.134375 C270.909375,273.175625 271.788125,225.28375 271.788125,225.28375 C265.05875,197.34875 253.241875,187.63625 253.241875,187.63625 C255.5775,200.424375 257.0575,214.46125 257.0575,214.46125 C252.010949,225.025115 244.866725,234.451084 236.06,242.165 C223.9425,243.50625 214.3225,242.30375 197.510625,236.615 C182.941875,231.66625 172.09625,223.98875 172.09625,223.98875 C172.09625,223.98875 166.54625,223.665 160.140625,224.335625 C156.125915,224.817304 152.136245,225.48868 148.185,226.3475 C155.423125,213.559375 159.724375,200.563125 160.510625,194.66625 C155.719657,189.484756 150.455118,184.762155 144.785625,180.56 C132.806875,181.115 123.279375,181.80875 123.279375,181.80875 L127.32625,165.43625 C127.32625,165.43625 124.55125,167.725625 121.475625,170.80125 C118.16875,174.108125 114.538125,178.20125 114.538125,178.20125 C107.34625,181.138125 97.240625,182.710625 97.240625,182.710625 C92.08375,181.369375 87.158125,177.993125 87.158125,177.993125 C99.275625,160.048125 119.024375,152.85625 119.024375,152.85625 C115.39375,148.578125 115.625,145.225 115.625,145.225 C120.66625,141.895 125.268125,139.16625 129.338125,136.9 C128.75678,138.345966 128.368033,139.862079 128.181875,141.409375 C128.181875,141.409375 135.119375,135.83625 139.328125,133.315625 C144.0225,130.47125 148.624375,128.06625 148.624375,128.06625 C151.676875,118.238125 156.903125,110.26 158.244375,109.15 C158.244375,109.15 161.019375,108.6875 162.406875,108.8725 C162.684375,112.086875 166.36125,117.1975 167.864375,119.163125 C160.233125,121.660625 153.619375,126.609375 153.619375,126.609375 C153.619375,126.609375 170.385,122.14625 185.208125,121.660625 C205.280625,120.966875 217.675625,125.499375 217.675625,125.499375 C214.669375,129.87 210.57625,134.44875 210.57625,134.44875 C243.78375,123.186875 247.2525,114.56125 265.266875,110.7225 C271.834375,111.78625 277.7775,113.91375 277.7775,113.91375 C282.055625,118.4 283.073125,123.001875 283.073125,123.001875 C280.59875,142.195625 272.851875,163.748125 272.851875,163.748125 C266.793125,171.148125 256.340625,177.8775 256.340625,177.8775 C266.793125,176.53625 282.286875,171.81875 282.286875,171.81875 C291.906875,178.84875 304.55625,194.11125 309.805625,200.701875 C320.6975,170.408125 324.99875,141.9875 326.085625,120.689375 C321.691875,118.4925 267.163125,91.875625 184.976875,91.875625 C102.790625,91.875625 48.261875,118.469375 43.868125,120.689375 L43.89125,120.689375 Z M109.7975,243.50625 C104.807326,239.388132 101.080197,233.945723 99.044375,227.804375 C99.275625,221.30625 102.3975,217.259375 102.3975,217.259375 C116.989375,227.59625 139.44375,236.8 139.44375,236.8 C121.938125,238.465 109.820625,243.50625 109.820625,243.50625 L109.7975,243.50625 Z M106.60625,192.746875 C107.785625,191.821875 109.38125,190.526875 110.468125,189.740625 C110.468125,189.740625 116.8275,188.815625 123.788125,188.353125 C129.17625,187.936875 134.148125,188.168125 134.148125,188.168125 L138.61125,193.394375 C136.2525,193.625625 132.59875,194.226875 128.598125,195.521875 C128.598125,195.521875 137.455,197.973125 143.536875,202.135625 C143.444375,202.945 143.32875,203.754375 143.19,204.540625 C138.82491,204.116107 134.425531,204.193698 130.078125,204.771875 C130.078125,204.771875 136.229375,207.639375 141.34,211.709375 C141.041996,212.579205 140.725886,213.442726 140.391875,214.299375 C136.574313,213.513138 132.679659,213.164016 128.783125,213.25875 C128.783125,213.25875 133.4775,216.1725 137.755625,220.15 C136.66875,222.254375 135.859375,223.52625 135.859375,223.52625 C122.84,219.64125 106.6525,212.24125 102.513125,210.321875 L102.281875,197.4875 C103.669375,195.73 104.455625,194.66625 106.60625,192.746875 L106.60625,192.746875 Z M87.713125,187.659375 C88.638125,189.11625 89.748125,190.78125 91.06625,192.4925 C92.476875,194.3425 94.02625,195.96125 95.78375,197.58 L100.455,210.76125 C97.125,213.929375 92.754375,220.84375 92.754375,220.84375 C87.36625,211.64 83.088125,199.730625 83.088125,199.730625 L87.713125,187.6825 L87.713125,187.659375 Z M190.480625,145.78 C187.331882,144.418148 184.13888,143.161 180.906875,142.010625 C180.906875,142.010625 180.213125,142.010625 178.871875,142.1725 C177.47501,142.323103 176.085983,142.539174 174.709375,142.82 C169.436875,143.860625 160.834375,146.219375 149.040625,151.515 L148.023125,149.43375 L146.681875,146.65875 L133.15375,165.274375 C137.755625,166.13 142.49625,166.430625 146.866875,166.4075 C156.486875,166.36125 164.23375,164.858125 164.23375,164.858125 C169.645999,160.234774 174.694444,155.201791 179.334375,149.80375 L180.953125,147.9075 C184.098125,147.005625 186.5725,146.56625 190.480625,145.78 L190.480625,145.78 Z M160.880625,160.025 C153.249375,163.725 146.728125,160.71875 146.728125,160.71875 L148.531875,157.66625 C149.61875,158.845625 152.740625,160.07125 155.03,159.14625 C157.319375,158.22125 158.198125,155.839375 158.49875,154.70625 C161.212106,154.191774 163.953253,153.836583 166.708125,153.6425 C166.708125,153.6425 165.551875,157.75875 160.880625,160.025 L160.880625,160.025 Z M24.211875,41.30125 L24.211875,109.52 C24.211875,128.15875 26.87125,177.206875 51.499375,230.55625 C81.53875,295.653125 125.730625,333.97125 185,364.750625 C243.78375,334.225625 288.27625,296.069375 318.500625,230.55625 C343.12875,177.206875 345.788125,128.15875 345.788125,109.543125 L345.788125,41.278125 C296.069375,15.378125 239.228125,4.67125 185,4.67125 C131.2575,4.67125 74.23125,15.21625 24.211875,41.278125 L24.211875,41.30125 Z M337.07,109.52 C337.07,127.5575 334.48,175.1025 310.56875,226.9025 C282.749375,287.2125 240.5,326.10875 185,354.9225 C129.73125,326.20125 87.343125,287.420625 59.43125,226.9025 C35.52,175.1025 32.93,127.580625 32.93,109.543125 L32.93,46.550625 C76.8675,23.68 134.4025,13.4125 185,13.4125 C235.4125,13.4125 293.04,23.656875 337.07,46.57375 L337.07,109.543125 L337.07,109.52 Z" id="Shape" fill="#002654"></path>
                <path d="M176.7675,152.625 C172.854502,156.958374 168.668019,161.036719 164.23375,164.835 C164.23375,164.835 156.486875,166.338125 146.89,166.384375 C156.486875,166.338125 164.23375,164.835 164.23375,164.835 C168.66163,161.037959 172.847716,156.967724 176.7675,152.648125 L176.7675,152.625 Z" id="Shape" fill="#BF910C"></path>
                <path d="M148.023125,149.43375 L149.040625,151.515" id="Shape"></path>
                <path d="M32.93,46.550625 L32.93,109.52 C32.93,127.5575 35.52,175.079375 59.408125,226.879375 C87.343125,287.3975 129.708125,326.178125 184.976875,354.899375 C240.5,326.0625 282.7725,287.2125 310.56875,226.879375 C334.48,175.079375 337.07,127.5575 337.07,109.52 L337.07,46.550625 C293.04,23.656875 235.4125,13.4125 185,13.4125 C134.4025,13.4125 76.8675,23.703125 32.93,46.57375 L32.93,46.550625 Z M309.805625,200.655625 C304.55625,194.088125 291.93,178.8025 282.286875,171.795625 C282.286875,171.795625 266.793125,176.513125 256.386875,177.854375 C256.386875,177.854375 266.793125,171.125 272.875,163.725 C272.875,163.725 280.621875,142.1725 283.073125,122.97875 C283.073125,122.97875 282.07875,118.35375 277.800625,113.8675 C277.800625,113.8675 271.8575,111.74 265.29,110.67625 C247.275625,114.538125 243.806875,123.16375 210.57625,134.425625 C210.57625,134.425625 214.669375,129.82375 217.675625,125.47625 C217.675625,125.47625 205.30375,120.94375 185.208125,121.614375 C170.408125,122.123125 153.6425,126.58625 153.6425,126.58625 C153.6425,126.58625 160.25625,121.6375 167.864375,119.14 C166.384375,117.174375 162.7075,112.040625 162.453125,108.82625 C161.019375,108.664375 158.2675,109.10375 158.2675,109.10375 C156.92625,110.26 151.676875,118.215 148.6475,128.02 C148.6475,128.02 144.045625,130.448125 139.328125,133.269375 C135.119375,135.813125 128.228125,141.363125 128.228125,141.363125 C128.228125,141.363125 128.34375,139.513125 129.338125,136.876875 C124.664105,139.465628 120.097017,142.242911 115.648125,145.201875 C115.648125,145.201875 115.416875,148.555 119.024375,152.833125 C119.024375,152.833125 99.2525,160.001875 87.135,177.97 C87.135,177.97 92.08375,181.323125 97.240625,182.6875 C97.240625,182.6875 107.34625,181.115 114.515,178.178125 C114.515,178.178125 118.16875,174.085 121.475625,170.778125 C124.55125,167.679375 127.303125,165.39 127.303125,165.39 L123.279375,181.785625 C123.279375,181.785625 132.806875,181.091875 144.785625,180.51375 C150.455118,184.715905 155.719657,189.438506 160.510625,194.62 C159.724375,200.516875 155.423125,213.53625 148.185,226.30125 C148.185,226.30125 154.729375,224.8675 160.140625,224.289375 C166.54625,223.61875 172.09625,223.965625 172.09625,223.965625 C172.09625,223.965625 182.91875,231.643125 197.510625,236.591875 C214.3225,242.280625 223.9425,243.483125 236.06,242.141875 C236.06,242.141875 249.51875,231.041875 257.034375,214.415 C257.034375,214.415 255.5775,200.40125 253.21875,187.59 C253.21875,187.59 265.05875,197.3025 271.788125,225.260625 C271.788125,225.260625 270.909375,273.1525 240.014375,305.11125 L239.181875,305.85125 C222.672069,320.321428 204.480619,332.751864 185,342.874375 C185,342.874375 189.046875,334.3875 189.7175,326.75625 C189.7175,326.75625 188.769375,311.17 179.5425,300.000625 C174.87125,308.233125 167.055,318.778125 155.35375,325.045 C67.75625,264.55 46.504375,171.9575 43.89125,120.643125 C48.285,118.44625 102.836875,91.829375 185,91.829375 C267.18625,91.829375 321.715,118.423125 326.10875,120.643125 C325.021875,141.964375 320.720625,170.361875 309.805625,200.655625 L309.805625,200.655625 Z M243.806875,147.445 C243.806875,147.445 249.403125,136.876875 250.975625,132.853125 C250.975625,132.853125 243.113125,134.286875 238.626875,134.286875 C247.275625,127.51125 258.144375,119.348125 266.469375,118.006875 C266.469375,118.006875 272.111875,118.839375 274.563125,120.088125 C274.563125,120.088125 276.99125,123.395 276.99125,125.406875 C276.99125,125.406875 272.528125,145.8725 267.37125,161.135 C267.37125,161.135 257.705,170.1075 250.53625,174.154375 L246.489375,164.488125 C246.489375,164.488125 251.64625,154.3825 254.351875,146.080625 C254.351875,146.080625 247.39125,147.653125 243.806875,147.445 Z M180.953125,147.884375 C181.06875,149.89625 180.953125,151.46875 180.953125,151.46875 C177.6,157.319375 171.194375,164.28 167.078125,168.095625 C159.183258,169.8046 151.088589,170.403917 143.028125,169.87625 L133.15375,165.25125 L146.681875,146.65875 C146.681875,146.65875 165.25125,139.235625 180.906875,142.010625 C184.070283,143.32939 187.262304,144.578442 190.480625,145.756875 C186.549375,146.543125 184.098125,146.9825 180.953125,147.884375 L179.334375,149.780625 L180.953125,147.884375 L180.953125,147.884375 Z M198.36625,161.759375 C199.036875,158.984375 198.574375,150.335625 198.574375,150.335625 C198.574375,150.335625 203.523125,151.954375 211.154375,158.03625 C211.154375,158.03625 210.16,163.655625 208.610625,169.32125 L182.109375,181.461875 C182.109375,181.461875 190.943125,171.934375 198.36625,161.759375 Z M326.38625,53.025625 L326.38625,109.219375 C283.975,89.91 231.435,81.16875 185,81.16875 C138.403125,81.16875 85.9325,89.95625 43.590625,109.19625 L43.590625,53.025625 C43.590625,53.025625 99.2525,24.05 185,24.05 C270.724375,24.05 326.38625,53.025625 326.38625,53.025625 L326.38625,53.025625 Z" id="Shape" fill="#BF910C"></path>
                <path d="M155.03,159.1 C152.7175,160.048125 149.61875,158.8225 148.531875,157.643125 L146.728125,160.695625 C146.728125,160.695625 153.22625,163.701875 160.880625,160.001875 C163.605624,158.749035 165.707668,156.446797 166.708125,153.619375 C163.840625,153.850625 161.019375,154.1975 158.49875,154.683125 C158.198125,155.81625 157.319375,158.198125 155.03,159.123125 L155.03,159.1 Z M193.46375,41.740625 C190.727717,41.6794833 187.991091,41.6486481 185.254375,41.648125 L185.254375,48.88625 C188.00625,48.88625 190.735,48.9325 193.46375,48.97875 L193.46375,41.740625 L193.46375,41.740625 Z M250.929375,69.675625 C253.611875,70.184375 256.3175,70.71625 259.023125,71.294375 L259.023125,49.418125 C256.331826,48.8459657 253.633712,48.306343 250.929375,47.799375 L250.929375,69.675625 L250.929375,69.675625 Z M43.590625,109.219375 C85.9325,89.91 138.403125,81.16875 185,81.16875 C231.435,81.16875 283.975,89.91 326.38625,109.219375 L326.38625,53.025625 C326.38625,53.025625 270.724375,24.05 185,24.05 C99.2525,24.05 43.590625,53.025625 43.590625,53.025625 L43.590625,109.219375 L43.590625,109.219375 Z M283.55875,54.459375 C284.66875,52.655625 285.801875,50.875 286.935,49.1175 C292.184375,50.666875 297.3875,52.355 302.5675,54.15875 L305.920625,61.6975 L305.920625,92.0375 C303.532537,91.1787305 301.135101,90.3461804 298.72875,89.54 L298.72875,74.901875 C296.102633,74.0227712 293.466198,73.1747951 290.82,72.358125 L290.82,86.973125 C288.415,86.233125 285.96375,85.51625 283.55875,84.8225 L283.55875,54.459375 L283.55875,54.459375 Z M243.50625,39.058125 C250.004375,40.145 256.5025,41.416875 262.954375,42.850625 L266.376875,49.973125 L266.376875,74 L262.954375,79.55 C256.479375,78.093125 250.004375,76.844375 243.50625,75.7575 L243.50625,39.058125 Z M218.53125,35.820625 C221.051875,36.051875 223.52625,36.329375 226.02375,36.606875 L226.02375,73.30625 C223.536667,73.019047 221.046748,72.7569503 218.554375,72.52 L218.554375,35.820625 L218.53125,35.820625 Z M177.73875,34.3175 C184.329375,34.201875 190.92,34.225 197.4875,34.479375 L200.979375,40.954375 L200.979375,50.32 L197.4875,56.5175 C196.662903,56.481653 195.838096,56.4508191 195.013125,56.425 L200.979375,71.294375 L193.00125,71.016875 L187.035,56.309375 L185.254375,56.309375 L185.254375,70.9475 C182.756875,70.9475 180.259375,70.9475 177.73875,71.016875 L177.73875,34.3175 Z M137.03875,43.79875 L140.5075,37.023125 C145.881971,36.3488556 151.271594,35.8014117 156.671875,35.38125 L160.16375,41.44 L160.16375,65.466875 L156.671875,72.0575 C151.260625,72.496875 145.8725,73.051875 140.484375,73.7225 L137.015625,67.84875 L137.015625,43.79875 L137.03875,43.79875 Z M100.200625,44.469375 L107.554375,42.735 L107.554375,72.034375 C111.555,71.1325 115.57875,70.323125 119.579375,69.56 L119.579375,76.96 C113.104375,78.185625 106.629375,79.573125 100.200625,81.145625 L100.200625,44.469375 L100.200625,44.469375 Z M64.079375,55.338125 C70.369375,53.095 76.6825,51.01375 83.065,49.094375 L83.065,56.494375 C79.13375,57.696875 75.2025,58.9225 71.27125,60.240625 L71.27125,67.501875 C74.069375,66.55375 76.890625,65.651875 79.68875,64.773125 L79.68875,72.173125 C76.8709631,73.045413 74.0648824,73.9550765 71.27125,74.901875 L71.27125,89.54 C68.86625,90.349375 66.46125,91.15875 64.079375,92.0375 L64.079375,55.36125 L64.079375,55.338125 Z M298.72875,60.240625 C296.102633,59.3615212 293.466198,58.5135451 290.82,57.696875 L290.82,64.935 C293.479375,65.744375 296.0925,66.6 298.72875,67.47875 L298.72875,60.240625 L298.72875,60.240625 Z M152.67125,43.128125 C149.9425,43.359375 147.21375,43.636875 144.485,43.960625 L144.485,65.836875 C147.21375,65.513125 149.9425,65.235625 152.67125,65.004375 L152.67125,43.105 L152.67125,43.128125 Z" id="Shape" fill="#CE1126"></path>
                <path d="M119.6025,69.583125 C115.580651,70.3324432 111.571746,71.1496431 107.5775,72.034375 L107.5775,42.758125 C105.103125,43.29 102.651875,43.868125 100.1775,44.469375 L100.1775,81.16875 C106.6525,79.573125 113.1275,78.185625 119.6025,76.983125 L119.6025,69.583125 Z M185.2775,56.28625 L187.035,56.28625 L193.00125,71.016875 L200.979375,71.294375 L195.013125,56.425 L197.4875,56.5175 L200.979375,50.296875 L200.979375,40.93125 L197.510625,34.45625 C190.92,34.225 184.329375,34.17875 177.73875,34.3175 L177.73875,70.99375 L185.254375,70.924375 L185.254375,56.28625 L185.2775,56.28625 Z M185.2775,41.648125 C188.00625,41.648125 190.735,41.694375 193.46375,41.740625 L193.46375,48.97875 C190.72776,48.9150844 187.991105,48.8842489 185.254375,48.88625 L185.254375,41.648125 L185.2775,41.648125 Z M71.27125,74.901875 C74.04625,73.95375 76.8675,73.051875 79.68875,72.173125 L79.68875,64.773125 C76.8709631,65.645413 74.0648824,66.5550765 71.27125,67.501875 L71.27125,60.240625 C75.2025,58.9225 79.13375,57.696875 83.065,56.5175 L83.065,49.1175 C76.6825,51.01375 70.34625,53.095 64.079375,55.36125 L64.079375,92.0375 C66.46125,91.181875 68.86625,90.349375 71.248125,89.54 L71.248125,74.901875 L71.27125,74.901875 Z M290.82,72.358125 C293.479375,73.1675 296.0925,74 298.72875,74.901875 L298.72875,89.54 C301.13375,90.349375 303.53875,91.15875 305.920625,92.0375 L305.920625,61.6975 L302.5675,54.15875 C297.393218,52.3670322 292.181192,50.6862309 286.935,49.1175 L283.55875,54.43625 L283.55875,84.799375 C285.986875,85.493125 288.415,86.233125 290.82,86.973125 L290.82,72.335 L290.82,72.358125 Z M290.82,57.696875 C293.479375,58.50625 296.0925,59.361875 298.72875,60.240625 L298.72875,67.501875 C296.102633,66.6227712 293.466198,65.7747951 290.82,64.958125 L290.82,57.696875 L290.82,57.696875 Z M156.671875,72.0575 L160.16375,65.466875 L160.16375,41.44 L156.671875,35.358125 C151.260625,35.7975 145.8725,36.3525 140.484375,37.023125 L137.015625,43.821875 L137.015625,67.825625 L140.484375,73.7225 C145.8725,73.02875 151.28375,72.496875 156.671875,72.0575 L156.671875,72.0575 Z M144.508125,43.960625 C147.21375,43.636875 149.9425,43.359375 152.67125,43.128125 L152.67125,65.004375 C149.9425,65.235625 147.21375,65.513125 144.508125,65.836875 L144.508125,43.9375 L144.508125,43.960625 Z M226.02375,36.606875 C223.536667,36.319672 221.046748,36.0575753 218.554375,35.820625 L218.554375,72.52 C221.051875,72.75125 223.549375,73.005625 226.02375,73.30625 L226.02375,36.606875 L226.02375,36.606875 Z M266.4,74 L266.4,49.95 L262.9775,42.8275 C256.5025,41.39375 250.0275,40.121875 243.529375,39.035 L243.529375,75.734375 C250.0275,76.82125 256.525625,78.07 262.9775,79.526875 L266.4,73.976875 L266.4,74 Z M259.023125,71.294375 C256.331826,70.7222157 253.633712,70.182593 250.929375,69.675625 L250.929375,47.799375 C253.658125,48.308125 256.340625,48.84 259.023125,49.418125 L259.023125,71.294375 L259.023125,71.294375 Z M92.73125,220.84375 C92.73125,220.84375 97.125,213.90625 100.455,210.738125 L95.78375,197.603125 C94.0720412,196.03356 92.4940829,194.324105 91.06625,192.4925 C89.8816772,190.942098 88.7704568,189.337002 87.73625,187.6825 L83.11125,199.730625 C83.11125,199.730625 87.36625,211.64 92.754375,220.84375 L92.73125,220.84375 Z M99.044375,227.78125 C99.044375,227.78125 101.726875,237.100625 109.7975,243.50625 C109.7975,243.50625 121.915,238.441875 139.44375,236.776875 C139.44375,236.776875 116.989375,227.573125 102.3975,217.23625 C102.3975,217.23625 99.2525,221.283125 99.044375,227.78125 L99.044375,227.78125 Z M164.256875,164.835 C164.256875,164.835 156.486875,166.338125 146.866875,166.384375 C142.270943,166.422917 137.68102,166.043648 133.15375,165.25125 L143.028125,169.87625 C150.150625,170.2 158.521875,170.1075 167.078125,168.0725 C171.194375,164.256875 177.6,157.29625 180.953125,151.46875 C180.953125,151.46875 181.06875,149.89625 180.953125,147.884375 L179.334375,149.7575 C174.652255,155.123402 169.606821,160.161109 164.23375,164.835 L164.256875,164.835 Z M135.83625,223.52625 C135.83625,223.52625 136.645625,222.254375 137.7325,220.15 C133.454375,216.1725 128.783125,213.25875 128.783125,213.25875 C132.67934,213.173632 136.572917,213.522658 140.391875,214.299375 C140.715625,213.466875 141.01625,212.61125 141.316875,211.709375 C136.229375,207.639375 130.078125,204.771875 130.078125,204.771875 C134.425531,204.193698 138.82491,204.116107 143.19,204.540625 C143.32875,203.73125 143.42125,202.921875 143.51375,202.135625 C138.871105,199.252909 133.85153,197.027175 128.598125,195.521875 C132.575625,194.226875 136.2525,193.64875 138.61125,193.37125 L134.125,188.168125 C134.125,188.168125 129.13,187.936875 123.741875,188.353125 C116.804375,188.815625 110.445,189.740625 110.445,189.740625 C109.38125,190.526875 107.7625,191.821875 106.583125,192.746875 C104.409375,194.66625 103.64625,195.753125 102.25875,197.4875 L102.49,210.29875 C106.60625,212.24125 122.79375,219.64125 135.813125,223.52625 L135.83625,223.52625 Z" id="Shape" fill="#FFFFFF"></path>
                <path d="M211.13125,158.03625 C203.5,151.9775 198.574375,150.335625 198.574375,150.335625 C198.574375,150.335625 199.036875,159.0075 198.343125,161.759375 C190.943125,171.934375 182.08625,181.461875 182.08625,181.461875 L208.610625,169.32125 C210.16,163.655625 211.154375,158.03625 211.154375,158.03625 L211.13125,158.03625 Z" id="Shape" fill="#002654"></path>
                <path d="M204.5175,260.318125 C204.5175,260.318125 206.87625,265.868125 208.4025,273.8 C209.6975,280.575625 209.073125,284.738125 209.073125,284.738125 C187.520625,260.040625 156.255625,244.8475 156.255625,244.8475 C156.255625,244.8475 199.56875,280.529375 189.694375,326.779375 C189.02375,334.410625 185,342.874375 185,342.874375 C192.8625,338.804375 200.2625,334.48 207.2925,329.970625 C219.016875,322.455 229.608125,314.36125 239.205,305.85125 C227.04125,278.61 204.5175,260.318125 204.5175,260.318125 L204.5175,260.318125 Z M149.0175,151.491875 C160.834375,146.173125 169.436875,143.860625 174.709375,142.796875 C176.088583,142.530747 177.476997,142.314771 178.871875,142.149375 C180.213125,141.9875 180.906875,141.9875 180.906875,141.9875 C165.228125,139.2125 146.681875,146.635625 146.681875,146.635625 L148.023125,149.410625 L149.040625,151.491875 L149.0175,151.491875 Z M234.510625,352.078125 L234.510625,359.431875 L232.660625,359.431875 L232.660625,352.078125 L230.533125,352.078125 L230.533125,350.25125 L236.638125,350.25125 L236.638125,352.078125 L234.510625,352.078125 L234.510625,352.078125 Z M244.454375,359.431875 L244.454375,354.020625 L242.928125,357.37375 L241.309375,357.37375 L239.76,354.020625 L239.76,359.431875 L237.91,359.431875 L237.91,350.25125 L239.76,350.25125 L242.11875,355.15375 L244.4775,350.25125 L246.3275,350.25125 L246.3275,359.431875 L244.4775,359.431875 L244.454375,359.431875 Z" id="Shape" fill="#FFFFFF"></path>
            </g>
        </g>
    </g>
</svg>