<?xml version="1.0" encoding="UTF-8"?>
<svg width="512px" height="512px" viewBox="0 0 512 512" version="1.1" xmlns="http://www.w3.org/2000/svg" xmlns:xlink="http://www.w3.org/1999/xlink">
    <!-- Generator: Sketch 41.2 (35397) - http://www.bohemiancoding.com/sketch -->
    <title>los-angeles-kings</title>
    <desc>Created with Sketch.</desc>
    <defs></defs>
    <g id="NHL" stroke="none" stroke-width="1" fill="none" fill-rule="evenodd">
        <g id="los-angeles-kings">
            <g id="lak" transform="translate(95.000000, 72.000000)">
                <polygon id="Shape" fill="#111111" points="310.914 5.06 11.086 5.06 11.086 254.61 13.478 256.335 157.596 360.456 161 362.94 164.404 360.479 308.499 256.358 310.891 254.633 310.891 5.06"></polygon>
                <polygon id="Shape" fill="#FFFFFF" points="16.882 252.287 161 356.454 305.118 252.287 305.118 11.523 16.882 11.523"></polygon>
                <path d="M262.085,308.982 C262.072486,307.373988 260.772012,306.073514 259.164,306.061 L254.978,306.061 L254.978,315.951 L256.818,315.951 L256.818,311.903 L258.152,311.903 L260.015,315.951 L262.085,315.951 L260.13,311.765 C261.276955,311.308449 262.044506,310.215818 262.085,308.982 L262.085,308.982 Z M259.164,310.04 L256.818,310.04 L256.818,307.878 L259.164,307.878 C259.739,307.878 260.222,308.361 260.222,308.959 C260.222,309.557 259.739,310.04 259.164,310.04 L259.164,310.04 Z" id="Shape" fill="#111111"></path>
                <path d="M258.52,302.335 C253.756544,302.335 249.895,306.196544 249.895,310.96 C249.895,315.723456 253.756544,319.585 258.52,319.585 C263.283456,319.585 267.145,315.723456 267.145,310.96 C267.145,306.196544 263.283456,302.335 258.52,302.335 L258.52,302.335 Z M258.52,317.722 C255.782937,317.721984 253.315823,316.071976 252.270556,313.542365 C251.225289,311.012754 251.808045,308.102501 253.746736,306.170405 C255.685426,304.238309 258.597647,303.665472 261.123682,304.719352 C263.649717,305.773232 265.29131,308.245953 265.282,310.983 C265.28201,312.774286 264.568854,314.491872 263.300068,315.756343 C262.031281,317.020814 260.311276,317.728114 258.52,317.722 L258.52,317.722 Z" id="Shape" fill="#111111"></path>
                <path d="M26.381,247.434 L161,344.724 L295.596,247.434 L295.596,188.209 L26.381,188.209 L26.381,247.434 Z M26.381,179.883 L295.573,179.883 L295.573,21.045 L26.381,21.045 L26.381,179.883 Z" id="Shape" fill="#ACAEA9"></path>
                <path d="M34.891,243.11 L161,334.259 L287.086,243.11 L287.086,202.952 L34.891,202.952 L34.891,243.11 Z M34.891,167.371 L287.109,167.371 L287.109,29.532 L34.891,29.532 L34.891,167.371 Z" id="Shape" fill="#111111"></path>
                <path d="M65.78,128.386 L65.78,98.463 C65.78,63.733 73.876,51.336 73.876,51.336 L42.458,51.336 C42.458,51.336 50.554,63.733 50.554,98.463 C50.554,133.17 42.458,145.567 42.458,145.567 L145.061,145.567 C145.061,145.567 153.617,133.929 153.617,116.196 C153.617,116.196 141.91,128.386 114.425,128.386 L65.78,128.386 Z M162.587,51.336 C162.587,51.336 170.706,63.733 170.706,98.463 C170.706,133.17 162.587,145.567 162.587,145.567 L185.932,145.567 L185.932,110.469 L256.243,110.469 L256.243,145.567 L279.565,145.567 C279.565,145.567 271.446,133.17 271.446,98.463 C271.446,63.733 279.565,51.336 279.565,51.336 L162.587,51.336 L162.587,51.336 Z" id="Shape" fill="#ACAEA9"></path>
                <path d="M166.129,53.521 C168.567,59.294 172.891,72.979 172.891,98.486 C172.891,123.97 168.567,137.655 166.129,143.405 L183.77,143.405 L183.77,108.284 L258.428,108.284 L258.428,143.382 L276.046,143.382 C273.608,137.632 269.307,123.947 269.307,98.463 C269.307,72.956 273.608,59.271 276.046,53.498 L166.129,53.521 L166.129,53.521 Z M63.618,130.571 L63.618,98.463 C63.618,72.956 67.919,59.271 70.38,53.498 L45.977,53.498 C48.415,59.271 52.716,72.956 52.716,98.463 C52.716,123.947 48.415,137.632 45.977,143.382 L143.888,143.382 C147.982969,136.514489 150.467901,128.808053 151.156,120.842 C145.567,124.683 133.883,130.571 114.402,130.571 L63.618,130.571 L63.618,130.571 Z" id="Shape" fill="#FFFFFF"></path>
                <polygon id="Shape" fill="#ACAEA9" points="183.747 95.45 258.405 95.45 258.405 66.355 183.747 66.355 183.747 95.45"></polygon>
                <polygon id="Shape" fill="#000000" points="185.932 68.517 256.243 68.517 256.243 93.288 185.932 93.288"></polygon>
                <path d="M198.881,290.559 L208.265,236.923 L206.287,236.072 L197.225,248.193 C192.656751,242.92325 186.717727,239.022283 180.067,236.923 L183.632,228.206 L177.192,230.805 L177.606,230.046 L169.625,230.46 L164.772,221.927 L166.796,218.385 L168.82,216.683 L166.52,212.29 L161.644,212.635 L161.552,215.349 L161,216.246 L160.448,215.349 L160.333,212.635 L155.457,212.29 L153.157,216.637 L155.158,218.339 L157.205,221.881 L152.375,230.414 L144.371,230 L144.785,230.759 L138.345,228.16 L141.91,236.877 C135.255615,238.982293 129.310692,242.881907 124.729,248.147 L115.667,236.026 L113.735,236.877 L123.073,290.513 C123.073,290.513 136.367,293.917 160.977,293.917 C185.587,293.963 198.881,290.559 198.881,290.559 L198.881,290.559 Z" id="Shape" fill="#FFFFFF"></path>
                <path d="M153.226,291.502 C153.226,291.502 141.059,290.375 133.814,287.592 C138.736,288.305 146.74,289.248 154.077,289.248 C154.077,289.248 144.164,288.259 137.609,285.798 C142.577,286.419 149.615,287.201 156.124,287.201 C156.124,287.201 146.464,286.212 139.909,283.797 C153.805153,280.827706 168.171847,280.827706 182.068,283.797 C175.513,286.212 165.876,287.201 165.876,287.201 C172.339,287.201 179.4,286.442 184.368,285.798 C177.813,288.259 167.923,289.248 167.923,289.248 C175.214,289.248 183.241,288.305 188.186,287.592 C180.964,290.375 168.751,291.502 168.751,291.502 C186.691,291.019 197.317,288.351 197.317,288.351 L205.528,240.511 L197.202,251.643 C193.545,245.663 186.415,240.856 177.307,238.211 L179.814,232.093 L166.934,237.843 L166.934,234.692 L161,224.48 L155.02,234.715 L155.02,237.866 L142.117,232.116 L144.624,238.234 C135.516,240.879 128.432,245.686 124.752,251.666 L116.426,240.534 L124.66,288.374 C124.683,288.351 135.309,290.996 153.226,291.502 L153.226,291.502 Z" id="Shape" fill="#111111"></path>
                <g id="Group" transform="translate(115.000000, 230.000000)" fill="#ACAEA9">
                    <path d="M40.02,9.039 L29.141,4.186 L40.02,30.636 L40.02,9.039 Z M51.957,9.039 L51.957,30.636 L62.859,4.186 L51.957,9.039 Z M50.853,8.579 L46,2.254 L41.124,8.579 L46,14.375 L50.853,8.579 Z" id="Shape"></path>
                    <path d="M84.088,41.653 C81.8694348,41.2096226 80.2832199,39.2461982 80.316,36.984 C80.316,34.385 82.317,32.269 84.755,32.269 C85.0645818,32.2517796 85.3749585,32.2828172 85.675,32.361 L88.711,14.743 L75.532,32.361 C75.831,40.802 73.761,44.229 73.761,44.229 C73.761,44.229 69.368,42.435 64.423,41.446 L62.721,32.913 C61.9996522,32.91147 61.2950792,32.6952942 60.697,32.292 L60.651,32.292 L56.304,40.158 C56.304,40.158 50.853,39.629 48.116,39.629 L50.577,32.085 L46,20.309 L41.469,32.039 L43.907,39.583 C41.147,39.583 35.696,40.112 35.696,40.112 L31.694,32.844 C31.441,32.89 31.188,32.89 30.912,32.89 C30.3767411,32.8885358 29.8491644,32.7625474 29.371,32.522 L27.577,41.423 C22.655,42.412 18.239,44.206 18.239,44.206 C18.239,44.206 16.192,40.802 16.468,32.338 L3.289,14.72 L6.325,32.338 C6.624,32.246 6.923,32.246 7.245,32.246 C9.77678528,32.3211672 11.7714381,34.4289189 11.707,36.961 C11.7471108,39.2335989 10.144842,41.2048751 7.912,41.63 L10.534,56.856 C14.697,55.246 28.635,50.439 46.023,50.439 C63.388,50.439 77.349,55.246 81.512,56.856 L84.088,41.653 L84.088,41.653 Z" id="Shape"></path>
                </g>
                <path d="M163.047,238.395 C163.04707,237.260693 162.134237,236.337603 161,236.325 C159.85,236.325 158.976,237.268 158.976,238.395 C158.976,239.522 159.85,240.419 161,240.419 C162.121605,240.419071 163.034398,239.516535 163.047,238.395 L163.047,238.395 Z M172.017,240.511 C171.631196,240.01116 171.038354,239.714739 170.407,239.706 C169.862136,239.705859 169.340228,239.925404 168.959304,240.314986 C168.57838,240.704567 168.370617,241.231277 168.383,241.776 C168.390619,242.700305 169.010126,243.507542 169.901,243.754 C170.246,243.938 170.591,244.076 170.982,244.076 C171.496284,244.082234 171.991327,243.880688 172.355007,243.517007 C172.718688,243.153327 172.920234,242.658284 172.914,242.144 C172.914555,241.481928 172.576053,240.865681 172.017,240.511 L172.017,240.511 Z M152.329,240.511 C151.935996,240.007572 151.334644,239.71113 150.696,239.706 C150.151136,239.705859 149.629228,239.925404 149.248304,240.314986 C148.86738,240.704567 148.659617,241.231277 148.672,241.776 C148.672,242.673 149.339,243.524 150.213,243.754 C150.538034,243.956117 150.911347,244.067317 151.294,244.076 C151.808284,244.082234 152.303327,243.880688 152.667007,243.517007 C153.030688,243.153327 153.232234,242.658284 153.226,242.144 C153.226555,241.481928 152.888053,240.865681 152.329,240.511 L152.329,240.511 Z" id="Shape" fill="#111111"></path>
                <g id="Group" transform="translate(115.000000, 230.000000)" fill="#FFFFFF">
                    <path d="M11.247,23.667 L13.524,26.68 C19.044,15.847 30.13,14.651 30.13,14.651 C20.654,18.193 16.675,23.736 15.387,29.21 L17.526,31.993 C17.526,31.993 17.25,39.629 18.791,42.872 C19.3156283,42.628394 19.8624822,42.4358398 20.424,42.297 C15.479,21.942 31.487,18.216 31.487,18.216 C20.171,24.058 21.252,34.477 23.529,41.308 L26.657,40.549 L28.359,32.108 C26.8126988,31.5135502 25.8088469,30.0091586 25.8534469,28.3531306 C25.8980469,26.6971026 26.9814172,25.2489239 28.5574729,24.7385651 C30.1335287,24.2282063 31.8601443,24.7664546 32.867,26.082 C33.902,26.749 34.615,27.922 34.615,29.233 C34.6167113,30.5871258 33.874613,31.8327908 32.683,32.476 L36.271,39.031 C38.2222338,38.8440174 40.177848,38.705974 42.136,38.617 L30.521,10.35 C21.528,12.972 14.49,17.825 11.247,23.667 Z M59.639,31.809 C58.2964624,30.9979465 57.5685353,29.4631135 57.789966,27.910315 C58.0113966,26.3575164 59.1393222,25.0873299 60.6550509,24.683868 C62.1707796,24.2804061 63.7809093,24.8217676 64.745,26.059 C65.803,26.726 66.493,27.899 66.493,29.21 C66.4811551,30.8643784 65.3733343,32.3101785 63.779,32.752 L65.366,40.526 L68.471,41.285 C70.771,34.454 71.806,24.035 60.467,18.193 C60.467,18.193 76.498,21.919 71.576,42.274 C72.1311107,42.4335634 72.676381,42.62556 73.209,42.849 C74.704,39.606 74.451,31.97 74.451,31.97 L76.613,29.187 C75.302,23.713 71.369,18.17 61.847,14.628 C61.847,14.628 72.91,15.847 78.453,26.657 L80.73,23.644 C77.51,17.802 70.472,12.949 61.456,10.304 L49.864,38.571 C51.842,38.663 53.797,38.801 55.706,38.985 L59.639,31.809 L59.639,31.809 Z" id="Shape"></path>
                    <path d="M29.762,25.116 C27.9137791,25.116 26.4155,26.6142791 26.4155,28.4625 C26.4155,30.3107209 27.9137791,31.809 29.762,31.809 C31.625,31.809 33.12,30.291 33.12,28.451 C33.12,26.611 31.602,25.116 29.762,25.116 L29.762,25.116 Z M64.975,28.428 C64.975,26.588 63.48,25.093 61.617,25.093 C59.754,25.093 58.282,26.565 58.282,28.428 C58.282,30.291 59.754,31.786 61.617,31.786 C63.48,31.786 64.975,30.268 64.975,28.428 Z M8.579,36.961 C8.579,36.156 7.981,35.489 7.199,35.489 C7.061,35.489 6.923,35.489 6.831,35.535 L7.314,38.41 C8.05250761,38.3375348 8.60687641,37.7025306 8.579,36.961 L8.579,36.961 Z" id="Shape"></path>
                    <path d="M7.199,32.752 C6.90997941,32.7546125 6.62303515,32.801144 6.348,32.89 L6.44,33.419 C6.6829416,33.3288167 6.93986213,33.2821039 7.199,33.281 C9.085,33.281 10.557,34.937 10.557,36.961 C10.557,38.801 9.315,40.296 7.659,40.549 L7.774,41.078 C9.75106092,40.6980465 11.1681789,38.9509147 11.132,36.938 C11.132,34.638 9.361,32.752 7.199,32.752 L7.199,32.752 Z M83.398,36.961 C83.3708935,37.6979868 83.9280386,38.3260412 84.663,38.387 L85.146,35.512 C85.031,35.466 84.916,35.466 84.755,35.466 C83.996,35.489 83.398,36.156 83.398,36.961 L83.398,36.961 Z" id="Shape"></path>
                    <path d="M84.203,41.101 L84.295,40.572 C82.5812513,40.2461225 81.355037,38.7279524 81.397,36.984 C81.397,34.96 82.892,33.304 84.755,33.304 C85.031,33.304 85.238,33.35 85.514,33.442 L85.629,32.913 C85.346123,32.823909 85.0515651,32.7773999 84.755,32.775 C82.593,32.775 80.845,34.661 80.845,37.007 C80.8312578,39.0026581 82.2432113,40.7240807 84.203,41.101 L84.203,41.101 Z M47.725,8.395 C47.725,7.452 46.966,6.647 46,6.647 C45.034,6.647 44.252,7.452 44.252,8.395 C44.252,9.384 45.034,10.143 46,10.143 C46.966,10.143 47.725,9.384 47.725,8.395 Z M55.384,13.478 C55.8433149,13.4904185 56.2881376,13.3165985 56.6173437,12.9960557 C56.9465498,12.6755129 57.1321678,12.2354827 57.132,11.776 C57.138249,11.310514 56.9560926,10.8622633 56.6269146,10.5330854 C56.2977367,10.2039074 55.849486,10.021751 55.384,10.028 C54.4186063,10.028 53.636,10.8106063 53.636,11.776 C53.636,12.719 54.441,13.478 55.384,13.478 L55.384,13.478 Z M35.696,13.478 C36.1553149,13.4904185 36.6001376,13.3165985 36.9293437,12.9960557 C37.2585498,12.6755129 37.4441678,12.2354827 37.444,11.776 C37.450249,11.310514 37.2680926,10.8622633 36.9389146,10.5330854 C36.6097367,10.2039074 36.161486,10.021751 35.696,10.028 C34.7433088,10.028 33.971,10.8003088 33.971,11.753 C33.971,12.7056912 34.7433088,13.478 35.696,13.478 L35.696,13.478 Z" id="Shape"></path>
                </g>
                <g id="Group" transform="translate(115.000000, 207.000000)" fill="#111111">
                    <circle id="Oval" cx="29.762" cy="51.428" r="2.967"></circle>
                    <circle id="Oval" cx="61.64" cy="51.428" r="2.967"></circle>
                    <path d="M45.885,56.373 C46.115,56.465 46.368,56.557 46.644,56.557 C47.6258051,56.5444117 48.4150807,55.7448858 48.415,54.763 C48.4109399,54.0956118 48.027208,53.48878 47.426,53.199 C47.7012304,53.5465125 47.8547583,53.9747746 47.863,54.418 C47.8504012,55.5014266 46.9684998,56.3730733 45.885,56.373 L45.885,56.373 Z" id="Shape"></path>
                    <ellipse id="Oval" cx="45.885" cy="54.395" rx="1.564" ry="1.564"></ellipse>
                    <ellipse id="Oval" cx="46" cy="31.395" rx="1.541" ry="1.541"></ellipse>
                    <ellipse id="Oval" cx="55.384" cy="34.753" rx="1.541" ry="1.541"></ellipse>
                    <circle id="Oval" cx="35.696" cy="34.753" r="1.541"></circle>
                    <path d="M36.754,69.989 L36.708,69.989 C36.938,70.081 37.214,70.173 37.49,70.173 C37.9637107,70.17304 38.4176924,69.9832991 38.7504885,69.646181 C39.0832846,69.3090629 39.2671521,68.8526708 39.261,68.379 C39.2463829,67.7147501 38.8658469,67.1129722 38.272,66.815 C38.5503179,67.1607895 38.7042373,67.5901435 38.709,68.034 C38.6965765,69.1085286 37.8285286,69.9765765 36.754,69.989 L36.754,69.989 Z M21.574,72.634 L21.528,72.634 C21.781,72.818 22.011,72.864 22.31,72.864 C23.2791842,72.8640817 24.0684132,72.0851025 24.081,71.116 C24.0890692,70.4336066 23.7043318,69.8072899 23.092,69.506 C23.3769714,69.8480223 23.5317688,70.2798256 23.529,70.725 C23.4921863,71.7815255 22.6311024,72.6223485 21.574,72.634 L21.574,72.634 Z M54.165,69.989 C54.142,69.989 54.142,69.989 54.165,69.989 C54.3948883,70.1007933 54.6455488,70.1634584 54.901,70.173 C55.3747107,70.17304 55.8286924,69.9832991 56.1614885,69.646181 C56.4942846,69.3090629 56.6781521,68.8526708 56.672,68.379 C56.6573829,67.7147501 56.2768469,67.1129722 55.683,66.815 C55.9524777,67.1656804 56.1053032,67.591983 56.12,68.034 C56.1075765,69.1085286 55.2395286,69.9765765 54.165,69.989 L54.165,69.989 Z M69.368,72.634 C69.5857238,72.7982403 69.8547313,72.8797577 70.127,72.864 C71.0923937,72.864 71.875,72.0813937 71.875,71.116 C71.8830692,70.4336066 71.4983318,69.8072899 70.886,69.506 C71.185,69.874 71.346,70.219 71.346,70.725 C71.3208774,71.7957142 70.4389313,72.6468948 69.368,72.634 L69.368,72.634 Z" id="Shape"></path>
                    <circle id="Oval" cx="36.754" cy="68.034" r="1.587"></circle>
                    <circle id="Oval" cx="21.574" cy="70.679" r="1.587"></circle>
                    <circle id="Oval" cx="54.165" cy="68.034" r="1.587"></circle>
                    <circle id="Oval" cx="69.368" cy="70.679" r="1.587"></circle>
                    <path d="M6.486,54.625 L8.395,54.717 L7.567,52.233 L6.486,54.625 Z M10.925,56.074 L11.477,53.498 L9.338,55.039 L10.925,56.074 Z M14.145,56.603 L11.569,56.787 L12.374,58.489 L14.145,56.603 Z M12.374,61.364 L14.881,60.651 L12.558,59.478 L12.374,61.364 Z M12.144,62.031 L11.109,63.664 L13.662,64.193 L12.144,62.031 Z M8.418,65.182 L10.258,67.022 L10.166,64.423 L8.418,65.182 Z M84.433,52.233 L83.559,54.717 L85.491,54.625 L84.433,52.233 Z M82.662,55.039 L80.523,53.498 L81.052,56.074 L82.662,55.039 Z M80.431,56.787 L77.832,56.603 L79.603,58.489 L80.431,56.787 Z M79.442,59.478 L77.096,60.651 L79.603,61.364 L79.442,59.478 Z M78.315,64.193 L80.891,63.664 L79.833,62.031 L78.315,64.193 Z M81.811,64.423 L81.719,67.022 L83.559,65.182 L81.811,64.423 Z M39.583,27.324 L46,16.307 L52.394,27.324 L57.546,27.324 L58.121,26.105 L53.084,26.105 L46.667,15.088 L49.818,9.706 L50.577,8.947 L50.048,8.142 L48.875,8.257 L48.714,9.246 L46,13.915 L43.309,9.246 L43.102,8.257 L41.929,8.142 L41.423,8.947 L42.182,9.706 L45.31,15.088 L38.916,26.105 L33.856,26.105 L34.454,27.324 L39.583,27.324 Z" id="Shape"></path>
                </g>
            </g>
        </g>
    </g>
</svg>