<svg xmlns="http://www.w3.org/2000/svg" viewBox="0 0 24 16"><path fill="#111" d="M18.518.22H5.482v10.85l.104.075 6.266 4.527.148.108.148-.107 6.265-4.527.104-.075V.22h.001z"/><path fill="#FFF" d="M5.734 10.969L12 15.498l6.266-4.529V.501H5.734v10.468z"/><path fill="#111" d="M16.395 13.434a.128.128 0 0 0-.127-.127h-.182v.43h.08v-.176h.058l.081.176h.09l-.085-.182a.135.135 0 0 0 .085-.121zm-.127.046h-.102v-.094h.102c.025 0 .046.021.046.047s-.021.047-.046.047z"/><path fill="#111" d="M16.24 13.145a.375.375 0 1 0 0 .75.375.375 0 0 0 0-.75zm0 .669a.294.294 0 1 1 .294-.293.293.293 0 0 1-.294.293z"/><path d="M6.147 10.758L12 14.988l5.852-4.23V8.183H6.147v2.575zm0-2.937h11.704V.915H6.147v6.906z" fill="#ACAEA9"/><path d="M6.517 10.57L12 14.533l5.482-3.963V8.824H6.517v1.746zm0-3.293h10.966V1.284H6.517v5.993z" fill="#111"/><path d="M7.86 5.582V4.281c0-1.51.352-2.049.352-2.049H6.846s.352.539.352 2.049c0 1.509-.352 2.048-.352 2.048h4.461s.372-.506.372-1.277c0 0-.509.53-1.704.53H7.86zm4.209-3.35s.353.539.353 2.049c0 1.509-.353 2.048-.353 2.048h1.015V4.803h3.057v1.526h1.014s-.353-.539-.353-2.048c0-1.51.353-2.049.353-2.049h-5.086z" fill="#ACAEA9"/><path d="M12.223 2.327c.106.251.294.846.294 1.955 0 1.108-.188 1.703-.294 1.953h.767V4.708h3.246v1.526h.766c-.106-.25-.293-.845-.293-1.953 0-1.109.187-1.704.293-1.955l-4.779.001zm-4.457 3.35V4.281c0-1.109.187-1.704.294-1.955H6.999c.106.251.293.846.293 1.955 0 1.108-.187 1.703-.293 1.953h4.257a2.3 2.3 0 0 0 .316-.98c-.243.167-.751.423-1.598.423H7.766z" fill="#FFF"/><path fill="#ACAEA9" d="M12.989 4.15h3.246V2.885h-3.246V4.15z"/><path d="M13.084 2.979h3.057v1.077h-3.057z"/><path fill="#FFF" d="M13.647 12.633l.408-2.332-.086-.037-.394.527a1.641 1.641 0 0 0-.746-.49l.155-.379-.28.113.018-.033-.347.018-.211-.371.088-.154.088-.074-.1-.191-.212.015-.004.118-.024.039-.024-.039-.005-.118-.212-.015-.1.189.087.074.089.154-.21.371-.348-.018.018.033-.28-.113.155.379a1.65 1.65 0 0 0-.747.49l-.394-.527-.084.037.406 2.332s.578.148 1.648.148c1.07.002 1.648-.146 1.648-.146z"/><path d="M11.662 12.674s-.529-.049-.844-.17c.214.031.562.072.881.072 0 0-.431-.043-.716-.15.216.027.522.061.805.061 0 0-.42-.043-.705-.148a4.386 4.386 0 0 1 1.833 0c-.285.105-.704.148-.704.148.281 0 .588-.033.804-.061-.285.107-.715.15-.715.15.317 0 .666-.041.881-.072-.314.121-.845.17-.845.17.78-.021 1.242-.137 1.242-.137l.357-2.08-.362.484c-.159-.26-.469-.469-.865-.584l.109-.266-.56.25v-.137L12 9.76l-.26.445v.137l-.561-.25.109.266c-.396.115-.704.324-.864.584l-.362-.484.358 2.08c.001-.001.463.114 1.242.136z" fill="#111"/><g fill="#ACAEA9"><path d="M11.74 10.393l-.473-.211.473 1.15v-.939zm.519 0v.939l.474-1.15-.474.211zm-.048-.02L12 10.098l-.212.275.212.252.211-.252z"/><path d="M13.656 11.811a.204.204 0 0 1-.164-.203c0-.113.087-.205.193-.205a.13.13 0 0 1 .04.004l.132-.766-.573.766c.013.367-.077.516-.077.516s-.191-.078-.406-.121l-.074-.371a.158.158 0 0 1-.088-.027h-.002l-.189.342s-.237-.023-.356-.023l.107-.328-.199-.512-.197.51.106.328c-.12 0-.357.023-.357.023l-.174-.316c-.011.002-.022.002-.034.002a.15.15 0 0 1-.067-.016l-.078.387c-.214.043-.406.121-.406.121s-.089-.148-.077-.516l-.573-.766.132.766c.013-.004.026-.004.04-.004a.2.2 0 0 1 .194.205.203.203 0 0 1-.165.203l.114.662c.181-.07.787-.279 1.543-.279.755 0 1.362.209 1.543.279l.112-.661z"/></g><path d="M12.089 10.365a.09.09 0 0 0-.089-.09c-.05 0-.088.041-.088.09s.038.088.088.088a.089.089 0 0 0 .089-.088zm.39.092a.09.09 0 0 0-.07-.035.088.088 0 0 0-.088.09.09.09 0 0 0 .066.086c.015.008.03.014.047.014a.083.083 0 0 0 .084-.084.084.084 0 0 0-.039-.071zm-.856 0a.091.091 0 0 0-.071-.035.088.088 0 0 0-.088.09c0 .039.029.076.067.086a.093.093 0 0 0 .047.014.083.083 0 0 0 .084-.084.084.084 0 0 0-.039-.071z" fill="#111"/><g fill="#FFF"><path d="M10.489 11.029l.099.131c.24-.471.722-.523.722-.523-.412.154-.585.395-.641.633l.093.121s-.012.332.055.473a.392.392 0 0 1 .071-.025c-.215-.885.481-1.047.481-1.047-.492.254-.445.707-.346 1.004l.136-.033.074-.367a.17.17 0 1 1 .196-.262c.045.029.076.08.076.137a.16.16 0 0 1-.084.141l.156.285a5.1 5.1 0 0 1 .255-.018l-.505-1.229c-.391.114-.697.325-.838.579zm2.104.354a.17.17 0 1 1 .222-.25c.046.029.076.08.076.137a.161.161 0 0 1-.118.154l.069.338.135.033c.1-.297.145-.75-.348-1.004 0 0 .697.162.483 1.047a.642.642 0 0 1 .071.025c.065-.141.054-.473.054-.473l.094-.121c-.057-.238-.228-.479-.642-.633 0 0 .481.053.722.523l.099-.131c-.14-.254-.446-.465-.838-.58l-.504 1.229c.086.004.171.01.254.018l.171-.312z"/><path d="M11.294 11.092a.145.145 0 1 0 0 .291c.081 0 .146-.066.146-.146s-.066-.145-.146-.145zm1.531.144c0-.08-.065-.145-.146-.145s-.145.064-.145.145.064.146.145.146.146-.066.146-.146zm-2.452.371c0-.035-.026-.064-.06-.064-.006 0-.012 0-.016.002l.021.125a.061.061 0 0 0 .055-.063z"/><path d="M10.313 11.424a.124.124 0 0 0-.037.006l.004.023a.096.096 0 0 1 .033-.006c.082 0 .146.072.146.16 0 .08-.054.145-.126.156l.005.023a.18.18 0 0 0 .146-.18c0-.1-.077-.182-.171-.182zm3.313.183a.06.06 0 0 0 .055.062l.021-.125c-.005-.002-.01-.002-.017-.002-.033.001-.059.03-.059.065z"/><path d="M13.661 11.787l.004-.023a.155.155 0 0 1-.126-.156c0-.088.065-.16.146-.16.012 0 .021.002.033.006l.005-.023a.13.13 0 0 0-.038-.006c-.094 0-.17.082-.17.184a.18.18 0 0 0 .146.178zm-1.586-1.422c0-.041-.033-.076-.075-.076s-.076.035-.076.076c0 .043.034.076.076.076s.075-.033.075-.076zm.333.221a.074.074 0 0 0 .076-.074.075.075 0 0 0-.076-.076.076.076 0 0 0-.076.076c0 .041.035.074.076.074zm-.856 0a.074.074 0 0 0 .076-.074.075.075 0 0 0-.076-.076.075.075 0 0 0 0 .15z"/></g><g fill="#111"><circle cx="11.294" cy="11.236" r=".129"/><circle cx="12.68" cy="11.236" r=".129"/><path d="M11.995 11.451c.01.004.021.008.033.008a.078.078 0 0 0 .077-.078.076.076 0 0 0-.043-.068.088.088 0 0 1 .019.053.086.086 0 0 1-.086.085z"/><circle cx="11.995" cy="11.365" r=".068"/><circle cx="12" cy="10.365" r=".067"/><circle cx="12.408" cy="10.511" r=".067"/><circle cx="11.552" cy="10.511" r=".067"/><path d="M11.598 12.043h-.002c.01.004.022.008.034.008a.077.077 0 0 0 .077-.078.078.078 0 0 0-.043-.068.086.086 0 0 1 .019.053.086.086 0 0 1-.085.085zm-.66.115h-.002c.011.008.021.01.034.01a.077.077 0 0 0 .077-.076.077.077 0 0 0-.043-.07.082.082 0 0 1 .019.053.086.086 0 0 1-.085.083zm1.417-.115c-.001 0-.001 0 0 0a.08.08 0 0 0 .032.008.077.077 0 0 0 .077-.078.078.078 0 0 0-.043-.068.092.092 0 0 1 .019.053.086.086 0 0 1-.085.085zm.661.115a.05.05 0 0 0 .033.01.076.076 0 0 0 .076-.076.077.077 0 0 0-.043-.07c.013.016.02.031.02.053a.085.085 0 0 1-.086.083z"/><circle cx="11.598" cy="11.958" r=".069"/><circle cx="10.938" cy="12.073" r=".069"/><circle cx="12.355" cy="11.958" r=".069"/><circle cx="13.016" cy="12.073" r=".069"/><path d="M10.282 11.375l.083.004-.036-.108zm.193.063l.024-.112-.093.067zm.14.023l-.112.008.035.074zm-.077.207l.109-.031-.101-.051zm-.01.029l-.045.071.111.023zm-.162.137l.08.08-.004-.113zm3.305-.563l-.038.108.084-.004zm-.077.122l-.093-.067.023.112zm-.097.076l-.113-.008.077.082zm-.043.117l-.102.051.109.031zm-.049.205l.112-.023-.046-.071zm.152.01l-.004.113.08-.08zm-1.836-1.613L12 9.709l.278.479h.224l.025-.053h-.219l-.279-.479.137-.234.033-.033-.023-.035-.051.005-.007.043-.118.203-.117-.203-.009-.043-.051-.005-.022.035.033.033.136.234-.278.479h-.22l.026.053z"/></g></svg>