<svg width="512" height="512" viewBox="0 0 512 512" xmlns="http://www.w3.org/2000/svg"><title>los-angeles-kings</title><g fill="none" fill-rule="evenodd"><path fill="#111" d="M405.914 77.06H106.086v249.55l2.392 1.725 144.118 104.121L256 434.94l3.404-2.461 144.095-104.121 2.392-1.725V77.06z"/><path fill="#FFF" d="M111.882 324.287L256 428.454l144.118-104.167V83.523H111.882z"/><path d="M357.085 380.982a2.944 2.944 0 0 0-2.921-2.921h-4.186v9.89h1.84v-4.048h1.334l1.863 4.048h2.07l-1.955-4.186a3.105 3.105 0 0 0 1.955-2.783zm-2.921 1.058h-2.346v-2.162h2.346c.575 0 1.058.483 1.058 1.081s-.483 1.081-1.058 1.081z" fill="#111"/><path d="M353.52 374.335a8.625 8.625 0 1 0 0 17.25 8.625 8.625 0 0 0 0-17.25zm0 15.387a6.762 6.762 0 1 1 6.762-6.739 6.739 6.739 0 0 1-6.762 6.739z" fill="#111"/><path d="M121.381 319.434L256 416.724l134.596-97.29v-59.225H121.381v59.225zm0-67.551h269.192V93.045H121.381v158.838z" fill="#ACAEA9"/><path d="M129.891 315.11L256 406.259l126.086-91.149v-40.158H129.891v40.158zm0-75.739h252.218V101.532H129.891v137.839z" fill="#111"/><path d="M160.78 200.386v-29.923c0-34.73 8.096-47.127 8.096-47.127h-31.418s8.096 12.397 8.096 47.127c0 34.707-8.096 47.104-8.096 47.104h102.603s8.556-11.638 8.556-29.371c0 0-11.707 12.19-39.192 12.19H160.78zm96.807-77.05s8.119 12.397 8.119 47.127c0 34.707-8.119 47.104-8.119 47.104h23.345v-35.098h70.311v35.098h23.322s-8.119-12.397-8.119-47.104c0-34.73 8.119-47.127 8.119-47.127H257.587z" fill="#ACAEA9"/><path d="M261.129 125.521c2.438 5.773 6.762 19.458 6.762 44.965 0 25.484-4.324 39.169-6.762 44.919h17.641v-35.121h74.658v35.098h17.618c-2.438-5.75-6.739-19.435-6.739-44.919 0-25.507 4.301-39.192 6.739-44.965l-109.917.023zm-102.511 77.05v-32.108c0-25.507 4.301-39.192 6.762-44.965h-24.403c2.438 5.773 6.739 19.458 6.739 44.965 0 25.484-4.301 39.169-6.739 44.919h97.911a52.9 52.9 0 0 0 7.268-22.54c-5.589 3.841-17.273 9.729-36.754 9.729h-50.784z" fill="#FFF"/><path fill="#ACAEA9" d="M278.747 167.45h74.658v-29.095h-74.658v29.095z"/><path fill="#000" d="M280.932 140.517h70.311v24.771h-70.311z"/><path d="M293.881 362.559l9.384-53.636-1.978-.851-9.062 12.121a37.743 37.743 0 0 0-17.158-11.27l3.565-8.717-6.44 2.599.414-.759-7.981.414-4.853-8.533 2.024-3.542 2.024-1.702-2.3-4.393-4.876.345-.092 2.714-.552.897-.552-.897-.115-2.714-4.876-.345-2.3 4.347 2.001 1.702 2.047 3.542-4.83 8.533-8.004-.414.414.759-6.44-2.599 3.565 8.717a37.95 37.95 0 0 0-17.181 11.27l-9.062-12.121-1.932.851 9.338 53.636s13.294 3.404 37.904 3.404c24.61.046 37.904-3.358 37.904-3.358z" fill="#FFF"/><path d="M248.226 363.502s-12.167-1.127-19.412-3.91c4.922.713 12.926 1.656 20.263 1.656 0 0-9.913-.989-16.468-3.45 4.968.621 12.006 1.403 18.515 1.403 0 0-9.66-.989-16.215-3.404a100.878 100.878 0 0 1 42.159 0c-6.555 2.415-16.192 3.404-16.192 3.404 6.463 0 13.524-.759 18.492-1.403-6.555 2.461-16.445 3.45-16.445 3.45 7.291 0 15.318-.943 20.263-1.656-7.222 2.783-19.435 3.91-19.435 3.91 17.94-.483 28.566-3.151 28.566-3.151l8.211-47.84-8.326 11.132c-3.657-5.98-10.787-10.787-19.895-13.432l2.507-6.118-12.88 5.75v-3.151L256 296.48l-5.98 10.235v3.151l-12.903-5.75 2.507 6.118c-9.108 2.645-16.192 7.452-19.872 13.432l-8.326-11.132 8.234 47.84c.023-.023 10.649 2.622 28.566 3.128z" fill="#111"/><g fill="#ACAEA9"><path d="M250.02 311.039l-10.879-4.853 10.879 26.45v-21.597zm11.937 0v21.597l10.902-26.45-10.902 4.853zm-1.104-.46L256 304.254l-4.876 6.325 4.876 5.796 4.853-5.796z"/><path d="M294.088 343.653a4.692 4.692 0 0 1-3.772-4.669c0-2.599 2.001-4.715 4.439-4.715.31-.017.62.014.92.092l3.036-17.618-13.179 17.618c.299 8.441-1.771 11.868-1.771 11.868s-4.393-1.794-9.338-2.783l-1.702-8.533a3.634 3.634 0 0 1-2.024-.621h-.046l-4.347 7.866s-5.451-.529-8.188-.529l2.461-7.544L256 322.309l-4.531 11.73 2.438 7.544c-2.76 0-8.211.529-8.211.529l-4.002-7.268c-.253.046-.506.046-.782.046a3.45 3.45 0 0 1-1.541-.368l-1.794 8.901c-4.922.989-9.338 2.783-9.338 2.783s-2.047-3.404-1.771-11.868l-13.179-17.618 3.036 17.618c.299-.092.598-.092.92-.092a4.6 4.6 0 0 1 4.462 4.715 4.669 4.669 0 0 1-3.795 4.669l2.622 15.226c4.163-1.61 18.101-6.417 35.489-6.417 17.365 0 31.326 4.807 35.489 6.417l2.576-15.203z"/></g><path d="M258.047 310.395a2.07 2.07 0 0 0-2.047-2.07c-1.15 0-2.024.943-2.024 2.07 0 1.127.874 2.024 2.024 2.024a2.047 2.047 0 0 0 2.047-2.024zm8.97 2.116a2.07 2.07 0 0 0-1.61-.805 2.024 2.024 0 0 0-2.024 2.07 2.07 2.07 0 0 0 1.518 1.978c.345.184.69.322 1.081.322a1.909 1.909 0 0 0 1.932-1.932c0-.662-.338-1.278-.897-1.633zm-19.688 0a2.093 2.093 0 0 0-1.633-.805 2.024 2.024 0 0 0-2.024 2.07c0 .897.667 1.748 1.541 1.978.325.202.698.313 1.081.322a1.909 1.909 0 0 0 1.932-1.932c0-.662-.338-1.278-.897-1.633z" fill="#111"/><g fill="#FFF"><path d="M221.247 325.667l2.277 3.013c5.52-10.833 16.606-12.029 16.606-12.029-9.476 3.542-13.455 9.085-14.743 14.559l2.139 2.783s-.276 7.636 1.265 10.879a9.016 9.016 0 0 1 1.633-.575c-4.945-20.355 11.063-24.081 11.063-24.081-11.316 5.842-10.235 16.261-7.958 23.092l3.128-.759 1.702-8.441a3.91 3.91 0 1 1 4.508-6.026c1.035.667 1.748 1.84 1.748 3.151a3.68 3.68 0 0 1-1.932 3.243l3.588 6.555a117.3 117.3 0 0 1 5.865-.414l-11.615-28.267c-8.993 2.622-16.031 7.475-19.274 13.317zm48.392 8.142a3.91 3.91 0 1 1 5.106-5.75 3.729 3.729 0 0 1 1.748 3.151 3.703 3.703 0 0 1-2.714 3.542l1.587 7.774 3.105.759c2.3-6.831 3.335-17.25-8.004-23.092 0 0 16.031 3.726 11.109 24.081.555.16 1.1.352 1.633.575 1.495-3.243 1.242-10.879 1.242-10.879l2.162-2.783c-1.311-5.474-5.244-11.017-14.766-14.559 0 0 11.063 1.219 16.606 12.029l2.277-3.013c-3.22-5.842-10.258-10.695-19.274-13.34l-11.592 28.267c1.978.092 3.933.23 5.842.414l3.933-7.176z"/><path d="M239.762 327.116a3.347 3.347 0 0 0 0 6.693 3.362 3.362 0 0 0 3.358-3.358c0-1.84-1.518-3.335-3.358-3.335zm35.213 3.312a3.342 3.342 0 0 0-3.358-3.335 3.308 3.308 0 0 0-3.335 3.335c0 1.863 1.472 3.358 3.335 3.358a3.362 3.362 0 0 0 3.358-3.358zm-56.396 8.533c0-.805-.598-1.472-1.38-1.472-.138 0-.276 0-.368.046l.483 2.875a1.403 1.403 0 0 0 1.265-1.449z"/><path d="M217.199 334.752c-.289.003-.576.05-.851.138l.092.529c.243-.09.5-.137.759-.138 1.886 0 3.358 1.656 3.358 3.68 0 1.84-1.242 3.335-2.898 3.588l.115.529a4.14 4.14 0 0 0 3.358-4.14c0-2.3-1.771-4.186-3.933-4.186zm76.199 4.209a1.38 1.38 0 0 0 1.265 1.426l.483-2.875c-.115-.046-.23-.046-.391-.046-.759.023-1.357.69-1.357 1.495z"/><path d="M294.203 343.101l.092-.529a3.565 3.565 0 0 1-2.898-3.588c0-2.024 1.495-3.68 3.358-3.68.276 0 .483.046.759.138l.115-.529a2.99 2.99 0 0 0-.874-.138c-2.162 0-3.91 1.886-3.91 4.232a4.14 4.14 0 0 0 3.358 4.094zm-36.478-32.706c0-.943-.759-1.748-1.725-1.748-.966 0-1.748.805-1.748 1.748 0 .989.782 1.748 1.748 1.748s1.725-.759 1.725-1.748zm7.659 5.083a1.702 1.702 0 0 0 1.748-1.702 1.725 1.725 0 0 0-1.748-1.748c-.965 0-1.748.783-1.748 1.748 0 .943.805 1.702 1.748 1.702zm-19.688 0a1.702 1.702 0 0 0 1.748-1.702 1.725 1.725 0 0 0-1.748-1.748 1.725 1.725 0 1 0 0 3.45z"/></g><g transform="translate(210 279)" fill="#111"><circle cx="29.762" cy="51.428" r="2.967"/><circle cx="61.64" cy="51.428" r="2.967"/><path d="M45.885 56.373c.23.092.483.184.759.184a1.794 1.794 0 0 0 1.771-1.794 1.748 1.748 0 0 0-.989-1.564c.275.348.429.776.437 1.219a1.978 1.978 0 0 1-1.978 1.955z"/><ellipse cx="45.885" cy="54.395" rx="1.564" ry="1.564"/><ellipse cx="46" cy="31.395" rx="1.541" ry="1.541"/><ellipse cx="55.384" cy="34.753" rx="1.541" ry="1.541"/><circle cx="35.696" cy="34.753" r="1.541"/><path d="M36.754 69.989h-.046c.23.092.506.184.782.184a1.771 1.771 0 0 0 1.771-1.794 1.794 1.794 0 0 0-.989-1.564c.278.346.432.775.437 1.219a1.978 1.978 0 0 1-1.955 1.955zm-15.18 2.645h-.046c.253.184.483.23.782.23a1.771 1.771 0 0 0 .782-3.358c.285.342.44.774.437 1.219a1.978 1.978 0 0 1-1.955 1.909zm32.591-2.645c-.023 0-.023 0 0 0 .23.112.48.174.736.184a1.771 1.771 0 0 0 1.771-1.794 1.794 1.794 0 0 0-.989-1.564c.27.35.422.777.437 1.219a1.978 1.978 0 0 1-1.955 1.955zm15.203 2.645c.218.164.487.246.759.23.965 0 1.748-.783 1.748-1.748a1.771 1.771 0 0 0-.989-1.61c.299.368.46.713.46 1.219a1.955 1.955 0 0 1-1.978 1.909z"/><circle cx="36.754" cy="68.034" r="1.587"/><circle cx="21.574" cy="70.679" r="1.587"/><circle cx="54.165" cy="68.034" r="1.587"/><circle cx="69.368" cy="70.679" r="1.587"/><path d="M6.486 54.625l1.909.092-.828-2.484-1.081 2.392zm4.439 1.449l.552-2.576-2.139 1.541 1.587 1.035zm3.22.529l-2.576.184.805 1.702 1.771-1.886zm-1.771 4.761l2.507-.713-2.323-1.173-.184 1.886zm-.23.667l-1.035 1.633 2.553.529-1.518-2.162zm-3.726 3.151l1.84 1.84-.092-2.599-1.748.759zm76.015-12.949l-.874 2.484 1.932-.092-1.058-2.392zm-1.771 2.806l-2.139-1.541.529 2.576 1.61-1.035zm-2.231 1.748l-2.599-.184 1.771 1.886.828-1.702zm-.989 2.691l-2.346 1.173 2.507.713-.161-1.886zm-1.127 4.715l2.576-.529-1.058-1.633-1.518 2.162zm3.496.23l-.092 2.599 1.84-1.84-1.748-.759zM39.583 27.324L46 16.307l6.394 11.017h5.152l.575-1.219h-5.037l-6.417-11.017 3.151-5.382.759-.759-.529-.805-1.173.115-.161.989L46 13.915l-2.691-4.669-.207-.989-1.173-.115-.506.805.759.759 3.128 5.382-6.394 11.017h-5.06l.598 1.219h5.129z"/></g></g></svg>