<svg width="512" height="512" viewBox="0 0 512 512" xmlns="http://www.w3.org/2000/svg"><title>metropolitan</title><defs><linearGradient x1="83.174%" y1="89.727%" x2="16.883%" y2="1.729%" id="a"><stop stop-color="#939BA0" offset="0%"/><stop stop-color="#98A0A4" offset="1.2%"/><stop stop-color="#C1C5C7" offset="11.8%"/><stop stop-color="#DADCDD" offset="20.2%"/><stop stop-color="#E3E4E5" offset="25.3%"/><stop stop-color="#E3E4E5" offset="75.3%"/><stop stop-color="#DBDDDE" offset="80.1%"/><stop stop-color="#C5C9CB" offset="87.5%"/><stop stop-color="#A2A9AD" offset="96.6%"/><stop stop-color="#939BA0" offset="100%"/></linearGradient><linearGradient x1="-9.732%" y1="50.001%" x2="118.559%" y2="50.001%" id="b"><stop stop-color="#FFF" offset="11.2%"/><stop stop-color="#DCDEE0" offset="23.7%"/><stop stop-color="#A7AEB2" offset="44%"/><stop stop-color="#939BA0" offset="53.9%"/></linearGradient><linearGradient x1="50.003%" y1="100%" x2="50.003%" y2="0%" id="c"><stop stop-color="#FFF" offset="0%"/><stop stop-color="#FFF" offset="34.8%"/><stop stop-color="#939BA0" offset="56.2%"/><stop stop-color="#939BA0" offset="100%"/></linearGradient><linearGradient x1="-.001%" y1="50%" y2="50%" id="d"><stop stop-color="#FFF" offset="15.2%"/><stop stop-color="#FAFAFA" offset="21.2%"/><stop stop-color="#EBECED" offset="28.6%"/><stop stop-color="#D2D5D7" offset="36.7%"/><stop stop-color="#AFB5B8" offset="45.3%"/><stop stop-color="#939BA0" offset="51.1%"/></linearGradient><linearGradient x1=".002%" y1="50%" y2="50%" id="e"><stop stop-color="#FFF" offset="24.7%"/><stop stop-color="#FAFAFA" offset="33.7%"/><stop stop-color="#EBECED" offset="44.8%"/><stop stop-color="#D2D5D7" offset="57%"/><stop stop-color="#AFB5B9" offset="69.9%"/><stop stop-color="#939BA0" offset="78.6%"/></linearGradient><linearGradient x1="0%" y1="50.001%" y2="50.001%" id="f"><stop stop-color="#FFF" offset="19.7%"/><stop stop-color="#FAFBFB" offset="32.7%"/><stop stop-color="#EDEEEF" offset="47.3%"/><stop stop-color="#D7DADC" offset="62.6%"/><stop stop-color="#B8BDC0" offset="78.3%"/><stop stop-color="#939BA0" offset="93.3%"/></linearGradient><linearGradient x1="0%" y1="50%" y2="50%" id="g"><stop stop-color="#FFF" offset="24.7%"/><stop stop-color="#FAFAFA" offset="33.7%"/><stop stop-color="#EBECED" offset="44.8%"/><stop stop-color="#D2D5D7" offset="57%"/><stop stop-color="#AFB5B8" offset="69.9%"/><stop stop-color="#939BA0" offset="78.6%"/></linearGradient><linearGradient x1="0%" y1="50%" y2="50%" id="h"><stop stop-color="#FFF" offset="38.8%"/><stop stop-color="#FAFAFA" offset="46.7%"/><stop stop-color="#EBECED" offset="56.6%"/><stop stop-color="#D2D5D7" offset="67.3%"/><stop stop-color="#AFB5B8" offset="78.8%"/><stop stop-color="#939BA0" offset="86.5%"/></linearGradient></defs><g fill="none"><path d="M398.59 351.707v6.524h-1.687v-6.524h-1.955v-1.62h5.597v1.62h-1.954zm9.149 6.524v-4.807l-1.422 2.995h-1.49l-1.423-2.995v4.807h-1.687v-8.144h1.687l2.168 4.349 2.167-4.349h1.688v8.144h-1.688z" fill="#111"/><path d="M417.31 182.204c-10.8-3.722-27.938-12.37-27.944-19.73V98.526h-265.72l-.008 167.585c-.006 7.354-17.144 16.004-27.948 19.73L90 287.804l5.69 1.962c10.804 3.723 27.942 12.374 27.948 19.737l.008 49.003 133.119 78.45 132.6-78.472v-152.62c.007-7.354 17.145-16.008 27.945-19.737l5.69-1.962-5.69-1.96z" fill="#FFF"/><path d="M387.318 162.2v-61.863H125.692v165.49h-.007c-.009 11.584-29.35 21.688-29.35 21.688s29.341 10.11 29.35 21.696h.007v47.81l131.07 77.22 130.556-77.237v-151.42c.011-11.583 29.348-21.694 29.348-21.694s-29.337-10.106-29.348-21.69zm-17.626 181.88l-112.955 66.83-113.412-66.83V119.144h226.367v224.935z" fill="#010101"/><path d="M137.022 111.196l-.017 152.808c0 15.117-12.389 23.33-21.668 23.33 9.279 0 21.668 8.25 21.668 21.58l.017 40.268 6.947-5.368v-224.6h226.834l6.952-8.018H137.022z" fill="#BDBEBD"/><path d="M377.803 162.394v-51.198l-6.953 8.03V344.32l-113.195 66.878-113.652-66.877-6.949 5.383 120.618 70.965L377.803 349.7V207.406c0-15.15 12.393-23.388 21.67-23.388-9.277 0-21.67-8.261-21.67-21.623v-.001z" fill="#A2AAAD"/><path d="M259.778 336.874l14.441-4.869v-22.808l-13.357 4.5-1.084 23.177zm20.912-16.987l6.639-2.237v50.514l13.441-4.528V300.25l-20.08 6.765v12.872zm26.549-8.944l22.046-7.432-24.896 58.904 15.645-5.273 30.854-73.785-43.65 14.713v12.873zm-153.547-6.582v36.846l208.585-70.298v-36.847L153.692 304.36zm43.165 12.745l-7.372-2.86-7.377 7.834 2.818-9.604-7.377-2.859 9.116-3.072 2.82-9.598 2.818 7.697 9.108-3.068-7.374 7.83 2.82 7.7zm47.752-16.094l-7.377-2.864-7.37 7.833 2.816-9.597-7.372-2.864 9.113-3.069 2.813-9.601 2.818 7.701 9.119-3.07-7.372 7.828 2.812 7.703zm47.752-16.093l-7.372-2.862-7.372 7.833 2.813-9.599-7.372-2.864 9.113-3.073 2.818-9.599 2.817 7.704 9.114-3.074-7.377 7.832 2.818 7.702zm47.757-16.099l-7.377-2.857-7.377 7.827 2.823-9.596-7.372-2.858 9.11-3.075 2.816-9.597 2.818 7.698 9.116-3.07-7.372 7.833 2.815 7.695zm-148.263-47.776l-16.6-23.405-16.615 5.601v88.79l18.828-6.349v-50.433l15.604 22 2.639-5.55c2.616-5.497 7.59-15.86 11.735-24.484v48.364l18.829-6.344v-88.788l-17.819 6.004-16.601 34.594zm101.028 7.681l-37.19 12.535v-25.466l32.54-10.967v-18.032l-32.54 10.967v-9.226L292.883 176v-18.032l-56.016 18.88v88.787l56.016-18.879v-18.032zm7.56-73.279v18.032l20.919-7.049v70.758l18.828-6.349v-70.757l20.918-7.048v-18.031l-60.664 20.444zM234.73 162.826a3.38 3.38 0 0 0-3.382 3.378 3.382 3.382 0 0 0 3.382 3.378 3.38 3.38 0 0 0 0-6.756zm0 6.032a2.654 2.654 0 0 1-1.878-4.53 2.653 2.653 0 0 1 1.878-.776 2.654 2.654 0 1 1 0 5.306zm1.389-3.437a1.145 1.145 0 0 0-1.147-1.145h-1.63v3.857h.725v-1.566h.52l.731 1.565h.8l-.763-1.632a1.15 1.15 0 0 0 .764-1.08zm-1.147.422h-.905v-.844h.905a.423.423 0 0 1 0 .844zm-74.552-54.178c0 10.47-5.343 12.852-5.343 24.48 0 16.752 12.962 27.712 25.008 30.81 6.086 1.48 7.923 1.581 13.42 2.932.45.482 5.607 6.033 5.607 6.033l5.607-6.033c5.494-1.351 7.333-1.452 13.42-2.932 12.044-3.097 25.008-14.058 25.008-30.81 0-11.628-5.345-14.01-5.345-24.48 0-3.781.8-7.512 2.377-11.089l3.415-7.744-8.047-2.37c-2.453-.725-4.258-2.625-5.363-5.645l-3.557-9.724-7.931 6.562c-2.102 1.741-4.232 2.623-6.332 2.623-2.81 0-6.006-1.365-8.143-3.479l-5.11-5.051-5.109 5.051c-2.137 2.114-5.334 3.479-8.14 3.479-2.103 0-4.233-.882-6.336-2.623l-7.932-6.562-3.555 9.724c-1.102 3.02-2.908 4.92-5.363 5.645l-8.046 2.37 3.414 7.744c1.576 3.577 2.376 7.308 2.376 11.089z" fill="#010101"/><path d="M235.175 91.722c-2.876-.847-4.973-3.02-6.228-6.454l-2.914-7.973-6.496 5.375c-2.137 1.769-4.58 2.925-7.173 2.925-3.478 0-6.918-1.736-9.069-3.86l-4.183-4.136-4.183 4.136c-2.15 2.124-5.591 3.86-9.067 3.86-2.595 0-5.039-1.156-7.174-2.926l-6.496-5.374-2.915 7.973c-1.256 3.434-3.351 5.608-6.227 6.454l-6.611 1.95 2.81 6.374c1.415 3.21 2.487 7.158 2.487 11.619 0 10.889-5.343 13.051-5.343 24.48 0 3.485.593 6.745 1.657 9.743 3.602 10.161 12.617 17.287 22.365 19.793 6.237 1.575 9.144 1.731 13.794 3.03.606.637 4.903 5.277 4.903 5.277s4.297-4.64 4.903-5.277c4.65-1.299 7.555-1.455 13.797-3.03 12.62-3.246 24.019-14.237 24.019-29.537 0-5.507-1.244-8.863-2.528-12.082-1.382-3.458-2.817-6.755-2.817-12.397 0-4.461 1.073-8.408 2.489-11.62l2.81-6.374-6.61-1.95v.001z" fill="#FFF"/><path d="M164.572 114.825c-.88 8.68-5.177 12.16-5.177 21.32 0 11.238 7.705 23.033 21.767 26.586 6.681 1.69 11.295 2.12 14.688 3.341.436.41 3.262 3.47 3.262 3.47s2.823-3.06 3.259-3.47c3.397-1.222 8.009-1.652 14.69-3.34 14.062-3.554 21.766-15.349 21.766-26.588 0-10.202-5.334-13.355-5.334-24.5 0-8.687 4.15-16.026 4.15-16.026s-10.2-.89-12.964-13.28c0 0-6.116 6.296-12.315 6.296-7.993 0-13.252-6.79-13.252-6.79s-5.258 6.79-13.25 6.79c-6.203 0-12.319-6.295-12.319-6.295-2.764 12.389-12.963 13.279-12.963 13.279s4.15 7.338 4.15 16.027a31.552 31.552 0 0 1-.158 3.18z" fill="#010101"/><path d="M27.663 84.783c7.437 1.886 12.298 2.1 15.566 3.675 0 0 1.186 1.087 1.635 1.586.45-.5 1.639-1.586 1.639-1.586 3.262-1.575 8.125-1.79 15.563-3.675C71.455 82.4 81.58 74.135 81.58 61.144c0-9.29-5.336-12.7-5.336-24.5 0-7.95 3.01-14.08 3.01-14.08s-6.942-1.4-10.176-10.181c0 0-4.607 4.296-10.962 4.296-7.965 0-13.253-5.588-13.253-5.588s-5.289 5.589-13.25 5.589c-6.357 0-10.965-4.296-10.965-4.296-3.233 8.78-10.175 10.18-10.175 10.18s3.01 6.13 3.01 14.08c0 11.8-5.337 15.21-5.337 24.5 0 12.99 10.128 21.257 19.517 23.639h-.001z" fill="url(#a)" transform="translate(154.247 75)"/><path d="M182.083 156.3c.222.064.445.124.668.18 5.888 1.5 13.094 2.27 15.27 3.509.49.359 1.09.996 1.09.996s.6-.637 1.09-.996c2.177-1.239 9.382-2.01 15.272-3.508 8.162-2.074 16.95-9.317 16.95-20.337 0-5.492-2.411-9.106-3.994-14.625L182.083 156.3zm-15.668-24.894l48.686-36.536c-.905.142-1.82.214-2.738.215-5.948 0-10.593-2.595-13.251-4.546-2.658 1.95-7.304 4.546-13.25 4.546-3.926 0-7.269-1.329-9.624-2.645-2.194 3.656-4.944 5.782-7.136 6.983.94 2.818 2.037 7.175 2.037 12.222 0 9.71-3.32 14.264-4.724 19.761zm11.355 23.18l49.726-37.317a36.865 36.865 0 0 1-.411-5.624c0-5.047 1.093-9.403 2.036-12.222-1.878-1.028-4.165-2.736-6.16-5.5l-57.147 42.887c.272 8.434 5.725 14.578 11.956 17.775z" fill="#010101"/><path d="M187.038 136.845l-5.34-8.172-5.927 4.45s2.075.057 2.075 2.231v15.388l4.185-3.14v-10.88l4.77 7.298 4.42-3.316v-19.175l-4.183 3.137v12.179zm16.964-17.821l-4.72 3.54v-7.087l-6.373 4.784s2.074.058 2.074 2.233v15.386l4.299-3.226v-7.012l4.72-3.541v7.014l4.092-3.072v-19.177l-4.092 3.074v7.084zm11.96-1.781V102.96l-6.375 4.784s2.075.058 2.075 2.23v15.39l11.868-8.908c-.256-3.068 0-4.892 0-4.892l-7.568 5.678z" fill="#D1D3D3"/><path d="M159.395 136.144c0-9.16 4.297-12.64 5.178-21.319-1.209 7.604-6.252 13.837-6.252 21.32 0 2.875.398 5.498 1.115 7.88 3.17 10.534 12.596 16.395 21.726 18.707-14.062-3.554-21.767-15.349-21.767-26.588zm77.68-12.01c-1.71-4.144-3.582-7.888-3.582-12.49 0 11.145 5.334 14.298 5.334 24.5 0 11.239-7.704 23.034-21.767 26.587 12.683-3.204 22.765-12.485 22.765-26.587 0-4.78-1.318-8.535-2.75-12.01z" fill="#FFF"/><path d="M235.175 91.722c-2.876-.847-4.973-3.02-6.228-6.454l-2.914-7.973-1.353 5.044c2.764 12.389 12.963 13.279 12.963 13.279l4.142-1.947-6.61-1.95v.001z" fill="#D1D3D3"/><path d="M7.488 36.665c0 10.889-5.342 13.051-5.342 24.48 0 3.485.592 6.745 1.657 9.743a6.306 6.306 0 0 1 1.386-1.863c-.718-2.382-1.115-5.005-1.115-7.88 0-7.483 5.042-13.716 6.25-21.32.1-.989.16-2.04.16-3.18 0-8.688-4.151-16.027-4.151-16.027L2.192 18.67 5 25.046c1.416 3.21 2.488 7.158 2.488 11.619z" fill="url(#b)" transform="translate(154.247 75)"/><path d="M79.246 36.645c0 4.601 1.872 8.345 3.581 12.489l2.228-.072c-1.382-3.458-2.817-6.755-2.817-12.397 0-4.461 1.073-8.408 2.489-11.62l2.81-6.374-4.141 1.947s-4.15 7.338-4.15 16.027z" fill="url(#c)" transform="translate(154.247 75)"/><path d="M41.603 91.072c-3.393-1.222-8.007-1.652-14.688-3.34-9.13-2.313-18.557-8.174-21.726-18.707a6.305 6.305 0 0 0-1.386 1.863C7.405 81.049 16.42 88.175 26.167 90.68c6.237 1.575 9.144 1.731 13.794 3.03.607.637 4.903 5.277 4.903 5.277v-4.445s-2.825-3.062-3.26-3.47z" fill="url(#d)" transform="translate(154.247 75)"/><path d="M31.614 13.634c7.992 0 13.25-6.79 13.25-6.79V2.6l-4.183 4.136c-2.15 2.124-5.591 3.86-9.067 3.86-2.595 0-5.038-1.156-7.174-2.925l-6.496-5.375 1.352 5.044s6.117 6.295 12.318 6.295z" fill="url(#e)" transform="translate(154.247 75)"/><path d="M85.578 61.144c0 14.102-10.082 23.383-22.765 26.587-6.68 1.69-11.292 2.12-14.69 3.341-.435.41-3.259 3.47-3.259 3.47v4.446s4.297-4.64 4.903-5.277c4.65-1.299 7.555-1.455 13.797-3.03 12.62-3.246 24.019-14.237 24.019-29.537 0-5.507-1.244-8.863-2.528-12.082l-2.228.072c1.432 3.475 2.75 7.23 2.75 12.01z" fill="url(#f)" transform="translate(154.247 75)"/><path d="M58.117 13.634c6.2 0 12.315-6.295 12.315-6.295l1.353-5.044L65.29 7.67c-2.137 1.769-4.58 2.925-7.172 2.925-3.479 0-6.92-1.736-9.07-3.86l-4.183-4.136v4.246s5.26 6.789 13.252 6.789z" fill="url(#g)" transform="translate(154.247 75)"/><path d="M19.296 7.339l-1.352-5.044-2.915 7.973c-1.256 3.434-3.35 5.608-6.227 6.454l-6.61 1.95 4.14 1.946s10.2-.89 12.964-13.28z" fill="url(#h)" transform="translate(154.247 75)"/></g></svg>