<?xml version="1.0" encoding="UTF-8"?>
<svg width="512px" height="512px" viewBox="0 0 512 512" version="1.1" xmlns="http://www.w3.org/2000/svg" xmlns:xlink="http://www.w3.org/1999/xlink">
    <!-- Generator: Sketch 42 (36781) - http://www.bohemiancoding.com/sketch -->
    <title>metropolitan</title>
    <desc>Created with Sketch.</desc>
    <defs>
        <linearGradient x1="83.1743864%" y1="89.7272241%" x2="16.8831567%" y2="1.72865038%" id="linearGradient-1">
            <stop stop-color="#939BA0" offset="0%"></stop>
            <stop stop-color="#98A0A4" offset="1.2%"></stop>
            <stop stop-color="#C1C5C7" offset="11.8%"></stop>
            <stop stop-color="#DADCDD" offset="20.2%"></stop>
            <stop stop-color="#E3E4E5" offset="25.3%"></stop>
            <stop stop-color="#E3E4E5" offset="75.3%"></stop>
            <stop stop-color="#DBDDDE" offset="80.1%"></stop>
            <stop stop-color="#C5C9CB" offset="87.5%"></stop>
            <stop stop-color="#A2A9AD" offset="96.6%"></stop>
            <stop stop-color="#939BA0" offset="100%"></stop>
        </linearGradient>
        <linearGradient x1="-9.73183593%" y1="50.0006918%" x2="118.559081%" y2="50.0006918%" id="linearGradient-2">
            <stop stop-color="#FFFFFF" offset="11.2%"></stop>
            <stop stop-color="#DCDEE0" offset="23.7%"></stop>
            <stop stop-color="#A7AEB2" offset="44%"></stop>
            <stop stop-color="#939BA0" offset="53.9%"></stop>
        </linearGradient>
        <linearGradient x1="50.0033979%" y1="100%" x2="50.0033979%" y2="0%" id="linearGradient-3">
            <stop stop-color="#FFFFFF" offset="0%"></stop>
            <stop stop-color="#FFFFFF" offset="34.8%"></stop>
            <stop stop-color="#939BA0" offset="56.2%"></stop>
            <stop stop-color="#939BA0" offset="100%"></stop>
        </linearGradient>
        <linearGradient x1="-0.00137215621%" y1="50%" x2="100%" y2="50%" id="linearGradient-4">
            <stop stop-color="#FFFFFF" offset="15.2%"></stop>
            <stop stop-color="#FAFAFA" offset="21.2%"></stop>
            <stop stop-color="#EBECED" offset="28.6%"></stop>
            <stop stop-color="#D2D5D7" offset="36.7%"></stop>
            <stop stop-color="#AFB5B8" offset="45.3%"></stop>
            <stop stop-color="#939BA0" offset="51.1%"></stop>
        </linearGradient>
        <linearGradient x1="0.00209292591%" y1="50%" x2="100%" y2="50%" id="linearGradient-5">
            <stop stop-color="#FFFFFF" offset="24.7%"></stop>
            <stop stop-color="#FAFAFA" offset="33.7%"></stop>
            <stop stop-color="#EBECED" offset="44.8%"></stop>
            <stop stop-color="#D2D5D7" offset="57%"></stop>
            <stop stop-color="#AFB5B9" offset="69.9%"></stop>
            <stop stop-color="#939BA0" offset="78.6%"></stop>
        </linearGradient>
        <linearGradient x1="0%" y1="50.0005639%" x2="100%" y2="50.0005639%" id="linearGradient-6">
            <stop stop-color="#FFFFFF" offset="19.7%"></stop>
            <stop stop-color="#FAFBFB" offset="32.7%"></stop>
            <stop stop-color="#EDEEEF" offset="47.3%"></stop>
            <stop stop-color="#D7DADC" offset="62.6%"></stop>
            <stop stop-color="#B8BDC0" offset="78.3%"></stop>
            <stop stop-color="#939BA0" offset="93.3%"></stop>
        </linearGradient>
        <linearGradient x1="0%" y1="50%" x2="100%" y2="50%" id="linearGradient-7">
            <stop stop-color="#FFFFFF" offset="24.7%"></stop>
            <stop stop-color="#FAFAFA" offset="33.7%"></stop>
            <stop stop-color="#EBECED" offset="44.8%"></stop>
            <stop stop-color="#D2D5D7" offset="57%"></stop>
            <stop stop-color="#AFB5B8" offset="69.9%"></stop>
            <stop stop-color="#939BA0" offset="78.6%"></stop>
        </linearGradient>
        <linearGradient x1="0%" y1="50%" x2="100%" y2="50%" id="linearGradient-8">
            <stop stop-color="#FFFFFF" offset="38.8%"></stop>
            <stop stop-color="#FAFAFA" offset="46.7%"></stop>
            <stop stop-color="#EBECED" offset="56.6%"></stop>
            <stop stop-color="#D2D5D7" offset="67.3%"></stop>
            <stop stop-color="#AFB5B8" offset="78.8%"></stop>
            <stop stop-color="#939BA0" offset="86.5%"></stop>
        </linearGradient>
    </defs>
    <g id="NHL" stroke="none" stroke-width="1" fill="none" fill-rule="evenodd">
        <g id="metropolitan" fill-rule="nonzero">
            <g id="met" transform="translate(90.000000, 75.000000)">
                <path d="M308.590915,276.707265 L308.590915,283.230978 L306.902669,283.230978 L306.902669,276.707265 L304.94837,276.707265 L304.94837,275.086957 L310.545215,275.086957 L310.545215,276.707265 L308.590915,276.707265 Z M317.738956,283.230978 L317.738956,278.424119 L316.317336,281.418682 L314.826062,281.418682 L313.404441,278.424119 L313.404441,283.230978 L311.716767,283.230978 L311.716767,275.086957 L313.404441,275.086957 L315.571699,279.435915 L317.738956,275.086957 L319.42663,275.086957 L319.42663,283.230978 L317.738956,283.230978 L317.738956,283.230978 Z" id="Shape" fill="#111111"></path>
                <path d="M327.310243,107.204396 C316.510106,103.482239 299.37244,94.8339962 299.365658,87.4734526 L299.365658,23.5271739 L33.6456474,23.5271739 L33.6377339,191.111989 C33.6320815,198.46574 16.4938511,207.116247 5.69032209,210.842366 L0,212.804197 L5.69088733,214.766027 C16.4938511,218.489317 33.6320815,227.140389 33.6377339,234.503197 L33.6456474,283.505942 L166.764817,361.956522 L299.365658,283.483867 L299.365658,130.863529 C299.37244,123.509777 316.50954,114.856441 327.310243,111.127491 L333,109.164528 L327.310243,107.204396 L327.310243,107.204396 Z" id="Shape" fill="#FFFFFF"></path>
                <path d="M297.318264,87.2000382 L297.318264,25.3369565 L35.692478,25.3369565 L35.692478,190.826982 L35.6845631,190.826982 C35.6760828,202.410888 6.33423913,212.515395 6.33423913,212.515395 C6.33423913,212.515395 35.6760828,222.625562 35.6845631,234.210599 L35.692478,234.210599 L35.692478,282.021658 L166.761759,359.241848 L297.318264,282.003548 L297.318264,130.583089 C297.329005,119.000881 326.665761,108.890149 326.665761,108.890149 C326.665761,108.890149 297.329005,98.7839439 297.318264,87.2000382 L297.318264,87.2000382 Z M279.691674,269.079468 L166.736883,335.911042 L53.3247212,269.080034 L53.3247212,44.1435416 L279.691674,44.1435416 L279.691674,269.079468 L279.691674,269.079468 Z" id="Shape" fill="#010101"></path>
                <path d="M47.021564,36.1956522 L47.0045685,189.004025 C47.0045685,204.120642 34.615954,212.33391 25.3369565,212.33391 C34.615954,212.33391 47.005135,220.583909 47.005135,233.914223 L47.021564,274.182065 L53.9693401,268.813547 L53.9693401,44.2133929 L280.80256,44.2133929 L287.755435,36.1956522 L47.021564,36.1956522 Z" id="Shape" fill="#BDBEBD"></path>
                <path d="M287.803291,87.3939659 L287.803291,36.1956522 L280.849981,44.2264493 L280.849981,269.319271 L167.655441,336.197461 L54.0025589,269.319837 L47.0543478,274.702963 L167.672437,345.668478 L287.803291,274.699565 L287.803291,132.405508 C287.803291,117.255732 300.19608,109.017652 309.472826,109.017652 C300.19608,109.017652 287.803291,100.756918 287.803291,87.3945322 L287.803291,87.3939659 Z" id="Shape" fill="#A2AAAD"></path>
                <g id="Group" transform="translate(63.342391, 59.722826)" fill="#010101">
                    <path d="M106.435302,202.151486 L120.877058,197.282137 L120.877058,174.474656 L107.519538,178.97431 L106.435302,202.151486 Z M127.347354,185.164161 L133.986461,182.92677 L133.986461,233.441041 L147.427819,228.913123 L147.427819,165.526788 L127.347354,172.292097 L127.347354,185.164161 Z M153.896416,176.219685 L175.942555,168.787907 L151.047039,227.692111 L166.691425,222.419149 L197.54571,148.633866 L153.896416,163.347622 L153.896416,176.219685 Z M0.349516106,169.638093 L0.349516106,206.483816 L208.934157,136.18633 L208.934157,99.3389104 L0.349516106,169.637528 L0.349516106,169.638093 Z M43.5150384,182.382968 L36.142911,179.523765 L28.7656853,187.356894 L31.5839067,177.752733 L24.2066811,174.894661 L33.3224236,171.822347 L36.1434775,162.223839 L38.9605659,169.9213 L48.0689443,166.852943 L40.694551,174.68268 L43.5150384,182.382968 L43.5150384,182.382968 Z M91.2667558,166.289355 L83.8895301,163.425631 L76.5202351,171.258195 L79.3356241,161.660817 L71.9634968,158.797657 L81.0769734,155.72817 L83.8895301,146.126835 L86.707185,153.828253 L95.8263265,150.758765 L88.4541991,158.585676 L91.2667558,166.28879 L91.2667558,166.289355 Z M139.018473,150.195743 L131.646346,147.334279 L124.274785,155.166843 L127.087342,145.568335 L119.715781,142.70461 L128.828691,139.631165 L131.646346,130.032657 L134.464001,137.735771 L143.577477,134.661761 L136.200818,142.494325 L139.018473,150.195743 L139.018473,150.195743 Z M186.775855,134.097608 L179.39863,131.240102 L172.021404,139.067013 L174.844724,129.471331 L167.472596,126.613259 L176.583241,123.538118 L179.39863,113.94074 L182.216285,121.638767 L191.332594,118.569279 L183.960466,126.401843 L186.775855,134.097608 L186.775855,134.097608 Z" id="Shape"></path>
                    <path d="M38.5124829,86.3210039 L21.9118841,62.9165841 L5.29712334,68.5174099 L5.29712334,157.30644 L24.1256749,150.95831 L24.1256749,100.524875 L39.7292748,122.525131 L42.3684896,116.975746 C44.9850453,111.478367 49.959277,101.114465 54.1036203,92.4916352 L54.1036203,140.855004 L72.9321719,134.51083 L72.9321719,45.7229306 L55.1136482,51.7268034 L38.5124829,86.3210039 L38.5124829,86.3210039 Z M139.540198,94.0026371 L102.350438,106.537227 L102.350438,81.0712189 L134.890558,70.1041598 L134.890558,52.0721914 L102.350438,63.0392505 L102.350438,53.8126983 L139.540765,41.2781089 L139.540765,23.2461405 L83.5247191,42.1254684 L83.5247191,130.913368 L139.540765,112.034606 L139.540198,94.0026371 Z M147.101529,20.7232817 L147.101529,38.7552501 L168.019246,31.7061687 L168.019246,102.463796 L186.847231,96.1156657 L186.847231,25.3586038 L207.766082,18.3100877 L207.766082,0.278684612 L147.101529,20.7232817 Z" id="Shape"></path>
                </g>
                <g id="Group" transform="translate(64.247283, 0.000000)">
                    <path d="M80.4827058,87.8257739 C78.6155042,87.8257738 77.1016638,89.3380907 77.1010416,91.2040348 C77.1010416,93.0682717 78.6160858,94.5822957 80.4827058,94.5822957 C82.3256689,94.5486692 83.8020841,93.0460638 83.8020841,91.2040348 C83.8020841,89.3620058 82.3256689,87.8594004 80.4827058,87.8257739 Z M80.4827058,93.8576587 C79.7782634,93.8582569 79.1025011,93.5788716 78.6043849,93.0810909 C78.1062687,92.5833101 77.8266951,91.9080028 77.8272937,91.2040348 C77.8268443,90.5002676 78.1065199,89.8252205 78.6046524,89.3277403 C79.1027849,88.8302601 79.7784648,88.5512028 80.4827058,88.5521 C81.1868034,88.5515021 81.8622514,88.8306736 82.3602294,89.3281051 C82.8582075,89.8255366 83.1378538,90.5004111 83.1375545,91.2040348 C83.1380031,91.9078594 82.8584587,92.5829942 82.360497,93.0807262 C81.8625352,93.5784583 81.1870048,93.8579577 80.4827058,93.8576587 L80.4827058,93.8576587 Z M81.8715432,90.4208413 C81.8713939,90.1170097 81.7504341,89.8256897 81.5352894,89.6110068 C81.3201448,89.3963238 81.0284505,89.2758751 80.7244142,89.2761739 L79.0955587,89.2761739 L79.0955587,93.1330217 L79.8195571,93.1330217 L79.8195571,91.5666348 L80.339033,91.5666348 L81.0709193,93.1324587 L81.8715432,93.1324587 L81.1081052,91.4996326 C81.5650123,91.3372202 81.8705567,90.9054647 81.8715432,90.4208413 L81.8715432,90.4208413 Z M80.7244142,90.8425609 L79.8195571,90.8425609 L79.8195571,89.9985587 L80.7244142,89.9985587 C80.9571079,89.9985587 81.1469814,90.1877413 81.1469814,90.4208413 C81.146361,90.653713 80.9574435,90.8422516 80.7244142,90.8425609 Z M6.17229773,36.6648283 C6.17229773,47.1351848 0.829921913,49.5174217 0.829921913,61.1442696 C0.829921913,77.8970652 13.7920289,88.8572696 25.8374468,91.9545717 C31.9235408,93.4353761 33.7608628,93.5361609 39.2570531,94.8869022 C39.7077914,95.3694304 44.8642377,100.919913 44.8642377,100.919913 C44.8642377,100.919913 50.0212474,95.3694304 50.4714223,94.8869022 C55.9659223,93.5355978 57.8049346,93.4353761 63.8910286,91.9545717 C75.9353197,88.8578326 88.8996803,77.8970652 88.8996803,61.1442696 C88.8996803,49.5174217 83.5550508,47.1351848 83.5550508,36.6648283 C83.5550508,32.8839913 84.3551113,29.1527022 85.932132,25.57625 L89.3470381,17.83215 L81.299669,15.461737 C78.8465257,14.736537 77.0418822,12.8368283 75.9364465,9.81722609 L72.3801213,0.0934652174 L64.4482538,6.65517391 C62.3466865,8.39610435 60.216948,9.27783043 58.1165074,9.27783043 C55.3072809,9.27783043 52.1109829,7.91301304 49.9733564,5.79934783 L44.8642377,0.747721739 L39.7551189,5.79934783 C37.6174925,7.91301304 34.4206311,9.27783043 31.6142216,9.27783043 C29.5115274,9.27783043 27.3812255,8.3955413 25.2790947,6.65517391 L17.3466639,0.0934652174 L13.7920289,9.81722609 C12.6894103,12.8368283 10.8836399,14.736537 8.42824298,15.461737 L0.382564141,17.83215 L3.79690684,25.57625 C5.37280066,29.1527022 6.17229773,32.8839913 6.17229773,36.6648283 L6.17229773,36.6648283 Z" id="Shape" fill="#010101"></path>
                    <path d="M80.9272465,16.7223913 C78.051536,15.8750109 75.9550395,13.7022261 74.6997333,10.2682239 L71.7857101,2.29496522 L65.2900076,7.66977826 C63.1523812,9.43886087 60.7105064,10.5947891 58.1170709,10.5947891 C54.6390614,10.5947891 51.1982378,8.85948913 49.0482161,6.73456304 L44.8648011,2.5990087 L40.6813862,6.73456304 C38.530801,8.85948913 35.0905409,10.5947891 31.6147851,10.5947891 C29.0196592,10.5947891 26.5760942,9.43886087 24.4407214,7.66921522 L17.9444555,2.29496522 L15.0298689,10.2676609 C13.7734359,13.7022261 11.6786296,15.8755739 8.8029192,16.7223913 L2.19171503,18.6710848 L5.00094155,25.045863 C6.41682327,28.2569 7.48901702,32.2038348 7.48901702,36.6648283 C7.48901702,47.5535261 2.14607778,49.7161761 2.14607778,61.1442696 C2.14607778,64.6295087 2.73879866,67.8895304 3.80310449,70.887737 C7.40506701,81.0489826 16.4192698,88.1748609 26.1676126,90.6809674 C32.404704,92.256363 35.3119661,92.4123261 39.9618951,93.7107043 C40.5681382,94.3480696 44.8648011,98.9881109 44.8648011,98.9881109 C44.8648011,98.9881109 49.1614641,94.3480696 49.7677071,93.7107043 C54.4181996,92.4123261 57.3226446,92.256363 63.5648068,90.6815304 C76.1837892,87.4350217 87.5835245,76.444413 87.5835245,61.1442696 C87.5835245,55.6371413 86.3400501,52.2808391 85.0560094,49.0624826 C83.673933,45.6042696 82.2388949,42.307087 82.2388949,36.6648283 C82.2388949,32.2038348 83.3116521,28.2569 84.7275338,25.045863 L87.5373238,18.6710848 L80.9283733,16.7218283 L80.9272465,16.7223913 Z" id="Shape" fill="#FFFFFF"></path>
                    <path d="M10.3247244,39.8251913 C9.44522129,48.5045065 5.1474315,51.9846783 5.1474315,61.1442696 C5.1474315,72.3826174 12.8528029,84.1778152 26.9147113,87.7311826 C33.5957799,89.420313 38.20965,89.8504783 41.603146,91.0722826 C42.0386719,91.4810522 44.8642377,94.5428826 44.8642377,94.5428826 C44.8642377,94.5428826 47.6881132,91.4810522 48.1236391,91.0722826 C51.5205157,89.8504783 56.1326954,89.420313 62.8132006,87.7317457 C76.8756725,84.1778152 84.579917,72.3831804 84.579917,61.1442696 C84.579917,50.9424848 79.2459926,47.7894413 79.2459926,36.6445587 C79.2459926,27.9567978 83.3956021,20.6175261 83.3956021,20.6175261 C83.3956021,20.6175261 73.196521,19.7279174 70.4318049,7.3387087 C70.4318049,7.3387087 64.3158495,13.6335348 58.1165074,13.6335348 C50.1237904,13.6335348 44.8642377,6.84491957 44.8642377,6.84491957 C44.8642377,6.84491957 39.6063753,13.6335348 31.6142216,13.6335348 C25.4120625,13.6335348 19.2961071,7.3387087 19.2961071,7.3387087 C16.5319544,19.7279174 6.33230983,20.6175261 6.33230983,20.6175261 C6.33230983,20.6175261 10.4836097,27.9562348 10.4836097,36.6445587 C10.4839685,37.7069466 10.43094,38.7686822 10.3247244,39.8257543 L10.3247244,39.8251913 Z" id="Shape" fill="#010101"></path>
                    <path d="M27.6629369,84.7825239 C35.1001191,86.6687196 39.9613317,86.8832391 43.2286211,88.4580717 C43.2286211,88.4580717 44.4151897,89.5447457 44.8642377,90.0441652 C45.3144126,89.5447457 46.5026715,88.4580717 46.5026715,88.4580717 C49.7654534,86.8832391 54.6283563,86.6687196 62.0655385,84.7825239 C71.4549809,82.40085 81.5813804,74.1348087 81.5813804,61.1442696 C81.5813804,51.8534891 76.2446388,48.4431348 76.2446388,36.6445587 C76.2446388,28.6932587 79.2544439,22.5639674 79.2544439,22.5639674 C79.2544439,22.5639674 72.3130739,21.1631152 69.0790266,12.3830152 C69.0790266,12.3830152 64.4719176,16.679037 58.1165074,16.679037 C50.1519615,16.679037 44.8642377,11.0913935 44.8642377,11.0913935 C44.8642377,11.0913935 39.575387,16.6796 31.6142216,16.6796 C25.2565578,16.6796 20.6488854,12.3835783 20.6488854,12.3835783 C17.4159649,21.1631152 10.4740315,22.5639674 10.4740315,22.5639674 C10.4740315,22.5639674 13.4838365,28.6932587 13.4838365,36.6445587 C13.4838365,48.4431348 8.14653153,51.8534891 8.14653153,61.1442696 C8.14653153,74.1348087 18.2746214,82.401413 27.6635004,84.7825239 L27.6629369,84.7825239 Z" id="Shape" fill="url(#linearGradient-1)"></path>
                    <g transform="translate(11.268458, 15.202174)" id="Shape" fill="#010101">
                        <path d="M16.5668866,66.0979261 C16.7894386,66.16155 17.0119907,66.2217957 17.2351061,66.278663 C23.1234387,67.7769217 30.329054,68.5482913 32.5055567,69.7864239 C32.9957346,70.1456457 33.5957799,70.7830109 33.5957799,70.7830109 C33.5957799,70.7830109 34.1952619,70.1456457 34.6860032,69.7864239 C36.8625058,68.5482913 44.0669943,67.7769217 49.9570172,66.278663 C58.1187611,64.2049739 66.9064679,56.9619826 66.9064679,45.9415326 C66.9064679,40.4501696 64.4961448,36.8359935 62.9134899,31.3170413 L16.5668866,66.0979261 Z M0.899222929,41.2040848 L49.5857215,4.66819348 C48.6798605,4.8100106 47.7643954,4.88173021 46.8474863,4.88271304 C40.8988674,4.88271304 36.2540091,2.28764565 33.5957799,0.337263043 C30.9386776,2.28764565 26.2921291,4.88271304 20.3457639,4.88271304 C16.4198332,4.88271304 13.0776086,3.55393043 10.722501,2.23753478 C8.52796883,5.89393913 5.77790171,8.01942826 3.58618668,9.2204 C4.5271029,12.0389957 5.62352384,16.3958261 5.62352384,21.4423848 C5.62352384,31.1537587 2.30327276,35.7065283 0.899222929,41.2040848 L0.899222929,41.2040848 Z M12.2538844,64.3828957 L61.9804616,27.0671891 C61.7229773,25.3910087 61.5691629,23.5357804 61.5691629,21.4423848 C61.5691629,16.3958261 62.6622033,12.0395587 63.6053732,9.2204 C61.7269213,8.19284565 59.4399878,6.48513478 57.4460342,3.72002826 L0.298050708,46.607613 C0.570747385,55.0420043 6.02299067,61.1859348 12.2538844,64.3828957 L12.2538844,64.3828957 Z"></path>
                    </g>
                    <g transform="translate(21.410070, 27.589130)" id="Shape" fill="#D1D3D3">
                        <path d="M11.3811423,34.2555652 L6.04158362,26.0841152 L0.113248,30.5338478 C0.113248,30.5338478 2.18889792,30.5912783 2.18889792,32.7651891 L2.18889792,48.1531674 L6.37400313,45.0125109 L6.37400313,34.1328217 L11.1433779,41.4309913 L15.5634304,38.1146652 L15.5634304,18.9396565 L11.3811423,22.0769348 L11.3811423,34.2555652 L11.3811423,34.2555652 Z M28.3446786,16.4346761 L23.6237583,19.9756565 L23.6237583,12.8880652 L17.2514454,17.6716826 C17.2514454,17.6716826 19.325405,17.7296761 19.325405,19.904713 L19.325405,35.2910022 L23.6243217,32.064763 L23.6243217,25.0531826 L28.3446786,21.5116391 L28.3446786,28.5254717 L32.4362556,25.4540696 L32.4362556,6.2768087 L28.3446786,9.35046304 L28.3446786,16.4352391 L28.3446786,16.4346761 Z M40.3050197,14.6537696 L40.3050197,0.372171739 L33.9298897,5.15635217 C33.9298897,5.15635217 36.0049762,5.21378261 36.0049762,7.38656739 L36.0049762,22.7756717 L47.8729159,13.8683239 C47.6171219,10.799737 47.8729159,8.97547609 47.8729159,8.97547609 L40.3050197,14.6537696 L40.3050197,14.6537696 Z"></path>
                    </g>
                    <g transform="translate(3.943960, 36.597826)" id="Shape" fill="#FFFFFF">
                        <path d="M1.20347129,24.5464435 C1.20347129,15.3868522 5.50069765,11.9066804 6.38132763,3.22736522 C5.17278553,10.8312674 0.129587264,17.0641587 0.129587264,24.5464435 C0.129587264,27.4224696 0.527363823,30.0451261 1.24516458,32.427363 C4.41441832,42.9607804 13.8404832,48.822063 22.9707511,51.1339196 C8.9088427,47.5799891 1.20347129,35.7853543 1.20347129,24.5464435 Z M78.8831482,12.536163 C77.1742866,8.39216304 75.3020324,4.64848696 75.3020324,0.0467326087 C75.3020324,11.1916152 80.6359568,14.3446587 80.6359568,24.5464435 C80.6359568,35.7847913 72.9317123,47.5799891 58.8692404,51.1333565 C71.5518896,47.9296391 81.6337788,38.6478674 81.6337788,24.5464435 C81.6337788,19.7667674 80.3153692,16.0107043 78.8831482,12.5367261 L78.8831482,12.536163 Z"></path>
                    </g>
                    <path d="M80.9272465,16.7223913 C78.051536,15.8750109 75.9550395,13.7022261 74.6997333,10.2682239 L71.7857101,2.29496522 L70.4329318,7.3387087 C73.1970844,19.7279174 83.3961656,20.6175261 83.3961656,20.6175261 L87.5373238,18.6710848 L80.9283733,16.7218283 L80.9272465,16.7223913 Z" id="Shape" fill="#D1D3D3"></path>
                    <path d="M7.4884536,36.6648283 C7.4884536,47.5535261 2.14551436,49.7161761 2.14551436,61.1442696 C2.14551436,64.6295087 2.73823523,67.8895304 3.80254107,70.887737 C4.14524687,70.1865345 4.61521303,69.5549893 5.18856137,69.0251891 C4.47132404,66.6429522 4.07354748,64.0197326 4.07354748,61.1442696 C4.07354748,53.6619848 9.11618232,47.4285304 10.3247244,39.8251913 C10.4238868,38.836487 10.4836097,37.7847217 10.4836097,36.6445587 C10.4836097,27.9567978 6.33287326,20.6175261 6.33287326,20.6175261 L2.19171503,18.6710848 L5.00037813,25.045863 C6.41625984,28.2569 7.4884536,32.2038348 7.4884536,36.6648283 L7.4884536,36.6648283 Z" id="Shape" fill="url(#linearGradient-2)"></path>
                    <path d="M79.2459926,36.6445587 C79.2459926,41.246313 81.1182468,44.9899891 82.8271084,49.1339891 L85.055446,49.0624826 C83.6733696,45.6042696 82.2383315,42.307087 82.2383315,36.6648283 C82.2383315,32.2038348 83.3110887,28.2569 84.7269704,25.045863 L87.5367604,18.6710848 L83.3956021,20.6175261 C83.3956021,20.6175261 79.2459926,27.9562348 79.2459926,36.6445587 L79.2459926,36.6445587 Z" id="Shape" fill="url(#linearGradient-3)"></path>
                    <path d="M41.603146,91.0722826 C38.20965,89.8504783 33.5963434,89.420313 26.9147113,87.7317457 C17.7844434,85.4193261 8.35837854,79.5580435 5.18912479,69.0251891 C4.61575694,69.5549718 4.1457879,70.1865209 3.80310449,70.887737 C7.40450359,81.0489826 16.4192698,88.1748609 26.1670492,90.6809674 C32.4041405,92.256363 35.3114026,92.4123261 39.9613317,93.7107043 C40.5675748,94.3480696 44.8642377,98.9881109 44.8642377,98.9881109 L44.8642377,94.5428826 C44.8642377,94.5428826 42.0386719,91.4810522 41.603146,91.0728457 L41.603146,91.0722826 Z" id="Shape" fill="url(#linearGradient-4)"></path>
                    <path d="M31.6142216,13.6335348 C39.6063753,13.6335348 44.8642377,6.84491957 44.8642377,6.84491957 L44.8642377,2.5990087 L40.6808228,6.73456304 C38.5302376,8.85948913 35.0899774,10.5947891 31.6142216,10.5947891 C29.0190958,10.5947891 26.5755308,9.43886087 24.440158,7.66977826 L17.9438921,2.29496522 L19.2961071,7.3387087 C19.2961071,7.3387087 25.4126259,13.6335348 31.6142216,13.6335348 Z" id="Shape" fill="url(#linearGradient-5)"></path>
                    <path d="M85.577739,61.1442696 C85.577739,75.2456935 75.4958498,84.5274652 62.8132006,87.7311826 C56.1326954,89.420313 51.5205157,89.8504783 48.1236391,91.0722826 C47.6881132,91.4810522 44.8642377,94.5428826 44.8642377,94.5428826 L44.8642377,98.9881109 C44.8642377,98.9881109 49.1609006,94.3475065 49.7671437,93.7107043 C54.4176362,92.4123261 57.3220812,92.256363 63.5642433,90.6809674 C76.1832257,87.4350217 87.582961,76.444413 87.582961,61.1437065 C87.582961,55.6371413 86.3394867,52.2808391 85.055446,49.0624826 L82.8271084,49.1339891 C84.2593294,52.6085304 85.577739,56.3645935 85.577739,61.1437065 L85.577739,61.1442696 Z" id="Shape" fill="url(#linearGradient-6)"></path>
                    <path d="M58.1165074,13.6335348 C64.3164129,13.6335348 70.4318049,7.3387087 70.4318049,7.3387087 L71.7851467,2.29496522 L65.2894442,7.66977826 C63.1518178,9.43886087 60.7093796,10.5947891 58.1165074,10.5947891 C54.6384979,10.5947891 51.1976744,8.85948913 49.0476526,6.73456304 L44.8642377,2.5990087 L44.8642377,6.84491957 C44.8642377,6.84491957 50.1243538,13.6335348 58.115944,13.6335348 L58.1165074,13.6335348 Z" id="Shape" fill="url(#linearGradient-7)"></path>
                    <path d="M19.2961071,7.3387087 L17.9438921,2.29496522 L15.0293055,10.2676609 C13.7728725,13.7022261 11.6780662,15.8755739 8.80235577,16.7223913 L2.19115161,18.6710848 L6.33230983,20.6175261 C6.33230983,20.6175261 16.5319544,19.7279174 19.2961071,7.3387087 L19.2961071,7.3387087 Z" id="Shape" fill="url(#linearGradient-8)"></path>
                </g>
            </g>
        </g>
    </g>
</svg>