<?xml version="1.0" encoding="UTF-8"?>
<svg width="512px" height="512px" viewBox="0 0 512 512" version="1.1" xmlns="http://www.w3.org/2000/svg" xmlns:xlink="http://www.w3.org/1999/xlink">
    <!-- Generator: Sketch 41.2 (35397) - http://www.bohemiancoding.com/sketch -->
    <title>minnesota-wild</title>
    <desc>Created with Sketch.</desc>
    <defs></defs>
    <g id="NHL" stroke="none" stroke-width="1" fill="none" fill-rule="evenodd">
        <g id="minnesota-wild">
            <g id="min" transform="translate(17.000000, 93.000000)">
                <g id="Group" transform="translate(282.455337, 282.455337)" fill="#024930">
                    <path d="M11.6458508,0.956002677 C8.96781282,1.19663785 6.62158104,2.84771022 5.4909583,5.28727676 C4.36033556,7.7268433 4.61709037,10.5842758 6.16450566,12.783207 C7.71192095,14.9821383 10.3149075,16.1884983 12.9929455,15.9478628 C17.1328332,15.5758727 20.1873178,11.9182732 19.8153279,7.77838545 C19.443338,3.63849771 15.7857386,0.58401295 11.6458508,0.956002677 Z M12.8191268,14.3400402 C10.723271,14.5224574 8.68930193,13.572892 7.48339615,11.8490362 C6.27749037,10.1251804 6.08285366,7.88892882 6.97280379,5.98265591 C7.86275392,4.076383 9.70208629,2.78969697 11.7979421,2.60728003 C15.0378542,2.3252879 17.8929218,4.7231557 18.1749141,7.96306779 C18.4569065,11.2029799 16.0590389,14.0580476 12.8191268,14.3400402 L12.8191268,14.3400402 Z" id="Shape"></path>
                    <path d="M15.2308608,6.43129074 C15.1045448,5.033496 13.869344,4.00254105 12.4714895,4.12819338 L8.8647521,4.45410338 L9.62520877,12.9929455 L11.2113041,12.8625815 L10.9071215,9.40793544 L12.0586701,9.29929877 L13.9924028,12.6235808 L15.7740442,12.4714895 L13.7534022,9.01684343 C14.7292116,8.53920776 15.3147703,7.51448006 15.2308608,6.43129074 L15.2308608,6.43129074 Z M12.7756721,7.60456675 L10.7550301,7.77838542 L10.5812115,5.8881074 L12.6018535,5.71428873 C13.1147723,5.67604904 13.5660136,6.05048335 13.6230382,6.56165474 C13.6737405,7.08265291 13.2960165,7.54754403 12.7756721,7.60456675 L12.7756721,7.60456675 Z" id="Shape"></path>
                </g>
                <path d="M436.936678,61.5100814 C437.110497,61.488354 452.906268,49.0385919 452.906268,49.0385919 C452.906268,49.0385919 389.614546,31.852271 314.090334,36.3498291 C314.090334,36.3498291 303.357031,0.391092004 252.623708,0.0217273336 C214.861602,-0.239000669 193.155996,23.2917016 186.333613,41.6512985 C115.024504,57.0994326 60.5975333,93.145079 60.5975333,93.145079 L73.5904788,103.117925 C39.9782938,120.695338 5.32319673,148.832235 5.32319673,148.832235 C5.32319673,148.832235 8.58229676,165.844737 28.984263,193.025632 C28.984263,193.025632 42.6724831,203.650298 78.8702209,217.620973 C78.8702209,217.620973 85.844695,215.926241 89.2776137,214.209782 C94.2531731,215.904514 99.3808238,217.338518 104.421565,218.29452 C104.182565,222.857261 102.813742,229.418915 111.200493,237.197301 L105.051658,240.434673 C105.051658,240.434673 112.482406,259.250544 154.177159,269.397209 C170.146749,265.660108 242.737771,252.449889 267.441749,298.251108 L394.438014,175.078854 L367.583029,174.905035 L467.550491,69.9620141 C467.550491,69.9402868 451.1029,64.3563621 436.936678,61.5100814 L436.936678,61.5100814 Z" id="Shape" fill="#E2D6B5"></path>
                <path d="M443.367969,75.0679375 C428.050199,69.1363754 407.604778,64.7257267 407.604778,64.7257267 L420.423905,54.970154 C351.591712,40.6735685 304.313034,44.7148525 304.313034,44.7148525 C304.313034,44.7148525 295.122372,8.7995701 249.212516,8.49538743 C204.823574,8.16947743 191.24399,47.7349519 191.24399,47.7349519 C130.364001,59.272166 72.9386588,93.8186264 72.9386588,93.8186264 L86.8006976,104.421565 C50.8419606,121.825159 13.4926742,151.591606 13.4926742,151.591606 C18.6420522,168.017471 33.872913,187.98489 33.872913,187.98489 C48.0608619,198.001191 79.3047676,210.407498 79.3047676,210.407498 C83.8023256,209.408041 88.712703,206.713852 88.712703,206.713852 C88.712703,206.713852 104.226019,213.014778 120.847429,213.123415 C126.909355,213.16687 133.688284,212.471595 133.731738,210.103316 C133.753466,206.018577 121.303703,204.671482 121.347158,200.108742 C121.368885,196.741006 128.864815,192.113083 157.305895,192.308629 C174.318397,192.417266 193.590542,193.742634 193.590542,193.742634 C179.598139,193.655724 152.026153,197.023461 151.982698,203.541661 C151.960971,208.60413 170.668205,208.995222 170.624751,215.817604 C170.537841,225.681814 155.893618,228.962641 138.837662,228.854005 C123.563346,228.745368 116.328144,224.356447 112.873498,224.312992 C111.526403,224.312992 110.722492,224.943085 110.722492,225.833905 C110.679037,229.375461 117.436238,236.567208 122.889799,238.609577 L115.502505,242.82468 C123.671983,253.840438 154.394432,262.248916 154.394432,262.248916 C242.303224,243.715501 269.006117,287.669897 269.006117,287.669897 L372.602044,181.901237 L348.419521,181.727418 L443.367969,75.0679375 L443.367969,75.0679375 Z" id="Shape" fill="#024930"></path>
                <path d="M289.951267,56.664886 C291.192149,61.650893 291.46505,66.8286496 290.755178,71.9174741 C309.380309,73.9036017 327.746042,77.835995 345.551513,83.6502343 C325.45373,84.1716903 304.943127,85.9316043 285.127799,88.321611 C278.626818,99.2361127 267.60925,106.694783 255.060841,108.676332 C242.512432,110.657881 229.732649,106.957106 220.184798,98.5769124 C178.902865,106.529117 149.85342,114.589957 149.85342,114.589957 C170.255386,115.654597 181.770873,120.478065 181.770873,120.478065 C128.951725,130.755093 79.7393142,150.765968 63.7479967,157.610078 C67.5068254,163.693731 72.4172028,170.798569 72.4172028,170.798569 L64.4867261,180.48896 C78.5443109,183.161422 96.0130871,181.7926 96.0130871,181.7926 L122.303161,165.953374 L142.792036,172.254301 L149.049508,163.824095 L142.314035,163.780641 L155.980528,142.075034 L167.191832,163.932732 L162.107636,163.932732 L165.4971,171.450389 L179.706776,169.038655 L185.790429,161.390634 L180.380323,161.347179 L188.549801,148.984326 L182.466147,148.940872 L195.393911,127.430811 L206.148941,149.831692 L201.303746,149.788238 L208.51722,162.868092 L202.759477,162.80291 L214.427055,184.39988 L226.355361,167.930561 L218.251066,167.865379 L230.592191,149.592692 L222.748624,149.549237 L240.565037,119.478607 L255.62208,150.157602 L249.277698,150.135875 L259.554727,168.169562 L252.210888,168.126107 L262.14028,190.505261 L279.41351,162.716001 L269.983847,162.629092 L284.106614,140.010938 L275.50259,139.924028 L294.448825,102.09674 L313.786152,141.988125 L306.876859,141.94467 L319.391804,162.933274 L310.744325,162.868092 L320.260897,183.639423 L336.252214,159.739356 L327.756827,159.652447 L346.246788,133.362373 L336.404306,133.297191 L366.062116,92.9712604 L381.314704,120.956066 L414.51407,80.6953169 C376.686782,66.2683674 333.51457,58.3813453 289.951267,56.664886 L289.951267,56.664886 Z M205.692667,66.2031854 C205.714394,64.4432714 205.844758,62.7050847 206.062032,60.966898 C166.344466,66.7680961 129.255907,77.8707635 99.0766411,93.9489904 C99.0766411,93.9489904 145.551408,78.0445822 206.062032,72.0043835 C205.817239,70.0803232 205.693873,68.142755 205.692667,66.2031854 L205.692667,66.2031854 Z" id="Shape" fill="#AF1E24"></path>
                <path d="M289.951267,56.664886 C261.922763,55.5434122 233.850401,56.9833934 206.083759,60.966898 C205.866486,62.6833574 205.736122,64.4432714 205.714394,66.2031854 C205.714394,68.1803728 205.844758,70.1141055 206.083759,72.0043835 C232.525924,69.3536488 261.662278,68.6366468 290.755178,71.8957468 C291.417565,66.8122228 291.145117,61.6504345 289.951267,56.664886 L289.951267,56.664886 Z M248.104422,109.201579 C263.283621,109.310485 277.382718,101.363721 285.149526,88.321611 C263.396579,90.9851137 241.743022,94.4056219 220.228253,98.5769124 C227.935313,105.363743 237.835261,109.13699 248.104422,109.201579 L248.104422,109.201579 Z M248.69106,23.8131576 C227.145552,23.6651893 208.869752,39.6017613 206.083759,60.966898 C206.083759,60.966898 227.572092,51.4720532 285.844801,46.0184925 C278.41159,32.4188943 264.189143,23.918695 248.69106,23.8131576 L248.69106,23.8131576 Z" id="Shape" fill="#EDAA00"></path>
                <path d="M253.210346,81.9555023 C197.479735,83.3895063 147.267867,96.9473624 147.267867,96.9473624 L146.138046,89.5383417 C144.399859,92.428077 142.748582,95.2309031 140.988668,98.0989111 C140.96694,98.0989111 115.719779,107.159209 99.0331864,115.784961 C111.800869,111.46998 124.714704,107.600178 137.751295,104.182565 C135.991381,107.897939 134.274922,111.417767 132.49328,115.111413 L142.009852,106.702935 C144.31295,107.941393 146.50741,109.179851 148.78878,110.396582 L147.89796,102.270559 C147.89796,102.270559 204.215208,87.017971 253.210346,81.9555023 L253.210346,81.9555023 Z" id="Shape" fill="#FFFFFF"></path>
            </g>
        </g>
    </g>
</svg>