<svg baseProfile="basic" xmlns="http://www.w3.org/2000/svg" viewBox="0 0 24 16"><g fill="#024930"><path d="M14.536,14.044c-0.19,0.017-0.331,0.185-0.314,0.375c0.017,0.191,0.185,0.331,0.375,0.314 c0.191-0.017,0.331-0.184,0.314-0.375C14.894,14.168,14.726,14.027,14.536,14.044z M14.59,14.66 c-0.15,0.013-0.281-0.098-0.294-0.247c-0.013-0.149,0.097-0.281,0.246-0.294c0.15-0.013,0.282,0.097,0.295,0.246 C14.851,14.514,14.74,14.647,14.59,14.66z"/><path d="M14.701,14.296c-0.006-0.064-0.063-0.112-0.127-0.106l-0.166,0.015l0.035,0.393l0.073-0.006l-0.014-0.159 l0.053-0.005l0.089,0.153l0.082-0.007l-0.093-0.159C14.676,14.393,14.706,14.347,14.701,14.296z M14.588,14.35l-0.093,0.008 l-0.008-0.087l0.093-0.008c0.023-0.002,0.044,0.015,0.047,0.039C14.629,14.326,14.612,14.348,14.588,14.35z"/></g><path fill="#E2D6B5" d="M21.11,3.831c0.008-0.001,0.735-0.574,0.735-0.574s-2.913-0.791-6.389-0.584c0,0-0.494-1.655-2.829-1.672 C10.889,0.989,9.89,2.072,9.576,2.917C6.294,3.628,3.789,5.287,3.789,5.287l0.598,0.459C2.84,6.555,1.245,7.85,1.245,7.85 s0.15,0.783,1.089,2.034c0,0,0.63,0.489,2.296,1.132c0,0,0.321-0.078,0.479-0.157c0.229,0.078,0.465,0.144,0.697,0.188 c-0.011,0.21-0.074,0.512,0.312,0.87l-0.283,0.149c0,0,0.342,0.866,2.261,1.333c0.735-0.172,4.076-0.78,5.213,1.328l5.845-5.669 l-1.236-0.008l4.601-4.83C22.519,4.219,21.762,3.962,21.11,3.831z"/><path fill="#024930" d="M21.406,4.455c-0.705-0.273-1.646-0.476-1.646-0.476l0.59-0.449c-3.168-0.658-5.344-0.472-5.344-0.472 s-0.423-1.653-2.536-1.667c-2.043-0.015-2.668,1.806-2.668,1.806C7,3.728,4.357,5.318,4.357,5.318l0.638,0.488 C3.34,6.607,1.621,7.977,1.621,7.977c0.237,0.756,0.938,1.675,0.938,1.675c0.653,0.461,2.091,1.032,2.091,1.032 c0.207-0.046,0.433-0.17,0.433-0.17s0.714,0.29,1.479,0.295c0.279,0.002,0.591-0.03,0.593-0.139c0.001-0.188-0.572-0.25-0.57-0.46 c0.001-0.155,0.346-0.368,1.655-0.359c0.783,0.005,1.67,0.066,1.67,0.066c-0.644-0.004-1.913,0.151-1.915,0.451 c-0.001,0.233,0.86,0.251,0.858,0.565c-0.004,0.454-0.678,0.605-1.463,0.6c-0.703-0.005-1.036-0.207-1.195-0.209 c-0.062,0-0.099,0.029-0.099,0.07c-0.002,0.163,0.309,0.494,0.56,0.588l-0.34,0.194c0.376,0.507,1.79,0.894,1.79,0.894 c4.046-0.853,5.275,1.17,5.275,1.17l4.768-4.868l-1.113-0.008L21.406,4.455z"/><g fill="#AF1E24"><path d="M14.345 3.608c.037.15.055.306.053.467-.001.08-.006.157-.016.235.852.096 1.704.267 2.522.54-.925.024-1.869.105-2.781.215-.347.58-.981.966-1.705.961-.492-.003-.94-.188-1.284-.489-1.9.366-3.237.737-3.237.737.939.049 1.469.271 1.469.271C6.935 7.018 4.67 7.939 3.934 8.254c.173.28.399.607.399.607L3.968 9.307C4.615 9.43 5.419 9.367 5.419 9.367l1.21-.729.943.29L7.86 8.54l-.31-.002.629-.999.516 1.006L8.461 8.545l.156.346L9.271 8.78l.28-.352L9.302 8.426l.376-.569-.28-.002.595-.99.495 1.031-.223-.002.332.602-.265-.003.537.994.549-.758-.373-.003.568-.841-.361-.002.82-1.384.693 1.412-.292-.001.473.83-.338-.002.457 1.03.795-1.279-.434-.004.65-1.041L13.68 7.44l.872-1.741.89 1.836-.318-.002L15.7 8.499l-.398-.003.438.956.736-1.1-.391-.004.851-1.21-.453-.003 1.365-1.856.702 1.288 1.528-1.853C18.337 4.05 16.35 3.687 14.345 3.608zM10.467 4.047c.001-.081.007-.161.017-.241C8.656 4.073 6.949 4.584 5.56 5.324c0 0 2.139-.732 4.924-1.01C10.473 4.227 10.467 4.138 10.467 4.047z"/></g><g fill="#EDAA00"><path d="M14.345 3.608c-1.301-.052-2.609.017-3.86.198-.01.079-.016.16-.017.241 0 .091.006.18.017.267 1.217-.122 2.558-.155 3.897-.005.011-.077.016-.154.016-.235C14.399 3.914 14.381 3.757 14.345 3.608zM12.419 6.026c.724.005 1.358-.381 1.705-.961-1.068.129-2.091.299-2.988.472C11.478 5.838 11.927 6.022 12.419 6.026zM12.446 2.096c-1.004-.007-1.836.74-1.961 1.71 0 0 .989-.437 3.671-.688C13.826 2.514 13.184 2.101 12.446 2.096z"/></g><path fill="#FFF" d="M12.654,4.772c-2.565,0.066-4.876,0.69-4.876,0.69C7.761,5.347,7.743,5.236,7.726,5.121 C7.646,5.254,7.57,5.383,7.489,5.515c-0.001,0-1.163,0.417-1.931,0.814C6.542,5.997,7.34,5.795,7.34,5.795 c-0.081,0.171-0.16,0.333-0.242,0.503c0.149-0.131,0.29-0.256,0.438-0.387c0.106,0.057,0.207,0.114,0.312,0.17 C7.834,5.956,7.821,5.835,7.807,5.707C7.807,5.707,10.399,5.005,12.654,4.772z"/></svg>