<svg baseProfile="basic" xmlns="http://www.w3.org/2000/svg" viewBox="0 0 24 16"><g fill="#024930"><path d="M14.536 14.044a.346.346 0 1 0 .062.69.346.346 0 0 0-.062-.69zm.054.616a.271.271 0 1 1-.047-.54.271.271 0 0 1 .047.54z"/><path d="M14.701 14.296a.117.117 0 0 0-.127-.106l-.166.015.035.393.073-.006-.014-.159.053-.005.089.153.082-.007-.093-.159a.122.122 0 0 0 .068-.119zm-.113.054l-.093.008-.008-.087.093-.008a.044.044 0 0 1 .047.039.044.044 0 0 1-.039.048z"/></g><path fill="#E2D6B5" d="M21.11 3.831c.008-.001.735-.574.735-.574s-2.913-.791-6.389-.584c0 0-.494-1.655-2.829-1.672C10.889.989 9.89 2.072 9.576 2.917c-3.282.711-5.787 2.37-5.787 2.37l.598.459C2.84 6.555 1.245 7.85 1.245 7.85s.15.783 1.089 2.034c0 0 .63.489 2.296 1.132 0 0 .321-.078.479-.157.229.078.465.144.697.188-.011.21-.074.512.312.87l-.283.149s.342.866 2.261 1.333c.735-.172 4.076-.78 5.213 1.328l5.845-5.669-1.236-.008 4.601-4.83c0-.001-.757-.258-1.409-.389z"/><path fill="#024930" d="M21.406 4.455c-.705-.273-1.646-.476-1.646-.476l.59-.449c-3.168-.658-5.344-.472-5.344-.472s-.423-1.653-2.536-1.667c-2.043-.015-2.668 1.806-2.668 1.806C7 3.728 4.357 5.318 4.357 5.318l.638.488c-1.655.801-3.374 2.171-3.374 2.171.237.756.938 1.675.938 1.675.653.461 2.091 1.032 2.091 1.032.207-.046.433-.17.433-.17s.714.29 1.479.295c.279.002.591-.03.593-.139.001-.188-.572-.25-.57-.46.001-.155.346-.368 1.655-.359.783.005 1.67.066 1.67.066-.644-.004-1.913.151-1.915.451-.001.233.86.251.858.565-.004.454-.678.605-1.463.6-.703-.005-1.036-.207-1.195-.209-.062 0-.099.029-.099.07-.002.163.309.494.56.588l-.34.194c.376.507 1.79.894 1.79.894 4.046-.853 5.275 1.17 5.275 1.17l4.768-4.868-1.113-.008 4.37-4.909z"/><path d="M14.345 3.608a1.849 1.849 0 0 1 .037.702 12.34 12.34 0 0 1 2.522.54c-.925.024-1.869.105-2.781.215a1.968 1.968 0 0 1-2.989.472c-1.9.366-3.237.737-3.237.737.939.049 1.469.271 1.469.271-2.431.473-4.696 1.394-5.432 1.709.173.28.399.607.399.607l-.365.446c.647.123 1.451.06 1.451.06l1.21-.729.943.29.288-.388-.31-.002.629-.999.516 1.006h-.234l.156.346.654-.111.28-.352-.249-.002.376-.569-.28-.002.595-.99.495 1.031-.223-.002.332.602-.265-.003.537.994.549-.758-.373-.003.568-.841-.361-.002.82-1.384.693 1.412-.292-.001.473.83-.338-.002.457 1.03.795-1.279-.434-.004.65-1.041-.396-.004.872-1.741.89 1.836-.318-.002.576.966-.398-.003.438.956.736-1.1-.391-.004.851-1.21-.453-.003 1.365-1.856.702 1.288 1.528-1.853c-1.741-.664-3.728-1.027-5.733-1.106zm-3.878.439c.001-.081.007-.161.017-.241-1.828.267-3.535.778-4.924 1.518 0 0 2.139-.732 4.924-1.01a2.126 2.126 0 0 1-.017-.267z" fill="#AF1E24"/><path d="M14.345 3.608a21.21 21.21 0 0 0-3.86.198c-.01.079-.016.16-.017.241 0 .091.006.18.017.267 1.217-.122 2.558-.155 3.897-.005a1.936 1.936 0 0 0-.037-.701zm-1.926 2.418a1.968 1.968 0 0 0 1.705-.961 43.43 43.43 0 0 0-2.988.472 1.96 1.96 0 0 0 1.283.489zm.027-3.93a1.964 1.964 0 0 0-1.961 1.71s.989-.437 3.671-.688a1.964 1.964 0 0 0-1.71-1.022z" fill="#EDAA00"/><path fill="#FFF" d="M12.654 4.772c-2.565.066-4.876.69-4.876.69l-.052-.341c-.08.133-.156.262-.237.394-.001 0-1.163.417-1.931.814a26.763 26.763 0 0 1 1.782-.534c-.081.171-.16.333-.242.503l.438-.387c.106.057.207.114.312.17l-.041-.374s2.592-.702 4.847-.935z"/></svg>