<svg xmlns="http://www.w3.org/2000/svg" viewBox="0 0 24 16"><g fill="#fff"><path d="M19.394 7.912l1.358-1.427-.772-3.557-3.433-1.019-.309.286c-1.147-.342-3.213-.696-4.591-.694C6.54 1.509 2.526 4.35 2.51 7.967c0 3.095 2.669 6.533 9.181 6.533 5.16 0 9.799-3.435 9.799-3.435l-2.096-3.153zm.839 4.42a.384.384 0 1 0-.001.769.384.384 0 0 0 .001-.769zm0 .686a.302.302 0 1 1-.002-.604.302.302 0 0 1 .002.604z"/><path d="M20.391 12.627a.13.13 0 0 0-.131-.13h-.186v.438h.083v-.179h.059l.084.179h.091l-.088-.186a.13.13 0 0 0 .088-.122zm-.131.048h-.103v-.096h.103c.027 0 .048.021.048.048s-.021.048-.048.048z"/></g><path fill="#192168" d="M18.939 7.873l1.426-1.497-.688-3.168-3.036-.901-.312.289c-1.023-.338-3.215-.742-4.681-.74-4.981.009-8.768 2.742-8.782 6.112-.016 3.535 3.413 6.176 8.825 6.176 3.789 0 7.67-2.021 9.31-3.171l-2.062-3.1z"/><path fill="#fff" d="M18.406 8.202s-2.15 1.468-4.52 1.91V5.947c2.573.324 4.098 2.006 4.098 2.006L19.7 6.181l-.551-2.486-2.344-.686-.297.324c-.951-.372-2.914-.854-5.088-.854-4.354 0-7.911 2.468-7.917 5.512-.006 2.965 3.012 5.532 7.884 5.532 4.5 0 7.749-2.145 8.767-2.719l-1.748-2.602zm-7.427-.785V5.711a11.11 11.11 0 0 1 1.724.057v1.649h-1.724zm1.723 1.129v1.718c-.485.058-1.224.072-1.724.036V8.546h1.724zm-2.96-2.735v4.371c-.718 0-3.008-.842-3.008-2.168 0-1.64 2.341-2.093 3.008-2.203z"/><path d="M9.113 9.42V6.573c-.821.239-1.743.704-1.743 1.441 0 .504.778 1.113 1.743 1.406zm8.173-1.281a6.582 6.582 0 0 0-2.766-1.448v2.627a12.375 12.375 0 0 0 2.766-1.179zm-5.844-1.222h.805V6.25l-.805-.032zm-.018 2.155h.828v.701h-.828z" fill="#fff"/><path fill="#af1e2d" d="M18.281 8.819c-2.813 1.652-4.687 1.973-6.97 1.952-3.21-.03-5.039-1.315-5.039-2.845 0-1.379 1.677-2.694 5.104-2.694 2.306 0 5.085.618 6.57 2.082l1.235-1.26-.421-2-1.822-.532-.331.374c-.999-.4-2.688-.954-5.285-.954-3.919 0-7.356 2.264-7.356 5.004 0 2.862 2.993 5.106 7.24 5.106 4.308 0 6.836-1.623 8.296-2.39l-1.221-1.843z"/></svg>