<svg width="512" height="512" viewBox="0 0 512 512" xmlns="http://www.w3.org/2000/svg"><title>montreal-canadiens</title><g fill="none" fill-rule="evenodd"><g fill="#FFF"><path d="M389.831 254.107l24.58-25.829-13.973-64.381-62.137-18.444-5.593 5.176c-20.76-6.19-58.156-12.597-83.097-12.56-92.437.144-165.09 51.566-165.38 117.034 0 56.02 48.309 118.247 166.176 118.247 93.396 0 177.362-62.174 177.362-62.174l-37.938-57.069zm15.186 80.002a6.96 6.96 0 1 0-.018 13.92 6.96 6.96 0 0 0 .018-13.92zm0 12.417a5.466 5.466 0 1 1-.036-10.933 5.466 5.466 0 0 1 .036 10.933z"/><path d="M407.877 339.449a2.353 2.353 0 0 0-2.371-2.353h-3.367v7.927h1.503v-3.24h1.068l1.52 3.24h1.647l-1.593-3.366a2.353 2.353 0 0 0 1.593-2.208zm-2.371.868h-1.864v-1.737h1.864c.489 0 .869.38.869.869 0 .488-.38.868-.869.868z"/></g><path d="M381.596 253.401l25.81-27.095-12.452-57.341-54.952-16.308-5.647 5.23c-18.516-6.117-58.192-13.43-84.726-13.393-90.156.162-158.701 49.63-158.954 110.627-.29 63.983 61.775 111.785 159.732 111.785 68.581 0 138.827-36.58 168.511-57.395l-37.322-56.11z" fill="#192168"/><path d="M371.949 259.356s-38.915 26.571-81.812 34.571v-75.386c46.57 5.864 74.173 36.308 74.173 36.308l31.06-32.073-9.973-44.997-42.427-12.416-5.375 5.864c-17.213-6.733-52.744-15.457-92.093-15.457-78.807 0-143.19 44.67-143.298 99.767-.108 53.667 54.517 100.13 142.7 100.13 81.45 0 140.258-38.825 158.683-49.215l-31.638-47.096zm-134.43-14.208v-30.879a201.091 201.091 0 0 1 31.205 1.032v29.847H237.52zm31.187 20.435v31.095c-8.778 1.05-22.154 1.304-31.204.652v-31.747h31.204zm-53.576-49.504v79.115c-12.996 0-54.445-15.24-54.445-39.24 0-29.685 42.372-37.884 54.445-39.875z" fill="#FFF"/><path d="M203.745 281.402v-51.53c-14.86 4.325-31.548 12.742-31.548 26.081 0 9.123 14.082 20.146 31.548 25.449zm147.932-23.186a119.134 119.134 0 0 0-50.065-26.209v47.549a223.987 223.987 0 0 0 50.065-21.34zM245.9 236.098h14.57v-12.073l-14.57-.58v12.653zm-.326 39.005h14.987v12.688h-14.987v-12.688z" fill="#FFF"/><path d="M369.686 270.524c-50.915 29.901-84.835 35.711-126.157 35.331-58.1-.543-91.206-23.801-91.206-51.494 0-24.96 30.354-48.762 92.383-48.762 41.738 0 92.038 11.186 118.917 37.684l22.353-22.806-7.62-36.2-32.978-9.629-5.991 6.77c-18.082-7.24-48.653-17.268-95.659-17.268-70.934 0-133.143 40.979-133.143 90.573 0 51.802 54.173 92.418 131.044 92.418 77.974 0 123.731-29.376 150.157-43.259l-22.1-33.358z" fill="#AF1E2D"/></g></svg>