<?xml version="1.0" encoding="UTF-8"?>
<svg width="512px" height="512px" viewBox="0 0 512 512" version="1.1" xmlns="http://www.w3.org/2000/svg" xmlns:xlink="http://www.w3.org/1999/xlink">
    <!-- Generator: Sketch 41.2 (35397) - http://www.bohemiancoding.com/sketch -->
    <title>montreal-canadiens</title>
    <desc>Created with Sketch.</desc>
    <defs></defs>
    <g id="NHL" stroke="none" stroke-width="1" fill="none" fill-rule="evenodd">
        <g id="montreal-canadiens">
            <g id="mtl" transform="translate(75.000000, 129.000000)">
                <g id="Group" fill="#FFFFFF">
                    <path d="M314.831392,125.107197 L339.411192,99.2784976 L325.437992,34.8967992 L263.300694,16.4528996 L257.707794,21.6294995 C236.947094,15.4392996 199.552495,9.03189978 174.610696,9.06809978 C82.173998,9.21289978 9.52059977,60.6349985 9.23099978,126.102697 C9.23099978,182.122196 57.5398986,244.349994 175.407096,244.349994 C268.803094,244.349994 352.768992,182.176496 352.768992,182.176496 L314.831392,125.107197 L314.831392,125.107197 Z M330.017292,205.109195 C327.53092,205.105962 325.231693,206.429438 323.985706,208.581082 C322.73972,210.732727 322.73627,213.385654 323.976656,215.540532 C325.217042,217.69541 327.51282,219.024862 329.999192,219.028095 C332.485564,219.031328 334.784791,217.707852 336.030777,215.556207 C337.276763,213.404563 337.280213,210.751635 336.039827,208.596758 C334.799442,206.44188 332.503664,205.112428 330.017292,205.109195 L330.017292,205.109195 Z M330.017292,217.525795 C328.064407,217.532261 326.256417,216.496385 325.274374,214.80837 C324.292331,213.120355 324.285432,211.036651 325.256274,209.34217 C326.227117,207.647689 328.028207,206.599862 329.981092,206.593395 C332.999991,206.583399 335.455396,209.022596 335.465392,212.041495 C335.475388,215.060394 333.036191,217.515798 330.017292,217.525795 L330.017292,217.525795 Z" id="Shape"></path>
                    <path d="M332.877092,210.448695 C332.877111,209.821492 332.626723,209.220238 332.181527,208.778441 C331.736332,208.336643 331.133177,208.09087 330.505992,208.095695 L327.139392,208.095695 L327.139392,216.023495 L328.641692,216.023495 L328.641692,212.783595 L329.709592,212.783595 L331.229992,216.023495 L332.877092,216.023495 L331.284292,212.656895 C332.230416,212.333938 332.869172,211.44839 332.877092,210.448695 L332.877092,210.448695 Z M330.505992,211.317495 L328.641692,211.317495 L328.641692,209.579895 L330.505992,209.579895 C330.994692,209.579895 331.374792,209.959995 331.374792,210.448695 C331.374792,210.937395 330.994692,211.317495 330.505992,211.317495 Z" id="Shape"></path>
                </g>
                <path d="M306.595893,124.401297 L332.406492,97.3055977 L319.953692,39.964799 L265.002094,23.6566994 L259.354894,28.8875993 C240.838594,22.7697995 201.163395,15.4573996 174.628796,15.4935996 C84.472698,15.6564996 15.9279996,65.1237984 15.6745996,126.120797 C15.3849996,190.104295 77.4498981,237.906394 175.407096,237.906394 C243.987994,237.906394 314.234092,201.326295 343.918092,180.511296 L306.595893,124.401297 L306.595893,124.401297 Z" id="Shape" fill="#192168"></path>
                <path d="M296.948593,130.356197 C296.948593,130.356197 258.033594,156.926996 215.136595,164.927196 L215.136595,89.5406978 C261.707894,95.4050977 289.310393,125.849297 289.310393,125.849297 L320.369992,93.7760977 L310.396893,48.7794988 L267.970494,36.3628991 L262.594794,42.227299 C245.381694,35.4940991 209.851395,26.7698994 170.501996,26.7698994 C91.6945978,26.7698994 27.3128993,71.4406983 27.2042993,126.537097 C27.0956993,180.203596 81.721498,226.666295 169.904696,226.666295 C251.354694,226.666295 310.161593,187.841795 328.587392,177.452396 L296.948593,130.356197 L296.948593,130.356197 Z M162.519896,116.147697 L162.519896,85.2690979 C172.932382,84.8037906 183.365285,85.14873 193.724295,86.3007979 L193.724295,116.147697 L162.519896,116.147697 Z M193.706195,136.582597 L193.706195,167.678396 C184.927696,168.728196 171.551796,168.981596 162.501796,168.329996 L162.501796,136.582597 L193.706195,136.582597 Z M140.130197,87.0790979 L140.130197,166.194196 C127.134397,166.194196 85.6853979,150.953996 85.6853979,126.953397 C85.6853979,97.2693977 128.057497,89.0700979 140.130197,87.0790979 Z" id="Shape" fill="#FFFFFF"></path>
                <path d="M128.745297,152.401996 L128.745297,100.871298 C113.885197,105.197197 97.1969977,113.613697 97.1969977,126.953397 C97.1969977,136.075797 111.278797,147.098696 128.745297,152.401996 L128.745297,152.401996 Z M276.676593,129.215897 C262.331867,116.590861 245.160636,107.601727 226.611995,103.007098 L226.611995,150.555796 C244.105543,145.503866 260.91781,138.337683 276.676593,129.215897 L276.676593,129.215897 Z M170.900196,107.097697 L185.470696,107.097697 L185.470696,95.0249977 L170.900196,94.4457977 L170.900196,107.097697 Z M170.574396,146.103196 L185.561196,146.103196 L185.561196,158.791296 L170.574396,158.791296 L170.574396,146.103196 Z" id="Shape" fill="#FFFFFF"></path>
                <path d="M294.686093,141.523897 C243.770794,171.425096 209.851395,177.235196 168.529096,176.855096 C110.428097,176.312096 77.3231981,153.053596 77.3231981,125.360597 C77.3231981,100.400698 107.676897,76.5991982 169.705596,76.5991982 C211.444195,76.5991982 261.744094,87.7849979 288.622593,114.283397 L310.976093,91.4773978 L303.355993,55.2773987 L270.377793,45.6481989 L264.386694,52.4175987 C246.304794,45.1775989 215.733895,35.1501992 168.728196,35.1501992 C97.7942976,35.1501992 35.5845991,76.1285982 35.5845991,125.722597 C35.5845991,177.524796 89.7578978,218.141195 166.628596,218.141195 C244.603394,218.141195 290.360193,188.764895 316.786192,174.882196 L294.686093,141.523897 L294.686093,141.523897 Z" id="Shape" fill="#AF1E2D"></path>
            </g>
        </g>
    </g>
</svg>