<svg xmlns="http://www.w3.org/2000/svg" viewBox="0 0 24 16"><g fill="#FFF"><path d="M19.823,2.215C19.823,0,17.33,0,16.994,0h-0.604c0,0,0.853,0.857,0.853,1.167 c0,0.07-0.057,0.127-0.127,0.127h-2.173c-0.069,0-0.126-0.057-0.126-0.127C14.817,0.857,15.67,0,15.67,0 c-0.828,0-2.015,0.185-2.84,0.771c-0.229-0.023-0.464-0.035-0.7-0.035c-3.832,0-6.938,3.106-6.938,6.938 c0,0.756,0.121,1.483,0.345,2.164c-0.513,0.627-1.36,1.91-1.36,3.547C4.177,14.799,4.876,16,4.876,16s1.244-1.821,4.032-1.821 c0.213,0,0.269-0.187,0.277-0.223c0.894,0.42,1.892,0.655,2.944,0.655c3.831,0,6.937-3.106,6.937-6.938 c0-1.231-0.32-2.387-0.883-3.388C18.951,4.049,19.823,3.438,19.823,2.215z"/><path d="M17.465,12.688c-0.177,0-0.32,0.144-0.32,0.32c0,0.176,0.144,0.319,0.32,0.319 c0.176,0,0.319-0.144,0.319-0.319C17.784,12.832,17.641,12.688,17.465,12.688z M17.465,13.26c-0.14,0-0.251-0.112-0.251-0.251 c0-0.14,0.111-0.251,0.251-0.251c0.139,0,0.25,0.111,0.25,0.251C17.715,13.147,17.604,13.26,17.465,13.26z"/><path d="M17.596,12.935c0-0.06-0.048-0.108-0.108-0.108h-0.154v0.364h0.068v-0.147h0.05l0.068,0.147h0.076 l-0.072-0.154C17.565,13.021,17.596,12.981,17.596,12.935z M17.487,12.975h-0.086v-0.08h0.086c0.022,0,0.04,0.018,0.04,0.04 C17.527,12.956,17.51,12.975,17.487,12.975z"/></g><path d="M19.537,2.215c0-1.375-1.262-1.977-2.532-1.929c0,0,0.524,0.506,0.524,0.881c0,0.199-0.148,0.413-0.566,0.413h-1.879 c-0.423,0-0.675-0.145-0.675-0.389c0-0.399,0.627-0.865,0.627-0.865s-1.271,0.077-2.123,0.744c-0.258-0.03-0.519-0.047-0.783-0.047 C8.456,1.022,5.479,4,5.479,7.674c0,1.266,0.354,2.449,0.968,3.456c-0.1,0.053-0.2,0.088-0.34,0.088 c-0.466,0-0.469-1.032-0.469-1.032s-1.175,1.369-1.175,3.199c0,1.127,0.476,2.096,0.476,2.096s1.318-1.588,3.97-1.588 c0,0-1.258-0.505-1.258-1.115c0,0,0.006-0.064,0.048-0.145c1.177,1.052,2.729,1.692,4.432,1.692c3.673,0,6.65-2.979,6.65-6.651 c0-1.318-0.384-2.545-1.045-3.579C18.377,3.993,19.537,3.554,19.537,2.215z"/><path fill="#CE1126" d="M17.57,0.58c0,0,0.245,0.23,0.245,0.587c0,0.357-0.278,0.699-0.853,0.699h-1.879 c-0.73,0-0.96-0.374-0.96-0.675c0-0.302,0.17-0.463,0.17-0.463s-1.846,0.36-1.846,1.86c0,1.262,1.411,1.258,1.411,1.258h0.412 L13.119,6.89L11.37,4.674c-0.108-0.137-0.534-0.673-1.168-0.673c-0.881,0-1.265,0.989-1.396,1.334l-1.858,4.913 c0,0,0.688-0.251,1.599-0.251c0.769,0,1.415,0.155,1.415,0.155l0.861-2.277l1.094,1.984l-0.774,0.811 c-0.509,0.532-1.572,0.237-2.596,0.237c-1.911,0-1.727,0.596-2.44,0.596c-0.507,0-0.638-0.614-0.638-0.614 s-0.721,1.193-0.721,2.496c0,0.846,0.298,1.589,0.298,1.589s1.488-1.268,2.989-1.268c0,0-0.67-0.321-0.67-0.929 c0-0.173,0.229-0.727,0.968-0.727c1.143,0,1.619,0.679,3,0.679c1.934,0,3.007-1.197,3.385-2.195l2.53-6.688 c0,0,2.004,0.004,2.004-1.631C19.252,0.714,17.57,0.58,17.57,0.58z"/><g fill="#FFF"><path d="M10.202 3.715c.354 0 .882.136 1.393.782l1.436 1.819.827-2.185c0 0-1.694-.015-1.694-1.544 0-.333.073-.618.196-.861-.076-.002-.152-.005-.229-.005-3.287 0-5.952 2.665-5.952 5.952 0 .865.187 1.688.52 2.43l1.843-4.87C8.921 4.226 9.48 3.715 10.202 3.715zM14.984 10.635c-.436 1.151-1.623 2.381-3.651 2.381-1.38 0-1.916-.634-2.896-.677 1.015.805 2.297 1.286 3.693 1.286 3.286 0 5.951-2.664 5.951-5.951 0-1.107-.303-2.143-.829-3.03L14.984 10.635z"/><path d="M10.937,10.472l0.629-0.658l-0.693-1.259l-0.732,1.934c0,0-0.756-0.206-1.593-0.206 c-0.651,0-1.241,0.146-1.626,0.271c0.048,0.086,0.098,0.171,0.15,0.255c0.3-0.104,0.744-0.187,1.476-0.187 C9.601,10.622,10.554,10.872,10.937,10.472z"/></g></svg>