<svg xmlns="http://www.w3.org/2000/svg" viewBox="0 0 24 16"><g fill="#FFF"><path d="M19.823 2.215C19.823 0 17.33 0 16.994 0h-.604s.853.857.853 1.167c0 .07-.057.127-.127.127h-2.173a.127.127 0 0 1-.126-.127c0-.31.853-1.167.853-1.167-.828 0-2.015.185-2.84.771a6.938 6.938 0 0 0-7.293 9.067c-.513.627-1.36 1.91-1.36 3.547 0 1.414.699 2.615.699 2.615s1.244-1.821 4.032-1.821c.213 0 .269-.187.277-.223a6.937 6.937 0 0 0 8.998-9.671c.768-.236 1.64-.847 1.64-2.07z"/><path d="M17.465 12.688a.32.32 0 0 0 0 .639.32.32 0 0 0 0-.639zm0 .572a.25.25 0 0 1-.251-.251.25.25 0 0 1 .251-.251c.139 0 .25.111.25.251a.25.25 0 0 1-.25.251z"/><path d="M17.596 12.935a.108.108 0 0 0-.108-.108h-.154v.364h.068v-.147h.05l.068.147h.076l-.072-.154a.112.112 0 0 0 .072-.102zm-.109.04h-.086v-.08h.086a.04.04 0 0 1 .04.04.04.04 0 0 1-.04.04z"/></g><path d="M19.537 2.215c0-1.375-1.262-1.977-2.532-1.929 0 0 .524.506.524.881 0 .199-.148.413-.566.413h-1.879c-.423 0-.675-.145-.675-.389 0-.399.627-.865.627-.865s-1.271.077-2.123.744a6.65 6.65 0 0 0-6.466 10.06.68.68 0 0 1-.34.088c-.466 0-.469-1.032-.469-1.032s-1.175 1.369-1.175 3.199c0 1.127.476 2.096.476 2.096s1.318-1.588 3.97-1.588c0 0-1.258-.505-1.258-1.115 0 0 .006-.064.048-.145a6.651 6.651 0 0 0 10.037-8.538c.641-.102 1.801-.541 1.801-1.88z"/><path fill="#CE1126" d="M17.57.58s.245.23.245.587-.278.699-.853.699h-1.879c-.73 0-.96-.374-.96-.675 0-.302.17-.463.17-.463s-1.846.36-1.846 1.86c0 1.262 1.411 1.258 1.411 1.258h.412L13.119 6.89 11.37 4.674c-.108-.137-.534-.673-1.168-.673-.881 0-1.265.989-1.396 1.334l-1.858 4.913s.688-.251 1.599-.251a6.78 6.78 0 0 1 1.415.155l.861-2.277 1.094 1.984-.774.811c-.509.532-1.572.237-2.596.237-1.911 0-1.727.596-2.44.596-.507 0-.638-.614-.638-.614s-.721 1.193-.721 2.496c0 .846.298 1.589.298 1.589s1.488-1.268 2.989-1.268c0 0-.67-.321-.67-.929 0-.173.229-.727.968-.727 1.143 0 1.619.679 3 .679 1.934 0 3.007-1.197 3.385-2.195l2.53-6.688s2.004.004 2.004-1.631C19.252.714 17.57.58 17.57.58z"/><g fill="#FFF"><path d="M10.202 3.715c.354 0 .882.136 1.393.782l1.436 1.819.827-2.185s-1.694-.015-1.694-1.544c0-.333.073-.618.196-.861-.076-.002-.152-.005-.229-.005a5.952 5.952 0 0 0-5.432 8.382l1.843-4.87c.379-1.007.938-1.518 1.66-1.518zm4.782 6.92c-.436 1.151-1.623 2.381-3.651 2.381-1.38 0-1.916-.634-2.896-.677a5.951 5.951 0 0 0 8.815-7.695l-2.268 5.991z"/><path d="M10.937 10.472l.629-.658-.693-1.259-.732 1.934s-.756-.206-1.593-.206a5.39 5.39 0 0 0-1.626.271c.048.086.098.171.15.255.3-.104.744-.187 1.476-.187 1.053 0 2.006.25 2.389-.15z"/></g></svg>