<?xml version="1.0" encoding="UTF-8"?>
<svg width="512px" height="512px" viewBox="0 0 512 512" version="1.1" xmlns="http://www.w3.org/2000/svg" xmlns:xlink="http://www.w3.org/1999/xlink">
    <!-- Generator: Sketch 41.2 (35397) - http://www.bohemiancoding.com/sketch -->
    <title>new-jersey-devils</title>
    <desc>Created with Sketch.</desc>
    <defs></defs>
    <g id="NHL" stroke="none" stroke-width="1" fill="none" fill-rule="evenodd">
        <g id="new-jersey-devils">
            <g id="njd" transform="translate(98.000000, 98.000000)">
                <g id="Group" fill="#FFFFFF">
                    <path d="M312.50425,43.74625 C312.50425,0 263.2675,0 256.6315,0 L244.7025,0 C244.7025,0 261.54925,16.92575 261.54925,23.04825 C261.54925,24.43075 260.4235,25.5565 259.041,25.5565 L216.12425,25.5565 C214.746701,25.5456528 213.635707,24.4258419 213.63575,23.04825 C213.63575,16.92575 230.4825,4.38538095e-15 230.4825,4.38538095e-15 C214.1295,4.38538095e-15 190.68625,3.65375 174.3925,15.22725 C128.238494,10.5380043 82.8460669,29.5201835 53.7697781,65.6691908 C24.6934893,101.818198 15.8823836,150.224396 30.35575,194.3005 C20.224,206.68375 3.49575,232.023 3.49575,264.35375 C3.49575,292.28025 17.301,316 17.301,316 C17.301,316 41.87,280.03525 96.933,280.03525 C101.13975,280.03525 102.24575,276.342 102.40375,275.631 C156.295933,300.912073 220.346145,288.50079 260.894585,244.919554 C301.443024,201.338319 309.210184,136.560693 280.11425,84.62875 C295.28225,79.96775 312.50425,67.9005 312.50425,43.74625 L312.50425,43.74625 Z" id="Shape"></path>
                    <path d="M265.93375,250.588 C262.585754,250.775378 259.966911,253.54489 259.966911,256.898125 C259.966911,260.25136 262.585754,263.020872 265.93375,263.20825 C269.281746,263.020872 271.900589,260.25136 271.900589,256.898125 C271.900589,253.54489 269.281746,250.775378 265.93375,250.588 Z M265.93375,261.885 C264.617395,261.890276 263.353431,261.36969 262.422621,260.438879 C261.49181,259.508069 260.971224,258.244105 260.9765,256.92775 C260.971224,255.611395 261.49181,254.347431 262.422621,253.416621 C263.353431,252.48581 264.617395,251.965224 265.93375,251.9705 C268.679,251.9705 270.87125,254.16275 270.87125,256.92775 C270.876502,258.240675 270.358622,259.501627 269.432091,260.431864 C268.50556,261.362101 267.246686,261.885011 265.93375,261.885 L265.93375,261.885 Z" id="Shape"></path>
                    <path d="M268.521,255.46625 C268.521,254.288227 267.566023,253.33325 266.388,253.33325 L263.3465,253.33325 L263.3465,260.52225 L264.6895,260.52225 L264.6895,257.619 L265.677,257.619 L267.02,260.52225 L268.521,260.52225 L267.099,257.48075 C267.938029,257.160222 268.499946,256.364172 268.521,255.46625 L268.521,255.46625 Z M266.36825,256.25625 L264.66975,256.25625 L264.66975,254.67625 L266.36825,254.67625 C266.804555,254.67625 267.15825,255.029945 267.15825,255.46625 C267.15825,255.902555 266.804555,256.25625 266.36825,256.25625 L266.36825,256.25625 Z" id="Shape"></path>
                </g>
                <path d="M306.85575,43.74625 C306.85575,16.59 281.93125,4.7005 256.84875,5.6485 C256.84875,5.6485 267.19775,15.642 267.19775,23.04825 C267.19775,26.9785 264.27475,31.205 256.01925,31.205 L218.909,31.205 C210.55475,31.205 205.57775,28.34125 205.57775,23.52225 C205.57775,15.642 217.961,6.4385 217.961,6.4385 C217.961,6.4385 192.85875,7.95925 176.03175,21.1325 C126.129783,15.2013434 77.2180037,38.2650558 50.046598,80.5391573 C22.8751924,122.813259 22.2080705,176.885913 48.32825,219.8175 C46.2807191,220.974833 43.9651547,221.574156 41.61325,221.5555 C32.40975,221.5555 32.3505,201.1735 32.3505,201.1735 C32.3505,201.1735 9.14425,228.21125 9.14425,264.35375 C9.14425,286.612 18.54525,305.74975 18.54525,305.74975 C18.54525,305.74975 44.57575,274.38675 96.95275,274.38675 C96.95275,274.38675 72.10725,264.413 72.10725,252.3655 C72.10725,252.3655 72.22575,251.1015 73.05525,249.50175 C121.997035,293.19835 195.676028,294.081278 245.650881,251.570041 C295.625733,209.058803 306.569056,136.191683 271.286,80.87625 C283.94575,78.86175 306.85575,70.1915 306.85575,43.74625 L306.85575,43.74625 Z" id="Shape" fill="#000000"></path>
                <path d="M268.0075,11.455 C268.0075,11.455 272.84625,15.9975 272.84625,23.04825 C272.84625,30.099 267.35575,36.8535 255.9995,36.8535 L218.88925,36.8535 C204.47175,36.8535 199.92925,29.467 199.92925,23.52225 C199.92925,17.55775 203.28675,14.378 203.28675,14.378 C203.28675,14.378 166.82825,21.488 166.82825,51.113 C166.82825,76.0375 194.6955,75.9585 194.6955,75.9585 L202.8325,75.9585 L180.10025,136.0775 L145.5575,92.3115 C143.4245,89.60575 135.011,79.01975 122.4895,79.01975 C105.08975,79.01975 97.50575,98.5525 94.9185,105.36625 L58.223,202.398 C58.223,202.398 71.811,197.44075 89.80325,197.44075 C99.200276,197.477743 108.567304,198.503813 117.7495,200.502 L134.75425,155.53125 L156.36075,194.71525 L141.07425,210.7325 C131.0215,221.2395 110.02725,215.41325 89.80325,215.41325 C52.061,215.41325 55.695,227.18425 41.61325,227.18425 C31.6,227.18425 29.01275,215.05775 29.01275,215.05775 C29.01275,215.05775 14.773,238.6195 14.773,264.35375 C14.773,281.06225 20.6585,295.7365 20.6585,295.7365 C20.6585,295.7365 50.0465,270.6935 79.69125,270.6935 C79.69125,270.6935 66.45875,264.35375 66.45875,252.34575 C66.45875,248.929 70.9815,237.9875 85.57675,237.9875 C108.151,237.9875 117.552,251.39775 144.82675,251.39775 C183.02325,251.39775 204.215,227.757 211.6805,208.0465 L261.648,75.9585 C261.648,75.9585 301.227,76.0375 301.227,43.74625 C301.227,14.1015 268.0075,11.455 268.0075,11.455 Z" id="Shape" fill="#CE1126"></path>
                <g id="Group" transform="translate(39.500000, 19.750000)" fill="#FFFFFF">
                    <path d="M82.9895,53.62125 C89.981,53.62125 100.409,56.30725 110.50125,69.06575 L138.86225,104.991 L155.1955,61.83725 C155.1955,61.83725 121.739,61.541 121.739,31.34325 C121.739,24.7665 123.18075,19.13775 125.61,14.3385 C124.109,14.299 122.608,14.23975 121.08725,14.23975 C81.2512119,14.2488538 44.1302809,34.4322476 22.4658248,67.8621945 C0.801368584,101.292141 -2.45845652,143.419406 13.80525,179.78425 L50.2045,83.60175 C57.68975,63.7135 68.73,53.62125 82.9895,53.62125 L82.9895,53.62125 Z M177.434,190.29125 C168.823,213.0235 145.37975,237.316 105.32675,237.316 C78.07175,237.316 67.48575,224.7945 48.13075,223.94525 C92.5396396,259.068129 155.678191,257.536771 198.33213,220.302277 C240.98607,183.067783 251.030501,120.714507 222.227,71.969 L177.434,190.29125 L177.434,190.29125 Z" id="Shape"></path>
                    <path d="M97.50575,187.072 L109.9285,174.0765 L96.24175,149.21125 L81.78475,187.40775 C81.78475,187.40775 66.85375,183.33925 50.323,183.33925 C39.407391,183.466214 28.5762537,185.271404 18.2095,188.6915 C19.1575,190.39 20.145,192.06875 21.172,193.72775 C27.097,191.67375 35.866,190.0345 50.323,190.0345 C71.11975,190.0345 89.9415,194.972 97.50575,187.072 L97.50575,187.072 Z" id="Shape"></path>
                </g>
            </g>
        </g>
    </g>
</svg>