<svg width="512" height="512" viewBox="0 0 512 512" xmlns="http://www.w3.org/2000/svg"><title>new-jersey-devils</title><g fill="none" fill-rule="evenodd"><g fill="#FFF"><path d="M410.504 141.746C410.504 98 361.267 98 354.631 98h-11.928s16.846 16.926 16.846 23.048a2.512 2.512 0 0 1-2.508 2.508h-42.917a2.508 2.508 0 0 1-2.488-2.508c0-6.122 16.846-23.048 16.846-23.048-16.353 0-39.796 3.654-56.09 15.227A137.026 137.026 0 0 0 128.356 292.3c-10.132 12.384-26.86 37.723-26.86 70.054C101.496 390.28 115.3 414 115.3 414s24.569-35.965 79.632-35.965c4.207 0 5.313-3.693 5.47-4.404 53.893 25.281 117.943 12.87 158.492-30.711 40.548-43.582 48.315-108.36 19.22-160.291 15.167-4.661 32.39-16.728 32.39-40.883zM363.934 348.588a6.32 6.32 0 0 0 0 12.62 6.32 6.32 0 0 0 0-12.62zm0 11.297a4.937 4.937 0 0 1-4.958-4.957 4.937 4.937 0 0 1 4.958-4.958c2.745 0 4.937 2.193 4.937 4.958a4.937 4.937 0 0 1-4.937 4.957z"/><path d="M366.521 353.466a2.133 2.133 0 0 0-2.133-2.133h-3.041v7.19h1.343v-2.904h.987l1.343 2.903h1.501l-1.422-3.041a2.212 2.212 0 0 0 1.422-2.015zm-2.153.79h-1.698v-1.58h1.698a.79.79 0 1 1 0 1.58z"/></g><path d="M404.856 141.746c0-27.156-24.925-39.046-50.007-38.098 0 0 10.349 9.994 10.349 17.4 0 3.93-2.923 8.157-11.179 8.157h-37.11c-8.354 0-13.331-2.864-13.331-7.683 0-7.88 12.383-17.084 12.383-17.084s-25.102 1.521-41.93 14.694c-49.901-5.93-98.813 17.133-125.984 59.407-27.172 42.274-27.839 96.347-1.719 139.279a13.43 13.43 0 0 1-6.715 1.738c-9.203 0-9.262-20.382-9.262-20.382s-23.207 27.037-23.207 63.18c0 22.258 9.401 41.396 9.401 41.396s26.03-31.363 78.408-31.363c0 0-24.846-9.974-24.846-22.022 0 0 .119-1.264.948-2.863 48.942 43.696 122.621 44.58 172.596 2.068 49.975-42.511 60.918-115.378 25.635-170.694 12.66-2.014 35.57-10.684 35.57-37.13z" fill="#000"/><path d="M366.007 109.455s4.84 4.543 4.84 11.593c0 7.051-5.491 13.805-16.847 13.805h-37.11c-14.418 0-18.96-7.386-18.96-13.33 0-5.965 3.357-9.145 3.357-9.145s-36.459 7.11-36.459 36.735c0 24.924 27.868 24.846 27.868 24.846h8.137L278.1 234.077l-34.542-43.766c-2.133-2.705-10.547-13.291-23.068-13.291-17.4 0-24.984 19.532-27.572 26.346l-36.695 97.032s13.588-4.957 31.58-4.957a133.905 133.905 0 0 1 27.947 3.061l17.004-44.97 21.607 39.183-15.287 16.017c-10.053 10.507-31.047 4.681-51.27 4.681-37.743 0-34.109 11.771-48.19 11.771-10.014 0-12.601-12.126-12.601-12.126s-14.24 23.561-14.24 49.296c0 16.708 5.886 31.382 5.886 31.382s29.387-25.043 59.032-25.043c0 0-13.232-6.34-13.232-18.347 0-3.417 4.523-14.359 19.118-14.359 22.574 0 31.975 13.41 59.25 13.41 38.196 0 59.388-23.64 66.853-43.35l49.968-132.089s39.579.08 39.579-32.212c0-29.645-33.22-32.291-33.22-32.291z" fill="#CE1126"/><g fill="#FFF"><path d="M220.49 171.371c6.991 0 17.419 2.686 27.511 15.445l28.361 35.925 16.334-43.154s-33.457-.296-33.457-30.494c0-6.577 1.442-12.205 3.871-17.005-1.501-.039-3.002-.098-4.523-.098a117.552 117.552 0 0 0-107.282 165.544l36.4-96.182c7.485-19.889 18.525-29.98 32.785-29.98zm94.444 136.67c-8.611 22.733-32.054 47.025-72.107 47.025-27.255 0-37.841-12.521-57.196-13.37 44.409 35.122 107.547 33.59 150.201-3.644 42.654-37.234 52.699-99.587 23.895-148.333l-44.793 118.322z"/><path d="M235.006 304.822l12.422-12.995-13.686-24.866-14.457 38.197s-14.931-4.069-31.462-4.069a106.452 106.452 0 0 0-32.114 5.352 129.16 129.16 0 0 0 2.963 5.037c5.925-2.054 14.694-3.693 29.151-3.693 20.797 0 39.619 4.937 47.183-2.963z"/></g></g></svg>