<svg xmlns="http://www.w3.org/2000/svg" viewBox="0 0 24 16"><g fill="#fcb514"><path d="M15.279 14.251a.364.364 0 1 0-.729-.001.364.364 0 0 0 .729.001zm-.651 0a.286.286 0 1 1 .572-.002.286.286 0 0 1-.572.002z"/><path d="M15.064 14.459l-.082-.176a.124.124 0 0 0-.042-.241h-.176v.417h.078v-.169h.056l.079.169h.087zm-.124-.247h-.098v-.091h.098c.025 0 .046.02.046.045s-.02.046-.046.046z"/></g><path d="M22.261 6.651a.27.27 0 0 0-.132-.14l-1.143-.552-.353-.271-.513-.636-.169-.759a.268.268 0 0 0-.129-.175l-.804-.457-.505-.507a.28.28 0 0 0-.083-.057l-3.146-1.368a.279.279 0 0 0-.159-.017l-4.285.856c-1.167-.09-2.189.056-2.233.062-.262.044-.264.328-.172.419L2.02 4.331a.265.265 0 0 0-.161.1l-.678.892a.269.269 0 0 0 .178.428c.047.006 4.687.642 4.687 3.456 0 1.036-.711 2.056-.719 2.065-.103.146-.041.381.171.419l2.621.473c.199.159.866.628 1.836.628 1.149 0 1.474-.435 1.548-.791.57-.242 1.286-.817 1.286-1.28 0-.289-.26-.482-.502-.482-.028 0-.053.01-.079.014 0 0-.122-.226-.418-.226-.127 0-.264.062-.371.108.262-.302.696-.661 1.391-.892 1.071-.354 2.467-.655 3.167-.796-1.063 3.089-4.704 4.711-4.742 4.728-.217.095-.177.369-.089.426l-.397.179c-.283.124-.163.537.13.512 3.843-.326 6.669-1.672 8.637-4.104h.792c.045 0 .09-.012.13-.033.774-.433 1.294-.415 1.3-.415a.272.272 0 0 0 .254-.148c.384-.78.797-1.194.801-1.197a.266.266 0 0 0 .061-.292l-.593-1.452z" fill="#fcb514"/><path d="M20.845 6.189l-.399-.307-.573-.71-.183-.82-.835-.475-.531-.533-3.145-1.368-4.319.863c-1.168-.097-2.214.056-2.214.056l.364.313-6.937 1.385-.679.893s4.921.635 4.921 3.721c0 1.139-.768 2.221-.768 2.221l2.689.485s.669.61 1.72.61c1.222 0 1.301-.513 1.301-.712.537-.174 1.266-.765 1.266-1.091 0-.131-.137-.215-.234-.215-.081 0-.191.064-.281.104.052-.114-.021-.315-.216-.315-.163 0-.438.23-.973.28 0 0 .408-1.089 1.908-1.585 1.515-.503 3.644-.894 3.644-.894-.901 3.535-5.028 5.325-5.028 5.325l1.523-.343c-.706.373-2.008.946-2.008.946 3.837-.326 6.631-1.647 8.591-4.177l.133.072h.727c.866-.483 1.443-.447 1.443-.447.412-.838.854-1.271.854-1.271l-.592-1.449-1.169-.562z" fill="#002654"/><path d="M5.021 6.152a5.967 5.967 0 0 1 .78.562c.023-.146.053-.286.088-.42.26-.991.791-1.649.791-1.649a3.046 3.046 0 0 0-1.659 1.507z" fill="#fff"/><path d="M15.612 2.903l-.516-.253-1.66.368s.344.392.344 1.062c0 .216-.051.425-.137.627l.76.059c-.001-.026-.01-.045-.01-.072 0-1.322 1.219-1.791 1.219-1.791zm-1.21 1.863l-.759-.058" fill="none"/><path d="M14.464 5.208a1.946 1.946 0 0 1-.062-.441c-.001-.026-.01-.045-.01-.072 0-1.322 1.22-1.791 1.22-1.791l-.516-.254-1.66.368s.344.392.344 1.062c0 .216-.051.425-.137.627a2.212 2.212 0 0 1-.273.472c-.567.75-1.643 1.342-2.693 1.616-.216.056-.366.142-.469.264a.656.656 0 0 0-.105.173l-.437 1.019c-1.314.56-1.526 1.734-1.423 2.399.035-.958 1.022-2.322 2.653-2.029 0 0 .231-.463.745-.846-.125-.281-.146-.609-.065-.96.007.343.093.63.235.847a2.67 2.67 0 0 1 .461-.228c-.047-.351.046-.717.273-1.063-.129.372-.138.714-.054.992a2.58 2.58 0 0 1 .499-.088c.05-.417.284-.793.674-1.087-.294.365-.426.745-.411 1.079.245.006.481.043.705.111l.602-.661.509-.56a1.934 1.934 0 0 1-.605-.949z" fill="none"/><path d="M20.293 7.235l.6-.211s.711.45 1.028-.127l-1.086-.511a2.44 2.44 0 0 1-.877.308c-.813.117-1.434-.225-1.434-.225-.675 0-1.136.108-1.531.306-.322.161-.602.381-.918.65l.948-1.043.147-.867s.298.724 1.118.724c.397 0 .701-.22.701-.22.89.673 1.705.302 1.705.302l-.304-.254-.291.155.181-.272-.111-.126-.394.203.246-.374-.086-.099-.332.146.19-.324-.133-.205-.126-.659-.797-.386-.547-.511-3.062-1.238-3.015.669c.71.171 1.298.542 1.298.542s.226.52-.068 1.098a2.63 2.63 0 0 0-1.504.54c-.689.52-.981 1.226-.981 1.226l-.467.108.539-1.263.195-.456c-1.209.177-1.754-.852-1.754-.852l-.093-.314-7.016 1.57c.757.052 1.591.293 2.352.681.181-.606.631-1.075.631-1.075l3.854-.862s.152.496.81.893l-.012.121c-.305.061-.784.258-1.241.616a3.194 3.194 0 0 0-1.254 2.588c0 .623.207 1.134.207 1.134s-.258-.351-.41-.946a3.498 3.498 0 0 1-.109-.871c0-.611.176-1.193.375-1.655.257-.597.552-.994.552-.994s-.841.342-1.419 1.214c-.18.271-.334.594-.43.973.417.442.727.948.867 1.5.053.21.082.428.082.653 0 1.067-.446 1.739-.446 1.739l1.494.304s.565.822 1.778.822c.384 0 .888-.043.888-.288 0-.185-.454-.436-.454-.971 0-.869 1.092-1.771 2.264-2.157 1.368-.451 3.46-.977 4.512-.977 2.984 0 2.886 1.97 2.886 1.97l.145-.007a3.618 3.618 0 0 1 1.424-.457l.051-.003s.294-.55.636-.948c-.003 0-.446-.93-2.002-1.007z" fill="#fff"/><path d="M10.617 10.921c.097.435.388.558.416.72 0 0 .754-.155 1.256-.901-.977.49-1.672.181-1.672.181m8.838-1.801c0-.427-.705-.835-1.037-.835-1.367 0-1.349 2.905-6.17 5.366 4.106-.592 7.207-3.385 7.207-4.531M9.588 3.889s.44.749 1.224.749l.814-.056.67-.7.914-.141a4.33 4.33 0 0 0-1.11-.458l-.765 1.067.486-1.135a7.312 7.312 0 0 0-.424-.079l-.657.919.407-.952a8.495 8.495 0 0 0-.499-.046l-.503.702.305-.712c-.711-.03-1.23.028-1.23.028l.175.151.193.663z" fill="#fff"/><path d="M7.465 5.87c-.315.074-.605.148-.867.219-.18.271-.334.594-.43.973.417.442.727.948.867 1.5.042-.046.098-.104.164-.167a3.498 3.498 0 0 1-.109-.871c0-.611.176-1.193.375-1.654m-1.664.844c.023-.146.053-.286.088-.42-.168.052-.316.1-.441.141.123.089.24.182.353.279m15.092.31s-.41-.187-.935-.33c-.813.117-1.434-.225-1.434-.225-.675 0-1.136.108-1.531.306 4.354.383 4.9 1.349 4.612 2.419l.051-.003s.294-.55.636-.948c0 0-.443-.93-1.999-1.007l.6-.212zM10.857 6.45l-.466.11.539-1.263c-.821.08-1.585.194-2.273.323a3.188 3.188 0 0 0-1.255 2.587c0 .623.207 1.134.207 1.134-.169-.722.225-1.429.225-1.429s.908-.58 2.373-.853c.103-.123.252-.208.469-.264 1.051-.273 2.126-.866 2.693-1.616a24.507 24.507 0 0 0-1.53.045c-.69.52-.982 1.226-.982 1.226m6.314-.935a21.121 21.121 0 0 0-2.707-.308c.173.615.604.951.604.951l-.509.56c.92-.017 1.88.021 1.88.021l-.364.685.948-1.043.148-.866z" fill="#fcb514"/><g fill="#002654"><path d="M15.612 2.903l-.516-.253-1.66.368s.343.392.343 1.062c0 .388-.152.76-.409 1.099-.567.75-1.643 1.343-2.693 1.616-.216.056-.366.142-.469.264a.656.656 0 0 0-.105.173l-.437 1.019c-1.314.56-1.526 1.734-1.423 2.399.035-.958 1.022-2.322 2.653-2.029 0 0 .231-.462.745-.846-.124-.281-.146-.609-.064-.96.006.343.093.63.234.847a2.67 2.67 0 0 1 .461-.228c-.047-.351.046-.717.273-1.063-.129.372-.138.714-.054.992.161-.044.328-.075.499-.088.05-.417.284-.793.674-1.087-.294.365-.426.745-.411 1.079.245.006.481.044.705.111l.602-.661.509-.56s-.432-.336-.604-.951a1.86 1.86 0 0 1-.071-.513c-.001-1.321 1.218-1.79 1.218-1.79m3.327 2.535c-.012-.27.032-.767-.97-1.077l-1.196-.369s.925.827.925 1.014a.592.592 0 0 0 .907.503l.021.243c.42.033.908-.033 1.033-.581-.171.396-.551.341-.72.267"/><path d="M19.194 5.361l.149-.576-1.17-.559c.764.449 1.021.699 1.021 1.135"/></g><path d="M18.373 5.416c.124 0 .217-.059.217-.059a2.976 2.976 0 0 0-.029-.126.243.243 0 0 1-.125.039.214.214 0 0 1-.219-.218.22.22 0 0 1 .162-.21.907.907 0 0 0-.238-.24s-.208.116-.208.373.215.441.44.441" fill="#fcb514"/></svg>