<?xml version="1.0" encoding="UTF-8"?>
<svg width="512px" height="512px" viewBox="0 0 512 512" version="1.1" xmlns="http://www.w3.org/2000/svg" xmlns:xlink="http://www.w3.org/1999/xlink">
    <!-- Generator: Sketch 41.2 (35397) - http://www.bohemiancoding.com/sketch -->
    <title>nashville-predators</title>
    <desc>Created with Sketch.</desc>
    <defs></defs>
    <g id="NHL" stroke="none" stroke-width="1" fill="none" fill-rule="evenodd">
        <g id="nashville-predators">
            <g id="nsh" transform="translate(36.000000, 106.000000)">
                <g id="Group" transform="translate(260.589327, 240.543994)" fill="#FCB514">
                    <path d="M25.6379807,25.0767114 C25.6415615,22.4663418 24.2522547,20.0523505 21.9933987,18.7440647 C19.7345427,17.4357789 16.9493116,17.4319583 14.6868748,18.7340421 C12.4244381,20.0361258 11.0285138,22.4462965 11.0249331,25.0566661 C11.0193978,29.0919477 14.2861526,32.3676771 18.3214342,32.3732124 C22.3567159,32.3787478 25.6324453,29.111993 25.6379807,25.0767114 L25.6379807,25.0767114 Z M12.588469,25.0767114 C12.5813075,23.0285202 13.6673869,21.1320928 15.4375918,20.1017951 C17.2077967,19.0714974 19.3931907,19.0638562 21.1705571,20.0817498 C22.9479235,21.0996433 24.047238,22.9884295 24.0543994,25.0366207 C24.0654701,28.2028499 21.5077087,30.7785603 18.3414796,30.7896311 C15.1752504,30.8007018 12.5995399,28.2429406 12.588469,25.0767114 Z" id="Shape"></path>
                    <path d="M21.3282341,29.2461406 L19.6845169,25.718162 C20.8311734,25.3157368 21.518746,24.1432195 21.310109,22.9460403 C21.1014719,21.7488611 20.0578013,20.8780542 18.8426129,20.8872368 L15.3146343,20.8872368 L15.3146343,29.2461406 L16.8781703,29.2461406 L16.8781703,25.8584794 L18.0007089,25.8584794 L19.5842902,29.2461406 L21.3282341,29.2461406 L21.3282341,29.2461406 Z M18.8426129,24.2949434 L16.8781703,24.2949434 L16.8781703,22.4708181 L18.8426129,22.4708181 C19.3437462,22.4708181 19.7646982,22.8717248 19.7646982,23.3728581 C19.7646982,23.8739914 19.3637915,24.2949434 18.8426129,24.2949434 Z" id="Shape"></path>
                </g>
                <path d="M426.183822,113.276176 C425.676391,112.047527 424.734539,111.048593 423.537838,110.469829 L400.626022,99.4048056 L393.55002,93.9725204 L383.266764,81.2236887 L379.879103,66.0092811 C379.551445,64.527164 378.612081,63.2528323 377.293255,62.5013478 L361.176807,53.3406307 L351.053914,43.1776469 C350.572924,42.6993808 350.009224,42.3122618 349.390151,42.035063 L286.327534,14.6130476 C285.321137,14.1909162 284.213222,14.0724599 283.140326,14.272277 L197.246075,31.4310819 C173.853172,29.6270019 153.366842,32.5536205 152.484847,32.6738925 C147.23297,33.5558872 147.192879,39.2487617 149.03705,41.072887 L20.4462395,66.7710037 C19.1601462,67.0184856 18.0108122,67.7323577 17.2189409,68.775537 L3.62820524,86.6559739 C2.48130832,88.1826975 2.22740072,90.2021384 2.9606604,91.9652572 C3.69392009,93.728376 5.30497978,94.9721997 7.19627449,95.2353763 C8.13840514,95.3556483 101.14875,108.10448 101.14875,164.512047 C101.14875,185.279011 86.8965179,205.725251 86.7361552,205.905659 C84.6714859,208.832278 85.9142966,213.542931 90.1639071,214.304653 L142.702725,223.786096 C146.691746,226.973304 160.061983,236.374565 179.505956,236.374565 C202.538043,236.374565 209.052776,227.654845 210.536131,220.518707 C221.961971,215.667736 236.314429,204.14167 236.314429,194.860681 C236.314429,189.067579 231.102642,185.19883 226.251672,185.19883 C225.690403,185.19883 225.189269,185.399283 224.668091,185.479465 C224.668091,185.479465 222.22256,180.94922 216.289141,180.94922 C213.743384,180.94922 210.997174,182.19203 208.852323,183.114116 C214.1042,177.060425 222.803875,169.864151 236.735381,165.233679 C258.203932,158.137631 286.187217,152.103986 300.21895,149.277594 C278.910761,211.197627 205.925704,243.711157 205.163982,244.051927 C200.814144,245.956234 201.615958,251.448655 203.379947,252.591239 L195.42195,256.179354 C189.749121,258.664975 192.154561,266.943697 198.027843,266.442564 C275.062057,259.907786 331.710168,232.926768 371.159383,184.176518 L387.035287,184.176518 C387.937327,184.176518 388.839367,183.935974 389.64118,183.515022 C405.156267,174.835393 415.579841,175.196209 415.700113,175.196209 C417.831538,175.288594 419.821037,174.129359 420.791627,172.2295 C428.489035,156.59414 436.767757,148.295372 436.847939,148.235236 C438.414123,146.717779 438.89841,144.39955 438.070704,142.381999 L426.183822,113.276176 L426.183822,113.276176 Z" id="Shape" fill="#FCB514"></path>
                <path d="M397.79963,104.015232 L389.801543,97.8613149 L378.315567,83.6291286 L374.647271,67.1919557 L357.909418,57.6704226 L347.265346,46.9862602 L284.222774,19.5642449 L197.646982,36.8633671 C174.234033,34.9189698 153.266615,37.9859057 153.266615,37.9859057 L160.563116,44.2600949 L21.5086421,72.0228809 L7.89786114,89.9233631 C7.89786114,89.9233631 106.540944,102.652149 106.540944,164.512047 C106.540944,187.343681 91.1461284,209.032731 91.1461284,209.032731 L145.048028,218.754717 C145.048028,218.754717 158.458356,230.98237 179.526001,230.98237 C204.021398,230.98237 205.604979,220.699115 205.604979,216.710093 C216.369323,213.222205 230.98237,201.375414 230.98237,194.840635 C230.98237,192.214697 228.23616,190.530889 226.291762,190.530889 C224.668091,190.530889 222.463104,191.81379 220.659024,192.615603 C221.701381,190.330435 220.238072,186.301323 216.329232,186.301323 C213.061843,186.301323 207.549376,190.91175 196.825123,191.914017 C196.825123,191.914017 205.003619,170.084649 235.071618,160.142164 C265.440298,150.059362 308.116811,142.221637 308.116811,142.221637 C290.055966,213.081888 207.328878,248.963034 207.328878,248.963034 L237.85792,242.087485 C223.705915,249.564394 197.606891,261.05037 197.606891,261.05037 C274.520833,254.515591 330.527493,228.035706 369.816346,177.321014 L372.482375,178.764278 L387.055332,178.764278 C404.41459,169.082383 415.980747,169.804015 415.980747,169.804015 C424.239424,153.006026 433.099461,144.326396 433.099461,144.326396 L421.232624,115.280709 L397.79963,104.015232 L397.79963,104.015232 Z" id="Shape" fill="#002654"></path>
                <path d="M80.6022834,103.273555 C86.1085863,106.602069 91.3373391,110.369452 96.237643,114.539032 C96.6986856,111.612413 97.3000456,108.806067 98.0016323,106.119992 C103.213419,86.2550672 113.857491,73.0652382 113.857491,73.0652382 C99.3360495,78.5422549 87.4452547,89.3435977 80.6022834,103.273555 L80.6022834,103.273555 Z" id="Shape" fill="#FFFFFF"></path>
                <path d="M292.902404,38.1462684 L282.559012,33.0747992 L249.283759,40.4514817 C249.283759,40.4514817 256.179354,48.3092522 256.179354,61.7396252 C256.179354,66.0694171 255.157042,70.2588916 253.433143,74.3080489 L268.667596,75.4907235 C268.647551,74.9695448 268.467143,74.5886835 268.467143,74.0474595 C268.467143,47.5475295 292.902404,38.1462684 292.902404,38.1462684 L292.902404,38.1462684 Z M268.647551,75.4907235 L253.433143,74.3280942 L268.647551,75.4907235 Z" id="Shape"></path>
                <path d="M269.890361,84.3507606 C269.139177,81.4613639 268.722177,78.4952826 268.647551,75.5107688 C268.627505,74.9895902 268.447097,74.6087288 268.447097,74.0675049 C268.447097,47.5675748 292.902404,38.1663137 292.902404,38.1663137 L282.559012,33.0747992 L249.283759,40.4514817 C249.283759,40.4514817 256.179354,48.3092522 256.179354,61.7396252 C256.179354,66.0694171 255.157042,70.2588916 253.433143,74.3080489 C252.006196,77.6754651 250.16811,80.8534024 247.960767,83.769446 C236.595064,98.8034456 215.026285,110.670283 193.978686,116.162704 C189.648894,117.285242 186.642094,119.009141 184.577425,121.454672 C183.700688,122.494792 182.990654,123.664657 182.472665,124.922514 L173.712854,145.348708 C147.373287,156.574095 143.123677,180.107316 145.188346,193.437462 C145.889932,174.234033 165.674676,146.892199 198.368614,152.765482 C198.368614,152.765482 202.999086,143.484493 213.302387,135.80713 C210.79672,130.174391 210.375768,123.599522 211.99944,116.56361 C212.139757,123.43916 213.863656,129.19217 216.710093,133.542007 C219.63615,131.724754 222.730802,130.19421 225.950992,128.971672 C225.008861,121.93576 226.873077,114.599168 231.423368,107.663483 C228.83752,115.120347 228.657112,121.97585 230.34092,127.548453 C233.60917,126.633676 236.959531,126.042831 240.343541,125.784464 C241.345807,117.42556 246.036415,109.888515 253.854095,103.995187 C247.960767,111.311733 245.314783,118.92896 245.615463,125.624101 C250.52657,125.744373 255.257268,126.48605 259.747423,127.849133 L271.814713,114.599168 L282.017788,103.373781 C276.178903,98.3751997 271.95766,91.7537786 269.890361,84.3507606 Z" id="Shape"></path>
                <path d="M386.734607,124.98265 L398.761806,120.753085 C398.761806,120.753085 413.014038,129.773485 419.368408,118.207328 L397.599177,107.964163 C392.189009,111.12961 386.220817,113.225623 380.01942,114.138125 C363.722564,116.483429 351.274413,109.627925 351.274413,109.627925 C337.743813,109.627925 328.502915,111.792821 320.585008,115.761797 C314.130411,118.989096 308.517718,123.399069 302.183393,128.791264 L321.186368,107.883981 L324.133032,90.5046778 C324.133032,90.5046778 330.106541,105.017499 346.543714,105.017499 C354.501711,105.017499 360.595493,100.607526 360.595493,100.607526 C378.435839,114.098035 394.772785,106.661216 394.772785,106.661216 L388.679004,101.569702 L382.845812,104.676728 L386.474017,99.2243976 L384.248985,96.6986856 L376.351124,100.767888 L381.282276,93.2709337 L379.558377,91.2864458 L372.903327,94.2130644 L376.71194,87.7183765 L374.045911,83.6090833 L371.520199,70.399209 L355.544069,62.6617105 L344.579272,52.4185454 L283.200462,27.6024233 L222.763784,41.012751 C236.99597,44.4405029 248.782626,51.8773214 248.782626,51.8773214 C248.782626,51.8773214 253.312871,62.3008945 247.419543,73.8870969 C236.490689,74.2809895 225.954813,78.0638174 217.271363,84.7115766 C203.460128,95.1351497 197.606891,109.287155 197.606891,109.287155 L188.245721,111.452051 L199.050155,86.1347952 L202.958995,76.9941235 C178.724188,80.5421474 167.799481,59.9154999 167.799481,59.9154999 L165.935265,53.6212654 L25.2972101,85.0924379 C40.471527,86.1347952 57.1893346,90.9657205 72.4438329,98.7433096 C76.0720381,86.5958379 85.0924379,77.1945768 85.0924379,77.1945768 L162.347151,59.9154999 C162.347151,59.9154999 165.394041,69.857985 178.58387,77.8159821 L178.343326,80.2414674 C172.2295,81.4642327 162.627785,85.4131633 153.467068,92.5893924 C137.336859,104.918288 128.010062,124.166891 128.330221,144.466714 C128.330221,156.954956 132.479605,167.198121 132.479605,167.198121 C132.479605,167.198121 127.307909,160.162209 124.261018,148.235236 C122.802478,142.53024 122.068386,136.664237 122.076077,130.775751 C122.076077,118.528053 125.604056,106.861669 129.593077,97.6007256 C134.744727,85.6336619 140.658101,77.6756648 140.658101,77.6756648 C140.658101,77.6756648 123.799976,84.5311686 112.213773,102.010699 C108.605613,107.442984 105.518632,113.917627 103.59428,121.514808 C111.953184,130.374845 118.167237,140.517783 120.973584,151.582807 C122.035986,155.792327 122.617301,160.162209 122.617301,164.672409 C122.617301,186.060779 113.677083,199.531243 113.677083,199.531243 L143.62481,205.625024 C143.62481,205.625024 154.950423,222.102288 179.265412,222.102288 C186.962819,222.102288 197.065667,221.240339 197.065667,216.329232 C197.065667,212.620845 187.965086,207.589467 187.965086,196.865214 C187.965086,179.44582 209.85459,161.364929 233.34772,153.627431 C260.769735,144.586986 302.704571,134.043141 323.792261,134.043141 C383.607535,134.043141 381.643092,173.532446 381.643092,173.532446 L384.549665,173.392129 C393.322677,168.383893 403.045209,165.26367 413.094219,164.231412 L414.116531,164.171276 C414.116531,164.171276 420.009859,153.146343 426.865363,145.1683 C426.805227,145.1683 417.925144,126.526141 386.734607,124.98265 L386.734607,124.98265 Z" id="Shape" fill="#FFFFFF"></path>
                <path d="M192.775966,198.869747 C194.720363,207.589467 200.553555,210.055043 201.114824,213.302387 C201.114824,213.302387 216.229005,210.19536 226.291762,195.241542 C206.707472,205.063755 192.775966,198.869747 192.775966,198.869747 L192.775966,198.869747 Z M369.936618,162.768103 C369.936618,154.208746 355.804658,146.03025 349.149607,146.03025 C321.747637,146.03025 322.108453,204.261942 225.469904,253.593506 C307.776041,241.726669 369.936618,185.740054 369.936618,162.768103 L369.936618,162.768103 Z M172.149318,57.9109666 C172.149318,57.9109666 180.969265,72.9249209 196.684806,72.9249209 L213.001707,71.8023823 L226.43208,57.7706493 L244.753514,54.9442573 C237.799124,50.865471 230.31036,47.7755124 222.503195,45.7634949 L207.168515,67.151865 L216.910547,44.4004123 C214.093661,43.7890943 211.259354,43.2610042 208.411326,42.816831 L195.241542,61.2384918 L203.399992,42.155335 C200.075578,41.7496771 196.73992,41.4421816 193.397371,41.2332497 L183.314569,55.3050733 L189.428395,41.0327963 C175.176164,40.4314363 164.772636,41.5940657 164.772636,41.5940657 L168.280569,44.6209109 L172.149318,57.9109666 L172.149318,57.9109666 Z" id="Shape" fill="#FFFFFF"></path>
                <path d="M129.593077,97.620771 C123.278797,99.1041256 117.46565,100.58748 112.213773,102.010699 C108.605613,107.442984 105.518632,113.917627 103.59428,121.514808 C111.953184,130.374845 118.167237,140.517783 120.973584,151.582807 C121.815488,150.660722 122.938026,149.498092 124.261018,148.235236 C122.802478,142.53024 122.068386,136.664237 122.076077,130.775751 C122.076077,118.528053 125.604056,106.861669 129.593077,97.620771 L129.593077,97.620771 Z M96.237643,114.539032 C96.6986856,111.612413 97.3000456,108.806067 98.0016323,106.119992 C94.6340164,107.162349 91.6673071,108.124525 89.1616405,108.946384 C91.6272164,110.730419 93.9725204,112.594635 96.237643,114.539032 L96.237643,114.539032 Z M398.761806,120.753085 C398.761806,120.753085 390.54322,117.004608 380.01942,114.138125 C363.722564,116.483429 351.274413,109.627925 351.274413,109.627925 C337.743813,109.627925 328.502915,111.792821 320.585008,115.761797 C407.862387,123.43916 418.807139,142.802951 413.034083,164.251457 L414.056395,164.191321 C414.056395,164.191321 419.949723,153.166388 426.805227,145.188346 C426.805227,145.188346 417.925144,126.546186 386.734607,125.002696 L398.761806,120.753085 L398.761806,120.753085 Z M197.586846,109.247064 L188.245721,111.452051 L199.050155,86.1347952 C182.592937,87.7384219 167.278303,90.0235898 153.487114,92.6094377 C137.339761,104.91739 128.001867,124.166101 128.330221,144.466714 C128.330221,156.954956 132.479605,167.198121 132.479605,167.198121 C129.091944,152.725391 136.989805,138.553341 136.989805,138.553341 C136.989805,138.553341 155.190967,126.927048 184.55738,121.454672 C186.622049,118.989096 189.608803,117.285242 193.958641,116.162704 C215.026285,110.690328 236.575018,98.8034456 247.940722,83.769446 C237.710704,83.7507162 227.482596,84.0515429 217.271363,84.6714859 C203.440083,95.095059 197.586846,109.247064 197.586846,109.247064 L197.586846,109.247064 Z M324.153077,90.5046778 C306.217226,87.2810322 288.091956,85.2187554 269.890361,84.3307153 C273.358204,96.658595 281.997742,103.393827 281.997742,103.393827 L271.794668,114.619213 C290.236374,114.278443 309.479894,115.040165 309.479894,115.040165 L302.183393,128.771218 L321.186368,107.863936 L324.153077,90.5046778 L324.153077,90.5046778 Z" id="Shape" fill="#FCB514"></path>
                <g id="Group" transform="translate(140.317330, 20.045333)" fill="#002654">
                    <path d="M152.585074,18.1009356 L142.241682,13.0294663 L108.966429,20.4061488 C108.966429,20.4061488 115.841979,28.2639193 115.841979,41.6942923 C115.841979,49.4718815 112.795088,56.9287453 107.643437,63.7241131 C96.2777337,78.7581127 74.7089555,90.6449951 53.661356,96.117371 C49.3315641,97.2399096 46.3247642,98.9638083 44.2600949,101.409339 C43.3833579,102.449459 42.6733244,103.619324 42.155335,104.877181 L33.3955245,125.303376 C7.05595716,136.528762 2.8063466,160.061983 4.87101588,173.392129 C5.57260253,154.1887 25.357346,126.846866 58.0512839,132.720149 C58.0512839,132.720149 62.6817558,123.459205 72.9850569,115.761797 C70.4994356,110.129059 70.0584383,103.554189 71.7021556,96.5182776 C71.8224276,103.393827 73.5663715,109.146837 76.3927635,113.496675 C79.3188203,111.679421 82.4134725,110.148877 85.6336619,108.926339 C84.6915313,101.890427 86.5557472,94.553835 91.1060378,87.6181499 C88.5201898,95.0750137 88.3397818,101.930518 90.0235898,107.50312 C93.2508884,106.621125 96.598459,105.99972 100.026211,105.739131 C101.028478,97.380227 105.719085,89.8431818 113.536765,83.949854 C107.643437,91.2664004 104.997453,98.8836269 105.298133,105.578768 C110.20924,105.69904 114.939939,106.460763 119.430093,107.8038 L131.497383,94.553835 L141.700458,83.3284486 C141.700458,83.3284486 133.040874,76.5932168 129.593077,64.2653371 C128.641453,60.9207258 128.162404,57.4594304 128.169858,53.9820814 C128.149813,27.5021967 152.585074,18.1009356 152.585074,18.1009356 M219.275896,68.9158543 C219.035352,63.5036145 219.917347,53.541084 199.831923,47.3270308 L175.857705,39.930303 C175.857705,39.930303 194.399638,56.5077933 194.399638,60.2562705 C194.386748,64.5817463 196.728415,68.5716183 200.51115,70.6694309 C204.293886,72.7672435 208.918436,72.6406647 212.580755,70.339073 L213.001707,75.2100888 C221.420747,75.8715848 231.202869,74.5485929 233.708536,63.5637505 C230.280784,71.5017023 222.663557,70.399209 219.275896,68.9158543" id="Shape"></path>
                    <path d="M224.387456,67.3723637 L227.37421,55.826252 L203.921171,44.6209109 C219.235805,53.6212654 224.387456,58.6325986 224.387456,67.3723637" id="Shape"></path>
                </g>
                <path d="M348.247568,88.5201898 C350.733189,88.5201898 352.597405,87.3375152 352.597405,87.3375152 C352.421947,86.4915008 352.228129,85.6493981 352.01609,84.8118033 C351.268135,85.2967563 350.401445,85.5671637 349.510423,85.5935712 C348.341414,85.6211025 347.211831,85.1702183 346.383097,84.3452692 C345.554364,83.52032 345.098315,82.3928114 345.120496,81.2236887 C345.140388,79.2524164 346.466182,77.5337939 348.36784,77.0141688 C347.093065,75.125779 345.474707,73.4938208 343.59705,72.2032889 C343.59705,72.2032889 339.427621,74.5285475 339.427621,79.6801981 C339.427621,84.8318486 343.737368,88.5201898 348.247568,88.5201898" id="Shape" fill="#FCB514"></path>
            </g>
        </g>
    </g>
</svg>