<svg xmlns="http://www.w3.org/2000/svg" viewBox="0 0 24 16"><g fill="#fff"><path d="M12 0C7.42 0 3.707 3.582 3.707 8S7.42 16 12 16s8.293-3.582 8.293-8S16.58 0 12 0zm6.404 13.737a.411.411 0 1 0 0 .822.411.411 0 0 0 0-.822zm0 .735a.323.323 0 1 1 .001-.647.323.323 0 0 1-.001.647z"/><path d="M18.573 14.053a.14.14 0 0 0-.14-.14h-.198v.47h.089v-.19h.063l.089.19h.097l-.093-.198a.14.14 0 0 0 .093-.132zm-.139.051h-.109V14h.109c.029 0 .052.023.052.052s-.023.052-.052.052z"/></g><path d="M12 .589C7.746.589 4.298 3.907 4.298 8S7.746 15.411 12 15.411 19.702 12.093 19.702 8 16.254.589 12 .589z" fill="#f95602"/><path d="M19.205 7.562c-.008-.122-.015-.244-.029-.364l.003-.001c-.218-1.812-1.162-3.41-2.547-4.521A7.41 7.41 0 0 0 12 1.064c-.958 0-1.871.181-2.708.505a7.3 7.3 0 0 0-1.916 1.1C5.785 3.941 4.771 5.857 4.771 8c0 3.831 3.236 6.936 7.229 6.936S19.229 11.831 19.229 8c0-.147-.007-.294-.016-.44" fill="#003893"/><path d="M11.289 11.921l.987-.235a.294.294 0 0 0 .199-.163l.613-1.304.542-1.153.381-.813.188-.4.388-.824 2.044-4.351a6.952 6.952 0 0 0-.468-.344l-1.281 2.6-1.537-3.311a.109.109 0 0 0-.101-.064h-2.667a.11.11 0 0 0-.111.111v2.168L9.292 1.569a7.3 7.3 0 0 0-1.916 1.1v4.035c0 .062.05.111.111.111h1.515c.061 0 .111-.05.111-.111V4.901l1.115 1.86a.112.112 0 0 0 .096.055h1.698a.11.11 0 0 0 .111-.111v-3.5l1.747 3.763-.209.424-1.228 2.498-.211.427a.296.296 0 0 1-.226.163l-3.319.457a.115.115 0 0 0-.074.043.114.114 0 0 0-.021.084l.202 1.327c.005.031.022.059.048.076s.058.022.088.016l.329-.078" fill="#fff"/><g fill="#f95602"><path d="M13.165 10.057l-.643-.328-.079.161.646.329zm.254-.542l-.633-.324-.079.162.637.324zm-.844.106l.641.326.076-.162-.638-.325zm-2.319 2.546l-.058-.367a.05.05 0 0 0-.037-.04l-.646-.157a.05.05 0 0 0-.06.035l-.195.766-.34 1.326a.05.05 0 0 0 .033.059l.38.124a.053.053 0 0 0 .039-.004.047.047 0 0 0 .023-.031l.099-.388.52.169.075.472a.05.05 0 0 0 .033.039l.397.129a.05.05 0 0 0 .048-.009.05.05 0 0 0 .017-.046l-.328-2.077z"/><path d="M13.672 7.392c-.445-.07-.999.225-1.389.018-.448-.014-.971.016-1.367-.194-.259-.041-.535-.038-.77-.132-.126.236-.269-.077-.419-.031a.216.216 0 0 0-.148.234c-.047.244-.343.102-.496.204-.28.159-.436-.243-.704-.239-.183-.05-.4-.027-.502.159-.157.04-.237-.165-.416-.099-.124-.077.056-.129.009-.223-.102-.111-.292-.193-.436-.099-.026.191.179.356.07.558-.106.021-.1-.134-.191-.171-.101-.049-.106.076-.161.125-.2-.009-.158-.232-.222-.354-.232-.036-.418.106-.61.19-.134.103-.046.322-.161.429-.09-.068-.081-.197-.17-.277-.075-.05-.165-.085-.258-.053-.086.021-.11.093-.128.168.002.045.047.08.096.067.057.014.102.081.075.138-.029.041-.049.122-.119.107-.076-.072-.184-.174-.291-.13-.045.04 0 .095 0 .138-.049.165.071.26.16.376.03.129.043.315-.055.409-.132.026-.166.173-.178.284.031.112.154.104.2.197.023.076-.06.134-.128.177.026.127.057.252.091.377a.554.554 0 0 1 .226-.054c.045.022.075.062.075.107.044.085.134.169.236.12.103-.044.196-.186.307-.128v1.279l.339.486c.084.123.139.093.139-.012V9.761c.178-.005.38.014.544-.052.325.023.713.113.995-.072.249-.045.481-.129.749-.128.183-.014.342.067.513.055.267-.302.646.056.962-.136.246-.125.455.094.718.054.165-.002.415-.186.558.034.12.059.29.037.393-.039.063-.231.329-.142.504-.195.116-.025.343-.143.497-.133l.032-.064.631.321.076-.162-.628-.32.752-1.532zm1.072.154c.18-.237.638.046.697-.319.07-.191.285-.12.419-.214.04-.07-.031-.12-.045-.183.175-.19.411-.323.599-.52.135-.132.345-.102.518-.105.081-.049.197-.12.215-.214l-.023-.031a1.66 1.66 0 0 0-.739.083c-.256.23-.537.396-.843.488-.209.265-.644.389-.954.496l-.388.825c.196-.052.456-.192.544-.306z"/><path d="M7.671 10.63l-.69-.622c-.267-.24-.453-.029-.453.125v.643c0 .123.041.195.097.269l.625.815a.228.228 0 0 1 .049.146v.091c0 .072-.064.066-.114.021l-.135-.115c-.05-.037-.045-.114-.045-.18v-.083c0-.044-.047-.123-.094-.161l-.312-.286c-.048-.045-.071-.007-.071.114v.372a.65.65 0 0 0 .21.425l.715.644c.174.155.323.004.323-.354v-.41a.95.95 0 0 0-.197-.548l-.525-.685s-.048-.062-.048-.143v-.071s.019-.103.102-.028l.134.12a.19.19 0 0 1 .058.139v.097a.18.18 0 0 0 .067.147l.252.226c.106.096.158.027.158-.057v-.386a.354.354 0 0 0-.106-.265zm1.166 2.66l-.379-.225v-1.887a.066.066 0 0 0-.029-.054l-.354-.21c-.02-.011-.043-.011-.062 0s-.033.032-.033.055v2.232c0 .021.012.042.03.053l.764.453a.06.06 0 0 0 .062 0 .06.06 0 0 0 .031-.054v-.31a.064.064 0 0 0-.03-.053zm4.908-1.478l-.992.197a.063.063 0 0 0-.05.061v2.23c0 .018.009.035.022.047s.032.017.051.014l.969-.174c.478-.085.478-.372.478-.434v-1.749s0-.287-.478-.192zm1.707-.666a.049.049 0 0 0-.048-.003l-.894.437a.047.047 0 0 0-.027.044v2.245a.049.049 0 0 0 .069.046l.894-.403a.047.047 0 0 0 .029-.045v-.317a.05.05 0 0 0-.022-.042.05.05 0 0 0-.047-.004l-.376.17a.049.049 0 0 1-.069-.045v-.425c0-.02.012-.037.029-.046l.456-.205a.047.047 0 0 0 .029-.045v-.319a.054.054 0 0 0-.022-.042.048.048 0 0 0-.048-.002l-.373.183c-.016.007-.033.006-.048-.003s-.023-.024-.023-.042v-.454a.05.05 0 0 1 .027-.044l.46-.225a.05.05 0 0 0 .027-.045v-.328a.047.047 0 0 0-.023-.041zm1.078.73s.28-.209.28-.589v-.588c0-.312-.2-.341-.428-.184l-.745.514a.048.048 0 0 0-.021.041v2.22c0 .019.01.035.026.044s.035.007.051-.003l.379-.258a.047.047 0 0 0 .022-.04v-.856l.078-.055.416.545a.05.05 0 0 0 .067.011l.277-.188a.052.052 0 0 0 .021-.033.044.044 0 0 0-.01-.038l-.413-.543zm1.044-2.566l-.481.531c-.123.139-.15.286-.15.456v.226c0 .158.032.301.236.344l.264.059c.085.02.132.043.132.104v.059c0 .093-.021.115-.061.154s-.129.132-.129.016v-.099c0-.082-.034-.082-.087-.029l-.304.312c-.036.032-.052.071-.052.135v.199c0 .358.185.429.373.18l.455-.601a.975.975 0 0 0 .188-.637c0-.17-.146-.24-.25-.259l-.223-.038c-.079-.015-.101-.069-.101-.146v-.121c0-.037 0-.134.064-.201l.045-.046c.047-.048.08-.047.08.039v.175c0 .036.021.057.053.023l.278-.287c.047-.049.053-.125.053-.177v-.292c.001-.302-.207-.274-.383-.079zm-3.145.3c-.562 0-1.017.153-1.017.343v.564c0 .189.455.343 1.017.343.561 0 1.017-.153 1.017-.343v-.564c-.001-.189-.457-.343-1.017-.343zm-.178-.804c.217.166.253-.151.429-.169.111-.025.204.072.274.152.264.113.582.038.796-.14.23-.098.524-.058.758-.158.156-.104.307-.227.527-.19.652-.225 1.584-.547 2.262-.785-.008-.121.015-.197 0-.317l-.271.051c-.092.343-.487.115-.653.359-.213.013-.444.03-.557.244-.068.021-.166.021-.192-.062.046-.196-.274-.265-.127-.474-.009-.089-.116-.099-.184-.071-.142.052-.152.204-.169.328-.193.035-.21-.303-.42-.224a.886.886 0 0 1-.795.244c-.547-.042-.728.671-1.195.82-.201.032-.503-.084-.722-.162l-.381.813.223-.056c.147-.034.263-.132.397-.203zm-1.873 3.228l-.354-.042c-.018-.002-.034.003-.048.015s-.021.029-.021.047v1.238l-.653-1.356c-.003-.006-.009-.011-.013-.015-.01-.011-.021-.019-.036-.02l-.514-.061a.062.062 0 0 0-.07.061v2.365c0 .031.022.058.053.062l.354.049a.064.064 0 0 0 .05-.015.064.064 0 0 0 .021-.047V12.88l.772 1.507a.063.063 0 0 0 .059.034l.396-.023a.062.062 0 0 0 .058-.062v-2.24a.06.06 0 0 0-.054-.062z"/></g><path d="M13.537 12.309l-.355.07v1.5l.377-.067c.187-.033.187-.244.187-.244V12.46c-.001 0-.001-.193-.209-.151zm2.734-1.238l-.154.107a.045.045 0 0 0-.021.04v.395c0 .019.01.035.026.044a.05.05 0 0 0 .051-.003l.107-.074a.287.287 0 0 0 .104-.214v-.23c-.001-.067-.051-.108-.113-.065zm-6.333 2.112l-.141-.889-.197.778zM6.376 9.761v-.484l-.478-.42v.934c.146-.039.326.011.478-.03z" fill="#003893"/><ellipse cx="14.429" cy="9.954" rx="1.017" ry=".343" fill="#fff"/></svg>