<svg width="512" height="512" viewBox="0 0 512 512" xmlns="http://www.w3.org/2000/svg"><title>new-york-islanders</title><g transform="translate(74 94)" fill="none" fill-rule="evenodd"><g fill="#FFF"><path d="M182.002 0C89.383 0 14.297 72.437 14.297 161.78s75.086 161.78 167.705 161.78c92.62 0 167.706-72.437 167.706-161.78S274.622 0 182.002 0zm129.505 277.796a8.311 8.311 0 1 0 0 16.623 8.311 8.311 0 0 0 0-16.623zm0 14.864a6.542 6.542 0 1 1 .02-13.084 6.542 6.542 0 0 1-.02 13.084z"/><path d="M314.925 284.187a2.831 2.831 0 0 0-2.831-2.831h-4.004v9.504h1.8v-3.842h1.274l1.8 3.842h1.961l-1.88-4.004a2.831 2.831 0 0 0 1.88-2.67zm-2.81 1.031h-2.205v-2.103h2.204c.587 0 1.052.465 1.052 1.052 0 .586-.465 1.051-1.052 1.051z"/></g><path d="M182.002 11.911C95.976 11.911 26.25 79.01 26.25 161.78c0 82.77 69.727 149.869 155.753 149.869 86.027 0 155.754-67.098 155.754-149.869 0-82.77-69.727-149.869-155.754-149.869z" fill="#F95602"/><path d="M327.706 152.923c-.162-2.468-.304-4.935-.587-7.361l.06-.02c-4.408-36.644-23.498-68.96-51.506-91.427a149.849 149.849 0 0 0-93.67-32.598c-19.374 0-37.837 3.66-54.763 10.212a147.624 147.624 0 0 0-38.746 22.245c-32.174 25.723-52.68 64.47-52.68 107.806 0 77.472 65.44 140.263 146.188 140.263 80.749 0 146.189-62.79 146.189-140.263 0-2.973-.142-5.945-.324-8.898" fill="#003893"/><path d="M167.624 241.072l19.96-4.752a5.945 5.945 0 0 0 4.024-3.296l12.397-26.37 10.96-23.317 7.705-16.44 3.802-8.09 7.846-16.663 41.335-87.988a140.587 140.587 0 0 0-9.464-6.957l-25.905 52.579-31.082-66.957a2.204 2.204 0 0 0-2.043-1.294h-53.933a2.224 2.224 0 0 0-2.245 2.245v43.842L127.24 31.729a147.624 147.624 0 0 0-38.746 22.245v81.598a2.24 2.24 0 0 0 2.244 2.244h30.637a2.253 2.253 0 0 0 2.245-2.244V99.11l22.548 37.614a2.265 2.265 0 0 0 1.942 1.113h34.337a2.224 2.224 0 0 0 2.245-2.245V64.813l35.329 76.097-4.227 8.575L190.961 200l-4.267 8.635a5.986 5.986 0 0 1-4.57 3.296l-67.119 9.241a2.326 2.326 0 0 0-1.496.87 2.305 2.305 0 0 0-.425 1.699l4.085 26.835c.101.627.445 1.193.97 1.537a2.399 2.399 0 0 0 1.78.323l6.654-1.577" fill="#FFF"/><g fill="#F95602"><path d="M205.562 203.378l-13.003-6.633L190.96 200l13.064 6.653 1.537-3.276zm5.136-10.96l-12.8-6.553-1.598 3.276 12.882 6.552 1.516-3.276zm-17.068 2.143l12.963 6.592 1.537-3.276-12.902-6.572-1.598 3.256zm-46.896 51.486l-1.172-7.422a1.011 1.011 0 0 0-.749-.808l-13.063-3.175a1.011 1.011 0 0 0-1.214.707l-3.943 15.49-6.876 26.816c-.12.51.17 1.029.668 1.193l7.684 2.508c.264.074.546.046.789-.081a.95.95 0 0 0 .465-.627l2.002-7.846 10.516 3.417 1.516 9.545c.062.365.318.668.668.789l8.028 2.609c.333.112.7.043.97-.182.27-.23.4-.582.344-.93l-6.633-42.003z"/><path d="M215.815 149.485c-9-1.416-20.203 4.55-28.09.364-9.06-.283-19.636.323-27.644-3.923-5.237-.83-10.819-.769-15.571-2.67-2.548 4.773-5.44-1.557-8.473-.627a4.368 4.368 0 0 0-2.993 4.732c-.95 4.935-6.936 2.063-10.03 4.126-5.663 3.215-8.818-4.914-14.237-4.833-3.7-1.012-8.09-.546-10.152 3.215-3.175.809-4.793-3.337-8.412-2.002-2.508-1.557 1.132-2.609.182-4.51-2.063-2.244-5.905-3.903-8.817-2.002-.526 3.863 3.62 7.2 1.415 11.284-2.143.425-2.022-2.71-3.862-3.458-2.043-.99-2.144 1.537-3.256 2.528-4.045-.182-3.195-4.691-4.49-7.159-4.691-.728-8.453 2.144-12.335 3.843-2.71 2.083-.93 6.511-3.256 8.675-1.82-1.375-1.638-3.984-3.438-5.601-1.517-1.012-3.337-1.72-5.217-1.072-1.74.424-2.225 1.88-2.589 3.397.04.91.95 1.618 1.942 1.355 1.152.283 2.062 1.638 1.516 2.79-.586.83-.99 2.468-2.406 2.165-1.537-1.456-3.721-3.52-5.885-2.63-.91.81 0 1.922 0 2.791-.99 3.337 1.436 5.258 3.236 7.604.606 2.609.87 6.37-1.113 8.271-2.669.526-3.357 3.498-3.6 5.743.628 2.265 3.115 2.103 4.045 3.984.465 1.537-1.213 2.71-2.588 3.58a122.987 122.987 0 0 0 1.84 7.623 11.203 11.203 0 0 1 4.57-1.092c.91.445 1.517 1.254 1.517 2.164.89 1.719 2.71 3.418 4.772 2.427 2.083-.89 3.964-3.762 6.209-2.589v25.865l6.855 9.828c1.699 2.487 2.811 1.88 2.811-.243v-36.036c3.6-.101 7.685.283 11.001-1.052 6.573.465 14.419 2.285 20.122-1.456 5.035-.91 9.727-2.608 15.146-2.588 3.701-.283 6.916 1.355 10.374 1.112 5.4-6.107 13.064 1.132 19.454-2.75 4.975-2.528 9.202 1.9 14.52 1.092 3.337-.04 8.393-3.762 11.284.687 2.427 1.193 5.865.749 7.948-.788 1.274-4.672 6.653-2.872 10.192-3.944 2.346-.505 6.936-2.892 10.05-2.69l.648-1.294 12.76 6.492 1.537-3.276-12.7-6.471 15.208-30.981zm21.678 3.114c3.64-4.793 12.902.93 14.095-6.451 1.416-3.862 5.764-2.427 8.473-4.328.81-1.415-.627-2.426-.91-3.7 3.54-3.843 8.312-6.532 12.114-10.516 2.73-2.67 6.976-2.063 10.475-2.123 1.638-.991 3.984-2.427 4.348-4.328l-.465-.627a33.57 33.57 0 0 0-14.945 1.679c-5.177 4.65-10.86 8.008-17.047 9.868-4.227 5.36-13.024 7.867-19.293 10.03l-7.846 16.684c3.964-1.052 9.221-3.883 11.001-6.188z"/><path d="M94.46 214.965l-13.954-12.578c-5.4-4.854-9.161-.587-9.161 2.528v13.003c0 2.487.83 3.943 1.962 5.44l12.639 16.48a4.61 4.61 0 0 1 .99 2.953v1.84c0 1.457-1.294 1.335-2.305.425l-2.73-2.325c-1.011-.749-.91-2.306-.91-3.64v-1.679c0-.89-.95-2.487-1.9-3.256l-6.31-5.783c-.97-.91-1.436-.142-1.436 2.305v7.523a13.145 13.145 0 0 0 4.247 8.594L90.05 259.82c3.519 3.134 6.532.08 6.532-7.16v-8.29a19.211 19.211 0 0 0-3.984-11.082l-10.617-13.853s-.97-1.253-.97-2.891v-1.436s.384-2.083 2.062-.566l2.71 2.426a3.842 3.842 0 0 1 1.173 2.811v1.962a3.64 3.64 0 0 0 1.355 2.972l5.096 4.57c2.143 1.942 3.195.547 3.195-1.152v-7.806a7.159 7.159 0 0 0-2.144-5.359zm23.579 53.792l-7.665-4.55v-38.16a1.335 1.335 0 0 0-.586-1.092l-7.159-4.247a1.261 1.261 0 0 0-1.254 0c-.384.223-.667.647-.667 1.113v45.136c0 .425.243.85.607 1.072l15.45 9.16c.385.233.868.233 1.254 0 .396-.218.637-.639.626-1.091v-6.27a1.294 1.294 0 0 0-.606-1.071zm99.252-29.889l-20.061 3.984a1.274 1.274 0 0 0-1.011 1.234v45.096c0 .364.182.708.445.95.263.243.647.344 1.031.283l19.596-3.518c9.666-1.72 9.666-7.523 9.666-8.777v-35.37s0-5.803-9.666-3.882zm34.52-13.468a.99.99 0 0 0-.971-.06l-18.079 8.837a.95.95 0 0 0-.546.89v45.399a.99.99 0 0 0 1.395.93l18.08-8.15a.95.95 0 0 0 .586-.91v-6.41a1.011 1.011 0 0 0-.445-.85 1.011 1.011 0 0 0-.95-.08l-7.604 3.437a.99.99 0 0 1-1.396-.91v-8.594c0-.405.243-.748.587-.93l9.221-4.146a.95.95 0 0 0 .587-.91v-6.45a1.092 1.092 0 0 0-.445-.85.97.97 0 0 0-.97-.04l-7.544 3.7a1.033 1.033 0 0 1-.97-.06c-.304-.183-.466-.486-.466-.85v-9.181c.003-.375.213-.717.546-.89l9.303-4.55c.339-.176.55-.528.546-.91v-6.633a.95.95 0 0 0-.465-.829zm21.8 14.762s5.662-4.226 5.662-11.91V216.36c0-6.31-4.045-6.896-8.656-3.721l-15.065 10.394a.97.97 0 0 0-.425.83v44.893c0 .384.202.708.526.89.323.182.708.141 1.031-.06l7.665-5.218a.95.95 0 0 0 .444-.81v-17.31l1.578-1.112 8.412 11.021c.325.417.915.514 1.355.223l5.602-3.802c.223-.159.375-.398.425-.667a.89.89 0 0 0-.203-.769l-8.352-10.98zm21.112-51.89l-9.727 10.738c-2.488 2.81-3.034 5.783-3.034 9.221v4.57c0 3.196.647 6.087 4.773 6.957l5.339 1.193c1.718.404 2.669.87 2.669 2.103v1.193c0 1.881-.425 2.326-1.234 3.115-.809.788-2.608 2.669-2.608.323v-2.002c0-1.658-.688-1.658-1.76-.586l-6.147 6.31c-.728.646-1.052 1.435-1.052 2.73v4.023c0 7.24 3.741 8.676 7.543 3.64l9.201-12.153a19.717 19.717 0 0 0 3.802-12.882c0-3.438-2.952-4.853-5.055-5.238l-4.51-.768c-1.598-.303-2.043-1.395-2.043-2.953v-2.447c0-.748 0-2.71 1.295-4.064l.91-.93c.95-.971 1.617-.95 1.617.788v3.54c0 .727.425 1.152 1.072.464l5.622-5.804c.95-.99 1.072-2.527 1.072-3.579v-5.905c.02-6.107-4.186-5.54-7.745-1.598zm-63.6 6.066c-11.365 0-20.566 3.094-20.566 6.937v11.405c0 3.822 9.2 6.936 20.566 6.936 11.345 0 20.566-3.094 20.566-6.936v-11.405c-.02-3.823-9.241-6.937-20.566-6.937zm-3.6-16.259c4.389 3.357 5.117-3.053 8.676-3.417 2.244-.506 4.125 1.456 5.54 3.074 5.34 2.285 11.77.768 16.098-2.832 4.651-1.981 10.596-1.173 15.329-3.195 3.154-2.103 6.208-4.59 10.657-3.842 13.185-4.55 32.032-11.062 45.743-15.875-.162-2.447.303-3.984 0-6.41l-5.48 1.031c-1.86 6.936-9.849 2.326-13.206 7.26-4.307.263-8.978.607-11.263 4.934-1.376.425-3.357.425-3.883-1.254.93-3.963-5.541-5.358-2.568-9.585-.182-1.8-2.346-2.002-3.721-1.436-2.872 1.052-3.074 4.126-3.418 6.633-3.903.708-4.247-6.127-8.493-4.53a17.917 17.917 0 0 1-16.077 4.935c-11.062-.85-14.722 13.569-24.166 16.582-4.065.647-10.172-1.699-14.6-3.276l-7.706 16.441 4.51-1.132c2.973-.688 5.319-2.67 8.028-4.106zm-37.876 65.279l-7.16-.85c-.363-.04-.687.06-.97.304a1.23 1.23 0 0 0-.425.95v25.035l-13.205-27.421c-.06-.122-.182-.223-.263-.304-.202-.222-.424-.384-.728-.404l-10.394-1.234a1.254 1.254 0 0 0-1.416 1.234v47.826c0 .627.445 1.173 1.072 1.254l7.159.99c.365.048.732-.062 1.011-.302.268-.244.422-.589.425-.95v-29.02l15.611 30.475c.23.443.696.712 1.194.688l8.008-.465a1.254 1.254 0 0 0 1.173-1.254V244.61a1.213 1.213 0 0 0-1.092-1.253z"/></g><path d="M213.084 248.919l-7.179 1.415v30.334l7.624-1.355c3.782-.667 3.782-4.934 3.782-4.934v-22.407c-.02 0-.02-3.903-4.227-3.053zm55.289-25.036l-3.114 2.164a.91.91 0 0 0-.425.809v7.988c0 .384.202.708.526.89.329.17.724.147 1.031-.061l2.164-1.496a5.804 5.804 0 0 0 2.103-4.328v-4.651c-.02-1.355-1.031-2.184-2.285-1.315zm-128.07 42.71l-2.85-17.978-3.985 15.734 6.836 2.244zm-72.032-69.201v-9.788l-9.666-8.493v18.887c2.952-.788 6.592.223 9.666-.606z" fill="#003893"/><ellipse fill="#FFF" cx="231.123" cy="201.295" rx="20.566" ry="6.936"/></g></svg>