<?xml version="1.0" encoding="UTF-8"?>
<svg width="512px" height="512px" viewBox="0 0 512 512" version="1.1" xmlns="http://www.w3.org/2000/svg" xmlns:xlink="http://www.w3.org/1999/xlink">
    <!-- Generator: Sketch 41.2 (35397) - http://www.bohemiancoding.com/sketch -->
    <title>new-york-islanders</title>
    <desc>Created with Sketch.</desc>
    <defs></defs>
    <g id="NHL" stroke="none" stroke-width="1" fill="none" fill-rule="evenodd">
        <g id="new-york-islanders">
            <g id="nyi" transform="translate(74.000000, 94.000000)">
                <g id="Group" fill="#FFFFFF">
                    <path d="M182.002499,0 C89.3834493,0 14.2973074,72.4369945 14.2973074,161.779999 C14.2973074,251.123003 89.3834493,323.559998 182.002499,323.559998 C274.621548,323.559998 349.70769,251.123003 349.70769,161.779999 C349.70769,72.4369945 274.621548,0 182.002499,0 Z M311.507388,277.79648 C306.917102,277.79648 303.19594,281.517642 303.19594,286.107928 C303.19594,290.698214 306.917102,294.419375 311.507388,294.419375 C316.097673,294.419375 319.818835,290.698214 319.818835,286.107928 C319.818835,281.517642 316.097673,277.79648 311.507388,277.79648 Z M311.507388,292.660018 C309.170164,292.656406 307.012407,291.406174 305.846923,289.380272 C304.681439,287.35437 304.685294,284.860582 305.857034,282.838293 C307.028775,280.816004 309.190386,279.572448 311.52761,279.57606 C315.140645,279.581645 318.065062,282.515115 318.059478,286.12815 C318.053893,289.741185 315.120423,292.665602 311.507388,292.660018 L311.507388,292.660018 Z" id="Shape"></path>
                    <path d="M314.92499,284.18679 C314.92499,282.623189 313.657441,281.35564 312.09384,281.35564 L308.089785,281.35564 L308.089785,290.860215 L309.889588,290.860215 L309.889588,287.01794 L311.163605,287.01794 L312.963408,290.860215 L314.92499,290.860215 L313.044298,286.85616 C314.172862,286.453943 314.92606,285.384887 314.92499,284.18679 L314.92499,284.18679 Z M312.114063,285.218138 L309.90981,285.218138 L309.90981,283.114998 L312.114063,283.114998 C312.700515,283.114998 313.165633,283.580115 313.165633,284.166568 C313.165633,284.75302 312.700515,285.218138 312.114063,285.218138 L312.114063,285.218138 Z" id="Shape"></path>
                </g>
                <path d="M182.002499,11.9110524 C95.9759843,11.9110524 26.2488048,79.0093069 26.2488048,161.779999 C26.2488048,244.550691 95.9759843,311.648945 182.002499,311.648945 C268.029013,311.648945 337.756192,244.550691 337.756192,161.779999 C337.756192,79.0093069 268.029013,11.9110524 182.002499,11.9110524 Z" id="Shape" fill="#F95602"></path>
                <path d="M327.70561,152.922544 C327.54383,150.455399 327.402273,147.988254 327.119158,145.561554 L327.179825,145.541331 C322.77132,108.898162 303.68128,76.5826069 275.673118,54.1154096 C249.055042,32.9316234 216.021142,21.4353697 182.002499,21.5167398 C162.629344,21.5167398 144.166201,25.1770123 127.239969,31.7291023 C113.270785,37.1353614 100.205758,44.6361595 88.4936593,53.9738521 C56.3196621,79.6968719 35.8140472,118.443182 35.8140472,161.779999 C35.8140472,239.252396 101.254057,302.043258 182.002499,302.043258 C262.750941,302.043258 328.19095,239.252396 328.19095,161.779999 C328.19095,158.807291 328.049393,155.834584 327.86739,152.882099" id="Shape" fill="#003893"></path>
                <path d="M167.624301,241.072421 L187.583909,236.320133 C189.360343,235.897652 190.844116,234.682301 191.608186,233.023866 L204.004578,206.653726 L214.965173,183.337184 L222.669946,166.896291 L226.471776,158.807291 L234.318106,142.143951 L275.652895,54.1558546 C272.596473,51.7061778 269.439008,49.3853061 266.188765,47.1993146 L240.283743,99.7778142 L209.201761,32.8211173 C208.839425,32.0214555 208.037101,31.5130521 207.159288,31.5268773 L153.225881,31.5268773 C152.628896,31.521425 152.054775,31.756168 151.632625,32.1783181 C151.210475,32.6004683 150.975732,33.1745892 150.981184,33.7715747 L150.981184,77.6139544 L127.239969,31.7291023 C113.270785,37.1353614 100.205758,44.6361595 88.4936593,53.9738521 L88.4936593,135.571639 C88.4936593,136.825434 89.5047843,137.816336 90.7383568,137.816336 L121.375444,137.816336 C122.609017,137.816336 123.620142,136.805211 123.620142,135.571639 L123.620142,99.1104718 L146.168229,136.724321 C146.574276,137.411128 147.311737,137.833631 148.109589,137.836559 L182.447394,137.836559 C183.044379,137.842011 183.6185,137.607268 184.04065,137.185118 C184.4628,136.762968 184.697543,136.188847 184.692091,135.591861 L184.692091,64.813112 L220.020798,140.910379 L215.794296,149.484719 L190.961066,200.000523 L186.694119,208.635531 C185.815464,210.427482 184.101514,211.663649 182.123834,211.931798 L115.005357,221.173481 C114.413236,221.26001 113.877259,221.571456 113.508892,222.043048 C113.149444,222.531394 112.996869,223.141693 113.084219,223.741738 L117.169164,250.576996 C117.270277,251.203893 117.614059,251.770123 118.139844,252.113906 C118.665629,252.457688 119.312749,252.558801 119.919424,252.437466 L126.572627,250.860111" id="Shape" fill="#FFFFFF"></path>
                <g id="Group" transform="translate(20.222500, 101.112499)" fill="#F95602">
                    <path d="M185.339211,102.265182 L172.336144,95.6322018 L170.738566,98.8880243 L183.802301,105.541227 L185.339211,102.265182 Z M190.475726,91.3045868 L177.674884,84.7524969 L176.077306,88.0285418 L188.959039,94.5806318 L190.475726,91.3045868 Z M173.407936,93.4481718 L186.370559,100.040707 L187.907469,96.7646618 L175.005514,90.1923493 L173.407936,93.4481718 Z M126.511959,144.934656 L125.339054,137.512999 C125.271375,137.119212 124.978149,136.802211 124.590822,136.704099 L111.527087,133.529166 C110.998019,133.399796 110.461546,133.712739 110.313737,134.236954 L106.370349,149.727389 L99.4946992,176.542424 C99.3738621,177.053044 99.6637052,177.571248 100.162042,177.735551 L107.846592,180.243141 C108.11016,180.317975 108.392379,180.289029 108.635269,180.162251 C108.872925,180.02953 109.04227,179.801282 109.100387,179.535354 L111.102414,171.689024 L121.618114,175.106626 L123.134802,184.651646 C123.196018,185.016919 123.452042,185.319493 123.802144,185.440324 L131.830477,188.049026 C132.163674,188.161247 132.531245,188.092327 132.801156,187.867024 C133.070389,187.638294 133.20072,187.285632 133.144939,186.936789 L126.511959,144.934656 L126.511959,144.934656 Z" id="Shape"></path>
                    <path d="M195.592019,48.3722196 C186.593006,46.9566446 175.389741,52.9222821 167.502966,48.7362246 C158.443286,48.4531096 147.866919,49.0597846 139.858809,44.8130597 C134.621181,43.9839372 129.039772,44.0446047 124.287484,42.1436897 C121.739449,46.9161996 118.847632,40.5865572 115.814257,41.5167922 C113.803913,42.1633042 112.543948,44.1554098 112.821327,46.2488572 C111.870869,51.1831471 105.885009,48.3115521 102.790967,50.3742471 C97.1286668,53.5896246 93.9739568,45.4601797 88.5543268,45.5410697 C84.8536094,44.5299447 80.4653269,44.9950622 78.4026319,48.7564471 C75.2276994,49.5653471 73.6098994,45.4197347 69.990072,46.7544196 C67.482482,45.1972872 71.122532,44.1457172 70.1720745,42.2448022 C68.1093795,40.0001047 64.2671045,38.3418597 61.3550645,40.2427747 C60.8292795,44.1052722 64.974892,47.4419846 62.7706395,51.5269296 C60.6270545,51.9516021 60.7483895,48.8171146 58.9081421,48.0688821 C56.8656696,47.0779796 56.7645571,49.6057921 55.6523196,50.5966946 C51.6078196,50.4146921 52.4571646,45.9050747 51.1629246,43.4379297 C46.4713046,42.7099197 42.7099197,45.5815147 38.8271997,47.2802046 C36.1173847,49.3631221 37.8969647,53.7918496 35.5713772,55.9556571 C33.7513522,54.5805271 33.9333547,51.9718246 32.1335523,50.3540246 C30.6168648,49.3428996 28.7968398,48.6351121 26.9161473,49.2822321 C25.1770123,49.7069046 24.6916723,51.1629246 24.3276673,52.6796121 C24.3681123,53.5896246 25.2781248,54.2974121 26.2690273,54.0345196 C27.4217098,54.3176346 28.3317223,55.6725421 27.7857148,56.8252246 C27.1992623,57.6543471 26.7948123,59.2923696 25.3792373,58.9890321 C23.8423273,57.5330121 21.6582973,55.4703171 19.4944899,56.3601071 C18.5844774,57.1690071 19.4944899,58.2812446 19.4944899,59.1508121 C18.5035874,62.4875245 20.9302873,64.408662 22.7300898,66.754472 C23.3367648,69.3631745 23.5996573,73.1245594 21.6178523,75.0254744 C18.9484824,75.5512594 18.2609174,78.5239669 18.0182474,80.7686644 C18.6451449,83.0335844 21.1325123,82.8718044 22.0627473,84.7524969 C22.5278648,86.2894068 20.8493973,87.4623118 19.4742674,88.3318793 C20.0000523,90.9001368 20.6269498,93.4279493 21.3145148,95.9557618 C22.7436197,95.2727749 24.3013053,94.9005846 25.8847998,94.8637468 C26.7948123,95.3086418 27.4014873,96.1175418 27.4014873,97.0275543 C28.2912773,98.7464668 30.1113023,100.445157 32.1739973,99.4542542 C34.2569147,98.5644643 36.1376072,95.6928693 38.3823047,96.8657743 L38.3823047,122.730352 L45.2377322,132.558486 C46.9364221,135.045854 48.0486596,134.439179 48.0486596,132.315817 L48.0486596,96.2793218 C51.6482646,96.1782093 55.7332096,96.5624368 59.0496996,95.2277518 C65.622012,95.6928693 73.4683419,97.5128943 79.1710869,93.7717318 C84.2064894,92.8617193 88.8981093,91.1630293 94.3177393,91.1832518 C98.0184568,90.9001368 101.233834,92.5381593 104.691882,92.2954893 C110.091289,86.1882943 117.755617,93.4279493 124.145927,89.5452293 C129.120662,87.0174168 133.347164,91.4461443 138.665681,90.6372443 C142.002394,90.5967993 147.058019,86.8758593 149.949836,91.3248093 C152.376536,92.5179368 155.814361,92.0730418 157.897279,90.5361318 C159.171296,85.8647344 164.550481,87.6645368 168.089419,86.5927443 C170.435229,86.0871819 175.025736,83.7009269 178.140001,83.9031519 L178.787121,82.6089119 L191.547519,89.1003343 L193.084429,85.8242894 L180.384699,79.3530894 L195.592019,48.3722196 L195.592019,48.3722196 Z M217.270538,51.4864846 C220.910588,46.6937521 230.172493,52.4167196 231.365621,45.0355072 C232.781196,41.1730097 237.129033,42.6088072 239.838848,40.7078922 C240.647748,39.2923172 239.211951,38.2811922 238.928836,37.0071747 C242.467773,33.1648997 247.240283,30.4753073 251.042113,26.4914748 C253.772151,23.8221048 258.018876,24.4287798 261.517368,24.3681123 C263.155391,23.3772098 265.5012,21.9414123 265.865205,20.0404973 L265.400088,19.4135999 C260.35578,18.8357316 255.246104,19.4096195 250.455661,21.0920673 C245.278701,25.7432423 239.596178,29.1001773 233.408093,30.9606473 C229.181591,36.3196097 220.384803,38.8271997 214.115828,40.9910072 L206.269498,57.6745696 C210.233108,56.6229996 215.490958,53.7918496 217.270538,51.4864846 L217.270538,51.4864846 Z" id="Shape"></path>
                    <path d="M74.2367969,113.852674 L60.283272,101.274279 C54.8838646,96.4208793 51.1224796,100.687827 51.1224796,103.802092 L51.1224796,116.805159 C51.1224796,119.292527 51.9516021,120.748547 53.0840621,122.245012 L65.7231245,138.726349 C66.3858656,139.565795 66.7361609,140.609532 66.714027,141.678834 L66.714027,143.519081 C66.714027,144.975101 65.419787,144.853766 64.408662,143.943754 L61.6786245,141.618166 C60.6674995,140.869934 60.768612,139.312801 60.768612,137.978116 L60.768612,136.299649 C60.768612,135.409859 59.8181545,133.812281 58.8676971,133.043826 L52.5582771,127.260192 C51.5875971,126.350179 51.1224796,127.118634 51.1224796,129.565557 L51.1224796,137.088326 C51.4056471,140.385633 52.9221704,143.454787 55.3692046,145.682889 L69.828292,158.706179 C73.3470069,161.840666 76.3601594,158.787069 76.3601594,151.547414 L76.3601594,143.256189 C76.2250464,139.236254 74.831617,135.360115 72.376327,132.174259 L61.7595145,118.321847 C61.7595145,118.321847 60.7888345,117.068052 60.7888345,115.430029 L60.7888345,113.994232 C60.7888345,113.994232 61.173062,111.911314 62.8515295,113.428002 L65.5613445,115.854702 C66.3228525,116.590089 66.7472098,117.607083 66.7342495,118.665629 L66.7342495,120.627212 C66.6908884,121.77652 67.1932486,122.878713 68.089157,123.599919 L73.1852269,128.170204 C75.3288119,130.111564 76.3803819,128.716212 76.3803819,127.017522 L76.3803819,119.211637 C76.4495331,117.203656 75.6716864,115.259039 74.2367969,113.852674 L74.2367969,113.852674 Z M97.8162318,167.644524 L90.1519043,163.094461 L90.1519043,124.934604 C90.1475508,124.496395 89.9283577,124.088242 89.5654518,123.842589 L82.4066869,119.595864 C82.0022369,119.373417 81.5371194,119.373417 81.1528919,119.595864 C80.7686644,119.818312 80.4855494,120.242984 80.4855494,120.708102 L80.4855494,165.844721 C80.4855494,166.269394 80.7282194,166.694066 81.0922244,166.916514 L96.5422143,176.077306 C96.9277655,176.309967 97.410458,176.309967 97.7960093,176.077306 C98.1922776,175.8587 98.4339491,175.437724 98.4229068,174.985291 L98.4229068,168.716316 C98.414517,168.279563 98.1863747,167.876511 97.8162318,167.644524 L97.8162318,167.644524 Z M197.068261,137.755669 L177.007541,141.739501 C176.422955,141.862751 176.002531,142.375667 175.996416,142.973074 L175.996416,188.069249 C175.996416,188.433254 176.178419,188.777036 176.441311,189.019706 C176.704204,189.262376 177.088431,189.363489 177.472659,189.302821 L197.068261,185.784106 C206.734616,184.065194 206.734616,178.261336 206.734616,177.007541 L206.734616,141.638389 C206.734616,141.638389 206.734616,135.834531 197.068261,137.755669 L197.068261,137.755669 Z M231.588068,124.287484 C231.297368,124.098944 230.929302,124.07594 230.617388,124.226817 L212.538473,133.064049 C212.195295,133.2252 211.980712,133.574889 211.992466,133.953839 L211.992466,179.353351 C211.983608,179.693698 212.150098,180.014759 212.433379,180.203613 C212.71666,180.392467 213.077059,180.422665 213.387818,180.283586 L231.466733,172.133919 C231.832754,171.982431 232.066439,171.619816 232.053186,171.223906 L232.053186,164.813374 C232.057082,164.473474 231.889928,164.154363 231.608291,163.964029 C231.324897,163.779926 230.968263,163.749574 230.657833,163.883139 L223.054173,167.320964 C222.746725,167.458431 222.390502,167.43033 222.10841,167.246357 C221.826319,167.062384 221.65698,166.747728 221.658821,166.410951 L221.658821,157.816389 C221.658821,157.411939 221.901491,157.068156 222.245273,156.886154 L231.466733,152.740541 C231.832754,152.589053 232.066439,152.226438 232.053186,151.830529 L232.053186,145.379551 C232.043754,145.04299 231.879596,144.729597 231.608291,144.530206 C231.31524,144.344126 230.945126,144.328704 230.637611,144.489761 L223.094618,148.190479 C222.771058,148.332036 222.427276,148.311814 222.123938,148.129811 C221.820601,147.947809 221.658821,147.644471 221.658821,147.280466 L221.658821,138.099451 C221.661796,137.724568 221.871946,137.382101 222.204828,137.209661 L231.507178,132.659599 C231.846534,132.483825 232.057788,132.131735 232.053186,131.749587 L232.053186,125.116607 C232.057431,124.776979 231.880117,124.460898 231.588068,124.287484 L231.588068,124.287484 Z M253.387923,139.049909 C253.387923,139.049909 259.050223,134.823406 259.050223,127.138857 L259.050223,115.248027 C259.050223,108.938607 255.005723,108.352154 250.394993,111.527087 L235.329231,121.921452 C235.05564,122.107407 234.895587,122.419892 234.904558,122.750574 L234.904558,167.644524 C234.904558,168.028751 235.106783,168.352311 235.430343,168.534314 C235.753903,168.716316 236.138131,168.675871 236.461691,168.473646 L244.126018,163.256241 C244.404098,163.08157 244.572312,162.775726 244.570913,162.447341 L244.570913,145.136881 L246.148268,144.024644 L254.560828,155.045906 C254.885169,155.462343 255.475269,155.559225 255.915736,155.268354 L261.517368,151.466524 C261.740383,151.307824 261.892731,151.068421 261.942041,150.799181 C261.999105,150.525484 261.924209,150.240882 261.739816,150.030726 L253.387923,139.049909 L253.387923,139.049909 Z M274.500213,87.1589743 L264.773191,97.8971218 C262.285823,100.708049 261.739816,103.680757 261.739816,107.118582 L261.739816,111.688867 C261.739816,114.884022 262.386936,117.775839 266.512325,118.645407 L271.851065,119.838534 C273.569978,120.242984 274.520435,120.708102 274.520435,121.941674 L274.520435,123.134802 C274.520435,125.015494 274.095763,125.460389 273.286863,126.249067 C272.477963,127.037744 270.67816,128.918437 270.67816,126.572627 L270.67816,124.570599 C270.67816,122.912354 269.990595,122.912354 268.918803,123.984147 L262.771163,130.293567 C262.043153,130.940687 261.719593,131.729364 261.719593,133.023604 L261.719593,137.047881 C261.719593,144.287536 265.460755,145.723334 269.262585,140.687931 L278.463823,128.534209 C281.199607,124.817553 282.54499,120.258996 282.265653,115.652477 C282.265653,112.214652 279.313168,110.799077 277.210028,110.414849 L272.70041,109.646394 C271.102833,109.343057 270.657938,108.251042 270.657938,106.693909 L270.657938,104.246987 C270.657938,103.498754 270.657938,101.537172 271.952178,100.182264 L272.86219,99.2520293 C273.812648,98.2813493 274.47999,98.3015718 274.47999,100.040707 L274.47999,103.579644 C274.47999,104.307654 274.904663,104.732327 275.551783,104.044762 L281.173638,98.2409043 C282.124095,97.2500018 282.24543,95.7130918 282.24543,94.6615218 L282.24543,88.7565518 C282.265653,82.6493569 278.059373,83.2155869 274.500213,87.1589743 L274.500213,87.1589743 Z M210.900451,93.2257243 C199.535406,93.2257243 190.334169,96.3197668 190.334169,100.162042 L190.334169,111.567532 C190.334169,115.389584 199.535406,118.503849 210.900451,118.503849 C222.245273,118.503849 231.466733,115.409807 231.466733,111.567532 L231.466733,100.162042 C231.446511,96.3399893 222.225051,93.2257243 210.900451,93.2257243 Z M207.300846,76.9668344 C211.689128,80.3237694 212.417138,73.9132369 215.976298,73.5492319 C218.220996,73.0436694 220.101688,75.0052519 221.517263,76.6230519 C226.856003,78.9081944 233.286758,77.3915069 237.614373,73.7919019 C242.265548,71.810097 248.210963,72.618997 252.943028,70.596747 C256.097738,68.493607 259.151336,66.0062395 263.600286,66.754472 C276.785355,62.2044095 295.632725,55.6927646 309.34358,50.8798096 C309.1818,48.4328871 309.646918,46.8959771 309.34358,44.4692772 L303.863283,45.5006247 C302.002813,52.4369421 294.014925,47.8262121 290.65799,52.7605021 C286.350598,53.0233946 281.6792,53.3671771 279.394058,57.6947921 C278.018928,58.1194646 276.037123,58.1194646 275.511338,56.4409971 C276.441573,52.4773871 269.970373,51.0820346 272.94308,46.8555321 C272.761078,45.0557297 270.59727,44.8535047 269.22214,45.4197347 C266.350545,46.4713046 266.14832,49.5451246 265.804538,52.0527146 C261.901596,52.7605021 261.557813,45.9252972 257.311088,47.5228746 C253.104822,51.7366559 247.080134,53.5857427 241.234201,52.4571646 C230.172493,51.6078196 226.512221,66.026462 217.068313,69.0396145 C213.003591,69.6867345 206.896396,67.3409245 202.467668,65.7635695 L194.762896,82.2044619 L199.272513,81.0720019 C202.245221,80.3844369 204.591031,78.4026319 207.300846,76.9668344 Z M169.424104,142.245064 L162.265339,141.395719 C161.901334,141.355274 161.577774,141.456386 161.294659,141.699056 C161.011544,141.941726 160.869986,142.285509 160.869986,142.649514 L160.869986,167.684969 L147.664694,140.263259 C147.604026,140.141924 147.482691,140.040811 147.401801,139.959921 C147.199576,139.737474 146.977129,139.575694 146.673791,139.555471 L136.279426,138.321899 C135.923392,138.275561 135.564574,138.38408 135.293893,138.61996 C135.023211,138.85584 134.86664,139.196445 134.863851,139.555471 L134.863851,187.381684 C134.863851,188.008581 135.308746,188.554589 135.935644,188.635479 L143.094409,189.626381 C143.459244,189.673564 143.826919,189.563261 144.105534,189.323044 C144.373884,189.07963 144.527921,188.73488 144.530206,188.372586 L144.530206,159.353299 L160.141976,189.828606 C160.370894,190.271505 160.837121,190.540178 161.335104,190.516171 L169.343214,190.051054 C170.00389,190.008342 170.517498,189.459313 170.516119,188.797259 L170.516119,143.498859 C170.540664,142.858009 170.062256,142.308726 169.424104,142.245064 L169.424104,142.245064 Z" id="Shape"></path>
                </g>
                <path d="M213.084481,248.918751 L205.905493,250.334326 L205.905493,280.668075 L213.529376,279.313168 C217.310983,278.645825 217.310983,274.378878 217.310983,274.378878 L217.310983,251.972348 C217.290761,251.972348 217.290761,248.069406 213.084481,248.918751 L213.084481,248.918751 Z M268.372795,223.883296 L265.25853,226.047103 C264.982075,226.220995 264.820005,226.529699 264.833858,226.856003 L264.833858,234.843891 C264.833858,235.228118 265.036083,235.551678 265.359643,235.733681 C265.688591,235.903872 266.084264,235.880597 266.39099,235.673013 L268.554798,234.176548 C269.848946,233.106232 270.616028,231.527814 270.657938,229.848933 L270.657938,225.197758 C270.637715,223.842851 269.62659,223.013728 268.372795,223.883296 L268.372795,223.883296 Z M140.303704,266.593215 L137.452331,248.615413 L133.468499,264.348518 L140.303704,266.593215 Z M68.2711595,197.391821 L68.2711595,187.604131 L58.6048046,179.110681 L58.6048046,197.998496 C61.5572895,197.209819 65.1973395,198.220944 68.2711595,197.391821 Z" id="Shape" fill="#003893"></path>
                <ellipse id="Oval" fill="#FFFFFF" cx="231.122951" cy="201.294763" rx="20.5662823" ry="6.93631745"></ellipse>
            </g>
        </g>
    </g>
</svg>