<svg xmlns="http://www.w3.org/2000/svg" viewBox="0 0 24 16"><path fill="#0038A8" d="M15.959.335l-.576.56-.574-.56H9.192l-.575.56-.576-.56H4.027l1.2 2.13v10.348c0 .209 0 1.834 1.964 1.834h3.105c1.115 0 1.658 1.019 1.658 1.019h.09s.543-1.019 1.658-1.019h3.107c1.963 0 1.963-1.625 1.963-1.834V2.465l1.199-2.13h-4.012z"/><g fill="#FFF"><path d="M18.674 2.438L19.803.434H16l-.617.6-.615-.6H9.232l-.615.6-.616-.6H4.198l1.13 2.004v10.374c0 .521.182 1.733 1.863 1.733h3.105c.997 0 1.551.767 1.703 1.009.152-.242.706-1.009 1.703-1.009h3.107c1.682 0 1.863-1.212 1.863-1.733V2.438zm.119 11.845a.384.384 0 1 0 .002.768.384.384 0 0 0-.002-.768zm0 .685a.301.301 0 1 1 0-.603.301.301 0 0 1 0 .603z"/><path d="M18.951 14.578a.13.13 0 0 0-.129-.13h-.186v.438h.082v-.178h.059l.084.178h.09l-.086-.186a.128.128 0 0 0 .086-.122zm-.129.048h-.104v-.096h.104c.025 0 .047.021.047.048s-.021.048-.047.048z"/></g><path fill="#0038A8" d="M16.186.893l-.803.78-.801-.78H9.419l-.802.78-.803-.78H4.981l.804 1.427v10.493c0 .582.244 1.275 1.406 1.275h3.105c.789 0 1.352.443 1.703.797.352-.354.914-.797 1.703-.797h3.107c1.16 0 1.404-.693 1.404-1.275V2.319l.805-1.427h-2.832z"/><path fill="#CE1126" d="M10.934 5.48l6.937 5.025V5.48z"/><path d="M6.13 4.773h11.741v.283H6.13zm0 8.039c0 .825.566.932 1.062.932h3.105c.707 0 1.279.371 1.703.712.425-.341.996-.712 1.703-.712h1.125l-8.698-6.3v5.368zm0-5.952l9.503 6.884h.404L6.13 6.568zm3.595-1.38l8.146 5.901v-.292L10.129 5.48zm3.359 5.593l.687.498.2-.276-.407-.294.325-.448.406.295.201-.277-.406-.294.324-.448.404.295.202-.276-.688-.498zm-3.441-5.12l-.635-.46-1.249 1.724.281.204.559-.772.157.114-.264.984.281.204.267-.997a.421.421 0 0 0 .502-.143l.195-.27a.42.42 0 0 0-.094-.588zm5.56 6.655l.268-.998a.42.42 0 0 0 .502-.143l.195-.269a.422.422 0 0 0-.094-.589l-.637-.46-1.248 1.723.281.204.559-.771.156.113-.264.986.282.204zM11.625 7.39l-1.247 1.723.28.203.75-1.034-.297 1.363.282.203 1.248-1.724-.282-.203-.75 1.034.298-1.362zm-2.662.699l.281.203.354-.285.469.339-.16.427.281.203.776-2.065-.282-.203-1.719 1.381zm4.641.733l-.234-.171a.422.422 0 0 0-.59.094l-.754 1.041a.421.421 0 0 0 .095.589l.235.171a.438.438 0 0 0 .197.077l-.006.062.15.108.668-.922-.549-.396-.17.235.266.192-.211.293a.145.145 0 0 1-.203.032l-.121-.087a.145.145 0 0 1-.031-.203l.678-.936a.145.145 0 0 1 .203-.032l.119.087c.066.047.08.138.033.203l-.166.229.281.203.203-.28a.421.421 0 0 0-.093-.589zm3.517 2.547a.574.574 0 0 0-.803.129c-.338.467.314 1.033.137 1.278a.257.257 0 0 1-.416-.301l.08-.111-.281-.204-.076.107a.6.6 0 0 0 .135.843c.27.196.646.136.842-.135.336-.462-.316-1.029-.135-1.278a.225.225 0 0 1 .316-.051.227.227 0 0 1 .053.319l-.068.093.281.203.064-.088a.576.576 0 0 0-.129-.804zM8.798 4.078h-.501v-.553h.501v-.34h-.501v-.552h.501v-.342h-.849v2.128h.849zm6.325-.611h.193l.363.952h.348l-.369-.964a.422.422 0 0 0 .324-.41v-.332a.422.422 0 0 0-.422-.422h-.785v2.128h.348v-.952zm-8.536-.325l.559 1.277h.347V2.291h-.347v1.278l-.559-1.278H6.24v2.128h.347zm7.177 1.277h.291a.422.422 0 0 0 .422-.421V2.713a.422.422 0 0 0-.422-.422h-.291a.422.422 0 0 0-.422.422v1.285c0 .232.189.421.422.421zm2.994-.881l.156-.25.498 1.131h.348l-.643-1.457.418-.671h-.347l-.43.69v-.69h-.348v2.128h.348zm-4.412.881h.347v-.881l.459-1.247h-.347l-.285.775-.286-.775h-.346l.458 1.247zm-2.455 0l.181-1.115.183 1.115h.415l.348-2.128h-.348l-.208 1.273-.207-1.273h-.364l-.208 1.273-.208-1.273h-.347l.347 2.128z" fill="#FFF"/><path d="M13.834 4.078h.148c.08 0 .146-.065.146-.146V2.778a.146.146 0 0 0-.146-.146h-.148a.145.145 0 0 0-.145.146v1.154c0 .081.065.146.145.146zm-3.661 3.985l.279-.741-.618.496zm-.787-1.875l-.297-.215-.29.399.297.216a.147.147 0 0 0 .204-.033l.118-.163a.147.147 0 0 0-.032-.204zm6.249-3.209v-.201a.146.146 0 0 0-.146-.146h-.365v.493h.365a.146.146 0 0 0 .146-.146zm.095 8.233l.117-.164a.146.146 0 0 0-.031-.203l-.296-.215-.291.399.297.215a.147.147 0 0 0 .204-.032z" fill="#0038A8"/></svg>