<?xml version="1.0" encoding="UTF-8"?>
<svg width="512px" height="512px" viewBox="0 0 512 512" version="1.1" xmlns="http://www.w3.org/2000/svg" xmlns:xlink="http://www.w3.org/1999/xlink">
    <!-- Generator: Sketch 41.2 (35397) - http://www.bohemiancoding.com/sketch -->
    <title>new-york-rangers</title>
    <desc>Created with Sketch.</desc>
    <defs></defs>
    <g id="NHL" stroke="none" stroke-width="1" fill="none" fill-rule="evenodd">
        <g id="new-york-rangers">
            <g id="nyr" transform="translate(84.000000, 84.000000)">
                <path d="M257.1185,7.2025 L244.7345,19.2425 L232.3935,7.2025 L111.628,7.2025 L99.2655,19.2425 L86.8815,7.2025 L0.5805,7.2025 L26.3805,52.9975 L26.3805,275.4795 C26.3805,279.973 26.3805,314.9105 68.6065,314.9105 L135.364,314.9105 C159.3365,314.9105 171.011,336.819 171.011,336.819 L172.946,336.819 C172.946,336.819 184.6205,314.9105 208.593,314.9105 L275.3935,314.9105 C317.598,314.9105 317.598,279.973 317.598,275.4795 L317.598,52.9975 L343.3765,7.2025 L257.1185,7.2025 L257.1185,7.2025 Z" id="Shape" fill="#0038A8"></path>
                <g id="Group" fill="#FFFFFF">
                    <path d="M315.491,52.417 L339.7645,9.331 L258,9.331 L244.7345,22.231 L231.512,9.331 L112.488,9.331 L99.2655,22.231 L86.0215,9.331 L4.257,9.331 L28.552,52.417 L28.552,275.458 C28.552,286.6595 32.465,312.7175 68.6065,312.7175 L135.364,312.7175 C156.7995,312.7175 168.7105,329.208 171.9785,334.411 C175.2465,329.208 187.1575,312.7175 208.593,312.7175 L275.3935,312.7175 C311.5565,312.7175 315.448,286.6595 315.448,275.458 L315.448,52.417 L315.491,52.417 Z M318.0495,307.0845 C313.489837,307.096374 309.803126,310.802337 309.815,315.362 C309.826874,319.921663 313.532837,323.608374 318.0925,323.5965 C322.652163,323.584626 326.338874,319.878663 326.326999,315.319 C326.315125,310.759337 322.609163,307.072626 318.0495,307.0845 L318.0495,307.0845 Z M318.0495,321.812 C314.469452,321.812 311.56725,318.909798 311.56725,315.32975 C311.56725,311.749702 314.469452,308.8475 318.0495,308.8475 C321.629548,308.8475 324.53175,311.749702 324.53175,315.32975 C324.53175,318.909798 321.629548,321.812 318.0495,321.812 Z" id="Shape"></path>
                    <path d="M321.4465,313.427 C321.446545,311.891722 320.208233,310.64381 318.673,310.632 L314.674,310.632 L314.674,320.049 L316.437,320.049 L316.437,316.222 L317.7055,316.222 L319.5115,320.049 L321.4465,320.049 L319.5975,316.05 C320.712601,315.66271 321.456508,314.6074 321.4465,313.427 L321.4465,313.427 Z M318.673,314.459 L316.437,314.459 L316.437,312.395 L318.673,312.395 C319.2105,312.395 319.6835,312.8465 319.6835,313.427 C319.6835,314.0075 319.232,314.459 318.673,314.459 Z" id="Shape"></path>
                </g>
                <path d="M261.999,19.1995 L244.7345,35.9695 L227.513,19.1995 L116.5085,19.1995 L99.2655,35.9695 L82.001,19.1995 L21.0915,19.1995 L38.3775,49.88 L38.3775,275.4795 C38.3775,287.9925 43.6235,302.892 68.6065,302.892 L135.364,302.892 C152.3275,302.892 164.432,312.4165 171.9785,320.0275 C179.5465,312.4165 191.6295,302.892 208.593,302.892 L275.3935,302.892 C300.3335,302.892 305.5795,287.9925 305.5795,275.4795 L305.5795,49.8585 L322.887,19.178 L261.999,19.178 L261.999,19.1995 Z" id="Shape" fill="#0038A8"></path>
                <polygon id="Shape" fill="#CE1126" points="149.081 117.82 298.2265 225.8575 298.2265 117.82"></polygon>
                <path d="M45.795,102.6195 L298.2265,102.6195 L298.2265,108.704 L45.795,108.704 L45.795,102.6195 Z M45.795,275.458 C45.795,293.1955 57.964,295.496 68.628,295.496 L135.3855,295.496 C150.586,295.496 162.884,303.4725 172,310.804 C181.1375,303.4725 193.414,295.496 208.6145,295.496 L232.802,295.496 L45.795,160.046 L45.795,275.458 L45.795,275.458 Z M45.795,147.49 L250.1095,295.496 L258.7955,295.496 L45.795,141.212 L45.795,147.49 Z M123.0875,117.82 L298.2265,244.6915 L298.2265,238.4135 L131.7735,117.82 L123.0875,117.82 Z M195.306,238.0695 L210.0765,248.7765 L214.3765,242.8425 L205.626,236.5215 L212.6135,226.8895 L221.3425,233.232 L225.664,227.2765 L216.935,220.9555 L223.901,211.3235 L232.587,217.666 L236.93,211.732 L222.138,201.025 L195.306,238.0695 Z M121.3245,127.9895 L107.672,118.0995 L80.8185,155.1655 L86.86,159.5515 L98.8785,142.9535 L102.254,145.4045 L96.578,166.5605 L102.6195,170.9465 L108.36,149.511 C112.235549,151.109172 116.701384,149.837032 119.153,146.4365 L123.3455,140.6315 C124.759928,138.68912 125.341894,136.263115 124.96259,133.890443 C124.583285,131.517771 123.273991,129.39411 121.3245,127.9895 L121.3245,127.9895 Z M240.8645,271.072 L246.6265,249.615 C250.501571,251.221516 254.972688,249.947871 257.4195,246.5405 L261.612,240.757 C264.547804,236.701261 263.643348,231.033982 259.591,228.0935 L245.8955,218.2035 L219.0635,255.248 L225.105,259.634 L237.1235,243.0575 L240.4775,245.487 L234.8015,266.686 L240.8645,271.072 L240.8645,271.072 Z M163.9375,158.885 L137.127,195.9295 L143.147,200.294 L159.272,178.063 L152.8865,207.3675 L158.9495,211.732 L185.7815,174.666 L179.7185,170.3015 L163.5935,192.5325 L170.0005,163.2495 L163.9375,158.885 Z M106.7045,173.9135 L112.746,178.278 L120.357,172.1505 L130.4405,179.439 L127.0005,188.6195 L133.042,192.984 L149.726,148.5865 L143.663,144.222 L106.7045,173.9135 L106.7045,173.9135 Z M206.486,189.673 L201.455,185.9965 C199.505744,184.579795 197.072985,183.996707 194.693299,184.375844 C192.313613,184.75498 190.182498,186.065194 188.77,188.0175 L172.559,210.399 C171.145648,212.347459 170.566605,214.778629 170.949891,217.155001 C171.333177,219.531374 172.64722,221.657207 174.6015,223.0625 L179.654,226.739 C180.90939,227.628558 182.363624,228.196964 183.8895,228.3945 L183.7605,229.7275 L186.9855,232.0495 L201.3475,212.2265 L189.544,203.7125 L185.889,208.765 L191.608,212.893 L187.0715,219.1925 C186.5851,219.864011 185.851228,220.314089 185.032178,220.4432 C184.213129,220.572312 183.376388,220.369818 182.707,219.8805 L180.1055,218.01 C179.437356,217.520353 178.991556,216.784926 178.866508,215.966065 C178.74146,215.147204 178.947448,214.312244 179.439,213.6455 L194.016,193.5215 C194.5024,192.849989 195.236272,192.399911 196.055322,192.2708 C196.874371,192.141688 197.711112,192.344182 198.3805,192.8335 L200.939,194.704 C202.358,195.7145 202.659,197.671 201.6485,199.0685 L198.0795,203.992 L204.121,208.3565 L208.4855,202.3365 C209.903284,200.393323 210.489296,197.965727 210.114141,195.589741 C209.738985,193.213755 208.43352,191.084813 206.486,189.673 L206.486,189.673 Z M282.1015,244.4335 C279.446399,242.505719 276.132905,241.714632 272.893299,242.235067 C269.653693,242.755501 266.754702,244.54461 264.837,247.207 C257.57,257.2475 271.588,269.4165 267.7825,274.684 C265.944157,276.997041 262.611461,277.454612 260.217746,275.722621 C257.824031,273.99063 257.216396,270.682003 258.8385,268.2125 L260.5585,265.826 L254.517,261.44 L252.883,263.7405 C250.843426,266.521633 250.002428,270.003665 250.547787,273.409123 C251.093145,276.814581 252.979441,279.859858 255.7855,281.865 C261.5905,286.079 269.6745,284.789 273.8885,278.9625 C281.1125,269.0295 267.0945,256.839 270.986,251.4855 C271.736661,250.43274 272.877529,249.724302 274.153991,249.518291 C275.430453,249.312279 276.736263,249.625842 277.78,250.389 C278.848548,251.141284 279.57077,252.290671 279.784951,253.5798 C279.999132,254.868928 279.68738,256.190104 278.9195,257.2475 L277.4575,259.247 L283.499,263.6115 L284.875,261.7195 C288.879831,256.179583 287.638428,248.442463 282.1015,244.4335 L282.1015,244.4335 Z M103.157,87.677 L92.3855,87.677 L92.3855,75.7875 L103.157,75.7875 L103.157,68.4775 L92.3855,68.4775 L92.3855,56.6095 L103.157,56.6095 L103.157,49.2565 L84.9035,49.2565 L84.9035,95.0085 L103.157,95.0085 L103.157,87.677 Z M239.1445,74.5405 L243.294,74.5405 L251.0985,95.0085 L258.5805,95.0085 L250.647,74.2825 C254.727817,73.3081885 257.608395,69.663013 257.613,65.4675 L257.613,58.3295 C257.613,53.3186205 253.55088,49.2565 248.54,49.2565 L231.6625,49.2565 L231.6625,95.0085 L239.1445,95.0085 L239.1445,74.5405 Z M55.6205,67.553 L67.639,95.0085 L75.0995,95.0085 L75.0995,49.2565 L67.639,49.2565 L67.639,76.7335 L55.6205,49.2565 L48.16,49.2565 L48.16,95.0085 L55.6205,95.0085 L55.6205,67.553 Z M209.926,95.0085 L216.1825,95.0085 C221.184995,95.008514 225.243646,90.9594812 225.2555,85.957 L225.2555,58.3295 C225.2555,53.3186205 221.19338,49.2565 216.1825,49.2565 L209.926,49.2565 C204.91512,49.2565 200.853,53.3186205 200.853,58.3295 L200.853,85.957 C200.853,90.945 204.9165,95.0085 209.926,95.0085 L209.926,95.0085 Z M274.297,76.067 L277.651,70.692 L288.358,95.0085 L295.84,95.0085 L282.0155,63.683 L291.0025,49.2565 L283.542,49.2565 L274.297,64.0915 L274.297,49.2565 L266.815,49.2565 L266.815,95.0085 L274.297,95.0085 L274.297,76.067 Z M179.439,95.0085 L186.8995,95.0085 L186.8995,76.067 L196.768,49.2565 L189.3075,49.2565 L183.18,65.919 L177.031,49.2565 L169.592,49.2565 L179.439,76.067 L179.439,95.0085 Z M126.6565,95.0085 L130.548,71.036 L134.4825,95.0085 L143.405,95.0085 L150.887,49.2565 L143.405,49.2565 L138.933,76.626 L134.4825,49.2565 L126.6565,49.2565 L122.1845,76.626 L117.7125,49.2565 L110.252,49.2565 L117.7125,95.0085 L126.6565,95.0085 Z" id="Shape" fill="#FFFFFF"></path>
                <path d="M211.431,87.677 L214.613,87.677 C216.333,87.677 217.752,86.2795 217.752,84.538 L217.752,59.727 C217.752,57.9933782 216.346622,56.588 214.613,56.588 L211.431,56.588 C210.600449,56.5879802 209.804225,56.9193799 209.218958,57.5086829 C208.633692,58.0979858 208.307772,58.8964687 208.3135,59.727 L208.3135,84.538 C208.3135,86.2795 209.711,87.677 211.431,87.677 Z M132.7195,173.3545 L138.718,157.423 L125.431,168.087 L132.7195,173.3545 Z M115.799,133.042 L109.4135,128.4195 L103.1785,136.998 L109.564,141.642 C110.973629,142.646406 112.928932,142.330107 113.95,140.9325 L116.487,137.428 C117.495996,136.023932 117.189448,134.069684 115.799,133.042 L115.799,133.042 Z M250.1525,64.0485 L250.1525,59.727 C250.1525,57.9933782 248.747122,56.588 247.0135,56.588 L239.166,56.588 L239.166,67.1875 L247.0135,67.1875 C247.846015,67.1875 248.644431,66.8567849 249.233108,66.2681082 C249.821785,65.6794315 250.1525,64.8810146 250.1525,64.0485 L250.1525,64.0485 Z M252.195,241.058 L254.7105,237.532 C255.721868,236.14033 255.424628,234.19389 254.044,233.1675 L247.68,228.545 L241.4235,237.1235 L247.809,241.746 C249.213068,242.754996 251.167316,242.448448 252.195,241.058 L252.195,241.058 Z" id="Shape" fill="#0038A8"></path>
            </g>
        </g>
    </g>
</svg>