<svg width="512" height="512" viewBox="0 0 512 512" xmlns="http://www.w3.org/2000/svg"><title>ottawa-senators</title><g transform="translate(106 85)" fill="none" fill-rule="evenodd"><path d="M212.164 126.621l-32.871-44.914-10.672 4.95s-7.114-2.721-19.392-4.35l7.714-7.778V56.87H151.5c9.493-15.407-5.486-31.392 21.9-50.014h-70.779C49.18 24.88 62.486 125.186 62.486 125.186l10.243-3.879s-6.386 13.393-3.686 23.464c0 0-7.029 15.258 1.521 29.829l-5.057 7.114 1.093 32.657C59.464 226.8 32.486 220.05 30 234c-1.05 5.893-15.3 10.821-15.3 10.821-14.957 44.55 98.914 52.929 117.643 80.358 53.637 17.418 111.602-9.678 132.637-62.002 21.034-52.325-2.047-112.002-52.816-136.556z" fill="#000"/><path d="M107.486 52.136l-5.25-33.986c-37.565 16.029-32.55 92.957-32.55 92.957l38.185-55.436H143.1c6.086-12.064-1.35-31.285 12.129-39.535H108.75l-1.264 36zM95.85 282.386c15.386 3.428 35.957 16.478 35.957 16.478-1.5-5.443-5.893-10.671-5.893-10.671a106.714 106.714 0 0 1-41.357-24.257L45.15 242.27s23.486.129 21.386-17.25c-10.179 7.479-29.722 4.565-29.722 12.622 0 8.85 15.515 17.85 46.029 37.221l-47.207-21.643 2.828-3.085-3.257-6.322c-.343 2.422-12.321 2.465-12.321 10.543 0 28.479 100.778 39.107 119.271 66.043 2.186-13.993-25.371-27.321-46.307-38.014zm122.871-51.943s10.179 8.764 10.179 11.786c0 3.042-21.321 15.621-21.321 15.621 7.157-9.879 12.942-14.657 12.942-18.921 0-4.222-7.564-5.379-9.6-13.458-7.714 12.429-8.1 20.422-8.1 20.422l3.793 26.014-10.328-1.264c-21.643 21.621-19.243 45.364-19.243 45.364 13.607-39.364 59.636-39.921 59.636-77.1-3.472-2.743-17.958-8.464-17.958-8.464z" fill="#CE1126"/><path d="M176.7 231.75l6.471-3.129-7.05-27.471 2.829-8.443 19.393-7.457 5.636 2.4-.772-8.829s-5.55-5.335-12-5.335c-6.278 0-8.786 4.5-17.378 14.914 0 0-4.95-12.986-25.115-12.986-17.057 0-37.521 7.95-37.521 7.95-3.6 4.907-3.129 15.386 21.471 13.543l-3.493 16.157 13.629 1.95s-17.357 38.293-7.821 47.507c9.042 8.7 18.342 18.065 21.557 18.065 12.685 0 20.678-3.3 22.243-4.886.707-.707 1.2-2.271 1.2-4.264 0-7.093-7.029-7.886-12.579-7.886-11.957 0-16.264 4.179-16.264 4.179l2.271-7.736c1.5-5.657 25.629-2.679 25.629-2.679l-.557-7.5-4.8.729-10.136-1.564-23.893.642-1.179-.878 28.5-5.036 6.215 1.264 5.357-1.328-2.914-2.593-3.108 1.221-.6-6.321-16.992-2.85 13.392-4.65 8.379 3.3z" fill="#FFF"/><path d="M201.171 195.343l-5.4 1.028c-2.228 8.979-8.592 5.272-9.578 3.108l-2.55 9.3 4.264 13.971 3.557 7.671-6.128 5.143 4.757 5.379 1.65 3.878 6.921-22.778 5.572-9.129c.985-1.564-4.543-12.471-4.543-12.471l1.478-5.1zm-52.585 99.878l15.193 10.393 4.007-13.821-13.307-1.907-5.893 5.335z" fill="#FFF"/><path d="M267.107 310.114a6.343 6.343 0 0 0 0 12.686 6.364 6.364 0 0 0 0-12.686zm0 11.315a4.971 4.971 0 1 1-.652-9.922 4.971 4.971 0 0 1 .652 9.922z" fill="#000"/><path d="M269.7 314.979a2.143 2.143 0 0 0-2.164-2.165h-3.043v7.243h1.328v-2.914h.986l1.372 2.936h1.478l-1.414-3.065a2.164 2.164 0 0 0 1.457-2.035zm-2.164.792h-1.693v-1.585h1.693c.45 0 .793.364.793.793a.778.778 0 0 1-.793.792z" fill="#000"/><g fill="#BF910C"><path d="M206.421 171.9l-30.835-17.657-61.672 21s22.843-5.936 39.665-5.936c18.3 0 21.492 9.857 21.492 9.857s5.658-10.2 14.186-10.2c10.286 0 17.443 6 17.443 6l-.279-3.064zm-66.085-88.971l5.164-5.486h-26.786L96.343 95.486l19.8-23.207h32.507v-9.493h-35.336L81.707 105.62l1.5 7.372s17.422-30.064 57.129-30.064z"/><path d="M119.614 244.2c0-20.786 5.057-42.343 5.057-42.343S93.793 204 99.28 177.943c0 0-6.729 5.486-12.836 3.107 0 0 11.593-3.086 11.593-15.729l3.021 9.215 80.164-32.015 31.565 27.429-.707-12.343c-3.536 1.286-11.122-3.943-11.122-3.943l1.157-.964s5.122 2.636 9.707.75l-.707-12.171L176.4 93l-7.886 2.957s-16.993-7.178-33.471-7.178c-25.179 0-56.529 24.9-56.529 52.414l16.865 1.243 46.05-34.179-46.286 45.279s-4.093-7.993-9.986-7.993c-4.05 0-10.307 4.843-10.307 16.714 0 9.343 4.586 13.907 4.586 13.907l-5.4 7.307c3.964 58.5-2.657 64.479-14.679 61.158l23.486 11.335c0-40.971-1.522-53.421 2.486-53.421 6.6 0 5.914 40.736 7.65 59.893 0 0 16.95 19.65 50.635 22.864.022-.021-24-15.279-24-41.1zm76.307 8.829l-3.942 10.478 6.107 1.007-2.165-11.485zm26.529-112.115v34.757a68.271 68.271 0 0 1 25.329 53.079c-.03 28.87-18.156 54.622-45.322 64.393-11.164 18.236-8.057 28.971-6.664 32.078 47.009-8.051 81.394-48.778 81.45-96.471-.036-37.327-21.284-71.39-54.793-87.836z"/></g><path d="M141.664 150.879l-2.378-1.479c-16.179 3.043-13.415-2.486-17.357-2.486 1.542-1.521.128-4.521 4.242-8.635l-.364-.493c-10.028 5.957-4.2 9.621-11.1 13.221l.257.579c8.25-2.786 5.229 7.264 26.7-.707z" fill="#000"/><path d="M152.379 140.529l-1.308-.536c-11.678 5.464-11.635.15-13.971.878 1.2-2.014-2.293-4.457 5.593-12.042l-.107-.75c-13.693 9.107-7.157 12.664-11.465 16.992l.408.536c4.671-2.978 5.014 5.464 20.85-5.078zm-31.715 17.678s-1.435-1.328-3.107-1.993c-9.171.943-7.821-2.678-10.993-2.528 2.829-2.186-.193-3.943 2.036-6.15l-.386-.472c-8.228 4.629-3.257 7.586-8.057 9.557l.236.579c4.628-1.393 4.071 6.129 20.271 1.007zm-29.743-4.543c4.779 11.915-3.771 20.25-7.221 20.25s-5.571-4.328-5.571-4.328 2.592 8.485 7.842 8.485 15.193-12.557 4.95-24.407z" fill="#000"/><path d="M162.386 130.136l-.879-.279c-9.086 4.843-9.686 1.136-11.057 1.522.964-1.972-3.129-2.486 2.743-10.029l-.236-1.371c-12.793 11.335-3.621 11.7-9.15 16.328l.6.236c4.929-4.029 3.986 4.264 17.979-6.407zM112.693 99.15c-31.114 15.429-29.979 37.007-29.979 37.007l10.179.472 19.178-12.536c-13.65 3.75-35.635 2.078.622-24.943zm71.078 33.043c-16.692 4.586-18.042-19.864-13.35-24.964-18.407 11.807 4.179 39.728 13.35 24.964zm10.415 11.314l-.922.514c9.729 10.479 9.772 3.193 13.179 6.193l.45-.771c-2.764-4.243 1.136-8.122-7.757-17.357l-.043.921c4.971 6.514 2.721 10.007 4.2 12.707-2.357-1.093-2.807 3.257-9.107-2.207z" fill="#000"/><path d="M197.357 140.529l.407-.515c-2.828-4.843 2.7-5.914-4.907-16.821l-.321 1.414c3.428 7.2.493 8.722 1.285 10.372-1.285-.343-2.464 2.207-6.707-2.808l-.728.258c6.75 10.885 8.25 4.135 10.971 8.1zm65.122 96.407c-1.158 5.914-6 .385-8.7 14.271 2.1.407 3.942-4.286 6.664-3.771 2.721.535 2.678 5.593 4.757 5.978 2.679-13.864-3.879-10.564-2.721-16.478z" fill="#000"/><ellipse fill="#000" cx="262.5" cy="228.75" rx="5.079" ry="5.079"/><path d="M222.514 293.379c1.35 1.628 5.786-.793 7.543 1.328 1.757 2.143-1.478 6-.128 7.65 10.907-9 3.728-10.607 8.4-14.464-4.693 3.857-4.886-3.514-15.815 5.486zm32.465-29.208c-3.086 5.208-5.786-1.628-12.943 10.565 1.821 1.071 5.121-2.722 7.521-1.329 2.4 1.393.664 6.129 2.486 7.222 7.178-12.193-.129-11.25 2.936-16.458z" fill="#000"/><path d="M233.079 284.914c1.607 1.372 5.55-1.778 7.628 0 2.122 1.8-.428 6.172 1.222 7.565 9.192-10.758 1.842-11.122 5.764-15.686-3.922 4.564-5.4-2.636-14.614 8.121zm20.292-79.907c2.958 13.843 7.672 8.229 8.958 14.143-1.286-5.914 5.357-2.721 2.4-16.543-2.079.45-1.95 5.486-4.65 6.043-2.679.6-4.629-4.071-6.708-3.643zm-11.764-22.778c7.286 12.128 9.943 5.271 13.05 10.435-3.128-5.164 4.179-4.285-3.107-16.435-1.8 1.092-.064 5.807-2.421 7.242-2.358 1.436-5.7-2.335-7.522-1.242z" fill="#000"/><path d="M248.443 193.136c5.186 13.157 8.957 6.835 11.164 12.471-2.228-5.636 4.843-3.557-.364-16.714-1.972.771-1.007 5.743-3.579 6.728-2.55 1.029-5.228-3.257-7.221-2.485zm11.55 57.364c-2.122 5.679-5.979-.579-10.95 12.664 1.993.729 4.607-3.578 7.2-2.614 2.571.986 1.714 5.936 3.686 6.686 4.95-13.243-2.058-11.057.064-16.736zm-12.3-69.75c-3.922-4.586 3.428-4.907-5.764-15.686-1.608 1.372.9 5.765-1.2 7.565-2.122 1.8-6.043-1.372-7.65 0 9.214 10.735 10.692 3.535 14.614 8.121zm-11.164-12.921c3.364-4.415-13.115-10.05-13.115-10.05s9.729 14.464 13.115 10.05zm-27.15 132.6c1.028 1.864 5.807.321 7.135 2.742 1.329 2.422-2.593 5.615-1.585 7.479 12.428-6.729 5.7-9.686 11.014-12.579-5.314 2.872-4.093-4.392-16.564 2.358z" fill="#000"/><path d="M196.371 310.521s17.422.365 15.772-4.928c-1.672-5.293-15.772 4.928-15.772 4.928zM112.907 188.68l27.107 3.792c.9 4.543 7.95 8.829 12.857 1.95l7.415 2.122-5.957 4.671 11.421 1.565 4.479-8.808-25.8-10.478-31.522 5.186z" fill="#000"/></g></svg>