<?xml version="1.0" encoding="UTF-8"?>
<svg width="512px" height="512px" viewBox="0 0 512 512" version="1.1" xmlns="http://www.w3.org/2000/svg" xmlns:xlink="http://www.w3.org/1999/xlink">
    <!-- Generator: Sketch 42 (36781) - http://www.bohemiancoding.com/sketch -->
    <title>pacific</title>
    <desc>Created with Sketch.</desc>
    <defs>
        <linearGradient x1="83.1743864%" y1="89.7272241%" x2="16.8831567%" y2="1.72865038%" id="linearGradient-1">
            <stop stop-color="#939BA0" offset="0%"></stop>
            <stop stop-color="#98A0A4" offset="1.2%"></stop>
            <stop stop-color="#C1C5C7" offset="11.8%"></stop>
            <stop stop-color="#DADCDD" offset="20.2%"></stop>
            <stop stop-color="#E3E4E5" offset="25.3%"></stop>
            <stop stop-color="#E3E4E5" offset="75.3%"></stop>
            <stop stop-color="#DBDDDE" offset="80.1%"></stop>
            <stop stop-color="#C5C9CB" offset="87.5%"></stop>
            <stop stop-color="#A2A9AD" offset="96.6%"></stop>
            <stop stop-color="#939BA0" offset="100%"></stop>
        </linearGradient>
        <linearGradient x1="-9.73183593%" y1="50.0006918%" x2="118.559081%" y2="50.0006918%" id="linearGradient-2">
            <stop stop-color="#FFFFFF" offset="11.2%"></stop>
            <stop stop-color="#DCDEE0" offset="23.7%"></stop>
            <stop stop-color="#A7AEB2" offset="44%"></stop>
            <stop stop-color="#939BA0" offset="53.9%"></stop>
        </linearGradient>
        <linearGradient x1="50.0033979%" y1="100%" x2="50.0033979%" y2="0%" id="linearGradient-3">
            <stop stop-color="#FFFFFF" offset="0%"></stop>
            <stop stop-color="#FFFFFF" offset="34.8%"></stop>
            <stop stop-color="#939BA0" offset="56.2%"></stop>
            <stop stop-color="#939BA0" offset="100%"></stop>
        </linearGradient>
        <linearGradient x1="-0.00137215621%" y1="50%" x2="100%" y2="50%" id="linearGradient-4">
            <stop stop-color="#FFFFFF" offset="15.2%"></stop>
            <stop stop-color="#FAFAFA" offset="21.2%"></stop>
            <stop stop-color="#EBECED" offset="28.6%"></stop>
            <stop stop-color="#D2D5D7" offset="36.7%"></stop>
            <stop stop-color="#AFB5B8" offset="45.3%"></stop>
            <stop stop-color="#939BA0" offset="51.1%"></stop>
        </linearGradient>
        <linearGradient x1="0.00209292591%" y1="50%" x2="100%" y2="50%" id="linearGradient-5">
            <stop stop-color="#FFFFFF" offset="24.7%"></stop>
            <stop stop-color="#FAFAFA" offset="33.7%"></stop>
            <stop stop-color="#EBECED" offset="44.8%"></stop>
            <stop stop-color="#D2D5D7" offset="57%"></stop>
            <stop stop-color="#AFB5B9" offset="69.9%"></stop>
            <stop stop-color="#939BA0" offset="78.6%"></stop>
        </linearGradient>
        <linearGradient x1="0%" y1="50.0005639%" x2="100%" y2="50.0005639%" id="linearGradient-6">
            <stop stop-color="#FFFFFF" offset="19.7%"></stop>
            <stop stop-color="#FAFBFB" offset="32.7%"></stop>
            <stop stop-color="#EDEEEF" offset="47.3%"></stop>
            <stop stop-color="#D7DADC" offset="62.6%"></stop>
            <stop stop-color="#B8BDC0" offset="78.3%"></stop>
            <stop stop-color="#939BA0" offset="93.3%"></stop>
        </linearGradient>
        <linearGradient x1="0%" y1="50%" x2="100%" y2="50%" id="linearGradient-7">
            <stop stop-color="#FFFFFF" offset="24.7%"></stop>
            <stop stop-color="#FAFAFA" offset="33.7%"></stop>
            <stop stop-color="#EBECED" offset="44.8%"></stop>
            <stop stop-color="#D2D5D7" offset="57%"></stop>
            <stop stop-color="#AFB5B8" offset="69.9%"></stop>
            <stop stop-color="#939BA0" offset="78.6%"></stop>
        </linearGradient>
        <linearGradient x1="0%" y1="50%" x2="100%" y2="50%" id="linearGradient-8">
            <stop stop-color="#FFFFFF" offset="38.8%"></stop>
            <stop stop-color="#FAFAFA" offset="46.7%"></stop>
            <stop stop-color="#EBECED" offset="56.6%"></stop>
            <stop stop-color="#D2D5D7" offset="67.3%"></stop>
            <stop stop-color="#AFB5B8" offset="78.8%"></stop>
            <stop stop-color="#939BA0" offset="86.5%"></stop>
        </linearGradient>
    </defs>
    <g id="NHL" stroke="none" stroke-width="1" fill="none" fill-rule="evenodd">
        <g id="pacific" fill-rule="nonzero">
            <g id="pac" transform="translate(90.000000, 75.000000)">
                <path d="M307.661522,275.82898 L307.661522,282.50309 L305.992571,282.50309 L305.992571,275.82898 L304.060607,275.82898 L304.060607,274.171317 L309.593486,274.171317 L309.593486,275.82898 L307.661522,275.82898 Z M316.705012,282.50309 L316.705012,277.585414 L315.299639,280.649014 L313.825408,280.649014 L312.420036,277.585414 L312.420036,282.50309 L310.751649,282.50309 L310.751649,274.171317 L312.420036,274.171317 L314.562524,278.620536 L316.705012,274.171317 L318.373398,274.171317 L318.373398,282.50309 L316.705012,282.50309 L316.705012,282.50309 Z" id="Shape" fill="#010101"></path>
                <path d="M327.072036,107.101266 C316.287915,103.389727 299.175666,94.7661559 299.168893,87.4266102 L299.168893,23.6627542 L33.8429593,23.6627542 L33.8350576,190.769492 C33.8294136,198.102264 16.7166,206.728093 5.92909322,210.443583 L0.247210169,212.399817 L5.92965763,214.356051 C16.7166,218.068719 33.8294136,226.695112 33.8350576,234.036915 L33.8429593,282.899868 L166.764707,361.126647 L299.168893,282.877856 L299.168893,130.692905 C299.175666,123.360132 316.287351,114.731481 327.072036,111.013169 L332.753354,109.055807 L327.072036,107.101266 L327.072036,107.101266 Z" id="Shape" fill="#FFFFFF"></path>
                <path d="M297.099778,87.4266102 L297.099778,25.7324339 L35.9120746,25.7324339 L35.9120746,190.77062 L35.9041729,190.77062 C35.8957068,202.322898 6.60299492,212.399817 6.60299492,212.399817 C6.60299492,212.399817 35.8957068,222.48238 35.9041729,234.035786 L35.9120746,234.035786 L35.9120746,281.716307 L166.761885,358.725661 L297.099778,281.698246 L297.099778,130.691212 C297.110502,119.140627 326.398134,109.0575 326.398134,109.0575 C326.398134,109.0575 297.110502,98.9788881 297.099778,87.4266102 L297.099778,87.4266102 Z" id="Shape" fill="#010101"></path>
                <path d="M46.5929085,36.4798678 L46.5759763,189.098847 C46.5759763,204.196729 34.2335288,212.399817 24.9891102,212.399817 C34.2335288,212.399817 46.5765407,220.639592 46.5765407,233.953383 L46.5929085,274.171317 L53.5147932,268.809453 L53.5147932,44.4876712 L279.502703,44.4876712 L286.429668,36.4798678 L46.5929085,36.4798678 Z" id="Shape" fill="#FFFFFF"></path>
                <path d="M286.429668,87.5073203 L286.429668,36.4843831 L279.502703,44.4876712 L279.502703,268.809453 L166.737051,335.458556 L53.5147932,268.810017 L46.5929085,274.174703 L166.753983,344.897131 L286.429668,274.171317 L286.429668,132.364678 C286.429668,117.266797 298.775502,109.056936 308.017098,109.056936 C298.775502,109.056936 286.429668,100.824498 286.429668,87.5078847 L286.429668,87.5073203 Z" id="Shape" fill="#BDBEBD"></path>
                <g id="Group" transform="translate(63.213559, 60.955932)" fill="#D0D3D4">
                    <path d="M106.04639,200.144853 L120.435376,195.283053 L120.435376,172.510932 L107.126664,177.00361 L106.04639,200.144853 Z M126.882031,183.183864 L133.496878,180.949942 L133.496878,231.385897 L146.889122,226.864998 L146.889122,163.576937 L126.882031,170.331758 L126.882031,183.183864 Z M153.334083,174.253256 L175.299666,166.833 L150.495117,225.64588 L166.082339,220.381093 L196.823883,146.710205 L153.334083,161.401149 L153.334083,174.253256 Z M0.348238983,167.681868 L0.348238983,204.470466 L208.170717,134.281968 L208.170717,97.4916763 L0.348238983,167.681303 L0.348238983,167.681868 Z M43.3560356,180.406983 L36.0108458,177.552214 L28.6605763,185.373198 L31.4685,175.783927 L24.1182305,172.930286 L33.2006644,169.862736 L36.0114102,160.279108 L38.8182051,167.964636 L47.8933017,164.901036 L40.5458542,172.718634 L43.3560356,180.406983 L43.3560356,180.406983 Z M90.9332695,164.338322 L83.583,161.479037 L76.2406322,169.299458 L79.0457339,159.716959 L71.7005441,156.858239 L80.7807203,153.79351 L83.583,144.207061 L86.3903593,151.896539 L95.4761797,148.83181 L88.1309898,156.646586 L90.9332695,164.337758 L90.9332695,164.338322 Z M138.510503,148.269661 L131.165314,145.412634 L123.820688,153.233054 L126.622968,143.649427 L119.278342,140.790142 L128.357954,137.721463 L131.165314,128.137836 L133.972673,135.829007 L143.052849,132.759763 L135.703144,140.580183 L138.510503,148.269661 L138.510503,148.269661 Z M186.093381,132.196485 L178.743112,129.343408 L171.392842,137.158185 L174.205846,127.57738 L166.860656,124.723739 L175.93801,121.653366 L178.743112,112.070868 L181.550471,119.756959 L190.633469,116.692231 L183.28828,124.512651 L186.093381,132.196485 L186.093381,132.196485 Z" id="Shape"></path>
                    <path d="M57.9792508,48.5107627 C55.6482508,48.5107627 53.2292034,48.9284237 50.7932237,49.7513288 L15.1198932,61.7991559 L15.1198932,150.449964 L33.8807746,144.113934 L33.8807746,100.682832 L53.0886661,94.1949763 C65.0439305,90.1577746 74.4063102,77.6223 74.4063102,65.6563119 C74.4063102,55.5618966 67.6520542,48.5107627 57.9792508,48.5107627 Z M55.6459932,69.5659576 C55.6459932,72.6363305 53.0000542,76.2225712 49.9849932,77.240761 L33.8807746,82.6793847 L33.8807746,73.4671373 L52.2804356,67.2530186 C52.7466356,67.0949847 53.1857441,67.0159678 53.5870373,67.0159678 C55.3790288,67.0159678 55.6459932,68.613239 55.6459932,69.5659576 L55.6459932,69.5659576 Z M118.934054,115.389015 L137.821363,109.007832 L110.093751,29.7227898 L93.2433864,35.4148322 L65.5152102,133.430842 L85.9467356,126.528147 L92.5423932,102.294778 L112.330495,95.6138949 L118.934054,115.389015 L118.934054,115.389015 Z M106.927993,79.4340458 L97.9448949,82.4677322 L102.436444,65.9757661 L106.927993,79.4340458 L106.927993,79.4340458 Z M166.931771,28.5290695 L197.165349,18.3200797 L197.165349,0.316632203 L164.636329,11.3016814 C151.158295,15.853622 140.192436,30.5852034 140.192436,44.1388678 L140.192436,73.5563136 C140.192436,88.1168797 150.110756,98.2869254 164.309537,98.2869254 C167.796442,98.2869254 171.406953,97.6643847 175.036653,96.4384932 L197.165349,88.9668763 L197.165349,70.9628644 L172.740646,79.2105407 C171.129264,79.7546288 169.553441,80.0294949 168.052683,80.0294949 C162.523754,80.0294949 158.953317,76.3625441 158.953317,70.6868695 L158.953317,39.0688017 C158.953317,34.8893695 162.682353,29.9637915 166.931771,28.5290695 L166.931771,28.5290695 Z" id="Shape"></path>
                </g>
                <g id="Group" transform="translate(63.777966, 0.000000)">
                    <path d="M80.6232508,88.0384271 C78.7527886,88.038427 77.2363046,89.5544057 77.2356814,91.4248678 C77.2356814,93.2936186 78.7533712,94.8113085 80.6232508,94.8113085 C82.4694323,94.7776006 83.9484257,93.2713569 83.9484257,91.4248678 C83.9484257,89.5783787 82.4694323,88.072135 80.6232508,88.0384271 Z M80.6232508,94.0849169 C79.9175783,94.0855166 79.2406359,93.8054548 78.7416499,93.3064688 C78.2426638,92.8074828 77.962602,92.1305404 77.9632017,91.4248678 C77.9627515,90.7193966 78.2429154,90.042715 78.7419178,89.5440302 C79.2409202,89.0453455 79.91778,88.7656125 80.6232508,88.7665119 C81.328578,88.7659125 82.0052055,89.04576 82.5040531,89.5443959 C83.0029008,90.0430318 83.2830355,90.7195404 83.2827356,91.4248678 C83.283185,92.1303966 83.0031525,92.8071661 82.5043211,93.3061033 C82.0054898,93.8050405 81.3287797,94.0852167 80.6232508,94.0849169 L80.6232508,94.0849169 Z M82.0145136,90.639778 C82.014364,90.3352107 81.8931929,90.0431854 81.6776726,89.8279826 C81.4621522,89.6127798 81.1699485,89.4920395 80.8653814,89.492339 L79.2336814,89.492339 L79.2336814,93.3585254 L79.9589441,93.3585254 L79.9589441,91.7883458 L80.4793271,91.7883458 L81.2124915,93.357961 L82.0145136,93.357961 L81.2497424,91.7211814 C81.7074474,91.5583757 82.0135253,91.1255748 82.0145136,90.639778 L82.0145136,90.639778 Z M80.8653814,91.0625186 L79.9589441,91.0625186 L79.9589441,90.2164729 L80.8653814,90.2164729 C81.0984814,90.2164729 81.2886864,90.4061136 81.2886864,90.639778 C81.288065,90.8732136 81.0988176,91.0622086 80.8653814,91.0625186 Z" id="Shape" fill="#D0D3D4"></path>
                    <path d="M6.18307627,36.7536051 C6.18307627,47.2493136 0.831371186,49.6373186 0.831371186,61.2923186 C0.831371186,78.085678 13.8161136,89.0724203 25.8825661,92.177222 C31.9792881,93.6616119 33.8198186,93.7626407 39.3256068,95.1166525 C39.7771322,95.6003492 44.9425831,101.164271 44.9425831,101.164271 C44.9425831,101.164271 50.1085983,95.6003492 50.5595593,95.1166525 C56.0636542,93.7620763 57.905878,93.6616119 64.0026,92.177222 C76.0679237,89.0729847 89.0549237,78.085678 89.0549237,61.2923186 C89.0549237,49.6373186 83.700961,47.2493136 83.700961,36.7536051 C83.700961,32.9636136 84.5024186,29.2232898 86.0821932,25.638178 L89.5030627,17.8753271 L81.4416407,15.4991746 C78.9842136,14.7722186 77.1764186,12.8679102 76.0690525,9.84099661 L72.5065169,0.0936915254 L64.5607983,6.67128814 C62.455561,8.4164339 60.3221034,9.30029492 58.2179949,9.30029492 C55.4038627,9.30029492 52.2019831,7.93217288 50.0606237,5.81338983 L44.9425831,0.749532203 L39.8245424,5.81338983 C37.6831831,7.93217288 34.480739,9.30029492 31.6694288,9.30029492 C29.5630627,9.30029492 27.4290407,8.41586949 25.323239,6.67128814 L17.3769559,0.0936915254 L13.8161136,9.84099661 C12.7115695,12.8679102 10.9026458,14.7722186 8.44296102,15.4991746 L0.383232203,17.8753271 L3.80353729,25.638178 C5.38218305,29.2232898 6.18307627,32.9636136 6.18307627,36.7536051 L6.18307627,36.7536051 Z" id="Shape" fill="#010101"></path>
                    <path d="M81.0685678,16.7628814 C78.1878356,15.9134492 76.087678,13.7354034 74.8301797,10.2930864 L71.9110678,2.30052203 L65.404022,7.68834915 C63.2626627,9.46171525 60.8165237,10.6204424 58.2185593,10.6204424 C54.7344763,10.6204424 51.2876441,8.88094068 49.1338678,6.75086949 L44.9431475,2.60530169 L40.7524271,6.75086949 C38.5980864,8.88094068 35.1518186,10.6204424 31.6699932,10.6204424 C29.0703356,10.6204424 26.6225034,9.46171525 24.4834017,7.68778475 L17.9757915,2.30052203 L15.0561153,10.292522 C13.7974881,13.7354034 11.6990237,15.9140136 8.81829153,16.7628814 L2.19554237,18.7162932 L5.00967458,25.1065068 C6.42802881,28.3253186 7.50209492,32.2818102 7.50209492,36.7536051 C7.50209492,47.6686678 2.14982542,49.8365542 2.14982542,61.2923186 C2.14982542,64.7859966 2.74358136,68.0539119 3.80974576,71.059378 C7.41799831,81.2452271 16.4479424,88.3883593 26.2133085,90.9005339 C32.4612915,92.4797441 35.3736305,92.6360847 40.0316797,93.9376068 C40.6389814,94.5765153 44.9431475,99.2277915 44.9431475,99.2277915 C44.9431475,99.2277915 49.2473136,94.5765153 49.8546153,93.9376068 C54.5132288,92.6360847 57.4227458,92.4797441 63.6758085,90.9010983 C76.3168271,87.6467288 87.7364695,76.6295085 87.7364695,61.2923186 C87.7364695,55.7718559 86.4908237,52.4074271 85.2045407,49.181278 C83.8200508,45.7146915 82.3825068,42.4095254 82.3825068,36.7536051 C82.3825068,32.2818102 83.4571373,28.3253186 84.8754915,25.1065068 L87.6901881,18.7162932 L81.0696966,16.7623169 L81.0685678,16.7628814 Z" id="Shape" fill="#FFFFFF"></path>
                    <path d="M10.3427542,39.9216203 C9.46171525,48.6219508 5.15642034,52.1105492 5.15642034,61.2923186 C5.15642034,72.557878 12.8752475,84.3816356 26.9617119,87.9436068 C33.6544475,89.6368271 38.2763746,90.0680339 41.6757966,91.2927966 C42.1120831,91.7025559 44.9425831,94.7718 44.9425831,94.7718 C44.9425831,94.7718 47.7713898,91.7025559 48.2076763,91.2927966 C51.6104847,90.0680339 56.2307186,89.6368271 62.9228898,87.9441712 C77.0099186,84.3816356 84.7276169,72.5584424 84.7276169,61.2923186 C84.7276169,51.0658322 79.384378,47.9051542 79.384378,36.7332864 C79.384378,28.0244898 83.5412339,20.6674475 83.5412339,20.6674475 C83.5412339,20.6674475 73.3243424,19.7756847 70.5547983,7.35647797 C70.5547983,7.35647797 64.4281627,13.6665458 58.2179949,13.6665458 C50.2113203,13.6665458 44.9425831,6.86149322 44.9425831,6.86149322 C44.9425831,6.86149322 39.675539,13.6665458 31.6694288,13.6665458 C25.456439,13.6665458 19.3298034,7.35647797 19.3298034,7.35647797 C16.5608237,19.7756847 6.3433678,20.6674475 6.3433678,20.6674475 C6.3433678,20.6674475 10.5019169,28.0239254 10.5019169,36.7332864 C10.5022764,37.7982467 10.4491553,38.8625531 10.3427542,39.9221847 L10.3427542,39.9216203 Z" id="Shape" fill="#010101"></path>
                    <path d="M27.7112441,84.9878085 C35.1614136,86.8785712 40.0311153,87.0936102 43.3041102,88.6722559 C43.3041102,88.6722559 44.4927508,89.761561 44.9425831,90.2621898 C45.3935441,89.761561 46.583878,88.6722559 46.583878,88.6722559 C49.8523576,87.0936102 54.7237525,86.8785712 62.173922,84.9878085 C71.579761,82.6003678 81.7238441,74.3143119 81.7238441,61.2923186 C81.7238441,51.9790424 76.3777831,48.5604305 76.3777831,36.7332864 C76.3777831,28.7627339 79.3928441,22.6186017 79.3928441,22.6186017 C79.3928441,22.6186017 72.4393525,21.2143576 69.1996576,12.4129983 C69.1996576,12.4129983 64.5845034,16.719422 58.2179949,16.719422 C50.2395407,16.719422 44.9425831,11.1182492 44.9425831,11.1182492 C44.9425831,11.1182492 39.6444966,16.7199864 31.6694288,16.7199864 C25.3006627,16.7199864 20.6849441,12.4135627 20.6849441,12.4135627 C17.446378,21.2143576 10.492322,22.6186017 10.492322,22.6186017 C10.492322,22.6186017 13.5073831,28.7627339 13.5073831,36.7332864 C13.5073831,48.5604305 8.16075763,51.9790424 8.16075763,61.2923186 C8.16075763,74.3143119 18.3065339,82.6009322 27.7118085,84.9878085 L27.7112441,84.9878085 Z" id="Shape" fill="url(#linearGradient-1)"></path>
                    <g transform="translate(11.288136, 15.238983)" id="Shape" fill="#010101">
                        <path d="M16.5958169,66.2579695 C16.8187576,66.3217475 17.0416983,66.382139 17.2652034,66.4391441 C23.1638186,67.9410305 30.3820169,68.7142678 32.5623203,69.9553983 C33.0533542,70.3154898 33.6544475,70.9543983 33.6544475,70.9543983 C33.6544475,70.9543983 34.2549763,70.3154898 34.7465746,69.9553983 C36.926878,68.7142678 44.1439475,67.9410305 50.0442559,66.4391441 C58.2202525,64.3604339 67.0233051,57.0999051 67.0233051,46.0527712 C67.0233051,40.5481119 64.6087729,36.9251847 63.0233542,31.3928695 L16.5958169,66.2579695 Z M0.90079322,41.3038525 L49.6723119,4.67949661 C48.764869,4.82165712 47.8478053,4.89355038 46.9292949,4.89453559 C40.9702881,4.89453559 36.3173186,2.29318475 33.6544475,0.338079661 C30.9927051,2.29318475 26.3380424,4.89453559 20.3812932,4.89453559 C16.4485068,4.89453559 13.1004458,3.56253559 10.7412254,2.24295254 C8.54286102,5.90821017 5.78799153,8.03884576 3.59244915,9.24272542 C4.53500847,12.0681458 5.63334407,16.4355254 5.63334407,21.4943034 C5.63334407,31.2291915 2.30729492,35.7929847 0.90079322,41.3038525 L0.90079322,41.3038525 Z M12.2752831,64.5387864 L62.0886966,27.1327271 C61.8307627,25.4524881 61.6766797,23.5927678 61.6766797,21.4943034 C61.6766797,16.4355254 62.7716288,12.0687102 63.7164458,9.24272542 C61.8347136,8.21268305 59.5437864,6.50083729 57.5463508,3.72903559 L0.298571186,46.7204644 C0.571744068,55.175278 6.03350847,61.3340847 12.2752831,64.5387864 L12.2752831,64.5387864 Z"></path>
                    </g>
                    <g transform="translate(21.447458, 27.655932)" id="Shape" fill="#D1D3D3">
                        <path d="M11.4010169,34.3385085 L6.0521339,26.1472729 L0.113445763,30.6077797 C0.113445763,30.6077797 2.19272034,30.6653492 2.19272034,32.8445237 L2.19272034,48.269761 L6.3851339,45.1215 L6.3851339,34.2154678 L11.1628373,41.5313085 L15.5906085,38.2069525 L15.5906085,18.9855153 L11.4010169,22.1303898 L11.4010169,34.3385085 L11.4010169,34.3385085 Z M28.3941763,16.4744695 L23.6650119,20.0240237 L23.6650119,12.9192712 L17.2815712,17.7144712 C17.2815712,17.7144712 19.3591525,17.7726051 19.3591525,19.9529085 L19.3591525,35.3764525 L23.6655763,32.1424017 L23.6655763,25.1138441 L28.3941763,21.5637254 L28.3941763,28.5945407 L32.4928983,25.5157017 L32.4928983,6.29200678 L28.3941763,9.37310339 L28.3941763,16.4750339 L28.3941763,16.4744695 Z M40.3754034,14.6892508 L40.3754034,0.373072881 L33.9891407,5.16883729 C33.9891407,5.16883729 36.0678508,5.22640678 36.0678508,7.40445254 L36.0678508,22.8308186 L47.9565153,13.9019034 C47.7002746,10.8258864 47.9565153,8.99720847 47.9565153,8.99720847 L40.3754034,14.6892508 L40.3754034,14.6892508 Z"></path>
                    </g>
                    <g transform="translate(3.950847, 36.686441)" id="Shape" fill="#FFFFFF">
                        <path d="M1.20557288,24.605878 C1.20557288,15.4241085 5.51030339,11.9355102 6.39247119,3.23517966 C5.18181864,10.8574932 0.129813559,17.1054763 0.129813559,24.605878 C0.129813559,27.4888678 0.528284746,30.1178746 1.24733898,32.5058797 C4.42212712,43.0648017 13.8646525,48.9402763 23.0108644,51.2577305 C8.9244,47.6951949 1.20557288,35.8720017 1.20557288,24.605878 Z M79.0209,12.5665169 C77.3090542,8.41248305 75.4335305,4.65974237 75.4335305,0.0468457627 C75.4335305,11.2187136 80.7767695,14.3793915 80.7767695,24.605878 C80.7767695,35.8714373 73.0590712,47.6951949 58.9720424,51.2571661 C71.676839,48.0456915 81.7763339,38.7414458 81.7763339,24.605878 C81.7763339,19.8146288 80.455622,16.0494712 79.0209,12.5670814 L79.0209,12.5665169 Z"></path>
                    </g>
                    <path d="M81.0685678,16.7628814 C78.1878356,15.9134492 76.087678,13.7354034 74.8301797,10.2930864 L71.9110678,2.30052203 L70.5559271,7.35647797 C73.3249068,19.7756847 83.5417983,20.6674475 83.5417983,20.6674475 L87.6901881,18.7162932 L81.0696966,16.7623169 L81.0685678,16.7628814 Z" id="Shape" fill="#D1D3D3"></path>
                    <path d="M7.50153051,36.7536051 C7.50153051,47.6686678 2.14926102,49.8365542 2.14926102,61.2923186 C2.14926102,64.7859966 2.74301695,68.0539119 3.80918136,71.059378 C4.15248562,70.3564777 4.62327247,69.7234034 5.19762203,69.1923203 C4.4791322,66.8043153 4.08066102,64.1747441 4.08066102,61.2923186 C4.08066102,53.7919169 9.13210169,47.5433695 10.3427542,39.9216203 C10.4420898,38.930522 10.5019169,37.8762102 10.5019169,36.7332864 C10.5019169,28.0244898 6.3439322,20.6674475 6.3439322,20.6674475 L2.19554237,18.7162932 L5.00911017,25.1065068 C6.42746441,28.3253186 7.50153051,32.2818102 7.50153051,36.7536051 L7.50153051,36.7536051 Z" id="Shape" fill="url(#linearGradient-2)"></path>
                    <path d="M79.384378,36.7332864 C79.384378,41.3461831 81.2599017,45.0989237 82.9717475,49.2529576 L85.2039763,49.181278 C83.8194864,45.7146915 82.3819424,42.4095254 82.3819424,36.7536051 C82.3819424,32.2818102 83.4565729,28.3253186 84.8749271,25.1065068 L87.6896237,18.7162932 L83.5412339,20.6674475 C83.5412339,20.6674475 79.384378,28.0239254 79.384378,36.7332864 L79.384378,36.7332864 Z" id="Shape" fill="url(#linearGradient-3)"></path>
                    <path d="M41.6757966,91.2927966 C38.2763746,90.0680339 33.6550119,89.6368271 26.9617119,87.9441712 C17.8155,85.6261525 8.37297458,79.750678 5.19818644,69.1923203 C4.62381733,69.7233858 4.15302759,70.356464 3.80974576,71.059378 C7.4174339,81.2452271 16.4479424,88.3883593 26.2127441,90.9005339 C32.4607271,92.4797441 35.3730661,92.6360847 40.0311153,93.9376068 C40.6384169,94.5765153 44.9425831,99.2277915 44.9425831,99.2277915 L44.9425831,94.7718 C44.9425831,94.7718 42.1120831,91.7025559 41.6757966,91.293361 L41.6757966,91.2927966 Z" id="Shape" fill="url(#linearGradient-4)"></path>
                    <path d="M31.6694288,13.6665458 C39.675539,13.6665458 44.9425831,6.86149322 44.9425831,6.86149322 L44.9425831,2.60530169 L40.7518627,6.75086949 C38.597522,8.88094068 35.1512542,10.6204424 31.6694288,10.6204424 C29.0697712,10.6204424 26.621939,9.46171525 24.4828373,7.68834915 L17.9752271,2.30052203 L19.3298034,7.35647797 C19.3298034,7.35647797 25.4570034,13.6665458 31.6694288,13.6665458 Z" id="Shape" fill="url(#linearGradient-5)"></path>
                    <path d="M85.7271814,61.2923186 C85.7271814,75.4278864 75.6276864,84.7321322 62.9228898,87.9436068 C56.2307186,89.6368271 51.6104847,90.0680339 48.2076763,91.2927966 C47.7713898,91.7025559 44.9425831,94.7718 44.9425831,94.7718 L44.9425831,99.2277915 C44.9425831,99.2277915 49.2467492,94.5759508 49.8540508,93.9376068 C54.5126644,92.6360847 57.4221814,92.4797441 63.6752441,90.9005339 C76.3162627,87.6467288 87.7359051,76.6295085 87.7359051,61.2917542 C87.7359051,55.7718559 86.4902593,52.4074271 85.2039763,49.181278 L82.9717475,49.2529576 C84.4064695,52.7359119 85.7271814,56.5010695 85.7271814,61.2917542 L85.7271814,61.2923186 Z" id="Shape" fill="url(#linearGradient-6)"></path>
                    <path d="M58.2179949,13.6665458 C64.4287271,13.6665458 70.5547983,7.35647797 70.5547983,7.35647797 L71.9105034,2.30052203 L65.4034576,7.68834915 C63.2620983,9.46171525 60.8153949,10.6204424 58.2179949,10.6204424 C54.7339119,10.6204424 51.2870797,8.88094068 49.1333034,6.75086949 L44.9425831,2.60530169 L44.9425831,6.86149322 C44.9425831,6.86149322 50.2118847,13.6665458 58.2174305,13.6665458 L58.2179949,13.6665458 Z" id="Shape" fill="url(#linearGradient-7)"></path>
                    <path d="M19.3298034,7.35647797 L17.9752271,2.30052203 L15.0555508,10.292522 C13.7969237,13.7354034 11.6984593,15.9140136 8.81772712,16.7628814 L2.19497797,18.7162932 L6.3433678,20.6674475 C6.3433678,20.6674475 16.5608237,19.7756847 19.3298034,7.35647797 L19.3298034,7.35647797 Z" id="Shape" fill="url(#linearGradient-8)"></path>
                </g>
            </g>
        </g>
    </g>
</svg>