<svg xmlns="http://www.w3.org/2000/svg" viewBox="0 0 24 16"><path d="M15.061 2.087H3.565v.543c0 .84.328 1.628.89 2.2h-.89v.543c0 .84.328 1.628.89 2.199h-.89v.543c0 .84.328 1.629.89 2.201h-.89v.542c0 1.684 1.289 3.055 2.874 3.055h2.666l1.809-3.059a5.393 5.393 0 0 0 4.146 1.981 5.38 5.38 0 0 0 5.374-5.375 5.38 5.38 0 0 0-5.373-5.373z"/><path d="M11.044 11.587a.376.376 0 0 0 0 .752.376.376 0 0 0 0-.752zm0 .671a.296.296 0 1 1 .003-.591.296.296 0 0 1-.003.591z"/><path d="M11.198 11.875a.127.127 0 0 0-.127-.127h-.181v.43h.08v-.176h.059l.08.176h.089l-.085-.182a.127.127 0 0 0 .085-.121zm-.127.047h-.101v-.093h.101c.026 0 .047.02.047.046s-.02.047-.047.047z"/><path fill="#FFF" d="M15.063 2.267H3.741v.357c0 .994.478 1.872 1.198 2.388H3.741v.358c0 .994.478 1.871 1.198 2.388H3.741v.357c0 .996.478 1.873 1.198 2.387H3.741v.359c0 1.584 1.208 2.873 2.693 2.873h2.562l1.891-3.196a5.194 5.194 0 0 0 4.176 2.117 5.2 5.2 0 0 0 5.194-5.195 5.198 5.198 0 0 0-5.194-5.193z"/><path d="M15.063 2.624H4.203c0 1.39 1.046 2.515 2.334 2.515h4.091c.064 0 .116.052.116.116a.116.116 0 0 1-.116.115H4.203c0 1.388 1.046 2.515 2.334 2.515h2.467a.115.115 0 1 1 0 .23H4.203c0 1.389 1.046 2.514 2.334 2.514h.843c.064 0 .116.053.116.117a.117.117 0 0 1-.116.115H4.203c0 1.389 1.046 2.514 2.334 2.514h2.256l4.216-7.127a2.386 2.386 0 1 1-.331 1.262l-1.596 2.698a4.837 4.837 0 1 0 3.981-7.584z"/><circle fill="#F74902" cx="15.063" cy="7.46" r="1.373"/></svg>