<svg width="512" height="512" viewBox="0 0 512 512" xmlns="http://www.w3.org/2000/svg"><title>philadelphia-flyers</title><g transform="translate(63 127)" fill="none" fill-rule="evenodd"><path d="M258.641 1.866H12.116V13.51c0 18.013 7.034 34.912 19.086 47.178H12.116v11.644c0 18.013 7.034 34.912 19.086 47.156H12.116v11.645c0 18.013 7.034 34.933 19.086 47.199H12.116v11.623c0 36.112 27.642 65.513 61.631 65.513h57.171l38.793-65.599a115.65 115.65 0 0 0 88.909 42.482c63.626-.071 115.183-51.639 115.242-115.264-.082-63.6-51.62-115.139-115.22-115.221z" fill="#000"/><path d="M172.5 205.588a8.063 8.063 0 1 0 0 16.126 8.063 8.063 0 0 0 0-16.126zm0 14.39a6.348 6.348 0 1 1-.671-12.678 6.348 6.348 0 0 1 .67 12.677z" fill="#000"/><path d="M175.802 211.764a2.723 2.723 0 0 0-2.724-2.724h-3.881v9.222h1.715v-3.775h1.265l1.716 3.775h1.909l-1.823-3.903a2.723 2.723 0 0 0 1.823-2.595zm-2.724 1.008h-2.166v-1.995h2.166a.989.989 0 0 1 1.008.987.993.993 0 0 1-1.008 1.008z" fill="#000"/><path d="M258.684 5.726H15.89v7.655c0 21.316 10.25 40.144 25.69 51.21H15.89v7.677c0 21.316 10.25 40.122 25.69 51.21H15.89v7.655c0 21.358 10.25 40.165 25.69 51.188H15.89v7.698c0 33.968 25.905 61.61 57.75 61.61h54.94l40.552-68.536a111.382 111.382 0 0 0 89.552 45.398c61.494-.071 111.324-49.91 111.383-111.404C370.007 55.6 320.17 5.773 258.684 5.726z" fill="#FFF"/><path d="M258.684 13.381H25.798c0 29.808 22.43 53.933 50.051 53.933h87.73a2.49 2.49 0 0 1 2.487 2.488 2.488 2.488 0 0 1-2.488 2.466H25.798c0 29.765 22.43 53.933 50.051 53.933h52.903a2.466 2.466 0 1 1 0 4.932H25.798c0 29.786 22.43 53.911 50.051 53.911h18.078c1.372 0 2.487 1.137 2.487 2.51a2.509 2.509 0 0 1-2.487 2.465h-68.13c0 29.787 22.432 53.912 50.052 53.912h48.379l90.41-152.835c12.981-21.983 40.18-31.033 63.745-21.21 23.564 9.824 36.281 35.514 29.805 60.209-6.477 24.694-30.166 40.836-55.519 37.83-25.352-3.007-44.608-24.242-45.13-49.766l-34.225 57.857c27.994 40.572 80.674 55.839 126.024 36.523 45.35-19.316 70.842-67.88 60.983-116.177-9.858-48.296-52.344-82.983-101.637-82.98z" fill="#000"/><ellipse fill="#F74902" cx="258.684" cy="117.087" rx="29.443" ry="29.443"/></g></svg>