<svg xmlns="http://www.w3.org/2000/svg" viewBox="0 0 24 16"><path fill="#FFF" d="M19.159,2.455H18.09c-0.044-0.124-0.117-0.246-0.224-0.353c-0.311-0.311-0.729-0.361-0.971-0.119 c-0.051,0.052-0.09,0.113-0.115,0.181c-0.071-0.053-0.161-0.1-0.269-0.142c-0.15-0.315-0.362-0.762-0.839-0.762 c-0.17,0-0.323,0.053-0.442,0.113c-0.353-0.279-1.114-0.8-1.892-0.8c-0.853,0-2.035,0.782-2.382,0.782 c-0.252,0-0.819-1.25-1.698-1.25c-0.473,0-0.952,0.32-1.522,0.665C7.192,1.096,7.047,1.49,6.89,1.906 C6.836,2.041,6.599,2.289,6.434,2.455h-2.73l4.649,8.085H5.17l-1.014,1.825h4.67c0.16,0,0.338-0.055,0.497-0.139l2.108,3.668 l2.053-3.569h1.709v-1.001h-0.115c-0.001-0.348-0.265-0.727-0.396-0.894l-0.025-0.145l0.393-0.683l2.285-0.843 c0.372-0.137,0.543-0.47,0.624-0.729c0,0,0.252-0.002,0.481-0.266c0.161,0.041,0.366,0.084,0.525,0.084 c0.346,0,0.709-0.197,0.803-0.566c0,0,0.366-0.225,0.528-0.917l-2.845-0.941L19.159,2.455z"/><path d="M16.943,5.957L17.3,6.075l-0.002,0.23c-0.19-0.007-0.343-0.043-0.343,0.513c0,0.415,0.079,0.549,0.079,0.666 c0,0.199-0.017,0.247-0.641,0.247c0,0-0.098-0.119-0.439-0.251c0,0-0.007-0.032-0.021-0.09l2.643-4.597h-0.801 c0.06-0.114,0.001-0.303-0.147-0.452c-0.17-0.169-0.391-0.222-0.494-0.119c-0.047,0.047-0.062,0.118-0.048,0.198l-0.328,0.345 c0.008-0.052,0.026-0.326-0.49-0.474c-0.155-0.308-0.286-0.693-0.595-0.693c-0.253,0-0.472,0.192-0.472,0.192 s-0.944-0.879-1.862-0.879c-0.798,0-1.897,0.782-2.382,0.782c-0.516,0-0.973-1.25-1.698-1.25c-0.391,0-0.851,0.313-1.347,0.616 c-0.496,0.301-0.588,0.67-0.709,0.972C7.123,2.231,6.869,2.5,6.573,2.792H4.288l4.643,8.074c-0.035,0.007-0.069,0.011-0.101,0.011 h-3.46l-0.639,1.15h4.097c0.174,0,0.413-0.104,0.531-0.233l0.065-0.07l2.009,3.494l1.857-3.229h1.566v-0.326h-0.376l-0.066-0.209 h0.057l0.271-0.126c0-0.313-0.377-0.753-0.377-0.753l-0.062-0.351l0.515-0.894l2.4-0.886c0.425-0.157,0.473-0.777,0.473-0.777 s0.391,0.184,0.605-0.293c0,0,0.434,0.139,0.669,0.139c0.204,0,0.49-0.11,0.49-0.417c0,0,0.314-0.189,0.418-0.512l-2.827-0.937 L16.943,5.957z"/><g fill="#FCB514"><path d="M13.36 8.963c0-.049-.735-.244-1.024-.355-.266.104.078.157.078.5 0 .203-.1.441-.1.441l-.146.042c0 0-.293.54-.48.46-.269.473-.378.581-.805.581-.137 0-.257-.039-.363-.106L9.59 11.54l1.841 3.203 1.585-2.755h-1.14c0-.294.187-.535.187-.535 0-.468.288-.566.503-.586.454-.04.64-.001.64-.223 0-.157-.014-.343-.014-.343h.168c0-.611-.172-.761-.172-1.072C13.188 9.109 13.36 9.059 13.36 8.963zM14.09 10.121L14.446 9.5 14.048 9.695zM15.285 3.818L15.201 3.63c-.433.073-.82-.146-.931-.204-.11-.056.011-.298.011-.298s-.03-.052-.099-.1H13.73c-.085.076-.105.194-.036.266.48.498.866 1.033 1.173 1.548l.502-.527L15.285 3.818zM13.227 11.621L13.324 11.453 13.165 11.453zM17.184 3.029l-.064.072c.263.311.154.628.154.628 0 .24-.127.236-.127.236 0 .559-.293.46-.293.46 0 .735-.81.438-.81.438-.133-.017-.243-.054-.332-.097l-.549.612c.356.692.568 1.307.683 1.69l2.322-4.039H17.184zM9.909 9.256C9.761 8.898 9.826 8.817 9.826 8.817S9.35 8.426 9.491 7.939c0 0-1.226-1.777-1.226-2.831 0-.545.264-.492.264-.938 0-.366-.25-.639-.43-.639-.206 0-.848.424-1.788.978l.355-.816L5.81 4.572c0 0-.167-.858.294-1.319.076-.075.152-.15.228-.224H4.696l4.464 7.763c.082-.039.157-.087.209-.14l.704-.71C9.96 9.679 9.909 9.406 9.909 9.256z"/><path d="M12.543 11.662L12.698 11.662 12.765 11.453 12.425 11.453z"/></g><g fill="#FFF"><path d="M13.597 11.453L13.476 11.662 13.969 11.662 14.028 11.453zM18.991 6.634L18.868 6.804 19.183 6.908 19.139 6.684zM17.785 6.235L17.669 6.406 18.481 6.676 18.476 6.463z"/><ellipse transform="rotate(-103.455 18.965 7.227)" cx="18.966" cy="7.228" rx=".105" ry=".188"/><ellipse transform="rotate(142.064 12.399 11.139)" cx="12.398" cy="11.139" rx=".188" ry=".105"/><path d="M9.47 10.753c-.148.15-.43.268-.641.268H8.808l-.391.864h.41c.135 0 .334-.088.425-.188l1.138-1.241-.259-.369L9.47 10.753zM4.973 11.885L5.531 11.885 6.011 11.021 5.453 11.021zM14.143 11.453l-.091.319h-.887l-.117-.319H12.88l-.101.319h-.3l-.181-.319h-.096c-.029.033-.162.194-.206.425h2.749v-.105h-.347l-.103-.319H14.143zM17.407 6.32l.152.05.182-.266.842.279.01.329.166.055.19-.263.284.094.069.349.117.039c.058-.04.215-.159.307-.336l-2.611-.864-.033.101.329.109L17.407 6.32zM11.907 7.953l2.39-2.511c-.874-1.213-2.148-2.306-3.299-2.306-1.026 0-1.719.755-1.719 1.554C9.279 6.129 10.572 7.248 11.907 7.953zM12.572 8.27c.806.347 1.549.531 1.939.531.36 0 .853-.1.853-.881 0-.512-.277-1.233-.722-1.961L12.572 8.27zM6.103 3.442C5.936 3.63 5.915 4.174 5.915 4.174l1.36-1.171L6.73 4.006c0 0 .92-.418 1.004-.627 0 0-.189-.46-.607-.879C7.127 2.5 6.271 3.254 6.103 3.442zM7.974 1.873c0-.148.209-.297.235-.368 0 0-.135-.183-.326-.091C7.854 1.831 7.747 2.029 7.7 2.282c.156.129.104-.196.328-.196.075 0 .184.093.184.2 0 .125-.068.191-.068.191l.157-.013c0 0 .067-.067.067-.201C8.369 1.959 7.974 1.953 7.974 1.873zM15.517 4.358l-3.844 4.04c-.14.146.229.402.359.253l3.681-4.108C15.848 4.392 15.659 4.216 15.517 4.358zM10.721 8.723c0 0 .057-.21-.107-.21-.336 0-.658.278-.658.421 0 .074.03.139.03.139S10.424 8.652 10.721 8.723zM11.379 8.714c0-.146-.127-.17-.265-.17s-.21.093-.21.151c0 .151.154.316.222.316C11.164 9.012 11.379 8.893 11.379 8.714zM11.588 8.764c-.085 0-.133.102-.133.277 0 .058.072.102.114.102.028 0 .093-.064.093-.262C11.662 8.82 11.641 8.764 11.588 8.764zM11.898 8.934c-.146 0-.093.325-.093.433 0 .106-.041.161-.041.161.03.054.026.205.124.205.056 0 .137-.084.137-.294C12.025 9.123 12.03 8.934 11.898 8.934zM12.15 9.018l-.021.193.131.021.034-.111C12.258 9.101 12.227 8.997 12.15 9.018zM10.088 9.32c.072.829.57 1.182.57 1.182l.098-.051c0 0-.25-.475-.524-1.357L10.088 9.32zM10.432 8.984c.218.892.485 1.413.597 1.442 0 0 .076-.129.076-.899C11.105 9.527 10.914 8.718 10.432 8.984zM11.298 9.32c.04.913-.106.897-.106 1.037 0 .227.388-.063.388-.639C11.579 9.037 11.298 9.32 11.298 9.32zM9.696 7.905C9.438 8.262 9.861 8.634 9.861 8.634s.155.011.241-.075C10.102 8.559 9.969 8.072 9.696 7.905zM10.314 8.235c0-.052-.073-.046-.073-.425 0-.301-.339-.188-.339-.028s.275.357.275.474C10.177 8.256 10.314 8.307 10.314 8.235zM10.583 8.037c0-.604-.207-.5-.207-.283C10.376 7.996 10.512 8.107 10.583 8.037zM10.782 7.596c-.075.166-.021.412-.021.582 0 .176.117.17.172.14C10.866 8.184 11.048 7.723 10.782 7.596zM11.051 7.686c-.035.215.033.598.033.598s.139.059.187-.014C11.26 8.194 11.26 8.023 11.26 7.922 11.26 7.664 11.051 7.686 11.051 7.686zM11.435 7.885c-.053.334.062.51.062.51.042-.024.073-.008.073-.291C11.57 7.822 11.435 7.885 11.435 7.885zM16.5 2.891c.238-.121-.011-.433-.181-.336-.707.459-.782 1.161-.782 1.161S15.6 3.819 15.77 3.791C15.77 3.791 16.148 3.063 16.5 2.891zM15.948 3.797c0 0 .017.084.123.084.201 0 .609-.433.609-.785 0-.072-.107-.075-.107-.075C16.2 3.262 15.948 3.797 15.948 3.797zM16.881 2.958c.253 0 .452-.262.452-.317 0-.055-.056-.093-.155-.093s-.362.284-.362.364C16.815 2.929 16.828 2.958 16.881 2.958zM15.464 4.225c0 0 .073-.054.194-.047-.076-.241-.212-.182-.212-.182C15.392 4.077 15.464 4.225 15.464 4.225zM16.423 4.855c.088-.381-.302-.777-.302-.777-.275-.021-.283.076-.283.076S16.034 4.855 16.423 4.855zM16.326 3.956c0 0 .092.591.358.591C16.709 4.456 16.601 3.956 16.326 3.956zM16.561 3.75c0 0 .153.439.316.439 0 0 .062-.292-.214-.528C16.577 3.661 16.561 3.75 16.561 3.75zM17.162 3.865c0-.213-.341-.589-.341-.589L16.739 3.44l.329.494C17.068 3.935 17.162 3.981 17.162 3.865zM16.897 3.139l.309.542c0 0-.008-.309-.241-.59C16.965 3.091 16.897 3.083 16.897 3.139zM15.103 3.502c0 0-.385-.203-.688-.289l-.021.062C14.395 3.276 14.562 3.529 15.103 3.502zM15.282 3.413c.028.012.114-.077.055-.116-.071-.046-.611-.345-.776-.392-.092.094-.041.151-.041.151L15.282 3.413zM15.412 3.166c.043.023.113-.116.068-.146-.268-.178-.531-.346-.828-.48-.074.099-.05.187-.05.187L15.412 3.166zM15.62 2.844c0-.139-.607-.607-.702-.607S14.78 2.354 14.78 2.354l.77.55C15.575 2.922 15.62 2.86 15.62 2.844zM15.818 2.664l-.564-.646c-.075-.085-.205.076-.205.076l.638.625C15.746 2.776 15.849 2.694 15.818 2.664zM15.969 2.423l-.474-.645c-.12 0-.145.103-.145.103l.516.549C15.932 2.5 15.969 2.423 15.969 2.423zM15.976 2.08l-.149-.32c-.015-.031-.119-.026-.119.035C15.707 1.841 15.816 2.08 15.976 2.08zM13.282 14.426c0-.175-.142-.316-.317-.316-.174 0-.316.142-.316.316s.143.317.316.317C13.141 14.743 13.282 14.601 13.282 14.426zM12.717 14.426c0-.137.111-.248.248-.248.138 0 .249.111.249.248 0 .139-.111.249-.249.249C12.828 14.675 12.717 14.564 12.717 14.426z"/><path d="M13.096,14.607l-0.071-0.153c0.041-0.015,0.071-0.055,0.071-0.102c0-0.06-0.049-0.106-0.108-0.106h-0.152 v0.361h0.068V14.46h0.049l0.068,0.147H13.096z M12.987,14.392h-0.084v-0.078h0.084c0.022,0,0.04,0.018,0.04,0.039 C13.027,14.375,13.01,14.392,12.987,14.392z"/></g></svg>