<?xml version="1.0" encoding="UTF-8"?>
<svg width="512px" height="512px" viewBox="0 0 512 512" version="1.1" xmlns="http://www.w3.org/2000/svg" xmlns:xlink="http://www.w3.org/1999/xlink">
    <!-- Generator: Sketch 41.2 (35397) - http://www.bohemiancoding.com/sketch -->
    <title>pittsburgh-penguins</title>
    <desc>Created with Sketch.</desc>
    <defs></defs>
    <g id="NHL" stroke="none" stroke-width="1" fill="none" fill-rule="evenodd">
        <g id="pittsburgh-penguins">
            <g id="pit" transform="translate(78.000000, 98.000000)">
                <path d="M319.584625,48.5537629 L298.442477,48.5537629 C297.504901,45.9253403 295.991221,43.5399428 294.012317,41.5723053 C287.861515,35.4215028 279.59452,34.4326278 274.808365,39.2187828 C273.804142,40.236591 273.02873,41.4570214 272.533952,42.7985103 C270.893734,41.6293308 269.104484,40.6848195 267.213805,39.9901053 C264.24718,33.7601928 260.05435,24.9196502 250.620482,24.9196502 C247.572346,24.9738938 244.578989,25.7391639 241.878827,27.1545077 C234.897369,21.6365852 219.846692,11.3325076 204.459797,11.3325076 C187.589589,11.3325076 164.212584,26.7985127 157.349791,26.7985127 C152.365861,26.7985127 141.152019,2.07663752 123.767596,2.07663752 C114.412838,2.07663752 104.939416,8.40543756 93.6662407,15.2286751 C82.9072806,21.6761402 80.0395431,29.4684752 76.9344756,37.6959153 C75.8664906,40.3658778 71.179223,45.2706978 67.9159355,48.5537629 L13.9233601,48.5537629 L105.868958,208.454852 L42.9171753,208.454852 L22.8627902,244.548789 L115.223716,244.548789 C118.388116,244.548789 121.908511,243.461027 125.053133,241.799717 L166.744104,314.343587 L207.347312,243.757689 L241.147059,243.757689 L241.147059,223.960412 L238.872647,223.960412 C238.852869,217.077842 233.631609,209.582169 231.040757,206.279327 L230.546319,203.411589 L238.318877,189.903556 L283.510465,173.231124 C290.867695,170.521606 294.249647,163.935699 295.851625,158.813326 C295.851625,158.813326 300.835555,158.773771 305.364602,153.552511 C308.54878,154.363389 312.603167,155.213821 315.74779,155.213821 C322.590805,155.213821 329.770038,151.317654 331.629123,144.019756 C331.629123,144.019756 338.867688,139.569819 342.071643,125.883788 L285.804655,107.273161 L319.584625,48.5537629 L319.584625,48.5537629 Z" id="Shape" fill="#FFFFFF"></path>
                <path d="M275.757685,117.814568 L282.818252,120.148313 L282.778697,124.697138 C279.020972,124.558696 275.995015,123.846706 275.995015,134.842996 C275.995015,143.050659 277.557437,145.700844 277.557437,148.014811 C277.557437,151.950534 277.22122,152.899854 264.88006,152.899854 C264.88006,152.899854 262.941865,150.546331 256.197737,147.935701 L255.782409,146.155726 L308.054342,55.2385579 L292.212565,55.2385579 C293.399215,52.9839229 292.232342,49.2459754 289.305272,46.2991279 C285.943097,42.9567303 281.57227,41.9085228 279.535187,43.9456053 C278.605645,44.8751478 278.308982,46.2793504 278.585867,47.8615504 L272.098847,54.6847879 C272.257067,53.6563579 272.613062,48.2373229 262.407872,45.3102528 C259.34236,39.2187828 256.751507,31.6044452 250.640259,31.6044452 C245.636552,31.6044452 241.305279,35.4017253 241.305279,35.4017253 C241.305279,35.4017253 222.635319,18.0173026 204.479574,18.0173026 C188.697129,18.0173026 166.961656,33.4833078 157.369569,33.4833078 C147.164379,33.4833078 138.126061,8.76143257 123.787373,8.76143257 C116.054371,8.76143257 106.956721,14.9517901 97.1470807,20.9443727 C87.3374407,26.8974002 85.5179107,34.1952978 83.1248331,40.1681028 C81.5426331,44.1236028 76.5191481,49.4437504 70.665008,55.2187804 L25.4734202,55.2187804 L117.300353,214.902317 C116.643208,215.039862 115.974173,215.112727 115.302826,215.119869 L46.8726754,215.119869 L34.2348528,237.863994 L115.263271,237.863994 C119.207019,237.652886 122.939491,236.015097 125.765123,233.255837 L127.050661,231.871412 L166.783659,300.973997 L203.510477,237.112449 L234.482042,237.112449 L234.482042,230.664984 L227.045702,230.664984 L225.740387,226.531487 L226.867704,226.531487 L232.227407,224.039522 C232.227407,217.849164 224.771289,209.147064 224.771289,209.147064 L223.545084,202.205162 L233.730497,184.524076 L281.196497,167.001211 C289.601935,163.896144 290.551255,151.634094 290.551255,151.634094 C290.551255,151.634094 298.284257,155.273154 302.516642,145.839286 C302.516642,145.839286 311.100077,148.588359 315.74779,148.588359 C319.7824,148.588359 325.438765,146.412834 325.438765,140.341141 C325.438765,140.341141 331.6489,136.603194 333.70576,130.215061 L277.794767,111.683543 L275.757685,117.814568 L275.757685,117.814568 Z" id="Shape" fill="#000000"></path>
                <g id="Group" transform="translate(19.777500, 59.332500)" fill="#FCB514">
                    <path d="M185.117401,117.933233 C185.117401,116.964136 170.580939,113.107523 164.865241,110.912221 C159.604426,112.969081 166.407886,114.017288 166.407886,120.800971 C166.407886,124.815803 164.430136,129.522848 164.430136,129.522848 L161.542621,130.353504 C161.542621,130.353504 155.747814,141.033354 152.049421,139.451154 C146.729274,148.805911 144.573526,150.941881 136.128534,150.941881 C133.583164,150.951431 131.089549,150.223268 128.949301,148.845466 L110.556226,168.899851 L146.966604,232.247184 L178.313941,177.760171 L155.767591,177.760171 C155.767591,171.945586 159.465984,167.179209 159.465984,167.179209 C159.465984,157.923339 165.161904,155.985144 169.414066,155.589594 C178.393051,154.798494 182.071666,155.569816 182.071666,151.179211 C182.071666,148.074144 181.794781,144.395529 181.794781,144.395529 L185.117401,144.395529 C185.117401,132.311476 181.715671,129.344851 181.715671,123.194048 C181.715671,120.820748 185.117401,119.831873 185.117401,117.933233 L185.117401,117.933233 Z M199.554977,140.835579 L206.595767,128.553751 L198.724322,132.410364 L199.554977,140.835579 Z M223.189089,16.1779951 L221.527779,12.4598251 C212.964122,13.9035826 205.310229,9.57231007 203.114927,8.42521507 C200.939402,7.31767506 203.332479,2.53152002 203.332479,2.53152002 C203.332479,2.53152002 202.739154,1.50309001 201.374507,0.553770004 L192.435076,0.553770004 C190.753989,2.05686002 190.358439,4.39060503 191.723086,5.81458504 C201.216287,15.6637801 208.850402,26.2447427 214.922094,36.4301553 L224.850399,26.0074127 L223.189089,16.1779951 Z M182.486994,170.501829 L184.405411,167.179209 L181.260789,167.179209 L182.486994,170.501829 Z M260.746562,0.573547504 L259.480802,1.99752752 C264.682285,8.14833006 262.526537,14.4177976 262.526537,14.4177976 C262.526537,19.1643976 260.014795,19.0852876 260.014795,19.0852876 C260.014795,30.1409102 254.219987,28.1829377 254.219987,28.1829377 C254.219987,42.7194003 238.200212,36.8454828 238.200212,36.8454828 C235.921946,36.5663358 233.704269,35.9183999 231.634082,34.9270653 L220.776234,47.0308954 C227.817024,60.7169255 232.009854,72.8800881 234.284267,80.4548706 L280.207622,0.573547504 L260.746562,0.573547504 L260.746562,0.573547504 Z M116.865248,123.728041 C113.938178,116.647696 115.223716,115.045718 115.223716,115.045718 C115.223716,115.045718 105.809626,107.312716 108.598253,97.6810733 C108.598253,97.6810733 84.3510382,62.5364555 84.3510382,41.6909703 C84.3510382,30.9122327 89.5722982,31.9604402 89.5722982,23.1396752 C89.5722982,15.9011101 84.6279232,10.5018526 81.0679731,10.5018526 C76.9938081,10.5018526 64.296653,18.8875126 45.7058029,29.8442477 L52.7268154,13.7058076 L35.7972753,31.0902302 C35.7972753,31.0902302 32.4944328,14.1211351 41.6118603,5.00370754 L46.1211304,0.573547504 L13.7651401,0.573547504 L102.051901,154.106281 C103.576163,153.423298 104.973756,152.487111 106.185398,151.337431 L120.108758,137.295406 C118.215224,133.006578 117.116226,128.409551 116.865248,123.728041 L116.865248,123.728041 Z" id="Shape"></path>
                    <polygon id="Shape" points="168.959184 171.312706 172.024696 171.312706 173.349789 167.179209 166.625439 167.179209"></polygon>
                </g>
                <g id="Group" transform="translate(19.777500, 19.777500)" fill="#FFFFFF">
                    <path d="M189.804669,206.734209 L187.411591,210.867707 L197.161899,210.867707 L198.328772,206.734209 L189.804669,206.734209 Z M296.484505,111.426436 L294.051872,114.788611 L300.281785,116.845471 L299.411575,112.415311 L296.484505,111.426436 Z M272.63284,103.535213 L270.33865,106.917166 L286.39798,112.257091 L286.299092,108.044483 L272.63284,103.535213 Z" id="Shape"></path>
                    <ellipse id="Oval" transform="translate(300.168404, 114.097183) rotate(256.545000) translate(-300.168404, -114.097183) " cx="292.356291" cy="107.926603" rx="2.07663752" ry="3.71817003"></ellipse>
                    <ellipse id="Oval" transform="translate(156.457361, 198.144073) rotate(142.064000) translate(-156.457361, -198.144073) " cx="150.286781" cy="190.33196" rx="3.71817003" ry="2.07663752"></ellipse>
                    <path d="M108.182926,192.889959 C104.707601,196.085848 100.221397,197.961514 95.5055482,198.190329 L95.0902207,198.190329 L87.3572182,215.278089 L95.4659932,215.278089 C98.6175155,215.064274 101.593215,213.747964 103.871431,211.559919 L126.378226,187.016041 L121.255853,179.718144 L108.182926,192.889959 L108.182926,192.889959 Z M19.2435076,215.278089 L30.2793527,215.278089 L39.7725528,198.190329 L28.7367077,198.190329 L19.2435076,215.278089 Z M200.603184,206.734209 L198.803432,213.043232 L181.260789,213.043232 L178.946821,206.734209 L175.624201,206.734209 L173.626674,213.043232 L167.693424,213.043232 L164.113696,206.734209 L162.215056,206.734209 C160.170365,209.147918 158.76891,212.039269 158.140891,215.139647 L212.509239,215.139647 L212.509239,213.063009 L205.646447,213.063009 L203.609364,206.753987 L200.603184,206.753987 L200.603184,206.734209 Z M265.156945,105.216301 L268.163125,106.205176 L271.76263,100.944361 L288.415285,106.462283 L288.61306,112.969081 L291.896125,114.056843 L295.65385,108.855361 L301.27066,110.714446 L302.635307,117.616793 L304.949275,118.388116 C307.458458,116.670798 309.536496,114.396463 311.020967,111.742876 L259.381915,94.6551157 L258.729257,96.6526432 L265.236055,98.8083908 L265.156945,105.216301 L265.156945,105.216301 Z M156.380694,137.512959 L203.648919,87.8516557 C186.363384,63.861548 161.166849,42.2447403 138.402946,42.2447403 C118.111231,42.2447403 104.405423,57.1767529 104.405423,72.9789756 C104.405423,101.438798 129.977731,123.569821 156.380694,137.512959 L156.380694,137.512959 Z M169.532731,143.782426 C185.473396,150.645219 200.168079,154.284279 207.881304,154.284279 C215.001204,154.284279 224.751512,152.306529 224.751512,136.860301 C224.751512,126.734221 219.273144,112.474643 210.472157,98.0766233 L169.532731,143.782426 Z M41.5920828,48.2966554 C38.2892403,52.0148254 37.8739128,62.7737855 37.8739128,62.7737855 L64.771313,39.6143328 L53.9925754,59.4511655 C53.9925754,59.4511655 72.1878756,51.1841704 73.8491856,47.0506729 C73.8491856,47.0506729 70.111238,37.9530228 61.844243,29.6662502 C61.844243,29.6662502 44.9147028,44.5784853 41.5920828,48.2966554 Z M78.5957856,17.2657576 C78.5957856,14.3386876 82.7292831,11.3918401 83.2434981,9.98763758 C83.2434981,9.98763758 80.5735356,6.36835505 76.7960331,8.18788506 C76.2224856,16.4351026 74.1062931,20.3510477 73.1767506,25.3547552 C76.2620406,27.9060527 75.2336106,21.4783652 79.6637706,21.4783652 C81.1470831,21.4783652 83.3028306,23.3176727 83.3028306,25.4338652 C83.3028306,27.9060527 81.9579606,29.2113677 81.9579606,29.2113677 L85.0630282,28.9542602 C85.0630282,28.9542602 86.3881207,27.6291677 86.3881207,24.9789827 C86.4078982,18.9666226 78.5957856,18.8479576 78.5957856,17.2657576 Z M227.777469,66.4128455 L151.752759,146.313946 C148.983909,149.201461 156.281806,154.264501 158.852881,151.317654 L231.653859,70.071683 C234.323822,67.0852805 230.585874,63.6044405 227.777469,66.4128455 L227.777469,66.4128455 Z M132.924579,152.741634 C132.924579,152.741634 134.051896,148.588359 130.808386,148.588359 C124.163146,148.588359 117.794791,154.086504 117.794791,156.914686 C117.794791,158.378221 118.388116,159.663759 118.388116,159.663759 C118.388116,159.663759 127.050661,151.337431 132.924579,152.741634 L132.924579,152.741634 Z M145.938174,152.563636 C145.938174,149.676121 143.426431,149.201461 140.697136,149.201461 C137.967841,149.201461 136.543861,151.040769 136.543861,152.187864 C136.543861,155.174266 139.589596,158.437554 140.934466,158.437554 C141.686011,158.457331 145.938174,156.103809 145.938174,152.563636 L145.938174,152.563636 Z M150.071671,153.552511 C148.390584,153.552511 147.441264,155.569816 147.441264,159.030879 C147.441264,160.177974 148.865244,161.048184 149.695899,161.048184 C150.249669,161.048184 151.535206,159.782424 151.535206,155.866479 C151.535206,154.660051 151.119879,153.552511 150.071671,153.552511 L150.071671,153.552511 Z M156.202696,156.914686 C153.315181,156.914686 154.363389,163.342374 154.363389,165.478344 C154.363389,167.574759 153.552511,168.662521 153.552511,168.662521 C154.145836,169.730506 154.066726,172.716909 156.004921,172.716909 C157.112461,172.716909 158.714439,171.055599 158.714439,166.902324 C158.714439,160.652634 158.813326,156.914686 156.202696,156.914686 L156.202696,156.914686 Z M161.186626,158.575996 L160.771299,162.393054 L163.362151,162.808381 L164.034586,160.613079 C163.322596,160.217529 162.709494,158.160669 161.186626,158.575996 Z M120.405421,164.548801 C121.829401,180.944349 131.678596,187.925806 131.678596,187.925806 L133.616791,186.917154 C133.616791,186.917154 128.672416,177.522841 123.253381,160.079086 L120.405421,164.548801 L120.405421,164.548801 Z M127.208881,157.903561 C131.520376,175.545091 136.800969,185.849169 139.016049,186.422716 C139.016049,186.422716 140.519139,183.871419 140.519139,168.642744 C140.519139,168.642744 136.741636,152.642746 127.208881,157.903561 L127.208881,157.903561 Z M144.336196,164.548801 C145.127296,182.605659 142.239781,182.289219 142.239781,185.058069 C142.239781,189.547561 149.913451,183.812086 149.913451,172.420246 C149.893674,158.951769 144.336196,164.548801 144.336196,164.548801 Z M112.652641,136.563639 C107.550046,143.624206 115.915928,150.981436 115.915928,150.981436 C115.915928,150.981436 118.981441,151.198989 120.682306,149.498124 C120.682306,149.498124 118.051898,139.866481 112.652641,136.563639 L112.652641,136.563639 Z M124.875136,143.090214 C124.875136,142.061784 123.431378,142.180449 123.431378,134.684776 C123.431378,128.731748 116.726806,130.966606 116.726806,134.131006 C116.726806,137.295406 122.165618,141.191574 122.165618,143.505541 C122.165618,143.505541 124.875136,144.514194 124.875136,143.090214 Z M130.195284,139.174269 C130.195284,127.228658 126.101341,129.285518 126.101341,133.577236 C126.101341,138.363391 128.791081,140.558694 130.195284,139.174269 Z M134.131006,130.452391 C132.647694,133.735456 133.715679,138.600721 133.715679,141.962896 C133.715679,145.443736 136.029646,145.325071 137.117409,144.731746 C135.792316,142.081561 139.391821,132.964134 134.131006,130.452391 L134.131006,130.452391 Z M139.451154,132.232366 C138.758941,136.484529 140.103811,144.059311 140.103811,144.059311 C140.103811,144.059311 142.852884,145.226184 143.802204,143.782426 C143.584651,142.279336 143.584651,138.897384 143.584651,136.899856 C143.584651,131.797261 139.451154,132.232366 139.451154,132.232366 L139.451154,132.232366 Z M147.045714,136.168089 C145.997506,142.773774 148.271919,146.254614 148.271919,146.254614 C149.102574,145.779954 149.715676,146.096394 149.715676,140.499361 C149.715676,134.922106 147.045714,136.168089 147.045714,136.168089 Z M247.218752,37.3992528 C251.925797,35.0061753 247.001199,28.8355952 243.639024,30.7540127 C229.656332,39.8318853 228.173019,53.7156904 228.173019,53.7156904 C228.173019,53.7156904 229.419002,55.7527729 232.781177,55.1990029 C232.781177,55.1990029 240.257072,40.8009828 247.218752,37.3992528 L247.218752,37.3992528 Z M236.301572,55.3176679 C236.301572,55.3176679 236.637789,56.9789779 238.734204,56.9789779 C242.709482,56.9789779 250.778702,48.4153204 250.778702,41.4536403 C250.778702,40.0296603 248.662509,39.9703278 248.662509,39.9703278 C241.285502,44.7367053 236.301572,55.3176679 236.301572,55.3176679 L236.301572,55.3176679 Z M254.753979,38.7243453 C259.757687,38.7243453 263.69341,33.5426403 263.69341,32.4548778 C263.69341,31.3671152 262.58587,30.6155702 260.627897,30.6155702 C258.669924,30.6155702 253.468442,36.2323803 253.468442,37.8145803 C253.448664,38.1507978 253.705772,38.7243453 254.753979,38.7243453 L254.753979,38.7243453 Z M226.729262,63.782438 C226.729262,63.782438 228.173019,62.714453 230.566097,62.8528955 C229.063007,58.0865179 226.373267,59.2533905 226.373267,59.2533905 C225.305282,60.855368 226.729262,63.782438 226.729262,63.782438 L226.729262,63.782438 Z M245.695884,76.2422631 C247.436304,68.7070355 239.723079,60.8751455 239.723079,60.8751455 C234.284267,60.459818 234.126047,62.3782355 234.126047,62.3782355 C234.126047,62.3782355 238.002437,76.2422631 245.695884,76.2422631 L245.695884,76.2422631 Z M243.777467,58.4622905 C243.777467,58.4622905 245.596997,70.150793 250.857812,70.150793 C251.352249,68.3510405 249.216279,58.4622905 243.777467,58.4622905 Z M248.425179,54.3881254 C248.425179,54.3881254 251.451137,63.070448 254.674869,63.070448 C254.674869,63.070448 255.901074,57.2954179 250.442484,52.6279279 C248.741619,52.6279279 248.425179,54.3881254 248.425179,54.3881254 L248.425179,54.3881254 Z M260.311457,56.6625379 C260.311457,52.4499304 253.567329,45.0135903 253.567329,45.0135903 L251.945574,48.2571004 L258.452372,58.0271854 C258.452372,58.0469629 260.311457,58.956728 260.311457,56.6625379 Z M255.070419,42.3040728 L261.181667,53.0234779 C261.181667,53.0234779 261.023447,46.9122304 256.415289,41.3547528 C256.415289,41.3547528 255.070419,41.1965328 255.070419,42.3040728 L255.070419,42.3040728 Z M219.589584,49.4833054 C219.589584,49.4833054 211.975247,45.4684729 205.982664,43.7676078 L205.567337,44.9938128 C205.587114,45.0135903 208.889957,50.0172979 219.589584,49.4833054 L219.589584,49.4833054 Z M223.129757,47.7231079 C223.683527,47.9604379 225.384392,46.2002404 224.217519,45.4289179 C222.813317,44.5191528 212.133467,38.6056803 208.870179,37.6761378 C207.050649,39.5352228 208.059302,40.6625403 208.059302,40.6625403 L223.129757,47.7231079 L223.129757,47.7231079 Z M225.700832,42.8380653 C226.551264,43.2929478 227.935689,40.5438753 227.045702,39.9505503 C221.857332,36.3414061 216.380183,33.1662473 210.669932,30.4573502 C209.206397,32.4153228 209.681057,34.1557428 209.681057,34.1557428 L225.700832,42.8380653 L225.700832,42.8380653 Z M229.814552,36.4697103 C229.814552,33.7206378 217.809609,24.4647677 215.930747,24.4647677 C214.051884,24.4647677 213.201452,26.7787352 213.201452,26.7787352 L228.430127,37.6563603 C228.924564,38.0123553 229.814552,36.7861503 229.814552,36.4697103 Z M233.730497,32.9097603 L222.575987,20.1334952 C221.092674,18.4524076 218.521599,21.6365852 218.521599,21.6365852 L231.139644,33.9975228 C232.306517,35.1248403 234.343599,33.5030853 233.730497,32.9097603 Z M236.716899,28.1433827 L227.342364,15.3868951 C224.969064,15.3868951 224.474627,17.4239776 224.474627,17.4239776 L234.679817,28.2818252 C235.985132,29.6662502 236.716899,28.1433827 236.716899,28.1433827 Z M236.855342,21.3597002 L233.908494,15.0309001 C233.611832,14.4177976 231.554972,14.5166851 231.554972,15.7231126 C231.535194,16.6328776 233.690942,21.3597002 236.855342,21.3597002 L236.855342,21.3597002 Z M183.574756,265.532717 C183.574756,262.081109 180.776675,259.283027 177.325066,259.283027 C173.873458,259.283027 171.075376,262.081109 171.075376,265.532717 C171.075376,268.984326 173.873458,271.782407 177.325066,271.782407 C180.776675,271.782407 183.574756,268.984326 183.574756,265.532717 Z M172.400469,265.532717 C172.400469,262.818398 174.600859,260.618008 177.315178,260.618008 C180.029496,260.618008 182.229886,262.818398 182.229886,265.532717 C182.229886,268.247036 180.029496,270.447426 177.315178,270.447426 C174.600859,270.447426 172.400469,268.247036 172.400469,265.532717 L172.400469,265.532717 Z" id="Shape"></path>
                    <path d="M179.896141,269.112445 L178.491939,266.086487 C179.335051,265.772884 179.894807,264.968728 179.896141,264.069182 C179.896242,263.506257 179.669948,262.966942 179.268197,262.572631 C178.866446,262.17832 178.322997,261.962146 177.760171,261.972767 L174.753991,261.972767 L174.753991,269.112445 L176.098861,269.112445 L176.098861,266.205152 L177.067959,266.205152 L178.412829,269.112445 L179.896141,269.112445 L179.896141,269.112445 Z M177.740394,264.860282 L176.079084,264.860282 L176.079084,263.317637 L177.740394,263.317637 C178.169698,263.317503 178.520761,263.65979 178.531494,264.08896 C178.531562,264.297 178.447589,264.496247 178.298632,264.64148 C178.149675,264.786713 177.948366,264.865616 177.740394,264.860282 L177.740394,264.860282 Z" id="Shape"></path>
                </g>
            </g>
        </g>
    </g>
</svg>