<svg xmlns="http://www.w3.org/2000/svg" viewBox="0 0 24 16"><path fill="#FFF" d="M19.159 2.455H18.09a.946.946 0 0 0-.224-.353c-.311-.311-.729-.361-.971-.119a.508.508 0 0 0-.115.181 1.142 1.142 0 0 0-.269-.142c-.15-.315-.362-.762-.839-.762a.99.99 0 0 0-.442.113c-.353-.279-1.114-.8-1.892-.8-.853 0-2.035.782-2.382.782-.252 0-.819-1.25-1.698-1.25-.473 0-.952.32-1.522.665-.544.326-.689.72-.846 1.136-.054.135-.291.383-.456.549h-2.73l4.649 8.085H5.17l-1.014 1.825h4.67c.16 0 .338-.055.497-.139l2.108 3.668 2.053-3.569h1.709v-1.001h-.115c-.001-.348-.265-.727-.396-.894l-.025-.145.393-.683 2.285-.843c.372-.137.543-.47.624-.729 0 0 .252-.002.481-.266.161.041.366.084.525.084.346 0 .709-.197.803-.566 0 0 .366-.225.528-.917l-2.845-.941 1.708-2.969z"/><path d="M16.943 5.957l.357.118-.002.23c-.19-.007-.343-.043-.343.513 0 .415.079.549.079.666 0 .199-.017.247-.641.247 0 0-.098-.119-.439-.251l-.021-.09 2.643-4.597h-.801c.06-.114.001-.303-.147-.452-.17-.169-.391-.222-.494-.119-.047.047-.062.118-.048.198l-.328.345c.008-.052.026-.326-.49-.474-.155-.308-.286-.693-.595-.693-.253 0-.472.192-.472.192s-.944-.879-1.862-.879c-.798 0-1.897.782-2.382.782-.516 0-.973-1.25-1.698-1.25-.391 0-.851.313-1.347.616-.496.301-.588.67-.709.972-.08.2-.334.469-.63.761H4.288l4.643 8.074a.52.52 0 0 1-.101.011H5.37l-.639 1.15h4.097a.823.823 0 0 0 .531-.233l.065-.07 2.009 3.494 1.857-3.229h1.566v-.326h-.376l-.066-.209h.057l.271-.126c0-.313-.377-.753-.377-.753l-.062-.351.515-.894 2.4-.886c.425-.157.473-.777.473-.777s.391.184.605-.293c0 0 .434.139.669.139.204 0 .49-.11.49-.417 0 0 .314-.189.418-.512l-2.827-.937-.103.31z"/><g fill="#FCB514"><path d="M13.36 8.963c0-.049-.735-.244-1.024-.355-.266.104.078.157.078.5 0 .203-.1.441-.1.441l-.146.042s-.293.54-.48.46c-.269.473-.378.581-.805.581a.666.666 0 0 1-.363-.106l-.93 1.014 1.841 3.203 1.585-2.755h-1.14c0-.294.187-.535.187-.535 0-.468.288-.566.503-.586.454-.04.64-.001.64-.223 0-.157-.014-.343-.014-.343h.168c0-.611-.172-.761-.172-1.072 0-.12.172-.17.172-.266zm.73 1.158l.356-.621-.398.195zm1.195-6.303l-.084-.188c-.433.073-.82-.146-.931-.204-.11-.056.011-.298.011-.298s-.03-.052-.099-.1h-.452c-.085.076-.105.194-.036.266.48.498.866 1.033 1.173 1.548l.502-.527-.084-.497zm-2.058 7.803l.097-.168h-.159zm3.957-8.592l-.064.072c.263.311.154.628.154.628 0 .24-.127.236-.127.236 0 .559-.293.46-.293.46 0 .735-.81.438-.81.438a1.07 1.07 0 0 1-.332-.097l-.549.612c.356.692.568 1.307.683 1.69l2.322-4.039h-.984zM9.909 9.256c-.148-.358-.083-.439-.083-.439s-.476-.391-.335-.878c0 0-1.226-1.777-1.226-2.831 0-.545.264-.492.264-.938 0-.366-.25-.639-.43-.639-.206 0-.848.424-1.788.978l.355-.816-.856.879s-.167-.858.294-1.319l.228-.224H4.696l4.464 7.763a.748.748 0 0 0 .209-.14l.704-.71a1.958 1.958 0 0 1-.164-.686z"/><path d="M12.543 11.662h.155l.067-.209h-.34z"/></g><g fill="#FFF"><path d="M13.597 11.453l-.121.209h.493l.059-.209zm5.394-4.819l-.123.17.315.104-.044-.224zm-1.206-.399l-.116.171.812.27-.005-.213z"/><ellipse transform="rotate(-103.455 18.965 7.227)" cx="18.966" cy="7.228" rx=".105" ry=".188"/><ellipse transform="rotate(142.064 12.399 11.139)" cx="12.398" cy="11.139" rx=".188" ry=".105"/><path d="M9.47 10.753a1.02 1.02 0 0 1-.641.268h-.021l-.391.864h.41a.68.68 0 0 0 .425-.188l1.138-1.241-.259-.369-.661.666zm-4.497 1.132h.558l.48-.864h-.558zm9.17-.432l-.091.319h-.887l-.117-.319h-.168l-.101.319h-.3l-.181-.319h-.096a.949.949 0 0 0-.206.425h2.749v-.105h-.347l-.103-.319h-.152zm3.264-5.133l.152.05.182-.266.842.279.01.329.166.055.19-.263.284.094.069.349.117.039a.997.997 0 0 0 .307-.336l-2.611-.864-.033.101.329.109-.004.324zm-5.5 1.633l2.39-2.511c-.874-1.213-2.148-2.306-3.299-2.306-1.026 0-1.719.755-1.719 1.554 0 1.439 1.293 2.558 2.628 3.263zm.665.317c.806.347 1.549.531 1.939.531.36 0 .853-.1.853-.881 0-.512-.277-1.233-.722-1.961l-2.07 2.311zM6.103 3.442c-.167.188-.188.732-.188.732l1.36-1.171-.545 1.003s.92-.418 1.004-.627c0 0-.189-.46-.607-.879 0 0-.856.754-1.024.942zm1.871-1.569c0-.148.209-.297.235-.368 0 0-.135-.183-.326-.091-.029.417-.136.615-.183.868.156.129.104-.196.328-.196.075 0 .184.093.184.2 0 .125-.068.191-.068.191l.157-.013s.067-.067.067-.201c.001-.304-.394-.31-.394-.39zm7.543 2.485l-3.844 4.04c-.14.146.229.402.359.253l3.681-4.108c.135-.151-.054-.327-.196-.185zm-4.796 4.365s.057-.21-.107-.21c-.336 0-.658.278-.658.421 0 .074.03.139.03.139s.438-.421.735-.35zm.658-.009c0-.146-.127-.17-.265-.17s-.21.093-.21.151c0 .151.154.316.222.316.038.001.253-.118.253-.297zm.209.05c-.085 0-.133.102-.133.277 0 .058.072.102.114.102.028 0 .093-.064.093-.262 0-.061-.021-.117-.074-.117zm.31.17c-.146 0-.093.325-.093.433 0 .106-.041.161-.041.161.03.054.026.205.124.205.056 0 .137-.084.137-.294 0-.316.005-.505-.127-.505zm.252.084l-.021.193.131.021.034-.111c-.036-.02-.067-.124-.144-.103zm-2.062.302c.072.829.57 1.182.57 1.182l.098-.051s-.25-.475-.524-1.357l-.144.226zm.344-.336c.218.892.485 1.413.597 1.442 0 0 .076-.129.076-.899 0 0-.191-.809-.673-.543zm.866.336c.04.913-.106.897-.106 1.037 0 .227.388-.063.388-.639-.001-.681-.282-.398-.282-.398zM9.696 7.905c-.258.357.165.729.165.729s.155.011.241-.075c0 0-.133-.487-.406-.654zm.618.33c0-.052-.073-.046-.073-.425 0-.301-.339-.188-.339-.028s.275.357.275.474c0 0 .137.051.137-.021zm.269-.198c0-.604-.207-.5-.207-.283 0 .242.136.353.207.283zm.199-.441c-.075.166-.021.412-.021.582 0 .176.117.17.172.14-.067-.134.115-.595-.151-.722zm.269.09c-.035.215.033.598.033.598s.139.059.187-.014c-.011-.076-.011-.247-.011-.348 0-.258-.209-.236-.209-.236zm.384.199c-.053.334.062.51.062.51.042-.024.073-.008.073-.291 0-.282-.135-.219-.135-.219zM16.5 2.891c.238-.121-.011-.433-.181-.336-.707.459-.782 1.161-.782 1.161s.063.103.233.075c0 0 .378-.728.73-.9zm-.552.906s.017.084.123.084c.201 0 .609-.433.609-.785 0-.072-.107-.075-.107-.075-.373.241-.625.776-.625.776zm.933-.839c.253 0 .452-.262.452-.317 0-.055-.056-.093-.155-.093s-.362.284-.362.364c-.001.017.012.046.065.046zm-1.417 1.267s.073-.054.194-.047c-.076-.241-.212-.182-.212-.182-.054.081.018.229.018.229zm.959.63c.088-.381-.302-.777-.302-.777-.275-.021-.283.076-.283.076s.196.701.585.701zm-.097-.899s.092.591.358.591c.025-.091-.083-.591-.358-.591zm.235-.206s.153.439.316.439c0 0 .062-.292-.214-.528-.086 0-.102.089-.102.089zm.601.115c0-.213-.341-.589-.341-.589l-.082.164.329.494c0 .001.094.047.094-.069zm-.265-.726l.309.542s-.008-.309-.241-.59c0 0-.068-.008-.068.048zm-1.794.363s-.385-.203-.688-.289l-.021.062c.001.001.168.254.709.227zm.179-.089c.028.012.114-.077.055-.116-.071-.046-.611-.345-.776-.392-.092.094-.041.151-.041.151l.762.357zm.13-.247c.043.023.113-.116.068-.146a5.813 5.813 0 0 0-.828-.48c-.074.099-.05.187-.05.187l.81.439zm.208-.322c0-.139-.607-.607-.702-.607s-.138.117-.138.117l.77.55c.025.018.07-.044.07-.06zm.198-.18l-.564-.646c-.075-.085-.205.076-.205.076l.638.625c.059.057.162-.025.131-.055zm.151-.241l-.474-.645c-.12 0-.145.103-.145.103l.516.549c.066.07.103-.007.103-.007zm.007-.343l-.149-.32c-.015-.031-.119-.026-.119.035-.001.046.108.285.268.285zm-2.694 12.346a.316.316 0 1 0-.632 0 .316.316 0 0 0 .632 0zm-.565 0a.248.248 0 1 1 .497 0 .248.248 0 1 1-.497 0z"/><path d="M13.096 14.607l-.071-.153a.109.109 0 0 0 .071-.102.106.106 0 0 0-.108-.106h-.152v.361h.068v-.147h.049l.068.147h.075zm-.109-.215h-.084v-.078h.084a.04.04 0 0 1 .04.039.039.039 0 0 1-.04.039z"/></g></svg>