<svg xmlns="http://www.w3.org/2000/svg" viewBox="0 0 24 16"><path fill="#FFF" d="M20.28 6.263l-.256.457.043.265a48.912 48.912 0 0 1-1.685 2.997c-.103-.233-.238-.37-.501-.511 0 0 1.204-2.185 1.53-3.918-.911.451-1.865.897-1.865.897l1.632-2.641s-3.138.687-5.621.935C10.881.801 8.448.105 8.448.105s1.686 2.76 1.998 4.689A49.7 49.7 0 0 1 4.25 3.81l2.971 4.808c-1.738.102-4.663.196-4.663.196.745.746 3.144 1.691 6.316 2.475l.566.917c-1.865 1.406-2.99 3.343-2.99 3.343l.188.346s.926-.056 2.062-.096c0 0 .309-.999 1.58-2.234l1.435 2.32 1.799-2.909.195-.022.108.065c-.029.029-.05.087-.093.155.149.102.153.118.161.299 0 0 .198.07.444-.011l.068-.123.083.038c.012.087.035.183.035.183.229.107.422-.036.422-.036.61.126 1.024.055 1.161.021.604.166.996.054 1.157-.017.278.115.565.189 1.363.189.368 0 .76-.023.76-.298 0-.385-.368-1.799-.741-2.581 0 0 .274.193.521.242l.341-.247c-.155-.183-.126-.235-.104-.377-.122-.103-.292-.127-.292-.127.333-.384 1.031-1.277 1.864-2.877.176-.027.4-.129.428-.406.029-.3.047-.43.047-.716-.527-.241-1.162-.067-1.162-.067z"/><path d="M18.215 4.487l-1.506 2.407c.164-.077.338-.156.511-.235l1.608-2.601s-2.734.598-5.225.85l.176.28c1.709-.18 3.492-.511 4.436-.701z"/><path d="M18.456 10.847c-.208-.865-.241-1.022-.702-1.255l-.075-.098c.847-1.517 1.459-3.327 1.459-3.543 0-.053-.023-.068-.056-.052-1.347.683-2.826 1.292-3.154 1.521l-.087.121a18.706 18.706 0 0 0-1.587-1.269C12.748 3.316 10.438 1.239 8.949.495c0 .309 1.473 2.577 1.699 4.483-2.665-.182-6.045-.92-6.045-.92l2.911 4.709c-2.392.147-4.489.197-4.489.197 0 .166 2.669 1.442 6.61 2.334.863.195 1.504.164 1.924.164a19.82 19.82 0 0 0-.235-.252c.571.348 1.093.695 1.562 1.008l-.388.002c-.948 0-1.664-.05-2.117-.084l-.412-.652a9.842 9.842 0 0 1-.43-.087c-.18-.04-.352-.082-.47-.11l.596.963c-.558.4-1.986 1.613-3.021 3.304l.09.167s1-.062 1.845-.086c0 0 .379-1.081 1.735-2.333l1.399 2.264 1.698-2.747c.109-.012.221-.024.334-.038.117.073.231.143.34.205a.386.386 0 0 0-.146.146s.098.067.104.199c0 0 .084.014.172-.012 0 0 .06-.091.111-.2.111.058.216.106.314.146-.001.095.016.165.016.165s.107.033.238-.083c.752.172 1.202.026 1.202.026.764.226 1.152-.027 1.152-.027.299.131.549.205 1.368.205.445 0 .592-.054.592-.129.004-.359-.374-1.822-.752-2.575z"/><path d="M18.676 10.581l.028.1s.244.167.422.217l.141-.103s-.081-.104-.055-.257c-.186-.119-.536.043-.536.043zm1.716-4.172l-.192.342.042.261c-.86 1.692-1.817 3.223-1.817 3.223l.118.287.14-.097.096.008s.917-.877 2.085-3.141c0 0 .339.011.365-.262.028-.277.047-.47.047-.581-.422-.153-.884-.04-.884-.04z"/><g fill="#FFF"><path d="M14.116 12.077c-.307.099-.438.029-.438.029.06-.061.099-.178.099-.178-.271.075-.356 0-.356 0 .044-.026.088-.13.088-.13-.353 0-.546.058-.546.058.293.037.484.166.647.332.229-.017.37-.037.469-.054l.037-.057zm1.137 1.028c.208-.123.359-.24.359-.24-.684.03-.941-.053-.941-.053.122-.122.274-.228.371-.324-.073.012-.149.02-.223.025-.001.033-.038.071-.142.135-.205.032-.406.062-.604.089.056.06.116.118.183.174.046-.016.096-.03.148-.048a.46.46 0 0 1-.027.138c.081.056.173.106.276.148a.523.523 0 0 1 .071-.2c.035.01.054.11.073.139.051.074.117.086.13.147.287.066.65.084 1.131.023l.133-.107c-.702.013-.938-.046-.938-.046z"/><path d="M13.521 11.898s.149.01.321-.052c0 0 .01.115-.069.219 0 0 .146-.001.445-.07 0 0-.025.061-.062.127a.74.74 0 0 1 .138-.016c.097 0 .108.021.192.021.159 0 .179.033.202.219.033.047.069.079.096.107.118-.01.254-.022.391-.042 0 0-.152.211-.382.367 0 0 .637.06.967.019 0 0-.142.173-.339.273 0 0 .44.028.913.02 0 0-.093.103-.186.178 0 0 .584.131 1 .032-1.501-.597-2.326-1.5-3.581-1.5-.018.054-.046.098-.046.098zM7.47 14.6l-.336.432s.992-.154 1.587-.064l.165-.283c-.325-.169-1.416-.085-1.416-.085z"/><path d="M7.624 14.406l-.104.131s1.025-.078 1.397.095l.243-.365c-.331-.055-1.536.139-1.536.139zm.177-.217l-.118.145s1.227-.191 1.517-.121l.021-.029c-.304-.1-1.42.005-1.42.005zm.413-.475l-.356.408s.993-.104 1.402.012l.412-.477c-.418-.069-1.458.057-1.458.057zm.534-.536l-.472.468s.87-.118 1.444-.043l.225-.249c-.215-.183-1.197-.176-1.197-.176z"/><path d="M8.838 13.096l-.025.022s.849-.014 1.174.19l.049-.052c-.263-.149-1.198-.16-1.198-.16zm.469-.406l-.405.349s.944.017 1.176.173l.348-.343c-.306-.175-1.119-.179-1.119-.179zm-.542 2.315l.012.086.137-.237-.015-.083zm.181-.309l.013.082.228-.333-.016-.093zm.273-.412l.015.099.023-.029-.02-.096zm.065-.088l.021.1.386-.436-.016-.119zm.442-.511l.016.12.235-.25-.03-.115zm.267-.295l.03.115.046-.047-.016-.133zm.111-.119l.016.134.308-.301-.004-.157zm2.952 1.963a.33.33 0 1 0-.329.33.33.33 0 0 0 .329-.33zm-.59 0a.26.26 0 1 1 .52 0 .26.26 0 0 1-.52 0z"/><path d="M12.861 15.423l-.074-.159a.112.112 0 0 0-.037-.217h-.16v.377h.071v-.154h.051l.071.153h.078zm-.111-.224h-.089v-.083h.089c.022 0 .041.02.041.042s-.019.041-.041.041z"/></g><g fill="#EA7200"><path d="M14.104 13.262c.116-.156.194-.256.214-.318-.103.044-.234.068-.305.177 0-.001.051.05.091.141zm.596.107s.077-.01.146-.077c0 0-.073-.111-.115-.215-.051.13-.031.292-.031.292zm-.357-2.739c.062.492.18.701.18.701s.186.146.539.29c-.357-.66-.719-.991-.719-.991zm-3.869 2.198l.142-.08s.585.095 4.086-.267c-.084-.061-.125-.049-.125-.188 0-.045.007-.053-.068-.053-.077 0-.109-.021-.199-.021-.113 0-.279.113-1.995.113-1.365 0-2.321-.114-2.385-.114-.062 0-.186.116-.551.41 0 .002.719-.007 1.095.2zm-1.783 2.193c-.527-.101-1.613.081-1.613.081l-.292.42 1.7-.08.205-.421zm11.697-8.069c-.568 1.021-1.188 2.375-1.863 3.211l.195-.122.042-.042-.035.115.082-.04-.124.22.115-.094s.579-.65 2.043-3.294c-.325-.049-.455.046-.455.046zm.059-.397l-.118.188s.286-.054.668-.022l.138-.194c-.42-.08-.688.028-.688.028z"/><path d="M18.642 10.183s-.054.044-.138.067l.071.151.044-.034-.018-.055.074-.14-.033.011zm.508.392c-.12-.062-.352.029-.352.029s.235.056.368.116c.001.001-.022-.054-.016-.145zm-6.288 2.298c-.101.009-.198.018-.294.025-.751.061-1.343.078-1.654.084-.154.003-.24.003-.24.003l-.024.021-.067.059 1.132 1.807 1.257-2.008c-.037.002-.073.006-.11.009m3.699-5.91l.148-.069 1.506-2.407c-.943.189-2.727.521-4.436.701l.05.084c.039.063.076.127.114.192a50.868 50.868 0 0 0 3.667-.562l-1.408 2.233c.107-.052.228-.111.359-.172m-6.592 4.52a9.842 9.842 0 0 1-.43-.087l.446.712.106.007.289.021-.411-.653z"/></g><path d="M12.568 12.898c-.751.061-1.343.078-1.654.084-.154.003-.24.003-.24.003l-.024.021 1.065 1.702 1.147-1.835c-.1.009-.198.018-.294.025zm-2.476-.783l.289.021-.412-.652a9.842 9.842 0 0 1-.31-.061l.433.692zm7.518-7.213l-1.408 2.233c.106-.053.228-.111.358-.173l1.469-2.347c-.929.182-2.591.484-4.2.657.039.063.076.127.114.192a49.69 49.69 0 0 0 3.667-.562zm-6.932.542c0-.104-.004-.209-.015-.316-.915.097-1.462.313-1.67.412.32-.09.891-.117 1.685-.096zm6.959 4.223s-1.114-1.564-3.256-3.141c.182.376.352.765.504 1.167.021.056.018.105-.029.105-.47 0-2.126-.911-3.753-.748.845.805 1.686 1.934.871 1.521 0 0 .85.525 1.849 1.579.744 0 .893.125.937.229.084.2.207.558.695 1.132.224 0 .265-.015.347-.215 0 0 .061.256-.052.444 1.016.803 2.988 1.61 3.289 1.61.122 0-.128-1.104-.699-2.431-.188-.837-.29-1.073-.703-1.252zM8.38 8.711s.291.172.768.531c-.117-.203-.426-.424-.765-.629l-.741.055.055.088.683-.045zm4.371 1.301a3.037 3.037 0 0 0 .006 1.145c-.02-.212.146-.924.146-.924l-.152-.221zm-.372-.364a3.348 3.348 0 0 0 .048 1.311c-.035-.268.104-1.057.104-1.057l-.152-.254zm-.369-.33c-.12.779.067 1.401.067 1.401-.036-.354.085-1.18.085-1.18l-.152-.221zm-.84-1.284S9.738 6.848 7.959 6.55c-.064 0-.192.27-.192.27s.188-.17.245-.17c1.522.294 3.158 1.384 3.158 1.384z" fill="#006D75"/><path fill="#FFF" d="M11.715 14.251l.854-1.353c-.751.061-1.343.078-1.654.084l.8 1.269z"/></svg>