<?xml version="1.0" encoding="UTF-8"?>
<svg width="512px" height="512px" viewBox="0 0 512 512" version="1.1" xmlns="http://www.w3.org/2000/svg" xmlns:xlink="http://www.w3.org/1999/xlink">
    <!-- Generator: Sketch 41.2 (35397) - http://www.bohemiancoding.com/sketch -->
    <title>san-jose-sharks</title>
    <desc>Created with Sketch.</desc>
    <defs></defs>
    <g id="NHL" stroke="none" stroke-width="1" fill="none" fill-rule="evenodd">
        <g id="san-jose-sharks">
            <g id="sjs" transform="translate(22.000000, 58.000000)">
                <path d="M426.838013,146.241054 L420.860413,156.912005 L421.864463,163.099755 C409.573709,186.880287 396.450687,210.221355 382.519712,233.079707 C380.114662,227.639157 376.962412,224.440207 370.821361,221.147857 C370.821361,221.147857 398.934762,170.128105 406.546863,129.662554 C385.275012,140.193404 362.999111,150.607505 362.999111,150.607505 L401.106312,88.9401527 C401.106312,88.9401527 327.83401,104.981603 269.855958,110.772403 C207.371356,18.7033506 150.560805,2.45175008 150.560805,2.45175008 C150.560805,2.45175008 189.928906,66.8977521 197.214106,111.939903 C148.552825,107.335546 100.231045,99.6614611 52.5375016,88.9635027 L121.910354,201.230306 C81.3280525,203.612006 13.0293004,205.806906 13.0293004,205.806906 C30.4250509,223.226007 86.4417027,245.291758 160.507905,263.598158 L173.724005,285.010109 C130.176254,317.84021 103.907503,363.069161 103.907503,363.069161 L108.297303,371.148261 C108.297303,371.148261 129.919404,369.840661 156.445005,368.906661 C156.445005,368.906661 163.660155,345.580011 193.338006,316.74276 L226.845257,370.914761 L268.851908,302.989609 L273.405158,302.475909 L275.926958,303.993659 C275.249808,304.670809 274.759458,306.025109 273.755408,307.612909 C277.234559,309.99461 277.327959,310.36821 277.514759,314.59456 C277.514759,314.59456 282.138059,316.22906 287.882159,314.33771 L289.469959,311.46566 L291.408009,312.35296 C291.688209,314.38441 292.225259,316.62601 292.225259,316.62601 C297.572409,319.12446 302.078959,315.78541 302.078959,315.78541 C316.32246,318.72751 325.98936,317.06966 329.18831,316.27576 C343.291711,320.15186 352.444911,317.53666 356.204261,315.87881 C362.695561,318.56406 369.397011,320.29196 388.030312,320.29196 C396.623112,320.29196 405.776312,319.75491 405.776312,313.33366 C405.776312,304.343909 397.183512,271.327008 388.473962,253.067308 C388.473962,253.067308 394.871862,257.573858 400.639312,258.718008 L408.601663,252.950558 C404.982412,248.677508 405.659562,247.463308 406.173262,244.147608 C403.324562,241.742557 399.355062,241.182157 399.355062,241.182157 C407.130613,232.215757 423.428913,211.364206 442.879464,174.004205 C446.989064,173.373755 452.219464,170.992055 452.873264,164.524105 C453.550414,157.519105 453.970714,154.483605 453.970714,147.805505 C441.665264,142.178154 426.838013,146.241054 426.838013,146.241054 L426.838013,146.241054 Z" id="Shape" fill="#FFFFFF"></path>
                <path d="M378.620262,104.771453 L343.455161,160.974905 C347.284561,159.176955 351.347461,157.332305 355.387011,155.487655 L392.933812,94.7543029 C392.933812,94.7543029 329.09491,108.717603 270.930058,114.601804 L275.039658,121.139804 C314.94481,116.936804 356.577861,109.207953 378.620262,104.771453 Z" id="Shape" fill="#000000"></path>
                <path d="M384.247612,253.277458 C379.390812,233.079707 378.620262,229.413757 367.855911,223.973207 L366.104661,221.684907 C385.882112,186.262956 400.172312,143.999454 400.172312,138.955854 C400.172312,137.718304 399.635262,137.368054 398.864712,137.741654 C367.412261,153.689705 332.87761,167.909855 325.21881,173.257005 L323.18736,176.082355 C311.381186,165.541216 299.01079,155.649576 286.130909,146.451205 C250.965808,77.4286024 197.027306,28.9306509 162.259155,11.5582504 C162.259155,18.7734006 196.653706,71.7312022 201.930806,116.236304 C139.703054,111.986603 60.7800519,94.7543029 60.7800519,94.7543029 L128.751904,204.709456 C72.8987022,208.141906 23.9337507,209.309406 23.9337507,209.309406 C23.9337507,213.185507 86.2549027,242.980107 178.277255,263.808308 C198.428306,268.361558 213.395657,267.637708 223.202657,267.637708 C221.390658,265.660446 219.561505,263.698971 217.715407,261.753508 C231.048257,269.879308 243.236957,277.981759 254.188108,285.290309 L245.128308,285.337009 C222.992507,285.337009 206.273906,284.169509 195.696356,283.375609 L186.076156,268.151408 C182.714644,267.548945 179.366979,266.871627 176.035655,266.119958 C171.832655,265.185958 167.816455,264.205258 165.061155,263.551458 L178.977756,286.037509 C165.948455,295.377509 132.604654,323.70106 108.437403,363.185911 L110.538903,367.085361 C110.538903,367.085361 133.888904,365.637661 153.619655,365.077261 C153.619655,365.077261 162.469305,339.83591 194.131906,310.60171 L226.798557,363.466111 L266.446858,299.323659 C268.992008,299.043459 271.607208,298.763259 274.245758,298.436359 C276.977709,300.140909 279.639609,301.775409 282.184759,303.223109 C280.759909,304.028828 279.581377,305.20736 278.775659,306.632209 C278.775659,306.632209 281.063959,308.196659 281.204059,311.27886 C281.204059,311.27886 283.165459,311.60576 285.220259,310.99866 C285.220259,310.99866 286.621259,308.873809 287.812109,306.328659 C290.403959,307.682959 292.855709,308.803759 295.144009,309.73776 C295.120659,311.95601 295.517609,313.59051 295.517609,313.59051 C295.517609,313.59051 298.016059,314.36106 301.074909,311.65246 C318.63411,315.66866 329.14161,312.25956 329.14161,312.25956 C346.981011,317.53666 356.040811,311.62911 356.040811,311.62911 C363.022461,314.68796 368.859961,316.41586 387.983612,316.41586 C398.374362,316.41586 401.806812,315.15496 401.806812,313.40371 C401.900212,305.021059 393.073912,270.860008 384.247612,253.277458 L384.247612,253.277458 Z" id="Shape" fill="#000000"></path>
                <path d="M389.384612,247.066358 L390.038412,249.401358 C390.038412,249.401358 395.735812,253.300808 399.892112,254.468308 L403.184462,252.063258 C403.184462,252.063258 401.293112,249.634858 401.900212,246.062308 C397.557112,243.283657 389.384612,247.066358 389.384612,247.066358 L389.384612,247.066358 Z M429.453213,149.650155 L424.970013,157.635855 L425.950713,163.730205 C405.869712,203.238406 383.523762,238.987257 383.523762,238.987257 L386.279062,245.688708 L389.548062,243.423757 L391.789662,243.610557 C391.789662,243.610557 413.201613,223.132607 440.474414,170.268205 C440.474414,170.268205 448.390064,170.525055 448.997164,164.150505 C449.650964,157.682555 450.094614,153.176005 450.094614,150.584155 C440.240914,147.011605 429.453213,149.650155 429.453213,149.650155 Z" id="Shape" fill="#000000"></path>
                <g id="Group" transform="translate(116.750004, 256.850008)" fill="#FFFFFF">
                    <path d="M166.158605,25.1479508 C158.990155,27.4596008 155.931305,25.8251008 155.931305,25.8251008 C157.332305,24.4007508 158.242955,21.6688007 158.242955,21.6688007 C151.915105,23.4200507 149.930355,21.6688007 149.930355,21.6688007 C150.957755,21.0617006 151.985155,18.6333006 151.985155,18.6333006 C143.742604,18.6333006 139.236054,19.9876006 139.236054,19.9876006 C146.077604,20.8515506 150.537455,23.8637007 154.343505,27.7398009 C159.690655,27.3428508 162.983005,26.8758508 165.294655,26.4789008 L166.158605,25.1479508 L166.158605,25.1479508 Z M192.707556,49.1517515 C197.564356,46.2797014 201.090206,43.5477513 201.090206,43.5477513 C185.118806,44.2482514 179.117856,42.3102013 179.117856,42.3102013 C181.966556,39.4615012 185.515756,36.9864011 187.780706,34.7448011 C186.076156,35.0250011 184.301556,35.2118011 182.573656,35.3285511 C182.550306,36.0991011 181.686356,36.9864011 179.257956,38.4808012 C174.471205,39.2280012 169.777855,39.9285012 165.154555,40.5589512 C166.462155,41.9599513 167.863155,43.3142513 169.427605,44.6218514 C170.501705,44.2482514 171.669205,43.9213514 172.883405,43.5010513 C172.839637,44.6011139 172.627003,45.6879088 172.252955,46.7233514 C174.144305,48.0309515 176.292505,49.1984515 178.697555,50.1791515 C178.925205,48.5255422 179.489437,46.9361572 180.355406,45.5091514 C181.172656,45.7426514 181.616306,48.0776515 182.059956,48.7548015 C183.250806,50.4827016 184.791906,50.7629016 185.095456,52.1872516 C191.796906,53.7283517 200.272956,54.1486517 211.504307,52.7243016 L214.609857,50.2258515 C198.218156,50.5294016 192.707556,49.1517515 192.707556,49.1517515 L192.707556,49.1517515 Z" id="Shape"></path>
                    <path d="M152.265355,20.9683006 C152.265355,20.9683006 155.744505,21.2018007 159.760705,19.7541006 C159.760705,19.7541006 159.994205,22.4393507 158.149555,24.8677508 C158.149555,24.8677508 161.558655,24.8444008 168.540305,23.2332507 C168.540305,23.2332507 167.956555,24.6576008 167.092605,26.1987008 C168.152613,25.9733965 169.231466,25.848312 170.314905,25.8251008 C172.579855,25.8251008 172.836705,26.3154508 174.798105,26.3154508 C178.510755,26.3154508 178.977756,27.0860008 179.514806,31.429101 C180.285356,32.526551 181.125956,33.273751 181.756406,33.927551 C184.511706,33.694051 187.687306,33.413851 190.886256,32.946851 C190.886256,32.946851 187.337056,37.8737012 181.966556,41.5163013 C181.966556,41.5163013 196.840506,42.9173013 204.546006,41.9599513 C204.546006,41.9599513 201.230306,45.9995014 196.630356,48.3345015 C196.630356,48.3345015 206.904356,48.9883015 217.948907,48.8015015 C217.948907,48.8015015 215.777357,51.2065516 213.605807,52.9578016 C213.605807,52.9578016 227.242207,56.0166517 236.955807,53.7050017 C201.907456,39.7650512 182.643706,18.6800006 153.339455,18.6800006 C152.919155,19.9409006 152.265355,20.9683006 152.265355,20.9683006 L152.265355,20.9683006 Z M10.9745003,84.0600026 L3.1289001,94.1472029 C3.1289001,94.1472029 26.2921008,90.5513028 40.1853512,92.6528028 L44.0381014,86.0447526 C36.4493511,82.0986025 10.9745003,84.0600026 10.9745003,84.0600026 L10.9745003,84.0600026 Z" id="Shape"></path>
                    <path d="M14.5704004,79.5301024 L12.1420004,82.5889525 C12.1420004,82.5889525 36.0757511,80.7676525 44.7619514,84.8072026 L50.4360016,76.2844523 C42.7071513,75.0002023 14.5704004,79.5301024 14.5704004,79.5301024 L14.5704004,79.5301024 Z M18.7033506,74.4631523 L15.9480505,77.8489024 C15.9480505,77.8489024 44.5985014,73.3890523 51.3700016,75.0235523 L51.8603516,74.3464023 C44.7619514,72.0114022 18.7033506,74.4631523 18.7033506,74.4631523 L18.7033506,74.4631523 Z M28.3469009,63.3719019 L20.0343006,72.8987022 C20.0343006,72.8987022 43.2208513,70.4703022 52.7710016,73.1789023 L62.3912019,62.0409519 C52.6309016,60.4298019 28.3469009,63.3719019 28.3469009,63.3719019 Z M40.8158013,50.8563016 L29.7946009,61.7841019 C29.7946009,61.7841019 50.1091015,59.0288018 63.512002,60.7800519 L68.7657521,54.9659017 C63.745502,50.6928516 40.8158013,50.8563016 40.8158013,50.8563016 L40.8158013,50.8563016 Z" id="Shape"></path>
                    <path d="M42.9173013,48.9416015 L42.3335513,49.4553015 C42.3335513,49.4553015 62.1577019,49.1284015 69.7464521,53.8918017 L70.8906022,52.6776016 C64.749552,49.1984515 42.9173013,48.9416015 42.9173013,48.9416015 L42.9173013,48.9416015 Z M53.8684517,39.4615012 L44.4117014,47.6106515 C44.4117014,47.6106515 66.454102,48.0076015 71.8713022,51.6502016 L79.9971025,43.6411513 C72.8520022,39.5549012 53.8684517,39.4615012 53.8684517,39.4615012 L53.8684517,39.4615012 Z M41.2127513,93.5167529 L41.4929513,95.5248529 L44.6919014,89.9909028 L44.3416514,88.0528527 L41.2127513,93.5167529 Z M45.4391014,86.3016027 L45.7426514,88.2163027 L51.0664516,80.4407525 L50.6928516,78.2692024 L45.4391014,86.3016027 Z M51.8136516,76.6814024 L52.1639016,78.9930524 L52.7009516,78.3159024 L52.2339516,76.0743023 L51.8136516,76.6814024 Z M53.3314016,74.6266023 L53.8217517,76.9616024 L62.8348519,66.7810021 L62.4612519,64.002352 L53.3314016,74.6266023 Z M63.652102,62.6947519 L64.025702,65.496752 L69.5129521,59.6592518 L68.8124521,56.9740018 L63.652102,62.6947519 Z M69.8865521,55.8065017 L70.5870522,58.4917518 L71.6611522,57.3943018 L71.2875522,54.2887517 L69.8865521,55.8065017 Z M72.4784022,53.0278516 L72.8520022,56.1567517 L80.0438025,49.1284015 L79.9504025,45.4624514 L72.4784022,53.0278516 Z M141.407604,98.863903 C141.40759,95.7451973 139.527669,92.9340264 136.645453,91.7427425 C133.763237,90.5514585 130.44714,91.2149994 128.245231,93.4236012 C126.043322,95.632203 125.389848,98.9502986 126.589874,101.828886 C127.789899,104.707473 130.606763,106.578854 133.725454,106.569403 C137.971963,106.556535 141.407624,103.110431 141.407604,98.863903 L141.407604,98.863903 Z M127.631104,98.863903 C127.631104,95.5109822 130.349183,92.7929029 133.702104,92.7929029 C137.055025,92.7929029 139.773104,95.5109822 139.773104,98.863903 C139.773104,102.216824 137.055025,104.934903 133.702104,104.934903 C130.349183,104.934903 127.631104,102.216824 127.631104,98.863903 L127.631104,98.863903 Z" id="Shape"></path>
                    <path d="M136.854354,103.277053 L135.126454,99.5644031 C136.305754,99.1272378 137.006843,97.9125269 136.795443,96.672699 C136.584044,95.4328712 135.520039,94.519121 134.262504,94.4974529 L130.526504,94.4974529 L130.526504,103.300403 L132.184354,103.300403 L132.184354,99.7045031 L133.375204,99.7045031 L135.033054,103.277053 L136.854354,103.277053 Z M134.262504,98.046653 L132.184354,98.046653 L132.184354,96.108603 L134.262504,96.108603 C134.776204,96.108603 135.219854,96.575603 135.219854,97.089303 C135.219854,97.603003 134.776204,98.046653 134.262504,98.046653 Z" id="Shape"></path>
                </g>
                <g id="Group" transform="translate(93.400003, 93.400003)" fill="#EA7200">
                    <path d="M189.228406,216.267707 C191.937006,212.625107 193.758306,210.290106 194.225306,208.842406 C191.820256,209.869806 188.761406,210.430206 187.103556,212.975357 C187.103556,212.952007 188.294406,214.142857 189.228406,216.267707 Z M203.145006,218.766157 C203.145006,218.766157 204.942956,218.532657 206.554106,216.968207 C206.554106,216.968207 204.849556,214.376357 203.868856,211.947957 C202.678006,214.983457 203.145006,218.766157 203.145006,218.766157 Z M194.809056,154.810505 C196.256756,166.298705 199.012056,171.178855 199.012056,171.178855 C199.012056,171.178855 203.355156,174.587955 211.597707,177.950355 C203.261756,162.539355 194.809056,154.810505 194.809056,154.810505 Z M104.467903,206.133806 L107.783603,204.265806 C107.783603,204.265806 121.443354,206.484056 203.191706,198.031356 C201.230306,196.607006 200.272956,196.887206 200.272956,193.641556 C200.272956,192.590806 200.436406,192.404006 198.685156,192.404006 C196.887206,192.404006 196.140006,191.913656 194.038506,191.913656 C191.399956,191.913656 187.523856,194.552206 147.455255,194.552206 C115.582504,194.552206 93.2599029,191.890306 91.7655028,191.890306 C90.3178028,191.890306 87.4224027,194.598906 78.8996524,201.463806 C78.8996524,201.510506 95.6883029,201.300356 104.467903,206.133806 L104.467903,206.133806 Z M62.8348519,257.340358 C50.5294016,254.982008 25.1713008,259.231708 25.1713008,259.231708 L18.3531006,269.038708 L58.0481018,267.170708 L62.8348519,257.340358 Z M335.95981,68.9292021 C322.69701,92.7695529 308.220009,124.385454 292.458759,143.906054 L297.012009,141.057354 L297.992709,140.076654 L297.175459,142.761904 L299.090159,141.827904 L296.194759,146.964905 L298.880009,144.770004 C298.880009,144.770004 312.39966,129.592504 346.584061,67.8551021 C338.99531,66.7109521 335.95981,68.9292021 335.95981,68.9292021 L335.95981,68.9292021 Z M337.33746,59.6592518 L334.58216,64.049052 C334.58216,64.049052 341.26026,62.7881519 350.179961,63.535352 L353.402261,59.0054518 C343.595261,57.1374518 337.33746,59.6592518 337.33746,59.6592518 L337.33746,59.6592518 Z" id="Shape"></path>
                    <path d="M295.190709,144.373054 C295.190709,144.373054 293.929809,145.400454 291.968409,145.937504 L293.626259,149.463355 L294.653659,148.669455 L294.233359,147.385205 L295.961259,144.116204 L295.190709,144.373054 L295.190709,144.373054 Z M307.052509,153.526255 C304.250509,152.078555 298.833309,154.203405 298.833309,154.203405 C298.833309,154.203405 304.320559,155.511005 307.426109,156.912005 C307.449459,156.935355 306.912409,155.651105 307.052509,153.526255 Z M160.227705,207.184556 C157.869355,207.394706 155.604405,207.604856 153.362805,207.768306 C135.826954,209.192656 122.003754,209.589606 114.741904,209.729706 C111.146003,209.799756 109.137903,209.799756 109.137903,209.799756 L108.577503,210.290106 L107.013053,211.667757 L133.445254,253.861208 L162.796205,206.974406 C161.932255,207.021106 161.091655,207.114506 160.227705,207.184556 L160.227705,207.184556 Z M246.599358,69.1860521 L250.055158,67.5749021 L285.220259,11.3714503 C263.201208,15.7846005 221.544807,23.5368007 181.639656,27.7398009 L182.807156,29.7012009 C183.717806,31.172251 184.581756,32.666651 185.469056,34.1844011 C214.160606,30.8527376 242.721078,26.475594 271.093508,21.0617006 L238.216707,73.2022523 C240.715157,71.9880522 243.540507,70.6104022 246.599358,69.1860521 L246.599358,69.1860521 Z M92.6761528,174.728055 C89.3146411,174.125592 85.9669762,173.448274 82.6356525,172.696605 L93.0497529,189.321806 L95.5248529,189.485256 L102.273003,189.975606 L92.6761528,174.728055 L92.6761528,174.728055 Z" id="Shape"></path>
                </g>
                <path d="M246.762808,301.168309 C229.226957,302.592659 215.403757,302.989609 208.141906,303.129709 C204.546006,303.199759 202.537906,303.199759 202.537906,303.199759 L201.977506,303.690109 L226.845257,343.431811 L253.627708,300.584559 C251.292708,300.794709 249.004408,301.004859 246.762808,301.168309 L246.762808,301.168309 Z M188.948206,282.885259 L195.696356,283.375609 L186.076156,268.151408 C183.655857,267.715386 181.242712,267.240541 178.837655,266.727058 L188.948206,282.885259 L188.948206,282.885259 Z M364.493511,114.461704 L331.61671,166.602255 C334.09181,165.364705 336.94051,164.010405 339.97601,162.562705 L374.277162,107.760253 C352.585011,112.009953 313.77731,119.061654 276.207158,123.101204 C277.117809,124.572254 277.981759,126.066654 278.869059,127.584404 C307.563938,124.277509 336.125322,119.900226 364.493511,114.461704 L364.493511,114.461704 Z M202.631306,127.117404 C202.631306,124.689004 202.537906,122.237254 202.281056,119.738804 C180.915806,122.003754 168.143355,127.047354 163.286555,129.359004 C170.758555,127.257504 184.091406,126.627054 202.631306,127.117404 Z M365.123961,225.724457 C365.123961,225.724457 339.11206,189.205056 289.096359,152.382105 C293.346059,161.161705 297.315559,170.244855 300.864759,179.631556 C301.355109,180.939156 301.285059,182.083306 300.187609,182.083306 C289.213109,182.083306 250.545508,160.811455 212.555057,164.617505 C232.285807,183.414256 251.923158,209.776406 232.892907,200.132856 C232.892907,200.132856 252.740408,212.391607 276.067058,237.002507 C293.439459,237.002507 296.918609,239.921257 297.946009,242.349657 C299.907409,247.019658 302.779459,255.378958 314.17426,268.781858 C319.40466,268.781858 320.36201,268.431608 322.27671,263.761608 C322.27671,263.761608 323.70106,269.739208 321.06251,274.129008 C344.786111,292.879059 390.832312,311.72251 397.860662,311.72251 C400.709362,311.72251 394.871862,285.944109 381.539012,254.958658 C377.149212,235.414707 374.767512,229.904107 365.123961,225.724457 Z M148.973005,203.401856 C148.973005,203.401856 155.767855,207.418056 166.905805,215.800707 C164.173855,211.060656 156.958705,205.900306 149.043055,201.113556 L131.740704,202.397806 L133.024954,204.452606 L148.973005,203.401856 Z M251.035858,233.780207 C249.386945,242.620394 249.434489,251.693537 251.175958,260.515958 C250.708958,255.565758 254.585058,238.940557 254.585058,238.940557 L251.035858,233.780207 L251.035858,233.780207 Z M242.349657,225.280807 C240.700885,235.458825 241.081797,245.862463 243.470457,255.892658 C242.653207,249.634858 245.898858,231.211707 245.898858,231.211707 L242.349657,225.280807 Z M233.733507,217.575307 C230.931507,235.764957 235.297957,250.288658 235.297957,250.288658 C234.457357,242.022757 237.282707,222.735657 237.282707,222.735657 L233.733507,217.575307 L233.733507,217.575307 Z M214.119507,187.593906 C214.119507,187.593906 180.682306,159.900805 139.142654,152.942505 C137.648254,152.942505 134.659454,159.247005 134.659454,159.247005 C134.659454,159.247005 139.049254,155.277505 140.380204,155.277505 C175.918905,162.142405 214.119507,187.593906 214.119507,187.593906 L214.119507,187.593906 Z" id="Shape" fill="#006D75"></path>
                <path d="M226.845257,332.76086 L246.786158,301.168309 C229.250307,302.592659 215.427107,302.989609 208.165256,303.129709 L226.845257,332.76086 Z" id="Shape" fill="#FFFFFF"></path>
            </g>
        </g>
    </g>
</svg>