<svg xmlns="http://www.w3.org/2000/svg" viewBox="0 0 24 16"><g fill="#002654"><path d="M20.528 1.184H6.435c.934 1.456 1.244 1.935.45 1.912L5.714 1.184H3.472l5.093 8.319c-.069-.003-.138-.007-.207-.007-2.087 0-3.723 1.168-3.723 2.66s1.636 2.66 3.723 2.66c2.088 0 3.723-1.168 3.723-2.66a2.05 2.05 0 0 0-.312-1.082L10.628 9.21s.918.186 1.607-.134l-.332-.428s1.4.13 2.69-.255l-.437-.463s1.964-.05 3.325-1.797h-.135s1.014-.488 1.44-1.57h-.132s.649-.484.871-1.478h-.191c.001 0 1.033-.728 1.194-1.901z"/><path d="M11.21 14.254h.111v.336h.04v-.336h.118v-.04h-.269zm.483.266l-.096-.306h-.065v.376h.04v-.319l.102.319h.04l.1-.319v.319h.041v-.376h-.065z"/></g><path fill="#FFF" d="M20.18 1.429H6.892c1.088 1.65.767 1.915-.143 1.915L5.576 1.429H3.91l5.117 8.359a5.065 5.065 0 0 0-.669-.047c-1.949 0-3.477 1.061-3.477 2.415s1.527 2.414 3.477 2.414 3.478-1.061 3.478-2.414c0-.332-.093-.652-.277-.954L10.11 8.836s1.008.332 1.714.111l-.446-.575s1.664.139 2.776-.086l-.529-.562s2.479-.025 3.403-1.555h-.424s1.168-.164 1.758-1.426h-.432s1.006-.463 1.278-1.517h-.467c0 .002 1.044-.691 1.439-1.797z"/><path fill="#FCB514" d="M19.902 1.602H7.199c.753 1.146.896 1.989-.551 1.91l-1.169-1.91H4.218l5.156 8.422a4.7 4.7 0 0 0-1.016-.11c-1.822 0-3.304 1.006-3.304 2.242s1.481 2.242 3.304 2.242 3.305-1.006 3.305-2.242c0-.3-.084-.59-.251-.863l-1.68-2.744s1.059.37 1.79.292c0 0-.332-.41-.479-.666 0 0 1.204.145 2.777.008l-.59-.626.154.002c2.552 0 3.32-1.309 3.32-1.309h-.694s1.723-.438 2.092-1.425h-.64s1.363-.668 1.497-1.425h-.778s1.359-.767 1.721-1.798z"/><path fill="#002F87" d="M19.608 1.785H7.525c1.002 1.635-.001 2.004-.982 1.904L5.377 1.785h-.832l5.224 8.535a4.42 4.42 0 0 0-1.41-.223c-1.724 0-3.121.922-3.121 2.06 0 1.137 1.397 2.059 3.121 2.059 1.725 0 3.122-.922 3.122-2.059 0-.271-.08-.531-.225-.769L9.318 8.224s1.252.435 1.829.435c0 0-.263-.335-.422-.696 0 0 1.499.161 2.699.067l-.652-.691s.194.037.612.037c2.112 0 2.922-.941 2.922-.941h-6.28l-.092-.15h5.211s2.123-.405 2.636-1.275H9.154l-.092-.15h7.94s1.479-.713 1.69-1.275H8.281l-.092-.15h9.569c.001-.002 1.395-.727 1.85-1.65z"/></svg>