<svg xmlns="http://www.w3.org/2000/svg" viewBox="0 0 24 16"><g fill="#002654"><path d="M20.528,1.184H6.435c0.934,1.456,1.244,1.935,0.45,1.912L5.714,1.184H3.472l5.093,8.319 C8.496,9.5,8.427,9.496,8.358,9.496c-2.087,0-3.723,1.168-3.723,2.66s1.636,2.66,3.723,2.66c2.088,0,3.723-1.168,3.723-2.66 c0-0.378-0.104-0.741-0.312-1.082L10.628,9.21c0,0,0.918,0.186,1.607-0.134l-0.332-0.428c0,0,1.4,0.13,2.69-0.255L14.156,7.93 c0,0,1.964-0.05,3.325-1.797h-0.135c0,0,1.014-0.488,1.44-1.57h-0.132c0,0,0.649-0.484,0.871-1.478h-0.191 C19.335,3.085,20.367,2.357,20.528,1.184z"/><path d="M11.21 14.254L11.321 14.254 11.321 14.59 11.361 14.59 11.361 14.254 11.479 14.254 11.479 14.214 11.21 14.214zM11.693 14.52L11.597 14.214 11.532 14.214 11.532 14.59 11.572 14.59 11.572 14.271 11.674 14.59 11.714 14.59 11.814 14.271 11.814 14.59 11.855 14.59 11.855 14.214 11.79 14.214z"/></g><path fill="#FFF" d="M20.18,1.429H6.892C7.98,3.079,7.659,3.344,6.749,3.344L5.576,1.429H3.91l5.117,8.359 C8.809,9.759,8.586,9.741,8.358,9.741c-1.949,0-3.477,1.061-3.477,2.415c0,1.354,1.527,2.414,3.477,2.414 c1.95,0,3.478-1.061,3.478-2.414c0-0.332-0.093-0.652-0.277-0.954L10.11,8.836c0,0,1.008,0.332,1.714,0.111l-0.446-0.575 c0,0,1.664,0.139,2.776-0.086l-0.529-0.562c0,0,2.479-0.025,3.403-1.555h-0.424c0,0,1.168-0.164,1.758-1.426H17.93 c0,0,1.006-0.463,1.278-1.517h-0.467C18.741,3.228,19.785,2.535,20.18,1.429z"/><path fill="#FCB514" d="M19.902,1.602H7.199c0.753,1.146,0.896,1.989-0.551,1.91l-1.169-1.91H4.218l5.156,8.422 C9.048,9.952,8.709,9.914,8.358,9.914c-1.822,0-3.304,1.006-3.304,2.242s1.481,2.242,3.304,2.242s3.305-1.006,3.305-2.242 c0-0.3-0.084-0.59-0.251-0.863l-1.68-2.744c0,0,1.059,0.37,1.79,0.292c0,0-0.332-0.41-0.479-0.666c0,0,1.204,0.145,2.777,0.008 l-0.59-0.626c0.048,0.001,0.099,0.002,0.154,0.002c2.552,0,3.32-1.309,3.32-1.309H16.01c0,0,1.723-0.438,2.092-1.425h-0.64 c0,0,1.363-0.668,1.497-1.425h-0.778C18.181,3.4,19.54,2.633,19.902,1.602z"/><path fill="#002F87" d="M19.608,1.785H7.525C8.527,3.42,7.524,3.789,6.543,3.689L5.377,1.785H4.545l5.224,8.535 c-0.423-0.143-0.902-0.223-1.41-0.223c-1.724,0-3.121,0.922-3.121,2.06c0,1.137,1.397,2.059,3.121,2.059 c1.725,0,3.122-0.922,3.122-2.059c0-0.271-0.08-0.531-0.225-0.769L9.318,8.224c0,0,1.252,0.435,1.829,0.435 c0,0-0.263-0.335-0.422-0.696c0,0,1.499,0.161,2.699,0.067l-0.652-0.691c0,0,0.194,0.037,0.612,0.037 c2.112,0,2.922-0.941,2.922-0.941h-6.28l-0.092-0.15h5.211c0,0,2.123-0.405,2.636-1.275H9.154l-0.092-0.15h7.94 c0,0,1.479-0.713,1.69-1.275H8.281l-0.092-0.15h9.569C17.759,3.433,19.153,2.708,19.608,1.785z"/></svg>