<svg width="512" height="512" viewBox="0 0 512 512" xmlns="http://www.w3.org/2000/svg"><title>st-louis-blues</title><g fill="none" fill-rule="evenodd"><g fill="#002654"><path d="M425.609 110.66H145.318c18.576 28.957 24.741 38.484 8.95 38.027l-23.29-38.027h-44.59L187.68 276.113c-1.372-.06-2.744-.139-4.117-.139-41.507 0-74.045 23.23-74.045 52.904 0 29.674 32.538 52.904 74.045 52.904 41.528 0 74.046-23.23 74.046-52.904a40.772 40.772 0 0 0-6.205-21.52l-22.693-37.072s18.258 3.7 31.96-2.665l-6.602-8.512s27.844 2.585 53.5-5.072l-8.691-9.209s39.061-.994 66.13-35.74h-2.685s20.167-9.705 28.64-31.225h-2.626s12.908-9.626 17.323-29.395h-3.799c.02 0 20.545-14.48 23.748-37.808z"/><path d="M240.286 370.604h2.208v6.683h.795v-6.683h2.347v-.795h-5.35v.795zm9.606 5.29l-1.91-6.085h-1.292v7.478h.796v-6.345l2.028 6.345h.796l1.989-6.345v6.345h.815v-7.478h-1.293l-1.929 6.086z"/></g><path d="M418.687 115.532h-264.28c21.639 32.817 15.254 38.087-2.844 38.087l-23.33-38.087H95.1l101.77 166.25c-4.41-.606-8.855-.918-13.306-.935-38.763 0-69.152 21.102-69.152 48.031 0 26.93 30.37 48.011 69.152 48.011 38.783 0 69.173-21.102 69.173-48.011 0-6.603-1.85-12.967-5.509-18.974l-28.819-47.056s20.048 6.603 34.09 2.207l-8.87-11.436s33.094 2.765 55.21-1.71l-10.52-11.178s49.303-.497 67.68-30.926h-8.433s23.23-3.262 34.965-28.362h-8.592s20.008-9.208 25.417-30.17h-9.288c0 .039 20.764-13.744 28.62-35.74z" fill="#FFF"/><path d="M413.158 118.973H160.513c14.976 22.792 17.82 39.559-10.96 37.987l-23.249-37.987h-25.08L203.77 286.475a93.477 93.477 0 0 0-20.207-2.187c-36.237 0-65.712 20.008-65.712 44.59 0 24.582 29.455 44.59 65.712 44.59 36.258 0 65.733-20.008 65.733-44.59 0-5.967-1.671-11.734-4.993-17.164L210.89 257.14s21.063 7.358 35.601 5.807c0 0-6.603-8.154-9.526-13.246 0 0 23.945 2.884 55.23.16l-11.734-12.451 3.063.04c50.756 0 66.03-26.035 66.03-26.035h-13.802s34.268-8.71 41.607-28.34h-12.73s27.11-13.286 29.774-28.342H378.93s27.029-15.255 34.228-35.76z" fill="#FCB514"/><path d="M407.311 122.613H166.996c19.929 32.518-.02 39.856-19.53 37.868l-23.19-37.868h-16.548l103.898 169.75a87.908 87.908 0 0 0-28.043-4.436c-34.288 0-62.072 18.338-62.072 40.97 0 22.614 27.784 40.952 62.072 40.952 34.308 0 62.093-18.338 62.093-40.951 0-5.39-1.591-10.561-4.475-15.295l-38.544-62.927s24.9 8.651 36.376 8.651c0 0-5.23-6.662-8.393-13.842 0 0 29.813 3.202 53.68 1.332l-12.968-13.743s3.858.736 12.172.736c42.005 0 58.115-18.715 58.115-18.715H216.738l-1.83-2.983h103.64s42.223-8.055 52.426-25.358h-171.58l-1.829-2.984h157.916s29.415-14.18 33.612-25.358H182.032l-1.83-2.983h190.315c.02-.04 27.745-14.46 36.794-32.816z" fill="#002F87"/></g></svg>