<?xml version="1.0" encoding="UTF-8"?>
<svg width="512px" height="512px" viewBox="0 0 512 512" version="1.1" xmlns="http://www.w3.org/2000/svg" xmlns:xlink="http://www.w3.org/1999/xlink">
    <!-- Generator: Sketch 41.2 (35397) - http://www.bohemiancoding.com/sketch -->
    <title>st-louis-blues</title>
    <desc>Created with Sketch.</desc>
    <defs></defs>
    <g id="NHL" stroke="none" stroke-width="1" fill="none" fill-rule="evenodd">
        <g id="st-louis-blues">
            <g id="stl" transform="translate(77.000000, 107.000000)">
                <g id="Group" fill="#002654">
                    <path d="M348.608534,3.6595145 L68.3175669,3.6595145 C86.8935808,32.6174119 93.0590671,42.1440828 77.2674665,41.6866435 L53.9778389,3.6595145 L9.38745024,3.6595145 L110.680425,169.113325 C109.308107,169.053659 107.935789,168.974104 106.563471,168.974104 C65.0558257,168.974104 32.5179685,192.204066 32.5179685,221.877955 C32.5179685,251.551845 65.0558257,274.781806 106.563471,274.781806 C148.091005,274.781806 180.608974,251.551845 180.608974,221.877955 C180.58988,214.266171 178.440354,206.811724 174.40371,200.358419 L151.710743,163.285946 C151.710743,163.285946 169.968538,166.985238 183.671828,160.620865 L177.068791,152.108516 C177.068791,152.108516 204.912923,154.694042 230.569302,147.036906 L221.877955,137.828454 C221.877955,137.828454 260.939295,136.834021 288.007769,102.088521 L285.322799,102.088521 C285.322799,102.088521 305.489906,92.3828525 313.962478,70.8633161 L311.337174,70.8633161 C311.337174,70.8633161 324.244918,61.2372019 328.660202,41.4678681 L324.861467,41.4678681 C324.881355,41.4678681 345.406458,26.9889195 348.608534,3.6595145 L348.608534,3.6595145 Z" id="Shape"></path>
                    <path d="M163.285946,263.604376 L165.493588,263.604376 L165.493588,270.286968 L166.289135,270.286968 L166.289135,263.604376 L168.635997,263.604376 L168.635997,262.80883 L163.285946,262.80883 L163.285946,263.604376 Z M172.892172,268.894761 L170.98286,262.80883 L169.690096,262.80883 L169.690096,270.286968 L170.485643,270.286968 L170.485643,263.942483 L172.514287,270.286968 L173.309834,270.286968 L175.2987,263.942483 L175.2987,270.286968 L176.114135,270.286968 L176.114135,262.80883 L174.821372,262.80883 L172.892172,268.894761 Z" id="Shape"></path>
                </g>
                <path d="M341.687278,8.53223762 L77.4066872,8.53223762 C99.0455555,41.3485361 92.6612938,46.6190326 74.562608,46.6190326 L51.233203,8.53223762 L18.0986859,8.53223762 L119.868989,174.781595 C115.459338,174.176398 111.014424,173.864125 106.563471,173.846828 C67.8004616,173.846828 37.4105803,194.948702 37.4105803,221.877955 C37.4105803,248.807209 67.7805729,269.889195 106.563471,269.889195 C145.346369,269.889195 175.736251,248.78732 175.736251,221.877955 C175.736251,215.274918 173.886605,208.910545 170.22709,202.904168 L141.408414,155.847585 C141.408414,155.847585 161.456189,162.450622 175.497587,158.055227 L166.627242,146.619244 C166.627242,146.619244 199.721982,149.383769 221.838178,144.908819 L211.317074,133.731389 C211.317074,133.731389 260.621076,133.234172 278.998203,102.804513 L270.565409,102.804513 C270.565409,102.804513 293.795371,99.5427722 305.529684,74.443276 L296.93778,74.443276 C296.93778,74.443276 316.945778,65.2348237 322.355495,44.27217 L313.067488,44.27217 C313.067488,44.3119473 333.831255,30.529102 341.687278,8.53223762 L341.687278,8.53223762 Z" id="Shape" fill="#FFFFFF"></path>
                <path d="M336.158229,11.9729768 L83.5125076,11.9729768 C98.4886729,34.7653878 101.332752,51.531533 72.5538527,49.9603284 L49.3040024,11.9729768 L24.2243949,11.9729768 L126.770356,179.47532 C120.134266,178.013784 113.358596,177.280198 106.563471,177.287567 C70.3263222,177.287567 40.8513195,197.295564 40.8513195,221.877955 C40.8513195,246.460346 70.3064335,266.468344 106.563471,266.468344 C142.820509,266.468344 172.295512,246.460346 172.295512,221.877955 C172.295512,215.911356 170.624864,210.143643 167.303456,204.714037 L133.890498,150.139538 C133.890498,150.139538 154.952595,157.498344 169.49121,155.947028 C169.49121,155.947028 162.888173,147.792675 159.964539,142.701177 C159.964539,142.701177 183.910492,145.585033 215.195364,142.860286 L203.461051,130.409981 L206.523905,130.449759 C257.27978,130.449759 272.554276,104.415495 272.554276,104.415495 L258.751542,104.415495 C258.751542,104.415495 293.019713,95.7042597 300.35863,76.0741466 L287.629884,76.0741466 C287.629884,76.0741466 314.738136,62.7885178 317.403217,47.7327979 L301.929835,47.7327979 C301.929835,47.7327979 328.958532,32.4781912 336.158229,11.9729768 L336.158229,11.9729768 Z" id="Shape" fill="#FCB514"></path>
                <path d="M330.310961,15.6126026 L89.9962126,15.6126026 C109.924656,48.1305712 89.976324,55.4694888 70.4655428,53.4806223 L47.2753585,15.6126026 L30.7279886,15.6126026 L134.626379,185.362365 C125.580769,182.374262 116.109599,180.876339 106.58336,180.927193 C72.2953001,180.927193 44.510834,199.264542 44.510834,221.897844 C44.510834,244.511257 72.2953001,262.848607 106.58336,262.848607 C140.891308,262.848607 168.675774,244.511257 168.675774,221.897844 C168.675774,216.508016 167.084681,211.336962 164.200825,206.60346 L125.65659,143.675722 C125.65659,143.675722 150.5572,152.327291 162.03296,152.327291 C162.03296,152.327291 156.802241,145.664588 153.639943,138.48478 C153.639943,138.48478 183.453053,141.686855 207.319452,139.81732 L194.352042,126.074252 C194.352042,126.074252 198.210443,126.810133 206.523905,126.810133 C248.528767,126.810133 264.638587,108.094898 264.638587,108.094898 L139.737766,108.094898 L137.908008,105.111599 L241.547846,105.111599 C241.547846,105.111599 283.771483,97.056689 293.974369,79.7535497 L122.394849,79.7535497 L120.565092,76.7702499 L278.481098,76.7702499 C278.481098,76.7702499 307.896435,62.5896312 312.092943,51.412201 L105.032044,51.412201 L103.202287,48.4289012 L293.516929,48.4289012 C293.536818,48.3891238 321.261618,33.9698411 330.310961,15.6126026 L330.310961,15.6126026 Z" id="Shape" fill="#002F87"></path>
            </g>
        </g>
    </g>
</svg>