<?xml version="1.0" encoding="UTF-8"?>
<svg width="512px" height="512px" viewBox="0 0 512 512" version="1.1" xmlns="http://www.w3.org/2000/svg" xmlns:xlink="http://www.w3.org/1999/xlink">
    <!-- Generator: Sketch 41.2 (35397) - http://www.bohemiancoding.com/sketch -->
    <title>tampa-bay-lightning</title>
    <desc>Created with Sketch.</desc>
    <defs></defs>
    <g id="NHL" stroke="none" stroke-width="1" fill="none" fill-rule="evenodd">
        <g id="tampa-bay-lightning" fill="#FFFFFF">
            <g id="Group" transform="translate(64.000000, 85.000000)">
                <path d="M365.234296,155.710101 C365.234296,120.675328 343.43916,86.1324966 304.789689,64.9148565 L289.988674,76.678669 C316.40378,93.2977278 331.953401,118.130067 331.953401,146.341828 C331.953401,212.133623 250.633373,271.722681 160.158961,271.722681 C150.876243,271.722681 141.786024,271.05963 132.973859,269.733527 L102.430724,292.341436 C122.843504,299.090932 144.220754,302.464766 165.720036,302.329982 C273.134338,302.329982 365.234296,229.800731 365.234296,155.710101" id="Shape"></path>
                <path d="M228.602961,180.200219 L173.334431,191.001538 L295.891969,90.2605253 L238.826783,97.9176978 L349.748841,9.94576879 L220.646346,43.9324927 C218.93558,43.8897202 217.224346,43.8683297 215.513046,43.8683264 C109.702899,43.8683264 19.7632051,115.777304 19.7632051,191.664589 C19.7632051,228.881015 39.8258526,258.504433 70.9037065,277.690142 L23.1854051,332.274232 L228.602961,180.200219 L228.602961,180.200219 Z M34.5000539,180.456884 C34.5000539,112.397882 119.627279,55.0546427 206.294494,55.0546427 L208.091149,55.0760314 L124.311415,148.780146 L172.478881,141.165751 L77.5556078,232.987655 L116.055358,226.036311 L89.1483103,256.793333 C56.5090777,241.28649 34.5000539,214.614718 34.5000539,180.456884 L34.5000539,180.456884 Z M314.414626,258.290546 L316.532112,258.290546 L316.532112,264.707171 L317.323496,264.707171 L317.323496,258.290546 L319.547926,258.290546 L319.547926,257.520551 L314.414626,257.520551 L314.414626,258.290546 Z M323.675955,263.35968 L321.815134,257.520551 L320.574586,257.520551 L320.574586,264.707171 L321.344581,264.707171 L321.344581,258.589988 L323.269569,264.707171 L324.039564,264.707171 L325.964551,258.589988 L325.964551,264.707171 L326.734546,264.707171 L326.734546,257.520551 L325.515387,257.520551 L323.675955,263.35968 Z" id="Shape"></path>
            </g>
        </g>
    </g>
</svg>