<svg width="512" height="512" viewBox="0 0 512 512" xmlns="http://www.w3.org/2000/svg"><title>tampa-bay-lightning</title><g fill="#FFF" fill-rule="evenodd"><path d="M429.234 240.71c0-35.035-21.795-69.578-60.444-90.795l-14.801 11.764c26.415 16.619 41.964 41.451 41.964 69.663 0 65.792-81.32 125.38-171.794 125.38-9.283 0-18.373-.662-27.185-1.988L166.43 377.34a197.653 197.653 0 0 0 63.289 9.989c107.414 0 199.514-72.53 199.514-146.62"/><path d="M292.603 265.2l-55.269 10.802L359.892 175.26l-57.065 7.657 110.922-87.972-129.103 33.986c-1.71-.042-3.422-.064-5.133-.064-105.81 0-195.75 71.91-195.75 147.797 0 37.216 20.063 66.84 51.14 86.025l-47.718 54.584L292.603 265.2zm-194.103.257c0-68.06 85.127-125.402 171.794-125.402l1.797.021-83.78 93.704 48.168-7.614-94.923 91.822 38.5-6.952-26.908 30.757C120.51 326.286 98.5 299.615 98.5 265.457zm279.915 77.834h2.117v6.416h.791v-6.416h2.225v-.77h-5.133v.77zm9.261 5.069l-1.86-5.84h-1.241v7.187h.77v-6.117l1.925 6.117h.77l1.925-6.117v6.117h.77v-7.186h-1.22l-1.839 5.839z"/></g></svg>