<svg baseProfile="tiny" xmlns="http://www.w3.org/2000/svg" viewBox="0 110 24 16"><path fill="#FFF" d="M11.948 118.651c.056 0 .112 0 .169 0 .062 0 .112-.05.112-.112v-.768c0-.062-.05-.113-.112-.113-.056 0-.112 0-.169 0-.062 0-.112.051-.112.113v.768C11.835 118.601 11.885 118.651 11.948 118.651zM12.318 119.92h-.229v.43h.229c.043 0 .079-.035.079-.079v-.272C12.397 119.955 12.362 119.92 12.318 119.92zM10.894 120.485L11.137 120.485 11.015 119.945zM10.626 118.331c.078-.013.156-.026.234-.038.03-.005.056-.021.073-.045.018-.024.025-.054.02-.083l-.051-.317c-.01-.06-.068-.103-.129-.094-.078.012-.156.025-.234.039l-.019.003.087.539L10.626 118.331zM11.97 121.643L11.832 122.183 12.107 122.183zM15.938 118.628c-.05-.026-.1-.052-.15-.077-.016-.008-.033-.012-.051-.012-.043 0-.081.023-.101.061l-.352.682c-.014.027-.016.057-.007.085.009.029.029.052.056.066.05.025.1.051.15.077.016.008.034.013.052.013.042 0 .08-.023.099-.06l.352-.682C16.014 118.725 15.993 118.657 15.938 118.628z"/><path fill="#FFF" d="M19.06,116.294c0.008-0.013,0.001-0.031-0.013-0.036c-0.213-0.08-0.413-0.135-0.616-0.164 c-0.016-0.002-0.026-0.02-0.018-0.035c0.166-0.334,0.274-0.717,0.354-1.132c0.003-0.018-0.013-0.034-0.03-0.029 c-0.374,0.097-0.802,0.273-1.159,0.443c-0.014,0.007-0.03-0.001-0.033-0.016c-0.052-0.231-0.115-0.491-0.242-0.716 c-0.007-0.013-0.024-0.016-0.036-0.008c-0.377,0.273-0.714,0.573-1.007,0.902c-0.011,0.012-0.03,0.01-0.039-0.004 c-0.076-0.125-0.174-0.236-0.304-0.33c-0.01-0.007-0.025-0.006-0.033,0.004c-0.484,0.599-1.093,1.278-1.879,1.841 c-0.016,0.012-0.039-0.004-0.033-0.023c0.178-0.584,0.447-1.14,0.709-1.651c0.007-0.014-0.001-0.031-0.016-0.034 c-0.11-0.025-0.257-0.039-0.397-0.047c-0.018-0.001-0.029-0.021-0.018-0.037c0.331-0.491,0.585-1.089,0.745-1.626 c0.005-0.015-0.007-0.031-0.023-0.03c-0.277,0.012-0.611,0.075-0.888,0.171c-0.017,0.006-0.033-0.008-0.03-0.026 c0.081-0.464,0.043-0.985-0.045-1.467c-0.003-0.015-0.018-0.024-0.032-0.018c-0.195,0.074-0.419,0.186-0.623,0.309 c-0.017,0.01-0.037-0.003-0.036-0.022c0.031-0.436-0.018-0.919-0.111-1.307c-0.003-0.013-0.017-0.021-0.03-0.016 c-0.142,0.049-0.309,0.137-0.469,0.232c-0.013,0.008-0.03,0.002-0.035-0.013c-0.15-0.44-0.391-0.867-0.651-1.292 c-0.01-0.016-0.033-0.016-0.042,0c-0.26,0.425-0.501,0.852-0.651,1.292c-0.005,0.015-0.022,0.021-0.035,0.013 c-0.16-0.095-0.327-0.183-0.469-0.232c-0.013-0.004-0.027,0.003-0.03,0.016c-0.094,0.389-0.142,0.871-0.111,1.307 c0.001,0.019-0.019,0.032-0.036,0.022c-0.204-0.123-0.428-0.236-0.623-0.309c-0.014-0.005-0.029,0.004-0.032,0.018 c-0.088,0.482-0.126,1.003-0.045,1.467c0.003,0.018-0.013,0.032-0.03,0.026c-0.277-0.096-0.611-0.158-0.888-0.171 c-0.016-0.001-0.028,0.015-0.023,0.03c0.161,0.537,0.414,1.135,0.745,1.626c0.01,0.015,0,0.036-0.018,0.037 c-0.139,0.008-0.286,0.022-0.397,0.047c-0.015,0.003-0.023,0.02-0.016,0.034c0.262,0.512,0.531,1.069,0.71,1.654 c0.006,0.019-0.016,0.034-0.031,0.023c-0.696-0.487-1.365-1.201-1.881-1.844c-0.008-0.01-0.022-0.012-0.033-0.004 c-0.13,0.093-0.228,0.205-0.304,0.33c-0.009,0.014-0.028,0.016-0.039,0.004c-0.293-0.329-0.63-0.629-1.007-0.902 c-0.012-0.009-0.029-0.005-0.036,0.008c-0.128,0.226-0.19,0.486-0.242,0.716c-0.003,0.015-0.019,0.022-0.033,0.016 c-0.356-0.17-0.784-0.346-1.159-0.443c-0.018-0.005-0.034,0.011-0.03,0.029c0.08,0.415,0.188,0.799,0.354,1.132 c0.007,0.015-0.002,0.032-0.018,0.035c-0.203,0.029-0.404,0.084-0.616,0.164c-0.014,0.005-0.021,0.023-0.013,0.036 c0.25,0.43,0.539,0.785,0.871,1.062c0.013,0.011,0.011,0.03-0.003,0.039c-0.136,0.081-0.258,0.176-0.367,0.283 c-0.01,0.01-0.01,0.026,0,0.036c0.421,0.414,0.88,0.784,1.378,1.108c0.014,0.009,0.015,0.03,0.002,0.041 c-0.184,0.142-0.346,0.29-0.484,0.456c-0.009,0.01-0.007,0.026,0.003,0.035c0.361,0.32,0.775,0.579,1.255,0.775 c0.018,0.007,0.021,0.031,0.005,0.043c-0.171,0.128-0.31,0.27-0.437,0.424c-0.01,0.012-0.006,0.031,0.008,0.038 c0.343,0.176,0.76,0.29,1.191,0.368c0.02,0.004,0.021,0.031,0.002,0.037c-0.552,0.171-1.058,0.391-1.543,0.661 c-0.016,0.009-0.017,0.031-0.003,0.042c0.356,0.264,0.718,0.494,1.14,0.659c0.018,0.007,0.021,0.03,0.007,0.042 c-0.577,0.47-1.048,1.011-1.46,1.599c-0.012,0.018,0.002,0.042,0.024,0.039c0.588-0.075,1.134-0.167,1.606-0.296 c0.02-0.005,0.037,0.015,0.027,0.033c-0.101,0.201-0.192,0.416-0.275,0.641c-0.006,0.017,0.008,0.036,0.026,0.034 c0.53-0.057,1.011-0.125,1.396-0.212c0.022-0.005,0.038,0.019,0.025,0.037c-0.163,0.248-0.278,0.516-0.37,0.81 c-0.006,0.018,0.01,0.036,0.029,0.032c0.929-0.177,1.774-0.443,2.524-0.803c0.02-0.01,0.043,0.004,0.045,0.027 c0.045,0.666,0.298,1.129,0.643,1.501c0.013,0.014,0.034,0.014,0.048,0.002l0.485-0.448c0.015-0.014,0.016-0.036,0.003-0.051 c-0.096-0.11-0.538-0.611-0.459-0.992c0.009-0.045,0.06-0.07,0.102-0.051c0.559,0.253,1.719,0.64,2.629,0.815 c0.018,0.003,0.033-0.014,0.028-0.031c-0.093-0.295-0.208-0.563-0.371-0.811c-0.012-0.018,0.004-0.042,0.025-0.037 c0.384,0.087,0.866,0.154,1.396,0.212c0.018,0.002,0.033-0.016,0.026-0.034c-0.083-0.225-0.174-0.439-0.275-0.641 c-0.009-0.019,0.007-0.039,0.027-0.033c0.471,0.129,1.018,0.221,1.606,0.296c0.021,0.003,0.036-0.021,0.024-0.039 c-0.412-0.588-0.883-1.129-1.46-1.599c-0.015-0.012-0.011-0.035,0.007-0.042c0.422-0.164,0.784-0.395,1.14-0.659 c0.014-0.011,0.013-0.033-0.003-0.042c-0.485-0.27-0.992-0.491-1.543-0.661c-0.019-0.006-0.018-0.033,0.002-0.037 c0.432-0.078,0.848-0.192,1.191-0.368c0.014-0.007,0.018-0.026,0.008-0.038c-0.128-0.154-0.267-0.296-0.437-0.424 c-0.016-0.012-0.013-0.035,0.005-0.043c0.48-0.196,0.894-0.455,1.255-0.775c0.01-0.009,0.011-0.024,0.003-0.035 c-0.139-0.166-0.301-0.313-0.484-0.456c-0.014-0.011-0.013-0.031,0.002-0.041c0.498-0.325,0.957-0.694,1.378-1.108 c0.01-0.01,0.01-0.026,0-0.036c-0.109-0.107-0.231-0.201-0.367-0.283c-0.014-0.009-0.016-0.028-0.003-0.039 C18.522,117.079,18.81,116.725,19.06,116.294z M14.548,118.046c-0.103-0.034-0.208-0.067-0.312-0.098l0.079-0.235 c0.303,0.092,0.606,0.194,0.903,0.304l-0.079,0.235c-0.102-0.038-0.205-0.075-0.307-0.11l-0.019-0.006l-0.395,1.176 c-0.082-0.028-0.165-0.056-0.247-0.083l0.395-1.176L14.548,118.046z M14.086,119.677h0.748v0.243H14.34v0.282h0.336v0.243H14.34 v0.282h0.494v0.243h-0.748V119.677z M13.952,122.292h0.256v0.055c0,0.043,0.036,0.079,0.08,0.079l0.21,0 c0.044,0,0.08-0.035,0.08-0.079v-0.081c0-0.029-0.021-0.058-0.043-0.07c-0.006-0.003-0.46-0.205-0.46-0.205 c-0.086-0.044-0.124-0.132-0.124-0.228v-0.133c0-0.141,0.116-0.256,0.258-0.256h0.364c0.143,0,0.258,0.115,0.258,0.256v0.12 h-0.256v-0.054c0-0.043-0.036-0.079-0.08-0.079l-0.21,0c-0.044,0-0.08,0.035-0.08,0.079v0.029c0,0.029,0.021,0.058,0.043,0.07 c0.006,0.003,0.46,0.205,0.46,0.205c0.086,0.044,0.124,0.132,0.124,0.228v0.185c0,0.141-0.116,0.256-0.258,0.256h-0.364 c-0.143,0-0.258-0.115-0.258-0.256V122.292z M13.524,118.41l0.143-0.843c0.086,0.016,0.172,0.032,0.256,0.049l-0.248,1.468 c-0.068-0.014-0.135-0.027-0.203-0.039c-0.095-0.282-0.191-0.567-0.288-0.848l-0.025-0.073l-0.143,0.843 c-0.086-0.013-0.172-0.026-0.258-0.038l0.248-1.468c0.068,0.009,0.137,0.019,0.205,0.03c0.096,0.28,0.193,0.564,0.288,0.846 L13.524,118.41z M13.456,121.9v0.243H13.06v0.526h-0.256v-1.295h0.812v0.243H13.06v0.282H13.456z M13.035,120.972v-1.295h0.254 v1.051h0.468v0.243H13.035z M10.544,114.879c0.351,0.526,0.809,0.964,1.363,1.302c0.001,0.001,0.003,0.001,0.004-0.001 c0,0,0.001-0.001,0.001-0.003c-0.005-0.402-0.001-0.808,0.011-1.21c0-0.014-0.006-0.026-0.017-0.035 c-0.309-0.235-0.559-0.531-0.743-0.878l0.007-0.004c0.208,0.319,0.467,0.594,0.749,0.794c0.003,0.002,0.009,0,0.009-0.005 c0.005-0.147,0.01-0.268,0.016-0.384c0.021-0.336,0.037-0.685,0.049-1.037c0-0.012-0.004-0.025-0.012-0.034 c-0.255-0.307-0.452-0.595-0.6-0.88l0.007-0.004c0.179,0.279,0.381,0.538,0.601,0.77c0.001,0.001,0.002,0.001,0.003,0.001 c0.002,0,0.005-0.002,0.005-0.005c0.017-0.544,0.023-1.089,0.018-1.621l0.008,0c0.044,0.501,0.066,1.569,0.05,2.484 c0,0.002,0.001,0.004,0.002,0.005c0.002,0.002,0.005,0.003,0.008,0.001c0.239-0.118,0.481-0.285,0.74-0.511l0.005,0.006 c-0.235,0.252-0.478,0.447-0.745,0.596c-0.007,0.004-0.012,0.012-0.012,0.02c-0.002,0.081-0.004,0.153-0.006,0.223 c-0.024,0.516-0.024,1.127-0.001,1.869c0,0.005,0.006,0.007,0.01,0.005c0.606-0.433,1.06-0.898,1.349-1.382l0.007,0.004 c-0.236,0.49-0.729,1.042-1.353,1.514c-0.005,0.004-0.008,0.01-0.008,0.016c0.004,0.116,0.009,0.233,0.013,0.349 c0,0.003-0.001,0.006-0.003,0.009c-0.002,0.002-0.005,0.004-0.009,0.004h0h0l-0.132-0.001c-0.006,0-0.011-0.005-0.012-0.011 c-0.006-0.166-0.011-0.336-0.014-0.52c0-0.005-0.003-0.01-0.007-0.012c-0.556-0.353-1.055-0.875-1.37-1.432L10.544,114.879z M10.977,121.9v0.243h-0.396v0.282h0.556v0.243h-0.812v-1.295h0.812v0.243h-0.556v0.282H10.977z M10.839,120.728l-0.055,0.243 h-0.261l0.319-1.295h0.346l0.319,1.295h-0.261l-0.055-0.243H10.839z M11.795,121.374h0.349l0.35,1.295h-0.264l-0.062-0.243H11.77 l-0.062,0.243h-0.264L11.795,121.374z M11.567,118.624V117.7c0-0.158,0.127-0.287,0.283-0.289 c0.061-0.001,0.121-0.001,0.182-0.001c0.061,0,0.121,0,0.182,0.001c0.156,0.002,0.283,0.131,0.282,0.289v0.924 c0,0.155-0.122,0.276-0.282,0.276c-0.2-0.002-0.338,0-0.368,0C11.69,118.9,11.567,118.779,11.567,118.624z M12.395,120.593h-0.305 v0.378h-0.254v-1.295h0.559c0.141,0,0.256,0.114,0.256,0.256v0.405C12.651,120.479,12.536,120.593,12.395,120.593z M10.822,117.495c0.014-0.002,0.028-0.003,0.042-0.003c0.139,0,0.261,0.104,0.283,0.243l0.076,0.472 c0.02,0.125-0.048,0.248-0.165,0.297l-0.022,0.009l0.014,0.02c0.092,0.131,0.185,0.262,0.277,0.394 c-0.084,0.011-0.169,0.023-0.253,0.036c-0.094-0.133-0.188-0.265-0.281-0.397l-0.007-0.01l-0.012,0.002 c-0.036,0.006-0.072,0.012-0.108,0.018l-0.019,0.003l0.071,0.441c-0.085,0.015-0.171,0.031-0.256,0.047l-0.237-1.47 C10.421,117.56,10.622,117.525,10.822,117.495z M9.988,122.426v0.243H9.23v-1.295h0.256v1.051H9.988z M9.941,120.972v-0.597 l-0.229,0.518l-0.229-0.518v0.597H9.23v-1.295h0.202l0.281,0.649l0.281-0.649h0.202v1.295H9.941z M7.43,117.27 c-0.004-0.004-0.01-0.006-0.015-0.006c-0.013,0-0.026,0-0.039,0c-0.381,0-0.725-0.097-1.052-0.297l0.004-0.007 c0.309,0.147,0.598,0.219,0.884,0.219c0.041,0,0.082-0.001,0.123-0.004c-0.072-0.072-0.136-0.134-0.198-0.192 c-0.416-0.406-0.76-0.772-1.051-1.119l0.006-0.005c0.346,0.362,0.647,0.66,0.919,0.91l0.004-0.001 c0.037-0.23,0.019-0.447-0.056-0.663l0.007-0.003c0.108,0.222,0.152,0.465,0.13,0.723c-0.001,0.01,0.003,0.02,0.011,0.027 c0.246,0.217,0.48,0.436,0.694,0.649c0.001,0,0.001,0,0.001-0.001c0-0.302-0.082-0.573-0.251-0.827l0.006-0.005 c0.224,0.262,0.34,0.571,0.346,0.921c0,0.01,0.004,0.02,0.011,0.027c0.034,0.035,0.067,0.069,0.099,0.102 c0.002,0.002,0.003,0.006,0.003,0.009c-0.001,0.003-0.003,0.006-0.006,0.007l-0.09,0.043c-0.002,0.001-0.003,0.001-0.005,0.001 c-0.003,0-0.007-0.001-0.009-0.004C7.724,117.575,7.568,117.41,7.43,117.27z M8.649,119.754l-0.57-1.102l-0.017,0.009 c-0.096,0.051-0.193,0.103-0.287,0.156l-0.114-0.22c0.276-0.154,0.561-0.301,0.846-0.438l0.114,0.22 c-0.098,0.047-0.196,0.095-0.293,0.144l-0.018,0.009l0.57,1.102C8.803,119.674,8.726,119.714,8.649,119.754z M9.1,117.925 c0.114-0.04,0.23-0.079,0.345-0.117c0.028-0.009,0.057-0.014,0.086-0.014c0.122,0,0.235,0.081,0.274,0.197l0.297,0.875 c0.024,0.07,0.019,0.146-0.014,0.211c-0.034,0.067-0.092,0.117-0.165,0.141c-0.115,0.038-0.231,0.077-0.345,0.117 c-0.031,0.011-0.063,0.016-0.095,0.016c-0.118,0-0.223-0.075-0.261-0.187l-0.297-0.875C8.874,118.14,8.953,117.977,9.1,117.925z M13.872,123.698c-0.154,0-0.297-0.015-0.432-0.038c-0.002,0-0.004,0.002-0.002,0.004c0.132,0.128,0.394,0.259,0.542,0.317 l0.07,0.027l-0.074-0.012c-0.173-0.029-0.536-0.201-0.733-0.372c-0.002-0.002-0.005-0.003-0.008-0.004 c-0.323-0.074-0.6-0.172-0.876-0.172c-0.359,0-0.621,0.082-0.751,0.44c-0.007-0.081,0.001-0.152,0.02-0.214 c0.001-0.003,0-0.005-0.002-0.007c-0.07-0.047-0.337-0.212-0.601-0.212c-0.397,0-0.908,0.446-1.301,0.491 c0.19-0.064,0.403-0.207,0.618-0.338c0.002-0.001,0.001-0.004-0.001-0.005c-0.362-0.071-0.818,0.007-1.302,0.13 c0.463-0.18,0.936-0.275,1.429-0.203c0.003,0,0.005,0,0.007-0.001c0.186-0.105,0.369-0.187,0.538-0.187 c0.313,0,0.582,0.163,0.664,0.216c0.002,0.001,0.005,0.001,0.006-0.001c0.125-0.183,0.382-0.258,0.653-0.258 c0.429,0,1.09,0.318,1.616,0.318c0.577,0,0.742-0.052,0.915-0.089C14.706,123.596,14.447,123.698,13.872,123.698z M16.256,118.84 l-0.424,0.821c-0.048,0.092-0.141,0.149-0.244,0.149c-0.046,0-0.092-0.012-0.133-0.033c-0.107-0.057-0.216-0.113-0.324-0.167 c-0.068-0.034-0.119-0.092-0.142-0.163c-0.023-0.07-0.016-0.145,0.018-0.211l0.424-0.821c0.049-0.095,0.15-0.157,0.258-0.157 c0.044,0,0.086,0.01,0.126,0.03c0.108,0.054,0.217,0.11,0.323,0.167C16.276,118.527,16.329,118.7,16.256,118.84z M16.468,117.333 c0.038,0.002,0.076,0.004,0.114,0.004c0.263,0,0.519-0.059,0.805-0.185l0.004,0.007c-0.294,0.18-0.623,0.269-1.006,0.274 c-0.012,0-0.024,0.005-0.032,0.014c-0.11,0.115-0.205,0.216-0.291,0.311c-0.003,0.003-0.006,0.005-0.01,0.005 c-0.002,0-0.004-0.001-0.006-0.002l-0.092-0.047c-0.003-0.001-0.005-0.004-0.005-0.007c-0.001-0.003,0-0.006,0.003-0.009 c0.233-0.24,0.488-0.484,0.758-0.726c0.008-0.007,0.013-0.018,0.012-0.029c-0.022-0.289,0.009-0.544,0.094-0.778l0.008,0.002 c-0.048,0.242-0.055,0.489-0.022,0.716c0,0.002,0.002,0.003,0.003,0.003c0.001,0,0.001,0,0.002-0.001 c0.356-0.338,0.688-0.661,1.013-0.988l0.006,0.005c-0.275,0.321-0.574,0.645-0.89,0.965c-0.156,0.148-0.313,0.303-0.467,0.461 c-0.001,0.001-0.001,0.003-0.001,0.003C16.465,117.331,16.466,117.332,16.468,117.333z"/><path fill="#FFF" d="M9.554,119.074L9.554,119.074c0.012,0,0.025-0.002,0.037-0.006c0.053-0.018,0.106-0.036,0.159-0.054 c0.029-0.01,0.052-0.03,0.065-0.056c0.013-0.027,0.015-0.057,0.006-0.085l-0.247-0.727c-0.016-0.046-0.059-0.077-0.107-0.077 c-0.012,0-0.024,0.002-0.035,0.006c-0.053,0.018-0.107,0.036-0.16,0.054c-0.059,0.02-0.09,0.084-0.07,0.143l0.247,0.727 C9.463,119.043,9.506,119.074,9.554,119.074z"/><path fill="#002868" d="M11.907 116.315c.004.003.007.007.007.012.003.185.008.355.014.52 0 .006.005.011.012.011l.132.001h0 0c.003 0 .006-.001.009-.004.002-.002.003-.006.003-.009-.005-.116-.009-.234-.013-.349 0-.006.003-.012.008-.016.624-.473 1.118-1.025 1.353-1.514l-.007-.004c-.29.484-.744.949-1.349 1.382-.004.002-.01 0-.01-.005-.023-.742-.023-1.353.001-1.869.002-.07.004-.143.006-.223 0-.008.005-.016.012-.02.267-.15.51-.345.745-.596l-.005-.006c-.258.226-.5.393-.74.511-.003.001-.006.001-.008-.001-.001-.001-.002-.003-.002-.005.016-.915-.005-1.983-.05-2.484l-.008 0c.005.532-.002 1.077-.018 1.621 0 .003-.003.005-.005.005-.001 0-.002 0-.003-.001-.22-.232-.422-.491-.601-.77l-.007.004c.148.285.344.572.6.88.008.01.012.022.012.034-.012.352-.029.701-.049 1.037-.006.115-.011.237-.016.384 0 .005-.006.007-.009.005-.281-.2-.54-.474-.749-.794l-.007.004c.185.347.435.642.743.878.011.008.017.021.017.035-.012.401-.016.808-.011 1.21 0 .001-.001.002-.001.003-.001.001-.003.001-.004.001-.554-.338-1.012-.776-1.363-1.302l-.007.004C10.852 115.441 11.352 115.963 11.907 116.315zM7.915 117.778c.002 0 .004 0 .005-.001l.09-.043c.003-.001.005-.004.006-.007.001-.003 0-.007-.003-.009-.032-.033-.065-.068-.099-.102-.007-.007-.011-.017-.011-.027-.006-.349-.123-.659-.346-.921l-.006.005c.169.255.251.525.251.827 0 .001-.001.001-.001.001-.214-.213-.448-.432-.694-.649-.008-.007-.012-.017-.011-.027.022-.258-.022-.501-.13-.723l-.007.003c.075.216.094.433.056.663l-.004.001c-.272-.251-.573-.548-.919-.91l-.006.005c.291.347.635.713 1.051 1.119.062.057.126.12.198.192-.041.003-.082.004-.123.004-.286 0-.575-.071-.884-.219l-.004.007c.327.2.671.297 1.052.297.013 0 .026 0 .039 0 .006 0 .011.002.015.006.138.141.294.306.476.504C7.909 117.777 7.912 117.778 7.915 117.778zM16.933 116.866c.316-.319.615-.644.89-.965l-.006-.005c-.325.327-.657.65-1.013.988-.001.001-.002.001-.002.001-.001 0-.003-.001-.003-.003-.034-.227-.026-.475.022-.716l-.008-.002c-.085.235-.116.489-.094.778.001.011-.004.022-.012.029-.27.241-.525.485-.758.726-.002.002-.003.005-.003.009.001.003.002.006.005.007l.092.047c.002.001.004.002.006.002.004 0 .008-.002.01-.005.086-.094.181-.196.291-.311.008-.009.02-.014.032-.014.383-.005.713-.094 1.006-.274l-.004-.007c-.286.126-.542.185-.805.185-.037 0-.076-.001-.114-.004-.002 0-.003-.002-.003-.002 0-.001-.001-.002.001-.003C16.62 117.169 16.777 117.013 16.933 116.866zM12.337 123.3c-.271 0-.528.074-.653.258-.001.002-.004.003-.006.001-.082-.053-.351-.216-.664-.216-.169 0-.352.082-.538.187-.002.001-.005.002-.007.001-.493-.073-.966.023-1.429.203.483-.122.939-.2 1.302-.13.002 0 .003.003.001.005-.215.131-.428.274-.618.338.392-.045.904-.491 1.301-.491.265 0 .531.165.601.212.002.002.003.004.002.007-.019.062-.027.133-.02.214.129-.358.391-.44.751-.44.276 0 .553.098.876.172.003.001.006.002.008.004.197.172.56.343.733.372l.074.012-.07-.027c-.148-.058-.411-.189-.542-.317-.002-.002 0-.004.002-.004.135.023.278.038.432.038.575 0 .834-.103.996-.169-.173.037-.337.089-.915.089C13.428 123.618 12.766 123.3 12.337 123.3zM12.214 118.9c.16 0 .282-.121.282-.276V117.7c0-.157-.127-.287-.282-.289-.061-.001-.121-.001-.182-.001-.061 0-.121 0-.182.001-.156.002-.283.131-.283.289v.924c0 .155.122.276.279.276C11.876 118.9 12.015 118.897 12.214 118.9zM11.835 117.772c0-.062.05-.113.112-.113.056 0 .113 0 .169 0 .062 0 .112.051.112.113v.768c0 .062-.05.112-.112.112-.057 0-.113 0-.169 0-.062 0-.113-.05-.113-.112V117.772zM10.195 119.677L9.993 119.677 9.712 120.326 9.431 119.677 9.23 119.677 9.23 120.972 9.483 120.972 9.483 120.374 9.712 120.892 9.941 120.374 9.941 120.972 10.195 120.972zM10.717 119.02l-.071-.441.019-.003c.036-.006.072-.012.108-.018l.012-.002.007.01c.094.132.188.264.281.397.084-.013.169-.025.253-.036-.092-.132-.185-.263-.277-.394l-.014-.02.022-.009c.117-.05.185-.172.165-.297l-.076-.472c-.022-.138-.144-.243-.283-.243-.014 0-.028.001-.042.003-.199.03-.4.064-.598.102l.237 1.47C10.546 119.051 10.632 119.035 10.717 119.02zM10.538 117.792c.078-.014.156-.026.234-.039.061-.01.119.034.129.094l.051.317c.005.03-.002.059-.02.083-.018.024-.044.04-.073.045-.078.012-.156.025-.234.038l-.019.003-.087-.539L10.538 117.792zM12.651 120.337v-.405c0-.141-.115-.256-.256-.256h-.559v1.295h.254v-.378h.305C12.536 120.593 12.651 120.479 12.651 120.337zM12.397 120.271c0 .043-.035.079-.079.079h-.229v-.43h.229c.043 0 .079.035.079.079V120.271zM9.23 121.374L9.23 122.669 9.988 122.669 9.988 122.426 9.486 122.426 9.486 121.374zM16.138 118.454c-.107-.057-.215-.113-.323-.167-.039-.02-.081-.03-.126-.03-.108 0-.209.062-.258.157l-.424.821c-.034.066-.04.141-.018.211.023.071.073.129.142.163.108.054.217.11.324.167.041.022.087.033.133.033.103 0 .197-.057.244-.149l.424-.821C16.329 118.7 16.276 118.527 16.138 118.454zM15.986 118.781l-.352.682c-.019.037-.057.06-.099.06-.018 0-.036-.004-.052-.013-.05-.026-.1-.052-.15-.077-.027-.014-.047-.037-.056-.066-.009-.028-.007-.059.007-.085l.352-.682c.02-.038.058-.061.101-.061.018 0 .035.004.051.012.05.026.1.051.15.077C15.993 118.657 16.014 118.725 15.986 118.781zM9.482 119.351c.032 0 .064-.006.095-.016.114-.04.23-.08.345-.117.073-.024.131-.074.165-.141.033-.066.038-.141.014-.211l-.297-.875c-.039-.116-.152-.197-.274-.197-.029 0-.058.005-.086.014-.115.037-.231.077-.345.117-.147.052-.225.215-.175.364l.297.875C9.259 119.276 9.364 119.351 9.482 119.351zM9.271 118.128c.053-.018.106-.036.16-.054.011-.004.023-.006.035-.006.049 0 .092.031.107.077l.247.727c.01.028.008.059-.006.085-.013.027-.036.047-.065.056-.053.018-.106.036-.159.054-.012.004-.024.006-.037.006h0c-.048 0-.09-.03-.106-.076l-.247-.727C9.181 118.212 9.213 118.148 9.271 118.128zM8.328 118.524c.097-.049.195-.097.293-.144l-.114-.22c-.285.137-.57.284-.846.438l.114.22c.094-.053.191-.105.287-.156l.017-.009.57 1.102c.076-.04.154-.081.231-.12l-.57-1.102L8.328 118.524zM13.007 117.46l-.248 1.468c.085.012.172.024.258.038l.143-.843.025.073c.096.281.193.567.288.848.068.013.135.026.203.039l.248-1.468c-.084-.017-.17-.033-.256-.049l-.143.843-.025-.074c-.095-.282-.192-.566-.288-.846C13.143 117.479 13.075 117.47 13.007 117.46zM14.211 122.669h.364c.143 0 .258-.115.258-.256v-.185c0-.096-.037-.184-.124-.228 0 0-.454-.202-.46-.205-.022-.012-.043-.04-.043-.07v-.029c0-.044.036-.079.08-.079l.21 0c.044 0 .08.035.08.079v.054h.256v-.12c0-.141-.116-.256-.258-.256h-.364c-.143 0-.258.115-.258.256v.133c0 .096.037.184.124.228 0 0 .454.202.46.205.022.012.043.041.043.07v.081c0 .044-.036.079-.08.079l-.21 0c-.044 0-.08-.035-.08-.079v-.055h-.256v.121C13.952 122.555 14.068 122.669 14.211 122.669zM14.834 120.728L14.34 120.728 14.34 120.446 14.676 120.446 14.676 120.203 14.34 120.203 14.34 119.92 14.834 119.92 14.834 119.677 14.086 119.677 14.086 120.972 14.834 120.972zM13.616 121.618L13.616 121.374 12.804 121.374 12.804 122.669 13.06 122.669 13.06 122.144 13.456 122.144 13.456 121.9 13.06 121.9 13.06 121.618zM14.419 119.311l.395-1.176.019.006c.102.035.205.072.307.11l.079-.235c-.297-.11-.6-.212-.903-.304l-.079.235c.103.031.208.064.312.098l.019.006-.395 1.176C14.254 119.255 14.337 119.282 14.419 119.311zM11.77 122.426h.399l.062.243h.264l-.35-1.295h-.349l-.35 1.295h.264L11.77 122.426zM11.97 121.643l.137.539h-.275L11.97 121.643zM11.246 120.972h.261l-.319-1.295h-.346l-.319 1.295h.261l.055-.243h.352L11.246 120.972zM10.894 120.485l.121-.539.121.539H10.894zM13.758 120.728L13.289 120.728 13.289 119.677 13.035 119.677 13.035 120.972 13.758 120.972zM11.136 121.618L11.136 121.374 10.324 121.374 10.324 122.669 11.136 122.669 11.136 122.426 10.581 122.426 10.581 122.144 10.977 122.144 10.977 121.9 10.581 121.9 10.581 121.618z"/><g><path fill="#FFF" d="M15.371,124.909v0.264h-0.066v-0.264h-0.076v-0.066h0.219v0.066H15.371z M15.729,125.172v-0.194 l-0.056,0.121h-0.058l-0.056-0.121v0.194h-0.066v-0.329h0.066l0.085,0.176l0.085-0.176h0.066v0.329H15.729z"/></g></svg>