<?xml version="1.0" encoding="UTF-8"?>
<svg width="512px" height="512px" viewBox="0 0 512 512" version="1.1" xmlns="http://www.w3.org/2000/svg" xmlns:xlink="http://www.w3.org/1999/xlink">
    <!-- Generator: Sketch 41.2 (35397) - http://www.bohemiancoding.com/sketch -->
    <title>toronto-maple-leafs</title>
    <desc>Created with Sketch.</desc>
    <defs></defs>
    <g id="NHL" stroke="none" stroke-width="1" fill="none" fill-rule="evenodd">
        <g id="toronto-maple-leafs">
            <g id="tor" transform="translate(90.000000, 90.000000)">
                <path d="M165.41775,180.048937 L168.935063,180.048937 C170.225438,180.048937 171.266063,179.008312 171.266063,177.717938 L171.266063,161.733937 C171.266113,160.443152 170.225798,159.393548 168.935063,159.382125 L165.41775,159.382125 C164.127015,159.393548 163.086699,160.443152 163.08675,161.733938 L163.08675,177.717938 C163.075341,178.339585 163.317262,178.939136 163.756907,179.378781 C164.196552,179.818425 164.796103,180.060347 165.41775,180.048938 L165.41775,180.048937 Z M173.118375,206.46 L168.352313,206.46 L168.352313,215.409375 L173.118375,215.409375 C174.021745,215.398152 174.751339,214.668558 174.762563,213.765188 L174.762563,208.104188 C174.762563,207.196128 174.026435,206.46 173.118375,206.46 L173.118375,206.46 Z M143.481375,218.219062 L148.538813,218.219062 L145.999688,206.980312 L143.481375,218.219062 Z M137.903625,173.388937 L142.77375,172.598062 C143.386034,172.504267 143.93418,172.166369 144.293062,171.6615 C144.663178,171.167296 144.813705,170.542605 144.709312,169.934063 L143.647875,163.3365 C143.424863,162.068363 142.238545,161.203914 140.963062,161.380125 C139.336376,161.630429 137.712875,161.901012 136.092937,162.191813 L135.6975,162.25425 L137.508187,173.472188 L137.903625,173.388938 L137.903625,173.388937 Z M165.875625,242.319938 L163.0035,253.558688 L168.726937,253.558688 L165.875625,242.319938 Z M248.459625,179.57025 L245.33775,177.967688 C244.182487,177.376629 242.766801,177.833002 242.17425,178.9875 L234.84825,193.181625 C234.563756,193.727724 234.511241,194.365403 234.702562,194.950688 C234.889179,195.547412 235.309691,196.043016 235.868062,196.324313 L238.989937,197.926875 C239.534337,198.224553 240.176248,198.288515 240.768683,198.104115 C241.361118,197.919714 241.853335,197.502746 242.132625,196.948688 L249.458625,182.754563 C250.042581,181.597707 249.59976,180.186214 248.459625,179.57025 L248.459625,179.57025 Z" id="Shape" fill="#FFFFFF"></path>
                <path d="M313.43625,130.993875 C313.60275,130.723313 313.457062,130.348688 313.165687,130.244625 C309.030283,128.640184 304.730923,127.495549 300.345188,126.831375 C300.183448,126.809494 300.0426,126.709973 299.967954,126.56483 C299.893309,126.419686 299.894283,126.247229 299.970562,126.102937 C303.425437,119.151562 305.673187,111.180375 307.338187,102.543187 C307.400625,102.168562 307.067625,101.835562 306.713812,101.939625 C298.41353,104.28486 290.340562,107.370559 282.592125,111.159563 C282.458562,111.227626 282.300828,111.229191 282.165941,111.163792 C282.031054,111.098392 281.934593,110.97358 281.905313,110.826563 C280.823063,106.018875 279.511875,100.607625 276.868688,95.9248125 C276.723,95.65425 276.369188,95.5918125 276.119438,95.7583125 C268.475053,101.23962 261.447878,107.53407 255.16125,114.531188 C255.050358,114.645144 254.893445,114.702139 254.735267,114.685916 C254.57709,114.669692 254.435014,114.582032 254.349562,114.447938 C252.727272,111.753842 250.574777,109.417251 248.022562,107.579813 C247.814437,107.434125 247.50225,107.454938 247.33575,107.663063 C237.2625,120.12975 224.587687,134.261438 208.229062,145.978875 C207.896062,146.228625 207.417375,145.895625 207.54225,145.500188 C211.246875,133.345688 216.845437,121.773938 222.298312,111.13875 C222.36584,111.002244 222.367402,110.842388 222.302555,110.704588 C222.237708,110.566789 222.113537,110.466101 221.965312,110.431125 C219.240222,109.89406 216.477915,109.567037 213.70275,109.452938 C213.521427,109.450988 213.356771,109.346749 213.277444,109.183687 C213.198116,109.020625 213.217737,108.826738 213.328125,108.682875 C220.121145,98.2200584 225.345028,86.8186718 228.833437,74.84175 C228.881387,74.6922955 228.853021,74.5288294 228.757523,74.4042666 C228.662025,74.2797038 228.511528,74.2098716 228.35475,74.217375 C222.060762,74.5551972 215.842593,75.752615 209.87325,77.7763125 C209.519437,77.9011875 209.186438,77.6098125 209.248875,77.2351875 C210.934687,67.5781875 210.143812,56.734875 208.312312,46.70325 C208.249875,46.3910625 207.937687,46.20375 207.646312,46.328625 C203.147608,48.0960277 198.80951,50.2476687 194.680125,52.7596875 C194.52162,52.8515236 194.325561,52.8492273 194.16925,52.7537041 C194.01294,52.6581808 193.921458,52.484758 193.930875,52.3018125 C194.488767,43.1703903 193.710497,34.006435 191.620688,25.099875 C191.587493,24.9693629 191.500859,24.8588699 191.382035,24.7954971 C191.263211,24.7321242 191.123189,24.7217341 190.996313,24.766875 C187.596197,26.0616581 184.327642,27.6785124 181.23525,29.595375 C181.105486,29.6723827 180.947865,29.686603 180.806414,29.6340639 C180.664962,29.5815248 180.554842,29.4678579 180.506813,29.3248125 C177.384938,20.1673125 172.369125,11.280375 166.957875,2.4350625 C166.74975,2.1020625 166.271063,2.1020625 166.08375,2.4350625 C160.6725,11.280375 155.656688,20.1673125 152.534813,29.3248125 C152.486783,29.4678579 152.376663,29.5815248 152.235211,29.6340639 C152.09376,29.686603 151.936139,29.6723827 151.806375,29.595375 C148.713983,27.6785124 145.445428,26.0616581 142.045313,24.766875 C141.77475,24.683625 141.483375,24.8293125 141.420938,25.099875 C139.321637,34.0049242 138.543248,43.1702789 139.11075,52.3018125 C139.120167,52.484758 139.028685,52.6581808 138.872375,52.7537041 C138.716064,52.8492273 138.520005,52.8515236 138.3615,52.7596875 C134.236653,50.23944 129.897822,48.0874357 125.395313,46.328625 C125.257244,46.2840551 125.106836,46.2991569 124.980384,46.3702862 C124.853932,46.4414155 124.762921,46.5621117 124.729313,46.70325 C122.897813,56.734875 122.106938,67.5781875 123.79275,77.2351875 C123.855188,77.6098125 123.522188,77.9011875 123.168375,77.7763125 C117.196393,75.76261 110.979601,74.5654575 104.686875,74.217375 C104.530097,74.2098716 104.3796,74.2797038 104.284102,74.4042666 C104.188604,74.5288294 104.160238,74.6922955 104.208187,74.84175 C107.559,86.0180625 112.824562,98.4639375 119.7135,108.682875 C119.921625,108.995063 119.7135,109.432125 119.338875,109.452938 C116.56391,109.56954 113.801793,109.896541 111.076312,110.431125 C110.928088,110.466101 110.803917,110.566789 110.73907,110.704588 C110.674223,110.842388 110.675785,111.002244 110.743313,111.13875 C116.196188,121.79475 121.79475,133.387313 125.520188,145.562625 C125.645063,145.958063 125.187187,146.27025 124.875,146.041313 C110.3895,135.905625 96.4659375,121.0455 85.7266875,107.663063 C85.5571326,107.455596 85.2540863,107.418863 85.039875,107.579813 C82.33425,109.515375 80.294625,111.846375 78.712875,114.447938 C78.6274236,114.582032 78.4853473,114.669692 78.32717,114.685916 C78.1689927,114.702139 78.01208,114.645144 77.9011875,114.531188 C71.6145592,107.53407 64.5873848,101.23962 56.943,95.7583125 C56.8256479,95.6677032 56.6741081,95.6339086 56.5293769,95.6660711 C56.3846457,95.6982336 56.2616815,95.7930291 56.19375,95.9248125 C53.52975,100.628438 52.239375,106.039688 51.157125,110.826563 C51.0946875,111.13875 50.7616875,111.284438 50.4703125,111.159563 C42.7248112,107.363808 34.6512235,104.277872 26.348625,101.939625 C26.1762634,101.889074 25.9900317,101.93496 25.8608857,102.059801 C25.7317398,102.184642 25.6795686,102.369212 25.72425,102.543188 C27.38925,111.180375 29.637,119.172375 33.091875,126.102938 C33.1587046,126.248212 33.1550218,126.416147 33.0818879,126.558352 C33.008754,126.700557 32.8742926,126.801235 32.71725,126.831375 C28.3309618,127.492892 24.0313129,128.637603 19.89675,130.244625 C19.605375,130.348688 19.4596875,130.723313 19.6261875,130.993875 C24.8293125,139.94325 30.844125,147.331688 37.753875,153.09675 C37.8780439,153.200282 37.9444264,153.357507 37.9320269,153.518699 C37.9196275,153.679891 37.8299798,153.825115 37.6914375,153.908438 C34.9189481,155.559162 32.3545547,157.536609 30.05325,159.798375 C29.9515019,159.896445 29.8940209,160.031683 29.8940209,160.173 C29.8940209,160.314317 29.9515019,160.449555 30.05325,160.547625 C38.8153125,169.164 48.36825,176.864625 58.732875,183.607875 C59.02425,183.795188 59.0450625,184.23225 58.7745,184.461188 C54.945,187.416563 51.573375,190.496813 48.70125,193.951688 C48.5139375,194.159813 48.5555625,194.492813 48.7636875,194.680125 C56.277,201.340125 64.893375,206.730563 74.883375,210.809813 C75.258,210.9555 75.3204375,211.455 74.9874375,211.70475 C71.4285,214.36875 68.5355625,217.324125 65.892375,220.52925 C65.7935306,220.651021 65.754888,220.810882 65.7871985,220.964356 C65.8195089,221.117831 65.9193246,221.248542 66.058875,221.320125 C73.1975625,224.983125 81.876375,227.35575 90.8465625,228.979125 C91.2628125,229.062375 91.283625,229.624313 90.8881875,229.749188 C79.7320311,233.199342 68.9685711,237.81026 58.7745,243.50625 C58.6186923,243.591014 58.5167983,243.749311 58.504161,243.926232 C58.4915238,244.103154 58.5698844,244.274326 58.7120625,244.380375 C66.1213125,249.874875 73.6554375,254.66175 82.4383125,258.095813 C82.8129375,258.2415 82.875375,258.720188 82.584,258.969938 C70.9565593,268.595561 60.7291892,279.796633 52.19775,292.249125 C52.0800874,292.41892 52.0740187,292.642242 52.1822864,292.818177 C52.290554,292.994112 52.4926491,293.089333 52.69725,293.060813 C63.9660486,291.770098 75.1336214,289.711816 86.122125,286.900313 C86.538375,286.79625 86.8921875,287.2125 86.6840625,287.587125 C84.5290111,291.923875 82.6182143,296.377768 80.960625,300.927938 C80.83575,301.28175 81.127125,301.677188 81.50175,301.635563 C92.532375,300.44925 102.543187,299.034 110.556,297.223313 C110.756263,297.178816 110.963369,297.261291 111.078222,297.431273 C111.193074,297.601254 111.192317,297.824177 111.076312,297.993375 C107.729982,303.222955 105.137599,308.898172 103.375687,314.8515 C103.319888,315.02792 103.361979,315.2207 103.486232,315.357808 C103.610486,315.494915 103.798207,315.55572 103.97925,315.5175 C123.314062,311.833688 140.900625,306.297563 156.51,298.805063 C156.92625,298.596938 157.404937,298.888313 157.446562,299.367 C158.383125,313.228125 163.648687,322.864313 170.829,330.606563 C171.093526,330.893592 171.540514,330.912216 171.828,330.648188 L181.922062,321.324188 C182.071716,321.192089 182.162471,321.005734 182.174192,320.806464 C182.185914,320.607193 182.117634,320.411483 181.9845,320.26275 C179.9865,317.973375 170.787375,307.546313 172.431562,299.61675 C172.535078,299.169543 172.83268,298.791818 173.243251,298.586533 C173.653821,298.381247 174.134562,298.369801 174.554437,298.555313 C186.188625,303.820875 210.331125,311.875313 229.2705,315.5175 C229.443569,315.544148 229.618434,315.481954 229.735807,315.352006 C229.85318,315.222058 229.897316,315.041786 229.85325,314.872313 C228.07966,308.913262 225.480629,303.231822 222.131812,297.993375 C221.882062,297.61875 222.215062,297.11925 222.652125,297.223313 C230.644125,299.034 240.67575,300.428438 251.706375,301.635563 C251.887524,301.655497 252.0659,301.579202 252.176604,301.434436 C252.287307,301.28967 252.314201,301.097536 252.2475,300.927938 C250.586091,296.379283 248.675384,291.925599 246.524062,287.587125 C246.33675,287.191688 246.66975,286.775438 247.086,286.900313 C256.888687,289.585125 268.273125,291.499875 280.510875,293.060813 C280.947937,293.12325 281.260125,292.62375 281.010375,292.249125 C272.478936,279.796633 262.251566,268.595561 250.624125,258.969938 C250.475262,258.857944 250.401089,258.672418 250.431715,258.488666 C250.46234,258.304914 250.592674,258.153472 250.769812,258.095813 C259.552687,254.682563 267.086812,249.874875 274.496062,244.380375 C274.638241,244.274326 274.716601,244.103154 274.703964,243.926232 C274.691327,243.749311 274.589433,243.591014 274.433625,243.50625 C264.242002,237.805285 253.478007,233.194138 242.319937,229.749188 C242.142394,229.698595 242.023481,229.531887 242.033446,229.347545 C242.04341,229.163203 242.1796,229.010285 242.361562,228.979125 C251.352562,227.35575 260.010562,224.983125 267.14925,221.320125 C267.2888,221.248542 267.388616,221.117831 267.420927,220.964356 C267.453237,220.810882 267.414594,220.651021 267.31575,220.52925 C264.641858,217.240117 261.589048,214.278122 258.220687,211.70475 C258.071635,211.593816 257.99305,211.411817 258.01451,211.227257 C258.035971,211.042697 258.15422,210.883586 258.32475,210.809813 C268.31475,206.730563 276.931125,201.340125 284.444437,194.680125 C284.650935,194.490211 284.678041,194.173973 284.506875,193.951688 C281.493378,190.44164 278.116818,187.260418 274.433625,184.461187 C274.298681,184.357228 274.22317,184.193798 274.23147,184.023655 C274.23977,183.853512 274.330828,183.698207 274.47525,183.607875 C284.778279,176.894094 294.385739,169.169082 303.154875,160.547625 C303.256623,160.449555 303.314104,160.314317 303.314104,160.173 C303.314104,160.031683 303.256623,159.896445 303.154875,159.798375 C300.848151,157.542837 298.284532,155.565986 295.516687,153.908438 C295.378145,153.825115 295.288497,153.679891 295.276098,153.518699 C295.263699,153.357507 295.330081,153.200282 295.45425,153.09675 C302.239125,147.331687 308.233125,139.964062 313.43625,130.993875 L313.43625,130.993875 Z M219.53025,167.457375 C217.375723,166.746146 215.210996,166.0662 213.03675,165.41775 L214.680937,160.526812 C220.987125,162.441562 227.293312,164.564437 233.474625,166.853812 L231.830437,171.74475 C229.710628,170.953991 227.580636,170.190802 225.441,169.455375 L225.045562,169.3305 L216.824625,193.806 C215.114217,193.220841 213.400629,192.64502 211.683938,192.078563 L219.904875,167.603062 L219.53025,167.457375 L219.53025,167.457375 Z M209.914875,201.402563 L225.482625,201.402563 L225.482625,206.46 L215.20125,206.46 L215.20125,212.329125 L222.19425,212.329125 L222.19425,217.386562 L215.20125,217.386562 L215.20125,223.255687 L225.482625,223.255687 L225.482625,228.313125 L209.914875,228.313125 L209.914875,201.402562 L209.914875,201.402563 Z M207.126,255.82725 L212.454,255.82725 L212.454,256.971938 C212.465394,257.883354 213.207513,258.616196 214.119,258.616125 L218.489625,258.616125 C219.401112,258.616196 220.143231,257.883354 220.154625,256.971937 L220.154625,255.286125 C220.118817,254.681365 219.782936,254.134582 219.259688,253.82925 L209.685937,249.562688 C207.896063,248.646938 207.105188,246.815437 207.105188,244.817438 L207.105188,242.049375 C207.105188,239.114813 209.519438,236.721375 212.474813,236.721375 L220.050563,236.721375 C223.02675,236.721375 225.420187,239.114813 225.420187,242.049375 L225.420187,244.546875 L220.092187,244.546875 L220.092187,243.423 C220.080794,242.511584 219.338675,241.778741 218.427187,241.778813 L214.056562,241.778813 C213.145075,241.778741 212.402956,242.511584 212.391562,243.423 L212.391562,244.026563 C212.391562,244.630125 212.828625,245.233688 213.2865,245.483438 L222.86025,249.75 C224.650125,250.66575 225.441,252.49725 225.441,254.49525 L225.441,258.345563 C225.418137,261.294856 223.020757,263.673651 220.071375,263.673563 L212.495625,263.673563 C211.077028,263.679093 209.714338,263.120856 208.707336,262.12166 C207.700333,261.122464 207.131509,259.764159 207.126,258.345563 L207.126,255.82725 L207.126,255.82725 Z M198.21825,175.033125 L201.194437,157.488187 L206.522437,158.508 L201.360937,189.06075 C199.956553,188.770129 198.548097,188.499539 197.136,188.249062 C195.158812,182.379937 193.160812,176.448375 191.142,170.600062 L190.621687,169.08075 L187.6455,186.625687 L182.275875,185.834812 L187.437375,155.282062 C188.852625,155.469375 190.288687,155.6775 191.703937,155.906437 L197.697937,173.513812 L198.21825,175.033125 L198.21825,175.033125 Z M196.803,247.66875 L196.803,252.726187 L188.56125,252.726187 L188.56125,263.673562 L183.23325,263.673562 L183.23325,236.721375 L200.133,236.721375 L200.133,241.778812 L188.56125,241.778812 L188.56125,247.647937 L196.803,247.647937 L196.803,247.66875 Z M188.040937,228.35475 L188.040937,201.402562 L193.327312,201.402562 L193.327312,223.2765 L203.067562,223.2765 L203.067562,228.333937 L188.040937,228.333937 L188.040937,228.35475 Z M136.197,101.544187 C143.55343,112.54594 153.237617,121.796718 164.564437,128.642062 C164.58525,128.662875 164.626875,128.662875 164.647687,128.62125 L164.6685,128.558812 C164.564437,120.192187 164.647687,111.742312 164.897437,103.375687 C164.899103,103.091087 164.76835,102.821889 164.543625,102.64725 C158.118082,97.7567747 152.840149,91.519864 149.079937,84.373875 L149.225625,84.290625 C153.554625,90.9298125 158.945063,96.65325 164.814188,100.81575 C164.876625,100.857375 165.0015,100.81575 165.0015,100.711687 C165.105563,97.65225 165.209625,95.1339375 165.3345,92.7196875 C165.771563,85.7266875 166.104563,78.463125 166.354312,71.137125 C166.358119,70.8790131 166.26954,70.6280411 166.104562,70.4295 C161.298544,64.7890386 157.11205,58.6488461 153.617062,52.1145 L153.76275,52.03125 C157.488187,57.8379375 161.692312,63.228375 166.271062,68.056875 L166.3335,68.0776875 C166.375125,68.0776875 166.437562,68.0360625 166.437562,67.973625 C166.791375,56.651625 166.91625,45.3088125 166.812187,34.2365625 L166.978687,34.2365625 C167.894437,44.663625 168.352312,66.891375 168.019312,85.9348125 L168.060937,86.038875 C168.102562,86.0805 168.165,86.1013125 168.227437,86.0596875 C173.201625,83.6038125 178.23825,80.128125 183.628687,75.4245 L183.73275,75.549375 C179.250108,80.4751978 174.017113,84.6615934 168.227437,87.953625 C168.077831,88.0398747 167.983387,88.1972815 167.977687,88.369875 L167.852812,93.0110625 C167.351453,105.972272 167.344511,118.947886 167.832,131.909625 C167.832,132.013687 167.956875,132.055312 168.040125,132.013687 C180.6525,123.001875 190.101375,113.324062 196.116187,103.250812 L196.261875,103.334062 C191.350125,113.532187 181.089562,125.020687 168.102562,134.844187 C167.997748,134.922798 167.936062,135.04617 167.936062,135.177187 L168.206625,142.44075 C168.205227,142.508064 168.183458,142.573373 168.144187,142.628062 C168.095085,142.679305 168.027815,142.709203 167.956875,142.711312 L165.209625,142.6905 C165.08475,142.6905 164.980687,142.586437 164.959875,142.461562 C164.826493,138.85513 164.729363,135.247448 164.6685,131.639062 C164.667581,131.53589 164.612168,131.440897 164.522812,131.389312 C152.783809,123.863375 143.009014,113.646217 136.009687,101.585812 L136.197,101.544187 L136.197,101.544187 Z M145.208812,247.66875 L145.208812,252.726187 L136.967062,252.726187 L136.967062,258.595312 L148.538812,258.595312 L148.538812,263.65275 L131.639062,263.65275 L131.639062,236.700562 L148.538812,236.700562 L148.538812,241.758 L136.967062,241.758 L136.967062,247.627125 L145.208812,247.627125 L145.208812,247.66875 Z M142.336687,223.2765 L141.192,228.333937 L135.759937,228.333937 L142.399125,201.38175 L149.60025,201.38175 L156.239438,228.333937 L150.807375,228.333937 L149.662688,223.2765 L142.336688,223.2765 L142.336687,223.2765 Z M162.233437,236.721375 L169.497,236.721375 L176.781375,263.673562 L171.286875,263.673562 L169.9965,258.616125 L161.713125,258.616125 L160.42275,263.673562 L154.92825,263.673562 L162.233437,236.721375 L162.233437,236.721375 Z M157.488187,179.487 L157.488187,160.25625 C157.488187,156.967875 160.131375,154.283062 163.378125,154.241437 L167.166,154.220625 L170.953875,154.241437 C174.228332,154.298409 176.846318,156.98138 176.823,160.25625 L176.823,179.487 C176.829128,181.034139 176.208641,182.517855 175.10294,183.60003 C173.99724,184.682205 172.500525,185.270644 170.953875,185.23125 C166.791375,185.189625 163.91925,185.23125 163.294875,185.23125 C161.758937,185.253604 160.278481,184.657617 159.186438,183.577317 C158.094396,182.497017 157.482439,181.02309 157.488187,179.487 Z M174.720937,220.466812 L168.373125,220.466812 L168.373125,228.333937 L163.08675,228.333937 L163.08675,201.38175 L174.720937,201.38175 C177.6555,201.38175 180.048937,203.754375 180.048937,206.70975 L180.048937,215.138812 C180.048937,218.081386 177.663511,220.466812 174.720937,220.466812 Z M141.982875,155.989687 C145.217252,155.551917 148.213693,157.764674 148.746937,160.984687 L150.328687,170.808187 C150.745895,173.413912 149.327444,175.967123 146.894625,176.9895 L146.43675,177.176812 L146.728125,177.593062 L152.493188,185.793187 C150.744938,186.022125 148.975875,186.271875 147.227625,186.542437 L141.379313,178.279875 L141.233625,178.07175 L140.983875,178.113375 L138.736125,178.488 L138.340688,178.550437 L139.818375,187.72875 C138.040541,188.044743 136.264513,188.370811 134.490375,188.706937 L129.557813,158.112562 C133.637063,157.3425 137.820375,156.614062 141.982875,155.989687 L141.982875,155.989687 Z M124.62525,258.616125 L124.62525,263.673562 L108.849375,263.673562 L108.849375,236.721375 L114.177375,236.721375 L114.177375,258.595312 L124.62525,258.595312 L124.62525,258.616125 Z M123.647062,228.35475 L123.647062,215.929688 L118.881,226.710563 L114.114937,215.929688 L114.114937,228.35475 L108.849375,228.35475 L108.849375,201.402562 L113.0535,201.402562 L118.901812,214.909875 L124.750125,201.402562 L128.95425,201.402562 L128.95425,228.35475 L123.647062,228.35475 L123.647062,228.35475 Z M71.386875,151.306875 C71.3024147,151.227165 71.1908208,151.182527 71.0746875,151.182 L70.263,151.182 C62.3334375,151.182 55.1739375,149.163188 48.36825,145.000688 L48.4515,144.855 C54.9390689,148.116801 62.1556972,149.657591 69.4096875,149.329688 C68.0585867,147.974654 66.684767,146.642465 65.2888125,145.333688 C56.6308125,136.883813 49.4713125,129.266438 43.414875,122.0445 L43.53975,121.940438 C50.740875,129.474563 57.0054375,135.676688 62.6664375,140.879813 L62.7496875,140.859 C63.5365591,136.234979 63.1355096,131.486839 61.5841875,127.060313 L61.729875,126.997875 C63.977625,131.61825 64.893375,136.675688 64.4355,142.045313 C64.4146875,142.253438 64.4979375,142.461563 64.6644375,142.60725 C69.7843125,147.123563 74.6544375,151.6815 79.1083125,156.114563 L79.129125,156.09375 C79.1778647,149.958812 77.3555881,143.954738 73.9051875,138.881813 L74.0300625,138.77775 C78.6920625,144.230625 81.1063125,150.661688 81.2311875,157.946063 C81.2311875,158.154188 81.3144375,158.362313 81.460125,158.508 L83.5205625,160.630875 C83.5621875,160.6725 83.583,160.75575 83.583,160.818188 C83.5621875,160.880625 83.5205625,160.943063 83.458125,160.963875 L81.585,161.858813 L81.4809375,161.879625 C81.4185,161.879625 81.33525,161.858813 81.293625,161.796375 C78.0565385,158.238901 74.75372,154.741799 71.386875,151.306875 L71.386875,151.306875 Z M96.7573125,203.005125 L84.8941875,180.06975 L84.540375,180.257063 C82.542375,181.3185 80.5235625,182.40075 78.5671875,183.503813 L76.1945625,178.925063 C81.9388125,175.719938 87.870375,172.6605 93.8019375,169.809188 L96.1745625,174.387938 C94.1316657,175.366029 92.0988709,176.365082 90.0765,177.384937 L89.701875,177.57225 L101.565,200.507625 L96.7573125,203.005125 L96.7573125,203.005125 Z M106.14375,164.939063 C108.516375,164.106563 110.930625,163.294875 113.324062,162.504 C113.901989,162.314733 114.50582,162.216435 115.113937,162.212625 C117.653062,162.212625 120.004875,163.898438 120.816562,166.312688 L126.997875,184.523625 C127.499435,185.966497 127.394296,187.551105 126.7065,188.915063 C126.001019,190.313682 124.763942,191.370821 123.272438,191.849625 C120.871646,192.639464 118.478109,193.451185 116.092125,194.284688 C114.638789,194.820528 113.030325,194.744423 111.634075,194.073752 C110.237826,193.403082 109.173033,192.195123 108.682875,190.72575 L102.501563,172.514813 C101.444848,169.418764 103.065758,166.047272 106.14375,164.939062 L106.14375,164.939063 Z M205.461,285.089625 C202.255875,285.089625 199.279687,284.777438 196.47,284.29875 C196.428375,284.29875 196.38675,284.340375 196.428375,284.382 C199.175625,287.046 204.6285,289.772438 207.70875,290.979563 L209.165625,291.5415 L207.6255,291.29175 C204.024937,290.688188 196.47,287.108438 192.369937,283.5495 L192.203437,283.46625 C185.481,281.926125 179.715937,279.8865 173.971687,279.8865 C166.5,279.8865 161.047125,281.593125 158.3415,289.044 C158.19137,287.546425 158.332723,286.033947 158.75775,284.590125 C158.778562,284.527688 158.75775,284.486063 158.716125,284.444438 C157.25925,283.46625 151.702312,280.032188 146.207812,280.032188 C137.94525,280.032188 127.310062,289.314562 119.13075,290.251125 C123.085125,288.919125 127.518187,285.942938 131.992875,283.2165 C132.0345,283.195688 132.013687,283.13325 131.972062,283.112438 C124.437937,281.63475 114.947437,283.258125 104.874187,285.818063 C114.510375,282.071812 124.354687,280.094625 134.61525,281.593125 L134.760937,281.572312 C138.632062,279.387 142.44075,277.680375 145.958062,277.680375 C152.472375,277.680375 158.070937,281.072812 159.777562,282.175875 C159.819187,282.196687 159.881625,282.196687 159.902437,282.155062 C162.504,278.346375 167.852812,276.785437 173.493,276.785437 C182.421562,276.785437 196.178625,283.403812 207.126,283.403812 C219.134812,283.403812 222.568875,282.321562 226.169437,281.5515 C222.818625,282.96675 217.428187,285.089625 205.461,285.089625 L205.461,285.089625 Z M255.078,183.9825 L246.2535,201.069563 C245.553984,202.450745 244.322953,203.488146 242.843196,203.943456 C241.363438,204.398766 239.762155,204.232846 238.407187,203.483812 C236.174428,202.296394 233.926492,201.137736 231.663937,200.008125 C230.262212,199.347142 229.192756,198.140397 228.705041,196.669387 C228.217327,195.198377 228.354003,193.591738 229.083187,192.22425 L237.907687,175.137187 C238.955099,173.138369 241.020721,171.881383 243.277312,171.869625 C244.193062,171.869625 245.067187,172.07775 245.899687,172.494 C248.147437,173.617875 250.416,174.783375 252.622125,175.969688 C255.510443,177.506282 256.60924,181.09134 255.078,183.9825 L255.078,183.9825 Z M259.49025,152.618063 C260.281125,152.659687 261.072,152.701313 261.862875,152.701313 C267.336563,152.701313 272.664562,151.473375 278.616938,148.851 L278.700188,148.996688 C272.380679,152.79244 265.134343,154.766094 257.762812,154.699313 C257.509587,154.697838 257.267591,154.803712 257.096813,154.990688 C254.807438,157.384125 252.83025,159.486187 251.040375,161.463375 C250.977938,161.525813 250.9155,161.567438 250.83225,161.567438 L250.707375,161.525813 L248.792625,160.547625 C248.732558,160.523431 248.691968,160.466604 248.688563,160.401938 C248.66775,160.3395 248.688563,160.277063 248.751,160.214625 C253.600313,155.219625 258.9075,150.141375 264.526875,145.10475 C264.700718,144.954256 264.793299,144.730517 264.776625,144.501188 C264.253871,139.02589 264.921246,133.502298 266.733,128.309063 L266.8995,128.350688 C265.910692,133.25693 265.755899,138.294743 266.441625,143.252438 C266.441625,143.294063 266.48325,143.314875 266.504063,143.314875 L266.545688,143.294063 C273.673078,136.542787 280.701514,129.687807 287.62875,122.731312 L287.753625,122.835375 C282.030188,129.516187 275.80725,136.259437 269.2305,142.919437 C265.98375,145.999687 262.716188,149.225625 259.511063,152.514 L259.49025,152.576437 C259.427813,152.576437 259.448625,152.59725 259.49025,152.618062 L259.49025,152.618063 Z" id="Shape" fill="#FFFFFF"></path>
                <path d="M115.592625,188.852625 C115.854269,188.851594 116.114126,188.809455 116.362688,188.72775 L119.671875,187.603875 C120.258498,187.408328 120.744507,186.989614 121.024688,186.438375 C121.29342,185.886998 121.338174,185.252973 121.149563,184.669313 L116.008875,169.538625 C115.681986,168.585889 114.789165,167.943393 113.781938,167.936063 C113.533727,167.935202 113.287252,167.977454 113.0535,168.060938 L109.7235,169.184813 C109.133656,169.383543 108.647789,169.809918 108.374135,170.368956 C108.10048,170.927993 108.061769,171.573255 108.266625,172.161 L113.407313,187.291688 C113.722032,188.229471 114.603461,188.859063 115.592625,188.852625 L115.592625,188.852625 Z" id="Shape" fill="#FFFFFF"></path>
                <path d="M164.564437,131.430937 C164.647687,131.493375 164.710125,131.576625 164.710125,131.680687 C164.772562,135.531 164.876625,139.069125 165.0015,142.503187 C165.0015,142.628062 165.105562,142.732125 165.25125,142.732125 L167.9985,142.752937 C168.069973,142.753269 168.138164,142.722962 168.185812,142.669687 C168.227437,142.628062 168.24825,142.544812 168.24825,142.482375 L167.977687,135.218812 C167.977687,135.087795 168.039373,134.964423 168.144187,134.885812 C181.131187,125.0415 191.412562,113.553 196.3035,103.375687 L196.157812,103.292437 C190.122187,113.365687 180.673312,123.0435 168.08175,132.055312 C167.9985,132.096937 167.873625,132.055312 167.873625,131.95125 C167.386136,118.989511 167.393078,106.013897 167.894437,93.0526875 L168.019312,88.4115 C168.019312,88.245 168.123375,88.0785 168.269062,87.99525 C173.826,84.873375 178.883437,80.8149375 183.774375,75.591 L183.670312,75.466125 C178.300687,80.16975 173.264062,83.6454375 168.269062,86.1013125 C168.206625,86.122125 168.144187,86.122125 168.102562,86.0805 C168.077079,86.0516651 168.06237,86.014893 168.060937,85.9764375 C168.393937,66.933 167.956875,44.70525 167.020312,34.2781875 L166.853812,34.2781875 C166.957875,45.3504375 166.812187,56.69325 166.479187,68.01525 C166.479187,68.0776875 166.41675,68.1193125 166.375125,68.1193125 L166.312687,68.0985 C161.650033,63.1606026 157.462152,57.7950988 153.804375,52.072875 L153.658687,52.156125 C156.738937,58.0876875 160.818187,64.060875 166.146187,70.471125 C166.312687,70.67925 166.395937,70.929 166.395937,71.17875 C166.146187,78.50475 165.792375,85.7683125 165.376125,92.7613125 C165.25125,95.15475 165.147187,97.693875 165.043125,100.753313 C165.043125,100.857375 164.91825,100.899 164.855812,100.857375 C159.0075,96.694875 153.617062,90.99225 149.26725,84.33225 L149.121562,84.4155 C152.971875,91.6374375 158.175,97.777125 164.58525,102.688875 C164.812584,102.861387 164.944014,103.131976 164.939062,103.417313 C164.685777,111.809146 164.609447,120.205386 164.710125,128.600438 L164.689312,128.662875 L164.606062,128.683688 C153.279242,121.838343 143.595055,112.587565 136.238625,101.585813 L136.092937,101.669063 C143.072194,113.719769 152.83471,123.924738 164.564437,131.430938 L164.564437,131.430937 Z M81.4809375,161.879625 L81.585,161.858812 L83.458125,160.963875 C83.5205625,160.943062 83.5621875,160.880625 83.583,160.818187 C83.6054472,160.748814 83.5801444,160.672905 83.5205625,160.630875 L81.460125,158.508 C81.3140359,158.357328 81.2319841,158.155928 81.2311875,157.946062 C81.1843937,150.904 78.6315495,144.108712 74.0300625,138.77775 L73.9051875,138.881812 C77.4225,144.189 79.129125,149.808375 79.129125,156.09375 L79.1083125,156.114562 C74.4294106,151.469149 69.6126327,146.964698 64.6644375,142.60725 C64.5022724,142.4676 64.4170952,142.258528 64.4355,142.045312 C64.9266651,136.876454 63.9908499,131.671881 61.729875,126.997875 L61.5841875,127.060312 C63.145125,131.555812 63.5405625,136.072125 62.7496875,140.859 L62.6664375,140.879812 C56.0950236,134.767593 49.7163441,128.451382 43.53975,121.940437 L43.414875,122.0445 C49.4713125,129.266437 56.6308125,136.883812 65.2888125,145.333687 C66.5791875,146.52 67.9111875,147.831187 69.4096875,149.329687 C62.1546109,149.670787 54.9346713,148.12929 48.4515,144.855 L48.36825,145.000687 C55.1739375,149.163187 62.3334375,151.182 70.263,151.182 L71.0746875,151.182 C71.19168,151.177874 71.3050021,151.223202 71.386875,151.306875 C74.259,154.241437 77.50575,157.6755 81.293625,161.796375 C81.3412737,161.849649 81.4094641,161.879956 81.4809375,161.879625 L81.4809375,161.879625 Z M269.168062,142.898625 C275.744812,136.259437 281.96775,129.495375 287.691188,122.814562 L287.566312,122.7105 C280.80225,129.516187 273.8925,136.238625 266.48325,143.27325 L266.441625,143.294062 C266.420813,143.294062 266.379188,143.27325 266.379188,143.231625 C265.682578,138.274518 265.837428,133.234863 266.837063,128.329875 L266.670563,128.28825 C264.860094,133.481784 264.192753,139.005094 264.714188,144.480375 C264.730862,144.709704 264.63828,144.933443 264.464438,145.083938 C258.845063,150.09975 253.537875,155.178 248.688563,160.193813 C248.646938,160.235438 248.626125,160.297875 248.626125,160.381125 C248.646938,160.443563 248.66775,160.506 248.730188,160.526813 L250.644938,161.505 C250.682843,161.528219 250.725557,161.542457 250.769813,161.546625 C250.852096,161.548349 250.929946,161.509423 250.977938,161.442563 C252.767813,159.486188 254.745,157.363313 257.034375,154.969875 C257.205153,154.782899 257.44715,154.677026 257.700375,154.6785 C265.072326,154.74854 272.319532,152.774649 278.63775,148.975875 L278.5545,148.830188 C272.579418,151.620371 266.01468,152.913318 259.427813,152.59725 C259.386188,152.59725 259.365375,152.555625 259.365375,152.555625 C259.365375,152.534813 259.344563,152.514 259.386188,152.493188 C262.65375,149.204813 265.921313,145.958063 269.168063,142.898625 L269.168062,142.898625 Z M173.513812,276.80625 C167.873625,276.80625 162.524812,278.346375 159.92325,282.175875 C159.902438,282.2175 159.84,282.238312 159.798375,282.196687 C158.09175,281.093625 152.493187,277.701187 145.978875,277.701187 C142.461562,277.701187 138.652875,279.407812 134.78175,281.593125 C134.740125,281.613937 134.677687,281.63475 134.636062,281.613937 C124.3755,280.094625 114.531188,282.092625 104.895,285.838875 C114.947437,283.29975 124.437937,281.676375 131.992875,283.13325 C132.0345,283.13325 132.055312,283.195687 132.013687,283.237312 C127.539,285.96375 123.105937,288.939937 119.151562,290.271937 C127.310062,289.335375 137.966062,280.053 146.228625,280.053 C151.743937,280.053 157.280062,283.487062 158.736937,284.46525 C158.778562,284.506875 158.799375,284.5485 158.778562,284.610937 C158.353536,286.05476 158.212183,287.567237 158.362313,289.064812 C161.047125,281.613937 166.5,279.907312 173.9925,279.907312 C179.73675,279.907312 185.501813,281.946937 192.22425,283.487062 C192.285323,283.501887 192.342246,283.530349 192.39075,283.570312 C196.490813,287.150062 204.04575,290.709 207.646313,291.312563 L209.186438,291.562313 L207.729563,291.000375 C204.649313,289.79325 199.175625,287.066813 196.449188,284.402813 C196.407563,284.361188 196.449188,284.319563 196.490813,284.319563 C199.3005,284.79825 202.276688,285.110437 205.481813,285.110437 C217.449,285.110437 222.839438,282.96675 226.211063,281.593125 C222.6105,282.363188 219.19725,283.445438 207.167625,283.445438 C196.22025,283.424625 182.442375,276.80625 173.513813,276.80625 L173.513812,276.80625 Z M170.953875,185.23125 C174.283875,185.23125 176.823,182.712937 176.823,179.487 L176.823,160.25625 C176.823958,156.990433 174.218734,154.32054 170.953875,154.241437 L167.166,154.220625 L163.378125,154.241437 C160.105103,154.309404 157.487482,156.982523 157.488187,160.25625 L157.488187,179.487 C157.488187,182.712937 160.027312,185.23125 163.294875,185.23125 C163.91925,185.23125 166.812187,185.168812 170.953875,185.23125 L170.953875,185.23125 Z M163.065938,161.75475 C163.065938,160.464375 164.106563,159.402937 165.396938,159.402937 L168.91425,159.402937 C170.204625,159.402937 171.24525,160.464375 171.24525,161.75475 L171.24525,177.73875 C171.24525,179.029125 170.204625,180.06975 168.91425,180.06975 L165.396938,180.06975 C164.106152,180.069801 163.056548,179.029485 163.045125,177.73875 L163.045125,161.75475 L163.065938,161.75475 Z M128.933438,201.402562 L124.729313,201.402562 L118.881,214.909875 L113.032687,201.402562 L108.849375,201.402562 L108.849375,228.35475 L114.114938,228.35475 L114.114938,215.908875 L118.881,226.68975 L123.647062,215.908875 L123.647062,228.35475 L128.933437,228.35475 L128.933438,201.402562 Z M139.797562,187.72875 L138.319875,178.550437 L138.715313,178.488 L140.963063,178.113375 L141.212813,178.07175 L141.3585,178.279875 L147.206813,186.542437 C148.955062,186.271875 150.724125,186.022125 152.472375,185.793187 L146.707313,177.593062 L146.415938,177.176812 L146.873813,176.9895 C149.301332,175.96122 150.717271,173.412531 150.307875,170.808187 L148.726125,160.984687 C148.192881,157.764674 145.196439,155.551917 141.962063,155.989687 C137.820375,156.614062 133.637063,157.321687 129.516188,158.112562 L134.44875,188.706937 L139.797563,187.72875 L139.797562,187.72875 Z M136.072125,162.171 L140.94225,161.359312 C142.220589,161.171634 143.414092,162.041319 143.627063,163.315687 L144.6885,169.91325 C144.795431,170.521875 144.644661,171.147567 144.27225,171.640687 C143.904037,172.135484 143.360415,172.470593 142.752938,172.57725 L137.882813,173.368125 L137.487375,173.430562 L135.676688,162.212625 L136.072125,162.171 L136.072125,162.171 Z M180.048938,215.138812 L180.048938,206.70975 C180.048938,203.767177 177.663511,201.38175 174.720937,201.38175 L163.08675,201.38175 L163.08675,228.333937 L168.373125,228.333937 L168.373125,220.466812 L174.720937,220.466812 C177.663511,220.466812 180.048938,218.081386 180.048938,215.138812 Z M174.762563,213.765187 C174.751339,214.668558 174.021745,215.398152 173.118375,215.409375 L168.352312,215.409375 L168.352312,206.46 L173.118375,206.46 C174.021745,206.471223 174.751339,207.200817 174.762563,208.104187 L174.762563,213.765188 L174.762563,213.765187 Z M108.849375,236.721375 L108.849375,263.673562 L124.62525,263.673562 L124.62525,258.616125 L114.177375,258.616125 L114.177375,236.721375 L108.849375,236.721375 Z M252.622125,175.948875 C250.396336,174.761482 248.155338,173.602823 245.899687,172.473188 C245.088591,172.05694 244.188961,171.842743 243.277312,171.848813 C241.020721,171.86057 238.955099,173.117557 237.907687,175.116375 L229.083187,192.203438 C228.372181,193.574222 228.245251,195.174148 228.731221,196.639895 C229.21719,198.105642 230.27482,199.312825 231.663937,199.987313 C233.911687,201.111188 236.18025,202.276688 238.407187,203.463 C239.25937,203.916047 240.210127,204.151949 241.17525,204.149813 C243.317208,204.155976 245.280601,202.957018 246.2535,201.04875 L255.078,183.961688 C256.596972,181.069372 255.50093,177.493301 252.622125,175.948875 L252.622125,175.948875 Z M249.458625,182.754562 L242.132625,196.948687 C241.853335,197.502746 241.361118,197.919714 240.768683,198.104115 C240.176248,198.288515 239.534337,198.224553 238.989937,197.926875 L235.868062,196.324312 C235.309691,196.043016 234.889179,195.547412 234.702562,194.950687 C234.511241,194.365403 234.563756,193.727724 234.84825,193.181625 L242.17425,178.9875 C242.766801,177.833002 244.182487,177.376629 245.33775,177.967687 L248.459625,179.57025 C249.59976,180.186214 250.042581,181.597707 249.458625,182.754562 L249.458625,182.754562 Z M114.094125,194.617687 C114.766514,194.610399 115.43363,194.498043 116.071313,194.284687 C118.443938,193.452187 120.858188,192.619687 123.251625,191.849625 C124.74313,191.370821 125.980207,190.313682 126.685688,188.915062 C127.371142,187.550466 127.476218,185.966821 126.977063,184.523625 L120.79575,166.312687 C119.951782,163.878622 117.669234,162.23752 115.093125,162.212625 C114.485008,162.216435 113.881177,162.314733 113.30325,162.504 C110.899345,163.284489 108.505705,164.096246 106.122938,164.939062 C103.05299,166.056171 101.43601,169.419489 102.48075,172.514812 L108.662063,190.72575 C109.448839,193.055155 111.635441,194.621801 114.094125,194.617687 L114.094125,194.617687 Z M109.702688,169.164 L113.032688,168.040125 C113.62051,167.84266 114.262787,167.887552 114.817424,168.164871 C115.372061,168.44219 115.793341,168.929075 115.988063,169.517812 L121.12875,184.6485 C121.339027,185.229333 121.29366,185.872028 121.003875,186.417562 C120.73734,186.979351 120.246101,187.402572 119.651063,187.583062 L116.341875,188.706937 C115.75413,188.911794 115.108868,188.873083 114.549831,188.599428 C113.990793,188.325773 113.564418,187.839906 113.365688,187.250062 L108.225,172.119375 C107.837939,170.89679 108.492383,169.587902 109.702687,169.164 L109.702688,169.164 Z M90.0765,177.40575 C92.0953125,176.385937 94.1349375,175.386937 96.1745625,174.40875 L93.8019375,169.83 C87.870375,172.681312 81.9388125,175.74075 76.1945625,178.945875 L78.5671875,183.524625 C80.5235625,182.421562 82.542375,181.339312 84.540375,180.277875 L84.8941875,180.090562 L96.7573125,203.025937 L101.565,200.528437 L89.701875,177.593062 L90.0765,177.40575 L90.0765,177.40575 Z M187.458188,155.26125 L182.296688,185.814 C184.06575,186.06375 185.876438,186.3135 187.666313,186.604875 L190.6425,169.059937 L191.162813,170.57925 L197.156813,188.22825 L201.38175,189.039937 L206.54325,158.487187 L201.21525,157.467375 L198.239063,175.012312 L197.71875,173.472187 C195.736428,167.597737 193.738421,161.728591 191.72475,155.864812 L187.458188,155.26125 L187.458188,155.26125 Z M212.516438,263.673562 L220.092188,263.673562 C221.510784,263.679093 222.873474,263.120856 223.880477,262.12166 C224.887479,261.122464 225.456303,259.764159 225.461813,258.345562 L225.461813,254.49525 C225.461813,252.49725 224.69175,250.66575 222.881063,249.75 L213.307313,245.483437 C212.778547,245.183784 212.440624,244.633676 212.412375,244.026562 L212.412375,243.423 C212.423769,242.511584 213.165888,241.778741 214.077375,241.778812 L218.448,241.778812 C219.359487,241.778741 220.101606,242.511584 220.113,243.423 L220.113,244.546875 L225.441,244.546875 L225.441,242.049375 C225.418137,239.100081 223.020757,236.721286 220.071375,236.721375 L212.495625,236.721375 C211.077028,236.715844 209.714338,237.274081 208.707336,238.273277 C207.700333,239.272473 207.131509,240.630778 207.126,242.049375 L207.126,244.817437 C207.126,246.815437 207.896063,248.646937 209.70675,249.562687 L219.2805,253.82925 C219.803749,254.134582 220.13963,254.681365 220.175438,255.286125 L220.175438,256.971937 C220.164044,257.883354 219.421925,258.616196 218.510438,258.616125 L214.139813,258.616125 C213.228325,258.616196 212.486206,257.883354 212.474813,256.971937 L212.474813,255.82725 L207.146813,255.82725 L207.146813,258.345562 C207.146769,259.765878 207.713821,261.127422 208.722035,262.127821 C209.73025,263.12822 211.096166,263.684659 212.516438,263.673562 L212.516438,263.673562 Z M225.482625,223.2765 L215.20125,223.2765 L215.20125,217.407375 L222.19425,217.407375 L222.19425,212.349937 L215.20125,212.349937 L215.20125,206.46 L225.482625,206.46 L225.482625,201.402562 L209.914875,201.402562 L209.914875,228.35475 L225.482625,228.35475 L225.482625,223.2765 Z M200.133,241.799625 L200.133,236.721375 L183.23325,236.721375 L183.23325,263.673562 L188.56125,263.673562 L188.56125,252.747 L196.803,252.747 L196.803,247.66875 L188.56125,247.66875 L188.56125,241.799625 L200.133,241.799625 Z M216.845438,193.785187 L225.066375,169.309687 L225.461813,169.434562 C227.584688,170.163 229.728375,170.933062 231.85125,171.723937 L233.495438,166.833 C227.314125,164.543625 221.007938,162.42075 214.70175,160.506 L213.057563,165.396937 C215.20125,166.042125 217.386563,166.728937 219.551063,167.436562 L219.9465,167.561437 L211.725563,192.036937 L216.845438,193.785187 Z M161.713125,258.616125 L170.017313,258.616125 L171.307688,263.673562 L176.802188,263.673562 L169.517813,236.721375 L162.25425,236.721375 L154.969875,263.673562 L160.464375,263.673562 L161.713125,258.616125 Z M165.875625,242.319937 L168.726938,253.537875 L163.0035,253.537875 L165.875625,242.319937 Z M150.807375,228.35475 L156.239438,228.35475 L149.60025,201.402562 L142.399125,201.402562 L135.759937,228.35475 L141.192,228.35475 L142.336687,223.297312 L149.662687,223.297312 L150.807375,228.35475 L150.807375,228.35475 Z M143.481375,218.219062 L145.999688,207.001125 L148.518,218.219062 L143.481375,218.219062 Z M203.088375,223.2765 L193.327313,223.2765 L193.327313,201.402562 L188.040938,201.402562 L188.040938,228.35475 L203.088375,228.35475 L203.088375,223.2765 Z M148.518,241.799625 L148.518,236.721375 L131.61825,236.721375 L131.61825,263.673562 L148.518,263.673562 L148.518,258.616125 L136.967063,258.616125 L136.967063,252.747 L145.208813,252.747 L145.208813,247.66875 L136.967063,247.66875 L136.967063,241.799625 L148.518,241.799625 Z" id="Shape" fill="#002868"></path>
                <path d="M236.658938,310.293563 L236.658938,315.788063 L235.285312,315.788063 L235.285312,310.293563 L233.703562,310.293563 L233.703562,308.919938 L238.2615,308.919938 L238.2615,310.293563 L236.658937,310.293563 L236.658938,310.293563 Z M244.109813,315.76725 L244.109813,311.729625 L242.944313,314.247938 L241.737188,314.247938 L240.571688,311.729625 L240.571688,315.76725 L239.198063,315.76725 L239.198063,308.919938 L240.571688,308.919938 L242.34075,312.582938 L244.109813,308.919938 L245.483438,308.919938 L245.483438,315.76725 L244.109813,315.76725 L244.109813,315.76725 Z" id="Shape" fill="#FFFFFF"></path>
            </g>
        </g>
    </g>
</svg>