<svg baseProfile="tiny" xmlns="http://www.w3.org/2000/svg" viewBox="0 110 24 16"><path fill="#FFF" d="M11.948 118.651h.169c.062 0 .112-.05.112-.112v-.768a.113.113 0 0 0-.112-.113h-.169a.113.113 0 0 0-.112.113v.768a.11.11 0 0 0 .112.112zm.37 1.269h-.229v.43h.229a.08.08 0 0 0 .079-.079v-.272a.079.079 0 0 0-.079-.079zm-1.424.565h.243l-.122-.54zm-.268-2.154l.234-.038a.11.11 0 0 0 .073-.045.108.108 0 0 0 .02-.083l-.051-.317a.115.115 0 0 0-.129-.094 9.51 9.51 0 0 0-.234.039l-.019.003.087.539.019-.004zm1.344 3.312l-.138.54h.275zm3.968-3.015l-.15-.077a.113.113 0 0 0-.152.049l-.352.682a.11.11 0 0 0-.007.085.111.111 0 0 0 .056.066l.15.077a.11.11 0 0 0 .151-.047l.352-.682a.115.115 0 0 0-.048-.153z"/><path fill="#FFF" d="M19.06 116.294c.008-.013.001-.031-.013-.036a2.906 2.906 0 0 0-.616-.164.024.024 0 0 1-.018-.035c.166-.334.274-.717.354-1.132.003-.018-.013-.034-.03-.029a6.924 6.924 0 0 0-1.159.443.023.023 0 0 1-.033-.016c-.052-.231-.115-.491-.242-.716-.007-.013-.024-.016-.036-.008a6.249 6.249 0 0 0-1.007.902.025.025 0 0 1-.039-.004 1.116 1.116 0 0 0-.304-.33c-.01-.007-.025-.006-.033.004-.484.599-1.093 1.278-1.879 1.841-.016.012-.039-.004-.033-.023.178-.584.447-1.14.709-1.651a.024.024 0 0 0-.016-.034 2.607 2.607 0 0 0-.397-.047.023.023 0 0 1-.018-.037 6.138 6.138 0 0 0 .745-1.626.023.023 0 0 0-.023-.03 3.32 3.32 0 0 0-.888.171c-.017.006-.033-.008-.03-.026.081-.464.043-.985-.045-1.467-.003-.015-.018-.024-.032-.018a4.044 4.044 0 0 0-.623.309.024.024 0 0 1-.036-.022 4.516 4.516 0 0 0-.111-1.307.023.023 0 0 0-.03-.016 2.743 2.743 0 0 0-.469.232.024.024 0 0 1-.035-.013c-.15-.44-.391-.867-.651-1.292-.01-.016-.033-.016-.042 0-.26.425-.501.852-.651 1.292a.024.024 0 0 1-.035.013 2.743 2.743 0 0 0-.469-.232c-.013-.004-.027.003-.03.016a4.484 4.484 0 0 0-.111 1.307.024.024 0 0 1-.036.022 3.955 3.955 0 0 0-.623-.309.025.025 0 0 0-.032.018c-.088.482-.126 1.003-.045 1.467.003.018-.013.032-.03.026a3.36 3.36 0 0 0-.888-.171.023.023 0 0 0-.023.03c.161.537.414 1.135.745 1.626.01.015 0 .036-.018.037a2.638 2.638 0 0 0-.397.047.024.024 0 0 0-.016.034c.262.512.531 1.069.71 1.654.006.019-.016.034-.031.023-.696-.487-1.365-1.201-1.881-1.844a.024.024 0 0 0-.033-.004c-.13.093-.228.205-.304.33a.025.025 0 0 1-.039.004 6.249 6.249 0 0 0-1.007-.902.024.024 0 0 0-.036.008c-.128.226-.19.486-.242.716-.003.015-.019.022-.033.016a6.859 6.859 0 0 0-1.159-.443.024.024 0 0 0-.03.029c.08.415.188.799.354 1.132a.025.025 0 0 1-.018.035 2.89 2.89 0 0 0-.616.164c-.014.005-.021.023-.013.036.25.43.539.785.871 1.062a.024.024 0 0 1-.003.039 1.938 1.938 0 0 0-.367.283.025.025 0 0 0 0 .036c.421.414.88.784 1.378 1.108.014.009.015.03.002.041-.184.142-.346.29-.484.456-.009.01-.007.026.003.035.361.32.775.579 1.255.775.018.007.021.031.005.043-.171.128-.31.27-.437.424a.025.025 0 0 0 .008.038c.343.176.76.29 1.191.368.02.004.021.031.002.037a8.023 8.023 0 0 0-1.543.661.025.025 0 0 0-.003.042c.356.264.718.494 1.14.659.018.007.021.03.007.042a7.796 7.796 0 0 0-1.46 1.599.025.025 0 0 0 .024.039 11.978 11.978 0 0 0 1.606-.296c.02-.005.037.015.027.033a6.24 6.24 0 0 0-.275.641c-.006.017.008.036.026.034.53-.057 1.011-.125 1.396-.212a.024.024 0 0 1 .025.037 3.174 3.174 0 0 0-.37.81.025.025 0 0 0 .029.032c.929-.177 1.774-.443 2.524-.803.02-.01.043.004.045.027.045.666.298 1.129.643 1.501a.034.034 0 0 0 .048.002l.485-.448a.036.036 0 0 0 .003-.051c-.096-.11-.538-.611-.459-.992a.074.074 0 0 1 .102-.051c.559.253 1.719.64 2.629.815a.025.025 0 0 0 .028-.031 3.201 3.201 0 0 0-.371-.811c-.012-.018.004-.042.025-.037.384.087.866.154 1.396.212a.025.025 0 0 0 .026-.034 6.336 6.336 0 0 0-.275-.641c-.009-.019.007-.039.027-.033.471.129 1.018.221 1.606.296.021.003.036-.021.024-.039a7.796 7.796 0 0 0-1.46-1.599.024.024 0 0 1 .007-.042c.422-.164.784-.395 1.14-.659a.025.025 0 0 0-.003-.042 7.987 7.987 0 0 0-1.543-.661.019.019 0 0 1 .002-.037c.432-.078.848-.192 1.191-.368a.025.025 0 0 0 .008-.038 2.588 2.588 0 0 0-.437-.424.025.025 0 0 1 .005-.043c.48-.196.894-.455 1.255-.775a.026.026 0 0 0 .003-.035 3.15 3.15 0 0 0-.484-.456.025.025 0 0 1 .002-.041 8.883 8.883 0 0 0 1.378-1.108.025.025 0 0 0 0-.036 1.98 1.98 0 0 0-.367-.283.024.024 0 0 1-.003-.039c.326-.277.614-.631.864-1.062zm-4.512 1.752a11.276 11.276 0 0 0-.312-.098l.079-.235c.303.092.606.194.903.304l-.079.235a12.553 12.553 0 0 0-.307-.11l-.019-.006-.395 1.176a23.876 23.876 0 0 0-.247-.083l.395-1.176-.018-.007zm-.462 1.631h.748v.243h-.494v.282h.336v.243h-.336v.282h.494v.243h-.748v-1.293zm-.134 2.615h.256v.055a.08.08 0 0 0 .08.079h.21a.08.08 0 0 0 .08-.079v-.081a.087.087 0 0 0-.043-.07l-.46-.205c-.086-.044-.124-.132-.124-.228v-.133c0-.141.116-.256.258-.256h.364c.143 0 .258.115.258.256v.12h-.256v-.054a.08.08 0 0 0-.08-.079h-.21a.08.08 0 0 0-.08.079v.029c0 .029.021.058.043.07l.46.205c.086.044.124.132.124.228v.185a.258.258 0 0 1-.258.256h-.364a.257.257 0 0 1-.258-.256v-.121zm-.428-3.882l.143-.843.256.049-.248 1.468a7.252 7.252 0 0 0-.203-.039c-.095-.282-.191-.567-.288-.848l-.025-.073-.143.843-.258-.038.248-1.468c.068.009.137.019.205.03l.288.846.025.073zm-.068 3.49v.243h-.396v.526h-.256v-1.295h.812v.243h-.556v.282h.396zm-.421-.928v-1.295h.254v1.051h.468v.243h-.722zm-2.491-6.093a4.34 4.34 0 0 0 1.363 1.302c.001.001.003.001.004-.001l.001-.003c-.005-.402-.001-.808.011-1.21a.044.044 0 0 0-.017-.035 2.66 2.66 0 0 1-.743-.878l.007-.004c.208.319.467.594.749.794.003.002.009 0 .009-.005.005-.147.01-.268.016-.384.021-.336.037-.685.049-1.037a.052.052 0 0 0-.012-.034 4.974 4.974 0 0 1-.6-.88l.007-.004c.179.279.381.538.601.77l.003.001c.002 0 .005-.002.005-.005.017-.544.023-1.089.018-1.621h.008c.044.501.066 1.569.05 2.484l.002.005c.002.002.005.003.008.001.239-.118.481-.285.74-.511l.005.006a3.037 3.037 0 0 1-.745.596.024.024 0 0 0-.012.02l-.006.223a24.516 24.516 0 0 0-.001 1.869c0 .005.006.007.01.005.606-.433 1.06-.898 1.349-1.382l.007.004c-.236.49-.729 1.042-1.353 1.514a.02.02 0 0 0-.008.016l.013.349a.016.016 0 0 1-.003.009.013.013 0 0 1-.009.004l-.132-.001c-.006 0-.011-.005-.012-.011a25.878 25.878 0 0 1-.014-.52.014.014 0 0 0-.007-.012 4.213 4.213 0 0 1-1.37-1.432l.009-.002zm.433 7.021v.243h-.396v.282h.556v.243h-.812v-1.295h.812v.243h-.556v.282h.396zm-.138-1.172l-.055.243h-.261l.319-1.295h.346l.319 1.295h-.261l-.055-.243h-.352zm.956.646h.349l.35 1.295h-.264l-.062-.243h-.398l-.062.243h-.264l.351-1.295zm-.228-2.75v-.924c0-.158.127-.287.283-.289l.182-.001.182.001a.287.287 0 0 1 .282.289v.924a.275.275 0 0 1-.282.276c-.2-.002-.338 0-.368 0a.275.275 0 0 1-.279-.276zm.828 1.969h-.305v.378h-.254v-1.295h.559c.141 0 .256.114.256.256v.405a.256.256 0 0 1-.256.256zm-1.573-3.098a.29.29 0 0 1 .325.24l.076.472a.275.275 0 0 1-.165.297l-.022.009.014.02.277.394c-.084.011-.169.023-.253.036l-.281-.397-.007-.01-.012.002-.108.018-.019.003.071.441a22.96 22.96 0 0 0-.256.047l-.237-1.47c.196-.037.397-.072.597-.102zm-.834 4.931v.243H9.23v-1.295h.256v1.051h.502zm-.047-1.454v-.597l-.229.518-.229-.518v.597H9.23v-1.295h.202l.281.649.281-.649h.202v1.295h-.255zM7.43 117.27a.022.022 0 0 0-.015-.006h-.039c-.381 0-.725-.097-1.052-.297l.004-.007a2.037 2.037 0 0 0 1.007.215 8.191 8.191 0 0 0-.198-.192c-.416-.406-.76-.772-1.051-1.119l.006-.005c.346.362.647.66.919.91l.004-.001a1.33 1.33 0 0 0-.056-.663l.007-.003c.108.222.152.465.13.723-.001.01.003.02.011.027.246.217.48.436.694.649l.001-.001a1.45 1.45 0 0 0-.251-.827l.006-.005c.224.262.34.571.346.921 0 .01.004.02.011.027l.099.102c.002.002.003.006.003.009-.001.003-.003.006-.006.007l-.09.043-.005.001c-.003 0-.007-.001-.009-.004a18.682 18.682 0 0 0-.476-.504zm1.219 2.484l-.57-1.102-.017.009c-.096.051-.193.103-.287.156l-.114-.22c.276-.154.561-.301.846-.438l.114.22a15.89 15.89 0 0 0-.293.144l-.018.009.57 1.102-.231.12zm.451-1.829c.114-.04.23-.079.345-.117a.282.282 0 0 1 .086-.014c.122 0 .235.081.274.197l.297.875a.271.271 0 0 1-.014.211.281.281 0 0 1-.165.141 19.97 19.97 0 0 0-.345.117.275.275 0 0 1-.356-.171l-.297-.875a.288.288 0 0 1 .175-.364zm4.772 5.773c-.154 0-.297-.015-.432-.038-.002 0-.004.002-.002.004.132.128.394.259.542.317l.07.027-.074-.012c-.173-.029-.536-.201-.733-.372l-.008-.004c-.323-.074-.6-.172-.876-.172-.359 0-.621.082-.751.44a.56.56 0 0 1 .02-.214c.001-.003 0-.005-.002-.007-.07-.047-.337-.212-.601-.212-.397 0-.908.446-1.301.491.19-.064.403-.207.618-.338.002-.001.001-.004-.001-.005-.362-.071-.818.007-1.302.13.463-.18.936-.275 1.429-.203l.007-.001c.186-.105.369-.187.538-.187.313 0 .582.163.664.216.002.001.005.001.006-.001.125-.183.382-.258.653-.258.429 0 1.09.318 1.616.318.577 0 .742-.052.915-.089-.161.068-.42.17-.995.17zm2.384-4.858l-.424.821a.274.274 0 0 1-.377.116 14.174 14.174 0 0 0-.324-.167.272.272 0 0 1-.124-.374l.424-.821a.293.293 0 0 1 .258-.157c.044 0 .086.01.126.03.108.054.217.11.323.167a.285.285 0 0 1 .118.385zm.212-1.507c.038.002.076.004.114.004.263 0 .519-.059.805-.185l.004.007a1.92 1.92 0 0 1-1.006.274.043.043 0 0 0-.032.014c-.11.115-.205.216-.291.311-.003.003-.006.005-.01.005l-.006-.002-.092-.047a.008.008 0 0 1-.005-.007c-.001-.003 0-.006.003-.009.233-.24.488-.484.758-.726a.035.035 0 0 0 .012-.029 1.833 1.833 0 0 1 .094-.778l.008.002a2.14 2.14 0 0 0-.022.716c0 .002.002.003.003.003l.002-.001a48.46 48.46 0 0 0 1.013-.988l.006.005c-.275.321-.574.645-.89.965-.156.148-.313.303-.467.461l-.001.003c-.003 0-.002.001 0 .002z"/><path fill="#FFF" d="M9.554 119.074a.12.12 0 0 0 .037-.006l.159-.054a.113.113 0 0 0 .065-.056.114.114 0 0 0 .006-.085l-.247-.727a.114.114 0 0 0-.107-.077.103.103 0 0 0-.035.006l-.16.054a.112.112 0 0 0-.07.143l.247.727a.11.11 0 0 0 .105.075z"/><path fill="#002868" d="M11.907 116.315c.004.003.007.007.007.012.003.185.008.355.014.52 0 .006.005.011.012.011l.132.001a.012.012 0 0 0 .009-.004c.002-.002.003-.006.003-.009l-.013-.349a.02.02 0 0 1 .008-.016c.624-.473 1.118-1.025 1.353-1.514l-.007-.004c-.29.484-.744.949-1.349 1.382-.004.002-.01 0-.01-.005a24.516 24.516 0 0 1 .001-1.869l.006-.223c0-.008.005-.016.012-.02.267-.15.51-.345.745-.596l-.005-.006c-.258.226-.5.393-.74.511-.003.001-.006.001-.008-.001a.008.008 0 0 1-.002-.005c.016-.915-.005-1.983-.05-2.484h-.008c.005.532-.002 1.077-.018 1.621 0 .003-.003.005-.005.005l-.003-.001a5.204 5.204 0 0 1-.601-.77l-.007.004c.148.285.344.572.6.88.008.01.012.022.012.034-.012.352-.029.701-.049 1.037-.006.115-.011.237-.016.384 0 .005-.006.007-.009.005-.281-.2-.54-.474-.749-.794l-.007.004c.185.347.435.642.743.878a.043.043 0 0 1 .017.035 28.7 28.7 0 0 0-.011 1.21l-.001.003-.004.001a4.34 4.34 0 0 1-1.363-1.302l-.007.004a4.192 4.192 0 0 0 1.368 1.43zm-3.992 1.463l.005-.001.09-.043c.003-.001.005-.004.006-.007a.008.008 0 0 0-.003-.009l-.099-.102a.039.039 0 0 1-.011-.027 1.424 1.424 0 0 0-.346-.921l-.006.005c.169.255.251.525.251.827l-.001.001a15.89 15.89 0 0 0-.694-.649.032.032 0 0 1-.011-.027 1.364 1.364 0 0 0-.13-.723l-.007.003c.075.216.094.433.056.663l-.004.001a20.685 20.685 0 0 1-.919-.91l-.006.005c.291.347.635.713 1.051 1.119.062.057.126.12.198.192a2.023 2.023 0 0 1-1.007-.215l-.004.007c.327.2.671.297 1.052.297h.039a.02.02 0 0 1 .015.006c.138.141.294.306.476.504a.012.012 0 0 0 .009.004zm9.018-.912c.316-.319.615-.644.89-.965l-.006-.005c-.325.327-.657.65-1.013.988l-.002.001c-.001 0-.003-.001-.003-.003a2.113 2.113 0 0 1 .022-.716l-.008-.002a1.835 1.835 0 0 0-.094.778.035.035 0 0 1-.012.029c-.27.241-.525.485-.758.726-.002.002-.003.005-.003.009.001.003.002.006.005.007l.092.047a.014.014 0 0 0 .006.002.012.012 0 0 0 .01-.005c.086-.094.181-.196.291-.311a.043.043 0 0 1 .032-.014 1.917 1.917 0 0 0 1.006-.274l-.004-.007a1.951 1.951 0 0 1-.919.181c-.002 0-.003-.002-.003-.002 0-.001-.001-.002.001-.003.157-.158.314-.314.47-.461zm-4.596 6.434c-.271 0-.528.074-.653.258-.001.002-.004.003-.006.001-.082-.053-.351-.216-.664-.216-.169 0-.352.082-.538.187-.002.001-.005.002-.007.001-.493-.073-.966.023-1.429.203.483-.122.939-.2 1.302-.13.002 0 .003.003.001.005-.215.131-.428.274-.618.338.392-.045.904-.491 1.301-.491.265 0 .531.165.601.212.002.002.003.004.002.007a.56.56 0 0 0-.02.214c.129-.358.391-.44.751-.44.276 0 .553.098.876.172a.02.02 0 0 1 .008.004c.197.172.56.343.733.372l.074.012-.07-.027c-.148-.058-.411-.189-.542-.317-.002-.002 0-.004.002-.004.135.023.278.038.432.038.575 0 .834-.103.996-.169-.173.037-.337.089-.915.089-.526-.001-1.188-.319-1.617-.319zm-.123-4.4c.16 0 .282-.121.282-.276v-.924a.289.289 0 0 0-.282-.289l-.182-.001-.182.001a.289.289 0 0 0-.283.289v.924c0 .155.122.276.279.276.03 0 .169-.003.368 0zm-.379-1.128c0-.062.05-.113.112-.113h.169c.062 0 .112.051.112.113v.768c0 .062-.05.112-.112.112h-.169a.113.113 0 0 1-.113-.112v-.768zm-1.64 1.905h-.202l-.281.649-.281-.649H9.23v1.295h.253v-.598l.229.518.229-.518v.598h.254zm.522-.657l-.071-.441.019-.003.108-.018.012-.002.007.01.281.397c.084-.013.169-.025.253-.036l-.277-.394-.014-.02.022-.009a.276.276 0 0 0 .165-.297l-.076-.472a.29.29 0 0 0-.325-.24c-.199.03-.4.064-.598.102l.237 1.47.257-.047zm-.179-1.228l.234-.039a.114.114 0 0 1 .129.094l.051.317a.107.107 0 0 1-.02.083.116.116 0 0 1-.073.045l-.234.038-.019.003-.087-.539.019-.002zm2.113 2.545v-.405a.256.256 0 0 0-.256-.256h-.559v1.295h.254v-.378h.305a.256.256 0 0 0 .256-.256zm-.254-.066a.08.08 0 0 1-.079.079h-.229v-.43h.229a.08.08 0 0 1 .079.079v.272zm-3.167 1.103v1.295h.758v-.243h-.502v-1.052zm6.908-2.92a14.108 14.108 0 0 0-.323-.167.272.272 0 0 0-.126-.03.293.293 0 0 0-.258.157l-.424.821a.275.275 0 0 0 .124.374c.108.054.217.11.324.167a.282.282 0 0 0 .133.033.273.273 0 0 0 .244-.149l.424-.821a.286.286 0 0 0-.118-.385zm-.152.327l-.352.682a.11.11 0 0 1-.151.047l-.15-.077a.111.111 0 0 1-.056-.066.11.11 0 0 1 .007-.085l.352-.682a.113.113 0 0 1 .152-.049l.15.077a.115.115 0 0 1 .048.153zm-6.504.57a.31.31 0 0 0 .095-.016c.114-.04.23-.08.345-.117a.281.281 0 0 0 .165-.141.272.272 0 0 0 .014-.211l-.297-.875a.293.293 0 0 0-.274-.197.282.282 0 0 0-.086.014 13.99 13.99 0 0 0-.345.117.289.289 0 0 0-.175.364l.297.875a.275.275 0 0 0 .261.187zm-.211-1.223l.16-.054a.112.112 0 0 1 .142.071l.247.727a.105.105 0 0 1-.006.085.106.106 0 0 1-.065.056l-.159.054a.112.112 0 0 1-.143-.07l-.247-.727a.114.114 0 0 1 .071-.142zm-.943.396c.097-.049.195-.097.293-.144l-.114-.22c-.285.137-.57.284-.846.438l.114.22c.094-.053.191-.105.287-.156l.017-.009.57 1.102.231-.12-.57-1.102.018-.009zm4.679-1.064l-.248 1.468c.085.012.172.024.258.038l.143-.843.025.073.288.848.203.039.248-1.468-.256-.049-.143.843-.025-.074a167.31 167.31 0 0 0-.288-.846l-.205-.029zm1.204 5.209h.364a.257.257 0 0 0 .258-.256v-.185c0-.096-.037-.184-.124-.228l-.46-.205a.085.085 0 0 1-.043-.07v-.029a.08.08 0 0 1 .08-.079h.21a.08.08 0 0 1 .08.079v.054h.256v-.12a.258.258 0 0 0-.258-.256h-.364a.257.257 0 0 0-.258.256v.133c0 .096.037.184.124.228l.46.205a.087.087 0 0 1 .043.07v.081a.08.08 0 0 1-.08.079h-.21a.08.08 0 0 1-.08-.079v-.055h-.256v.121a.256.256 0 0 0 .258.256zm.623-1.941h-.494v-.282h.336v-.243h-.336v-.283h.494v-.243h-.748v1.295h.748zm-1.218.89v-.244h-.812v1.295h.256v-.525h.396v-.244h-.396v-.282zm.803-2.307l.395-1.176.019.006c.102.035.205.072.307.11l.079-.235c-.297-.11-.6-.212-.903-.304l-.079.235c.103.031.208.064.312.098l.019.006-.395 1.176.246.084zm-2.649 3.115h.399l.062.243h.264l-.35-1.295h-.349l-.35 1.295h.264l.06-.243zm.2-.783l.137.539h-.275l.138-.539zm-.724-.671h.261l-.319-1.295h-.346l-.319 1.295h.261l.055-.243h.352l.055.243zm-.352-.487l.121-.539.121.539h-.242zm2.864.243h-.469v-1.051h-.254v1.295h.723zm-2.622.89v-.244h-.812v1.295h.812v-.243h-.555v-.282h.396v-.244h-.396v-.282z"/><path fill="#FFF" d="M15.371 124.909v.264h-.066v-.264h-.076v-.066h.219v.066h-.077zm.358.263v-.194l-.056.121h-.058l-.056-.121v.194h-.066v-.329h.066l.085.176.085-.176h.066v.329h-.066z"/></svg>