<?xml version="1.0" encoding="UTF-8"?>
<svg width="512px" height="512px" viewBox="0 0 512 512" version="1.1" xmlns="http://www.w3.org/2000/svg" xmlns:xlink="http://www.w3.org/1999/xlink">
    <!-- Generator: Sketch 41.2 (35397) - http://www.bohemiancoding.com/sketch -->
    <title>vancouver-canucks</title>
    <desc>Created with Sketch.</desc>
    <defs></defs>
    <g id="NHL" stroke="none" stroke-width="1" fill="none" fill-rule="evenodd">
        <g id="vancouver-canucks">
            <g id="van" transform="translate(72.000000, 92.000000)">
                <path d="M181.055377,232.309423 L234.721859,205.506848 C271.501288,215.851702 282.377695,229.794765 282.377695,229.794765 L303.394511,206.017958 C304.580285,204.81174 308.035384,200.477532 308.035384,192.667781 C308.035384,184.244699 299.223859,177.722944 293.008769,173.306959 C282.582139,145.809276 224.622338,137.83597 220.32902,128.288447 C218.938802,124.956014 210.454387,96.3747794 210.454387,96.3747794 C205.404626,81.5730526 190.521122,81.5730526 184.919364,81.5730526 C179.276716,81.5730526 167.194091,83.4743794 167.194091,83.4743794 C167.194091,104.082308 164.372768,129.208444 161.449222,133.849317 C161.449222,133.849317 151.002147,139.307965 138.715078,143.72395 L109.41829,123.95424 L117.125819,150.613704 C67.6708782,177.743388 55.6495863,225.113003 55.6495863,225.113003 C55.6495863,225.113003 68.3455426,324.861104 193.444668,324.861104 C259.582218,324.861104 297.73142,292.926992 297.73142,292.926992 L276.407938,245.2916 C276.407938,245.2916 243.860494,262.199098 202.297082,262.199098 C163.96388,262.199098 149.019043,244.330715 143.499062,233.924528 C175.944283,234.864969 181.055377,232.309423 181.055377,232.309423 L181.055377,232.309423 Z" id="Shape" fill="#99999A"></path>
                <path d="M179.092717,227.055219 L234.149416,199.475758 C271.460399,210.045499 282.234584,221.433016 282.234584,221.433016 L299.285192,202.235748 C299.285192,202.235748 302.433626,199.25087 302.433626,192.647337 C302.433626,186.514025 293.213213,180.258046 288.286119,176.762058 C278.125265,149.141709 221.739681,144.091949 215.504147,131.109771 C212.989489,125.876011 209.820611,113.404943 205.118405,98.1943287 C201.336196,87.1952555 190.378011,87.1952555 184.919364,87.1952555 C179.603826,87.1952555 172.754961,88.2788073 172.754961,88.2788073 C172.754961,99.523213 170.64919,132.172878 165.415431,137.815526 C164.14788,139.491964 154.518579,143.355951 144.091949,147.383493 L147.199493,149.489263 L144.010171,152.658141 L138.019969,158.73012 L131.395992,179.317605 L122.788911,174.90162 L125.876011,182.527372 L110.522286,185.082919 L119.211145,188.108686 L94.2076758,207.305953 L100.954319,207.837507 L92.0405721,223.906785 C104.920528,218.059694 108.784515,216.976142 108.784515,216.976142 L105.104527,213.173489 L131.027994,202.685525 C131.027994,202.685525 129.085778,207.919284 129.085778,217.957472 C129.085778,219.388578 129.290222,221.494349 129.801331,224.009007 C132.970209,239.689842 148.283045,272.012397 202.276637,272.012397 C241.325392,272.012397 271.501288,258.335111 271.501288,258.335111 L285.526128,289.635448 C285.526128,289.635448 248.869366,315.02736 193.444668,315.02736 C80.0806133,315.02736 65.7082183,225.889889 65.7082183,225.889889 C81.3277201,184.101589 107.619185,165.803874 124.342683,158.055456 L119.129368,157.544347 L118.659147,155.97013 C74.437966,180.360268 61.3535666,225.501446 61.3535666,225.501446 C61.3535666,225.501446 74.765076,319.27979 193.424223,319.27979 C254.103125,319.27979 290.780333,291.148331 290.780333,291.148331 L273.627503,252.774241 C273.627503,252.774241 241.570724,267.821301 202.276637,267.821301 C143.764839,267.821301 135.116868,227.893438 135.116868,227.893438 C135.116868,227.893438 168.461642,229.896987 179.092717,227.055219 Z M108.396071,74.7037429 L97.9081075,39.784752 L121.644026,70.71709 L129.208444,68.4273201 L111.892059,10.7741851 L103.509866,13.3092875 L113.752497,47.492281 L90.2414672,17.2959405 L82.7179375,19.5857104 L100.013878,77.2184009 L108.396071,74.7037429 Z M136.139087,61.3331223 C136.629752,64.8495546 138.735523,66.5464376 142.170177,66.076217 L160.774558,63.5411147 C164.270546,63.0708941 165.946984,60.8424573 165.456319,57.3260249 L163.514104,42.5856312 L154.539024,43.7918493 L156.29724,56.3651394 L144.746169,57.9393562 L138.653745,13.6159531 L150.204816,12.0417363 L151.840366,23.8381402 L160.713225,22.5910334 L158.811898,8.62752586 C158.321233,5.11109352 156.092796,3.43465485 152.596808,3.90487545 L133.992428,6.46042221 C130.598662,6.91019844 128.983556,9.11819084 129.474221,12.6550676 L136.139087,61.3331223 Z M179.215383,62.4371185 L198.73976,62.7642284 C202.215304,62.8460059 204.177964,60.9242348 204.259741,57.3873581 L205.13885,8.23908276 C205.241071,4.66131729 203.257967,2.67821301 199.782424,2.61687988 L180.258046,2.24888115 C176.823391,2.16710365 174.881176,4.12976357 174.860732,7.64619591 L173.92029,56.7944712 C173.899846,60.3722367 175.719395,62.3348966 179.215383,62.4371185 L179.215383,62.4371185 Z M183.754034,10.0177433 L196.163769,10.222187 L195.345994,54.9953663 L182.956704,54.7500338 L183.754034,10.0177433 L183.754034,10.0177433 Z M217.814361,64.6451109 L236.623186,68.0184326 C240.139618,68.6522082 242.449832,67.057547 243.083608,63.561559 L252.672019,9.75196644 L243.819605,8.17774963 L234.599193,59.8202386 L222.659678,57.714468 L231.859646,6.05153473 L223.048121,4.45687355 L213.45971,58.2664661 C212.785045,61.7624541 214.338818,64.0113353 217.814361,64.6451109 L217.814361,64.6451109 Z M289.206116,77.4024003 L297.281644,60.3109035 L309.527824,66.1171058 L312.860257,59.1046855 L300.593632,53.2780389 L308.137606,37.4132046 L322.407779,44.159848 L325.801545,36.9838727 L303.4354,26.3732426 L277.6346,80.7143889 L300.225633,91.4272409 L303.598955,84.2512656 L289.206116,77.4024003 Z M358.81921,57.2238031 L338.8655,44.0576262 L305.704726,94.2894533 L313.166922,99.2574362 L328.029982,76.7686247 L330.462863,78.3428415 L323.552664,106.106301 L331.423748,111.258284 L331.607748,111.012951 L338.109059,83.0654919 L340.746383,84.762375 C343.649484,86.5819242 346.245919,86.0503705 348.188135,83.1063807 L360.291204,64.7882215 C362.23342,61.864676 361.742755,59.186463 358.81921,57.2238031 L358.81921,57.2238031 Z M341.114382,77.606844 L331.628192,71.3508656 L342.1366,55.4860313 L351.602346,61.701121 L341.114382,77.606844 L341.114382,77.606844 Z M293.438101,22.3048121 L293.499434,22.1412571 L284.97413,19.3608223 L265.143088,57.878023 L271.685287,15.0675037 L263.057761,12.2870688 L263.037317,12.4097351 L255.411565,73.0477486 L263.998203,75.8281835 L293.438101,22.3048121 Z M69.1837619,78.7926177 L79.3241714,73.8859679 L85.8663712,83.3312688 L93.9010102,79.4877264 L93.9010102,79.4468377 L57.3873581,30.2167849 L48.8824984,34.3261041 L64.4202227,93.5534558 L64.4406671,93.6352333 L72.4753061,89.7508022 L69.1837619,78.7926177 L69.1837619,78.7926177 Z M59.1046855,44.8958455 L74.8672979,67.4664345 L66.893992,71.2895324 L59.1046855,44.8958455 L59.1046855,44.8958455 Z M33.4265516,42.1767437 L25.8825776,47.0425048 L43.1785181,86.7454792 L14.1475069,54.5864788 L6.54219971,59.513573 L6.64442158,59.6362392 L48.8620541,103.85742 L56.4264725,98.9712149 L33.5083291,42.29941 L33.4265516,42.1767437 Z" id="Shape" fill="#001F5B"></path>
                <g id="Group" transform="translate(81.777496, 81.777496)" fill="#071C2C">
                    <path d="M203.033079,97.6423306 C193.608223,70.6353125 141.924845,68.7339857 130.251107,51.7447108 C127.041341,47.0425048 121.684915,16.7848311 116.308044,12.6346232 C110.39962,8.07552776 95.2298945,10.1608539 95.2298945,10.1608539 C95.2298945,14.3519506 94.2076758,51.4584896 86.4797024,59.1046855 C81.3481645,63.5002259 72.6184167,65.4015527 62.2122303,70.8602006 L56.2424731,76.9526241 L49.6184959,97.5401088 L41.0114144,93.124124 L44.0985149,100.749875 L28.74479,103.305422 L37.4336489,106.33119 L12.4301794,125.528457 L19.1768229,126.060011 L10.2630758,142.129289 C23.1430315,136.282198 27.0070182,135.198646 27.0070182,135.198646 L23.3270308,131.395992 L49.2504972,120.908028 C49.2504972,120.908028 47.3082816,126.141788 47.3082816,136.179976 C47.3082816,137.611082 47.5127254,139.716852 48.0238347,142.231511 C49.0869422,141.147959 71.4530874,118.884035 94.9232289,114.079607 L58.6753536,142.149733 C58.6753536,142.149733 88.5036954,143.417284 95.8636701,141.311514 C118.90448,130.598662 137.447527,120.519585 151.942588,113.282277 C185.594028,122.216468 199.986867,133.869762 199.986867,133.869762 L203.564633,129.883109 C201.86775,128.615557 189.498903,120.090253 165.170098,112.055614 C172.407407,109.193402 181.178043,105.840525 183.508702,105.840525 C188.885572,105.840525 199.90509,112.852945 211.803716,120.560474 L214.461484,117.555151 C214.461484,117.555151 215.09526,117.003153 215.647258,115.837824 C216.265925,114.652015 216.58196,113.331695 216.567255,111.994281 C216.567255,106.372078 209.248169,102.671647 203.033079,97.6423306 L203.033079,97.6423306 Z M224.765449,199.537091 C221.558889,199.559752 218.977815,202.177524 219.000422,205.384084 C219.02303,208.590644 221.64076,211.171762 224.84732,211.149207 C228.05388,211.126652 230.635042,208.508965 230.61254,205.302405 C230.601733,203.762492 229.979622,202.289947 228.883072,201.208733 C227.786521,200.127519 226.305361,199.526208 224.765449,199.537091 L224.765449,199.537091 Z M224.765449,209.902389 C222.271235,209.902389 220.226798,207.817063 220.226798,205.302405 C220.226798,202.787747 222.271235,200.784198 224.765449,200.784198 C227.300551,200.784198 229.385877,202.787747 229.385877,205.302405 C229.385877,207.817063 227.300551,209.902389 224.765449,209.902389 Z" id="Shape"></path>
                    <path d="M227.177885,203.993965 C227.177885,202.910017 226.299172,202.031305 225.215225,202.031305 L222.43479,202.031305 L222.43479,208.634838 L223.702341,208.634838 L223.702341,205.915736 L224.561005,205.915736 L225.828556,208.634838 L227.198329,208.634838 L225.910334,205.833958 C226.678661,205.549385 227.185769,204.813261 227.177885,203.993965 L227.177885,203.993965 Z M225.235669,204.709518 L223.702341,204.709518 L223.702341,203.278412 L225.235669,203.278412 C225.624112,203.278412 225.951222,203.605522 225.951222,203.993965 C225.951222,204.341519 225.603668,204.709518 225.235669,204.709518 Z" id="Shape"></path>
                </g>
                <path d="M154.416357,175.392285 L140.432406,183.202036 L168.318532,186.984245 L154.416357,175.392285 L154.416357,175.392285 Z M136.343531,197.369987 L138.735523,179.992269 L106.351634,201.86775 L136.343531,197.369987 L136.343531,197.369987 Z M163.657215,149.366597 L140.227962,162.410108 L146.320385,177.027835 L163.657215,149.366597 L163.657215,149.366597 Z" id="Shape" fill="#99999A"></path>
                <g id="Group" transform="translate(61.333122, 122.666245)" fill="#001F5B">
                    <path d="M52.8895958,76.1757378 L72.8024161,73.0273042 L74.8672979,61.2513448 L52.8895958,76.1757378 Z M102.07876,62.0077866 L91.3863522,55.7722525 L83.8219337,59.7997942 L102.07876,62.0077866 Z M84.4557093,49.5980515 L97.2538875,32.1998892 L82.4112719,40.5820826 L84.4557093,49.5980515 Z" id="Shape"></path>
                    <path d="M140.963959,153.946137 C78.8335065,153.946137 63.1935603,111.340061 63.1935603,95.3321164 C63.1935603,91.7339065 63.4593372,88.7899166 63.725114,86.3365918 L49.4344965,91.0387978 L51.2744902,95.0867839 L40.1323063,99.1552143 L30.5234505,105.472526 L50.0478278,109.070736 L45.9998417,123.013799 L54.3615907,120.580918 L62.4166741,141.004848 L72.0459743,139.778186 L75.2352966,154.089247 C75.2352966,154.089247 93.3694564,166.642093 123.995129,169.402084 C164.536323,173.000294 200.784198,159.200341 200.784198,159.200341 C200.784198,159.200341 157.523902,176.128283 118.229815,171.95763 C88.2174742,168.788752 68.6113194,156.563017 68.6113194,156.563017 L68.3659869,143.601284 L56.50825,143.785283 L50.9473802,123.933796 L40.4185276,128.86089 L45.0594005,111.115173 L24.8399145,108.62096 L28.9492337,96.2725576 L33.774106,86.5614799 L27.2932394,86.7454792 L54.3820351,66.6077708 L42.6060756,61.9668979 L61.8237872,58.205133 L55.1180325,44.7118461 L66.9757695,51.4993783 L71.6575312,36.779429 C57.4486912,41.7269675 26.8025744,57.4691356 9.09774647,103.693865 C11.2239614,114.304496 29.7465643,187.822465 132.091101,187.822465 C176.21006,187.822465 208.450838,171.098967 218.407248,165.251876 L207.755729,141.597735 C186.404409,149.657087 163.785452,153.838859 140.963959,153.946137 L140.963959,153.946137 Z M52.7055964,8.34130463 L60.883346,32.3838885 L75.3784072,35.9412096 L81.2050539,28.0292369 L52.7055964,8.34130463 Z" id="Shape"></path>
                </g>
                <g id="Group" transform="translate(122.666245, 102.221870)" fill="#FFFFFF">
                    <path d="M71.5553093,30.4825618 C69.4290944,27.8247931 66.893992,0.89955246 66.893992,0.89955246 C66.893992,0.89955246 66.4646601,28.3359025 64.8291102,30.7892274 C63.2548934,33.2425523 55.3838094,37.7812033 55.3838094,37.7812033 C55.3838094,37.7812033 64.1748903,34.9189909 68.4477644,34.6532141 C71.596198,34.5101035 81.593497,36.5545409 81.593497,36.5545409 C81.593497,36.5545409 73.6610798,33.2016635 71.5553093,30.4825618 Z M72.3321955,79.5490596 C28.6016793,82.1250507 8.21863838,119.722255 7.13508656,121.828025 C8.19819401,120.744473 30.5643393,98.48055 54.0344807,93.6761221 L72.3321955,79.5490596 L72.3321955,79.5490596 Z M162.144331,77.1979565 C137.611082,74.4584104 130.946216,68.5704307 130.946216,64.8086658 C130.946216,63.3366709 132.213767,62.9277834 133.379097,62.9277834 C138.939966,62.9277834 146.279497,66.9348808 150.470593,71.4121987 C147.97638,65.0131096 133.317763,57.4486912 123.729352,57.4486912 C121.930247,57.4486912 119.292923,57.9802449 119.292923,60.9037904 C119.292923,66.9144364 128.411114,74.5606323 151.738144,76.4824035 C164.270546,79.4263933 177.273168,86.4183693 174.75851,95.4138939 C175.377177,94.2280855 175.693211,92.907765 175.678507,91.5703515 C175.678507,85.9277043 168.359421,82.2272726 162.144331,77.1979565 L162.144331,77.1979565 Z M129.699109,91.488574 L138.8173,94.7187851 C140.099075,94.2288255 141.325688,93.6052405 142.476843,92.8583471 C142.599509,92.6130146 142.599509,92.4290152 142.170177,92.0814609 C139.920316,91.1000858 137.635884,90.1999515 135.321312,89.3828035 L129.699109,91.488574 L129.699109,91.488574 Z M137.365749,88.6263617 C139.778186,89.5872472 143.151507,90.9365759 143.437729,90.9570203 C143.889688,91.0489902 144.355542,91.0489902 144.807502,90.9570203 C145.114167,90.9161316 147.076827,89.8734685 148.589711,89.1170266 C147.13816,88.4423623 144.296392,87.1339223 142.41551,87.1339223 C140.595961,87.1543667 137.365749,88.6263617 137.365749,88.6263617 L137.365749,88.6263617 Z M146.361274,91.7543509 C146.299941,91.9179059 146.361274,92.0814609 146.688384,92.306349 C147.035938,92.5312371 151.738144,95.0050064 152.085699,95.0458951 C152.494586,95.0663395 152.801252,95.0663395 153.210139,95.0050064 C153.435028,94.9232289 155.111466,93.8805658 156.195018,93.124124 L149.898151,89.7099135 C148.262601,90.5685772 146.504385,91.5294628 146.361274,91.7543509 L146.361274,91.7543509 Z M150.818148,96.7223338 C150.981703,96.5178901 151.043036,96.3134463 150.920369,96.1090026 C149.17314,95.0163966 147.340869,94.0660772 145.441277,93.2672346 C144.909724,93.1650127 144.603058,93.1650127 144.173726,93.4512339 C142.931374,94.0827304 141.704358,94.7439556 140.493739,95.4343382 L147.833269,98.7667712 C149.223486,97.8876631 150.715926,96.9267775 150.818148,96.7223338 L150.818148,96.7223338 Z M159.813672,99.3187693 C160.209154,99.2913763 160.596712,99.1944868 160.958557,99.0325481 C161.697041,98.5585786 162.400752,98.032503 163.064328,97.4583313 L157.42168,93.839677 C156.072352,94.7187851 154.600357,95.6796707 154.477691,95.8841145 C154.477691,95.965892 154.518579,96.0476694 154.804801,96.4974457 L159.813672,99.3187693 L159.813672,99.3187693 Z M162.144331,99.8912118 C162.00122,100.218322 161.939887,100.361432 162.042109,100.422766 C162.18522,100.627209 165.149654,102.589869 167.173647,103.877865 L169.402084,101.649428 L164.229657,98.2352175 C163.49654,98.7375842 162.799708,99.2909509 162.144331,99.8912118 L162.144331,99.8912118 Z M158.91412,100.852097 C158.995897,100.688542 158.955009,100.422766 158.750565,100.218322 C157.08395,99.2189437 155.371572,98.2979436 153.619027,97.4583313 C153.138526,97.4084359 152.652922,97.4500591 152.187921,97.5809975 C151.227323,98.1462031 150.305299,98.774545 149.42793,99.4618799 L156.358573,102.630758 C157.523902,101.874316 158.791454,101.015652 158.91412,100.852097 L158.91412,100.852097 Z M160.120338,101.772094 C159.936338,101.853872 158.668787,102.814757 157.667013,103.571199 L163.922991,107.45563 L166.233206,104.879639 C164.649041,103.757198 163.033283,102.680025 161.387889,101.649428 C161.163001,101.547206 160.447448,101.649428 160.120338,101.772094 Z" id="Shape"></path>
                    <path d="M111.05384,92.8379027 C144.70528,101.772094 159.098119,113.425387 159.098119,113.425387 L162.675885,109.438734 C160.979002,108.171183 148.610155,99.6458793 124.28135,91.6112403 C131.518658,88.7490279 140.289295,85.3961506 142.619954,85.3961506 C147.996824,85.3961506 159.016342,92.4085709 170.914967,100.1161 L173.572736,97.1107769 C163.186994,89.9348016 151.06348,81.4708307 142.292844,81.4708307 C135.157757,81.4708307 124.93557,85.8868155 111.05384,92.8379027 L111.05384,92.8379027 Z" id="Shape"></path>
                </g>
            </g>
        </g>
    </g>
</svg>