<svg xmlns="http://www.w3.org/2000/svg" viewBox="0 0 24 16"><path fill="#8E9090" d="M20 8c0 4.419-3.58 8-7.999 8A8 8 0 1 1 20 8"/><path fill="#041E41" d="M19.463 8A7.462 7.462 0 1 1 4.538 8a7.462 7.462 0 1 1 14.925 0"/><path fill="#FFF" d="M12.723 2.546L12 .727l-.765 1.819a5.513 5.513 0 0 0-4.77 5.462c0 3.045 2.491 5.514 5.536 5.514 3.044 0 5.492-2.469 5.492-5.514a5.515 5.515 0 0 0-4.77-5.462"/><path fill="none" d="M11.541 11.006l-.001.001.056.126zM8.632 6.972l.004.541.001.005v-.005zM11.287 5.8l-.112 1.277-2.085.995 2.085-.995.113-1.277.074-.348zm4.082 1.157l-.445 1.115.445-1.112zM14.4 9.315v-.001l-1.39.094z"/><path fill="#7B303E" d="M12.573 5.091L12 5.344l-.559-.26-1.05-.688.423 2.504-1.118-1.116-.031.88-1.635-.617.595 1.654-.881.005.893.778v.952l.332-.165.619.041.599.523-.353.439.589.096m-.308.726v.833l1.316-.649.1-.25.47 2.279.475-2.298.107.269 1.316.649v-.833l-.49-.705.007.01.773-.125-.352-.439.6-.523.609-.041.331.165v-.946l.901-.786-.881-.005.596-1.654-1.637.617-.03-.88L13.209 6.9l.423-2.504-1.059.695m-1.032 5.915l.055.127-.055-.127zM14.4 9.314"/><path d="M11.068 9.412l-1.36-.091.575.502c-.009.025-.312.399-.312.399l.673.109.424-.609v-.31zm.356-4.251l-.931-.611.002.011.741 1.81.05-.571.138-.639zm-.61 1.842l-.003-.002-1.046-1.044-.031.811-1.565-.589 1.528 1.602 1.284-.613zm.848 4.28L12.001 13 12 12.057zM7.941 7.779l.694.606v-.61zm5.582-3.223l-.934.616.104.482zm2.343 1.622l-1.562.591-.457.79.312.148z" fill="#AC162C"/><path fill="#55565A" d="M15.37 6.957l-.446 1.115-2.084-.995-.113-1.277-.726-3.319-.713 3.319-.113 1.277-2.085.995-.458-1.1.005.541v1.924l.331-.166 2.102.141v.311l-.955 1.373v.833l1.317-.65.109-.273.459 1.051.474-1.051.109.273 1.316.65v-.833l-.954-1.373v-.311l2.102-.141.331.166V7.513z"/><path fill="#8E9090" d="M11.43 5.82l-.118 1.352h-.001l-.065.766-.137-.67-2.094 1-.234-.565v1.501l.157-.079 2.276.152v.491l-.955 1.373v.556l1.059-.522.164-.413-.091-.456.154.358.455 1.034V3.063z"/><g fill="#041E41"><path d="M18.147 14.559a.411.411 0 1 0 .003-.823.411.411 0 0 0-.003.823zm0-.734a.322.322 0 1 1 .004.644.322.322 0 0 1-.004-.644z"/><path d="M18.067 14.192h.063l.089.19h.099l-.094-.199a.14.14 0 0 0-.046-.271h-.199v.47h.089l-.001-.19zm0-.191h.111c.027 0 .05.023.05.051a.05.05 0 0 1-.05.052h-.111v-.103z"/></g></svg>