<?xml version="1.0" encoding="UTF-8"?>
<svg width="512px" height="512px" viewBox="0 0 512 512" version="1.1" xmlns="http://www.w3.org/2000/svg" xmlns:xlink="http://www.w3.org/1999/xlink">
    <!-- Generator: Sketch 41.2 (35397) - http://www.bohemiancoding.com/sketch -->
    <title>winnipeg-jets</title>
    <desc>Created with Sketch.</desc>
    <defs></defs>
    <g id="NHL" stroke="none" stroke-width="1" fill="none" fill-rule="evenodd">
        <g id="winnipeg-jets">
            <g id="wpg" transform="translate(68.000000, 68.000000)">
                <path d="M377,188.5 C377,292.622687 292.64625,377 188.523563,377 C112.280286,377.00953 43.5391145,331.089023 14.3554718,260.652155 C-14.828171,190.215288 1.29327235,109.134213 55.2020409,55.2187046 C109.110809,1.30319663 190.189868,-14.8283824 260.630384,14.346455 C331.070899,43.5212924 376.999999,112.256723 377,188.5" id="Shape" fill="#8E9090"></path>
                <path d="M364.346938,188.5 C364.346938,285.611075 285.622857,364.335156 188.511781,364.335156 C91.400706,364.335156 12.676625,285.611075 12.676625,188.5 C12.676625,91.3889247 91.400706,12.6648438 188.511781,12.6648438 C285.622857,12.6648438 364.346938,91.3889247 364.346938,188.5" id="Shape" fill="#041E41"></path>
                <path d="M205.535687,59.990125 L188.5,17.1299375 L170.474687,59.990125 C106.097524,68.7462724 58.0898429,123.71859 58.0815625,188.6885 C58.0815625,260.436312 116.77575,318.612125 188.523563,318.612125 C260.247813,318.612125 317.928813,260.436312 317.928813,188.6885 C317.899968,123.726309 269.902433,68.7656103 205.535687,59.990125" id="Shape" fill="#FFFFFF"></path>
                <path d="M177.684813,259.328875 L177.66125,259.352438 L178.98075,262.321312 L177.684813,259.328875 Z M109.1415,164.27775 L109.23575,177.025063 L109.259312,177.142875 L109.259312,177.025063 L109.1415,164.27775 Z M171.699938,136.6625 L169.060938,166.751812 L119.933125,190.1965 L169.060938,166.751812 L171.7235,136.6625 L173.467125,128.46275 L171.699938,136.6625 Z M267.882063,163.924312 L257.39675,190.1965 L267.882063,163.995 L267.882063,163.924312 Z M245.05,219.484688 L245.05,219.461125 L212.298125,221.676 L245.05,219.484688 Z" id="Shape"></path>
                <path d="M202.001312,119.956688 L188.5,125.918 L175.328563,119.79175 L150.587937,103.58075 L160.554875,162.58125 L134.212,136.2855 L133.481562,157.0205 L94.956875,142.482438 L108.976562,181.454813 L88.218,181.572625 L109.259313,199.90425 L109.259313,222.33575 L117.082063,218.447938 L131.66725,219.414 L145.781188,231.737188 L137.463625,242.081125 L151.341938,244.343125 L202.001312,119.956688 Z M144.084688,261.4495 L144.084688,281.077063 L175.092938,265.785 L177.449188,259.894375 L188.523563,313.593313 L199.71575,259.446688 L202.236938,265.785 L233.245188,281.077063 L233.245188,261.4495 L221.699563,244.837938 L221.8645,245.073563 L240.078313,242.12825 L231.784313,231.784313 L245.921813,219.461125 L260.271375,218.495063 L268.070562,222.382875 L268.070562,200.09275 L289.300375,181.572625 L268.541812,181.454813 L282.585063,142.482438 L244.01325,157.0205 L243.306375,136.2855 L216.987062,162.58125 L226.954,103.58075 L202.001312,119.956688 L144.084688,261.4495 Z M177.684812,259.328875 L178.98075,262.321313 L177.684812,259.328875 Z" id="Shape" fill="#7B303E"></path>
                <path d="M166.53975,221.77025 L134.49475,219.626063 L148.043187,231.454438 C147.831125,232.0435 140.691687,240.855875 140.691687,240.855875 L156.54925,243.424188 L166.53975,229.074625 L166.53975,221.77025 Z M174.928,121.606063 L152.991312,107.209375 L153.038438,107.468563 L170.49825,150.116688 L171.676375,136.6625 L174.928,121.606063 Z M160.554875,165.008188 L160.484188,164.961063 L135.837813,140.361813 L135.107375,159.471 L98.2320625,145.592688 L134.235563,183.339813 L164.489813,168.896 L160.554875,165.008188 Z M180.535875,265.855688 L188.523562,306.3125 L188.5,284.093063 L180.535875,265.855688 Z M92.8598125,183.292687 L109.212187,197.571562 L109.212187,183.198438 L92.8598125,183.292687 Z M224.385687,107.35075 L202.378312,121.86525 L204.828812,133.222375 L224.385687,107.35075 Z M279.592625,145.569125 L242.788,159.494563 L232.019937,178.108937 L239.371437,181.596187 L279.592625,145.569125 Z" id="Shape" fill="#AC162C"></path>
                <polygon id="Shape" fill="#55565A" points="267.905625 163.924312 257.39675 190.1965 208.2925 166.751812 205.629938 136.6625 188.523563 58.4585625 171.7235 136.6625 169.060938 166.751812 119.933125 190.1965 109.1415 164.27775 109.259313 177.025062 109.259313 222.359312 117.0585 218.447937 166.586875 221.77025 166.586875 229.098187 144.084688 261.4495 144.084688 281.077063 175.1165 265.761437 177.684813 259.328875 188.5 284.093062 199.668625 259.328875 202.236938 265.761437 233.245188 281.077063 233.245188 261.4495 210.766563 229.098187 210.766563 221.77025 260.294938 218.447937 268.094125 222.359312 268.094125 177.025062"></polygon>
                <polygon id="Shape" fill="#8E9090" points="175.069375 137.13375 172.289 168.99025 172.265437 168.99025 170.733875 187.039125 167.505812 171.25225 118.165938 194.81475 112.652313 181.501937 112.652313 216.86925 116.351625 215.007812 169.979875 218.589312 169.979875 230.1585 147.477688 262.509812 147.477688 275.610562 172.430375 263.310937 176.294625 253.579625 174.150438 242.835125 177.779063 251.2705 188.5 275.634125 188.5 72.1719375"></polygon>
                <g id="Group" transform="translate(306.312500, 306.312500)" fill="#041E41">
                    <path d="M27.0261875,36.7339375 C32.3811232,36.7534573 36.7379802,32.4282482 36.7575,27.0733125 C36.7770198,21.7183768 32.4518107,17.3615198 27.096875,17.342 C21.7419393,17.3224802 17.3850823,21.6476893 17.3655625,27.002625 C17.3460427,32.3575607 21.6712518,36.7144177 27.0261875,36.7339375 L27.0261875,36.7339375 Z M27.0261875,19.4390625 C31.2164409,19.4130361 34.6344111,22.7888091 34.6604375,26.9790625 C34.6864639,31.1693159 31.3106909,34.5872861 27.1204375,34.6133125 C22.9301841,34.6393389 19.5122139,31.2635659 19.4861875,27.0733125 C19.4601611,22.8830591 22.8359341,19.4650889 27.0261875,19.4390625 Z" id="Shape"></path>
                    <path d="M25.1411875,28.0865 L26.625625,28.0865 L28.7226875,32.563375 L31.055375,32.563375 L28.8405,27.8744375 C30.3190311,27.3183581 31.1958284,25.7921719 30.931478,24.2348032 C30.6671276,22.6774345 29.3358354,21.5260532 27.756625,21.489 L23.0676875,21.489 L23.0676875,32.563375 L25.16475,32.563375 L25.1411875,28.0865 L25.1411875,28.0865 Z M25.1411875,23.5860625 L27.756625,23.5860625 C28.3928125,23.5860625 28.93475,24.128 28.93475,24.78775 C28.947582,25.1082905 28.8291467,25.4202028 28.6067993,25.6514441 C28.384452,25.8826853 28.0774221,26.0132567 27.756625,26.013 L25.1411875,26.013 L25.1411875,23.5860625 Z" id="Shape"></path>
                </g>
            </g>
        </g>
    </g>
</svg>