<svg xmlns="http://www.w3.org/2000/svg" viewBox="0 0 24 16"><g fill="#FFF"><path d="M12.452,10.594c-0.271,0.652-0.233,1.492,0.043,1.936c0.001,0,1.579,2.529,1.579,2.529l1.222-1.773h2.001 l1.092-1.344h-2.533l-0.764,0.941l-1.522-1.266c-0.033-0.031-0.073-0.197-0.01-0.35l0.692-1.672c0,0,0.146,0.713,1.071,0.713 h5.498c0.261,0,1.056,0,1.361-0.74c0.279-0.674-0.137-1.043-0.137-1.043h0.438l0.499-1.205h-2.688 c-0.339,0-0.654,0.086-0.901,0.234l1.269-3.064h-1.387l-1.393,3.365c0,0-0.249-0.535-1.063-0.535h-1.626l2.642-6.379h-1.387 L13.808,7.32h-3.391c-0.884,0-1.702,0.372-2.277,0.997c0,0-0.007-0.997-1.191-0.997H3.932c-1.207,0-2.45,0.72-2.83,1.639 c-0.269,0.648,0.109,1.35,0.969,1.35h1.176c0.489,0,1.009-0.326,1.233-0.484c0,0,0.25,0.484,0.974,0.484h1.655L6.544,11.67h1.387 l0.563-1.361h4.076L12.452,10.594z"/><path d="M6.77 5.588L7.25 5.239 7.729 5.588 7.546 5.024 8.026 4.676 7.434 4.676 7.25 4.111 7.066 4.676 6.474 4.676 6.954 5.024zM9.879 5.588L10.358 5.239 10.839 5.588 10.655 5.024 11.135 4.676 10.542 4.676 10.358 4.111 10.176 4.676 9.582 4.676 10.062 5.024zM12.988 5.588L13.468 5.239 13.947 5.588 13.765 5.024 14.244 4.676 13.651 4.676 13.468 4.111 13.284 4.676 12.691 4.676 13.171 5.024zM5.589 6.334L5.591 6.334 5.555 6.894 5.748 6.894 6.287 6.192 6.13 6.192 5.721 6.74 5.719 6.74 5.757 6.192 5.559 6.192 5.149 6.74 5.146 6.74 5.188 6.192 5.019 6.192 4.979 6.894 5.169 6.894zM5.99 6.894h.169l.139-.157h.404l.016.157h.187L6.836 6.192H6.638L5.99 6.894zM6.693 6.621H6.402l.272-.305L6.693 6.621zM7.857 6.401C7.911 6.26 7.836 6.174 7.631 6.174c-.163 0-.341.064-.409.227C7.105 6.683 7.668 6.544 7.603 6.701 7.582 6.752 7.511 6.808 7.381 6.808c-.125 0-.165-.051-.139-.134H7.084c-.062.15.028.238.232.238.238 0 .398-.086.458-.23.128-.309-.453-.127-.377-.309C7.423 6.31 7.508 6.277 7.573 6.277c.109 0 .158.033.126.124H7.857zM8.006 6.894L8.131 6.593 8.513 6.593 8.388 6.894 8.545 6.894 8.836 6.192 8.679 6.192 8.56 6.478 8.178 6.478 8.296 6.192 8.139 6.192 7.849 6.894zM8.916 6.894L9.207 6.192 9.05 6.192 8.759 6.894zM9.273 6.894L9.501 6.346 9.503 6.346 9.684 6.894 9.895 6.894 10.186 6.192 10.043 6.192 9.82 6.73 9.818 6.73 9.645 6.192 9.423 6.192 9.132 6.894zM11.062 6.418c.068-.164-.057-.244-.269-.244-.276 0-.49.157-.577.367-.105.254.024.371.286.371.102 0 .264-.02.381-.062l.136-.327h-.378l-.045.108h.224l-.055.134c-.088.024-.145.032-.206.032-.216 0-.233-.127-.179-.257.075-.183.243-.258.392-.258.077 0 .163.038.127.136H11.062zM11.255 6.894L11.413 6.894 11.655 6.307 11.923 6.307 11.971 6.192 11.278 6.192 11.231 6.307 11.498 6.307zM12.172 6.912c.259 0 .46-.123.562-.37.103-.245.003-.368-.256-.368s-.46.123-.562.368C11.813 6.789 11.913 6.912 12.172 6.912zM12.079 6.542c.068-.165.199-.254.352-.254.151 0 .208.089.14.254-.068.166-.198.255-.352.255C12.067 6.797 12.011 6.708 12.079 6.542zM13.449 6.73L13.275 6.192 13.054 6.192 12.764 6.894 12.905 6.894 13.133 6.346 13.134 6.346 13.314 6.894 13.526 6.894 13.816 6.192 13.675 6.192 13.451 6.73zM22.264 10.192c0 .121.099.22.22.22s.22-.099.22-.22c0-.122-.099-.22-.22-.22S22.264 10.07 22.264 10.192zM22.655 10.192c0 .096-.077.172-.172.172-.096 0-.173-.076-.173-.172s.077-.173.173-.173C22.578 10.02 22.655 10.097 22.655 10.192z"/><path d="M22.394,10.317h0.047v-0.102h0.033l0.048,0.102h0.052l-0.049-0.106c0.028-0.01,0.049-0.037,0.049-0.069 c0-0.041-0.033-0.074-0.074-0.074h-0.105V10.317z M22.44,10.114h0.059c0.016,0,0.027,0.012,0.027,0.027 c0,0.015-0.012,0.027-0.027,0.027H22.44V10.114z"/></g><path fill="#cf0a2c" d="M17.687 12.277L16.015 12.277 15.466 12.951 17.138 12.951z"/><g fill="#041e41"><path d="M3.736 8.191h.877l.222-.537H3.932c-1.065 0-2.194.642-2.521 1.432C1.212 9.564 1.503 9.973 2.07 9.973h1.176c.511 0 1.133-.49 1.133-.49L3.83 9.25c0 0-.25.188-.52.188H2.184c-.141 0-.2-.137-.125-.316C2.271 8.607 3.022 8.191 3.736 8.191zM7.192 9.973l.542-1.309c.231-.558-.121-1.01-.786-1.01H5.227L5.004 8.191h1.865c.398 0 .277.293.277.293H5.803c-.534 0-.928.245-1.053.549-.215.52.1.939.703.939h.681c.245 0 .454-.141.454-.141L6.529 9.973H7.192zM14.874 7.654l-.223.537h2.089c.398 0 .276.293.276.293h-1.343c-.534 0-.928.245-1.054.549-.215.52.1.939.703.939h.681c.245 0 .455-.141.455-.141L16.4 9.973h.662l.543-1.309c.23-.558-.121-1.01-.785-1.01H14.874zM18.03 9.973L20.163 4.825 19.5 4.825 17.368 9.973zM12.996 7.654L12.334 7.654 12.111 8.191 12.773 8.191zM12.035 9.973L12.652 8.484 11.99 8.484 11.373 9.973zM19.243 8.188c-.205.494.061.895.594.895h1.345c.099 0 .145.08.104.178-.041.098-.153.178-.251.178h-2.46l-.223.535h2.469c.459 0 .875-.104 1.053-.533.204-.493-.062-.894-.594-.894h-1.346c-.098 0-.145-.08-.104-.178.04-.098.153-.177.251-.177h2.179l.223-.537h-2.188C19.837 7.654 19.382 7.852 19.243 8.188zM11.273 9.371l.711-1.717h-1.567c-1.229 0-2.166.766-2.557 1.711l-.815 1.969h.663l.77-1.857c.294-.71.941-1.285 1.966-1.285H11.1l-.416 1.004c-.055.133-.208.242-.341.242H8.812L8.589 9.973h1.833C10.753 9.973 11.087 9.822 11.273 9.371z"/><path d="M12.761,10.721c-0.219,0.531-0.211,1.264,0.019,1.633l1.309,2.096l0.861-1.25l-1.593-1.324 c-0.168-0.139-0.216-0.471-0.105-0.734l4.085-9.865h-0.663l-2.642,6.379h-0.785l-0.223,0.537h0.786L12.761,10.721z"/></g><g fill="#FFF"><path d="M15.496 9.021c-.115 0-.246.092-.294.207s.007.209.122.209h1.011c.146 0 .331-.105.385-.234l.108-.263c0 0-.189.081-.401.081H15.496zM5.625 9.021c-.115 0-.247.092-.294.207s.007.209.122.209h1.011c.146 0 .331-.105.385-.234L6.958 8.94c0 0-.19.081-.402.081H5.625z"/></g></svg>
