<svg xmlns="http://www.w3.org/2000/svg" viewBox="0 0 24 16"><g fill="#FFF"><path d="M12.452 10.594c-.271.652-.233 1.492.043 1.936l1.579 2.529 1.222-1.773h2.001l1.092-1.344h-2.533l-.764.941-1.522-1.266c-.033-.031-.073-.197-.01-.35l.692-1.672s.146.713 1.071.713h5.498c.261 0 1.056 0 1.361-.74.279-.674-.137-1.043-.137-1.043h.438l.499-1.205h-2.688c-.339 0-.654.086-.901.234l1.269-3.064h-1.387l-1.393 3.365s-.249-.535-1.063-.535h-1.626L17.835.941h-1.387l-2.64 6.379h-3.391c-.884 0-1.702.372-2.277.997 0 0-.007-.997-1.191-.997H3.932c-1.207 0-2.45.72-2.83 1.639-.269.648.109 1.35.969 1.35h1.176c.489 0 1.009-.326 1.233-.484 0 0 .25.484.974.484h1.655l-.565 1.361h1.387l.563-1.361h4.076l-.118.285z"/><path d="M6.77 5.588l.48-.349.479.349-.183-.564.48-.348h-.592l-.184-.565-.184.565h-.592l.48.348zm3.109 0l.479-.349.481.349-.184-.564.48-.348h-.593l-.184-.565-.182.565h-.594l.48.348zm3.109 0l.48-.349.479.349-.182-.564.479-.348h-.593l-.183-.565-.184.565h-.593l.48.348zm-7.399.746h.002l-.036.56h.193l.539-.702H6.13l-.409.548h-.002l.038-.548h-.198l-.41.548h-.003l.042-.548h-.169l-.04.702h.19zm.401.56h.169l.139-.157h.404l.016.157h.187l-.069-.702h-.198l-.648.702zm.703-.273h-.291l.272-.305.019.305zm1.164-.22c.054-.141-.021-.227-.226-.227-.163 0-.341.064-.409.227-.117.282.446.143.381.3-.021.051-.092.107-.222.107-.125 0-.165-.051-.139-.134h-.158c-.062.15.028.238.232.238.238 0 .398-.086.458-.23.128-.309-.453-.127-.377-.309.026-.063.111-.096.176-.096.109 0 .158.033.126.124h.158zm.149.493l.125-.301h.382l-.125.301h.157l.291-.702h-.157l-.119.286h-.382l.118-.286h-.157l-.29.702zm.91 0l.291-.702H9.05l-.291.702zm.357 0l.228-.548h.002l.181.548h.211l.291-.702h-.143l-.223.538h-.002l-.173-.538h-.222l-.291.702zm1.789-.476c.068-.164-.057-.244-.269-.244a.61.61 0 0 0-.577.367c-.105.254.024.371.286.371.102 0 .264-.02.381-.062l.136-.327h-.378l-.045.108h.224l-.055.134a.735.735 0 0 1-.206.032c-.216 0-.233-.127-.179-.257a.414.414 0 0 1 .392-.258c.077 0 .163.038.127.136h.163zm.193.476h.158l.242-.587h.268l.048-.115h-.693l-.047.115h.267zm.917.018a.57.57 0 0 0 .562-.37c.103-.245.003-.368-.256-.368s-.46.123-.562.368c-.103.247-.003.37.256.37zm-.093-.37c.068-.165.199-.254.352-.254.151 0 .208.089.14.254-.068.166-.198.255-.352.255-.152 0-.208-.089-.14-.255zm1.37.188l-.174-.538h-.221l-.29.702h.141l.228-.548h.001l.18.548h.212l.29-.702h-.141l-.224.538zm8.815 3.462c0 .121.099.22.22.22s.22-.099.22-.22a.22.22 0 0 0-.44 0zm.391 0a.171.171 0 0 1-.172.172.172.172 0 1 1 .172-.172z"/><path d="M22.394 10.317h.047v-.102h.033l.048.102h.052l-.049-.106a.074.074 0 0 0-.025-.143h-.105v.249zm.046-.203h.059c.016 0 .027.012.027.027a.027.027 0 0 1-.027.027h-.059v-.054z"/></g><path fill="#cf0a2c" d="M17.687 12.277h-1.672l-.549.674h1.672z"/><g fill="#041e41"><path d="M3.736 8.191h.877l.222-.537h-.903c-1.065 0-2.194.642-2.521 1.432-.199.478.092.887.659.887h1.176c.511 0 1.133-.49 1.133-.49L3.83 9.25s-.25.188-.52.188H2.184c-.141 0-.2-.137-.125-.316.212-.515.963-.931 1.677-.931zm3.456 1.782l.542-1.309c.231-.558-.121-1.01-.786-1.01H5.227l-.223.537h1.865c.398 0 .277.293.277.293H5.803c-.534 0-.928.245-1.053.549-.215.52.1.939.703.939h.681a.913.913 0 0 0 .454-.141l-.059.142h.663zm7.682-2.319l-.223.537h2.089c.398 0 .276.293.276.293h-1.343c-.534 0-.928.245-1.054.549-.215.52.1.939.703.939h.681c.245 0 .455-.141.455-.141l-.058.142h.662l.543-1.309c.23-.558-.121-1.01-.785-1.01h-1.946zm3.156 2.319l2.133-5.148H19.5l-2.132 5.148zm-5.034-2.319h-.662l-.223.537h.662zm-.961 2.319l.617-1.489h-.662l-.617 1.489zm7.208-1.785c-.205.494.061.895.594.895h1.345c.099 0 .145.08.104.178-.041.098-.153.178-.251.178h-2.46l-.223.535h2.469c.459 0 .875-.104 1.053-.533.204-.493-.062-.894-.594-.894h-1.346c-.098 0-.145-.08-.104-.178a.298.298 0 0 1 .251-.177h2.179l.223-.537h-2.188c-.458-.001-.913.197-1.052.533zm-7.97 1.183l.711-1.717h-1.567A2.752 2.752 0 0 0 7.86 9.365l-.815 1.969h.663l.77-1.857c.294-.71.941-1.285 1.966-1.285h.656l-.416 1.004c-.055.133-.208.242-.341.242H8.812l-.223.535h1.833c.331 0 .665-.151.851-.602z"/><path d="M12.761 10.721c-.219.531-.211 1.264.019 1.633l1.309 2.096.861-1.25-1.593-1.324c-.168-.139-.216-.471-.105-.734l4.085-9.865h-.663l-2.642 6.379h-.785l-.223.537h.786l-1.049 2.528z"/></g><path d="M15.496 9.021c-.115 0-.246.092-.294.207s.007.209.122.209h1.011c.146 0 .331-.105.385-.234l.108-.263s-.189.081-.401.081h-.931zm-9.871 0c-.115 0-.247.092-.294.207s.007.209.122.209h1.011c.146 0 .331-.105.385-.234l.109-.263s-.19.081-.402.081h-.931z" fill="#FFF"/></svg>