<?xml version="1.0" encoding="UTF-8"?>
<svg width="512px" height="512px" viewBox="0 0 512 512" version="1.1" xmlns="http://www.w3.org/2000/svg" xmlns:xlink="http://www.w3.org/1999/xlink">
    <!-- Generator: Sketch 41.2 (35397) - http://www.bohemiancoding.com/sketch -->
    <title>washington-capitals</title>
    <desc>Created with Sketch.</desc>
    <defs></defs>
    <g id="NHL" stroke="none" stroke-width="1" fill="none" fill-rule="evenodd">
        <g id="washington-capitals">
            <g id="wsh" transform="translate(9.000000, 85.000000)">
                <g id="Group" fill="#FFFFFF">
                    <path d="M245.473614,227.082384 C239.664729,241.058004 240.479259,259.063404 246.395319,268.580543 L280.241183,322.789657 L306.434752,284.785403 L349.326186,284.785403 L372.733206,255.976764 L318.438352,255.976764 L302.062012,276.147098 L269.437943,249.010389 C268.730588,248.345904 267.873188,244.787694 269.223593,241.508139 L284.056613,205.66882 C284.056613,205.66882 287.186123,220.951974 307.013497,220.951974 L424.863124,220.951974 C430.457659,220.951974 447.498484,220.951974 454.036159,205.090075 C460.016524,190.642885 451.099564,182.73337 451.099564,182.73337 L460.488094,182.73337 L471.184158,156.904196 L413.56688,156.904196 C406.300415,156.904196 399.54839,158.747606 394.253945,161.919986 L421.454959,96.2431476 L391.724615,96.2431476 L361.865661,168.371921 C361.865661,168.371921 356.528346,156.904196 339.080257,156.904196 L304.226947,156.904196 L360.858216,20.1703345 L331.127872,20.1703345 L274.539473,156.904196 L201.85339,156.904196 C182.90485,156.904196 165.371021,164.878016 153.045896,178.274891 C153.045896,178.274891 152.895851,156.904196 127.516812,156.904196 L62.8474184,156.904196 C36.9753741,156.904196 10.3316697,172.337396 2.18636995,192.03616 C-3.57964491,205.92604 4.52278489,220.973409 22.9568844,220.973409 L48.1644438,220.973409 C58.6461585,220.973409 69.7923583,213.9856 74.5937981,210.59887 C74.5937981,210.59887 79.952548,220.973409 95.4714876,220.973409 L130.946412,220.973409 L118.835637,250.146444 L148.565981,250.146444 L160.633886,220.973409 L248.002944,220.973409 L245.473614,227.082384 Z" id="Shape"></path>
                    <path d="M123.679947,119.778777 L133.968747,112.297962 L144.236111,119.778777 L140.313507,107.689437 L150.602306,100.230058 L137.912787,100.230058 L133.968747,88.1192828 L130.024707,100.230058 L117.335187,100.230058 L127.623987,107.689437 L123.679947,119.778777 Z M190.32136,119.778777 L200.588725,112.297962 L210.89896,119.778777 L206.95492,107.689437 L217.24372,100.230058 L204.532765,100.230058 L200.588725,88.1192828 L196.687555,100.230058 L183.955165,100.230058 L194.243965,107.689437 L190.32136,119.778777 Z M256.962774,119.778777 L267.251573,112.297962 L277.518938,119.778777 L273.617768,107.689437 L283.885133,100.230058 L271.174178,100.230058 L267.251573,88.1192828 L263.307533,100.230058 L250.596579,100.230058 L260.885378,107.689437 L256.962774,119.778777 Z M98.3652125,135.769287 L98.4080825,135.769287 L97.6364226,147.772886 L101.773377,147.772886 L113.326842,132.725517 L109.961547,132.725517 L101.194632,144.471896 L101.151762,144.471896 L101.966292,132.725517 L97.7221626,132.725517 L88.9338128,144.471896 L88.8695078,144.471896 L89.7697778,132.725517 L86.1472629,132.725517 L85.2898629,147.772886 L89.3625128,147.772886 L98.3652125,135.769287 Z M106.960647,147.772886 L110.583162,147.772886 L113.562627,144.407591 L122.222367,144.407591 L122.565327,147.772886 L126.573672,147.772886 L125.094657,132.725517 L120.850527,132.725517 L106.960647,147.772886 Z M122.029452,141.921131 L115.791867,141.921131 L121.622187,135.383457 L122.029452,141.921131 Z M146.979791,137.205432 C148.137281,134.183097 146.529656,132.339687 142.135481,132.339687 C138.641577,132.339687 134.826147,133.711527 133.368567,137.205432 C130.860672,143.250101 142.928576,140.270637 141.535301,143.635931 C141.085166,144.729116 139.563282,145.929476 136.776732,145.929476 C134.097357,145.929476 133.239957,144.836291 133.797267,143.057186 L130.410537,143.057186 C129.081567,146.272436 131.010717,148.158716 135.383457,148.158716 C140.484986,148.158716 143.914586,146.315306 145.200686,143.228666 C147.944366,136.605252 135.490632,140.506421 137.119692,136.605252 C137.677002,135.254847 139.498977,134.547492 140.892251,134.547492 C143.228666,134.547492 144.278981,135.254847 143.593061,137.205432 L146.979791,137.205432 L146.979791,137.205432 Z M150.173606,147.772886 L152.852981,141.320951 L161.041151,141.320951 L158.361776,147.772886 L161.727071,147.772886 L167.964656,132.725517 L164.599361,132.725517 L162.048596,138.855927 L153.860426,138.855927 L156.389756,132.725517 L153.024461,132.725517 L146.808311,147.772886 L150.173606,147.772886 Z M169.679456,147.772886 L175.917041,132.725517 L172.551746,132.725517 L166.314161,147.772886 L169.679456,147.772886 Z M177.331751,147.772886 L182.21893,136.026507 L182.2618,136.026507 L186.141535,147.772886 L190.66432,147.772886 L196.901905,132.725517 L193.8367,132.725517 L189.056695,144.257546 L189.013825,144.257546 L185.30557,132.725517 L180.547001,132.725517 L174.309416,147.772886 L177.331751,147.772886 Z M215.678965,137.569827 C217.136545,134.054487 214.45717,132.339687 209.91295,132.339687 C204.569882,132.187366 199.672117,135.302583 197.544955,140.206332 C195.29428,145.650821 198.059395,148.158716 203.675365,148.158716 C205.861735,148.158716 209.334205,147.730016 211.8421,146.829746 L214.75726,139.820502 L206.65483,139.820502 L205.690255,142.135481 L210.491695,142.135481 L209.31277,145.007771 C207.880965,145.445046 206.394144,145.676009 204.89716,145.693691 C200.2672,145.693691 199.902805,142.971446 201.060295,140.184897 C202.444994,136.778777 205.786761,134.579348 209.462815,134.654667 C211.11331,134.654667 212.95672,135.469197 212.18506,137.569827 L215.678965,137.569827 L215.678965,137.569827 Z M219.81592,147.772886 L223.202649,147.772886 L228.389919,135.190542 L234.134499,135.190542 L235.163379,132.725517 L220.308925,132.725517 L219.30148,135.190542 L225.024624,135.190542 L219.81592,147.772886 Z M239.471814,148.158716 C244.785795,148.419908 249.657893,145.212299 251.518284,140.227767 C253.726089,134.976192 251.582589,132.339687 246.030924,132.339687 C240.479259,132.339687 236.170824,134.976192 233.984454,140.227767 C231.776649,145.522211 233.920149,148.158716 239.471814,148.158716 Z M237.478359,140.227767 C238.935939,136.690992 241.743924,134.783277 245.023479,134.783277 C248.260164,134.783277 249.481959,136.690992 248.024379,140.227767 C246.566799,143.785976 243.780249,145.693691 240.479259,145.693691 C237.221139,145.693691 236.020779,143.785976 237.478359,140.227767 L237.478359,140.227767 Z M266.844308,144.257546 L263.114618,132.725517 L258.377484,132.725517 L252.161334,147.772886 L255.183669,147.772886 L260.070849,136.026507 L260.092284,136.026507 L263.950583,147.772886 L268.494803,147.772886 L274.710953,132.725517 L271.688618,132.725517 L266.887178,144.257546 L266.844308,144.257546 Z M455.793829,218.465515 C455.793829,221.059149 457.915894,223.181214 460.509529,223.181214 C463.103163,223.181214 465.225228,221.059149 465.225228,218.465515 C465.225228,215.861105 463.113938,213.749815 460.509529,213.749815 C457.905119,213.749815 455.793829,215.861105 455.793829,218.465515 L455.793829,218.465515 Z M464.174913,218.465515 C464.180659,219.44507 463.794072,220.386169 463.10141,221.078831 C462.408748,221.771493 461.467649,222.15808 460.488094,222.152334 C458.451919,222.152334 456.801274,220.501689 456.801274,218.465515 C456.801274,216.42934 458.451919,214.778695 460.488094,214.778695 C462.524268,214.778695 464.174913,216.42934 464.174913,218.465515 Z" id="Shape"></path>
                    <path d="M458.580379,221.144889 L459.587824,221.144889 L459.587824,218.95852 L460.295179,218.95852 L461.324059,221.144889 L462.438678,221.144889 L461.388364,218.87278 C462.094405,218.599755 462.509127,217.86587 462.378763,217.120188 C462.248399,216.374506 461.609283,215.824859 460.852489,215.807575 L458.601814,215.807575 L458.601814,221.144889 L458.580379,221.144889 Z M459.566389,216.793585 L460.831054,216.793585 C461.174014,216.793585 461.409799,217.050805 461.409799,217.37233 C461.409799,217.691962 461.150686,217.951075 460.831054,217.951075 L459.566389,217.951075 L459.566389,216.793585 Z" id="Shape"></path>
                </g>
                <polygon id="Shape" fill="#CF0A2C" points="357.685836 263.157488 321.846517 263.157488 310.078702 277.604678 345.918021 277.604678"></polygon>
                <g id="Group" transform="translate(0.000000, 21.434999)" fill="#041E41">
                    <path d="M58.6461585,154.139081 L77.4446531,154.139081 L82.203223,142.628486 L62.8474184,142.628486 C40.019144,142.628486 15.8190296,156.389756 8.80978478,173.323406 C4.54421989,183.569335 10.7818047,192.33625 22.9354494,192.33625 L48.1430088,192.33625 C59.0962935,192.33625 72.4288632,181.8331 72.4288632,181.8331 L60.6610485,176.838746 C60.6610485,176.838746 55.3022986,180.868525 49.5148488,180.868525 L25.3790394,180.868525 C22.3567044,180.868525 21.0920395,177.931931 22.6996644,174.095066 C27.2438843,163.056041 43.3415689,154.139081 58.6461585,154.139081 L58.6461585,154.139081 Z M132.725517,192.33625 L144.343286,164.277836 C149.294771,152.317106 141.749651,142.628486 127.495377,142.628486 L90.6057427,142.628486 L85.8257379,154.139081 L125.802012,154.139081 C134.333142,154.139081 131.739507,160.419536 131.739507,160.419536 L102.952302,160.419536 C91.5060127,160.419536 83.0606229,165.671111 80.381248,172.187351 C75.7727231,183.33355 82.5247479,192.314815 95.4500526,192.314815 L110.047287,192.314815 C113.501091,192.18438 116.858745,191.141584 119.778777,189.29248 L118.514112,192.33625 L132.725517,192.33625 L132.725517,192.33625 Z M297.389183,142.628486 L292.609178,154.139081 L337.386892,154.139081 C345.918021,154.139081 343.302951,160.419536 343.302951,160.419536 L314.515747,160.419536 C303.069457,160.419536 294.624068,165.671111 291.923258,172.187351 C287.314733,183.33355 294.066758,192.314815 306.992062,192.314815 L321.589297,192.314815 C326.840872,192.314815 331.342222,189.29248 331.342222,189.29248 L330.098992,192.33625 L344.288961,192.33625 L355.928166,164.277836 C360.858216,152.317106 353.334531,142.628486 339.101692,142.628486 L297.389183,142.628486 L297.389183,142.628486 Z M365.038041,192.33625 L410.758895,81.988873 L396.54749,81.988873 L350.848071,192.33625 L365.038041,192.33625 Z M257.134254,142.628486 L242.944284,142.628486 L238.164279,154.139081 L252.354249,154.139081 L257.134254,142.628486 Z M236.535219,192.33625 L249.760614,160.419536 L235.570644,160.419536 L222.345249,192.33625 L236.535219,192.33625 Z M391.038695,154.074776 C386.64452,164.663666 392.34623,173.259101 403.771085,173.259101 L432.601159,173.259101 C434.723224,173.259101 435.709234,174.973901 434.830399,177.074531 C433.951564,179.175161 431.550844,180.88996 429.450214,180.88996 L376.720116,180.88996 L371.940111,192.357685 L424.863124,192.357685 C434.701789,192.357685 443.618749,190.128445 447.434179,180.93283 C451.806919,170.365376 446.105209,161.769941 434.701789,161.769941 L405.85028,161.769941 C403.74965,161.769941 402.742205,160.055141 403.62104,157.954511 C404.574433,155.791891 406.644039,154.332447 409.001225,154.160516 L455.708089,154.160516 L460.488094,142.649921 L413.588315,142.649921 C403.771085,142.628486 394.01816,146.872616 391.038695,154.074776 L391.038695,154.074776 Z M220.20175,179.432381 L235.442034,142.628486 L201.85339,142.628486 C177.817978,142.545688 156.135891,157.054115 147.044096,179.303771 L129.574572,221.509284 L143.785976,221.509284 L160.290926,181.70449 C166.592816,166.485641 180.461261,154.160516 202.432135,154.160516 L216.493495,154.160516 L207.576535,175.681256 C206.39761,178.532111 203.118055,180.868525 200.2672,180.868525 L167.450216,180.868525 L162.670211,192.33625 L201.960565,192.33625 C209.05555,192.33625 216.21484,189.099565 220.20175,179.432381 L220.20175,179.432381 Z" id="Shape"></path>
                    <path d="M252.097029,208.36963 C247.402764,219.751615 247.574244,235.463469 252.504294,243.372984 L280.562708,288.300743 L299.018243,261.506993 L264.872288,233.127054 C261.271208,230.147589 260.242329,223.031169 262.621613,217.393765 L350.183586,5.93749485 L335.972182,5.93749485 L279.340913,142.671356 L262.514438,142.671356 L257.734434,154.181951 L274.582343,154.181951 L252.097029,208.36963 Z" id="Shape"></path>
                </g>
                <path d="M310.721752,193.36513 C308.256727,193.36513 305.448742,195.33715 304.419862,197.802175 C303.390982,200.2672 304.569907,202.28209 307.034932,202.28209 L328.705717,202.28209 C331.835227,202.28209 335.800702,200.031415 336.958192,197.2663 L339.273172,191.628895 C339.273172,191.628895 335.221957,193.36513 330.677737,193.36513 L310.721752,193.36513 L310.721752,193.36513 Z M99.1368725,193.36513 C96.6718476,193.36513 93.8424277,195.33715 92.8349827,197.802175 C91.8275377,200.2672 92.9850277,202.28209 95.4500526,202.28209 L117.120837,202.28209 C120.250347,202.28209 124.215822,200.031415 125.373312,197.2663 L127.709727,191.628895 C127.709727,191.628895 123.637077,193.36513 119.092857,193.36513 L99.1368725,193.36513 Z" id="Shape" fill="#FFFFFF"></path>
            </g>
        </g>
    </g>
</svg>