<svg width="512" height="512" viewBox="0 0 512 512" xmlns="http://www.w3.org/2000/svg" xmlns:xlink="http://www.w3.org/1999/xlink"><title>portland-trail-blazers</title><defs><path id="a" d="M289.257 305.663H0V.143h289.257z"/></defs><g fill="none" fill-rule="evenodd"><g transform="translate(111.867 103.211)"><mask id="b" fill="#fff"><use xlink:href="#a"/></mask><path d="M289.257.143H131.25L63.72 53.136A128.209 128.209 0 0 0 46.012 70.51c-19.111 22.78-29.633 51.693-29.633 81.423 0 3.763.173 7.565.5 11.31 2.834 31.933 18.18 61.914 42.355 83.059L-.004 305.665h157.218l67.51-53.002a128.74 128.74 0 0 0 17.72-17.372c19.101-22.791 29.623-51.713 29.623-81.434 0-3.763-.173-7.574-.5-11.29-2.806-31.674-17.872-61.635-41.586-83.011L289.257.143z" fill="#FFF" fill-rule="nonzero" mask="url(#b)"/></g><path d="M334.795 163.025l54.741-54.86h-25.29l-44.738 38.595 38.78-38.595h-24.261l-43.307 38.7 38.887-38.7H306.43l-44.805 38.643 38.82-38.643h-23.023l-44.92 38.749 38.934-38.749H244.77L178.606 160.1a123.377 123.377 0 0 0-17.046 16.718c-18.391 21.925-28.509 49.74-28.509 78.325 0 3.628.163 7.286.48 10.885 2.864 32.329 18.795 62.425 44.68 83.166l-54.75 54.87h26.415l44.738-38.605-38.771 38.604h22.897l44.863-38.7-38.886 38.7h23.051l44.806-38.661-38.83 38.661h23.427l44.911-38.758-38.915 38.758h24.262l66.146-51.934a123.47 123.47 0 0 0 17.056-16.717c18.381-21.935 28.499-49.75 28.499-78.344 0-3.62-.163-7.286-.48-10.866-2.864-32.33-18.795-62.425-43.855-83.176" fill="#061922" fill-rule="nonzero"/><path d="M245.972 285.316l9.618-9.625c-10.983-3.407-17.18-10.914-17.18-20.548 0-5.005 2.113-9.519 5.496-12.714l125.009-125.264h-6.957L244.29 223.372l-10.07 9.086c-5.967 5.717-9.705 13.772-9.705 22.685 0 2.079.202 4.1.586 6.063 2.21 11.251 11.512 20.78 20.87 24.11" fill="#BAC3C9" fill-rule="nonzero"/><path d="M231.422 299.894l9.474-9.48c-14.701-7.498-22.85-19.933-22.85-35.274 0-10.27 4.123-19.596 10.791-26.42l111.288-111.558h-6.447l-104.149 92.146c-1.432 1.164-10.3 9.268-11.482 10.683-8.61 9.201-13.894 21.569-13.894 35.149 0 2.406.192 4.764.547 7.074 2.374 16.477 12.645 30.394 26.722 37.68" fill="#BAC3C9" fill-rule="nonzero"/><path d="M216.592 314.753l9.618-9.624c-17.853-11.03-28.518-28.932-28.518-49.98 0-15.544 6.12-29.692 16.065-40.135l97.586-97.853h-5.909l-90.648 78.084c-2.883 2.31-10.56 9.442-12.934 12.281-11.223 12.676-18.064 29.365-18.064 47.623 0 2.733.182 5.428.528 8.065 2.527 21.713 14.827 40.442 32.276 51.54" fill="#BAC3C9" fill-rule="nonzero"/><path d="M201.747 329.618l9.762-9.779c-21.014-14.543-34.188-37.94-34.188-64.696 0-20.809 8.11-39.769 21.36-53.83l83.865-84.157h-5.39l-77.13 64.012c-4.323 3.475-10.81 9.644-14.374 13.889-13.846 16.169-22.225 37.16-22.225 60.086 0 3.07.154 6.092.48 9.066 2.69 26.949 17.027 50.48 37.84 65.409" fill="#BAC3C9" fill-rule="nonzero"/><path d="M143.508 265.22c2.854 32.185 19.246 60.52 43.403 79.259l9.906-9.923c-24.175-18.075-39.847-46.939-39.847-79.412 0-26.083 10.108-49.846 26.635-67.545l70.153-70.443h-4.862l-63.628 49.952a113.471 113.471 0 0 0-15.797 15.495c-16.47 19.644-26.414 44.947-26.414 72.54 0 3.398.163 6.767.451 10.078" fill="#BAC3C9" fill-rule="nonzero"/><path d="M268.281 226.901l-9.609 9.625c10.983 3.397 17.18 10.914 17.18 20.539 0 5.014-2.123 9.538-5.505 12.723l-125 125.274h6.976l117.65-106.217 10.06-9.086c5.986-5.717 9.714-13.772 9.714-22.694 0-2.06-.202-4.09-.586-6.054-2.21-11.251-11.521-20.77-20.88-24.11" fill="#E03A3E" fill-rule="nonzero"/><path d="M282.834 212.328l-9.474 9.48c14.702 7.498 22.869 19.923 22.869 35.255 0 10.288-4.132 19.615-10.8 26.429L174.14 395.06h6.438l104.148-92.155c1.451-1.155 10.31-9.26 11.502-10.674 8.61-9.201 13.885-21.578 13.885-35.168 0-2.397-.193-4.764-.558-7.055-2.364-16.487-12.635-30.404-26.722-37.68" fill="#E03A3E" fill-rule="nonzero"/><path d="M297.674 197.459l-9.618 9.634c17.853 11.02 28.518 28.932 28.518 49.97 0 15.554-6.12 29.693-16.065 40.145l-97.586 97.853h5.919l90.639-78.094c2.873-2.3 10.55-9.442 12.923-12.28 11.233-12.676 18.074-29.356 18.074-47.623 0-2.724-.192-5.419-.519-8.066-2.536-21.703-14.836-40.432-32.285-51.539" fill="#E03A3E" fill-rule="nonzero"/><path d="M312.515 182.599l-9.763 9.778c21.015 14.543 34.188 37.94 34.188 64.687 0 20.818-8.129 39.778-21.36 53.85l-83.874 84.147h5.4l77.12-64.013c4.333-3.484 10.818-9.644 14.374-13.898 13.855-16.16 22.234-37.15 22.234-60.086 0-3.06-.163-6.083-.48-9.067-2.69-26.948-17.046-50.47-37.84-65.398" fill="#E03A3E" fill-rule="nonzero"/><path d="M370.753 246.997c-2.854-32.185-19.246-60.51-43.402-79.259l-9.907 9.923c24.166 18.075 39.857 46.949 39.857 79.412 0 26.093-10.137 49.836-26.645 67.555l-70.153 70.433h4.862l63.62-49.952a113.484 113.484 0 0 0 15.805-15.486c16.47-19.643 26.405-44.946 26.405-72.55 0-3.387-.154-6.756-.442-10.076" fill="#E03A3E" fill-rule="nonzero"/><path d="M26 26h460v460H26z"/></g></svg>