<?xml version="1.0" encoding="UTF-8"?>
<svg width="288px" height="92px" viewBox="0 0 288 92" version="1.1" xmlns="http://www.w3.org/2000/svg" xmlns:xlink="http://www.w3.org/1999/xlink">
    <!-- Generator: Sketch 43.2 (39069) - http://www.bohemiancoding.com/sketch -->
    <title>all-star-game</title>
    <desc>Created with Sketch.</desc>
    <defs></defs>
    <g id="Page-1" stroke="none" stroke-width="1" fill="none" fill-rule="evenodd">
        <g id="all-star-game" fill-rule="nonzero">
            <path d="M91.062,66.879 C88.413,68.041 86.136,69.652 86.074,73.369 L94.563,73.369 L94.563,71.278 L88.8,71.278 C89.002,70.442 89.745,69.714 91.666,68.831 C93.51,67.979 94.454,67.22 94.454,65.47 C94.454,64.983 94.367,64.559 94.212,64.187 C94.208,64.178 94.207,64.167 94.203,64.158 C93.686,62.959 92.381,62.356 90.427,62.356 C88.707,62.356 87.174,62.991 86.028,64.153 L86.032,64.158 L86.057,64.187 L87.422,65.779 C88.181,65.051 89.219,64.478 90.504,64.478 C91.805,64.478 92.286,65.02 92.286,65.578 C92.285,66.043 91.99,66.476 91.062,66.879" id="Shape" fill="#FF6600"></path>
            <path d="M110.74,67.917 C110.74,66.414 110.393,65.144 109.753,64.187 C109.747,64.178 109.741,64.167 109.735,64.158 C108.969,63.031 107.784,62.356 106.186,62.356 C104.596,62.356 103.414,63.033 102.648,64.158 C102.641,64.167 102.636,64.178 102.63,64.187 C101.982,65.152 101.632,66.436 101.632,67.948 C101.632,71.247 103.212,73.54 106.171,73.54 C109.129,73.54 110.74,71.217 110.74,67.917 M106.187,71.418 C104.53,71.418 103.832,69.853 103.832,67.917 C103.832,65.981 104.514,64.478 106.172,64.478 C107.829,64.478 108.541,66.012 108.541,67.948 C108.54,69.884 107.844,71.418 106.187,71.418" id="Shape" fill="#FF6600"></path>
            <path d="M183.357,73.37 L183.357,62.527 L181.56,62.527 C181.343,63.425 180.553,63.874 179.345,63.936 L179.345,65.532 L181.204,65.532 L181.204,73.37 L183.357,73.37 L183.357,73.37 Z" id="Shape" fill="#FF6600"></path>
            <path d="M200.554,62.526 L192.422,62.526 L192.422,64.586 L197.936,64.586 C195.922,66.895 194.745,69.853 194.745,73.369 L196.96,73.369 C196.96,69.621 198.354,66.771 200.554,64.617 L200.554,62.526 Z" id="Shape" fill="#FF6600"></path>
            <path d="M115.276,13.773 L115.276,9.219 C115.276,8.546 115.311,6.966 115.311,6.487 C115.134,6.965 114.763,7.887 114.444,8.627 C113.607,10.546 112.77,12.469 111.933,14.395 C111.097,12.647 110.26,10.904 109.424,9.163 C109.106,8.491 108.735,7.649 108.558,7.209 C108.558,7.687 108.593,9.26 108.594,9.934 L108.594,14.487 C107.787,14.582 106.981,14.681 106.175,14.783 L106.175,2.38 C106.969,2.28 107.764,2.183 108.558,2.089 C109.418,3.859 110.278,5.633 111.138,7.411 C111.456,8.067 111.827,8.967 111.986,9.393 C112.145,8.915 112.499,7.974 112.817,7.232 C113.648,5.274 114.48,3.319 115.311,1.367 C116.125,1.289 116.939,1.215 117.753,1.144 L117.753,13.546 C116.927,13.619 116.102,13.694 115.276,13.773" id="Shape" fill="#000000"></path>
            <path d="M127.142,12.874 L127.142,0.471 C127.97,0.425 128.797,0.382 129.625,0.343 L129.625,12.745 C128.797,12.785 127.97,12.828 127.142,12.874" id="Shape" fill="#000000"></path>
            <path d="M147.302,12.421 C146.977,11.496 146.651,10.572 146.326,9.648 C144.811,9.636 143.296,9.636 141.781,9.647 C141.456,10.571 141.13,11.495 140.805,12.42 C139.917,12.429 139.029,12.443 138.142,12.46 C139.728,8.295 141.314,4.142 142.9,0.002 C143.704,-0.001 144.509,-1.36522738e-15 145.314,0.003 C146.888,4.144 148.462,8.298 150.036,12.463 C149.125,12.445 148.214,12.431 147.302,12.421 M144.675,5.033 C144.427,4.306 144.178,3.562 144.053,3.101 C143.929,3.562 143.681,4.306 143.432,5.033 C143.166,5.783 142.9,6.534 142.633,7.286 C143.58,7.281 144.527,7.281 145.474,7.286 C145.208,6.535 144.941,5.784 144.675,5.033" id="Shape" fill="#000000"></path>
            <path d="M167.504,13.319 L167.504,8.765 C167.504,8.092 167.539,6.518 167.539,6.04 C167.362,6.487 166.99,7.344 166.671,8.028 C165.833,9.802 164.994,11.579 164.155,13.359 C163.316,11.467 162.477,9.577 161.638,7.691 C161.319,6.964 160.946,6.057 160.769,5.586 C160.769,6.065 160.804,7.644 160.804,8.317 L160.804,12.871 C159.995,12.825 159.185,12.784 158.375,12.745 L158.375,0.342 C159.173,0.38 159.971,0.422 160.769,0.466 C161.632,2.386 162.495,4.31 163.357,6.238 C163.677,6.949 164.049,7.913 164.208,8.366 C164.368,7.917 164.722,7.037 165.041,6.351 C165.874,4.537 166.707,2.726 167.539,0.919 C168.354,0.983 169.169,1.05 169.983,1.12 L169.983,13.523 C169.157,13.453 168.33,13.384 167.504,13.319" id="Shape" fill="#000000"></path>
            <path d="M179.354,14.481 L179.354,2.078 C180.178,2.176 181.002,2.276 181.826,2.38 L181.826,14.783 C181.002,14.679 180.178,14.578 179.354,14.481" id="Shape" fill="#000000"></path>
            <path d="M124.544,80.607 C123.42,80.61 122.507,81.521 122.507,82.647 C122.51,83.773 123.421,84.684 124.547,84.683 C125.673,84.682 126.584,83.769 126.584,82.645 C126.582,81.519 125.669,80.607 124.544,80.607" id="Shape" fill="#FFFFFF"></path>
            <path d="M167.005,61.062 L121.38,61.062 C118.92,61.062 116.928,63.056 116.928,65.513 L116.95,65.513 L116.95,86.342 C117.165,88.599 119.064,90.366 121.38,90.366 L167.005,90.366 C169.462,90.366 171.456,88.372 171.456,85.915 L171.456,65.513 C171.456,63.056 169.462,61.062 167.005,61.062 L167.005,61.062 Z M158.679,75.937 C158.679,75.937 157.032,74.792 155.328,74.849 L151.133,74.851 C150.185,74.852 150.545,72.728 150.545,72.728 C150.545,72.728 151.077,72.811 151.106,72.7 C151.272,70.743 151.102,67.947 148.978,66.523 C145.372,64.121 139.417,64.574 139.253,70.385 C139.253,70.385 136.041,72.596 136.097,72.596 L139.927,72.594 L140.066,73.207 L139.033,75.445 C139.033,75.445 138.838,75.725 139.117,75.808 C139.342,75.864 140.402,75.835 140.402,75.835 C140.794,76.282 140.935,77.792 140.627,77.847 C138.418,78.436 136.549,81.483 136.552,86.96 L138.758,86.96 C138.92,87.228 139.44,88.108 139.906,88.883 L121.38,88.883 C120.588,88.883 119.843,88.574 119.281,88.013 C118.721,87.453 118.412,86.708 118.412,85.915 L118.412,65.513 C118.412,64.722 118.721,63.975 119.281,63.415 C119.843,62.855 120.588,62.545 121.38,62.545 L149.9,62.545 L159.099,74.484 L158.679,75.937 Z M169.972,85.915 C169.972,87.551 168.641,88.883 167.005,88.883 L161.342,88.883 L161.341,86.948 C163.019,86.947 165.87,86.946 165.87,86.946 C167.015,86.833 168.244,84.82 168.578,83.618 C168.719,83.171 168.046,82.836 167.544,82.054 C167.18,81.495 167.097,80.46 166.452,80.209 C165.53,79.846 164.496,78.896 164.496,78.896 L164.496,77.751 C164.496,77.723 164.019,77.22 164.019,77.22 L163.545,77.137 L163.545,76.633 L163.124,76.047 L162.651,75.963 L162.649,75.432 L162.258,74.874 L161.585,74.789 L154.247,62.545 L167.005,62.545 C167.798,62.545 168.541,62.855 169.103,63.415 C169.663,63.975 169.972,64.722 169.972,65.513 L169.972,85.915 Z" id="Shape" fill="#FFFFFF"></path>
            <path d="M167.005,62.545 L154.247,62.545 L161.585,74.789 L162.258,74.873 L162.649,75.432 L162.65,75.963 L163.124,76.047 L163.545,76.633 L163.545,77.137 L164.019,77.22 C164.019,77.22 164.495,77.722 164.495,77.751 L164.495,78.896 C164.495,78.896 165.529,79.846 166.452,80.209 C167.096,80.46 167.18,81.495 167.544,82.054 C168.046,82.835 168.719,83.171 168.578,83.617 C168.244,84.819 167.015,86.833 165.87,86.945 C165.87,86.945 163.019,86.947 161.341,86.948 L161.342,88.883 L167.005,88.883 C168.641,88.883 169.972,87.551 169.972,85.915 L169.972,65.513 C169.972,64.721 169.662,63.975 169.102,63.415 C168.542,62.855 167.797,62.545 167.005,62.545" id="Shape" fill="#FF6600"></path>
            <path d="M121.381,62.545 C120.589,62.545 119.843,62.855 119.282,63.416 C118.721,63.975 118.413,64.722 118.413,65.513 L118.413,85.915 C118.413,86.708 118.721,87.453 119.282,88.014 C119.843,88.574 120.589,88.883 121.381,88.883 L139.906,88.883 C139.441,88.108 138.92,87.228 138.758,86.96 L136.552,86.96 C136.55,81.484 138.419,78.436 140.627,77.847 C140.935,77.792 140.795,76.282 140.402,75.835 C140.402,75.835 139.342,75.864 139.117,75.808 C138.838,75.725 139.034,75.445 139.034,75.445 L140.066,73.208 L139.927,72.594 L136.098,72.596 C136.042,72.596 139.253,70.385 139.253,70.385 C139.418,64.574 145.372,64.121 148.979,66.524 C151.103,67.947 151.273,70.743 151.106,72.7 C151.077,72.811 150.546,72.728 150.546,72.728 C150.546,72.728 150.185,74.852 151.133,74.851 L155.328,74.849 C157.033,74.792 158.68,75.937 158.68,75.937 L159.099,74.484 L149.9,62.545 L121.381,62.545 Z M124.547,84.683 C123.422,84.684 122.51,83.773 122.507,82.647 C122.507,81.521 123.42,80.61 124.544,80.607 C125.67,80.607 126.582,81.519 126.584,82.645 C126.584,83.769 125.674,84.682 124.547,84.683 L124.547,84.683 Z" id="Shape" fill="#000000"></path>
            <path d="M171.448,90.297 C171.448,89.995 171.269,89.946 171.009,89.946 L170.453,89.946 L170.453,91.085 L170.69,91.085 L170.69,90.628 L170.889,90.628 L171.152,91.085 L171.416,91.085 L171.142,90.628 C171.339,90.613 171.448,90.505 171.448,90.297 M171.014,90.426 L170.69,90.426 L170.69,90.147 L170.956,90.147 C171.07,90.147 171.209,90.147 171.209,90.276 C171.209,90.399 171.142,90.426 171.014,90.426" id="Shape" fill="#FF6600"></path>
            <path d="M170.912,89.421 C170.303,89.421 169.824,89.91 169.824,90.521 C169.824,91.126 170.303,91.612 170.912,91.612 C171.52,91.612 171.998,91.126 171.998,90.521 C171.998,89.91 171.52,89.421 170.912,89.421 M170.912,91.376 C170.444,91.376 170.063,91.009 170.063,90.521 C170.063,90.027 170.444,89.665 170.912,89.665 C171.374,89.665 171.762,90.027 171.762,90.521 C171.762,91.009 171.374,91.376 170.912,91.376" id="Shape" fill="#FF6600"></path>
            <path d="M159.642,29.644 C159.728,29.654 159.805,29.674 159.888,29.688 C160.047,29.714 160.208,29.739 160.354,29.778 C160.446,29.802 160.527,29.838 160.614,29.867 C160.738,29.91 160.864,29.952 160.977,30.005 C161.062,30.046 161.138,30.097 161.217,30.144 C161.316,30.203 161.415,30.261 161.505,30.331 C161.578,30.388 161.643,30.455 161.709,30.52 C161.787,30.596 161.864,30.672 161.932,30.758 C161.991,30.833 162.043,30.917 162.094,31 C162.151,31.093 162.206,31.189 162.253,31.292 C162.296,31.386 162.333,31.486 162.367,31.588 C162.404,31.7 162.437,31.816 162.464,31.939 C162.488,32.051 162.508,32.168 162.524,32.289 C162.532,32.351 162.574,32.892 162.58,32.957 C162.592,32.812 162.574,32.175 162.574,32.019 C162.574,29.67 161.157,28.701 158.846,28.701 L152.022,28.701 L152.022,29.599 L158.846,29.599 C159.125,29.599 159.39,29.615 159.642,29.644" id="Shape" fill="#C4CED4"></path>
            <rect id="Rectangle-path" fill="#FF6600" x="274.54" y="39.202" width="7.495" height="1.572"></rect>
            <rect id="Rectangle-path" fill="#FF6600" x="269.32" y="50.612" width="18.681" height="1.593"></rect>
            <rect id="Rectangle-path" fill="#0077C8" x="274.539" y="29.619" width="12.902" height="1.572"></rect>
            <polygon id="Shape" fill="#000000" points="288 49.714 288 45.504 274.539 45.504 274.539 40.775 274.539 39.203 274.539 38.304 282.034 38.304 282.034 34.132 274.539 34.132 274.539 31.192 274.539 29.62 274.539 28.721 287.441 28.721 287.441 24.511 269.319 24.511 269.319 49.714"></polygon>
            <rect id="Rectangle-path" fill="#FF6600" x="33.885" y="50.628" width="18.308" height="1.572"></rect>
            <rect id="Rectangle-path" fill="#FF6600" x="53.797" y="50.629" width="18.308" height="1.572"></rect>
            <rect id="Rectangle-path" fill="#FF6600" x="110.642" y="50.628" width="5.22" height="1.572"></rect>
            <polygon id="Shape" fill="#FF6600" points="125.661 52.201 127.712 46.384 137.257 46.384 139.308 52.201 145.649 52.201 145.051 50.629 139.308 50.629 137.257 44.812 127.712 44.812 125.661 50.629 120.07 50.629 119.469 52.201"></polygon>
            <path d="M167.896,33.668 C167.684,36.947 166.243,39.166 162.957,40.498 L162.95,40.485 C162.949,40.485 162.948,40.486 162.948,40.486 L163.577,41.765 C166.465,40.401 167.944,38.028 167.944,34.377 C167.944,34.096 167.926,33.827 167.906,33.561 C167.905,33.576 167.896,33.668 167.896,33.668" id="Shape" fill="#FF6600"></path>
            <rect id="Rectangle-path" fill="#0077C8" x="103.147" y="29.673" width="7.495" height="1.572"></rect>
            <rect id="Rectangle-path" fill="#0077C8" x="115.862" y="29.673" width="7.495" height="1.572"></rect>
            <path d="M133.402,33.974 C133.023,32.843 132.68,31.781 132.484,31.053 C132.419,31.296 132.337,31.575 132.244,31.882 C131.962,32.804 131.571,33.971 131.179,35.118 L129.511,39.844 L129.504,39.844 L129.501,39.853 L130.403,39.853 C130.403,39.853 132.419,33.841 132.484,33.599 C132.745,34.568 134.566,39.853 134.566,39.853 L135.449,39.853 L133.789,35.118 C133.659,34.735 133.528,34.351 133.402,33.974" id="Shape" fill="#0077C8"></path>
            <path d="M159.621,31.214 C159.701,31.223 159.774,31.24 159.852,31.252 C160.012,31.277 160.17,31.304 160.318,31.342 C160.403,31.364 160.481,31.392 160.562,31.419 C160.69,31.461 160.815,31.506 160.933,31.56 C161.01,31.595 161.083,31.634 161.155,31.675 C161.262,31.735 161.364,31.801 161.46,31.873 C161.524,31.921 161.588,31.97 161.647,32.024 C161.737,32.105 161.818,32.196 161.895,32.289 C161.944,32.349 161.995,32.406 162.039,32.471 C162.115,32.582 162.177,32.706 162.237,32.832 C162.266,32.895 162.302,32.952 162.328,33.018 C162.405,33.218 162.468,33.433 162.508,33.668 L162.516,33.729 C162.552,33.493 162.574,33.184 162.574,32.917 C162.574,32.691 162.55,32.489 162.524,32.288 C162.509,32.167 162.489,32.05 162.464,31.938 C162.437,31.816 162.404,31.7 162.367,31.588 C162.333,31.486 162.296,31.385 162.254,31.292 C162.206,31.188 162.152,31.093 162.094,31 C162.043,30.916 161.992,30.833 161.932,30.757 C161.864,30.671 161.787,30.595 161.71,30.519 C161.643,30.454 161.579,30.388 161.505,30.33 C161.416,30.261 161.316,30.202 161.217,30.143 C161.138,30.096 161.063,30.045 160.977,30.005 C160.864,29.951 160.738,29.909 160.614,29.867 C160.528,29.837 160.446,29.802 160.355,29.777 C160.208,29.738 160.048,29.713 159.888,29.687 C159.805,29.674 159.729,29.653 159.642,29.643 C159.39,29.614 159.125,29.599 158.846,29.599 L152.022,29.599 L152.022,31.17 L158.846,31.17 C159.118,31.17 159.375,31.187 159.621,31.214" id="Shape" fill="#0077C8"></path>
            <polygon id="Shape" fill="#FF6600" points="74.924 36.157 77.964 33.932 74.2 33.932 72.534 28.804 70.868 33.932 67.104 33.932 70.149 36.173 69.838 37.13 69.831 37.124 68.675 40.681 72.534 37.877 76.393 40.681 75.234 37.113 75.234 37.114"></polygon>
            <polygon id="Shape" fill="#000000" points="51.276 49.73 52.193 49.73 52.193 47.055 52.193 45.483 39.105 45.483 39.105 26.099 39.105 24.527 33.885 24.527 33.885 26.099 33.885 49.73 35.027 49.73"></polygon>
            <polygon id="Shape" fill="#000000" points="71.093 49.73 72.105 49.73 72.105 47.055 72.105 45.483 59.016 45.483 59.016 26.099 59.016 24.527 53.796 24.527 53.796 26.099 53.796 49.73 54.638 49.73"></polygon>
            <rect id="Rectangle-path" fill="#C4CED4" x="53.797" y="49.73" width="18.308" height="1"></rect>
            <path d="M129.511,39.844 L131.18,35.117 C131.571,33.971 131.962,32.804 132.244,31.882 C132.338,31.575 132.419,31.296 132.485,31.053 C132.68,31.78 133.023,32.843 133.402,33.974 C133.529,34.351 133.659,34.735 133.79,35.117 L135.449,39.853 L135.468,39.853 L136.249,39.853 C136.249,39.853 132.746,30.689 132.485,29.719 C132.224,30.689 128.789,39.844 128.789,39.844 L129.505,39.844 L129.511,39.844 Z" id="Shape" fill="#C4CED4"></path>
            <path d="M162.591,39.757 L162.95,40.486 L162.957,40.499 C166.243,39.167 167.688,36.948 167.9,33.669 C167.901,33.648 167.902,33.627 167.903,33.606 C167.904,33.591 167.905,33.576 167.905,33.562 C167.913,33.31 167.913,33.142 167.924,32.881 C167.929,32.766 167.931,32.585 167.928,32.472 C167.771,36.059 166.102,38.348 162.591,39.757" id="Shape" fill="#C4CED4"></path>
            <path d="M7.047,49.563 L9.597,44.192 L23.239,44.192 L25.79,49.563 L31.539,49.563 L16.438,19.436 L1.336,49.563 L2.452,49.563 L7.047,49.563 Z M16.401,30.196 L21.435,40.268 L20.486,40.268 L20.481,40.268 L19.499,40.268 L13.357,40.268 L12.411,40.268 L12.387,40.268 L11.494,40.268 L16.401,30.196 Z" id="Shape" fill="#000000"></path>
            <polygon id="Shape" fill="#C4CED4" points="16.401 31.743 20.486 40.268 21.435 40.268 16.401 30.196 11.494 40.268 12.387 40.268"></polygon>
            <polygon id="Shape" fill="#0077C8" points="12.388 40.268 12.41 40.268 13.356 40.268 16.402 33.802 19.5 40.268 20.481 40.268 20.487 40.268 16.402 31.743"></polygon>
            <polygon id="Shape" fill="#C4CED4" points="70.15 36.173 67.105 33.931 65.477 33.931 69.832 37.124 69.839 37.13"></polygon>
            <polygon id="Shape" fill="#C4CED4" points="72.535 37.877 68.676 40.681 68.173 42.229 72.535 39.059 76.897 42.229 76.394 40.681"></polygon>
            <polygon id="Shape" fill="#FF6600" points="262.251 50.633 256.413 35.187 248.85 50.086 241.256 35.258 235.586 50.633 224.876 50.633 222.821 44.795 213.275 44.795 211.225 50.612 205.631 50.612 205.014 52.184 211.534 52.184 213.584 46.367 222.54 46.367 224.598 52.199 236.396 52.205 241.256 38.251 248.85 52.581 256.413 38.179 261.481 52.205 268.776 52.205 268.137 50.633"></polygon>
            <path d="M192.772,52 C191.63,52 190.515,51.893 189.437,51.688 C188.36,51.483 187.32,51.182 186.329,50.793 C184.348,50.016 182.562,48.892 181.062,47.504 C178.437,45.075 176.686,41.837 176.289,38.233 C176.259,37.959 176.258,37.676 176.244,37.398 C176.231,37.654 176.204,37.907 176.204,38.165 C176.204,46.619 183.636,53.497 192.772,53.497 C201.744,53.497 207.1,47.231 207.1,36.735 L207.095,35.39 L207.083,35.466 C207.004,45.821 201.677,52 192.772,52" id="Shape" fill="#FF6600"></path>
            <path d="M219.354,35.1 C218.832,33.571 218.31,32.005 218.049,31.036 C217.788,32.005 217.265,33.571 216.744,35.1 L215.109,39.828 L215.94,39.828 L216.744,37.57 C217.265,36.042 217.788,34.476 218.049,33.506 C218.31,34.476 218.832,36.042 219.354,37.57 L220.158,39.828 L221.022,39.828 L219.354,35.1 Z" id="Shape" fill="#0077C8"></path>
            <path d="M207.1,35.014 L207.089,35.014 C206.863,45.102 201.55,51.102 192.772,51.102 C183.821,51.102 176.515,44.497 176.223,36.279 C176.222,36.249 176.216,36.22 176.216,36.19 C176.211,36.35 176.204,36.508 176.204,36.669 C176.204,36.915 176.232,37.155 176.244,37.398 C176.258,37.677 176.26,37.959 176.29,38.234 C176.686,41.837 178.437,45.076 181.062,47.505 C182.562,48.893 184.348,50.017 186.329,50.794 C187.32,51.182 188.36,51.484 189.438,51.688 C190.515,51.893 191.63,52.001 192.772,52.001 C201.677,52.001 207.013,45.822 207.093,35.467 C207.093,35.389 207.1,35.317 207.1,35.239 L207.1,35.014 L207.1,35.014 Z" id="Shape" fill="#C4CED4"></path>
            <path d="M210.635,49.713 L212.883,43.896 L223.308,43.896 L225.432,49.728 L234.777,49.734 L241.257,32.973 L248.851,47.378 L256.414,32.901 L263.044,49.734 L267.77,49.734 L256.784,22.761 L248.917,38.642 L240.878,22.692 L230.188,49.472 L220.696,24.51 L215.625,24.51 L205.976,49.713 L210.635,49.713 L210.635,49.713 Z M218.049,29.625 C218.31,30.595 221.67,39.828 221.67,39.828 L214.571,39.828 C214.57,39.828 217.788,30.595 218.049,29.625 L218.049,29.625 Z" id="Shape" fill="#000000"></path>
            <path d="M215.109,39.828 L216.744,35.1 C217.266,33.572 217.788,32.006 218.049,31.036 C218.31,32.006 218.832,33.572 219.354,35.1 L221.023,39.828 L221.67,39.828 C221.67,39.828 218.31,30.595 218.049,29.625 C217.788,30.595 214.572,39.828 214.572,39.828 L215.109,39.828 Z" id="Shape" fill="#C4CED4"></path>
            <polygon id="Shape" fill="#FF6600" points="167.945 50.629 167.944 50.629 161.94 50.629 157.279 41.233 152.022 41.233 152.022 42.804 157.279 42.804 161.94 52.201 168.719 52.201"></polygon>
            <rect id="Rectangle-path" fill="#FF6600" x="146.802" y="50.628" width="5.22" height="1.572"></rect>
            <path d="M152.022,40.334 L157.869,40.334 L162.53,49.731 L167.501,49.731 L163.577,41.765 L162.948,40.487 C162.948,40.487 162.95,40.486 162.951,40.486 L162.592,39.757 C166.102,38.348 167.772,36.059 167.929,32.472 C167.765,27.146 163.778,24.528 158.958,24.528 L146.802,24.528 L146.802,26.1 L146.802,33.669 L146.802,49.731 L152.022,49.731 L152.022,42.805 L152.022,41.233 L152.022,40.334 L152.022,40.334 Z M152.022,33.669 L152.022,31.171 L152.022,29.599 L152.022,28.701 L158.846,28.701 C161.158,28.701 162.575,29.67 162.575,32.019 L162.575,32.918 C162.575,33.185 162.553,33.433 162.517,33.669 C162.515,33.685 162.516,33.704 162.513,33.72 C162.229,35.455 160.965,36.311 158.846,36.311 L152.022,36.311 L152.022,33.669 L152.022,33.669 Z" id="Shape" fill="#000000"></path>
            <polygon id="Shape" fill="#C4CED4" points="157.869 40.334 152.022 40.334 152.022 41.233 157.279 41.233 161.94 50.629 167.918 50.629 167.944 50.629 167.501 49.73 162.53 49.73"></polygon>
            <polygon id="Shape" fill="#C4CED4" points="146.802 50.629 146.802 50.629 152.022 50.629 152.022 49.73 146.802 49.73"></polygon>
            <path d="M125.063,49.731 L127.114,43.914 L137.876,43.914 L139.927,49.731 L144.709,49.731 L141.052,40.109 L135.729,26.1 L135.132,24.528 L130.06,24.528 L120.411,49.731 L125.063,49.731 Z M132.484,29.719 C132.745,30.689 136.248,39.853 136.248,39.853 L135.467,39.853 L135.448,39.853 L134.565,39.853 L130.403,39.853 L129.501,39.853 L129.504,39.844 L128.788,39.844 C128.788,39.844 132.223,30.689 132.484,29.719 L132.484,29.719 Z" id="Shape" fill="#000000"></path>
            <polygon id="Shape" fill="#000000" points="115.862 29.674 115.862 28.775 122.562 28.775 123.357 28.775 123.357 26.1 123.357 24.528 103.147 24.528 103.147 26.1 103.147 28.775 103.889 28.775 110.642 28.775 110.642 29.674 110.642 49.731 111.667 49.731 115.065 49.731 115.862 49.731"></polygon>
            <rect id="Rectangle-path" fill="#C4CED4" x="103.147" y="28.775" width="7.495" height="1"></rect>
            <rect id="Rectangle-path" fill="#C4CED4" x="115.862" y="28.774" width="7.495" height="1"></rect>
            <rect id="Rectangle-path" fill="#C4CED4" x="110.642" y="49.73" width="5.22" height="1"></rect>
            <rect id="Rectangle-path" fill="#C4CED4" x="274.54" y="38.303" width="7.495" height="1"></rect>
            <rect id="Rectangle-path" fill="#C4CED4" x="274.539" y="28.72" width="12.902" height="1"></rect>
            <polygon id="Shape" fill="#C4CED4" points="267.77 49.735 263.044 49.735 256.413 32.902 248.851 47.379 241.256 32.973 234.776 49.735 225.432 49.729 223.308 43.897 212.883 43.897 210.634 49.714 205.976 49.714 205.632 50.612 211.225 50.612 213.276 44.795 222.821 44.795 224.876 50.634 235.587 50.634 241.256 35.259 248.851 50.087 256.413 35.188 262.251 50.634 268.094 50.634 268.136 50.634"></polygon>
            <rect id="Rectangle-path" fill="#C4CED4" x="269.32" y="49.713" width="18.681" height="1"></rect>
            <polygon id="Shape" fill="#C4CED4" points="144.709 49.73 139.927 49.73 137.876 43.913 127.114 43.913 125.063 49.73 120.412 49.73 120.068 50.629 120.07 50.629 125.661 50.629 127.712 44.812 137.257 44.812 139.308 50.629 145.05 50.629"></polygon>
            <polygon id="Shape" fill="#FF6600" points="32.103 50.686 32.103 50.686 25.453 50.686 22.903 45.315 9.934 45.315 7.384 50.686 0.783 50.686 0 52.183 7.759 52.183 10.309 46.812 22.528 46.812 25.079 52.183 32.855 52.183"></polygon>
            <polygon id="Shape" fill="#C4CED4" points="32.103 50.686 31.54 49.563 25.791 49.563 23.24 44.192 9.598 44.192 7.048 49.563 1.337 49.563 0.774 50.686 0.783 50.686 7.385 50.686 9.935 45.315 22.903 45.315 25.454 50.686"></polygon>
            <rect id="Rectangle-path" fill="#C4CED4" x="33.885" y="49.73" width="18.308" height="1"></rect>
            <path d="M193.514,40.254 L193.514,41.751 L200.489,41.751 C200.581,41.512 200.66,41.267 200.725,41.018 C200.789,40.768 200.838,40.514 200.87,40.254 L193.514,40.254 Z" id="Shape" fill="#FF6600"></path>
            <path d="M193.514,35.014 L193.514,36.511 L193.514,39.356 L194.39,39.356 L200.279,39.356 L200.95,39.356 C200.948,39.66 200.923,39.957 200.876,40.246 L200.87,40.255 C200.838,40.514 200.789,40.769 200.725,41.018 C200.66,41.268 200.581,41.512 200.489,41.752 C199.404,44.577 196.349,46.606 192.811,46.606 C187.26,46.606 182.875,42.558 182.522,37.274 C182.507,37.047 182.488,36.822 182.488,36.591 L182.488,35.692 C182.488,29.683 186.526,25.485 192.309,25.485 C196.595,25.485 199.289,27.271 200.256,28.047 C200.471,28.208 200.522,28.22 200.746,28.418 L203.283,24.546 C203.281,24.544 203.279,24.542 203.277,24.54 C201.9,23.479 198.048,20.989 192.231,20.989 C183.229,20.989 176.423,27.537 176.223,36.279 C176.515,44.497 183.821,51.102 192.772,51.102 C201.55,51.102 206.863,45.102 207.089,35.014 L193.514,35.014 L193.514,35.014 Z" id="Shape" fill="#000000"></path>
            <path d="M200.869,40.254 L200.875,40.246 C200.922,39.956 200.947,39.659 200.95,39.355 L200.278,39.355 L194.389,39.355 L193.513,39.355 L193.513,40.254 L200.869,40.254 Z" id="Shape" fill="#C4CED4"></path>
            <path d="M203.84,25.008 L203.809,25.056 L200.915,29.48 C200.691,29.281 200.471,29.106 200.256,28.945 C199.289,28.168 196.594,26.383 192.309,26.383 C191.951,26.383 191.6,26.4 191.257,26.431 C191.124,26.443 190.997,26.468 190.865,26.485 C190.659,26.512 190.45,26.534 190.249,26.572 C190.085,26.603 189.928,26.648 189.767,26.686 C189.608,26.724 189.446,26.756 189.291,26.801 C189.106,26.855 188.93,26.923 188.751,26.987 C188.629,27.03 188.504,27.067 188.385,27.115 C188.188,27.195 188,27.287 187.811,27.379 C187.719,27.423 187.623,27.462 187.532,27.51 C187.327,27.618 187.131,27.739 186.937,27.861 C186.871,27.902 186.802,27.939 186.738,27.981 C186.529,28.12 186.331,28.27 186.135,28.425 C186.092,28.46 186.045,28.491 186.002,28.526 C185.795,28.696 185.599,28.878 185.408,29.066 C185.382,29.091 185.354,29.114 185.329,29.14 C185.128,29.343 184.937,29.557 184.756,29.78 C184.744,29.794 184.732,29.806 184.721,29.82 C184.531,30.055 184.353,30.3 184.186,30.554 C184.184,30.558 184.181,30.561 184.179,30.565 C183.475,31.642 182.977,32.897 182.714,34.286 C182.596,34.911 182.521,35.561 182.502,36.238 L182.502,36.237 C182.499,36.356 182.487,36.47 182.487,36.59 C182.487,36.821 182.507,37.047 182.522,37.273 C182.588,36.218 182.784,35.228 183.093,34.313 C183.588,32.85 184.376,31.584 185.401,30.57 C185.413,30.558 185.426,30.547 185.439,30.535 C185.766,30.215 186.117,29.92 186.491,29.653 C186.506,29.642 186.521,29.63 186.536,29.619 C186.904,29.36 187.295,29.131 187.703,28.927 C187.767,28.895 187.833,28.866 187.897,28.836 C188.283,28.653 188.683,28.493 189.101,28.361 C189.132,28.352 189.161,28.339 189.192,28.329 C189.623,28.198 190.075,28.103 190.538,28.029 C190.643,28.012 190.749,27.998 190.856,27.984 C191.327,27.923 191.808,27.881 192.306,27.88 L192.308,27.88 C194.101,27.88 195.616,28.193 196.842,28.614 C197.25,28.754 197.627,28.906 197.971,29.063 C198.522,29.313 198.99,29.575 199.374,29.817 C199.565,29.938 199.736,30.055 199.885,30.162 C200.214,30.391 201.127,31.12 201.478,31.441 L202.878,29.315 L204.923,26.211 C204.923,26.211 204.534,25.676 203.84,25.008" id="Shape" fill="#0077C8"></path>
            <path d="M200.745,28.418 L200.745,28.418 C200.633,28.319 200.565,28.266 200.497,28.218 C200.43,28.17 200.363,28.127 200.255,28.047 C200.014,27.853 199.664,27.596 199.208,27.319 C198.867,27.111 198.465,26.893 198.006,26.682 C197.086,26.261 195.932,25.869 194.55,25.655 C193.859,25.548 193.112,25.485 192.308,25.485 C192.236,25.485 192.167,25.493 192.095,25.494 C186.429,25.598 182.487,29.757 182.487,35.692 L182.487,36.56 L182.488,36.556 C182.49,36.449 182.499,36.345 182.502,36.238 C182.52,35.561 182.595,34.911 182.714,34.286 C182.935,33.117 183.332,32.049 183.869,31.096 C183.97,30.917 184.067,30.735 184.178,30.565 C184.179,30.564 184.18,30.563 184.181,30.562 C184.182,30.559 184.184,30.557 184.186,30.555 C184.288,30.399 184.402,30.254 184.512,30.106 C184.583,30.012 184.647,29.912 184.72,29.821 C184.731,29.807 184.744,29.794 184.755,29.78 C184.937,29.558 185.128,29.343 185.329,29.14 C185.354,29.115 185.382,29.092 185.407,29.066 C185.598,28.878 185.795,28.697 186.002,28.526 C186.026,28.506 186.052,28.488 186.078,28.469 C186.097,28.455 186.116,28.44 186.135,28.425 C186.218,28.36 186.306,28.301 186.391,28.237 C186.505,28.151 186.617,28.061 186.737,27.981 C186.802,27.939 186.871,27.902 186.936,27.861 C187.131,27.739 187.327,27.618 187.532,27.51 C187.622,27.463 187.718,27.424 187.811,27.379 C188,27.288 188.188,27.195 188.384,27.115 C188.503,27.068 188.629,27.03 188.75,26.987 C188.853,26.95 188.957,26.917 189.06,26.881 C189.137,26.854 189.212,26.825 189.291,26.801 C189.36,26.781 189.432,26.767 189.503,26.75 C189.591,26.73 189.679,26.707 189.767,26.686 C189.927,26.648 190.084,26.603 190.249,26.572 C190.45,26.534 190.658,26.512 190.865,26.485 C190.996,26.469 191.123,26.444 191.256,26.431 C191.6,26.4 191.951,26.383 192.308,26.383 C193.112,26.383 193.859,26.446 194.55,26.553 C195.559,26.71 196.443,26.962 197.207,27.251 C197.606,27.401 197.971,27.561 198.302,27.724 C198.426,27.785 198.545,27.846 198.659,27.907 C198.904,28.038 199.127,28.167 199.327,28.292 C199.47,28.382 199.602,28.468 199.722,28.551 C199.785,28.595 199.845,28.637 199.902,28.678 C200.036,28.775 200.157,28.867 200.255,28.946 C200.349,29.015 200.446,29.102 200.541,29.178 C200.666,29.277 200.788,29.368 200.914,29.48 L202.361,27.268 L203.84,25.01 C203.569,24.754 203.303,24.559 203.283,24.545 L200.745,28.418 Z" id="Shape" fill="#C4CED4"></path>
            <path d="M100.534,23.695 L100.381,23.935 L98.209,27.272 L98.134,27.198 C96.578,25.641 94.564,24.675 92.762,24.675 C91.003,24.675 89.157,25.337 89.023,27.304 C89.008,27.523 88.982,27.919 89.05,28.419 C89.054,28.423 89.066,28.446 89.084,28.489 C89.079,28.431 89.058,28.38 89.057,28.32 C89.152,26.756 90.241,26.038 91.445,25.776 C91.509,25.762 91.575,25.755 91.64,25.744 C91.78,25.719 91.919,25.694 92.059,25.68 C92.269,25.659 92.481,25.648 92.691,25.648 C93.817,25.648 95.054,26.025 96.203,26.689 C96.663,26.954 97.109,27.265 97.528,27.616 C97.737,27.791 97.94,27.976 98.134,28.171 L98.33,28.367 L101.259,23.869 C101.259,23.869 101.049,23.685 101.016,23.652 C101.016,23.652 100.824,23.479 100.721,23.387 L100.72,23.387 C100.722,23.389 100.725,23.391 100.727,23.393 L100.534,23.695 Z" id="Shape" fill="#C4CED4"></path>
            <path d="M83.024,30.018 C83.027,30.033 83.029,30.048 83.031,30.063 C83.032,30.067 83.032,30.071 83.033,30.076 C83.078,30.31 83.134,30.535 83.198,30.754 C83.206,30.781 83.213,30.809 83.221,30.836 C83.285,31.047 83.36,31.25 83.441,31.447 C83.454,31.478 83.465,31.51 83.478,31.541 C83.56,31.732 83.651,31.917 83.747,32.096 L83.748,32.096 C83.752,32.105 83.757,32.114 83.762,32.123 C83.775,32.147 83.787,32.171 83.8,32.194 C83.897,32.369 84.002,32.537 84.113,32.701 C84.135,32.734 84.157,32.767 84.18,32.8 C84.291,32.96 84.409,33.114 84.531,33.264 L84.532,33.264 C84.55,33.287 84.569,33.309 84.588,33.332 C84.596,33.342 84.604,33.352 84.613,33.361 C84.736,33.507 84.864,33.649 84.997,33.787 L84.998,33.787 C85.001,33.79 85.004,33.793 85.007,33.796 C85.035,33.825 85.064,33.854 85.093,33.883 C85.226,34.017 85.363,34.147 85.505,34.273 C85.536,34.301 85.567,34.327 85.599,34.354 C85.603,34.358 85.608,34.362 85.613,34.366 L85.613,34.367 C85.756,34.49 85.901,34.611 86.05,34.727 C86.089,34.758 86.129,34.787 86.169,34.817 C86.318,34.931 86.47,35.043 86.625,35.151 C86.668,35.181 86.712,35.21 86.756,35.239 C86.91,35.345 87.066,35.449 87.225,35.549 C87.228,35.551 87.232,35.553 87.235,35.555 C87.279,35.582 87.323,35.609 87.367,35.636 C87.524,35.733 87.682,35.829 87.842,35.922 C87.896,35.954 87.951,35.984 88.005,36.015 C88.161,36.104 88.318,36.192 88.476,36.279 L88.478,36.28 C88.484,36.283 88.491,36.287 88.498,36.29 C88.549,36.317 88.6,36.344 88.651,36.372 C88.805,36.454 88.96,36.537 89.115,36.617 C89.194,36.659 89.274,36.699 89.354,36.739 C89.487,36.808 89.621,36.877 89.754,36.944 C89.966,37.05 90.178,37.156 90.388,37.26 C90.74,37.435 91.084,37.607 91.421,37.779 C91.528,37.834 91.629,37.89 91.734,37.945 C91.962,38.064 92.191,38.184 92.408,38.305 C92.534,38.375 92.649,38.448 92.771,38.518 C92.956,38.627 93.141,38.735 93.315,38.847 C93.438,38.927 93.55,39.011 93.667,39.093 C93.822,39.202 93.976,39.31 94.117,39.423 C94.229,39.513 94.329,39.609 94.433,39.702 C94.558,39.816 94.682,39.931 94.793,40.051 C94.887,40.152 94.969,40.259 95.052,40.366 C95.148,40.489 95.24,40.616 95.321,40.747 C95.391,40.861 95.45,40.982 95.507,41.103 C95.572,41.24 95.629,41.382 95.676,41.529 C95.718,41.659 95.75,41.793 95.777,41.931 C95.823,42.164 95.866,42.398 95.866,42.656 C95.866,42.801 95.839,42.932 95.824,43.068 C95.826,43.07 95.829,43.07 95.832,43.07 C95.906,42.593 95.95,42.156 95.938,41.711 C95.868,38.977 93.327,37.75 90.388,36.287 C86.989,34.595 83.166,32.674 82.912,28.026 C82.91,27.998 82.905,27.973 82.904,27.945 C82.892,28.132 82.884,28.321 82.884,28.515 C82.884,28.771 82.901,29.015 82.921,29.256 C82.943,29.519 82.979,29.772 83.024,30.018" id="Shape" fill="#C4CED4"></path>
            <path d="M102.122,43.029 C102.108,43.295 102.088,43.558 102.05,43.812 C102.014,44.085 101.966,44.351 101.9,44.607 C101.737,45.24 101.499,45.83 101.196,46.375 C100.892,46.921 100.524,47.423 100.102,47.88 C97.992,50.167 94.536,51.343 91.106,51.343 C88.22,51.343 85.308,50.17 83.223,48.864 C82.276,48.271 81.5,47.65 80.974,47.1 L80.878,46.999 L80.846,46.965 L80.119,47.935 L80.292,48.121 C81.972,49.882 86.448,52.873 91.106,52.84 C96.594,52.8 102.149,49.83 102.149,44.076 C102.149,43.703 102.14,43.356 102.122,43.029" id="Shape" fill="#FF6600"></path>
            <path d="M98.134,28.172 C97.94,27.977 97.737,27.792 97.527,27.617 C97.108,27.266 96.663,26.955 96.203,26.69 C95.054,26.026 93.817,25.649 92.69,25.649 C92.48,25.649 92.269,25.66 92.059,25.681 C91.919,25.695 91.779,25.72 91.64,25.745 C91.575,25.756 91.509,25.763 91.445,25.777 C90.241,26.039 89.152,26.757 89.057,28.321 C89.058,28.381 89.079,28.432 89.084,28.49 C89.099,28.675 89.117,28.859 89.17,29.028 C89.597,27.661 91.183,27.15 92.69,27.146 C95.216,27.139 96.848,28.588 97.72,29.287 C97.939,29.462 98.537,30.038 98.537,30.038 L102.082,24.646 C102.082,24.646 102.024,24.583 101.912,24.472 C101.775,24.336 101.551,24.124 101.259,23.87 L98.33,28.368 L98.134,28.172 Z" id="Shape" fill="#0077C8"></path>
            <path d="M87.365,35.635 C87.366,35.636 87.367,35.636 87.368,35.637 C87.324,35.609 87.279,35.583 87.235,35.555 C87.278,35.582 87.322,35.608 87.365,35.635" id="Shape" fill="#FFFFFF"></path>
            <path d="M87.844,35.924 C87.894,35.953 87.944,35.98 87.994,36.009 C87.998,36.011 88.001,36.013 88.005,36.015 C87.951,35.984 87.896,35.954 87.842,35.923 C87.842,35.923 87.843,35.924 87.844,35.924" id="Shape" fill="#FFFFFF"></path>
            <path d="M88.636,36.364 C88.641,36.367 88.646,36.369 88.651,36.372 L88.498,36.291 C88.543,36.315 88.59,36.339 88.636,36.364" id="Shape" fill="#FFFFFF"></path>
            <path d="M89.115,36.618 C89.184,36.653 89.252,36.688 89.321,36.723 C89.332,36.729 89.343,36.734 89.354,36.74 C89.274,36.699 89.194,36.659 89.115,36.618 Z" id="Shape" fill="#FFFFFF"></path>
            <path d="M95.824,43.069 C95.84,42.932 95.866,42.802 95.866,42.657 C95.866,42.399 95.823,42.165 95.777,41.932 C95.751,41.794 95.718,41.66 95.676,41.53 C95.629,41.383 95.572,41.241 95.507,41.103 C95.45,40.982 95.391,40.862 95.321,40.748 C95.241,40.616 95.148,40.49 95.052,40.366 C94.969,40.26 94.887,40.153 94.794,40.052 C94.682,39.932 94.558,39.817 94.433,39.703 C94.329,39.61 94.229,39.514 94.117,39.424 C93.976,39.311 93.822,39.202 93.668,39.094 C93.551,39.012 93.439,38.928 93.315,38.848 C93.142,38.736 92.956,38.628 92.771,38.519 C92.65,38.448 92.534,38.376 92.408,38.306 C92.191,38.185 91.963,38.065 91.734,37.946 C91.629,37.891 91.528,37.835 91.421,37.78 C91.085,37.608 90.74,37.436 90.388,37.261 C90.178,37.157 89.967,37.051 89.754,36.944 C89.621,36.877 89.487,36.809 89.354,36.74 C89.343,36.735 89.332,36.729 89.321,36.723 C89.252,36.688 89.184,36.654 89.115,36.618 C88.96,36.538 88.805,36.455 88.651,36.372 C88.646,36.37 88.641,36.367 88.636,36.364 C88.59,36.34 88.544,36.316 88.498,36.291 C88.491,36.287 88.485,36.284 88.478,36.28 L88.477,36.28 C88.318,36.193 88.162,36.105 88.005,36.015 C88.002,36.013 87.998,36.011 87.994,36.009 C87.945,35.981 87.894,35.953 87.845,35.924 C87.844,35.924 87.843,35.923 87.843,35.923 C87.682,35.83 87.525,35.734 87.367,35.637 C87.367,35.636 87.366,35.636 87.365,35.635 C87.322,35.609 87.278,35.582 87.235,35.556 C87.232,35.554 87.229,35.552 87.226,35.55 L87.225,35.55 C87.066,35.449 86.91,35.346 86.756,35.24 C86.712,35.211 86.668,35.182 86.625,35.152 C86.47,35.044 86.319,34.932 86.169,34.818 C86.129,34.788 86.09,34.759 86.051,34.728 C85.901,34.612 85.756,34.491 85.613,34.368 C85.608,34.363 85.604,34.359 85.599,34.355 C85.568,34.328 85.537,34.302 85.506,34.275 L85.506,34.274 C85.364,34.148 85.226,34.018 85.093,33.884 L85.092,33.883 C85.063,33.854 85.035,33.826 85.007,33.797 L84.998,33.788 L84.998,33.787 C84.864,33.65 84.736,33.508 84.613,33.362 L84.612,33.362 C84.604,33.352 84.597,33.343 84.589,33.333 C84.57,33.31 84.551,33.288 84.532,33.265 L84.532,33.264 C84.409,33.115 84.292,32.961 84.18,32.801 C84.157,32.768 84.135,32.735 84.113,32.702 C84.003,32.538 83.898,32.37 83.8,32.195 C83.787,32.172 83.775,32.148 83.762,32.124 C83.757,32.115 83.753,32.106 83.748,32.097 C83.651,31.917 83.56,31.733 83.479,31.542 C83.466,31.511 83.454,31.479 83.441,31.448 C83.36,31.251 83.285,31.048 83.221,30.837 C83.213,30.81 83.207,30.782 83.199,30.755 C83.135,30.536 83.078,30.311 83.033,30.077 L83.033,30.076 C83.032,30.072 83.032,30.068 83.031,30.064 C83.029,30.049 83.027,30.034 83.024,30.019 C82.979,29.773 82.943,29.52 82.921,29.257 L82.921,29.256 C82.897,29.508 82.884,29.76 82.884,30.013 C82.884,33.144 84.441,35.094 86.468,36.543 C86.873,36.833 87.298,37.102 87.732,37.358 C87.949,37.485 88.168,37.609 88.39,37.73 C89.053,38.094 89.729,38.43 90.388,38.759 C90.426,38.777 90.463,38.796 90.501,38.815 C90.801,38.964 91.096,39.112 91.385,39.259 C91.528,39.332 91.663,39.406 91.803,39.48 C91.988,39.577 92.173,39.674 92.35,39.772 C92.509,39.86 92.658,39.951 92.81,40.04 C92.955,40.126 93.101,40.211 93.238,40.299 C93.393,40.397 93.537,40.499 93.681,40.601 C93.8,40.685 93.918,40.77 94.029,40.857 C94.169,40.966 94.299,41.079 94.426,41.194 C94.523,41.281 94.615,41.371 94.704,41.462 C94.821,41.583 94.931,41.708 95.033,41.837 C95.108,41.932 95.175,42.031 95.24,42.131 C95.33,42.267 95.416,42.404 95.487,42.549 C95.538,42.655 95.576,42.767 95.617,42.878 C95.674,43.031 95.732,43.184 95.767,43.348 C95.769,43.356 95.775,43.39 95.781,43.428 C95.791,43.374 95.794,43.329 95.803,43.277 C95.814,43.21 95.816,43.138 95.824,43.069" id="Shape" fill="#0077C8"></path>
            <polygon id="Shape" fill="#C4CED4" points="74.924 36.157 75.234 37.114 75.234 37.113 79.592 33.932 77.964 33.932"></polygon>
            <path d="M80.975,47.1 C81.5,47.65 82.276,48.271 83.224,48.865 C85.308,50.17 88.221,51.343 91.106,51.343 C94.536,51.343 97.993,50.167 100.103,47.88 C100.525,47.423 100.893,46.921 101.196,46.376 C101.499,45.83 101.738,45.24 101.9,44.608 C101.966,44.351 102.015,44.085 102.051,43.812 C102.089,43.558 102.109,43.295 102.123,43.029 C102.129,42.903 102.13,42.086 102.128,42.115 C101.808,47.534 96.429,50.369 91.106,50.369 C87.405,50.369 83.667,48.442 81.682,46.778 L81.263,46.39 L81.266,46.387 C81.264,46.385 81.263,46.384 81.261,46.383 L80.846,46.965 L80.879,46.999 L80.975,47.1 Z" id="Shape" fill="#C4CED4"></path>
            <path d="M81.682,46.778 C83.667,48.442 87.405,50.369 91.106,50.369 C96.429,50.369 101.808,47.534 102.128,42.114 C102.198,36.322 97.419,34.177 93.794,32.483 C91.589,31.452 89.588,30.56 89.171,29.027 C89.111,28.81 89.075,28.609 89.049,28.419 C88.982,27.92 89.008,27.523 89.023,27.304 C89.157,25.338 91.002,24.675 92.762,24.675 C94.564,24.675 96.578,25.642 98.134,27.198 L98.209,27.272 L100.534,23.695 L100.727,23.393 C100.725,23.392 100.722,23.389 100.72,23.388 C99.776,22.548 97.828,21.226 95.272,20.62 C95.128,20.586 94.979,20.559 94.832,20.53 C94.45,20.455 94.06,20.4 93.656,20.363 C93.56,20.354 93.463,20.349 93.366,20.342 C93.127,20.327 92.897,20.292 92.652,20.292 C87.949,20.292 83.204,22.951 82.912,28.026 C83.166,32.674 86.989,34.595 90.388,36.287 C93.328,37.75 95.869,38.977 95.939,41.711 C95.95,42.157 95.906,42.593 95.833,43.07 C95.822,43.139 95.815,43.204 95.803,43.276 C95.794,43.329 95.791,43.373 95.781,43.428 C95.78,43.432 95.78,43.436 95.779,43.44 C95.421,45.044 93.92,45.948 91.531,45.948 C87.908,45.948 85.162,43.774 84.149,42.839 L83.964,42.668 L81.265,46.386 L81.263,46.389 L81.682,46.778 Z" id="Shape" fill="#000000"></path>
        </g>
    </g>
</svg>