<?xml version="1.0" encoding="UTF-8" standalone="no"?>
<svg
   xmlns:dc="http://purl.org/dc/elements/1.1/"
   xmlns:cc="http://creativecommons.org/ns#"
   xmlns:rdf="http://www.w3.org/1999/02/22-rdf-syntax-ns#"
   xmlns:svg="http://www.w3.org/2000/svg"
   xmlns="http://www.w3.org/2000/svg"
   viewBox="0 0 400 408"
   height="408"
   width="400"
   xml:space="preserve"
   id="svg2"
   version="1.1"><metadata
     id="metadata8"><rdf:RDF><cc:Work
         rdf:about=""><dc:format>image/svg+xml</dc:format><dc:type
           rdf:resource="http://purl.org/dc/dcmitype/StillImage" /></cc:Work></rdf:RDF></metadata><defs
     id="defs6"><clipPath
       id="clipPath20"
       clipPathUnits="userSpaceOnUse"><path
         id="path18"
         d="m 2134.13,2336.16 c -61.48,-5.68 -255.44,-79.54 -255.44,-79.54 36.32,31.54 191.66,99.38 191.66,99.38 -83.08,3.36 -209.72,-59.7 -209.72,-59.7 0,0 55.8,57.74 139.76,85.91 9.91,21.08 28.87,41.27 28.87,41.27 l -48.01,-1.6 c 9.74,14.01 35.08,30.3 59.52,40.4 -51.01,12.04 -132.14,11.87 -132.14,11.87 57.22,37.02 153.75,21.07 153.75,21.07 5.67,12.76 37.91,29.76 75.47,22.68 1.59,7.08 7.44,15.94 26.75,19.48 l -62.89,13.29 60.58,13.63 c -134.62,45.71 -275.44,77.95 -420.88,94.78 -45.88,-86.45 -136.92,-145.44 -241.26,-145.44 -104.69,0 -195.56,58.99 -241.44,145.44 -141,-16.48 -277.933,-47.13 -408.827,-90.53 81.472,-33.65 163.847,-108.05 224.787,-170.22 0,0 -67.67,27.1 -81.135,30.46 0,0 58.985,-43.04 94.945,-84.84 0,0 -92.816,66.42 -184.757,88.03 6.207,-8.85 12.054,-17.71 17.535,-26.39 59.347,-19.31 128.962,-49.42 171.112,-93.35 0,0 -78.64,44.82 -156.581,68.73 6.734,-12.22 12.934,-24.09 18.066,-35.43 47.835,-23.02 101.855,-52.78 144.195,-86.98 0,0 -68.91,35.08 -133.034,60.76 4.429,-10.8 7.976,-21.08 10.808,-30.29 19.313,-14.16 38.796,-30.99 55.446,-50.31 81.66,-13.81 166.68,-23.9 254.19,-30.28 v 59.52 c 0,88.57 110.54,136.22 214.69,136.22 103.8,0 214.51,-47.65 214.51,-136.22 v -59.52 c 138.17,9.92 270.14,29.76 392.54,57.75 19.84,20.36 37.56,36.66 37.56,36.66 -29.05,-4.78 -108.94,-38.08 -108.94,-38.08 15.58,28.87 98.31,71.39 98.31,71.39 z m -1245.642,56.33 c -11.687,1.94 -23.203,3 -33.828,3 -6.195,0 -11.871,-0.17 -17.363,-1.06 0,0 28.703,-10.09 69.613,-27.63 -6.191,9.04 -12.215,17.36 -18.422,25.69 z m 1337.572,32.94 148.8,-14.88 c 0,0 -70.5,13.64 -135.16,26.04 z m -100.08,30.29 c -31,0 -44.11,-15.59 -44.11,-15.59 l 104.15,-10.45 18.61,13.29 c -27.1,5.13 -50.32,9.38 -62,11.15 -6.2,1.08 -11.69,1.6 -16.65,1.6 z m 137.63,30.65 -49.42,15.76 v -25.86 l 24.09,-8.5 z M 873.969,2345.71 c 0,0 30.64,-11.51 68.375,-34.35 -4.422,7.26 -8.856,14.52 -13.106,21.43 -22.328,7.62 -42.164,12.92 -55.269,12.92 z m 1463.691,103.64 3.72,12.4 -50.84,16.12 -24.44,-19.84 32.24,-11.16 c 0,0 26.03,6.91 39.32,2.48 z M 638.902,2431.09 c -11.332,0 -24.793,-0.34 -31.351,-1.58 l 9.211,-12.05 64.304,-15.94 -22.855,29.23 c 0,0 -8.856,0.34 -19.309,0.34 z m 156.594,67.85 c -41.094,-3.18 -72.101,-11.16 -72.101,-11.16 33.839,-1.06 63.25,-3.01 88.753,-4.95 -5.664,5.84 -11.515,11.16 -16.652,16.11 z m 57.031,-60.39 c -0.699,0 -1.23,0 -1.945,0 -13.633,0 -26.922,-1.6 -39.32,-5.15 0,0 22.5,-3.72 55.269,-12.04 -4.789,5.84 -9.394,11.87 -14.004,17.19 z m 75.996,28.5 -41.625,27.64 c -12.929,2.66 -26.39,4.25 -39.675,5.13 7.437,-7.61 14.343,-15.23 21.082,-23.02 40.023,-5.14 60.218,-9.75 60.218,-9.75 z m -156.941,-60.57 27.453,-32.06 c -4.953,1.95 -71.562,15.94 -71.562,15.94 l -23.203,24.09 c 3.191,1.07 7.082,1.41 11.687,1.41 21.969,0 55.625,-9.38 55.625,-9.38 z" /></clipPath><linearGradient
       id="linearGradient26"
       spreadMethod="pad"
       gradientTransform="matrix(0,450.64,450.64,0,1491.2,2208.44)"
       gradientUnits="userSpaceOnUse"
       y2="0"
       x2="1"
       y1="0"
       x1="0"><stop
         id="stop22"
         offset="0"
         style="stop-opacity:1;stop-color:#ffffff" /><stop
         id="stop24"
         offset="1"
         style="stop-opacity:1;stop-color:#75b5e6" /></linearGradient><clipPath
       id="clipPath36"
       clipPathUnits="userSpaceOnUse"><path
         id="path34"
         d="M 0,3059.97 V 0 h 3000 v 3059.97 z" /></clipPath></defs><g
     transform="matrix(1.3333333,0,0,-1.3333333,0,408)"
     id="g10"><g
       transform="scale(0.1)"
       id="g12"><g
         id="g14"><g
           clip-path="url(#clipPath20)"
           id="g16"><path
             id="path28"
             style="fill:url(#linearGradient26);fill-opacity:1;fill-rule:nonzero;stroke:none"
             d="m 2134.13,2336.16 c -61.48,-5.68 -255.44,-79.54 -255.44,-79.54 36.32,31.54 191.66,99.38 191.66,99.38 -83.08,3.36 -209.72,-59.7 -209.72,-59.7 0,0 55.8,57.74 139.76,85.91 9.91,21.08 28.87,41.27 28.87,41.27 l -48.01,-1.6 c 9.74,14.01 35.08,30.3 59.52,40.4 -51.01,12.04 -132.14,11.87 -132.14,11.87 57.22,37.02 153.75,21.07 153.75,21.07 5.67,12.76 37.91,29.76 75.47,22.68 1.59,7.08 7.44,15.94 26.75,19.48 l -62.89,13.29 60.58,13.63 c -134.62,45.71 -275.44,77.95 -420.88,94.78 -45.88,-86.45 -136.92,-145.44 -241.26,-145.44 -104.69,0 -195.56,58.99 -241.44,145.44 -141,-16.48 -277.933,-47.13 -408.827,-90.53 81.472,-33.65 163.847,-108.05 224.787,-170.22 0,0 -67.67,27.1 -81.135,30.46 0,0 58.985,-43.04 94.945,-84.84 0,0 -92.816,66.42 -184.757,88.03 6.207,-8.85 12.054,-17.71 17.535,-26.39 59.347,-19.31 128.962,-49.42 171.112,-93.35 0,0 -78.64,44.82 -156.581,68.73 6.734,-12.22 12.934,-24.09 18.066,-35.43 47.835,-23.02 101.855,-52.78 144.195,-86.98 0,0 -68.91,35.08 -133.034,60.76 4.429,-10.8 7.976,-21.08 10.808,-30.29 19.313,-14.16 38.796,-30.99 55.446,-50.31 81.66,-13.81 166.68,-23.9 254.19,-30.28 v 59.52 c 0,88.57 110.54,136.22 214.69,136.22 103.8,0 214.51,-47.65 214.51,-136.22 v -59.52 c 138.17,9.92 270.14,29.76 392.54,57.75 19.84,20.36 37.56,36.66 37.56,36.66 -29.05,-4.78 -108.94,-38.08 -108.94,-38.08 15.58,28.87 98.31,71.39 98.31,71.39 z m -1245.642,56.33 c -11.687,1.94 -23.203,3 -33.828,3 -6.195,0 -11.871,-0.17 -17.363,-1.06 0,0 28.703,-10.09 69.613,-27.63 -6.191,9.04 -12.215,17.36 -18.422,25.69 z m 1337.572,32.94 148.8,-14.88 c 0,0 -70.5,13.64 -135.16,26.04 z m -100.08,30.29 c -31,0 -44.11,-15.59 -44.11,-15.59 l 104.15,-10.45 18.61,13.29 c -27.1,5.13 -50.32,9.38 -62,11.15 -6.2,1.08 -11.69,1.6 -16.65,1.6 z m 137.63,30.65 -49.42,15.76 v -25.86 l 24.09,-8.5 z M 873.969,2345.71 c 0,0 30.64,-11.51 68.375,-34.35 -4.422,7.26 -8.856,14.52 -13.106,21.43 -22.328,7.62 -42.164,12.92 -55.269,12.92 z m 1463.691,103.64 3.72,12.4 -50.84,16.12 -24.44,-19.84 32.24,-11.16 c 0,0 26.03,6.91 39.32,2.48 z M 638.902,2431.09 c -11.332,0 -24.793,-0.34 -31.351,-1.58 l 9.211,-12.05 64.304,-15.94 -22.855,29.23 c 0,0 -8.856,0.34 -19.309,0.34 z m 156.594,67.85 c -41.094,-3.18 -72.101,-11.16 -72.101,-11.16 33.839,-1.06 63.25,-3.01 88.753,-4.95 -5.664,5.84 -11.515,11.16 -16.652,16.11 z m 57.031,-60.39 c -0.699,0 -1.23,0 -1.945,0 -13.633,0 -26.922,-1.6 -39.32,-5.15 0,0 22.5,-3.72 55.269,-12.04 -4.789,5.84 -9.394,11.87 -14.004,17.19 z m 75.996,28.5 -41.625,27.64 c -12.929,2.66 -26.39,4.25 -39.675,5.13 7.437,-7.61 14.343,-15.23 21.082,-23.02 40.023,-5.14 60.218,-9.75 60.218,-9.75 z m -156.941,-60.57 27.453,-32.06 c -4.953,1.95 -71.562,15.94 -71.562,15.94 l -23.203,24.09 c 3.191,1.07 7.082,1.41 11.687,1.41 21.969,0 55.625,-9.38 55.625,-9.38" /></g></g><g
         id="g30"><g
           clip-path="url(#clipPath36)"
           id="g32"><path
             id="path38"
             style="fill:#ffffff;fill-opacity:1;fill-rule:nonzero;stroke:none"
             d="m 2501.36,899.16 c -19.49,13.281 -41.81,25.32 -66.07,35.949 l 564.71,564.901 -218.58,218.58 -0.18,588.63 c 0,78.12 -55.09,136.93 -128.25,136.93 -8.5,0 -17.01,-0.71 -25.51,-2.48 l 0.36,-13.28 c 8.32,1.77 16.82,2.65 25.15,2.65 65.54,0 114.96,-53.14 114.96,-123.82 l 0.36,-594.12 213.09,-213.09 -569.49,-569.498 c 30.64,-12.051 58.45,-26.403 82.01,-42.34 86.09,-58.281 88.57,-119.211 82.37,-150.391 C 2558.93,650.629 2502.42,627.25 2431.92,591.109 2343.89,546.121 2262.75,475.27 2243.62,423.191 2207.66,325.23 2142.48,304.68 2094.12,304.68 c -43.75,0 -89.45,16.652 -128.43,32.949 -34,14.351 -71.38,26.391 -110.18,36.492 L 1500,18.7812 1144.66,374.121 C 1105.69,364.02 1068.14,351.98 1033.95,337.629 994.977,321.332 949.277,304.68 905.527,304.68 c -48.359,0 -113.547,20.55 -149.328,118.511 -19.133,52.079 -100.437,122.93 -188.476,167.918 -70.325,36.141 -127.008,59.52 -144.368,146.672 -6.199,31.18 -3.718,92.11 82.372,150.391 23.554,16.117 51.546,30.469 82.367,42.508 L 18.7734,1500.01 231.691,1713.1 v 604.22 c 0,49.42 36.848,99.38 118.86,99.38 6.91,0 13.996,-0.36 21.433,-1.07 l 0.36,13.11 c -7.442,0.71 -14.883,1.06 -21.793,1.06 -41.27,0 -75.633,-12.04 -99.371,-34.72 -21.082,-20.19 -32.594,-47.82 -32.594,-77.76 V 1718.59 L 0,1500.01 564.715,935.289 C 540.27,924.48 517.945,912.441 498.285,899.16 405.996,836.449 403.695,769.672 410.426,735.301 427.961,647.262 483.938,618.75 548.77,585.98 c 4.25,-2.128 8.679,-4.261 12.933,-6.558 86.442,-44.281 164.735,-113.371 182.094,-160.84 17.008,-46.762 42.34,-81.312 75.289,-102.562 25.152,-16.301 54.379,-24.629 86.441,-24.629 46.051,0 93.348,17.191 133.563,34.191 31.35,13.109 65.72,24.449 101.5,33.828 L 1500,0 1859.41,359.41 c 35.61,-9.558 69.97,-20.719 101.33,-33.828 40.03,-17 87.32,-34.191 133.38,-34.191 32.24,0 61.29,8.328 86.62,24.629 32.77,21.25 58.1,55.8 75.28,102.562 17.36,47.469 95.66,116.559 181.93,160.84 4.42,2.297 8.67,4.43 12.93,6.558 64.83,32.77 120.8,61.282 138.34,149.321 6.91,34.371 4.43,101.148 -87.86,163.859" /><path
             id="path40"
             style="fill:#7b7678;fill-opacity:1;fill-rule:nonzero;stroke:none"
             d="m 2620.92,2716.15 c 1.59,2.65 2.83,5.67 3.89,8.68 4.25,13.1 2.3,27.81 -5.84,39.85 -4.61,7.09 -11.34,13.11 -18.96,17.18 -2.48,4.44 -4.25,9.92 -5.13,15.06 3.36,6.91 5.31,14.53 5.31,22.67 0,27.82 -22.5,50.49 -50.31,50.49 -27.81,0 -50.48,-22.67 -50.48,-50.49 0,-8.14 1.95,-15.76 5.49,-22.67 -1.06,-5.14 -2.66,-10.62 -5.32,-15.06 -7.61,-4.07 -14.17,-10.09 -18.95,-17.18 -7.97,-12.04 -10.1,-26.75 -5.84,-40.03 1.06,-3.01 2.3,-5.85 3.89,-8.5 l -0.88,-35.61 c -223.55,105.93 -466.94,176.61 -723.08,204.95 -39.5,102.03 -138.87,174.48 -254.55,174.48 -115.84,0 -215.04,-72.45 -254.72,-174.48 -256.143,-28.34 -499.71,-99.02 -723.077,-204.95 l -0.886,35.61 c 1.593,2.65 2.832,5.49 3.718,8.5 4.434,13.28 2.305,27.99 -5.664,40.03 -4.785,7.09 -11.336,13.11 -19.133,17.18 -2.48,4.44 -4.074,9.92 -5.132,15.06 3.539,6.91 5.484,14.53 5.484,22.67 0,27.82 -22.672,50.49 -50.484,50.49 -27.805,0 -50.305,-22.67 -50.305,-50.49 0,-8.14 1.949,-15.76 5.312,-22.67 -1.058,-5.14 -2.652,-10.62 -5.136,-15.06 -7.793,-4.07 -14.344,-10.09 -19.129,-17.18 -7.969,-12.04 -9.918,-26.75 -5.664,-39.85 1.058,-3.01 2.301,-6.03 3.89,-8.68 l -7.261,-300.61 c 27.812,-2.65 58.632,-10.45 89.808,-23.02 11.164,-4.43 33.657,-15.06 33.657,-15.06 h 0.035 l -2.301,71.16 c 237.715,130.72 503.422,216.82 785.778,246.57 35.96,-86.62 121.52,-147.73 221.07,-147.73 99.55,0 185.29,61.11 221.25,147.73 282,-29.75 547.53,-115.67 785.07,-246.4 l -1.6,-72.03 c 30.81,12.4 60.39,25.51 88.72,39.14 11.34,5.84 22.85,9.92 34.36,12.4 l -6.9,287.85" /><path
             id="path42"
             style="fill:#ffffff;fill-opacity:1;fill-rule:nonzero;stroke:none"
             d="m 1268.72,2725.18 c -34.9,-3.72 -69.8,-8.33 -104.34,-13.81 l 1.24,85.38 102.38,-69.09 c -3.36,13.46 -5.66,27.45 -6.73,41.63 l -66.42,44.81 c 22.67,3.19 45.52,5.85 68.38,8.33 1.76,10.8 4.07,21.43 7.08,31.88 -223.37,-22.49 -440.365,-77.94 -647.794,-165.79 -45.348,-19.14 -89.813,-39.69 -133.559,-61.47 v -0.53 l -1.598,0.7 1.239,-34.36 0.359,-0.18 v -1.06 c 0.527,0.17 0.887,0.35 1.238,0.53 l 113.899,-51.9 c -37.906,-17.71 -75.282,-36.49 -112.125,-56.16 l 1.234,-35.6 c 237.723,130.9 503.43,217 785.607,246.76 -3.9,9.74 -7.44,19.66 -10.09,29.93 m -638.056,-163.32 -105.039,48.01 c 34.543,17 69.613,32.94 105.039,48.17 z m 41.629,8.68 c -3.543,-1.59 -7.266,-3.19 -10.805,-4.79 v 89.46 l 108.938,-46.06 c -32.949,-12.04 -65.539,-24.97 -98.133,-38.61 m 126.652,60.05 -115.851,48.89 c 38.09,15.06 76.703,29.23 115.851,42.34 z m 30.821,-0.88 v 89.45 l 107.527,-56.86 c -36.137,-9.75 -72.098,-20.73 -107.527,-32.59 m 137.285,51.72 -110.891,58.45 c 36.668,11.16 73.516,21.26 110.891,30.47 z m 30.82,-3.37 v 85.21 l 104.869,-62.53 c -35.25,-6.74 -70.15,-14.18 -104.869,-22.68 m 135.859,40.03 -110,65.55 c 36.85,7.97 73.87,15.23 111.25,21.43 l -1.25,-86.98" /><path
             id="path44"
             style="fill:#ffffff;fill-opacity:1;fill-rule:nonzero;stroke:none"
             d="m 2511.09,2626.52 v 0.53 c -43.76,21.78 -88.22,42.33 -133.39,61.46 -207.43,87.86 -424.6,143.31 -647.79,165.8 3.01,-10.45 5.31,-21.08 6.91,-31.88 23.02,-2.48 45.7,-5.14 68.37,-8.33 l -66.25,-44.81 c -1.06,-14.18 -3.37,-28.17 -6.91,-41.63 l 102.39,69.09 1.24,-85.39 c -34.55,5.49 -69.26,10.1 -104.16,13.82 -2.83,-10.27 -6.2,-20.19 -10.27,-29.94 282.35,-29.76 548.06,-115.85 785.78,-246.75 l 1.06,35.6 c -36.67,19.66 -74.04,38.45 -112.13,56.16 l 114.08,51.9 c 0.35,-0.18 0.71,-0.36 1.07,-0.53 v 1.06 l 0.53,0.18 1.06,34.36 z m -645.85,178.55 c 37.37,-6.2 74.4,-13.46 111.07,-21.43 l -109.83,-65.55 z m 137.11,-127.01 c -34.9,8.5 -69.8,15.94 -104.87,22.67 l 104.87,62.53 z m 30.64,92.29 c 37.38,-9.21 74.4,-19.31 110.89,-30.47 l -110.89,-58.45 z m 137.46,-140.65 c -35.61,11.87 -71.39,22.85 -107.53,32.6 l 107.53,56.86 z m 30.82,92.12 c 39.15,-13.11 77.76,-27.29 115.85,-42.34 l -115.85,-48.89 z m 137.28,-156.07 c -3.54,1.6 -7.08,3.2 -10.8,4.79 -32.42,13.64 -65.19,26.57 -98.14,38.61 l 108.94,46.06 z m 30.82,-3.89 v 96.18 c 35.61,-15.23 70.68,-31.17 105.22,-48.18 l -105.22,-48" /><path
             id="path46"
             style="fill:#ffffff;fill-opacity:1;fill-rule:nonzero;stroke:none"
             d="m 2513.18,2728.69 c 9.74,4.25 22.49,6.9 36.66,6.9 9.21,0 17.89,-1.05 25.51,-3.18 -27.1,-4.25 -35.07,-16.83 -35.07,-16.83 v -323.99 c 18.24,7.98 35.96,15.95 53.14,24.27 0.18,0 0.35,0.18 0.53,0.18 l -7.44,312.65 c 2.66,1.42 4.78,3.72 5.85,6.73 2.3,6.91 -3.01,14.88 -11.87,17.71 -0.71,0.18 -1.42,0.36 -2.13,0.71 -7.97,8.5 -17,24.09 -19.31,52.43 4.26,3.02 7.09,7.8 7.09,13.47 0,8.86 -7.26,16.12 -16.3,16.12 -9.03,0 -16.29,-7.26 -16.29,-16.12 0,-5.67 2.83,-10.45 7.09,-13.47 -2.31,-28.34 -11.35,-43.93 -19.31,-52.43 -0.71,-0.35 -1.6,-0.53 -2.31,-0.71 -8.68,-2.83 -13.99,-10.8 -11.69,-17.71 0.89,-3.01 3.01,-5.31 5.85,-6.73" /><path
             id="path48"
             style="fill:#ffffff;fill-opacity:1;fill-rule:nonzero;stroke:none"
             d="m 413.676,2728.69 -7.625,-318.67 c 17.363,-3.9 35.429,-9.39 53.676,-16.65 v 322.21 c 0,0 -7.797,12.58 -35.075,16.83 7.618,2.13 16.481,3.18 25.684,3.18 13.996,0 26.926,-2.65 36.668,-6.9 2.66,1.42 4.785,3.72 5.851,6.73 2.301,6.91 -3.011,14.88 -11.875,17.71 -0.707,0.18 -1.414,0.36 -2.121,0.71 -7.968,8.5 -17.007,24.09 -19.312,52.43 4.258,3.02 7.09,7.8 7.09,13.47 0,8.86 -7.442,16.12 -16.301,16.12 -9.031,0 -16.293,-7.26 -16.293,-16.12 0,-5.67 2.832,-10.45 7.09,-13.47 -2.305,-28.34 -11.344,-43.93 -19.313,-52.43 -0.707,-0.35 -1.593,-0.53 -2.3,-0.71 -8.684,-2.83 -13.997,-10.8 -11.696,-17.71 0.887,-3.01 3.012,-5.31 5.852,-6.73" /><path
             id="path50"
             style="fill:#0e2b58;fill-opacity:1;fill-rule:nonzero;stroke:none"
             d="m 2226.06,2425.43 13.64,11.16 c 64.66,-12.4 135.16,-26.04 135.16,-26.04 z m -11.87,76.7 49.42,-15.77 -25.33,-18.59 -24.09,8.5 z m 76.35,-24.26 50.84,-16.12 -3.72,-12.41 c -13.29,4.44 -39.32,-2.47 -39.32,-2.47 l -32.24,11.16 z m -104.52,-48.19 -104.15,10.45 c 0,0 13.11,15.59 44.11,15.59 4.96,0 10.45,-0.52 16.65,-1.6 11.68,-1.77 34.9,-6.02 62,-11.15 z m -78.82,-163.49 c -122.4,-27.99 -254.37,-47.83 -392.54,-57.75 v 59.52 c 0,88.57 -110.71,136.22 -214.51,136.22 -104.15,0 -214.69,-47.65 -214.69,-136.22 v -59.52 c -87.51,6.38 -172.53,16.47 -254.19,30.28 -16.65,19.32 -36.133,36.15 -55.446,50.31 -2.832,9.21 -6.379,19.49 -10.808,30.29 64.124,-25.68 133.034,-60.76 133.034,-60.76 -42.34,34.2 -96.36,63.96 -144.195,86.98 -5.136,11.34 -11.332,23.21 -18.066,35.43 77.941,-23.91 156.581,-68.73 156.581,-68.73 -42.15,43.93 -111.765,74.04 -171.112,93.35 -5.481,8.68 -11.328,17.54 -17.535,26.39 91.941,-21.61 184.757,-88.03 184.757,-88.03 -35.96,41.8 -94.945,84.84 -94.945,84.84 13.465,-3.36 81.135,-30.47 81.135,-30.47 -60.94,62.18 -143.315,136.58 -224.787,170.23 130.894,43.4 267.827,74.05 408.827,90.53 45.88,-86.45 136.75,-145.44 241.44,-145.44 104.34,0 195.38,58.99 241.26,145.44 145.44,-16.83 286.26,-49.07 420.88,-94.78 l -60.58,-13.63 62.89,-13.29 c -19.31,-3.54 -25.16,-12.4 -26.75,-19.48 -37.56,7.08 -69.8,-9.92 -75.47,-22.68 0,0 -96.53,15.95 -153.75,-21.07 0,0 81.13,0.17 132.14,-11.87 -24.44,-10.1 -49.78,-26.39 -59.52,-40.4 l 48.01,1.6 c 0,0 -18.96,-20.19 -28.87,-41.27 -83.96,-28.17 -139.76,-85.91 -139.76,-85.91 0,0 126.64,63.06 209.72,59.7 0,0 -155.34,-67.84 -191.66,-99.38 0,0 193.96,73.86 255.44,79.54 0,0 -82.73,-42.52 -98.31,-71.39 0,0 79.89,33.3 108.94,38.08 0,0 -17.72,-16.3 -37.56,-36.66 z m -1233.231,79.52 c 13.105,0 32.941,-5.3 55.269,-12.92 4.25,-6.91 8.684,-14.17 13.106,-21.43 -37.735,22.84 -68.375,34.35 -68.375,34.35 z m -19.309,49.78 c 10.625,0 22.141,-1.06 33.828,-3 6.207,-8.33 12.231,-16.65 18.422,-25.69 -40.91,17.54 -69.613,27.63 -69.613,27.63 5.492,0.89 11.168,1.06 17.363,1.06 z m -7.437,104.33 c 13.285,-0.88 26.746,-2.47 39.675,-5.13 l 41.625,-27.64 c 0,0 -20.195,4.61 -60.218,9.75 -6.739,7.79 -13.645,15.41 -21.082,23.02 z m 3.359,-61.27 c 0.715,0 1.246,0 1.945,0 4.61,-5.32 9.215,-11.35 14.004,-17.19 -32.769,8.32 -55.269,12.04 -55.269,12.04 12.398,3.55 25.687,5.15 39.32,5.15 z m -123.109,-48.19 -23.203,24.09 c 3.191,1.07 7.082,1.41 11.687,1.41 21.969,0 55.625,-9.38 55.625,-9.38 l 27.449,-32.06 c -4.949,1.95 -71.558,15.94 -71.558,15.94 z m 68.023,108.58 c 5.137,-4.95 10.988,-10.27 16.652,-16.11 -25.503,1.94 -54.914,3.89 -88.753,4.95 0,0 31.007,7.98 72.101,11.16 z m -178.734,-81.48 -9.211,12.05 c 6.558,1.24 20.019,1.58 31.351,1.58 10.453,0 19.309,-0.34 19.309,-0.34 l 22.855,-29.23 z M 2493.94,888.211 c -23.56,15.949 -51.37,30.301 -82.02,42.34 l 569.51,569.489 -213.1,213.1 -0.36,594.12 c 0,70.5 -49.42,123.83 -114.96,123.83 -20.19,0 -40.21,-5.14 -59.52,-15.24 -28.34,-13.64 -58.1,-26.57 -88.75,-39.15 l 1.6,72.09 c -237.54,130.73 -503.07,216.65 -785.07,246.4 -35.96,-86.62 -121.7,-147.73 -221.25,-147.73 -99.55,0 -185.11,61.11 -221.07,147.73 -282.356,-29.75 -548.063,-115.85 -785.778,-246.57 l 2.305,-71.21 c -11.161,5.67 -22.5,10.8 -33.657,15.23 -39.508,15.76 -78.125,24.1 -111.425,24.1 -82.016,0 -118.68,-49.96 -118.68,-99.38 V 1712.97 L 18.6172,1500.04 588.121,930.719 C 557.297,918.512 529.305,904.16 505.746,888.211 419.652,829.941 417.18,769 423.371,737.82 c 17.363,-87.148 73.875,-110.711 144.367,-146.672 88.039,-45 169.344,-115.847 188.309,-167.929 35.961,-97.949 101.141,-118.5 149.504,-118.5 43.754,0 89.453,16.652 128.419,32.953 34.19,14.348 71.56,26.387 110.54,36.488 L 1500.02,18.6406 1855.53,374.16 c 38.8,-10.101 76.17,-22.14 110.19,-36.488 38.96,-16.301 84.66,-32.953 128.42,-32.953 48.36,0 113.54,20.551 149.5,118.5 19.14,52.082 100.27,122.929 188.31,167.929 70.49,35.961 127,59.524 144.36,146.672 6.2,31.18 3.72,92.121 -82.37,150.391" /><path
             id="path52"
             style="fill:#0e2b58;fill-opacity:1;fill-rule:nonzero;stroke:none"
             d="m 2480.87,961.211 v -6.031 h 10.27 v -26.571 h 7.44 v 26.571 h 10.27 v 6.031 z m 69.31,0 v -32.602 h -6.73 v 26.571 l -9.92,-26.75 h -4.25 l -9.75,26.75 v -26.571 h -6.73 v 32.602 h 10.99 l 7.61,-19.852 7.98,19.852 h 10.8" /><path
             id="path54"
             style="fill:#7b7678;fill-opacity:1;fill-rule:nonzero;stroke:none"
             d="M 1704.42,410.27 1500,205.852 1295.76,410.27 h -96.01 L 1500,109.84 1800.43,410.27 h -96.01" /><path
             id="path56"
             style="fill:#7b7678;fill-opacity:1;fill-rule:nonzero;stroke:none"
             d="m 1508.91,1432.1 -26.39,-27.29 c 14.52,-14.7 20.02,-28.87 20.02,-50.83 V 904.93 h 90.34 l 29.76,37.91 h -90.17 l -0.18,432.92 c 0,21.97 -8.86,41.81 -23.38,56.34" /><path
             id="path58"
             style="fill:#7b7678;fill-opacity:1;fill-rule:nonzero;stroke:none"
             d="m 1739.07,1405.68 -55.8,-135.33 17.71,-43.4 84.67,205.12 -46.58,-26.39" /><path
             id="path60"
             style="fill:#7b7678;fill-opacity:1;fill-rule:nonzero;stroke:none"
             d="M 1749.59,1144.07 V 904.93 h 113.9 l 29.58,37.91 h -113.72 v 277.04 l -29.76,-75.81" /><path
             id="path62"
             style="fill:#7b7678;fill-opacity:1;fill-rule:nonzero;stroke:none"
             d="m 1622.69,1105.96 26.57,-51.55 h 43.93 l 29.76,21.62 h -43.76 l -56.5,143.83 v -113.9" /><path
             id="path64"
             style="fill:#7b7678;fill-opacity:1;fill-rule:nonzero;stroke:none"
             d="m 1263.35,1366.31 v -147.38 h 32.59 v 109.47 h 40.92 v 37.91 h -73.51" /><path
             id="path66"
             style="fill:#7b7678;fill-opacity:1;fill-rule:nonzero;stroke:none"
             d="m 1263.35,1156.03 v -213.1 h -90.52 l 32.42,-38.09 h 90.69 v 213.27 h 40.92 v 37.92 h -73.51" /><path
             id="path68"
             style="fill:#7b7678;fill-opacity:1;fill-rule:nonzero;stroke:none"
             d="m 1481,904.898 c -14.53,14.704 -23.57,34.711 -23.57,56.864 v 361.888 c 0,50.84 -34.71,72.63 -43.74,80.59 8.85,-8.67 13.99,-18.59 13.99,-29.22 V 999.66 c 0,-22.14 8.86,-42.148 23.55,-56.68 H 1336.8 l 32.6,-38.082 H 1481" /><path
             id="path70"
             style="fill:#7b7678;fill-opacity:1;fill-rule:nonzero;stroke:none"
             d="m 2056.49,1156.03 v -37.92 h 50.3 l 38.09,37.92 h -88.39" /><path
             id="path72"
             style="fill:#7b7678;fill-opacity:1;fill-rule:nonzero;stroke:none"
             d="m 2120.03,1366.36 h -63.6 v -38.09 h 25.68 c 21.62,0 47.12,-2.66 65.01,-15.41 l 29.06,29.05 c -14,15.06 -34.01,24.45 -56.15,24.45" /><path
             id="path74"
             style="fill:#7b7678;fill-opacity:1;fill-rule:nonzero;stroke:none"
             d="m 1893.87,904.898 h 244.28 l 37.9,38.082 h -233.29 c 14.52,14.532 23.56,34.372 23.56,56.329 v 376.421 c 0,21.96 -9.04,41.8 -23.56,56.33 l -31.18,-31.36 c 15.24,-12.93 16.65,-39.5 16.65,-63.05 V 961.402 c 0,-21.961 -15.94,-43.402 -34.36,-56.504" /><path
             id="path76"
             style="fill:#7b7678;fill-opacity:1;fill-rule:nonzero;stroke:none"
             d="M 913.57,1366.31 V 1005.3 h 37.907 v 320.44 h 42.691 v 40.57 H 913.57" /><path
             id="path78"
             style="fill:#7b7678;fill-opacity:1;fill-rule:nonzero;stroke:none"
             d="m 1058.74,1413.33 v 0 c 16.11,-10.8 25.68,-24.09 25.68,-38.62 v -56.5 h -90.162 l 37.902,-40.75 h 90.35 v 56.51 c 0,31.18 -39.5,63.95 -63.77,79.36" /><path
             id="path80"
             style="fill:#7b7678;fill-opacity:1;fill-rule:nonzero;stroke:none"
             d="m 992.027,891.641 c 72.093,0 130.373,48.359 130.373,104.691 l 0.18,139.228 c 0,21.26 4.42,36.49 18.06,50.66 l -32.77,32.77 c -14.34,-14.52 -23.38,-34.54 -23.38,-56.5 V 997.039 c 0,-35.789 -58.46,-64.66 -130.377,-64.66 -49.238,0 -91.929,13.473 -114.25,33.312 6.024,-5.5 38.262,-74.05 152.164,-74.05" /><path
             id="path82"
             style="fill:#7b7678;fill-opacity:1;fill-rule:nonzero;stroke:none"
             d="m 966.344,1156.03 28.164,-28.17 v 28.17 h -28.164" /><path
             id="path84"
             style="fill:#7b7678;fill-opacity:1;fill-rule:nonzero;stroke:none"
             d="m 1390.87,1858.17 h 158.54 v 39.5 h -158.54 c -22.5,0 -40.74,18.24 -40.74,40.73 v -39.5 c 0,-22.49 18.24,-40.73 40.74,-40.73" /><path
             id="path86"
             style="fill:#7b7678;fill-opacity:1;fill-rule:nonzero;stroke:none"
             d="m 1450.73,2223.67 h 98.3086 v 39.3242 H 1450.73 Z" /><path
             id="path88"
             style="fill:#7b7678;fill-opacity:1;fill-rule:nonzero;stroke:none"
             d="m 1534.16,2023.86 h 115.852 v 39.3203 H 1534.16 Z" /><path
             id="path90"
             style="fill:#7b7678;fill-opacity:1;fill-rule:nonzero;stroke:none"
             d="m 1500.06,1492.87 c 78.29,0 150.03,32.06 150.03,71.74 v 39.32 c 0,-39.5 -71.74,-71.56 -150.03,-71.56 -78.3,0 -150.04,32.06 -150.04,71.56 v -39.32 c 0,-39.68 71.74,-71.74 150.04,-71.74" /><path
             id="path92"
             style="fill:#7b7678;fill-opacity:1;fill-rule:nonzero;stroke:none"
             d="m 1761.73,2036.38 v -448.69 c 43.57,-3.55 86.62,-7.8 128.78,-12.76 l 36.13,43.04 c -41.63,5.5 -83.79,10.28 -126.66,14.18 v 447.27 l -32.94,-2.65 c -24.98,-2.84 -47.3,-15.95 -62.88,-34.55 v 100.44 l -38.27,-38.09 v -96.36 l 27.64,-20.9 c 19.66,22.14 44.99,41.98 68.2,49.07" /><path
             id="path94"
             style="fill:#7b7678;fill-opacity:1;fill-rule:nonzero;stroke:none"
             d="m 1963.58,2048.48 33.3,26.92 c -15.59,15.23 -38.09,22.14 -62.89,19.31 l -32.95,-4.43 v -33.66 c 27.99,3.72 47.48,7.44 62.54,-8.14" /><path
             id="path96"
             style="fill:#7b7678;fill-opacity:1;fill-rule:nonzero;stroke:none"
             d="m 2148.63,2132.02 v -41.63 l 42.16,9.39 v -174.84 h 39.68 v 225.32 l -81.84,-18.24" /><path
             id="path98"
             style="fill:#7b7678;fill-opacity:1;fill-rule:nonzero;stroke:none"
             d="m 2190.7,1522.86 c 40.39,-9.21 79.71,-19.49 117.97,-30.3 l 48.54,33.48 c -40.92,12.58 -83.26,24.28 -126.66,35.08 v 296.53 h -81.84 v -43.93 h 41.99 v -290.86" /><path
             id="path100"
             style="fill:#7b7678;fill-opacity:1;fill-rule:nonzero;stroke:none"
             d="m 2148.67,1579.92 c -32.95,7.08 -66.61,13.46 -100.62,19.48 v 509.27 c 0,18.25 13.28,37.91 35.43,55.44 -14.71,-11.33 -75.29,-55.26 -75.29,-111.95 V 1558.3 c 35.96,-5.67 71.21,-12.04 105.75,-18.95 l 34.73,40.57" /><path
             id="path102"
             style="fill:#7b7678;fill-opacity:1;fill-rule:nonzero;stroke:none"
             d="m 2703.89,1686.32 v -96.01 l 90.33,-90.34 -90.33,-90.16 v -28.17 c -31.89,17.89 -65.72,35.25 -101.15,51.55 v 402.1 c 0,12.4 -9.92,22.32 -22.14,22.32 h -63.42 v -43.93 h 19.49 c 12.39,0 22.31,-9.92 22.31,-22.14 v -387.93 c 32.77,-14.35 63.95,-29.41 93.89,-45 L 2010.21,716.129 c 0.36,-0.18 0.71,-0.18 1.07,-0.348 24.44,-7.09 49.42,-13.82 74.21,-20.371 l 804.74,804.56 -186.34,186.35" /><path
             id="path104"
             style="fill:#7b7678;fill-opacity:1;fill-rule:nonzero;stroke:none"
             d="m 2558.93,2199.93 v -274.92 h 21.61 c 12.22,0 22.32,9.92 22.32,22.15 v 306.62 c 0,12.22 -10.1,18.24 -22.32,13.46 l -63.41,-24.79 v -39.33 l 24.98,9.74 c 12.22,4.78 16.82,-0.71 16.82,-12.93" /><path
             id="path106"
             style="fill:#7b7678;fill-opacity:1;fill-rule:nonzero;stroke:none"
             d="m 2416.04,1507.17 v 705.71 c 0,23.74 -11.17,43.05 -26.58,53.32 l -32.06,-44.11 c 9.03,-10.8 14.7,-25.5 14.7,-42.51 v -706.07 c 38.09,-12.05 74.76,-24.8 110.01,-38.44 l 34.89,34.89 c -32.41,13.11 -66.25,25.51 -100.96,37.21" /><path
             id="path108"
             style="fill:#7b7678;fill-opacity:1;fill-rule:nonzero;stroke:none"
             d="m 1032.02,1682.76 35.43,5.32 v 446.21 l -35.43,35.6 v -487.13" /><path
             id="path110"
             style="fill:#7b7678;fill-opacity:1;fill-rule:nonzero;stroke:none"
             d="m 1184.3,1582.93 v 109.11 l -35.43,35.43 v -100.44 c -74.93,-7.97 -147.74,-18.42 -218.065,-31.35 l 31.179,-42.16 c 71.566,12.22 145.956,22.14 222.316,29.41" /><path
             id="path112"
             style="fill:#7b7678;fill-opacity:1;fill-rule:nonzero;stroke:none"
             d="m 760.684,1629.52 40.558,10.09 v 542.75 l -40.558,40.92 v -593.76" /><path
             id="path114"
             style="fill:#7b7678;fill-opacity:1;fill-rule:nonzero;stroke:none"
             d="m 918.215,1545.64 v 99.2 l -40.742,40.73 v -100.25 c -75.996,-15.24 -148.797,-33.49 -217.883,-54.03 l 35.609,-37.56 c 70.676,19.84 145.246,37.38 223.016,51.91" /><path
             id="path116"
             style="fill:#7b7678;fill-opacity:1;fill-rule:nonzero;stroke:none"
             d="m 988.469,715.801 c 0.531,0.179 0.883,0.179 1.418,0.347 l -642.66,642.662 c 29.585,15.59 60.761,30.47 93.351,44.82 v 410.07 h 38.086 v 43.93 h -81.84 v -424.42 c -35.07,-16.48 -68.73,-33.48 -100.613,-51.37 v 27.81 l -90.34,90.34 90.34,90.34 v 96.01 L 109.863,1499.99 914.598,695.43 c 24.804,6.562 49.425,13.289 73.871,20.371" /><path
             id="path118"
             style="fill:#7b7678;fill-opacity:1;fill-rule:nonzero;stroke:none"
             d="m 623.488,1525.48 v 630.25 c 0,58.29 -76.347,108.23 -86.269,117.09 v 0 c 26.219,-23.38 42.515,-48.18 42.515,-68.2 v -637.34 c 0,-24.09 9.743,-42.51 25.504,-52.96 -43.926,-14.35 -86.086,-29.58 -126.472,-45.88 l 38.086,-33.48 c 40.035,15.23 81.836,29.58 125.234,43.05 -11.691,10.8 -18.598,27.1 -18.598,47.47" /><path
             id="path120"
             style="fill:#7b7678;fill-opacity:1;fill-rule:nonzero;stroke:none"
             d="m 396.879,1924.93 h 43.75 v 284.3 l 38.082,-15.76 v 44.28 l -81.832,33.66 v -346.48" /><path
             id="path122"
             style="fill:#ffffff;fill-opacity:1;fill-rule:nonzero;stroke:none"
             d="m 579.828,1567.32 v 637.34 c 0,39.5 -63.418,96.89 -141.715,127.89 -78.293,31.18 -141.886,24.27 -141.886,-15.23 v -935.47 c 31.882,17.9 65.543,34.9 100.613,51.38 v 424.42 h 81.84 v -389.17 c 40.566,16.3 82.726,31.53 126.472,45.88 -15.582,10.45 -25.324,28.87 -25.324,52.96 M 478.68,1924.96 h -81.84 v 346.48 l 81.84,-33.83 v -312.65" /><path
             id="path124"
             style="fill:#ffffff;fill-opacity:1;fill-rule:nonzero;stroke:none"
             d="m 877.488,1585.4 v 100.08 c -15.59,-20.72 -38.09,-36.67 -62.886,-42.69 l -54.028,-13.28 v 593.59 c -43.754,11.16 -86.265,23.02 -127.539,35.78 15.766,-20.55 26.57,-46.24 26.57,-70.32 v -657.37 c 69.083,20.73 141.887,38.8 217.883,54.21" /><path
             id="path126"
             style="fill:#ffffff;fill-opacity:1;fill-rule:nonzero;stroke:none"
             d="m 1085.96,1690.75 -54.03,-7.98 v 486.95 c -42.508,6.38 -84.313,13.29 -125.235,21.26 15.063,-18.77 24.094,-41.8 24.094,-65.18 v -530.18 c 70.501,12.93 143.121,23.38 218.051,31.53 v 100.26 c -15.58,-19.13 -38.08,-33.12 -62.88,-36.66" /><path
             id="path128"
             style="fill:#ffffff;fill-opacity:1;fill-rule:nonzero;stroke:none"
             d="m 1650.11,1604.01 v 329.65 c 0,22.49 -18.25,40.74 -40.74,40.74 h -158.71 v 288.73 h 98.31 v -143.48 c 0,-9.56 0.35,-41.98 -14.71,-56.33 h 115.85 v 204.77 c 0,39.5 -71.74,71.57 -150.03,71.57 -78.3,0 -150.04,-32.07 -150.04,-71.57 v -329.65 c 0,-22.5 18.25,-40.92 40.92,-40.92 h 158.54 v -288.56 h -98.31 v 107.17 c 0,9.57 -0.18,41.98 14.7,56.33 h -115.85 v -168.45 c 0,-39.69 71.74,-71.75 150.04,-71.75 78.29,0 150.03,32.06 150.03,71.75" /><path
             id="path130"
             style="fill:#ffffff;fill-opacity:1;fill-rule:nonzero;stroke:none"
             d="m 1934.01,2094.68 c 24.8,2.83 47.3,-4.08 62.88,-19.14 v 98.67 c -94.06,-14.7 -191.84,-25.33 -292.8,-31.53 v -100.44 c 15.58,18.6 38.08,31.71 62.88,34.37 l 32.94,2.83 v -447.28 c 42.87,-3.89 85.03,-8.67 126.66,-14.16 -15.77,18.95 -25.51,41.98 -25.51,66.24 v 406 l 32.95,4.44" /><path
             id="path132"
             style="fill:#ffffff;fill-opacity:1;fill-rule:nonzero;stroke:none"
             d="m 2331.58,2172.71 c 0,39.68 -63.42,57.39 -141.72,39.68 -78.47,-17.72 -141.88,-64.13 -141.88,-103.63 v -509.27 c 34.18,-6.03 67.66,-12.58 100.61,-19.49 v 277.58 h 81.84 v -296.53 c 43.57,-10.63 85.91,-22.5 126.83,-34.9 -15.76,20.55 -25.68,45.53 -25.68,69.8 z m -101.15,-247.82 h -81.84 v 207.07 l 81.84,18.43 v -225.5" /><path
             id="path134"
             style="fill:#ffffff;fill-opacity:1;fill-rule:nonzero;stroke:none"
             d="m 2672.69,1891.29 c 18.42,8.67 31.18,27.27 31.18,49.06 l -0.36,366.86 c 0,44.81 -36.66,74.75 -81.13,51.01 -71.03,-34.18 -148.97,-65.01 -232.93,-92.11 15.41,-10.1 26.57,-29.41 26.57,-53.15 v -705.89 c 34.72,-11.69 68.55,-24.09 101.14,-37.02 v 387.58 h 63.42 c 12.22,0 22.14,-9.92 22.14,-22.32 V 1433.2 c 35.43,-16.47 69.26,-33.65 101.15,-51.54 v 460.56 c 0,21.61 -12.76,40.39 -31.18,49.07 m -69.97,55.79 c 0,-12.22 -9.92,-22.14 -22.14,-22.14 h -63.42 v 317.44 l 63.42,24.79 c 12.22,4.78 22.14,-1.24 22.14,-13.46 v -306.63" /><path
             id="path136"
             style="fill:#ffffff;fill-opacity:1;fill-rule:nonzero;stroke:none"
             d="m 966.328,1156.03 h 28.336 l -0.527,-150.57 h -80.598 v 360.83 h 80.598 v -48.01 h 90.343 v 56.51 c 0,35.6 -58.46,64.65 -130.375,64.65 -72.097,0 -130.554,-29.05 -130.554,-64.65 V 997.129 c 0,-35.777 58.457,-64.828 130.554,-64.828 71.915,0 130.375,29.051 130.375,64.828 v 165.451 c 0,21.96 9.03,41.8 23.56,56.33 H 966.328 v -62.88" /><path
             id="path138"
             style="fill:#ffffff;fill-opacity:1;fill-rule:nonzero;stroke:none"
             d="m 1427.61,1375.07 c 0,35.61 -57.04,64.3 -127.37,64.3 -70.32,0 -127.36,-28.69 -127.36,-64.3 V 942.859 h 90.35 v 213.091 h 73.51 V 942.859 h 114.43 c -14.53,14.7 -23.56,34.711 -23.56,56.86 z m -90.87,-156.06 h -73.51 v 147.38 h 73.51 v -147.38" /><path
             id="path140"
             style="fill:#ffffff;fill-opacity:1;fill-rule:nonzero;stroke:none"
             d="m 1869.69,1432.1 h -83.97 l -84.67,-205.13 -84.67,205.13 h -107.52 c 14.53,-14.53 23.56,-34.37 23.56,-56.34 V 942.84 h 90.16 v 277.22 l 56.51,-144.01 h 43.93 l 56.33,144.01 V 942.84 h 113.72 c -14.34,14.519 -23.38,34.539 -23.38,56.5 v 432.76" /><path
             id="path142"
             style="fill:#ffffff;fill-opacity:1;fill-rule:nonzero;stroke:none"
             d="M 1966.25,1375.67 V 999.262 c 0,-21.973 -9.04,-41.813 -23.38,-56.34 h 233.29 v 90.168 c -14,-15.06 -34.01,-24.45 -56.16,-24.45 h -63.59 v 147.38 h 88.4 v 62.89 h -88.4 v 147.38 H 2120 c 22.15,0 42.16,-9.39 56.16,-24.45 V 1432 h -233.29 c 14.34,-14.52 23.38,-34.36 23.38,-56.33" /><path
             id="path144"
             style="fill:#ffffff;fill-opacity:1;fill-rule:nonzero;stroke:none"
             d="m 2206.7,981.719 c -8.69,0 -15.59,-7.09 -15.59,-15.77 0,-8.668 6.9,-15.758 15.59,-15.758 8.67,0 15.76,7.09 15.76,15.758 0,8.68 -7.09,15.77 -15.76,15.77 m 0,-27.989 c -6.74,0 -12.23,5.129 -12.23,12.219 0,7.09 5.49,12.223 12.23,12.223 6.73,0 12.21,-5.133 12.21,-12.223 0,-7.09 -5.48,-12.219 -12.21,-12.219 m 7.75,15.45 c 0,4.429 -2.66,4.961 -6.37,4.961 h -7.98 V 957.84 h 3.37 v 6.558 h 2.83 l 3.9,-6.558 h 3.72 l -3.9,6.558 c 2.84,0.172 4.43,1.762 4.43,4.782 m -6.37,-1.77 h -4.61 v 3.891 h 3.9 c 1.59,0 3.72,0 3.72,-1.77 0,-1.769 -1.07,-2.121 -3.01,-2.121" /><path
             id="path146"
             style="fill:#fbbf16;fill-opacity:1;fill-rule:nonzero;stroke:none"
             d="m 1204.59,2020.56 24.8,-76.35 h 80.24 l -64.83,-47.12 24.63,-76.34 -64.84,47.29 -64.83,-47.29 24.8,76.34 -65.01,47.12 h 80.24 l 24.8,76.35" /><path
             id="path148"
             style="fill:#fbbf16;fill-opacity:1;fill-rule:nonzero;stroke:none"
             d="m 1136.16,751.242 c -52.08,-10.453 -102.38,-22.5 -147.734,-35.433 -142.242,-40.911 -297.238,-76.52 -396.61,-64.829 104.332,-41.8 198.395,-133.199 224.965,-205.648 35.074,-95.84 96.715,-88.223 192.189,-48.184 41.63,17.352 87.16,31.704 134.27,43.223 l -7.08,310.871" /><path
             id="path150"
             style="fill:#fbbf16;fill-opacity:1;fill-rule:nonzero;stroke:none"
             d="m 2011.28,715.801 c -45.35,13.109 -95.66,24.98 -147.74,35.429 0.53,-2.839 -2.12,-302.199 -7.09,-310.878 47.13,-11.512 92.83,-25.68 134.27,-43.223 95.48,-40.027 157.13,-47.649 192.37,48.18 26.4,72.453 120.64,164.031 224.97,205.66 -99.55,-11.688 -254.55,23.91 -396.78,64.832" /><path
             id="path152"
             style="fill:#0e2b58;fill-opacity:1;fill-rule:nonzero;stroke:none"
             d="m 848.527,601.859 -17.715,-32.058 6.731,-22.852 31.355,9.043 -4.605,15.938 0.527,0.531 37.028,10.801 0.886,-0.352 9.204,-31.89 -0.528,-0.7 -44.285,-12.761 -17.887,-32.059 20.719,-71.031 101.148,29.402 -13.636,47.828 -31.535,-9.207 4.785,-16.301 -38.442,-11.16 -9.562,32.418 0.711,0.711 44.281,12.75 17.715,32.238 -13.11,45.883 -32.238,17.891 -51.547,-15.063" /><path
             id="path154"
             style="fill:#0e2b58;fill-opacity:1;fill-rule:nonzero;stroke:none"
             d="m 991.211,642.52 -17.895,-32.239 31.704,-110.359 32.06,-17.711 52.26,15.059 17.9,32.242 -31.54,110.347 -32.24,17.903 z m 43.399,-126.661 -27.81,96.551 0.7,0.531 37.91,11.161 0.89,-0.18 27.45,-96.543 -0.35,-0.527 -38.08,-11.161 -0.71,0.168" /><path
             id="path156"
             style="fill:#0e2b58;fill-opacity:1;fill-rule:nonzero;stroke:none"
             d="m 1943.13,632.949 -4.43,-16.289 12.58,-3.551 -23.74,-86.269 -12.58,3.371 -8.68,-31.531 56.86,-15.59 8.51,31.531 -12.58,3.551 35.43,129.297 -23.2,6.383 -28.17,-20.903" /><path
             id="path158"
             style="fill:#0e2b58;fill-opacity:1;fill-rule:nonzero;stroke:none"
             d="m 2065.25,599.16 -30.64,-110.711 18.06,-32.07 55.45,-15.238 31.89,18.25 12.75,46.058 -18.07,31.883 -48.01,13.289 -0.71,0.711 8.86,32.059 0.89,0.351 40.92,-11.332 0.53,-0.711 -4.43,-16.117 31.53,-8.684 6.38,23.032 -18.07,31.879 -55.44,15.41 z m 0.88,-115.32 -0.52,0.711 8.85,32.058 0.89,0.352 40.92,-11.332 0.71,-0.707 -9.04,-32.063 -0.7,-0.359 -41.11,11.34" /><path
             id="path160"
             style="fill:#7b7678;fill-opacity:1;fill-rule:nonzero;stroke:none"
             d="m 675.445,843.32 -37.023,37.02 C 542.234,848.641 477.754,795.852 486.793,750.32 494.582,711 555.523,687.609 637.184,687.082 l -46.766,88.75 c -0.887,1.238 -1.594,2.648 -2.125,4.078 -7.086,20.719 32.234,45.699 87.152,63.41" /><path
             id="path162"
             style="fill:#fbbf16;fill-opacity:1;fill-rule:nonzero;stroke:none"
             d="m 588.363,779.93 c 9.035,-26.039 84.672,-28.168 161.367,-10.989 l -74.218,74.399 c -55.086,-17.711 -94.235,-42.692 -87.149,-63.41" /><path
             id="path164"
             style="fill:#7b7678;fill-opacity:1;fill-rule:nonzero;stroke:none"
             d="m 2361.64,880.25 -37.03,-37.02 c 54.74,-17.718 93.89,-42.691 86.8,-63.238 -0.53,-1.41 -1.24,-2.832 -2.13,-4.07 l -46.76,-88.75 c 81.84,0.527 142.6,23.738 150.57,63.238 9.03,45.52 -55.44,98.129 -151.45,129.84" /><path
             id="path166"
             style="fill:#fbbf16;fill-opacity:1;fill-rule:nonzero;stroke:none"
             d="M 2324.6,843.219 2250.38,769 c 76.51,-17.191 151.98,-15.059 161.01,10.98 7.09,20.54 -32.06,45.52 -86.79,63.239" /><path
             id="path168"
             style="fill:#ffffff;fill-opacity:1;fill-rule:nonzero;stroke:none"
             d="m 1804.84,801.879 h -609.71 c -32.94,0 -59.69,-26.75 -59.69,-59.34 V 469.75 c 0,-32.781 26.75,-59.531 59.69,-59.531 h 609.71 c 32.77,0 59.34,26.75 59.34,59.531 v 272.789 c 0,32.59 -26.57,59.34 -59.34,59.34" /><path
             id="path170"
             style="fill:#fbbf16;fill-opacity:1;fill-rule:nonzero;stroke:none"
             d="m 1842.36,741.73 c 0,10.45 -3.9,20.551 -11.51,27.989 -7.45,7.441 -17.37,11.34 -27.64,11.34 h -169.34 l 97.07,-162.438 9.03,-1.062 5.32,-7.438 v -6.91 l 6.2,-1.242 5.66,-7.789 v -6.559 l 6.38,-1.242 c 0,0 6.38,-6.547 6.38,-6.91 v -15.41 c 0,0 13.64,-12.567 25.86,-17.36 8.5,-3.187 9.39,-16.82 14.7,-24.258 6.38,-10.632 15.24,-14.882 13.47,-20.91 -4.43,-15.941 -20.73,-42.859 -35.96,-44.101 h -60.23 v -25.86 h 75.46 c 21.61,0 39.15,17.711 39.15,39.672 V 741.73" /><path
             id="path172"
             style="fill:#0e2b58;fill-opacity:1;fill-rule:nonzero;stroke:none"
             d="m 1398.97,457.129 c -0.18,72.801 24.61,113.012 54.02,120.98 4.07,0.711 2.13,20.731 -3.01,26.75 0,0 -14.35,-0.179 -17.36,0.18 -3.72,1.063 -1.06,5.133 -1.06,5.133 l 13.81,29.578 -1.95,7.98 h -50.66 c -0.88,0 41.99,29.231 41.99,29.231 1.76,77.398 81.12,83.43 128.77,51.359 28.35,-18.769 30.65,-55.968 28.35,-81.66 -0.36,-1.762 -7.27,-0.711 -7.27,-0.711 0,0 -4.96,-28.16 7.62,-28.16 h 55.8 c 22.67,0.891 44.64,-14.519 44.64,-14.519 l 5.31,19.48 -122.05,158.359 h -378.54 c -10.63,0 -20.55,-3.898 -28.17,-11.339 -7.44,-7.43 -11.15,-17.528 -11.15,-27.981 V 471.121 c 0,-10.629 3.71,-20.551 11.15,-27.812 7.62,-7.61 17.54,-11.688 28.17,-11.688 h 245.69 c -6.02,10.27 -12.93,22.141 -15.06,25.508 z m -186.53,57.391 c 0,14.699 11.86,26.75 26.75,27.101 15.05,0 27.1,-12.223 27.1,-27.101 0,-14.879 -12.05,-26.918 -27.1,-26.918 -14.89,-0.18 -26.75,12.039 -26.75,26.918" /><path
             id="path174"
             style="fill:#ffffff;fill-opacity:1;fill-rule:nonzero;stroke:none"
             d="m 1866.15,423.129 c -8.69,0 -15.59,-6.91 -15.59,-15.77 0,-8.668 6.9,-15.757 15.59,-15.757 8.67,0 15.76,7.089 15.76,15.757 0,8.86 -7.09,15.77 -15.76,15.77 m 0,-27.988 c -6.74,0 -12.05,5.14 -12.05,12.218 0,7.09 5.31,12.403 12.05,12.403 6.73,0 12.21,-5.313 12.21,-12.403 0,-7.078 -5.48,-12.218 -12.21,-12.218 m 7.76,15.449 c 0,4.43 -2.66,4.961 -6.38,4.961 h -7.97 V 399.25 h 3.54 v 6.559 h 2.66 l 3.89,-6.559 h 3.72 l -3.89,6.559 c 2.83,0.183 4.43,1.761 4.43,4.781 m -6.38,-1.77 h -4.43 v 3.899 h 3.72 c 1.6,0 3.72,0 3.72,-1.778 0,-1.769 -1.06,-2.121 -3.01,-2.121" /><path
             id="path176"
             style="fill:#fbbf16;fill-opacity:1;fill-rule:nonzero;stroke:none"
             d="m 1500.09,3026.24 c -131.97,0 -239.49,-107.35 -239.49,-239.49 0,-131.96 107.52,-239.31 239.49,-239.31 131.97,0 239.49,107.35 239.49,239.31 0,132.14 -107.52,239.49 -239.49,239.49" /><path
             id="path178"
             style="fill:#0e2b58;fill-opacity:1;fill-rule:nonzero;stroke:none"
             d="m 1705.79,2786.82 c 0,113.55 -92.12,205.66 -205.66,205.66 -113.72,0 -205.84,-92.11 -205.84,-205.66 0,-113.72 92.12,-205.65 205.84,-205.65 113.54,0 205.66,91.93 205.66,205.65" /><path
             id="path180"
             style="fill:#ffffff;fill-opacity:1;fill-rule:nonzero;stroke:none"
             d="m 1545.18,2874.26 h -101.86 c -0.53,-0.18 -0.53,-1.42 0.18,-1.42 0.71,0 13.64,-1.24 13.64,-12.93 v -34.54 h -27.82 c -5.84,0.17 -7.26,4.96 -7.26,7.79 0,1.06 0,31.18 0,49.6 -0.17,14.7 8.68,22.32 22.68,22.32 h 66.42 c 3.9,0 7.27,-1.95 7.27,-6.56 0,-4.96 -5.14,-6.2 -5.85,-6.72 -0.53,-0.18 -0.53,-0.72 -0.18,-0.72 h 37.2 v 10.99 c -0.17,9.21 -5.85,30.64 -34.01,30.64 h -77.58 c -27.82,0 -47.12,-19.66 -47.12,-46.23 0,-17.89 0,-52.79 0,-53.14 0,-17.36 14.88,-35.61 36.13,-35.61 h 83.96 c 5.85,0 7.45,-3.71 7.45,-7.79 0,0 0,-46.24 0,-47.48 0.17,-11.15 -7.45,-22.32 -21.26,-22.32 h -8.86 v 65.9 h -31.17 v -65.9 h -12.58 c -6.91,0 -12.05,0 -12.93,0 h -1.77 c -6.38,0 -7.8,4.26 -7.8,7.8 v 28.17 c 0.36,11.33 12.94,12.57 13.64,12.57 0.71,0 0.71,1.24 0,1.24 h -44.81 v -41.8 h 0.17 v -2.3 c -0.17,-15.77 10.1,-33.3 31.89,-33.3 h 34.19 v -37.39 c 0,-11.68 -12.93,-12.93 -13.64,-12.93 -0.71,0 -0.71,-1.24 -0.18,-1.41 h 101.86 c 41.62,0 65.36,19.83 65.36,61.82 v 109.82 c 0,41.81 -23.74,61.83 -65.36,61.83 m 34.18,-172.54 v -0.17 c 0,-18.6 -13.11,-32.95 -33.12,-32.95 h -57.93 v 23.92 h 14.35 c 27.99,0 47.12,20.19 47.12,46.58 0,0 -0.18,49.78 -0.18,52.96 0,11.34 -9.21,33.31 -36.49,33.31 h -24.8 v 21.25 h 57.93 c 20.01,0 33.12,-14.52 33.12,-33.12 v -0.18 c 0,-2.48 0,-109.12 0,-111.6" /><path
             id="path182"
             style="fill:#ffffff;fill-opacity:1;fill-rule:nonzero;stroke:none"
             d="m 1625.88,2654.13 -3.02,-8.68 h -0.17 l -3.01,8.68 h -4.61 v -13.11 h 2.66 v 10.45 l 3.72,-10.45 h 2.48 l 3.9,10.45 v -10.45 h 2.65 v 13.11 z m -13.3,0 v -2.3 h -3.9 v -10.81 h -2.66 v 10.81 h -3.89 v 2.3 h 10.45" /></g></g></g></g></svg>