<svg width="301" height="264" viewBox="0 0 301 264" xmlns="http://www.w3.org/2000/svg" xmlns:xlink="http://www.w3.org/1999/xlink"><title>baseball diamond - runners on 1st + 2nd base</title><defs><path d="M23.526 58.884C34.166 46.23 48.399 34.967 59.59 27.726c9.517-6.157 24.887-15.77 41.768-20.426 7.102-1.959 13.114-3.917 19.635-4.986C134.917.031 146.912.001 146.912.001s12.428-.099 28.151 2.313c6.157.944 12.718 3.108 19.389 4.986 15.526 4.373 30.693 14.113 40.135 20.426 13.405 8.964 30.914 26.329 42.76 42.76 10.11 14.025 14.092 27.076 14.092 27.076L146.07 253.635.342 94.71s7.514-17.188 23.184-35.826z" id="a"/><mask id="g" x="-4" y="-4" width="299.096" height="261.635"><path fill="#fff" d="M-3.658-4h299.096v261.635H-3.658z"/><use xlink:href="#a"/></mask><path id="b" d="M91.65 115.2l113.77-4.62-4.304 114.263-114.27 4.16z"/><mask id="h" x="-4" y="-4" width="126.573" height="126.424"><path fill="#fff" d="M82.847 106.579H209.42v126.424H82.847z"/><use xlink:href="#b"/></mask><path id="c" d="M118.952 100.522l56.61-2.303-2.142 56.928-56.858 2.072z"/><mask id="i" x="-4" y="-4" width="67" height="67"><path fill="#fff" d="M112.562 94.219h67v67h-67z"/><use xlink:href="#c"/></mask><path id="d" d="M79.952 142.522l56.61-2.303-2.142 56.928-56.858 2.072z"/><mask id="j" x="-4" y="-4" width="67" height="67"><path fill="#fff" d="M73.562 136.219h67v67h-67z"/><use xlink:href="#d"/></mask><path id="e" d="M157.952 142.522l56.61-2.303-2.142 56.928-56.858 2.072z"/><mask id="k" x="-4" y="-4" width="67" height="67"><path fill="#fff" d="M151.562 136.219h67v67h-67z"/><use xlink:href="#e"/></mask><path id="f" d="M118.952 184.522l56.61-2.303-2.142 56.928-56.858 2.072z"/><mask id="l" x="-4" y="-4" width="67" height="67"><path fill="#fff" d="M112.562 178.219h67v67h-67z"/><use xlink:href="#f"/></mask></defs><g transform="translate(5 4)" fill="none" fill-rule="evenodd"><use fill="#F5F5F5" xlink:href="#a"/><use stroke="#070707" mask="url(#g)" stroke-width="8" xlink:href="#a"/><use stroke="#070707" mask="url(#h)" stroke-width="8" transform="rotate(-45 146.133 169.791)" xlink:href="#b"/><g transform="rotate(-45 146.062 127.72)"><use fill="#D0011B" xlink:href="#c"/><use stroke="#070707" mask="url(#i)" stroke-width="8" xlink:href="#c"/></g><g transform="rotate(-45 107.062 169.72)"><use fill="#F5F5F5" xlink:href="#d"/><use stroke="#070707" mask="url(#j)" stroke-width="8" xlink:href="#d"/></g><g transform="rotate(-45 185.062 169.72)"><use fill="#D0011B" xlink:href="#e"/><use stroke="#070707" mask="url(#k)" stroke-width="8" xlink:href="#e"/></g><g transform="rotate(-45 146.062 211.72)"><use fill="#F5F5F5" xlink:href="#f"/><use stroke="#070707" mask="url(#l)" stroke-width="8" xlink:href="#f"/></g></g></svg>