<?xml version="1.0" encoding="UTF-8"?>
<svg width="780px" height="671px" viewBox="0 0 780 671" version="1.1" xmlns="http://www.w3.org/2000/svg" xmlns:xlink="http://www.w3.org/1999/xlink">
    <!-- Generator: Sketch 42 (36781) - http://www.bohemiancoding.com/sketch -->
    <title>diamond_2b_3b</title>
    <desc>Created with Sketch.</desc>
    <defs>
        <polygon id="path-1" points="216.165122 245.021421 559.16102 247.559787 561.183572 590.351874 216.200312 591.071497"></polygon>
        <mask id="mask-2" maskContentUnits="userSpaceOnUse" maskUnits="objectBoundingBox" x="-4" y="-4" width="353.01845" height="354.050075">
            <rect x="212.165122" y="241.021421" width="353.01845" height="354.050075" fill="white"></rect>
            <use xlink:href="#path-1" fill="black"></use>
        </mask>
        <polygon id="path-3" points="179.55516 331.299804 349.357542 332.556438 350.35882 502.257923 179.572582 502.614177"></polygon>
        <mask id="mask-4" maskContentUnits="userSpaceOnUse" maskUnits="objectBoundingBox" x="-4" y="-4" width="178.80366" height="179.314373">
            <rect x="175.55516" y="327.299804" width="178.80366" height="179.314373" fill="white"></rect>
            <use xlink:href="#path-3" fill="black"></use>
        </mask>
        <polygon id="path-5" points="303.503625 209.299804 473.306007 210.556438 474.307285 380.257923 303.521046 380.614177"></polygon>
        <mask id="mask-6" maskContentUnits="userSpaceOnUse" maskUnits="objectBoundingBox" x="-4" y="-4" width="178.80366" height="179.314373">
            <rect x="299.503625" y="205.299804" width="178.80366" height="179.314373" fill="white"></rect>
            <use xlink:href="#path-5" fill="black"></use>
        </mask>
        <polygon id="path-7" points="427.55516 331.299804 597.357542 332.556438 598.35882 502.257923 427.572582 502.614177"></polygon>
        <mask id="mask-8" maskContentUnits="userSpaceOnUse" maskUnits="objectBoundingBox" x="-4" y="-4" width="178.80366" height="179.314373">
            <rect x="423.55516" y="327.299804" width="178.80366" height="179.314373" fill="white"></rect>
            <use xlink:href="#path-7" fill="black"></use>
        </mask>
        <polygon id="path-9" points="303.55516 455.299804 473.357542 456.556438 474.35882 626.257923 303.572582 626.614177"></polygon>
        <mask id="mask-10" maskContentUnits="userSpaceOnUse" maskUnits="objectBoundingBox" x="-4" y="-4" width="178.80366" height="179.314373">
            <rect x="299.55516" y="451.299804" width="178.80366" height="179.314373" fill="white"></rect>
            <use xlink:href="#path-9" fill="black"></use>
        </mask>
    </defs>
    <g id="Page-1" stroke="none" stroke-width="1" fill="none" fill-rule="evenodd">
        <g id="diamond_2b_3b" transform="translate(2.000000, 2.000000)">
            <path d="M775.729004,276.912109 L389.038574,665.3125 L0.803710938,276.912109 C0.803710938,276.912109 17.9210315,224.670375 62.2832031,166.193359 C71.1360163,154.52382 96.2493569,122.972676 126.160156,97.28125 C156.070956,71.5898237 188.497893,53.5786069 198.080078,48.4472656 C217.625981,37.9802695 246.778349,26.0178787 268.349609,19.2167969 C307.705323,6.80855395 351.411392,0.5625 379.896484,0.5625 C409.369514,0.5625 450.409418,3.05471045 493.779297,14.7167969 C537.149176,26.3788833 594.8632,52.2456934 637.96875,87.7988281 C670.375094,114.527338 703.843081,149.363111 726.363281,182.376953 C737.536426,198.756401 751.336281,221.694286 760.832031,241.113281 C770.327781,260.532277 775.729004,276.912109 775.729004,276.912109 Z" id="outfield" stroke="#070707" stroke-width="4" fill="#F5F5F5"></path>
            <g id="infield" transform="translate(388.674347, 418.046459) rotate(315.000000) translate(-388.674347, -418.046459) ">
                <use fill="#F5F5F5" fill-rule="evenodd" xlink:href="#path-1"></use>
                <use stroke="#070707" mask="url(#mask-2)" stroke-width="8" xlink:href="#path-1"></use>
            </g>
            <g id="third_base" transform="translate(264.956990, 416.956990) scale(-1, 1) rotate(315.000000) translate(-264.956990, -416.956990) ">
                <use fill="#BA0021" fill-rule="evenodd" xlink:href="#path-3"></use>
                <use stroke="#070707" mask="url(#mask-4)" stroke-width="8" xlink:href="#path-3"></use>
            </g>
            <g id="second_base" transform="translate(388.905455, 294.956990) rotate(315.000000) translate(-388.905455, -294.956990) ">
                <use fill="#BA0021" fill-rule="evenodd" xlink:href="#path-5"></use>
                <use stroke="#070707" mask="url(#mask-6)" stroke-width="8" xlink:href="#path-5"></use>
            </g>
            <g id="first_base" transform="translate(512.956990, 416.956990) rotate(315.000000) translate(-512.956990, -416.956990) ">
                <use fill="#F5F5F5" fill-rule="evenodd" xlink:href="#path-7"></use>
                <use stroke="#070707" mask="url(#mask-8)" stroke-width="8" xlink:href="#path-7"></use>
            </g>
            <g id="home_plate" transform="translate(388.956990, 540.956990) scale(1, -1) rotate(315.000000) translate(-388.956990, -540.956990) ">
                <use fill="#F5F5F5" fill-rule="evenodd" xlink:href="#path-9"></use>
                <use stroke="#070707" mask="url(#mask-10)" stroke-width="8" xlink:href="#path-9"></use>
            </g>
        </g>
    </g>
</svg>