<?xml version="1.0" encoding="UTF-8" standalone="no"?>
<svg width="301px" height="264px" viewBox="0 0 301 264" version="1.1" xmlns="http://www.w3.org/2000/svg" xmlns:xlink="http://www.w3.org/1999/xlink">
    <!-- Generator: Sketch 3.8.3 (29802) - http://www.bohemiancoding.com/sketch -->
    <title>Slice 1</title>
    <desc>Created with Sketch.</desc>
    <defs>
        <path d="M23.1835938,58.8843452 C33.8232781,46.229631 48.0564393,34.9672756 59.2480469,27.7261421 C68.7645269,21.5688406 84.1347655,11.9568545 101.015625,7.30036082 C108.117384,5.3413791 114.129841,3.3830843 120.650391,2.31403279 C134.575025,0.0310730491 146.569504,0.000556158697 146.569504,0.000556158697 C146.569504,0.000556158697 158.997546,-0.0975986101 174.720703,2.3140327 C180.878009,3.25844561 187.438305,5.42159579 194.109375,7.30036084 C209.635531,11.6729727 224.802838,21.4132542 234.244141,27.7261421 C247.64973,36.6897341 265.158136,54.0546801 277.004883,70.4868843 C287.115215,84.5105699 291.096191,97.5620117 291.096191,97.5620117 L145.727905,253.634888 L0,94.7104492 C0,94.7104492 7.51355545,77.5221027 23.1835938,58.8843452 Z" id="path-1"></path>
        <mask id="mask-2" maskContentUnits="userSpaceOnUse" maskUnits="objectBoundingBox" x="-4" y="-4" width="299.096191" height="261.634888">
            <rect x="-4" y="-4" width="299.096191" height="261.634888" fill="white"></rect>
            <use xlink:href="#path-1" fill="black"></use>
        </mask>
        <polygon id="path-3" points="91.3078862 115.200162 205.077499 110.579109 200.774089 224.843141 86.504532 229.002923"></polygon>
        <mask id="mask-4" maskContentUnits="userSpaceOnUse" maskUnits="objectBoundingBox" x="-4" y="-4" width="126.572968" height="126.423814">
            <rect x="82.504532" y="106.579109" width="126.572968" height="126.423814" fill="white"></rect>
            <use xlink:href="#path-3" fill="black"></use>
        </mask>
        <polygon id="path-5" points="118.609372 100.521558 175.2193 98.2193001 173.077992 155.146853 116.2193 157.2193"></polygon>
        <mask id="mask-6" maskContentUnits="userSpaceOnUse" maskUnits="objectBoundingBox" x="-4" y="-4" width="67" height="67">
            <rect x="112.2193" y="94.2193001" width="67" height="67" fill="white"></rect>
            <use xlink:href="#path-5" fill="black"></use>
        </mask>
        <polygon id="path-7" points="79.6093719 142.521558 136.2193 140.2193 134.077992 197.146853 77.2193001 199.2193"></polygon>
        <mask id="mask-8" maskContentUnits="userSpaceOnUse" maskUnits="objectBoundingBox" x="-4" y="-4" width="67" height="67">
            <rect x="73.2193001" y="136.2193" width="67" height="67" fill="white"></rect>
            <use xlink:href="#path-7" fill="black"></use>
        </mask>
        <polygon id="path-9" points="157.609372 142.521558 214.2193 140.2193 212.077992 197.146853 155.2193 199.2193"></polygon>
        <mask id="mask-10" maskContentUnits="userSpaceOnUse" maskUnits="objectBoundingBox" x="-4" y="-4" width="67" height="67">
            <rect x="151.2193" y="136.2193" width="67" height="67" fill="white"></rect>
            <use xlink:href="#path-9" fill="black"></use>
        </mask>
        <polygon id="path-11" points="118.609372 184.521558 175.2193 182.2193 173.077992 239.146853 116.2193 241.2193"></polygon>
        <mask id="mask-12" maskContentUnits="userSpaceOnUse" maskUnits="objectBoundingBox" x="-4" y="-4" width="67" height="67">
            <rect x="112.2193" y="178.2193" width="67" height="67" fill="white"></rect>
            <use xlink:href="#path-11" fill="black"></use>
        </mask>
    </defs>
    <g id="diamond" stroke="none" stroke-width="1" fill="none" fill-rule="evenodd">
        <g id="Group-3" transform="translate(5.000000, 4.000000)">
            <g id="Rectangle-1">
                <use fill="#F5F5F5" fill-rule="evenodd" xlink:href="#path-1"></use>
                <use stroke="#070707" mask="url(#mask-2)" stroke-width="8" xlink:href="#path-1"></use>
            </g>
            <use id="Rectangle-1" stroke="#070707" mask="url(#mask-4)" stroke-width="8" transform="translate(145.791016, 169.791016) rotate(315.000000) translate(-145.791016, -169.791016) " xlink:href="#path-3"></use>
            <g id="Rectangle-1" transform="translate(145.719300, 127.719300) rotate(315.000000) translate(-145.719300, -127.719300) ">
                <use fill="#D0011B" fill-rule="evenodd" xlink:href="#path-5"></use>
                <use stroke="#070707" mask="url(#mask-6)" stroke-width="8" xlink:href="#path-5"></use>
            </g>
            <g id="Rectangle-1" transform="translate(106.719300, 169.719300) rotate(315.000000) translate(-106.719300, -169.719300) ">
                <use fill="#D0011B" fill-rule="evenodd" xlink:href="#path-7"></use>
                <use stroke="#070707" mask="url(#mask-8)" stroke-width="8" xlink:href="#path-7"></use>
            </g>
            <g id="Rectangle-1" transform="translate(184.719300, 169.719300) rotate(315.000000) translate(-184.719300, -169.719300) ">
                <use fill="#D0011B" fill-rule="evenodd" xlink:href="#path-9"></use>
                <use stroke="#070707" mask="url(#mask-10)" stroke-width="8" xlink:href="#path-9"></use>
            </g>
            <g id="Rectangle-1" transform="translate(145.719300, 211.719300) rotate(315.000000) translate(-145.719300, -211.719300) ">
                <use fill="#F5F5F5" fill-rule="evenodd" xlink:href="#path-11"></use>
                <use stroke="#070707" mask="url(#mask-12)" stroke-width="8" xlink:href="#path-11"></use>
            </g>
        </g>
    </g>
</svg>