<?xml version="1.0" encoding="UTF-8" standalone="no"?>
<svg width="301px" height="264px" viewBox="0 0 301 264" version="1.1" xmlns="http://www.w3.org/2000/svg" xmlns:xlink="http://www.w3.org/1999/xlink">
    <!-- Generator: Sketch 3.8.3 (29802) - http://www.bohemiancoding.com/sketch -->
    <title>Slice 1</title>
    <desc>Created with Sketch.</desc>
    <defs>
        <path d="M23.5260025,58.8843452 C34.1656869,46.229631 48.3988481,34.9672756 59.5904556,27.7261421 C69.1069357,21.5688406 84.4771743,11.9568545 101.358034,7.30036082 C108.459793,5.3413791 114.47225,3.3830843 120.992799,2.31403279 C134.917434,0.0310730491 146.911913,0.000556158697 146.911913,0.000556158697 C146.911913,0.000556158697 159.339955,-0.0975986101 175.063112,2.3140327 C181.220418,3.25844561 187.780714,5.42159579 194.451784,7.30036084 C209.97794,11.6729727 225.145247,21.4132542 234.586549,27.7261421 C247.992139,36.6897341 265.500545,54.0546801 277.347292,70.4868843 C287.457624,84.5105699 291.4386,97.5620117 291.4386,97.5620117 L146.070314,253.634888 L0.342408774,94.7104492 C0.342408774,94.7104492 7.85596422,77.5221027 23.5260025,58.8843452 Z" id="path-1"></path>
        <mask id="mask-2" maskContentUnits="userSpaceOnUse" maskUnits="objectBoundingBox" x="-4" y="-4" width="299.096191" height="261.634888">
            <rect x="-3.65759123" y="-4" width="299.096191" height="261.634888" fill="white"></rect>
            <use xlink:href="#path-1" fill="black"></use>
        </mask>
        <polygon id="path-3" points="91.650295 115.200162 205.419908 110.579109 201.116498 224.843141 86.8469407 229.002923"></polygon>
        <mask id="mask-4" maskContentUnits="userSpaceOnUse" maskUnits="objectBoundingBox" x="-4" y="-4" width="126.572968" height="126.423814">
            <rect x="82.8469407" y="106.579109" width="126.572968" height="126.423814" fill="white"></rect>
            <use xlink:href="#path-3" fill="black"></use>
        </mask>
        <polygon id="path-5" points="118.951781 100.521558 175.561709 98.2193001 173.420401 155.146853 116.561709 157.2193"></polygon>
        <mask id="mask-6" maskContentUnits="userSpaceOnUse" maskUnits="objectBoundingBox" x="-4" y="-4" width="67" height="67">
            <rect x="112.561709" y="94.2193001" width="67" height="67" fill="white"></rect>
            <use xlink:href="#path-5" fill="black"></use>
        </mask>
        <polygon id="path-7" points="79.9517806 142.521558 136.561709 140.2193 134.420401 197.146853 77.5617089 199.2193"></polygon>
        <mask id="mask-8" maskContentUnits="userSpaceOnUse" maskUnits="objectBoundingBox" x="-4" y="-4" width="67" height="67">
            <rect x="73.5617089" y="136.2193" width="67" height="67" fill="white"></rect>
            <use xlink:href="#path-7" fill="black"></use>
        </mask>
        <polygon id="path-9" points="157.951781 142.521558 214.561709 140.2193 212.420401 197.146853 155.561709 199.2193"></polygon>
        <mask id="mask-10" maskContentUnits="userSpaceOnUse" maskUnits="objectBoundingBox" x="-4" y="-4" width="67" height="67">
            <rect x="151.561709" y="136.2193" width="67" height="67" fill="white"></rect>
            <use xlink:href="#path-9" fill="black"></use>
        </mask>
        <polygon id="path-11" points="118.951781 184.521558 175.561709 182.2193 173.420401 239.146853 116.561709 241.2193"></polygon>
        <mask id="mask-12" maskContentUnits="userSpaceOnUse" maskUnits="objectBoundingBox" x="-4" y="-4" width="67" height="67">
            <rect x="112.561709" y="178.2193" width="67" height="67" fill="white"></rect>
            <use xlink:href="#path-11" fill="black"></use>
        </mask>
    </defs>
    <g id="diamond" stroke="none" stroke-width="1" fill="none" fill-rule="evenodd">
        <g id="Group-4" transform="translate(5.000000, 4.000000)">
            <g id="Rectangle-1">
                <use fill="#F5F5F5" fill-rule="evenodd" xlink:href="#path-1"></use>
                <use stroke="#070707" mask="url(#mask-2)" stroke-width="8" xlink:href="#path-1"></use>
            </g>
            <use id="Rectangle-1" stroke="#070707" mask="url(#mask-4)" stroke-width="8" transform="translate(146.133425, 169.791016) rotate(315.000000) translate(-146.133425, -169.791016) " xlink:href="#path-3"></use>
            <g id="Rectangle-1" transform="translate(146.061709, 127.719300) rotate(315.000000) translate(-146.061709, -127.719300) ">
                <use fill="#D0011B" fill-rule="evenodd" xlink:href="#path-5"></use>
                <use stroke="#070707" mask="url(#mask-6)" stroke-width="8" xlink:href="#path-5"></use>
            </g>
            <g id="Rectangle-1" transform="translate(107.061709, 169.719300) rotate(315.000000) translate(-107.061709, -169.719300) ">
                <use fill="#F5F5F5" fill-rule="evenodd" xlink:href="#path-7"></use>
                <use stroke="#070707" mask="url(#mask-8)" stroke-width="8" xlink:href="#path-7"></use>
            </g>
            <g id="Rectangle-1" transform="translate(185.061709, 169.719300) rotate(315.000000) translate(-185.061709, -169.719300) ">
                <use fill="#D0011B" fill-rule="evenodd" xlink:href="#path-9"></use>
                <use stroke="#070707" mask="url(#mask-10)" stroke-width="8" xlink:href="#path-9"></use>
            </g>
            <g id="Rectangle-1" transform="translate(146.061709, 211.719300) rotate(315.000000) translate(-146.061709, -211.719300) ">
                <use fill="#F5F5F5" fill-rule="evenodd" xlink:href="#path-11"></use>
                <use stroke="#070707" mask="url(#mask-12)" stroke-width="8" xlink:href="#path-11"></use>
            </g>
        </g>
    </g>
</svg>