<svg width="651" height="133" viewBox="0 0 651 133" xmlns="http://www.w3.org/2000/svg" xmlns:xlink="http://www.w3.org/1999/xlink"><title>uxscoreboard_final</title><defs><path id="a" d="M0 0h100v133H0z"/><mask id="c" x="0" y="0" width="100" height="133" fill="#fff"><use xlink:href="#a"/></mask><path id="b" d="M0 0h100v133H0z"/><mask id="d" x="0" y="0" width="100" height="133" fill="#fff"><use xlink:href="#b"/></mask></defs><g fill="none" fill-rule="evenodd"><g transform="translate(93)"><use stroke="#F5F5F5" mask="url(#c)" stroke-width="14" fill="#070707" xlink:href="#a"/><path d="M35.25 36.6l.5-5.4h5.6l9.4 28.9-6.4 4.9-9.1-28.4zm15.9 25.5h4.6l3.3 3.7-4.5 3.4h-3.9l-3.6-3.4 4.1-3.7zM28.55 100l.6-5.4 15.1-28.4 5.3 4.9-15.4 28.9h-5.6zm49-68.8l-.5 5.4L61.95 65l-5.4-4.9 15.4-28.9h5.6zm-6.6 63.4l-.6 5.4h-5.6l-9.4-28.9 6.5-4.9 9.1 28.4z" fill="#F5F5F5"/></g><use stroke="#F5F5F5" mask="url(#d)" stroke-width="14" fill="#070707" xlink:href="#b"/><path d="M42.85 38.8l-4.1-7.6c-.8.467-1.45 1.183-1.95 2.15-.5.967-.817 1.817-.95 2.55l-2.6 24.9.1 1.1c.133.4.483.883 1.05 1.45.567.567.917.85 1.05.85h.8c.4-.333 1.05-.917 1.95-1.75.9-.833 1.617-1.517 2.15-2.05l.5-2.1 2-19.5zm25.2 21.6c.333.533.867 1.217 1.6 2.05.733.833 1.3 1.417 1.7 1.75h.8c.133 0 .533-.283 1.2-.85.667-.567 1.1-1.05 1.3-1.45l.3-1.1 2.6-24.9c.133-.733.033-1.583-.3-2.55-.333-.967-.867-1.683-1.6-2.15l-5.7 7.6-2 19.5.1 2.1zm-.2 39.6c.6 0 1.217-.25 1.85-.75s1.083-1.05 1.35-1.65l-6.1-4.7h-25.8l-5 6.7v.4h33.7zm-3.2-10.1l6.3 5.2h.4l2.6-24.3-.1-1.1c-.133-.4-.483-.883-1.05-1.45-.567-.567-.917-.85-1.05-.85h-.8c-.4.333-1.05.917-1.95 1.75-.9.833-1.617 1.517-2.15 2.05l-.5 2.1-1.7 16.6zm-25.5-18.7c-.4-.533-.95-1.217-1.65-2.05-.7-.833-1.25-1.417-1.65-1.75h-.8c-.133 0-.533.283-1.2.85-.667.567-1.1 1.05-1.3 1.45l-.3 1.1-2.6 24.5c-.133.733-.033 1.583.3 2.55.333.967.867 1.683 1.6 2.15l5.7-7.6 2-19.1-.1-2.1z" fill="#F5F5F5"/><path d="M204.798 91.07v-4.557c4.03 1.364 8.339 2.046 12.927 2.046 4.34 0 7.44-.589 9.3-1.767 1.86-1.178 2.79-3.162 2.79-5.952 0-1.736-.356-3.1-1.07-4.092-.713-.992-1.751-1.798-3.115-2.418-1.364-.62-3.503-1.426-6.417-2.418l-2.325-.837c-3.348-1.116-5.843-2.061-7.487-2.837-1.643-.775-3.022-1.921-4.138-3.44-1.116-1.52-1.674-3.581-1.674-6.185 0-3.906 1.286-6.82 3.86-8.742 2.573-1.922 6.68-2.883 12.322-2.883 4.216 0 8.122.527 11.718 1.581v4.557a36.822 36.822 0 0 0-10.974-1.674c-4.34 0-7.409.542-9.207 1.628-1.798 1.085-2.697 2.898-2.697 5.44 0 1.674.372 2.991 1.116 3.952.744.962 1.844 1.752 3.302 2.372 1.457.62 3.828 1.457 7.114 2.511 3.72 1.178 6.587 2.278 8.602 3.301 2.016 1.024 3.55 2.325 4.604 3.906 1.054 1.582 1.581 3.674 1.581 6.278 0 8.06-5.518 12.09-16.554 12.09-5.332 0-9.858-.62-13.578-1.86zm40.362-21.111c0-7.564 2-13.283 5.999-17.159 3.999-3.875 9.532-5.812 16.6-5.812 2.666 0 4.882.186 6.65.558 1.767.372 3.549.992 5.347 1.86v4.185c-3.286-1.55-7.006-2.325-11.16-2.325-12.276 0-18.414 6.23-18.414 18.693 0 6.51 1.395 11.268 4.185 14.275 2.79 3.008 7.409 4.511 13.857 4.511 4.03 0 7.905-.806 11.625-2.418v4.278c-3.658 1.55-7.936 2.325-12.834 2.325-14.57 0-21.855-7.657-21.855-22.971zm46.686 17.205c-3.348-3.844-5.022-9.579-5.022-17.205 0-7.564 1.705-13.283 5.115-17.159 3.41-3.875 8.711-5.812 15.903-5.812s12.508 1.937 15.95 5.813c3.44 3.875 5.161 9.594 5.161 17.158 0 7.626-1.69 13.361-5.068 17.205-3.38 3.844-8.727 5.766-16.043 5.766-7.316 0-12.648-1.922-15.996-5.766zm28.318-3.069c2.45-2.976 3.674-7.688 3.674-14.136 0-6.386-1.24-11.067-3.72-14.043-2.48-2.976-6.572-4.464-12.276-4.464s-9.796 1.488-12.276 4.464c-2.48 2.976-3.72 7.657-3.72 14.043 0 6.448 1.224 11.16 3.673 14.136 2.45 2.976 6.557 4.464 12.323 4.464s9.873-1.488 12.322-4.464zm20.879-36.177h4.464l.558 6.138c2.232-1.55 4.82-2.945 7.765-4.185a54.865 54.865 0 0 1 8.789-2.883v4.185c-2.79.682-5.781 1.69-8.975 3.023-3.193 1.333-5.688 2.65-7.486 3.952V92h-5.115V47.918zm32.596 39.386c-3.627-3.752-5.44-9.626-5.44-17.624 0-15.128 6.789-22.692 20.367-22.692 6.076 0 10.633 1.627 13.671 4.883 3.038 3.255 4.557 7.517 4.557 12.787v7.998h-33.48c.186 3.906.899 7.021 2.139 9.346 1.24 2.326 3.177 4.03 5.813 5.116 2.635 1.085 6.215 1.627 10.741 1.627 4.092 0 8.06-.775 11.904-2.325v4.185c-3.782 1.55-8.091 2.325-12.927 2.325-7.936 0-13.717-1.875-17.344-5.627zm28.505-18.647v-4.185c0-8.804-4.495-13.206-13.485-13.206-5.58 0-9.532 1.441-11.858 4.325-2.325 2.883-3.487 7.238-3.487 13.066h28.83zm28.551 22.878c-2.542-.93-4.898-2.418-7.068-4.464L423.162 92h-4.278V29.318h5.115v22.32c4.278-3.1 9.455-4.65 15.531-4.65 13.144 0 19.716 7.533 19.716 22.599 0 7.874-1.705 13.733-5.115 17.577-3.41 3.844-8.277 5.766-14.601 5.766-3.348 0-6.293-.465-8.835-1.395zm19.762-7.533c2.512-3.162 3.767-7.967 3.767-14.415 0-6.448-1.302-11.113-3.906-13.997-2.604-2.883-6.665-4.324-12.183-4.324-5.58 0-10.292 1.612-14.136 4.836v26.691c3.72 3.968 8.494 5.952 14.322 5.952 5.58 0 9.625-1.581 12.136-4.743zm21.716 3.162c-3.348-3.844-5.022-9.579-5.022-17.205 0-7.564 1.705-13.283 5.115-17.159 3.41-3.875 8.711-5.812 15.903-5.812s12.508 1.937 15.95 5.813c3.44 3.875 5.161 9.594 5.161 17.158 0 7.626-1.69 13.361-5.068 17.205-3.38 3.844-8.727 5.766-16.043 5.766-7.316 0-12.648-1.922-15.996-5.766zm28.318-3.069c2.45-2.976 3.674-7.688 3.674-14.136 0-6.386-1.24-11.067-3.72-14.043-2.48-2.976-6.572-4.464-12.276-4.464s-9.796 1.488-12.276 4.464c-2.48 2.976-3.72 7.657-3.72 14.043 0 6.448 1.224 11.16 3.673 14.136 2.45 2.976 6.557 4.464 12.323 4.464s9.873-1.488 12.322-4.464zm21.019 5.673c-2.884-2.108-4.325-5.27-4.325-9.486 0-4.154 1.302-7.393 3.906-9.718 2.604-2.326 6.758-3.488 12.462-3.488h16.461v-4.185c0-2.914-.372-5.192-1.116-6.835-.744-1.644-2.108-2.837-4.092-3.581-1.984-.744-4.836-1.116-8.556-1.116-4.836 0-9.517.806-14.043 2.418v-4.371c4.154-1.612 9.145-2.418 14.973-2.418 6.138 0 10.633 1.24 13.485 3.72 2.852 2.48 4.278 6.51 4.278 12.09V92h-4.185l-.465-5.487a18.177 18.177 0 0 1-7.3 4.882c-2.822 1.024-6.309 1.535-10.463 1.535-4.464 0-8.137-1.054-11.02-3.162zm28.504-7.998V71.168h-16.275c-4.216 0-7.192.744-8.928 2.232-1.736 1.488-2.604 3.782-2.604 6.882 0 2.976.992 5.115 2.976 6.417 1.984 1.302 4.867 1.953 8.649 1.953 6.882 0 12.276-2.294 16.182-6.882zm18.414-33.852h4.464l.558 6.138c2.232-1.55 4.82-2.945 7.765-4.185a54.865 54.865 0 0 1 8.789-2.883v4.185c-2.79.682-5.781 1.69-8.975 3.023-3.193 1.333-5.688 2.65-7.486 3.952V92h-5.115V47.918zm31.015 39.479c-3.503-3.69-5.254-9.378-5.254-17.066 0-7.812 1.767-13.655 5.301-17.53 3.534-3.876 8.494-5.813 14.88-5.813 3.038 0 5.75.356 8.138 1.07 2.387.713 4.696 1.906 6.928 3.58v-22.32h5.115V92h-4.278l-.465-4.929c-2.17 2.046-4.526 3.534-7.068 4.464-2.542.93-5.487 1.395-8.835 1.395-6.138 0-10.958-1.844-14.462-5.534zm29.993-4.604V56.102c-3.72-3.224-8.277-4.836-13.671-4.836-5.518 0-9.656 1.55-12.415 4.65-2.76 3.1-4.139 7.905-4.139 14.415 0 6.262 1.302 10.896 3.906 13.903 2.604 3.008 6.603 4.511 11.997 4.511 5.828 0 10.602-1.984 14.322-5.952z" fill="#070707"/></g></svg>