<svg xmlns="http://www.w3.org/2000/svg" height="285" width="285" viewBox="0 0 285 285"><g fill="#FFF"><path d="M152.1 61.2v-1.3c-.8-.1-1.8-.2-2.9-.3v1.3c1.1.1 2.1.2 2.9.3zm-14.8-1.7c-.7 0-1.3 0-1.9.1v1.3c.6 0 1.2-.1 1.9-.1v-1.3zm-2 7.2h2v-4.5c0-.2.1-.5.2-.6-.7 0-1.3 0-2 .1-.1.1-.2.4-.2.7v4.3zm16.8-4.8c-.9-.1-1.8-.2-2.9-.2v5.1c1.1 0 2.1.1 2.9.1v-5zm-.4 8c1.2 0 2.3.1 3.2.2-.5-1.4-1.9-2.1-2.4-2.3-.9 0-1.9-.1-3.1-.1.6.1 2 .9 2.3 2.2zm-15.3-.2c.1-.3.2-1.2.8-2.2h-1.9c-.6 1.1-.7 1.9-.8 2.3.6 0 1.2 0 1.9-.1zm-1.9 7.4h1.8v-6.7h-1.8v6.7zm20.5-6.5c-.9 0-1.9-.1-3.1-.1v6.7c1.2 0 2.2.1 3.1.1v-6.7zm-2.2 14c1.3 0 2.4 0 3.4.1-.1-3.6-4.7-3.6-1.5-6.1-.9-.1-1.9-.1-3-.2-3.1 2.3 1 2.6 1.1 6.2zm-19 0h1.8c-.2-3.3 2.5-3.5 1-6.3-.6 0-1.2 0-1.8.1 1.4 2.7-1.2 2.9-1 6.2zm22.4 1h-3.4v5.9h3.4v-5.9zm-22.4 5.9h1.9v-5.9h-1.9v5.9zm-1 7.4h1.9c-.4-3.5 2.7-3.3 1.2-6.2H134c1.5 2.9-1.6 2.7-1.2 6.2zm26.7-.2c.5-3.3-4.9-3.5-1.9-5.8h-2.8c-2.8 3.2 2.3 2.8 1.4 6 1.1-.1 2.3-.2 3.3-.2zm-22.9-46.9c.5-.1 1.1-.1 1.7-.1v-.5c-.6 0-1.1.1-1.7.1v.5zm11.8-.3c-.5-.1-1.1-.2-1.7-.2v.5c.6.1 1.2.1 1.7.2v-.5zm-21.5-25.4l-.1-1.2c-.6.1-1.1.1-1.6.2l.1 1.2c.6-.1 1.1-.1 1.6-.2zm35.2 1v-1.2c-1-.3-2.2-.5-3.7-.8v1.2c1.5.3 2.7.6 3.7.8zm-7.3-1.2c0-.4-.1-.8-.2-1.3-3.4-.3-7.6-.6-13-.6h-1.7c-.1.4-.1.8-.2 1.2h1.9c5.5.1 9.8.4 13.2.7zm4.4 5.1c.5-.5 1.4-1.3 2.7-1.3 0-.4.1-1.1.1-1.8-1-.3-2.2-.5-3.6-.7v3.2c.3.2.6.4.8.6zm-10.9-.3c.7-.7 2.5-2 5.3-2 .5 0 .9 0 1.3.1 0-.7 0-1.4-.1-2.1-3.4-.4-7.7-.6-13.2-.6h-2c-.1.9-.1 1.7-.1 2.6.7-.1 1.4-.2 2.1-.2 3.6 0 5.8 1.5 6.7 2.2zm-22.6-.9c.4-.3 1-.5 1.5-.7l-.2-2.2c-.6.1-1.1.1-1.6.2l.3 2.7z"/><path d="M157.9 38.5c1.4 0 .4 1.7 1 1.7.4 0 .2-1 .9-1.1.4-.9 1.4-3.6 1.4-8.8-1.4.3-2.2 1.6-2.2 1.6s-.4-.6-1.2-1.2c0 4.8-1.1 7.5-1.4 8.2.1 0 .2.1.3.1.6 0 .5-.5 1.2-.5zm-31.8-3.2c.1.7.3 1.5.7 1.5.7 0 .2-1.5.8-2l-.5-5.1c-.6.2-1.1.5-1.5.7l.5 4.9zm16.3 4.5c1.5 0 .4-2.1 2.1-2.1 1.3 0 .9 1.3 1.9 1.3 1.5 0 .6-3.2 2.3-3.2 1.1 0 .8 1.1 1.8 1.1 1.4 0 .4-2.8 2-2.8s.5 2.2 1.7 2.4c.2-.9.7-3.7.8-7-.4-.1-.9-.1-1.3-.1-3.7 0-5.3 2.3-5.3 2.3s-2.2-2.5-6.7-2.5c-.8 0-1.5.1-2.1.2 0 4.3 1 8 1.5 9.5.2.3.4.9 1.3.9zm-21.1 0c-.8 0 .4 1.1.5 2.9 0 .1.1-2.9-.5-2.9zm1.8-1.1c-.3 0-.5.2-.5.5 0 .4 1.1.9 1.1 4 .1-2 .2-4.5-.6-4.5zm2.5 3.5c.6-2.1 1.2-5.7-.1-5.7-.4 0-.7.3-.7.7.1.7 1.2 1 .8 5zm2.5 1.6c.8-4.1 1.4-8.8.2-8.8-.3 0-.6.2-.6.5 0 .9 1.1 1.3.4 8.3zm3.7-7.4c-.5 0-.6.4-.6.6 0 .4 1.2 1.3-.4 7.7 1.3-2 2.3-8.3 1-8.3zm4.9 2.5c0-.5-.5-.9-.8-.9-1.7 0-.1 2.9-2.4 7.9 0 0 2.1-2.7 2.6-5.7.1-.6.6-.8.6-1.3zm4 .7c0-1-1.5-1-1.5.1 0 2.6-1.5 3.7-3.4 7.4 2.6-4.4 4.9-5.3 4.9-7.5z"/><path d="M143.7 39c-.5 4-2.2 2.3-4.3 6.8 2-3.3 4-1.9 5.4-7 .2-.5-.9-1-1.1.2zm4.4-2c0 4.5-2.4 5.1-5.6 8.5 3.1-2.4 7-4.2 7-8.5-.1-.9-1.4-.9-1.4 0zm3.7-1.7c0 6.2-4.8 9.5-4.8 9.5 3.3-1.2 6.2-6.9 6.2-9.7-.1-.9-1.4-.9-1.4.2zm-1.6 9.9s4.5-2 6-8.6c.1-.6-1-.8-1.1 0-.4 5.3-4.9 8.6-4.9 8.6zm7.2-5.7c-.7 3.1-3.7 5.7-3.7 5.7s2.7-1.4 4.6-5.5c.3-.6-.7-1.2-.9-.2zm2.2.5c-.7 3.7-3.6 5.7-3.6 5.7s3.3-1.7 4.7-5.4c.1-.5-1-1-1.1-.3zm.2 4.5s2.3-1.8 3.1-4.6c.2-.5-.8-.9-.9-.1-.2 2.3-2.2 4.7-2.2 4.7zm-24.4 14.4c.6 0 1.2-.1 1.9-.1v-.2c-.2 0-.4-.1-.4-.1l-1.5.1v.3zm13.8-.2v.3c1.1.1 2.1.2 2.9.3V59l-1.2-.1c-.6.2-.9-.1-.9-.1l-.8-.1zm.4-2.2s-1-.9-.9-2.2c-.4-.1-1-.1-1.7-.2-.3 1 .5 2.1.5 2.1s.8-.2 1.3.4l.4.1c.1-.1.2-.2.4-.2zM137.1 54c.2 1.4-.3 2.3-.3 2.3h.1c.1-.2.9-.6 1.5-.1h.2s.4-1.1.1-2.3c-.6 0-1.1 0-1.6.1z"/><path d="M148.3 56.4c-.5.1-.3 1.5.5 1.5.7 0 0-1.6-.5-1.5zm6.4 2.2c.5-.2-.4-1.4-.7-1.4-.2.1.2 1.7.7 1.4zm-8.7-2.4c-.6 0-.4 1.6.5 1.6.7 0 0-1.6-.5-1.6zm-2.3 1.4c.8 0 .3-1.6-.6-1.6-.4 0-.2 1.6.6 1.6zm-3.3 0c.7-.2-.1-1.2 0-1.5-1.2-.7-.9 1.8 0 1.5zm15.4 1.2c.3-.2-.3-1.1-.6-1.2-.2 0 .3 1.4.6 1.2zm.7.1c.3-.2-.2-1-.4-.9-.1.1.1 1.2.4.9zm-3.4-.5c.7-.2-.1-1.4-.5-1.5-.4 0-.2 1.7.5 1.5zm-2-.2c.7-.2-.1-1.5-.5-1.5s-.2 1.7.5 1.5zM129 58c.3.2.4-.6.7-.9-.8 0-.9.8-.7.9zm-1.3.2c.2.1.3-.5.5-.8-.5.1-.6.8-.5.8zm9.9-.5c.6 0 0-1 .2-1.4-.9-.7-1 1.5-.2 1.4zm-2.6 0c.5.1.3-.9.6-1.2-.9-.6-1.1 1-.6 1.2zm-4.3.2c.4.1.4-.7.7-1-.8-.2-1.1.8-.7 1zm2.1-.1c.4.1.3-.8.6-1.1-.9-.2-1.1.9-.6 1.1zm22.1 42.5c3.1.7 10 2.6 10 5.5 0 1.3-2.2 2-3.3 2.3 4.9-.2 10.2-.4 14.7-.8-.1-.7-.8-1-.8-1-2.8.3-6.1.5-6.1.5.7-4.4-6.8-6.1-10.7-6.7-1 .1-2.3.1-3.8.2zm28.7 68.3c2.6-1.2 3.9.7 3.4 1.9 0 0 1.7-2 .5-3.6l-7.4-9.9c-.4-.5-1.6-1.1-3.4-.1-3.4 1.9-12.8 7.3-35.1 7.3s-31.7-5.4-35.1-7.3c-1.8-1-3-.4-3.4.1l-7.4 9.9c-1.2 1.6.5 3.6.5 3.6-.5-1.2.8-3.1 3.4-1.9 8.8 4.1 22.2 8 42 8s33.3-3.9 42-8zm-86-1.8l6.7-8.9c1-1.4 8.4 7.7 37.4 7.7s36.4-9.1 37.4-7.7l6.7 8.9c-3.3-.6-13.3 8.4-44.1 8.4s-40.8-9-44.1-8.4zM94 185.2l8.1-6.4c1.7-1.4-.4-3.8-.4-3.8s.7 2.1-2.2 2.1c-2.7 0-7.4-4.8-29.5-11.6v10.7c18.7 6.6 19.6 9.4 22.3 9.4 1.2 0 1.7-.4 1.7-.4zm-22.5-17.8c20.7 6.4 25 11.5 28.7 11.1l-7 5.6c-1.6 1.3-3.9-2.8-21.7-8.9v-7.8zm109.6 11.4l8.1 6.4s.5.4 1.6.4c2.7 0 3.6-2.9 22.3-9.4v-10.7c-22 6.8-26.7 11.6-29.5 11.6-2.8 0-2.2-2.1-2.2-2.1s-2 2.4-.3 3.8zm30.6-11.4v7.7c-17.8 6.1-20.1 10.2-21.7 8.9l-7-5.6c3.7.5 8-4.6 28.7-11zm-21.9-40.3l.8-3.1h1.4c2.6 0 5.1-1.2 5.6-3.2.5-1.9-1.3-3.2-3.9-3.2H189l-2.4 9.4h3.2zm1.8-7.2h1.8c.5 0 .8.4.7.9-.1.5-.7 1-1.2 1h-1.8l.5-1.9zm-75.1 7.2h3.4l1.5-5.8 2.3 5.8h3.6l2.4-9.4h-3.4L125 123l-2.1-5.3h-5.1s.9.8.6 2.2l-1.9 7.2zm12.2 0h8l1.3-2.2h-5.3l1.8-7.2h-3.4zm9.3 0h8.4l1.3-2.2H142l.3-1.3h4.5l.6-2.2h-4.5l.4-1.5h4.8l.5-1.9 2.4 5.3-1 3.8h3.4l1-3.8 5.7-5.6h-3.6l-3.3 3.4-1.5-3.4h-12.4s.9.8.6 2.2l-1.9 7.2zm-29.9 0l1.2-2.2h3.2l.2 2.2h3.6l-1.4-9.4h-4.3l-6.1 9.4h3.6zm4-7.2l.2 3h-1.9l1.7-3zm-10.9 0l-1.9 7.2h3.4l1.8-7.2h3l1.1-2.2h-9.9l-1.1 2.2zm78.5 7.4c3 0 5.5-.7 6.3-3.7l1.5-5.9h-3.4l-1.5 5.9c-.3 1.1-1.3 1.4-2.4 1.4-1.1 0-1.9-.3-1.6-1.4l1.5-5.9h-3.4l-1.5 5.9c-.7 3 1.5 3.7 4.5 3.7zm-7.6-9c1.7 0 2.7.3 2.7.3l1.3-2.2s-1.3-.5-3.6-.5c-6.5 0-9.2 3.1-10 6.2-.7 2.6 1.1 6.2 7.1 6.2 2.7 0 4.4-.6 4.4-.6l-.3-2.3s-1.2.4-3.2.4c-4.1 0-4.4-2.6-4.1-3.8.5-1.8 2.1-3.7 5.7-3.7z"/><path d="M97 125c1-4.1-5.9-3.9-5.4-5.8.1-.5 1-.9 2.4-.9 1.8 0 3 .6 3 .6l1.2-2.3s-1.4-.6-3.8-.6c-4.1 0-6.1 1.7-6.5 3.1-1 4.1 5.9 3.8 5.4 5.8-.2.7-1.3 1.1-2.4 1.1-2.3 0-3.8-.8-3.8-.8l-1.3 2.3s1.5.9 4.8.9c3.1-.1 5.8-1.3 6.4-3.4zm80.2 21.2c.2 2.8 2 4.3 5.3 4.3 3 0 5.4-1.3 7.1-3.7l4.2.1h1.1c.8-1.3 1.3-2.7 1.7-4.3 1.5-5.9-.1-10.7-9.4-10.7s-13.4 4.8-14.9 10.7c-.3 1.1-.4 2.1-.5 3.1l1.1.1 4.3.4zm9.3-11.2c4.4 0 6.2 2.8 4.9 7.8h-1.1c-.9 3.7-3.1 6.7-7.5 6.7-4.3 0-5-3-4.1-6.7h-1.1c1.3-5 4.4-7.8 8.9-7.8zm44.7 12.4c-.3 1.2-2.3 2-3.8 2-3.5 0-6-1.8-6-1.8l-2.2 4.3 1.5-.6c.3-.7.6-1.2 1.1-2.1 1.1.6 3.1 1.3 5.4 1.3 2.1 0 4.7-1.3 5.2-3.1.2-.6 0-1.1-.3-1.6l4.3-.5c.2.7.3 1.4 0 2.4h1.1c1.8-7-9.1-7-8.4-9.7H228c.4-1.4 2.6-3 5.5-3 1.6 0 2.8.4 3.7.8l.3 1.7 2.1-4.4s-2-1-6.3-1c-4.9 0-9.6 2-10.5 5.7-1.8 6.8 9.2 6.7 8.4 9.6zm-174.7 3.2c1.6 0 2.9-.2 3.8-.4-.2.8-.3 1.2-.5 1.9l.9.9 1.1-4.2s-2 .8-5.1.8c-3 0-7.7-1.6-6.4-6.7.3-1.1.8-2 1.4-2.8l-1.3.2c-.5.8-.9 1.7-1.1 2.6-1.5 5.6 3.5 7.7 7.2 7.7zm-6.1-10.5c2.3-3.7 7-5.1 10.1-5.1 1.6 0 2.8.2 3.6.4l.7 1.5 1.1-4.2s-2.5-.6-5.3-.6c-8.4 0-13.8 4.3-15.9 8.8l1.2-.2 4.5-.6zm21 3.6s-1.7 6.7-2.1 8.4l.8 1.1 2.1-8.4-.8-1.1z"/><path d="M65.1 152.1c.3-1.3 2.2-8.5 3.4-13.1l4.2-.1-.8 3h10.3l.8-3 4.1.1c-1.4 5.5-3.1 12.1-3.4 13.2l.8 1.1 5.3-20.7h-6.4c.5.6.8 1.4.5 2.5l-.8 3.2H82l-.7 2.6h-8.1l2.1-8.4H69c.5.6.8 1.4.5 2.5 0 0-.3 1.3-.8 3.2h-1.1l-3.8 15 1.3-1.1z"/><path d="M80.3 144.8l-2.1 8.4 1.4-1.1 2.1-8.4-1.4 1.1zm15.9-6.7H95l-9 15 1.8-1.1c1-1.6 5.1-8.4 7.8-12.9l3.4.2-3.3 6h7.7l-.3-5.7 3.5.2c.4 4.9 1 10.9 1.1 12.3l1.3 1.1-1.9-20.7h-8.8c.4.6.5 1.6-.2 2.9-.2-.1-.9 1-1.9 2.7zm5.9 6.1h-4.8l4.4-7.8.4 7.8z"/><path d="M102.5 153.1l1.1-1.1c-.1-1.1-.2-4.9-.2-4.9l-1.1 1.1.2 4.9zm-10.2 0l2.7-4.9-.6-1.1s-2.1 3.8-2.7 4.9l.6 1.1zm23-15h-1.1l-3.8 15 1.4-1.1c.3-1.1 1.8-7.1 3-11.6l4 .4c-1 3.8-2.6 10-2.9 11.2l.8 1.1 4-15.4.4 15.4 1.1-1.1c0-.9-.2-6.9-.2-10.9l2.7.3.5 8.2s2.2-3.8 4.4-7.7l2.6.3c-2.1 3.9-4.8 9-5.3 9.9l.6 1.1 8.3-15.4-4 15.4 1.4-1.1c.3-1.1 1.5-5.8 2.4-9.5l4 .4c-1.1 4.1-2.1 8.2-2.3 9.1l.8 1.1 5.3-20.7h-9.6L126 146l-.8-13.5h-9.6c.5.6.8 1.4.5 2.5 0 0-.3 1.3-.8 3.1zm52.3 15l5.3-20.7h-6.4c.5.6.8 1.4.5 2.5 0 0-.3 1.3-.8 3.2H165l-3.8 15 1.4-1.1c.2-.8.9-3.6 1.7-6.7l4.1.3c-.8 3.1-1.5 5.7-1.6 6.4l.8 1.1zm-20.4 0l1.8-7.2-.8-1.1s-1.4 5.7-1.8 7.2l.8 1.1z"/><path d="M157.6 132.4h-11.5c.5.6.8 1.4.5 2.5 0 0-.3 1.3-.8 3.2h-1.1l-3.8 15 1.4-1.1c.2-.9 1.2-4.9 2.2-8.7l11.7 1.3c2.6-.7 4.9-2.9 5.6-5.4h1.1c.8-3.8-1.5-6.8-5.3-6.8zm-.1 6.8h-1.1c-.4 1.5-2 2.8-3.5 2.8H150l1.4-5.5-.8-1.1h4c2.1-.1 3.5 1.7 2.9 3.8zm39.8 12.9c.2-.6.7-2.6 1.3-5h4.1c-.6 2.3-1.1 4.3-1.3 4.9l.8 1.1 3-11.6 5.1 11.6.9-1.1c-.1-.3-1.1-2.4-2.2-4.9l3.6-.1.2.5.1-.5 4.2-.1c-.6 2.5-1.2 4.6-1.3 5.2l.8 1.1 5.3-20.7h-6.4c.5.6.8 1.4.5 2.5l-.8 3.2h-1.1l-1.5 5.9-5.1-11.6h-6.4c.5.6.8 1.4.5 2.5 0 0-.3 1.3-.8 3.2h-1.1l-3.8 15 1.4-1.1z"/></g><g fill="#C3C6C8"><path d="M233.3 126.5c-1.3 0-2.6.1-3.8.3h-29.3c1.4-1.2 2.3-2.7 2.8-4.5 1.4-5.3-2.8-10.2-9.4-10.2h-13.3v-2.8c1-3-1.1-5.2-1.1-5.2-1.4-5.3-7.3-7.3-10-8-.5-1.5-1.4-2.6-2.3-3.3.4-1-.4-2.5-.4-2.5v-6.1c0-2.2-1.4-3.8-2.7-4.8.1-.5.2-1.2.2-1.9v-7.2c0-1.9-1.5-3.5-2.6-4.5v-3.9l-.6-2.3c.2-3.2-3.2-5.2-3.2-5.2 6.2-3.2 12-9.2 12.1-23.3.2-.4.4-1.1.4-1.9v-1.7c0-1.9 0-7.7-28.5-7.7s-28.5 5.8-28.5 7.7v1.7c0 .8.2 1.4.4 1.9.1 14.1 6 20.1 12.1 23.3 0 0-3.4 1.9-3.2 5.2l-.6 2.3v3.9c-1.1.9-2.6 2.6-2.6 4.5v7.2c0 .8.1 1.4.2 1.9-1.2 1-2.7 2.6-2.7 4.8v6.1s-.8 1.5-.4 2.5c-.9.7-1.8 1.8-2.3 3.3-2.6.6-8.5 2.6-10 8 0 0-2.1 2.1-1.1 5.2v2.8h-1c-1.1-.6-4-1.8-7.6-1.8-7.4 0-11 3.9-11.9 7.3-.4 1.5-.4 2.9-.1 4.2l-2.7 4.9H64.8c-1.4-.2-2.9-.3-4.2-.3-12.6 0-20.1 7.5-22 14.9-2 8 2.4 17.7 16.6 17.7 1.4 0 2.9-.1 4.5-.3h4.9v22.8c20.9 6.8 22.7 11 27.9 11 3 0 4.8-1.4 5-1.5l1.8-1.5v.9c-.2.5-.4 1.2-.4 2v2.1c0 9.4 25.6 12.9 42.8 12.9 17.2 0 42.8-3.4 42.8-12.9v-2.1c0-.9-.2-1.6-.4-2v-.9l1.8 1.5c.2.2 2 1.5 5 1.5 5.2 0 7-4.3 27.9-11v-22.8h3.6c1.4.2 2.9.3 4.5.3 8.4 0 14.6-3.8 16.2-10 .8-2.9.4-5.7-1-8l5-10.3c-.2.1-5.3-4.2-13.8-4.2zm7.7 22.1c-1.3 5.2-6.8 8.5-14.2 8.5-1.7 0-3.1-.1-4.3-.3h-38.2l6.1 8.1c1.8 2.4.9 5.1.9 5.1 9-4.4 25.4-9.2 25.4-9.2V180c-19.8 6.5-21.3 10.5-25.9 10.5-2.3 0-3.7-1.1-3.7-1.1l-7.8-6.2v1.7s2.6 1.6 2.6 3.7v2.3s.4.6.4 1.6c0 6-19 10.8-40.8 10.8-21.8 0-40.8-4.8-40.8-10.8 0-1 .4-1.6.4-1.6v-2.3c0-2.2 2.6-3.7 2.6-3.7v-1.7l-7.8 6.2s-1.3 1.1-3.7 1.1c-4.5 0-6.1-3.9-25.8-10.5v-19.3s16.4 4.8 25.4 9.2c0 0-1-2.6.9-5.1l6.1-8.1H59.5c-1.2.2-2.8.3-4.4.3-12.4 0-16.4-8.1-14.6-15.2 1.7-6.6 8.5-13.4 20.1-13.4 1.5 0 2.9.1 4 .3h16.1l3.8-6.8c-.4-1.1-.6-2.3-.2-3.9.7-2.7 3.7-5.8 9.9-5.8 4.2 0 7.1 1.8 7.1 1.8h3.6l.1-5.1c-.9-2.5.8-3.8.8-3.8 1-6 9.8-7.3 9.8-7.3.5-3.2 3.2-4.3 3.2-4.3-1.2-1.3 0-2.9 0-2.9v-6.5c0-2.4 3.1-4 3.1-4s-.7-.6-.7-2.7v-7.2c0-1.7 2.6-3.5 2.6-3.5v-4.6l.6-2.4c-.5-3.4 5.9-5.3 5.9-5.3l-.3-.4c-6.1-2.3-14.5-6.7-14.5-23.4 0 0-.4-.6-.4-1.4v-1.7c0-3.9 11.8-5.7 26.5-5.7s26.5 1.8 26.5 5.7v1.7c0 .8-.4 1.4-.4 1.4 0 16.7-8.4 21.2-14.5 23.4l-.3.4s6.4 1.9 5.9 5.3l.6 2.4v4.6s2.6 1.8 2.6 3.5v7.2c0 2.1-.6 2.7-.6 2.7s3.1 1.6 3.1 4v6.5s1.2 1.6 0 2.9c0 0 2.7 1 3.2 4.3 0 0 8.8 1.3 9.8 7.3 0 0 1.7 1.3.8 3.8l.1 4.4c1 .4 1.6.7 1.6.7h13.7c5.8 0 8.3 3.9 7.4 7.6-.8 3.1-3.8 5.3-7.6 5.8l-.3 1.3h36.7c1.1-.2 2.3-.3 3.6-.3 6.7 0 11 3 11 3l-4.7 9.8c1.2 1.9 2 4.2 1.2 7.4z"/><path d="M133.3 59.7V61c.7 0 1.4-.1 2.2-.1v-1.3c-.9 0-1.6 0-2.2.1zm15.9.4v-.5c-2-.1-4.5-.2-7.6-.2-1.6 0-3 0-4.3.1v1.3c1.3 0 2.7-.1 4.3-.1 3.1 0 5.6.1 7.6.2v-.8zm-18.1 4v2.8c1.2-.1 2.6-.1 4.2-.2v-4.4c0-.3.1-.6.2-.7-.9 0-1.8.1-2.6.2-.4.1-1.8.9-1.8 2.3zm6.4-2.6c-.1.1-.2.4-.2.6v4.5h4.3c3.1 0 5.6 0 7.6.1v-5.1c-2.1-.1-4.6-.2-7.6-.2-1.5 0-2.8.1-4.1.1zm-2.2 6c-1.5 0-2.8.1-3.9.1-1.8.6-2.6 2-2.7 2.3 1.5-.1 3.5-.2 5.8-.2.1-.2.3-1.1.8-2.2zm14.1.1c-2.1-.1-4.6-.1-7.8-.1h-4.4c-.6 1.1-.7 1.9-.8 2.2h5.2c4.2 0 7.5.1 10.1.2-.3-1.3-1.7-2.1-2.3-2.3zm-14.9 2.8c-2.4.1-4.4.1-6 .2v6.6c1.5-.1 3.5-.1 6-.2v-6.6zm1.9 0v6.7h5.3c4.3 0 7.7 0 10.2.1v-6.7c-2.6-.1-6-.2-10.2-.2-2 .1-3.7.1-5.3.1zm-1.6 8c-2.2.1-4.3.2-6 .3 2.2 3.1-1.2 3.3-1.3 6.1 1.8 0 3.9-.1 6.3-.1-.2-3.4 2.4-3.6 1-6.3zm17 .1c-3-.1-6.5-.2-10.1-.2-1.7 0-3.4 0-5.1.1 1.5 2.8-1.2 2.9-1 6.3h6c4.4 0 8.1 0 11.2.1-.1-3.8-4.2-4.1-1-6.3zm-18 7.1h-6.3v5.9c1.8 0 3.9 0 6.3-.1v-5.8zm19 5.9v-5.9h-17.2v5.9h17.2zm-20 7.4c-.4-3.5 2.7-3.3 1.2-6.1h-4.8c2.4 2.3-2.5 3.5-1.7 6 1.5 0 3.3.1 5.3.1zm3.1-6.1c1.6 2.8-1.5 2.7-1.2 6.2h6.9c6.2 0 10.9-.1 14.4-.1.9-3.2-4.2-2.8-1.4-6-3.1 0-7.4-.1-13.1-.1-2-.1-3.9-.1-5.6 0zm5.7-39c-1 0-2 0-2.9.1.3 1.2-.1 2.3-.1 2.3h-.2c-.6-.5-1.4-.1-1.5.1h-.1s.5-.9.3-2.3c-.4 0-.7.1-1.1.1.2 1.4-.4 2-.4 2-.7-.1-1.2.4-1.2.4l-.4.1c-.4.5-.4.9-.4 1.4h.4s.1.5.6.7l-1.3.1v.3c.7-.1 1.4-.1 2.2-.2v-.3c.1-.1.5-.3.5-.8h.4s.1.5.6.7c0 0 .2.1.4.1v.2c1.3 0 2.7-.1 4.3-.1 3.1 0 5.6.1 7.6.3v-.3h-.5c.5-.2.6-.7.6-.7h.4c0 .6.3.8.3.8s.3.3.9.1c.2-.1.3-.2.4-.3.5-.8-.3-2.3-1.8-2.1-.2.1-.3.1-.3.1l-.4-.1c-.5-.6-1.3-.4-1.3-.4s-.8-1-.5-2.1c-1.5-.1-3.4-.2-5.5-.2zm-7.2 3c0 1.5.9 1.4 1.1 1.4-.5.8-2 .2-1.1-1.4zm.6.9c-.5-.1-.4-1.7.6-1.2-.2.3 0 1.3-.6 1.2zm15.6-1c.4 0 1.2 1.4.5 1.5-.7.2-.9-1.5-.5-1.5zm-.4.4c.1 1.5.8 1.4 1.1 1.3-.4.7-1.8.3-1.1-1.3zm-4.2-.9c.5 0 1.2 1.6.5 1.6-.9 0-1.2-1.6-.5-1.6zm-2.9-.2c.9 0 1.3 1.6.6 1.6-.8 0-1-1.6-.6-1.6zm-5.3.3c-.2.4.4 1.4-.2 1.4-.8.1-.7-2.1.2-1.4zm-1.1.4c.1 1.5 1 1.4 1.2 1.4-.4.7-1.9.2-1.2-1.4zm1.2 1.8s.4-.2.5-.8h.5s.1.5.6.8h-1.6zm1.5-1.9c.1 1.6 1 1.5 1.2 1.4-.3.9-1.9.3-1.2-1.4zm1 1c-.9.3-1.2-2.2 0-1.5-.1.4.7 1.3 0 1.5zm.4.9s.4-.2.5-.8h.8c.1.6.5.8.5.8h-1.8zm1.9-1.9c.1 1.6.9 1.4 1.1 1.4-.3.7-1.9.2-1.1-1.4zm1 1.9c.5-.2.6-.8.6-.8h.5c.1.6.5.8.5.8h-1.6zm1.7-1.9c.1 1.6.9 1.4 1.1 1.4-.3.8-1.8.3-1.1-1.4zm2.9-.2c.5-.1 1.2 1.5.5 1.5-.8 0-1-1.5-.5-1.5zm-.4.5c.1 1.5.9 1.3 1.1 1.3-.4.7-1.8.2-1.1-1.3zm-.6.9c0 .5.4.7.5.8l-1.5-.1c.5-.2.6-.7.6-.7h.4zm-10.7-6.5c-.5 0-.9.1-1.3.2v.5c.4-.1.8-.1 1.3-.2v-.5zm1.6.4c1-.1 2.1-.1 3.4-.1 2.1 0 3.8.1 5.1.2v-.5c-1.4-.1-3.1-.2-5.1-.2-1.2 0-2.4 0-3.4.1v.5zm1.7-27.6c-5.5.1-9.8.3-13.1.8l.1 1.2c3.2-.4 7.4-.7 12.8-.7.1-.5.1-.9.2-1.3zm18.5 2.3v-1.2c-1.1-.2-2.3-.3-3.7-.5.1.4.1.8.2 1.3 1.3.1 2.5.2 3.5.4zm6.4.4c-.6-.3-1.5-.6-2.6-.9v1.2c1.2.3 2 .6 2.7.9-.2-.4-.1-.8-.1-1.2zm-.2 3.9c0-.6.1-1.3.1-2-.6-.3-1.5-.6-2.7-.9 0 .8-.1 1.5-.1 1.8h.1c1.1.1 2 .5 2.6 1.1zm-9.7-1.9c1.6.2 2.7.9 3.5 1.5v-3.2c-1.1-.2-2.2-.3-3.6-.5.1.8.1 1.5.1 2.2zM135 30.7c.7-.6 2.2-1.6 4.5-2.1 0-.8.1-1.7.1-2.6-5.3.1-9.5.3-12.6.7l.2 2.2c.7-.2 1.5-.4 2.5-.4 2.8.2 4.5 1.5 5.3 2.2zm26.2 9.9c.5 0 .4-1.7 1.4-1.7 1 0 .6 1.6.6 1.6s.9-3.7 1.3-8.9c-.6-.7-1.4-1.3-2.5-1.3-.2 0-.5 0-.7.1 0 5.2-1 7.9-1.4 8.8h.1c1.3 0 .5 1.4 1.2 1.4zm-5.5-5c1.8 0-.2 3 .9 3.4.3-.7 1.4-3.4 1.4-8.2-.7-.5-1.7-1.1-3.1-1.3-.1 3.2-.6 6-.8 7h.1c.9-.1.6-.9 1.5-.9z"/><path d="M131.8 36.1c1.6 0 .3 2.5 2.1 2.5 1.1 0 .7-1.1 2-1.1 1.8 0 1.1 2.1 2.3 2.1 1 0 .5-1.4 1.8-1.4.5 0 .8.2 1 .5-.5-1.6-1.4-5.2-1.5-9.5-3 .6-4.5 2.3-4.5 2.3s-1.6-2.3-5.3-2.3c-.9 0-1.7.2-2.4.4l.5 5.1c.1-.1.3-.2.6-.2 1.6 0 .3 2.3 2.1 2.3.6.1.4-.7 1.3-.7zm37.9 76.5c.2-.8.1-1.6-.6-2.6-3.6 0-7.4-.5-7.4-.5 11.1-.4 14.5-1 14.5-1 .3-.5.3-.9.3-1.2-4.6.4-9.8.7-14.7.8 1.1-.3 3.3-1 3.3-2.3 0-3-7-4.9-10-5.5-3.3.1-7.7.1-13.3.1-7.1 0-12.1-.1-15.7-.1-1.7.3-8.7 1.7-8.8 7 .8 0 1.6.1 2.5.1 0 0-.7.2-2.5.3v1.6c1.3.1 2.8.1 4.5.2 0 0-2 .2-4.5.4v4.3h47.4c1.2-.8 2.9-1.4 5-1.6zm7.6 73.4l-.1-9.6c-2.1.8-14.9 5.1-35.6 5.1-15.1 0-25.9-2.3-31.5-3.9l-.2 10.3c0 1.7 1.2 2.7 1.2 2.7s-3.8-.9-3.8-3.6l.2-10.1c-.7-.2-1.2-.4-1.5-.5l-.1 9.6c-3.1 3.1 5.6 9.7 35.7 9.7 30.2 0 38.8-6.7 35.7-9.7z"/><path d="M102.6 188.3c0-.9.4-1.7 1.1-2.5-1 .9-1.6 1.8-1.6 2.8 0 2.5 3.7 4.8 9.8 6.5-5.8-1.8-9.3-4.2-9.3-6.8zm68.8 6.8c6.1-1.7 9.8-4 9.8-6.5 0-1-.6-1.9-1.6-2.8.7.8 1.1 1.6 1.1 2.5 0 2.6-3.5 5-9.3 6.8z"/></g><g fill="#A4A9AD"><path d="M130.5 60.9c-1.3.2-2.2.3-2.8.5v-.9c-1.3.4-1.5.6-1.5.6v1s1.3-.8 7-1.2v-1.3c-1.1.1-2 .2-2.7.3v1zm21.6.3c3.9.4 4.9 1 4.9 1v-1s-.5-.7-4.9-1.3v1.3zm-22.7 1.6v3.5c-.9.1-1.6.2-2.1.2v-4c-.9.2-1.4.5-1.4.7v4.3s1-.4 5.2-.6v-2.8c0-1.3 1.4-2.1 1.9-2.4-1.2.1-2.2.2-3 .3-.2.1-.6.4-.6.8zm28 .4c0-.4-1.6-1-5.2-1.3v5c4.3.3 5.3.6 5.3.6l-.1-4.3zm-29.7 6.2c-.9.1-1.7.1-2.3.2.3-.2 1-.9 2-1.6-1.2.1-1.6.2-1.6.2s-2 1-2.8 2.4c0 0 1.3-.3 5.7-.6.1-.3.9-1.7 2.7-2.3-.7 0-1.3.1-1.8.1-1 .7-1.6 1.3-1.9 1.6zm27.2.6c4.1.2 5.4.5 5.4.5-.8-1.4-2.8-2.4-2.8-2.4s-1-.3-5-.5c.5.3 1.9 1.1 2.4 2.4zm-31.6 1v6.7s.9-.2 5.2-.4v-6.6c-.6 0-1.1.1-1.6.1v5.9l-2.3.2v-6c-.9.1-1.3.1-1.3.1zm36.7 6.7V71s-1.5-.2-5-.4v6.6c4.1.3 5 .5 5 .5zm-39.1 7.2s2.3-.1 6.6-.2c.1-2.8 3.5-3 1.3-6.1-.5 0-1 .1-1.4.1 1.8 3.8-1.7 3.5-2.2 5.3l-2.8.1c.4-2.2 4.7-2 2.9-5.3-.9.1-1.4.1-1.4.1 2 3.5-3 2.4-3 6zm41.5 0c0-3.6-5-2.5-3-6 0 0-1.8-.2-4.7-.3-3.2 2.4 1.4 2.5 1.5 6.1 4.1.1 6.2.2 6.2.2zm-41.5.8v6s2.4-.1 6.6-.1v-5.9h-2.6v5.2l-2.7.1v-5.2c-.9-.1-1.3-.1-1.3-.1zm41.5 0s-2.4 0-6.2-.1v5.9c3.9.1 6.2.1 6.2.1v-5.9zm-33.3 7.1c-1.4 0-2.6 0-3.6.1 1.4 3.6-4 2.1-4 5.1-1.2 0-2.1-.1-2.7-.1 0-2.9 5.2-1.6 4-4.9h-1.5c1.4 3.5-4.1 1.3-3.9 5.4 0 0 2.5.2 9.9.4-.7-2.5 4.2-3.7 1.8-6zm30.4 5.9c4.6-.1 6.3-.3 6.3-.3.2-4.1-5.3-1.9-3.9-5.4 0 0-1.3-.1-4.3-.1-3 2.3 2.4 2.5 1.9 5.8zM148.4 52c2.2.4 3.1.8 3.1.8 0-.5-1.1-1-3.1-1.3v.5z"/><path d="M152.1 59.3c2.9.4 4.1.8 4.1.8l.3-.2c-.8-.3-2.1-.5-2.1-.5s.4 0 .5-.4h.2c0 .7.9.7.9 0 0 .5.5.7.6.2l.1.1c0-3.2-8.2-2.3-6-5.5 0 0-3.3-.9-9.1-.9s-9.1.9-9.1.9c2.2 3.2-6 2.3-6 5.5l.2-.1c.1.5.6.4.6-.2 0 .7.9.8.9-.2h.1s0 .6.6.7c0 0-1.3.2-2.1.5l.3.2s1.8-.6 6.2-1v-.3s.4-.2.4-.8c0-.5-.1-.9.4-1.4 0 0-.3-.3-.9-.2 0 0 1.1-1 .6-2.1 0 0 .5-.1 1.2-.2.3 1.2-.6 2.3-.6 2.3s.5-.5 1.2-.4c0 0 .6-.7.4-2 .3 0 .7-.1 1.1-.1.5 0 1.1-.1 1.6-.1.9-.1 1.9-.1 2.9-.1 2 0 4 .1 5.4.3.7.1 1.3.1 1.7.2-.2 1.3.9 2.2.9 2.2 1.4-.3 2.2 1.2 1.8 2.1.1-.2.4-.1.5 0 .1.4.3.4.3.4v.3zm4-.4c0 .2.3.3.4.2 0 .3-.4.2-.4-.2zm-.1-.9c.2 0 .8.7.4.9-.2.3-.4-.8-.4-.9zm-.8.5c.3.8.6.6.7.3 0 .8-.7.6-.7-.3zm0-.9c.3 0 .9 1 .6 1.2-.3.2-.8-1.2-.6-1.2zm-27.4 0c-.5 1-.1 1 0 .8-.1 1.6-1.1.6 0-.8zm-.1.6c-.1-.1 0-.7.5-.8-.2.3-.3 1-.5.8zm3.7-1.3c-.3.3-.3 1.1-.7 1-.4-.2-.1-1.2.7-1zm-1.7.2c-.4.3-.4 1.1-.7.9-.2-.1-.1-.9.7-.9zm-.9.3c-.3 1.2.2 1.1.5.9-.2 1.4-1.9.8-.5-.9zm.3 1.9c.5-.2.6-.9.6-.9h.1s0 .5.6.7l-1.3.2zm1.4-2.2c-.4 1.7.4 1.3.7 1.2-.3 1.4-2.3.5-.7-1.2zm.6 1.9s.4-.1.3-.8h.3s0 .5.5.7l-1.1.1zm1.1-2c-.1 1.5.8 1.2 1 1.2-.4 1.1-2 .4-1-1.2zm1.2-.3c-.3.3-.2 1.3-.6 1.1-.5-.2-.3-1.3.6-1.1zm20.6.6c.3 0 1.2 1.1.7 1.4-.5.2-.9-1.4-.7-1.4zm-.2.4c.3 1.4.9 1.1 1.1 1-.1.7-1.3.5-1.1-1zm0 1.2c.1.2.2.4.4.5l-1.3-.2c.2-.1.4-.2.5-.3 0-.2.3-.2.4 0zm-1.3-1.9c.4 0 1.2 1.3.5 1.5-.6.1-.8-1.6-.5-1.5zm-.3.3c.1 1.7.8 1.4 1.1 1.3-.4.7-1.8.3-1.1-1.3zm-20.4-4.5s1-.5 3.5-.9v-.5c-.3 0-.5.1-.8.1v.3l-1.4.3v-.2c-.9.3-1.3.6-1.3.9zm-12.9-24.9l-.1-1.2c-1 .4-1.4.8-1.5 1V29c0-.3.5-.7 1.6-1.1zm6.5-1.6l-.1-1.2c-1.6.2-2.9.5-4 .8l.1 1.2c1.1-.3 2.4-.5 4-.8zm-7.8 4v1.8c.6-1.1 1.7-2.4 3.6-2.4 1.4 0 2.3.7 2.9 1.3.3-.4.9-.8 1.6-1.2l-.2-2.7c-1.6.2-2.9.5-4 .8l.1 1.5c-1.5-.2-2.5.7-2.5.7l-.1-1.4c-.2.1-.3.1-.5.2-.6.2-.9.4-.9 1.4z"/><path d="M124.1 31.9s-1-1.6-2.9-1.6c.4 7.1 1.1 9.6 1.1 9.6-.2 0-.4.2-.4.2s-.2-.6-.6-.6c-1 0-.2 1.3-.2 2.7 0 0-1.9-3.8-2-11.1-.8.7-1.2 1.7-1.4 2.3 1 14.5 8.8 17.2 13.5 19 0 0 .2-.4 1.4-.8-1.3-5.6 3.4-4.6 4.7-11.6-.4 7.3-4.2 6.5-3.4 11.2.2-.1.5-.1.8-.2 1.4-6 4.8-5.9 6.4-10.8-.6 4.8-3.7 5.7-4.6 10.6.2 0 .4 0 .6-.1 1.3-5 6.7-6.2 8.3-11.8-.5 5.5-5.2 6.6-7 11.7h.6c2.6-6.1 10.4-6.4 10.7-13.1 1.2 6.6-7.7 8.4-9.2 13h.9c3.3-6 9.2-3.6 11.9-13.3-1 9.1-7.4 8.4-10 13.3h.8c3.6-5.1 9.1-3.3 11.9-12-.8 8.7-7.3 7.7-10.3 12.1.2 0 .5 0 .7.1 5.5-5.2 8.3-3.2 11.9-10-1.9 6.8-6.8 6.1-10.7 10.2.2 0 .4.1.6.1 4.4-4.2 8.8-3.1 12.7-9.4-2.6 6.3-8.7 6.5-11.8 9.5.3.1.5.1.7.2 6-4.2 10-4.5 12.9-9.3-2.3 5.1-8.3 6.4-12.2 9.5.2.1.4.1.5.2 4.9-3.3 9.1-3.5 13-10.1-2.4 6.9-9.9 8.5-12.1 10.6.3.2.4.3.4.3 4.7-1.8 12.5-4.5 13.5-19-.2-.5-.5-1.2-1.1-1.9-.4 5.2-1.3 8.9-1.3 8.9s.4-1.6-.6-1.6c-.9 0-.9 1.7-1.4 1.7-.6 0 .1-1.4-1.1-1.4h-.1c-.7.1-.6 1.1-.9 1.1-.6 0 .4-1.7-1-1.7-.7 0-.6.5-1 .5-.1 0-.2 0-.3-.1-1-.4 1-3.4-.9-3.4-.9 0-.6.8-1.4.8h-.1c-1.2-.1-.2-2.4-1.7-2.4s-.6 2.8-2 2.8c-1 0-.7-1.1-1.8-1.1-1.7 0-.8 3.2-2.3 3.2-1 0-.6-1.3-1.9-1.3-1.7 0-.6 2.1-2.1 2.1-.9 0-1.1-.5-1.4-1-.2-.3-.4-.5-1-.5-1.3 0-.9 1.4-1.8 1.4-1.2 0-.4-2.1-2.3-2.1-1.3 0-.9 1.1-2 1.1-1.9 0-.5-2.5-2.1-2.5-.9 0-.7.9-1.4.9-1.7 0-.4-2.3-2.1-2.3-.3 0-.4.1-.6.2-.6.5-.2 2-.8 2-.5 0-.7-.9-.7-1.5l-.4-4.9c-1.6.6-2.1 1.4-2.1 1.4zm-2.8 7.9c.6 0 .5 2.9.5 2.9 0-1.8-1.2-2.9-.5-2.9zm-1.2 2c1.1 1.1.8 2.8 1.8 4.3-1.5-1.4-1.2-3.3-1.8-4.3zm42-2c.1-.8 1.1-.4.9.1-.8 2.7-3.1 4.6-3.1 4.6s1.9-2.4 2.2-4.7zm-2.5.2c.1-.7 1.2-.2 1 .3-1.4 3.7-4.7 5.4-4.7 5.4s2.9-2 3.7-5.7zm-2.2-.5c.2-.9 1.2-.4.9.2-1.9 4.1-4.6 5.5-4.6 5.5s3.1-2.7 3.7-5.7zm-2.3-2.9c.1-.8 1.2-.6 1.1 0-1.5 6.6-6 8.6-6 8.6s4.5-3.3 4.9-8.6zm-3.3-1.3c0-1.2 1.3-1.1 1.3-.2 0 2.8-2.9 8.4-6.2 9.7.1 0 4.9-3.2 4.9-9.5zm-3.7 1.7c0-.9 1.3-1 1.3 0 0 4.3-3.8 6.1-7 8.5 3.3-3.4 5.7-4 5.7-8.5zm-4.4 2c.1-1.2 1.2-.7 1.1-.2-1.4 5.1-3.5 3.7-5.4 7 2.1-4.5 3.9-2.9 4.3-6.8zm-4.5.6c0-1.1 1.5-1.1 1.5-.1 0 2.3-2.3 3.2-4.9 7.4 1.9-3.6 3.4-4.7 3.4-7.3zm-16.1-.9c.8 0 .7 2.5.6 4.6 0-3.1-1.1-3.6-1.1-4 0-.4.2-.6.5-.6zm-1 2.1c.6 2.1.1 5.6 2.5 8.1-3.3-2.5-2.2-5.5-2.5-8.1zm2.5-1.7c1.2 5.9-1.8 6 1.7 10.5-4.7-2.9-1.2-6.5-1.7-10.5zm11.3-1.1c.3 0 .8.3.8.9 0 .5-.5.7-.6 1.3-.5 3-2.6 5.7-2.6 5.7 2.3-4.9.7-7.9 2.4-7.9zm-4.7-1c0-.2.1-.6.6-.6 1.3 0 .3 6.3-1 8.2 1.5-6.3.4-7.2.4-7.6zm1.9 2c1 8.2-3.2 7.4-1.6 12.5-4-4 2-6.2 1.6-12.5zM130 51.2c-4.2-2.8-.6-7.7-.6-13.8 1.2 6.4-2.5 9.7.6 13.8zM128.3 35c1.2 0 .5 4.7-.2 8.8.8-7-.4-7.4-.4-8.3 0-.3.3-.5.6-.5zm-1.4 2.5c1.3 3.8-2.9 9.2 1.8 13.3-6.2-3.4-1.8-8.3-1.8-13.3zm-1.3-1c1.3 0 .7 3.6.1 5.7.3-4-.7-4.3-.7-5-.1-.4.2-.7.6-.7zm40.5-7.5v-1.2c-.1-.2-.5-.6-1.3-.9v1.2c.8.3 1.2.6 1.3.9zm-.4 1.3c0-1-.3-1.2-.9-1.5h-.1c0 .7-.1 1.3-.1 2 .4.4.8.9 1.1 1.4v-1.9zm3.8 76.6s3.2-.3 6.1-.5c-.6-5.9-9.7-6.6-9.7-6.6s-.7.2-7 .4c3.9.6 11.3 2.3 10.6 6.7zm2.6 3c-.9.1-2 .1-3.1.1.7.9.8 1.8.6 2.6.9-.1 1.8-.2 2.8-.2 1.4 0 2.7.2 3.8.5v-3.3c0-.1-1.3.1-4.1.3zm-64.4-3.5s2.6.5 9.5.9c.2-5.3 7.1-6.7 8.8-7-7.8-.2-8.6-.5-8.6-.5s-9.1.7-9.7 6.6zm3.5-.2c-1.8-.2-2.6-.3-2.6-.3s.3-4.3 9.4-5.4c-6.5 2-6.8 5.7-6.8 5.7zm-4.3 1.1c-.1.3-.1.7.2 1.2 0 0 2.5.4 10 .8v-1.6c-1.9.1-5.2.1-10.2-.4zm4.2 2.6l-.1 4.3h6v-4.3c-1.8.1-4.1.2-5.9 0zm-4.1 4.3h1.5l.1-4.5c-1-.1-1.5-.2-1.5-.2l-.1 4.7z"/></g><linearGradient id="a" gradientUnits="userSpaceOnUse" x1="97.566" y1="166.492" x2="185.714" y2="166.492"><stop offset="0" stop-color="#939ba0"/><stop offset=".097" stop-color="#b4b9bd"/><stop offset=".271" stop-color="#eaebec"/><stop offset=".356" stop-color="#fff"/><stop offset=".656" stop-color="#fff"/><stop offset=".738" stop-color="#eaebec"/><stop offset=".907" stop-color="#b4b9bd"/><stop offset="1" stop-color="#939ba0"/></linearGradient><path fill="url(#a)" d="M179.1 157.9c-1-1.4-8.4 7.7-37.4 7.7s-36.4-9.1-37.4-7.7l-6.7 8.9c3.3-.6 13.3 8.4 44.1 8.4s40.8-9 44.1-8.4l-6.7-8.9z"/><linearGradient id="b" gradientUnits="userSpaceOnUse" x1="100.283" y1="175.825" x2="71.547" y2="175.825"><stop offset=".152" stop-color="#fff"/><stop offset=".264" stop-color="#fafafa"/><stop offset=".402" stop-color="#ebeced"/><stop offset=".554" stop-color="#d2d5d7"/><stop offset=".715" stop-color="#afb5b8"/><stop offset=".824" stop-color="#939ba0"/></linearGradient><path fill="url(#b)" d="M71.5 167.4v7.7c17.8 6.1 20.1 10.2 21.7 8.9l7-5.6c-3.7.5-7.9-4.6-28.7-11zm4.4 5.7v1.7l-1.1-1.4-1.8.5 1.1-1.4-1.1-1.4 1.8.6 1.1-1.4v1.7l1.8.6-1.8.5zm8.2 3.2l-.2 1.7-1-1.5-1.8.4 1.2-1.3-1-1.5 1.7.7 1.2-1.3-.2 1.7 1.7.7-1.6.4zm7.7 3.7l-.2 1.7-1-1.5-1.8.4 1.2-1.3-1-1.5 1.7.7 1.2-1.3-.2 1.7 1.7.7-1.6.4z"/><linearGradient id="c" gradientUnits="userSpaceOnUse" x1="182.995" y1="175.825" x2="211.73" y2="175.825"><stop offset=".152" stop-color="#fff"/><stop offset=".264" stop-color="#fafafa"/><stop offset=".402" stop-color="#ebeced"/><stop offset=".554" stop-color="#d2d5d7"/><stop offset=".715" stop-color="#afb5b8"/><stop offset=".824" stop-color="#939ba0"/></linearGradient><path fill="url(#c)" d="M183 178.5l7 5.6c1.6 1.3 3.9-2.8 21.7-8.9v-7.7c-20.7 6.3-25 11.4-28.7 11zm24.3-8.2l1.1 1.4 1.8-.6-1.1 1.4 1.1 1.4-1.8-.5-1.1 1.4v-1.7l-1.8-.5 1.8-.6v-1.7zm-8.4 3.2l1.2 1.3 1.7-.7-1 1.5 1.2 1.3-1.8-.4-1 1.5-.2-1.7-1.8-.4 1.7-.7v-1.7zm-7.7 3.7l1.2 1.3 1.7-.7-1 1.5 1.2 1.3-1.8-.4-1 1.5-.2-1.7-1.8-.4 1.7-.7v-1.7z"/><linearGradient id="d" gradientUnits="userSpaceOnUse" x1="154.26" y1="152.403" x2="154.26" y2="145.959" gradientTransform="matrix(1 0 -.256 1 66.61 0)"><stop offset="0" stop-color="#fff"/><stop offset=".152" stop-color="#fff"/><stop offset=".252" stop-color="#fafafa"/><stop offset=".375" stop-color="#ebeced"/><stop offset=".511" stop-color="#d1d5d7"/><stop offset=".655" stop-color="#aeb4b8"/><stop offset=".806" stop-color="#828b91"/><stop offset=".824" stop-color="#7c858c"/><stop offset="1" stop-color="#7c858c"/></linearGradient><path fill="url(#d)" d="M182 152.4c5.6 0 9.4-1.8 11.7-5.4l-4.2-.1c-1.6 2.4-4.1 3.7-7.1 3.7-3.3 0-5.1-1.5-5.3-4.3l-4.1-.3c0 4.3 2.9 6.4 9 6.4z"/><linearGradient id="e" gradientUnits="userSpaceOnUse" x1="200.194" y1="152.403" x2="200.194" y2="145.325" gradientTransform="matrix(1 0 -.256 1 66.61 0)"><stop offset="0" stop-color="#fff"/><stop offset=".152" stop-color="#fff"/><stop offset=".252" stop-color="#fafafa"/><stop offset=".375" stop-color="#ebeced"/><stop offset=".511" stop-color="#d1d5d7"/><stop offset=".655" stop-color="#aeb4b8"/><stop offset=".806" stop-color="#828b91"/><stop offset=".824" stop-color="#7c858c"/><stop offset="1" stop-color="#7c858c"/></linearGradient><path fill="url(#e)" d="M236.4 147.7c.2-.9.2-1.7 0-2.4l-4.3.5c.3.4.4 1 .3 1.6-.5 1.9-3.1 3.1-5.2 3.1-2.3 0-4.3-.7-5.4-1.3-.5.9-.7 1.4-1.1 2.1 1 .4 3.1 1.1 6.4 1.1 3.9 0 8.4-1.2 9.3-4.7z"/><linearGradient id="f" gradientUnits="userSpaceOnUse" x1="23.626" y1="152.403" x2="23.626" y2="140.133" gradientTransform="matrix(1 0 -.256 1 66.61 0)"><stop offset="0" stop-color="#fff"/><stop offset=".152" stop-color="#fff"/><stop offset=".252" stop-color="#fafafa"/><stop offset=".375" stop-color="#ebeced"/><stop offset=".511" stop-color="#d1d5d7"/><stop offset=".655" stop-color="#aeb4b8"/><stop offset=".806" stop-color="#828b91"/><stop offset=".824" stop-color="#7c858c"/><stop offset="1" stop-color="#7c858c"/></linearGradient><path fill="url(#f)" d="M45.1 142.8c-1.2 4.8 1.5 9.6 10.3 9.6 1.7 0 3.5-.2 4.5-.4.2-.6.3-1 .5-1.9-1 .2-2.3.4-3.8.4-3.7 0-8.7-2.1-7.2-7.8.3-1 .6-1.9 1.1-2.6l-4.5.6c-.4.7-.7 1.4-.9 2.1z"/><linearGradient id="g" gradientUnits="userSpaceOnUse" x1="46.704" y1="152.066" x2="46.704" y2="138.825" gradientTransform="matrix(1 0 -.256 1 66.61 0)"><stop offset="0" stop-color="#fff"/><stop offset=".152" stop-color="#fff"/><stop offset=".252" stop-color="#fafafa"/><stop offset=".375" stop-color="#ebeced"/><stop offset=".511" stop-color="#d1d5d7"/><stop offset=".655" stop-color="#aeb4b8"/><stop offset=".806" stop-color="#828b91"/><stop offset=".824" stop-color="#7c858c"/><stop offset="1" stop-color="#7c858c"/></linearGradient><path fill="url(#g)" d="M71.4 143.7h10.3s-1.7 6.7-2.1 8.4h4.2c.3-1.1 2-7.7 3.4-13.2l-4.1-.1-.8 3H71.8l.8-3-4.2.1c-1.2 4.6-3 11.8-3.4 13.1h4.2c.4-1.6 2.2-8.3 2.2-8.3z"/><linearGradient id="h" gradientUnits="userSpaceOnUse" x1="70.015" y1="152.066" x2="70.015" y2="139.196" gradientTransform="matrix(1 0 -.256 1 66.61 0)"><stop offset="0" stop-color="#fff"/><stop offset=".152" stop-color="#fff"/><stop offset=".252" stop-color="#fafafa"/><stop offset=".375" stop-color="#ebeced"/><stop offset=".511" stop-color="#d1d5d7"/><stop offset=".655" stop-color="#aeb4b8"/><stop offset=".806" stop-color="#828b91"/><stop offset=".824" stop-color="#7c858c"/><stop offset="1" stop-color="#7c858c"/></linearGradient><path fill="url(#h)" d="M107.6 152.1c-.1-1.4-.7-7.3-1.1-12.3l-3.5-.2.3 5.7h-7.7l3.3-6-3.4-.2c-2.7 4.4-6.8 11.3-7.8 12.9h4c.6-1.1 2.7-4.9 2.7-4.9h8.9s.2 3.8.2 4.9c1 .1 2.6.1 4.1.1z"/><linearGradient id="i" gradientUnits="userSpaceOnUse" x1="96.668" y1="152.066" x2="96.668" y2="141.148" gradientTransform="matrix(1 0 -.256 1 66.61 0)"><stop offset="0" stop-color="#fff"/><stop offset=".152" stop-color="#fff"/><stop offset=".252" stop-color="#fafafa"/><stop offset=".375" stop-color="#ebeced"/><stop offset=".511" stop-color="#d1d5d7"/><stop offset=".655" stop-color="#aeb4b8"/><stop offset=".806" stop-color="#828b91"/><stop offset=".824" stop-color="#7c858c"/><stop offset="1" stop-color="#7c858c"/></linearGradient><path fill="url(#i)" d="M132.1 142.2l-2.6-.3c-2.2 3.9-4.4 7.7-4.4 7.7l-.5-8.2-2.7-.3c.1 4 .2 10 .2 10.9h4.7c.5-.8 3.2-5.9 5.3-9.8z"/><linearGradient id="j" gradientUnits="userSpaceOnUse" x1="86.135" y1="152.066" x2="86.135" y2="140.424" gradientTransform="matrix(1 0 -.256 1 66.61 0)"><stop offset="0" stop-color="#fff"/><stop offset=".152" stop-color="#fff"/><stop offset=".252" stop-color="#fafafa"/><stop offset=".375" stop-color="#ebeced"/><stop offset=".511" stop-color="#d1d5d7"/><stop offset=".655" stop-color="#aeb4b8"/><stop offset=".806" stop-color="#828b91"/><stop offset=".824" stop-color="#7c858c"/><stop offset="1" stop-color="#7c858c"/></linearGradient><path fill="url(#j)" d="M118.8 140.8l-4-.4c-1.2 4.6-2.7 10.5-3 11.6h4.2c.2-1.2 1.8-7.3 2.8-11.2z"/><linearGradient id="k" gradientUnits="userSpaceOnUse" x1="107.484" y1="152.066" x2="107.484" y2="142.521" gradientTransform="matrix(1 0 -.256 1 66.61 0)"><stop offset="0" stop-color="#fff"/><stop offset=".152" stop-color="#fff"/><stop offset=".252" stop-color="#fafafa"/><stop offset=".375" stop-color="#ebeced"/><stop offset=".511" stop-color="#d1d5d7"/><stop offset=".655" stop-color="#aeb4b8"/><stop offset=".806" stop-color="#828b91"/><stop offset=".824" stop-color="#7c858c"/><stop offset="1" stop-color="#7c858c"/></linearGradient><path fill="url(#k)" d="M139.6 142.9l-4-.4c-1 3.7-2.2 8.5-2.4 9.5h4.2c.1-.8 1.1-4.9 2.2-9.1z"/><linearGradient id="l" gradientUnits="userSpaceOnUse" x1="136.984" y1="152.066" x2="136.984" y2="145.345" gradientTransform="matrix(1 0 -.256 1 66.61 0)"><stop offset="0" stop-color="#fff"/><stop offset=".152" stop-color="#fff"/><stop offset=".252" stop-color="#fafafa"/><stop offset=".375" stop-color="#ebeced"/><stop offset=".511" stop-color="#d1d5d7"/><stop offset=".655" stop-color="#aeb4b8"/><stop offset=".806" stop-color="#828b91"/><stop offset=".824" stop-color="#7c858c"/><stop offset="1" stop-color="#7c858c"/></linearGradient><path fill="url(#l)" d="M168.4 145.7l-4.1-.3c-.8 3.1-1.5 6-1.7 6.7h4.2c.1-.7.8-3.3 1.6-6.4z"/><linearGradient id="m" gradientUnits="userSpaceOnUse" x1="120.509" y1="152.066" x2="120.509" y2="143.335" gradientTransform="matrix(1 0 -.256 1 66.61 0)"><stop offset="0" stop-color="#fff"/><stop offset=".152" stop-color="#fff"/><stop offset=".252" stop-color="#fafafa"/><stop offset=".375" stop-color="#ebeced"/><stop offset=".511" stop-color="#d1d5d7"/><stop offset=".655" stop-color="#aeb4b8"/><stop offset=".806" stop-color="#828b91"/><stop offset=".824" stop-color="#7c858c"/><stop offset="1" stop-color="#7c858c"/></linearGradient><path fill="url(#m)" d="M148.2 144.9h6.2c.6 0 1.2-.1 1.7-.2l-11.7-1.3c-1 3.9-2 7.8-2.2 8.7h4.2c.3-1.6 1.8-7.2 1.8-7.2z"/><linearGradient id="n" gradientUnits="userSpaceOnUse" x1="184.162" y1="152.066" x2="184.162" y2="146.883" gradientTransform="matrix(1 0 -.256 1 66.61 0)"><stop offset="0" stop-color="#fff"/><stop offset=".152" stop-color="#fff"/><stop offset=".252" stop-color="#fafafa"/><stop offset=".375" stop-color="#ebeced"/><stop offset=".511" stop-color="#d1d5d7"/><stop offset=".655" stop-color="#aeb4b8"/><stop offset=".806" stop-color="#828b91"/><stop offset=".824" stop-color="#7c858c"/><stop offset="1" stop-color="#7c858c"/></linearGradient><path fill="url(#n)" d="M217.2 146.9l-4.2.1-.1.5-.2-.5-3.6.1c1.1 2.5 2 4.6 2.2 4.9h4.7c.1-.5.6-2.6 1.2-5.1z"/><linearGradient id="o" gradientUnits="userSpaceOnUse" x1="171.681" y1="152.066" x2="171.681" y2="147.088" gradientTransform="matrix(1 0 -.256 1 66.61 0)"><stop offset="0" stop-color="#fff"/><stop offset=".152" stop-color="#fff"/><stop offset=".252" stop-color="#fafafa"/><stop offset=".375" stop-color="#ebeced"/><stop offset=".511" stop-color="#d1d5d7"/><stop offset=".655" stop-color="#aeb4b8"/><stop offset=".806" stop-color="#828b91"/><stop offset=".824" stop-color="#7c858c"/><stop offset="1" stop-color="#7c858c"/></linearGradient><path fill="url(#o)" d="M202.7 147.1h-4.1c-.6 2.4-1.1 4.4-1.3 5h4.2c.1-.7.6-2.7 1.2-5z"/><linearGradient id="p" gradientUnits="userSpaceOnUse" x1="154.421" y1="142.779" x2="154.421" y2="135" gradientTransform="matrix(1 0 -.256 1 66.61 0)"><stop offset="0" stop-color="#fff"/><stop offset="1" stop-color="#231f20"/></linearGradient><path fill="url(#p)" d="M186.5 135c-4.4 0-7.6 2.8-8.9 7.8h1.1c.9-3.7 3.1-6.7 7.5-6.7 4.3 0 5 3 4.1 6.7h1.1c1.2-5-.5-7.8-4.9-7.8z"/><linearGradient id="q" gradientUnits="userSpaceOnUse" x1="154.262" y1="145.882" x2="154.262" y2="153.484" gradientTransform="matrix(1 0 -.256 1 66.61 0)"><stop offset="0" stop-color="#fff"/><stop offset="1" stop-color="#231f20"/></linearGradient><path fill="url(#q)" d="M182 152.4c-6.1 0-9.1-2.1-9-6.4l-1.1-.1c-.2 4.4 2.3 7.6 9.9 7.6 6.9 0 10.9-2.7 13.2-6.4h-1.1c-2.4 3.5-6.3 5.3-11.9 5.3z"/><linearGradient id="r" gradientUnits="userSpaceOnUse" x1="201.37" y1="137.98" x2="201.37" y2="135" gradientTransform="matrix(1 0 -.256 1 66.61 0)"><stop offset="0" stop-color="#fff"/><stop offset="1" stop-color="#231f20"/></linearGradient><path fill="url(#r)" d="M233.5 135c-2.9 0-5.1 1.5-5.5 3h1.1c.2-.8 1.8-1.9 4.1-1.9 2.9 0 4.3 1.4 4.3 1.4l-.3-1.7c-.9-.4-2.1-.8-3.7-.8z"/><linearGradient id="s" gradientUnits="userSpaceOnUse" x1="200.098" y1="147.709" x2="200.098" y2="153.484" gradientTransform="matrix(1 0 -.256 1 66.61 0)"><stop offset="0" stop-color="#fff"/><stop offset="1" stop-color="#231f20"/></linearGradient><path fill="url(#s)" d="M227.1 152.4c-3.3 0-5.4-.6-6.4-1.1l-1.5.6s2.4 1.5 7.6 1.5c5.6 0 9.8-2.2 10.7-5.8h-1.1c-.9 3.6-5.4 4.8-9.3 4.8z"/><linearGradient id="t" gradientUnits="userSpaceOnUse" x1="23.625" y1="140.718" x2="23.625" y2="153.484" gradientTransform="matrix(1 0 -.256 1 66.61 0)"><stop offset="0" stop-color="#fff"/><stop offset="1" stop-color="#231f20"/></linearGradient><path fill="url(#t)" d="M55.4 152.4c-8.8 0-11.5-4.8-10.3-9.6.2-.7.4-1.4.8-2.1l-1.2.2c-.3.6-.5 1.3-.7 1.9-1.3 5.1 1.5 10.7 11.1 10.7 2.8 0 5.6-.6 5.6-.6l-.9-.9c-.9.2-2.7.4-4.4.4z"/><linearGradient id="u" gradientUnits="userSpaceOnUse" x1="26.485" y1="140.133" x2="26.485" y2="135" gradientTransform="matrix(1 0 -.256 1 66.61 0)"><stop offset="0" stop-color="#fff"/><stop offset="1" stop-color="#231f20"/></linearGradient><path fill="url(#u)" d="M60.5 135c-3.1 0-7.7 1.4-10.1 5.1l1.3-.2c2.2-2.9 6.1-3.9 8.5-3.9 3 0 4.6.8 4.6.8l-.7-1.5c-.8-.1-2-.3-3.6-.3z"/><linearGradient id="v" gradientUnits="userSpaceOnUse" x1="50.221" y1="138.148" x2="50.221" y2="132.415" gradientTransform="matrix(1 0 -.256 1 66.61 0)"><stop offset="0" stop-color="#fff"/><stop offset="1" stop-color="#231f20"/></linearGradient><path fill="url(#v)" d="M83.9 135c.3-1.1 0-2-.5-2.5h-2.1s2 .6 1.5 2.5l-.8 3.2h1.1l.8-3.2z"/><linearGradient id="w" gradientUnits="userSpaceOnUse" x1="35.753" y1="138.148" x2="35.753" y2="132.415" gradientTransform="matrix(1 0 -.256 1 66.61 0)"><stop offset="0" stop-color="#fff"/><stop offset="1" stop-color="#231f20"/></linearGradient><path fill="url(#w)" d="M69.5 135c.3-1.1 0-2-.5-2.5h-2.1s2 .6 1.5 2.5l-.8 3.2h1.1c.4-1.9.8-3.2.8-3.2z"/><linearGradient id="x" gradientUnits="userSpaceOnUse" x1="64.852" y1="138.148" x2="64.852" y2="132.415" gradientTransform="matrix(1 0 -.256 1 66.61 0)"><stop offset="0" stop-color="#fff"/><stop offset="1" stop-color="#231f20"/></linearGradient><path fill="url(#x)" d="M97.9 135.3c.8-1.3.6-2.3.2-2.9h-1.9s1.8.6.6 2.5l-1.9 3.2h1.2c1.1-1.7 1.8-2.8 1.8-2.8z"/><linearGradient id="y" gradientUnits="userSpaceOnUse" x1="82.419" y1="138.148" x2="82.419" y2="132.415" gradientTransform="matrix(1 0 -.256 1 66.61 0)"><stop offset="0" stop-color="#fff"/><stop offset="1" stop-color="#231f20"/></linearGradient><path fill="url(#y)" d="M116.1 135c.3-1.1 0-2-.5-2.5h-2.1s2 .6 1.5 2.5l-.8 3.2h1.1c.5-1.9.8-3.2.8-3.2z"/><linearGradient id="z" gradientUnits="userSpaceOnUse" x1="133.268" y1="138.148" x2="133.268" y2="132.415" gradientTransform="matrix(1 0 -.256 1 66.61 0)"><stop offset="0" stop-color="#fff"/><stop offset="1" stop-color="#231f20"/></linearGradient><path fill="url(#z)" d="M167 135c.3-1.1 0-2-.5-2.5h-2.1s2 .6 1.5 2.5l-.8 3.2h1.1c.4-1.9.8-3.2.8-3.2z"/><linearGradient id="A" gradientUnits="userSpaceOnUse" x1="122.601" y1="139.173" x2="122.601" y2="135.339" gradientTransform="matrix(1 0 -.256 1 66.61 0)"><stop offset="0" stop-color="#fff"/><stop offset="1" stop-color="#231f20"/></linearGradient><path fill="url(#A)" d="M156.4 139.2h1.1c.5-2.1-.8-3.8-3-3.8h-4l.8 1.1h2.8c1.8-.1 2.7 1.2 2.3 2.7z"/><linearGradient id="B" gradientUnits="userSpaceOnUse" x1="112.858" y1="138.148" x2="112.858" y2="132.415" gradientTransform="matrix(1 0 -.256 1 66.61 0)"><stop offset="0" stop-color="#fff"/><stop offset="1" stop-color="#231f20"/></linearGradient><path fill="url(#B)" d="M146.6 135c.3-1.1 0-2-.5-2.5H144s2 .6 1.5 2.5l-.8 3.2h1.1c.4-1.9.8-3.2.8-3.2z"/><linearGradient id="C" gradientUnits="userSpaceOnUse" x1="125.23" y1="139.173" x2="125.23" y2="145.931" gradientTransform="matrix(1 0 -.256 1 66.61 0)"><stop offset="0" stop-color="#fff"/><stop offset="1" stop-color="#231f20"/></linearGradient><path fill="url(#C)" d="M156.1 144.6c-.6.2-1.1.2-1.7.2h-6.2l.8 1.1h5.1c3.8 0 7.7-3 8.7-6.8h-1.1c-.7 2.6-3 4.8-5.6 5.5z"/><linearGradient id="D" gradientUnits="userSpaceOnUse" x1="182.432" y1="138.148" x2="182.432" y2="132.415" gradientTransform="matrix(1 0 -.256 1 66.61 0)"><stop offset="0" stop-color="#fff"/><stop offset="1" stop-color="#231f20"/></linearGradient><path fill="url(#D)" d="M216.1 135c.3-1.1 0-2-.5-2.5h-2.1s2 .6 1.5 2.5l-.8 3.2h1.1l.8-3.2z"/><linearGradient id="E" gradientUnits="userSpaceOnUse" x1="167.963" y1="138.148" x2="167.963" y2="132.415" gradientTransform="matrix(1 0 -.256 1 66.61 0)"><stop offset="0" stop-color="#fff"/><stop offset="1" stop-color="#231f20"/></linearGradient><path fill="url(#E)" d="M201.7 135c.3-1.1 0-2-.5-2.5H199s2 .6 1.5 2.5l-.8 3.2h1.1c.5-1.9.9-3.2.9-3.2z"/><path d="M134 56.6l.4-.1s.9-1.1.6-2.3c-.8.1-1.2.2-1.2.2.4 1.1-.6 2.1-.6 2.1.5-.2.8.1.8.1zm15.2 2.1l.8.1s-.4-.2-.3-.8h-.4s-.1.5-.6.7h.5zm-19.8-21.2c0 6-3.6 11 .6 13.8-3.1-4.2.6-7.5-.6-13.8zm-4.8 11.4c-2.5-2.5-2-6-2.5-8.1.3 2.6-.8 5.6 2.5 8.1zm-2.7-2.8c-1-1.5-.7-3.2-1.8-4.3.6 1 .3 2.9 1.8 4.3z"/><path d="M126.9 37.5c0 5-4.4 9.8 1.8 13.3-4.7-4-.5-9.5-1.8-13.3zm-18.3 68.4s.8.1 2.6.3c0 0 .4-3.7 6.8-5.8-9.1 1.2-9.4 5.5-9.4 5.5z"/><path d="M124.6 39.1c.4 4-3 7.6 1.7 10.5-3.5-4.4-.4-4.5-1.7-10.5zm6.9 12.4c-1.6-5.1 2.6-4.2 1.6-12.5.4 6.3-5.6 8.5-1.6 12.5zm1.7 6.7c-.2 0-1.1.3-1-1.2-1 1.6.6 2.3 1 1.2zm17.8.7l1.2.1s-.2-.1-.3-.4c0-.2-.4-.2-.5 0-.1 0-.2.2-.4.3z"/><path d="M132.3 58.9c-.5-.2-.5-.7-.5-.7h-.3c0 .7-.3.8-.3.8l1.1-.1zm20.6.2l1.3.2c-.2-.1-.4-.3-.4-.5-.1-.2-.3-.2-.4-.1-.1.2-.2.3-.5.4zm3-.3c-.1.2-.5.5-.7-.3 0 .9.7 1.1.7.3zm.6.3c-.1.1-.4 0-.4-.2 0 .4.4.5.4.2zm-1.6-.4c-.2.2-.7.4-1.1-1-.2 1.5 1 1.7 1.1 1zm-23.8-.4c-.2.1-1.1.5-.7-1.2-1.5 1.7.5 2.6.7 1.2z"/><path d="M130.4 59.1c-.6-.2-.6-.7-.6-.7h-.1s-.1.7-.6.9l1.3-.2zm-1.1-.8c-.3.2-.8.3-.5-.9-1.4 1.7.3 2.3.5.9zm-1.5.1c-.1.2-.5.2 0-.8-1.1 1.4-.1 2.4 0 .8zm25.5.2c-.2.1-.9.4-1.1-1.3-.7 1.6.7 2 1.1 1.3zm-15.4-.5c-.2 0-1.1.1-1.2-1.4-.7 1.6.8 2.1 1.2 1.4zm1.1-.4h-.5c-.1.6-.5.8-.5.8h1.7c-.6-.3-.7-.8-.7-.8z"/><path d="M140.6 58.1c-.2 0-1.1.1-1.2-1.4-.7 1.6.9 2.2 1.2 1.4zm-6.2-1.3c-.9 1.6.6 2.2 1.1 1.4-.2 0-1.1.2-1.1-1.4zm16.8 1.6c-.3.1-1 .2-1.1-1.3-.6 1.6.8 2 1.1 1.3z"/><path d="M134 57.9h-.4c0 .6-.4.8-.4.8l1.3-.1c-.5-.1-.5-.7-.5-.7zm3 .6c-.5-.2-.6-.7-.6-.7h-.4c0 .5-.4.7-.5.8l1.5-.1zm8.4 0s-.4-.2-.5-.8h-.5s-.1.5-.6.8h1.6zm-3.4-.8h-.8c-.1.6-.5.8-.5.8h1.7c.1 0-.3-.2-.4-.8zm4.5.3c-.2 0-1 .2-1.1-1.4-.7 1.7.8 2.2 1.1 1.4zm1.3.6c-.1-.1-.5-.3-.5-.8h-.4s-.1.5-.6.7l1.5.1zm-4-.6c-.2 0-1 .2-1.1-1.4-.8 1.6.8 2.1 1.1 1.4zm5.2.2c-.2 0-1 .2-1.1-1.3-.7 1.5.7 2 1.1 1.3zM76 170.3l-1.2 1.4-1.7-.6 1 1.4-1.1 1.4 1.8-.5 1.1 1.5v-1.8l1.8-.5-1.7-.5zm8.4 3.2l-1.3 1.3-1.7-.7.9 1.5-1.2 1.3 1.9-.4.9 1.5.2-1.7 1.8-.4-1.7-.7zm7.7 3.7l-1.3 1.3-1.7-.7 1 1.5-1.3 1.3 1.9-.4.9 1.5.2-1.7 1.8-.4-1.7-.7zm115.2-4.1l.1 1.8 1.1-1.5 1.8.5-1.2-1.4 1.1-1.4-1.8.6-1.1-1.4v1.8l-1.8.5zm-8.1 3.2l.2 1.7.9-1.5 1.9.4-1.3-1.3 1-1.5-1.7.7-1.3-1.3.2 1.7-1.8.7zm-7.7 3.7l.1 1.7 1-1.5 1.9.4-1.3-1.3 1-1.5-1.7.7-1.3-1.3.2 1.7-1.8.7zm-89.8-43.6l-4.4 7.8h4.8z"/><path d="M55.1 157c1.6 0 3.2-.2 4.4-.3H99l-6.1 8.1c-1.8 2.4-.9 5.1-.9 5.1-9-4.4-25.4-9.2-25.4-9.2V180c19.8 6.5 21.3 10.5 25.8 10.5 2.3 0 3.7-1.1 3.7-1.1l7.8-6.2v1.7s-2.6 1.6-2.6 3.7v2.3s-.4.6-.4 1.6c0 6 19 10.8 40.8 10.8 21.8 0 40.8-4.8 40.8-10.8 0-1-.4-1.6-.4-1.6v-2.3c0-2.2-2.6-3.7-2.6-3.7v-1.7l7.8 6.2s1.3 1.1 3.7 1.1c4.5 0 6.1-3.9 25.9-10.5v-19.3s-16.4 4.8-25.4 9.2c0 0 1-2.6-.9-5.1l-6.1-8.1h38.2c1.2.2 2.6.3 4.3.3 7.4 0 12.8-3.2 14.2-8.5.8-3.2 0-5.5-1.4-7.3l4.7-9.8s-4.3-3-11-3c-1.3 0-2.5.1-3.6.3H193l.3-1.3c3.8-.4 6.8-2.7 7.6-5.8.9-3.7-1.6-7.6-7.4-7.6h-13.7s-.6-.3-1.6-.7l-.1-4.4c.9-2.5-.8-3.8-.8-3.8-1-6-9.8-7.3-9.8-7.3-.5-3.2-3.2-4.3-3.2-4.3 1.2-1.3 0-2.9 0-2.9v-6.5c0-2.4-3.1-4-3.1-4s.6-.6.6-2.7v-7.2c0-1.7-2.6-3.5-2.6-3.5v-4.6l-.6-2.4c.5-3.4-5.9-5.3-5.9-5.3l.3-.4c6.1-2.3 14.5-6.7 14.5-23.4 0 0 .4-.6.4-1.4v-1.7c0-3.9-11.8-5.7-26.5-5.7s-26.5 1.8-26.5 5.7v1.7c0 .8.4 1.4.4 1.4 0 16.7 8.4 21.2 14.5 23.4l.3.4s-6.4 1.9-5.9 5.3l-.6 2.4v4.6s-2.6 1.8-2.6 3.5v7.2c0 2.1.7 2.7.7 2.7s-3.1 1.6-3.1 4v6.5s-1.2 1.6 0 2.9c0 0-2.7 1-3.2 4.3 0 0-8.8 1.3-9.8 7.3 0 0-1.7 1.3-.8 3.8l-.1 5.1h-3.6s-2.9-1.8-7.1-1.8c-6.2 0-9.2 3.1-9.9 5.8-.4 1.6-.3 2.8.2 3.9l-3.8 6.8H64.4c-1.1-.2-2.5-.3-4-.3-11.5 0-18.4 6.8-20.1 13.4-1.5 7.1 2.5 15.2 14.8 15.2zm37.2-3.9l-.6-1.1h-4l-1.8 1.1 9-15 1.9-3.2c1.1-1.9-.6-2.5-.6-2.5h10.7l1.9 20.7-1.3-1.1h-4l-1.1 1.1-.2-4.9 1.1-1.1h-8.9l.6 1.1-2.7 4.9zm25.5-35.4h5.1l2.1 5.3 1.3-5.3h3.4l-2.4 9.4h-3.6l-2.3-5.8-1.5 5.8h-3.4l1.8-7.2c.5-1.4-.5-2.2-.5-2.2zm20.2 7.2l-1.3 2.2h-8l2.4-9.4h3.4l-1.8 7.2h5.3zm-12.8 7.5l.8 13.5 7.8-13.5h9.6l-5.3 20.7-.8-1.1h-4.2l-1.4 1.1 4-15.4-8.3 15.4-.6-1.1h-4.7l-1.1 1.1-.4-15.4-4 15.4-.8-1.1h-4.2l-1.4 1.1 3.8-15 .8-3.2c.5-1.9-1.5-2.5-1.5-2.5h11.9zm14.1-14.7h12.4l1.5 3.4 3.3-3.4h3.6l-5.7 5.6-1 3.8H150l1-3.8-2.4-5.3-.5 1.9h-4.8l-.4 1.5h4.5l-.6 2.2h-4.5l-.3 1.3h5.8l-1.3 2.2H138l1.8-7.2c.5-1.4-.5-2.2-.5-2.2zm31.2 8.2c2 0 3.2-.4 3.2-.4l.3 2.3s-1.7.6-4.4.6c-6 0-7.8-3.5-7.1-6.2.8-3 3.5-6.2 10-6.2 2.3 0 3.6.5 3.6.5l-1.3 2.2s-1-.3-2.7-.3c-3.7 0-5.2 1.9-5.7 3.8-.3 1.1 0 3.7 4.1 3.7zm-3.8 26.2h-4.2l-1.4 1.1 3.8-15 .8-3.2c.5-1.9-1.5-2.5-1.5-2.5h8.5l-5.3 20.7-.7-1.1zm-3.9-12.9c-1 3.7-4.8 6.8-8.7 6.8H149l-1.8 7.2-.8-1.1h-4.2l-1.4 1.1 3.8-15 .8-3.2c.5-1.9-1.5-2.5-1.5-2.5h13.6c3.9-.1 6.2 2.9 5.3 6.7zm-50.2-12.1l-.2-2.2h-3.2l-1.2 2.2h-3.7l6.1-9.4h4.3l1.4 9.4h-3.5zm-10.5 51.7l-8.1 6.4s-.5.4-1.6.4c-2.7 0-3.6-2.9-22.3-9.4v-10.7c22 6.8 26.7 11.6 29.5 11.6 2.8 0 2.2-2.1 2.2-2.1s2 2.4.3 3.8zm0 9.8c0-1 .6-1.9 1.6-2.8-.7.8-1.1 1.6-1.1 2.5 0 2.6 3.5 5 9.3 6.8-6.1-1.7-9.8-4-9.8-6.5zm3.8-2.6l.1-9.6c.3.1.8.3 1.5.5l-.2 10.1c0 2.7 3.8 3.6 3.8 3.6s-1.2-1-1.2-2.7l.2-10.3c5.6 1.6 16.5 3.9 31.5 3.9 20.7 0 33.4-4.4 35.6-5.1l.1 9.6c3.1 3.1-5.6 9.7-35.7 9.7s-38.7-6.7-35.7-9.7zm74.8 2.3c0-.9-.4-1.7-1.1-2.5 1 .9 1.6 1.8 1.6 2.8 0 2.5-3.7 4.8-9.8 6.5 5.8-1.8 9.3-4.2 9.3-6.8zm32.4-22.8v10.7c-18.7 6.6-19.6 9.4-22.3 9.4-1 0-1.6-.4-1.6-.4l-8.1-6.4c-1.7-1.4.4-3.8.4-3.8s-.7 2.1 2.2 2.1c2.7 0 7.4-4.8 29.4-11.6zm-25.5 1.5c1.2 1.6-.5 3.6-.5 3.6.5-1.2-.8-3.1-3.4-1.9-8.8 4.1-22.2 8-42 8s-33.2-3.9-42-8c-2.6-1.2-3.9.7-3.4 1.9 0 0-1.7-2-.5-3.6l7.4-9.9c.4-.5 1.6-1.1 3.4-.1 3.4 1.9 12.8 7.3 35.1 7.3s31.7-5.4 35.1-7.3c1.8-1 3-.4 3.4.1l7.4 9.9zm35.2-29.2c1-3.8 5.6-5.7 10.5-5.7 4.3 0 6.3 1 6.3 1l-2.1 4.4s-1.4-1.4-4.3-1.4c-2.3 0-3.9 1.1-4.1 1.9-.7 2.8 10.2 2.8 8.4 9.7-.9 3.6-5.2 5.8-10.7 5.8-5.2 0-7.6-1.5-7.6-1.5l2.2-4.3s2.5 1.8 6 1.8c1.5 0 3.5-.9 3.8-2 .8-3-10.2-2.9-8.4-9.7zm-21.6-5.4h6.4l5.1 11.6 1.5-5.9.8-3.2c.5-1.9-1.5-2.5-1.5-2.5h8.5l-5.3 20.7-.8-1.1h-4.7l-.9 1.1-5.1-11.6-3 11.6-.8-1.1h-4.2l-1.4 1.1 3.8-15 .8-3.2c.5-1.9-1.5-2.5-1.5-2.5h2.3zm-4.6 10.4c-.4 1.5-.9 3-1.7 4.3-2.2 3.8-6.3 6.4-13.2 6.4-7.6 0-10.1-3.2-9.9-7.6 0-1 .2-2 .5-3.1 1.5-5.9 5.6-10.7 14.9-10.7s10.9 4.8 9.4 10.7zm-3-25.1c2.6 0 4.4 1.2 3.9 3.2-.5 1.9-2.9 3.2-5.6 3.2h-1.4l-.8 3.1h-3.4l2.4-9.4h4.9zm-13.5 0l-1.5 5.9c-.3 1.1.5 1.4 1.6 1.4s2.1-.3 2.4-1.4l1.5-5.9h3.4l-1.5 5.9c-.8 3-3.3 3.7-6.3 3.7s-5.2-.7-4.4-3.7l1.5-5.9h3.3zm-54.8-92.6c.5-.1 1-.1 1.6-.2 3.3-.4 7.6-.7 13.1-.8h1.7c5.4 0 9.7.2 13 .6 1.4.1 2.6.3 3.7.5 1.5.2 2.7.5 3.7.8 1.2.3 2 .6 2.6.9.8.4 1.2.7 1.3.9V29c-.1-.2-.5-.6-1.3-.9-.6-.3-1.5-.6-2.7-.9-1-.3-2.2-.5-3.6-.7-1.1-.2-2.3-.3-3.6-.5-3.4-.4-7.7-.6-13.2-.6h-1.9c-5.4.1-9.6.3-12.8.7-.6.1-1.1.1-1.6.2-1.6.2-2.9.5-4 .8l-.1-1.2c1.2-.3 2.5-.6 4.1-.8zm-8.1 3.9v-1.2c.1-.2.6-.6 1.5-1l.1 1.2c-1 .3-1.5.7-1.6 1zm.4 1.3c0-1 .3-1.2.9-1.5.1-.1.3-.1.5-.2l.1 1.4s1-.9 2.5-.7l-.1-1.5c1.1-.3 2.4-.5 4-.8.5-.1 1-.1 1.6-.2 3.2-.4 7.3-.7 12.6-.7h2c5.5 0 9.8.2 13.2.6 1.3.1 2.5.3 3.6.5 1.4.2 2.6.5 3.6.7 1.2.3 2 .6 2.7.9h.1c.6.3.9.5.9 1.5v1.8c-.3-.5-.6-1-1.1-1.4-.6-.6-1.5-1-2.5-1h-.1c-1.3 0-2.2.8-2.7 1.3-.2-.2-.4-.4-.8-.7-.8-.6-1.9-1.2-3.5-1.5-.4-.1-.9-.1-1.3-.1-2.9 0-4.6 1.3-5.3 2-.9-.8-3.1-2.3-6.6-2.3-.8 0-1.5.1-2.1.2-2.3.4-3.8 1.5-4.5 2.1-.7-.7-2.5-2-5.3-2-.9 0-1.8.1-2.5.4-.6.2-1.1.4-1.5.7-.7.4-1.2.9-1.6 1.2-.5-.6-1.5-1.3-2.9-1.3-1.9 0-3 1.3-3.6 2.4-.3-.6-.3-1.2-.3-1.8zm.1 3.1c.2-.6.6-1.5 1.4-2.3.1 7.3 2 11.1 2 11.1 0-1.4-.7-2.7.2-2.7.4 0 .6.6.6.6s.1-.2.4-.2c0 0-.7-2.6-1.1-9.6 1.8 0 2.9 1.6 2.9 1.6s.5-.8 1.6-1.5c.4-.3.9-.5 1.5-.7.7-.2 1.5-.4 2.4-.4 3.7 0 5.3 2.3 5.3 2.3s1.5-1.7 4.5-2.3c.6-.1 1.4-.2 2.1-.2 4.5 0 6.7 2.5 6.7 2.5s1.6-2.3 5.3-2.3c.5 0 .9 0 1.3.1 1.4.2 2.4.8 3.1 1.3.8.6 1.2 1.2 1.2 1.2s.8-1.2 2.2-1.6c.2-.1.4-.1.7-.1 1.1 0 1.9.6 2.5 1.3.6.7.9 1.4 1.1 1.9-1 14.5-8.8 17.2-13.5 19 0 0-.1-.1-.4-.3 2.3-2.1 9.7-3.6 12.1-10.6-3.9 6.7-8 6.8-13 10.1-.2-.1-.3-.1-.5-.2 3.9-3.1 10-4.4 12.2-9.5-2.9 4.8-6.9 5.1-12.9 9.3-.2-.1-.4-.1-.7-.2 3.1-3 9.2-3.2 11.8-9.5-3.9 6.3-8.3 5.2-12.7 9.4-.2 0-.4-.1-.6-.1 3.9-4.1 8.8-3.3 10.7-10.2-3.6 6.9-6.5 4.8-11.9 10-.2 0-.5 0-.7-.1 3-4.4 9.6-3.3 10.3-12.1-2.8 8.7-8.3 6.9-11.9 12h-.8c2.7-5 9.1-4.2 10-13.3-2.7 9.7-8.6 7.3-11.9 13.3h-.9c1.5-4.6 10.4-6.5 9.2-13-.4 6.6-8.2 7-10.7 13.1h-.6c1.7-5.1 6.5-6.2 7-11.7-1.7 5.5-7 6.8-8.3 11.8-.2 0-.4 0-.6.1.9-4.9 4-5.8 4.6-10.6-1.5 4.9-5 4.9-6.4 10.8-.3.1-.5.1-.8.2-.8-4.7 3-3.9 3.4-11.2-1.3 6.9-6 6-4.7 11.6-1.2.4-1.4.8-1.4.8-4.5-1.6-12.3-4.4-13.3-18.9zm16.8 18.5v-.3c.2 0 .5-.1.8-.1.4-.1.8-.1 1.3-.2s1.1-.1 1.7-.1c1-.1 2.2-.1 3.4-.1 2 0 3.7.1 5.1.2.6.1 1.2.1 1.7.2 2 .3 3.1.8 3.1 1.3 0 0-.9-.4-3.1-.8-.5-.1-1.1-.2-1.7-.2-1.4-.1-3-.2-5.1-.2-1.3 0-2.4 0-3.4.1-.6 0-1.2.1-1.7.1s-.9.1-1.3.2c-2.5.4-3.5.9-3.5.9 0-.3.5-.6 1.3-.9v.2l1.4-.3zm-2 1.8s3.3-.9 9.1-.9 9.1.9 9.1.9c-2.2 3.2 6 2.3 6 5.5l-.1-.1c-.1.5-.6.4-.6-.2 0 .7-.9.7-.9 0h-.2c-.1.5-.5.4-.5.4s1.3.2 2.1.5l-.3.2s-1.2-.4-4.1-.8c-.8-.1-1.8-.2-2.9-.3-2-.2-4.5-.3-7.6-.3-1.6 0-3 0-4.3.1-.7 0-1.3.1-1.9.1-.8 0-1.5.1-2.2.2-4.4.4-6.2 1-6.2 1l-.3-.2c.8-.3 2.1-.5 2.1-.5-.6-.1-.6-.7-.6-.7h-.1c0 1-.9.9-.9.2 0 .5-.5.7-.6.2l-.2.1c.1-3.1 8.3-2.2 6.1-5.4zm-6.3 7.4s.2-.3 1.5-.6v.9c.7-.2 1.6-.3 2.8-.5v-1c.8-.1 1.7-.2 2.7-.3.7 0 1.4-.1 2.2-.1.6 0 1.2-.1 1.9-.1 1.3 0 2.7-.1 4.3-.1 3.1 0 5.6.1 7.6.2 1.1.1 2.1.2 2.9.3 4.4.5 4.9 1.3 4.9 1.3v1s-1-.6-4.9-1c-.8-.1-1.8-.2-2.9-.3-2-.1-4.5-.2-7.6-.2-1.6 0-3 0-4.3.1-.7 0-1.3 0-1.9.1-.8 0-1.5.1-2.2.1-5.7.4-7 1.2-7 1.2v-1zm-.3 2.1c0-.2.5-.5 1.4-.7v4c.5-.1 1.2-.2 2.1-.2v-3.5c0-.4.3-.7.5-.8.9-.1 1.9-.2 3-.3.8-.1 1.6-.1 2.6-.2.6 0 1.3-.1 2-.1 1.3 0 2.6-.1 4.1-.1 3 0 5.5.1 7.6.2 1.1.1 2.1.1 2.9.2 3.6.4 5.2.9 5.2 1.3v4.3s-1-.4-5.3-.6c-.8-.1-1.8-.1-2.9-.1-2-.1-4.5-.1-7.6-.1h-6.3c-1.7 0-3.1.1-4.2.2-4.2.3-5.2.6-5.2.6l.1-4.1zm-.1 5s.4-.1 1.6-.2c-1 .7-1.7 1.4-2 1.6.6-.1 1.4-.1 2.3-.2.2-.2.9-.9 1.9-1.6.5 0 1.1-.1 1.8-.1 1.1-.1 2.4-.1 3.9-.1h6.3c3.2 0 5.7 0 7.8.1 1.2 0 2.2.1 3.1.1 4 .2 5 .5 5 .5s2 1 2.8 2.4c0 0-1.2-.3-5.4-.5-.9-.1-2-.1-3.2-.2-2.6-.1-5.9-.2-10.1-.2h-7c-2.4.1-4.3.1-5.8.2-4.4.2-5.7.6-5.7.6.7-1.4 2.7-2.4 2.7-2.4zm1.1 8.4v-5.9c.5 0 1-.1 1.6-.1 1.6-.1 3.6-.1 6-.2h7.1c4.2 0 7.6.1 10.2.2 1.2 0 2.2.1 3.1.1 3.5.2 5 .4 5 .4v6.7s-.9-.2-5-.4c-.9 0-1.9-.1-3.1-.1-2.6-.1-5.9-.1-10.2-.1h-7.1c-2.5 0-4.5.1-6 .2-4.3.2-5.2.4-5.2.4V71s.4-.1 1.4-.1v6l2.2-.3zm-3.1 2.4s.5 0 1.4-.1c1.7 3.3-2.6 3-2.9 5.3l2.8-.1c.5-1.8 4-1.5 2.2-5.3.4 0 .9-.1 1.4-.1 1.7-.1 3.7-.2 6-.3.6 0 1.2 0 1.8-.1 1.6 0 3.3-.1 5.1-.1 3.6 0 7.2.1 10.1.2 1.1.1 2.1.1 3 .2 2.9.2 4.7.3 4.7.3-2 3.5 3 2.4 3 6 0 0-2.1-.1-6.2-.2-1 0-2.2 0-3.4-.1-3.1-.1-6.8-.1-11.2-.1h-7.8c-2.4 0-4.5.1-6.3.1-4.3.1-6.6.2-6.6.2 0-3.5 5-2.4 2.9-5.8zm-2.9 6.7h1.3v5.2l2.7-.1v-5.2h31.4c3.8 0 6.2.1 6.2.1v6s-2.3-.1-6.2-.1h-3.4c-3.1 0-6.9-.1-11.2-.1h-7.9c-2.4 0-4.5 0-6.3.1-4.2.1-6.6.1-6.6.1v-6zm.5 7.3h1.5c1.2 3.4-4 2.1-4 4.9.6 0 1.5.1 2.7.1 0-3 5.4-1.5 4-5.1 1 0 2.2 0 3.6-.1h12.5c5.6 0 9.9 0 13.1.1h2.8c3 .1 4.3.1 4.3.1-1.4 3.5 4.1 1.3 3.9 5.4 0 0-1.7.2-6.3.3-1 0-2.1.1-3.4.1-3.6.1-8.3.1-14.4.1h-8.8c-2 0-3.8-.1-5.3-.1-7.4-.2-9.9-.4-9.9-.4-.3-4.1 5.1-1.9 3.7-5.4zm-14.5 14.3c5 .5 8.3.5 10.3.4 1.8-.1 2.5-.3 2.5-.3-.9 0-1.7-.1-2.5-.1-6.9-.4-9.5-.9-9.5-.9.6-5.9 9.7-6.6 9.7-6.6s.8.3 8.6.5c3.6.1 8.6.1 15.7.1 5.6 0 10 0 13.3-.1 1.5 0 2.8-.1 3.9-.1 6.3-.2 7-.4 7-.4s9.1.7 9.7 6.6c0 0 .7.3.8 1 .1.3 0 .7-.3 1.2 0 0-3.4.6-14.5 1 0 0 3.8.5 7.4.5 1.1 0 2.1 0 3.1-.1 2.8-.2 4-.4 4-.4v3.3c-1.1-.3-2.4-.5-3.8-.5-1 0-1.9.1-2.8.2-2.1.3-3.7.9-5.1 1.6H111l.1-4.3c1.8.2 4 .1 6 0 2.5-.2 4.5-.4 4.5-.4-1.7-.1-3.1-.1-4.5-.2-7.6-.4-10-.8-10-.8-.3-.5-.3-.9-.2-1.2zm.2 2.2s.5.1 1.5.2l-.1 4.5H107l.1-4.7zm1.5 8.2l-1.1 2.2h-3l-1.8 7.2h-3.4l1.8-7.2h-3.5l1.1-2.2h9.9zm-21.7 7.4s1.5.8 3.8.8c1.1 0 2.2-.4 2.4-1.1.5-2-6.4-1.7-5.4-5.8.4-1.4 2.4-3.1 6.5-3.1 2.4 0 3.8.6 3.8.6l-1.2 2.3s-1.2-.6-3-.6c-1.3 0-2.2.4-2.4.9-.5 1.8 6.4 1.7 5.4 5.8-.5 2.1-3.3 3.3-6.5 3.3-3.3 0-4.8-.9-4.8-.9l1.4-2.2zM69 132.4h6.4l-2.1 8.4h8.1l.7-2.6.8-3.2c.5-1.9-1.5-2.5-1.5-2.5h8.5l-5.3 20.7-.8-1.1h-4.2l-1.4 1.1 2.1-8.4 1.4-1.1H71.4l.8 1.1-2.1 8.4-.8-1.1h-4.2l-1.4 1.1 3.8-15 .8-3.2c.5-1.9-1.5-2.5-1.5-2.5H69zm-25 10.4c.2-.6.4-1.3.7-1.9 2.1-4.5 7.5-8.8 15.9-8.8 2.8 0 5.3.6 5.3.6l-1.1 4.2s-1.6-.8-4.6-.8c-2.4 0-6.3 1-8.5 3.9-.6.8-1.1 1.7-1.4 2.8-1.3 5.1 3.4 6.7 6.4 6.7 3 0 5.1-.8 5.1-.8l-1.1 4.2s-2.8.6-5.6.6c-9.6 0-12.4-5.6-11.1-10.7z"/><path d="M178.7 142.8c-.9 3.7-.3 6.7 4.1 6.7 4.3 0 6.5-3 7.5-6.7.9-3.7.3-6.7-4.1-6.7-4.3 0-6.5 3-7.5 6.7zm15.5-21.9c.1-.5-.2-.9-.7-.9h-1.8l-.5 1.9h1.8c.5-.1 1-.5 1.2-1zm-39.9 15.5h-2.8l-1.4 5.5h2.8c1.6 0 3.1-1.2 3.5-2.8.4-1.4-.5-2.7-2.1-2.7zM110.4 123h1.9l-.2-3.1z"/><g><path d="M186.4 194.3h2.8v.5h-1.1v2.9h-.6v-2.9h-1.1v-.5z"/><path d="M189.3 194.3h.8l.9 2.7.9-2.7h.8v3.4h-.6v-2.6l-1 2.6h-.5l-1-2.6v2.6h-.6v-3.4z"/></g><g><path d="M118.3 191.6c0-5.4 2.5-7.4 3-12.5-.7 4.5-3.7 8.1-3.7 12.5 0 1.7.2 3.2.7 4.6 1.9 6.2 7.4 9.6 12.8 11-8.3-2.1-12.8-9-12.8-15.6zm45.6-7.1c-1-2.4-2.1-4.6-2.1-7.3 0 6.6 3.1 8.4 3.1 14.4 0 6.6-4.5 13.6-12.8 15.6 7.5-1.9 13.4-7.3 13.4-15.6.1-2.8-.7-5-1.6-7.1z" fill="#FFF"/><path d="M162.8 165.5c-1.7-.5-2.9-1.8-3.7-3.8l-1.7-4.7-.8 3c1.6 7.3 7.6 7.8 7.6 7.8l2.4-1.1-3.8-1.2zM134.5 192l-3.1-4.8-3.5 2.6s1.2 0 1.2 1.3v9.1l2.5-1.8V192l2.8 4.3 2.6-2V183l-2.5 1.8v7.2zm10-10.5l-2.8 2.1v-4.2l-3.7 2.8s1.2 0 1.2 1.3v9.1l2.5-1.9v-4.1l2.8-2.1v4.1l2.4-1.8v-11.3l-2.4 1.8v4.2zm7-1v-8.4l-3.7 2.8s1.2 0 1.2 1.3v9.1l7-5.2c-.1-1.8 0-2.9 0-2.9l-4.5 3.3z" fill="#D1D3D3"/><linearGradient id="F" gradientUnits="userSpaceOnUse" x1="12458.757" y1="11216.865" x2="12481.612" y2="11216.865" gradientTransform="translate(-3312.625 -2904.914) scale(.2752)"><stop offset=".112" stop-color="#fff"/><stop offset=".237" stop-color="#dcdee0"/><stop offset=".44" stop-color="#a7aeb2"/><stop offset=".539" stop-color="#939ba0"/></linearGradient><path fill="url(#F)" d="M119.6 177.2c0 6.4-3.1 7.7-3.1 14.4 0 2.1.3 4 1 5.7.2-.4.5-.8.8-1.1-.4-1.4-.7-2.9-.7-4.6 0-4.4 3-8.1 3.7-12.5.1-.6.1-1.2.1-1.9 0-5.1-2.4-9.4-2.4-9.4l-2.4-1.1 1.7 3.8c.7 1.7 1.3 4.1 1.3 6.7z"/><linearGradient id="G" gradientUnits="userSpaceOnUse" x1="164.274" y1="184.53" x2="164.274" y2="166.606"><stop offset="0" stop-color="#fff"/><stop offset=".348" stop-color="#fff"/><stop offset=".562" stop-color="#939ba0"/><stop offset="1" stop-color="#939ba0"/></linearGradient><path fill="url(#G)" d="M161.8 177.2c0 2.7 1.1 4.9 2.1 7.3h1.3c-.8-2-1.7-4-1.7-7.3 0-2.6.6-4.9 1.5-6.8l1.7-3.8-2.4 1.1c0 .1-2.5 4.4-2.5 9.5z"/><linearGradient id="H" gradientUnits="userSpaceOnUse" x1="117.476" y1="205.048" x2="141.62" y2="205.048"><stop offset=".152" stop-color="#fff"/><stop offset=".212" stop-color="#fafafa"/><stop offset=".286" stop-color="#ebeced"/><stop offset=".367" stop-color="#d2d5d7"/><stop offset=".453" stop-color="#afb5b8"/><stop offset=".511" stop-color="#939ba0"/></linearGradient><path fill="url(#H)" d="M139.7 209.2c-2-.7-4.7-1-8.6-2-5.4-1.4-10.9-4.8-12.8-11-.3.3-.6.7-.8 1.1 2.1 6 7.4 10.2 13.1 11.6 3.7.9 5.4 1 8.1 1.8.4.4 2.9 3.1 2.9 3.1v-2.6s-1.6-1.8-1.9-2z"/><linearGradient id="I" gradientUnits="userSpaceOnUse" x1="155.945" y1="203.829" x2="127.321" y2="162.949"><stop offset="0" stop-color="#939ba0"/><stop offset=".012" stop-color="#98a0a4"/><stop offset=".118" stop-color="#c1c5c7"/><stop offset=".202" stop-color="#dadcdd"/><stop offset=".253" stop-color="#e3e4e5"/><stop offset=".753" stop-color="#e3e4e5"/><stop offset=".801" stop-color="#dbddde"/><stop offset=".875" stop-color="#c5c9cb"/><stop offset=".966" stop-color="#a2a9ad"/><stop offset="1" stop-color="#939ba0"/></linearGradient><path fill="url(#I)" d="M131.5 205.5c4.4 1.1 7.2 1.2 9.2 2.2 0 0 .7.6 1 .9.3-.3 1-.9 1-.9 1.9-.9 4.8-1.1 9.2-2.2 5.5-1.4 11.5-6.3 11.5-13.9 0-5.5-3.1-7.5-3.1-14.4 0-4.7 1.8-8.3 1.8-8.3s-4.1-.8-6-6c0 0-2.7 2.5-6.4 2.5-4.7 0-7.8-3.3-7.8-3.3s-3.1 3.3-7.8 3.3c-3.7 0-6.4-2.5-6.4-2.5-1.9 5.2-6 6-6 6s1.8 3.6 1.8 8.3c0 6.9-3.1 8.9-3.1 14.4-.4 7.6 5.6 12.5 11.1 13.9zm29.7-13.9c0 6.5-5.2 10.7-10 12-3.5.9-7.7 1.3-9 2.1-.3.2-.6.6-.6.6l-.6-.6c-1.3-.7-5.5-1.2-9-2.1-.1 0-.3-.1-.4-.1l27.3-20.5c.9 3.2 2.3 5.4 2.3 8.6zm-1.9-21.6c-.6 1.7-1.2 4.2-1.2 7.2 0 1.2.1 2.3.2 3.3l-29.2 22c-3.7-1.9-6.9-5.5-7-10.5l33.6-25.2c1.1 1.6 2.5 2.6 3.6 3.2zm-34.1 7.2c0-3-.6-5.5-1.2-7.2 1.3-.7 2.9-2 4.2-4.1 1.4.8 3.3 1.6 5.7 1.6 3.5 0 6.2-1.5 7.8-2.7 1.6 1.1 4.3 2.7 7.8 2.7.6 0 1.1 0 1.6-.1l-28.6 21.5c.7-3.3 2.7-6 2.7-11.7z"/><linearGradient id="J" gradientUnits="userSpaceOnUse" x1="125.792" y1="160.306" x2="141.62" y2="160.306"><stop offset=".247" stop-color="#fff"/><stop offset=".337" stop-color="#fafafa"/><stop offset=".448" stop-color="#ebeced"/><stop offset=".57" stop-color="#d2d5d7"/><stop offset=".699" stop-color="#afb5b9"/><stop offset=".786" stop-color="#939ba0"/></linearGradient><path fill="url(#J)" d="M133.8 163.6c4.7 0 7.8-4 7.8-4v-2.5l-2.5 2.4c-1.3 1.2-3.3 2.3-5.3 2.3-1.5 0-3-.7-4.2-1.7l-3.8-3.2.8 3s3.6 3.7 7.2 3.7z"/><linearGradient id="K" gradientUnits="userSpaceOnUse" x1="141.62" y1="199.176" x2="166.738" y2="199.176"><stop offset=".197" stop-color="#fff"/><stop offset=".327" stop-color="#fafbfb"/><stop offset=".473" stop-color="#edeeef"/><stop offset=".626" stop-color="#d7dadc"/><stop offset=".783" stop-color="#b8bdc0"/><stop offset=".933" stop-color="#939ba0"/></linearGradient><path fill="url(#K)" d="M165.6 191.6c0 8.3-5.9 13.8-13.4 15.6-3.9 1-6.6 1.2-8.6 2-.3.2-1.9 2-1.9 2v2.6s2.5-2.7 2.9-3.1c2.7-.8 4.4-.9 8.1-1.8 7.4-1.9 14.1-8.4 14.1-17.4 0-3.2-.7-5.2-1.5-7.1H164c.8 2.2 1.6 4.4 1.6 7.2z"/><linearGradient id="L" gradientUnits="userSpaceOnUse" x1="141.62" y1="160.306" x2="157.449" y2="160.306"><stop offset=".247" stop-color="#fff"/><stop offset=".337" stop-color="#fafafa"/><stop offset=".448" stop-color="#ebeced"/><stop offset=".57" stop-color="#d2d5d7"/><stop offset=".699" stop-color="#afb5b8"/><stop offset=".786" stop-color="#939ba0"/></linearGradient><path fill="url(#L)" d="M149.4 163.6c3.6 0 7.2-3.7 7.2-3.7l.8-3-3.8 3.2c-1.3 1-2.7 1.7-4.2 1.7-2 0-4.1-1-5.3-2.3l-2.5-2.4v2.5s3.1 4 7.8 4z"/><linearGradient id="M" gradientUnits="userSpaceOnUse" x1="116.529" y1="162.36" x2="126.585" y2="162.36"><stop offset=".388" stop-color="#fff"/><stop offset=".467" stop-color="#fafafa"/><stop offset=".566" stop-color="#ebeced"/><stop offset=".673" stop-color="#d2d5d7"/><stop offset=".788" stop-color="#afb5b8"/><stop offset=".865" stop-color="#939ba0"/></linearGradient><path fill="url(#M)" d="M126.6 159.9l-.8-3-1.7 4.7c-.7 2-2 3.3-3.7 3.8l-3.9 1.1 2.4 1.1c.1.2 6.1-.4 7.7-7.7z"/><path d="M118.9 177.2c0 6.2-3.1 7.6-3.1 14.4 0 9.9 7.6 16.3 14.7 18.1 3.6.9 4.7.9 7.9 1.7.3.3 3.3 3.5 3.3 3.5s3-3.3 3.3-3.5c3.2-.8 4.3-.9 7.9-1.7 7.1-1.8 14.7-8.3 14.7-18.1 0-6.8-3.1-8.2-3.1-14.4 0-2.2.5-4.4 1.4-6.5l2-4.6-4.7-1.4c-1.4-.4-2.5-1.5-3.2-3.3l-2.1-5.7-4.7 3.9c-1.2 1-2.5 1.5-3.7 1.5-1.7 0-3.5-.8-4.8-2l-3-3-3 3c-1.3 1.2-3.1 2-4.8 2-1.2 0-2.5-.5-3.7-1.5l-4.7-3.9-2.1 5.7c-.6 1.8-1.7 2.9-3.2 3.3l-4.7 1.4 2 4.6c.9 2.1 1.4 4.3 1.4 6.5zm1.5-11.7c1.7-.5 2.9-1.8 3.7-3.8l1.7-4.7 3.8 3.2c1.3 1 2.7 1.7 4.2 1.7 2 0 4.1-1 5.3-2.3l2.5-2.4 2.5 2.4c1.3 1.2 3.3 2.3 5.3 2.3 1.5 0 3-.7 4.2-1.7l3.8-3.2 1.7 4.7c.7 2 2 3.3 3.7 3.8l3.9 1.1-1.7 3.8c-.8 1.9-1.5 4.2-1.5 6.8 0 3.3.8 5.3 1.7 7.3.8 1.9 1.5 3.9 1.5 7.1 0 9-6.7 15.5-14.1 17.4-3.7.9-5.4 1-8.1 1.8-.4.4-2.9 3.1-2.9 3.1s-2.5-2.7-2.9-3.1c-2.7-.8-4.4-.9-8.1-1.8-5.7-1.5-11-5.7-13.1-11.6-.6-1.8-1-3.7-1-5.7 0-6.7 3.1-8 3.1-14.4 0-2.6-.6-4.9-1.5-6.8l-1.7-3.8 4-1.2z"/><path d="M131.6 203.5c.1 0 .3.1.4.1 3.5.9 7.7 1.3 9 2.1.3.2.6.6.6.6l.6-.6c1.3-.7 5.5-1.2 9-2.1 4.8-1.2 10-5.5 10-12 0-3.2-1.4-5.4-2.3-8.6l-27.3 20.5zm-9.2-14.7l28.6-21.5c-.5.1-1.1.1-1.6.1-3.5 0-6.2-1.5-7.8-2.7-1.6 1.1-4.3 2.7-7.8 2.7-2.3 0-4.3-.8-5.7-1.6-1.3 2.2-2.9 3.4-4.2 4.1.6 1.7 1.2 4.2 1.2 7.2.1 5.8-1.9 8.5-2.7 11.7zm6.7 13.6l29.2-22c-.2-1-.2-2.1-.2-3.3 0-3 .6-5.5 1.2-7.2-1.1-.6-2.4-1.6-3.6-3.2L122 192c.2 5 3.4 8.6 7.1 10.4zm22.4-30.3v8.4l4.4-3.3s-.1 1.1 0 2.9l-7 5.2v-9.1c0-1.3-1.2-1.3-1.2-1.3l3.8-2.8zm-9.8 7.3v4.2l2.8-2.1v-4.2l2.4-1.8v11.3l-2.4 1.8v-4.1l-2.8 2.1v4.1l-2.5 1.9v-9.1c0-1.3-1.2-1.3-1.2-1.3l3.7-2.8zm-10.3 7.8l3.1 4.8v-7.2l2.5-1.8v11.3l-2.6 2-2.8-4.3v6.4l-2.5 1.8v-9.1c0-1.3-1.2-1.3-1.2-1.3l3.5-2.6z"/><path d="M121.3 179.1c-.5 5.1-3 7.2-3 12.5 0 6.6 4.5 13.6 12.8 15.6 3.9 1 6.6 1.2 8.6 2 .3.2 1.9 2 1.9 2s1.7-1.8 1.9-2c2-.7 4.7-1 8.6-2 8.3-2.1 12.8-9 12.8-15.6 0-6-3.1-7.9-3.1-14.4 0-5.1 2.4-9.4 2.4-9.4s-6-.5-7.6-7.8c0 0-3.6 3.7-7.2 3.7-4.7 0-7.8-4-7.8-4s-3.1 4-7.8 4c-3.6 0-7.2-3.7-7.2-3.7-1.6 7.3-7.6 7.8-7.6 7.8s2.4 4.3 2.4 9.4c0 .7 0 1.3-.1 1.9zm.1-10.2s4.1-.8 6-6c0 0 2.7 2.5 6.4 2.5 4.7 0 7.8-3.3 7.8-3.3s3.1 3.3 7.8 3.3c3.7 0 6.4-2.5 6.4-2.5 1.9 5.2 6 6 6 6s-1.8 3.6-1.8 8.3c0 6.9 3.1 8.9 3.1 14.4 0 7.6-6 12.5-11.5 13.9-4.4 1.1-7.2 1.2-9.2 2.2 0 0-.7.6-1 .9-.3-.3-1-.9-1-.9-1.9-.9-4.8-1.1-9.2-2.2-5.5-1.4-11.5-6.3-11.5-13.9 0-5.5 3.1-7.5 3.1-14.4.4-4.7-1.4-8.3-1.4-8.3zm38 41.3c0 1.1.9 2.1 2.1 2.1 1.1 0 2.1-.9 2.1-2.1 0-1.1-.9-2.1-2.1-2.1-1.1 0-2.1 1-2.1 2.1zm3.7 0c0 .9-.7 1.6-1.6 1.6-.9 0-1.6-.7-1.6-1.6 0-.9.7-1.6 1.6-1.6.9 0 1.6.7 1.6 1.6z"/><path d="M160.6 211.4h.4v-1h.3l.4 1h.5l-.5-1c.3-.1.5-.4.5-.7 0-.4-.3-.7-.7-.7h-1v2.4zm.5-1.9h.6c.1 0 .3.1.3.3 0 .1-.1.3-.3.3h-.6v-.6z"/></g><g><path d="M128.6 109.2c2.7-1.8 4.1-2.6 4.1-3.6v-.3c0-1.4-1.1-2.1-3.2-2.1h-.9c-2.4 0-3.1 1.3-3.1 2.1v.4h1.3v-.3c0-.1 0-.4.2-.5.3-.2.8-.3 1.5-.3h1.1c1.8 0 1.8.7 1.8.9v.2c0 .5-1 1.2-5.4 4l-.8.5v1.1h7.7V110h-5.4c.3-.3.7-.5 1.1-.8zm11-6h-1.1c-2.8 0-3.1 1.5-3.1 2.2v3.7c0 2 2.2 2.3 3.1 2.3h1c2.9 0 3.3-1.2 3.3-2.2v-3.7c-.1-1.5-1.1-2.3-3.2-2.3zm1.8 5.9c0 .2 0 .5-.2.7-.3.3-.9.4-1.7.4h-1.1c-1.1 0-1.8-.4-1.8-1.1v-3.6c0-.4.3-1 1.7-1h1.2c1.2 0 1.8.3 1.8 1v3.6zm5.9-5.8c-.1.5-.9 1.3-2 1.3v1h1.4v5.7h1.4v-8h-.8zm3.8 0v1.3h6.5c-2 1.8-4.4 4.7-5.1 6.6v.1h1.7c.6-1.8 4.5-6.3 5.2-6.8v-1.1h-8.3z"/></g></svg>