<?xml version="1.0" encoding="UTF-8" standalone="no"?>
<svg
   xmlns:dc="http://purl.org/dc/elements/1.1/"
   xmlns:cc="http://creativecommons.org/ns#"
   xmlns:rdf="http://www.w3.org/1999/02/22-rdf-syntax-ns#"
   xmlns:svg="http://www.w3.org/2000/svg"
   xmlns="http://www.w3.org/2000/svg"
   height="285"
   width="285"
   xml:space="preserve"
   viewBox="0 0 285 285"
   y="0px"
   x="0px"
   id="Art"
   version="1.1"><metadata
     id="metadata977"><rdf:RDF><cc:Work
         rdf:about=""><dc:format>image/svg+xml</dc:format><dc:type
           rdf:resource="http://purl.org/dc/dcmitype/StillImage" /><dc:title></dc:title></cc:Work></rdf:RDF></metadata><defs
     id="defs975" />
	 <g>
	 	<g>
	 		<g>
	 			<g>
	 				<g>
	 					<g>
	 						<path fill="#FFFFFF" d="M152.1,61.2v-1.3c-0.8-0.1-1.8-0.2-2.9-0.3v0.5v0.8C150.3,61,151.3,61.1,152.1,61.2z"/>
	 						<path fill="#FFFFFF" d="M137.3,59.5c-0.7,0-1.3,0-1.9,0.1v1.3c0.6,0,1.2-0.1,1.9-0.1V59.5z"/>
	 						<path fill="#FFFFFF" d="M135.3,66.7c0.6,0,1.3,0,2,0v-4.5c0-0.2,0.1-0.5,0.2-0.6c-0.7,0-1.3,0-2,0.1c-0.1,0.1-0.2,0.4-0.2,0.7
	 							V66.7z"/>
	 						<path fill="#FFFFFF" d="M152.1,61.9c-0.9-0.1-1.8-0.2-2.9-0.2v5.1c1.1,0,2.1,0.1,2.9,0.1V61.9z"/>
	 						<path fill="#FFFFFF" d="M151.7,69.9c1.2,0,2.3,0.1,3.2,0.2c-0.5-1.4-1.9-2.1-2.4-2.3c-0.9,0-1.9-0.1-3.1-0.1
	 							C150,67.8,151.4,68.6,151.7,69.9z"/>
	 						<path fill="#FFFFFF" d="M136.4,69.7c0.1-0.3,0.2-1.2,0.8-2.2c-0.7,0-1.3,0-1.9,0c-0.6,1.1-0.7,1.9-0.8,2.3
	 							C135.1,69.8,135.7,69.8,136.4,69.7z"/>
	 						<path fill="#FFFFFF" d="M134.5,77.1c0.6,0,1.2,0,1.8,0v-6.7c-0.6,0-1.3,0-1.8,0V77.1z"/>
	 						<path fill="#FFFFFF" d="M155,70.6c-0.9,0-1.9-0.1-3.1-0.1v6.7c1.2,0,2.2,0.1,3.1,0.1V70.6z"/>
	 						<path fill="#FFFFFF" d="M152.8,84.6c1.3,0,2.4,0,3.4,0.1c-0.1-3.6-4.7-3.6-1.5-6.1c-0.9-0.1-1.9-0.1-3-0.2
	 							C148.6,80.7,152.7,81,152.8,84.6z"/>
	 						<path fill="#FFFFFF" d="M133.8,84.6c0.6,0,1.2,0,1.8,0c-0.2-3.3,2.5-3.5,1-6.3c-0.6,0-1.2,0-1.8,0.1
	 							C136.2,81.1,133.6,81.3,133.8,84.6z"/>
	 						<path fill="#FFFFFF" d="M156.2,85.6c-1,0-2.2,0-3.4,0v5.9c1.3,0,2.4,0,3.4,0V85.6z"/>
	 						<path fill="#FFFFFF" d="M133.8,91.5c0.6,0,1.2,0,1.9,0v-5.9c-0.6,0-1.3,0-1.9,0V91.5z"/>
	 						<path fill="#FFFFFF" d="M132.8,98.9c0.6,0,1.3,0,1.9,0c-0.4-3.5,2.7-3.3,1.2-6.2c-0.7,0-1.3,0-1.9,0
	 							C135.5,95.6,132.4,95.4,132.8,98.9z"/>
	 						<path fill="#FFFFFF" d="M159.5,98.7c0.5-3.3-4.9-3.5-1.9-5.8c-0.8,0-1.7,0-2.8,0c-2.8,3.2,2.3,2.8,1.4,6
	 							C157.3,98.8,158.5,98.7,159.5,98.7z"/>
	 						<path fill="#FFFFFF" d="M136.6,51.8c0.5-0.1,1.1-0.1,1.7-0.1v-0.5c-0.6,0-1.1,0.1-1.7,0.1V51.8z"/>
	 						<path fill="#FFFFFF" d="M148.4,51.5c-0.5-0.1-1.1-0.2-1.7-0.2v0.5c0.6,0.1,1.2,0.1,1.7,0.2V51.5z"/>
	 						<path fill="#FFFFFF" d="M126.9,26.1l-0.1-1.2c-0.6,0.1-1.1,0.1-1.6,0.2l0.1,1.2C125.9,26.2,126.4,26.2,126.9,26.1z"/>
	 						<path fill="#FFFFFF" d="M162.1,27.1c0-0.4,0-0.8,0-1.2c-1-0.3-2.2-0.5-3.7-0.8c0,0.4,0,0.9,0,1.2
	 							C159.9,26.6,161.1,26.9,162.1,27.1z"/>
	 						<path fill="#FFFFFF" d="M154.8,25.9c0-0.4-0.1-0.8-0.2-1.3c-3.4-0.3-7.6-0.6-13-0.6c-0.6,0-1.2,0-1.7,0
	 							c-0.1,0.4-0.1,0.8-0.2,1.2c0.6,0,1.3,0,1.9,0C147.1,25.3,151.4,25.6,154.8,25.9z"/>
	 						<path fill="#FFFFFF" d="M159.2,31c0.5-0.5,1.4-1.3,2.7-1.3c0-0.4,0.1-1.1,0.1-1.8c-1-0.3-2.2-0.5-3.6-0.7c0,1.6,0,2.7,0,3.2
	 							C158.7,30.6,159,30.8,159.2,31z"/>
	 						<path fill="#FFFFFF" d="M148.3,30.7c0.7-0.7,2.5-2,5.3-2c0.5,0,0.9,0,1.3,0.1c0-0.7,0-1.4-0.1-2.1c-3.4-0.4-7.7-0.6-13.2-0.6
	 							c-0.7,0-1.4,0-2,0c-0.1,0.9-0.1,1.7-0.1,2.6c0.7-0.1,1.4-0.2,2.1-0.2C145.2,28.5,147.4,30,148.3,30.7z"/>
	 						<path fill="#FFFFFF" d="M125.7,29.8c0.4-0.3,1-0.5,1.5-0.7l-0.2-2.2c-0.6,0.1-1.1,0.1-1.6,0.2L125.7,29.8z"/>
	 						<path fill="#FFFFFF" d="M157.9,38.5c1.4,0,0.4,1.7,1,1.7c0.4,0,0.2-1,0.9-1.1c0.4-0.9,1.4-3.6,1.4-8.8
	 							c-1.4,0.3-2.2,1.6-2.2,1.6s-0.4-0.6-1.2-1.2c0,4.8-1.1,7.5-1.4,8.2c0.1,0,0.2,0.1,0.3,0.1C157.3,39,157.2,38.5,157.9,38.5z"/>
	 						<path fill="#FFFFFF" d="M126.1,35.3c0.1,0.7,0.3,1.5,0.7,1.5c0.7,0,0.2-1.5,0.8-2l-0.5-5.1c-0.6,0.2-1.1,0.5-1.5,0.7
	 							L126.1,35.3z"/>
	 						<path fill="#FFFFFF" d="M142.4,39.8c1.5,0,0.4-2.1,2.1-2.1c1.3,0,0.9,1.3,1.9,1.3c1.5,0,0.6-3.2,2.3-3.2
	 							c1.1,0,0.8,1.1,1.8,1.1c1.4,0,0.4-2.8,2-2.8c1.6,0,0.5,2.2,1.7,2.4c0.2-0.9,0.7-3.7,0.8-7c-0.4-0.1-0.9-0.1-1.3-0.1
	 							c-3.7,0-5.3,2.3-5.3,2.3s-2.2-2.5-6.7-2.5c-0.8,0-1.5,0.1-2.1,0.2c0,4.3,1,8,1.5,9.5C141.3,39.2,141.5,39.8,142.4,39.8z"/>
	 						<path fill="#FFFFFF" d="M121.3,39.8c-0.8,0,0.4,1.1,0.5,2.9C121.8,42.8,121.9,39.8,121.3,39.8z"/>
	 						<path fill="#FFFFFF" d="M123.1,38.7c-0.3,0-0.5,0.2-0.5,0.5c0,0.4,1.1,0.9,1.1,4C123.8,41.2,123.9,38.7,123.1,38.7z"/>
	 						<path fill="#FFFFFF" d="M125.6,42.2c0.6-2.1,1.2-5.7-0.1-5.7c-0.4,0-0.7,0.3-0.7,0.7C124.9,37.9,126,38.2,125.6,42.2z"/>
	 						<path fill="#FFFFFF" d="M128.1,43.8c0.8-4.1,1.4-8.8,0.2-8.8c-0.3,0-0.6,0.2-0.6,0.5C127.7,36.4,128.8,36.8,128.1,43.8z"/>
	 						<path fill="#FFFFFF" d="M131.8,36.4c-0.5,0-0.6,0.4-0.6,0.6c0,0.4,1.2,1.3-0.4,7.7C132.1,42.7,133.1,36.4,131.8,36.4z"/>
	 						<path fill="#FFFFFF" d="M136.7,38.9c0-0.5-0.5-0.9-0.8-0.9c-1.7,0-0.1,2.9-2.4,7.9c0,0,2.1-2.7,2.6-5.7
	 							C136.2,39.6,136.7,39.4,136.7,38.9z"/>
	 						<path fill="#FFFFFF" d="M140.7,39.6c0-1-1.5-1-1.5,0.1c0,2.6-1.5,3.7-3.4,7.4C138.4,42.7,140.7,41.8,140.7,39.6z"/>
	 						<path fill="#FFFFFF" d="M143.7,39c-0.5,4-2.2,2.3-4.3,6.8c2-3.3,4-1.9,5.4-7C145,38.3,143.9,37.8,143.7,39z"/>
	 						<path fill="#FFFFFF" d="M148.1,37c0,4.5-2.4,5.1-5.6,8.5c3.1-2.4,7-4.2,7-8.5C149.4,36.1,148.1,36.1,148.1,37z"/>
	 						<path fill="#FFFFFF" d="M151.8,35.3c0,6.2-4.8,9.5-4.8,9.5c3.3-1.2,6.2-6.9,6.2-9.7C153.1,34.2,151.8,34.2,151.8,35.3z"/>
	 						<path fill="#FFFFFF" d="M150.2,45.2c0,0,4.5-2,6-8.6c0.1-0.6-1-0.8-1.1,0C154.7,41.9,150.2,45.2,150.2,45.2z"/>
	 						<path fill="#FFFFFF" d="M157.4,39.5c-0.7,3.1-3.7,5.7-3.7,5.7s2.7-1.4,4.6-5.5C158.6,39.1,157.6,38.5,157.4,39.5z"/>
	 						<path fill="#FFFFFF" d="M159.6,40c-0.7,3.7-3.6,5.7-3.6,5.7s3.3-1.7,4.7-5.4C160.8,39.8,159.7,39.3,159.6,40z"/>
	 						<path fill="#FFFFFF" d="M159.8,44.5c0,0,2.3-1.8,3.1-4.6c0.2-0.5-0.8-0.9-0.9-0.1C161.8,42.1,159.8,44.5,159.8,44.5z"/>
	 						<path fill="#FFFFFF" d="M135.4,58.9c0.6,0,1.2-0.1,1.9-0.1v-0.2c-0.2,0-0.4-0.1-0.4-0.1l-1.5,0.1V58.9z"/>
	 						<path fill="#FFFFFF" d="M149.2,58.7V59c1.1,0.1,2.1,0.2,2.9,0.3V59l-1.2-0.1c-0.6,0.2-0.9-0.1-0.9-0.1L149.2,58.7z"/>
	 						<path fill="#FFFFFF" d="M149.6,56.5c0,0-1-0.9-0.9-2.2c-0.4-0.1-1-0.1-1.7-0.2c-0.3,1,0.5,2.1,0.5,2.1s0.8-0.2,1.3,0.4
	 							l0.4,0.1C149.3,56.6,149.4,56.5,149.6,56.5z"/>
	 						<path fill="#FFFFFF" d="M137.1,54c0.2,1.4-0.3,2.3-0.3,2.3h0.1c0.1-0.2,0.9-0.6,1.5-0.1l0.2,0c0,0,0.4-1.1,0.1-2.3
	 							C138.1,53.9,137.6,53.9,137.1,54z"/>
	 						<path fill="#FFFFFF" d="M148.3,56.4c-0.5,0.1-0.3,1.5,0.5,1.5C149.5,57.9,148.8,56.3,148.3,56.4z"/>
	 						<path fill="#FFFFFF" d="M154.7,58.6c0.5-0.2-0.4-1.4-0.7-1.4C153.8,57.3,154.2,58.9,154.7,58.6z"/>
	 						<path fill="#FFFFFF" d="M146,56.2c-0.6,0-0.4,1.6,0.5,1.6C147.2,57.8,146.5,56.2,146,56.2z"/>
	 						<path fill="#FFFFFF" d="M143.7,57.6c0.8,0,0.3-1.6-0.6-1.6C142.7,56,142.9,57.6,143.7,57.6z"/>
	 						<path fill="#FFFFFF" d="M140.4,57.6c0.7-0.2-0.1-1.2,0-1.5C139.2,55.4,139.5,57.9,140.4,57.6z"/>
	 						<path fill="#FFFFFF" d="M155.8,58.8c0.3-0.2-0.3-1.1-0.6-1.2C155,57.6,155.5,59,155.8,58.8z"/>
	 						<path fill="#FFFFFF" d="M156.5,58.9c0.3-0.2-0.2-1-0.4-0.9C156,58.1,156.2,59.2,156.5,58.9z"/>
	 						<path fill="#FFFFFF" d="M153.1,58.4c0.7-0.2-0.1-1.4-0.5-1.5C152.2,56.9,152.4,58.6,153.1,58.4z"/>
	 						<path fill="#FFFFFF" d="M151.1,58.2c0.7-0.2-0.1-1.5-0.5-1.5C150.2,56.7,150.4,58.4,151.1,58.2z"/>
	 						<path fill="#FFFFFF" d="M129,58c0.3,0.2,0.4-0.6,0.7-0.9C128.9,57.1,128.8,57.9,129,58z"/>
	 						<path fill="#FFFFFF" d="M127.7,58.2c0.2,0.1,0.3-0.5,0.5-0.8C127.7,57.5,127.6,58.2,127.7,58.2z"/>
	 						<path fill="#FFFFFF" d="M137.6,57.7c0.6,0,0-1,0.2-1.4C136.9,55.6,136.8,57.8,137.6,57.7z"/>
	 						<path fill="#FFFFFF" d="M135,57.7c0.5,0.1,0.3-0.9,0.6-1.2C134.7,55.9,134.5,57.5,135,57.7z"/>
	 						<path fill="#FFFFFF" d="M130.7,57.9c0.4,0.1,0.4-0.7,0.7-1C130.6,56.7,130.3,57.7,130.7,57.9z"/>
	 						<path fill="#FFFFFF" d="M132.8,57.8c0.4,0.1,0.3-0.8,0.6-1.1C132.5,56.5,132.3,57.6,132.8,57.8z"/>
	 						<path fill="#FFFFFF" d="M154.9,100.3c3.1,0.7,10,2.6,10,5.5c0,1.3-2.2,2-3.3,2.3c4.9-0.2,10.2-0.4,14.7-0.8
	 							c-0.1-0.7-0.8-1-0.8-1c-2.8,0.3-6.1,0.5-6.1,0.5c0.7-4.4-6.8-6.1-10.7-6.7C157.7,100.2,156.4,100.2,154.9,100.3z"/>
	 						<path fill="#FFFFFF" d="M183.6,168.6c2.6-1.2,3.9,0.7,3.4,1.9c0,0,1.7-2,0.5-3.6l-7.4-9.9c-0.4-0.5-1.6-1.1-3.4-0.1
	 							c-3.4,1.9-12.8,7.3-35.1,7.3c-22.3,0-31.7-5.4-35.1-7.3c-1.8-1-3-0.4-3.4,0.1l-7.4,9.9c-1.2,1.6,0.5,3.6,0.5,3.6
	 							c-0.5-1.2,0.8-3.1,3.4-1.9c8.8,4.1,22.2,8,42,8C161.4,176.6,174.9,172.7,183.6,168.6z M97.6,166.8l6.7-8.9
	 							c1-1.4,8.4,7.7,37.4,7.7c29,0,36.4-9.1,37.4-7.7l6.7,8.9c-3.3-0.6-13.3,8.4-44.1,8.4C110.9,175.2,100.9,166.2,97.6,166.8z"/>
	 						<path fill="#FFFFFF" d="M94,185.2l8.1-6.4c1.7-1.4-0.4-3.8-0.4-3.8s0.7,2.1-2.2,2.1c-2.7,0-7.4-4.8-29.5-11.6v10.7
	 							c18.7,6.6,19.6,9.4,22.3,9.4C93.5,185.6,94,185.2,94,185.2z M71.5,167.4c20.7,6.4,25,11.5,28.7,11.1l-7,5.6
	 							c-1.6,1.3-3.9-2.8-21.7-8.9V167.4z"/>
	 						<path fill="#FFFFFF" d="M181.1,178.8l8.1,6.4c0,0,0.5,0.4,1.6,0.4c2.7,0,3.6-2.9,22.3-9.4v-10.7c-22,6.8-26.7,11.6-29.5,11.6
	 							c-2.8,0-2.2-2.1-2.2-2.1S179.4,177.4,181.1,178.8z M211.7,167.4v7.7c-17.8,6.1-20.1,10.2-21.7,8.9l-7-5.6
	 							C186.7,178.9,191,173.8,211.7,167.4z"/>
	 						<path fill="#FFFFFF" d="M189.8,127.1l0.8-3.1h1.4c2.6,0,5.1-1.2,5.6-3.2c0.5-1.9-1.3-3.2-3.9-3.2h-4.7l-2.4,9.4H189.8z
	 							 M191.6,119.9h1.8c0.5,0,0.8,0.4,0.7,0.9c-0.1,0.5-0.7,1-1.2,1h-1.8L191.6,119.9z"/>
	 						<path fill="#FFFFFF" d="M116.5,127.1h3.4l1.5-5.8l2.3,5.8h3.6l2.4-9.4h-3.4L125,123l-2.1-5.3h-5.1c0,0,0.9,0.8,0.6,2.2
	 							L116.5,127.1z"/>
	 						<polygon fill="#FFFFFF" points="128.7,127.1 136.7,127.1 138,124.9 132.7,124.9 134.5,117.7 131.1,117.7 						"/>
	 						<path fill="#FFFFFF" d="M138,127.1h8.4l1.3-2.2H142l0.3-1.3h4.5l0.6-2.2h-4.5l0.4-1.5h4.8l0.5-1.9l2.4,5.3l-1,3.8h3.4l1-3.8
	 							l5.7-5.6h-3.6l-3.3,3.4l-1.5-3.4h-12.4c0,0,0.9,0.8,0.6,2.2L138,127.1z"/>
	 						<path fill="#FFFFFF" d="M108.1,127.1l1.2-2.2h3.2l0.2,2.2h3.6l-1.4-9.4h-4.3l-6.1,9.4H108.1z M112.1,119.9l0.2,3h-1.9
	 							L112.1,119.9z"/>
	 						<polygon fill="#FFFFFF" points="101.2,119.9 99.3,127.1 102.7,127.1 104.5,119.9 107.5,119.9 108.6,117.7 98.7,117.7 
	 							97.6,119.9 						"/>
	 						<path fill="#FFFFFF" d="M179.7,127.3c3,0,5.5-0.7,6.3-3.7l1.5-5.9h-3.4l-1.5,5.9c-0.3,1.1-1.3,1.4-2.4,1.4
	 							c-1.1,0-1.9-0.3-1.6-1.4l1.5-5.9h-3.4l-1.5,5.9C174.5,126.6,176.7,127.3,179.7,127.3z"/>
	 						<path fill="#FFFFFF" d="M172.1,118.3c1.7,0,2.7,0.3,2.7,0.3l1.3-2.2c0,0-1.3-0.5-3.6-0.5c-6.5,0-9.2,3.1-10,6.2
	 							c-0.7,2.6,1.1,6.2,7.1,6.2c2.7,0,4.4-0.6,4.4-0.6l-0.3-2.3c0,0-1.2,0.4-3.2,0.4c-4.1,0-4.4-2.6-4.1-3.8
	 							C166.9,120.2,168.5,118.3,172.1,118.3z"/>
	 						<path fill="#FFFFFF" d="M97,125c1-4.1-5.9-3.9-5.4-5.8c0.1-0.5,1-0.9,2.4-0.9c1.8,0,3,0.6,3,0.6l1.2-2.3c0,0-1.4-0.6-3.8-0.6
	 							c-4.1,0-6.1,1.7-6.5,3.1c-1,4.1,5.9,3.8,5.4,5.8c-0.2,0.7-1.3,1.1-2.4,1.1c-2.3,0-3.8-0.8-3.8-0.8l-1.3,2.3
	 							c0,0,1.5,0.9,4.8,0.9C93.7,128.3,96.4,127.1,97,125z"/>
	 						<path fill="#FFFFFF" d="M177.2,146.2c0.2,2.8,2,4.3,5.3,4.3c3,0,5.4-1.3,7.1-3.7l4.2,0.1l1.1,0c0.8-1.3,1.3-2.7,1.7-4.3
	 							c1.5-5.9-0.1-10.7-9.4-10.7c-9.3,0-13.4,4.8-14.9,10.7c-0.3,1.1-0.4,2.1-0.5,3.1l1.1,0.1L177.2,146.2z M186.5,135
	 							c4.4,0,6.2,2.8,4.9,7.8h-1.1c-0.9,3.7-3.1,6.7-7.5,6.7c-4.3,0-5-3-4.1-6.7h-1.1C178.9,137.8,182,135,186.5,135z"/>
	 						<path fill="#FFFFFF" d="M231.2,147.4c-0.3,1.2-2.3,2-3.8,2c-3.5,0-6-1.8-6-1.8l-2.2,4.3l1.5-0.6c0.3-0.7,0.6-1.2,1.1-2.1
	 							c1.1,0.6,3.1,1.3,5.4,1.3c2.1,0,4.7-1.3,5.2-3.1c0.2-0.6,0-1.1-0.3-1.6l4.3-0.5c0.2,0.7,0.3,1.4,0,2.4h1.1
	 							c1.8-7-9.1-7-8.4-9.7H228c0.4-1.4,2.6-3,5.5-3c1.6,0,2.8,0.4,3.7,0.8l0.3,1.7l2.1-4.4c0,0-2-1-6.3-1c-4.9,0-9.6,2-10.5,5.7
	 							C221,144.6,232,144.5,231.2,147.4z"/>
	 						<path fill="#FFFFFF" d="M56.5,150.6c1.6,0,2.9-0.2,3.8-0.4c-0.2,0.8-0.3,1.2-0.5,1.9l0.9,0.9l1.1-4.2c0,0-2,0.8-5.1,0.8
	 							c-3,0-7.7-1.6-6.4-6.7c0.3-1.1,0.8-2,1.4-2.8l-1.3,0.2c-0.5,0.8-0.9,1.7-1.1,2.6C47.8,148.5,52.8,150.6,56.5,150.6z"/>
	 						<path fill="#FFFFFF" d="M50.4,140.1c2.3-3.7,7-5.1,10.1-5.1c1.6,0,2.8,0.2,3.6,0.4l0.7,1.5l1.1-4.2c0,0-2.5-0.6-5.3-0.6
	 							c-8.4,0-13.8,4.3-15.9,8.8l1.2-0.2L50.4,140.1z"/>
	 						<path fill="#FFFFFF" d="M71.4,143.7c0,0-1.7,6.7-2.1,8.4l0.8,1.1l2.1-8.4L71.4,143.7z"/>
	 						<path fill="#FFFFFF" d="M65.1,152.1c0.3-1.3,2.2-8.5,3.4-13.1l4.2-0.1l-0.8,3h10.3l0.8-3l4.1,0.1c-1.4,5.5-3.1,12.1-3.4,13.2
	 							l0.8,1.1l5.3-20.7h-6.4c0.5,0.6,0.8,1.4,0.5,2.5l-0.8,3.2H82l-0.7,2.6h-8.1l2.1-8.4H69c0.5,0.6,0.8,1.4,0.5,2.5
	 							c0,0-0.3,1.3-0.8,3.2h-1.1l-3.8,15L65.1,152.1z"/>
	 						<path fill="#FFFFFF" d="M80.3,144.8l-2.1,8.4l1.4-1.1c0.4-1.6,2.1-8.4,2.1-8.4L80.3,144.8z"/>
	 						<path fill="#FFFFFF" d="M96.2,138.1H95l-9,15l1.8-1.1c1-1.6,5.1-8.4,7.8-12.9l3.4,0.2l-3.3,6h7.7l-0.3-5.7l3.5,0.2
	 							c0.4,4.9,1,10.9,1.1,12.3l1.3,1.1l-1.9-20.7h-8.8c0.4,0.6,0.5,1.6-0.2,2.9C97.9,135.3,97.2,136.4,96.2,138.1z M102.1,144.2
	 							h-4.8l4.4-7.8L102.1,144.2z"/>
	 						<path fill="#FFFFFF" d="M102.5,153.1l1.1-1.1c-0.1-1.1-0.2-4.9-0.2-4.9l-1.1,1.1L102.5,153.1z"/>
	 						<path fill="#FFFFFF" d="M92.3,153.1l2.7-4.9l-0.6-1.1c0,0-2.1,3.8-2.7,4.9L92.3,153.1z"/>
	 						<path fill="#FFFFFF" d="M115.3,138.1h-1.1l-3.8,15l1.4-1.1c0.3-1.1,1.8-7.1,3-11.6l4,0.4c-1,3.8-2.6,10-2.9,11.2l0.8,1.1
	 							l4-15.4l0.4,15.4l1.1-1.1c0-0.9-0.2-6.9-0.2-10.9l2.7,0.3l0.5,8.2c0,0,2.2-3.8,4.4-7.7l2.6,0.3c-2.1,3.9-4.8,9-5.3,9.9
	 							l0.6,1.1l8.3-15.4l-4,15.4l1.4-1.1c0.3-1.1,1.5-5.8,2.4-9.5l4,0.4c-1.1,4.1-2.1,8.2-2.3,9.1l0.8,1.1l5.3-20.7h-9.6l-7.8,13.5
	 							l-0.8-13.5h-9.6c0.5,0.6,0.8,1.4,0.5,2.5C116.1,135,115.8,136.3,115.3,138.1z"/>
	 						<path fill="#FFFFFF" d="M167.6,153.1l5.3-20.7h-6.4c0.5,0.6,0.8,1.4,0.5,2.5c0,0-0.3,1.3-0.8,3.2H165l-3.8,15l1.4-1.1
	 							c0.2-0.8,0.9-3.6,1.7-6.7l4.1,0.3c-0.8,3.1-1.5,5.7-1.6,6.4L167.6,153.1z"/>
	 						<path fill="#FFFFFF" d="M147.2,153.1l1.8-7.2l-0.8-1.1c0,0-1.4,5.7-1.8,7.2L147.2,153.1z"/>
	 						<path fill="#FFFFFF" d="M157.6,132.4h-11.5c0.5,0.6,0.8,1.4,0.5,2.5c0,0-0.3,1.3-0.8,3.2h-1.1l-3.8,15l1.4-1.1
	 							c0.2-0.9,1.2-4.9,2.2-8.7l11.7,1.3c2.6-0.7,4.9-2.9,5.6-5.4h1.1C163.7,135.4,161.4,132.4,157.6,132.4z M157.5,139.2h-1.1
	 							c-0.4,1.5-2,2.8-3.5,2.8H150l1.4-5.5l-0.8-1.1h4C156.7,135.3,158.1,137.1,157.5,139.2z"/>
	 						<path fill="#FFFFFF" d="M197.3,152.1c0.2-0.6,0.7-2.6,1.3-5l4.1,0c-0.6,2.3-1.1,4.3-1.3,4.9l0.8,1.1l3-11.6l5.1,11.6l0.9-1.1
	 							c-0.1-0.3-1.1-2.4-2.2-4.9l3.6-0.1l0.2,0.5l0.1-0.5l4.2-0.1c-0.6,2.5-1.2,4.6-1.3,5.2l0.8,1.1l5.3-20.7h-6.4
	 							c0.5,0.6,0.8,1.4,0.5,2.5l-0.8,3.2h-1.1l-1.5,5.9l-5.1-11.6h-6.4c0.5,0.6,0.8,1.4,0.5,2.5c0,0-0.3,1.3-0.8,3.2h-1.1l-3.8,15
	 							L197.3,152.1z"/>
	 					</g>
	 					<g>
	 						<path fill="#C3C6C8" d="M233.3,126.5c-1.3,0-2.6,0.1-3.8,0.3h-29.3c1.4-1.2,2.3-2.7,2.8-4.5c1.4-5.3-2.8-10.2-9.4-10.2h-13.2
	 							c0,0,0,0-0.1,0l0-2.8c1-3-1.1-5.2-1.1-5.2c-1.4-5.3-7.3-7.3-10-8c-0.5-1.5-1.4-2.6-2.3-3.3c0.4-1-0.4-2.5-0.4-2.5v-6.1
	 							c0-2.2-1.4-3.8-2.7-4.8c0.1-0.5,0.2-1.2,0.2-1.9v-7.2c0-1.9-1.5-3.5-2.6-4.5l0-3.9l-0.6-2.3c0.2-3.2-3.2-5.2-3.2-5.2
	 							c6.2-3.2,12-9.2,12.1-23.3c0.2-0.4,0.4-1.1,0.4-1.9v-1.7c0-1.9,0-7.7-28.5-7.7c-28.5,0-28.5,5.8-28.5,7.7v1.7
	 							c0,0.8,0.2,1.4,0.4,1.9c0.1,14.1,6,20.1,12.1,23.3c0,0-3.4,1.9-3.2,5.2l-0.6,2.3l0,3.9c-1.1,0.9-2.6,2.6-2.6,4.5v7.2
	 							c0,0.8,0.1,1.4,0.2,1.9c-1.2,1-2.7,2.6-2.7,4.8v6.1c0,0-0.8,1.5-0.4,2.5c-0.9,0.7-1.8,1.8-2.3,3.3c-2.6,0.6-8.5,2.6-10,8
	 							c0,0-2.1,2.1-1.1,5.2l0,2.8h-1c-1.1-0.6-4-1.8-7.6-1.8c-7.4,0-11,3.9-11.9,7.3c-0.4,1.5-0.4,2.9-0.1,4.2l-2.7,4.9H64.8
	 							c-1.4-0.2-2.9-0.3-4.2-0.3c-12.6,0-20.1,7.5-22,14.9c-2,8,2.4,17.7,16.6,17.7c1.4,0,2.9-0.1,4.5-0.3h4.9v22.8
	 							c20.9,6.8,22.7,11,27.9,11c3,0,4.8-1.4,5-1.5l1.8-1.5v0.9c-0.2,0.5-0.4,1.2-0.4,2v2.1c0,9.4,25.6,12.9,42.8,12.9
	 							c17.2,0,42.8-3.4,42.8-12.9v-2.1c0-0.9-0.2-1.6-0.4-2v-0.9l1.8,1.5c0.2,0.2,2,1.5,5,1.5c5.2,0,7-4.3,27.9-11v-22.8h3.6
	 							c1.4,0.2,2.9,0.3,4.5,0.3c8.4,0,14.6-3.8,16.2-10c0.8-2.9,0.4-5.7-1-8l5-10.3C246.9,130.8,241.8,126.5,233.3,126.5z
	 							 M241,148.6c-1.3,5.2-6.8,8.5-14.2,8.5c-1.7,0-3.1-0.1-4.3-0.3h-38.2l6.1,8.1c1.8,2.4,0.9,5.1,0.9,5.1
	 							c9-4.4,25.4-9.2,25.4-9.2V180c-19.8,6.5-21.3,10.5-25.9,10.5c-2.3,0-3.7-1.1-3.7-1.1l-7.8-6.2l0,1.7c0,0,2.6,1.6,2.6,3.7v2.3
	 							c0,0,0.4,0.6,0.4,1.6c0,6-19,10.8-40.8,10.8c-21.8,0-40.8-4.8-40.8-10.8c0-1,0.4-1.6,0.4-1.6v-2.3c0-2.2,2.6-3.7,2.6-3.7
	 							l0-1.7l-7.8,6.2c0,0-1.3,1.1-3.7,1.1c-4.5,0-6.1-3.9-25.8-10.5v-19.3c0,0,16.4,4.8,25.4,9.2c0,0-1-2.6,0.9-5.1l6.1-8.1H59.5
	 							c-1.2,0.2-2.8,0.3-4.4,0.3c-12.4,0-16.4-8.1-14.6-15.2c1.7-6.6,8.5-13.4,20.1-13.4c1.5,0,2.9,0.1,4,0.3l16.1,0l3.8-6.8
	 							c-0.4-1.1-0.6-2.3-0.2-3.9c0.7-2.7,3.7-5.8,9.9-5.8c4.2,0,7.1,1.8,7.1,1.8h3.6l0.1-5.1c-0.9-2.5,0.8-3.8,0.8-3.8
	 							c1-6,9.8-7.3,9.8-7.3c0.5-3.2,3.2-4.3,3.2-4.3c-1.2-1.3,0-2.9,0-2.9v-6.5c0-2.4,3.1-4,3.1-4s-0.7-0.6-0.7-2.7v-7.2
	 							c0-1.7,2.6-3.5,2.6-3.5l0-4.6l0.6-2.4c-0.5-3.4,5.9-5.3,5.9-5.3l-0.3-0.4c-6.1-2.3-14.5-6.7-14.5-23.4c0,0-0.4-0.6-0.4-1.4
	 							v-1.7c0-3.9,11.8-5.7,26.5-5.7s26.5,1.8,26.5,5.7v1.7c0,0.8-0.4,1.4-0.4,1.4c0,16.7-8.4,21.2-14.5,23.4l-0.3,0.4
	 							c0,0,6.4,1.9,5.9,5.3l0.6,2.4l0,4.6c0,0,2.6,1.8,2.6,3.5v7.2c0,2.1-0.6,2.7-0.6,2.7s3.1,1.6,3.1,4v6.5c0,0,1.2,1.6,0,2.9
	 							c0,0,2.7,1,3.2,4.3c0,0,8.8,1.3,9.8,7.3c0,0,1.7,1.3,0.8,3.8l0.1,4.4c1,0.4,1.6,0.7,1.6,0.7h13.7c5.8,0,8.3,3.9,7.4,7.6
	 							c-0.8,3.1-3.8,5.3-7.6,5.8l-0.3,1.3h36.7c1.1-0.2,2.3-0.3,3.6-0.3c6.7,0,11,3,11,3l-4.7,9.8C241,143.1,241.8,145.4,241,148.6z
	 							"/>
	 						<path fill="#C3C6C8" d="M133.3,59.7V61c0.7,0,1.4-0.1,2.2-0.1v-1.3C134.6,59.6,133.9,59.6,133.3,59.7z"/>
	 						<path fill="#C3C6C8" d="M149.2,60.1v-0.5c-2-0.1-4.5-0.2-7.6-0.2c-1.6,0-3,0-4.3,0.1v1.3c1.3,0,2.7-0.1,4.3-0.1
	 							c3.1,0,5.6,0.1,7.6,0.2V60.1z"/>
	 						<path fill="#C3C6C8" d="M131.1,64.1l0,2.8c1.2-0.1,2.6-0.1,4.2-0.2v-4.4c0-0.3,0.1-0.6,0.2-0.7c-0.9,0-1.8,0.1-2.6,0.2
	 							C132.5,61.9,131.1,62.7,131.1,64.1z"/>
	 						<path fill="#C3C6C8" d="M137.5,61.5c-0.1,0.1-0.2,0.4-0.2,0.6v4.5c1.3,0,2.7,0,4.3,0c3.1,0,5.6,0,7.6,0.1v-5.1
	 							c-2.1-0.1-4.6-0.2-7.6-0.2C140.1,61.4,138.8,61.5,137.5,61.5z"/>
	 						<path fill="#C3C6C8" d="M135.3,67.5c-1.5,0-2.8,0.1-3.9,0.1c-1.8,0.6-2.6,2-2.7,2.3c1.5-0.1,3.5-0.2,5.8-0.2
	 							C134.6,69.5,134.8,68.6,135.3,67.5z"/>
	 						<path fill="#C3C6C8" d="M149.4,67.6c-2.1-0.1-4.6-0.1-7.8-0.1c-1.6,0-3.1,0-4.4,0c-0.6,1.1-0.7,1.9-0.8,2.2c1.6,0,3.3,0,5.2,0
	 							c4.2,0,7.5,0.1,10.1,0.2C151.4,68.6,150,67.8,149.4,67.6z"/>
	 						<path fill="#C3C6C8" d="M134.5,70.4c-2.4,0.1-4.4,0.1-6,0.2v6.6c1.5-0.1,3.5-0.1,6-0.2V70.4z"/>
	 						<path fill="#C3C6C8" d="M136.4,70.4v6.7c1.6,0,3.3,0,5.3,0c4.3,0,7.7,0,10.2,0.1v-6.7c-2.6-0.1-6-0.2-10.2-0.2
	 							C139.7,70.4,138,70.4,136.4,70.4z"/>
	 						<path fill="#C3C6C8" d="M134.8,78.4c-2.2,0.1-4.3,0.2-6,0.3c2.2,3.1-1.2,3.3-1.3,6.1c1.8,0,3.9-0.1,6.3-0.1
	 							C133.6,81.3,136.2,81.1,134.8,78.4z"/>
	 						<path fill="#C3C6C8" d="M151.8,78.5c-3-0.1-6.5-0.2-10.1-0.2c-1.7,0-3.4,0-5.1,0.1c1.5,2.8-1.2,2.9-1,6.3c1.9,0,3.9,0,6,0
	 							c4.4,0,8.1,0,11.2,0.1C152.7,81,148.6,80.7,151.8,78.5z"/>
	 						<path fill="#C3C6C8" d="M133.8,85.6c-2.3,0-4.5,0-6.3,0v5.9c1.8,0,3.9,0,6.3-0.1V85.6z"/>
	 						<path fill="#C3C6C8" d="M152.8,91.5v-5.9c-3.2,0-7.1,0-11.2,0c-2.1,0-4.1,0-6,0v5.9c1.9,0,3.9,0,6,0
	 							C145.9,91.5,149.7,91.5,152.8,91.5z"/>
	 						<path fill="#C3C6C8" d="M132.8,98.9c-0.4-3.5,2.7-3.3,1.2-6.1c-1.8,0-3.4,0-4.8,0c2.4,2.3-2.5,3.5-1.7,6
	 							C129,98.8,130.8,98.9,132.8,98.9z"/>
	 						<path fill="#C3C6C8" d="M135.9,92.8c1.6,2.8-1.5,2.7-1.2,6.2c2.1,0,4.4,0,6.9,0c6.2,0,10.9-0.1,14.4-0.1
	 							c0.9-3.2-4.2-2.8-1.4-6c-3.1,0-7.4-0.1-13.1-0.1C139.5,92.7,137.6,92.7,135.9,92.8z"/>
	 						<path fill="#C3C6C8" d="M141.6,53.8c-1,0-2,0-2.9,0.1c0.3,1.2-0.1,2.3-0.1,2.3l-0.2,0c-0.6-0.5-1.4-0.1-1.5,0.1h-0.1
	 							c0,0,0.5-0.9,0.3-2.3c-0.4,0-0.7,0.1-1.1,0.1c0.2,1.4-0.4,2-0.4,2c-0.7-0.1-1.2,0.4-1.2,0.4l-0.4,0.1
	 							c-0.4,0.5-0.4,0.9-0.4,1.4l0.4,0c0,0,0.1,0.5,0.6,0.7l-1.3,0.1v0.3c0.7-0.1,1.4-0.1,2.2-0.2v-0.3c0.1-0.1,0.5-0.3,0.5-0.8
	 							l0.4,0c0,0,0.1,0.5,0.6,0.7c0,0,0.2,0.1,0.4,0.1v0.2c1.3,0,2.7-0.1,4.3-0.1c3.1,0,5.6,0.1,7.6,0.3v-0.3l-0.5,0
	 							c0.5-0.2,0.6-0.7,0.6-0.7l0.4,0c0,0.6,0.3,0.8,0.3,0.8s0.3,0.3,0.9,0.1c0.2-0.1,0.3-0.2,0.4-0.3c0.5-0.8-0.3-2.3-1.8-2.1
	 							c-0.2,0.1-0.3,0.1-0.3,0.1l-0.4-0.1c-0.5-0.6-1.3-0.4-1.3-0.4s-0.8-1-0.5-2.1C145.6,53.9,143.7,53.8,141.6,53.8z M134.4,56.8
	 							c0,1.5,0.9,1.4,1.1,1.4C135,59,133.5,58.4,134.4,56.8z M135,57.7c-0.5-0.1-0.4-1.7,0.6-1.2C135.4,56.8,135.6,57.8,135,57.7z
	 							 M150.6,56.7c0.4,0,1.2,1.4,0.5,1.5C150.4,58.4,150.2,56.7,150.6,56.7z M150.2,57.1c0.1,1.5,0.8,1.4,1.1,1.3
	 							C150.9,59.1,149.5,58.7,150.2,57.1z M146,56.2c0.5,0,1.2,1.6,0.5,1.6C145.6,57.8,145.3,56.2,146,56.2z M143.1,56
	 							c0.9,0,1.3,1.6,0.6,1.6C142.9,57.6,142.7,56,143.1,56z M137.8,56.3c-0.2,0.4,0.4,1.4-0.2,1.4
	 							C136.8,57.8,136.9,55.6,137.8,56.3z M136.7,56.7c0.1,1.5,1,1.4,1.2,1.4C137.5,58.8,136,58.3,136.7,56.7z M137.9,58.5
	 							c0,0,0.4-0.2,0.5-0.8l0.5,0c0,0,0.1,0.5,0.6,0.8L137.9,58.5z M139.4,56.6c0.1,1.6,1,1.5,1.2,1.4
	 							C140.3,58.9,138.7,58.3,139.4,56.6z M140.4,57.6c-0.9,0.3-1.2-2.2,0-1.5C140.3,56.5,141.1,57.4,140.4,57.6z M140.8,58.5
	 							c0,0,0.4-0.2,0.5-0.8h0.8c0.1,0.6,0.5,0.8,0.5,0.8H140.8z M142.7,56.6c0.1,1.6,0.9,1.4,1.1,1.4
	 							C143.5,58.7,141.9,58.2,142.7,56.6z M143.7,58.5c0.5-0.2,0.6-0.8,0.6-0.8l0.5,0c0.1,0.6,0.5,0.8,0.5,0.8L143.7,58.5z
	 							 M145.4,56.6c0.1,1.6,0.9,1.4,1.1,1.4C146.2,58.8,144.7,58.3,145.4,56.6z M148.3,56.4c0.5-0.1,1.2,1.5,0.5,1.5
	 							C148,57.9,147.8,56.4,148.3,56.4z M147.9,56.9c0.1,1.5,0.9,1.3,1.1,1.3C148.6,58.9,147.2,58.4,147.9,56.9z M147.3,57.8
	 							c0,0.5,0.4,0.7,0.5,0.8l-1.5-0.1c0.5-0.2,0.6-0.7,0.6-0.7L147.3,57.8z"/>
	 						<path fill="#C3C6C8" d="M136.6,51.3c-0.5,0-0.9,0.1-1.3,0.2V52c0.4-0.1,0.8-0.1,1.3-0.2V51.3z"/>
	 						<path fill="#C3C6C8" d="M138.2,51.7c1-0.1,2.1-0.1,3.4-0.1c2.1,0,3.8,0.1,5.1,0.2v-0.5c-1.4-0.1-3.1-0.2-5.1-0.2
	 							c-1.2,0-2.4,0-3.4,0.1V51.7z"/>
	 						<path fill="#C3C6C8" d="M139.9,24.1c-5.5,0.1-9.8,0.3-13.1,0.8l0.1,1.2c3.2-0.4,7.4-0.7,12.8-0.7
	 							C139.8,24.9,139.8,24.5,139.9,24.1z"/>
	 						<path fill="#C3C6C8" d="M158.4,26.4c0-0.4,0-0.8,0-1.2c-1.1-0.2-2.3-0.3-3.7-0.5c0.1,0.4,0.1,0.8,0.2,1.3
	 							C156.2,26.1,157.4,26.2,158.4,26.4z"/>
	 						<path fill="#C3C6C8" d="M164.8,26.8c-0.6-0.3-1.5-0.6-2.6-0.9c0,0.4,0,0.8,0,1.2c1.2,0.3,2,0.6,2.7,0.9
	 							C164.7,27.6,164.8,27.2,164.8,26.8z"/>
	 						<path fill="#C3C6C8" d="M164.6,30.7c0-0.6,0.1-1.3,0.1-2c-0.6-0.3-1.5-0.6-2.7-0.9c0,0.8-0.1,1.5-0.1,1.8c0,0,0.1,0,0.1,0
	 							C163.1,29.7,164,30.1,164.6,30.7z"/>
	 						<path fill="#C3C6C8" d="M154.9,28.8c1.6,0.2,2.7,0.9,3.5,1.5c0-0.5,0-1.6,0-3.2c-1.1-0.2-2.2-0.3-3.6-0.5
	 							C154.9,27.4,154.9,28.1,154.9,28.8z"/>
	 						<path fill="#C3C6C8" d="M135,30.7c0.7-0.6,2.2-1.6,4.5-2.1c0-0.8,0.1-1.7,0.1-2.6c-5.3,0.1-9.5,0.3-12.6,0.7l0.2,2.2
	 							c0.7-0.2,1.5-0.4,2.5-0.4C132.5,28.7,134.2,30,135,30.7z"/>
	 						<path fill="#C3C6C8" d="M161.2,40.6c0.5,0,0.4-1.7,1.4-1.7c1,0,0.6,1.6,0.6,1.6s0.9-3.7,1.3-8.9c-0.6-0.7-1.4-1.3-2.5-1.3
	 							c-0.2,0-0.5,0-0.7,0.1c0,5.2-1,7.9-1.4,8.8c0,0,0.1,0,0.1,0C161.3,39.2,160.5,40.6,161.2,40.6z"/>
	 						<path fill="#C3C6C8" d="M155.7,35.6c1.8,0-0.2,3,0.9,3.4c0.3-0.7,1.4-3.4,1.4-8.2c-0.7-0.5-1.7-1.1-3.1-1.3
	 							c-0.1,3.2-0.6,6-0.8,7c0,0,0.1,0,0.1,0C155.1,36.4,154.8,35.6,155.7,35.6z"/>
	 						<path fill="#C3C6C8" d="M131.8,36.1c1.6,0,0.3,2.5,2.1,2.5c1.1,0,0.7-1.1,2-1.1c1.8,0,1.1,2.1,2.3,2.1c1,0,0.5-1.4,1.8-1.4
	 							c0.5,0,0.8,0.2,1,0.5c-0.5-1.6-1.4-5.2-1.5-9.5c-3,0.6-4.5,2.3-4.5,2.3s-1.6-2.3-5.3-2.3c-0.9,0-1.7,0.2-2.4,0.4l0.5,5.1
	 							c0.1-0.1,0.3-0.2,0.6-0.2c1.6,0,0.3,2.3,2.1,2.3C131.1,36.9,130.9,36.1,131.8,36.1z"/>
	 						<path fill="#C3C6C8" d="M169.7,112.6c0.2-0.8,0.1-1.6-0.6-2.6c-3.6,0-7.4-0.5-7.4-0.5c11.1-0.4,14.5-1,14.5-1
	 							c0.3-0.5,0.3-0.9,0.3-1.2c-4.6,0.4-9.8,0.7-14.7,0.8c1.1-0.3,3.3-1,3.3-2.3c0-3-7-4.9-10-5.5c-3.3,0.1-7.7,0.1-13.3,0.1
	 							c-7.1,0-12.1-0.1-15.7-0.1c-1.7,0.3-8.7,1.7-8.8,7c0.8,0,1.6,0.1,2.5,0.1c0,0-0.7,0.2-2.5,0.3v1.6c1.3,0.1,2.8,0.1,4.5,0.2
	 							c0,0-2,0.2-4.5,0.4v4.3h47.4C165.9,113.4,167.6,112.8,169.7,112.6z"/>
	 						<path fill="#C3C6C8" d="M177.3,186l-0.1-9.6c-2.1,0.8-14.9,5.1-35.6,5.1c-15.1,0-25.9-2.3-31.5-3.9l-0.2,10.3
	 							c0,1.7,1.2,2.7,1.2,2.7s-3.8-0.9-3.8-3.6l0.2-10.1c-0.7-0.2-1.2-0.4-1.5-0.5l-0.1,9.6c-3.1,3.1,5.6,9.7,35.7,9.7
	 							C171.8,195.7,180.4,189,177.3,186z"/>
	 						<path fill="#C3C6C8" d="M102.6,188.3c0-0.9,0.4-1.7,1.1-2.5c-1,0.9-1.6,1.8-1.6,2.8c0,2.5,3.7,4.8,9.8,6.5
	 							C106.1,193.3,102.6,190.9,102.6,188.3z"/>
	 						<path fill="#C3C6C8" d="M171.4,195.1c6.1-1.7,9.8-4,9.8-6.5c0-1-0.6-1.9-1.6-2.8c0.7,0.8,1.1,1.6,1.1,2.5
	 							C180.7,190.9,177.2,193.3,171.4,195.1z"/>
	 					</g>
	 					<g>
	 						<path fill="#A4A9AD" d="M130.5,60.9c-1.3,0.2-2.2,0.3-2.8,0.5v-0.9c-1.3,0.4-1.5,0.6-1.5,0.6v1c0,0,1.3-0.8,7-1.2v-1.3
	 							c-1.1,0.1-2,0.2-2.7,0.3V60.9z"/>
	 						<path fill="#A4A9AD" d="M152.1,61.2c3.9,0.4,4.9,1,4.9,1v-1c0,0-0.5-0.7-4.9-1.3V61.2z"/>
	 						<path fill="#A4A9AD" d="M129.4,62.8l0,3.5c-0.9,0.1-1.6,0.2-2.1,0.2l0-4c-0.9,0.2-1.4,0.5-1.4,0.7l0,4.3c0,0,1-0.4,5.2-0.6
	 							l0-2.8c0-1.3,1.4-2.1,1.9-2.4c-1.2,0.1-2.2,0.2-3,0.3C129.8,62.1,129.4,62.4,129.4,62.8z"/>
	 						<path fill="#A4A9AD" d="M157.4,63.2c0-0.4-1.6-1-5.2-1.3v5c4.3,0.3,5.3,0.6,5.3,0.6L157.4,63.2z"/>
	 						<path fill="#A4A9AD" d="M127.7,69.4c-0.9,0.1-1.7,0.1-2.3,0.2c0.3-0.2,1-0.9,2-1.6c-1.2,0.1-1.6,0.2-1.6,0.2s-2,1-2.8,2.4
	 							c0,0,1.3-0.3,5.7-0.6c0.1-0.3,0.9-1.7,2.7-2.3c-0.7,0-1.3,0.1-1.8,0.1C128.6,68.5,128,69.1,127.7,69.4z"/>
	 						<path fill="#A4A9AD" d="M154.9,70c4.1,0.2,5.4,0.5,5.4,0.5c-0.8-1.4-2.8-2.4-2.8-2.4s-1-0.3-5-0.5
	 							C153,67.9,154.4,68.7,154.9,70z"/>
	 						<path fill="#A4A9AD" d="M123.3,71v6.7c0,0,0.9-0.2,5.2-0.4v-6.6c-0.6,0-1.1,0.1-1.6,0.1v5.9l-2.3,0.2v-6
	 							C123.7,71,123.3,71,123.3,71z"/>
	 						<path fill="#A4A9AD" d="M160,77.7V71c0,0-1.5-0.2-5-0.4v6.6C159.1,77.5,160,77.7,160,77.7z"/>
	 						<path fill="#A4A9AD" d="M120.9,84.9c0,0,2.3-0.1,6.6-0.2c0.1-2.8,3.5-3,1.3-6.1c-0.5,0-1,0.1-1.4,0.1c1.8,3.8-1.7,3.5-2.2,5.3
	 							l-2.8,0.1c0.4-2.2,4.7-2,2.9-5.3c-0.9,0.1-1.4,0.1-1.4,0.1C125.9,82.4,120.9,81.3,120.9,84.9z"/>
	 						<path fill="#A4A9AD" d="M162.4,84.9c0-3.6-5-2.5-3-6c0,0-1.8-0.2-4.7-0.3c-3.2,2.4,1.4,2.5,1.5,6.1
	 							C160.3,84.8,162.4,84.9,162.4,84.9z"/>
	 						<path fill="#A4A9AD" d="M120.9,85.7v6c0,0,2.4-0.1,6.6-0.1v-5.9c-1,0-1.8,0-2.6,0v5.2l-2.7,0.1v-5.2
	 							C121.3,85.7,120.9,85.7,120.9,85.7z"/>
	 						<path fill="#A4A9AD" d="M162.4,85.7c0,0-2.4,0-6.2-0.1v5.9c3.9,0.1,6.2,0.1,6.2,0.1V85.7z"/>
	 						<path fill="#A4A9AD" d="M129.1,92.8c-1.4,0-2.6,0-3.6,0.1c1.4,3.6-4,2.1-4,5.1c-1.2,0-2.1-0.1-2.7-0.1c0-2.9,5.2-1.6,4-4.9
	 							c-1,0-1.5,0-1.5,0c1.4,3.5-4.1,1.3-3.9,5.4c0,0,2.5,0.2,9.9,0.4C126.6,96.3,131.5,95.1,129.1,92.8z"/>
	 						<path fill="#A4A9AD" d="M159.5,98.7c4.6-0.1,6.3-0.3,6.3-0.3c0.2-4.1-5.3-1.9-3.9-5.4c0,0-1.3-0.1-4.3-0.1
	 							C154.6,95.2,160,95.4,159.5,98.7z"/>
	 						<path fill="#A4A9AD" d="M148.4,52c2.2,0.4,3.1,0.8,3.1,0.8c0-0.5-1.1-1-3.1-1.3V52z"/>
	 						<path fill="#A4A9AD" d="M152.1,59.3c2.9,0.4,4.1,0.8,4.1,0.8l0.3-0.2c-0.8-0.3-2.1-0.5-2.1-0.5s0.4,0,0.5-0.4l0.2,0
	 							c0,0.7,0.9,0.7,0.9,0c0,0.5,0.5,0.7,0.6,0.2l0.1,0.1c0-3.2-8.2-2.3-6-5.5c0,0-3.3-0.9-9.1-0.9c-5.8,0-9.1,0.9-9.1,0.9
	 							c2.2,3.2-6,2.3-6,5.5l0.2-0.1c0.1,0.5,0.6,0.4,0.6-0.2c0,0.7,0.9,0.8,0.9-0.2l0.1,0c0,0,0,0.6,0.6,0.7c0,0-1.3,0.2-2.1,0.5
	 							l0.3,0.2c0,0,1.8-0.6,6.2-1v-0.3c0,0,0.4-0.2,0.4-0.8c0-0.5-0.1-0.9,0.4-1.4c0,0-0.3-0.3-0.9-0.2c0,0,1.1-1,0.6-2.1
	 							c0,0,0.5-0.1,1.2-0.2c0.3,1.2-0.6,2.3-0.6,2.3s0.5-0.5,1.2-0.4c0,0,0.6-0.7,0.4-2c0.3,0,0.7-0.1,1.1-0.1
	 							c0.5,0,1.1-0.1,1.6-0.1c0.9-0.1,1.9-0.1,2.9-0.1c2,0,4,0.1,5.4,0.3c0.7,0.1,1.3,0.1,1.7,0.2c-0.2,1.3,0.9,2.2,0.9,2.2
	 							c1.4-0.3,2.2,1.2,1.8,2.1c0.1-0.2,0.4-0.1,0.5,0c0.1,0.4,0.3,0.4,0.3,0.4V59.3z M156.1,58.9c0,0.2,0.3,0.3,0.4,0.2
	 							C156.5,59.4,156.1,59.3,156.1,58.9z M156,58c0.2,0,0.8,0.7,0.4,0.9C156.2,59.2,156,58.1,156,58z M155.2,58.5
	 							c0.3,0.8,0.6,0.6,0.7,0.3C155.9,59.6,155.2,59.4,155.2,58.5z M155.2,57.6c0.3,0,0.9,1,0.6,1.2C155.5,59,155,57.6,155.2,57.6z
	 							 M127.8,57.6c-0.5,1-0.1,1,0,0.8C127.7,60,126.7,59,127.8,57.6z M127.7,58.2c-0.1-0.1,0-0.7,0.5-0.8
	 							C128,57.7,127.9,58.4,127.7,58.2z M131.4,56.9c-0.3,0.3-0.3,1.1-0.7,1C130.3,57.7,130.6,56.7,131.4,56.9z M129.7,57.1
	 							c-0.4,0.3-0.4,1.1-0.7,0.9C128.8,57.9,128.9,57.1,129.7,57.1z M128.8,57.4c-0.3,1.2,0.2,1.1,0.5,0.9
	 							C129.1,59.7,127.4,59.1,128.8,57.4z M129.1,59.3c0.5-0.2,0.6-0.9,0.6-0.9l0.1,0c0,0,0,0.5,0.6,0.7L129.1,59.3z M130.5,57.1
	 							c-0.4,1.7,0.4,1.3,0.7,1.2C130.9,59.7,128.9,58.8,130.5,57.1z M131.1,59c0,0,0.4-0.1,0.3-0.8l0.3,0c0,0,0,0.5,0.5,0.7
	 							L131.1,59z M132.2,57c-0.1,1.5,0.8,1.2,1,1.2C132.8,59.3,131.2,58.6,132.2,57z M133.4,56.7c-0.3,0.3-0.2,1.3-0.6,1.1
	 							C132.3,57.6,132.5,56.5,133.4,56.7z M154,57.3c0.3,0,1.2,1.1,0.7,1.4C154.2,58.9,153.8,57.3,154,57.3z M153.8,57.7
	 							c0.3,1.4,0.9,1.1,1.1,1C154.8,59.4,153.6,59.2,153.8,57.7z M153.8,58.9c0.1,0.2,0.2,0.4,0.4,0.5l-1.3-0.2
	 							c0.2-0.1,0.4-0.2,0.5-0.3C153.4,58.7,153.7,58.7,153.8,58.9z M152.5,57c0.4,0,1.2,1.3,0.5,1.5C152.4,58.6,152.2,56.9,152.5,57
	 							z M152.2,57.3c0.1,1.7,0.8,1.4,1.1,1.3C152.9,59.3,151.5,58.9,152.2,57.3z"/>
	 						<path fill="#A4A9AD" d="M131.8,52.8c0,0,1-0.5,3.5-0.9v-0.5c-0.3,0-0.5,0.1-0.8,0.1v0.3l-1.4,0.3v-0.2
	 							C132.2,52.2,131.8,52.5,131.8,52.8z"/>
	 						<path fill="#A4A9AD" d="M118.9,27.9l-0.1-1.2c-1,0.4-1.4,0.8-1.5,1V29C117.3,28.7,117.8,28.3,118.9,27.9z"/>
	 						<path fill="#A4A9AD" d="M125.4,26.3l-0.1-1.2c-1.6,0.2-2.9,0.5-4,0.8l0.1,1.2C122.5,26.8,123.8,26.6,125.4,26.3z"/>
	 						<path fill="#A4A9AD" d="M117.6,30.3c0,0.6,0,1.2,0,1.8c0.6-1.1,1.7-2.4,3.6-2.4c1.4,0,2.3,0.7,2.9,1.3
	 							c0.3-0.4,0.9-0.8,1.6-1.2l-0.2-2.7c-1.6,0.2-2.9,0.5-4,0.8l0.1,1.5c-1.5-0.2-2.5,0.7-2.5,0.7l-0.1-1.4
	 							c-0.2,0.1-0.3,0.1-0.5,0.2C117.9,29.1,117.6,29.3,117.6,30.3z"/>
	 						<path fill="#A4A9AD" d="M124.1,31.9c0,0-1-1.6-2.9-1.6c0,0,0,0,0,0c0.4,7.1,1.1,9.6,1.1,9.6c-0.2,0-0.4,0.2-0.4,0.2
	 							s-0.2-0.6-0.6-0.6c-1,0-0.2,1.3-0.2,2.7c0,0-1.9-3.8-2-11.1c-0.8,0.7-1.2,1.7-1.4,2.3c1,14.5,8.8,17.2,13.5,19
	 							c0,0,0.2-0.4,1.4-0.8c-1.3-5.6,3.4-4.6,4.7-11.6c-0.4,7.3-4.2,6.5-3.4,11.2c0.2-0.1,0.5-0.1,0.8-0.2c1.4-6,4.8-5.9,6.4-10.8
	 							c-0.6,4.8-3.7,5.7-4.6,10.6c0.2,0,0.4,0,0.6-0.1c1.3-5,6.7-6.2,8.3-11.8c-0.5,5.5-5.2,6.6-7,11.7c0.2,0,0.4,0,0.6,0
	 							c2.6-6.1,10.4-6.4,10.7-13.1c1.2,6.6-7.7,8.4-9.2,13c0.3,0,0.6,0,0.9,0c3.3-6,9.2-3.6,11.9-13.3c-1,9.1-7.4,8.4-10,13.3
	 							c0.3,0,0.5,0,0.8,0c3.6-5.1,9.1-3.3,11.9-12c-0.8,8.7-7.3,7.7-10.3,12.1c0.2,0,0.5,0,0.7,0.1c5.5-5.2,8.3-3.2,11.9-10
	 							c-1.9,6.8-6.8,6.1-10.7,10.2c0.2,0,0.4,0.1,0.6,0.1c4.4-4.2,8.8-3.1,12.7-9.4c-2.6,6.3-8.7,6.5-11.8,9.5
	 							c0.3,0.1,0.5,0.1,0.7,0.2c6-4.2,10-4.5,12.9-9.3c-2.3,5.1-8.3,6.4-12.2,9.5c0.2,0.1,0.4,0.1,0.5,0.2c4.9-3.3,9.1-3.5,13-10.1
	 							c-2.4,6.9-9.9,8.5-12.1,10.6c0.3,0.2,0.4,0.3,0.4,0.3c4.7-1.8,12.5-4.5,13.5-19c-0.2-0.5-0.5-1.2-1.1-1.9
	 							c-0.4,5.2-1.3,8.9-1.3,8.9s0.4-1.6-0.6-1.6c-0.9,0-0.9,1.7-1.4,1.7c-0.6,0,0.1-1.4-1.1-1.4c-0.1,0-0.1,0-0.1,0
	 							c-0.7,0.1-0.6,1.1-0.9,1.1c-0.6,0,0.4-1.7-1-1.7c-0.7,0-0.6,0.5-1,0.5c-0.1,0-0.2,0-0.3-0.1c-1-0.4,1-3.4-0.9-3.4
	 							c-0.9,0-0.6,0.8-1.4,0.8c0,0-0.1,0-0.1,0c-1.2-0.1-0.2-2.4-1.7-2.4c-1.5,0-0.6,2.8-2,2.8c-1,0-0.7-1.1-1.8-1.1
	 							c-1.7,0-0.8,3.2-2.3,3.2c-1,0-0.6-1.3-1.9-1.3c-1.7,0-0.6,2.1-2.1,2.1c-0.9,0-1.1-0.5-1.4-1c-0.2-0.3-0.4-0.5-1-0.5
	 							c-1.3,0-0.9,1.4-1.8,1.4c-1.2,0-0.4-2.1-2.3-2.1c-1.3,0-0.9,1.1-2,1.1c-1.9,0-0.5-2.5-2.1-2.5c-0.9,0-0.7,0.9-1.4,0.9
	 							c-1.7,0-0.4-2.3-2.1-2.3c-0.3,0-0.4,0.1-0.6,0.2c-0.6,0.5-0.2,2-0.8,2c-0.5,0-0.7-0.9-0.7-1.5l-0.4-4.9
	 							C124.6,31.1,124.1,31.9,124.1,31.9z M121.3,39.8c0.6,0,0.5,2.9,0.5,2.9C121.8,40.9,120.6,39.8,121.3,39.8z M120.1,41.8
	 							c1.1,1.1,0.8,2.8,1.8,4.3C120.4,44.7,120.7,42.8,120.1,41.8z M162.1,39.8c0.1-0.8,1.1-0.4,0.9,0.1c-0.8,2.7-3.1,4.6-3.1,4.6
	 							S161.8,42.1,162.1,39.8z M159.6,40c0.1-0.7,1.2-0.2,1,0.3c-1.4,3.7-4.7,5.4-4.7,5.4S158.8,43.7,159.6,40z M157.4,39.5
	 							c0.2-0.9,1.2-0.4,0.9,0.2c-1.9,4.1-4.6,5.5-4.6,5.5S156.8,42.5,157.4,39.5z M155.1,36.6c0.1-0.8,1.2-0.6,1.1,0
	 							c-1.5,6.6-6,8.6-6,8.6S154.7,41.9,155.1,36.6z M151.8,35.3c0-1.2,1.3-1.1,1.3-0.2c0,2.8-2.9,8.4-6.2,9.7
	 							C147,44.8,151.8,41.6,151.8,35.3z M148.1,37c0-0.9,1.3-1,1.3,0c0,4.3-3.8,6.1-7,8.5C145.7,42.1,148.1,41.5,148.1,37z
	 							 M143.7,39c0.1-1.2,1.2-0.7,1.1-0.2c-1.4,5.1-3.5,3.7-5.4,7C141.5,41.3,143.3,42.9,143.7,39z M139.2,39.6
	 							c0-1.1,1.5-1.1,1.5-0.1c0,2.3-2.3,3.2-4.9,7.4C137.7,43.3,139.2,42.2,139.2,39.6z M123.1,38.7c0.8,0,0.7,2.5,0.6,4.6
	 							c0-3.1-1.1-3.6-1.1-4C122.6,38.9,122.8,38.7,123.1,38.7z M122.1,40.8c0.6,2.1,0.1,5.6,2.5,8.1
	 							C121.3,46.4,122.4,43.4,122.1,40.8z M124.6,39.1c1.2,5.9-1.8,6,1.7,10.5C121.6,46.7,125.1,43.1,124.6,39.1z M135.9,38
	 							c0.3,0,0.8,0.3,0.8,0.9c0,0.5-0.5,0.7-0.6,1.3c-0.5,3-2.6,5.7-2.6,5.7C135.8,41,134.2,38,135.9,38z M131.2,37
	 							c0-0.2,0.1-0.6,0.6-0.6c1.3,0,0.3,6.3-1,8.2C132.3,38.3,131.2,37.4,131.2,37z M133.1,39c1,8.2-3.2,7.4-1.6,12.5
	 							C127.5,47.5,133.5,45.3,133.1,39z M130,51.2c-4.2-2.8-0.6-7.7-0.6-13.8C130.6,43.8,126.9,47.1,130,51.2z M128.3,35
	 							c1.2,0,0.5,4.7-0.2,8.8c0.8-7-0.4-7.4-0.4-8.3C127.7,35.2,128,35,128.3,35z M126.9,37.5c1.3,3.8-2.9,9.2,1.8,13.3
	 							C122.5,47.4,126.9,42.5,126.9,37.5z M125.6,36.5c1.3,0,0.7,3.6,0.1,5.7c0.3-4-0.7-4.3-0.7-5C124.9,36.8,125.2,36.5,125.6,36.5
	 							z"/>
	 						<path fill="#A4A9AD" d="M166.1,29v-1.2c-0.1-0.2-0.5-0.6-1.3-0.9c0,0.4,0,0.8,0,1.2C165.6,28.4,166,28.7,166.1,29z"/>
	 						<path fill="#A4A9AD" d="M165.7,30.3c0-1-0.3-1.2-0.9-1.5c0,0-0.1,0-0.1,0c0,0.7-0.1,1.3-0.1,2c0.4,0.4,0.8,0.9,1.1,1.4
	 							C165.7,31.5,165.7,30.9,165.7,30.3z"/>
	 						<path fill="#A4A9AD" d="M169.5,106.9c0,0,3.2-0.3,6.1-0.5c-0.6-5.9-9.7-6.6-9.7-6.6s-0.7,0.2-7,0.4
	 							C162.8,100.8,170.2,102.5,169.5,106.9z"/>
	 						<path fill="#A4A9AD" d="M172.1,109.9c-0.9,0.1-2,0.1-3.1,0.1c0.7,0.9,0.8,1.8,0.6,2.6c0.9-0.1,1.8-0.2,2.8-0.2
	 							c1.4,0,2.7,0.2,3.8,0.5l0-3.3C176.2,109.5,174.9,109.7,172.1,109.9z"/>
	 						<path fill="#A4A9AD" d="M107.7,106.4c0,0,2.6,0.5,9.5,0.9c0.2-5.3,7.1-6.7,8.8-7c-7.8-0.2-8.6-0.5-8.6-0.5
	 							S108.3,100.5,107.7,106.4z M111.2,106.2c-1.8-0.2-2.6-0.3-2.6-0.3s0.3-4.3,9.4-5.4C111.5,102.5,111.2,106.2,111.2,106.2z"/>
	 						<path fill="#A4A9AD" d="M106.9,107.3c-0.1,0.3-0.1,0.7,0.2,1.2c0,0,2.5,0.4,10,0.8v-1.6C115.2,107.8,111.9,107.8,106.9,107.3z
	 							"/>
	 						<path fill="#A4A9AD" d="M111.1,109.9l-0.1,4.3h6v-4.3C115.2,110,112.9,110.1,111.1,109.9z"/>
	 						<path fill="#A4A9AD" d="M107,114.2h1.5l0.1-4.5c-1-0.1-1.5-0.2-1.5-0.2L107,114.2z"/>
	 					</g>
	 					<linearGradient id="SVGID_1_" gradientUnits="userSpaceOnUse" x1="97.5655" y1="166.4916" x2="185.7137" y2="166.4916">
	 						<stop  offset="0" style="stop-color:#939BA0"/>
	 						<stop  offset="9.676903e-02" style="stop-color:#B4B9BD"/>
	 						<stop  offset="0.2711" style="stop-color:#EAEBEC"/>
	 						<stop  offset="0.3558" style="stop-color:#FFFFFF"/>
	 						<stop  offset="0.6564" style="stop-color:#FFFFFF"/>
	 						<stop  offset="0.7383" style="stop-color:#EAEBEC"/>
	 						<stop  offset="0.9066" style="stop-color:#B4B9BD"/>
	 						<stop  offset="1" style="stop-color:#939BA0"/>
	 					</linearGradient>
	 					<path fill="url(#SVGID_1_)" d="M179.1,157.9c-1-1.4-8.4,7.7-37.4,7.7c-29,0-36.4-9.1-37.4-7.7l-6.7,8.9
	 						c3.3-0.6,13.3,8.4,44.1,8.4c30.8,0,40.8-9,44.1-8.4L179.1,157.9z"/>
	 					<g>
	 						<linearGradient id="SVGID_2_" gradientUnits="userSpaceOnUse" x1="100.2832" y1="175.8254" x2="71.547" y2="175.8254">
	 							<stop  offset="0.1517" style="stop-color:#FFFFFF"/>
	 							<stop  offset="0.2638" style="stop-color:#FAFAFA"/>
	 							<stop  offset="0.4022" style="stop-color:#EBECED"/>
	 							<stop  offset="0.5543" style="stop-color:#D2D5D7"/>
	 							<stop  offset="0.7152" style="stop-color:#AFB5B8"/>
	 							<stop  offset="0.8242" style="stop-color:#939BA0"/>
	 						</linearGradient>
	 						<path fill="url(#SVGID_2_)" d="M71.5,167.4v7.7c17.8,6.1,20.1,10.2,21.7,8.9l7-5.6C96.5,178.9,92.3,173.8,71.5,167.4z
	 							 M75.9,173.1l0,1.7l-1.1-1.4l-1.8,0.5l1.1-1.4l-1.1-1.4l1.8,0.6l1.1-1.4l0,1.7l1.8,0.6L75.9,173.1z M84.1,176.3l-0.2,1.7
	 							l-1-1.5l-1.8,0.4l1.2-1.3l-1-1.5l1.7,0.7l1.2-1.3l-0.2,1.7l1.7,0.7L84.1,176.3z M91.8,180l-0.2,1.7l-1-1.5l-1.8,0.4l1.2-1.3
	 							l-1-1.5l1.7,0.7l1.2-1.3l-0.2,1.7l1.7,0.7L91.8,180z"/>
	 						<linearGradient id="SVGID_3_" gradientUnits="userSpaceOnUse" x1="182.9951" y1="175.8254" x2="211.7301" y2="175.8254">
	 							<stop  offset="0.1517" style="stop-color:#FFFFFF"/>
	 							<stop  offset="0.2638" style="stop-color:#FAFAFA"/>
	 							<stop  offset="0.4022" style="stop-color:#EBECED"/>
	 							<stop  offset="0.5543" style="stop-color:#D2D5D7"/>
	 							<stop  offset="0.7152" style="stop-color:#AFB5B8"/>
	 							<stop  offset="0.8242" style="stop-color:#939BA0"/>
	 						</linearGradient>
	 						<path fill="url(#SVGID_3_)" d="M183,178.5l7,5.6c1.6,1.3,3.9-2.8,21.7-8.9v-7.7C191,173.8,186.7,178.9,183,178.5z
	 							 M207.3,170.3l1.1,1.4l1.8-0.6l-1.1,1.4l1.1,1.4l-1.8-0.5l-1.1,1.4l0-1.7l-1.8-0.5l1.8-0.6L207.3,170.3z M198.9,173.5l1.2,1.3
	 							l1.7-0.7l-1,1.5l1.2,1.3l-1.8-0.4l-1,1.5l-0.2-1.7l-1.8-0.4l1.7-0.7L198.9,173.5z M191.2,177.2l1.2,1.3l1.7-0.7l-1,1.5
	 							l1.2,1.3l-1.8-0.4l-1,1.5l-0.2-1.7l-1.8-0.4l1.7-0.7L191.2,177.2z"/>
	 					</g>
	 					<g>
						
	 							<linearGradient id="SVGID_4_" gradientUnits="userSpaceOnUse" x1="154.2603" y1="152.403" x2="154.2603" y2="145.9592" gradientTransform="matrix(1 0 -0.256 1 66.6098 0)">
	 							<stop  offset="0" style="stop-color:#FFFFFF"/>
	 							<stop  offset="0.1517" style="stop-color:#FFFFFF"/>
	 							<stop  offset="0.2517" style="stop-color:#FAFAFA"/>
	 							<stop  offset="0.3751" style="stop-color:#EBECED"/>
	 							<stop  offset="0.5109" style="stop-color:#D1D5D7"/>
	 							<stop  offset="0.6555" style="stop-color:#AEB4B8"/>
	 							<stop  offset="0.8057" style="stop-color:#828B91"/>
	 							<stop  offset="0.8242" style="stop-color:#7C858C"/>
	 							<stop  offset="1" style="stop-color:#7C858C"/>
	 						</linearGradient>
	 						<path fill="url(#SVGID_4_)" d="M182,152.4c5.6,0,9.4-1.8,11.7-5.4l-4.2-0.1c-1.6,2.4-4.1,3.7-7.1,3.7c-3.3,0-5.1-1.5-5.3-4.3
	 							L173,146C173,150.3,175.9,152.4,182,152.4z"/>
						
	 							<linearGradient id="SVGID_5_" gradientUnits="userSpaceOnUse" x1="200.1944" y1="152.403" x2="200.1944" y2="145.3248" gradientTransform="matrix(1 0 -0.256 1 66.6098 0)">
	 							<stop  offset="0" style="stop-color:#FFFFFF"/>
	 							<stop  offset="0.1517" style="stop-color:#FFFFFF"/>
	 							<stop  offset="0.2517" style="stop-color:#FAFAFA"/>
	 							<stop  offset="0.3751" style="stop-color:#EBECED"/>
	 							<stop  offset="0.5109" style="stop-color:#D1D5D7"/>
	 							<stop  offset="0.6555" style="stop-color:#AEB4B8"/>
	 							<stop  offset="0.8057" style="stop-color:#828B91"/>
	 							<stop  offset="0.8242" style="stop-color:#7C858C"/>
	 							<stop  offset="1" style="stop-color:#7C858C"/>
	 						</linearGradient>
	 						<path fill="url(#SVGID_5_)" d="M236.4,147.7c0.2-0.9,0.2-1.7,0-2.4l-4.3,0.5c0.3,0.4,0.4,1,0.3,1.6c-0.5,1.9-3.1,3.1-5.2,3.1
	 							c-2.3,0-4.3-0.7-5.4-1.3c-0.5,0.9-0.7,1.4-1.1,2.1c1,0.4,3.1,1.1,6.4,1.1C231,152.4,235.5,151.2,236.4,147.7z"/>
						
	 							<linearGradient id="SVGID_6_" gradientUnits="userSpaceOnUse" x1="23.6256" y1="152.403" x2="23.6256" y2="140.1332" gradientTransform="matrix(1 0 -0.256 1 66.6098 0)">
	 							<stop  offset="0" style="stop-color:#FFFFFF"/>
	 							<stop  offset="0.1517" style="stop-color:#FFFFFF"/>
	 							<stop  offset="0.2517" style="stop-color:#FAFAFA"/>
	 							<stop  offset="0.3751" style="stop-color:#EBECED"/>
	 							<stop  offset="0.5109" style="stop-color:#D1D5D7"/>
	 							<stop  offset="0.6555" style="stop-color:#AEB4B8"/>
	 							<stop  offset="0.8057" style="stop-color:#828B91"/>
	 							<stop  offset="0.8242" style="stop-color:#7C858C"/>
	 							<stop  offset="1" style="stop-color:#7C858C"/>
	 						</linearGradient>
	 						<path fill="url(#SVGID_6_)" d="M45.1,142.8c-1.2,4.8,1.5,9.6,10.3,9.6c1.7,0,3.5-0.2,4.5-0.4c0.2-0.6,0.3-1,0.5-1.9
	 							c-1,0.2-2.3,0.4-3.8,0.4c-3.7,0-8.7-2.1-7.2-7.8c0.3-1,0.6-1.9,1.1-2.6l-4.5,0.6C45.6,141.4,45.3,142.1,45.1,142.8z"/>
						
	 							<linearGradient id="SVGID_7_" gradientUnits="userSpaceOnUse" x1="46.7037" y1="152.0656" x2="46.7037" y2="138.8253" gradientTransform="matrix(1 0 -0.256 1 66.6098 0)">
	 							<stop  offset="0" style="stop-color:#FFFFFF"/>
	 							<stop  offset="0.1517" style="stop-color:#FFFFFF"/>
	 							<stop  offset="0.2517" style="stop-color:#FAFAFA"/>
	 							<stop  offset="0.3751" style="stop-color:#EBECED"/>
	 							<stop  offset="0.5109" style="stop-color:#D1D5D7"/>
	 							<stop  offset="0.6555" style="stop-color:#AEB4B8"/>
	 							<stop  offset="0.8057" style="stop-color:#828B91"/>
	 							<stop  offset="0.8242" style="stop-color:#7C858C"/>
	 							<stop  offset="1" style="stop-color:#7C858C"/>
	 						</linearGradient>
	 						<path fill="url(#SVGID_7_)" d="M71.4,143.7h10.3c0,0-1.7,6.7-2.1,8.4c1.2,0,3,0,4.2,0c0.3-1.1,2-7.7,3.4-13.2l-4.1-0.1l-0.8,3
	 							H71.8l0.8-3l-4.2,0.1c-1.2,4.6-3,11.8-3.4,13.1c1.2,0,3,0,4.2,0C69.6,150.4,71.4,143.7,71.4,143.7z"/>
						
	 							<linearGradient id="SVGID_8_" gradientUnits="userSpaceOnUse" x1="70.0149" y1="152.0656" x2="70.0149" y2="139.1955" gradientTransform="matrix(1 0 -0.256 1 66.6098 0)">
	 							<stop  offset="0" style="stop-color:#FFFFFF"/>
	 							<stop  offset="0.1517" style="stop-color:#FFFFFF"/>
	 							<stop  offset="0.2517" style="stop-color:#FAFAFA"/>
	 							<stop  offset="0.3751" style="stop-color:#EBECED"/>
	 							<stop  offset="0.5109" style="stop-color:#D1D5D7"/>
	 							<stop  offset="0.6555" style="stop-color:#AEB4B8"/>
	 							<stop  offset="0.8057" style="stop-color:#828B91"/>
	 							<stop  offset="0.8242" style="stop-color:#7C858C"/>
	 							<stop  offset="1" style="stop-color:#7C858C"/>
	 						</linearGradient>
	 						<path fill="url(#SVGID_8_)" d="M107.6,152.1c-0.1-1.4-0.7-7.3-1.1-12.3l-3.5-0.2l0.3,5.7h-7.7l3.3-6l-3.4-0.2
	 							c-2.7,4.4-6.8,11.3-7.8,12.9c1.5,0,3.1,0,4,0c0.6-1.1,2.7-4.9,2.7-4.9h8.9c0,0,0.2,3.8,0.2,4.9
	 							C104.5,152.1,106.1,152.1,107.6,152.1z"/>
						
	 							<linearGradient id="SVGID_9_" gradientUnits="userSpaceOnUse" x1="96.6677" y1="152.0656" x2="96.6677" y2="141.1478" gradientTransform="matrix(1 0 -0.256 1 66.6098 0)">
	 							<stop  offset="0" style="stop-color:#FFFFFF"/>
	 							<stop  offset="0.1517" style="stop-color:#FFFFFF"/>
	 							<stop  offset="0.2517" style="stop-color:#FAFAFA"/>
	 							<stop  offset="0.3751" style="stop-color:#EBECED"/>
	 							<stop  offset="0.5109" style="stop-color:#D1D5D7"/>
	 							<stop  offset="0.6555" style="stop-color:#AEB4B8"/>
	 							<stop  offset="0.8057" style="stop-color:#828B91"/>
	 							<stop  offset="0.8242" style="stop-color:#7C858C"/>
	 							<stop  offset="1" style="stop-color:#7C858C"/>
	 						</linearGradient>
	 						<path fill="url(#SVGID_9_)" d="M132.1,142.2l-2.6-0.3c-2.2,3.9-4.4,7.7-4.4,7.7l-0.5-8.2l-2.7-0.3c0.1,4,0.2,10,0.2,10.9
	 							c1.1,0,3.6,0,4.7,0C127.3,151.2,130,146.1,132.1,142.2z"/>
						
	 							<linearGradient id="SVGID_10_" gradientUnits="userSpaceOnUse" x1="86.1352" y1="152.0656" x2="86.1352" y2="140.4241" gradientTransform="matrix(1 0 -0.256 1 66.6098 0)">
	 							<stop  offset="0" style="stop-color:#FFFFFF"/>
	 							<stop  offset="0.1517" style="stop-color:#FFFFFF"/>
	 							<stop  offset="0.2517" style="stop-color:#FAFAFA"/>
	 							<stop  offset="0.3751" style="stop-color:#EBECED"/>
	 							<stop  offset="0.5109" style="stop-color:#D1D5D7"/>
	 							<stop  offset="0.6555" style="stop-color:#AEB4B8"/>
	 							<stop  offset="0.8057" style="stop-color:#828B91"/>
	 							<stop  offset="0.8242" style="stop-color:#7C858C"/>
	 							<stop  offset="1" style="stop-color:#7C858C"/>
	 						</linearGradient>
	 						<path fill="url(#SVGID_10_)" d="M118.8,140.8l-4-0.4c-1.2,4.6-2.7,10.5-3,11.6c1.2,0,3,0,4.2,0
	 							C116.2,150.8,117.8,144.7,118.8,140.8z"/>
						
	 							<linearGradient id="SVGID_11_" gradientUnits="userSpaceOnUse" x1="107.4845" y1="152.0656" x2="107.4845" y2="142.5207" gradientTransform="matrix(1 0 -0.256 1 66.6098 0)">
	 							<stop  offset="0" style="stop-color:#FFFFFF"/>
	 							<stop  offset="0.1517" style="stop-color:#FFFFFF"/>
	 							<stop  offset="0.2517" style="stop-color:#FAFAFA"/>
	 							<stop  offset="0.3751" style="stop-color:#EBECED"/>
	 							<stop  offset="0.5109" style="stop-color:#D1D5D7"/>
	 							<stop  offset="0.6555" style="stop-color:#AEB4B8"/>
	 							<stop  offset="0.8057" style="stop-color:#828B91"/>
	 							<stop  offset="0.8242" style="stop-color:#7C858C"/>
	 							<stop  offset="1" style="stop-color:#7C858C"/>
	 						</linearGradient>
	 						<path fill="url(#SVGID_11_)" d="M139.6,142.9l-4-0.4c-1,3.7-2.2,8.5-2.4,9.5c1.2,0,3,0,4.2,0
	 							C137.5,151.2,138.5,147.1,139.6,142.9z"/>
						
	 							<linearGradient id="SVGID_12_" gradientUnits="userSpaceOnUse" x1="136.9845" y1="152.0656" x2="136.9845" y2="145.3445" gradientTransform="matrix(1 0 -0.256 1 66.6098 0)">
	 							<stop  offset="0" style="stop-color:#FFFFFF"/>
	 							<stop  offset="0.1517" style="stop-color:#FFFFFF"/>
	 							<stop  offset="0.2517" style="stop-color:#FAFAFA"/>
	 							<stop  offset="0.3751" style="stop-color:#EBECED"/>
	 							<stop  offset="0.5109" style="stop-color:#D1D5D7"/>
	 							<stop  offset="0.6555" style="stop-color:#AEB4B8"/>
	 							<stop  offset="0.8057" style="stop-color:#828B91"/>
	 							<stop  offset="0.8242" style="stop-color:#7C858C"/>
	 							<stop  offset="1" style="stop-color:#7C858C"/>
	 						</linearGradient>
	 						<path fill="url(#SVGID_12_)" d="M168.4,145.7l-4.1-0.3c-0.8,3.1-1.5,6-1.7,6.7c1.2,0,3,0,4.2,0
	 							C166.9,151.4,167.6,148.8,168.4,145.7z"/>
						
	 							<linearGradient id="SVGID_13_" gradientUnits="userSpaceOnUse" x1="120.5088" y1="152.0656" x2="120.5088" y2="143.3347" gradientTransform="matrix(1 0 -0.256 1 66.6098 0)">
	 							<stop  offset="0" style="stop-color:#FFFFFF"/>
	 							<stop  offset="0.1517" style="stop-color:#FFFFFF"/>
	 							<stop  offset="0.2517" style="stop-color:#FAFAFA"/>
	 							<stop  offset="0.3751" style="stop-color:#EBECED"/>
	 							<stop  offset="0.5109" style="stop-color:#D1D5D7"/>
	 							<stop  offset="0.6555" style="stop-color:#AEB4B8"/>
	 							<stop  offset="0.8057" style="stop-color:#828B91"/>
	 							<stop  offset="0.8242" style="stop-color:#7C858C"/>
	 							<stop  offset="1" style="stop-color:#7C858C"/>
	 						</linearGradient>
	 						<path fill="url(#SVGID_13_)" d="M148.2,144.9h6.2c0.6,0,1.2-0.1,1.7-0.2l-11.7-1.3c-1,3.9-2,7.8-2.2,8.7c1.2,0,3,0,4.2,0
	 							C146.7,150.5,148.2,144.9,148.2,144.9z"/>
						
	 							<linearGradient id="SVGID_14_" gradientUnits="userSpaceOnUse" x1="184.1622" y1="152.0656" x2="184.1622" y2="146.8834" gradientTransform="matrix(1 0 -0.256 1 66.6098 0)">
	 							<stop  offset="0" style="stop-color:#FFFFFF"/>
	 							<stop  offset="0.1517" style="stop-color:#FFFFFF"/>
	 							<stop  offset="0.2517" style="stop-color:#FAFAFA"/>
	 							<stop  offset="0.3751" style="stop-color:#EBECED"/>
	 							<stop  offset="0.5109" style="stop-color:#D1D5D7"/>
	 							<stop  offset="0.6555" style="stop-color:#AEB4B8"/>
	 							<stop  offset="0.8057" style="stop-color:#828B91"/>
	 							<stop  offset="0.8242" style="stop-color:#7C858C"/>
	 							<stop  offset="1" style="stop-color:#7C858C"/>
	 						</linearGradient>
	 						<path fill="url(#SVGID_14_)" d="M217.2,146.9L213,147l-0.1,0.5l-0.2-0.5l-3.6,0.1c1.1,2.5,2,4.6,2.2,4.9c0.8,0,3.3,0,4.7,0
	 							C216.1,151.5,216.6,149.4,217.2,146.9z"/>
						
	 							<linearGradient id="SVGID_15_" gradientUnits="userSpaceOnUse" x1="171.681" y1="152.0656" x2="171.681" y2="147.0883" gradientTransform="matrix(1 0 -0.256 1 66.6098 0)">
	 							<stop  offset="0" style="stop-color:#FFFFFF"/>
	 							<stop  offset="0.1517" style="stop-color:#FFFFFF"/>
	 							<stop  offset="0.2517" style="stop-color:#FAFAFA"/>
	 							<stop  offset="0.3751" style="stop-color:#EBECED"/>
	 							<stop  offset="0.5109" style="stop-color:#D1D5D7"/>
	 							<stop  offset="0.6555" style="stop-color:#AEB4B8"/>
	 							<stop  offset="0.8057" style="stop-color:#828B91"/>
	 							<stop  offset="0.8242" style="stop-color:#7C858C"/>
	 							<stop  offset="1" style="stop-color:#7C858C"/>
	 						</linearGradient>
	 						<path fill="url(#SVGID_15_)" d="M202.7,147.1l-4.1,0c-0.6,2.4-1.1,4.4-1.3,5c1.2,0,3,0,4.2,0
	 							C201.6,151.4,202.1,149.4,202.7,147.1z"/>
	 					</g>
	 					<g>
						
	 							<linearGradient id="SVGID_16_" gradientUnits="userSpaceOnUse" x1="154.4205" y1="142.7794" x2="154.4205" y2="134.9999" gradientTransform="matrix(1 0 -0.256 1 66.6098 0)">
	 							<stop  offset="0" style="stop-color:#FFFFFF"/>
	 							<stop  offset="1" style="stop-color:#231F20"/>
	 						</linearGradient>
	 						<path fill="url(#SVGID_16_)" d="M186.5,135c-4.4,0-7.6,2.8-8.9,7.8h1.1c0.9-3.7,3.1-6.7,7.5-6.7c4.3,0,5,3,4.1,6.7h1.1
	 							C192.6,137.8,190.9,135,186.5,135z"/>
						
	 							<linearGradient id="SVGID_17_" gradientUnits="userSpaceOnUse" x1="154.2622" y1="145.8825" x2="154.2622" y2="153.4837" gradientTransform="matrix(1 0 -0.256 1 66.6098 0)">
	 							<stop  offset="0" style="stop-color:#FFFFFF"/>
	 							<stop  offset="1" style="stop-color:#231F20"/>
	 						</linearGradient>
	 						<path fill="url(#SVGID_17_)" d="M182,152.4c-6.1,0-9.1-2.1-9-6.4l-1.1-0.1c-0.2,4.4,2.3,7.6,9.9,7.6c6.9,0,10.9-2.7,13.2-6.4
	 							l-1.1,0C191.5,150.6,187.6,152.4,182,152.4z"/>
						
	 							<linearGradient id="SVGID_18_" gradientUnits="userSpaceOnUse" x1="201.3702" y1="137.9798" x2="201.3702" y2="134.9999" gradientTransform="matrix(1 0 -0.256 1 66.6098 0)">
	 							<stop  offset="0" style="stop-color:#FFFFFF"/>
	 							<stop  offset="1" style="stop-color:#231F20"/>
	 						</linearGradient>
	 						<path fill="url(#SVGID_18_)" d="M233.5,135c-2.9,0-5.1,1.5-5.5,3h1.1c0.2-0.8,1.8-1.9,4.1-1.9c2.9,0,4.3,1.4,4.3,1.4l-0.3-1.7
	 							C236.3,135.4,235.1,135,233.5,135z"/>
						
	 							<linearGradient id="SVGID_19_" gradientUnits="userSpaceOnUse" x1="200.0979" y1="147.7091" x2="200.0979" y2="153.4837" gradientTransform="matrix(1 0 -0.256 1 66.6098 0)">
	 							<stop  offset="0" style="stop-color:#FFFFFF"/>
	 							<stop  offset="1" style="stop-color:#231F20"/>
	 						</linearGradient>
	 						<path fill="url(#SVGID_19_)" d="M227.1,152.4c-3.3,0-5.4-0.6-6.4-1.1l-1.5,0.6c0,0,2.4,1.5,7.6,1.5c5.6,0,9.8-2.2,10.7-5.8
	 							h-1.1C235.5,151.2,231,152.4,227.1,152.4z"/>
						
	 							<linearGradient id="SVGID_20_" gradientUnits="userSpaceOnUse" x1="23.625" y1="140.7176" x2="23.625" y2="153.4837" gradientTransform="matrix(1 0 -0.256 1 66.6098 0)">
	 							<stop  offset="0" style="stop-color:#FFFFFF"/>
	 							<stop  offset="1" style="stop-color:#231F20"/>
	 						</linearGradient>
	 						<path fill="url(#SVGID_20_)" d="M55.4,152.4c-8.8,0-11.5-4.8-10.3-9.6c0.2-0.7,0.4-1.4,0.8-2.1l-1.2,0.2
	 							c-0.3,0.6-0.5,1.3-0.7,1.9c-1.3,5.1,1.5,10.7,11.1,10.7c2.8,0,5.6-0.6,5.6-0.6l-0.9-0.9C58.9,152.2,57.1,152.4,55.4,152.4z"/>
						
	 							<linearGradient id="SVGID_21_" gradientUnits="userSpaceOnUse" x1="26.4845" y1="140.1332" x2="26.4845" y2="134.9999" gradientTransform="matrix(1 0 -0.256 1 66.6098 0)">
	 							<stop  offset="0" style="stop-color:#FFFFFF"/>
	 							<stop  offset="1" style="stop-color:#231F20"/>
	 						</linearGradient>
	 						<path fill="url(#SVGID_21_)" d="M60.5,135c-3.1,0-7.7,1.4-10.1,5.1l1.3-0.2c2.2-2.9,6.1-3.9,8.5-3.9c3,0,4.6,0.8,4.6,0.8
	 							l-0.7-1.5C63.3,135.2,62.1,135,60.5,135z"/>
						
	 							<linearGradient id="SVGID_22_" gradientUnits="userSpaceOnUse" x1="50.2208" y1="138.1481" x2="50.2208" y2="132.415" gradientTransform="matrix(1 0 -0.256 1 66.6098 0)">
	 							<stop  offset="0" style="stop-color:#FFFFFF"/>
	 							<stop  offset="1" style="stop-color:#231F20"/>
	 						</linearGradient>
	 						<path fill="url(#SVGID_22_)" d="M83.9,135c0.3-1.1,0-2-0.5-2.5h-2.1c0,0,2,0.6,1.5,2.5l-0.8,3.2h1.1L83.9,135z"/>
						
	 							<linearGradient id="SVGID_23_" gradientUnits="userSpaceOnUse" x1="35.7533" y1="138.1481" x2="35.7533" y2="132.415" gradientTransform="matrix(1 0 -0.256 1 66.6098 0)">
	 							<stop  offset="0" style="stop-color:#FFFFFF"/>
	 							<stop  offset="1" style="stop-color:#231F20"/>
	 						</linearGradient>
	 						<path fill="url(#SVGID_23_)" d="M69.5,135c0.3-1.1,0-2-0.5-2.5h-2.1c0,0,2,0.6,1.5,2.5l-0.8,3.2h1.1
	 							C69.1,136.3,69.5,135,69.5,135z"/>
						
	 							<linearGradient id="SVGID_24_" gradientUnits="userSpaceOnUse" x1="64.8523" y1="138.1481" x2="64.8523" y2="132.415" gradientTransform="matrix(1 0 -0.256 1 66.6098 0)">
	 							<stop  offset="0" style="stop-color:#FFFFFF"/>
	 							<stop  offset="1" style="stop-color:#231F20"/>
	 						</linearGradient>
	 						<path fill="url(#SVGID_24_)" d="M97.9,135.3c0.8-1.3,0.6-2.3,0.2-2.9h-1.9c0,0,1.8,0.6,0.6,2.5l-1.9,3.2h1.2
	 							C97.2,136.4,97.9,135.3,97.9,135.3z"/>
						
	 							<linearGradient id="SVGID_25_" gradientUnits="userSpaceOnUse" x1="82.419" y1="138.1481" x2="82.419" y2="132.415" gradientTransform="matrix(1 0 -0.256 1 66.6098 0)">
	 							<stop  offset="0" style="stop-color:#FFFFFF"/>
	 							<stop  offset="1" style="stop-color:#231F20"/>
	 						</linearGradient>
	 						<path fill="url(#SVGID_25_)" d="M116.1,135c0.3-1.1,0-2-0.5-2.5h-2.1c0,0,2,0.6,1.5,2.5l-0.8,3.2h1.1
	 							C115.8,136.3,116.1,135,116.1,135z"/>
						
	 							<linearGradient id="SVGID_26_" gradientUnits="userSpaceOnUse" x1="133.2681" y1="138.1481" x2="133.2681" y2="132.415" gradientTransform="matrix(1 0 -0.256 1 66.6098 0)">
	 							<stop  offset="0" style="stop-color:#FFFFFF"/>
	 							<stop  offset="1" style="stop-color:#231F20"/>
	 						</linearGradient>
	 						<path fill="url(#SVGID_26_)" d="M167,135c0.3-1.1,0-2-0.5-2.5h-2.1c0,0,2,0.6,1.5,2.5l-0.8,3.2h1.1
	 							C166.6,136.3,167,135,167,135z"/>
						
	 							<linearGradient id="SVGID_27_" gradientUnits="userSpaceOnUse" x1="122.6006" y1="139.1732" x2="122.6006" y2="135.3385" gradientTransform="matrix(1 0 -0.256 1 66.6098 0)">
	 							<stop  offset="0" style="stop-color:#FFFFFF"/>
	 							<stop  offset="1" style="stop-color:#231F20"/>
	 						</linearGradient>
	 						<path fill="url(#SVGID_27_)" d="M156.4,139.2h1.1c0.5-2.1-0.8-3.8-3-3.8h-4l0.8,1.1h2.8C155.9,136.4,156.8,137.7,156.4,139.2z
	 							"/>
						
	 							<linearGradient id="SVGID_28_" gradientUnits="userSpaceOnUse" x1="112.8582" y1="138.1481" x2="112.8582" y2="132.415" gradientTransform="matrix(1 0 -0.256 1 66.6098 0)">
	 							<stop  offset="0" style="stop-color:#FFFFFF"/>
	 							<stop  offset="1" style="stop-color:#231F20"/>
	 						</linearGradient>
	 						<path fill="url(#SVGID_28_)" d="M146.6,135c0.3-1.1,0-2-0.5-2.5h-2.1c0,0,2,0.6,1.5,2.5l-0.8,3.2h1.1
	 							C146.2,136.3,146.6,135,146.6,135z"/>
						
	 							<linearGradient id="SVGID_29_" gradientUnits="userSpaceOnUse" x1="125.2302" y1="139.1732" x2="125.2302" y2="145.9314" gradientTransform="matrix(1 0 -0.256 1 66.6098 0)">
	 							<stop  offset="0" style="stop-color:#FFFFFF"/>
	 							<stop  offset="1" style="stop-color:#231F20"/>
	 						</linearGradient>
	 						<path fill="url(#SVGID_29_)" d="M156.1,144.6c-0.6,0.2-1.1,0.2-1.7,0.2h-6.2l0.8,1.1h5.1c3.8,0,7.7-3,8.7-6.8h-1.1
	 							C161,141.7,158.7,143.9,156.1,144.6z"/>
						
	 							<linearGradient id="SVGID_30_" gradientUnits="userSpaceOnUse" x1="182.432" y1="138.1481" x2="182.432" y2="132.415" gradientTransform="matrix(1 0 -0.256 1 66.6098 0)">
	 							<stop  offset="0" style="stop-color:#FFFFFF"/>
	 							<stop  offset="1" style="stop-color:#231F20"/>
	 						</linearGradient>
	 						<path fill="url(#SVGID_30_)" d="M216.1,135c0.3-1.1,0-2-0.5-2.5h-2.1c0,0,2,0.6,1.5,2.5l-0.8,3.2h1.1L216.1,135z"/>
						
	 							<linearGradient id="SVGID_31_" gradientUnits="userSpaceOnUse" x1="167.9634" y1="138.1481" x2="167.9634" y2="132.415" gradientTransform="matrix(1 0 -0.256 1 66.6098 0)">
	 							<stop  offset="0" style="stop-color:#FFFFFF"/>
	 							<stop  offset="1" style="stop-color:#231F20"/>
	 						</linearGradient>
	 						<path fill="url(#SVGID_31_)" d="M201.7,135c0.3-1.1,0-2-0.5-2.5H199c0,0,2,0.6,1.5,2.5l-0.8,3.2h1.1
	 							C201.3,136.3,201.7,135,201.7,135z"/>
	 					</g>
	 					<g>
	 						<path d="M134,56.6l0.4-0.1c0,0,0.9-1.1,0.6-2.3c-0.8,0.1-1.2,0.2-1.2,0.2c0.4,1.1-0.6,2.1-0.6,2.1
	 							C133.7,56.3,134,56.6,134,56.6z"/>
	 						<path d="M149.2,58.7l0.8,0.1c0,0-0.4-0.2-0.3-0.8l-0.4,0c0,0-0.1,0.5-0.6,0.7L149.2,58.7z"/>
	 						<path d="M129.4,37.5c0,6-3.6,11,0.6,13.8C126.9,47.1,130.6,43.8,129.4,37.5z"/>
	 						<path d="M124.6,48.9c-2.5-2.5-2-6-2.5-8.1C122.4,43.4,121.3,46.4,124.6,48.9z"/>
	 						<path d="M121.9,46.1c-1-1.5-0.7-3.2-1.8-4.3C120.7,42.8,120.4,44.7,121.9,46.1z"/>
	 						<path d="M126.9,37.5c0,5-4.4,9.8,1.8,13.3C124,46.8,128.2,41.3,126.9,37.5z"/>
	 						<path d="M108.6,105.9c0,0,0.8,0.1,2.6,0.3c0,0,0.4-3.7,6.8-5.8C108.9,101.6,108.6,105.9,108.6,105.9z"/>
	 						<path d="M124.6,39.1c0.4,4-3,7.6,1.7,10.5C122.8,45.2,125.9,45.1,124.6,39.1z"/>
	 						<path d="M131.5,51.5c-1.6-5.1,2.6-4.2,1.6-12.5C133.5,45.3,127.5,47.5,131.5,51.5z"/>
	 						<path d="M133.2,58.2c-0.2,0-1.1,0.3-1-1.2C131.2,58.6,132.8,59.3,133.2,58.2z"/>
	 						<path d="M151,58.9l1.2,0.1c0,0-0.2-0.1-0.3-0.4c0-0.2-0.4-0.2-0.5,0C151.3,58.6,151.2,58.8,151,58.9z"/>
	 						<path d="M132.3,58.9c-0.5-0.2-0.5-0.7-0.5-0.7l-0.3,0c0,0.7-0.3,0.8-0.3,0.8L132.3,58.9z"/>
	 						<path d="M152.9,59.1l1.3,0.2c-0.2-0.1-0.4-0.3-0.4-0.5c-0.1-0.2-0.3-0.2-0.4-0.1C153.3,58.9,153.2,59,152.9,59.1z"/>
	 						<path d="M155.9,58.8c-0.1,0.2-0.5,0.5-0.7-0.3C155.2,59.4,155.9,59.6,155.9,58.8z"/>
	 						<path d="M156.5,59.1c-0.1,0.1-0.4,0-0.4-0.2C156.1,59.3,156.5,59.4,156.5,59.1z"/>
	 						<path d="M154.9,58.7c-0.2,0.2-0.7,0.4-1.1-1C153.6,59.2,154.8,59.4,154.9,58.7z"/>
	 						<path d="M131.1,58.3c-0.2,0.1-1.1,0.5-0.7-1.2C128.9,58.8,130.9,59.7,131.1,58.3z"/>
	 						<path d="M130.4,59.1c-0.6-0.2-0.6-0.7-0.6-0.7l-0.1,0c0,0-0.1,0.7-0.6,0.9L130.4,59.1z"/>
	 						<path d="M129.3,58.3c-0.3,0.2-0.8,0.3-0.5-0.9C127.4,59.1,129.1,59.7,129.3,58.3z"/>
	 						<path d="M127.8,58.4c-0.1,0.2-0.5,0.2,0-0.8C126.7,59,127.7,60,127.8,58.4z"/>
	 						<path d="M153.3,58.6c-0.2,0.1-0.9,0.4-1.1-1.3C151.5,58.9,152.9,59.3,153.3,58.6z"/>
	 						<path d="M137.9,58.1c-0.2,0-1.1,0.1-1.2-1.4C136,58.3,137.5,58.8,137.9,58.1z"/>
	 						<path d="M139,57.7l-0.5,0c-0.1,0.6-0.5,0.8-0.5,0.8l1.7,0C139.1,58.2,139,57.7,139,57.7z"/>
	 						<path d="M140.6,58.1c-0.2,0-1.1,0.1-1.2-1.4C138.7,58.3,140.3,58.9,140.6,58.1z"/>
	 						<path d="M134.4,56.8c-0.9,1.6,0.6,2.2,1.1,1.4C135.3,58.2,134.4,58.4,134.4,56.8z"/>
	 						<path d="M151.2,58.4c-0.3,0.1-1,0.2-1.1-1.3C149.5,58.7,150.9,59.1,151.2,58.4z"/>
	 						<path d="M134,57.9l-0.4,0c0,0.6-0.4,0.8-0.4,0.8l1.3-0.1C134,58.5,134,57.9,134,57.9z"/>
	 						<path d="M137,58.5c-0.5-0.2-0.6-0.7-0.6-0.7l-0.4,0c0,0.5-0.4,0.7-0.5,0.8L137,58.5z"/>
	 						<path d="M145.4,58.5c0,0-0.4-0.2-0.5-0.8l-0.5,0c0,0-0.1,0.5-0.6,0.8L145.4,58.5z"/>
	 						<path d="M142,57.7h-0.8c-0.1,0.6-0.5,0.8-0.5,0.8h1.7C142.5,58.5,142.1,58.3,142,57.7z"/>
	 						<path d="M146.5,58c-0.2,0-1,0.2-1.1-1.4C144.7,58.3,146.2,58.8,146.5,58z"/>
	 						<path d="M147.8,58.6c-0.1-0.1-0.5-0.3-0.5-0.8l-0.4,0c0,0-0.1,0.5-0.6,0.7L147.8,58.6z"/>
	 						<path d="M143.8,58c-0.2,0-1,0.2-1.1-1.4C141.9,58.2,143.5,58.7,143.8,58z"/>
	 						<path d="M149,58.2c-0.2,0-1,0.2-1.1-1.3C147.2,58.4,148.6,58.9,149,58.2z"/>
	 						<polygon points="76,170.3 74.8,171.7 73.1,171.1 74.1,172.5 73,173.9 74.8,173.4 75.9,174.9 75.9,173.1 77.7,172.6 76,172.1 
	 													"/>
	 						<polygon points="84.4,173.5 83.1,174.8 81.4,174.1 82.3,175.6 81.1,176.9 83,176.5 83.9,178 84.1,176.3 85.9,175.9 
	 							84.2,175.2 						"/>
	 						<polygon points="92.1,177.2 90.8,178.5 89.1,177.8 90.1,179.3 88.8,180.6 90.7,180.2 91.6,181.7 91.8,180 93.6,179.6 
	 							91.9,178.9 						"/>
	 						<polygon points="207.3,173.1 207.4,174.9 208.5,173.4 210.3,173.9 209.1,172.5 210.2,171.1 208.4,171.7 207.3,170.3 
	 							207.3,172.1 205.5,172.6 						"/>
	 						<polygon points="199.2,176.3 199.4,178 200.3,176.5 202.2,176.9 200.9,175.6 201.9,174.1 200.2,174.8 198.9,173.5 
	 							199.1,175.2 197.3,175.9 						"/>
	 						<polygon points="191.5,180 191.6,181.7 192.6,180.2 194.5,180.6 193.2,179.3 194.2,177.8 192.5,178.5 191.2,177.2 
	 							191.4,178.9 189.6,179.6 						"/>
	 						<polygon points="101.7,136.4 97.3,144.2 102.1,144.2 						"/>
	 						<path d="M55.1,157c1.6,0,3.2-0.2,4.4-0.3H99l-6.1,8.1c-1.8,2.4-0.9,5.1-0.9,5.1c-9-4.4-25.4-9.2-25.4-9.2V180
	 							c19.8,6.5,21.3,10.5,25.8,10.5c2.3,0,3.7-1.1,3.7-1.1l7.8-6.2l0,1.7c0,0-2.6,1.6-2.6,3.7v2.3c0,0-0.4,0.6-0.4,1.6
	 							c0,6,19,10.8,40.8,10.8c21.8,0,40.8-4.8,40.8-10.8c0-1-0.4-1.6-0.4-1.6v-2.3c0-2.2-2.6-3.7-2.6-3.7l0-1.7l7.8,6.2
	 							c0,0,1.3,1.1,3.7,1.1c4.5,0,6.1-3.9,25.9-10.5v-19.3c0,0-16.4,4.8-25.4,9.2c0,0,1-2.6-0.9-5.1l-6.1-8.1h38.2
	 							c1.2,0.2,2.6,0.3,4.3,0.3c7.4,0,12.8-3.2,14.2-8.5c0.8-3.2,0-5.5-1.4-7.3l4.7-9.8c0,0-4.3-3-11-3c-1.3,0-2.5,0.1-3.6,0.3H193
	 							l0.3-1.3c3.8-0.4,6.8-2.7,7.6-5.8c0.9-3.7-1.6-7.6-7.4-7.6h-13.7c0,0-0.6-0.3-1.6-0.7l-0.1-4.4c0.9-2.5-0.8-3.8-0.8-3.8
	 							c-1-6-9.8-7.3-9.8-7.3c-0.5-3.2-3.2-4.3-3.2-4.3c1.2-1.3,0-2.9,0-2.9v-6.5c0-2.4-3.1-4-3.1-4s0.6-0.6,0.6-2.7v-7.2
	 							c0-1.7-2.6-3.5-2.6-3.5l0-4.6l-0.6-2.4c0.5-3.4-5.9-5.3-5.9-5.3l0.3-0.4c6.1-2.3,14.5-6.7,14.5-23.4c0,0,0.4-0.6,0.4-1.4v-1.7
	 							c0-3.9-11.8-5.7-26.5-5.7s-26.5,1.8-26.5,5.7v1.7c0,0.8,0.4,1.4,0.4,1.4c0,16.7,8.4,21.2,14.5,23.4l0.3,0.4
	 							c0,0-6.4,1.9-5.9,5.3l-0.6,2.4l0,4.6c0,0-2.6,1.8-2.6,3.5v7.2c0,2.1,0.7,2.7,0.7,2.7s-3.1,1.6-3.1,4v6.5c0,0-1.2,1.6,0,2.9
	 							c0,0-2.7,1-3.2,4.3c0,0-8.8,1.3-9.8,7.3c0,0-1.7,1.3-0.8,3.8l-0.1,5.1h-3.6c0,0-2.9-1.8-7.1-1.8c-6.2,0-9.2,3.1-9.9,5.8
	 							c-0.4,1.6-0.3,2.8,0.2,3.9l-3.8,6.8l-16.1,0c-1.1-0.2-2.5-0.3-4-0.3c-11.5,0-18.4,6.8-20.1,13.4C38.8,148.9,42.8,157,55.1,157
	 							z M92.3,153.1l-0.6-1.1c-0.9,0-2.5,0-4,0l-1.8,1.1l9-15l1.9-3.2c1.1-1.9-0.6-2.5-0.6-2.5h1.9h8.8l1.9,20.7l-1.3-1.1
	 							c-1.5,0-3.1,0-4,0l-1.1,1.1l-0.2-4.9l1.1-1.1h-8.9l0.6,1.1L92.3,153.1z M117.8,117.7h5.1l2.1,5.3l1.3-5.3h3.4l-2.4,9.4h-3.6
	 							l-2.3-5.8l-1.5,5.8h-3.4l1.8-7.2C118.8,118.5,117.8,117.7,117.8,117.7z M138,124.9l-1.3,2.2h-8l2.4-9.4h3.4l-1.8,7.2H138z
	 							 M125.2,132.4l0.8,13.5l7.8-13.5h9.6l-5.3,20.7l-0.8-1.1c-1.2,0-3,0-4.2,0l-1.4,1.1l4-15.4l-8.3,15.4l-0.6-1.1
	 							c-1.1,0-3.6,0-4.7,0l-1.1,1.1l-0.4-15.4l-4,15.4l-0.8-1.1c-1.2,0-3,0-4.2,0l-1.4,1.1l3.8-15l0.8-3.2c0.5-1.9-1.5-2.5-1.5-2.5
	 							h2.1H125.2z M139.3,117.7h12.4l1.5,3.4l3.3-3.4h3.6l-5.7,5.6l-1,3.8H150l1-3.8l-2.4-5.3l-0.5,1.9h-4.8l-0.4,1.5h4.5l-0.6,2.2
	 							h-4.5l-0.3,1.3h5.8l-1.3,2.2H138l1.8-7.2C140.3,118.5,139.3,117.7,139.3,117.7z M170.5,125.9c2,0,3.2-0.4,3.2-0.4l0.3,2.3
	 							c0,0-1.7,0.6-4.4,0.6c-6,0-7.8-3.5-7.1-6.2c0.8-3,3.5-6.2,10-6.2c2.3,0,3.6,0.5,3.6,0.5l-1.3,2.2c0,0-1-0.3-2.7-0.3
	 							c-3.7,0-5.2,1.9-5.7,3.8C166.1,123.3,166.4,125.9,170.5,125.9z M166.7,152.1c-1.2,0-3,0-4.2,0l-1.4,1.1l3.8-15l0.8-3.2
	 							c0.5-1.9-1.5-2.5-1.5-2.5h2.1h6.4l-5.3,20.7L166.7,152.1z M162.8,139.2c-1,3.7-4.8,6.8-8.7,6.8H149l-1.8,7.2l-0.8-1.1
	 							c-1.2,0-3,0-4.2,0l-1.4,1.1l3.8-15l0.8-3.2c0.5-1.9-1.5-2.5-1.5-2.5h2.1h11.5C161.4,132.4,163.7,135.4,162.8,139.2z
	 							 M112.6,127.1l-0.2-2.2h-3.2l-1.2,2.2h-3.7l6.1-9.4h4.3l1.4,9.4H112.6z M102.1,178.8l-8.1,6.4c0,0-0.5,0.4-1.6,0.4
	 							c-2.7,0-3.6-2.9-22.3-9.4v-10.7c22,6.8,26.7,11.6,29.5,11.6c2.8,0,2.2-2.1,2.2-2.1S103.8,177.4,102.1,178.8z M102.1,188.6
	 							c0-1,0.6-1.9,1.6-2.8c-0.7,0.8-1.1,1.6-1.1,2.5c0,2.6,3.5,5,9.3,6.8C105.8,193.4,102.1,191.1,102.1,188.6z M105.9,186l0.1-9.6
	 							c0.3,0.1,0.8,0.3,1.5,0.5l-0.2,10.1c0,2.7,3.8,3.6,3.8,3.6s-1.2-1-1.2-2.7l0.2-10.3c5.6,1.6,16.5,3.9,31.5,3.9
	 							c20.7,0,33.4-4.4,35.6-5.1l0.1,9.6c3.1,3.1-5.6,9.7-35.7,9.7C111.5,195.7,102.9,189,105.9,186z M180.7,188.3
	 							c0-0.9-0.4-1.7-1.1-2.5c1,0.9,1.6,1.8,1.6,2.8c0,2.5-3.7,4.8-9.8,6.5C177.2,193.3,180.7,190.9,180.7,188.3z M213.1,165.5v10.7
	 							c-18.7,6.6-19.6,9.4-22.3,9.4c-1,0-1.6-0.4-1.6-0.4l-8.1-6.4c-1.7-1.4,0.4-3.8,0.4-3.8s-0.7,2.1,2.2,2.1
	 							C186.4,177.1,191.1,172.3,213.1,165.5z M187.6,167c1.2,1.6-0.5,3.6-0.5,3.6c0.5-1.2-0.8-3.1-3.4-1.9c-8.8,4.1-22.2,8-42,8
	 							c-19.8,0-33.2-3.9-42-8c-2.6-1.2-3.9,0.7-3.4,1.9c0,0-1.7-2-0.5-3.6l7.4-9.9c0.4-0.5,1.6-1.1,3.4-0.1
	 							c3.4,1.9,12.8,7.3,35.1,7.3c22.3,0,31.7-5.4,35.1-7.3c1.8-1,3-0.4,3.4,0.1L187.6,167z M222.8,137.8c1-3.8,5.6-5.7,10.5-5.7
	 							c4.3,0,6.3,1,6.3,1l-2.1,4.4c0,0-1.4-1.4-4.3-1.4c-2.3,0-3.9,1.1-4.1,1.9c-0.7,2.8,10.2,2.8,8.4,9.7
	 							c-0.9,3.6-5.2,5.8-10.7,5.8c-5.2,0-7.6-1.5-7.6-1.5l2.2-4.3c0,0,2.5,1.8,6,1.8c1.5,0,3.5-0.9,3.8-2
	 							C232,144.5,221,144.6,222.8,137.8z M201.2,132.4h6.4l5.1,11.6l1.5-5.9l0.8-3.2c0.5-1.9-1.5-2.5-1.5-2.5h2.1h6.4l-5.3,20.7
	 							l-0.8-1.1c-1.3,0-3.9,0-4.7,0l-0.9,1.1l-5.1-11.6l-3,11.6l-0.8-1.1c-1.2,0-3,0-4.2,0l-1.4,1.1l3.8-15l0.8-3.2
	 							c0.5-1.9-1.5-2.5-1.5-2.5H201.2z M196.6,142.8c-0.4,1.5-0.9,3-1.7,4.3c-2.2,3.8-6.3,6.4-13.2,6.4c-7.6,0-10.1-3.2-9.9-7.6
	 							c0-1,0.2-2,0.5-3.1c1.5-5.9,5.6-10.7,14.9-10.7C196.5,132.1,198.1,136.9,196.6,142.8z M193.6,117.7c2.6,0,4.4,1.2,3.9,3.2
	 							c-0.5,1.9-2.9,3.2-5.6,3.2h-1.4l-0.8,3.1h-3.4l2.4-9.4H193.6z M180.1,117.7l-1.5,5.9c-0.3,1.1,0.5,1.4,1.6,1.4
	 							c1.1,0,2.1-0.3,2.4-1.4l1.5-5.9h3.4l-1.5,5.9c-0.8,3-3.3,3.7-6.3,3.7c-3,0-5.2-0.7-4.4-3.7l1.5-5.9H180.1z M125.3,25.1
	 							c0.5-0.1,1-0.1,1.6-0.2c3.3-0.4,7.6-0.7,13.1-0.8c0.6,0,1.1,0,1.7,0c5.4,0,9.7,0.2,13,0.6c1.4,0.1,2.6,0.3,3.7,0.5
	 							c1.5,0.2,2.7,0.5,3.7,0.8c1.2,0.3,2,0.6,2.6,0.9c0.8,0.4,1.2,0.7,1.3,0.9V29c-0.1-0.2-0.5-0.6-1.3-0.9
	 							c-0.6-0.3-1.5-0.6-2.7-0.9c-1-0.3-2.2-0.5-3.6-0.7c-1.1-0.2-2.3-0.3-3.6-0.5c-3.4-0.4-7.7-0.6-13.2-0.6c-0.7,0-1.3,0-1.9,0
	 							c-5.4,0.1-9.6,0.3-12.8,0.7c-0.6,0.1-1.1,0.1-1.6,0.2c-1.6,0.2-2.9,0.5-4,0.8l-0.1-1.2C122.4,25.6,123.7,25.3,125.3,25.1z
	 							 M117.2,29v-1.2c0.1-0.2,0.6-0.6,1.5-1l0.1,1.2C117.8,28.3,117.3,28.7,117.2,29z M117.6,30.3c0-1,0.3-1.2,0.9-1.5
	 							c0.1-0.1,0.3-0.1,0.5-0.2l0.1,1.4c0,0,1-0.9,2.5-0.7l-0.1-1.5c1.1-0.3,2.4-0.5,4-0.8c0.5-0.1,1-0.1,1.6-0.2
	 							c3.2-0.4,7.3-0.7,12.6-0.7c0.6,0,1.3,0,2,0c5.5,0,9.8,0.2,13.2,0.6c1.3,0.1,2.5,0.3,3.6,0.5c1.4,0.2,2.6,0.5,3.6,0.7
	 							c1.2,0.3,2,0.6,2.7,0.9c0,0,0.1,0,0.1,0c0.6,0.3,0.9,0.5,0.9,1.5c0,0.6,0,1.2,0,1.8c-0.3-0.5-0.6-1-1.1-1.4
	 							c-0.6-0.6-1.5-1-2.5-1c0,0-0.1,0-0.1,0c-1.3,0-2.2,0.8-2.7,1.3c-0.2-0.2-0.4-0.4-0.8-0.7c-0.8-0.6-1.9-1.2-3.5-1.5
	 							c-0.4-0.1-0.9-0.1-1.3-0.1c-2.9,0-4.6,1.3-5.3,2c-0.9-0.8-3.1-2.3-6.6-2.3c-0.8,0-1.5,0.1-2.1,0.2c-2.3,0.4-3.8,1.5-4.5,2.1
	 							c-0.7-0.7-2.5-2-5.3-2c-0.9,0-1.8,0.1-2.5,0.4c-0.6,0.2-1.1,0.4-1.5,0.7c-0.7,0.4-1.2,0.9-1.6,1.2c-0.5-0.6-1.5-1.3-2.9-1.3
	 							c-1.9,0-3,1.3-3.6,2.4C117.6,31.5,117.6,30.9,117.6,30.3z M117.7,33.4c0.2-0.6,0.6-1.5,1.4-2.3c0.1,7.3,2,11.1,2,11.1
	 							c0-1.4-0.7-2.7,0.2-2.7c0.4,0,0.6,0.6,0.6,0.6s0.1-0.2,0.4-0.2c0,0-0.7-2.6-1.1-9.6c0,0,0,0,0,0c1.8,0,2.9,1.6,2.9,1.6
	 							s0.5-0.8,1.6-1.5c0.4-0.3,0.9-0.5,1.5-0.7c0.7-0.2,1.5-0.4,2.4-0.4c3.7,0,5.3,2.3,5.3,2.3s1.5-1.7,4.5-2.3
	 							c0.6-0.1,1.4-0.2,2.1-0.2c4.5,0,6.7,2.5,6.7,2.5s1.6-2.3,5.3-2.3c0.5,0,0.9,0,1.3,0.1c1.4,0.2,2.4,0.8,3.1,1.3
	 							c0.8,0.6,1.2,1.2,1.2,1.2s0.8-1.2,2.2-1.6c0.2-0.1,0.4-0.1,0.7-0.1c1.1,0,1.9,0.6,2.5,1.3c0.6,0.7,0.9,1.4,1.1,1.9
	 							c-1,14.5-8.8,17.2-13.5,19c0,0-0.1-0.1-0.4-0.3c2.3-2.1,9.7-3.6,12.1-10.6c-3.9,6.7-8,6.8-13,10.1c-0.2-0.1-0.3-0.1-0.5-0.2
	 							c3.9-3.1,10-4.4,12.2-9.5c-2.9,4.8-6.9,5.1-12.9,9.3c-0.2-0.1-0.4-0.1-0.7-0.2c3.1-3,9.2-3.2,11.8-9.5
	 							c-3.9,6.3-8.3,5.2-12.7,9.4c-0.2,0-0.4-0.1-0.6-0.1c3.9-4.1,8.8-3.3,10.7-10.2c-3.6,6.9-6.5,4.8-11.9,10c-0.2,0-0.5,0-0.7-0.1
	 							c3-4.4,9.6-3.3,10.3-12.1c-2.8,8.7-8.3,6.9-11.9,12c-0.2,0-0.5,0-0.8,0c2.7-5,9.1-4.2,10-13.3c-2.7,9.7-8.6,7.3-11.9,13.3
	 							c-0.3,0-0.6,0-0.9,0c1.5-4.6,10.4-6.5,9.2-13c-0.4,6.6-8.2,7-10.7,13.1c-0.2,0-0.4,0-0.6,0c1.7-5.1,6.5-6.2,7-11.7
	 							c-1.7,5.5-7,6.8-8.3,11.8c-0.2,0-0.4,0-0.6,0.1c0.9-4.9,4-5.8,4.6-10.6c-1.5,4.9-5,4.9-6.4,10.8c-0.3,0.1-0.5,0.1-0.8,0.2
	 							c-0.8-4.7,3-3.9,3.4-11.2c-1.3,6.9-6,6-4.7,11.6c-1.2,0.4-1.4,0.8-1.4,0.8C126.5,50.7,118.7,47.9,117.7,33.4z M134.5,51.9
	 							v-0.3c0.2,0,0.5-0.1,0.8-0.1c0.4-0.1,0.8-0.1,1.3-0.2c0.5-0.1,1.1-0.1,1.7-0.1c1-0.1,2.2-0.1,3.4-0.1c2,0,3.7,0.1,5.1,0.2
	 							c0.6,0.1,1.2,0.1,1.7,0.2c2,0.3,3.1,0.8,3.1,1.3c0,0-0.9-0.4-3.1-0.8c-0.5-0.1-1.1-0.2-1.7-0.2c-1.4-0.1-3-0.2-5.1-0.2
	 							c-1.3,0-2.4,0-3.4,0.1c-0.6,0-1.2,0.1-1.7,0.1c-0.5,0-0.9,0.1-1.3,0.2c-2.5,0.4-3.5,0.9-3.5,0.9c0-0.3,0.5-0.6,1.3-0.9v0.2
	 							L134.5,51.9z M132.5,53.7c0,0,3.3-0.9,9.1-0.9c5.8,0,9.1,0.9,9.1,0.9c-2.2,3.2,6,2.3,6,5.5l-0.1-0.1c-0.1,0.5-0.6,0.4-0.6-0.2
	 							c0,0.7-0.9,0.7-0.9,0l-0.2,0c-0.1,0.5-0.5,0.4-0.5,0.4s1.3,0.2,2.1,0.5l-0.3,0.2c0,0-1.2-0.4-4.1-0.8
	 							c-0.8-0.1-1.8-0.2-2.9-0.3c-2-0.2-4.5-0.3-7.6-0.3c-1.6,0-3,0-4.3,0.1c-0.7,0-1.3,0.1-1.9,0.1c-0.8,0-1.5,0.1-2.2,0.2
	 							c-4.4,0.4-6.2,1-6.2,1l-0.3-0.2c0.8-0.3,2.1-0.5,2.1-0.5c-0.6-0.1-0.6-0.7-0.6-0.7l-0.1,0c0,1-0.9,0.9-0.9,0.2
	 							c0,0.5-0.5,0.7-0.6,0.2l-0.2,0.1C126.5,56,134.7,56.9,132.5,53.7z M126.2,61.1c0,0,0.2-0.3,1.5-0.6v0.9
	 							c0.7-0.2,1.6-0.3,2.8-0.5v-1c0.8-0.1,1.7-0.2,2.7-0.3c0.7,0,1.4-0.1,2.2-0.1c0.6,0,1.2-0.1,1.9-0.1c1.3,0,2.7-0.1,4.3-0.1
	 							c3.1,0,5.6,0.1,7.6,0.2c1.1,0.1,2.1,0.2,2.9,0.3c4.4,0.5,4.9,1.3,4.9,1.3v1c0,0-1-0.6-4.9-1c-0.8-0.1-1.8-0.2-2.9-0.3
	 							c-2-0.1-4.5-0.2-7.6-0.2c-1.6,0-3,0-4.3,0.1c-0.7,0-1.3,0-1.9,0.1c-0.8,0-1.5,0.1-2.2,0.1c-5.7,0.4-7,1.2-7,1.2V61.1z
	 							 M125.9,63.2c0-0.2,0.5-0.5,1.4-0.7l0,4c0.5-0.1,1.2-0.2,2.1-0.2l0-3.5c0-0.4,0.3-0.7,0.5-0.8c0.9-0.1,1.9-0.2,3-0.3
	 							c0.8-0.1,1.6-0.1,2.6-0.2c0.6,0,1.3-0.1,2-0.1c1.3,0,2.6-0.1,4.1-0.1c3,0,5.5,0.1,7.6,0.2c1.1,0.1,2.1,0.1,2.9,0.2
	 							c3.6,0.4,5.2,0.9,5.2,1.3l0,4.3c0,0-1-0.4-5.3-0.6c-0.8-0.1-1.8-0.1-2.9-0.1c-2-0.1-4.5-0.1-7.6-0.1c-1.6,0-3,0-4.3,0
	 							c-0.7,0-1.4,0-2,0c-1.7,0-3.1,0.1-4.2,0.2c-4.2,0.3-5.2,0.6-5.2,0.6L125.9,63.2z M125.8,68.2c0,0,0.4-0.1,1.6-0.2
	 							c-1,0.7-1.7,1.4-2,1.6c0.6-0.1,1.4-0.1,2.3-0.2c0.2-0.2,0.9-0.9,1.9-1.6c0.5,0,1.1-0.1,1.8-0.1c1.1-0.1,2.4-0.1,3.9-0.1
	 							c0.6,0,1.2,0,1.9,0c1.3,0,2.8,0,4.4,0c3.2,0,5.7,0,7.8,0.1c1.2,0,2.2,0.1,3.1,0.1c4,0.2,5,0.5,5,0.5s2,1,2.8,2.4
	 							c0,0-1.2-0.3-5.4-0.5c-0.9-0.1-2-0.1-3.2-0.2c-2.6-0.1-5.9-0.2-10.1-0.2c-1.9,0-3.7,0-5.2,0c-0.6,0-1.3,0-1.8,0
	 							c-2.4,0.1-4.3,0.1-5.8,0.2c-4.4,0.2-5.7,0.6-5.7,0.6C123.8,69.2,125.8,68.2,125.8,68.2z M126.9,76.6v-5.9c0.5,0,1-0.1,1.6-0.1
	 							c1.6-0.1,3.6-0.1,6-0.2c0.6,0,1.2,0,1.8,0c1.6,0,3.3,0,5.3,0c4.2,0,7.6,0.1,10.2,0.2c1.2,0,2.2,0.1,3.1,0.1
	 							c3.5,0.2,5,0.4,5,0.4v6.7c0,0-0.9-0.2-5-0.4c-0.9,0-1.9-0.1-3.1-0.1c-2.6-0.1-5.9-0.1-10.2-0.1c-2,0-3.7,0-5.3,0
	 							c-0.6,0-1.3,0-1.8,0c-2.5,0-4.5,0.1-6,0.2c-4.3,0.2-5.2,0.4-5.2,0.4V71c0,0,0.4-0.1,1.4-0.1v6L126.9,76.6z M123.8,79
	 							c0,0,0.5,0,1.4-0.1c1.7,3.3-2.6,3-2.9,5.3l2.8-0.1c0.5-1.8,4-1.5,2.2-5.3c0.4,0,0.9-0.1,1.4-0.1c1.7-0.1,3.7-0.2,6-0.3
	 							c0.6,0,1.2,0,1.8-0.1c1.6,0,3.3-0.1,5.1-0.1c3.6,0,7.2,0.1,10.1,0.2c1.1,0.1,2.1,0.1,3,0.2c2.9,0.2,4.7,0.3,4.7,0.3
	 							c-2,3.5,3,2.4,3,6c0,0-2.1-0.1-6.2-0.2c-1,0-2.2,0-3.4-0.1c-3.1-0.1-6.8-0.1-11.2-0.1c-2.2,0-4.2,0-6,0c-0.6,0-1.2,0-1.8,0
	 							c-2.4,0-4.5,0.1-6.3,0.1c-4.3,0.1-6.6,0.2-6.6,0.2C120.9,81.3,125.9,82.4,123.8,79z M120.9,85.7c0,0,0.5,0,1.3,0v5.2l2.7-0.1
	 							v-5.2c0.8,0,1.6,0,2.6,0c1.8,0,4,0,6.3,0c0.6,0,1.2,0,1.9,0c1.9,0,3.9,0,6,0c4.1,0,7.9,0,11.2,0c1.2,0,2.4,0,3.4,0
	 							c3.8,0,6.2,0.1,6.2,0.1v6c0,0-2.3-0.1-6.2-0.1c-1,0-2.2,0-3.4,0c-3.1,0-6.9-0.1-11.2-0.1c-2.1,0-4.1,0-6,0c-0.6,0-1.3,0-1.9,0
	 							c-2.4,0-4.5,0-6.3,0.1c-4.2,0.1-6.6,0.1-6.6,0.1V85.7z M121.4,93c0,0,0.5,0,1.5,0c1.2,3.4-4,2.1-4,4.9c0.6,0,1.5,0.1,2.7,0.1
	 							c0-3,5.4-1.5,4-5.1c1,0,2.2,0,3.6-0.1c1.4,0,3,0,4.8,0c0.6,0,1.3,0,1.9,0c1.7,0,3.7,0,5.8,0c5.6,0,9.9,0,13.1,0.1
	 							c1.1,0,2,0,2.8,0c3,0.1,4.3,0.1,4.3,0.1c-1.4,3.5,4.1,1.3,3.9,5.4c0,0-1.7,0.2-6.3,0.3c-1,0-2.1,0.1-3.4,0.1
	 							c-3.6,0.1-8.3,0.1-14.4,0.1c-2.6,0-4.9,0-6.9,0c-0.7,0-1.3,0-1.9,0c-2,0-3.8-0.1-5.3-0.1c-7.4-0.2-9.9-0.4-9.9-0.4
	 							C117.4,94.3,122.8,96.5,121.4,93z M106.9,107.3c5,0.5,8.3,0.5,10.3,0.4c1.8-0.1,2.5-0.3,2.5-0.3c-0.9,0-1.7-0.1-2.5-0.1
	 							c-6.9-0.4-9.5-0.9-9.5-0.9c0.6-5.9,9.7-6.6,9.7-6.6s0.8,0.3,8.6,0.5c3.6,0.1,8.6,0.1,15.7,0.1c5.6,0,10,0,13.3-0.1
	 							c1.5,0,2.8-0.1,3.9-0.1c6.3-0.2,7-0.4,7-0.4s9.1,0.7,9.7,6.6c0,0,0.7,0.3,0.8,1c0.1,0.3,0,0.7-0.3,1.2c0,0-3.4,0.6-14.5,1
	 							c0,0,3.8,0.5,7.4,0.5c1.1,0,2.1,0,3.1-0.1c2.8-0.2,4-0.4,4-0.4l0,3.3c-1.1-0.3-2.4-0.5-3.8-0.5c-1,0-1.9,0.1-2.8,0.2
	 							c-2.1,0.3-3.7,0.9-5.1,1.6h-47.4h-6l0.1-4.3c1.8,0.2,4,0.1,6,0c2.5-0.2,4.5-0.4,4.5-0.4c-1.7-0.1-3.1-0.1-4.5-0.2
	 							c-7.6-0.4-10-0.8-10-0.8C106.8,108,106.8,107.6,106.9,107.3z M107.1,109.5c0,0,0.5,0.1,1.5,0.2l-0.1,4.5H107L107.1,109.5z
	 							 M108.6,117.7l-1.1,2.2h-3l-1.8,7.2h-3.4l1.8-7.2h-3.5l1.1-2.2H108.6z M86.9,125.1c0,0,1.5,0.8,3.8,0.8c1.1,0,2.2-0.4,2.4-1.1
	 							c0.5-2-6.4-1.7-5.4-5.8c0.4-1.4,2.4-3.1,6.5-3.1c2.4,0,3.8,0.6,3.8,0.6l-1.2,2.3c0,0-1.2-0.6-3-0.6c-1.3,0-2.2,0.4-2.4,0.9
	 							c-0.5,1.8,6.4,1.7,5.4,5.8c-0.5,2.1-3.3,3.3-6.5,3.3c-3.3,0-4.8-0.9-4.8-0.9L86.9,125.1z M69,132.4h6.4l-2.1,8.4h8.1l0.7-2.6
	 							l0.8-3.2c0.5-1.9-1.5-2.5-1.5-2.5h2.1h6.4l-5.3,20.7l-0.8-1.1c-1.2,0-3,0-4.2,0l-1.4,1.1l2.1-8.4l1.4-1.1H71.4l0.8,1.1
	 							l-2.1,8.4l-0.8-1.1c-1.2,0-3,0-4.2,0l-1.4,1.1l3.8-15l0.8-3.2c0.5-1.9-1.5-2.5-1.5-2.5H69z M44,142.8c0.2-0.6,0.4-1.3,0.7-1.9
	 							c2.1-4.5,7.5-8.8,15.9-8.8c2.8,0,5.3,0.6,5.3,0.6l-1.1,4.2c0,0-1.6-0.8-4.6-0.8c-2.4,0-6.3,1-8.5,3.9
	 							c-0.6,0.8-1.1,1.7-1.4,2.8c-1.3,5.1,3.4,6.7,6.4,6.7c3,0,5.1-0.8,5.1-0.8l-1.1,4.2c0,0-2.8,0.6-5.6,0.6
	 							C45.5,153.5,42.7,147.9,44,142.8z"/>
	 						<path d="M178.7,142.8c-0.9,3.7-0.3,6.7,4.1,6.7c4.3,0,6.5-3,7.5-6.7c0.9-3.7,0.3-6.7-4.1-6.7
	 							C181.9,136.1,179.7,139.1,178.7,142.8z"/>
	 						<path d="M194.2,120.9c0.1-0.5-0.2-0.9-0.7-0.9h-1.8l-0.5,1.9h1.8C193.5,121.8,194,121.4,194.2,120.9z"/>
	 						<path d="M154.3,136.4h-2.8l-1.4,5.5h2.8c1.6,0,3.1-1.2,3.5-2.8C156.8,137.7,155.9,136.4,154.3,136.4z"/>
	 						<polygon points="110.4,123 112.3,123 112.1,119.9 						"/>
	 					</g>
	 				</g>
	 			</g>
	 			<g>
	 				<path d="M186.4,194.3h2.8v0.5h-1.1v2.9h-0.6v-2.9h-1.1V194.3z"/>
	 				<path d="M189.3,194.3h0.8l0.9,2.7h0l0.9-2.7h0.8v3.4h-0.6v-2.6h0l-1,2.6h-0.5l-1-2.6h0v2.6h-0.6V194.3z"/>
	 			</g>
	 		</g>
	 		<g>
	 			<g>
	 				<path fill="#FFFFFF" d="M118.3,191.6c0-5.4,2.5-7.4,3-12.5c-0.7,4.5-3.7,8.1-3.7,12.5c0,1.7,0.2,3.2,0.7,4.6
	 					c1.9,6.2,7.4,9.6,12.8,11C122.8,205.1,118.3,198.2,118.3,191.6z"/>
	 				<path fill="#FFFFFF" d="M163.9,184.5c-1-2.4-2.1-4.6-2.1-7.3c0,6.6,3.1,8.4,3.1,14.4c0,6.6-4.5,13.6-12.8,15.6
	 					c7.5-1.9,13.4-7.3,13.4-15.6C165.6,188.8,164.8,186.6,163.9,184.5z"/>
	 			</g>
	 			<g>
	 				<path fill="#D1D3D3" d="M162.8,165.5c-1.7-0.5-2.9-1.8-3.7-3.8l-1.7-4.7l-0.8,3c1.6,7.3,7.6,7.8,7.6,7.8l2.4-1.1L162.8,165.5z"
	 					/>
	 				<path fill="#D1D3D3" d="M134.5,192l-3.1-4.8l-3.5,2.6c0,0,1.2,0,1.2,1.3v9.1l2.5-1.8v-6.4l2.8,4.3l2.6-2V183l-2.5,1.8V192z"/>
	 				<path fill="#D1D3D3" d="M144.5,181.5l-2.8,2.1v-4.2l-3.7,2.8c0,0,1.2,0,1.2,1.3v9.1l2.5-1.9v-4.1l2.8-2.1v4.1l2.4-1.8v-11.3
	 					l-2.4,1.8V181.5z"/>
	 				<path fill="#D1D3D3" d="M151.5,180.5v-8.4l-3.7,2.8c0,0,1.2,0,1.2,1.3v9.1l7-5.2c-0.1-1.8,0-2.9,0-2.9L151.5,180.5z"/>
	 			</g>
	 			<g>
				
	 					<linearGradient id="SVGID_32_" gradientUnits="userSpaceOnUse" x1="12458.7568" y1="11216.8652" x2="12481.6123" y2="11216.8652" gradientTransform="matrix(0.2752 0 0 0.2752 -3312.6252 -2904.9141)">
	 					<stop  offset="0.1124" style="stop-color:#FFFFFF"/>
	 					<stop  offset="0.2375" style="stop-color:#DCDEE0"/>
	 					<stop  offset="0.4401" style="stop-color:#A7AEB2"/>
	 					<stop  offset="0.5393" style="stop-color:#939BA0"/>
	 				</linearGradient>
	 				<path fill="url(#SVGID_32_)" d="M119.6,177.2c0,6.4-3.1,7.7-3.1,14.4c0,2.1,0.3,4,1,5.7c0.2-0.4,0.5-0.8,0.8-1.1
	 					c-0.4-1.4-0.7-2.9-0.7-4.6c0-4.4,3-8.1,3.7-12.5c0.1-0.6,0.1-1.2,0.1-1.9c0-5.1-2.4-9.4-2.4-9.4l-2.4-1.1l1.7,3.8
	 					C119,172.2,119.6,174.6,119.6,177.2z"/>
	 				<linearGradient id="SVGID_33_" gradientUnits="userSpaceOnUse" x1="164.2739" y1="184.53" x2="164.2739" y2="166.6058">
	 					<stop  offset="0" style="stop-color:#FFFFFF"/>
	 					<stop  offset="0.3483" style="stop-color:#FFFFFF"/>
	 					<stop  offset="0.5618" style="stop-color:#939BA0"/>
	 					<stop  offset="1" style="stop-color:#939BA0"/>
	 				</linearGradient>
	 				<path fill="url(#SVGID_33_)" d="M161.8,177.2c0,2.7,1.1,4.9,2.1,7.3l1.3,0c-0.8-2-1.7-4-1.7-7.3c0-2.6,0.6-4.9,1.5-6.8l1.7-3.8
	 					l-2.4,1.1C164.3,167.8,161.8,172.1,161.8,177.2z"/>
	 				<linearGradient id="SVGID_34_" gradientUnits="userSpaceOnUse" x1="117.4764" y1="205.0481" x2="141.6203" y2="205.0481">
	 					<stop  offset="0.1517" style="stop-color:#FFFFFF"/>
	 					<stop  offset="0.2116" style="stop-color:#FAFAFA"/>
	 					<stop  offset="0.2856" style="stop-color:#EBECED"/>
	 					<stop  offset="0.3669" style="stop-color:#D2D5D7"/>
	 					<stop  offset="0.453" style="stop-color:#AFB5B8"/>
	 					<stop  offset="0.5112" style="stop-color:#939BA0"/>
	 				</linearGradient>
	 				<path fill="url(#SVGID_34_)" d="M139.7,209.2c-2-0.7-4.7-1-8.6-2c-5.4-1.4-10.9-4.8-12.8-11c-0.3,0.3-0.6,0.7-0.8,1.1
	 					c2.1,6,7.4,10.2,13.1,11.6c3.7,0.9,5.4,1,8.1,1.8c0.4,0.4,2.9,3.1,2.9,3.1v-2.6C141.6,211.2,140,209.4,139.7,209.2z"/>
	 				<linearGradient id="SVGID_35_" gradientUnits="userSpaceOnUse" x1="155.9449" y1="203.8289" x2="127.3207" y2="162.9493">
	 					<stop  offset="0" style="stop-color:#939BA0"/>
	 					<stop  offset="1.186224e-02" style="stop-color:#98A0A4"/>
	 					<stop  offset="0.1181" style="stop-color:#C1C5C7"/>
	 					<stop  offset="0.202" style="stop-color:#DADCDD"/>
	 					<stop  offset="0.2528" style="stop-color:#E3E4E5"/>
	 					<stop  offset="0.7528" style="stop-color:#E3E4E5"/>
	 					<stop  offset="0.8009" style="stop-color:#DBDDDE"/>
	 					<stop  offset="0.8752" style="stop-color:#C5C9CB"/>
	 					<stop  offset="0.9661" style="stop-color:#A2A9AD"/>
	 					<stop  offset="1" style="stop-color:#939BA0"/>
	 				</linearGradient>
	 				<path fill="url(#SVGID_35_)" d="M131.5,205.5c4.4,1.1,7.2,1.2,9.2,2.2c0,0,0.7,0.6,1,0.9c0.3-0.3,1-0.9,1-0.9
	 					c1.9-0.9,4.8-1.1,9.2-2.2c5.5-1.4,11.5-6.3,11.5-13.9c0-5.5-3.1-7.5-3.1-14.4c0-4.7,1.8-8.3,1.8-8.3s-4.1-0.8-6-6
	 					c0,0-2.7,2.5-6.4,2.5c-4.7,0-7.8-3.3-7.8-3.3s-3.1,3.3-7.8,3.3c-3.7,0-6.4-2.5-6.4-2.5c-1.9,5.2-6,6-6,6s1.8,3.6,1.8,8.3
	 					c0,6.9-3.1,8.9-3.1,14.4C120,199.2,126,204.1,131.5,205.5z M161.2,191.6c0,6.5-5.2,10.7-10,12c-3.5,0.9-7.7,1.3-9,2.1
	 					c-0.3,0.2-0.6,0.6-0.6,0.6s-0.4-0.4-0.6-0.6c-1.3-0.7-5.5-1.2-9-2.1c-0.1,0-0.3-0.1-0.4-0.1l27.3-20.5
	 					C159.8,186.2,161.2,188.4,161.2,191.6z M159.3,170c-0.6,1.7-1.2,4.2-1.2,7.2c0,1.2,0.1,2.3,0.2,3.3l-29.2,22
	 					c-3.7-1.9-6.9-5.5-7-10.5l33.6-25.2C156.8,168.4,158.2,169.4,159.3,170z M125.2,177.2c0-3-0.6-5.5-1.2-7.2
	 					c1.3-0.7,2.9-2,4.2-4.1c1.4,0.8,3.3,1.6,5.7,1.6c3.5,0,6.2-1.5,7.8-2.7c1.6,1.1,4.3,2.7,7.8,2.7c0.6,0,1.1,0,1.6-0.1l-28.6,21.5
	 					C123.2,185.6,125.2,182.9,125.2,177.2z"/>
	 				<linearGradient id="SVGID_36_" gradientUnits="userSpaceOnUse" x1="125.7917" y1="160.3059" x2="141.6203" y2="160.3059">
	 					<stop  offset="0.2472" style="stop-color:#FFFFFF"/>
	 					<stop  offset="0.3371" style="stop-color:#FAFAFA"/>
	 					<stop  offset="0.4481" style="stop-color:#EBECED"/>
	 					<stop  offset="0.57" style="stop-color:#D2D5D7"/>
	 					<stop  offset="0.699" style="stop-color:#AFB5B9"/>
	 					<stop  offset="0.7865" style="stop-color:#939BA0"/>
	 				</linearGradient>
	 				<path fill="url(#SVGID_36_)" d="M133.8,163.6c4.7,0,7.8-4,7.8-4v-2.5l-2.5,2.4c-1.3,1.2-3.3,2.3-5.3,2.3c-1.5,0-3-0.7-4.2-1.7
	 					l-3.8-3.2l0.8,3C126.6,159.9,130.2,163.6,133.8,163.6z"/>
	 				<linearGradient id="SVGID_37_" gradientUnits="userSpaceOnUse" x1="141.6203" y1="199.1757" x2="166.7378" y2="199.1757">
	 					<stop  offset="0.1966" style="stop-color:#FFFFFF"/>
	 					<stop  offset="0.3274" style="stop-color:#FAFBFB"/>
	 					<stop  offset="0.4732" style="stop-color:#EDEEEF"/>
	 					<stop  offset="0.6261" style="stop-color:#D7DADC"/>
	 					<stop  offset="0.7829" style="stop-color:#B8BDC0"/>
	 					<stop  offset="0.9326" style="stop-color:#939BA0"/>
	 				</linearGradient>
	 				<path fill="url(#SVGID_37_)" d="M165.6,191.6c0,8.3-5.9,13.8-13.4,15.6c-3.9,1-6.6,1.2-8.6,2c-0.3,0.2-1.9,2-1.9,2v2.6
	 					c0,0,2.5-2.7,2.9-3.1c2.7-0.8,4.4-0.9,8.1-1.8c7.4-1.9,14.1-8.4,14.1-17.4c0-3.2-0.7-5.2-1.5-7.1l-1.3,0
	 					C164.8,186.6,165.6,188.8,165.6,191.6z"/>
	 				<linearGradient id="SVGID_38_" gradientUnits="userSpaceOnUse" x1="141.6203" y1="160.3059" x2="157.4492" y2="160.3059">
	 					<stop  offset="0.2472" style="stop-color:#FFFFFF"/>
	 					<stop  offset="0.3371" style="stop-color:#FAFAFA"/>
	 					<stop  offset="0.4481" style="stop-color:#EBECED"/>
	 					<stop  offset="0.5701" style="stop-color:#D2D5D7"/>
	 					<stop  offset="0.6991" style="stop-color:#AFB5B8"/>
	 					<stop  offset="0.7865" style="stop-color:#939BA0"/>
	 				</linearGradient>
	 				<path fill="url(#SVGID_38_)" d="M149.4,163.6c3.6,0,7.2-3.7,7.2-3.7l0.8-3l-3.8,3.2c-1.3,1-2.7,1.7-4.2,1.7c-2,0-4.1-1-5.3-2.3
	 					l-2.5-2.4v2.5C141.6,159.6,144.7,163.6,149.4,163.6z"/>
	 				<linearGradient id="SVGID_39_" gradientUnits="userSpaceOnUse" x1="116.529" y1="162.3604" x2="126.5855" y2="162.3604">
	 					<stop  offset="0.3876" style="stop-color:#FFFFFF"/>
	 					<stop  offset="0.4672" style="stop-color:#FAFAFA"/>
	 					<stop  offset="0.5655" style="stop-color:#EBECED"/>
	 					<stop  offset="0.6735" style="stop-color:#D2D5D7"/>
	 					<stop  offset="0.7878" style="stop-color:#AFB5B8"/>
	 					<stop  offset="0.8652" style="stop-color:#939BA0"/>
	 				</linearGradient>
	 				<path fill="url(#SVGID_39_)" d="M126.6,159.9l-0.8-3l-1.7,4.7c-0.7,2-2,3.3-3.7,3.8l-3.9,1.1l2.4,1.1
	 					C119,167.8,125,167.2,126.6,159.9z"/>
	 			</g>
	 			<g>
	 				<path d="M118.9,177.2c0,6.2-3.1,7.6-3.1,14.4c0,9.9,7.6,16.3,14.7,18.1c3.6,0.9,4.7,0.9,7.9,1.7c0.3,0.3,3.3,3.5,3.3,3.5
	 					s3-3.3,3.3-3.5c3.2-0.8,4.3-0.9,7.9-1.7c7.1-1.8,14.7-8.3,14.7-18.1c0-6.8-3.1-8.2-3.1-14.4c0-2.2,0.5-4.4,1.4-6.5l2-4.6
	 					l-4.7-1.4c-1.4-0.4-2.5-1.5-3.2-3.3l-2.1-5.7l-4.7,3.9c-1.2,1-2.5,1.5-3.7,1.5c-1.7,0-3.5-0.8-4.8-2l-3-3l-3,3
	 					c-1.3,1.2-3.1,2-4.8,2c-1.2,0-2.5-0.5-3.7-1.5l-4.7-3.9l-2.1,5.7c-0.6,1.8-1.7,2.9-3.2,3.3l-4.7,1.4l2,4.6
	 					C118.4,172.8,118.9,175,118.9,177.2z M120.4,165.5c1.7-0.5,2.9-1.8,3.7-3.8l1.7-4.7l3.8,3.2c1.3,1,2.7,1.7,4.2,1.7
	 					c2,0,4.1-1,5.3-2.3l2.5-2.4l2.5,2.4c1.3,1.2,3.3,2.3,5.3,2.3c1.5,0,3-0.7,4.2-1.7l3.8-3.2l1.7,4.7c0.7,2,2,3.3,3.7,3.8l3.9,1.1
	 					l-1.7,3.8c-0.8,1.9-1.5,4.2-1.5,6.8c0,3.3,0.8,5.3,1.7,7.3c0.8,1.9,1.5,3.9,1.5,7.1c0,9-6.7,15.5-14.1,17.4
	 					c-3.7,0.9-5.4,1-8.1,1.8c-0.4,0.4-2.9,3.1-2.9,3.1s-2.5-2.7-2.9-3.1c-2.7-0.8-4.4-0.9-8.1-1.8c-5.7-1.5-11-5.7-13.1-11.6
	 					c-0.6-1.8-1-3.7-1-5.7c0-6.7,3.1-8,3.1-14.4c0-2.6-0.6-4.9-1.5-6.8l-1.7-3.8L120.4,165.5z"/>
	 				<path d="M131.6,203.5c0.1,0,0.3,0.1,0.4,0.1c3.5,0.9,7.7,1.3,9,2.1c0.3,0.2,0.6,0.6,0.6,0.6s0.4-0.4,0.6-0.6
	 					c1.3-0.7,5.5-1.2,9-2.1c4.8-1.2,10-5.5,10-12c0-3.2-1.4-5.4-2.3-8.6L131.6,203.5z"/>
	 				<path d="M122.4,188.8l28.6-21.5c-0.5,0.1-1.1,0.1-1.6,0.1c-3.5,0-6.2-1.5-7.8-2.7c-1.6,1.1-4.3,2.7-7.8,2.7
	 					c-2.3,0-4.3-0.8-5.7-1.6c-1.3,2.2-2.9,3.4-4.2,4.1c0.6,1.7,1.2,4.2,1.2,7.2C125.2,182.9,123.2,185.6,122.4,188.8z"/>
	 				<path d="M129.1,202.4l29.2-22c-0.2-1-0.2-2.1-0.2-3.3c0-3,0.6-5.5,1.2-7.2c-1.1-0.6-2.4-1.6-3.6-3.2L122,192
	 					C122.2,197,125.4,200.6,129.1,202.4z M151.5,172.1v8.4l4.4-3.3c0,0-0.1,1.1,0,2.9l-7,5.2v-9.1c0-1.3-1.2-1.3-1.2-1.3
	 					L151.5,172.1z M141.7,179.4v4.2l2.8-2.1v-4.2l2.4-1.8v11.3l-2.4,1.8v-4.1l-2.8,2.1v4.1l-2.5,1.9v-9.1c0-1.3-1.2-1.3-1.2-1.3
	 					L141.7,179.4z M131.4,187.2l3.1,4.8v-7.2l2.5-1.8v11.3l-2.6,2l-2.8-4.3v6.4l-2.5,1.8v-9.1c0-1.3-1.2-1.3-1.2-1.3L131.4,187.2z"
	 					/>
	 				<path d="M121.3,179.1c-0.5,5.1-3,7.2-3,12.5c0,6.6,4.5,13.6,12.8,15.6c3.9,1,6.6,1.2,8.6,2c0.3,0.2,1.9,2,1.9,2s1.7-1.8,1.9-2
	 					c2-0.7,4.7-1,8.6-2c8.3-2.1,12.8-9,12.8-15.6c0-6-3.1-7.9-3.1-14.4c0-5.1,2.4-9.4,2.4-9.4s-6-0.5-7.6-7.8c0,0-3.6,3.7-7.2,3.7
	 					c-4.7,0-7.8-4-7.8-4s-3.1,4-7.8,4c-3.6,0-7.2-3.7-7.2-3.7c-1.6,7.3-7.6,7.8-7.6,7.8s2.4,4.3,2.4,9.4
	 					C121.4,177.9,121.4,178.5,121.3,179.1z M121.4,168.9c0,0,4.1-0.8,6-6c0,0,2.7,2.5,6.4,2.5c4.7,0,7.8-3.3,7.8-3.3
	 					s3.1,3.3,7.8,3.3c3.7,0,6.4-2.5,6.4-2.5c1.9,5.2,6,6,6,6s-1.8,3.6-1.8,8.3c0,6.9,3.1,8.9,3.1,14.4c0,7.6-6,12.5-11.5,13.9
	 					c-4.4,1.1-7.2,1.2-9.2,2.2c0,0-0.7,0.6-1,0.9c-0.3-0.3-1-0.9-1-0.9c-1.9-0.9-4.8-1.1-9.2-2.2c-5.5-1.4-11.5-6.3-11.5-13.9
	 					c0-5.5,3.1-7.5,3.1-14.4C123.2,172.5,121.4,168.9,121.4,168.9z"/>
	 				<path d="M159.4,210.2c0,1.1,0.9,2.1,2.1,2.1c1.1,0,2.1-0.9,2.1-2.1c0-1.1-0.9-2.1-2.1-2.1C160.4,208.1,159.4,209.1,159.4,210.2z
	 					 M163.1,210.2c0,0.9-0.7,1.6-1.6,1.6c-0.9,0-1.6-0.7-1.6-1.6c0-0.9,0.7-1.6,1.6-1.6C162.4,208.6,163.1,209.3,163.1,210.2z"/>
	 				<path d="M160.6,211.4h0.4v-1h0.3l0.4,1h0.5l-0.5-1c0.3-0.1,0.5-0.4,0.5-0.7c0-0.4-0.3-0.7-0.7-0.7h-1V211.4z M161.1,209.5h0.6
	 					c0.1,0,0.3,0.1,0.3,0.3c0,0.1-0.1,0.3-0.3,0.3h-0.6V209.5z"/>
	 			</g>
	 		</g>
	 	</g>
	 	<g>
	 		<path d="M128.6,109.2c2.7-1.8,4.1-2.6,4.1-3.6v-0.3c0-1.4-1.1-2.1-3.2-2.1c-0.2,0-0.3,0-0.5,0c-0.1,0-0.3,0-0.4,0h0
	 			c-2.4,0-3.1,1.3-3.1,2.1v0.4h1.3v-0.3c0-0.1,0-0.4,0.2-0.5c0.3-0.2,0.8-0.3,1.5-0.3c0,0,0.1,0,0.1,0h1c1.8,0,1.8,0.7,1.8,0.9v0.2
	 			c0,0.5-1,1.2-5.4,4l-0.8,0.5l0,0v1.1h7.7V110h-5.4C127.8,109.7,128.2,109.5,128.6,109.2z"/>
	 		<path d="M139.6,103.2h-1.1c-2.8,0-3.1,1.5-3.1,2.2c0,1.3,0,3.7,0,3.7c0,2,2.2,2.3,3.1,2.3h1c2.9,0,3.3-1.2,3.3-2.2v-3.7
	 			C142.7,104,141.7,103.2,139.6,103.2z M141.4,109.1c0,0.2,0,0.5-0.2,0.7c-0.3,0.3-0.9,0.4-1.7,0.4h-1.1c-1.1,0-1.8-0.4-1.8-1.1
	 			v-3.6c0-0.4,0.3-1,1.7-1l0.1,0c0.1,0,0.3,0,0.5,0c0.2,0,0.4,0,0.6,0c1.2,0,1.8,0.3,1.8,1V109.1z"/>
	 		<path d="M147.3,103.3c-0.1,0.5-0.9,1.3-2,1.3h0v1h1.4v5.7h1.4v-8L147.3,103.3L147.3,103.3z"/>
	 		<path d="M151.1,103.3v1.3h6.5c-2,1.8-4.4,4.7-5.1,6.6l0,0.1h1.7l0,0c0.6-1.8,4.5-6.3,5.2-6.8l0,0v-1.1H151.1z"/>
	 	</g>
	 </g>
 </svg>