<svg xmlns="http://www.w3.org/2000/svg" height="285" width="285" viewBox="0 0 285 285"><g fill="#FFF"><path d="M109.4 182.3l33.3 13.3 33.3-13.3c3.2-1.3 6.8-5.5 7.5-8.9l8.6-39.8h-1.5l-8.5 39.5c-.6 2.9-3.9 6.8-6.7 7.9l-32.7 13-32.7-13c-2.8-1.1-6-4.9-6.7-7.9l-8.5-39.5h-1.5l8.6 39.8c.7 3.4 4.3 7.6 7.5 8.9zm41.9-128.2V53c-.7-.1-1.5-.2-2.4-.2v1c.9.2 1.7.2 2.4.3zm-12.2-1.4c-.6 0-1.1 0-1.6.1v1.1c.5 0 1 0 1.6-.1v-1.1zm-1.7 6h1.7v-3.8c0-.2.1-.4.1-.5-.6 0-1.1 0-1.6.1-.1.1-.2.3-.2.6v3.6zm13.9-4c-.7-.1-1.5-.1-2.4-.2v4.2c.9 0 1.7.1 2.4.1v-4.1zm-.3 6.7c1 0 1.9.1 2.6.1-.4-1.1-1.6-1.7-2-1.9-.7 0-1.6-.1-2.5-.1.4.2 1.6.8 1.9 1.9zm-12.7-.1c0-.3.2-1 .7-1.9h-1.5c-.5.9-.6 1.6-.7 1.9h1.5zm-1.6 6h1.5v-5.5h-1.5v5.5zm17-5.3c-.8 0-1.6-.1-2.6-.1v5.5c1 0 1.9.1 2.6.1V62zm-1.8 11.6c1.1 0 2 0 2.9.1-.1-3-3.9-3-1.2-5-.7 0-1.6-.1-2.5-.1-2.7 1.8.7 2 .8 5zm-13.5-5.3h-1.5c1.2 2.3-1 2.4-.8 5.2h1.5c-.1-2.7 2.1-2.8.8-5.2zm16.3 6.1h-2.9v4.9h2.9v-4.9zm-17 0h-1.6v4.9h1.6v-4.9zm.1 5.9h-1.6c1.3 2.3-1.3 2.2-1 5.1h1.6c-.2-2.9 2.3-2.7 1-5.1zm19.6 5c.4-2.8-4.1-2.9-1.6-4.9h-2.3c-2.3 2.6 1.9 2.3 1.1 5 1.1-.1 2-.1 2.8-.1zm-3.8 1.3c2.5.5 8.4 2.1 8.4 4.6 0 1.5-2 1.2-19.4 2.1 0 0 17 .2 28.9-.9-.1-.5-.7-.8-.7-.8-2.3.2-5 .4-5 .4.5-3.7-5.8-5.1-8.9-5.6-1 .1-2.1.1-3.3.2zm-20.9 6.1h2c-.2-3.7 1.5-5.5 2.3-6.1h-2c-.7.6-2.4 2.4-2.3 6.1zm5.7-46.3c.4 0 .9-.1 1.4-.1v-.4c-.5 0-1 .1-1.4.1v.4zm9.9-.3c-.4-.1-.9-.1-1.4-.2v.4c.5.1 1 .1 1.4.2v-.4zm-17.9-21l-.1-1c-.5.1-.9.1-1.3.2l.1 1c.4-.1.9-.2 1.3-.2zm29.2.8v-1c-.8-.2-1.8-.4-3.1-.6v1c1.3.2 2.3.4 3.1.6zm-6-1c0-.3-.1-.7-.1-1-2.8-.3-6.3-.5-10.8-.5h-1.4c-.1.3-.1.7-.2 1h1.6c4.5 0 8.1.2 10.9.5zm3.6 4.2c.4-.5 1.2-1 2.3-1.1 0-.3.1-.9.1-1.5-.8-.2-1.8-.4-3-.6v2.6l.6.6zm-9.1-.2c.6-.6 2-1.7 4.4-1.7.4 0 .8 0 1.1.1 0-.6 0-1.2-.1-1.8-2.8-.3-6.4-.5-11-.5h-1.7c-.1.7-.1 1.4-.1 2.1.5-.1 1.1-.2 1.8-.2 3.1.1 4.9 1.4 5.6 2zm-18.7-.8c.4-.2.8-.4 1.3-.6l-.2-1.9c-.5.1-.9.1-1.3.2l.2 2.3z"/><path d="M156.2 35.4c1.2 0 .3 1.4.9 1.4.3 0 .2-.8.8-.9.3-.7 1.2-3 1.2-7.3-1.2.3-1.8 1.3-1.8 1.3s-.3-.5-1-1c0 4-.9 6.2-1.2 6.8h.2c.4.1.3-.3.9-.3zm-26.4-2.7c0 .6.2 1.3.6 1.3.6 0 .2-1.2.7-1.7l-.4-4.2c-.5.2-.9.4-1.3.6l.4 4zm13.5 3.7c1.2 0 .3-1.7 1.8-1.7 1 0 .7 1.1 1.6 1.1 1.2 0 .5-2.7 1.9-2.7.9 0 .6.9 1.5.9 1.1 0 .4-2.4 1.6-2.4 1.3 0 .4 1.8 1.4 2 .2-.8.6-3.1.6-5.8-.3-.1-.7-.1-1.1-.1-3.1 0-4.4 1.9-4.4 1.9s-1.8-2.1-5.5-2.1c-.6 0-1.2.1-1.8.2 0 3.6.8 6.6 1.2 7.9.2.4.4.8 1.2.8zm-17.5.1c-.7 0 .3.9.4 2.4 0 0 .1-2.4-.4-2.4zm1.5-1c-.2 0-.4.2-.4.4 0 .4.9.8.9 3.4.1-1.7.2-3.8-.5-3.8zm2.1 2.9c.5-1.7 1-4.7-.1-4.7-.4 0-.6.3-.6.6.1.5.9.8.7 4.1zm2 1.3c.6-3.4 1.2-7.3.2-7.3-.3 0-.5.2-.5.4 0 .8.9 1.2.3 6.9zm3.1-6.1c-.4 0-.5.3-.5.5 0 .3 1 1.1-.3 6.3 1-1.6 1.9-6.8.8-6.8zm4 2.1c0-.4-.4-.7-.7-.7-1.4 0-.1 2.4-2 6.5 0 0 1.7-2.2 2.1-4.8.2-.5.6-.6.6-1zm3.4.5c0-.9-1.3-.8-1.3 0 0 2.2-1.3 3.1-2.8 6.1 2.1-3.4 4.1-4.2 4.1-6.1z"/><path d="M144.4 35.7c-.4 3.3-1.8 1.9-3.6 5.6 1.6-2.7 3.3-1.5 4.5-5.8.1-.4-.8-.8-.9.2zm3.6-1.6c0 3.7-2 4.2-4.7 7 2.6-2 5.8-3.5 5.8-7 0-.8-1.1-.7-1.1 0zm3-1.4c0 5.2-4 7.9-4 7.9 2.7-1 5.1-5.7 5.1-8 .1-.8-1.1-.8-1.1.1zm-1.2 8.2s3.7-1.7 5-7.1c.1-.5-.8-.7-.9 0-.5 4.4-4.1 7.1-4.1 7.1zm5.9-4.8c-.5 2.5-3.1 4.7-3.1 4.7s2.2-1.2 3.8-4.6c.3-.4-.5-.8-.7-.1zm1.8.5c-.6 3.1-3 4.7-3 4.7s2.7-1.4 3.9-4.5c.1-.4-.8-.8-.9-.2zm.2 3.7s1.9-1.5 2.6-3.8c.1-.4-.7-.7-.7-.1-.2 2-1.9 3.9-1.9 3.9zm-20.2 12c.5 0 1-.1 1.6-.1V52c-.2 0-.3-.1-.3-.1l-1.3.1v.3zm11.4-.2v.3c.9.1 1.7.2 2.4.2v-.3l-1-.1c-.5.2-.8-.1-.8-.1h-.6zm.3-1.9s-.9-.7-.7-1.8c-.4 0-.8-.1-1.4-.2-.2.9.4 1.7.4 1.7s.7-.2 1.1.3h.4c0 .2.1.1.2 0zm-9.1-.2s.3-.9.1-1.9c-.5 0-.9.1-1.4.1.1 1.2-.3 1.9-.3 1.9h.1c.1-.2.7-.5 1.3-.1h.2z"/><path d="M148.2 50.2c-.4.1-.2 1.2.4 1.3.5 0 0-1.4-.4-1.3zm5.3 1.8c.4-.2-.3-1.2-.6-1.1-.2 0 .2 1.3.6 1.1zm-7.3-2c-.5 0-.3 1.4.4 1.4.6 0 .1-1.4-.4-1.4zm-1.9 1.2c.6 0 .2-1.4-.5-1.4-.3 0-.2 1.4.5 1.4zm-2.7 0c.6-.2-.1-1 0-1.3-1-.5-.7 1.5 0 1.3zm12.8 1c.3-.1-.3-.9-.5-1-.2 0 .2 1.1.5 1zm.5.1c.3-.2-.2-.8-.4-.8 0 .1.2 1 .4.8zm-2.8-.4c.6-.1-.1-1.2-.4-1.2-.3-.1-.1 1.3.4 1.2zm-1.6-.2c.6-.1-.1-1.2-.4-1.3-.4 0-.2 1.4.4 1.3zm-18.3-.2c.3.2.3-.5.6-.8-.7.1-.8.7-.6.8zm-1.1.2c.2.1.3-.5.4-.6-.4 0-.5.6-.4.6zm8.2-.4c.5 0 0-.8.2-1.2-.8-.6-.9 1.2-.2 1.2zm-2.1-.1c.4.1.3-.8.5-1-.8-.4-1 .9-.5 1zm-3.6.2c.3.1.3-.6.6-.8-.7-.1-.9.7-.6.8zm1.7-.1c.3.1.2-.6.5-.9-.8-.2-.9.8-.5.9zm-8 96.8c-.5 3.4-2.8 6.1-2.8 9.5 0 1.3.2 2.4.5 3.5 1.4 4.7 5.6 7.3 9.6 8.3-6.2-1.6-9.7-6.8-9.7-11.8.1-4.1 2-5.6 2.4-9.5zm23.3 21.3c5.6-1.4 10.1-5.5 10.1-11.8 0-2.1-.6-3.8-1.2-5.3-.8-1.8-1.6-3.5-1.6-5.5 0 5 2.4 6.4 2.4 10.9 0 4.9-3.5 10.1-9.7 11.7zm11.2-1.3c0-.8-.7-1.5-1.5-1.5s-1.5.7-1.5 1.5.7 1.5 1.5 1.5 1.5-.7 1.5-1.5zm-2.8 0c0-.7.5-1.2 1.2-1.2s1.2.5 1.2 1.2-.5 1.2-1.2 1.2c-.6-.1-1.2-.6-1.2-1.2z"/><path d="M160.9 168.9l-.3-.7c.2-.1.3-.3.3-.5 0-.3-.2-.5-.5-.5h-.7v1.7h.3v-.7h.2l.3.7h.4zm-.6-1h-.4v-.4h.4c.1 0 .2.1.2.2s-.1.2-.2.2zm55.9-56.8l1.2-4.8h2.1c4 0 7.8-1.9 8.5-4.9.8-3-2-4.9-6.1-4.9h-7.3l-3.7 14.5h5.3zM219 100h2.8c.8 0 1.3.7 1.1 1.5-.2.8-1 1.5-1.8 1.5h-2.8l.7-3zm-1.1 1.3l-.6 2.4h3.7c1.2 0 2.5-1 2.8-2.2 1.2.1 2.3.3 3.4.4-1 2.3-4.3 3.5-7.3 3.5h-3l-1.2 4.8h-3.5c.2-.9 1.4-5.4 2.3-8.9h3.4zm-112.4 9.8h5.2l2.3-8.9 3.5 8.9h5.6l3.7-14.5h-5.2l-2.1 8.1-3.2-8.1h-7.9s1.4 1.2.9 3.4l-2.8 11.1zm11.2-8.5c1 2.4 1.9 4.8 1.9 4.8s.7-2.6 1.3-5.1c1.2-.1 2.4-.3 3.6-.4-.9 3.4-1.9 7.5-2.1 8.3h-4.3c-.2-.4-1.7-4.4-2.9-7.4.8 0 1.7-.1 2.5-.2zm-4.8.5l-1.8 7.2h-3.5c.2-.8 1.1-4.2 1.8-6.9 1.1-.1 2.3-.2 3.5-.3zm24.5 8l2-3.4h-8.2l2.8-11.1h-5.2l-3.7 14.5h12.3zm-5.3-9.8l-1.8 7.2h7.9c-.4.8-.7 1.3-1 1.8h-10.8c.2-.9 1.4-5.3 2.2-8.7 1.1-.2 2.3-.3 3.5-.3zm30.6.6l-2.2-5.3h-19s1.4 1.2.9 3.4l-2.8 11.1h12.9l2-3.4h-8.8l.5-2h6.9l.9-3.4h-6.9l.6-2.2h7.4l.8-2.9 3.7 8.2-1.5 5.8h5.2l1.5-5.8 8.8-8.7h-5.5l-5.4 5.2zm-9.9 1.1c-.2.6-.3 1.1-.5 1.8h-6.9l-.9 3.7h8.5c-.4.8-.7 1.3-1 1.8h-11.4c.3-1.1 1.8-6.9 2.4-9.2 1.2 0 2.4.1 3.5.1l-.5 2c-.1-.2 5.6-.2 6.8-.2zm10.9 2s-1 4-1.3 5.3h-3.5c.3-1.2 1.3-5.3 1.3-5.3s-.6-1.2-1.2-2.7c1.1.2 2.2.3 3.1.5.1.3.2.5.2.5s.1-.2.4-.4c.9.2 1.8.4 2.5.5-.8.9-1.5 1.6-1.5 1.6zm-70.1 6.1l1.8-3.3h4.8l.3 3.3h5.5l-2.1-14.5h-6.6l-9.4 14.5h5.7zm6-11.1l.4 4.7h-2.9l2.5-4.7zm-3.1 4.2l-.7 1.3h5.2l-.1-1.5c1.1-.1 2.2-.1 3.3-.2.4 2.8.8 5.6.9 6.5h-3.7c-.1-.8-.3-3.3-.3-3.3H94s-1.4 2.5-1.8 3.3h-3.9c.5-.8 2.1-3.3 3.8-5.9 1.1-.1 2.2-.1 3.4-.2zM81.9 100l-2.8 11.1h5.2l2.8-11.1h4.6l1.7-3.4H78.2l-1.7 3.4h5.4zm1.7 10.2h-3.5c.2-.7.8-3.2 1.4-5.6H85c-.6 2.4-1.2 5-1.4 5.6zm117.1 1.1c4.5 0 8.5-1.1 9.7-5.6l2.3-9.1h-5.2l-2.3 9.1c-.4 1.7-1.9 2.2-3.6 2.2-1.7 0-2.9-.5-2.5-2.2l2.3-9.1h-5.2l-2.3 9.1c-1.2 4.5 2.3 5.6 6.8 5.6zm-6-5.6s.3-1 .6-2.4c1.2-.1 2.4-.3 3.6-.5l-.7 2.8c-.3 1.1-.3 3 3.1 3 2.5 0 4.2-1.1 4.7-3l1-3.8 3.6-.3c-.5 2.1-1.1 4.1-1.1 4.1-.9 3.4-3.4 4.8-8.6 4.8-5.2 0-7-1.4-6.2-4.7zm-9.5 7.1c4.2 0 6.7-.9 6.7-.9l-.5-3.5s-1.8.6-4.8.6c-6.3 0-6.8-3.9-6.3-5.8.7-2.9 3.1-5.8 8.8-5.8 2.6 0 4.1.5 4.1.5l1.9-3.3s-2.1-.8-5.6-.8c-9.9 0-14.2 4.8-15.4 9.5-.9 4.1 1.8 9.5 11.1 9.5zm-5.8-7.9c.1 2.3 1.6 5.1 7 5.1 2 0 3.5-.3 4.3-.5.1.6.2 1.2.3 1.9-1 .2-3 .6-5.6.6-7.2 0-10.4-3.4-10.5-6.9 1.3-.1 2.8-.1 4.5-.2z"/><path d="M75.5 107.8c1.6-6.2-9-6-8.3-8.8.2-.8 1.6-1.4 3.7-1.4 2.8 0 4.5.8 4.5.8l1.8-3.5s-2.2-1-5.9-1c-6.3 0-9.4 2.5-9.9 4.8-1.6 6.3 9 5.8 8.2 8.9-.3 1.1-2 1.6-3.7 1.6-3.6 0-5.9-1.2-5.9-1.2l-1.9 3.5s2.3 1.4 7.3 1.4c5-.1 9.2-1.9 10.1-5.1zM60.3 109c1 .4 2.9.9 5.4.9 2.5 0 4.4-1 4.7-2.5.5-1.8-1.5-2.6-3.6-3.5 2.1.2 4.4.4 6.9.5.8.8 1.3 1.9.9 3.3-.8 3.1-5.4 4.2-9 4.2-3.4 0-5.5-.7-6.4-1.1.4-.5.7-1.1 1.1-1.8zm38.6 6.7l-3.7 14.5h12.2l2-3.4h-8.2l2.8-11.1h-5.1zm9.2 11.9c-.4.8-.7 1.3-1 1.8H96.3c.2-.9 1.5-5.8 2.4-9.3h3.5c-.8 3.3-1.9 7.6-1.9 7.6s6.1-.1 7.8-.1zm10.7-11.9l-9.4 14.5h5.7l1.8-3.3h4.8l.3 3.3h5.5l-2.1-14.5h-6.6zm2.7 8.1h-2.9l2.6-4.7.3 4.7zm1.3 5.5c-.1-.8-.3-3.3-.3-3.3h-6.1s-1.4 2.5-1.8 3.3h-3.9c.8-1.2 3.7-5.7 5.9-9 1 0 1.9.1 2.9.1l-2.3 4.2h5.2l-.3-4.1c1 .1 2.1.1 3.2.2.5 3.3 1.1 7.5 1.3 8.6h-3.8zm12.8-8.3l-2.2-5.3h-5.1l3.9 8.7-1.5 5.8h5.2l1.5-5.8 8.8-8.7h-5.5l-5.1 5.3zm1 3.1s-1 4.1-1.3 5.3h-3.5c.3-1.2 1.3-5.3 1.3-5.3s-.6-1.4-1.3-3c1 .1 2 .1 3 .2.3.6.5 1.1.5 1.1s.4-.4.9-1c.8.1 2.1.2 2.9.2-1.5 1.4-2.5 2.5-2.5 2.5zm25.7 6h5.2l1.4-5.4h3.2l2.9-3.4h-5.3l.6-2.2h5.3l2.9-3.4h-14.3s1.4 1.2.9 3.4l-2.8 11zm10.1-6.9c-.2.3-.4.5-.6.7h-3.6s-1.1 4.2-1.4 5.4h-3.5c.2-.8.9-3.7 1.6-6.2 2.6.1 5.1.1 7.5.1zm4.3 6.9h5.2l1.4-5.4h3.2l2.9-3.4h-5.3l.6-2.2h5.3l2.9-3.4h-14.3s1.4 1.2.9 3.4l-2.8 11zm10.2-7c-.3.3-.5.6-.7.8h-3.6s-1.1 4.2-1.4 5.4h-3.5c.2-.7.9-3.6 1.6-6.1 2.7 0 5.2 0 7.6-.1zm-108.2 7h5.2l1.2-4.8h2.1c4 0 7.8-1.9 8.5-4.9.8-3-2-4.9-6.1-4.9h-9s1.4 1.2.9 3.4l-2.8 11.2zm8-11h2.8c.8 0 1.3.7 1.1 1.5-.2.8-1 1.5-1.8 1.5H86l.7-3zm-4.8 1.6c1.1-.1 2.3-.2 3.6-.2l-.6 2.4h3.7c1.3 0 2.5-1.1 2.9-2.3 0-.1 0-.2.1-.4 1.1 0 2.3-.1 3.5-.1 0 .1 0 .3-.1.5-.7 2.7-4.3 4-7.5 4h-3l-1.2 4.8h-3.5c.2-1.1 1.5-6.1 2.1-8.7zm72.7-5.2c-7.4 0-10.4 3.3-11.4 7.5-1.1 4.1.2 7.5 7.6 7.5 7.4 0 10.4-3.3 11.4-7.5s-.2-7.5-7.6-7.5zm-5.8 7.4c.6-2.2 1.9-4.1 4.9-4.1 3 0 3.4 1.8 2.9 4.1-.6 2.2-1.9 4.1-4.9 4.1-3.1 0-3.5-1.9-2.9-4.1zm2.2 6.6c-7.8 0-7.7-3.8-7-6.6l.3-.9 3.9.3c-.1.2-.1.4-.2.6-.8 3.1.4 4.9 3.5 4.9 3 0 5.2-1.7 6-4.9v-.1c1.3.1 2.7.1 4 .2-.9 2.8-2.8 6.5-10.5 6.5zm49.7-10.6c2.1 0 3.6.7 3.6.7l1.7-3.3s-1.7-.8-4.9-.8c-4.5 0-7.7 1.6-8.3 3.9-1.3 4.9 7.2 5.1 6.8 6.6-.1.6-1.3 1-2.8 1-2.9 0-4.8-1-4.8-1l-1.8 3.3s1.9 1.1 6.1 1.1c4.2 0 7.6-1.4 8.3-4.1 1.2-4.7-7.2-5.1-6.8-6.6.3-.4 1.2-.8 2.9-.8zm0 3.4c1.9.8 3.8 1.9 3.3 4-.6 2.4-4.2 3.3-7.3 3.3-2.7 0-4.4-.5-5.2-.8.3-.6.6-1 .9-1.7.9.3 2.4.7 4.3.7 2.1 0 3.5-.7 3.8-1.8.4-1.6-2.8-2.1-5-3.3 1.9-.1 3.6-.3 5.2-.4z"/></g><linearGradient id="a" gradientUnits="userSpaceOnUse" x1="142.615" y1="105.273" x2="142.615" y2="199.682"><stop offset=".152" stop-color="#fff"/><stop offset=".288" stop-color="#fafafa"/><stop offset=".456" stop-color="#ebeced"/><stop offset=".641" stop-color="#d2d5d7"/><stop offset=".837" stop-color="#afb5b8"/><stop offset=".969" stop-color="#939ba0"/></linearGradient><path fill="url(#a)" d="M108 185.9l34.7 13.8 34.7-13.8c4.4-1.8 8.9-7 9.9-11.7l8.7-40.4c-1.6 0-2.8-.2-2.8-.2h-1l-8.6 39.8c-.7 3.4-4.3 7.6-7.5 8.9l-33.3 13.3-33.3-13.3c-3.2-1.3-6.8-5.5-7.5-8.9l-8.6-39.8h-3.9l8.8 40.6c.8 4.7 5.3 9.9 9.7 11.7z"/><linearGradient id="b" gradientUnits="userSpaceOnUse" x1="12485.26" y1="11101.83" x2="12502.51" y2="11101.83" gradientTransform="translate(-3312.625 -2904.914) scale(.2752)"><stop offset=".112" stop-color="#fff"/><stop offset=".237" stop-color="#dcdee0"/><stop offset=".44" stop-color="#a7aeb2"/><stop offset=".539" stop-color="#939ba0"/></linearGradient><path fill="url(#b)" d="M124.5 157.6c0-3.3 2.2-6.1 2.8-9.5 0-.4.1-.9.1-1.4 0-3.9-1.8-7.1-1.8-7.1l-1.8-.9 1.2 2.8c.6 1.4 1.1 3.2 1.1 5.2 0 4.8-2.4 5.8-2.4 10.9 0 1.5.3 3 .7 4.3.1-.3.4-.6.6-.8-.3-1.1-.5-2.2-.5-3.5z"/><linearGradient id="c" gradientUnits="userSpaceOnUse" x1="159.737" y1="152.244" x2="159.737" y2="138.714"><stop offset="0" stop-color="#fff"/><stop offset=".348" stop-color="#fff"/><stop offset=".562" stop-color="#939ba0"/><stop offset="1" stop-color="#939ba0"/></linearGradient><path fill="url(#c)" d="M157.9 146.7c0 2 .8 3.7 1.6 5.5h1c-.6-1.5-1.2-3-1.2-5.5 0-2 .5-3.7 1.1-5.2l1.2-2.8-1.8.9c-.1 0-1.9 3.2-1.9 7.1z"/><linearGradient id="d" gradientUnits="userSpaceOnUse" x1="124.413" y1="167.731" x2="142.638" y2="167.731"><stop offset=".152" stop-color="#fff"/><stop offset=".212" stop-color="#fafafa"/><stop offset=".286" stop-color="#ebeced"/><stop offset=".367" stop-color="#d2d5d7"/><stop offset=".453" stop-color="#afb5b8"/><stop offset=".511" stop-color="#939ba0"/></linearGradient><path fill="url(#d)" d="M142.6 172.4s-1.3-1.4-1.4-1.5c-1.5-.5-3.6-.7-6.5-1.5-4.1-1-8.2-3.6-9.6-8.3-.2.2-.5.5-.6.8 1.6 4.5 5.6 7.7 9.9 8.8 2.8.7 4.1.8 6.1 1.3.3.3 2.2 2.3 2.2 2.3v-1.9z"/><linearGradient id="e" gradientUnits="userSpaceOnUse" x1="153.45" y1="166.81" x2="131.844" y2="135.954"><stop offset="0" stop-color="#939ba0"/><stop offset=".012" stop-color="#98a0a4"/><stop offset=".118" stop-color="#c1c5c7"/><stop offset=".202" stop-color="#dadcdd"/><stop offset=".253" stop-color="#e3e4e5"/><stop offset=".753" stop-color="#e3e4e5"/><stop offset=".801" stop-color="#dbddde"/><stop offset=".875" stop-color="#c5c9cb"/><stop offset=".966" stop-color="#a2a9ad"/><stop offset="1" stop-color="#939ba0"/></linearGradient><path fill="url(#e)" d="M126.3 157.6c0 5.8 4.5 9.4 8.7 10.5 3.3.8 5.5.9 6.9 1.6l.7.7.7-.7c1.4-.7 3.6-.8 6.9-1.6 4.2-1.1 8.7-4.7 8.7-10.5 0-4.1-2.4-5.6-2.4-10.9 0-3.5 1.3-6.3 1.3-6.3s-3.1-.6-4.5-4.5c0 0-2 1.9-4.9 1.9-3.5 0-5.9-2.5-5.9-2.5s-2.3 2.5-5.9 2.5c-2.8 0-4.9-1.9-4.9-1.9-1.4 3.9-4.5 4.5-4.5 4.5s1.3 2.7 1.3 6.3c.2 5.2-2.2 6.8-2.2 10.9zm31.1 0c0 4.9-3.9 8.1-7.5 9-2.6.7-5.8 1-6.8 1.6-.2.2-.5.4-.5.4s-.3-.3-.5-.4c-1-.5-4.2-.9-6.8-1.6-.1 0-.2-.1-.3-.1l20.6-15.4c.8 2.4 1.8 4 1.8 6.5zm-1.4-16.3c-.4 1.3-.9 3.2-.9 5.4 0 .9.1 1.8.2 2.5l-22.1 16.6c-2.8-1.4-5.2-4.1-5.3-7.9l25.4-19c.8 1.2 1.8 1.9 2.7 2.4zm-23.5-3.1c1 .6 2.5 1.2 4.3 1.2 2.6 0 4.7-1.2 5.9-2 1.2.9 3.2 2 5.9 2 .4 0 .8 0 1.2-.1l-21.6 16.2c.6-2.4 2.1-4.5 2.1-8.8 0-2.2-.5-4.2-.9-5.4.9-.6 2.1-1.5 3.1-3.1z"/><linearGradient id="f" gradientUnits="userSpaceOnUse" x1="130.69" y1="133.959" x2="142.638" y2="133.959"><stop offset=".247" stop-color="#fff"/><stop offset=".337" stop-color="#fafafa"/><stop offset=".448" stop-color="#ebeced"/><stop offset=".57" stop-color="#d2d5d7"/><stop offset=".699" stop-color="#afb5b9"/><stop offset=".786" stop-color="#939ba0"/></linearGradient><path fill="url(#f)" d="M131.3 133.7s2.7 2.8 5.5 2.8c3.5 0 5.9-3 5.9-3v-1.9l-1.9 1.8c-1 .9-2.5 1.7-4 1.7-1.2 0-2.2-.5-3.2-1.3l-2.9-2.4.6 2.3z"/><linearGradient id="g" gradientUnits="userSpaceOnUse" x1="142.638" y1="163.298" x2="161.598" y2="163.298"><stop offset=".197" stop-color="#fff"/><stop offset=".327" stop-color="#fafbfb"/><stop offset=".473" stop-color="#edeeef"/><stop offset=".626" stop-color="#d7dadc"/><stop offset=".783" stop-color="#b8bdc0"/><stop offset=".933" stop-color="#939ba0"/></linearGradient><path fill="url(#g)" d="M160.7 157.6c0 6.3-4.5 10.4-10.1 11.8-3 .7-5 .9-6.5 1.5-.2.2-1.4 1.5-1.4 1.5v2s1.9-2.1 2.2-2.3c2.1-.6 3.4-.6 6.1-1.3 5.6-1.4 10.7-6.3 10.7-13.1 0-2.4-.6-3.9-1.1-5.4h-1c.5 1.5 1.1 3.2 1.1 5.3z"/><linearGradient id="h" gradientUnits="userSpaceOnUse" x1="142.638" y1="133.959" x2="154.587" y2="133.959"><stop offset=".247" stop-color="#fff"/><stop offset=".337" stop-color="#fafafa"/><stop offset=".448" stop-color="#ebeced"/><stop offset=".57" stop-color="#d2d5d7"/><stop offset=".699" stop-color="#afb5b8"/><stop offset=".786" stop-color="#939ba0"/></linearGradient><path fill="url(#h)" d="M148.5 136.5c2.8 0 5.5-2.8 5.5-2.8l.6-2.2-2.9 2.4c-.9.8-2 1.3-3.2 1.3-1.5 0-3.1-.8-4-1.7l-1.9-1.8v1.9c0-.1 2.4 2.9 5.9 2.9z"/><linearGradient id="i" gradientUnits="userSpaceOnUse" x1="123.698" y1="135.51" x2="131.29" y2="135.51"><stop offset=".388" stop-color="#fff"/><stop offset=".467" stop-color="#fafafa"/><stop offset=".566" stop-color="#ebeced"/><stop offset=".673" stop-color="#d2d5d7"/><stop offset=".788" stop-color="#afb5b8"/><stop offset=".865" stop-color="#939ba0"/></linearGradient><path fill="url(#i)" d="M126.6 137.8l-2.9.9 1.8.9s4.5-.4 5.8-5.9l-.6-2.2-1.3 3.5c-.6 1.5-1.5 2.5-2.8 2.8z"/><linearGradient id="j" gradientUnits="userSpaceOnUse" x1="219.591" y1="112.162" x2="219.591" y2="103.706"><stop offset="0" stop-color="#fff"/><stop offset=".152" stop-color="#fff"/><stop offset=".252" stop-color="#fafafa"/><stop offset=".375" stop-color="#ebeced"/><stop offset=".511" stop-color="#d1d5d7"/><stop offset=".655" stop-color="#aeb4b8"/><stop offset=".806" stop-color="#828b91"/><stop offset=".824" stop-color="#7c858c"/><stop offset="1" stop-color="#7c858c"/></linearGradient><path fill="url(#j)" d="M220.9 103.7h-3.7l.6-2.4c-1.1 0-2.3 0-3.5.1-.9 3.5-2 8-2.3 8.9h3.5c.3-1.1 1.2-4.8 1.2-4.8h3c3 0 6.4-1.2 7.3-3.5-1-.2-2.2-.3-3.4-.4-.2 1.1-1.5 2.1-2.7 2.1z"/><linearGradient id="k" gradientUnits="userSpaceOnUse" x1="161.085" y1="112.015" x2="161.085" y2="104.358"><stop offset="0" stop-color="#fff"/><stop offset=".152" stop-color="#fff"/><stop offset=".252" stop-color="#fafafa"/><stop offset=".375" stop-color="#ebeced"/><stop offset=".511" stop-color="#d1d5d7"/><stop offset=".655" stop-color="#aeb4b8"/><stop offset=".806" stop-color="#828b91"/><stop offset=".824" stop-color="#7c858c"/><stop offset="1" stop-color="#7c858c"/></linearGradient><path fill="url(#k)" d="M161.4 103.3s-.1-.2-.2-.5c-1-.2-2-.4-3.1-.5.7 1.5 1.2 2.7 1.2 2.7s-1 4-1.3 5.3h3.5c.3-1.2 1.3-5.3 1.3-5.3s.6-.6 1.6-1.5c-.8-.2-1.6-.3-2.5-.5-.4.2-.5.3-.5.3z"/><linearGradient id="l" gradientUnits="userSpaceOnUse" x1="145.783" y1="112.232" x2="145.783" y2="103.5"><stop offset="0" stop-color="#fff"/><stop offset=".152" stop-color="#fff"/><stop offset=".252" stop-color="#fafafa"/><stop offset=".375" stop-color="#ebeced"/><stop offset=".511" stop-color="#d1d5d7"/><stop offset=".655" stop-color="#aeb4b8"/><stop offset=".806" stop-color="#828b91"/><stop offset=".824" stop-color="#7c858c"/><stop offset="1" stop-color="#7c858c"/></linearGradient><path fill="url(#l)" d="M145.4 101.1c-1.1 0-2.3-.1-3.5-.1-.6 2.4-2.1 8.1-2.4 9.2h11.4c.3-.5.6-1 1-1.8h-8.5l.9-3.7h6.9c.2-.6.3-1.1.5-1.8h-6.9l.6-1.8z"/><linearGradient id="m" gradientUnits="userSpaceOnUse" x1="131.17" y1="112.189" x2="131.17" y2="103.67"><stop offset="0" stop-color="#fff"/><stop offset=".152" stop-color="#fff"/><stop offset=".252" stop-color="#fafafa"/><stop offset=".375" stop-color="#ebeced"/><stop offset=".511" stop-color="#d1d5d7"/><stop offset=".655" stop-color="#aeb4b8"/><stop offset=".806" stop-color="#828b91"/><stop offset=".824" stop-color="#7c858c"/><stop offset="1" stop-color="#7c858c"/></linearGradient><path fill="url(#m)" d="M136.1 110.2c.3-.5.6-1 1-1.8h-7.9l1.8-7.2-3.6.3c-.9 3.4-2 7.9-2.2 8.7h10.9z"/><linearGradient id="n" gradientUnits="userSpaceOnUse" x1="118.858" y1="112.073" x2="118.858" y2="104.129"><stop offset="0" stop-color="#fff"/><stop offset=".152" stop-color="#fff"/><stop offset=".252" stop-color="#fafafa"/><stop offset=".375" stop-color="#ebeced"/><stop offset=".511" stop-color="#d1d5d7"/><stop offset=".655" stop-color="#aeb4b8"/><stop offset=".806" stop-color="#828b91"/><stop offset=".824" stop-color="#7c858c"/><stop offset="1" stop-color="#7c858c"/></linearGradient><path fill="url(#n)" d="M117.1 110.2h4.3c.2-.8 1.3-5 2.1-8.3-1.2.1-2.4.3-3.6.4-.7 2.6-1.3 5.1-1.3 5.1s-.9-2.4-1.9-4.8c-.9.1-1.7.2-2.5.2 1.2 3.1 2.7 7 2.9 7.4z"/><linearGradient id="o" gradientUnits="userSpaceOnUse" x1="109.204" y1="111.856" x2="109.204" y2="104.985"><stop offset="0" stop-color="#fff"/><stop offset=".152" stop-color="#fff"/><stop offset=".252" stop-color="#fafafa"/><stop offset=".375" stop-color="#ebeced"/><stop offset=".511" stop-color="#d1d5d7"/><stop offset=".655" stop-color="#aeb4b8"/><stop offset=".806" stop-color="#828b91"/><stop offset=".824" stop-color="#7c858c"/><stop offset="1" stop-color="#7c858c"/></linearGradient><path fill="url(#o)" d="M106.5 110.2h3.5c.2-.8 1.1-4.3 1.8-7.2l-3.6.3c-.6 2.7-1.5 6.1-1.7 6.9z"/><linearGradient id="p" gradientUnits="userSpaceOnUse" x1="96.171" y1="111.731" x2="96.171" y2="105.478"><stop offset="0" stop-color="#fff"/><stop offset=".152" stop-color="#fff"/><stop offset=".252" stop-color="#fafafa"/><stop offset=".375" stop-color="#ebeced"/><stop offset=".511" stop-color="#d1d5d7"/><stop offset=".655" stop-color="#aeb4b8"/><stop offset=".806" stop-color="#828b91"/><stop offset=".824" stop-color="#7c858c"/><stop offset="1" stop-color="#7c858c"/></linearGradient><path fill="url(#p)" d="M88.3 110.2h3.9c.4-.8 1.8-3.3 1.8-3.3h6.1s.2 2.6.3 3.3h3.7c-.1-.9-.5-3.7-.9-6.5-1.1.1-2.2.1-3.3.2l.1 1.5h-5.2l.7-1.3c-1.1.1-2.3.1-3.4.2-1.7 2.6-3.3 5.1-3.8 5.9z"/><linearGradient id="q" gradientUnits="userSpaceOnUse" x1="82.577" y1="111.584" x2="82.577" y2="106.057"><stop offset="0" stop-color="#fff"/><stop offset=".152" stop-color="#fff"/><stop offset=".252" stop-color="#fafafa"/><stop offset=".375" stop-color="#ebeced"/><stop offset=".511" stop-color="#d1d5d7"/><stop offset=".655" stop-color="#aeb4b8"/><stop offset=".806" stop-color="#828b91"/><stop offset=".824" stop-color="#7c858c"/><stop offset="1" stop-color="#7c858c"/></linearGradient><path fill="url(#q)" d="M80.1 110.2h3.5c.2-.7.8-3.2 1.5-5.7h-3.5c-.7 2.6-1.3 5.1-1.5 5.7z"/><linearGradient id="r" gradientUnits="userSpaceOnUse" x1="202.56" y1="112.383" x2="202.56" y2="103.941"><stop offset="0" stop-color="#fff"/><stop offset=".152" stop-color="#fff"/><stop offset=".252" stop-color="#fafafa"/><stop offset=".375" stop-color="#ebeced"/><stop offset=".511" stop-color="#d1d5d7"/><stop offset=".655" stop-color="#aeb4b8"/><stop offset=".806" stop-color="#828b91"/><stop offset=".824" stop-color="#7c858c"/><stop offset="1" stop-color="#7c858c"/></linearGradient><path fill="url(#r)" d="M207 101.8c-.5 2-1 3.8-1 3.8-.5 1.9-2.1 3-4.7 3-3.4 0-3.4-1.9-3.1-3 0 0 .3-1.3.7-2.8-1.3.2-2.5.3-3.6.5-.3 1.3-.6 2.4-.6 2.4-.9 3.4 1 4.8 6.2 4.8s7.8-1.4 8.6-4.8c0 0 .5-2 1.1-4.1-1.2 0-2.4.1-3.6.2z"/><linearGradient id="s" gradientUnits="userSpaceOnUse" x1="182.942" y1="113.44" x2="182.942" y2="106.743"><stop offset="0" stop-color="#fff"/><stop offset=".152" stop-color="#fff"/><stop offset=".252" stop-color="#fafafa"/><stop offset=".375" stop-color="#ebeced"/><stop offset=".511" stop-color="#d1d5d7"/><stop offset=".655" stop-color="#aeb4b8"/><stop offset=".806" stop-color="#828b91"/><stop offset=".824" stop-color="#7c858c"/><stop offset="1" stop-color="#7c858c"/></linearGradient><path fill="url(#s)" d="M185.4 112c2.6 0 4.5-.3 5.6-.6-.1-.7-.2-1.3-.3-1.9-.9.2-2.3.5-4.3.5-5.4 0-7-2.8-7-5.1-1.7.1-3.2.2-4.5.2.1 3.5 3.4 6.9 10.5 6.9z"/><linearGradient id="t" gradientUnits="userSpaceOnUse" x1="67.009" y1="113.738" x2="67.009" y2="106.056"><stop offset="0" stop-color="#fff"/><stop offset=".152" stop-color="#fff"/><stop offset=".252" stop-color="#fafafa"/><stop offset=".375" stop-color="#ebeced"/><stop offset=".511" stop-color="#d1d5d7"/><stop offset=".655" stop-color="#aeb4b8"/><stop offset=".806" stop-color="#828b91"/><stop offset=".824" stop-color="#7c858c"/><stop offset="1" stop-color="#7c858c"/></linearGradient><path fill="url(#t)" d="M66.9 104c2.1.9 4 1.7 3.6 3.5-.4 1.5-2.2 2.5-4.7 2.5s-4.4-.6-5.4-.9c-.4.7-.7 1.3-1.1 1.9.9.4 3 1.1 6.4 1.1 3.7 0 8.2-1.1 9-4.2.4-1.4-.1-2.5-.9-3.3-2.6-.3-4.9-.5-6.9-.6z"/><linearGradient id="u" gradientUnits="userSpaceOnUse" x1="102.189" y1="130.954" x2="102.189" y2="123.146"><stop offset="0" stop-color="#fff"/><stop offset=".152" stop-color="#fff"/><stop offset=".252" stop-color="#fafafa"/><stop offset=".375" stop-color="#ebeced"/><stop offset=".511" stop-color="#d1d5d7"/><stop offset=".655" stop-color="#aeb4b8"/><stop offset=".806" stop-color="#828b91"/><stop offset=".824" stop-color="#7c858c"/><stop offset="1" stop-color="#7c858c"/></linearGradient><path fill="url(#u)" d="M100.2 127.6s1.1-4.3 1.9-7.6h-3.5c-.9 3.5-2.1 8.4-2.4 9.3H107c.3-.5.6-1 1-1.8-1.6.1-7.8.1-7.8.1z"/><linearGradient id="v" gradientUnits="userSpaceOnUse" x1="118.685" y1="130.957" x2="118.685" y2="123.133"><stop offset="0" stop-color="#fff"/><stop offset=".152" stop-color="#fff"/><stop offset=".252" stop-color="#fafafa"/><stop offset=".375" stop-color="#ebeced"/><stop offset=".511" stop-color="#d1d5d7"/><stop offset=".655" stop-color="#aeb4b8"/><stop offset=".806" stop-color="#828b91"/><stop offset=".824" stop-color="#7c858c"/><stop offset="1" stop-color="#7c858c"/></linearGradient><path fill="url(#v)" d="M125.3 120.7c-1.1-.1-2.1-.1-3.2-.2l.3 4.1h-5.2l2.3-4.2c-1 0-1.9-.1-2.9-.1-2.2 3.4-5.1 7.9-5.9 9h3.9c.4-.8 1.8-3.3 1.8-3.3h6.1s.2 2.6.3 3.3h3.7c-.1-1.1-.7-5.3-1.2-8.6z"/><linearGradient id="w" gradientUnits="userSpaceOnUse" x1="135.354" y1="130.968" x2="135.354" y2="123.088"><stop offset="0" stop-color="#fff"/><stop offset=".152" stop-color="#fff"/><stop offset=".252" stop-color="#fafafa"/><stop offset=".375" stop-color="#ebeced"/><stop offset=".511" stop-color="#d1d5d7"/><stop offset=".655" stop-color="#aeb4b8"/><stop offset=".806" stop-color="#828b91"/><stop offset=".824" stop-color="#7c858c"/><stop offset="1" stop-color="#7c858c"/></linearGradient><path fill="url(#w)" d="M139 121.7c-.8-.1-2.1-.2-2.9-.2-.6.6-.9 1-.9 1s-.2-.4-.5-1.1c-1-.1-2-.1-3-.2.7 1.6 1.3 3 1.3 3s-1 4-1.3 5.3h3.5c.3-1.2 1.3-5.3 1.3-5.3s1.1-1.2 2.5-2.5z"/><linearGradient id="x" gradientUnits="userSpaceOnUse" x1="167.864" y1="130.988" x2="167.864" y2="122.991"><stop offset="0" stop-color="#fff"/><stop offset=".152" stop-color="#fff"/><stop offset=".252" stop-color="#fafafa"/><stop offset=".375" stop-color="#ebeced"/><stop offset=".511" stop-color="#d1d5d7"/><stop offset=".655" stop-color="#aeb4b8"/><stop offset=".806" stop-color="#828b91"/><stop offset=".824" stop-color="#7c858c"/><stop offset="1" stop-color="#7c858c"/></linearGradient><path fill="url(#x)" d="M163.3 129.3h3.5c.3-1.2 1.4-5.4 1.4-5.4h3.6c.1-.2.3-.4.6-.7-2.4 0-4.9-.1-7.5-.1-.6 2.5-1.4 5.5-1.6 6.2z"/><linearGradient id="y" gradientUnits="userSpaceOnUse" x1="182.339" y1="130.99" x2="182.339" y2="122.98"><stop offset="0" stop-color="#fff"/><stop offset=".152" stop-color="#fff"/><stop offset=".252" stop-color="#fafafa"/><stop offset=".375" stop-color="#ebeced"/><stop offset=".511" stop-color="#d1d5d7"/><stop offset=".655" stop-color="#aeb4b8"/><stop offset=".806" stop-color="#828b91"/><stop offset=".824" stop-color="#7c858c"/><stop offset="1" stop-color="#7c858c"/></linearGradient><path fill="url(#y)" d="M177.8 129.3h3.5c.3-1.2 1.4-5.4 1.4-5.4h3.6c.2-.2.4-.5.7-.8-2.4.1-4.9.1-7.6.2-.7 2.4-1.5 5.3-1.6 6z"/><linearGradient id="z" gradientUnits="userSpaceOnUse" x1="87.357" y1="130.956" x2="87.357" y2="123.141"><stop offset="0" stop-color="#fff"/><stop offset=".152" stop-color="#fff"/><stop offset=".252" stop-color="#fafafa"/><stop offset=".375" stop-color="#ebeced"/><stop offset=".511" stop-color="#d1d5d7"/><stop offset=".655" stop-color="#aeb4b8"/><stop offset=".806" stop-color="#828b91"/><stop offset=".824" stop-color="#7c858c"/><stop offset="1" stop-color="#7c858c"/></linearGradient><path fill="url(#z)" d="M95 120.1c-1.2 0-2.4.1-3.5.1 0 .1 0 .2-.1.4-.3 1.2-1.6 2.3-2.9 2.3h-3.7l.6-2.4c-1.2.1-2.4.1-3.6.2-.7 2.6-2 7.6-2.2 8.7h3.5c.3-1.1 1.2-4.8 1.2-4.8h3c3.2 0 6.8-1.4 7.5-4 .2-.2.2-.4.2-.5z"/><linearGradient id="A" gradientUnits="userSpaceOnUse" x1="152.49" y1="130.957" x2="152.49" y2="123.049"><stop offset="0" stop-color="#fff"/><stop offset=".152" stop-color="#fff"/><stop offset=".252" stop-color="#fafafa"/><stop offset=".375" stop-color="#ebeced"/><stop offset=".511" stop-color="#d1d5d7"/><stop offset=".655" stop-color="#aeb4b8"/><stop offset=".806" stop-color="#828b91"/><stop offset=".824" stop-color="#7c858c"/><stop offset="1" stop-color="#7c858c"/></linearGradient><path fill="url(#A)" d="M161.3 123c-1.3-.1-2.6-.1-4-.2v.1c-.8 3.1-2.9 4.9-6 4.9-3 0-4.3-1.7-3.5-4.9.1-.2.1-.4.2-.6l-3.9-.3-.3.9c-.7 2.8-.8 6.6 7 6.6 7.9 0 9.8-3.7 10.5-6.5z"/><linearGradient id="B" gradientUnits="userSpaceOnUse" x1="197.748" y1="130.958" x2="197.748" y2="123.045"><stop offset="0" stop-color="#fff"/><stop offset=".152" stop-color="#fff"/><stop offset=".252" stop-color="#fafafa"/><stop offset=".375" stop-color="#ebeced"/><stop offset=".511" stop-color="#d1d5d7"/><stop offset=".655" stop-color="#aeb4b8"/><stop offset=".806" stop-color="#828b91"/><stop offset=".824" stop-color="#7c858c"/><stop offset="1" stop-color="#7c858c"/></linearGradient><path fill="url(#B)" d="M200.5 126c-.3 1.1-1.7 1.8-3.8 1.8-1.9 0-3.5-.4-4.3-.7-.4.7-.6 1.1-.9 1.7.8.3 2.5.8 5.2.8 3.1 0 6.6-.9 7.3-3.3.5-2-1.4-3.2-3.3-4-1.6.1-3.3.3-5.2.4 2.1 1.2 5.4 1.6 5 3.3z"/><path d="M155.9 135l-1.3-3.5-.6 2.2c1.2 5.5 5.8 5.9 5.8 5.9l1.8-.9-2.9-.9c-1.3-.3-2.3-1.3-2.8-2.8zm-18.6 22.9l-2.4-3.6-2.6 2s.9 0 .9 1v6.8l1.9-1.4v-4.8l2.1 3.2 2-1.5v-8.5l-1.9 1.4v5.4zm7.5-7.9l-2.1 1.6v-3.1l-2.8 2.1s.9 0 .9 1v6.8l1.9-1.4v-3.1l2.1-1.6v3.1l1.8-1.4v-8.5l-1.8 1.4v3.1zm5.3-.8v-6.3l-2.8 2.1s.9 0 .9 1v6.8l5.3-4c-.1-1.4 0-2.2 0-2.2l-3.4 2.6z" fill="#D1D3D3"/><path fill="#7D868C" d="M142.6 207.8V205L107 189.3z"/><g fill="#C3C6C8"><path d="M222 92.1h-21.4s-4.5-2.8-11-2.8c-4.8 0-8.7 1-11.9 2.8h-2.9c-.2-1.4-1.1-2.3-1.1-2.3-1.2-4.4-6.1-6.1-8.3-6.6a8.6 8.6 0 0 0-1.9-2.8c.3-.8-.3-2.1-.3-2.1v-5c0-1.8-1.2-3.2-2.2-4 .1-.4.2-1 .2-1.6v-5.9c0-1.6-1.2-2.9-2.1-3.7v-3.2l-.5-1.9c.2-2.7-2.7-4.3-2.7-4.3 5.1-2.6 10-7.6 10.1-19.3.1-.4.3-.9.3-1.6v-1.4c0-1.6 0-6.4-23.7-6.4-23.6 0-23.6 4.8-23.6 6.4v1.4c0 .6.2 1.2.3 1.6.1 11.7 4.9 16.7 10.1 19.3 0 0-2.8 1.6-2.7 4.3l-.5 1.9v3.2c-.9.8-2.1 2.1-2.1 3.7v5.9c0 .6.1 1.2.2 1.6-1 .8-2.2 2.2-2.2 4v5s-.6 1.3-.3 2.1c-.8.6-1.5 1.5-1.9 2.8-2.2.5-7.1 2.2-8.3 6.6 0 0-.9.9-1.1 2.3H81.9c-1.3-.8-5-2.8-10.6-2.8-8.6 0-13.2 4-14.3 8.1-.8 3.3.4 5.8.4 5.8l-5.2 9.4s3.5 4.6 13.1 4.6c3.8 0 6.6-.9 8.5-1.7h1.7s1.6 2.3 1.3 3.6l-4.2 16.2h10.9l7.8 41.7c1.1 6 6.3 13.2 11.7 16.2l39.6 21.8 39.6-21.8c5.3-2.9 10.6-10.2 11.7-16.2l7.9-42.5c3.7-1.3 6.5-3.9 7.3-7.2.9-3.5-.8-5.8-.8-5.8l3.1-6.1h8.2l1.2-4.8s9.6-.5 11.5-8.2c1.7-6.2-3.7-10.3-10.3-10.3zm8.8 10c-1.2 4.6-6.4 6.9-11.2 6.9l-1.2 4.8h-8l-4 7.9s1.9 2 1.1 5.2c-.8 3.1-3.6 5.4-7.2 6.4l-8.1 43.5c-1 5.5-5.9 12.3-10.8 15l-38.7 21.3-38.7-21.3c-4.9-2.7-9.8-9.5-10.8-15l-8-43.1H74.9l3.6-14.1c.5-1.9-1-4.3-2.1-5.7h-2.9c-1.7.8-4.4 1.7-8.2 1.7-7.7 0-11-3.2-11-3.2l4.5-8.1c1.6 1 3.2 1.5 3.2 1.5s-4.8-2.4-3.4-7.9c.6-2.3 3.6-6.8 12.6-6.8 6.4 0 10.1 2.8 10.1 2.8h30.9c-.7-2 .7-3.1.7-3.1.8-5 8.1-6.1 8.1-6.1.4-2.7 2.7-3.5 2.7-3.5-1-1.1 0-2.4 0-2.4v-5.4c0-2 2.6-3.3 2.6-3.3s-.5-.5-.5-2.2V62c0-1.4 2.1-2.9 2.1-2.9v-3.8l.5-2c-.4-2.9 4.9-4.4 4.9-4.4l-.3-.3c-5.1-1.9-12-5.6-12-19.4 0 0-.3-.5-.3-1.2v-1.4c0-3.2 9.8-4.7 22-4.7s22 1.5 22 4.7V28c0 .6-.3 1.2-.3 1.2 0 13.8-6.9 17.5-12 19.4l-.3.3s5.3 1.5 4.9 4.4l.5 2v3.8s2.1 1.5 2.1 2.9v5.9c0 1.7-.5 2.2-.5 2.2s2.6 1.3 2.6 3.3v5.4s1 1.3 0 2.4c0 0 2.3.9 2.7 3.5 0 0 7.3 1.1 8.1 6.1 0 0 1.4 1.1.7 3.1h5.2c2.9-1.7 6.7-2.8 11.4-2.8 6.4 0 10.5 2.8 10.5 2.8h22c5.7-.1 9.7 3.4 8.5 8.2z"/><path d="M142.6 207.8l35.7-18.5-35.7 15.7zm-5.3-35.9c-12.9-.6-23.8-3.1-27.3-6.5 2.3 4.2 15 7.3 30.6 7.6l-.5-.5c-1.1-.2-1.9-.4-2.8-.6zm7.8.7c0 .1-.2.2-.5.5 15.5-.3 28.3-3.4 30.6-7.6-3.5 3.4-14.4 5.9-27.3 6.5-.8.1-1.6.3-2.8.6zm-16.3-37.8l.4-1.2h-10.4c2.3.5 5.4 1 9.8 1.4.2-.1.2-.1.2-.2zm42.4-1.2h-1.6c-2.3.9-6.4 1.7-12.8 2 .2.4.5.7.8 1 8.1-.7 11.9-2 13.6-3zm-42.8 2c-6.3-.3-10.5-1.1-12.8-2H114c1.7 1 5.5 2.3 13.6 3 .4-.2.6-.6.8-1zm28-.8c0 .1.1.2.1.2 4.4-.4 7.6-.9 9.8-1.4H156l.4 1.2z"/><path d="M125.2 149.2c.2-.7.3-1.6.3-2.5 0-1.7-.4-3.3-1.1-4.9l-1.5-3.4 3.5-1c-4.7-.5-7.8-1.2-9.8-1.8l-.1 11c-.9-.4-1.6-.8-2.1-1.2l.1-10.6c-.9-.4-1.2-.7-1.2-.7l-.1 10.1c-.1.9 1.9 3.6 12 5zm37.2-10.9l-1.5 3.4c-.7 1.6-1.1 3.2-1.1 4.9 0 1 .1 1.8.3 2.5 10.1-1.5 12-4.2 12-5.2l-.1-9.9s-2.1 2.2-13.2 3.3l3.6 1zm-37.9 13c.1-.3.3-.7.4-1-11.4-1.8-12.3-5-12.3-5v1.1c0-.1.9 3.1 11.9 4.9z"/><path d="M160.4 150.3c.1.4.2.7.4 1 11-1.8 11.9-5 11.9-5v-1.1s-1 3.3-12.3 5.1zm11.7-1.9s-1.7 2.4-11 4c.5 1.4 1 2.9 1 5.3 0 2.6-.7 4.9-1.9 6.9 10.7-1.8 13.8-5.1 12-6.9l-.1-9.3zM125 164.5c-1.2-2-1.9-4.3-1.9-6.9 0-2.4.5-3.9 1-5.3-3.5-.6-6-1.3-7.6-2l-.1 8.9c0 1.4 1 2.2 1 2.2s-3.1-.8-3.1-3l.1-9.2c-.9-.6-1.2-1-1.2-1l-.1 9.3c-1.9 1.9 1.2 5.2 11.9 7z"/><path d="M118 165.2c-4.8-1.5-7.7-3.5-7.7-5.6 0-.7.3-1.4.9-2-.9.7-1.3 1.5-1.3 2.3-.1 2 3 3.9 8.1 5.3zm57.4-5.4c0-.8-.5-1.6-1.3-2.3.6.7.9 1.3.9 2 0 2.2-2.9 4.1-7.7 5.6 5.1-1.3 8.1-3.2 8.1-5.3zM135.7 52.9V54c.5 0 1.1-.1 1.8-.1v-1.1c-.7 0-1.3.1-1.8.1zm13.2.4v-.4c-1.6-.1-3.7-.2-6.3-.2H139v1.1c1.1 0 2.3-.1 3.6-.1 2.6 0 4.6.1 6.3.2v-.6zm-15 3.3v2.3c1-.1 2.1-.1 3.5-.2v-3.6c0-.3.1-.5.2-.6-.8 0-1.5.1-2.1.1-.4.2-1.6.8-1.6 2zm5.3-2.2c-.1.1-.1.3-.1.5v3.8h3.6c2.5 0 4.6 0 6.3.1v-4.2c-1.7-.1-3.8-.2-6.3-.2h-3.5zm-1.8 5c-1.3 0-2.4.1-3.3.1-1.5.5-2.1 1.7-2.2 1.9 1.3-.1 2.9-.1 4.9-.2 0-.2.2-.9.6-1.8zm11.7 0c-1.7-.1-3.8-.1-6.5-.1h-3.7c-.5.9-.6 1.6-.7 1.9h4.4c3.5 0 6.2.1 8.4.1-.3-1-1.5-1.6-1.9-1.9zm-12.4 2.4c-2 0-3.7.1-5 .2v5.5c1.3-.1 2.9-.1 5-.1v-5.6zm1.6 0v5.5h4.4c3.6 0 6.4 0 8.5.1v-5.5c-2.2-.1-5-.1-8.5-.1h-4.4zm-1.4 6.6c-1.9.1-3.6.1-5 .2 1.8 2.6-1 2.7-1.1 5 1.5 0 3.2-.1 5.2-.1 0-2.7 2.1-2.8.9-5.1zm14.1.1c-2.5-.1-5.4-.2-8.4-.2-1.4 0-2.8 0-4.2.1 1.2 2.3-1 2.4-.8 5.2h5c3.6 0 6.7 0 9.3.1-.1-3.1-3.5-3.3-.9-5.2zm-14.9 5.9h-5.2v4.9h5.2v-4.9zm15.8 4.9v-4.9h-14.3v4.9h14.3zm-16.6 6.1c-.3-2.9 2.3-2.7 1-5.1h-4c2 1.9-2.1 2.9-1.4 5 1.2.1 2.7.1 4.4.1zm2.5-5.1c1.3 2.4-1.3 2.2-1 5.1h5.8c5.1 0 9 0 12-.1.7-2.6-3.5-2.3-1.1-5-2.6 0-6.2-.1-10.8-.1-1.8.1-3.4.1-4.9.1zm33.5 13.1c.2-.4.3-.7.2-1-11.9 1.1-28.9.9-28.9.9 17.4-.9 19.4-.6 19.4-2.1 0-2.5-5.9-4-8.4-4.6-2.8 0-6.3.1-11 .1H137c-.7.6-2.4 2.4-2.3 6.1h5.4c-8.2.5-14.7.4-19.3.2-.1.1-.4.5-.1.9H167c3.1-.3 4.3-.5 4.3-.5z"/><path d="M135 86.6c-2.1 0-3.9 0-5.3-.1-1.3.2-7.3 1.3-7.4 5.8 2.7.2 6.1.3 10.4.4-.1-3.7 1.6-5.5 2.3-6.1zm7.6-38.6c-.8 0-1.7 0-2.4.1.2 1-.1 1.9-.1 1.9h-.2c-.5-.4-1.2-.1-1.3.1h-.1s.4-.8.3-1.9c-.3 0-.6.1-.9.1.2 1.1-.3 1.7-.3 1.7-.6-.1-1 .4-1 .4h-.3c-.4.4-.3.7-.3 1.1h.3s0 .4.5.6l-1.1.1v.3c.6 0 1.1-.1 1.8-.1V52c.1-.1.4-.3.4-.7h.3s.1.4.5.6c0 0 .1.1.3.1v.2c1.1 0 2.3-.1 3.6-.1 2.5 0 4.6.1 6.3.2V52h-.4c.5-.2.5-.6.5-.6h.3c0 .5.3.7.3.7s.3.3.8.1c.2-.1.3-.2.3-.3.4-.7-.3-1.9-1.5-1.7-.2 0-.3.1-.3.1h-.4c-.4-.5-1.1-.3-1.1-.3s-.6-.9-.4-1.7c-1.1-.2-2.7-.3-4.4-.3zm-6 2.5c0 1.3.8 1.2.9 1.1-.4.8-1.6.2-.9-1.1zm.6.7c-.5-.1-.3-1.4.5-1-.3.3-.1 1.1-.5 1zm12.9-.8c.4 0 1 1.1.4 1.3-.6.1-.8-1.3-.4-1.3zm-.4.3c.1 1.2.7 1.2.9 1.1-.3.6-1.5.3-.9-1.1zm-3.5-.7c.4 0 1 1.4.4 1.4-.7 0-.9-1.4-.4-1.4zm-2.3-.2c.7 0 1.1 1.4.5 1.4-.8 0-.9-1.4-.5-1.4zm-4.4.3c-.2.3.3 1.1-.2 1.2-.7 0-.6-1.8.2-1.2zm-.9.3c.1 1.3.8 1.2 1 1.2-.4.6-1.6.2-1-1.2zm.9 1.5s.4-.2.4-.7h.5s.1.4.5.6l-1.4.1zm1.3-1.5c.1 1.3.9 1.2 1 1.2-.3.6-1.6.2-1-1.2zm.8.8c-.8.2-1-1.8 0-1.3-.1.3.6 1.1 0 1.3zm.3.7s.3-.1.4-.7h.7c.1.5.4.7.4.7h-1.5zm1.6-1.6c.1 1.3.8 1.2.9 1.2-.3.6-1.5.2-.9-1.2zm.8 1.6c.4-.2.5-.6.5-.6h.4c.1.5.4.7.4.7l-1.3-.1zm1.5-1.5c.1 1.3.8 1.2.9 1.2-.3.6-1.5.1-.9-1.2zm2.4-.2c.4-.1 1 1.3.4 1.3-.7-.1-.9-1.3-.4-1.3zm-.4.4c.1 1.2.7 1.1.9 1.1-.3.6-1.4.2-.9-1.1zm-.4.8c0 .4.3.6.4.7l-1.3-.1c.4-.2.5-.6.5-.6h.4zm-9-5.4c-.4 0-.7.1-1.1.1v.4c.3 0 .7-.1 1.1-.1V46zm1.4.3c.8-.1 1.8-.1 2.8-.1 1.7 0 3.1.1 4.2.2V46c-1.2-.1-2.6-.2-4.2-.2-1 0-2 0-2.8.1v.4zm1.4-22.9c-4.6 0-8.1.3-10.9.6l.1 1c2.7-.3 6.1-.6 10.6-.6.1-.3.1-.6.2-1zm15.4 1.9v-1c-.9-.1-1.9-.3-3.1-.4.1.3.1.7.1 1 1.1.1 2.1.3 3 .4zm5.2.3c-.5-.2-1.2-.5-2.2-.7v1c1 .3 1.7.5 2.2.7v-1zm-.1 3.3c0-.5.1-1.1.1-1.6-.5-.2-1.2-.5-2.2-.7 0 .6-.1 1.2-.1 1.5h.1c.9-.1 1.6.3 2.1.8zm-8-1.6c1.3.2 2.3.7 2.9 1.2v-2.6c-.9-.1-1.9-.3-3-.4.1.6.1 1.2.1 1.8zm-16.6 1.6c.6-.5 1.8-1.4 3.7-1.7 0-.7 0-1.4.1-2.1-4.4 0-7.8.3-10.5.6l.2 1.9c.6-.2 1.3-.3 2.1-.3 2.4-.1 3.8 1 4.4 1.6zm21.7 8.1c.4 0 .4-1.4 1.1-1.4.9 0 .5 1.3.5 1.3s.8-3.1 1.1-7.4c-.5-.6-1.1-1-2.1-1-.2 0-.4 0-.6.1 0 4.3-.9 6.6-1.2 7.3h.1c1.2 0 .6 1.1 1.1 1.1zm-4.5-4.1c1.5 0-.1 2.5.7 2.8.3-.6 1.1-2.8 1.2-6.8-.6-.4-1.4-.9-2.6-1.1-.1 2.7-.5 5-.6 5.8h.1c.7 0 .5-.7 1.2-.7z"/><path d="M134.5 33.3c1.3 0 .2 2.1 1.8 2.1.9 0 .5-.9 1.6-.9 1.5 0 .9 1.8 1.9 1.8.8 0 .4-1.1 1.5-1.1.4 0 .6.2.8.4-.4-1.3-1.2-4.3-1.2-7.9-2.5.5-3.8 1.9-3.8 1.9s-1.3-1.9-4.4-1.9c-.8 0-1.4.1-2 .3l.4 4.2c.1-.1.3-.2.5-.2 1.3 0 .3 1.9 1.7 1.9.6.1.4-.6 1.2-.6z"/></g><g fill="#A4A9AD"><path d="M133.4 53.9c-1.1.1-1.8.3-2.4.4v-.8c-1 .3-1.2.5-1.2.5v1s1.1-.7 5.8-1v-1.1c-.9.1-1.6.1-2.3.2v.8zm17.9.2c3.2.4 4.1.8 4.1.8V54s-.4-.6-4.1-1v1.1zm-18.8 1.4v2.9c-.8.1-1.3.1-1.8.2v-3.3c-.8.2-1.2.4-1.2.6v3.5s.8-.3 4.3-.5v-2.3c0-1.1 1.2-1.8 1.6-2-1 .1-1.8.2-2.5.3-.1 0-.4.2-.4.6zm23.2.3c0-.3-1.4-.8-4.4-1.1v4.1c3.6.2 4.4.5 4.4.5v-3.5zm-24.6 5.1c-.8.1-1.4.1-1.9.2.2-.2.8-.7 1.7-1.3-1 .1-1.3.2-1.3.2s-1.6.8-2.3 2c0 0 1.1-.3 4.7-.5.1-.2.7-1.4 2.2-1.9-.6 0-1.1.1-1.5.1-.9.5-1.4 1-1.6 1.2zm22.6.6c3.4.2 4.4.5 4.4.5-.7-1.1-2.3-2-2.3-2s-.8-.2-4.1-.4c.4.2 1.5.8 2 1.9zm-26.3.8v5.6s.8-.2 4.3-.4V62c-.5 0-.9 0-1.3.1V67l-1.9.2v-4.9h-1.1zm30.4 5.5v-5.6s-1.2-.2-4.1-.3v5.5c3.4.3 4.1.4 4.1.4zm-32.4 6s1.9-.1 5.5-.2c.1-2.3 2.9-2.5 1.1-5-.4 0-.8 0-1.2.1 1.5 3.1-1.4 2.9-1.9 4.4l-2.3.1c.3-1.9 3.9-1.6 2.4-4.4-.8.1-1.2.1-1.2.1 1.8 2.9-2.4 2-2.4 4.9zm34.5 0c0-3-4.2-2.1-2.5-4.9 0 0-1.5-.1-3.9-.3-2.7 2 1.1 2.1 1.2 5 3.4.1 5.2.2 5.2.2zm-34.5.7v5s2 0 5.5-.1v-4.9h-2.2v4.3h-2.2v-4.3h-1.1zm34.5 0h-5.1v4.9c3.3 0 5.1.1 5.1.1v-5zm-27.6 5.9h-3c1.2 3-3.3 1.8-3.3 4.3-1 0-1.7-.1-2.2-.1 0-2.4 4.3-1.3 3.3-4.1h-1.2c1.1 2.9-3.4 1.1-3.3 4.5 0 0 2.1.2 8.2.3-.6-2.1 3.5-3 1.5-4.9zm25.1 4.9c3.9-.1 5.2-.3 5.2-.3.1-3.4-4.4-1.6-3.3-4.5 0 0-1.1 0-3.6-.1-2.3 1.9 2.1 2.1 1.7 4.9zm-42.9 6.3s2.2.4 7.8.7c.1-4.5 6.1-5.6 7.4-5.8-6.5-.1-7.2-.4-7.2-.4s-7.5.6-8 5.5zm2.9-.1c-1.5-.2-2.1-.3-2.1-.3s.3-3.6 7.8-4.5c-5.4 1.7-5.7 4.8-5.7 4.8zm45.4-5.4s-.6.2-5.9.3c3.2.5 9.5 1.9 8.9 5.6 0 0 2.7-.2 5-.4-.5-4.9-8-5.5-8-5.5zm-49 6.3c-.1.3 0 .6.2 1 0 0 1.1.2 4.3.4h2.5c-.3-.4 0-.8.1-.9-4.6-.2-7.1-.5-7.1-.5zm34.5-45.8c1.8.3 2.6.7 2.6.7 0-.4-.9-.8-2.6-1.1v.4z"/><path d="M151.3 52.6c2.4.3 3.4.6 3.4.6l.2-.2c-.7-.2-1.8-.4-1.8-.4s.3 0 .4-.4h.2c0 .5.7.6.7 0 0 .5.4.6.5.2h.1c0-2.7-6.8-1.9-5-4.6 0 0-2.7-.7-7.6-.7-4.8 0-7.6.7-7.6.7 1.8 2.7-5 1.9-5 4.6h.1c.1.4.5.3.5-.2 0 .6.8.7.8-.2h.1s0 .5.5.6c0 0-1 .2-1.7.4l.2.2s1.5-.5 5.2-.8v-.3s.3-.2.3-.7c0-.4-.1-.7.3-1.1 0 0-.2-.2-.7-.1 0 0 .9-.8.5-1.7 0 0 .4-.1 1-.1.2 1-.5 1.9-.5 1.9s.4-.4 1-.4c0 0 .5-.5.3-1.7.3 0 .6-.1.9-.1.4 0 .9-.1 1.4-.1.8 0 1.6-.1 2.4-.1 1.7 0 3.3.1 4.5.2.6.1 1 .1 1.4.2-.2 1.1.7 1.8.7 1.8 1.2-.2 1.9 1 1.5 1.7.1-.1.3-.1.4 0 .1.3.3.4.3.4v.4zm3.4-.3c0 .2.3.2.3.1 0 .3-.4.2-.3-.1zm-.1-.8c.2 0 .6.6.4.8-.3.2-.5-.7-.4-.8zm-.7.4c.2.7.5.5.6.3 0 .7-.6.5-.6-.3zm0-.7c.2 0 .8.8.5 1-.3.1-.7-1-.5-1zm-22.7 0c-.4.9-.1.9 0 .7-.1 1.3-1 .4 0-.7zm-.1.5c-.1-.1 0-.6.4-.6-.1.2-.2.7-.4.6zm3.1-1.1c-.2.2-.3.9-.6.8-.3-.1-.1-.9.6-.8zm-1.4.2c-.3.3-.3.9-.6.8-.2-.2-.1-.8.6-.8zm-.8.3c-.3 1 .2.9.5.7-.2 1.1-1.6.6-.5-.7zm.2 1.5c.4-.2.5-.7.5-.7h.1s0 .4.5.6l-1.1.1zm1.2-1.9c-.3 1.4.4 1.1.6 1-.3 1.2-1.9.4-.6-1zm.5 1.6s.3-.1.3-.7h.3s0 .4.4.6l-1 .1zm.9-1.6c-.1 1.3.7 1 .8 1-.3.9-1.6.3-.8-1zm1-.3c-.3.3-.2 1-.5.9-.4-.1-.3-1.1.5-.9zm17.1.5c.3 0 1 .9.6 1.1-.4.2-.8-1.1-.6-1.1zm-.2.4c.3 1.2.7.9.9.8-.1.6-1 .4-.9-.8zm0 .9c.1.1.2.3.4.4l-1.1-.2c.2-.1.3-.2.4-.3 0 0 .2 0 .3.1zm-1-1.6c.4 0 1 1.1.4 1.2-.5.2-.7-1.2-.4-1.2zm-.3.3c.1 1.4.7 1.2.9 1.1-.3.6-1.5.2-.9-1.1zm-17-3.7s.8-.4 2.9-.7v-.4c-.2 0-.4.1-.6.1v.2l-1.2.3v-.2c-.7.2-1.1.5-1.1.7zm-10.7-20.7l-.1-1c-.8.3-1.2.7-1.3.9v1c.2-.2.6-.5 1.4-.9zm5.4-1.3l-.1-1c-1.3.2-2.4.4-3.3.6l.1 1c.9-.1 2-.4 3.3-.6zm-6.4 3.4v1.5c.5-.9 1.4-2 3-2 1.1 0 1.9.6 2.4 1.1.3-.3.7-.7 1.3-1l-.2-2.3c-1.3.2-2.4.4-3.3.6l.1 1.2c-1.3-.1-2.1.6-2.1.6l-.1-1.2c-.1.1-.3.1-.4.2-.5.3-.7.4-.7 1.3z"/><path d="M128.1 29.9s-.8-1.4-2.4-1.4c.4 5.9.9 8 .9 8-.2 0-.3.2-.3.2s-.1-.5-.5-.5c-.8 0-.2 1.1-.2 2.3 0 0-1.6-3.2-1.6-9.2-.6.6-1 1.4-1.2 1.9.8 12 7.3 14.3 11.2 15.8 0 0 .2-.3 1.2-.7-1.1-4.6 2.8-3.8 3.9-9.6-.3 6-3.5 5.4-2.8 9.3.2 0 .4-.1.6-.1 1.1-5 4-4.9 5.3-9-.5 4-3.1 4.8-3.8 8.8.2 0 .3 0 .5-.1 1.1-4.2 5.5-5.2 6.9-9.8-.4 4.6-4.4 5.5-5.8 9.7h.5c2.1-5.1 8.6-5.3 8.9-10.9 1 5.4-6.4 7-7.6 10.8h.7c2.7-5 7.6-3 9.9-11-.8 7.6-6.1 6.9-8.3 11.1h.6c3-4.2 7.6-2.7 9.9-9.9-.7 7.2-6.1 6.4-8.6 10h.6c4.5-4.3 6.9-2.6 9.9-8.3-1.6 5.7-5.7 5.1-8.9 8.4.2 0 .3 0 .5.1 3.7-3.4 7.3-2.5 10.5-7.8-2.2 5.2-7.2 5.4-9.8 7.9.2 0 .4.1.6.1 5-3.5 8.3-3.7 10.7-7.7-1.9 4.2-6.9 5.3-10.1 7.9.2.1.3.1.4.2 4.1-2.8 7.5-2.9 10.7-8.4-2 5.7-8.2 7-10.1 8.8l.3.3c3.9-1.5 10.4-3.8 11.2-15.8-.1-.4-.4-1-.9-1.6-.4 4.3-1.1 7.4-1.1 7.4s.3-1.3-.5-1.3-.7 1.4-1.1 1.4c-.5 0 .1-1.2-.9-1.2h-.1c-.6.1-.5.9-.8.9-.5 0 .3-1.4-.9-1.4-.6 0-.5.4-.9.4h-.2c-.9-.4.8-2.8-.7-2.8-.8 0-.5.7-1.2.7h-.1c-1-.1-.1-2-1.4-2-1.2 0-.5 2.4-1.6 2.4-.9 0-.6-.9-1.5-.9-1.4 0-.7 2.7-1.9 2.7-.8 0-.5-1.1-1.6-1.1-1.4 0-.5 1.7-1.8 1.7-.8 0-.9-.4-1.2-.8-.2-.2-.4-.4-.8-.4-1.1 0-.7 1.1-1.5 1.1-1 0-.4-1.8-1.9-1.8-1.1 0-.8.9-1.6.9-1.6 0-.4-2.1-1.8-2.1-.7 0-.6.7-1.2.7-1.4 0-.4-1.9-1.7-1.9-.2 0-.4.1-.5.2-.5.4-.1 1.7-.7 1.7-.4 0-.6-.7-.6-1.3l-.3-4c-1 .3-1.4 1-1.4 1zm-2.3 6.6c.5 0 .4 2.4.4 2.4-.1-1.5-1-2.4-.4-2.4zm-1 1.6c.9.9.6 2.3 1.5 3.6-1.3-1.2-1-2.8-1.5-3.6zm34.8-1.7c.1-.7.9-.4.7.1-.7 2.3-2.6 3.8-2.6 3.8s1.7-1.9 1.9-3.9zm-2.1.2c.1-.6 1-.2.8.2-1.1 3.1-3.9 4.5-3.9 4.5s2.5-1.7 3.1-4.7zm-1.8-.5c.2-.8 1-.3.8.1-1.6 3.4-3.8 4.6-3.8 4.6s2.5-2.1 3-4.7zm-1.9-2.4c.1-.7 1-.5.9 0-1.2 5.4-5 7.1-5 7.1s3.7-2.6 4.1-7.1zm-2.8-1c0-1 1.1-.9 1.1-.2 0 2.3-2.4 7-5.1 8 0 .1 4-2.6 4-7.8zm-3 1.4c0-.7 1.1-.8 1.1 0 0 3.6-3.2 5-5.8 7 2.7-2.8 4.7-3.2 4.7-7zm-3.6 1.6c.1-1 1-.6.9-.2-1.2 4.2-2.9 3-4.5 5.8 1.7-3.6 3.2-2.3 3.6-5.6zm-3.8.6c0-.9 1.3-.9 1.3 0 0 1.9-1.9 2.6-4.1 6.1 1.5-3.1 2.8-4 2.8-6.1zm-13.3-.8c.7 0 .6 2.1.5 3.8 0-2.6-.9-3-.9-3.4 0-.2.1-.4.4-.4zm-.9 1.8c.5 1.7.1 4.6 2.1 6.7-2.8-2.1-1.8-4.6-2.1-6.7zm2.1-1.4c1 4.9-1.5 5 1.4 8.7-3.9-2.4-1-5.4-1.4-8.7zm9.4-.9c.3 0 .7.3.7.7s-.4.6-.5 1c-.4 2.5-2.1 4.8-2.1 4.8 1.8-4.1.5-6.5 1.9-6.5zm-3.9-.9c0-.2.1-.5.5-.5 1.1 0 .3 5.2-.8 6.8 1.2-5.2.3-5.9.3-6.3zm1.5 1.7c.8 6.8-2.7 6.2-1.3 10.4-3.3-3.4 1.7-5.2 1.3-10.4zM133 45.9c-3.5-2.3-.5-6.4-.5-11.4 1 5.2-2.1 8 .5 11.4zm-1.4-13.4c1 0 .4 3.9-.2 7.3.6-5.8-.3-6.2-.3-6.9 0-.3.2-.4.5-.4zm-1.2 2c1.1 3.2-2.4 7.7 1.5 11.1-5.1-2.9-1.5-6.9-1.5-11.1zm-1.1-.8c1 0 .6 3 .1 4.7.3-3.3-.6-3.6-.6-4.2 0-.2.2-.5.5-.5zm33.6-6.3v-1c-.1-.2-.4-.5-1.1-.8v1c.7.4 1 .6 1.1.8zm-.3 1.2c0-.8-.2-1-.7-1.2h-.1c0 .6-.1 1.1-.1 1.6.4.4.7.8.9 1.2v-1.6z"/></g><path d="M185.7 198.4l-.6-1.4c.4-.1.6-.5.6-.9 0-.5-.4-1-1-1h-1.4v3.2h.6V197h.4l.6 1.3h.8zm-1-1.9h-.7v-.7h.8c.2 0 .4.2.4.4-.1.2-.3.3-.5.3z"/><path d="M187.4 196.8c0-1.6-1.3-2.8-2.8-2.8-1.6 0-2.8 1.3-2.8 2.8 0 1.6 1.3 2.8 2.8 2.8 1.5 0 2.8-1.2 2.8-2.8zm-5.1 0c0-1.2 1-2.2 2.2-2.2 1.2 0 2.2 1 2.2 2.2 0 1.2-1 2.2-2.2 2.2-1.2 0-2.2-1-2.2-2.2zM143 51.2h-.7c-.1.5-.4.7-.4.7h1.4s-.2-.1-.3-.7zm-6.4-.7c-.7 1.3.5 1.8.9 1.1-.1.1-.9.2-.9-1.1zm14 1.3c-.2.1-.8.2-.9-1.1-.6 1.4.6 1.7.9 1.1zm-35.4 39.4s.6.1 2.1.3c0 0 .3-3 5.6-4.8-7.4.9-7.7 4.5-7.7 4.5zm24.3-39.6c-.1 0-.9.1-1-1.2-.5 1.4.7 1.8 1 1.2zm6.2.3s-.4-.2-.4-.7h-.4s-.1.4-.5.6l1.3.1zm-5.3-.6h-.5c-.1.5-.4.7-.4.7h1.4c-.4-.3-.5-.7-.5-.7zm4 .2c-.1 0-.8.2-.9-1.2-.6 1.4.6 1.8.9 1.2z"/><path d="M138.8 52c-.4-.2-.5-.6-.5-.6h-.3c0 .4-.3.6-.4.7l1.2-.1zm3-.4c-.1 0-.9.1-1-1.2-.6 1.4.7 1.8 1 1.2zm-7.6-5.5c-1.3-4.2 2.1-3.5 1.3-10.4.4 5.3-4.6 7.1-1.3 10.4zm14.7 6l.7.1s-.3-.2-.3-.7h-.3s0 .4-.5.6h.4zm1.5.1l1 .1s-.2-.1-.3-.4c0-.1-.3-.2-.4 0-.1.1-.2.3-.3.3zm-14.1-1.8h.3s.7-.9.5-1.9c-.6.1-1 .1-1 .1.4.9-.5 1.7-.5 1.7.4-.2.7.1.7.1zm-7.8-14.5c.3 3.3-2.5 6.3 1.4 8.7-2.9-3.7-.3-3.8-1.4-8.7zm2.7 16c-.1.2-.4.2 0-.7-1 1.1-.1 2 0 .7zm-4.9-10.2c-.8-1.2-.5-2.6-1.5-3.6.5.8.2 2.4 1.5 3.6z"/><path d="M128.5 44c-2.1-2.1-1.6-5-2.1-6.7.3 2.1-.7 4.6 2.1 6.7zm18.2 7.5c-.1 0-.8.2-.9-1.2-.6 1.4.6 1.9.9 1.2zm-10.4 0h-.3c0 .5-.3.7-.3.7l1.1-.1c-.5-.2-.5-.6-.5-.6zm-2.4.3c-.2.1-.9.4-.6-1-1.2 1.3.4 2.1.6 1zm1.7-.1c-.1 0-.9.3-.8-1-.8 1.3.5 1.9.8 1z"/><path d="M134.9 52.2c-.4-.2-.4-.6-.4-.6h-.3c0 .6-.3.7-.3.7l1-.1zm-1.6.2c-.5-.2-.5-.6-.5-.6h-.1s-.1.6-.5.7l1.1-.1z"/><path d="M132.4 51.8c-.2.1-.7.2-.5-.7-1 1.3.4 1.8.5.7zm15.4.2c-.1-.1-.4-.3-.4-.7h-.3s-.1.4-.5.6l1.2.1zm-17.4-17.5c0 4.1-3.6 8.2 1.5 11.1-3.9-3.4-.4-7.9-1.5-11.1zM155 52.4c-.1.1-.3 0-.3-.1-.1.3.3.4.3.1z"/><path d="M132.5 34.5c0 5-3 9.1.5 11.4-2.6-3.4.5-6.2-.5-11.4zm22 17.7c-.1.2-.4.4-.6-.3 0 .8.6 1 .6.3zm-2.2-.2c-.2.1-.8.3-.9-1.1-.6 1.3.6 1.7.9 1.1zm-3.6-.4c-.1 0-.8.2-.9-1.1-.5 1.4.6 1.8.9 1.1z"/><path d="M152 52.4l1.1.2c-.2-.1-.3-.2-.4-.4-.1-.1-.3-.1-.3-.1-.1.2-.2.3-.4.3z"/><path d="M153.6 52.1c-.2.1-.6.3-.9-.8-.1 1.2.8 1.4.9.8zm6.9 115.6c0-.1-.1-.2-.2-.2h-.4v.4h.4c.1 0 .2-.1.2-.2z"/><path d="M160.2 169.2c.7 0 1.2-.5 1.2-1.2s-.5-1.2-1.2-1.2-1.2.5-1.2 1.2.6 1.2 1.2 1.2zm-.6-2h.7c.3 0 .5.2.5.5 0 .2-.1.4-.3.5l.3.7h-.4l-.3-.7h-.2v.7h-.3v-1.7zm-61-67.2l-2.5 4.7H99z"/><path d="M222 93.8h-22s-4-2.8-10.5-2.8c-4.7 0-8.5 1-11.4 2.8H173c.7-2-.7-3.1-.7-3.1-.8-5-8.1-6.1-8.1-6.1-.4-2.7-2.7-3.5-2.7-3.5 1-1.1 0-2.4 0-2.4v-5.4c0-2-2.6-3.3-2.6-3.3s.5-.5.5-2.2v-5.9c0-1.4-2.1-2.9-2.1-2.9v-3.8l-.5-2c.4-2.9-4.9-4.4-4.9-4.4l.3-.3c5.1-1.9 12-5.6 12-19.4 0 0 .3-.5.3-1.2v-1.4c0-3.2-9.8-4.7-22-4.7s-22 1.5-22 4.7v1.4c0 .6.3 1.2.3 1.2 0 13.8 6.9 17.5 12 19.4l.3.3s-5.3 1.5-4.9 4.4l-.5 2V59s-2.1 1.5-2.1 2.9v5.9c0 1.7.5 2.2.5 2.2s-2.6 1.3-2.6 3.3v5.4s-1 1.3 0 2.4c0 0-2.3.9-2.7 3.5 0 0-7.3 1.1-8.1 6.1 0 0-1.4 1.1-.7 3.1H81.4S77.8 91 71.3 91c-9 0-12 4.5-12.6 6.8-1.4 5.5 3.4 7.9 3.4 7.9s-1.6-.6-3.2-1.5l-4.5 8.1s3.3 3.2 11 3.2c3.7 0 6.5-.9 8.2-1.7h2.9c1.1 1.4 2.6 3.8 2.1 5.7L75 133.6h10.1l8 43.1c1 5.5 5.9 12.3 10.8 15l38.7 21.3 38.7-21.3c4.9-2.7 9.8-9.5 10.8-15l8.1-43.5c3.6-1 6.4-3.3 7.2-6.4.8-3.2-1.1-5.2-1.1-5.2l4-7.9h8l1.2-4.8c4.8 0 10-2.4 11.2-6.9 1.3-4.7-2.7-8.2-8.7-8.2zm-47.7 9.5c1.2-4.6 5.4-9.5 15.4-9.5 3.5 0 5.6.8 5.6.8l-1.9 3.3s-1.6-.5-4.1-.5c-5.6 0-8 2.9-8.8 5.8-.5 1.9 0 5.8 6.3 5.8 3 0 4.8-.6 4.8-.6l.5 3.5s-2.6.9-6.7.9c-9.5 0-12.2-5.4-11.1-9.5zm-29.6 69.8l.5-.5c1.2-.3 2-.5 2.8-.6 12.9-.6 23.8-3.1 27.3-6.5-2.4 4.1-15.1 7.3-30.6 7.6zm-34.7-7.6c3.5 3.4 14.4 5.9 27.3 6.5.8.2 1.6.3 2.8.6 0 .1.2.2.5.5-15.5-.3-28.3-3.5-30.6-7.6zm-.5-38.8l-2 3.4H95.2l3.7-14.5h5.2l-2.8 11.1h8.2zm28.9-19l-2 3.4h-12.2l3.7-14.5h5.2l-2.8 11.1h8.1zm2.1-11.1h19l2.2 5.3 5-5.3h5.5l-8.8 8.7-1.5 5.8h-5.2l1.5-5.8-3.7-8.2-.8 2.9h-7.4l-.6 2.2h6.9l-.9 3.4h-6.9l-.5 2h8.8l-2 3.4h-12.9l2.8-11.1c.9-2.1-.5-3.3-.5-3.3zm34.5 63c0-.7-.3-1.4-.9-2 .9.7 1.3 1.5 1.3 2.3 0 2.1-3.1 3.9-8.1 5.4 4.8-1.6 7.7-3.6 7.7-5.7zm-14.7 4.9c1.2-2 1.9-4.3 1.9-6.9 0-2.4-.5-3.9-1-5.3 9.3-1.5 11-4 11-4l.1 9.3c1.7 1.8-1.3 5.1-12 6.9zm-49.1-7c-.6.7-.9 1.3-.9 2 0 2.2 2.9 4.1 7.7 5.6-5.1-1.4-8.1-3.3-8.1-5.4-.1-.7.4-1.4 1.3-2.2zm1.8.1l.1-9.3s.3.4 1.2 1l-.1 9.2c0 2.2 3.1 3 3.1 3s-1-.8-1-2.2l.1-8.9c1.7.7 4.1 1.4 7.6 2-.5 1.4-1 2.9-1 5.3 0 2.6.7 4.9 1.9 6.9-10.6-1.9-13.7-5.2-11.9-7zm15.4-22c-.2.4-.5.7-.8 1-8.1-.7-11.9-2-13.6-3h1.6c2.4.9 6.5 1.7 12.8 2zm-9.5-2h10.4l-.4 1.2c0 .1-.1.2-.1.2-4.4-.4-7.6-.9-9.9-1.4zm-5.8 10.5l.1-10.1s.3.3 1.2.7l-.1 10.6c.5.4 1.2.8 2.1 1.2l.1-11c2 .6 5.1 1.3 9.8 1.8l-3.5 1 1.5 3.4c.7 1.6 1.1 3.2 1.1 4.9 0 1-.1 1.8-.3 2.5-10-1.3-12-4-12-5zm11.8 6.2c-.1.4-.2.7-.4 1-11-1.8-11.9-5-11.9-5v-1.1s1 3.3 12.3 5.1zm-.5 11.6c-.5-1.3-.7-2.8-.7-4.3 0-5.1 2.4-6 2.4-10.9 0-2-.5-3.7-1.1-5.2l-1.2-2.8 2.9-.9c1.3-.4 2.2-1.3 2.8-2.9l1.3-3.5 2.9 2.4c.9.8 2 1.3 3.2 1.3 1.5 0 3.1-.8 4-1.7l1.9-1.8 1.9 1.8c1 .9 2.5 1.7 4 1.7 1.2 0 2.2-.5 3.2-1.3l2.9-2.4 1.3 3.5c.6 1.5 1.5 2.5 2.8 2.9l2.9.9-1.2 2.8c-.6 1.4-1.1 3.2-1.1 5.2 0 2.5.6 4 1.2 5.5.6 1.4 1.1 2.9 1.1 5.4 0 6.8-5.1 11.7-10.7 13.1-2.8.7-4.1.8-6.1 1.3-.3.3-2.2 2.3-2.2 2.3s-1.9-2.1-2.2-2.3c-2.1-.6-3.4-.6-6.1-1.3-4.5-1.1-8.5-4.3-10.1-8.8zm35.7-12.7c-.2-.7-.3-1.6-.3-2.5 0-1.7.4-3.3 1.1-4.9l1.5-3.4-3.5-1c11.1-1.2 13.2-3.3 13.2-3.3l.1 10.1c-.1.9-2 3.6-12.1 5zm12.6-4v1.1s-.9 3.2-11.9 5c-.1-.3-.3-.7-.4-1 11.3-1.8 12.3-5.1 12.3-5.1zm-12.5 21.3c.8 0 1.5.7 1.5 1.5s-.7 1.5-1.5 1.5-1.5-.7-1.5-1.5.7-1.5 1.5-1.5zm-2.6-29.9c-.3-.3-.6-.6-.8-1 6.3-.3 10.5-1.1 12.8-2h1.6c-1.7 1-5.5 2.3-13.6 3zm-1.1-1.6c0-.1-.1-.2-.1-.2l-.4-1.2h10.4c-2.3.5-5.5 1-9.9 1.4zm-5.8-4.6c-7.4 0-8.7-3.3-7.6-7.5 1.1-4.1 4-7.5 11.4-7.5s8.7 3.3 7.6 7.5c-1 4.1-4 7.5-11.4 7.5zm-10.1-14.7h5.5l-8.8 8.7-1.5 5.8h-5.2l1.5-5.8-3.9-8.7h5.1l2.2 5.3 5.1-5.3zm-15.1 0l2.1 14.5H122l-.3-3.3h-4.8l-1.8 3.3h-5.7l9.4-14.5h6.7zm63.9 5.6l-2.9 3.4h-3.2l-1.4 5.4h-5.2l2.8-11.1c.6-2.2-.9-3.4-.9-3.4h14.3L190 119h-5.3l-.6 2.2h5.3zm-10.9-5.6l-2.9 3.4h-5.3l-.6 2.2h5.3l-2.9 3.4h-3.2l-1.4 5.4h-5.2l2.8-11.1c.6-2.2-.9-3.4-.9-3.4h14.3zM129 24.2c.4-.1.8-.1 1.3-.2 2.7-.3 6.3-.6 10.9-.6h1.4c4.5 0 8 .2 10.8.5 1.2.1 2.2.3 3.1.4 1.2.2 2.3.4 3.1.6 1 .3 1.7.5 2.2.7.7.3 1 .6 1.1.8v1c-.1-.2-.4-.5-1.1-.8-.5-.2-1.2-.5-2.2-.7-.8-.2-1.8-.4-3-.6-.9-.1-1.9-.3-3-.4-2.8-.3-6.4-.5-10.9-.5h-1.6c-4.5 0-7.9.3-10.6.6-.5.1-.9.1-1.3.2-1.3.2-2.4.4-3.3.6l-.1-1c.8-.2 1.9-.4 3.2-.6zm-6.6 3.2v-1c.1-.2.5-.5 1.3-.9l.1 1c-.9.4-1.3.7-1.4.9zm.3 1.2c0-.8.2-1 .7-1.2.1-.1.2-.1.4-.2l.1 1.2s.8-.7 2.1-.6l-.1-1.2c.9-.2 2-.4 3.3-.6.4-.1.8-.1 1.3-.2 2.6-.3 6.1-.6 10.5-.6h1.7c4.6 0 8.2.2 11 .5 1.1.1 2.1.2 3 .4 1.2.2 2.2.4 3 .6 1 .2 1.7.5 2.2.7h.1c.5.3.7.4.7 1.2v1.5c-.2-.4-.5-.8-.9-1.2-.5-.5-1.2-.9-2.1-.9h-.1c-1.1 0-1.8.6-2.3 1.1l-.6-.6c-.6-.5-1.6-1-2.9-1.2-.3-.1-.7-.1-1.1-.1-2.4 0-3.8 1.1-4.4 1.7-.8-.6-2.6-1.9-5.5-1.9-.6 0-1.2.1-1.8.2-1.9.4-3.1 1.2-3.7 1.7-.6-.6-2-1.7-4.4-1.7-.8 0-1.5.1-2.1.3-.5.2-.9.4-1.3.6-.6.3-1 .7-1.3 1-.4-.5-1.2-1.1-2.4-1.1-1.5 0-2.5 1.1-3 2-.1-.4-.1-.9-.1-1.4zm.1 2.5c.2-.5.5-1.3 1.2-1.9 0 6 1.6 9.2 1.6 9.2 0-1.2-.6-2.3.2-2.3.4 0 .5.5.5.5s.1-.2.3-.2c0 0-.5-2.1-.9-8 1.5 0 2.4 1.4 2.4 1.4s.4-.7 1.4-1.2c.4-.2.8-.4 1.3-.6.6-.2 1.2-.3 2-.3 3.1 0 4.4 1.9 4.4 1.9s1.3-1.4 3.8-1.9c.5-.1 1.1-.2 1.8-.2 3.7 0 5.5 2.1 5.5 2.1s1.3-1.9 4.4-1.9c.4 0 .8 0 1.1.1 1.1.2 2 .7 2.6 1.1.7.5 1 1 1 1s.6-1 1.8-1.3c.2 0 .4-.1.6-.1.9 0 1.6.5 2.1 1s.7 1.2.9 1.6c-.8 12-7.3 14.3-11.2 15.8l-.3-.3c1.9-1.7 8.1-3 10.1-8.8-3.2 5.5-6.6 5.7-10.7 8.4-.1-.1-.3-.1-.4-.2 3.3-2.6 8.3-3.6 10.1-7.9-2.4 4-5.7 4.2-10.7 7.7-.2 0-.4-.1-.6-.1 2.5-2.5 7.6-2.7 9.8-7.9-3.2 5.2-6.9 4.3-10.5 7.8-.2 0-.3 0-.5-.1 3.2-3.4 7.3-2.8 8.9-8.4-3 5.7-5.4 4-9.9 8.3h-.6c2.5-3.6 7.9-2.8 8.6-10-2.3 7.2-6.9 5.7-9.9 9.9h-.6c2.2-4.1 7.5-3.5 8.3-11.1-2.3 8.1-7.1 6.1-9.9 11h-.7c1.2-3.8 8.6-5.4 7.6-10.8-.3 5.5-6.8 5.8-8.9 10.9h-.5c1.4-4.2 5.4-5.1 5.8-9.7-1.4 4.6-5.8 5.6-6.9 9.8-.2 0-.3 0-.5.1.7-4 3.4-4.8 3.8-8.8-1.3 4.1-4.1 4-5.3 9-.2 0-.4.1-.6.1-.7-3.9 2.5-3.2 2.8-9.3-1.1 5.8-5 5-3.9 9.6-1 .3-1.2.7-1.2.7-4.2-1.4-10.7-3.6-11.5-15.7zm13.9 15.3v-.2c.2 0 .4-.1.6-.1.3 0 .7-.1 1.1-.1.4 0 .9-.1 1.4-.1.9-.1 1.8-.1 2.8-.1 1.6 0 3.1.1 4.2.2.5.1 1 .1 1.4.2 1.7.3 2.6.7 2.6 1.1 0 0-.7-.4-2.6-.7-.4-.1-.9-.1-1.4-.2-1.1-.1-2.5-.2-4.2-.2-1.1 0-2 0-2.8.1-.5 0-1 .1-1.4.1-.4 0-.7.1-1.1.1-2.1.3-2.9.7-2.9.7 0-.3.4-.5 1.1-.7v.2l1.2-.3zm-1.6 1.5s2.7-.7 7.6-.7c4.8 0 7.6.7 7.6.7-1.8 2.7 5 1.9 5 4.6h-.1c-.1.4-.5.3-.5-.2 0 .6-.8.5-.7 0h-.2c-.1.4-.4.4-.4.4s1.1.2 1.8.4l-.2.2s-1-.3-3.4-.6c-.7-.1-1.5-.2-2.4-.2-1.7-.1-3.7-.2-6.3-.2-1.3 0-2.5 0-3.6.1-.6 0-1.1 0-1.6.1-.6 0-1.2.1-1.8.1-3.7.3-5.2.8-5.2.8l-.2-.2c.7-.2 1.7-.4 1.7-.4-.5 0-.5-.6-.5-.6h-.1c0 .9-.8.8-.8.2 0 .5-.4.6-.5.2h-.1c-.1-2.8 6.7-2 4.9-4.7zm-5.2 6.2s.2-.2 1.2-.5v.8c.5-.1 1.3-.3 2.4-.4v-.8c.6-.1 1.4-.2 2.3-.2.5 0 1.1-.1 1.8-.1.5 0 1 0 1.6-.1h3.6c2.6 0 4.6.1 6.3.2.9.1 1.7.1 2.4.2 3.7.4 4.1 1 4.1 1v.8s-.8-.5-4.1-.8c-.7-.1-1.5-.1-2.4-.2-1.7-.1-3.7-.2-6.3-.2-1.3 0-2.5 0-3.6.1-.6 0-1.1 0-1.6.1-.7 0-1.2.1-1.8.1-4.7.4-5.8 1-5.8 1v-1zm-.3 1.7c0-.2.4-.4 1.2-.6v3.3c.4-.1 1-.1 1.8-.2v-2.9c0-.3.3-.5.4-.6.7-.1 1.6-.2 2.5-.3.7 0 1.4-.1 2.1-.1.5 0 1.1 0 1.6-.1h3.4c2.5 0 4.5.1 6.3.2.9.1 1.7.1 2.4.2 3 .3 4.3.8 4.4 1.1v3.5s-.8-.3-4.4-.5c-.7 0-1.5-.1-2.4-.1-1.7-.1-3.7-.1-6.3-.1h-5.3c-1.4 0-2.6.1-3.5.2-3.5.2-4.3.5-4.3.5l.1-3.5zm-.1 4.2s.3-.1 1.3-.2c-.9.6-1.5 1.1-1.7 1.3.5 0 1.2-.1 1.9-.2.2-.2.7-.7 1.5-1.3.4 0 .9-.1 1.5-.1.9 0 2-.1 3.3-.1h5.2c2.6 0 4.8 0 6.5.1 1 0 1.8.1 2.5.1 3.3.2 4.1.4 4.1.4s1.6.8 2.3 2c0 0-1-.2-4.4-.5-.8 0-1.6-.1-2.6-.1-2.1-.1-4.9-.1-8.4-.1h-5.9c-2 0-3.6.1-4.9.2-3.6.2-4.7.5-4.7.5.9-1.2 2.5-2 2.5-2zm.9 7v-4.9c.4 0 .8 0 1.3-.1 1.3-.1 3-.1 5-.2h5.9c3.5 0 6.3.1 8.5.1 1 0 1.8.1 2.6.1 2.9.1 4.1.3 4.1.3v5.6s-.7-.2-4.1-.4c-.7 0-1.6-.1-2.6-.1-2.1-.1-4.9-.1-8.5-.1h-5.9c-2.1 0-3.7.1-5 .1-3.5.2-4.3.4-4.3.4v-5.6s.3 0 1.1-.1V67h1.9zm-2.5 1.9s.4 0 1.2-.1c1.4 2.7-2.1 2.5-2.4 4.4l2.3-.1c.4-1.5 3.3-1.3 1.9-4.4.4 0 .8 0 1.2-.1 1.4-.1 3.1-.2 5-.2h1.5c1.4 0 2.8-.1 4.2-.1 3 0 6 .1 8.4.2.9 0 1.7.1 2.5.1 2.4.1 3.9.3 3.9.3-1.7 2.9 2.5 2 2.5 4.9 0 0-1.8-.1-5.1-.2-.8 0-1.8 0-2.9-.1-2.5 0-5.6-.1-9.3-.1h-6.5c-2 0-3.8.1-5.2.1-3.6.1-5.5.2-5.5.2-.2-2.8 4-1.9 2.3-4.8zm-2.5 5.6h1.1v4.3h2.2v-4.3H160v5s-1.9 0-5.1-.1h-24c-3.5 0-5.5.1-5.5.1v-5zm.5 6h1.2c1 2.8-3.3 1.7-3.3 4.1.5 0 1.3.1 2.2.1 0-2.5 4.4-1.2 3.3-4.3h13.4c4.7 0 8.2 0 10.8.1h2.3c2.5 0 3.6.1 3.6.1-1.1 2.9 3.4 1.1 3.3 4.5 0 0-1.4.1-5.2.3-.8 0-1.8.1-2.8.1-3 .1-6.9.1-12 .1h-7.4c-1.7 0-3.1 0-4.4-.1-6.2-.1-8.2-.3-8.2-.3-.2-3.6 4.3-1.8 3.2-4.7zM114 93.4c-.2-.4-.3-.8-.2-1 0 0 2.5.4 7.1.6 4.5.2 11.1.3 19.3-.2h-7.4c-4.3-.1-7.8-.2-10.4-.4-5.7-.3-7.8-.7-7.8-.7.5-4.9 8.1-5.5 8.1-5.5s.7.2 7.2.4c1.5 0 3.2.1 5.3.1h7.6c4.6 0 8.2 0 11-.1 1.2 0 2.3 0 3.2-.1 5.3-.1 5.9-.3 5.9-.3s7.6.6 8.1 5.5c0 0 .5.2.7.8.1.3 0 .6-.2 1 0 0-1.1.2-4.3.4h-48.7c-3.4-.3-4.5-.5-4.5-.5zm-6.5 3.2h7.9l3.2 8.1 2.1-8.1h5.2l-3.7 14.5h-5.6l-3.5-8.9-2.3 8.9h-5.2l2.8-11.1c.5-2.2-.9-3.4-.9-3.4zm-4.6 0l2.1 14.5h-5.5l-.3-3.3h-4.8l-1.8 3.3h-5.7l9.4-14.5h6.6zm-27.4 11.2c-.8 3.3-5 5-10.1 5-5 0-7.3-1.4-7.3-1.4l1.9-3.5s2.3 1.2 5.9 1.2c1.7 0 3.4-.5 3.7-1.6.8-3.1-9.9-2.6-8.2-8.9.6-2.2 3.6-4.8 9.9-4.8 3.7 0 5.9 1 5.9 1l-1.8 3.5s-1.8-.8-4.5-.8c-2.1 0-3.4.6-3.7 1.4-.7 2.8 9.9 2.6 8.3 8.9zm1-7.8l1.7-3.4h15.2l-1.7 3.4h-4.6l-2.8 11.1h-5.2l2.8-11.1h-5.4zm8.6 25.4l-1.2 4.8h-5.2l2.8-11.1c.6-2.2-.9-3.4-.9-3.4h9c4 0 6.8 1.9 6.1 4.9-.8 3-4.5 4.9-8.5 4.9h-2.1zm57.5 82.4L107 189.3l35.6 15.7 35.6-15.7-35.6 18.5zm44.6-33.6c-1 4.6-5.4 9.9-9.9 11.7l-34.7 13.8-34.6-13.8c-4.4-1.8-8.9-7-9.9-11.7l-8.8-40.6h5.4l8.5 39.5c.6 2.9 3.9 6.8 6.7 7.9l32.7 13 32.7-13c2.8-1.1 6-4.9 6.7-7.9l8.5-39.5h2.5s1.2.2 2.8.2l-8.6 40.4zm17.2-54.7s-1.5-.7-3.6-.7c-1.8 0-2.7.5-2.8.8-.4 1.4 8 1.9 6.8 6.6-.7 2.7-4.1 4.1-8.3 4.1-4.2 0-6.1-1.1-6.1-1.1l1.8-3.3s2 1 4.8 1c1.5 0 2.6-.4 2.8-1 .4-1.5-8-1.7-6.8-6.6.6-2.4 3.8-3.9 8.3-3.9 3.1 0 4.9.8 4.9.8l-1.8 3.3zm6-13.8c-1.2 4.5-5.1 5.6-9.7 5.6-4.5 0-8-1.1-6.8-5.6l2.3-9.1h5.2l-2.3 9.1c-.4 1.7.8 2.2 2.5 2.2s3.2-.5 3.6-2.2l2.3-9.1h5.2l-2.3 9.1zm17.7-4.3c-.8 3-4.5 4.9-8.5 4.9h-2.1l-1.2 4.8H211l3.7-14.5h7.3c4.1 0 6.9 1.9 6.1 4.8z"/><path d="M221.9 100H219l-.7 2.9h2.8c.8 0 1.6-.7 1.8-1.5.2-.8-.2-1.4-1-1.4zM90.6 120.5c.2-.8-.3-1.5-1.1-1.5h-2.8l-.7 2.9h2.8c.8.1 1.6-.6 1.8-1.4zm63.1-1.6c-3 0-4.4 1.8-4.9 4.1-.6 2.2-.1 4.1 2.9 4.1s4.4-1.8 4.9-4.1.1-4.1-2.9-4.1zm-32.2 4.9l-.3-4.7-2.6 4.7zm33.6 22.9c0-2.2.5-4.2.9-5.4-.8-.5-1.8-1.2-2.7-2.4l-25.4 19c.1 3.7 2.5 6.5 5.3 7.9l22.1-16.6c-.2-.7-.2-1.6-.2-2.5zm-16 12.9l-2 1.5-2.1-3.2v4.8l-1.9 1.4v-6.8c0-1-.9-1-.9-1l2.6-2 2.4 3.6v-5.4l1.9-1.4v8.5zm7.5-5.6l-1.8 1.4v-3.1l-2.1 1.6v3.1l-1.9 1.4v-6.8c0-1-.9-1-.9-1l2.8-2.1v3.1l2.1-1.6v-3.1l1.8-1.4v8.5zm6.9-5.2l-5.3 4V146c0-1-.9-1-.9-1l2.8-2.1v6.3l3.4-2.5s-.1.8 0 2.1z"/><path d="M142.6 172.4s1.3-1.4 1.4-1.5c1.5-.5 3.6-.7 6.5-1.5 6.2-1.6 9.7-6.8 9.7-11.8 0-4.5-2.4-5.9-2.4-10.9 0-3.9 1.8-7.1 1.8-7.1s-4.5-.4-5.8-5.9c0 0-2.7 2.8-5.5 2.8-3.5 0-5.9-3-5.9-3s-2.3 3-5.9 3c-2.8 0-5.5-2.8-5.5-2.8-1.2 5.5-5.8 5.9-5.8 5.9s1.8 3.3 1.8 7.1c0 .5 0 1-.1 1.4-.4 3.9-2.3 5.4-2.3 9.5 0 5 3.4 10.2 9.7 11.8 3 .7 5 .9 6.5 1.5.6.2 1.8 1.5 1.8 1.5zm-16.3-14.8c0-4.1 2.4-5.6 2.4-10.9 0-3.5-1.3-6.3-1.3-6.3s3.1-.6 4.5-4.5c0 0 2 1.9 4.9 1.9 3.5 0 5.9-2.5 5.9-2.5s2.3 2.5 5.9 2.5c2.8 0 4.9-1.9 4.9-1.9 1.4 3.9 4.5 4.5 4.5 4.5s-1.3 2.7-1.3 6.3c0 5.2 2.4 6.8 2.4 10.9 0 5.8-4.5 9.4-8.7 10.5-3.3.8-5.5.9-6.9 1.6l-.7.7-.7-.7c-1.4-.7-3.6-.8-6.9-1.6-4.4-1.1-8.9-4.8-8.9-10.5z"/><path d="M148.5 139.3c-2.6 0-4.7-1.2-5.9-2-1.2.9-3.2 2-5.9 2-1.7 0-3.2-.6-4.3-1.2-1 1.6-2.2 2.6-3.2 3.1.4 1.3.9 3.2.9 5.4 0 4.3-1.5 6.3-2.1 8.8l21.6-16.2c-.3.1-.7.1-1.1.1zm-5.9 29.3s.3-.3.5-.4c1-.5 4.2-.9 6.8-1.6 3.6-.9 7.5-4.1 7.5-9 0-2.4-1.1-4-1.8-6.5L135 166.5c.1 0 .2.1.3.1 2.6.7 5.8 1 6.8 1.6.3.1.5.4.5.4z"/><g fill="#FFF"><path d="M129.3 182.2c2.8-1.4 4.1-2.2 4.1-2.9v-.3c0-1.1-1.1-1.7-3.2-1.7h-.9c-2.5 0-3.1 1.1-3.2 1.7v.3h1.4v-.3c0-.1 0-.3.3-.5s.8-.3 1.5-.3h1.1c1.9 0 1.9.6 1.9.8v.1c0 .4-1.1 1-5.5 3.3l-.9.4v.9h7.9v-1h-5.5l1-.5zm11.2-5h-1.2c-2.9 0-3.2 1.3-3.2 1.8v3c0 1.7 2.2 1.9 3.2 1.9h1c3 0 3.4-1 3.4-1.8V179c0-1.2-1.1-1.8-3.2-1.8zm1.8 4.8c0 .2 0 .4-.2.6-.3.2-.9.3-1.7.3h-1.1c-1.2 0-1.8-.3-1.8-.9v-2.9c0-.4.3-.8 1.8-.8h1.2c1.2 0 1.9.3 1.9.8v2.9zm6-4.8c-.1.4-.9 1-2 1v.9h1.4v4.7h1.4v-6.6h-.8zm3.9.1v1h6.6c-2 1.5-4.5 3.8-5.2 5.4h1.7c.6-1.5 4.6-5.2 5.3-5.6v-.9h-8.4z"/></g></svg>