<?xml version="1.0" encoding="UTF-8" standalone="no"?>
<svg
   xmlns:dc="http://purl.org/dc/elements/1.1/"
   xmlns:cc="http://creativecommons.org/ns#"
   xmlns:rdf="http://www.w3.org/1999/02/22-rdf-syntax-ns#"
   xmlns:svg="http://www.w3.org/2000/svg"
   xmlns="http://www.w3.org/2000/svg"
   height="285"
   width="285"
   xml:space="preserve"
   viewBox="0 0 285 285"
   y="0px"
   x="0px"
   id="Art"
   version="1.1"><metadata
     id="metadata977"><rdf:RDF><cc:Work
         rdf:about=""><dc:format>image/svg+xml</dc:format><dc:type
           rdf:resource="http://purl.org/dc/dcmitype/StillImage" /><dc:title></dc:title></cc:Work></rdf:RDF></metadata><defs
     id="defs975" />
	 <g>
	 	<g>
	 		<path fill="#FFFFFF" d="M109.4,182.3l33.3,13.3l33.3-13.3c3.2-1.3,6.8-5.5,7.5-8.9l8.6-39.8h-1.5l-8.5,39.5
	 			c-0.6,2.9-3.9,6.8-6.7,7.9l-32.7,13l-32.7-13c-2.8-1.1-6-4.9-6.7-7.9l-8.5-39.5h-1.5l8.6,39.8C102.6,176.8,106.2,181,109.4,182.3z
	 			"/>
	 		<path fill="#FFFFFF" d="M151.3,54.1v-1.1c-0.7-0.1-1.5-0.2-2.4-0.2v0.4v0.6C149.8,54,150.6,54,151.3,54.1z"/>
	 		<path fill="#FFFFFF" d="M139.1,52.7c-0.6,0-1.1,0-1.6,0.1v1.1c0.5,0,1,0,1.6-0.1V52.7z"/>
	 		<path fill="#FFFFFF" d="M137.4,58.7c0.5,0,1.1,0,1.7,0v-3.8c0-0.2,0.1-0.4,0.1-0.5c-0.6,0-1.1,0-1.6,0.1c-0.1,0.1-0.2,0.3-0.2,0.6
	 			V58.7z"/>
	 		<path fill="#FFFFFF" d="M151.3,54.7c-0.7-0.1-1.5-0.1-2.4-0.2v4.2c0.9,0,1.7,0.1,2.4,0.1V54.7z"/>
	 		<path fill="#FFFFFF" d="M151,61.4c1,0,1.9,0.1,2.6,0.1c-0.4-1.1-1.6-1.7-2-1.9c-0.7,0-1.6-0.1-2.5-0.1
	 			C149.5,59.7,150.7,60.3,151,61.4z"/>
	 		<path fill="#FFFFFF" d="M138.3,61.3c0-0.3,0.2-1,0.7-1.9c-0.5,0-1.1,0-1.5,0c-0.5,0.9-0.6,1.6-0.7,1.9
	 			C137.2,61.3,137.8,61.3,138.3,61.3z"/>
	 		<path fill="#FFFFFF" d="M136.7,67.3c0.5,0,1,0,1.5,0v-5.5c-0.5,0-1,0-1.5,0V67.3z"/>
	 		<path fill="#FFFFFF" d="M153.7,62c-0.8,0-1.6-0.1-2.6-0.1v5.5c1,0,1.9,0.1,2.6,0.1V62z"/>
	 		<path fill="#FFFFFF" d="M151.9,73.6c1.1,0,2,0,2.9,0.1c-0.1-3-3.9-3-1.2-5c-0.7,0-1.6-0.1-2.5-0.1
	 			C148.4,70.4,151.8,70.6,151.9,73.6z"/>
	 		<path fill="#FFFFFF" d="M138.4,68.3c-0.5,0-1,0-1.5,0c1.2,2.3-1,2.4-0.8,5.2c0.5,0,1,0,1.5,0C137.5,70.8,139.7,70.7,138.4,68.3z"
	 			/>
	 		<path fill="#FFFFFF" d="M154.7,74.4c-0.9,0-1.8,0-2.9,0v4.9c1,0,2,0,2.9,0V74.4z"/>
	 		<path fill="#FFFFFF" d="M137.7,74.4c-0.5,0-1,0-1.6,0v4.9c0.5,0,1,0,1.6,0V74.4z"/>
	 		<path fill="#FFFFFF" d="M137.8,80.3c-0.6,0-1.1,0-1.6,0c1.3,2.3-1.3,2.2-1,5.1c0.5,0,1,0,1.6,0C136.6,82.5,139.1,82.7,137.8,80.3z
	 			"/>
	 		<path fill="#FFFFFF" d="M157.4,85.3c0.4-2.8-4.1-2.9-1.6-4.9c-0.7,0-1.4,0-2.3,0c-2.3,2.6,1.9,2.3,1.1,5
	 			C155.7,85.3,156.6,85.3,157.4,85.3z"/>
	 		<path fill="#FFFFFF" d="M153.6,86.6c2.5,0.5,8.4,2.1,8.4,4.6c0,1.5-2,1.2-19.4,2.1c0,0,17,0.2,28.9-0.9c-0.1-0.5-0.7-0.8-0.7-0.8
	 			c-2.3,0.2-5,0.4-5,0.4c0.5-3.7-5.8-5.1-8.9-5.6C155.9,86.5,154.8,86.5,153.6,86.6z"/>
	 		<path fill="#FFFFFF" d="M132.7,92.7c0.7,0,1.3,0,2,0c-0.2-3.7,1.5-5.5,2.3-6.1c-0.7,0-1.4,0-2,0C134.3,87.2,132.6,89,132.7,92.7z"
	 			/>
	 		<path fill="#FFFFFF" d="M138.4,46.4c0.4,0,0.9-0.1,1.4-0.1v-0.4c-0.5,0-1,0.1-1.4,0.1V46.4z"/>
	 		<path fill="#FFFFFF" d="M148.3,46.1c-0.4-0.1-0.9-0.1-1.4-0.2v0.4c0.5,0.1,1,0.1,1.4,0.2V46.1z"/>
	 		<path fill="#FFFFFF" d="M130.4,25.1l-0.1-1c-0.5,0.1-0.9,0.1-1.3,0.2l0.1,1C129.5,25.2,130,25.1,130.4,25.1z"/>
	 		<path fill="#FFFFFF" d="M159.6,25.9c0-0.3,0-0.7,0-1c-0.8-0.2-1.8-0.4-3.1-0.6c0,0.4,0,0.7,0,1C157.8,25.5,158.8,25.7,159.6,25.9z
	 			"/>
	 		<path fill="#FFFFFF" d="M153.6,24.9c0-0.3-0.1-0.7-0.1-1c-2.8-0.3-6.3-0.5-10.8-0.5c-0.5,0-1,0-1.4,0c-0.1,0.3-0.1,0.7-0.2,1
	 			c0.5,0,1,0,1.6,0C147.2,24.4,150.8,24.6,153.6,24.9z"/>
	 		<path fill="#FFFFFF" d="M157.2,29.1c0.4-0.5,1.2-1,2.3-1.1c0-0.3,0.1-0.9,0.1-1.5c-0.8-0.2-1.8-0.4-3-0.6c0,1.3,0,2.2,0,2.6
	 			C156.8,28.7,157,28.9,157.2,29.1z"/>
	 		<path fill="#FFFFFF" d="M148.1,28.9c0.6-0.6,2-1.7,4.4-1.7c0.4,0,0.8,0,1.1,0.1c0-0.6,0-1.2-0.1-1.8c-2.8-0.3-6.4-0.5-11-0.5
	 			c-0.6,0-1.1,0-1.7,0c-0.1,0.7-0.1,1.4-0.1,2.1c0.5-0.1,1.1-0.2,1.8-0.2C145.6,27,147.4,28.3,148.1,28.9z"/>
	 		<path fill="#FFFFFF" d="M129.4,28.1c0.4-0.2,0.8-0.4,1.3-0.6l-0.2-1.9c-0.5,0.1-0.9,0.1-1.3,0.2L129.4,28.1z"/>
	 		<path fill="#FFFFFF" d="M156.2,35.4c1.2,0,0.3,1.4,0.9,1.4c0.3,0,0.2-0.8,0.8-0.9c0.3-0.7,1.2-3,1.2-7.3c-1.2,0.3-1.8,1.3-1.8,1.3
	 			s-0.3-0.5-1-1c0,4-0.9,6.2-1.2,6.8c0.1,0,0.1,0,0.2,0C155.7,35.8,155.6,35.4,156.2,35.4z"/>
	 		<path fill="#FFFFFF" d="M129.8,32.7c0,0.6,0.2,1.3,0.6,1.3c0.6,0,0.2-1.2,0.7-1.7l-0.4-4.2c-0.5,0.2-0.9,0.4-1.3,0.6L129.8,32.7z"
	 			/>
	 		<path fill="#FFFFFF" d="M143.3,36.4c1.2,0,0.3-1.7,1.8-1.7c1,0,0.7,1.1,1.6,1.1c1.2,0,0.5-2.7,1.9-2.7c0.9,0,0.6,0.9,1.5,0.9
	 			c1.1,0,0.4-2.4,1.6-2.4c1.3,0,0.4,1.8,1.4,2c0.2-0.8,0.6-3.1,0.6-5.8c-0.3-0.1-0.7-0.1-1.1-0.1c-3.1,0-4.4,1.9-4.4,1.9
	 			s-1.8-2.1-5.5-2.1c-0.6,0-1.2,0.1-1.8,0.2c0,3.6,0.8,6.6,1.2,7.9C142.3,36,142.5,36.4,143.3,36.4z"/>
	 		<path fill="#FFFFFF" d="M125.8,36.5c-0.7,0,0.3,0.9,0.4,2.4C126.2,38.9,126.3,36.5,125.8,36.5z"/>
	 		<path fill="#FFFFFF" d="M127.3,35.5c-0.2,0-0.4,0.2-0.4,0.4c0,0.4,0.9,0.8,0.9,3.4C127.9,37.6,128,35.5,127.3,35.5z"/>
	 		<path fill="#FFFFFF" d="M129.4,38.4c0.5-1.7,1-4.7-0.1-4.7c-0.4,0-0.6,0.3-0.6,0.6C128.8,34.8,129.6,35.1,129.4,38.4z"/>
	 		<path fill="#FFFFFF" d="M131.4,39.7c0.6-3.4,1.2-7.3,0.2-7.3c-0.3,0-0.5,0.2-0.5,0.4C131.1,33.6,132,34,131.4,39.7z"/>
	 		<path fill="#FFFFFF" d="M134.5,33.6c-0.4,0-0.5,0.3-0.5,0.5c0,0.3,1,1.1-0.3,6.3C134.7,38.8,135.6,33.6,134.5,33.6z"/>
	 		<path fill="#FFFFFF" d="M138.5,35.7c0-0.4-0.4-0.7-0.7-0.7c-1.4,0-0.1,2.4-2,6.5c0,0,1.7-2.2,2.1-4.8
	 			C138.1,36.2,138.5,36.1,138.5,35.7z"/>
	 		<path fill="#FFFFFF" d="M141.9,36.2c0-0.9-1.3-0.8-1.3,0c0,2.2-1.3,3.1-2.8,6.1C139.9,38.9,141.9,38.1,141.9,36.2z"/>
	 		<path fill="#FFFFFF" d="M144.4,35.7c-0.4,3.3-1.8,1.9-3.6,5.6c1.6-2.7,3.3-1.5,4.5-5.8C145.4,35.1,144.5,34.7,144.4,35.7z"/>
	 		<path fill="#FFFFFF" d="M148,34.1c0,3.7-2,4.2-4.7,7c2.6-2,5.8-3.5,5.8-7C149.1,33.3,148,33.4,148,34.1z"/>
	 		<path fill="#FFFFFF" d="M151,32.7c0,5.2-4,7.9-4,7.9c2.7-1,5.1-5.7,5.1-8C152.2,31.8,151,31.8,151,32.7z"/>
	 		<path fill="#FFFFFF" d="M149.8,40.9c0,0,3.7-1.7,5-7.1c0.1-0.5-0.8-0.7-0.9,0C153.4,38.2,149.8,40.9,149.8,40.9z"/>
	 		<path fill="#FFFFFF" d="M155.7,36.1c-0.5,2.5-3.1,4.7-3.1,4.7s2.2-1.2,3.8-4.6C156.7,35.8,155.9,35.4,155.7,36.1z"/>
	 		<path fill="#FFFFFF" d="M157.5,36.6c-0.6,3.1-3,4.7-3,4.7s2.7-1.4,3.9-4.5C158.5,36.4,157.6,36,157.5,36.6z"/>
	 		<path fill="#FFFFFF" d="M157.7,40.3c0,0,1.9-1.5,2.6-3.8c0.1-0.4-0.7-0.7-0.7-0.1C159.4,38.4,157.7,40.3,157.7,40.3z"/>
	 		<path fill="#FFFFFF" d="M137.5,52.3c0.5,0,1-0.1,1.6-0.1V52c-0.2,0-0.3-0.1-0.3-0.1l-1.3,0.1V52.3z"/>
	 		<path fill="#FFFFFF" d="M148.9,52.1v0.3c0.9,0.1,1.7,0.2,2.4,0.2v-0.3l-1-0.1c-0.5,0.2-0.8-0.1-0.8-0.1L148.9,52.1z"/>
	 		<path fill="#FFFFFF" d="M149.2,50.2c0,0-0.9-0.7-0.7-1.8c-0.4,0-0.8-0.1-1.4-0.2c-0.2,0.9,0.4,1.7,0.4,1.7s0.7-0.2,1.1,0.3l0.4,0
	 			C149,50.4,149.1,50.3,149.2,50.2z"/>
	 		<path fill="#FFFFFF" d="M140.1,50c0,0,0.3-0.9,0.1-1.9c-0.5,0-0.9,0.1-1.4,0.1c0.1,1.2-0.3,1.9-0.3,1.9h0.1
	 			c0.1-0.2,0.7-0.5,1.3-0.1L140.1,50z"/>
	 		<path fill="#FFFFFF" d="M148.2,50.2c-0.4,0.1-0.2,1.2,0.4,1.3C149.1,51.5,148.6,50.1,148.2,50.2z"/>
	 		<path fill="#FFFFFF" d="M153.5,52c0.4-0.2-0.3-1.2-0.6-1.1C152.7,50.9,153.1,52.2,153.5,52z"/>
	 		<path fill="#FFFFFF" d="M146.2,50c-0.5,0-0.3,1.4,0.4,1.4C147.2,51.4,146.7,50,146.2,50z"/>
	 		<path fill="#FFFFFF" d="M144.3,51.2c0.6,0,0.2-1.4-0.5-1.4C143.5,49.8,143.6,51.2,144.3,51.2z"/>
	 		<path fill="#FFFFFF" d="M141.6,51.2c0.6-0.2-0.1-1,0-1.3C140.6,49.4,140.9,51.4,141.6,51.2z"/>
	 		<path fill="#FFFFFF" d="M154.4,52.2c0.3-0.1-0.3-0.9-0.5-1C153.7,51.2,154.1,52.3,154.4,52.2z"/>
	 		<path fill="#FFFFFF" d="M154.9,52.3c0.3-0.2-0.2-0.8-0.4-0.8C154.5,51.6,154.7,52.5,154.9,52.3z"/>
	 		<path fill="#FFFFFF" d="M152.1,51.9c0.6-0.1-0.1-1.2-0.4-1.2C151.4,50.6,151.6,52,152.1,51.9z"/>
	 		<path fill="#FFFFFF" d="M150.5,51.7c0.6-0.1-0.1-1.2-0.4-1.3C149.7,50.4,149.9,51.8,150.5,51.7z"/>
	 		<path fill="#FFFFFF" d="M132.2,51.5c0.3,0.2,0.3-0.5,0.6-0.8C132.1,50.8,132,51.4,132.2,51.5z"/>
	 		<path fill="#FFFFFF" d="M131.1,51.7c0.2,0.1,0.3-0.5,0.4-0.6C131.1,51.1,131,51.7,131.1,51.7z"/>
	 		<path fill="#FFFFFF" d="M139.3,51.3c0.5,0,0-0.8,0.2-1.2C138.7,49.5,138.6,51.3,139.3,51.3z"/>
	 		<path fill="#FFFFFF" d="M137.2,51.2c0.4,0.1,0.3-0.8,0.5-1C136.9,49.8,136.7,51.1,137.2,51.2z"/>
	 		<path fill="#FFFFFF" d="M133.6,51.4c0.3,0.1,0.3-0.6,0.6-0.8C133.5,50.5,133.3,51.3,133.6,51.4z"/>
	 		<path fill="#FFFFFF" d="M135.3,51.3c0.3,0.1,0.2-0.6,0.5-0.9C135,50.2,134.9,51.2,135.3,51.3z"/>
	 		<path fill="#FFFFFF" d="M127.3,148.1c-0.5,3.4-2.8,6.1-2.8,9.5c0,1.3,0.2,2.4,0.5,3.5c1.4,4.7,5.6,7.3,9.6,8.3
	 			c-6.2-1.6-9.7-6.8-9.7-11.8C125,153.5,126.9,152,127.3,148.1z"/>
	 		<path fill="#FFFFFF" d="M150.6,169.4c5.6-1.4,10.1-5.5,10.1-11.8c0-2.1-0.6-3.8-1.2-5.3c-0.8-1.8-1.6-3.5-1.6-5.5
	 			c0,5,2.4,6.4,2.4,10.9C160.3,162.6,156.8,167.8,150.6,169.4z"/>
	 		<path fill="#FFFFFF" d="M161.8,168.1c0-0.8-0.7-1.5-1.5-1.5c-0.8,0-1.5,0.7-1.5,1.5c0,0.8,0.7,1.5,1.5,1.5
	 			C161.1,169.6,161.8,168.9,161.8,168.1z M159,168.1c0-0.7,0.5-1.2,1.2-1.2c0.7,0,1.2,0.5,1.2,1.2s-0.5,1.2-1.2,1.2
	 			C159.6,169.2,159,168.7,159,168.1z"/>
	 		<path fill="#FFFFFF" d="M160.9,168.9l-0.3-0.7c0.2-0.1,0.3-0.3,0.3-0.5c0-0.3-0.2-0.5-0.5-0.5h-0.7v1.7h0.3v-0.7h0.2l0.3,0.7
	 			H160.9z M160.3,167.9h-0.4v-0.4h0.4c0.1,0,0.2,0.1,0.2,0.2C160.5,167.8,160.4,167.9,160.3,167.9z"/>
	 		<path fill="#FFFFFF" d="M216.2,111.1l1.2-4.8h2.1c4,0,7.8-1.9,8.5-4.9c0.8-3-2-4.9-6.1-4.9h-7.3l-3.7,14.5H216.2z M219,100h2.8
	 			c0.8,0,1.3,0.7,1.1,1.5c-0.2,0.8-1,1.5-1.8,1.5h-2.8L219,100z M217.9,101.3l-0.6,2.4h3.7c1.2,0,2.5-1,2.8-2.2
	 			c1.2,0.1,2.3,0.3,3.4,0.4c-1,2.3-4.3,3.5-7.3,3.5h-3c0,0-0.9,3.6-1.2,4.8c-0.9,0-2.6,0-3.5,0c0.2-0.9,1.4-5.4,2.3-8.9
	 			C215.6,101.3,216.8,101.3,217.9,101.3z"/>
	 		<path fill="#FFFFFF" d="M105.5,111.1h5.2l2.3-8.9l3.5,8.9h5.6l3.7-14.5h-5.2l-2.1,8.1l-3.2-8.1h-7.9c0,0,1.4,1.2,0.9,3.4
	 			L105.5,111.1z M116.7,102.6c1,2.4,1.9,4.8,1.9,4.8s0.7-2.6,1.3-5.1c1.2-0.1,2.4-0.3,3.6-0.4c-0.9,3.4-1.9,7.5-2.1,8.3
	 			c-1.1,0-3.7,0-4.3,0c-0.2-0.4-1.7-4.4-2.9-7.4C115,102.8,115.9,102.7,116.7,102.6z M111.9,103.1c-0.7,2.8-1.6,6.4-1.8,7.2
	 			c-0.9,0-2.6,0-3.5,0c0.2-0.8,1.1-4.2,1.8-6.9C109.5,103.3,110.7,103.2,111.9,103.1z"/>
	 		<path fill="#FFFFFF" d="M136.4,111.1l2-3.4h-8.2l2.8-11.1h-5.2l-3.7,14.5H136.4z M131.1,101.3c-0.8,3.2-1.8,7.2-1.8,7.2
	 			s6.2,0,7.9,0c-0.4,0.8-0.7,1.3-1,1.8c-1,0-9.5,0-10.8,0c0.2-0.9,1.4-5.3,2.2-8.7C128.7,101.4,129.9,101.3,131.1,101.3z"/>
	 		<path fill="#FFFFFF" d="M161.7,101.9l-2.2-5.3h-19c0,0,1.4,1.2,0.9,3.4l-2.8,11.1h12.9l2-3.4h-8.8l0.5-2h6.9l0.9-3.4h-6.9l0.6-2.2
	 			h7.4l0.8-2.9l3.7,8.2l-1.5,5.8h5.2l1.5-5.8l8.8-8.7h-5.5L161.7,101.9z M151.8,103c-0.2,0.6-0.3,1.1-0.5,1.8c-1.3,0-6.9,0-6.9,0
	 			l-0.9,3.7c0,0,6.8,0,8.5,0c-0.4,0.8-0.7,1.3-1,1.8c-1,0-10.1,0-11.4,0c0.3-1.1,1.8-6.9,2.4-9.2c1.2,0,2.4,0.1,3.5,0.1l-0.5,2
	 			C144.9,103,150.6,103,151.8,103z M162.7,105c0,0-1,4-1.3,5.3c-0.9,0-2.6,0-3.5,0c0.3-1.2,1.3-5.3,1.3-5.3s-0.6-1.2-1.2-2.7
	 			c1.1,0.2,2.2,0.3,3.1,0.5c0.1,0.3,0.2,0.5,0.2,0.5s0.1-0.2,0.4-0.4c0.9,0.2,1.8,0.4,2.5,0.5C163.4,104.3,162.7,105,162.7,105z"/>
	 		<path fill="#FFFFFF" d="M92.6,111.1l1.8-3.3h4.8l0.3,3.3h5.5l-2.1-14.5h-6.6l-9.4,14.5H92.6z M98.6,100l0.4,4.7h-2.9L98.6,100z
	 			 M95.5,104.2l-0.7,1.3h5.2l-0.1-1.5c1.1-0.1,2.2-0.1,3.3-0.2c0.4,2.8,0.8,5.6,0.9,6.5c-1.3,0-3,0-3.7,0c-0.1-0.8-0.3-3.3-0.3-3.3
	 			H94c0,0-1.4,2.5-1.8,3.3c-0.7,0-2.6,0-3.9,0c0.5-0.8,2.1-3.3,3.8-5.9C93.2,104.3,94.3,104.3,95.5,104.2z"/>
	 		<path fill="#FFFFFF" d="M81.9,100l-2.8,11.1h5.2l2.8-11.1h4.6l1.7-3.4H78.2l-1.7,3.4H81.9z M83.6,110.2c-0.9,0-2.6,0-3.5,0
	 			c0.2-0.7,0.8-3.2,1.4-5.6c1.1,0,2.3,0,3.5,0C84.4,107,83.8,109.6,83.6,110.2z"/>
	 		<path fill="#FFFFFF" d="M200.7,111.3c4.5,0,8.5-1.1,9.7-5.6l2.3-9.1h-5.2l-2.3,9.1c-0.4,1.7-1.9,2.2-3.6,2.2
	 			c-1.7,0-2.9-0.5-2.5-2.2l2.3-9.1h-5.2l-2.3,9.1C192.7,110.2,196.2,111.3,200.7,111.3z M194.7,105.7c0,0,0.3-1,0.6-2.4
	 			c1.2-0.1,2.4-0.3,3.6-0.5c-0.4,1.6-0.7,2.8-0.7,2.8c-0.3,1.1-0.3,3,3.1,3c2.5,0,4.2-1.1,4.7-3c0,0,0.5-1.9,1-3.8
	 			c1.2-0.1,2.4-0.2,3.6-0.3c-0.5,2.1-1.1,4.1-1.1,4.1c-0.9,3.4-3.4,4.8-8.6,4.8C195.7,110.4,193.9,109,194.7,105.7z"/>
	 		<path fill="#FFFFFF" d="M185.2,112.8c4.2,0,6.7-0.9,6.7-0.9l-0.5-3.5c0,0-1.8,0.6-4.8,0.6c-6.3,0-6.8-3.9-6.3-5.8
	 			c0.7-2.9,3.1-5.8,8.8-5.8c2.6,0,4.1,0.5,4.1,0.5l1.9-3.3c0,0-2.1-0.8-5.6-0.8c-9.9,0-14.2,4.8-15.4,9.5
	 			C173.2,107.4,175.9,112.8,185.2,112.8z M179.4,104.9c0.1,2.3,1.6,5.1,7,5.1c2,0,3.5-0.3,4.3-0.5c0.1,0.6,0.2,1.2,0.3,1.9
	 			c-1,0.2-3,0.6-5.6,0.6c-7.2,0-10.4-3.4-10.5-6.9C176.2,105,177.7,105,179.4,104.9z"/>
	 		<path fill="#FFFFFF" d="M75.5,107.8c1.6-6.2-9-6-8.3-8.8c0.2-0.8,1.6-1.4,3.7-1.4c2.8,0,4.5,0.8,4.5,0.8l1.8-3.5c0,0-2.2-1-5.9-1
	 			c-6.3,0-9.4,2.5-9.9,4.8c-1.6,6.3,9,5.8,8.2,8.9c-0.3,1.1-2,1.6-3.7,1.6c-3.6,0-5.9-1.2-5.9-1.2l-1.9,3.5c0,0,2.3,1.4,7.3,1.4
	 			C70.4,112.8,74.6,111,75.5,107.8z M60.3,109c1,0.4,2.9,0.9,5.4,0.9c2.5,0,4.4-1,4.7-2.5c0.5-1.8-1.5-2.6-3.6-3.5
	 			c2.1,0.2,4.4,0.4,6.9,0.5c0.8,0.8,1.3,1.9,0.9,3.3c-0.8,3.1-5.4,4.2-9,4.2c-3.4,0-5.5-0.7-6.4-1.1C59.6,110.3,59.9,109.7,60.3,109
	 			z"/>
	 		<path fill="#FFFFFF" d="M98.9,115.7l-3.7,14.5h12.2l2-3.4h-8.2l2.8-11.1H98.9z M108.1,127.6c-0.4,0.8-0.7,1.3-1,1.8
	 			c-1,0-9.5,0-10.8,0c0.2-0.9,1.5-5.8,2.4-9.3c1.1,0,2.3,0,3.5,0c-0.8,3.3-1.9,7.6-1.9,7.6S106.4,127.6,108.1,127.6z"/>
	 		<path fill="#FFFFFF" d="M118.8,115.7l-9.4,14.5h5.7l1.8-3.3h4.8l0.3,3.3h5.5l-2.1-14.5H118.8z M121.5,123.8h-2.9l2.6-4.7
	 			L121.5,123.8z M122.8,129.3c-0.1-0.8-0.3-3.3-0.3-3.3h-6.1c0,0-1.4,2.5-1.8,3.3c-0.7,0-2.6,0-3.9,0c0.8-1.2,3.7-5.7,5.9-9
	 			c1,0,1.9,0.1,2.9,0.1l-2.3,4.2h5.2l-0.3-4.1c1,0.1,2.1,0.1,3.2,0.2c0.5,3.3,1.1,7.5,1.3,8.6C125.3,129.3,123.5,129.3,122.8,129.3z
	 			"/>
	 		<path fill="#FFFFFF" d="M135.6,121l-2.2-5.3h-5.1l3.9,8.7l-1.5,5.8h5.2l1.5-5.8l8.8-8.7h-5.5L135.6,121z M136.6,124.1
	 			c0,0-1,4.1-1.3,5.3c-0.9,0-2.6,0-3.5,0c0.3-1.2,1.3-5.3,1.3-5.3s-0.6-1.4-1.3-3c1,0.1,2,0.1,3,0.2c0.3,0.6,0.5,1.1,0.5,1.1
	 			s0.4-0.4,0.9-1c0.8,0.1,2.1,0.2,2.9,0.2C137.6,123,136.6,124.1,136.6,124.1z"/>
	 		<path fill="#FFFFFF" d="M162.3,130.1h5.2l1.4-5.4h3.2l2.9-3.4h-5.3l0.6-2.2h5.3l2.9-3.4h-14.3c0,0,1.4,1.2,0.9,3.4L162.3,130.1z
	 			 M172.4,123.2c-0.2,0.3-0.4,0.5-0.6,0.7c-0.7,0-3.6,0-3.6,0s-1.1,4.2-1.4,5.4c-0.9,0-2.6,0-3.5,0c0.2-0.8,0.9-3.7,1.6-6.2
	 			C167.5,123.2,170,123.2,172.4,123.2z"/>
	 		<path fill="#FFFFFF" d="M176.7,130.1h5.2l1.4-5.4h3.2l2.9-3.4h-5.3l0.6-2.2h5.3l2.9-3.4h-14.3c0,0,1.4,1.2,0.9,3.4L176.7,130.1z
	 			 M186.9,123.1c-0.3,0.3-0.5,0.6-0.7,0.8c-0.7,0-3.6,0-3.6,0s-1.1,4.2-1.4,5.4c-0.9,0-2.6,0-3.5,0c0.2-0.7,0.9-3.6,1.6-6.1
	 			C182,123.2,184.5,123.2,186.9,123.1z"/>
	 		<path fill="#FFFFFF" d="M78.7,130.1h5.2l1.2-4.8h2.1c4,0,7.8-1.9,8.5-4.9c0.8-3-2-4.9-6.1-4.9h-9c0,0,1.4,1.2,0.9,3.4L78.7,130.1z
	 			 M86.7,119.1h2.8c0.8,0,1.3,0.7,1.1,1.5c-0.2,0.8-1,1.5-1.8,1.5h-2.8L86.7,119.1z M81.9,120.7c1.1-0.1,2.3-0.2,3.6-0.2l-0.6,2.4
	 			h3.7c1.3,0,2.5-1.1,2.9-2.3c0-0.1,0-0.2,0.1-0.4c1.1,0,2.3-0.1,3.5-0.1c0,0.1,0,0.3-0.1,0.5c-0.7,2.7-4.3,4-7.5,4h-3
	 			c0,0-0.9,3.6-1.2,4.8c-0.9,0-2.6,0-3.5,0C80,128.3,81.3,123.3,81.9,120.7z"/>
	 		<path fill="#FFFFFF" d="M154.6,115.5c-7.4,0-10.4,3.3-11.4,7.5c-1.1,4.1,0.2,7.5,7.6,7.5c7.4,0,10.4-3.3,11.4-7.5
	 			C163.2,118.8,162,115.5,154.6,115.5z M148.8,122.9c0.6-2.2,1.9-4.1,4.9-4.1c3,0,3.4,1.8,2.9,4.1c-0.6,2.2-1.9,4.1-4.9,4.1
	 			C148.6,127,148.2,125.1,148.8,122.9z M151,129.5c-7.8,0-7.7-3.8-7-6.6c0.1-0.3,0.2-0.6,0.3-0.9c1.3,0.1,2.6,0.2,3.9,0.3
	 			c-0.1,0.2-0.1,0.4-0.2,0.6c-0.8,3.1,0.4,4.9,3.5,4.9c3,0,5.2-1.7,6-4.9c0,0,0-0.1,0-0.1c1.3,0.1,2.7,0.1,4,0.2
	 			C160.6,125.8,158.7,129.5,151,129.5z"/>
	 		<path fill="#FFFFFF" d="M200.7,118.9c2.1,0,3.6,0.7,3.6,0.7l1.7-3.3c0,0-1.7-0.8-4.9-0.8c-4.5,0-7.7,1.6-8.3,3.9
	 			c-1.3,4.9,7.2,5.1,6.8,6.6c-0.1,0.6-1.3,1-2.8,1c-2.9,0-4.8-1-4.8-1l-1.8,3.3c0,0,1.9,1.1,6.1,1.1c4.2,0,7.6-1.4,8.3-4.1
	 			c1.2-4.7-7.2-5.1-6.8-6.6C198.1,119.3,199,118.9,200.7,118.9z M200.7,122.3c1.9,0.8,3.8,1.9,3.3,4c-0.6,2.4-4.2,3.3-7.3,3.3
	 			c-2.7,0-4.4-0.5-5.2-0.8c0.3-0.6,0.6-1,0.9-1.7c0.9,0.3,2.4,0.7,4.3,0.7c2.1,0,3.5-0.7,3.8-1.8c0.4-1.6-2.8-2.1-5-3.3
	 			C197.4,122.6,199.1,122.4,200.7,122.3z"/>
	 	</g>
	 	<linearGradient id="SVGID_1_" gradientUnits="userSpaceOnUse" x1="142.6147" y1="105.2726" x2="142.6147" y2="199.6824">
	 		<stop  offset="0.1517" style="stop-color:#FFFFFF"/>
	 		<stop  offset="0.288" style="stop-color:#FAFAFA"/>
	 		<stop  offset="0.4562" style="stop-color:#EBECED"/>
	 		<stop  offset="0.6412" style="stop-color:#D2D5D7"/>
	 		<stop  offset="0.8369" style="stop-color:#AFB5B8"/>
	 		<stop  offset="0.9693" style="stop-color:#939BA0"/>
	 	</linearGradient>
	 	<path fill="url(#SVGID_1_)" d="M108,185.9l34.7,13.8l34.7-13.8c4.4-1.8,8.9-7,9.9-11.7l8.7-40.4c-1.6,0-2.8-0.2-2.8-0.2h-1
	 		l-8.6,39.8c-0.7,3.4-4.3,7.6-7.5,8.9l-33.3,13.3l-33.3-13.3c-3.2-1.3-6.8-5.5-7.5-8.9l-8.6-39.8h-3.9l8.8,40.6
	 		C99.1,178.9,103.6,184.1,108,185.9z"/>
	 	<g>
		
	 			<linearGradient id="SVGID_2_" gradientUnits="userSpaceOnUse" x1="12485.2598" y1="11101.8301" x2="12502.5098" y2="11101.8301" gradientTransform="matrix(0.2752 0 0 0.2752 -3312.6252 -2904.9141)">
	 			<stop  offset="0.1124" style="stop-color:#FFFFFF"/>
	 			<stop  offset="0.2375" style="stop-color:#DCDEE0"/>
	 			<stop  offset="0.4401" style="stop-color:#A7AEB2"/>
	 			<stop  offset="0.5393" style="stop-color:#939BA0"/>
	 		</linearGradient>
	 		<path fill="url(#SVGID_2_)" d="M124.5,157.6c0-3.3,2.2-6.1,2.8-9.5c0-0.4,0.1-0.9,0.1-1.4c0-3.9-1.8-7.1-1.8-7.1l-1.8-0.9l1.2,2.8
	 			c0.6,1.4,1.1,3.2,1.1,5.2c0,4.8-2.4,5.8-2.4,10.9c0,1.5,0.3,3,0.7,4.3c0.1-0.3,0.4-0.6,0.6-0.8C124.7,160,124.5,158.9,124.5,157.6
	 			z"/>
	 		<linearGradient id="SVGID_3_" gradientUnits="userSpaceOnUse" x1="159.7371" y1="152.2436" x2="159.7371" y2="138.7138">
	 			<stop  offset="0" style="stop-color:#FFFFFF"/>
	 			<stop  offset="0.3483" style="stop-color:#FFFFFF"/>
	 			<stop  offset="0.5618" style="stop-color:#939BA0"/>
	 			<stop  offset="1" style="stop-color:#939BA0"/>
	 		</linearGradient>
	 		<path fill="url(#SVGID_3_)" d="M157.9,146.7c0,2,0.8,3.7,1.6,5.5l1,0c-0.6-1.5-1.2-3-1.2-5.5c0-2,0.5-3.7,1.1-5.2l1.2-2.8
	 			l-1.8,0.9C159.7,139.6,157.9,142.8,157.9,146.7z"/>
	 		<linearGradient id="SVGID_4_" gradientUnits="userSpaceOnUse" x1="124.413" y1="167.7309" x2="142.6376" y2="167.7309">
	 			<stop  offset="0.1517" style="stop-color:#FFFFFF"/>
	 			<stop  offset="0.2116" style="stop-color:#FAFAFA"/>
	 			<stop  offset="0.2856" style="stop-color:#EBECED"/>
	 			<stop  offset="0.3669" style="stop-color:#D2D5D7"/>
	 			<stop  offset="0.453" style="stop-color:#AFB5B8"/>
	 			<stop  offset="0.5112" style="stop-color:#939BA0"/>
	 		</linearGradient>
	 		<path fill="url(#SVGID_4_)" d="M142.6,172.4c0,0-1.3-1.4-1.4-1.5c-1.5-0.5-3.6-0.7-6.5-1.5c-4.1-1-8.2-3.6-9.6-8.3
	 			c-0.2,0.2-0.5,0.5-0.6,0.8c1.6,4.5,5.6,7.7,9.9,8.8c2.8,0.7,4.1,0.8,6.1,1.3c0.3,0.3,2.2,2.3,2.2,2.3V172.4z"/>
	 		<linearGradient id="SVGID_5_" gradientUnits="userSpaceOnUse" x1="153.45" y1="166.8104" x2="131.8443" y2="135.9543">
	 			<stop  offset="0" style="stop-color:#939BA0"/>
	 			<stop  offset="1.186224e-02" style="stop-color:#98A0A4"/>
	 			<stop  offset="0.1181" style="stop-color:#C1C5C7"/>
	 			<stop  offset="0.202" style="stop-color:#DADCDD"/>
	 			<stop  offset="0.2528" style="stop-color:#E3E4E5"/>
	 			<stop  offset="0.7528" style="stop-color:#E3E4E5"/>
	 			<stop  offset="0.8009" style="stop-color:#DBDDDE"/>
	 			<stop  offset="0.8752" style="stop-color:#C5C9CB"/>
	 			<stop  offset="0.9661" style="stop-color:#A2A9AD"/>
	 			<stop  offset="1" style="stop-color:#939BA0"/>
	 		</linearGradient>
	 		<path fill="url(#SVGID_5_)" d="M126.3,157.6c0,5.8,4.5,9.4,8.7,10.5c3.3,0.8,5.5,0.9,6.9,1.6c0,0,0.5,0.5,0.7,0.7
	 			c0.2-0.2,0.7-0.7,0.7-0.7c1.4-0.7,3.6-0.8,6.9-1.6c4.2-1.1,8.7-4.7,8.7-10.5c0-4.1-2.4-5.6-2.4-10.9c0-3.5,1.3-6.3,1.3-6.3
	 			s-3.1-0.6-4.5-4.5c0,0-2,1.9-4.9,1.9c-3.5,0-5.9-2.5-5.9-2.5s-2.3,2.5-5.9,2.5c-2.8,0-4.9-1.9-4.9-1.9c-1.4,3.9-4.5,4.5-4.5,4.5
	 			s1.3,2.7,1.3,6.3C128.7,151.9,126.3,153.5,126.3,157.6z M157.4,157.6c0,4.9-3.9,8.1-7.5,9c-2.6,0.7-5.8,1-6.8,1.6
	 			c-0.2,0.2-0.5,0.4-0.5,0.4s-0.3-0.3-0.5-0.4c-1-0.5-4.2-0.9-6.8-1.6c-0.1,0-0.2-0.1-0.3-0.1l20.6-15.4
	 			C156.4,153.5,157.4,155.1,157.4,157.6z M156,141.3c-0.4,1.3-0.9,3.2-0.9,5.4c0,0.9,0.1,1.8,0.2,2.5l-22.1,16.6
	 			c-2.8-1.4-5.2-4.1-5.3-7.9l25.4-19C154.1,140.1,155.1,140.8,156,141.3z M132.5,138.2c1,0.6,2.5,1.2,4.3,1.2c2.6,0,4.7-1.2,5.9-2
	 			c1.2,0.9,3.2,2,5.9,2c0.4,0,0.8,0,1.2-0.1l-21.6,16.2c0.6-2.4,2.1-4.5,2.1-8.8c0-2.2-0.5-4.2-0.9-5.4
	 			C130.3,140.7,131.5,139.8,132.5,138.2z"/>
	 		<linearGradient id="SVGID_6_" gradientUnits="userSpaceOnUse" x1="130.69" y1="133.9594" x2="142.6376" y2="133.9594">
	 			<stop  offset="0.2472" style="stop-color:#FFFFFF"/>
	 			<stop  offset="0.3371" style="stop-color:#FAFAFA"/>
	 			<stop  offset="0.4481" style="stop-color:#EBECED"/>
	 			<stop  offset="0.57" style="stop-color:#D2D5D7"/>
	 			<stop  offset="0.699" style="stop-color:#AFB5B9"/>
	 			<stop  offset="0.7865" style="stop-color:#939BA0"/>
	 		</linearGradient>
	 		<path fill="url(#SVGID_6_)" d="M131.3,133.7c0,0,2.7,2.8,5.5,2.8c3.5,0,5.9-3,5.9-3v-1.9l-1.9,1.8c-1,0.9-2.5,1.7-4,1.7
	 			c-1.2,0-2.2-0.5-3.2-1.3l-2.9-2.4L131.3,133.7z"/>
	 		<linearGradient id="SVGID_7_" gradientUnits="userSpaceOnUse" x1="142.6376" y1="163.2978" x2="161.5981" y2="163.2978">
	 			<stop  offset="0.1966" style="stop-color:#FFFFFF"/>
	 			<stop  offset="0.3274" style="stop-color:#FAFBFB"/>
	 			<stop  offset="0.4732" style="stop-color:#EDEEEF"/>
	 			<stop  offset="0.6261" style="stop-color:#D7DADC"/>
	 			<stop  offset="0.7829" style="stop-color:#B8BDC0"/>
	 			<stop  offset="0.9326" style="stop-color:#939BA0"/>
	 		</linearGradient>
	 		<path fill="url(#SVGID_7_)" d="M160.7,157.6c0,6.3-4.5,10.4-10.1,11.8c-3,0.7-5,0.9-6.5,1.5c-0.2,0.2-1.4,1.5-1.4,1.5v2
	 			c0,0,1.9-2.1,2.2-2.3c2.1-0.6,3.4-0.6,6.1-1.3c5.6-1.4,10.7-6.3,10.7-13.1c0-2.4-0.6-3.9-1.1-5.4l-1,0
	 			C160.1,153.8,160.7,155.5,160.7,157.6z"/>
	 		<linearGradient id="SVGID_8_" gradientUnits="userSpaceOnUse" x1="142.6376" y1="133.9594" x2="154.5867" y2="133.9594">
	 			<stop  offset="0.2472" style="stop-color:#FFFFFF"/>
	 			<stop  offset="0.3371" style="stop-color:#FAFAFA"/>
	 			<stop  offset="0.4481" style="stop-color:#EBECED"/>
	 			<stop  offset="0.5701" style="stop-color:#D2D5D7"/>
	 			<stop  offset="0.6991" style="stop-color:#AFB5B8"/>
	 			<stop  offset="0.7865" style="stop-color:#939BA0"/>
	 		</linearGradient>
	 		<path fill="url(#SVGID_8_)" d="M148.5,136.5c2.8,0,5.5-2.8,5.5-2.8l0.6-2.2l-2.9,2.4c-0.9,0.8-2,1.3-3.2,1.3c-1.5,0-3.1-0.8-4-1.7
	 			l-1.9-1.8v1.9C142.6,133.5,145,136.5,148.5,136.5z"/>
	 		<linearGradient id="SVGID_9_" gradientUnits="userSpaceOnUse" x1="123.6983" y1="135.5095" x2="131.2902" y2="135.5095">
	 			<stop  offset="0.3876" style="stop-color:#FFFFFF"/>
	 			<stop  offset="0.4672" style="stop-color:#FAFAFA"/>
	 			<stop  offset="0.5655" style="stop-color:#EBECED"/>
	 			<stop  offset="0.6735" style="stop-color:#D2D5D7"/>
	 			<stop  offset="0.7878" style="stop-color:#AFB5B8"/>
	 			<stop  offset="0.8652" style="stop-color:#939BA0"/>
	 		</linearGradient>
	 		<path fill="url(#SVGID_9_)" d="M126.6,137.8l-2.9,0.9l1.8,0.9c0,0,4.5-0.4,5.8-5.9l-0.6-2.2l-1.3,3.5
	 			C128.8,136.5,127.9,137.5,126.6,137.8z"/>
	 	</g>
	 	<g>
	 		<linearGradient id="SVGID_10_" gradientUnits="userSpaceOnUse" x1="219.5913" y1="112.1617" x2="219.5913" y2="103.7059">
	 			<stop  offset="0" style="stop-color:#FFFFFF"/>
	 			<stop  offset="0.1517" style="stop-color:#FFFFFF"/>
	 			<stop  offset="0.2517" style="stop-color:#FAFAFA"/>
	 			<stop  offset="0.3751" style="stop-color:#EBECED"/>
	 			<stop  offset="0.5109" style="stop-color:#D1D5D7"/>
	 			<stop  offset="0.6555" style="stop-color:#AEB4B8"/>
	 			<stop  offset="0.8057" style="stop-color:#828B91"/>
	 			<stop  offset="0.8242" style="stop-color:#7C858C"/>
	 			<stop  offset="1" style="stop-color:#7C858C"/>
	 		</linearGradient>
	 		<path fill="url(#SVGID_10_)" d="M220.9,103.7h-3.7l0.6-2.4c-1.1,0-2.3,0-3.5,0.1c-0.9,3.5-2,8-2.3,8.9c0.9,0,2.6,0,3.5,0
	 			c0.3-1.1,1.2-4.8,1.2-4.8h3c3,0,6.4-1.2,7.3-3.5c-1-0.2-2.2-0.3-3.4-0.4C223.4,102.7,222.1,103.7,220.9,103.7z"/>
	 		<linearGradient id="SVGID_11_" gradientUnits="userSpaceOnUse" x1="161.0854" y1="112.0146" x2="161.0854" y2="104.3581">
	 			<stop  offset="0" style="stop-color:#FFFFFF"/>
	 			<stop  offset="0.1517" style="stop-color:#FFFFFF"/>
	 			<stop  offset="0.2517" style="stop-color:#FAFAFA"/>
	 			<stop  offset="0.3751" style="stop-color:#EBECED"/>
	 			<stop  offset="0.5109" style="stop-color:#D1D5D7"/>
	 			<stop  offset="0.6555" style="stop-color:#AEB4B8"/>
	 			<stop  offset="0.8057" style="stop-color:#828B91"/>
	 			<stop  offset="0.8242" style="stop-color:#7C858C"/>
	 			<stop  offset="1" style="stop-color:#7C858C"/>
	 		</linearGradient>
	 		<path fill="url(#SVGID_11_)" d="M161.4,103.3c0,0-0.1-0.2-0.2-0.5c-1-0.2-2-0.4-3.1-0.5c0.7,1.5,1.2,2.7,1.2,2.7s-1,4-1.3,5.3
	 			c0.9,0,2.6,0,3.5,0c0.3-1.2,1.3-5.3,1.3-5.3s0.6-0.6,1.6-1.5c-0.8-0.2-1.6-0.3-2.5-0.5C161.5,103.2,161.4,103.3,161.4,103.3z"/>
	 		<linearGradient id="SVGID_12_" gradientUnits="userSpaceOnUse" x1="145.783" y1="112.2321" x2="145.783" y2="103.5003">
	 			<stop  offset="0" style="stop-color:#FFFFFF"/>
	 			<stop  offset="0.1517" style="stop-color:#FFFFFF"/>
	 			<stop  offset="0.2517" style="stop-color:#FAFAFA"/>
	 			<stop  offset="0.3751" style="stop-color:#EBECED"/>
	 			<stop  offset="0.5109" style="stop-color:#D1D5D7"/>
	 			<stop  offset="0.6555" style="stop-color:#AEB4B8"/>
	 			<stop  offset="0.8057" style="stop-color:#828B91"/>
	 			<stop  offset="0.8242" style="stop-color:#7C858C"/>
	 			<stop  offset="1" style="stop-color:#7C858C"/>
	 		</linearGradient>
	 		<path fill="url(#SVGID_12_)" d="M145.4,101.1c-1.1,0-2.3-0.1-3.5-0.1c-0.6,2.4-2.1,8.1-2.4,9.2c1.4,0,10.4,0,11.4,0
	 			c0.3-0.5,0.6-1,1-1.8c-1.7,0-8.5,0-8.5,0l0.9-3.7c0,0,5.7,0,6.9,0c0.2-0.6,0.3-1.1,0.5-1.8c-1.3,0-6.9,0-6.9,0L145.4,101.1z"/>
	 		<linearGradient id="SVGID_13_" gradientUnits="userSpaceOnUse" x1="131.1702" y1="112.1893" x2="131.1702" y2="103.6703">
	 			<stop  offset="0" style="stop-color:#FFFFFF"/>
	 			<stop  offset="0.1517" style="stop-color:#FFFFFF"/>
	 			<stop  offset="0.2517" style="stop-color:#FAFAFA"/>
	 			<stop  offset="0.3751" style="stop-color:#EBECED"/>
	 			<stop  offset="0.5109" style="stop-color:#D1D5D7"/>
	 			<stop  offset="0.6555" style="stop-color:#AEB4B8"/>
	 			<stop  offset="0.8057" style="stop-color:#828B91"/>
	 			<stop  offset="0.8242" style="stop-color:#7C858C"/>
	 			<stop  offset="1" style="stop-color:#7C858C"/>
	 		</linearGradient>
	 		<path fill="url(#SVGID_13_)" d="M136.1,110.2c0.3-0.5,0.6-1,1-1.8c-1.7,0-7.9,0-7.9,0s1-4,1.8-7.2c-1.2,0.1-2.4,0.2-3.6,0.3
	 			c-0.9,3.4-2,7.9-2.2,8.7C126.6,110.2,135.1,110.2,136.1,110.2z"/>
	 		<linearGradient id="SVGID_14_" gradientUnits="userSpaceOnUse" x1="118.8576" y1="112.0731" x2="118.8576" y2="104.1289">
	 			<stop  offset="0" style="stop-color:#FFFFFF"/>
	 			<stop  offset="0.1517" style="stop-color:#FFFFFF"/>
	 			<stop  offset="0.2517" style="stop-color:#FAFAFA"/>
	 			<stop  offset="0.3751" style="stop-color:#EBECED"/>
	 			<stop  offset="0.5109" style="stop-color:#D1D5D7"/>
	 			<stop  offset="0.6555" style="stop-color:#AEB4B8"/>
	 			<stop  offset="0.8057" style="stop-color:#828B91"/>
	 			<stop  offset="0.8242" style="stop-color:#7C858C"/>
	 			<stop  offset="1" style="stop-color:#7C858C"/>
	 		</linearGradient>
	 		<path fill="url(#SVGID_14_)" d="M117.1,110.2c0.6,0,3.2,0,4.3,0c0.2-0.8,1.3-5,2.1-8.3c-1.2,0.1-2.4,0.3-3.6,0.4
	 			c-0.7,2.6-1.3,5.1-1.3,5.1s-0.9-2.4-1.9-4.8c-0.9,0.1-1.7,0.2-2.5,0.2C115.4,105.9,116.9,109.8,117.1,110.2z"/>
	 		<linearGradient id="SVGID_15_" gradientUnits="userSpaceOnUse" x1="109.204" y1="111.8561" x2="109.204" y2="104.985">
	 			<stop  offset="0" style="stop-color:#FFFFFF"/>
	 			<stop  offset="0.1517" style="stop-color:#FFFFFF"/>
	 			<stop  offset="0.2517" style="stop-color:#FAFAFA"/>
	 			<stop  offset="0.3751" style="stop-color:#EBECED"/>
	 			<stop  offset="0.5109" style="stop-color:#D1D5D7"/>
	 			<stop  offset="0.6555" style="stop-color:#AEB4B8"/>
	 			<stop  offset="0.8057" style="stop-color:#828B91"/>
	 			<stop  offset="0.8242" style="stop-color:#7C858C"/>
	 			<stop  offset="1" style="stop-color:#7C858C"/>
	 		</linearGradient>
	 		<path fill="url(#SVGID_15_)" d="M106.5,110.2c0.9,0,2.6,0,3.5,0c0.2-0.8,1.1-4.3,1.8-7.2c-1.2,0.1-2.4,0.2-3.6,0.3
	 			C107.6,106,106.7,109.4,106.5,110.2z"/>
	 		<linearGradient id="SVGID_16_" gradientUnits="userSpaceOnUse" x1="96.1714" y1="111.7312" x2="96.1714" y2="105.478">
	 			<stop  offset="0" style="stop-color:#FFFFFF"/>
	 			<stop  offset="0.1517" style="stop-color:#FFFFFF"/>
	 			<stop  offset="0.2517" style="stop-color:#FAFAFA"/>
	 			<stop  offset="0.3751" style="stop-color:#EBECED"/>
	 			<stop  offset="0.5109" style="stop-color:#D1D5D7"/>
	 			<stop  offset="0.6555" style="stop-color:#AEB4B8"/>
	 			<stop  offset="0.8057" style="stop-color:#828B91"/>
	 			<stop  offset="0.8242" style="stop-color:#7C858C"/>
	 			<stop  offset="1" style="stop-color:#7C858C"/>
	 		</linearGradient>
	 		<path fill="url(#SVGID_16_)" d="M88.3,110.2c1.3,0,3.1,0,3.9,0c0.4-0.8,1.8-3.3,1.8-3.3h6.1c0,0,0.2,2.6,0.3,3.3
	 			c0.7,0,2.4,0,3.7,0c-0.1-0.9-0.5-3.7-0.9-6.5c-1.1,0.1-2.2,0.1-3.3,0.2l0.1,1.5h-5.2l0.7-1.3c-1.1,0.1-2.3,0.1-3.4,0.2
	 			C90.4,106.9,88.8,109.4,88.3,110.2z"/>
	 		<linearGradient id="SVGID_17_" gradientUnits="userSpaceOnUse" x1="82.577" y1="111.5843" x2="82.577" y2="106.0573">
	 			<stop  offset="0" style="stop-color:#FFFFFF"/>
	 			<stop  offset="0.1517" style="stop-color:#FFFFFF"/>
	 			<stop  offset="0.2517" style="stop-color:#FAFAFA"/>
	 			<stop  offset="0.3751" style="stop-color:#EBECED"/>
	 			<stop  offset="0.5109" style="stop-color:#D1D5D7"/>
	 			<stop  offset="0.6555" style="stop-color:#AEB4B8"/>
	 			<stop  offset="0.8057" style="stop-color:#828B91"/>
	 			<stop  offset="0.8242" style="stop-color:#7C858C"/>
	 			<stop  offset="1" style="stop-color:#7C858C"/>
	 		</linearGradient>
	 		<path fill="url(#SVGID_17_)" d="M80.1,110.2c0.9,0,2.6,0,3.5,0c0.2-0.7,0.8-3.2,1.5-5.7c-1.2,0-2.4,0-3.5,0
	 			C80.9,107.1,80.3,109.6,80.1,110.2z"/>
	 		<linearGradient id="SVGID_18_" gradientUnits="userSpaceOnUse" x1="202.5605" y1="112.3827" x2="202.5605" y2="103.9409">
	 			<stop  offset="0" style="stop-color:#FFFFFF"/>
	 			<stop  offset="0.1517" style="stop-color:#FFFFFF"/>
	 			<stop  offset="0.2517" style="stop-color:#FAFAFA"/>
	 			<stop  offset="0.3751" style="stop-color:#EBECED"/>
	 			<stop  offset="0.5109" style="stop-color:#D1D5D7"/>
	 			<stop  offset="0.6555" style="stop-color:#AEB4B8"/>
	 			<stop  offset="0.8057" style="stop-color:#828B91"/>
	 			<stop  offset="0.8242" style="stop-color:#7C858C"/>
	 			<stop  offset="1" style="stop-color:#7C858C"/>
	 		</linearGradient>
	 		<path fill="url(#SVGID_18_)" d="M207,101.8c-0.5,2-1,3.8-1,3.8c-0.5,1.9-2.1,3-4.7,3c-3.4,0-3.4-1.9-3.1-3c0,0,0.3-1.3,0.7-2.8
	 			c-1.3,0.2-2.5,0.3-3.6,0.5c-0.3,1.3-0.6,2.4-0.6,2.4c-0.9,3.4,1,4.8,6.2,4.8c5.2,0,7.8-1.4,8.6-4.8c0,0,0.5-2,1.1-4.1
	 			C209.4,101.6,208.2,101.7,207,101.8z"/>
	 		<linearGradient id="SVGID_19_" gradientUnits="userSpaceOnUse" x1="182.9422" y1="113.44" x2="182.9422" y2="106.7433">
	 			<stop  offset="0" style="stop-color:#FFFFFF"/>
	 			<stop  offset="0.1517" style="stop-color:#FFFFFF"/>
	 			<stop  offset="0.2517" style="stop-color:#FAFAFA"/>
	 			<stop  offset="0.3751" style="stop-color:#EBECED"/>
	 			<stop  offset="0.5109" style="stop-color:#D1D5D7"/>
	 			<stop  offset="0.6555" style="stop-color:#AEB4B8"/>
	 			<stop  offset="0.8057" style="stop-color:#828B91"/>
	 			<stop  offset="0.8242" style="stop-color:#7C858C"/>
	 			<stop  offset="1" style="stop-color:#7C858C"/>
	 		</linearGradient>
	 		<path fill="url(#SVGID_19_)" d="M185.4,112c2.6,0,4.5-0.3,5.6-0.6c-0.1-0.7-0.2-1.3-0.3-1.9c-0.9,0.2-2.3,0.5-4.3,0.5
	 			c-5.4,0-7-2.8-7-5.1c-1.7,0.1-3.2,0.2-4.5,0.2C175,108.6,178.3,112,185.4,112z"/>
	 		<linearGradient id="SVGID_20_" gradientUnits="userSpaceOnUse" x1="67.0092" y1="113.7376" x2="67.0092" y2="106.056">
	 			<stop  offset="0" style="stop-color:#FFFFFF"/>
	 			<stop  offset="0.1517" style="stop-color:#FFFFFF"/>
	 			<stop  offset="0.2517" style="stop-color:#FAFAFA"/>
	 			<stop  offset="0.3751" style="stop-color:#EBECED"/>
	 			<stop  offset="0.5109" style="stop-color:#D1D5D7"/>
	 			<stop  offset="0.6555" style="stop-color:#AEB4B8"/>
	 			<stop  offset="0.8057" style="stop-color:#828B91"/>
	 			<stop  offset="0.8242" style="stop-color:#7C858C"/>
	 			<stop  offset="1" style="stop-color:#7C858C"/>
	 		</linearGradient>
	 		<path fill="url(#SVGID_20_)" d="M66.9,104c2.1,0.9,4,1.7,3.6,3.5c-0.4,1.5-2.2,2.5-4.7,2.5c-2.5,0-4.4-0.6-5.4-0.9
	 			c-0.4,0.7-0.7,1.3-1.1,1.9c0.9,0.4,3,1.1,6.4,1.1c3.7,0,8.2-1.1,9-4.2c0.4-1.4-0.1-2.5-0.9-3.3C71.2,104.3,68.9,104.1,66.9,104z"
	 			/>
	 		<linearGradient id="SVGID_21_" gradientUnits="userSpaceOnUse" x1="102.1892" y1="130.9543" x2="102.1892" y2="123.1462">
	 			<stop  offset="0" style="stop-color:#FFFFFF"/>
	 			<stop  offset="0.1517" style="stop-color:#FFFFFF"/>
	 			<stop  offset="0.2517" style="stop-color:#FAFAFA"/>
	 			<stop  offset="0.3751" style="stop-color:#EBECED"/>
	 			<stop  offset="0.5109" style="stop-color:#D1D5D7"/>
	 			<stop  offset="0.6555" style="stop-color:#AEB4B8"/>
	 			<stop  offset="0.8057" style="stop-color:#828B91"/>
	 			<stop  offset="0.8242" style="stop-color:#7C858C"/>
	 			<stop  offset="1" style="stop-color:#7C858C"/>
	 		</linearGradient>
	 		<path fill="url(#SVGID_21_)" d="M100.2,127.6c0,0,1.1-4.3,1.9-7.6c-1.2,0-2.4,0-3.5,0c-0.9,3.5-2.1,8.4-2.4,9.3
	 			c1.4,0,9.8,0,10.8,0c0.3-0.5,0.6-1,1-1.8C106.4,127.6,100.2,127.6,100.2,127.6z"/>
	 		<linearGradient id="SVGID_22_" gradientUnits="userSpaceOnUse" x1="118.6854" y1="130.9567" x2="118.6854" y2="123.1331">
	 			<stop  offset="0" style="stop-color:#FFFFFF"/>
	 			<stop  offset="0.1517" style="stop-color:#FFFFFF"/>
	 			<stop  offset="0.2517" style="stop-color:#FAFAFA"/>
	 			<stop  offset="0.3751" style="stop-color:#EBECED"/>
	 			<stop  offset="0.5109" style="stop-color:#D1D5D7"/>
	 			<stop  offset="0.6555" style="stop-color:#AEB4B8"/>
	 			<stop  offset="0.8057" style="stop-color:#828B91"/>
	 			<stop  offset="0.8242" style="stop-color:#7C858C"/>
	 			<stop  offset="1" style="stop-color:#7C858C"/>
	 		</linearGradient>
	 		<path fill="url(#SVGID_22_)" d="M125.3,120.7c-1.1-0.1-2.1-0.1-3.2-0.2l0.3,4.1h-5.2l2.3-4.2c-1,0-1.9-0.1-2.9-0.1
	 			c-2.2,3.4-5.1,7.9-5.9,9c1.3,0,3.1,0,3.9,0c0.4-0.8,1.8-3.3,1.8-3.3h6.1c0,0,0.2,2.6,0.3,3.3c0.7,0,2.4,0,3.7,0
	 			C126.4,128.2,125.8,124,125.3,120.7z"/>
	 		<linearGradient id="SVGID_23_" gradientUnits="userSpaceOnUse" x1="135.3536" y1="130.9676" x2="135.3536" y2="123.0885">
	 			<stop  offset="0" style="stop-color:#FFFFFF"/>
	 			<stop  offset="0.1517" style="stop-color:#FFFFFF"/>
	 			<stop  offset="0.2517" style="stop-color:#FAFAFA"/>
	 			<stop  offset="0.3751" style="stop-color:#EBECED"/>
	 			<stop  offset="0.5109" style="stop-color:#D1D5D7"/>
	 			<stop  offset="0.6555" style="stop-color:#AEB4B8"/>
	 			<stop  offset="0.8057" style="stop-color:#828B91"/>
	 			<stop  offset="0.8242" style="stop-color:#7C858C"/>
	 			<stop  offset="1" style="stop-color:#7C858C"/>
	 		</linearGradient>
	 		<path fill="url(#SVGID_23_)" d="M139,121.7c-0.8-0.1-2.1-0.2-2.9-0.2c-0.6,0.6-0.9,1-0.9,1s-0.2-0.4-0.5-1.1c-1-0.1-2-0.1-3-0.2
	 			c0.7,1.6,1.3,3,1.3,3s-1,4-1.3,5.3c0.9,0,2.6,0,3.5,0c0.3-1.2,1.3-5.3,1.3-5.3S137.6,123,139,121.7z"/>
	 		<linearGradient id="SVGID_24_" gradientUnits="userSpaceOnUse" x1="167.8639" y1="130.9885" x2="167.8639" y2="122.9908">
	 			<stop  offset="0" style="stop-color:#FFFFFF"/>
	 			<stop  offset="0.1517" style="stop-color:#FFFFFF"/>
	 			<stop  offset="0.2517" style="stop-color:#FAFAFA"/>
	 			<stop  offset="0.3751" style="stop-color:#EBECED"/>
	 			<stop  offset="0.5109" style="stop-color:#D1D5D7"/>
	 			<stop  offset="0.6555" style="stop-color:#AEB4B8"/>
	 			<stop  offset="0.8057" style="stop-color:#828B91"/>
	 			<stop  offset="0.8242" style="stop-color:#7C858C"/>
	 			<stop  offset="1" style="stop-color:#7C858C"/>
	 		</linearGradient>
	 		<path fill="url(#SVGID_24_)" d="M163.3,129.3c0.9,0,2.6,0,3.5,0c0.3-1.2,1.4-5.4,1.4-5.4s2.9,0,3.6,0c0.1-0.2,0.3-0.4,0.6-0.7
	 			c-2.4,0-4.9-0.1-7.5-0.1C164.3,125.6,163.5,128.6,163.3,129.3z"/>
	 		<linearGradient id="SVGID_25_" gradientUnits="userSpaceOnUse" x1="182.3385" y1="130.9904" x2="182.3385" y2="122.9798">
	 			<stop  offset="0" style="stop-color:#FFFFFF"/>
	 			<stop  offset="0.1517" style="stop-color:#FFFFFF"/>
	 			<stop  offset="0.2517" style="stop-color:#FAFAFA"/>
	 			<stop  offset="0.3751" style="stop-color:#EBECED"/>
	 			<stop  offset="0.5109" style="stop-color:#D1D5D7"/>
	 			<stop  offset="0.6555" style="stop-color:#AEB4B8"/>
	 			<stop  offset="0.8057" style="stop-color:#828B91"/>
	 			<stop  offset="0.8242" style="stop-color:#7C858C"/>
	 			<stop  offset="1" style="stop-color:#7C858C"/>
	 		</linearGradient>
	 		<path fill="url(#SVGID_25_)" d="M177.8,129.3c0.9,0,2.6,0,3.5,0c0.3-1.2,1.4-5.4,1.4-5.4s2.9,0,3.6,0c0.2-0.2,0.4-0.5,0.7-0.8
	 			c-2.4,0.1-4.9,0.1-7.6,0.2C178.7,125.7,177.9,128.6,177.8,129.3z"/>
	 		<linearGradient id="SVGID_26_" gradientUnits="userSpaceOnUse" x1="87.357" y1="130.956" x2="87.357" y2="123.1409">
	 			<stop  offset="0" style="stop-color:#FFFFFF"/>
	 			<stop  offset="0.1517" style="stop-color:#FFFFFF"/>
	 			<stop  offset="0.2517" style="stop-color:#FAFAFA"/>
	 			<stop  offset="0.3751" style="stop-color:#EBECED"/>
	 			<stop  offset="0.5109" style="stop-color:#D1D5D7"/>
	 			<stop  offset="0.6555" style="stop-color:#AEB4B8"/>
	 			<stop  offset="0.8057" style="stop-color:#828B91"/>
	 			<stop  offset="0.8242" style="stop-color:#7C858C"/>
	 			<stop  offset="1" style="stop-color:#7C858C"/>
	 		</linearGradient>
	 		<path fill="url(#SVGID_26_)" d="M95,120.1c-1.2,0-2.4,0.1-3.5,0.1c0,0.1,0,0.2-0.1,0.4c-0.3,1.2-1.6,2.3-2.9,2.3h-3.7l0.6-2.4
	 			c-1.2,0.1-2.4,0.1-3.6,0.2c-0.7,2.6-2,7.6-2.2,8.7c0.9,0,2.6,0,3.5,0c0.3-1.1,1.2-4.8,1.2-4.8h3c3.2,0,6.8-1.4,7.5-4
	 			C95,120.4,95,120.2,95,120.1z"/>
	 		<linearGradient id="SVGID_27_" gradientUnits="userSpaceOnUse" x1="152.4897" y1="130.9573" x2="152.4897" y2="123.0493">
	 			<stop  offset="0" style="stop-color:#FFFFFF"/>
	 			<stop  offset="0.1517" style="stop-color:#FFFFFF"/>
	 			<stop  offset="0.2517" style="stop-color:#FAFAFA"/>
	 			<stop  offset="0.3751" style="stop-color:#EBECED"/>
	 			<stop  offset="0.5109" style="stop-color:#D1D5D7"/>
	 			<stop  offset="0.6555" style="stop-color:#AEB4B8"/>
	 			<stop  offset="0.8057" style="stop-color:#828B91"/>
	 			<stop  offset="0.8242" style="stop-color:#7C858C"/>
	 			<stop  offset="1" style="stop-color:#7C858C"/>
	 		</linearGradient>
	 		<path fill="url(#SVGID_27_)" d="M161.3,123c-1.3-0.1-2.6-0.1-4-0.2c0,0,0,0.1,0,0.1c-0.8,3.1-2.9,4.9-6,4.9c-3,0-4.3-1.7-3.5-4.9
	 			c0.1-0.2,0.1-0.4,0.2-0.6c-1.3-0.1-2.6-0.2-3.9-0.3c-0.1,0.3-0.2,0.6-0.3,0.9c-0.7,2.8-0.8,6.6,7,6.6
	 			C158.7,129.5,160.6,125.8,161.3,123z"/>
	 		<linearGradient id="SVGID_28_" gradientUnits="userSpaceOnUse" x1="197.7479" y1="130.9583" x2="197.7479" y2="123.045">
	 			<stop  offset="0" style="stop-color:#FFFFFF"/>
	 			<stop  offset="0.1517" style="stop-color:#FFFFFF"/>
	 			<stop  offset="0.2517" style="stop-color:#FAFAFA"/>
	 			<stop  offset="0.3751" style="stop-color:#EBECED"/>
	 			<stop  offset="0.5109" style="stop-color:#D1D5D7"/>
	 			<stop  offset="0.6555" style="stop-color:#AEB4B8"/>
	 			<stop  offset="0.8057" style="stop-color:#828B91"/>
	 			<stop  offset="0.8242" style="stop-color:#7C858C"/>
	 			<stop  offset="1" style="stop-color:#7C858C"/>
	 		</linearGradient>
	 		<path fill="url(#SVGID_28_)" d="M200.5,126c-0.3,1.1-1.7,1.8-3.8,1.8c-1.9,0-3.5-0.4-4.3-0.7c-0.4,0.7-0.6,1.1-0.9,1.7
	 			c0.8,0.3,2.5,0.8,5.2,0.8c3.1,0,6.6-0.9,7.3-3.3c0.5-2-1.4-3.2-3.3-4c-1.6,0.1-3.3,0.3-5.2,0.4C197.6,123.9,200.9,124.3,200.5,126
	 			z"/>
	 	</g>
	 	<g>
	 		<path fill="#D1D3D3" d="M155.9,135l-1.3-3.5l-0.6,2.2c1.2,5.5,5.8,5.9,5.8,5.9l1.8-0.9l-2.9-0.9
	 			C157.4,137.5,156.4,136.5,155.9,135z"/>
	 		<path fill="#D1D3D3" d="M137.3,157.9l-2.4-3.6l-2.6,2c0,0,0.9,0,0.9,1v6.8l1.9-1.4v-4.8l2.1,3.2l2-1.5v-8.5l-1.9,1.4V157.9z"/>
	 		<path fill="#D1D3D3" d="M144.8,150l-2.1,1.6v-3.1l-2.8,2.1c0,0,0.9,0,0.9,1v6.8l1.9-1.4v-3.1l2.1-1.6v3.1l1.8-1.4v-8.5l-1.8,1.4
	 			V150z"/>
	 		<path fill="#D1D3D3" d="M150.1,149.2v-6.3l-2.8,2.1c0,0,0.9,0,0.9,1v6.8l5.3-4c-0.1-1.4,0-2.2,0-2.2L150.1,149.2z"/>
	 	</g>
	 	<polygon fill="#7D868C" points="142.6,207.8 142.6,205 107,189.3 	"/>
	 	<g>
	 		<path fill="#C3C6C8" d="M222,92.1h-21.4c0,0-4.5-2.8-11-2.8c-4.8,0-8.7,1-11.9,2.8h-2.9c-0.2-1.4-1.1-2.3-1.1-2.3
	 			c-1.2-4.4-6.1-6.1-8.3-6.6c-0.5-1.2-1.2-2.1-1.9-2.8c0.3-0.8-0.3-2.1-0.3-2.1v-5c0-1.8-1.2-3.2-2.2-4c0.1-0.4,0.2-1,0.2-1.6v-5.9
	 			c0-1.6-1.2-2.9-2.1-3.7l0-3.2l-0.5-1.9c0.2-2.7-2.7-4.3-2.7-4.3c5.1-2.6,10-7.6,10.1-19.3c0.1-0.4,0.3-0.9,0.3-1.6v-1.4
	 			c0-1.6,0-6.4-23.7-6.4C119,20,119,24.8,119,26.4v1.4c0,0.6,0.2,1.2,0.3,1.6c0.1,11.7,4.9,16.7,10.1,19.3c0,0-2.8,1.6-2.7,4.3
	 			l-0.5,1.9l0,3.2c-0.9,0.8-2.1,2.1-2.1,3.7v5.9c0,0.6,0.1,1.2,0.2,1.6c-1,0.8-2.2,2.2-2.2,4v5c0,0-0.6,1.3-0.3,2.1
	 			c-0.8,0.6-1.5,1.5-1.9,2.8c-2.2,0.5-7.1,2.2-8.3,6.6c0,0-0.9,0.9-1.1,2.3H81.9c-1.3-0.8-5-2.8-10.6-2.8c-8.6,0-13.2,4-14.3,8.1
	 			c-0.8,3.3,0.4,5.8,0.4,5.8l-5.2,9.4c0,0,3.5,4.6,13.1,4.6c3.8,0,6.6-0.9,8.5-1.7h1.7c0,0,1.6,2.3,1.3,3.6l-4.2,16.2h10.9l7.8,41.7
	 			c1.1,6,6.3,13.2,11.7,16.2l39.6,21.8l39.6-21.8c5.3-2.9,10.6-10.2,11.7-16.2l7.9-42.5c3.7-1.3,6.5-3.9,7.3-7.2
	 			c0.9-3.5-0.8-5.8-0.8-5.8l3.1-6.1h8.2l1.2-4.8c0,0,9.6-0.5,11.5-8.2C234,96.2,228.6,92.1,222,92.1z M230.8,102.1
	 			c-1.2,4.6-6.4,6.9-11.2,6.9l-1.2,4.8h-8l-4,7.9c0,0,1.9,2,1.1,5.2c-0.8,3.1-3.6,5.4-7.2,6.4l-8.1,43.5c-1,5.5-5.9,12.3-10.8,15
	 			l-38.7,21.3l-38.7-21.3c-4.9-2.7-9.8-9.5-10.8-15l-8-43.1H74.9l3.6-14.1c0.5-1.9-1-4.3-2.1-5.7h-2.9c-1.7,0.8-4.4,1.7-8.2,1.7
	 			c-7.7,0-11-3.2-11-3.2l4.5-8.1c1.6,1,3.2,1.5,3.2,1.5s-4.8-2.4-3.4-7.9c0.6-2.3,3.6-6.8,12.6-6.8c6.4,0,10.1,2.8,10.1,2.8h30.9
	 			c-0.7-2,0.7-3.1,0.7-3.1c0.8-5,8.1-6.1,8.1-6.1c0.4-2.7,2.7-3.5,2.7-3.5c-1-1.1,0-2.4,0-2.4v-5.4c0-2,2.6-3.3,2.6-3.3
	 			s-0.5-0.5-0.5-2.2v-5.9c0-1.4,2.1-2.9,2.1-2.9l0-3.8l0.5-2c-0.4-2.9,4.9-4.4,4.9-4.4l-0.3-0.3c-5.1-1.9-12-5.6-12-19.4
	 			c0,0-0.3-0.5-0.3-1.2v-1.4c0-3.2,9.8-4.7,22-4.7c12.2,0,22,1.5,22,4.7v1.4c0,0.6-0.3,1.2-0.3,1.2c0,13.8-6.9,17.5-12,19.4
	 			l-0.3,0.3c0,0,5.3,1.5,4.9,4.4l0.5,2l0,3.8c0,0,2.1,1.5,2.1,2.9v5.9c0,1.7-0.5,2.2-0.5,2.2s2.6,1.3,2.6,3.3v5.4c0,0,1,1.3,0,2.4
	 			c0,0,2.3,0.9,2.7,3.5c0,0,7.3,1.1,8.1,6.1c0,0,1.4,1.1,0.7,3.1h5.2c2.9-1.7,6.7-2.8,11.4-2.8c6.4,0,10.5,2.8,10.5,2.8h22
	 			C228,93.8,232,97.3,230.8,102.1z"/>
	 		<polygon fill="#C3C6C8" points="142.6,207.8 178.3,189.3 142.6,205 		"/>
	 		<path fill="#C3C6C8" d="M137.3,171.9c-12.9-0.6-23.8-3.1-27.3-6.5c2.3,4.2,15,7.3,30.6,7.6c-0.2-0.2-0.4-0.4-0.5-0.5
	 			C139,172.3,138.2,172.1,137.3,171.9z"/>
	 		<path fill="#C3C6C8" d="M145.1,172.6c0,0.1-0.2,0.2-0.5,0.5c15.5-0.3,28.3-3.4,30.6-7.6c-3.5,3.4-14.4,5.9-27.3,6.5
	 			C147.1,172.1,146.3,172.3,145.1,172.6z"/>
	 		<path fill="#C3C6C8" d="M128.8,134.8l0.4-1.2h-10.4c2.3,0.5,5.4,1,9.8,1.4C128.8,134.9,128.8,134.9,128.8,134.8z"/>
	 		<path fill="#C3C6C8" d="M171.2,133.6h-1.6c-2.3,0.9-6.4,1.7-12.8,2c0.2,0.4,0.5,0.7,0.8,1C165.7,135.9,169.5,134.6,171.2,133.6z"
	 			/>
	 		<path fill="#C3C6C8" d="M128.4,135.6c-6.3-0.3-10.5-1.1-12.8-2h-1.6c1.7,1,5.5,2.3,13.6,3C128,136.4,128.2,136,128.4,135.6z"/>
	 		<path fill="#C3C6C8" d="M156.4,134.8c0,0.1,0.1,0.2,0.1,0.2c4.4-0.4,7.6-0.9,9.8-1.4H156L156.4,134.8z"/>
	 		<path fill="#C3C6C8" d="M125.2,149.2c0.2-0.7,0.3-1.6,0.3-2.5c0-1.7-0.4-3.3-1.1-4.9l-1.5-3.4l3.5-1c-4.7-0.5-7.8-1.2-9.8-1.8
	 			l-0.1,11c-0.9-0.4-1.6-0.8-2.1-1.2l0.1-10.6c-0.9-0.4-1.2-0.7-1.2-0.7l-0.1,10.1C113.1,145.1,115.1,147.8,125.2,149.2z"/>
	 		<path fill="#C3C6C8" d="M162.4,138.3l-1.5,3.4c-0.7,1.6-1.1,3.2-1.1,4.9c0,1,0.1,1.8,0.3,2.5c10.1-1.5,12-4.2,12-5.2L172,134
	 			c0,0-2.1,2.2-13.2,3.3L162.4,138.3z"/>
	 		<path fill="#C3C6C8" d="M124.5,151.3c0.1-0.3,0.3-0.7,0.4-1c-11.4-1.8-12.3-5-12.3-5v1.1C112.6,146.3,113.5,149.5,124.5,151.3z"/>
	 		<path fill="#C3C6C8" d="M160.4,150.3c0.1,0.4,0.2,0.7,0.4,1c11-1.8,11.9-5,11.9-5v-1.1C172.7,145.2,171.7,148.5,160.4,150.3z"/>
	 		<path fill="#C3C6C8" d="M172.1,148.4c0,0-1.7,2.4-11,4c0.5,1.4,1,2.9,1,5.3c0,2.6-0.7,4.9-1.9,6.9c10.7-1.8,13.8-5.1,12-6.9
	 			L172.1,148.4z"/>
	 		<path fill="#C3C6C8" d="M125,164.5c-1.2-2-1.9-4.3-1.9-6.9c0-2.4,0.5-3.9,1-5.3c-3.5-0.6-6-1.3-7.6-2l-0.1,8.9c0,1.4,1,2.2,1,2.2
	 			s-3.1-0.8-3.1-3l0.1-9.2c-0.9-0.6-1.2-1-1.2-1l-0.1,9.3C111.2,159.4,114.3,162.7,125,164.5z"/>
	 		<path fill="#C3C6C8" d="M118,165.2c-4.8-1.5-7.7-3.5-7.7-5.6c0-0.7,0.3-1.4,0.9-2c-0.9,0.7-1.3,1.5-1.3,2.3
	 			C109.8,161.9,112.9,163.8,118,165.2z"/>
	 		<path fill="#C3C6C8" d="M175.4,159.8c0-0.8-0.5-1.6-1.3-2.3c0.6,0.7,0.9,1.3,0.9,2c0,2.2-2.9,4.1-7.7,5.6
	 			C172.4,163.8,175.4,161.9,175.4,159.8z"/>
	 		<path fill="#C3C6C8" d="M135.7,52.9V54c0.5,0,1.1-0.1,1.8-0.1v-1.1C136.8,52.8,136.2,52.9,135.7,52.9z"/>
	 		<path fill="#C3C6C8" d="M148.9,53.3v-0.4c-1.6-0.1-3.7-0.2-6.3-0.2c-1.3,0-2.5,0-3.6,0v1.1c1.1,0,2.3-0.1,3.6-0.1
	 			c2.6,0,4.6,0.1,6.3,0.2V53.3z"/>
	 		<path fill="#C3C6C8" d="M133.9,56.6l0,2.3c1-0.1,2.1-0.1,3.5-0.2v-3.6c0-0.3,0.1-0.5,0.2-0.6c-0.8,0-1.5,0.1-2.1,0.1
	 			C135.1,54.8,133.9,55.4,133.9,56.6z"/>
	 		<path fill="#C3C6C8" d="M139.2,54.4c-0.1,0.1-0.1,0.3-0.1,0.5v3.8c1.1,0,2.3,0,3.6,0c2.5,0,4.6,0,6.3,0.1v-4.2
	 			c-1.7-0.1-3.8-0.2-6.3-0.2C141.4,54.4,140.3,54.4,139.2,54.4z"/>
	 		<path fill="#C3C6C8" d="M137.4,59.4c-1.3,0-2.4,0.1-3.3,0.1c-1.5,0.5-2.1,1.7-2.2,1.9c1.3-0.1,2.9-0.1,4.9-0.2
	 			C136.8,61,137,60.3,137.4,59.4z"/>
	 		<path fill="#C3C6C8" d="M149.1,59.4c-1.7-0.1-3.8-0.1-6.5-0.1c-1.4,0-2.6,0-3.7,0c-0.5,0.9-0.6,1.6-0.7,1.9c1.3,0,2.7,0,4.4,0
	 			c3.5,0,6.2,0.1,8.4,0.1C150.7,60.3,149.5,59.7,149.1,59.4z"/>
	 		<path fill="#C3C6C8" d="M136.7,61.8c-2,0-3.7,0.1-5,0.2v5.5c1.3-0.1,2.9-0.1,5-0.1V61.8z"/>
	 		<path fill="#C3C6C8" d="M138.3,61.8v5.5c1.3,0,2.8,0,4.4,0c3.6,0,6.4,0,8.5,0.1v-5.5c-2.2-0.1-5-0.1-8.5-0.1
	 			C141,61.8,139.6,61.8,138.3,61.8z"/>
	 		<path fill="#C3C6C8" d="M136.9,68.4c-1.9,0.1-3.6,0.1-5,0.2c1.8,2.6-1,2.7-1.1,5c1.5,0,3.2-0.1,5.2-0.1
	 			C136,70.8,138.1,70.7,136.9,68.4z"/>
	 		<path fill="#C3C6C8" d="M151,68.5c-2.5-0.1-5.4-0.2-8.4-0.2c-1.4,0-2.8,0-4.2,0.1c1.2,2.3-1,2.4-0.8,5.2c1.5,0,3.2,0,5,0
	 			c3.6,0,6.7,0,9.3,0.1C151.8,70.6,148.4,70.4,151,68.5z"/>
	 		<path fill="#C3C6C8" d="M136.1,74.4c-1.9,0-3.7,0-5.2,0v4.9c1.5,0,3.2,0,5.2,0V74.4z"/>
	 		<path fill="#C3C6C8" d="M151.9,79.3v-4.9c-2.7,0-5.9,0-9.3,0c-1.7,0-3.4,0-5,0v4.9c1.5,0,3.2,0,5,0
	 			C146.2,79.3,149.3,79.3,151.9,79.3z"/>
	 		<path fill="#C3C6C8" d="M135.3,85.4c-0.3-2.9,2.3-2.7,1-5.1c-1.5,0-2.8,0-4,0c2,1.9-2.1,2.9-1.4,5
	 			C132.1,85.4,133.6,85.4,135.3,85.4z"/>
	 		<path fill="#C3C6C8" d="M137.8,80.3c1.3,2.4-1.3,2.2-1,5.1c1.7,0,3.6,0,5.8,0c5.1,0,9,0,12-0.1c0.7-2.6-3.5-2.3-1.1-5
	 			c-2.6,0-6.2-0.1-10.8-0.1C140.9,80.3,139.3,80.3,137.8,80.3z"/>
	 		<path fill="#C3C6C8" d="M171.3,93.4c0.2-0.4,0.3-0.7,0.2-1c-11.9,1.1-28.9,0.9-28.9,0.9c17.4-0.9,19.4-0.6,19.4-2.1
	 			c0-2.5-5.9-4-8.4-4.6c-2.8,0-6.3,0.1-11,0.1c-2.1,0-3.9,0-5.6,0c-0.7,0.6-2.4,2.4-2.3,6.1c1.7,0,3.5,0,5.4,0
	 			c-8.2,0.5-14.7,0.4-19.3,0.2c-0.1,0.1-0.4,0.5-0.1,0.9H167C170.1,93.6,171.3,93.4,171.3,93.4z"/>
	 		<path fill="#C3C6C8" d="M135,86.6c-2.1,0-3.9,0-5.3-0.1c-1.3,0.2-7.3,1.3-7.4,5.8c2.7,0.2,6.1,0.3,10.4,0.4
	 			C132.6,89,134.3,87.2,135,86.6z"/>
	 		<path fill="#C3C6C8" d="M142.6,48c-0.8,0-1.7,0-2.4,0.1c0.2,1-0.1,1.9-0.1,1.9l-0.2,0c-0.5-0.4-1.2-0.1-1.3,0.1h-0.1
	 			c0,0,0.4-0.8,0.3-1.9c-0.3,0-0.6,0.1-0.9,0.1c0.2,1.1-0.3,1.7-0.3,1.7c-0.6-0.1-1,0.4-1,0.4l-0.3,0c-0.4,0.4-0.3,0.7-0.3,1.1
	 			l0.3,0c0,0,0,0.4,0.5,0.6l-1.1,0.1v0.3c0.6,0,1.1-0.1,1.8-0.1V52c0.1-0.1,0.4-0.3,0.4-0.7l0.3,0c0,0,0.1,0.4,0.5,0.6
	 			c0,0,0.1,0.1,0.3,0.1v0.2c1.1,0,2.3-0.1,3.6-0.1c2.5,0,4.6,0.1,6.3,0.2v-0.3l-0.4,0c0.5-0.2,0.5-0.6,0.5-0.6l0.3,0
	 			c0,0.5,0.3,0.7,0.3,0.7s0.3,0.3,0.8,0.1c0.2-0.1,0.3-0.2,0.3-0.3c0.4-0.7-0.3-1.9-1.5-1.7c-0.2,0-0.3,0.1-0.3,0.1l-0.4,0
	 			c-0.4-0.5-1.1-0.3-1.1-0.3s-0.6-0.9-0.4-1.7C145.9,48.1,144.3,48,142.6,48z M136.6,50.5c0,1.3,0.8,1.2,0.9,1.1
	 			C137.1,52.4,135.9,51.8,136.6,50.5z M137.2,51.2c-0.5-0.1-0.3-1.4,0.5-1C137.4,50.5,137.6,51.3,137.2,51.2z M150.1,50.4
	 			c0.4,0,1,1.1,0.4,1.3C149.9,51.8,149.7,50.4,150.1,50.4z M149.7,50.7c0.1,1.2,0.7,1.2,0.9,1.1C150.3,52.4,149.1,52.1,149.7,50.7z
	 			 M146.2,50c0.4,0,1,1.4,0.4,1.4C145.9,51.4,145.7,50,146.2,50z M143.9,49.8c0.7,0,1.1,1.4,0.5,1.4
	 			C143.6,51.2,143.5,49.8,143.9,49.8z M139.5,50.1c-0.2,0.3,0.3,1.1-0.2,1.2C138.6,51.3,138.7,49.5,139.5,50.1z M138.6,50.4
	 			c0.1,1.3,0.8,1.2,1,1.2C139.2,52.2,138,51.8,138.6,50.4z M139.5,51.9c0,0,0.4-0.2,0.4-0.7l0.5,0c0,0,0.1,0.4,0.5,0.6L139.5,51.9z
	 			 M140.8,50.4c0.1,1.3,0.9,1.2,1,1.2C141.5,52.2,140.2,51.8,140.8,50.4z M141.6,51.2c-0.8,0.2-1-1.8,0-1.3
	 			C141.5,50.2,142.2,51,141.6,51.2z M141.9,51.9c0,0,0.3-0.1,0.4-0.7h0.7c0.1,0.5,0.4,0.7,0.4,0.7H141.9z M143.5,50.3
	 			c0.1,1.3,0.8,1.2,0.9,1.2C144.1,52.1,142.9,51.7,143.5,50.3z M144.3,51.9c0.4-0.2,0.5-0.6,0.5-0.6l0.4,0c0.1,0.5,0.4,0.7,0.4,0.7
	 			L144.3,51.9z M145.8,50.4c0.1,1.3,0.8,1.2,0.9,1.2C146.4,52.2,145.2,51.7,145.8,50.4z M148.2,50.2c0.4-0.1,1,1.3,0.4,1.3
	 			C147.9,51.4,147.7,50.2,148.2,50.2z M147.8,50.6c0.1,1.2,0.7,1.1,0.9,1.1C148.4,52.3,147.3,51.9,147.8,50.6z M147.4,51.4
	 			c0,0.4,0.3,0.6,0.4,0.7l-1.3-0.1c0.4-0.2,0.5-0.6,0.5-0.6L147.4,51.4z"/>
	 		<path fill="#C3C6C8" d="M138.4,46c-0.4,0-0.7,0.1-1.1,0.1v0.4c0.3,0,0.7-0.1,1.1-0.1V46z"/>
	 		<path fill="#C3C6C8" d="M139.8,46.3c0.8-0.1,1.8-0.1,2.8-0.1c1.7,0,3.1,0.1,4.2,0.2V46c-1.2-0.1-2.6-0.2-4.2-0.2c-1,0-2,0-2.8,0.1
	 			V46.3z"/>
	 		<path fill="#C3C6C8" d="M141.2,23.4c-4.6,0-8.1,0.3-10.9,0.6l0.1,1c2.7-0.3,6.1-0.6,10.6-0.6C141.1,24.1,141.1,23.8,141.2,23.4z"
	 			/>
	 		<path fill="#C3C6C8" d="M156.6,25.3c0-0.3,0-0.7,0-1c-0.9-0.1-1.9-0.3-3.1-0.4c0.1,0.3,0.1,0.7,0.1,1
	 			C154.7,25,155.7,25.2,156.6,25.3z"/>
	 		<path fill="#C3C6C8" d="M161.8,25.6c-0.5-0.2-1.2-0.5-2.2-0.7c0,0.3,0,0.7,0,1c1,0.3,1.7,0.5,2.2,0.7
	 			C161.8,26.3,161.8,26,161.8,25.6z"/>
	 		<path fill="#C3C6C8" d="M161.7,28.9c0-0.5,0.1-1.1,0.1-1.6c-0.5-0.2-1.2-0.5-2.2-0.7c0,0.6-0.1,1.2-0.1,1.5c0,0,0.1,0,0.1,0
	 			C160.5,28,161.2,28.4,161.7,28.9z"/>
	 		<path fill="#C3C6C8" d="M153.7,27.3c1.3,0.2,2.3,0.7,2.9,1.2c0-0.4,0-1.3,0-2.6c-0.9-0.1-1.9-0.3-3-0.4
	 			C153.7,26.1,153.7,26.7,153.7,27.3z"/>
	 		<path fill="#C3C6C8" d="M137.1,28.9c0.6-0.5,1.8-1.4,3.7-1.7c0-0.7,0-1.4,0.1-2.1c-4.4,0-7.8,0.3-10.5,0.6l0.2,1.9
	 			c0.6-0.2,1.3-0.3,2.1-0.3C135.1,27.2,136.5,28.3,137.1,28.9z"/>
	 		<path fill="#C3C6C8" d="M158.8,37c0.4,0,0.4-1.4,1.1-1.4c0.9,0,0.5,1.3,0.5,1.3s0.8-3.1,1.1-7.4c-0.5-0.6-1.1-1-2.1-1
	 			c-0.2,0-0.4,0-0.6,0.1c0,4.3-0.9,6.6-1.2,7.3c0,0,0.1,0,0.1,0C158.9,35.9,158.3,37,158.8,37z"/>
	 		<path fill="#C3C6C8" d="M154.3,32.9c1.5,0-0.1,2.5,0.7,2.8c0.3-0.6,1.1-2.8,1.2-6.8c-0.6-0.4-1.4-0.9-2.6-1.1
	 			c-0.1,2.7-0.5,5-0.6,5.8c0,0,0.1,0,0.1,0C153.8,33.6,153.6,32.9,154.3,32.9z"/>
	 		<path fill="#C3C6C8" d="M134.5,33.3c1.3,0,0.2,2.1,1.8,2.1c0.9,0,0.5-0.9,1.6-0.9c1.5,0,0.9,1.8,1.9,1.8c0.8,0,0.4-1.1,1.5-1.1
	 			c0.4,0,0.6,0.2,0.8,0.4c-0.4-1.3-1.2-4.3-1.2-7.9c-2.5,0.5-3.8,1.9-3.8,1.9s-1.3-1.9-4.4-1.9c-0.8,0-1.4,0.1-2,0.3l0.4,4.2
	 			c0.1-0.1,0.3-0.2,0.5-0.2c1.3,0,0.3,1.9,1.7,1.9C133.9,34,133.7,33.3,134.5,33.3z"/>
	 	</g>
	 	<g>
	 		<path fill="#A4A9AD" d="M133.4,53.9c-1.1,0.1-1.8,0.3-2.4,0.4v-0.8c-1,0.3-1.2,0.5-1.2,0.5V55c0,0,1.1-0.7,5.8-1v-1.1
	 			c-0.9,0.1-1.6,0.1-2.3,0.2V53.9z"/>
	 		<path fill="#A4A9AD" d="M151.3,54.1c3.2,0.4,4.1,0.8,4.1,0.8v-0.9c0,0-0.4-0.6-4.1-1V54.1z"/>
	 		<path fill="#A4A9AD" d="M132.5,55.5l0,2.9c-0.8,0.1-1.3,0.1-1.8,0.2l0-3.3c-0.8,0.2-1.2,0.4-1.2,0.6l0,3.5c0,0,0.8-0.3,4.3-0.5
	 			l0-2.3c0-1.1,1.2-1.8,1.6-2c-1,0.1-1.8,0.2-2.5,0.3C132.8,54.9,132.5,55.1,132.5,55.5z"/>
	 		<path fill="#A4A9AD" d="M155.7,55.8c0-0.3-1.4-0.8-4.4-1.1v4.1c3.6,0.2,4.4,0.5,4.4,0.5L155.7,55.8z"/>
	 		<path fill="#A4A9AD" d="M131.1,60.9c-0.8,0.1-1.4,0.1-1.9,0.2c0.2-0.2,0.8-0.7,1.7-1.3c-1,0.1-1.3,0.2-1.3,0.2s-1.6,0.8-2.3,2
	 			c0,0,1.1-0.3,4.7-0.5c0.1-0.2,0.7-1.4,2.2-1.9c-0.6,0-1.1,0.1-1.5,0.1C131.8,60.2,131.3,60.7,131.1,60.9z"/>
	 		<path fill="#A4A9AD" d="M153.7,61.5c3.4,0.2,4.4,0.5,4.4,0.5c-0.7-1.1-2.3-2-2.3-2s-0.8-0.2-4.1-0.4
	 			C152.1,59.8,153.2,60.4,153.7,61.5z"/>
	 		<path fill="#A4A9AD" d="M127.4,62.3v5.6c0,0,0.8-0.2,4.3-0.4V62c-0.5,0-0.9,0-1.3,0.1V67l-1.9,0.2v-4.9
	 			C127.8,62.3,127.4,62.3,127.4,62.3z"/>
	 		<path fill="#A4A9AD" d="M157.8,67.8v-5.6c0,0-1.2-0.2-4.1-0.3v5.5C157.1,67.7,157.8,67.8,157.8,67.8z"/>
	 		<path fill="#A4A9AD" d="M125.4,73.8c0,0,1.9-0.1,5.5-0.2c0.1-2.3,2.9-2.5,1.1-5c-0.4,0-0.8,0-1.2,0.1c1.5,3.1-1.4,2.9-1.9,4.4
	 			l-2.3,0.1c0.3-1.9,3.9-1.6,2.4-4.4c-0.8,0.1-1.2,0.1-1.2,0.1C129.6,71.8,125.4,70.9,125.4,73.8z"/>
	 		<path fill="#A4A9AD" d="M159.9,73.8c0-3-4.2-2.1-2.5-4.9c0,0-1.5-0.1-3.9-0.3c-2.7,2,1.1,2.1,1.2,5
	 			C158.1,73.7,159.9,73.8,159.9,73.8z"/>
	 		<path fill="#A4A9AD" d="M125.4,74.5v5c0,0,2,0,5.5-0.1v-4.9c-0.8,0-1.5,0-2.2,0v4.3l-2.2,0v-4.3C125.8,74.5,125.4,74.5,125.4,74.5
	 			z"/>
	 		<path fill="#A4A9AD" d="M159.9,74.5c0,0-2,0-5.1,0v4.9c3.3,0,5.1,0.1,5.1,0.1V74.5z"/>
	 		<path fill="#A4A9AD" d="M132.3,80.4c-1.2,0-2.1,0-3,0c1.2,3-3.3,1.8-3.3,4.3c-1,0-1.7-0.1-2.2-0.1c0-2.4,4.3-1.3,3.3-4.1
	 			c-0.8,0-1.2,0-1.2,0c1.1,2.9-3.4,1.1-3.3,4.5c0,0,2.1,0.2,8.2,0.3C130.2,83.2,134.3,82.3,132.3,80.4z"/>
	 		<path fill="#A4A9AD" d="M157.4,85.3c3.9-0.1,5.2-0.3,5.2-0.3c0.1-3.4-4.4-1.6-3.3-4.5c0,0-1.1,0-3.6-0.1
	 			C153.4,82.3,157.8,82.5,157.4,85.3z"/>
	 		<path fill="#A4A9AD" d="M114.5,91.6c0,0,2.2,0.4,7.8,0.7c0.1-4.5,6.1-5.6,7.4-5.8c-6.5-0.1-7.2-0.4-7.2-0.4S115,86.7,114.5,91.6z
	 			 M117.4,91.5c-1.5-0.2-2.1-0.3-2.1-0.3s0.3-3.6,7.8-4.5C117.7,88.4,117.4,91.5,117.4,91.5z"/>
	 		<path fill="#A4A9AD" d="M162.8,86.1c0,0-0.6,0.2-5.9,0.3c3.2,0.5,9.5,1.9,8.9,5.6c0,0,2.7-0.2,5-0.4
	 			C170.3,86.7,162.8,86.1,162.8,86.1z"/>
	 		<path fill="#A4A9AD" d="M113.8,92.4c-0.1,0.3,0,0.6,0.2,1c0,0,1.1,0.2,4.3,0.4h2.5c-0.3-0.4,0-0.8,0.1-0.9
	 			C116.3,92.7,113.8,92.4,113.8,92.4z"/>
	 		<path fill="#A4A9AD" d="M148.3,46.6c1.8,0.3,2.6,0.7,2.6,0.7c0-0.4-0.9-0.8-2.6-1.1V46.6z"/>
	 		<path fill="#A4A9AD" d="M151.3,52.6c2.4,0.3,3.4,0.6,3.4,0.6l0.2-0.2c-0.7-0.2-1.8-0.4-1.8-0.4s0.3,0,0.4-0.4l0.2,0
	 			c0,0.5,0.7,0.6,0.7,0c0,0.5,0.4,0.6,0.5,0.2l0.1,0c0-2.7-6.8-1.9-5-4.6c0,0-2.7-0.7-7.6-0.7c-4.8,0-7.6,0.7-7.6,0.7
	 			c1.8,2.7-5,1.9-5,4.6l0.1,0c0.1,0.4,0.5,0.3,0.5-0.2c0,0.6,0.8,0.7,0.8-0.2l0.1,0c0,0,0,0.5,0.5,0.6c0,0-1,0.2-1.7,0.4l0.2,0.2
	 			c0,0,1.5-0.5,5.2-0.8v-0.3c0,0,0.3-0.2,0.3-0.7c0-0.4-0.1-0.7,0.3-1.1c0,0-0.2-0.2-0.7-0.1c0,0,0.9-0.8,0.5-1.7c0,0,0.4-0.1,1-0.1
	 			c0.2,1-0.5,1.9-0.5,1.9s0.4-0.4,1-0.4c0,0,0.5-0.5,0.3-1.7c0.3,0,0.6-0.1,0.9-0.1c0.4,0,0.9-0.1,1.4-0.1c0.8,0,1.6-0.1,2.4-0.1
	 			c1.7,0,3.3,0.1,4.5,0.2c0.6,0.1,1,0.1,1.4,0.2c-0.2,1.1,0.7,1.8,0.7,1.8c1.2-0.2,1.9,1,1.5,1.7c0.1-0.1,0.3-0.1,0.4,0
	 			c0.1,0.3,0.3,0.4,0.3,0.4V52.6z M154.7,52.3c0,0.2,0.3,0.2,0.3,0.1C155,52.7,154.6,52.6,154.7,52.3z M154.6,51.5
	 			c0.2,0,0.6,0.6,0.4,0.8C154.7,52.5,154.5,51.6,154.6,51.5z M153.9,51.9c0.2,0.7,0.5,0.5,0.6,0.3C154.5,52.9,153.9,52.7,153.9,51.9
	 			z M153.9,51.2c0.2,0,0.8,0.8,0.5,1C154.1,52.3,153.7,51.2,153.9,51.2z M131.2,51.2c-0.4,0.9-0.1,0.9,0,0.7
	 			C131.1,53.2,130.2,52.3,131.2,51.2z M131.1,51.7c-0.1-0.1,0-0.6,0.4-0.6C131.4,51.3,131.3,51.8,131.1,51.7z M134.2,50.6
	 			c-0.2,0.2-0.3,0.9-0.6,0.8C133.3,51.3,133.5,50.5,134.2,50.6z M132.8,50.8c-0.3,0.3-0.3,0.9-0.6,0.8
	 			C132,51.4,132.1,50.8,132.8,50.8z M132,51.1c-0.3,1,0.2,0.9,0.5,0.7C132.3,52.9,130.9,52.4,132,51.1z M132.2,52.6
	 			c0.4-0.2,0.5-0.7,0.5-0.7l0.1,0c0,0,0,0.4,0.5,0.6L132.2,52.6z M133.4,50.7c-0.3,1.4,0.4,1.1,0.6,1
	 			C133.7,52.9,132.1,52.1,133.4,50.7z M133.9,52.3c0,0,0.3-0.1,0.3-0.7l0.3,0c0,0,0,0.4,0.4,0.6L133.9,52.3z M134.8,50.7
	 			c-0.1,1.3,0.7,1,0.8,1C135.3,52.6,134,52,134.8,50.7z M135.8,50.4c-0.3,0.3-0.2,1-0.5,0.9C134.9,51.2,135,50.2,135.8,50.4z
	 			 M152.9,50.9c0.3,0,1,0.9,0.6,1.1C153.1,52.2,152.7,50.9,152.9,50.9z M152.7,51.3c0.3,1.2,0.7,0.9,0.9,0.8
	 			C153.5,52.7,152.6,52.5,152.7,51.3z M152.7,52.2c0.1,0.1,0.2,0.3,0.4,0.4l-1.1-0.2c0.2-0.1,0.3-0.2,0.4-0.3
	 			C152.4,52.1,152.6,52.1,152.7,52.2z M151.7,50.6c0.4,0,1,1.1,0.4,1.2C151.6,52,151.4,50.6,151.7,50.6z M151.4,50.9
	 			c0.1,1.4,0.7,1.2,0.9,1.1C152,52.6,150.8,52.2,151.4,50.9z"/>
	 		<path fill="#A4A9AD" d="M134.4,47.2c0,0,0.8-0.4,2.9-0.7v-0.4c-0.2,0-0.4,0.1-0.6,0.1v0.2l-1.2,0.3v-0.2
	 			C134.8,46.7,134.4,47,134.4,47.2z"/>
	 		<path fill="#A4A9AD" d="M123.7,26.5l-0.1-1c-0.8,0.3-1.2,0.7-1.3,0.9v1C122.5,27.2,122.9,26.9,123.7,26.5z"/>
	 		<path fill="#A4A9AD" d="M129.1,25.2l-0.1-1c-1.3,0.2-2.4,0.4-3.3,0.6l0.1,1C126.7,25.7,127.8,25.4,129.1,25.2z"/>
	 		<path fill="#A4A9AD" d="M122.7,28.6c0,0.5,0,1,0,1.5c0.5-0.9,1.4-2,3-2c1.1,0,1.9,0.6,2.4,1.1c0.3-0.3,0.7-0.7,1.3-1l-0.2-2.3
	 			c-1.3,0.2-2.4,0.4-3.3,0.6l0.1,1.2c-1.3-0.1-2.1,0.6-2.1,0.6l-0.1-1.2c-0.1,0.1-0.3,0.1-0.4,0.2C122.9,27.6,122.7,27.7,122.7,28.6
	 			z"/>
	 		<path fill="#A4A9AD" d="M128.1,29.9c0,0-0.8-1.4-2.4-1.4c0,0,0,0,0,0c0.4,5.9,0.9,8,0.9,8c-0.2,0-0.3,0.2-0.3,0.2
	 			s-0.1-0.5-0.5-0.5c-0.8,0-0.2,1.1-0.2,2.3c0,0-1.6-3.2-1.6-9.2c-0.6,0.6-1,1.4-1.2,1.9c0.8,12,7.3,14.3,11.2,15.8
	 			c0,0,0.2-0.3,1.2-0.7c-1.1-4.6,2.8-3.8,3.9-9.6c-0.3,6-3.5,5.4-2.8,9.3c0.2,0,0.4-0.1,0.6-0.1c1.1-5,4-4.9,5.3-9
	 			c-0.5,4-3.1,4.8-3.8,8.8c0.2,0,0.3,0,0.5-0.1c1.1-4.2,5.5-5.2,6.9-9.8c-0.4,4.6-4.4,5.5-5.8,9.7c0.2,0,0.3,0,0.5,0
	 			c2.1-5.1,8.6-5.3,8.9-10.9c1,5.4-6.4,7-7.6,10.8c0.2,0,0.5,0,0.7,0c2.7-5,7.6-3,9.9-11c-0.8,7.6-6.1,6.9-8.3,11.1
	 			c0.2,0,0.4,0,0.6,0c3-4.2,7.6-2.7,9.9-9.9c-0.7,7.2-6.1,6.4-8.6,10c0.2,0,0.4,0,0.6,0c4.5-4.3,6.9-2.6,9.9-8.3
	 			c-1.6,5.7-5.7,5.1-8.9,8.4c0.2,0,0.3,0,0.5,0.1c3.7-3.4,7.3-2.5,10.5-7.8c-2.2,5.2-7.2,5.4-9.8,7.9c0.2,0,0.4,0.1,0.6,0.1
	 			c5-3.5,8.3-3.7,10.7-7.7c-1.9,4.2-6.9,5.3-10.1,7.9c0.2,0.1,0.3,0.1,0.4,0.2c4.1-2.8,7.5-2.9,10.7-8.4c-2,5.7-8.2,7-10.1,8.8
	 			c0.2,0.2,0.3,0.3,0.3,0.3c3.9-1.5,10.4-3.8,11.2-15.8c-0.1-0.4-0.4-1-0.9-1.6c-0.4,4.3-1.1,7.4-1.1,7.4s0.3-1.3-0.5-1.3
	 			c-0.8,0-0.7,1.4-1.1,1.4c-0.5,0,0.1-1.2-0.9-1.2c0,0-0.1,0-0.1,0c-0.6,0.1-0.5,0.9-0.8,0.9c-0.5,0,0.3-1.4-0.9-1.4
	 			c-0.6,0-0.5,0.4-0.9,0.4c-0.1,0-0.2,0-0.2,0c-0.9-0.4,0.8-2.8-0.7-2.8c-0.8,0-0.5,0.7-1.2,0.7c0,0-0.1,0-0.1,0c-1-0.1-0.1-2-1.4-2
	 			c-1.2,0-0.5,2.4-1.6,2.4c-0.9,0-0.6-0.9-1.5-0.9c-1.4,0-0.7,2.7-1.9,2.7c-0.8,0-0.5-1.1-1.6-1.1c-1.4,0-0.5,1.7-1.8,1.7
	 			c-0.8,0-0.9-0.4-1.2-0.8c-0.2-0.2-0.4-0.4-0.8-0.4c-1.1,0-0.7,1.1-1.5,1.1c-1,0-0.4-1.8-1.9-1.8c-1.1,0-0.8,0.9-1.6,0.9
	 			c-1.6,0-0.4-2.1-1.8-2.1c-0.7,0-0.6,0.7-1.2,0.7c-1.4,0-0.4-1.9-1.7-1.9c-0.2,0-0.4,0.1-0.5,0.2c-0.5,0.4-0.1,1.7-0.7,1.7
	 			c-0.4,0-0.6-0.7-0.6-1.3l-0.3-4C128.5,29.2,128.1,29.9,128.1,29.9z M125.8,36.5c0.5,0,0.4,2.4,0.4,2.4
	 			C126.1,37.4,125.2,36.5,125.8,36.5z M124.8,38.1c0.9,0.9,0.6,2.3,1.5,3.6C125,40.5,125.3,38.9,124.8,38.1z M159.6,36.4
	 			c0.1-0.7,0.9-0.4,0.7,0.1c-0.7,2.3-2.6,3.8-2.6,3.8S159.4,38.4,159.6,36.4z M157.5,36.6c0.1-0.6,1-0.2,0.8,0.2
	 			c-1.1,3.1-3.9,4.5-3.9,4.5S156.9,39.6,157.5,36.6z M155.7,36.1c0.2-0.8,1-0.3,0.8,0.1c-1.6,3.4-3.8,4.6-3.8,4.6
	 			S155.2,38.7,155.7,36.1z M153.8,33.7c0.1-0.7,1-0.5,0.9,0c-1.2,5.4-5,7.1-5,7.1S153.4,38.2,153.8,33.7z M151,32.7
	 			c0-1,1.1-0.9,1.1-0.2c0,2.3-2.4,7-5.1,8C147,40.6,151,37.9,151,32.7z M148,34.1c0-0.7,1.1-0.8,1.1,0c0,3.6-3.2,5-5.8,7
	 			C146,38.3,148,37.9,148,34.1z M144.4,35.7c0.1-1,1-0.6,0.9-0.2c-1.2,4.2-2.9,3-4.5,5.8C142.5,37.7,144,39,144.4,35.7z M140.6,36.3
	 			c0-0.9,1.3-0.9,1.3,0c0,1.9-1.9,2.6-4.1,6.1C139.3,39.3,140.6,38.4,140.6,36.3z M127.3,35.5c0.7,0,0.6,2.1,0.5,3.8
	 			c0-2.6-0.9-3-0.9-3.4C126.9,35.7,127,35.5,127.3,35.5z M126.4,37.3c0.5,1.7,0.1,4.6,2.1,6.7C125.7,41.9,126.7,39.4,126.4,37.3z
	 			 M128.5,35.9c1,4.9-1.5,5,1.4,8.7C126,42.2,128.9,39.2,128.5,35.9z M137.9,35c0.3,0,0.7,0.3,0.7,0.7s-0.4,0.6-0.5,1
	 			c-0.4,2.5-2.1,4.8-2.1,4.8C137.8,37.4,136.5,35,137.9,35z M134,34.1c0-0.2,0.1-0.5,0.5-0.5c1.1,0,0.3,5.2-0.8,6.8
	 			C134.9,35.2,134,34.5,134,34.1z M135.5,35.8c0.8,6.8-2.7,6.2-1.3,10.4C130.9,42.8,135.9,41,135.5,35.8z M133,45.9
	 			c-3.5-2.3-0.5-6.4-0.5-11.4C133.5,39.7,130.4,42.5,133,45.9z M131.6,32.5c1,0,0.4,3.9-0.2,7.3c0.6-5.8-0.3-6.2-0.3-6.9
	 			C131.1,32.6,131.3,32.5,131.6,32.5z M130.4,34.5c1.1,3.2-2.4,7.7,1.5,11.1C126.8,42.7,130.4,38.7,130.4,34.5z M129.3,33.7
	 			c1,0,0.6,3,0.1,4.7c0.3-3.3-0.6-3.6-0.6-4.2C128.8,34,129,33.7,129.3,33.7z"/>
	 		<path fill="#A4A9AD" d="M162.9,27.4v-1c-0.1-0.2-0.4-0.5-1.1-0.8c0,0.3,0,0.7,0,1C162.5,27,162.8,27.2,162.9,27.4z"/>
	 		<path fill="#A4A9AD" d="M162.6,28.6c0-0.8-0.2-1-0.7-1.2c0,0-0.1,0-0.1,0c0,0.6-0.1,1.1-0.1,1.6c0.4,0.4,0.7,0.8,0.9,1.2
	 			C162.6,29.6,162.6,29.1,162.6,28.6z"/>
	 	</g>
	 	<g>
	 		<path d="M185.7,198.4l-0.6-1.4c0.4-0.1,0.6-0.5,0.6-0.9c0-0.5-0.4-1-1-1h-1.4v3.2h0.6v-1.3h0.4l0.6,1.3H185.7z M184.7,196.5H184
	 			v-0.7h0.8c0.2,0,0.4,0.2,0.4,0.4C185.1,196.4,184.9,196.5,184.7,196.5z"/>
	 		<path d="M187.4,196.8c0-1.6-1.3-2.8-2.8-2.8c-1.6,0-2.8,1.3-2.8,2.8c0,1.6,1.3,2.8,2.8,2.8C186.1,199.6,187.4,198.4,187.4,196.8z
	 			 M182.3,196.8c0-1.2,1-2.2,2.2-2.2c1.2,0,2.2,1,2.2,2.2c0,1.2-1,2.2-2.2,2.2C183.3,199,182.3,198,182.3,196.8z"/>
	 		<path d="M143,51.2h-0.7c-0.1,0.5-0.4,0.7-0.4,0.7h1.4C143.3,51.9,143.1,51.8,143,51.2z"/>
	 		<path d="M136.6,50.5c-0.7,1.3,0.5,1.8,0.9,1.1C137.4,51.7,136.6,51.8,136.6,50.5z"/>
	 		<path d="M150.6,51.8c-0.2,0.1-0.8,0.2-0.9-1.1C149.1,52.1,150.3,52.4,150.6,51.8z"/>
	 		<path d="M115.2,91.2c0,0,0.6,0.1,2.1,0.3c0,0,0.3-3,5.6-4.8C115.5,87.6,115.2,91.2,115.2,91.2z"/>
	 		<path d="M139.5,51.6c-0.1,0-0.9,0.1-1-1.2C138,51.8,139.2,52.2,139.5,51.6z"/>
	 		<path d="M145.7,51.9c0,0-0.4-0.2-0.4-0.7l-0.4,0c0,0-0.1,0.4-0.5,0.6L145.7,51.9z"/>
	 		<path d="M140.4,51.3l-0.5,0c-0.1,0.5-0.4,0.7-0.4,0.7l1.4,0C140.5,51.7,140.4,51.3,140.4,51.3z"/>
	 		<path d="M144.4,51.5c-0.1,0-0.8,0.2-0.9-1.2C142.9,51.7,144.1,52.1,144.4,51.5z"/>
	 		<path d="M138.8,52c-0.4-0.2-0.5-0.6-0.5-0.6l-0.3,0c0,0.4-0.3,0.6-0.4,0.7L138.8,52z"/>
	 		<path d="M141.8,51.6c-0.1,0-0.9,0.1-1-1.2C140.2,51.8,141.5,52.2,141.8,51.6z"/>
	 		<path d="M134.2,46.1c-1.3-4.2,2.1-3.5,1.3-10.4C135.9,41,130.9,42.8,134.2,46.1z"/>
	 		<path d="M148.9,52.1l0.7,0.1c0,0-0.3-0.2-0.3-0.7l-0.3,0c0,0,0,0.4-0.5,0.6L148.9,52.1z"/>
	 		<path d="M150.4,52.2l1,0.1c0,0-0.2-0.1-0.3-0.4c0-0.1-0.3-0.2-0.4,0C150.6,52,150.5,52.2,150.4,52.2z"/>
	 		<path d="M136.3,50.4l0.3,0c0,0,0.7-0.9,0.5-1.9c-0.6,0.1-1,0.1-1,0.1c0.4,0.9-0.5,1.7-0.5,1.7C136,50.1,136.3,50.4,136.3,50.4z"/>
	 		<path d="M128.5,35.9c0.3,3.3-2.5,6.3,1.4,8.7C127,40.9,129.6,40.8,128.5,35.9z"/>
	 		<path d="M131.2,51.9c-0.1,0.2-0.4,0.2,0-0.7C130.2,52.3,131.1,53.2,131.2,51.9z"/>
	 		<path d="M126.3,41.7c-0.8-1.2-0.5-2.6-1.5-3.6C125.3,38.9,125,40.5,126.3,41.7z"/>
	 		<path d="M128.5,44c-2.1-2.1-1.6-5-2.1-6.7C126.7,39.4,125.7,41.9,128.5,44z"/>
	 		<path d="M146.7,51.5c-0.1,0-0.8,0.2-0.9-1.2C145.2,51.7,146.4,52.2,146.7,51.5z"/>
	 		<path d="M136.3,51.5l-0.3,0c0,0.5-0.3,0.7-0.3,0.7l1.1-0.1C136.3,51.9,136.3,51.5,136.3,51.5z"/>
	 		<path d="M133.9,51.8c-0.2,0.1-0.9,0.4-0.6-1C132.1,52.1,133.7,52.9,133.9,51.8z"/>
	 		<path d="M135.6,51.7c-0.1,0-0.9,0.3-0.8-1C134,52,135.3,52.6,135.6,51.7z"/>
	 		<path d="M134.9,52.2c-0.4-0.2-0.4-0.6-0.4-0.6l-0.3,0c0,0.6-0.3,0.7-0.3,0.7L134.9,52.2z"/>
	 		<path d="M133.3,52.4c-0.5-0.2-0.5-0.6-0.5-0.6l-0.1,0c0,0-0.1,0.6-0.5,0.7L133.3,52.4z"/>
	 		<path d="M132.4,51.8c-0.2,0.1-0.7,0.2-0.5-0.7C130.9,52.4,132.3,52.9,132.4,51.8z"/>
	 		<path d="M147.8,52c-0.1-0.1-0.4-0.3-0.4-0.7l-0.3,0c0,0-0.1,0.4-0.5,0.6L147.8,52z"/>
	 		<path d="M130.4,34.5c0,4.1-3.6,8.2,1.5,11.1C128,42.2,131.5,37.7,130.4,34.5z"/>
	 		<path d="M155,52.4c-0.1,0.1-0.3,0-0.3-0.1C154.6,52.6,155,52.7,155,52.4z"/>
	 		<path d="M132.5,34.5c0,5-3,9.1,0.5,11.4C130.4,42.5,133.5,39.7,132.5,34.5z"/>
	 		<path d="M154.5,52.2c-0.1,0.2-0.4,0.4-0.6-0.3C153.9,52.7,154.5,52.9,154.5,52.2z"/>
	 		<path d="M152.3,52c-0.2,0.1-0.8,0.3-0.9-1.1C150.8,52.2,152,52.6,152.3,52z"/>
	 		<path d="M148.7,51.6c-0.1,0-0.8,0.2-0.9-1.1C147.3,51.9,148.4,52.3,148.7,51.6z"/>
	 		<path d="M152,52.4l1.1,0.2c-0.2-0.1-0.3-0.2-0.4-0.4c-0.1-0.1-0.3-0.1-0.3-0.1C152.3,52.3,152.2,52.4,152,52.4z"/>
	 		<path d="M153.6,52.1c-0.2,0.1-0.6,0.3-0.9-0.8C152.6,52.5,153.5,52.7,153.6,52.1z"/>
	 		<path d="M160.5,167.7c0-0.1-0.1-0.2-0.2-0.2h-0.4v0.4h0.4C160.4,167.9,160.5,167.8,160.5,167.7z"/>
	 		<path d="M160.2,169.2c0.7,0,1.2-0.5,1.2-1.2s-0.5-1.2-1.2-1.2c-0.7,0-1.2,0.5-1.2,1.2S159.6,169.2,160.2,169.2z M159.6,167.2h0.7
	 			c0.3,0,0.5,0.2,0.5,0.5c0,0.2-0.1,0.4-0.3,0.5l0.3,0.7h-0.4l-0.3-0.7h-0.2v0.7h-0.3V167.2z"/>
	 		<polygon points="98.6,100 96.1,104.7 99,104.7 		"/>
	 		<path d="M222,93.8h-22c0,0-4-2.8-10.5-2.8c-4.7,0-8.5,1-11.4,2.8H173c0.7-2-0.7-3.1-0.7-3.1c-0.8-5-8.1-6.1-8.1-6.1
	 			c-0.4-2.7-2.7-3.5-2.7-3.5c1-1.1,0-2.4,0-2.4v-5.4c0-2-2.6-3.3-2.6-3.3s0.5-0.5,0.5-2.2v-5.9c0-1.4-2.1-2.9-2.1-2.9l0-3.8l-0.5-2
	 			c0.4-2.9-4.9-4.4-4.9-4.4l0.3-0.3c5.1-1.9,12-5.6,12-19.4c0,0,0.3-0.5,0.3-1.2v-1.4c0-3.2-9.8-4.7-22-4.7c-12.2,0-22,1.5-22,4.7
	 			v1.4c0,0.6,0.3,1.2,0.3,1.2c0,13.8,6.9,17.5,12,19.4l0.3,0.3c0,0-5.3,1.5-4.9,4.4l-0.5,2l0,3.8c0,0-2.1,1.5-2.1,2.9v5.9
	 			c0,1.7,0.5,2.2,0.5,2.2s-2.6,1.3-2.6,3.3v5.4c0,0-1,1.3,0,2.4c0,0-2.3,0.9-2.7,3.5c0,0-7.3,1.1-8.1,6.1c0,0-1.4,1.1-0.7,3.1H81.4
	 			c0,0-3.6-2.8-10.1-2.8c-9,0-12,4.5-12.6,6.8c-1.4,5.5,3.4,7.9,3.4,7.9s-1.6-0.6-3.2-1.5l-4.5,8.1c0,0,3.3,3.2,11,3.2
	 			c3.7,0,6.5-0.9,8.2-1.7h2.9c1.1,1.4,2.6,3.8,2.1,5.7l-3.6,14.1h10.1l8,43.1c1,5.5,5.9,12.3,10.8,15l38.7,21.3l38.7-21.3
	 			c4.9-2.7,9.8-9.5,10.8-15l8.1-43.5c3.6-1,6.4-3.3,7.2-6.4c0.8-3.2-1.1-5.2-1.1-5.2l4-7.9h8l1.2-4.8c4.8,0,10-2.4,11.2-6.9
	 			C232,97.3,228,93.8,222,93.8z M174.3,103.3c1.2-4.6,5.4-9.5,15.4-9.5c3.5,0,5.6,0.8,5.6,0.8l-1.9,3.3c0,0-1.6-0.5-4.1-0.5
	 			c-5.6,0-8,2.9-8.8,5.8c-0.5,1.9,0,5.8,6.3,5.8c3,0,4.8-0.6,4.8-0.6l0.5,3.5c0,0-2.6,0.9-6.7,0.9
	 			C175.9,112.8,173.2,107.4,174.3,103.3z M144.7,173.1c0.2-0.2,0.4-0.4,0.5-0.5c1.2-0.3,2-0.5,2.8-0.6c12.9-0.6,23.8-3.1,27.3-6.5
	 			C172.9,169.6,160.2,172.8,144.7,173.1z M110,165.5c3.5,3.4,14.4,5.9,27.3,6.5c0.8,0.2,1.6,0.3,2.8,0.6c0,0.1,0.2,0.2,0.5,0.5
	 			C125.1,172.8,112.3,169.6,110,165.5z M109.5,126.7l-2,3.4H95.2l3.7-14.5h5.2l-2.8,11.1H109.5z M138.4,107.7l-2,3.4h-12.2l3.7-14.5
	 			h5.2l-2.8,11.1H138.4z M140.5,96.6h19l2.2,5.3l5-5.3h5.5l-8.8,8.7l-1.5,5.8h-5.2l1.5-5.8l-3.7-8.2l-0.8,2.9h-7.4l-0.6,2.2h6.9
	 			l-0.9,3.4h-6.9l-0.5,2h8.8l-2,3.4h-12.9l2.8-11.1C141.9,97.8,140.5,96.6,140.5,96.6z M175,159.6c0-0.7-0.3-1.4-0.9-2
	 			c0.9,0.7,1.3,1.5,1.3,2.3c0,2.1-3.1,3.9-8.1,5.4C172.1,163.7,175,161.7,175,159.6z M160.3,164.5c1.2-2,1.9-4.3,1.9-6.9
	 			c0-2.4-0.5-3.9-1-5.3c9.3-1.5,11-4,11-4l0.1,9.3C174,159.4,171,162.7,160.3,164.5z M111.2,157.5c-0.6,0.7-0.9,1.3-0.9,2
	 			c0,2.2,2.9,4.1,7.7,5.6c-5.1-1.4-8.1-3.3-8.1-5.4C109.8,159,110.3,158.3,111.2,157.5z M113,157.6l0.1-9.3c0,0,0.3,0.4,1.2,1
	 			l-0.1,9.2c0,2.2,3.1,3,3.1,3s-1-0.8-1-2.2l0.1-8.9c1.7,0.7,4.1,1.4,7.6,2c-0.5,1.4-1,2.9-1,5.3c0,2.6,0.7,4.9,1.9,6.9
	 			C114.3,162.7,111.2,159.4,113,157.6z M128.4,135.6c-0.2,0.4-0.5,0.7-0.8,1c-8.1-0.7-11.9-2-13.6-3h1.6
	 			C118,134.5,122.1,135.3,128.4,135.6z M118.9,133.6h10.4l-0.4,1.2c0,0.1-0.1,0.2-0.1,0.2C124.4,134.6,121.2,134.1,118.9,133.6z
	 			 M113.1,144.1l0.1-10.1c0,0,0.3,0.3,1.2,0.7l-0.1,10.6c0.5,0.4,1.2,0.8,2.1,1.2l0.1-11c2,0.6,5.1,1.3,9.8,1.8l-3.5,1l1.5,3.4
	 			c0.7,1.6,1.1,3.2,1.1,4.9c0,1-0.1,1.8-0.3,2.5C115.1,147.8,113.1,145.1,113.1,144.1z M124.9,150.3c-0.1,0.4-0.2,0.7-0.4,1
	 			c-11-1.8-11.9-5-11.9-5v-1.1C112.6,145.2,113.6,148.5,124.9,150.3z M124.4,161.9c-0.5-1.3-0.7-2.8-0.7-4.3c0-5.1,2.4-6,2.4-10.9
	 			c0-2-0.5-3.7-1.1-5.2l-1.2-2.8l2.9-0.9c1.3-0.4,2.2-1.3,2.8-2.9l1.3-3.5l2.9,2.4c0.9,0.8,2,1.3,3.2,1.3c1.5,0,3.1-0.8,4-1.7
	 			l1.9-1.8l1.9,1.8c1,0.9,2.5,1.7,4,1.7c1.2,0,2.2-0.5,3.2-1.3l2.9-2.4l1.3,3.5c0.6,1.5,1.5,2.5,2.8,2.9l2.9,0.9l-1.2,2.8
	 			c-0.6,1.4-1.1,3.2-1.1,5.2c0,2.5,0.6,4,1.2,5.5c0.6,1.4,1.1,2.9,1.1,5.4c0,6.8-5.1,11.7-10.7,13.1c-2.8,0.7-4.1,0.8-6.1,1.3
	 			c-0.3,0.3-2.2,2.3-2.2,2.3s-1.9-2.1-2.2-2.3c-2.1-0.6-3.4-0.6-6.1-1.3C130,169.6,126,166.4,124.4,161.9z M160.1,149.2
	 			c-0.2-0.7-0.3-1.6-0.3-2.5c0-1.7,0.4-3.3,1.1-4.9l1.5-3.4l-3.5-1c11.1-1.2,13.2-3.3,13.2-3.3l0.1,10.1
	 			C172.1,145.1,170.2,147.8,160.1,149.2z M172.7,145.2v1.1c0,0-0.9,3.2-11.9,5c-0.1-0.3-0.3-0.7-0.4-1
	 			C171.7,148.5,172.7,145.2,172.7,145.2z M160.2,166.5c0.8,0,1.5,0.7,1.5,1.5c0,0.8-0.7,1.5-1.5,1.5c-0.8,0-1.5-0.7-1.5-1.5
	 			C158.7,167.2,159.4,166.5,160.2,166.5z M157.6,136.6c-0.3-0.3-0.6-0.6-0.8-1c6.3-0.3,10.5-1.1,12.8-2h1.6
	 			C169.5,134.6,165.7,135.9,157.6,136.6z M156.5,135c0-0.1-0.1-0.2-0.1-0.2l-0.4-1.2h10.4C164.1,134.1,160.9,134.6,156.5,135z
	 			 M150.7,130.4c-7.4,0-8.7-3.3-7.6-7.5c1.1-4.1,4-7.5,11.4-7.5c7.4,0,8.7,3.3,7.6,7.5C161.1,127,158.1,130.4,150.7,130.4z
	 			 M140.6,115.7h5.5l-8.8,8.7l-1.5,5.8h-5.2l1.5-5.8l-3.9-8.7h5.1l2.2,5.3L140.6,115.7z M125.5,115.7l2.1,14.5H122l-0.3-3.3h-4.8
	 			l-1.8,3.3h-5.7l9.4-14.5H125.5z M189.4,121.3l-2.9,3.4h-3.2l-1.4,5.4h-5.2l2.8-11.1c0.6-2.2-0.9-3.4-0.9-3.4h14.3l-2.9,3.4h-5.3
	 			l-0.6,2.2H189.4z M178.5,115.7l-2.9,3.4h-5.3l-0.6,2.2h5.3l-2.9,3.4h-3.2l-1.4,5.4h-5.2l2.8-11.1c0.6-2.2-0.9-3.4-0.9-3.4H178.5z
	 			 M129,24.2c0.4-0.1,0.8-0.1,1.3-0.2c2.7-0.3,6.3-0.6,10.9-0.6c0.5,0,0.9,0,1.4,0c4.5,0,8,0.2,10.8,0.5c1.2,0.1,2.2,0.3,3.1,0.4
	 			c1.2,0.2,2.3,0.4,3.1,0.6c1,0.3,1.7,0.5,2.2,0.7c0.7,0.3,1,0.6,1.1,0.8v1c-0.1-0.2-0.4-0.5-1.1-0.8c-0.5-0.2-1.2-0.5-2.2-0.7
	 			c-0.8-0.2-1.8-0.4-3-0.6c-0.9-0.1-1.9-0.3-3-0.4c-2.8-0.3-6.4-0.5-10.9-0.5c-0.5,0-1.1,0-1.6,0c-4.5,0-7.9,0.3-10.6,0.6
	 			c-0.5,0.1-0.9,0.1-1.3,0.2c-1.3,0.2-2.4,0.4-3.3,0.6l-0.1-1C126.6,24.6,127.7,24.4,129,24.2z M122.4,27.4v-1
	 			c0.1-0.2,0.5-0.5,1.3-0.9l0.1,1C122.9,26.9,122.5,27.2,122.4,27.4z M122.7,28.6c0-0.8,0.2-1,0.7-1.2c0.1-0.1,0.2-0.1,0.4-0.2
	 			l0.1,1.2c0,0,0.8-0.7,2.1-0.6l-0.1-1.2c0.9-0.2,2-0.4,3.3-0.6c0.4-0.1,0.8-0.1,1.3-0.2c2.6-0.3,6.1-0.6,10.5-0.6
	 			c0.5,0,1.1,0,1.7,0c4.6,0,8.2,0.2,11,0.5c1.1,0.1,2.1,0.2,3,0.4c1.2,0.2,2.2,0.4,3,0.6c1,0.2,1.7,0.5,2.2,0.7c0,0,0.1,0,0.1,0
	 			c0.5,0.3,0.7,0.4,0.7,1.2c0,0.5,0,1,0,1.5c-0.2-0.4-0.5-0.8-0.9-1.2c-0.5-0.5-1.2-0.9-2.1-0.9c0,0-0.1,0-0.1,0
	 			c-1.1,0-1.8,0.6-2.3,1.1c-0.2-0.2-0.4-0.4-0.6-0.6c-0.6-0.5-1.6-1-2.9-1.2c-0.3-0.1-0.7-0.1-1.1-0.1c-2.4,0-3.8,1.1-4.4,1.7
	 			c-0.8-0.6-2.6-1.9-5.5-1.9c-0.6,0-1.2,0.1-1.8,0.2c-1.9,0.4-3.1,1.2-3.7,1.7c-0.6-0.6-2-1.7-4.4-1.7c-0.8,0-1.5,0.1-2.1,0.3
	 			c-0.5,0.2-0.9,0.4-1.3,0.6c-0.6,0.3-1,0.7-1.3,1c-0.4-0.5-1.2-1.1-2.4-1.1c-1.5,0-2.5,1.1-3,2C122.7,29.6,122.7,29.1,122.7,28.6z
	 			 M122.8,31.1c0.2-0.5,0.5-1.3,1.2-1.9c0,6,1.6,9.2,1.6,9.2c0-1.2-0.6-2.3,0.2-2.3c0.4,0,0.5,0.5,0.5,0.5s0.1-0.2,0.3-0.2
	 			c0,0-0.5-2.1-0.9-8c0,0,0,0,0,0c1.5,0,2.4,1.4,2.4,1.4s0.4-0.7,1.4-1.2c0.4-0.2,0.8-0.4,1.3-0.6c0.6-0.2,1.2-0.3,2-0.3
	 			c3.1,0,4.4,1.9,4.4,1.9s1.3-1.4,3.8-1.9c0.5-0.1,1.1-0.2,1.8-0.2c3.7,0,5.5,2.1,5.5,2.1s1.3-1.9,4.4-1.9c0.4,0,0.8,0,1.1,0.1
	 			c1.1,0.2,2,0.7,2.6,1.1c0.7,0.5,1,1,1,1s0.6-1,1.8-1.3c0.2,0,0.4-0.1,0.6-0.1c0.9,0,1.6,0.5,2.1,1c0.5,0.5,0.7,1.2,0.9,1.6
	 			c-0.8,12-7.3,14.3-11.2,15.8c0,0-0.1-0.1-0.3-0.3c1.9-1.7,8.1-3,10.1-8.8c-3.2,5.5-6.6,5.7-10.7,8.4c-0.1-0.1-0.3-0.1-0.4-0.2
	 			c3.3-2.6,8.3-3.6,10.1-7.9c-2.4,4-5.7,4.2-10.7,7.7c-0.2,0-0.4-0.1-0.6-0.1c2.5-2.5,7.6-2.7,9.8-7.9c-3.2,5.2-6.9,4.3-10.5,7.8
	 			c-0.2,0-0.3,0-0.5-0.1c3.2-3.4,7.3-2.8,8.9-8.4c-3,5.7-5.4,4-9.9,8.3c-0.2,0-0.4,0-0.6,0c2.5-3.6,7.9-2.8,8.6-10
	 			c-2.3,7.2-6.9,5.7-9.9,9.9c-0.2,0-0.4,0-0.6,0c2.2-4.1,7.5-3.5,8.3-11.1c-2.3,8.1-7.1,6.1-9.9,11c-0.3,0-0.5,0-0.7,0
	 			c1.2-3.8,8.6-5.4,7.6-10.8c-0.3,5.5-6.8,5.8-8.9,10.9c-0.2,0-0.3,0-0.5,0c1.4-4.2,5.4-5.1,5.8-9.7c-1.4,4.6-5.8,5.6-6.9,9.8
	 			c-0.2,0-0.3,0-0.5,0.1c0.7-4,3.4-4.8,3.8-8.8c-1.3,4.1-4.1,4-5.3,9c-0.2,0-0.4,0.1-0.6,0.1c-0.7-3.9,2.5-3.2,2.8-9.3
	 			c-1.1,5.8-5,5-3.9,9.6c-1,0.3-1.2,0.7-1.2,0.7C130.1,45.4,123.6,43.2,122.8,31.1z M136.7,46.4v-0.2c0.2,0,0.4-0.1,0.6-0.1
	 			c0.3,0,0.7-0.1,1.1-0.1c0.4,0,0.9-0.1,1.4-0.1c0.9-0.1,1.8-0.1,2.8-0.1c1.6,0,3.1,0.1,4.2,0.2c0.5,0.1,1,0.1,1.4,0.2
	 			c1.7,0.3,2.6,0.7,2.6,1.1c0,0-0.7-0.4-2.6-0.7c-0.4-0.1-0.9-0.1-1.4-0.2c-1.1-0.1-2.5-0.2-4.2-0.2c-1.1,0-2,0-2.8,0.1
	 			c-0.5,0-1,0.1-1.4,0.1c-0.4,0-0.7,0.1-1.1,0.1c-2.1,0.3-2.9,0.7-2.9,0.7c0-0.3,0.4-0.5,1.1-0.7v0.2L136.7,46.4z M135.1,47.9
	 			c0,0,2.7-0.7,7.6-0.7c4.8,0,7.6,0.7,7.6,0.7c-1.8,2.7,5,1.9,5,4.6l-0.1,0c-0.1,0.4-0.5,0.3-0.5-0.2c0,0.6-0.8,0.5-0.7,0l-0.2,0
	 			c-0.1,0.4-0.4,0.4-0.4,0.4s1.1,0.2,1.8,0.4l-0.2,0.2c0,0-1-0.3-3.4-0.6c-0.7-0.1-1.5-0.2-2.4-0.2c-1.7-0.1-3.7-0.2-6.3-0.2
	 			c-1.3,0-2.5,0-3.6,0.1c-0.6,0-1.1,0-1.6,0.1c-0.6,0-1.2,0.1-1.8,0.1c-3.7,0.3-5.2,0.8-5.2,0.8l-0.2-0.2c0.7-0.2,1.7-0.4,1.7-0.4
	 			c-0.5,0-0.5-0.6-0.5-0.6l-0.1,0c0,0.9-0.8,0.8-0.8,0.2c0,0.5-0.4,0.6-0.5,0.2l-0.1,0C130.1,49.8,136.9,50.6,135.1,47.9z
	 			 M129.9,54.1c0,0,0.2-0.2,1.2-0.5v0.8c0.5-0.1,1.3-0.3,2.4-0.4v-0.8c0.6-0.1,1.4-0.2,2.3-0.2c0.5,0,1.1-0.1,1.8-0.1
	 			c0.5,0,1,0,1.6-0.1c1.1,0,2.3,0,3.6,0c2.6,0,4.6,0.1,6.3,0.2c0.9,0.1,1.7,0.1,2.4,0.2c3.7,0.4,4.1,1,4.1,1V55c0,0-0.8-0.5-4.1-0.8
	 			c-0.7-0.1-1.5-0.1-2.4-0.2c-1.7-0.1-3.7-0.2-6.3-0.2c-1.3,0-2.5,0-3.6,0.1c-0.6,0-1.1,0-1.6,0.1c-0.7,0-1.2,0.1-1.8,0.1
	 			c-4.7,0.4-5.8,1-5.8,1V54.1z M129.6,55.8c0-0.2,0.4-0.4,1.2-0.6l0,3.3c0.4-0.1,1-0.1,1.8-0.2l0-2.9c0-0.3,0.3-0.5,0.4-0.6
	 			c0.7-0.1,1.6-0.2,2.5-0.3c0.7,0,1.4-0.1,2.1-0.1c0.5,0,1.1,0,1.6-0.1c1.1,0,2.2,0,3.4,0c2.5,0,4.5,0.1,6.3,0.2
	 			c0.9,0.1,1.7,0.1,2.4,0.2c3,0.3,4.3,0.8,4.4,1.1l0,3.5c0,0-0.8-0.3-4.4-0.5c-0.7,0-1.5-0.1-2.4-0.1c-1.7-0.1-3.7-0.1-6.3-0.1
	 			c-1.3,0-2.5,0-3.6,0c-0.6,0-1.2,0-1.7,0c-1.4,0-2.6,0.1-3.5,0.2c-3.5,0.2-4.3,0.5-4.3,0.5L129.6,55.8z M129.5,60
	 			c0,0,0.3-0.1,1.3-0.2c-0.9,0.6-1.5,1.1-1.7,1.3c0.5,0,1.2-0.1,1.9-0.2c0.2-0.2,0.7-0.7,1.5-1.3c0.4,0,0.9-0.1,1.5-0.1
	 			c0.9,0,2-0.1,3.3-0.1c0.5,0,1,0,1.5,0c1.1,0,2.3,0,3.7,0c2.6,0,4.8,0,6.5,0.1c1,0,1.8,0.1,2.5,0.1c3.3,0.2,4.1,0.4,4.1,0.4
	 			s1.6,0.8,2.3,2c0,0-1-0.2-4.4-0.5c-0.8,0-1.6-0.1-2.6-0.1c-2.1-0.1-4.9-0.1-8.4-0.1c-1.6,0-3,0-4.4,0c-0.5,0-1,0-1.5,0
	 			c-2,0-3.6,0.1-4.9,0.2c-3.6,0.2-4.7,0.5-4.7,0.5C127.9,60.8,129.5,60,129.5,60z M130.4,67v-4.9c0.4,0,0.8,0,1.3-0.1
	 			c1.3-0.1,3-0.1,5-0.2c0.5,0,1,0,1.5,0c1.3,0,2.8,0,4.4,0c3.5,0,6.3,0.1,8.5,0.1c1,0,1.8,0.1,2.6,0.1c2.9,0.1,4.1,0.3,4.1,0.3v5.6
	 			c0,0-0.7-0.2-4.1-0.4c-0.7,0-1.6-0.1-2.6-0.1c-2.1-0.1-4.9-0.1-8.5-0.1c-1.6,0-3.1,0-4.4,0c-0.5,0-1,0-1.5,0c-2.1,0-3.7,0.1-5,0.1
	 			c-3.5,0.2-4.3,0.4-4.3,0.4v-5.6c0,0,0.3,0,1.1-0.1v4.9L130.4,67z M127.9,68.9c0,0,0.4,0,1.2-0.1c1.4,2.7-2.1,2.5-2.4,4.4l2.3-0.1
	 			c0.4-1.5,3.3-1.3,1.9-4.4c0.4,0,0.8,0,1.2-0.1c1.4-0.1,3.1-0.2,5-0.2c0.5,0,1,0,1.5,0c1.4,0,2.8-0.1,4.2-0.1c3,0,6,0.1,8.4,0.2
	 			c0.9,0,1.7,0.1,2.5,0.1c2.4,0.1,3.9,0.3,3.9,0.3c-1.7,2.9,2.5,2,2.5,4.9c0,0-1.8-0.1-5.1-0.2c-0.8,0-1.8,0-2.9-0.1
	 			c-2.5,0-5.6-0.1-9.3-0.1c-1.8,0-3.5,0-5,0c-0.5,0-1,0-1.5,0c-2,0-3.8,0.1-5.2,0.1c-3.6,0.1-5.5,0.2-5.5,0.2
	 			C125.4,70.9,129.6,71.8,127.9,68.9z M125.4,74.5c0,0,0.4,0,1.1,0v4.3l2.2,0v-4.3c0.6,0,1.4,0,2.2,0c1.5,0,3.3,0,5.2,0
	 			c0.5,0,1,0,1.6,0c1.6,0,3.3,0,5,0c3.4,0,6.6,0,9.3,0c1,0,2,0,2.9,0c3.2,0,5.1,0,5.1,0v5c0,0-1.9,0-5.1-0.1c-0.9,0-1.8,0-2.9,0
	 			c-2.6,0-5.7,0-9.3,0c-1.8,0-3.4,0-5,0c-0.5,0-1.1,0-1.6,0c-2,0-3.7,0-5.2,0c-3.5,0-5.5,0.1-5.5,0.1V74.5z M125.9,80.5
	 			c0,0,0.4,0,1.2,0c1,2.8-3.3,1.7-3.3,4.1c0.5,0,1.3,0.1,2.2,0.1c0-2.5,4.4-1.2,3.3-4.3c0.8,0,1.8,0,3,0c1.2,0,2.5,0,4,0
	 			c0.5,0,1,0,1.6,0c1.4,0,3,0,4.8,0c4.7,0,8.2,0,10.8,0.1c0.9,0,1.7,0,2.3,0c2.5,0,3.6,0.1,3.6,0.1c-1.1,2.9,3.4,1.1,3.3,4.5
	 			c0,0-1.4,0.1-5.2,0.3c-0.8,0-1.8,0.1-2.8,0.1c-3,0.1-6.9,0.1-12,0.1c-2.1,0-4,0-5.8,0c-0.6,0-1.1,0-1.6,0c-1.7,0-3.1,0-4.4-0.1
	 			c-6.2-0.1-8.2-0.3-8.2-0.3C122.5,81.6,127,83.4,125.9,80.5z M114,93.4c-0.2-0.4-0.3-0.8-0.2-1c0,0,2.5,0.4,7.1,0.6
	 			c4.5,0.2,11.1,0.3,19.3-0.2c-1.9,0-3.7,0-5.4,0c-0.7,0-1.4,0-2,0c-4.3-0.1-7.8-0.2-10.4-0.4c-5.7-0.3-7.8-0.7-7.8-0.7
	 			c0.5-4.9,8.1-5.5,8.1-5.5s0.7,0.2,7.2,0.4c1.5,0,3.2,0.1,5.3,0.1c0.6,0,1.3,0,2,0c1.7,0,3.5,0,5.6,0c4.6,0,8.2,0,11-0.1
	 			c1.2,0,2.3,0,3.2-0.1c5.3-0.1,5.9-0.3,5.9-0.3s7.6,0.6,8.1,5.5c0,0,0.5,0.2,0.7,0.8c0.1,0.3,0,0.6-0.2,1c0,0-1.1,0.2-4.3,0.4
	 			h-46.2h-2.5C115.1,93.6,114,93.4,114,93.4z M107.5,96.6h7.9l3.2,8.1l2.1-8.1h5.2l-3.7,14.5h-5.6l-3.5-8.9l-2.3,8.9h-5.2l2.8-11.1
	 			C108.9,97.8,107.5,96.6,107.5,96.6z M102.9,96.6l2.1,14.5h-5.5l-0.3-3.3h-4.8l-1.8,3.3h-5.7l9.4-14.5H102.9z M75.5,107.8
	 			c-0.8,3.3-5,5-10.1,5c-5,0-7.3-1.4-7.3-1.4l1.9-3.5c0,0,2.3,1.2,5.9,1.2c1.7,0,3.4-0.5,3.7-1.6c0.8-3.1-9.9-2.6-8.2-8.9
	 			c0.6-2.2,3.6-4.8,9.9-4.8c3.7,0,5.9,1,5.9,1l-1.8,3.5c0,0-1.8-0.8-4.5-0.8c-2.1,0-3.4,0.6-3.7,1.4
	 			C66.5,101.7,77.1,101.5,75.5,107.8z M76.5,100l1.7-3.4h15.2l-1.7,3.4h-4.6l-2.8,11.1h-5.2l2.8-11.1H76.5z M85.1,125.4l-1.2,4.8
	 			h-5.2l2.8-11.1c0.6-2.2-0.9-3.4-0.9-3.4h9c4,0,6.8,1.9,6.1,4.9c-0.8,3-4.5,4.9-8.5,4.9H85.1z M142.6,207.8L107,189.3l35.6,15.7
	 			l35.6-15.7L142.6,207.8z M187.2,174.2c-1,4.6-5.4,9.9-9.9,11.7l-34.7,13.8L108,185.9c-4.4-1.8-8.9-7-9.9-11.7l-8.8-40.6h3.9h1.5
	 			l8.5,39.5c0.6,2.9,3.9,6.8,6.7,7.9l32.7,13l32.7-13c2.8-1.1,6-4.9,6.7-7.9l8.5-39.5h1.5h1c0,0,1.2,0.2,2.8,0.2L187.2,174.2z
	 			 M204.4,119.5c0,0-1.5-0.7-3.6-0.7c-1.8,0-2.7,0.5-2.8,0.8c-0.4,1.4,8,1.9,6.8,6.6c-0.7,2.7-4.1,4.1-8.3,4.1
	 			c-4.2,0-6.1-1.1-6.1-1.1l1.8-3.3c0,0,2,1,4.8,1c1.5,0,2.6-0.4,2.8-1c0.4-1.5-8-1.7-6.8-6.6c0.6-2.4,3.8-3.9,8.3-3.9
	 			c3.1,0,4.9,0.8,4.9,0.8L204.4,119.5z M210.4,105.7c-1.2,4.5-5.1,5.6-9.7,5.6c-4.5,0-8-1.1-6.8-5.6l2.3-9.1h5.2l-2.3,9.1
	 			c-0.4,1.7,0.8,2.2,2.5,2.2c1.7,0,3.2-0.5,3.6-2.2l2.3-9.1h5.2L210.4,105.7z M228.1,101.4c-0.8,3-4.5,4.9-8.5,4.9h-2.1l-1.2,4.8
	 			H211l3.7-14.5h7.3C226.1,96.6,228.9,98.5,228.1,101.4z"/>
	 		<path d="M221.9,100H219l-0.7,2.9h2.8c0.8,0,1.6-0.7,1.8-1.5C223.1,100.6,222.7,100,221.9,100z"/>
	 		<path d="M90.6,120.5c0.2-0.8-0.3-1.5-1.1-1.5h-2.8l-0.7,2.9h2.8C89.6,122,90.4,121.3,90.6,120.5z"/>
	 		<path d="M153.7,118.9c-3,0-4.4,1.8-4.9,4.1c-0.6,2.2-0.1,4.1,2.9,4.1c3,0,4.4-1.8,4.9-4.1C157.1,120.7,156.7,118.9,153.7,118.9z"
	 			/>
	 		<polygon points="121.5,123.8 121.2,119.1 118.6,123.8 		"/>
	 		<path d="M155.1,146.7c0-2.2,0.5-4.2,0.9-5.4c-0.8-0.5-1.8-1.2-2.7-2.4l-25.4,19c0.1,3.7,2.5,6.5,5.3,7.9l22.1-16.6
	 			C155.1,148.5,155.1,147.6,155.1,146.7z M139.1,159.6l-2,1.5l-2.1-3.2v4.8l-1.9,1.4v-6.8c0-1-0.9-1-0.9-1l2.6-2l2.4,3.6v-5.4
	 			l1.9-1.4V159.6z M146.6,154l-1.8,1.4v-3.1l-2.1,1.6v3.1l-1.9,1.4v-6.8c0-1-0.9-1-0.9-1l2.8-2.1v3.1l2.1-1.6v-3.1l1.8-1.4V154z
	 			 M153.5,148.8l-5.3,4V146c0-1-0.9-1-0.9-1l2.8-2.1v6.3l3.4-2.5C153.5,146.7,153.4,147.5,153.5,148.8z"/>
	 		<path d="M142.6,172.4c0,0,1.3-1.4,1.4-1.5c1.5-0.5,3.6-0.7,6.5-1.5c6.2-1.6,9.7-6.8,9.7-11.8c0-4.5-2.4-5.9-2.4-10.9
	 			c0-3.9,1.8-7.1,1.8-7.1s-4.5-0.4-5.8-5.9c0,0-2.7,2.8-5.5,2.8c-3.5,0-5.9-3-5.9-3s-2.3,3-5.9,3c-2.8,0-5.5-2.8-5.5-2.8
	 			c-1.2,5.5-5.8,5.9-5.8,5.9s1.8,3.3,1.8,7.1c0,0.5,0,1-0.1,1.4c-0.4,3.9-2.3,5.4-2.3,9.5c0,5,3.4,10.2,9.7,11.8
	 			c3,0.7,5,0.9,6.5,1.5C141.4,171.1,142.6,172.4,142.6,172.4z M126.3,157.6c0-4.1,2.4-5.6,2.4-10.9c0-3.5-1.3-6.3-1.3-6.3
	 			s3.1-0.6,4.5-4.5c0,0,2,1.9,4.9,1.9c3.5,0,5.9-2.5,5.9-2.5s2.3,2.5,5.9,2.5c2.8,0,4.9-1.9,4.9-1.9c1.4,3.9,4.5,4.5,4.5,4.5
	 			s-1.3,2.7-1.3,6.3c0,5.2,2.4,6.8,2.4,10.9c0,5.8-4.5,9.4-8.7,10.5c-3.3,0.8-5.5,0.9-6.9,1.6c0,0-0.5,0.5-0.7,0.7
	 			c-0.2-0.2-0.7-0.7-0.7-0.7c-1.4-0.7-3.6-0.8-6.9-1.6C130.8,167,126.3,163.3,126.3,157.6z"/>
	 		<path d="M148.5,139.3c-2.6,0-4.7-1.2-5.9-2c-1.2,0.9-3.2,2-5.9,2c-1.7,0-3.2-0.6-4.3-1.2c-1,1.6-2.2,2.6-3.2,3.1
	 			c0.4,1.3,0.9,3.2,0.9,5.4c0,4.3-1.5,6.3-2.1,8.8l21.6-16.2C149.3,139.3,148.9,139.3,148.5,139.3z"/>
	 		<path d="M142.6,168.6c0,0,0.3-0.3,0.5-0.4c1-0.5,4.2-0.9,6.8-1.6c3.6-0.9,7.5-4.1,7.5-9c0-2.4-1.1-4-1.8-6.5l-20.6,15.4
	 			c0.1,0,0.2,0.1,0.3,0.1c2.6,0.7,5.8,1,6.8,1.6C142.4,168.3,142.6,168.6,142.6,168.6z"/>
	 	</g>
	 	<g>
	 		<path fill="#FFFFFF" d="M129.3,182.2c2.8-1.4,4.1-2.2,4.1-2.9V179c0-1.1-1.1-1.7-3.2-1.7c-0.2,0-0.3,0-0.5,0c-0.2,0-0.3,0-0.4,0h0
	 			c-2.5,0-3.1,1.1-3.2,1.7v0.3h1.4V179c0-0.1,0-0.3,0.3-0.5c0.3-0.2,0.8-0.3,1.5-0.3c0,0,0.1,0,0.1,0h1c1.9,0,1.9,0.6,1.9,0.8v0.1
	 			c0,0.4-1.1,1-5.5,3.3l-0.9,0.4l0,0v0.9h7.9v-1h-5.5C128.5,182.6,128.9,182.4,129.3,182.2z"/>
	 		<path fill="#FFFFFF" d="M140.5,177.2h-1.2c-2.9,0-3.2,1.3-3.2,1.8c0,1.1,0,3,0,3c0,1.7,2.2,1.9,3.2,1.9h1c3,0,3.4-1,3.4-1.8V179
	 			C143.7,177.8,142.6,177.2,140.5,177.2z M142.3,182c0,0.2,0,0.4-0.2,0.6c-0.3,0.2-0.9,0.3-1.7,0.3h-1.1c-1.2,0-1.8-0.3-1.8-0.9
	 			v-2.9c0-0.4,0.3-0.8,1.8-0.8l0.1,0c0.1,0,0.3,0,0.5,0c0.2,0,0.4,0,0.6,0c1.2,0,1.9,0.3,1.9,0.8V182z"/>
	 		<path fill="#FFFFFF" d="M148.3,177.2c-0.1,0.4-0.9,1-2,1h0v0.9h1.4v4.7h1.4v-6.6L148.3,177.2L148.3,177.2z"/>
	 		<path fill="#FFFFFF" d="M152.2,177.3v1h6.6c-2,1.5-4.5,3.8-5.2,5.4l0,0h1.7l0,0c0.6-1.5,4.6-5.2,5.3-5.6l0,0v-0.9H152.2z"/>
	 	</g>
	 </g>
 </svg>