<svg version="1" xmlns="http://www.w3.org/2000/svg" width="933.333" height="933.333" viewBox="0 0 700.000000 700.000000"><path d="M25 352v208h311V144H25v208zm109.8-105.9l6.2 11.6-3.5 34.4c-2 18.9-4 36.1-4.6 38.1-.7 2.7-2.9 5.4-8.3 10.2-4 3.6-7.7 6.6-8.1 6.6-1.6 0-6.6-4.4-8-7.1-1.4-2.7-1.2-6.6 3-46.6 2.5-24.1 4.8-45.2 5.1-46.8.9-4.3 4.2-10.4 7.1-13.1 3.1-2.9 2.4-3.7 11.1 12.7zm125.9-8.7c2.2 4.1 1.9 8.3-3.2 57.1-3.2 30.6-4.9 43.5-6 45.2-.9 1.3-3.4 3.5-5.7 5l-4.1 2.8-6.3-6.9-6.4-6.8v-6.2c0-3.3 1.5-20.5 3.4-38.2l3.3-32 9.9-13.2c9.5-12.6 9.9-13.1 11.7-11.4 1.1.9 2.6 3 3.4 4.6zM122.4 364.2c5.4 6.1 5.6 6.5 5.6 12.2 0 5.4-5.5 62.6-6.5 67.1-.2 1.1-4.9 8-10.3 15.3l-9.9 13.1-2-2.2c-3.4-3.7-4.3-6.3-4.3-12.4 0-9 8.8-89 10.1-91.6 1.6-3.3 7.1-7.6 9.6-7.7 1.4 0 4.1 2.2 7.7 6.2zm122.2-4.4c1.2.9 2.9 2.9 3.8 4.4 1.7 2.5 1.5 4.7-2.9 46.5-2.6 24.1-4.9 44-5.1 44.2-.2.2-4.7-3.2-10-7.5s-10.4-8.6-11.5-9.4c-1.8-1.5-1.8-2.2 1.1-29.5 4.1-39.8 3.1-35.8 11.4-43.7 7.4-7 9.7-7.9 13.2-5zm-16.2 94.9c5.6 4.2 10.3 7.8 10.6 8 1.1.9-2.8 5.7-6 7.4-3.3 1.8-6.9 1.9-63.3 1.9-32.9 0-59.7-.4-59.5-.8.2-.5 4.1-6.1 8.8-12.5l8.5-11.7h90.9l10 7.7zM361 352v208h314V144H361v208zm130.9-70.4c9 27.8 16 50.9 15.5 51.3-3.6 3.2-21.5 16.3-21.7 16-.2-.2-7.4-22.6-16.1-49.7L453.9 250l.6-8.3c.4-4.5.8-8.8 1-9.5.3-.8 3.3-1.2 10.2-1.2h9.8l16.4 50.6zm109.5-42.4c-.4 5.9-1.4 10-3.4 14.3-2.6 5.9-49.6 94.4-50.5 95.3-.5.6-18.5-15.9-18.5-17 0-.4 12-23.3 26.7-50.8l26.6-50H602l-.6 8.2zm-69.9 106.3c3.2 3.6 5.6 6.7 5.4 6.9-.2.2-3.7 2.9-7.8 6l-7.3 5.6h-14.4l-5.9-6.1-6-6 7-6.4 7-6.4 8.1-.1h8.2l5.7 6.5zm-36.2 16.9l8.8 8.3-26.9 50.4-26.9 50.4-9.8.3-9.8.3.8-9.3.7-9.3 26-49c30.4-57.2 26.8-50.5 27.6-50.5.4.1 4.7 3.8 9.5 8.4zm68.1 41.9l15.7 48.8-1.1 8.2c-.5 4.5-1 8.7-1 9.4 0 1-2.5 1.3-9.9 1.3h-9.9l-3.1-9.3c-21.4-65.6-29.1-89.7-29.1-91 0-2 21-18.1 22.1-17 .4.5 7.7 22.8 16.3 49.6z"/></svg>